<svg width="321" height="145" viewBox="0 0 321 145" fill="none" xmlns="http://www.w3.org/2000/svg">
<g filter="url(#filter0_d_480_10146)">
<rect x="20.9633" y="20.4824" width="280" height="104" rx="10" fill="white"/>
<rect x="21.4633" y="20.9824" width="279" height="103" rx="9.5" stroke="#C4C4C4"/>
</g>
<path d="M31.9993 78.4824V68.6824H33.1753V73.1204L37.2633 68.6824H38.7473L35.1073 72.5884L38.8033 78.4824H37.3753L34.2673 73.4984L33.1753 74.6604V78.4824H31.9993ZM40.0777 78.4824V71.5384H41.1417L41.2117 72.7844C41.4357 72.3458 41.7577 72.0004 42.1777 71.7484C42.5977 71.4964 43.0737 71.3704 43.6057 71.3704C44.427 71.3704 45.0804 71.6224 45.5657 72.1264C46.0604 72.6211 46.3077 73.3864 46.3077 74.4224V78.4824H45.1317V74.5484C45.1317 73.1018 44.5344 72.3784 43.3397 72.3784C42.7424 72.3784 42.243 72.5978 41.8417 73.0364C41.4497 73.4658 41.2537 74.0818 41.2537 74.8844V78.4824H40.0777ZM51.2534 78.6504C50.6001 78.6504 50.0121 78.5011 49.4894 78.2024C48.9667 77.9038 48.5514 77.4838 48.2434 76.9424C47.9447 76.3918 47.7954 75.7478 47.7954 75.0104C47.7954 74.2731 47.9494 73.6338 48.2574 73.0924C48.5654 72.5418 48.9807 72.1171 49.5034 71.8184C50.0354 71.5198 50.6281 71.3704 51.2814 71.3704C51.9347 71.3704 52.5227 71.5198 53.0454 71.8184C53.5681 72.1171 53.9787 72.5418 54.2774 73.0924C54.5854 73.6338 54.7394 74.2731 54.7394 75.0104C54.7394 75.7478 54.5854 76.3918 54.2774 76.9424C53.9694 77.4838 53.5494 77.9038 53.0174 78.2024C52.4947 78.5011 51.9067 78.6504 51.2534 78.6504ZM51.2534 77.6424C51.6547 77.6424 52.0281 77.5444 52.3734 77.3484C52.7187 77.1524 52.9987 76.8584 53.2134 76.4664C53.4281 76.0744 53.5354 75.5891 53.5354 75.0104C53.5354 74.4318 53.4281 73.9464 53.2134 73.5544C53.0081 73.1624 52.7327 72.8684 52.3874 72.6724C52.0421 72.4764 51.6734 72.3784 51.2814 72.3784C50.8801 72.3784 50.5067 72.4764 50.1614 72.6724C49.8161 72.8684 49.5361 73.1624 49.3214 73.5544C49.1067 73.9464 48.9994 74.4318 48.9994 75.0104C48.9994 75.5891 49.1067 76.0744 49.3214 76.4664C49.5361 76.8584 49.8114 77.1524 50.1474 77.3484C50.4927 77.5444 50.8614 77.6424 51.2534 77.6424ZM57.5148 78.4824L55.4848 71.5384H56.6608L58.1308 76.9844L59.7548 71.5384H61.0848L62.7228 76.9844L64.1788 71.5384H65.3688L63.3388 78.4824H62.1348L60.4268 72.7564L58.7188 78.4824H57.5148ZM71.7746 78.4824L69.7446 71.5384H70.9206L72.3906 76.9844L74.0146 71.5384H75.3446L76.9826 76.9844L78.4386 71.5384H79.6286L77.5986 78.4824H76.3946L74.6866 72.7564L72.9786 78.4824H71.7746ZM80.9293 78.4824V68.4024H82.1053V72.7284C82.3386 72.2991 82.6699 71.9678 83.0993 71.7344C83.5286 71.4918 83.9953 71.3704 84.4993 71.3704C85.3019 71.3704 85.9459 71.6224 86.4313 72.1264C86.9166 72.6211 87.1593 73.3864 87.1593 74.4224V78.4824H85.9973V74.5484C85.9973 73.1018 85.4139 72.3784 84.2473 72.3784C83.6406 72.3784 83.1319 72.5978 82.7213 73.0364C82.3106 73.4658 82.1053 74.0818 82.1053 74.8844V78.4824H80.9293ZM91.251 78.6504C90.6723 78.6504 90.1916 78.5524 89.809 78.3564C89.4263 78.1604 89.1416 77.8991 88.955 77.5724C88.7683 77.2458 88.675 76.8911 88.675 76.5084C88.675 75.7991 88.9456 75.2531 89.487 74.8704C90.0283 74.4878 90.7656 74.2964 91.699 74.2964H93.575V74.2124C93.575 73.6058 93.4163 73.1484 93.099 72.8404C92.7816 72.5231 92.357 72.3644 91.825 72.3644C91.3676 72.3644 90.971 72.4811 90.635 72.7144C90.3083 72.9384 90.103 73.2698 90.019 73.7084H88.815C88.8616 73.2044 89.0296 72.7798 89.319 72.4344C89.6176 72.0891 89.9863 71.8278 90.425 71.6504C90.8636 71.4638 91.3303 71.3704 91.825 71.3704C92.7956 71.3704 93.5236 71.6318 94.009 72.1544C94.5036 72.6678 94.751 73.3538 94.751 74.2124V78.4824H93.701L93.631 77.2364C93.435 77.6284 93.1456 77.9644 92.763 78.2444C92.3896 78.5151 91.8856 78.6504 91.251 78.6504ZM91.433 77.6564C91.881 77.6564 92.2636 77.5398 92.581 77.3064C92.9076 77.0731 93.155 76.7698 93.323 76.3964C93.491 76.0231 93.575 75.6311 93.575 75.2204V75.2064H91.797C91.1063 75.2064 90.6163 75.3278 90.327 75.5704C90.047 75.8038 89.907 76.0978 89.907 76.4524C89.907 76.8164 90.0376 77.1104 90.299 77.3344C90.5696 77.5491 90.9476 77.6564 91.433 77.6564ZM99.0678 78.4824C98.4331 78.4824 97.9338 78.3284 97.5698 78.0204C97.2058 77.7124 97.0238 77.1571 97.0238 76.3544V72.5324H95.8198V71.5384H97.0238L97.1778 69.8724H98.1998V71.5384H100.244V72.5324H98.1998V76.3544C98.1998 76.7931 98.2885 77.0918 98.4658 77.2504C98.6431 77.3998 98.9558 77.4744 99.4038 77.4744H100.132V78.4824H99.0678ZM101.472 70.6704L101.29 67.9124H102.452L102.284 70.6704H101.472ZM106.599 78.6504C105.768 78.6504 105.078 78.4404 104.527 78.0204C103.976 77.6004 103.654 77.0311 103.561 76.3124H104.765C104.84 76.6764 105.031 76.9938 105.339 77.2644C105.656 77.5258 106.081 77.6564 106.613 77.6564C107.108 77.6564 107.472 77.5538 107.705 77.3484C107.938 77.1338 108.055 76.8818 108.055 76.5924C108.055 76.1724 107.901 75.8924 107.593 75.7524C107.294 75.6124 106.87 75.4864 106.319 75.3744C105.946 75.2998 105.572 75.1924 105.199 75.0524C104.826 74.9124 104.513 74.7164 104.261 74.4644C104.009 74.2031 103.883 73.8624 103.883 73.4424C103.883 72.8358 104.107 72.3411 104.555 71.9584C105.012 71.5664 105.628 71.3704 106.403 71.3704C107.14 71.3704 107.742 71.5571 108.209 71.9304C108.685 72.2944 108.96 72.8171 109.035 73.4984H107.873C107.826 73.1438 107.672 72.8684 107.411 72.6724C107.159 72.4671 106.818 72.3644 106.389 72.3644C105.969 72.3644 105.642 72.4531 105.409 72.6304C105.185 72.8078 105.073 73.0411 105.073 73.3304C105.073 73.6104 105.218 73.8298 105.507 73.9884C105.806 74.1471 106.207 74.2824 106.711 74.3944C107.14 74.4878 107.546 74.6044 107.929 74.7444C108.321 74.8751 108.638 75.0758 108.881 75.3464C109.133 75.6078 109.259 75.9904 109.259 76.4944C109.268 77.1198 109.03 77.6378 108.545 78.0484C108.069 78.4498 107.42 78.6504 106.599 78.6504ZM115.358 69.9984C115.125 69.9984 114.929 69.9238 114.77 69.7744C114.621 69.6158 114.546 69.4198 114.546 69.1864C114.546 68.9624 114.621 68.7758 114.77 68.6264C114.929 68.4771 115.125 68.4024 115.358 68.4024C115.582 68.4024 115.773 68.4771 115.932 68.6264C116.091 68.7758 116.17 68.9624 116.17 69.1864C116.17 69.4198 116.091 69.6158 115.932 69.7744C115.773 69.9238 115.582 69.9984 115.358 69.9984ZM114.77 78.4824V71.5384H115.946V78.4824H114.77ZM117.994 78.4824V71.5384H119.058L119.142 72.5464C119.366 72.1731 119.664 71.8838 120.038 71.6784C120.411 71.4731 120.831 71.3704 121.298 71.3704C121.848 71.3704 122.32 71.4824 122.712 71.7064C123.113 71.9304 123.421 72.2711 123.636 72.7284C123.878 72.3084 124.21 71.9771 124.63 71.7344C125.059 71.4918 125.521 71.3704 126.016 71.3704C126.846 71.3704 127.509 71.6224 128.004 72.1264C128.498 72.6211 128.746 73.3864 128.746 74.4224V78.4824H127.584V74.5484C127.584 73.8298 127.439 73.2884 127.15 72.9244C126.86 72.5604 126.445 72.3784 125.904 72.3784C125.344 72.3784 124.877 72.5978 124.504 73.0364C124.14 73.4658 123.958 74.0818 123.958 74.8844V78.4824H122.782V74.5484C122.782 73.8298 122.637 73.2884 122.348 72.9244C122.058 72.5604 121.643 72.3784 121.102 72.3784C120.551 72.3784 120.089 72.5978 119.716 73.0364C119.352 73.4658 119.17 74.0818 119.17 74.8844V78.4824H117.994ZM130.517 81.5624V71.5384H131.581L131.693 72.6864C131.917 72.3504 132.234 72.0471 132.645 71.7764C133.065 71.5058 133.597 71.3704 134.241 71.3704C134.932 71.3704 135.534 71.5291 136.047 71.8464C136.56 72.1638 136.957 72.5978 137.237 73.1484C137.526 73.6991 137.671 74.3244 137.671 75.0244C137.671 75.7244 137.526 76.3498 137.237 76.9004C136.957 77.4418 136.556 77.8711 136.033 78.1884C135.52 78.4964 134.918 78.6504 134.227 78.6504C133.658 78.6504 133.149 78.5338 132.701 78.3004C132.262 78.0671 131.926 77.7404 131.693 77.3204V81.5624H130.517ZM134.101 77.6284C134.568 77.6284 134.978 77.5211 135.333 77.3064C135.688 77.0824 135.968 76.7744 136.173 76.3824C136.378 75.9904 136.481 75.5331 136.481 75.0104C136.481 74.4878 136.378 74.0304 136.173 73.6384C135.968 73.2464 135.688 72.9431 135.333 72.7284C134.978 72.5044 134.568 72.3924 134.101 72.3924C133.634 72.3924 133.224 72.5044 132.869 72.7284C132.514 72.9431 132.234 73.2464 132.029 73.6384C131.824 74.0304 131.721 74.4878 131.721 75.0104C131.721 75.5331 131.824 75.9904 132.029 76.3824C132.234 76.7744 132.514 77.0824 132.869 77.3064C133.224 77.5211 133.634 77.6284 134.101 77.6284ZM142.472 78.6504C141.819 78.6504 141.231 78.5011 140.708 78.2024C140.185 77.9038 139.77 77.4838 139.462 76.9424C139.163 76.3918 139.014 75.7478 139.014 75.0104C139.014 74.2731 139.168 73.6338 139.476 73.0924C139.784 72.5418 140.199 72.1171 140.722 71.8184C141.254 71.5198 141.847 71.3704 142.5 71.3704C143.153 71.3704 143.741 71.5198 144.264 71.8184C144.787 72.1171 145.197 72.5418 145.496 73.0924C145.804 73.6338 145.958 74.2731 145.958 75.0104C145.958 75.7478 145.804 76.3918 145.496 76.9424C145.188 77.4838 144.768 77.9038 144.236 78.2024C143.713 78.5011 143.125 78.6504 142.472 78.6504ZM142.472 77.6424C142.873 77.6424 143.247 77.5444 143.592 77.3484C143.937 77.1524 144.217 76.8584 144.432 76.4664C144.647 76.0744 144.754 75.5891 144.754 75.0104C144.754 74.4318 144.647 73.9464 144.432 73.5544C144.227 73.1624 143.951 72.8684 143.606 72.6724C143.261 72.4764 142.892 72.3784 142.5 72.3784C142.099 72.3784 141.725 72.4764 141.38 72.6724C141.035 72.8684 140.755 73.1624 140.54 73.5544C140.325 73.9464 140.218 74.4318 140.218 75.0104C140.218 75.5891 140.325 76.0744 140.54 76.4664C140.755 76.8584 141.03 77.1524 141.366 77.3484C141.711 77.5444 142.08 77.6424 142.472 77.6424ZM147.593 78.4824V71.5384H148.657L148.755 72.8684C148.97 72.4111 149.297 72.0471 149.735 71.7764C150.174 71.5058 150.715 71.3704 151.359 71.3704V72.6024H151.037C150.627 72.6024 150.249 72.6771 149.903 72.8264C149.558 72.9664 149.283 73.2091 149.077 73.5544C148.872 73.8998 148.769 74.3758 148.769 74.9824V78.4824H147.593ZM155.423 78.4824C154.789 78.4824 154.289 78.3284 153.925 78.0204C153.561 77.7124 153.379 77.1571 153.379 76.3544V72.5324H152.175V71.5384H153.379L153.533 69.8724H154.555V71.5384H156.599V72.5324H154.555V76.3544C154.555 76.7931 154.644 77.0918 154.821 77.2504C154.999 77.3998 155.311 77.4744 155.759 77.4744H156.487V78.4824H155.423ZM160.403 78.6504C159.825 78.6504 159.344 78.5524 158.961 78.3564C158.579 78.1604 158.294 77.8991 158.107 77.5724C157.921 77.2458 157.827 76.8911 157.827 76.5084C157.827 75.7991 158.098 75.2531 158.639 74.8704C159.181 74.4878 159.918 74.2964 160.851 74.2964H162.727V74.2124C162.727 73.6058 162.569 73.1484 162.251 72.8404C161.934 72.5231 161.509 72.3644 160.977 72.3644C160.52 72.3644 160.123 72.4811 159.787 72.7144C159.461 72.9384 159.255 73.2698 159.171 73.7084H157.967C158.014 73.2044 158.182 72.7798 158.471 72.4344C158.77 72.0891 159.139 71.8278 159.577 71.6504C160.016 71.4638 160.483 71.3704 160.977 71.3704C161.948 71.3704 162.676 71.6318 163.161 72.1544C163.656 72.6678 163.903 73.3538 163.903 74.2124V78.4824H162.853L162.783 77.2364C162.587 77.6284 162.298 77.9644 161.915 78.2444C161.542 78.5151 161.038 78.6504 160.403 78.6504ZM160.585 77.6564C161.033 77.6564 161.416 77.5398 161.733 77.3064C162.06 77.0731 162.307 76.7698 162.475 76.3964C162.643 76.0231 162.727 75.6311 162.727 75.2204V75.2064H160.949C160.259 75.2064 159.769 75.3278 159.479 75.5704C159.199 75.8038 159.059 76.0978 159.059 76.4524C159.059 76.8164 159.19 77.1104 159.451 77.3344C159.722 77.5491 160.1 77.6564 160.585 77.6564ZM165.668 78.4824V71.5384H166.732L166.802 72.7844C167.026 72.3458 167.348 72.0004 167.768 71.7484C168.188 71.4964 168.664 71.3704 169.196 71.3704C170.017 71.3704 170.67 71.6224 171.156 72.1264C171.65 72.6211 171.898 73.3864 171.898 74.4224V78.4824H170.722V74.5484C170.722 73.1018 170.124 72.3784 168.93 72.3784C168.332 72.3784 167.833 72.5978 167.432 73.0364C167.04 73.4658 166.844 74.0818 166.844 74.8844V78.4824H165.668ZM176.423 78.4824C175.789 78.4824 175.289 78.3284 174.925 78.0204C174.561 77.7124 174.379 77.1571 174.379 76.3544V72.5324H173.175V71.5384H174.379L174.533 69.8724H175.555V71.5384H177.599V72.5324H175.555V76.3544C175.555 76.7931 175.644 77.0918 175.821 77.2504C175.999 77.3998 176.311 77.4744 176.759 77.4744H177.487V78.4824H176.423ZM185.542 78.4824C184.908 78.4824 184.408 78.3284 184.044 78.0204C183.68 77.7124 183.498 77.1571 183.498 76.3544V72.5324H182.294V71.5384H183.498L183.652 69.8724H184.674V71.5384H186.718V72.5324H184.674V76.3544C184.674 76.7931 184.763 77.0918 184.94 77.2504C185.118 77.3998 185.43 77.4744 185.878 77.4744H186.606V78.4824H185.542ZM191.185 78.6504C190.532 78.6504 189.944 78.5011 189.421 78.2024C188.898 77.9038 188.483 77.4838 188.175 76.9424C187.876 76.3918 187.727 75.7478 187.727 75.0104C187.727 74.2731 187.881 73.6338 188.189 73.0924C188.497 72.5418 188.912 72.1171 189.435 71.8184C189.967 71.5198 190.56 71.3704 191.213 71.3704C191.866 71.3704 192.454 71.5198 192.977 71.8184C193.5 72.1171 193.91 72.5418 194.209 73.0924C194.517 73.6338 194.671 74.2731 194.671 75.0104C194.671 75.7478 194.517 76.3918 194.209 76.9424C193.901 77.4838 193.481 77.9038 192.949 78.2024C192.426 78.5011 191.838 78.6504 191.185 78.6504ZM191.185 77.6424C191.586 77.6424 191.96 77.5444 192.305 77.3484C192.65 77.1524 192.93 76.8584 193.145 76.4664C193.36 76.0744 193.467 75.5891 193.467 75.0104C193.467 74.4318 193.36 73.9464 193.145 73.5544C192.94 73.1624 192.664 72.8684 192.319 72.6724C191.974 72.4764 191.605 72.3784 191.213 72.3784C190.812 72.3784 190.438 72.4764 190.093 72.6724C189.748 72.8684 189.468 73.1624 189.253 73.5544C189.038 73.9464 188.931 74.4318 188.931 75.0104C188.931 75.5891 189.038 76.0744 189.253 76.4664C189.468 76.8584 189.743 77.1524 190.079 77.3484C190.424 77.5444 190.793 77.6424 191.185 77.6424ZM200.767 81.5624L202.489 77.8104H202.083L199.325 71.5384H200.599L202.895 76.9424L205.331 71.5384H206.549L201.999 81.5624H200.767ZM210.298 78.6504C209.645 78.6504 209.057 78.5011 208.534 78.2024C208.012 77.9038 207.596 77.4838 207.288 76.9424C206.99 76.3918 206.84 75.7478 206.84 75.0104C206.84 74.2731 206.994 73.6338 207.302 73.0924C207.61 72.5418 208.026 72.1171 208.548 71.8184C209.08 71.5198 209.673 71.3704 210.326 71.3704C210.98 71.3704 211.568 71.5198 212.09 71.8184C212.613 72.1171 213.024 72.5418 213.322 73.0924C213.63 73.6338 213.784 74.2731 213.784 75.0104C213.784 75.7478 213.63 76.3918 213.322 76.9424C213.014 77.4838 212.594 77.9038 212.062 78.2024C211.54 78.5011 210.952 78.6504 210.298 78.6504ZM210.298 77.6424C210.7 77.6424 211.073 77.5444 211.418 77.3484C211.764 77.1524 212.044 76.8584 212.258 76.4664C212.473 76.0744 212.58 75.5891 212.58 75.0104C212.58 74.4318 212.473 73.9464 212.258 73.5544C212.053 73.1624 211.778 72.8684 211.432 72.6724C211.087 72.4764 210.718 72.3784 210.326 72.3784C209.925 72.3784 209.552 72.4764 209.206 72.6724C208.861 72.8684 208.581 73.1624 208.366 73.5544C208.152 73.9464 208.044 74.4318 208.044 75.0104C208.044 75.5891 208.152 76.0744 208.366 76.4664C208.581 76.8584 208.856 77.1524 209.192 77.3484C209.538 77.5444 209.906 77.6424 210.298 77.6424ZM217.953 78.6504C217.132 78.6504 216.479 78.4031 215.993 77.9084C215.508 77.4044 215.265 76.6344 215.265 75.5984V71.5384H216.441V75.4724C216.441 76.9191 217.034 77.6424 218.219 77.6424C218.826 77.6424 219.325 77.4278 219.717 76.9984C220.119 76.5598 220.319 75.9391 220.319 75.1364V71.5384H221.495V78.4824H220.431L220.347 77.2364C220.133 77.6751 219.811 78.0204 219.381 78.2724C218.961 78.5244 218.485 78.6504 217.953 78.6504ZM223.431 78.4824V71.5384H224.495L224.593 72.8684C224.808 72.4111 225.135 72.0471 225.573 71.7764C226.012 71.5058 226.553 71.3704 227.197 71.3704V72.6024H226.875C226.465 72.6024 226.087 72.6771 225.741 72.8264C225.396 72.9664 225.121 73.2091 224.915 73.5544C224.71 73.8998 224.607 74.3758 224.607 74.9824V78.4824H223.431ZM234.756 78.6504C233.935 78.6504 233.282 78.4031 232.796 77.9084C232.311 77.4044 232.068 76.6344 232.068 75.5984V71.5384H233.244V75.4724C233.244 76.9191 233.837 77.6424 235.022 77.6424C235.629 77.6424 236.128 77.4278 236.52 76.9984C236.922 76.5598 237.122 75.9391 237.122 75.1364V71.5384H238.298V78.4824H237.234L237.15 77.2364C236.936 77.6751 236.614 78.0204 236.184 78.2724C235.764 78.5244 235.288 78.6504 234.756 78.6504ZM242.894 78.6504C242.063 78.6504 241.373 78.4404 240.822 78.0204C240.271 77.6004 239.949 77.0311 239.856 76.3124H241.06C241.135 76.6764 241.326 76.9938 241.634 77.2644C241.951 77.5258 242.376 77.6564 242.908 77.6564C243.403 77.6564 243.767 77.5538 244 77.3484C244.233 77.1338 244.35 76.8818 244.35 76.5924C244.35 76.1724 244.196 75.8924 243.888 75.7524C243.589 75.6124 243.165 75.4864 242.614 75.3744C242.241 75.2998 241.867 75.1924 241.494 75.0524C241.121 74.9124 240.808 74.7164 240.556 74.4644C240.304 74.2031 240.178 73.8624 240.178 73.4424C240.178 72.8358 240.402 72.3411 240.85 71.9584C241.307 71.5664 241.923 71.3704 242.698 71.3704C243.435 71.3704 244.037 71.5571 244.504 71.9304C244.98 72.2944 245.255 72.8171 245.33 73.4984H244.168C244.121 73.1438 243.967 72.8684 243.706 72.6724C243.454 72.4671 243.113 72.3644 242.684 72.3644C242.264 72.3644 241.937 72.4531 241.704 72.6304C241.48 72.8078 241.368 73.0411 241.368 73.3304C241.368 73.6104 241.513 73.8298 241.802 73.9884C242.101 74.1471 242.502 74.2824 243.006 74.3944C243.435 74.4878 243.841 74.6044 244.224 74.7444C244.616 74.8751 244.933 75.0758 245.176 75.3464C245.428 75.6078 245.554 75.9904 245.554 76.4944C245.563 77.1198 245.325 77.6378 244.84 78.0484C244.364 78.4498 243.715 78.6504 242.894 78.6504ZM250.356 78.6504C249.693 78.6504 249.105 78.5011 248.592 78.2024C248.079 77.8944 247.673 77.4698 247.374 76.9284C247.085 76.3871 246.94 75.7478 246.94 75.0104C246.94 74.2824 247.085 73.6478 247.374 73.1064C247.663 72.5558 248.065 72.1311 248.578 71.8324C249.101 71.5244 249.703 71.3704 250.384 71.3704C251.056 71.3704 251.635 71.5244 252.12 71.8324C252.615 72.1311 252.993 72.5278 253.254 73.0224C253.515 73.5171 253.646 74.0491 253.646 74.6184C253.646 74.7211 253.641 74.8238 253.632 74.9264C253.632 75.0291 253.632 75.1458 253.632 75.2764H248.102C248.13 75.8084 248.251 76.2518 248.466 76.6064C248.69 76.9518 248.965 77.2131 249.292 77.3904C249.628 77.5678 249.983 77.6564 250.356 77.6564C250.841 77.6564 251.247 77.5444 251.574 77.3204C251.901 77.0964 252.139 76.7931 252.288 76.4104H253.45C253.263 77.0544 252.904 77.5911 252.372 78.0204C251.849 78.4404 251.177 78.6504 250.356 78.6504ZM250.356 72.3644C249.796 72.3644 249.297 72.5371 248.858 72.8824C248.429 73.2184 248.181 73.7131 248.116 74.3664H252.484C252.456 73.7411 252.241 73.2511 251.84 72.8964C251.439 72.5418 250.944 72.3644 250.356 72.3644ZM255.205 78.4824V71.5384H256.269L256.367 72.8684C256.581 72.4111 256.908 72.0471 257.347 71.7764C257.785 71.5058 258.327 71.3704 258.971 71.3704V72.6024H258.649C258.238 72.6024 257.86 72.6771 257.515 72.8264C257.169 72.9664 256.894 73.2091 256.689 73.5544C256.483 73.8998 256.381 74.3758 256.381 74.9824V78.4824H255.205ZM262.951 78.6504C262.12 78.6504 261.429 78.4404 260.879 78.0204C260.328 77.6004 260.006 77.0311 259.913 76.3124H261.117C261.191 76.6764 261.383 76.9938 261.691 77.2644C262.008 77.5258 262.433 77.6564 262.965 77.6564C263.459 77.6564 263.823 77.5538 264.057 77.3484C264.29 77.1338 264.407 76.8818 264.407 76.5924C264.407 76.1724 264.253 75.8924 263.945 75.7524C263.646 75.6124 263.221 75.4864 262.671 75.3744C262.297 75.2998 261.924 75.1924 261.551 75.0524C261.177 74.9124 260.865 74.7164 260.613 74.4644C260.361 74.2031 260.235 73.8624 260.235 73.4424C260.235 72.8358 260.459 72.3411 260.907 71.9584C261.364 71.5664 261.98 71.3704 262.755 71.3704C263.492 71.3704 264.094 71.5571 264.561 71.9304C265.037 72.2944 265.312 72.8171 265.387 73.4984H264.225C264.178 73.1438 264.024 72.8684 263.763 72.6724C263.511 72.4671 263.17 72.3644 262.741 72.3644C262.321 72.3644 261.994 72.4531 261.761 72.6304C261.537 72.8078 261.425 73.0411 261.425 73.3304C261.425 73.6104 261.569 73.8298 261.859 73.9884C262.157 74.1471 262.559 74.2824 263.063 74.3944C263.492 74.4878 263.898 74.6044 264.281 74.7444C264.673 74.8751 264.99 75.0758 265.233 75.3464C265.485 75.6078 265.611 75.9904 265.611 76.4944C265.62 77.1198 265.382 77.6378 264.897 78.0484C264.421 78.4498 263.772 78.6504 262.951 78.6504ZM34.2393 100.65C33.6606 100.65 33.1799 100.552 32.7973 100.356C32.4146 100.16 32.1299 99.8991 31.9433 99.5724C31.7566 99.2458 31.6633 98.8911 31.6633 98.5084C31.6633 97.7991 31.9339 97.2531 32.4753 96.8704C33.0166 96.4878 33.7539 96.2964 34.6873 96.2964H36.5633V96.2124C36.5633 95.6058 36.4046 95.1484 36.0873 94.8404C35.7699 94.5231 35.3453 94.3644 34.8133 94.3644C34.3559 94.3644 33.9593 94.4811 33.6233 94.7144C33.2966 94.9384 33.0913 95.2698 33.0073 95.7084H31.8033C31.8499 95.2044 32.0179 94.7798 32.3073 94.4344C32.6059 94.0891 32.9746 93.8278 33.4133 93.6504C33.8519 93.4638 34.3186 93.3704 34.8133 93.3704C35.7839 93.3704 36.5119 93.6318 36.9973 94.1544C37.4919 94.6678 37.7393 95.3538 37.7393 96.2124V100.482H36.6893L36.6193 99.2364C36.4233 99.6284 36.1339 99.9644 35.7513 100.244C35.3779 100.515 34.8739 100.65 34.2393 100.65ZM34.4213 99.6564C34.8693 99.6564 35.2519 99.5398 35.5693 99.3064C35.8959 99.0731 36.1433 98.7698 36.3113 98.3964C36.4793 98.0231 36.5633 97.6311 36.5633 97.2204V97.2064H34.7853C34.0946 97.2064 33.6046 97.3278 33.3153 97.5704C33.0353 97.8038 32.8953 98.0978 32.8953 98.4524C32.8953 98.8164 33.0259 99.1104 33.2873 99.3344C33.5579 99.5491 33.9359 99.6564 34.4213 99.6564ZM39.5035 100.482V93.5384H40.5675L40.6375 94.7844C40.8615 94.3458 41.1835 94.0004 41.6035 93.7484C42.0235 93.4964 42.4995 93.3704 43.0315 93.3704C43.8528 93.3704 44.5061 93.6224 44.9915 94.1264C45.4861 94.6211 45.7335 95.3864 45.7335 96.4224V100.482H44.5575V96.5484C44.5575 95.1018 43.9601 94.3784 42.7655 94.3784C42.1681 94.3784 41.6688 94.5978 41.2675 95.0364C40.8755 95.4658 40.6795 96.0818 40.6795 96.8844V100.482H39.5035ZM50.6652 100.65C49.9745 100.65 49.3679 100.492 48.8452 100.174C48.3319 99.8571 47.9305 99.4231 47.6412 98.8724C47.3612 98.3218 47.2212 97.6964 47.2212 96.9964C47.2212 96.2964 47.3659 95.6758 47.6552 95.1344C47.9445 94.5838 48.3459 94.1544 48.8592 93.8464C49.3725 93.5291 49.9792 93.3704 50.6792 93.3704C51.2485 93.3704 51.7525 93.4871 52.1912 93.7204C52.6299 93.9538 52.9705 94.2804 53.2132 94.7004V90.4024H54.3892V100.482H53.3252L53.2132 99.3344C52.9892 99.6704 52.6672 99.9738 52.2472 100.244C51.8272 100.515 51.2999 100.65 50.6652 100.65ZM50.7912 99.6284C51.2579 99.6284 51.6685 99.5211 52.0232 99.3064C52.3872 99.0824 52.6672 98.7744 52.8632 98.3824C53.0685 97.9904 53.1712 97.5331 53.1712 97.0104C53.1712 96.4878 53.0685 96.0304 52.8632 95.6384C52.6672 95.2464 52.3872 94.9431 52.0232 94.7284C51.6685 94.5044 51.2579 94.3924 50.7912 94.3924C50.3339 94.3924 49.9232 94.5044 49.5592 94.7284C49.2045 94.9431 48.9245 95.2464 48.7192 95.6384C48.5232 96.0304 48.4252 96.4878 48.4252 97.0104C48.4252 97.5331 48.5232 97.9904 48.7192 98.3824C48.9245 98.7744 49.2045 99.0824 49.5592 99.3064C49.9232 99.5211 50.3339 99.6284 50.7912 99.6284ZM60.0113 103.562V93.5384H61.0753L61.1873 94.6864C61.4113 94.3504 61.7286 94.0471 62.1393 93.7764C62.5593 93.5058 63.0913 93.3704 63.7353 93.3704C64.426 93.3704 65.028 93.5291 65.5413 93.8464C66.0546 94.1638 66.4513 94.5978 66.7313 95.1484C67.0206 95.6991 67.1653 96.3244 67.1653 97.0244C67.1653 97.7244 67.0206 98.3498 66.7313 98.9004C66.4513 99.4418 66.05 99.8711 65.5273 100.188C65.014 100.496 64.412 100.65 63.7213 100.65C63.152 100.65 62.6433 100.534 62.1953 100.3C61.7566 100.067 61.4206 99.7404 61.1873 99.3204V103.562H60.0113ZM63.5953 99.6284C64.062 99.6284 64.4726 99.5211 64.8273 99.3064C65.182 99.0824 65.462 98.7744 65.6673 98.3824C65.8726 97.9904 65.9753 97.5331 65.9753 97.0104C65.9753 96.4878 65.8726 96.0304 65.6673 95.6384C65.462 95.2464 65.182 94.9431 64.8273 94.7284C64.4726 94.5044 64.062 94.3924 63.5953 94.3924C63.1286 94.3924 62.718 94.5044 62.3633 94.7284C62.0086 94.9431 61.7286 95.2464 61.5233 95.6384C61.318 96.0304 61.2153 96.4878 61.2153 97.0104C61.2153 97.5331 61.318 97.9904 61.5233 98.3824C61.7286 98.7744 62.0086 99.0824 62.3633 99.3064C62.718 99.5211 63.1286 99.6284 63.5953 99.6284ZM68.8023 100.482V93.5384H69.8663L69.9643 94.8684C70.179 94.4111 70.5056 94.0471 70.9443 93.7764C71.383 93.5058 71.9243 93.3704 72.5683 93.3704V94.6024H72.2463C71.8356 94.6024 71.4576 94.6771 71.1123 94.8264C70.767 94.9664 70.4916 95.2091 70.2863 95.5544C70.081 95.8998 69.9783 96.3758 69.9783 96.9824V100.482H68.8023ZM74.6022 91.9984C74.3689 91.9984 74.1729 91.9238 74.0142 91.7744C73.8649 91.6158 73.7902 91.4198 73.7902 91.1864C73.7902 90.9624 73.8649 90.7758 74.0142 90.6264C74.1729 90.4771 74.3689 90.4024 74.6022 90.4024C74.8262 90.4024 75.0176 90.4771 75.1762 90.6264C75.3349 90.7758 75.4142 90.9624 75.4142 91.1864C75.4142 91.4198 75.3349 91.6158 75.1762 91.7744C75.0176 91.9238 74.8262 91.9984 74.6022 91.9984ZM74.0142 100.482V93.5384H75.1902V100.482H74.0142ZM80.4019 100.65C79.7485 100.65 79.1605 100.501 78.6379 100.202C78.1152 99.9038 77.6999 99.4838 77.3919 98.9424C77.0932 98.3918 76.9439 97.7478 76.9439 97.0104C76.9439 96.2731 77.0979 95.6338 77.4059 95.0924C77.7139 94.5418 78.1292 94.1171 78.6519 93.8184C79.1839 93.5198 79.7765 93.3704 80.4299 93.3704C81.0832 93.3704 81.6712 93.5198 82.1939 93.8184C82.7165 94.1171 83.1272 94.5418 83.4259 95.0924C83.7339 95.6338 83.8879 96.2731 83.8879 97.0104C83.8879 97.7478 83.7339 98.3918 83.4259 98.9424C83.1179 99.4838 82.6979 99.9038 82.1659 100.202C81.6432 100.501 81.0552 100.65 80.4019 100.65ZM80.4019 99.6424C80.8032 99.6424 81.1765 99.5444 81.5219 99.3484C81.8672 99.1524 82.1472 98.8584 82.3619 98.4664C82.5765 98.0744 82.6839 97.5891 82.6839 97.0104C82.6839 96.4318 82.5765 95.9464 82.3619 95.5544C82.1565 95.1624 81.8812 94.8684 81.5359 94.6724C81.1905 94.4764 80.8219 94.3784 80.4299 94.3784C80.0285 94.3784 79.6552 94.4764 79.3099 94.6724C78.9645 94.8684 78.6845 95.1624 78.4699 95.5544C78.2552 95.9464 78.1479 96.4318 78.1479 97.0104C78.1479 97.5891 78.2552 98.0744 78.4699 98.4664C78.6845 98.8584 78.9599 99.1524 79.2959 99.3484C79.6412 99.5444 80.0099 99.6424 80.4019 99.6424ZM85.523 100.482V93.5384H86.587L86.685 94.8684C86.8997 94.4111 87.2263 94.0471 87.665 93.7764C88.1037 93.5058 88.645 93.3704 89.289 93.3704V94.6024H88.967C88.5563 94.6024 88.1783 94.6771 87.833 94.8264C87.4877 94.9664 87.2123 95.2091 87.007 95.5544C86.8017 95.8998 86.699 96.3758 86.699 96.9824V100.482H85.523ZM91.3229 91.9984C91.0896 91.9984 90.8936 91.9238 90.7349 91.7744C90.5856 91.6158 90.5109 91.4198 90.5109 91.1864C90.5109 90.9624 90.5856 90.7758 90.7349 90.6264C90.8936 90.4771 91.0896 90.4024 91.3229 90.4024C91.5469 90.4024 91.7383 90.4771 91.8969 90.6264C92.0556 90.7758 92.1349 90.9624 92.1349 91.1864C92.1349 91.4198 92.0556 91.6158 91.8969 91.7744C91.7383 91.9238 91.5469 91.9984 91.3229 91.9984ZM90.7349 100.482V93.5384H91.9109V100.482H90.7349ZM96.7026 100.482C96.0679 100.482 95.5686 100.328 95.2046 100.02C94.8406 99.7124 94.6586 99.1571 94.6586 98.3544V94.5324H93.4546V93.5384H94.6586L94.8126 91.8724H95.8346V93.5384H97.8786V94.5324H95.8346V98.3544C95.8346 98.7931 95.9232 99.0918 96.1006 99.2504C96.2779 99.3998 96.5906 99.4744 97.0386 99.4744H97.7666V100.482H96.7026ZM100.087 91.9984C99.8533 91.9984 99.6573 91.9238 99.4986 91.7744C99.3493 91.6158 99.2746 91.4198 99.2746 91.1864C99.2746 90.9624 99.3493 90.7758 99.4986 90.6264C99.6573 90.4771 99.8533 90.4024 100.087 90.4024C100.311 90.4024 100.502 90.4771 100.661 90.6264C100.819 90.7758 100.899 90.9624 100.899 91.1864C100.899 91.4198 100.819 91.6158 100.661 91.7744C100.502 91.9238 100.311 91.9984 100.087 91.9984ZM99.4986 100.482V93.5384H100.675V100.482H99.4986ZM102.246 100.482V99.5164L106.11 94.5184H102.316V93.5384H107.426V94.5044L103.562 99.5024H107.496V100.482H102.246ZM112.174 100.65C111.512 100.65 110.924 100.501 110.41 100.202C109.897 99.8944 109.491 99.4698 109.192 98.9284C108.903 98.3871 108.758 97.7478 108.758 97.0104C108.758 96.2824 108.903 95.6478 109.192 95.1064C109.482 94.5558 109.883 94.1311 110.396 93.8324C110.919 93.5244 111.521 93.3704 112.202 93.3704C112.874 93.3704 113.453 93.5244 113.938 93.8324C114.433 94.1311 114.811 94.5278 115.072 95.0224C115.334 95.5171 115.464 96.0491 115.464 96.6184C115.464 96.7211 115.46 96.8238 115.45 96.9264C115.45 97.0291 115.45 97.1458 115.45 97.2764H109.92C109.948 97.8084 110.07 98.2518 110.284 98.6064C110.508 98.9518 110.784 99.2131 111.11 99.3904C111.446 99.5678 111.801 99.6564 112.174 99.6564C112.66 99.6564 113.066 99.5444 113.392 99.3204C113.719 99.0964 113.957 98.7931 114.106 98.4104H115.268C115.082 99.0544 114.722 99.5911 114.19 100.02C113.668 100.44 112.996 100.65 112.174 100.65ZM112.174 94.3644C111.614 94.3644 111.115 94.5371 110.676 94.8824C110.247 95.2184 110 95.7131 109.934 96.3664H114.302C114.274 95.7411 114.06 95.2511 113.658 94.8964C113.257 94.5418 112.762 94.3644 112.174 94.3644ZM124.438 100.65C123.869 100.65 123.36 100.534 122.912 100.3C122.473 100.067 122.137 99.7404 121.904 99.3204L121.792 100.482H120.728V90.4024H121.904V94.6864C122.128 94.3504 122.445 94.0471 122.856 93.7764C123.276 93.5058 123.808 93.3704 124.452 93.3704C125.143 93.3704 125.745 93.5291 126.258 93.8464C126.771 94.1638 127.168 94.5978 127.448 95.1484C127.737 95.6991 127.882 96.3244 127.882 97.0244C127.882 97.7244 127.737 98.3498 127.448 98.9004C127.168 99.4418 126.767 99.8711 126.244 100.188C125.731 100.496 125.129 100.65 124.438 100.65ZM124.312 99.6284C124.779 99.6284 125.189 99.5211 125.544 99.3064C125.899 99.0824 126.179 98.7744 126.384 98.3824C126.589 97.9904 126.692 97.5331 126.692 97.0104C126.692 96.4878 126.589 96.0304 126.384 95.6384C126.179 95.2464 125.899 94.9431 125.544 94.7284C125.189 94.5044 124.779 94.3924 124.312 94.3924C123.845 94.3924 123.435 94.5044 123.08 94.7284C122.725 94.9431 122.445 95.2464 122.24 95.6384C122.035 96.0304 121.932 96.4878 121.932 97.0104C121.932 97.5331 122.035 97.9904 122.24 98.3824C122.445 98.7744 122.725 99.0824 123.08 99.3064C123.435 99.5211 123.845 99.6284 124.312 99.6284ZM132.641 100.65C131.978 100.65 131.39 100.501 130.877 100.202C130.364 99.8944 129.958 99.4698 129.659 98.9284C129.37 98.3871 129.225 97.7478 129.225 97.0104C129.225 96.2824 129.37 95.6478 129.659 95.1064C129.948 94.5558 130.35 94.1311 130.863 93.8324C131.386 93.5244 131.988 93.3704 132.669 93.3704C133.341 93.3704 133.92 93.5244 134.405 93.8324C134.9 94.1311 135.278 94.5278 135.539 95.0224C135.8 95.5171 135.931 96.0491 135.931 96.6184C135.931 96.7211 135.926 96.8238 135.917 96.9264C135.917 97.0291 135.917 97.1458 135.917 97.2764H130.387C130.415 97.8084 130.536 98.2518 130.751 98.6064C130.975 98.9518 131.25 99.2131 131.577 99.3904C131.913 99.5678 132.268 99.6564 132.641 99.6564C133.126 99.6564 133.532 99.5444 133.859 99.3204C134.186 99.0964 134.424 98.7931 134.573 98.4104H135.735C135.548 99.0544 135.189 99.5911 134.657 100.02C134.134 100.44 133.462 100.65 132.641 100.65ZM132.641 94.3644C132.081 94.3644 131.582 94.5371 131.143 94.8824C130.714 95.2184 130.466 95.7131 130.401 96.3664H134.769C134.741 95.7411 134.526 95.2511 134.125 94.8964C133.724 94.5418 133.229 94.3644 132.641 94.3644ZM140.001 100.482C139.367 100.482 138.867 100.328 138.503 100.02C138.139 99.7124 137.957 99.1571 137.957 98.3544V94.5324H136.753V93.5384H137.957L138.111 91.8724H139.133V93.5384H141.177V94.5324H139.133V98.3544C139.133 98.7931 139.222 99.0918 139.399 99.2504C139.577 99.3998 139.889 99.4744 140.337 99.4744H141.065V100.482H140.001ZM145.415 100.482C144.781 100.482 144.281 100.328 143.917 100.02C143.553 99.7124 143.371 99.1571 143.371 98.3544V94.5324H142.167V93.5384H143.371L143.525 91.8724H144.547V93.5384H146.591V94.5324H144.547V98.3544C144.547 98.7931 144.636 99.0918 144.813 99.2504C144.991 99.3998 145.303 99.4744 145.751 99.4744H146.479V100.482H145.415ZM151.016 100.65C150.353 100.65 149.765 100.501 149.252 100.202C148.739 99.8944 148.333 99.4698 148.034 98.9284C147.745 98.3871 147.6 97.7478 147.6 97.0104C147.6 96.2824 147.745 95.6478 148.034 95.1064C148.323 94.5558 148.725 94.1311 149.238 93.8324C149.761 93.5244 150.363 93.3704 151.044 93.3704C151.716 93.3704 152.295 93.5244 152.78 93.8324C153.275 94.1311 153.653 94.5278 153.914 95.0224C154.175 95.5171 154.306 96.0491 154.306 96.6184C154.306 96.7211 154.301 96.8238 154.292 96.9264C154.292 97.0291 154.292 97.1458 154.292 97.2764H148.762C148.79 97.8084 148.911 98.2518 149.126 98.6064C149.35 98.9518 149.625 99.2131 149.952 99.3904C150.288 99.5678 150.643 99.6564 151.016 99.6564C151.501 99.6564 151.907 99.5444 152.234 99.3204C152.561 99.0964 152.799 98.7931 152.948 98.4104H154.11C153.923 99.0544 153.564 99.5911 153.032 100.02C152.509 100.44 151.837 100.65 151.016 100.65ZM151.016 94.3644C150.456 94.3644 149.957 94.5371 149.518 94.8824C149.089 95.2184 148.841 95.7131 148.776 96.3664H153.144C153.116 95.7411 152.901 95.2511 152.5 94.8964C152.099 94.5418 151.604 94.3644 151.016 94.3644ZM155.865 100.482V93.5384H156.929L157.027 94.8684C157.241 94.4111 157.568 94.0471 158.007 93.7764C158.445 93.5058 158.987 93.3704 159.631 93.3704V94.6024H159.309C158.898 94.6024 158.52 94.6771 158.175 94.8264C157.829 94.9664 157.554 95.2091 157.349 95.5544C157.143 95.8998 157.041 96.3758 157.041 96.9824V100.482H155.865Z" fill="#565359"/>
<path d="M60.3313 47.4824L64.4273 36.2824H66.7313L70.8273 47.4824H68.6513L67.7553 44.8904H63.3873L62.4753 47.4824H60.3313ZM63.9473 43.2904H67.1953L65.5633 38.6344L63.9473 43.2904ZM72.222 47.4824V39.5464H74.03L74.19 40.8904C74.4353 40.4211 74.7873 40.0478 75.246 39.7704C75.7153 39.4931 76.2647 39.3544 76.894 39.3544C77.8753 39.3544 78.638 39.6638 79.182 40.2824C79.726 40.9011 79.998 41.8078 79.998 43.0024V47.4824H77.95V43.1944C77.95 42.5118 77.8113 41.9891 77.534 41.6264C77.2567 41.2638 76.8247 41.0824 76.238 41.0824C75.662 41.0824 75.1873 41.2851 74.814 41.6904C74.4513 42.0958 74.27 42.6611 74.27 43.3864V47.4824H72.222ZM84.6924 47.6744C84.0097 47.6744 83.4497 47.5678 83.0124 47.3544C82.575 47.1304 82.2497 46.8371 82.0364 46.4744C81.823 46.1118 81.7164 45.7118 81.7164 45.2744C81.7164 44.5384 82.0044 43.9411 82.5804 43.4824C83.1564 43.0238 84.0204 42.7944 85.1724 42.7944H87.1884V42.6024C87.1884 42.0584 87.0337 41.6584 86.7244 41.4024C86.415 41.1464 86.031 41.0184 85.5724 41.0184C85.1564 41.0184 84.7937 41.1198 84.4844 41.3224C84.175 41.5144 83.983 41.8024 83.9084 42.1864H81.9084C81.9617 41.6104 82.1537 41.1091 82.4844 40.6824C82.8257 40.2558 83.263 39.9304 83.7964 39.7064C84.3297 39.4718 84.927 39.3544 85.5884 39.3544C86.719 39.3544 87.6097 39.6371 88.2604 40.2024C88.911 40.7678 89.2364 41.5678 89.2364 42.6024V47.4824H87.4924L87.3004 46.2024C87.0657 46.6291 86.735 46.9811 86.3084 47.2584C85.8924 47.5358 85.3537 47.6744 84.6924 47.6744ZM85.1564 46.0744C85.743 46.0744 86.1964 45.8824 86.5164 45.4984C86.847 45.1144 87.055 44.6398 87.1404 44.0744H85.3964C84.8524 44.0744 84.463 44.1758 84.2284 44.3784C83.9937 44.5704 83.8764 44.8104 83.8764 45.0984C83.8764 45.4078 83.9937 45.6478 84.2284 45.8184C84.463 45.9891 84.7724 46.0744 85.1564 46.0744ZM91.1908 47.4824V35.9624H93.2388V47.4824H91.1908ZM96.3234 51.0024L98.1634 46.9544H97.6834L94.5954 39.5464H96.8194L99.0434 45.1304L101.363 39.5464H103.539L98.4994 51.0024H96.3234ZM104.366 47.4824V45.8344L108.414 41.2424H104.414V39.5464H110.75V41.1944L106.638 45.7864H110.83V47.4824H104.366ZM116.391 47.6744C115.591 47.6744 114.881 47.5038 114.263 47.1624C113.644 46.8211 113.159 46.3411 112.807 45.7224C112.455 45.1038 112.279 44.3891 112.279 43.5784C112.279 42.7571 112.449 42.0264 112.791 41.3864C113.143 40.7464 113.623 40.2504 114.231 39.8984C114.849 39.5358 115.575 39.3544 116.407 39.3544C117.185 39.3544 117.873 39.5251 118.471 39.8664C119.068 40.2078 119.532 40.6771 119.863 41.2744C120.204 41.8611 120.375 42.5171 120.375 43.2424C120.375 43.3598 120.369 43.4824 120.359 43.6104C120.359 43.7384 120.353 43.8718 120.343 44.0104H114.311C114.353 44.6291 114.567 45.1144 114.951 45.4664C115.345 45.8184 115.82 45.9944 116.375 45.9944C116.791 45.9944 117.137 45.9038 117.415 45.7224C117.703 45.5304 117.916 45.2851 118.055 44.9864H120.135C119.985 45.4878 119.735 45.9464 119.383 46.3624C119.041 46.7678 118.615 47.0878 118.103 47.3224C117.601 47.5571 117.031 47.6744 116.391 47.6744ZM116.407 41.0184C115.905 41.0184 115.463 41.1624 115.079 41.4504C114.695 41.7278 114.449 42.1544 114.343 42.7304H118.295C118.263 42.2078 118.071 41.7918 117.719 41.4824C117.367 41.1731 116.929 41.0184 116.407 41.0184Z" fill="#26262B"/>
<circle cx="42.9633" cy="42.4824" r="12" fill="#E25141" fill-opacity="0.2"/>
<path d="M39.139 47.4972C38.8468 47.9562 38.1767 47.9562 37.8845 47.4972V47.4972C37.7294 47.2535 37.7294 46.9421 37.8845 46.6984L41.4098 41.1613C41.7024 40.7017 42.3734 40.7017 42.666 41.1613L43.7225 42.8207C44.0243 43.2947 44.7224 43.2764 44.9988 42.7871L48.007 37.4632C48.2581 37.0189 48.8921 37.0022 49.1662 37.4327V37.4327C49.3002 37.6432 49.3074 37.9105 49.1848 38.1279L44.9984 45.5545C44.7223 46.0443 44.0237 46.0631 43.7217 45.5887L42.666 43.9305C42.3734 43.4709 41.7024 43.4709 41.4098 43.9305L39.139 47.4972Z" fill="#E25141"/>
<defs>
<filter id="filter0_d_480_10146" x="0.963257" y="0.482422" width="320" height="144" filterUnits="userSpaceOnUse" color-interpolation-filters="sRGB">
<feFlood flood-opacity="0" result="BackgroundImageFix"/>
<feColorMatrix in="SourceAlpha" type="matrix" values="0 0 0 0 0 0 0 0 0 0 0 0 0 0 0 0 0 0 127 0" result="hardAlpha"/>
<feOffset/>
<feGaussianBlur stdDeviation="10"/>
<feComposite in2="hardAlpha" operator="out"/>
<feColorMatrix type="matrix" values="0 0 0 0 0.847059 0 0 0 0 0.847059 0 0 0 0 0.85098 0 0 0 0.2 0"/>
<feBlend mode="normal" in2="BackgroundImageFix" result="effect1_dropShadow_480_10146"/>
<feBlend mode="normal" in="SourceGraphic" in2="effect1_dropShadow_480_10146" result="shape"/>
</filter>
</defs>
</svg>
