<svg width="321" height="145" viewBox="0 0 321 145" fill="none" xmlns="http://www.w3.org/2000/svg">
<g filter="url(#filter0_d_480_10120)">
<rect x="20.9633" y="20.4824" width="280" height="104" rx="10" fill="white"/>
<rect x="21.4633" y="20.9824" width="279" height="103" rx="9.5" stroke="#C4C4C4"/>
</g>
<path d="M31.9993 80.4824V70.6824H35.4433C36.1339 70.6824 36.7033 70.7944 37.1513 71.0184C37.6086 71.2331 37.9493 71.5318 38.1733 71.9144C38.3973 72.2878 38.5093 72.7078 38.5093 73.1744C38.5093 73.8091 38.3366 74.3084 37.9913 74.6724C37.6553 75.0364 37.2493 75.2884 36.7733 75.4284C37.1373 75.4938 37.4686 75.6384 37.7673 75.8624C38.0659 76.0864 38.2993 76.3664 38.4673 76.7024C38.6446 77.0384 38.7333 77.4071 38.7333 77.8084C38.7333 78.3031 38.6119 78.7558 38.3693 79.1664C38.1266 79.5678 37.7673 79.8898 37.2913 80.1324C36.8153 80.3658 36.2366 80.4824 35.5553 80.4824H31.9993ZM33.1753 74.9664H35.3593C35.9846 74.9664 36.4653 74.8218 36.8013 74.5324C37.1373 74.2338 37.3053 73.8231 37.3053 73.3004C37.3053 72.8058 37.1373 72.4091 36.8013 72.1104C36.4746 71.8118 35.9799 71.6624 35.3173 71.6624H33.1753V74.9664ZM33.1753 79.5024H35.4293C36.1013 79.5024 36.6193 79.3484 36.9833 79.0404C37.3473 78.7231 37.5293 78.2844 37.5293 77.7244C37.5293 77.1738 37.3379 76.7351 36.9553 76.4084C36.5726 76.0724 36.0546 75.9044 35.4013 75.9044H33.1753V79.5024ZM42.8851 80.6504C42.0638 80.6504 41.4105 80.4031 40.9251 79.9084C40.4398 79.4044 40.1971 78.6344 40.1971 77.5984V73.5384H41.3731V77.4724C41.3731 78.9191 41.9658 79.6424 43.1511 79.6424C43.7578 79.6424 44.2571 79.4278 44.6491 78.9984C45.0505 78.5598 45.2511 77.9391 45.2511 77.1364V73.5384H46.4271V80.4824H45.3631L45.2791 79.2364C45.0645 79.6751 44.7425 80.0204 44.3131 80.2724C43.8931 80.5244 43.4171 80.6504 42.8851 80.6504ZM49.0769 71.9984C48.8435 71.9984 48.6475 71.9238 48.4889 71.7744C48.3395 71.6158 48.2649 71.4198 48.2649 71.1864C48.2649 70.9624 48.3395 70.7758 48.4889 70.6264C48.6475 70.4771 48.8435 70.4024 49.0769 70.4024C49.3009 70.4024 49.4922 70.4771 49.6509 70.6264C49.8095 70.7758 49.8889 70.9624 49.8889 71.1864C49.8889 71.4198 49.8095 71.6158 49.6509 71.7744C49.4922 71.9238 49.3009 71.9984 49.0769 71.9984ZM48.4889 80.4824V73.5384H49.6649V80.4824H48.4889ZM51.7125 80.4824V70.4024H52.8885V80.4824H51.7125ZM57.966 80.6504C57.2753 80.6504 56.6686 80.4918 56.146 80.1744C55.6326 79.8571 55.2313 79.4231 54.942 78.8724C54.662 78.3218 54.522 77.6964 54.522 76.9964C54.522 76.2964 54.6666 75.6758 54.956 75.1344C55.2453 74.5838 55.6466 74.1544 56.16 73.8464C56.6733 73.5291 57.28 73.3704 57.98 73.3704C58.5493 73.3704 59.0533 73.4871 59.492 73.7204C59.9306 73.9538 60.2713 74.2804 60.514 74.7004V70.4024H61.69V80.4824H60.626L60.514 79.3344C60.29 79.6704 59.968 79.9738 59.548 80.2444C59.128 80.5151 58.6006 80.6504 57.966 80.6504ZM58.092 79.6284C58.5586 79.6284 58.9693 79.5211 59.324 79.3064C59.688 79.0824 59.968 78.7744 60.164 78.3824C60.3693 77.9904 60.472 77.5331 60.472 77.0104C60.472 76.4878 60.3693 76.0304 60.164 75.6384C59.968 75.2464 59.688 74.9431 59.324 74.7284C58.9693 74.5044 58.5586 74.3924 58.092 74.3924C57.6346 74.3924 57.224 74.5044 56.86 74.7284C56.5053 74.9431 56.2253 75.2464 56.02 75.6384C55.824 76.0304 55.726 76.4878 55.726 77.0104C55.726 77.5331 55.824 77.9904 56.02 78.3824C56.2253 78.7744 56.5053 79.0824 56.86 79.3064C57.224 79.5211 57.6346 79.6284 58.092 79.6284ZM70.0561 80.4824C69.4214 80.4824 68.9221 80.3284 68.5581 80.0204C68.1941 79.7124 68.0121 79.1571 68.0121 78.3544V74.5324H66.8081V73.5384H68.0121L68.1661 71.8724H69.1881V73.5384H71.2321V74.5324H69.1881V78.3544C69.1881 78.7931 69.2767 79.0918 69.4541 79.2504C69.6314 79.3998 69.9441 79.4744 70.3921 79.4744H71.1201V80.4824H70.0561ZM72.7261 80.4824V70.4024H73.9021V74.7284C74.1355 74.2991 74.4668 73.9678 74.8961 73.7344C75.3255 73.4918 75.7921 73.3704 76.2961 73.3704C77.0988 73.3704 77.7428 73.6224 78.2281 74.1264C78.7135 74.6211 78.9561 75.3864 78.9561 76.4224V80.4824H77.7941V76.5484C77.7941 75.1018 77.2108 74.3784 76.0441 74.3784C75.4375 74.3784 74.9288 74.5978 74.5181 75.0364C74.1075 75.4658 73.9021 76.0818 73.9021 76.8844V80.4824H72.7261ZM83.8599 80.6504C83.1972 80.6504 82.6092 80.5011 82.0959 80.2024C81.5825 79.8944 81.1765 79.4698 80.8779 78.9284C80.5885 78.3871 80.4439 77.7478 80.4439 77.0104C80.4439 76.2824 80.5885 75.6478 80.8779 75.1064C81.1672 74.5558 81.5685 74.1311 82.0819 73.8324C82.6045 73.5244 83.2065 73.3704 83.8879 73.3704C84.5599 73.3704 85.1385 73.5244 85.6239 73.8324C86.1185 74.1311 86.4965 74.5278 86.7579 75.0224C87.0192 75.5171 87.1499 76.0491 87.1499 76.6184C87.1499 76.7211 87.1452 76.8238 87.1359 76.9264C87.1359 77.0291 87.1359 77.1458 87.1359 77.2764H81.6059C81.6339 77.8084 81.7552 78.2518 81.9699 78.6064C82.1939 78.9518 82.4692 79.2131 82.7959 79.3904C83.1319 79.5678 83.4865 79.6564 83.8599 79.6564C84.3452 79.6564 84.7512 79.5444 85.0779 79.3204C85.4045 79.0964 85.6425 78.7931 85.7919 78.4104H86.9539C86.7672 79.0544 86.4079 79.5911 85.8759 80.0204C85.3532 80.4404 84.6812 80.6504 83.8599 80.6504ZM83.8599 74.3644C83.2999 74.3644 82.8005 74.5371 82.3619 74.8824C81.9325 75.2184 81.6852 75.7131 81.6199 76.3664H85.9879C85.9599 75.7411 85.7452 75.2511 85.3439 74.8964C84.9425 74.5418 84.4479 74.3644 83.8599 74.3644ZM92.4136 80.4824V73.5384H93.4776L93.5756 74.8684C93.7903 74.4111 94.117 74.0471 94.5556 73.7764C94.9943 73.5058 95.5356 73.3704 96.1796 73.3704V74.6024H95.8576C95.447 74.6024 95.069 74.6771 94.7236 74.8264C94.3783 74.9664 94.103 75.2091 93.8976 75.5544C93.6923 75.8998 93.5896 76.3758 93.5896 76.9824V80.4824H92.4136ZM98.2136 71.9984C97.9802 71.9984 97.7842 71.9238 97.6256 71.7744C97.4762 71.6158 97.4016 71.4198 97.4016 71.1864C97.4016 70.9624 97.4762 70.7758 97.6256 70.6264C97.7842 70.4771 97.9802 70.4024 98.2136 70.4024C98.4376 70.4024 98.6289 70.4771 98.7876 70.6264C98.9462 70.7758 99.0256 70.9624 99.0256 71.1864C99.0256 71.4198 98.9462 71.6158 98.7876 71.7744C98.6289 71.9238 98.4376 71.9984 98.2136 71.9984ZM97.6256 80.4824V73.5384H98.8016V80.4824H97.6256ZM103.593 78.2984C103.201 78.2984 102.842 78.2471 102.515 78.1444L101.815 78.8024C101.918 78.8771 102.044 78.9424 102.193 78.9984C102.352 79.0451 102.576 79.0918 102.865 79.1384C103.155 79.1758 103.561 79.2178 104.083 79.2644C105.017 79.3298 105.684 79.5444 106.085 79.9084C106.487 80.2724 106.687 80.7484 106.687 81.3364C106.687 81.7378 106.575 82.1204 106.351 82.4844C106.137 82.8484 105.801 83.1471 105.343 83.3804C104.895 83.6138 104.317 83.7304 103.607 83.7304C102.982 83.7304 102.427 83.6464 101.941 83.4784C101.456 83.3198 101.078 83.0724 100.807 82.7364C100.537 82.4098 100.401 81.9944 100.401 81.4904C100.401 81.2291 100.471 80.9444 100.611 80.6364C100.751 80.3378 101.013 80.0531 101.395 79.7824C101.19 79.6984 101.013 79.6098 100.863 79.5164C100.723 79.4138 100.593 79.3018 100.471 79.1804V78.8584L101.661 77.6824C101.111 77.2158 100.835 76.5998 100.835 75.8344C100.835 75.3771 100.943 74.9618 101.157 74.5884C101.372 74.2151 101.685 73.9211 102.095 73.7064C102.506 73.4824 103.005 73.3704 103.593 73.3704C103.995 73.3704 104.359 73.4264 104.685 73.5384H107.247V74.4204L105.945 74.4764C106.216 74.8684 106.351 75.3211 106.351 75.8344C106.351 76.2918 106.239 76.7071 106.015 77.0804C105.801 77.4538 105.488 77.7524 105.077 77.9764C104.676 78.1911 104.181 78.2984 103.593 78.2984ZM103.593 77.3324C104.088 77.3324 104.48 77.2064 104.769 76.9544C105.068 76.6931 105.217 76.3198 105.217 75.8344C105.217 75.3584 105.068 74.9944 104.769 74.7424C104.48 74.4811 104.088 74.3504 103.593 74.3504C103.089 74.3504 102.688 74.4811 102.389 74.7424C102.1 74.9944 101.955 75.3584 101.955 75.8344C101.955 76.3198 102.1 76.6931 102.389 76.9544C102.688 77.2064 103.089 77.3324 103.593 77.3324ZM101.549 81.3784C101.549 81.8451 101.745 82.1904 102.137 82.4144C102.529 82.6478 103.019 82.7644 103.607 82.7644C104.186 82.7644 104.648 82.6384 104.993 82.3864C105.348 82.1344 105.525 81.7984 105.525 81.3784C105.525 81.0798 105.404 80.8184 105.161 80.5944C104.919 80.3798 104.471 80.2538 103.817 80.2164C103.304 80.1791 102.861 80.1324 102.487 80.0764C102.105 80.2818 101.853 80.5011 101.731 80.7344C101.61 80.9771 101.549 81.1918 101.549 81.3784ZM108.574 80.4824V70.4024H109.75V74.7284C109.983 74.2991 110.314 73.9678 110.744 73.7344C111.173 73.4918 111.64 73.3704 112.144 73.3704C112.946 73.3704 113.59 73.6224 114.076 74.1264C114.561 74.6211 114.804 75.3864 114.804 76.4224V80.4824H113.642V76.5484C113.642 75.1018 113.058 74.3784 111.892 74.3784C111.285 74.3784 110.776 74.5978 110.366 75.0364C109.955 75.4658 109.75 76.0818 109.75 76.8844V80.4824H108.574ZM119.33 80.4824C118.695 80.4824 118.196 80.3284 117.832 80.0204C117.468 79.7124 117.286 79.1571 117.286 78.3544V74.5324H116.082V73.5384H117.286L117.44 71.8724H118.462V73.5384H120.506V74.5324H118.462V78.3544C118.462 78.7931 118.55 79.0918 118.728 79.2504C118.905 79.3998 119.218 79.4744 119.666 79.4744H120.394V80.4824H119.33ZM125.705 83.5624V73.5384H126.769L126.881 74.6864C127.105 74.3504 127.422 74.0471 127.833 73.7764C128.253 73.5058 128.785 73.3704 129.429 73.3704C130.119 73.3704 130.721 73.5291 131.235 73.8464C131.748 74.1638 132.145 74.5978 132.425 75.1484C132.714 75.6991 132.859 76.3244 132.859 77.0244C132.859 77.7244 132.714 78.3498 132.425 78.9004C132.145 79.4418 131.743 79.8711 131.221 80.1884C130.707 80.4964 130.105 80.6504 129.415 80.6504C128.845 80.6504 128.337 80.5338 127.889 80.3004C127.45 80.0671 127.114 79.7404 126.881 79.3204V83.5624H125.705ZM129.289 79.6284C129.755 79.6284 130.166 79.5211 130.521 79.3064C130.875 79.0824 131.155 78.7744 131.361 78.3824C131.566 77.9904 131.669 77.5331 131.669 77.0104C131.669 76.4878 131.566 76.0304 131.361 75.6384C131.155 75.2464 130.875 74.9431 130.521 74.7284C130.166 74.5044 129.755 74.3924 129.289 74.3924C128.822 74.3924 128.411 74.5044 128.057 74.7284C127.702 74.9431 127.422 75.2464 127.217 75.6384C127.011 76.0304 126.909 76.4878 126.909 77.0104C126.909 77.5331 127.011 77.9904 127.217 78.3824C127.422 78.7744 127.702 79.0824 128.057 79.3064C128.411 79.5211 128.822 79.6284 129.289 79.6284ZM134.496 80.4824V73.5384H135.56L135.658 74.8684C135.872 74.4111 136.199 74.0471 136.638 73.7764C137.076 73.5058 137.618 73.3704 138.262 73.3704V74.6024H137.94C137.529 74.6024 137.151 74.6771 136.806 74.8264C136.46 74.9664 136.185 75.2091 135.98 75.5544C135.774 75.8998 135.672 76.3758 135.672 76.9824V80.4824H134.496ZM142.486 80.6504C141.833 80.6504 141.245 80.5011 140.722 80.2024C140.199 79.9038 139.784 79.4838 139.476 78.9424C139.177 78.3918 139.028 77.7478 139.028 77.0104C139.028 76.2731 139.182 75.6338 139.49 75.0924C139.798 74.5418 140.213 74.1171 140.736 73.8184C141.268 73.5198 141.861 73.3704 142.514 73.3704C143.167 73.3704 143.755 73.5198 144.278 73.8184C144.801 74.1171 145.211 74.5418 145.51 75.0924C145.818 75.6338 145.972 76.2731 145.972 77.0104C145.972 77.7478 145.818 78.3918 145.51 78.9424C145.202 79.4838 144.782 79.9038 144.25 80.2024C143.727 80.5011 143.139 80.6504 142.486 80.6504ZM142.486 79.6424C142.887 79.6424 143.261 79.5444 143.606 79.3484C143.951 79.1524 144.231 78.8584 144.446 78.4664C144.661 78.0744 144.768 77.5891 144.768 77.0104C144.768 76.4318 144.661 75.9464 144.446 75.5544C144.241 75.1624 143.965 74.8684 143.62 74.6724C143.275 74.4764 142.906 74.3784 142.514 74.3784C142.113 74.3784 141.739 74.4764 141.394 74.6724C141.049 74.8684 140.769 75.1624 140.554 75.5544C140.339 75.9464 140.232 76.4318 140.232 77.0104C140.232 77.5891 140.339 78.0744 140.554 78.4664C140.769 78.8584 141.044 79.1524 141.38 79.3484C141.725 79.5444 142.094 79.6424 142.486 79.6424ZM150.757 80.6504C150.066 80.6504 149.46 80.4918 148.937 80.1744C148.424 79.8571 148.022 79.4231 147.733 78.8724C147.453 78.3218 147.313 77.6964 147.313 76.9964C147.313 76.2964 147.458 75.6758 147.747 75.1344C148.036 74.5838 148.438 74.1544 148.951 73.8464C149.464 73.5291 150.071 73.3704 150.771 73.3704C151.34 73.3704 151.844 73.4871 152.283 73.7204C152.722 73.9538 153.062 74.2804 153.305 74.7004V70.4024H154.481V80.4824H153.417L153.305 79.3344C153.081 79.6704 152.759 79.9738 152.339 80.2444C151.919 80.5151 151.392 80.6504 150.757 80.6504ZM150.883 79.6284C151.35 79.6284 151.76 79.5211 152.115 79.3064C152.479 79.0824 152.759 78.7744 152.955 78.3824C153.16 77.9904 153.263 77.5331 153.263 77.0104C153.263 76.4878 153.16 76.0304 152.955 75.6384C152.759 75.2464 152.479 74.9431 152.115 74.7284C151.76 74.5044 151.35 74.3924 150.883 74.3924C150.426 74.3924 150.015 74.5044 149.651 74.7284C149.296 74.9431 149.016 75.2464 148.811 75.6384C148.615 76.0304 148.517 76.4878 148.517 77.0104C148.517 77.5331 148.615 77.9904 148.811 78.3824C149.016 78.7744 149.296 79.0824 149.651 79.3064C150.015 79.5211 150.426 79.6284 150.883 79.6284ZM158.932 80.6504C158.111 80.6504 157.457 80.4031 156.972 79.9084C156.487 79.4044 156.244 78.6344 156.244 77.5984V73.5384H157.42V77.4724C157.42 78.9191 158.013 79.6424 159.198 79.6424C159.805 79.6424 160.304 79.4278 160.696 78.9984C161.097 78.5598 161.298 77.9391 161.298 77.1364V73.5384H162.474V80.4824H161.41L161.326 79.2364C161.111 79.6751 160.789 80.0204 160.36 80.2724C159.94 80.5244 159.464 80.6504 158.932 80.6504ZM167.602 80.6504C166.939 80.6504 166.342 80.5011 165.81 80.2024C165.287 79.8944 164.872 79.4698 164.564 78.9284C164.265 78.3778 164.116 77.7384 164.116 77.0104C164.116 76.2824 164.265 75.6478 164.564 75.1064C164.872 74.5558 165.287 74.1311 165.81 73.8324C166.342 73.5244 166.939 73.3704 167.602 73.3704C168.423 73.3704 169.114 73.5851 169.674 74.0144C170.243 74.4438 170.602 75.0178 170.752 75.7364H169.548C169.454 75.3071 169.226 74.9758 168.862 74.7424C168.498 74.4998 168.073 74.3784 167.588 74.3784C167.196 74.3784 166.827 74.4764 166.482 74.6724C166.136 74.8684 165.856 75.1624 165.642 75.5544C165.427 75.9464 165.32 76.4318 165.32 77.0104C165.32 77.5891 165.427 78.0744 165.642 78.4664C165.856 78.8584 166.136 79.1571 166.482 79.3624C166.827 79.5584 167.196 79.6564 167.588 79.6564C168.073 79.6564 168.498 79.5398 168.862 79.3064C169.226 79.0638 169.454 78.7231 169.548 78.2844H170.752C170.612 78.9844 170.257 79.5538 169.688 79.9924C169.118 80.4311 168.423 80.6504 167.602 80.6504ZM174.947 80.4824C174.312 80.4824 173.813 80.3284 173.449 80.0204C173.085 79.7124 172.903 79.1571 172.903 78.3544V74.5324H171.699V73.5384H172.903L173.057 71.8724H174.079V73.5384H176.123V74.5324H174.079V78.3544C174.079 78.7931 174.167 79.0918 174.345 79.2504C174.522 79.3998 174.835 79.4744 175.283 79.4744H176.011V80.4824H174.947ZM180.277 80.6504C179.446 80.6504 178.755 80.4404 178.205 80.0204C177.654 79.6004 177.332 79.0311 177.239 78.3124H178.443C178.517 78.6764 178.709 78.9938 179.017 79.2644C179.334 79.5258 179.759 79.6564 180.291 79.6564C180.785 79.6564 181.149 79.5538 181.383 79.3484C181.616 79.1338 181.733 78.8818 181.733 78.5924C181.733 78.1724 181.579 77.8924 181.271 77.7524C180.972 77.6124 180.547 77.4864 179.997 77.3744C179.623 77.2998 179.25 77.1924 178.877 77.0524C178.503 76.9124 178.191 76.7164 177.939 76.4644C177.687 76.2031 177.561 75.8624 177.561 75.4424C177.561 74.8358 177.785 74.3411 178.233 73.9584C178.69 73.5664 179.306 73.3704 180.081 73.3704C180.818 73.3704 181.42 73.5571 181.887 73.9304C182.363 74.2944 182.638 74.8171 182.713 75.4984H181.551C181.504 75.1438 181.35 74.8684 181.089 74.6724C180.837 74.4671 180.496 74.3644 180.067 74.3644C179.647 74.3644 179.32 74.4531 179.087 74.6304C178.863 74.8078 178.751 75.0411 178.751 75.3304C178.751 75.6104 178.895 75.8298 179.185 75.9884C179.483 76.1471 179.885 76.2824 180.389 76.3944C180.818 76.4878 181.224 76.6044 181.607 76.7444C181.999 76.8751 182.316 77.0758 182.559 77.3464C182.811 77.6078 182.937 77.9904 182.937 78.4944C182.946 79.1198 182.708 79.6378 182.223 80.0484C181.747 80.4498 181.098 80.6504 180.277 80.6504ZM189.722 80.4824L187.692 73.5384H188.868L190.338 78.9844L191.962 73.5384H193.292L194.93 78.9844L196.386 73.5384H197.576L195.546 80.4824H194.342L192.634 74.7564L190.926 80.4824H189.722ZM199.591 71.9984C199.357 71.9984 199.161 71.9238 199.003 71.7744C198.853 71.6158 198.779 71.4198 198.779 71.1864C198.779 70.9624 198.853 70.7758 199.003 70.6264C199.161 70.4771 199.357 70.4024 199.591 70.4024C199.815 70.4024 200.006 70.4771 200.165 70.6264C200.323 70.7758 200.403 70.9624 200.403 71.1864C200.403 71.4198 200.323 71.6158 200.165 71.7744C200.006 71.9238 199.815 71.9984 199.591 71.9984ZM199.003 80.4824V73.5384H200.179V80.4824H199.003ZM204.97 80.4824C204.335 80.4824 203.836 80.3284 203.472 80.0204C203.108 79.7124 202.926 79.1571 202.926 78.3544V74.5324H201.722V73.5384H202.926L203.08 71.8724H204.102V73.5384H206.146V74.5324H204.102V78.3544C204.102 78.7931 204.191 79.0918 204.368 79.2504C204.545 79.3998 204.858 79.4744 205.306 79.4744H206.034V80.4824H204.97ZM207.64 80.4824V70.4024H208.816V74.7284C209.05 74.2991 209.381 73.9678 209.81 73.7344C210.24 73.4918 210.706 73.3704 211.21 73.3704C212.013 73.3704 212.657 73.6224 213.142 74.1264C213.628 74.6211 213.87 75.3864 213.87 76.4224V80.4824H212.708V76.5484C212.708 75.1018 212.125 74.3784 210.958 74.3784C210.352 74.3784 209.843 74.5978 209.432 75.0364C209.022 75.4658 208.816 76.0818 208.816 76.8844V80.4824H207.64ZM219.735 80.4824V74.5324H218.685V73.5384H219.735V72.3344C219.735 71.6624 219.903 71.1724 220.239 70.8644C220.575 70.5564 221.065 70.4024 221.709 70.4024H222.409V71.4104H221.891C221.536 71.4104 221.284 71.4851 221.135 71.6344C220.986 71.7744 220.911 72.0171 220.911 72.3624V73.5384H222.619V74.5324H220.911V80.4824H219.735ZM226.868 80.6504C226.205 80.6504 225.617 80.5011 225.104 80.2024C224.59 79.8944 224.184 79.4698 223.886 78.9284C223.596 78.3871 223.452 77.7478 223.452 77.0104C223.452 76.2824 223.596 75.6478 223.886 75.1064C224.175 74.5558 224.576 74.1311 225.09 73.8324C225.612 73.5244 226.214 73.3704 226.896 73.3704C227.568 73.3704 228.146 73.5244 228.632 73.8324C229.126 74.1311 229.504 74.5278 229.766 75.0224C230.027 75.5171 230.158 76.0491 230.158 76.6184C230.158 76.7211 230.153 76.8238 230.144 76.9264C230.144 77.0291 230.144 77.1458 230.144 77.2764H224.614C224.642 77.8084 224.763 78.2518 224.978 78.6064C225.202 78.9518 225.477 79.2131 225.804 79.3904C226.14 79.5678 226.494 79.6564 226.868 79.6564C227.353 79.6564 227.759 79.5444 228.086 79.3204C228.412 79.0964 228.65 78.7931 228.8 78.4104H229.962C229.775 79.0544 229.416 79.5911 228.884 80.0204C228.361 80.4404 227.689 80.6504 226.868 80.6504ZM226.868 74.3644C226.308 74.3644 225.808 74.5371 225.37 74.8824C224.94 75.2184 224.693 75.7131 224.628 76.3664H228.996C228.968 75.7411 228.753 75.2511 228.352 74.8964C227.95 74.5418 227.456 74.3644 226.868 74.3644ZM234.838 80.6504C234.176 80.6504 233.588 80.5011 233.074 80.2024C232.561 79.8944 232.155 79.4698 231.856 78.9284C231.567 78.3871 231.422 77.7478 231.422 77.0104C231.422 76.2824 231.567 75.6478 231.856 75.1064C232.146 74.5558 232.547 74.1311 233.06 73.8324C233.583 73.5244 234.185 73.3704 234.866 73.3704C235.538 73.3704 236.117 73.5244 236.602 73.8324C237.097 74.1311 237.475 74.5278 237.736 75.0224C237.998 75.5171 238.128 76.0491 238.128 76.6184C238.128 76.7211 238.124 76.8238 238.114 76.9264C238.114 77.0291 238.114 77.1458 238.114 77.2764H232.584C232.612 77.8084 232.734 78.2518 232.948 78.6064C233.172 78.9518 233.448 79.2131 233.774 79.3904C234.11 79.5678 234.465 79.6564 234.838 79.6564C235.324 79.6564 235.73 79.5444 236.056 79.3204C236.383 79.0964 236.621 78.7931 236.77 78.4104H237.932C237.746 79.0544 237.386 79.5911 236.854 80.0204C236.332 80.4404 235.66 80.6504 234.838 80.6504ZM234.838 74.3644C234.278 74.3644 233.779 74.5371 233.34 74.8824C232.911 75.2184 232.664 75.7131 232.598 76.3664H236.966C236.938 75.7411 236.724 75.2511 236.322 74.8964C235.921 74.5418 235.426 74.3644 234.838 74.3644ZM242.837 80.6504C242.146 80.6504 241.54 80.4918 241.017 80.1744C240.504 79.8571 240.102 79.4231 239.813 78.8724C239.533 78.3218 239.393 77.6964 239.393 76.9964C239.393 76.2964 239.538 75.6758 239.827 75.1344C240.116 74.5838 240.518 74.1544 241.031 73.8464C241.544 73.5291 242.151 73.3704 242.851 73.3704C243.42 73.3704 243.924 73.4871 244.363 73.7204C244.802 73.9538 245.142 74.2804 245.385 74.7004V70.4024H246.561V80.4824H245.497L245.385 79.3344C245.161 79.6704 244.839 79.9738 244.419 80.2444C243.999 80.5151 243.472 80.6504 242.837 80.6504ZM242.963 79.6284C243.43 79.6284 243.84 79.5211 244.195 79.3064C244.559 79.0824 244.839 78.7744 245.035 78.3824C245.24 77.9904 245.343 77.5331 245.343 77.0104C245.343 76.4878 245.24 76.0304 245.035 75.6384C244.839 75.2464 244.559 74.9431 244.195 74.7284C243.84 74.5044 243.43 74.3924 242.963 74.3924C242.506 74.3924 242.095 74.5044 241.731 74.7284C241.376 74.9431 241.096 75.2464 240.891 75.6384C240.695 76.0304 240.597 76.4878 240.597 77.0104C240.597 77.5331 240.695 77.9904 240.891 78.3824C241.096 78.7744 241.376 79.0824 241.731 79.3064C242.095 79.5211 242.506 79.6284 242.963 79.6284ZM252.188 80.6504C251.619 80.6504 251.11 80.5338 250.662 80.3004C250.223 80.0671 249.887 79.7404 249.654 79.3204L249.542 80.4824H248.478V70.4024H249.654V74.6864C249.878 74.3504 250.195 74.0471 250.606 73.7764C251.026 73.5058 251.558 73.3704 252.202 73.3704C252.893 73.3704 253.495 73.5291 254.008 73.8464C254.521 74.1638 254.918 74.5978 255.198 75.1484C255.487 75.6991 255.632 76.3244 255.632 77.0244C255.632 77.7244 255.487 78.3498 255.198 78.9004C254.918 79.4418 254.517 79.8711 253.994 80.1884C253.481 80.4964 252.879 80.6504 252.188 80.6504ZM252.062 79.6284C252.529 79.6284 252.939 79.5211 253.294 79.3064C253.649 79.0824 253.929 78.7744 254.134 78.3824C254.339 77.9904 254.442 77.5331 254.442 77.0104C254.442 76.4878 254.339 76.0304 254.134 75.6384C253.929 75.2464 253.649 74.9431 253.294 74.7284C252.939 74.5044 252.529 74.3924 252.062 74.3924C251.595 74.3924 251.185 74.5044 250.83 74.7284C250.475 74.9431 250.195 75.2464 249.99 75.6384C249.785 76.0304 249.682 76.4878 249.682 77.0104C249.682 77.5331 249.785 77.9904 249.99 78.3824C250.195 78.7744 250.475 79.0824 250.83 79.3064C251.185 79.5211 251.595 79.6284 252.062 79.6284ZM259.579 80.6504C259 80.6504 258.52 80.5524 258.137 80.3564C257.754 80.1604 257.47 79.8991 257.283 79.5724C257.096 79.2458 257.003 78.8911 257.003 78.5084C257.003 77.7991 257.274 77.2531 257.815 76.8704C258.356 76.4878 259.094 76.2964 260.027 76.2964H261.903V76.2124C261.903 75.6058 261.744 75.1484 261.427 74.8404C261.11 74.5231 260.685 74.3644 260.153 74.3644C259.696 74.3644 259.299 74.4811 258.963 74.7144C258.636 74.9384 258.431 75.2698 258.347 75.7084H257.143C257.19 75.2044 257.358 74.7798 257.647 74.4344C257.946 74.0891 258.314 73.8278 258.753 73.6504C259.192 73.4638 259.658 73.3704 260.153 73.3704C261.124 73.3704 261.852 73.6318 262.337 74.1544C262.832 74.6678 263.079 75.3538 263.079 76.2124V80.4824H262.029L261.959 79.2364C261.763 79.6284 261.474 79.9644 261.091 80.2444C260.718 80.5151 260.214 80.6504 259.579 80.6504ZM259.761 79.6564C260.209 79.6564 260.592 79.5398 260.909 79.3064C261.236 79.0731 261.483 78.7698 261.651 78.3964C261.819 78.0231 261.903 77.6311 261.903 77.2204V77.2064H260.125C259.434 77.2064 258.944 77.3278 258.655 77.5704C258.375 77.8038 258.235 78.0978 258.235 78.4524C258.235 78.8164 258.366 79.1104 258.627 79.3344C258.898 79.5491 259.276 79.6564 259.761 79.6564ZM268.035 80.6504C267.373 80.6504 266.775 80.5011 266.243 80.2024C265.721 79.8944 265.305 79.4698 264.997 78.9284C264.699 78.3778 264.549 77.7384 264.549 77.0104C264.549 76.2824 264.699 75.6478 264.997 75.1064C265.305 74.5558 265.721 74.1311 266.243 73.8324C266.775 73.5244 267.373 73.3704 268.035 73.3704C268.857 73.3704 269.547 73.5851 270.107 74.0144C270.677 74.4438 271.036 75.0178 271.185 75.7364H269.981C269.888 75.3071 269.659 74.9758 269.295 74.7424C268.931 74.4998 268.507 74.3784 268.021 74.3784C267.629 74.3784 267.261 74.4764 266.915 74.6724C266.57 74.8684 266.29 75.1624 266.075 75.5544C265.861 75.9464 265.753 76.4318 265.753 77.0104C265.753 77.5891 265.861 78.0744 266.075 78.4664C266.29 78.8584 266.57 79.1571 266.915 79.3624C267.261 79.5584 267.629 79.6564 268.021 79.6564C268.507 79.6564 268.931 79.5398 269.295 79.3064C269.659 79.0638 269.888 78.7231 269.981 78.2844H271.185C271.045 78.9844 270.691 79.5538 270.121 79.9924C269.552 80.4311 268.857 80.6504 268.035 80.6504ZM272.828 80.4824V70.4024H274.004V76.4644L276.846 73.5384H278.288L275.208 76.6744L278.68 80.4824H277.182L274.004 76.8844V80.4824H272.828ZM34.6733 102.482C34.0386 102.482 33.5393 102.328 33.1753 102.02C32.8113 101.712 32.6293 101.157 32.6293 100.354V96.5324H31.4253V95.5384H32.6293L32.7833 93.8724H33.8053V95.5384H35.8493V96.5324H33.8053V100.354C33.8053 100.793 33.8939 101.092 34.0713 101.25C34.2486 101.4 34.5613 101.474 35.0093 101.474H35.7373V102.482H34.6733ZM37.3433 102.482V92.4024H38.5193V96.7284C38.7527 96.2991 39.084 95.9678 39.5133 95.7344C39.9427 95.4918 40.4093 95.3704 40.9133 95.3704C41.716 95.3704 42.36 95.6224 42.8453 96.1264C43.3307 96.6211 43.5733 97.3864 43.5733 98.4224V102.482H42.4113V98.5484C42.4113 97.1018 41.828 96.3784 40.6613 96.3784C40.0547 96.3784 39.546 96.5978 39.1353 97.0364C38.7247 97.4658 38.5193 98.0818 38.5193 98.8844V102.482H37.3433ZM47.665 102.65C47.0864 102.65 46.6057 102.552 46.223 102.356C45.8404 102.16 45.5557 101.899 45.369 101.572C45.1824 101.246 45.089 100.891 45.089 100.508C45.089 99.7991 45.3597 99.2531 45.901 98.8704C46.4424 98.4878 47.1797 98.2964 48.113 98.2964H49.989V98.2124C49.989 97.6058 49.8304 97.1484 49.513 96.8404C49.1957 96.5231 48.771 96.3644 48.239 96.3644C47.7817 96.3644 47.385 96.4811 47.049 96.7144C46.7224 96.9384 46.517 97.2698 46.433 97.7084H45.229C45.2757 97.2044 45.4437 96.7798 45.733 96.4344C46.0317 96.0891 46.4004 95.8278 46.839 95.6504C47.2777 95.4638 47.7444 95.3704 48.239 95.3704C49.2097 95.3704 49.9377 95.6318 50.423 96.1544C50.9177 96.6678 51.165 97.3538 51.165 98.2124V102.482H50.115L50.045 101.236C49.849 101.628 49.5597 101.964 49.177 102.244C48.8037 102.515 48.2997 102.65 47.665 102.65ZM47.847 101.656C48.295 101.656 48.6777 101.54 48.995 101.306C49.3217 101.073 49.569 100.77 49.737 100.396C49.905 100.023 49.989 99.6311 49.989 99.2204V99.2064H48.211C47.5204 99.2064 47.0304 99.3278 46.741 99.5704C46.461 99.8038 46.321 100.098 46.321 100.452C46.321 100.816 46.4517 101.11 46.713 101.334C46.9837 101.549 47.3617 101.656 47.847 101.656ZM55.4819 102.482C54.8472 102.482 54.3479 102.328 53.9839 102.02C53.6199 101.712 53.4379 101.157 53.4379 100.354V96.5324H52.2339V95.5384H53.4379L53.5919 93.8724H54.6139V95.5384H56.6579V96.5324H54.6139V100.354C54.6139 100.793 54.7025 101.092 54.8799 101.25C55.0572 101.4 55.3699 101.474 55.8179 101.474H56.5459V102.482H55.4819ZM61.857 102.482V95.5384H62.921L63.005 96.5464C63.229 96.1731 63.5277 95.8838 63.901 95.6784C64.2743 95.4731 64.6943 95.3704 65.161 95.3704C65.7117 95.3704 66.183 95.4824 66.575 95.7064C66.9763 95.9304 67.2843 96.2711 67.499 96.7284C67.7417 96.3084 68.073 95.9771 68.493 95.7344C68.9223 95.4918 69.3843 95.3704 69.879 95.3704C70.7097 95.3704 71.3723 95.6224 71.867 96.1264C72.3617 96.6211 72.609 97.3864 72.609 98.4224V102.482H71.447V98.5484C71.447 97.8298 71.3023 97.2884 71.013 96.9244C70.7237 96.5604 70.3083 96.3784 69.767 96.3784C69.207 96.3784 68.7403 96.5978 68.367 97.0364C68.003 97.4658 67.821 98.0818 67.821 98.8844V102.482H66.645V98.5484C66.645 97.8298 66.5003 97.2884 66.211 96.9244C65.9217 96.5604 65.5063 96.3784 64.965 96.3784C64.4143 96.3784 63.9523 96.5978 63.579 97.0364C63.215 97.4658 63.033 98.0818 63.033 98.8844V102.482H61.857ZM76.6904 102.65C76.1118 102.65 75.6311 102.552 75.2484 102.356C74.8658 102.16 74.5811 101.899 74.3944 101.572C74.2078 101.246 74.1144 100.891 74.1144 100.508C74.1144 99.7991 74.3851 99.2531 74.9264 98.8704C75.4678 98.4878 76.2051 98.2964 77.1384 98.2964H79.0144V98.2124C79.0144 97.6058 78.8558 97.1484 78.5384 96.8404C78.2211 96.5231 77.7964 96.3644 77.2644 96.3644C76.8071 96.3644 76.4104 96.4811 76.0744 96.7144C75.7478 96.9384 75.5424 97.2698 75.4584 97.7084H74.2544C74.3011 97.2044 74.4691 96.7798 74.7584 96.4344C75.0571 96.0891 75.4258 95.8278 75.8644 95.6504C76.3031 95.4638 76.7698 95.3704 77.2644 95.3704C78.2351 95.3704 78.9631 95.6318 79.4484 96.1544C79.9431 96.6678 80.1904 97.3538 80.1904 98.2124V102.482H79.1404L79.0704 101.236C78.8744 101.628 78.5851 101.964 78.2024 102.244C77.8291 102.515 77.3251 102.65 76.6904 102.65ZM76.8724 101.656C77.3204 101.656 77.7031 101.54 78.0204 101.306C78.3471 101.073 78.5944 100.77 78.7624 100.396C78.9304 100.023 79.0144 99.6311 79.0144 99.2204V99.2064H77.2364C76.5458 99.2064 76.0558 99.3278 75.7664 99.5704C75.4864 99.8038 75.3464 100.098 75.3464 100.452C75.3464 100.816 75.4771 101.11 75.7384 101.334C76.0091 101.549 76.3871 101.656 76.8724 101.656ZM84.5072 102.482C83.8726 102.482 83.3732 102.328 83.0092 102.02C82.6452 101.712 82.4632 101.157 82.4632 100.354V96.5324H81.2592V95.5384H82.4632L82.6172 93.8724H83.6392V95.5384H85.6832V96.5324H83.6392V100.354C83.6392 100.793 83.7279 101.092 83.9052 101.25C84.0826 101.4 84.3952 101.474 84.8432 101.474H85.5712V102.482H84.5072ZM89.9213 102.482C89.2866 102.482 88.7873 102.328 88.4233 102.02C88.0593 101.712 87.8773 101.157 87.8773 100.354V96.5324H86.6733V95.5384H87.8773L88.0313 93.8724H89.0533V95.5384H91.0973V96.5324H89.0533V100.354C89.0533 100.793 89.142 101.092 89.3193 101.25C89.4966 101.4 89.8093 101.474 90.2573 101.474H90.9853V102.482H89.9213ZM95.522 102.65C94.8593 102.65 94.2713 102.501 93.758 102.202C93.2446 101.894 92.8386 101.47 92.54 100.928C92.2506 100.387 92.106 99.7478 92.106 99.0104C92.106 98.2824 92.2506 97.6478 92.54 97.1064C92.8293 96.5558 93.2306 96.1311 93.744 95.8324C94.2666 95.5244 94.8686 95.3704 95.55 95.3704C96.222 95.3704 96.8006 95.5244 97.286 95.8324C97.7806 96.1311 98.1586 96.5278 98.42 97.0224C98.6813 97.5171 98.812 98.0491 98.812 98.6184C98.812 98.7211 98.8073 98.8238 98.798 98.9264C98.798 99.0291 98.798 99.1458 98.798 99.2764H93.268C93.296 99.8084 93.4173 100.252 93.632 100.606C93.856 100.952 94.1313 101.213 94.458 101.39C94.794 101.568 95.1486 101.656 95.522 101.656C96.0073 101.656 96.4133 101.544 96.74 101.32C97.0666 101.096 97.3046 100.793 97.454 100.41H98.616C98.4293 101.054 98.07 101.591 97.538 102.02C97.0153 102.44 96.3433 102.65 95.522 102.65ZM95.522 96.3644C94.962 96.3644 94.4626 96.5371 94.024 96.8824C93.5946 97.2184 93.3473 97.7131 93.282 98.3664H97.65C97.622 97.7411 97.4073 97.2511 97.006 96.8964C96.6046 96.5418 96.11 96.3644 95.522 96.3644ZM100.371 102.482V95.5384H101.435L101.533 96.8684C101.747 96.4111 102.074 96.0471 102.513 95.7764C102.951 95.5058 103.493 95.3704 104.137 95.3704V96.6024H103.815C103.404 96.6024 103.026 96.6771 102.681 96.8264C102.335 96.9664 102.06 97.2091 101.855 97.5544C101.649 97.8998 101.547 98.3758 101.547 98.9824V102.482H100.371Z" fill="#565359"/>
<circle cx="42.9633" cy="42.4824" r="12" fill="#F8CA45" fill-opacity="0.2"/>
<path d="M46.9633 43.8158C46.9633 44.0515 46.8696 44.2776 46.7029 44.4443C46.5362 44.611 46.3101 44.7046 46.0744 44.7046H40.741L38.9633 46.4824V39.3713C38.9633 39.1356 39.0569 38.9095 39.2236 38.7428C39.3903 38.5761 39.6164 38.4824 39.8521 38.4824H46.0744C46.3101 38.4824 46.5362 38.5761 46.7029 38.7428C46.8696 38.9095 46.9633 39.1356 46.9633 39.3713V43.8158Z" stroke="#F8CA45" stroke-width="1.6" stroke-linecap="round" stroke-linejoin="round"/>
<path d="M66.1233 47.6744C64.9926 47.6744 64.0219 47.4344 63.2113 46.9544C62.4006 46.4638 61.7766 45.7864 61.3393 44.9224C60.9019 44.0478 60.6833 43.0398 60.6833 41.8984C60.6833 40.7571 60.9019 39.7491 61.3393 38.8744C61.7766 37.9998 62.4006 37.3171 63.2113 36.8264C64.0219 36.3358 64.9926 36.0904 66.1233 36.0904C67.4673 36.0904 68.5659 36.4264 69.4193 37.0984C70.2833 37.7598 70.8219 38.6931 71.0353 39.8984H68.7793C68.6406 39.2904 68.3419 38.8158 67.8833 38.4744C67.4353 38.1224 66.8379 37.9464 66.0913 37.9464C65.0566 37.9464 64.2459 38.2984 63.6593 39.0024C63.0726 39.7064 62.7793 40.6718 62.7793 41.8984C62.7793 43.1251 63.0726 44.0904 63.6593 44.7944C64.2459 45.4878 65.0566 45.8344 66.0913 45.8344C66.8379 45.8344 67.4353 45.6744 67.8833 45.3544C68.3419 45.0238 68.6406 44.5704 68.7793 43.9944H71.0353C70.8219 45.1464 70.2833 46.0478 69.4193 46.6984C68.5659 47.3491 67.4673 47.6744 66.1233 47.6744ZM76.6081 47.6744C75.8401 47.6744 75.1468 47.4984 74.5281 47.1464C73.9201 46.7944 73.4348 46.3091 73.0721 45.6904C72.7201 45.0611 72.5441 44.3358 72.5441 43.5144C72.5441 42.6931 72.7255 41.9731 73.0881 41.3544C73.4508 40.7251 73.9361 40.2344 74.5441 39.8824C75.1628 39.5304 75.8561 39.3544 76.6241 39.3544C77.3815 39.3544 78.0641 39.5304 78.6721 39.8824C79.2908 40.2344 79.7761 40.7251 80.1281 41.3544C80.4908 41.9731 80.6721 42.6931 80.6721 43.5144C80.6721 44.3358 80.4908 45.0611 80.1281 45.6904C79.7761 46.3091 79.2908 46.7944 78.6721 47.1464C78.0535 47.4984 77.3655 47.6744 76.6081 47.6744ZM76.6081 45.8984C77.1415 45.8984 77.6055 45.7011 78.0001 45.3064C78.3948 44.9011 78.5921 44.3038 78.5921 43.5144C78.5921 42.7251 78.3948 42.1331 78.0001 41.7384C77.6055 41.3331 77.1468 41.1304 76.6241 41.1304C76.0801 41.1304 75.6108 41.3331 75.2161 41.7384C74.8321 42.1331 74.6401 42.7251 74.6401 43.5144C74.6401 44.3038 74.8321 44.9011 75.2161 45.3064C75.6108 45.7011 76.0748 45.8984 76.6081 45.8984ZM82.5033 47.4824V35.9624H84.5513V47.4824H82.5033ZM86.6439 47.4824V35.9624H88.6919V47.4824H86.6439ZM94.6405 47.6744C93.8405 47.6744 93.1312 47.5038 92.5125 47.1624C91.8938 46.8211 91.4085 46.3411 91.0565 45.7224C90.7045 45.1038 90.5285 44.3891 90.5285 43.5784C90.5285 42.7571 90.6992 42.0264 91.0405 41.3864C91.3925 40.7464 91.8725 40.2504 92.4805 39.8984C93.0992 39.5358 93.8245 39.3544 94.6565 39.3544C95.4352 39.3544 96.1232 39.5251 96.7205 39.8664C97.3178 40.2078 97.7818 40.6771 98.1125 41.2744C98.4538 41.8611 98.6245 42.5171 98.6245 43.2424C98.6245 43.3598 98.6192 43.4824 98.6085 43.6104C98.6085 43.7384 98.6032 43.8718 98.5925 44.0104H92.5605C92.6032 44.6291 92.8165 45.1144 93.2005 45.4664C93.5952 45.8184 94.0698 45.9944 94.6245 45.9944C95.0405 45.9944 95.3872 45.9038 95.6645 45.7224C95.9525 45.5304 96.1658 45.2851 96.3045 44.9864H98.3845C98.2352 45.4878 97.9845 45.9464 97.6325 46.3624C97.2912 46.7678 96.8645 47.0878 96.3525 47.3224C95.8512 47.5571 95.2805 47.6744 94.6405 47.6744ZM94.6565 41.0184C94.1552 41.0184 93.7125 41.1624 93.3285 41.4504C92.9445 41.7278 92.6992 42.1544 92.5925 42.7304H96.5445C96.5125 42.2078 96.3205 41.7918 95.9685 41.4824C95.6165 41.1731 95.1792 41.0184 94.6565 41.0184ZM104.235 47.6744C103.424 47.6744 102.71 47.4984 102.091 47.1464C101.472 46.7944 100.982 46.3038 100.619 45.6744C100.267 45.0451 100.091 44.3251 100.091 43.5144C100.091 42.7038 100.267 41.9838 100.619 41.3544C100.982 40.7251 101.472 40.2344 102.091 39.8824C102.71 39.5304 103.424 39.3544 104.235 39.3544C105.248 39.3544 106.102 39.6211 106.795 40.1544C107.488 40.6771 107.931 41.4024 108.123 42.3304H105.963C105.856 41.9464 105.643 41.6478 105.323 41.4344C105.014 41.2104 104.646 41.0984 104.219 41.0984C103.654 41.0984 103.174 41.3118 102.779 41.7384C102.384 42.1651 102.187 42.7571 102.187 43.5144C102.187 44.2718 102.384 44.8638 102.779 45.2904C103.174 45.7171 103.654 45.9304 104.219 45.9304C104.646 45.9304 105.014 45.8238 105.323 45.6104C105.643 45.3971 105.856 45.0931 105.963 44.6984H108.123C107.931 45.5944 107.488 46.3144 106.795 46.8584C106.102 47.4024 105.248 47.6744 104.235 47.6744ZM113.367 47.4824C112.535 47.4824 111.869 47.2798 111.367 46.8744C110.866 46.4691 110.615 45.7491 110.615 44.7144V41.2584H109.255V39.5464H110.615L110.855 37.4184H112.663V39.5464H114.807V41.2584H112.663V44.7304C112.663 45.1144 112.743 45.3811 112.903 45.5304C113.074 45.6691 113.362 45.7384 113.767 45.7384H114.759V47.4824H113.367Z" fill="#26262B"/>
<defs>
<filter id="filter0_d_480_10120" x="0.963257" y="0.482422" width="320" height="144" filterUnits="userSpaceOnUse" color-interpolation-filters="sRGB">
<feFlood flood-opacity="0" result="BackgroundImageFix"/>
<feColorMatrix in="SourceAlpha" type="matrix" values="0 0 0 0 0 0 0 0 0 0 0 0 0 0 0 0 0 0 127 0" result="hardAlpha"/>
<feOffset/>
<feGaussianBlur stdDeviation="10"/>
<feComposite in2="hardAlpha" operator="out"/>
<feColorMatrix type="matrix" values="0 0 0 0 0.847059 0 0 0 0 0.847059 0 0 0 0 0.85098 0 0 0 0.2 0"/>
<feBlend mode="normal" in2="BackgroundImageFix" result="effect1_dropShadow_480_10120"/>
<feBlend mode="normal" in="SourceGraphic" in2="effect1_dropShadow_480_10120" result="shape"/>
</filter>
</defs>
</svg>
