<svg width="321" height="145" viewBox="0 0 321 145" fill="none" xmlns="http://www.w3.org/2000/svg">
<g filter="url(#filter0_d_480_10136)">
<rect x="20.9633" y="20.4824" width="280" height="104" rx="10" fill="white"/>
<rect x="21.4633" y="20.9824" width="279" height="103" rx="9.5" stroke="#C4C4C4"/>
</g>
<path d="M31.9993 79.4824V69.6824H38.0613V70.6484H33.1753V74.0644H37.6413V75.0164H33.1753V78.5164H38.0613V79.4824H31.9993ZM42.1416 79.6504C41.5629 79.6504 41.0823 79.5524 40.6996 79.3564C40.3169 79.1604 40.0323 78.8991 39.8456 78.5724C39.6589 78.2458 39.5656 77.8911 39.5656 77.5084C39.5656 76.7991 39.8363 76.2531 40.3776 75.8704C40.9189 75.4878 41.6563 75.2964 42.5896 75.2964H44.4656V75.2124C44.4656 74.6058 44.3069 74.1484 43.9896 73.8404C43.6723 73.5231 43.2476 73.3644 42.7156 73.3644C42.2583 73.3644 41.8616 73.4811 41.5256 73.7144C41.1989 73.9384 40.9936 74.2698 40.9096 74.7084H39.7056C39.7523 74.2044 39.9203 73.7798 40.2096 73.4344C40.5083 73.0891 40.8769 72.8278 41.3156 72.6504C41.7543 72.4638 42.2209 72.3704 42.7156 72.3704C43.6863 72.3704 44.4143 72.6318 44.8996 73.1544C45.3943 73.6678 45.6416 74.3538 45.6416 75.2124V79.4824H44.5916L44.5216 78.2364C44.3256 78.6284 44.0363 78.9644 43.6536 79.2444C43.2803 79.5151 42.7763 79.6504 42.1416 79.6504ZM42.3236 78.6564C42.7716 78.6564 43.1543 78.5398 43.4716 78.3064C43.7983 78.0731 44.0456 77.7698 44.2136 77.3964C44.3816 77.0231 44.4656 76.6311 44.4656 76.2204V76.2064H42.6876C41.9969 76.2064 41.5069 76.3278 41.2176 76.5704C40.9376 76.8038 40.7976 77.0978 40.7976 77.4524C40.7976 77.8164 40.9283 78.1104 41.1896 78.3344C41.4603 78.5491 41.8383 78.6564 42.3236 78.6564ZM50.0658 79.6504C49.2352 79.6504 48.5445 79.4404 47.9938 79.0204C47.4432 78.6004 47.1212 78.0311 47.0278 77.3124H48.2318C48.3065 77.6764 48.4978 77.9938 48.8058 78.2644C49.1232 78.5258 49.5478 78.6564 50.0798 78.6564C50.5745 78.6564 50.9385 78.5538 51.1718 78.3484C51.4052 78.1338 51.5218 77.8818 51.5218 77.5924C51.5218 77.1724 51.3678 76.8924 51.0598 76.7524C50.7612 76.6124 50.3365 76.4864 49.7858 76.3744C49.4125 76.2998 49.0392 76.1924 48.6658 76.0524C48.2925 75.9124 47.9798 75.7164 47.7278 75.4644C47.4758 75.2031 47.3498 74.8624 47.3498 74.4424C47.3498 73.8358 47.5738 73.3411 48.0218 72.9584C48.4792 72.5664 49.0952 72.3704 49.8698 72.3704C50.6072 72.3704 51.2092 72.5571 51.6758 72.9304C52.1518 73.2944 52.4272 73.8171 52.5018 74.4984H51.3398C51.2932 74.1438 51.1392 73.8684 50.8778 73.6724C50.6258 73.4671 50.2852 73.3644 49.8558 73.3644C49.4358 73.3644 49.1092 73.4531 48.8758 73.6304C48.6518 73.8078 48.5398 74.0411 48.5398 74.3304C48.5398 74.6104 48.6845 74.8298 48.9738 74.9884C49.2725 75.1471 49.6738 75.2824 50.1778 75.3944C50.6072 75.4878 51.0132 75.6044 51.3958 75.7444C51.7878 75.8751 52.1052 76.0758 52.3478 76.3464C52.5998 76.6078 52.7258 76.9904 52.7258 77.4944C52.7352 78.1198 52.4972 78.6378 52.0118 79.0484C51.5358 79.4498 50.8872 79.6504 50.0658 79.6504ZM55.1198 70.9984C54.8865 70.9984 54.6905 70.9238 54.5318 70.7744C54.3825 70.6158 54.3078 70.4198 54.3078 70.1864C54.3078 69.9624 54.3825 69.7758 54.5318 69.6264C54.6905 69.4771 54.8865 69.4024 55.1198 69.4024C55.3438 69.4024 55.5352 69.4771 55.6938 69.6264C55.8525 69.7758 55.9318 69.9624 55.9318 70.1864C55.9318 70.4198 55.8525 70.6158 55.6938 70.7744C55.5352 70.9238 55.3438 70.9984 55.1198 70.9984ZM54.5318 79.4824V72.5384H55.7078V79.4824H54.5318ZM57.7554 79.4824V69.4024H58.9314V79.4824H57.7554ZM61.6149 82.5624L63.3369 78.8104H62.9309L60.1729 72.5384H61.4469L63.7429 77.9424L66.1789 72.5384H67.3969L62.8469 82.5624H61.6149ZM75.0873 79.4824C74.4527 79.4824 73.9533 79.3284 73.5893 79.0204C73.2253 78.7124 73.0433 78.1571 73.0433 77.3544V73.5324H71.8393V72.5384H73.0433L73.1973 70.8724H74.2193V72.5384H76.2633V73.5324H74.2193V77.3544C74.2193 77.7931 74.308 78.0918 74.4853 78.2504C74.6627 78.3998 74.9753 78.4744 75.4233 78.4744H76.1513V79.4824H75.0873ZM80.2914 79.6504C79.47 79.6504 78.8167 79.4031 78.3314 78.9084C77.846 78.4044 77.6034 77.6344 77.6034 76.5984V72.5384H78.7794V76.4724C78.7794 77.9191 79.372 78.6424 80.5574 78.6424C81.164 78.6424 81.6634 78.4278 82.0554 77.9984C82.4567 77.5598 82.6574 76.9391 82.6574 76.1364V72.5384H83.8334V79.4824H82.7694L82.6854 78.2364C82.4707 78.6751 82.1487 79.0204 81.7194 79.2724C81.2994 79.5244 80.8234 79.6504 80.2914 79.6504ZM85.7691 79.4824V72.5384H86.8331L86.9311 73.8684C87.1458 73.4111 87.4724 73.0471 87.9111 72.7764C88.3498 72.5058 88.8911 72.3704 89.5351 72.3704V73.6024H89.2131C88.8024 73.6024 88.4244 73.6771 88.0791 73.8264C87.7338 73.9664 87.4584 74.2091 87.2531 74.5544C87.0478 74.8998 86.9451 75.3758 86.9451 75.9824V79.4824H85.7691ZM90.855 79.4824V72.5384H91.919L91.989 73.7844C92.213 73.3458 92.535 73.0004 92.955 72.7484C93.375 72.4964 93.851 72.3704 94.383 72.3704C95.2044 72.3704 95.8577 72.6224 96.343 73.1264C96.8377 73.6211 97.085 74.3864 97.085 75.4224V79.4824H95.909V75.5484C95.909 74.1018 95.3117 73.3784 94.117 73.3784C93.5197 73.3784 93.0204 73.5978 92.619 74.0364C92.227 74.4658 92.031 75.0818 92.031 75.8844V79.4824H90.855ZM103.286 70.9984C103.053 70.9984 102.857 70.9238 102.698 70.7744C102.549 70.6158 102.474 70.4198 102.474 70.1864C102.474 69.9624 102.549 69.7758 102.698 69.6264C102.857 69.4771 103.053 69.4024 103.286 69.4024C103.51 69.4024 103.701 69.4771 103.86 69.6264C104.019 69.7758 104.098 69.9624 104.098 70.1864C104.098 70.4198 104.019 70.6158 103.86 70.7744C103.701 70.9238 103.51 70.9984 103.286 70.9984ZM102.698 79.4824V72.5384H103.874V79.4824H102.698ZM105.921 79.4824V72.5384H106.985L107.055 73.7844C107.279 73.3458 107.601 73.0004 108.021 72.7484C108.441 72.4964 108.917 72.3704 109.449 72.3704C110.271 72.3704 110.924 72.6224 111.409 73.1264C111.904 73.6211 112.151 74.3864 112.151 75.4224V79.4824H110.975V75.5484C110.975 74.1018 110.378 73.3784 109.183 73.3784C108.586 73.3784 108.087 73.5978 107.685 74.0364C107.293 74.4658 107.097 75.0818 107.097 75.8844V79.4824H105.921ZM116.593 79.6504C115.762 79.6504 115.072 79.4404 114.521 79.0204C113.97 78.6004 113.648 78.0311 113.555 77.3124H114.759C114.834 77.6764 115.025 77.9938 115.333 78.2644C115.65 78.5258 116.075 78.6564 116.607 78.6564C117.102 78.6564 117.466 78.5538 117.699 78.3484C117.932 78.1338 118.049 77.8818 118.049 77.5924C118.049 77.1724 117.895 76.8924 117.587 76.7524C117.288 76.6124 116.864 76.4864 116.313 76.3744C115.94 76.2998 115.566 76.1924 115.193 76.0524C114.82 75.9124 114.507 75.7164 114.255 75.4644C114.003 75.2031 113.877 74.8624 113.877 74.4424C113.877 73.8358 114.101 73.3411 114.549 72.9584C115.006 72.5664 115.622 72.3704 116.397 72.3704C117.134 72.3704 117.736 72.5571 118.203 72.9304C118.679 73.2944 118.954 73.8171 119.029 74.4984H117.867C117.82 74.1438 117.666 73.8684 117.405 73.6724C117.153 73.4671 116.812 73.3644 116.383 73.3644C115.963 73.3644 115.636 73.4531 115.403 73.6304C115.179 73.8078 115.067 74.0411 115.067 74.3304C115.067 74.6104 115.212 74.8298 115.501 74.9884C115.8 75.1471 116.201 75.2824 116.705 75.3944C117.134 75.4878 117.54 75.6044 117.923 75.7444C118.315 75.8751 118.632 76.0758 118.875 76.3464C119.127 76.6078 119.253 76.9904 119.253 77.4944C119.262 78.1198 119.024 78.6378 118.539 79.0484C118.063 79.4498 117.414 79.6504 116.593 79.6504ZM121.647 70.9984C121.414 70.9984 121.218 70.9238 121.059 70.7744C120.91 70.6158 120.835 70.4198 120.835 70.1864C120.835 69.9624 120.91 69.7758 121.059 69.6264C121.218 69.4771 121.414 69.4024 121.647 69.4024C121.871 69.4024 122.062 69.4771 122.221 69.6264C122.38 69.7758 122.459 69.9624 122.459 70.1864C122.459 70.4198 122.38 70.6158 122.221 70.7744C122.062 70.9238 121.871 70.9984 121.647 70.9984ZM121.059 79.4824V72.5384H122.235V79.4824H121.059ZM127.027 77.2984C126.635 77.2984 126.275 77.2471 125.949 77.1444L125.249 77.8024C125.351 77.8771 125.477 77.9424 125.627 77.9984C125.785 78.0451 126.009 78.0918 126.299 78.1384C126.588 78.1758 126.994 78.2178 127.517 78.2644C128.45 78.3298 129.117 78.5444 129.519 78.9084C129.92 79.2724 130.121 79.7484 130.121 80.3364C130.121 80.7378 130.009 81.1204 129.785 81.4844C129.57 81.8484 129.234 82.1471 128.777 82.3804C128.329 82.6138 127.75 82.7304 127.041 82.7304C126.415 82.7304 125.86 82.6464 125.375 82.4784C124.889 82.3198 124.511 82.0724 124.241 81.7364C123.97 81.4098 123.835 80.9944 123.835 80.4904C123.835 80.2291 123.905 79.9444 124.045 79.6364C124.185 79.3378 124.446 79.0531 124.829 78.7824C124.623 78.6984 124.446 78.6098 124.297 78.5164C124.157 78.4138 124.026 78.3018 123.905 78.1804V77.8584L125.095 76.6824C124.544 76.2158 124.269 75.5998 124.269 74.8344C124.269 74.3771 124.376 73.9618 124.591 73.5884C124.805 73.2151 125.118 72.9211 125.529 72.7064C125.939 72.4824 126.439 72.3704 127.027 72.3704C127.428 72.3704 127.792 72.4264 128.119 72.5384H130.681V73.4204L129.379 73.4764C129.649 73.8684 129.785 74.3211 129.785 74.8344C129.785 75.2918 129.673 75.7071 129.449 76.0804C129.234 76.4538 128.921 76.7524 128.511 76.9764C128.109 77.1911 127.615 77.2984 127.027 77.2984ZM127.027 76.3324C127.521 76.3324 127.913 76.2064 128.203 75.9544C128.501 75.6931 128.651 75.3198 128.651 74.8344C128.651 74.3584 128.501 73.9944 128.203 73.7424C127.913 73.4811 127.521 73.3504 127.027 73.3504C126.523 73.3504 126.121 73.4811 125.823 73.7424C125.533 73.9944 125.389 74.3584 125.389 74.8344C125.389 75.3198 125.533 75.6931 125.823 75.9544C126.121 76.2064 126.523 76.3324 127.027 76.3324ZM124.983 80.3784C124.983 80.8451 125.179 81.1904 125.571 81.4144C125.963 81.6478 126.453 81.7644 127.041 81.7644C127.619 81.7644 128.081 81.6384 128.427 81.3864C128.781 81.1344 128.959 80.7984 128.959 80.3784C128.959 80.0798 128.837 79.8184 128.595 79.5944C128.352 79.3798 127.904 79.2538 127.251 79.2164C126.737 79.1791 126.294 79.1324 125.921 79.0764C125.538 79.2818 125.286 79.5011 125.165 79.7344C125.043 79.9771 124.983 80.1918 124.983 80.3784ZM132.007 79.4824V69.4024H133.183V73.7284C133.417 73.2991 133.748 72.9678 134.177 72.7344C134.607 72.4918 135.073 72.3704 135.577 72.3704C136.38 72.3704 137.024 72.6224 137.509 73.1264C137.995 73.6211 138.237 74.3864 138.237 75.4224V79.4824H137.075V75.5484C137.075 74.1018 136.492 73.3784 135.325 73.3784C134.719 73.3784 134.21 73.5978 133.799 74.0364C133.389 74.4658 133.183 75.0818 133.183 75.8844V79.4824H132.007ZM142.763 79.4824C142.128 79.4824 141.629 79.3284 141.265 79.0204C140.901 78.7124 140.719 78.1571 140.719 77.3544V73.5324H139.515V72.5384H140.719L140.873 70.8724H141.895V72.5384H143.939V73.5324H141.895V77.3544C141.895 77.7931 141.984 78.0918 142.161 78.2504C142.338 78.3998 142.651 78.4744 143.099 78.4744H143.827V79.4824H142.763ZM148.093 79.6504C147.262 79.6504 146.572 79.4404 146.021 79.0204C145.47 78.6004 145.148 78.0311 145.055 77.3124H146.259C146.334 77.6764 146.525 77.9938 146.833 78.2644C147.15 78.5258 147.575 78.6564 148.107 78.6564C148.602 78.6564 148.966 78.5538 149.199 78.3484C149.432 78.1338 149.549 77.8818 149.549 77.5924C149.549 77.1724 149.395 76.8924 149.087 76.7524C148.788 76.6124 148.364 76.4864 147.813 76.3744C147.44 76.2998 147.066 76.1924 146.693 76.0524C146.32 75.9124 146.007 75.7164 145.755 75.4644C145.503 75.2031 145.377 74.8624 145.377 74.4424C145.377 73.8358 145.601 73.3411 146.049 72.9584C146.506 72.5664 147.122 72.3704 147.897 72.3704C148.634 72.3704 149.236 72.5571 149.703 72.9304C150.179 73.2944 150.454 73.8171 150.529 74.4984H149.367C149.32 74.1438 149.166 73.8684 148.905 73.6724C148.653 73.4671 148.312 73.3644 147.883 73.3644C147.463 73.3644 147.136 73.4531 146.903 73.6304C146.679 73.8078 146.567 74.0411 146.567 74.3304C146.567 74.6104 146.712 74.8298 147.001 74.9884C147.3 75.1471 147.701 75.2824 148.205 75.3944C148.634 75.4878 149.04 75.6044 149.423 75.7444C149.815 75.8751 150.132 76.0758 150.375 76.3464C150.627 76.6078 150.753 76.9904 150.753 77.4944C150.762 78.1198 150.524 78.6378 150.039 79.0484C149.563 79.4498 148.914 79.6504 148.093 79.6504ZM156.852 70.9984C156.619 70.9984 156.423 70.9238 156.264 70.7744C156.115 70.6158 156.04 70.4198 156.04 70.1864C156.04 69.9624 156.115 69.7758 156.264 69.6264C156.423 69.4771 156.619 69.4024 156.852 69.4024C157.076 69.4024 157.268 69.4771 157.426 69.6264C157.585 69.7758 157.664 69.9624 157.664 70.1864C157.664 70.4198 157.585 70.6158 157.426 70.7744C157.268 70.9238 157.076 70.9984 156.852 70.9984ZM156.264 79.4824V72.5384H157.44V79.4824H156.264ZM159.488 79.4824V72.5384H160.552L160.622 73.7844C160.846 73.3458 161.168 73.0004 161.588 72.7484C162.008 72.4964 162.484 72.3704 163.016 72.3704C163.837 72.3704 164.491 72.6224 164.976 73.1264C165.471 73.6211 165.718 74.3864 165.718 75.4224V79.4824H164.542V75.5484C164.542 74.1018 163.945 73.3784 162.75 73.3784C162.153 73.3784 161.653 73.5978 161.252 74.0364C160.86 74.4658 160.664 75.0818 160.664 75.8844V79.4824H159.488ZM170.244 79.4824C169.609 79.4824 169.11 79.3284 168.746 79.0204C168.382 78.7124 168.2 78.1571 168.2 77.3544V73.5324H166.996V72.5384H168.2L168.354 70.8724H169.376V72.5384H171.42V73.5324H169.376V77.3544C169.376 77.7931 169.464 78.0918 169.642 78.2504C169.819 78.3998 170.132 78.4744 170.58 78.4744H171.308V79.4824H170.244ZM175.886 79.6504C175.233 79.6504 174.645 79.5011 174.122 79.2024C173.6 78.9038 173.184 78.4838 172.876 77.9424C172.578 77.3918 172.428 76.7478 172.428 76.0104C172.428 75.2731 172.582 74.6338 172.89 74.0924C173.198 73.5418 173.614 73.1171 174.136 72.8184C174.668 72.5198 175.261 72.3704 175.914 72.3704C176.568 72.3704 177.156 72.5198 177.678 72.8184C178.201 73.1171 178.612 73.5418 178.91 74.0924C179.218 74.6338 179.372 75.2731 179.372 76.0104C179.372 76.7478 179.218 77.3918 178.91 77.9424C178.602 78.4838 178.182 78.9038 177.65 79.2024C177.128 79.5011 176.54 79.6504 175.886 79.6504ZM175.886 78.6424C176.288 78.6424 176.661 78.5444 177.006 78.3484C177.352 78.1524 177.632 77.8584 177.846 77.4664C178.061 77.0744 178.168 76.5891 178.168 76.0104C178.168 75.4318 178.061 74.9464 177.846 74.5544C177.641 74.1624 177.366 73.8684 177.02 73.6724C176.675 73.4764 176.306 73.3784 175.914 73.3784C175.513 73.3784 175.14 73.4764 174.794 73.6724C174.449 73.8684 174.169 74.1624 173.954 74.5544C173.74 74.9464 173.632 75.4318 173.632 76.0104C173.632 76.5891 173.74 77.0744 173.954 77.4664C174.169 77.8584 174.444 78.1524 174.78 78.3484C175.126 78.5444 175.494 78.6424 175.886 78.6424ZM185.09 79.4824V73.5324H184.04V72.5384H185.09V71.3344C185.09 70.6624 185.258 70.1724 185.594 69.8644C185.93 69.5564 186.42 69.4024 187.064 69.4024H187.764V70.4104H187.246C186.892 70.4104 186.64 70.4851 186.49 70.6344C186.341 70.7744 186.266 71.0171 186.266 71.3624V72.5384H187.974V73.5324H186.266V79.4824H185.09ZM192.223 79.6504C191.56 79.6504 190.972 79.5011 190.459 79.2024C189.946 78.8944 189.54 78.4698 189.241 77.9284C188.952 77.3871 188.807 76.7478 188.807 76.0104C188.807 75.2824 188.952 74.6478 189.241 74.1064C189.53 73.5558 189.932 73.1311 190.445 72.8324C190.968 72.5244 191.57 72.3704 192.251 72.3704C192.923 72.3704 193.502 72.5244 193.987 72.8324C194.482 73.1311 194.86 73.5278 195.121 74.0224C195.382 74.5171 195.513 75.0491 195.513 75.6184C195.513 75.7211 195.508 75.8238 195.499 75.9264C195.499 76.0291 195.499 76.1458 195.499 76.2764H189.969C189.997 76.8084 190.118 77.2518 190.333 77.6064C190.557 77.9518 190.832 78.2131 191.159 78.3904C191.495 78.5678 191.85 78.6564 192.223 78.6564C192.708 78.6564 193.114 78.5444 193.441 78.3204C193.768 78.0964 194.006 77.7931 194.155 77.4104H195.317C195.13 78.0544 194.771 78.5911 194.239 79.0204C193.716 79.4404 193.044 79.6504 192.223 79.6504ZM192.223 73.3644C191.663 73.3644 191.164 73.5371 190.725 73.8824C190.296 74.2184 190.048 74.7131 189.983 75.3664H194.351C194.323 74.7411 194.108 74.2511 193.707 73.8964C193.306 73.5418 192.811 73.3644 192.223 73.3644ZM199.382 79.6504C198.803 79.6504 198.323 79.5524 197.94 79.3564C197.557 79.1604 197.273 78.8991 197.086 78.5724C196.899 78.2458 196.806 77.8911 196.806 77.5084C196.806 76.7991 197.077 76.2531 197.618 75.8704C198.159 75.4878 198.897 75.2964 199.83 75.2964H201.706V75.2124C201.706 74.6058 201.547 74.1484 201.23 73.8404C200.913 73.5231 200.488 73.3644 199.956 73.3644C199.499 73.3644 199.102 73.4811 198.766 73.7144C198.439 73.9384 198.234 74.2698 198.15 74.7084H196.946C196.993 74.2044 197.161 73.7798 197.45 73.4344C197.749 73.0891 198.117 72.8278 198.556 72.6504C198.995 72.4638 199.461 72.3704 199.956 72.3704C200.927 72.3704 201.655 72.6318 202.14 73.1544C202.635 73.6678 202.882 74.3538 202.882 75.2124V79.4824H201.832L201.762 78.2364C201.566 78.6284 201.277 78.9644 200.894 79.2444C200.521 79.5151 200.017 79.6504 199.382 79.6504ZM199.564 78.6564C200.012 78.6564 200.395 78.5398 200.712 78.3064C201.039 78.0731 201.286 77.7698 201.454 77.3964C201.622 77.0231 201.706 76.6311 201.706 76.2204V76.2064H199.928C199.237 76.2064 198.747 76.3278 198.458 76.5704C198.178 76.8038 198.038 77.0978 198.038 77.4524C198.038 77.8164 198.169 78.1104 198.43 78.3344C198.701 78.5491 199.079 78.6564 199.564 78.6564ZM207.199 79.4824C206.564 79.4824 206.065 79.3284 205.701 79.0204C205.337 78.7124 205.155 78.1571 205.155 77.3544V73.5324H203.951V72.5384H205.155L205.309 70.8724H206.331V72.5384H208.375V73.5324H206.331V77.3544C206.331 77.7931 206.419 78.0918 206.597 78.2504C206.774 78.3998 207.087 78.4744 207.535 78.4744H208.263V79.4824H207.199ZM212.403 79.6504C211.581 79.6504 210.928 79.4031 210.443 78.9084C209.957 78.4044 209.715 77.6344 209.715 76.5984V72.5384H210.891V76.4724C210.891 77.9191 211.483 78.6424 212.669 78.6424C213.275 78.6424 213.775 78.4278 214.167 77.9984C214.568 77.5598 214.769 76.9391 214.769 76.1364V72.5384H215.945V79.4824H214.881L214.797 78.2364C214.582 78.6751 214.26 79.0204 213.831 79.2724C213.411 79.5244 212.935 79.6504 212.403 79.6504ZM217.88 79.4824V72.5384H218.944L219.042 73.8684C219.257 73.4111 219.584 73.0471 220.022 72.7764C220.461 72.5058 221.002 72.3704 221.646 72.3704V73.6024H221.324C220.914 73.6024 220.536 73.6771 220.19 73.8264C219.845 73.9664 219.57 74.2091 219.364 74.5544C219.159 74.8998 219.056 75.3758 219.056 75.9824V79.4824H217.88ZM225.829 79.6504C225.166 79.6504 224.578 79.5011 224.065 79.2024C223.551 78.8944 223.145 78.4698 222.847 77.9284C222.557 77.3871 222.413 76.7478 222.413 76.0104C222.413 75.2824 222.557 74.6478 222.847 74.1064C223.136 73.5558 223.537 73.1311 224.051 72.8324C224.573 72.5244 225.175 72.3704 225.857 72.3704C226.529 72.3704 227.107 72.5244 227.593 72.8324C228.087 73.1311 228.465 73.5278 228.727 74.0224C228.988 74.5171 229.119 75.0491 229.119 75.6184C229.119 75.7211 229.114 75.8238 229.105 75.9264C229.105 76.0291 229.105 76.1458 229.105 76.2764H223.575C223.603 76.8084 223.724 77.2518 223.939 77.6064C224.163 77.9518 224.438 78.2131 224.765 78.3904C225.101 78.5678 225.455 78.6564 225.829 78.6564C226.314 78.6564 226.72 78.5444 227.047 78.3204C227.373 78.0964 227.611 77.7931 227.761 77.4104H228.923C228.736 78.0544 228.377 78.5911 227.845 79.0204C227.322 79.4404 226.65 79.6504 225.829 79.6504ZM225.829 73.3644C225.269 73.3644 224.769 73.5371 224.331 73.8824C223.901 74.2184 223.654 74.7131 223.589 75.3664H227.957C227.929 74.7411 227.714 74.2511 227.313 73.8964C226.911 73.5418 226.417 73.3644 225.829 73.3644ZM233.337 79.6504C232.507 79.6504 231.816 79.4404 231.265 79.0204C230.715 78.6004 230.393 78.0311 230.299 77.3124H231.503C231.578 77.6764 231.769 77.9938 232.077 78.2644C232.395 78.5258 232.819 78.6564 233.351 78.6564C233.846 78.6564 234.21 78.5538 234.443 78.3484C234.677 78.1338 234.793 77.8818 234.793 77.5924C234.793 77.1724 234.639 76.8924 234.331 76.7524C234.033 76.6124 233.608 76.4864 233.057 76.3744C232.684 76.2998 232.311 76.1924 231.937 76.0524C231.564 75.9124 231.251 75.7164 230.999 75.4644C230.747 75.2031 230.621 74.8624 230.621 74.4424C230.621 73.8358 230.845 73.3411 231.293 72.9584C231.751 72.5664 232.367 72.3704 233.141 72.3704C233.879 72.3704 234.481 72.5571 234.947 72.9304C235.423 73.2944 235.699 73.8171 235.773 74.4984H234.611C234.565 74.1438 234.411 73.8684 234.149 73.6724C233.897 73.4671 233.557 73.3644 233.127 73.3644C232.707 73.3644 232.381 73.4531 232.147 73.6304C231.923 73.8078 231.811 74.0411 231.811 74.3304C231.811 74.6104 231.956 74.8298 232.245 74.9884C232.544 75.1471 232.945 75.2824 233.449 75.3944C233.879 75.4878 234.285 75.6044 234.667 75.7444C235.059 75.8751 235.377 76.0758 235.619 76.3464C235.871 76.6078 235.997 76.9904 235.997 77.4944C236.007 78.1198 235.769 78.6378 235.283 79.0484C234.807 79.4498 234.159 79.6504 233.337 79.6504ZM243.692 79.6504C243.114 79.6504 242.633 79.5524 242.25 79.3564C241.868 79.1604 241.583 78.8991 241.396 78.5724C241.21 78.2458 241.116 77.8911 241.116 77.5084C241.116 76.7991 241.387 76.2531 241.928 75.8704C242.47 75.4878 243.207 75.2964 244.14 75.2964H246.016V75.2124C246.016 74.6058 245.858 74.1484 245.54 73.8404C245.223 73.5231 244.798 73.3644 244.266 73.3644C243.809 73.3644 243.412 73.4811 243.076 73.7144C242.75 73.9384 242.544 74.2698 242.46 74.7084H241.256C241.303 74.2044 241.471 73.7798 241.76 73.4344C242.059 73.0891 242.428 72.8278 242.866 72.6504C243.305 72.4638 243.772 72.3704 244.266 72.3704C245.237 72.3704 245.965 72.6318 246.45 73.1544C246.945 73.6678 247.192 74.3538 247.192 75.2124V79.4824H246.142L246.072 78.2364C245.876 78.6284 245.587 78.9644 245.204 79.2444C244.831 79.5151 244.327 79.6504 243.692 79.6504ZM243.874 78.6564C244.322 78.6564 244.705 78.5398 245.022 78.3064C245.349 78.0731 245.596 77.7698 245.764 77.3964C245.932 77.0231 246.016 76.6311 246.016 76.2204V76.2064H244.238C243.548 76.2064 243.058 76.3278 242.768 76.5704C242.488 76.8038 242.348 77.0978 242.348 77.4524C242.348 77.8164 242.479 78.1104 242.74 78.3344C243.011 78.5491 243.389 78.6564 243.874 78.6564ZM248.957 79.4824V72.5384H250.021L250.091 73.7844C250.315 73.3458 250.637 73.0004 251.057 72.7484C251.477 72.4964 251.953 72.3704 252.485 72.3704C253.306 72.3704 253.959 72.6224 254.445 73.1264C254.939 73.6211 255.187 74.3864 255.187 75.4224V79.4824H254.011V75.5484C254.011 74.1018 253.413 73.3784 252.219 73.3784C251.621 73.3784 251.122 73.5978 250.721 74.0364C250.329 74.4658 250.133 75.0818 250.133 75.8844V79.4824H248.957ZM260.118 79.6504C259.428 79.6504 258.821 79.4918 258.298 79.1744C257.785 78.8571 257.384 78.4231 257.094 77.8724C256.814 77.3218 256.674 76.6964 256.674 75.9964C256.674 75.2964 256.819 74.6758 257.108 74.1344C257.398 73.5838 257.799 73.1544 258.312 72.8464C258.826 72.5291 259.432 72.3704 260.132 72.3704C260.702 72.3704 261.206 72.4871 261.644 72.7204C262.083 72.9538 262.424 73.2804 262.666 73.7004V69.4024H263.842V79.4824H262.778L262.666 78.3344C262.442 78.6704 262.12 78.9738 261.7 79.2444C261.28 79.5151 260.753 79.6504 260.118 79.6504ZM260.244 78.6284C260.711 78.6284 261.122 78.5211 261.476 78.3064C261.84 78.0824 262.12 77.7744 262.316 77.3824C262.522 76.9904 262.624 76.5331 262.624 76.0104C262.624 75.4878 262.522 75.0304 262.316 74.6384C262.12 74.2464 261.84 73.9431 261.476 73.7284C261.122 73.5044 260.711 73.3924 260.244 73.3924C259.787 73.3924 259.376 73.5044 259.012 73.7284C258.658 73.9431 258.378 74.2464 258.172 74.6384C257.976 75.0304 257.878 75.4878 257.878 76.0104C257.878 76.5331 257.976 76.9904 258.172 77.3824C258.378 77.7744 258.658 78.0824 259.012 78.3064C259.376 78.5211 259.787 78.6284 260.244 78.6284ZM35.6393 101.65C35.0699 101.65 34.5613 101.534 34.1133 101.3C33.6746 101.067 33.3386 100.74 33.1053 100.32L32.9933 101.482H31.9293V91.4024H33.1053V95.6864C33.3293 95.3504 33.6466 95.0471 34.0573 94.7764C34.4773 94.5058 35.0093 94.3704 35.6533 94.3704C36.3439 94.3704 36.9459 94.5291 37.4593 94.8464C37.9726 95.1638 38.3693 95.5978 38.6493 96.1484C38.9386 96.6991 39.0833 97.3244 39.0833 98.0244C39.0833 98.7244 38.9386 99.3498 38.6493 99.9004C38.3693 100.442 37.9679 100.871 37.4453 101.188C36.9319 101.496 36.3299 101.65 35.6393 101.65ZM35.5133 100.628C35.9799 100.628 36.3906 100.521 36.7453 100.306C37.0999 100.082 37.3799 99.7744 37.5853 99.3824C37.7906 98.9904 37.8933 98.5331 37.8933 98.0104C37.8933 97.4878 37.7906 97.0304 37.5853 96.6384C37.3799 96.2464 37.0999 95.9431 36.7453 95.7284C36.3906 95.5044 35.9799 95.3924 35.5133 95.3924C35.0466 95.3924 34.6359 95.5044 34.2813 95.7284C33.9266 95.9431 33.6466 96.2464 33.4413 96.6384C33.2359 97.0304 33.1333 97.4878 33.1333 98.0104C33.1333 98.5331 33.2359 98.9904 33.4413 99.3824C33.6466 99.7744 33.9266 100.082 34.2813 100.306C34.6359 100.521 35.0466 100.628 35.5133 100.628ZM43.2543 101.65C42.4329 101.65 41.7796 101.403 41.2943 100.908C40.8089 100.404 40.5663 99.6344 40.5663 98.5984V94.5384H41.7423V98.4724C41.7423 99.9191 42.3349 100.642 43.5203 100.642C44.1269 100.642 44.6263 100.428 45.0183 99.9984C45.4196 99.5598 45.6203 98.9391 45.6203 98.1364V94.5384H46.7963V101.482H45.7323L45.6483 100.236C45.4336 100.675 45.1116 101.02 44.6823 101.272C44.2623 101.524 43.7863 101.65 43.2543 101.65ZM49.446 92.9984C49.2127 92.9984 49.0167 92.9238 48.858 92.7744C48.7087 92.6158 48.634 92.4198 48.634 92.1864C48.634 91.9624 48.7087 91.7758 48.858 91.6264C49.0167 91.4771 49.2127 91.4024 49.446 91.4024C49.67 91.4024 49.8613 91.4771 50.02 91.6264C50.1787 91.7758 50.258 91.9624 50.258 92.1864C50.258 92.4198 50.1787 92.6158 50.02 92.7744C49.8613 92.9238 49.67 92.9984 49.446 92.9984ZM48.858 101.482V94.5384H50.034V101.482H48.858ZM52.0816 101.482V91.4024H53.2576V101.482H52.0816ZM58.3351 101.65C57.6444 101.65 57.0378 101.492 56.5151 101.174C56.0018 100.857 55.6004 100.423 55.3111 99.8724C55.0311 99.3218 54.8911 98.6964 54.8911 97.9964C54.8911 97.2964 55.0358 96.6758 55.3251 96.1344C55.6144 95.5838 56.0158 95.1544 56.5291 94.8464C57.0424 94.5291 57.6491 94.3704 58.3491 94.3704C58.9184 94.3704 59.4224 94.4871 59.8611 94.7204C60.2998 94.9538 60.6404 95.2804 60.8831 95.7004V91.4024H62.0591V101.482H60.9951L60.8831 100.334C60.6591 100.67 60.3371 100.974 59.9171 101.244C59.4971 101.515 58.9698 101.65 58.3351 101.65ZM58.4611 100.628C58.9278 100.628 59.3384 100.521 59.6931 100.306C60.0571 100.082 60.3371 99.7744 60.5331 99.3824C60.7384 98.9904 60.8411 98.5331 60.8411 98.0104C60.8411 97.4878 60.7384 97.0304 60.5331 96.6384C60.3371 96.2464 60.0571 95.9431 59.6931 95.7284C59.3384 95.5044 58.9278 95.3924 58.4611 95.3924C58.0038 95.3924 57.5931 95.5044 57.2291 95.7284C56.8744 95.9431 56.5944 96.2464 56.3891 96.6384C56.1931 97.0304 56.0951 97.4878 56.0951 98.0104C56.0951 98.5331 56.1931 98.9904 56.3891 99.3824C56.5944 99.7744 56.8744 100.082 57.2291 100.306C57.5931 100.521 58.0038 100.628 58.4611 100.628ZM69.0812 101.482L67.0512 94.5384H68.2272L69.6972 99.9844L71.3212 94.5384H72.6512L74.2892 99.9844L75.7452 94.5384H76.9352L74.9052 101.482H73.7012L71.9932 95.7564L70.2852 101.482H69.0812ZM78.9499 92.9984C78.7166 92.9984 78.5206 92.9238 78.3619 92.7744C78.2126 92.6158 78.1379 92.4198 78.1379 92.1864C78.1379 91.9624 78.2126 91.7758 78.3619 91.6264C78.5206 91.4771 78.7166 91.4024 78.9499 91.4024C79.1739 91.4024 79.3652 91.4771 79.5239 91.6264C79.6826 91.7758 79.7619 91.9624 79.7619 92.1864C79.7619 92.4198 79.6826 92.6158 79.5239 92.7744C79.3652 92.9238 79.1739 92.9984 78.9499 92.9984ZM78.3619 101.482V94.5384H79.5379V101.482H78.3619ZM84.3295 101.482C83.6948 101.482 83.1955 101.328 82.8315 101.02C82.4675 100.712 82.2855 100.157 82.2855 99.3544V95.5324H81.0815V94.5384H82.2855L82.4395 92.8724H83.4615V94.5384H85.5055V95.5324H83.4615V99.3544C83.4615 99.7931 83.5502 100.092 83.7275 100.25C83.9048 100.4 84.2175 100.474 84.6655 100.474H85.3935V101.482H84.3295ZM86.9996 101.482V91.4024H88.1756V95.7284C88.4089 95.2991 88.7402 94.9678 89.1696 94.7344C89.5989 94.4918 90.0656 94.3704 90.5696 94.3704C91.3722 94.3704 92.0162 94.6224 92.5016 95.1264C92.9869 95.6211 93.2296 96.3864 93.2296 97.4224V101.482H92.0676V97.5484C92.0676 96.1018 91.4842 95.3784 90.3176 95.3784C89.7109 95.3784 89.2022 95.5978 88.7916 96.0364C88.3809 96.4658 88.1756 97.0818 88.1756 97.8844V101.482H86.9996ZM101.908 101.65C101.246 101.65 100.648 101.501 100.116 101.202C99.5937 100.894 99.1784 100.47 98.8704 99.9284C98.5717 99.3778 98.4224 98.7384 98.4224 98.0104C98.4224 97.2824 98.5717 96.6478 98.8704 96.1064C99.1784 95.5558 99.5937 95.1311 100.116 94.8324C100.648 94.5244 101.246 94.3704 101.908 94.3704C102.73 94.3704 103.42 94.5851 103.98 95.0144C104.55 95.4438 104.909 96.0178 105.058 96.7364H103.854C103.761 96.3071 103.532 95.9758 103.168 95.7424C102.804 95.4998 102.38 95.3784 101.894 95.3784C101.502 95.3784 101.134 95.4764 100.788 95.6724C100.443 95.8684 100.163 96.1624 99.9484 96.5544C99.7337 96.9464 99.6264 97.4318 99.6264 98.0104C99.6264 98.5891 99.7337 99.0744 99.9484 99.4664C100.163 99.8584 100.443 100.157 100.788 100.362C101.134 100.558 101.502 100.656 101.894 100.656C102.38 100.656 102.804 100.54 103.168 100.306C103.532 100.064 103.761 99.7231 103.854 99.2844H105.058C104.918 99.9844 104.564 100.554 103.994 100.992C103.425 101.431 102.73 101.65 101.908 101.65ZM109.865 101.65C109.211 101.65 108.623 101.501 108.101 101.202C107.578 100.904 107.163 100.484 106.855 99.9424C106.556 99.3918 106.407 98.7478 106.407 98.0104C106.407 97.2731 106.561 96.6338 106.869 96.0924C107.177 95.5418 107.592 95.1171 108.115 94.8184C108.647 94.5198 109.239 94.3704 109.893 94.3704C110.546 94.3704 111.134 94.5198 111.657 94.8184C112.179 95.1171 112.59 95.5418 112.889 96.0924C113.197 96.6338 113.351 97.2731 113.351 98.0104C113.351 98.7478 113.197 99.3918 112.889 99.9424C112.581 100.484 112.161 100.904 111.629 101.202C111.106 101.501 110.518 101.65 109.865 101.65ZM109.865 100.642C110.266 100.642 110.639 100.544 110.985 100.348C111.33 100.152 111.61 99.8584 111.825 99.4664C112.039 99.0744 112.147 98.5891 112.147 98.0104C112.147 97.4318 112.039 96.9464 111.825 96.5544C111.619 96.1624 111.344 95.8684 110.999 95.6724C110.653 95.4764 110.285 95.3784 109.893 95.3784C109.491 95.3784 109.118 95.4764 108.773 95.6724C108.427 95.8684 108.147 96.1624 107.933 96.5544C107.718 96.9464 107.611 97.4318 107.611 98.0104C107.611 98.5891 107.718 99.0744 107.933 99.4664C108.147 99.8584 108.423 100.152 108.759 100.348C109.104 100.544 109.473 100.642 109.865 100.642ZM114.986 101.482V94.5384H116.05L116.12 95.7844C116.344 95.3458 116.666 95.0004 117.086 94.7484C117.506 94.4964 117.982 94.3704 118.514 94.3704C119.335 94.3704 119.989 94.6224 120.474 95.1264C120.969 95.6211 121.216 96.3864 121.216 97.4224V101.482H120.04V97.5484C120.04 96.1018 119.443 95.3784 118.248 95.3784C117.651 95.3784 117.151 95.5978 116.75 96.0364C116.358 96.4658 116.162 97.0818 116.162 97.8844V101.482H114.986ZM124.863 101.482L122.231 94.5384H123.463L125.549 100.348L127.649 94.5384H128.853L126.221 101.482H124.863ZM130.876 92.9984C130.642 92.9984 130.446 92.9238 130.288 92.7744C130.138 92.6158 130.064 92.4198 130.064 92.1864C130.064 91.9624 130.138 91.7758 130.288 91.6264C130.446 91.4771 130.642 91.4024 130.876 91.4024C131.1 91.4024 131.291 91.4771 131.45 91.6264C131.608 91.7758 131.688 91.9624 131.688 92.1864C131.688 92.4198 131.608 92.6158 131.45 92.7744C131.291 92.9238 131.1 92.9984 130.876 92.9984ZM130.288 101.482V94.5384H131.464V101.482H130.288ZM136.703 101.65C136.041 101.65 135.443 101.501 134.911 101.202C134.389 100.894 133.973 100.47 133.665 99.9284C133.367 99.3778 133.217 98.7384 133.217 98.0104C133.217 97.2824 133.367 96.6478 133.665 96.1064C133.973 95.5558 134.389 95.1311 134.911 94.8324C135.443 94.5244 136.041 94.3704 136.703 94.3704C137.525 94.3704 138.215 94.5851 138.775 95.0144C139.345 95.4438 139.704 96.0178 139.853 96.7364H138.649C138.556 96.3071 138.327 95.9758 137.963 95.7424C137.599 95.4998 137.175 95.3784 136.689 95.3784C136.297 95.3784 135.929 95.4764 135.583 95.6724C135.238 95.8684 134.958 96.1624 134.743 96.5544C134.529 96.9464 134.421 97.4318 134.421 98.0104C134.421 98.5891 134.529 99.0744 134.743 99.4664C134.958 99.8584 135.238 100.157 135.583 100.362C135.929 100.558 136.297 100.656 136.689 100.656C137.175 100.656 137.599 100.54 137.963 100.306C138.327 100.064 138.556 99.7231 138.649 99.2844H139.853C139.713 99.9844 139.359 100.554 138.789 100.992C138.22 101.431 137.525 101.65 136.703 101.65ZM144.048 101.482C143.414 101.482 142.914 101.328 142.55 101.02C142.186 100.712 142.004 100.157 142.004 99.3544V95.5324H140.8V94.5384H142.004L142.158 92.8724H143.18V94.5384H145.224V95.5324H143.18V99.3544C143.18 99.7931 143.269 100.092 143.446 100.25C143.624 100.4 143.936 100.474 144.384 100.474H145.112V101.482H144.048ZM147.432 92.9984C147.199 92.9984 147.003 92.9238 146.844 92.7744C146.695 92.6158 146.62 92.4198 146.62 92.1864C146.62 91.9624 146.695 91.7758 146.844 91.6264C147.003 91.4771 147.199 91.4024 147.432 91.4024C147.656 91.4024 147.848 91.4771 148.006 91.6264C148.165 91.7758 148.244 91.9624 148.244 92.1864C148.244 92.4198 148.165 92.6158 148.006 92.7744C147.848 92.9238 147.656 92.9984 147.432 92.9984ZM146.844 101.482V94.5384H148.02V101.482H146.844ZM153.232 101.65C152.579 101.65 151.991 101.501 151.468 101.202C150.945 100.904 150.53 100.484 150.222 99.9424C149.923 99.3918 149.774 98.7478 149.774 98.0104C149.774 97.2731 149.928 96.6338 150.236 96.0924C150.544 95.5418 150.959 95.1171 151.482 94.8184C152.014 94.5198 152.607 94.3704 153.26 94.3704C153.913 94.3704 154.501 94.5198 155.024 94.8184C155.547 95.1171 155.957 95.5418 156.256 96.0924C156.564 96.6338 156.718 97.2731 156.718 98.0104C156.718 98.7478 156.564 99.3918 156.256 99.9424C155.948 100.484 155.528 100.904 154.996 101.202C154.473 101.501 153.885 101.65 153.232 101.65ZM153.232 100.642C153.633 100.642 154.007 100.544 154.352 100.348C154.697 100.152 154.977 99.8584 155.192 99.4664C155.407 99.0744 155.514 98.5891 155.514 98.0104C155.514 97.4318 155.407 96.9464 155.192 96.5544C154.987 96.1624 154.711 95.8684 154.366 95.6724C154.021 95.4764 153.652 95.3784 153.26 95.3784C152.859 95.3784 152.485 95.4764 152.14 95.6724C151.795 95.8684 151.515 96.1624 151.3 96.5544C151.085 96.9464 150.978 97.4318 150.978 98.0104C150.978 98.5891 151.085 99.0744 151.3 99.4664C151.515 99.8584 151.79 100.152 152.126 100.348C152.471 100.544 152.84 100.642 153.232 100.642ZM158.353 101.482V94.5384H159.417L159.487 95.7844C159.711 95.3458 160.033 95.0004 160.453 94.7484C160.873 94.4964 161.349 94.3704 161.881 94.3704C162.702 94.3704 163.356 94.6224 163.841 95.1264C164.336 95.6211 164.583 96.3864 164.583 97.4224V101.482H163.407V97.5484C163.407 96.1018 162.81 95.3784 161.615 95.3784C161.018 95.3784 160.518 95.5978 160.117 96.0364C159.725 96.4658 159.529 97.0818 159.529 97.8844V101.482H158.353Z" fill="#565359"/>
<path d="M73.0513 48.4824V37.2824H80.3633V38.9304H75.0993V42.0024H79.8833V43.6024H75.0993V46.8344H80.3633V48.4824H73.0513ZM81.5013 48.4824L84.3813 44.5144L81.5013 40.5464H83.6933L85.7093 43.3624L87.7093 40.5464H89.9173L87.0213 44.5144L89.9173 48.4824H87.7093L85.7093 45.6664L83.6933 48.4824H81.5013ZM94.6561 48.6744C93.8561 48.6744 93.1468 48.5038 92.5281 48.1624C91.9095 47.8211 91.4241 47.3411 91.0721 46.7224C90.7201 46.1038 90.5441 45.3891 90.5441 44.5784C90.5441 43.7571 90.7148 43.0264 91.0561 42.3864C91.4081 41.7464 91.8881 41.2504 92.4961 40.8984C93.1148 40.5358 93.8401 40.3544 94.6721 40.3544C95.4508 40.3544 96.1388 40.5251 96.7361 40.8664C97.3335 41.2078 97.7975 41.6771 98.1281 42.2744C98.4695 42.8611 98.6401 43.5171 98.6401 44.2424C98.6401 44.3598 98.6348 44.4824 98.6241 44.6104C98.6241 44.7384 98.6188 44.8718 98.6081 45.0104H92.5761C92.6188 45.6291 92.8321 46.1144 93.2161 46.4664C93.6108 46.8184 94.0855 46.9944 94.6401 46.9944C95.0561 46.9944 95.4028 46.9038 95.6801 46.7224C95.9681 46.5304 96.1815 46.2851 96.3201 45.9864H98.4001C98.2508 46.4878 98.0001 46.9464 97.6481 47.3624C97.3068 47.7678 96.8801 48.0878 96.3681 48.3224C95.8668 48.5571 95.2961 48.6744 94.6561 48.6744ZM94.6721 42.0184C94.1708 42.0184 93.7281 42.1624 93.3441 42.4504C92.9601 42.7278 92.7148 43.1544 92.6081 43.7304H96.5601C96.5281 43.2078 96.3361 42.7918 95.9841 42.4824C95.6321 42.1731 95.1948 42.0184 94.6721 42.0184ZM104.251 48.6744C103.44 48.6744 102.725 48.4984 102.107 48.1464C101.488 47.7944 100.997 47.3038 100.635 46.6744C100.283 46.0451 100.107 45.3251 100.107 44.5144C100.107 43.7038 100.283 42.9838 100.635 42.3544C100.997 41.7251 101.488 41.2344 102.107 40.8824C102.725 40.5304 103.44 40.3544 104.251 40.3544C105.264 40.3544 106.117 40.6211 106.811 41.1544C107.504 41.6771 107.947 42.4024 108.139 43.3304H105.979C105.872 42.9464 105.659 42.6478 105.339 42.4344C105.029 42.2104 104.661 42.0984 104.235 42.0984C103.669 42.0984 103.189 42.3118 102.795 42.7384C102.4 43.1651 102.203 43.7571 102.203 44.5144C102.203 45.2718 102.4 45.8638 102.795 46.2904C103.189 46.7171 103.669 46.9304 104.235 46.9304C104.661 46.9304 105.029 46.8238 105.339 46.6104C105.659 46.3971 105.872 46.0931 105.979 45.6984H108.139C107.947 46.5944 107.504 47.3144 106.811 47.8584C106.117 48.4024 105.264 48.6744 104.251 48.6744ZM112.932 48.6744C111.94 48.6744 111.172 48.3651 110.628 47.7464C110.095 47.1278 109.828 46.2211 109.828 45.0264V40.5464H111.86V44.8344C111.86 45.5171 111.999 46.0398 112.276 46.4024C112.554 46.7651 112.991 46.9464 113.588 46.9464C114.154 46.9464 114.618 46.7438 114.98 46.3384C115.354 45.9331 115.54 45.3678 115.54 44.6424V40.5464H117.588V48.4824H115.78L115.62 47.1384C115.375 47.6078 115.018 47.9811 114.548 48.2584C114.09 48.5358 113.551 48.6744 112.932 48.6744ZM123.227 48.4824C122.395 48.4824 121.728 48.2798 121.227 47.8744C120.725 47.4691 120.475 46.7491 120.475 45.7144V42.2584H119.115V40.5464H120.475L120.715 38.4184H122.523V40.5464H124.667V42.2584H122.523V45.7304C122.523 46.1144 122.603 46.3811 122.763 46.5304C122.933 46.6691 123.221 46.7384 123.627 46.7384H124.619V48.4824H123.227ZM130.078 48.6744C129.278 48.6744 128.569 48.5038 127.95 48.1624C127.331 47.8211 126.846 47.3411 126.494 46.7224C126.142 46.1038 125.966 45.3891 125.966 44.5784C125.966 43.7571 126.137 43.0264 126.478 42.3864C126.83 41.7464 127.31 41.2504 127.918 40.8984C128.537 40.5358 129.262 40.3544 130.094 40.3544C130.873 40.3544 131.561 40.5251 132.158 40.8664C132.755 41.2078 133.219 41.6771 133.55 42.2744C133.891 42.8611 134.062 43.5171 134.062 44.2424C134.062 44.3598 134.057 44.4824 134.046 44.6104C134.046 44.7384 134.041 44.8718 134.03 45.0104H127.998C128.041 45.6291 128.254 46.1144 128.638 46.4664C129.033 46.8184 129.507 46.9944 130.062 46.9944C130.478 46.9944 130.825 46.9038 131.102 46.7224C131.39 46.5304 131.603 46.2851 131.742 45.9864H133.822C133.673 46.4878 133.422 46.9464 133.07 47.3624C132.729 47.7678 132.302 48.0878 131.79 48.3224C131.289 48.5571 130.718 48.6744 130.078 48.6744ZM130.094 42.0184C129.593 42.0184 129.15 42.1624 128.766 42.4504C128.382 42.7278 128.137 43.1544 128.03 43.7304H131.982C131.95 43.2078 131.758 42.7918 131.406 42.4824C131.054 42.1731 130.617 42.0184 130.094 42.0184Z" fill="#26262B"/>
<circle cx="42.9633" cy="42.4824" r="12" fill="#2DCE89" fill-opacity="0.2"/>
<mask id="mask0_480_10136" style="mask-type:alpha" maskUnits="userSpaceOnUse" x="36" y="36" width="14" height="13">
<rect x="36.5634" y="36.082" width="12.8" height="12.8" fill="#D9D9D9"/>
</mask>
<g mask="url(#mask0_480_10136)">
<path d="M40.0407 40.9085C39.8064 41.142 39.8836 41.5385 40.1884 41.667V41.667C40.4142 41.7622 40.6744 41.6655 40.791 41.4499C40.8519 41.3376 40.9136 41.2272 40.9764 41.1187C41.0186 41.0459 41.0621 40.9731 41.1069 40.9002C41.2465 40.6735 41.1234 40.3705 40.8621 40.3193V40.3193C40.7418 40.2958 40.6177 40.3335 40.5309 40.42L40.0407 40.9085ZM41.5878 42.1661C41.4918 42.3657 41.5449 42.601 41.7025 42.7567L42.7079 43.7498C42.8634 43.9034 43.0954 43.9545 43.2927 43.8605C43.5693 43.7288 43.8594 43.5589 44.1631 43.3509C44.5898 43.0586 44.9898 42.7264 45.3631 42.3544C45.9853 41.7343 46.4721 41.0457 46.8234 40.2886C47.0873 39.7189 47.2394 39.1831 47.2797 38.6812C47.302 38.4035 47.0754 38.177 46.7976 38.1989C46.2925 38.2388 45.7521 38.3905 45.1764 38.6538C44.412 39.0039 43.7186 39.4889 43.0964 40.109C42.7231 40.481 42.3898 40.8796 42.0964 41.3047C41.8892 41.6051 41.7197 41.8922 41.5878 42.1661ZM43.8164 41.6369C43.612 41.4332 43.5098 41.1829 43.5098 40.886C43.5098 40.5894 43.612 40.3393 43.8164 40.1355C44.0209 39.9318 44.2742 39.8299 44.5764 39.8299C44.8786 39.8299 45.132 39.9318 45.3364 40.1355C45.5409 40.3393 45.6431 40.5894 45.6431 40.886C45.6431 41.1829 45.5409 41.4332 45.3364 41.6369C45.132 41.8406 44.8786 41.9425 44.5764 41.9425C44.2742 41.9425 44.0209 41.8406 43.8164 41.6369ZM43.7998 45.2579C43.9287 45.5654 44.3282 45.6444 44.5644 45.409L45.0503 44.9248C45.1374 44.8379 45.1755 44.7133 45.1517 44.5926V44.5926C45.1004 44.3324 44.7988 44.2095 44.5712 44.3457C44.4974 44.3898 44.4236 44.4323 44.3498 44.4733C44.2421 44.5332 44.1326 44.5926 44.0211 44.6515C43.8023 44.767 43.7042 45.0297 43.7998 45.2579V45.2579ZM47.8394 37.1754C48.0809 37.1979 48.2712 37.388 48.2939 37.6294C48.3814 38.5598 48.2601 39.4682 47.93 40.3545C47.5814 41.2903 47.0002 42.1864 46.1864 43.0428C46.0572 43.1788 45.9989 43.3685 46.0361 43.5523L46.2431 44.5732C46.2786 44.7504 46.2698 44.9231 46.2164 45.0914C46.1631 45.2597 46.0742 45.4058 45.9498 45.5298L44.2933 47.1805C44.0136 47.4592 43.541 47.3676 43.3857 47.0046L42.6323 45.244C42.6042 45.1783 42.5637 45.1186 42.5131 45.0681L40.3862 42.9487C40.3357 42.8984 40.276 42.8582 40.2104 42.8303L38.4438 42.0797C38.0798 41.925 37.9875 41.4514 38.2668 41.1713L39.9098 39.5244C40.0342 39.4003 40.1832 39.3118 40.3567 39.2586C40.5298 39.2055 40.7053 39.1966 40.8831 39.2321L41.9103 39.4388C42.0932 39.4757 42.2819 39.4178 42.4175 39.2897C43.2771 38.4779 44.1745 37.8962 45.1098 37.5447C45.9959 37.2116 46.9057 37.0885 47.8394 37.1754ZM38.6298 44.5599C38.9409 44.2499 39.3208 44.0926 39.7695 44.088C40.2186 44.0837 40.5986 44.2366 40.9098 44.5466C41.2209 44.8567 41.3741 45.2352 41.3695 45.6824C41.3652 46.1299 41.2075 46.5086 40.8964 46.8186C40.6742 47.0401 40.3032 47.2305 39.7834 47.3899C39.4096 47.5045 38.9337 47.6099 38.3557 47.7062C37.9916 47.7669 37.6783 47.4533 37.7395 47.0892C37.836 46.5144 37.9416 46.041 38.0564 45.6691C38.2164 45.1511 38.4075 44.7814 38.6298 44.5599ZM39.3898 45.304C39.3009 45.3925 39.212 45.5543 39.1231 45.7892V45.7892C38.9932 46.1319 39.3048 46.4436 39.65 46.3206V46.3206C39.8854 46.2363 40.0475 46.1499 40.1364 46.0613C40.2431 45.955 40.3009 45.8266 40.3098 45.676C40.3186 45.5254 40.2698 45.397 40.1631 45.2907C40.0564 45.1844 39.9275 45.1334 39.7764 45.1376C39.6253 45.1422 39.4964 45.1977 39.3898 45.304Z" fill="#1FC980"/>
</g>
<defs>
<filter id="filter0_d_480_10136" x="0.963257" y="0.482422" width="320" height="144" filterUnits="userSpaceOnUse" color-interpolation-filters="sRGB">
<feFlood flood-opacity="0" result="BackgroundImageFix"/>
<feColorMatrix in="SourceAlpha" type="matrix" values="0 0 0 0 0 0 0 0 0 0 0 0 0 0 0 0 0 0 127 0" result="hardAlpha"/>
<feOffset/>
<feGaussianBlur stdDeviation="10"/>
<feComposite in2="hardAlpha" operator="out"/>
<feColorMatrix type="matrix" values="0 0 0 0 0.847059 0 0 0 0 0.847059 0 0 0 0 0.85098 0 0 0 0.2 0"/>
<feBlend mode="normal" in2="BackgroundImageFix" result="effect1_dropShadow_480_10136"/>
<feBlend mode="normal" in="SourceGraphic" in2="effect1_dropShadow_480_10136" result="shape"/>
</filter>
</defs>
</svg>
