<svg width="321" height="145" viewBox="0 0 321 145" fill="none" xmlns="http://www.w3.org/2000/svg">
<g filter="url(#filter0_d_480_10128)">
<rect x="20.9633" y="20.4824" width="280" height="104" rx="10" fill="white"/>
<rect x="21.4633" y="20.9824" width="279" height="103" rx="9.5" stroke="#C4C4C4"/>
</g>
<path d="M31.3833 80.4824L34.9953 70.6824H36.2413L39.8393 80.4824H38.5933L37.6973 77.9624H33.5253L32.6153 80.4824H31.3833ZM33.8753 77.0104H37.3473L35.6113 72.1664L33.8753 77.0104ZM41.2261 80.4824V70.4024H42.4021V80.4824H41.2261ZM45.0436 71.9984C44.8103 71.9984 44.6143 71.9238 44.4556 71.7744C44.3063 71.6158 44.2316 71.4198 44.2316 71.1864C44.2316 70.9624 44.3063 70.7758 44.4556 70.6264C44.6143 70.4771 44.8103 70.4024 45.0436 70.4024C45.2676 70.4024 45.459 70.4771 45.6176 70.6264C45.7763 70.7758 45.8556 70.9624 45.8556 71.1864C45.8556 71.4198 45.7763 71.6158 45.6176 71.7744C45.459 71.9238 45.2676 71.9984 45.0436 71.9984ZM44.4556 80.4824V73.5384H45.6316V80.4824H44.4556ZM50.4233 78.2984C50.0313 78.2984 49.6719 78.2471 49.3453 78.1444L48.6453 78.8024C48.7479 78.8771 48.8739 78.9424 49.0233 78.9984C49.1819 79.0451 49.4059 79.0918 49.6953 79.1384C49.9846 79.1758 50.3906 79.2178 50.9133 79.2644C51.8466 79.3298 52.5139 79.5444 52.9153 79.9084C53.3166 80.2724 53.5173 80.7484 53.5173 81.3364C53.5173 81.7378 53.4053 82.1204 53.1813 82.4844C52.9666 82.8484 52.6306 83.1471 52.1733 83.3804C51.7253 83.6138 51.1466 83.7304 50.4373 83.7304C49.8119 83.7304 49.2566 83.6464 48.7713 83.4784C48.2859 83.3198 47.9079 83.0724 47.6373 82.7364C47.3666 82.4098 47.2313 81.9944 47.2313 81.4904C47.2313 81.2291 47.3013 80.9444 47.4413 80.6364C47.5813 80.3378 47.8426 80.0531 48.2253 79.7824C48.0199 79.6984 47.8426 79.6098 47.6933 79.5164C47.5533 79.4138 47.4226 79.3018 47.3013 79.1804V78.8584L48.4913 77.6824C47.9406 77.2158 47.6653 76.5998 47.6653 75.8344C47.6653 75.3771 47.7726 74.9618 47.9873 74.5884C48.2019 74.2151 48.5146 73.9211 48.9253 73.7064C49.3359 73.4824 49.8353 73.3704 50.4233 73.3704C50.8246 73.3704 51.1886 73.4264 51.5153 73.5384H54.0773V74.4204L52.7753 74.4764C53.0459 74.8684 53.1813 75.3211 53.1813 75.8344C53.1813 76.2918 53.0693 76.7071 52.8453 77.0804C52.6306 77.4538 52.3179 77.7524 51.9073 77.9764C51.5059 78.1911 51.0113 78.2984 50.4233 78.2984ZM50.4233 77.3324C50.9179 77.3324 51.3099 77.2064 51.5993 76.9544C51.8979 76.6931 52.0473 76.3198 52.0473 75.8344C52.0473 75.3584 51.8979 74.9944 51.5993 74.7424C51.3099 74.4811 50.9179 74.3504 50.4233 74.3504C49.9193 74.3504 49.5179 74.4811 49.2193 74.7424C48.9299 74.9944 48.7853 75.3584 48.7853 75.8344C48.7853 76.3198 48.9299 76.6931 49.2193 76.9544C49.5179 77.2064 49.9193 77.3324 50.4233 77.3324ZM48.3793 81.3784C48.3793 81.8451 48.5753 82.1904 48.9673 82.4144C49.3593 82.6478 49.8493 82.7644 50.4373 82.7644C51.0159 82.7644 51.4779 82.6384 51.8233 82.3864C52.1779 82.1344 52.3553 81.7984 52.3553 81.3784C52.3553 81.0798 52.2339 80.8184 51.9913 80.5944C51.7486 80.3798 51.3006 80.2538 50.6473 80.2164C50.1339 80.1791 49.6906 80.1324 49.3173 80.0764C48.9346 80.2818 48.6826 80.5011 48.5613 80.7344C48.4399 80.9771 48.3793 81.1918 48.3793 81.3784ZM55.4039 80.4824V73.5384H56.4679L56.5379 74.7844C56.7619 74.3458 57.0839 74.0004 57.5039 73.7484C57.9239 73.4964 58.3999 73.3704 58.9319 73.3704C59.7532 73.3704 60.4065 73.6224 60.8919 74.1264C61.3865 74.6211 61.6339 75.3864 61.6339 76.4224V80.4824H60.4579V76.5484C60.4579 75.1018 59.8605 74.3784 58.6659 74.3784C58.0685 74.3784 57.5692 74.5978 57.1679 75.0364C56.7759 75.4658 56.5799 76.0818 56.5799 76.8844V80.4824H55.4039ZM67.8767 83.5624L69.5987 79.8104H69.1927L66.4347 73.5384H67.7087L70.0047 78.9424L72.4407 73.5384H73.6587L69.1087 83.5624H67.8767ZM77.4077 80.6504C76.7544 80.6504 76.1664 80.5011 75.6437 80.2024C75.121 79.9038 74.7057 79.4838 74.3977 78.9424C74.099 78.3918 73.9497 77.7478 73.9497 77.0104C73.9497 76.2731 74.1037 75.6338 74.4117 75.0924C74.7197 74.5418 75.135 74.1171 75.6577 73.8184C76.1897 73.5198 76.7824 73.3704 77.4357 73.3704C78.089 73.3704 78.677 73.5198 79.1997 73.8184C79.7224 74.1171 80.133 74.5418 80.4317 75.0924C80.7397 75.6338 80.8937 76.2731 80.8937 77.0104C80.8937 77.7478 80.7397 78.3918 80.4317 78.9424C80.1237 79.4838 79.7037 79.9038 79.1717 80.2024C78.649 80.5011 78.061 80.6504 77.4077 80.6504ZM77.4077 79.6424C77.809 79.6424 78.1824 79.5444 78.5277 79.3484C78.873 79.1524 79.153 78.8584 79.3677 78.4664C79.5824 78.0744 79.6897 77.5891 79.6897 77.0104C79.6897 76.4318 79.5824 75.9464 79.3677 75.5544C79.1624 75.1624 78.887 74.8684 78.5417 74.6724C78.1964 74.4764 77.8277 74.3784 77.4357 74.3784C77.0344 74.3784 76.661 74.4764 76.3157 74.6724C75.9704 74.8684 75.6904 75.1624 75.4757 75.5544C75.261 75.9464 75.1537 76.4318 75.1537 77.0104C75.1537 77.5891 75.261 78.0744 75.4757 78.4664C75.6904 78.8584 75.9657 79.1524 76.3017 79.3484C76.647 79.5444 77.0157 79.6424 77.4077 79.6424ZM85.0629 80.6504C84.2415 80.6504 83.5882 80.4031 83.1029 79.9084C82.6175 79.4044 82.3749 78.6344 82.3749 77.5984V73.5384H83.5509V77.4724C83.5509 78.9191 84.1435 79.6424 85.3289 79.6424C85.9355 79.6424 86.4349 79.4278 86.8269 78.9984C87.2282 78.5598 87.4289 77.9391 87.4289 77.1364V73.5384H88.6049V80.4824H87.5409L87.4569 79.2364C87.2422 79.6751 86.9202 80.0204 86.4909 80.2724C86.0709 80.5244 85.5949 80.6504 85.0629 80.6504ZM90.5406 80.4824V73.5384H91.6046L91.7026 74.8684C91.9173 74.4111 92.2439 74.0471 92.6826 73.7764C93.1213 73.5058 93.6626 73.3704 94.3066 73.3704V74.6024H93.9846C93.5739 74.6024 93.1959 74.6771 92.8506 74.8264C92.5053 74.9664 92.2299 75.2091 92.0246 75.5544C91.8193 75.8998 91.7166 76.3758 91.7166 76.9824V80.4824H90.5406ZM102.076 80.4824C101.441 80.4824 100.942 80.3284 100.578 80.0204C100.214 79.7124 100.032 79.1571 100.032 78.3544V74.5324H98.8276V73.5384H100.032L100.186 71.8724H101.208V73.5384H103.252V74.5324H101.208V78.3544C101.208 78.7931 101.296 79.0918 101.474 79.2504C101.651 79.3998 101.964 79.4744 102.412 79.4744H103.14V80.4824H102.076ZM107.676 80.6504C107.014 80.6504 106.426 80.5011 105.912 80.2024C105.399 79.8944 104.993 79.4698 104.694 78.9284C104.405 78.3871 104.26 77.7478 104.26 77.0104C104.26 76.2824 104.405 75.6478 104.694 75.1064C104.984 74.5558 105.385 74.1311 105.898 73.8324C106.421 73.5244 107.023 73.3704 107.704 73.3704C108.376 73.3704 108.955 73.5244 109.44 73.8324C109.935 74.1311 110.313 74.5278 110.574 75.0224C110.836 75.5171 110.966 76.0491 110.966 76.6184C110.966 76.7211 110.962 76.8238 110.952 76.9264C110.952 77.0291 110.952 77.1458 110.952 77.2764H105.422C105.45 77.8084 105.572 78.2518 105.786 78.6064C106.01 78.9518 106.286 79.2131 106.612 79.3904C106.948 79.5678 107.303 79.6564 107.676 79.6564C108.162 79.6564 108.568 79.5444 108.894 79.3204C109.221 79.0964 109.459 78.7931 109.608 78.4104H110.77C110.584 79.0544 110.224 79.5911 109.692 80.0204C109.17 80.4404 108.498 80.6504 107.676 80.6504ZM107.676 74.3644C107.116 74.3644 106.617 74.5371 106.178 74.8824C105.749 75.2184 105.502 75.7131 105.436 76.3664H109.804C109.776 75.7411 109.562 75.2511 109.16 74.8964C108.759 74.5418 108.264 74.3644 107.676 74.3644ZM114.835 80.6504C114.256 80.6504 113.776 80.5524 113.393 80.3564C113.01 80.1604 112.726 79.8991 112.539 79.5724C112.352 79.2458 112.259 78.8911 112.259 78.5084C112.259 77.7991 112.53 77.2531 113.071 76.8704C113.612 76.4878 114.35 76.2964 115.283 76.2964H117.159V76.2124C117.159 75.6058 117 75.1484 116.683 74.8404C116.366 74.5231 115.941 74.3644 115.409 74.3644C114.952 74.3644 114.555 74.4811 114.219 74.7144C113.892 74.9384 113.687 75.2698 113.603 75.7084H112.399C112.446 75.2044 112.614 74.7798 112.903 74.4344C113.202 74.0891 113.57 73.8278 114.009 73.6504C114.448 73.4638 114.914 73.3704 115.409 73.3704C116.38 73.3704 117.108 73.6318 117.593 74.1544C118.088 74.6678 118.335 75.3538 118.335 76.2124V80.4824H117.285L117.215 79.2364C117.019 79.6284 116.73 79.9644 116.347 80.2444C115.974 80.5151 115.47 80.6504 114.835 80.6504ZM115.017 79.6564C115.465 79.6564 115.848 79.5398 116.165 79.3064C116.492 79.0731 116.739 78.7698 116.907 78.3964C117.075 78.0231 117.159 77.6311 117.159 77.2204V77.2064H115.381C114.69 77.2064 114.2 77.3278 113.911 77.5704C113.631 77.8038 113.491 78.0978 113.491 78.4524C113.491 78.8164 113.622 79.1104 113.883 79.3344C114.154 79.5491 114.532 79.6564 115.017 79.6564ZM120.099 80.4824V73.5384H121.163L121.247 74.5464C121.471 74.1731 121.77 73.8838 122.143 73.6784C122.517 73.4731 122.937 73.3704 123.403 73.3704C123.954 73.3704 124.425 73.4824 124.817 73.7064C125.219 73.9304 125.527 74.2711 125.741 74.7284C125.984 74.3084 126.315 73.9771 126.735 73.7344C127.165 73.4918 127.627 73.3704 128.121 73.3704C128.952 73.3704 129.615 73.6224 130.109 74.1264C130.604 74.6211 130.851 75.3864 130.851 76.4224V80.4824H129.689V76.5484C129.689 75.8298 129.545 75.2884 129.255 74.9244C128.966 74.5604 128.551 74.3784 128.009 74.3784C127.449 74.3784 126.983 74.5978 126.609 75.0364C126.245 75.4658 126.063 76.0818 126.063 76.8844V80.4824H124.887V76.5484C124.887 75.8298 124.743 75.2884 124.453 74.9244C124.164 74.5604 123.749 74.3784 123.207 74.3784C122.657 74.3784 122.195 74.5978 121.821 75.0364C121.457 75.4658 121.275 76.0818 121.275 76.8844V80.4824H120.099ZM138.638 80.6504C138.059 80.6504 137.578 80.5524 137.196 80.3564C136.813 80.1604 136.528 79.8991 136.342 79.5724C136.155 79.2458 136.062 78.8911 136.062 78.5084C136.062 77.7991 136.332 77.2531 136.874 76.8704C137.415 76.4878 138.152 76.2964 139.086 76.2964H140.962V76.2124C140.962 75.6058 140.803 75.1484 140.486 74.8404C140.168 74.5231 139.744 74.3644 139.212 74.3644C138.754 74.3644 138.358 74.4811 138.022 74.7144C137.695 74.9384 137.49 75.2698 137.406 75.7084H136.202C136.248 75.2044 136.416 74.7798 136.706 74.4344C137.004 74.0891 137.373 73.8278 137.812 73.6504C138.25 73.4638 138.717 73.3704 139.212 73.3704C140.182 73.3704 140.91 73.6318 141.396 74.1544C141.89 74.6678 142.138 75.3538 142.138 76.2124V80.4824H141.088L141.018 79.2364C140.822 79.6284 140.532 79.9644 140.15 80.2444C139.776 80.5151 139.272 80.6504 138.638 80.6504ZM138.82 79.6564C139.268 79.6564 139.65 79.5398 139.968 79.3064C140.294 79.0731 140.542 78.7698 140.71 78.3964C140.878 78.0231 140.962 77.6311 140.962 77.2204V77.2064H139.184C138.493 77.2064 138.003 77.3278 137.714 77.5704C137.434 77.8038 137.294 78.0978 137.294 78.4524C137.294 78.8164 137.424 79.1104 137.686 79.3344C137.956 79.5491 138.334 79.6564 138.82 79.6564ZM143.902 80.4824V73.5384H144.966L145.064 74.8684C145.279 74.4111 145.605 74.0471 146.044 73.7764C146.483 73.5058 147.024 73.3704 147.668 73.3704V74.6024H147.346C146.935 74.6024 146.557 74.6771 146.212 74.8264C145.867 74.9664 145.591 75.2091 145.386 75.5544C145.181 75.8998 145.078 76.3758 145.078 76.9824V80.4824H143.902ZM151.892 80.6504C151.239 80.6504 150.651 80.5011 150.128 80.2024C149.605 79.9038 149.19 79.4838 148.882 78.9424C148.583 78.3918 148.434 77.7478 148.434 77.0104C148.434 76.2731 148.588 75.6338 148.896 75.0924C149.204 74.5418 149.619 74.1171 150.142 73.8184C150.674 73.5198 151.267 73.3704 151.92 73.3704C152.573 73.3704 153.161 73.5198 153.684 73.8184C154.207 74.1171 154.617 74.5418 154.916 75.0924C155.224 75.6338 155.378 76.2731 155.378 77.0104C155.378 77.7478 155.224 78.3918 154.916 78.9424C154.608 79.4838 154.188 79.9038 153.656 80.2024C153.133 80.5011 152.545 80.6504 151.892 80.6504ZM151.892 79.6424C152.293 79.6424 152.667 79.5444 153.012 79.3484C153.357 79.1524 153.637 78.8584 153.852 78.4664C154.067 78.0744 154.174 77.5891 154.174 77.0104C154.174 76.4318 154.067 75.9464 153.852 75.5544C153.647 75.1624 153.371 74.8684 153.026 74.6724C152.681 74.4764 152.312 74.3784 151.92 74.3784C151.519 74.3784 151.145 74.4764 150.8 74.6724C150.455 74.8684 150.175 75.1624 149.96 75.5544C149.745 75.9464 149.638 76.4318 149.638 77.0104C149.638 77.5891 149.745 78.0744 149.96 78.4664C150.175 78.8584 150.45 79.1524 150.786 79.3484C151.131 79.5444 151.5 79.6424 151.892 79.6424ZM159.547 80.6504C158.726 80.6504 158.073 80.4031 157.587 79.9084C157.102 79.4044 156.859 78.6344 156.859 77.5984V73.5384H158.035V77.4724C158.035 78.9191 158.628 79.6424 159.813 79.6424C160.42 79.6424 160.919 79.4278 161.311 78.9984C161.713 78.5598 161.913 77.9391 161.913 77.1364V73.5384H163.089V80.4824H162.025L161.941 79.2364C161.727 79.6751 161.405 80.0204 160.975 80.2724C160.555 80.5244 160.079 80.6504 159.547 80.6504ZM165.025 80.4824V73.5384H166.089L166.159 74.7844C166.383 74.3458 166.705 74.0004 167.125 73.7484C167.545 73.4964 168.021 73.3704 168.553 73.3704C169.374 73.3704 170.028 73.6224 170.513 74.1264C171.008 74.6211 171.255 75.3864 171.255 76.4224V80.4824H170.079V76.5484C170.079 75.1018 169.482 74.3784 168.287 74.3784C167.69 74.3784 167.19 74.5978 166.789 75.0364C166.397 75.4658 166.201 76.0818 166.201 76.8844V80.4824H165.025ZM176.187 80.6504C175.496 80.6504 174.889 80.4918 174.367 80.1744C173.853 79.8571 173.452 79.4231 173.163 78.8724C172.883 78.3218 172.743 77.6964 172.743 76.9964C172.743 76.2964 172.887 75.6758 173.177 75.1344C173.466 74.5838 173.867 74.1544 174.381 73.8464C174.894 73.5291 175.501 73.3704 176.201 73.3704C176.77 73.3704 177.274 73.4871 177.713 73.7204C178.151 73.9538 178.492 74.2804 178.735 74.7004V70.4024H179.911V80.4824H178.847L178.735 79.3344C178.511 79.6704 178.189 79.9738 177.769 80.2444C177.349 80.5151 176.821 80.6504 176.187 80.6504ZM176.313 79.6284C176.779 79.6284 177.19 79.5211 177.545 79.3064C177.909 79.0824 178.189 78.7744 178.385 78.3824C178.59 77.9904 178.693 77.5331 178.693 77.0104C178.693 76.4878 178.59 76.0304 178.385 75.6384C178.189 75.2464 177.909 74.9431 177.545 74.7284C177.19 74.5044 176.779 74.3924 176.313 74.3924C175.855 74.3924 175.445 74.5044 175.081 74.7284C174.726 74.9431 174.446 75.2464 174.241 75.6384C174.045 76.0304 173.947 76.4878 173.947 77.0104C173.947 77.5331 174.045 77.9904 174.241 78.3824C174.446 78.7744 174.726 79.0824 175.081 79.3064C175.445 79.5211 175.855 79.6284 176.313 79.6284ZM188.277 80.4824C187.642 80.4824 187.143 80.3284 186.779 80.0204C186.415 79.7124 186.233 79.1571 186.233 78.3544V74.5324H185.029V73.5384H186.233L186.387 71.8724H187.409V73.5384H189.453V74.5324H187.409V78.3544C187.409 78.7931 187.497 79.0918 187.675 79.2504C187.852 79.3998 188.165 79.4744 188.613 79.4744H189.341V80.4824H188.277ZM190.947 80.4824V70.4024H192.123V74.7284C192.356 74.2991 192.688 73.9678 193.117 73.7344C193.546 73.4918 194.013 73.3704 194.517 73.3704C195.32 73.3704 195.964 73.6224 196.449 74.1264C196.934 74.6211 197.177 75.3864 197.177 76.4224V80.4824H196.015V76.5484C196.015 75.1018 195.432 74.3784 194.265 74.3784C193.658 74.3784 193.15 74.5978 192.739 75.0364C192.328 75.4658 192.123 76.0818 192.123 76.8844V80.4824H190.947ZM202.081 80.6504C201.418 80.6504 200.83 80.5011 200.317 80.2024C199.803 79.8944 199.397 79.4698 199.099 78.9284C198.809 78.3871 198.665 77.7478 198.665 77.0104C198.665 76.2824 198.809 75.6478 199.099 75.1064C199.388 74.5558 199.789 74.1311 200.303 73.8324C200.825 73.5244 201.427 73.3704 202.109 73.3704C202.781 73.3704 203.359 73.5244 203.845 73.8324C204.339 74.1311 204.717 74.5278 204.979 75.0224C205.24 75.5171 205.371 76.0491 205.371 76.6184C205.371 76.7211 205.366 76.8238 205.357 76.9264C205.357 77.0291 205.357 77.1458 205.357 77.2764H199.827C199.855 77.8084 199.976 78.2518 200.191 78.6064C200.415 78.9518 200.69 79.2131 201.017 79.3904C201.353 79.5678 201.707 79.6564 202.081 79.6564C202.566 79.6564 202.972 79.5444 203.299 79.3204C203.625 79.0964 203.863 78.7931 204.013 78.4104H205.175C204.988 79.0544 204.629 79.5911 204.097 80.0204C203.574 80.4404 202.902 80.6504 202.081 80.6504ZM202.081 74.3644C201.521 74.3644 201.021 74.5371 200.583 74.8824C200.153 75.2184 199.906 75.7131 199.841 76.3664H204.209C204.181 75.7411 203.966 75.2511 203.565 74.8964C203.163 74.5418 202.669 74.3644 202.081 74.3644ZM210.634 80.4824V73.5384H211.698L211.796 74.8684C212.011 74.4111 212.338 74.0471 212.776 73.7764C213.215 73.5058 213.756 73.3704 214.4 73.3704V74.6024H214.078C213.668 74.6024 213.29 74.6771 212.944 74.8264C212.599 74.9664 212.324 75.2091 212.118 75.5544C211.913 75.8998 211.81 76.3758 211.81 76.9824V80.4824H210.634ZM218.625 80.6504C217.971 80.6504 217.383 80.5011 216.861 80.2024C216.338 79.9038 215.923 79.4838 215.615 78.9424C215.316 78.3918 215.167 77.7478 215.167 77.0104C215.167 76.2731 215.321 75.6338 215.629 75.0924C215.937 74.5418 216.352 74.1171 216.875 73.8184C217.407 73.5198 217.999 73.3704 218.653 73.3704C219.306 73.3704 219.894 73.5198 220.417 73.8184C220.939 74.1171 221.35 74.5418 221.649 75.0924C221.957 75.6338 222.111 76.2731 222.111 77.0104C222.111 77.7478 221.957 78.3918 221.649 78.9424C221.341 79.4838 220.921 79.9038 220.389 80.2024C219.866 80.5011 219.278 80.6504 218.625 80.6504ZM218.625 79.6424C219.026 79.6424 219.399 79.5444 219.745 79.3484C220.09 79.1524 220.37 78.8584 220.585 78.4664C220.799 78.0744 220.907 77.5891 220.907 77.0104C220.907 76.4318 220.799 75.9464 220.585 75.5544C220.379 75.1624 220.104 74.8684 219.759 74.6724C219.413 74.4764 219.045 74.3784 218.653 74.3784C218.251 74.3784 217.878 74.4764 217.533 74.6724C217.187 74.8684 216.907 75.1624 216.693 75.5544C216.478 75.9464 216.371 76.4318 216.371 77.0104C216.371 77.5891 216.478 78.0744 216.693 78.4664C216.907 78.8584 217.183 79.1524 217.519 79.3484C217.864 79.5444 218.233 79.6424 218.625 79.6424ZM226.056 80.6504C225.477 80.6504 224.996 80.5524 224.614 80.3564C224.231 80.1604 223.946 79.8991 223.76 79.5724C223.573 79.2458 223.48 78.8911 223.48 78.5084C223.48 77.7991 223.75 77.2531 224.292 76.8704C224.833 76.4878 225.57 76.2964 226.504 76.2964H228.38V76.2124C228.38 75.6058 228.221 75.1484 227.904 74.8404C227.586 74.5231 227.162 74.3644 226.63 74.3644C226.172 74.3644 225.776 74.4811 225.44 74.7144C225.113 74.9384 224.908 75.2698 224.824 75.7084H223.62C223.666 75.2044 223.834 74.7798 224.124 74.4344C224.422 74.0891 224.791 73.8278 225.23 73.6504C225.668 73.4638 226.135 73.3704 226.63 73.3704C227.6 73.3704 228.328 73.6318 228.814 74.1544C229.308 74.6678 229.556 75.3538 229.556 76.2124V80.4824H228.506L228.436 79.2364C228.24 79.6284 227.95 79.9644 227.568 80.2444C227.194 80.5151 226.69 80.6504 226.056 80.6504ZM226.238 79.6564C226.686 79.6564 227.068 79.5398 227.386 79.3064C227.712 79.0731 227.96 78.7698 228.128 78.3964C228.296 78.0231 228.38 77.6311 228.38 77.2204V77.2064H226.602C225.911 77.2064 225.421 77.3278 225.132 77.5704C224.852 77.8038 224.712 78.0978 224.712 78.4524C224.712 78.8164 224.842 79.1104 225.104 79.3344C225.374 79.5491 225.752 79.6564 226.238 79.6564ZM234.47 80.6504C233.779 80.6504 233.173 80.4918 232.65 80.1744C232.137 79.8571 231.735 79.4231 231.446 78.8724C231.166 78.3218 231.026 77.6964 231.026 76.9964C231.026 76.2964 231.171 75.6758 231.46 75.1344C231.749 74.5838 232.151 74.1544 232.664 73.8464C233.177 73.5291 233.784 73.3704 234.484 73.3704C235.053 73.3704 235.557 73.4871 235.996 73.7204C236.435 73.9538 236.775 74.2804 237.018 74.7004V70.4024H238.194V80.4824H237.13L237.018 79.3344C236.794 79.6704 236.472 79.9738 236.052 80.2444C235.632 80.5151 235.105 80.6504 234.47 80.6504ZM234.596 79.6284C235.063 79.6284 235.473 79.5211 235.828 79.3064C236.192 79.0824 236.472 78.7744 236.668 78.3824C236.873 77.9904 236.976 77.5331 236.976 77.0104C236.976 76.4878 236.873 76.0304 236.668 75.6384C236.472 75.2464 236.192 74.9431 235.828 74.7284C235.473 74.5044 235.063 74.3924 234.596 74.3924C234.139 74.3924 233.728 74.5044 233.364 74.7284C233.009 74.9431 232.729 75.2464 232.524 75.6384C232.328 76.0304 232.23 76.4878 232.23 77.0104C232.23 77.5331 232.328 77.9904 232.524 78.3824C232.729 78.7744 233.009 79.0824 233.364 79.3064C233.728 79.5211 234.139 79.6284 234.596 79.6284ZM240.111 80.4824V73.5384H241.175L241.259 74.5464C241.483 74.1731 241.782 73.8838 242.155 73.6784C242.528 73.4731 242.948 73.3704 243.415 73.3704C243.966 73.3704 244.437 73.4824 244.829 73.7064C245.23 73.9304 245.538 74.2711 245.753 74.7284C245.996 74.3084 246.327 73.9771 246.747 73.7344C247.176 73.4918 247.638 73.3704 248.133 73.3704C248.964 73.3704 249.626 73.6224 250.121 74.1264C250.616 74.6211 250.863 75.3864 250.863 76.4224V80.4824H249.701V76.5484C249.701 75.8298 249.556 75.2884 249.267 74.9244C248.978 74.5604 248.562 74.3784 248.021 74.3784C247.461 74.3784 246.994 74.5978 246.621 75.0364C246.257 75.4658 246.075 76.0818 246.075 76.8844V80.4824H244.899V76.5484C244.899 75.8298 244.754 75.2884 244.465 74.9244C244.176 74.5604 243.76 74.3784 243.219 74.3784C242.668 74.3784 242.206 74.5978 241.833 75.0364C241.469 75.4658 241.287 76.0818 241.287 76.8844V80.4824H240.111ZM254.944 80.6504C254.366 80.6504 253.885 80.5524 253.502 80.3564C253.12 80.1604 252.835 79.8991 252.648 79.5724C252.462 79.2458 252.368 78.8911 252.368 78.5084C252.368 77.7991 252.639 77.2531 253.18 76.8704C253.722 76.4878 254.459 76.2964 255.392 76.2964H257.268V76.2124C257.268 75.6058 257.11 75.1484 256.792 74.8404C256.475 74.5231 256.05 74.3644 255.518 74.3644C255.061 74.3644 254.664 74.4811 254.328 74.7144C254.002 74.9384 253.796 75.2698 253.712 75.7084H252.508C252.555 75.2044 252.723 74.7798 253.012 74.4344C253.311 74.0891 253.68 73.8278 254.118 73.6504C254.557 73.4638 255.024 73.3704 255.518 73.3704C256.489 73.3704 257.217 73.6318 257.702 74.1544C258.197 74.6678 258.444 75.3538 258.444 76.2124V80.4824H257.394L257.324 79.2364C257.128 79.6284 256.839 79.9644 256.456 80.2444C256.083 80.5151 255.579 80.6504 254.944 80.6504ZM255.126 79.6564C255.574 79.6564 255.957 79.5398 256.274 79.3064C256.601 79.0731 256.848 78.7698 257.016 78.3964C257.184 78.0231 257.268 77.6311 257.268 77.2204V77.2064H255.49C254.8 77.2064 254.31 77.3278 254.02 77.5704C253.74 77.8038 253.6 78.0978 253.6 78.4524C253.6 78.8164 253.731 79.1104 253.992 79.3344C254.263 79.5491 254.641 79.6564 255.126 79.6564ZM260.209 83.5624V73.5384H261.273L261.385 74.6864C261.609 74.3504 261.926 74.0471 262.337 73.7764C262.757 73.5058 263.289 73.3704 263.933 73.3704C264.623 73.3704 265.225 73.5291 265.739 73.8464C266.252 74.1638 266.649 74.5978 266.929 75.1484C267.218 75.6991 267.363 76.3244 267.363 77.0244C267.363 77.7244 267.218 78.3498 266.929 78.9004C266.649 79.4418 266.247 79.8711 265.725 80.1884C265.211 80.4964 264.609 80.6504 263.919 80.6504C263.349 80.6504 262.841 80.5338 262.393 80.3004C261.954 80.0671 261.618 79.7404 261.385 79.3204V83.5624H260.209ZM263.793 79.6284C264.259 79.6284 264.67 79.5211 265.025 79.3064C265.379 79.0824 265.659 78.7744 265.865 78.3824C266.07 77.9904 266.173 77.5331 266.173 77.0104C266.173 76.4878 266.07 76.0304 265.865 75.6384C265.659 75.2464 265.379 74.9431 265.025 74.7284C264.67 74.5044 264.259 74.3924 263.793 74.3924C263.326 74.3924 262.915 74.5044 262.561 74.7284C262.206 74.9431 261.926 75.2464 261.721 75.6384C261.515 76.0304 261.413 76.4878 261.413 77.0104C261.413 77.5331 261.515 77.9904 261.721 78.3824C261.926 78.7744 262.206 79.0824 262.561 79.3064C262.915 79.5211 263.326 79.6284 263.793 79.6284ZM34.2393 102.65C33.6606 102.65 33.1799 102.552 32.7973 102.356C32.4146 102.16 32.1299 101.899 31.9433 101.572C31.7566 101.246 31.6633 100.891 31.6633 100.508C31.6633 99.7991 31.9339 99.2531 32.4753 98.8704C33.0166 98.4878 33.7539 98.2964 34.6873 98.2964H36.5633V98.2124C36.5633 97.6058 36.4046 97.1484 36.0873 96.8404C35.7699 96.5231 35.3453 96.3644 34.8133 96.3644C34.3559 96.3644 33.9593 96.4811 33.6233 96.7144C33.2966 96.9384 33.0913 97.2698 33.0073 97.7084H31.8033C31.8499 97.2044 32.0179 96.7798 32.3073 96.4344C32.6059 96.0891 32.9746 95.8278 33.4133 95.6504C33.8519 95.4638 34.3186 95.3704 34.8133 95.3704C35.7839 95.3704 36.5119 95.6318 36.9973 96.1544C37.4919 96.6678 37.7393 97.3538 37.7393 98.2124V102.482H36.6893L36.6193 101.236C36.4233 101.628 36.1339 101.964 35.7513 102.244C35.3779 102.515 34.8739 102.65 34.2393 102.65ZM34.4213 101.656C34.8693 101.656 35.2519 101.54 35.5693 101.306C35.8959 101.073 36.1433 100.77 36.3113 100.396C36.4793 100.023 36.5633 99.6311 36.5633 99.2204V99.2064H34.7853C34.0946 99.2064 33.6046 99.3278 33.3153 99.5704C33.0353 99.8038 32.8953 100.098 32.8953 100.452C32.8953 100.816 33.0259 101.11 33.2873 101.334C33.5579 101.549 33.9359 101.656 34.4213 101.656ZM39.5035 102.482V95.5384H40.5675L40.6375 96.7844C40.8615 96.3458 41.1835 96.0004 41.6035 95.7484C42.0235 95.4964 42.4995 95.3704 43.0315 95.3704C43.8528 95.3704 44.5061 95.6224 44.9915 96.1264C45.4861 96.6211 45.7335 97.3864 45.7335 98.4224V102.482H44.5575V98.5484C44.5575 97.1018 43.9601 96.3784 42.7655 96.3784C42.1681 96.3784 41.6688 96.5978 41.2675 97.0364C40.8755 97.4658 40.6795 98.0818 40.6795 98.8844V102.482H39.5035ZM50.6652 102.65C49.9745 102.65 49.3679 102.492 48.8452 102.174C48.3319 101.857 47.9305 101.423 47.6412 100.872C47.3612 100.322 47.2212 99.6964 47.2212 98.9964C47.2212 98.2964 47.3659 97.6758 47.6552 97.1344C47.9445 96.5838 48.3459 96.1544 48.8592 95.8464C49.3725 95.5291 49.9792 95.3704 50.6792 95.3704C51.2485 95.3704 51.7525 95.4871 52.1912 95.7204C52.6299 95.9538 52.9705 96.2804 53.2132 96.7004V92.4024H54.3892V102.482H53.3252L53.2132 101.334C52.9892 101.67 52.6672 101.974 52.2472 102.244C51.8272 102.515 51.2999 102.65 50.6652 102.65ZM50.7912 101.628C51.2579 101.628 51.6685 101.521 52.0232 101.306C52.3872 101.082 52.6672 100.774 52.8632 100.382C53.0685 99.9904 53.1712 99.5331 53.1712 99.0104C53.1712 98.4878 53.0685 98.0304 52.8632 97.6384C52.6672 97.2464 52.3872 96.9431 52.0232 96.7284C51.6685 96.5044 51.2579 96.3924 50.7912 96.3924C50.3339 96.3924 49.9232 96.5044 49.5592 96.7284C49.2045 96.9431 48.9245 97.2464 48.7192 97.6384C48.5232 98.0304 48.4252 98.4878 48.4252 99.0104C48.4252 99.5331 48.5232 99.9904 48.7192 100.382C48.9245 100.774 49.2045 101.082 49.5592 101.306C49.9232 101.521 50.3339 101.628 50.7912 101.628ZM63.7213 102.65C63.152 102.65 62.6433 102.534 62.1953 102.3C61.7566 102.067 61.4206 101.74 61.1873 101.32L61.0753 102.482H60.0113V92.4024H61.1873V96.6864C61.4113 96.3504 61.7286 96.0471 62.1393 95.7764C62.5593 95.5058 63.0913 95.3704 63.7353 95.3704C64.426 95.3704 65.028 95.5291 65.5413 95.8464C66.0546 96.1638 66.4513 96.5978 66.7313 97.1484C67.0206 97.6991 67.1653 98.3244 67.1653 99.0244C67.1653 99.7244 67.0206 100.35 66.7313 100.9C66.4513 101.442 66.05 101.871 65.5273 102.188C65.014 102.496 64.412 102.65 63.7213 102.65ZM63.5953 101.628C64.062 101.628 64.4726 101.521 64.8273 101.306C65.182 101.082 65.462 100.774 65.6673 100.382C65.8726 99.9904 65.9753 99.5331 65.9753 99.0104C65.9753 98.4878 65.8726 98.0304 65.6673 97.6384C65.462 97.2464 65.182 96.9431 64.8273 96.7284C64.4726 96.5044 64.062 96.3924 63.5953 96.3924C63.1286 96.3924 62.718 96.5044 62.3633 96.7284C62.0086 96.9431 61.7286 97.2464 61.5233 97.6384C61.318 98.0304 61.2153 98.4878 61.2153 99.0104C61.2153 99.5331 61.318 99.9904 61.5233 100.382C61.7286 100.774 62.0086 101.082 62.3633 101.306C62.718 101.521 63.1286 101.628 63.5953 101.628ZM71.9243 102.65C71.2616 102.65 70.6736 102.501 70.1603 102.202C69.647 101.894 69.241 101.47 68.9423 100.928C68.653 100.387 68.5083 99.7478 68.5083 99.0104C68.5083 98.2824 68.653 97.6478 68.9423 97.1064C69.2316 96.5558 69.633 96.1311 70.1463 95.8324C70.669 95.5244 71.271 95.3704 71.9523 95.3704C72.6243 95.3704 73.203 95.5244 73.6883 95.8324C74.183 96.1311 74.561 96.5278 74.8223 97.0224C75.0836 97.5171 75.2143 98.0491 75.2143 98.6184C75.2143 98.7211 75.2096 98.8238 75.2003 98.9264C75.2003 99.0291 75.2003 99.1458 75.2003 99.2764H69.6703C69.6983 99.8084 69.8196 100.252 70.0343 100.606C70.2583 100.952 70.5336 101.213 70.8603 101.39C71.1963 101.568 71.551 101.656 71.9243 101.656C72.4096 101.656 72.8156 101.544 73.1423 101.32C73.469 101.096 73.707 100.793 73.8563 100.41H75.0183C74.8316 101.054 74.4723 101.591 73.9403 102.02C73.4176 102.44 72.7456 102.65 71.9243 102.65ZM71.9243 96.3644C71.3643 96.3644 70.865 96.5371 70.4263 96.8824C69.997 97.2184 69.7496 97.7131 69.6843 98.3664H74.0523C74.0243 97.7411 73.8096 97.2511 73.4083 96.8964C73.007 96.5418 72.5123 96.3644 71.9243 96.3644ZM83.6001 102.65C82.9374 102.65 82.3494 102.501 81.8361 102.202C81.3228 101.894 80.9168 101.47 80.6181 100.928C80.3288 100.387 80.1841 99.7478 80.1841 99.0104C80.1841 98.2824 80.3288 97.6478 80.6181 97.1064C80.9074 96.5558 81.3088 96.1311 81.8221 95.8324C82.3448 95.5244 82.9468 95.3704 83.6281 95.3704C84.3001 95.3704 84.8788 95.5244 85.3641 95.8324C85.8588 96.1311 86.2368 96.5278 86.4981 97.0224C86.7594 97.5171 86.8901 98.0491 86.8901 98.6184C86.8901 98.7211 86.8854 98.8238 86.8761 98.9264C86.8761 99.0291 86.8761 99.1458 86.8761 99.2764H81.3461C81.3741 99.8084 81.4954 100.252 81.7101 100.606C81.9341 100.952 82.2094 101.213 82.5361 101.39C82.8721 101.568 83.2268 101.656 83.6001 101.656C84.0854 101.656 84.4914 101.544 84.8181 101.32C85.1448 101.096 85.3828 100.793 85.5321 100.41H86.6941C86.5074 101.054 86.1481 101.591 85.6161 102.02C85.0934 102.44 84.4214 102.65 83.6001 102.65ZM83.6001 96.3644C83.0401 96.3644 82.5408 96.5371 82.1021 96.8824C81.6728 97.2184 81.4254 97.7131 81.3601 98.3664H85.7281C85.7001 97.7411 85.4854 97.2511 85.0841 96.8964C84.6828 96.5418 84.1881 96.3644 83.6001 96.3644ZM88.8268 102.482V96.5324H87.7768V95.5384H88.8268V94.3344C88.8268 93.6624 88.9948 93.1724 89.3308 92.8644C89.6668 92.5564 90.1568 92.4024 90.8008 92.4024H91.5008V93.4104H90.9828C90.6281 93.4104 90.3761 93.4851 90.2268 93.6344C90.0775 93.7744 90.0028 94.0171 90.0028 94.3624V95.5384H91.7108V96.5324H90.0028V102.482H88.8268ZM93.4889 102.482V96.5324H92.4389V95.5384H93.4889V94.3344C93.4889 93.6624 93.6569 93.1724 93.9929 92.8644C94.3289 92.5564 94.8189 92.4024 95.4629 92.4024H96.1629V93.4104H95.6449C95.2902 93.4104 95.0382 93.4851 94.8889 93.6344C94.7396 93.7744 94.6649 94.0171 94.6649 94.3624V95.5384H98.9769V102.482H97.8009V96.5324H94.6649V102.482H93.4889ZM98.4029 94.2084C98.1789 94.2084 97.9876 94.1338 97.8289 93.9844C97.6702 93.8258 97.5909 93.6298 97.5909 93.3964C97.5909 93.1724 97.6702 92.9858 97.8289 92.8364C97.9876 92.6871 98.1789 92.6124 98.4029 92.6124C98.6362 92.6124 98.8276 92.6871 98.9769 92.8364C99.1356 92.9858 99.2149 93.1724 99.2149 93.3964C99.2149 93.6298 99.1356 93.8258 98.9769 93.9844C98.8276 94.1338 98.6362 94.2084 98.4029 94.2084ZM104.246 102.65C103.584 102.65 102.986 102.501 102.454 102.202C101.932 101.894 101.516 101.47 101.208 100.928C100.91 100.378 100.76 99.7384 100.76 99.0104C100.76 98.2824 100.91 97.6478 101.208 97.1064C101.516 96.5558 101.932 96.1311 102.454 95.8324C102.986 95.5244 103.584 95.3704 104.246 95.3704C105.068 95.3704 105.758 95.5851 106.318 96.0144C106.888 96.4438 107.247 97.0178 107.396 97.7364H106.192C106.099 97.3071 105.87 96.9758 105.506 96.7424C105.142 96.4998 104.718 96.3784 104.232 96.3784C103.84 96.3784 103.472 96.4764 103.126 96.6724C102.781 96.8684 102.501 97.1624 102.286 97.5544C102.072 97.9464 101.964 98.4318 101.964 99.0104C101.964 99.5891 102.072 100.074 102.286 100.466C102.501 100.858 102.781 101.157 103.126 101.362C103.472 101.558 103.84 101.656 104.232 101.656C104.718 101.656 105.142 101.54 105.506 101.306C105.87 101.064 106.099 100.723 106.192 100.284H107.396C107.256 100.984 106.902 101.554 106.332 101.992C105.763 102.431 105.068 102.65 104.246 102.65ZM109.753 93.9984C109.519 93.9984 109.323 93.9238 109.165 93.7744C109.015 93.6158 108.941 93.4198 108.941 93.1864C108.941 92.9624 109.015 92.7758 109.165 92.6264C109.323 92.4771 109.519 92.4024 109.753 92.4024C109.977 92.4024 110.168 92.4771 110.327 92.6264C110.485 92.7758 110.565 92.9624 110.565 93.1864C110.565 93.4198 110.485 93.6158 110.327 93.7744C110.168 93.9238 109.977 93.9984 109.753 93.9984ZM109.165 102.482V95.5384H110.341V102.482H109.165ZM115.51 102.65C114.848 102.65 114.26 102.501 113.746 102.202C113.233 101.894 112.827 101.47 112.528 100.928C112.239 100.387 112.094 99.7478 112.094 99.0104C112.094 98.2824 112.239 97.6478 112.528 97.1064C112.818 96.5558 113.219 96.1311 113.732 95.8324C114.255 95.5244 114.857 95.3704 115.538 95.3704C116.21 95.3704 116.789 95.5244 117.274 95.8324C117.769 96.1311 118.147 96.5278 118.408 97.0224C118.67 97.5171 118.8 98.0491 118.8 98.6184C118.8 98.7211 118.796 98.8238 118.786 98.9264C118.786 99.0291 118.786 99.1458 118.786 99.2764H113.256C113.284 99.8084 113.406 100.252 113.62 100.606C113.844 100.952 114.12 101.213 114.446 101.39C114.782 101.568 115.137 101.656 115.51 101.656C115.996 101.656 116.402 101.544 116.728 101.32C117.055 101.096 117.293 100.793 117.442 100.41H118.604C118.418 101.054 118.058 101.591 117.526 102.02C117.004 102.44 116.332 102.65 115.51 102.65ZM115.51 96.3644C114.95 96.3644 114.451 96.5371 114.012 96.8824C113.583 97.2184 113.336 97.7131 113.27 98.3664H117.638C117.61 97.7411 117.396 97.2511 116.994 96.8964C116.593 96.5418 116.098 96.3644 115.51 96.3644ZM120.359 102.482V95.5384H121.423L121.493 96.7844C121.717 96.3458 122.039 96.0004 122.459 95.7484C122.879 95.4964 123.355 95.3704 123.887 95.3704C124.708 95.3704 125.362 95.6224 125.847 96.1264C126.342 96.6211 126.589 97.3864 126.589 98.4224V102.482H125.413V98.5484C125.413 97.1018 124.816 96.3784 123.621 96.3784C123.024 96.3784 122.524 96.5978 122.123 97.0364C121.731 97.4658 121.535 98.0818 121.535 98.8844V102.482H120.359ZM131.115 102.482C130.48 102.482 129.981 102.328 129.617 102.02C129.253 101.712 129.071 101.157 129.071 100.354V96.5324H127.867V95.5384H129.071L129.225 93.8724H130.247V95.5384H132.291V96.5324H130.247V100.354C130.247 100.793 130.335 101.092 130.513 101.25C130.69 101.4 131.003 101.474 131.451 101.474H132.179V102.482H131.115Z" fill="#565359"/>
<path d="M61.0513 47.4824V36.2824H65.1953C66.0913 36.2824 66.8326 36.4318 67.4193 36.7304C68.0059 37.0291 68.4433 37.4398 68.7313 37.9624C69.0193 38.4851 69.1633 39.0718 69.1633 39.7224C69.1633 40.3411 69.0246 40.9118 68.7473 41.4344C68.4699 41.9464 68.0379 42.3624 67.4513 42.6824C66.8646 42.9918 66.1126 43.1464 65.1953 43.1464H63.0993V47.4824H61.0513ZM63.0993 41.4824H65.0673C65.7819 41.4824 66.2939 41.3278 66.6033 41.0184C66.9233 40.6984 67.0833 40.2664 67.0833 39.7224C67.0833 39.1678 66.9233 38.7358 66.6033 38.4264C66.2939 38.1064 65.7819 37.9464 65.0673 37.9464H63.0993V41.4824ZM70.722 47.4824V35.9624H72.77V47.4824H70.722ZM77.5986 47.6744C76.916 47.6744 76.356 47.5678 75.9186 47.3544C75.4813 47.1304 75.156 46.8371 74.9426 46.4744C74.7293 46.1118 74.6226 45.7118 74.6226 45.2744C74.6226 44.5384 74.9106 43.9411 75.4866 43.4824C76.0626 43.0238 76.9266 42.7944 78.0786 42.7944H80.0946V42.6024C80.0946 42.0584 79.94 41.6584 79.6306 41.4024C79.3213 41.1464 78.9373 41.0184 78.4786 41.0184C78.0626 41.0184 77.7 41.1198 77.3906 41.3224C77.0813 41.5144 76.8893 41.8024 76.8146 42.1864H74.8146C74.868 41.6104 75.06 41.1091 75.3906 40.6824C75.732 40.2558 76.1693 39.9304 76.7026 39.7064C77.236 39.4718 77.8333 39.3544 78.4946 39.3544C79.6253 39.3544 80.516 39.6371 81.1666 40.2024C81.8173 40.7678 82.1426 41.5678 82.1426 42.6024V47.4824H80.3986L80.2066 46.2024C79.972 46.6291 79.6413 46.9811 79.2146 47.2584C78.7986 47.5358 78.26 47.6744 77.5986 47.6744ZM78.0626 46.0744C78.6493 46.0744 79.1026 45.8824 79.4226 45.4984C79.7533 45.1144 79.9613 44.6398 80.0466 44.0744H78.3026C77.7586 44.0744 77.3693 44.1758 77.1346 44.3784C76.9 44.5704 76.7826 44.8104 76.7826 45.0984C76.7826 45.4078 76.9 45.6478 77.1346 45.8184C77.3693 45.9891 77.6786 46.0744 78.0626 46.0744ZM84.097 47.4824V39.5464H85.905L86.065 40.8904C86.3103 40.4211 86.6623 40.0478 87.121 39.7704C87.5903 39.4931 88.1397 39.3544 88.769 39.3544C89.7503 39.3544 90.513 39.6638 91.057 40.2824C91.601 40.9011 91.873 41.8078 91.873 43.0024V47.4824H89.825V43.1944C89.825 42.5118 89.6863 41.9891 89.409 41.6264C89.1317 41.2638 88.6997 41.0824 88.113 41.0824C87.537 41.0824 87.0623 41.2851 86.689 41.6904C86.3263 42.0958 86.145 42.6611 86.145 43.3864V47.4824H84.097Z" fill="#26262B"/>
<circle cx="42.9633" cy="42.4824" r="12" fill="#2684FF" fill-opacity="0.2"/>
<path d="M44.9359 47.8151C44.7303 47.8151 44.5636 47.6484 44.5636 47.4428V46.4096C44.5636 46.204 44.3969 46.0373 44.1913 46.0373H42.8025C42.5969 46.0373 42.4302 45.8706 42.4302 45.665V40.4837C42.4302 40.2781 42.2636 40.1114 42.058 40.1114H41.7359C41.5303 40.1114 41.3636 40.2781 41.3636 40.4837V41.5169C41.3636 41.7225 41.1969 41.8892 40.9913 41.8892H38.0025C37.7969 41.8892 37.6302 41.7225 37.6302 41.5169V37.5207C37.6302 37.3151 37.7969 37.1484 38.0025 37.1484H40.9913C41.1969 37.1484 41.3636 37.3151 41.3636 37.5207V38.5539C41.3636 38.7595 41.5303 38.9262 41.7359 38.9262H44.1913C44.3969 38.9262 44.5636 38.7595 44.5636 38.5539V37.5207C44.5636 37.3151 44.7303 37.1484 44.9359 37.1484H47.9246C48.1302 37.1484 48.2969 37.3151 48.2969 37.5207V41.5169C48.2969 41.7225 48.1302 41.8892 47.9246 41.8892H44.9359C44.7303 41.8892 44.5636 41.7225 44.5636 41.5169V40.4837C44.5636 40.2781 44.3969 40.1114 44.1913 40.1114H43.8692C43.6636 40.1114 43.4969 40.2781 43.4969 40.4837V44.4798C43.4969 44.6855 43.6636 44.8521 43.8692 44.8521H44.1913C44.3969 44.8521 44.5636 44.6855 44.5636 44.4798V43.4467C44.5636 43.241 44.7303 43.0744 44.9359 43.0744H47.9246C48.1302 43.0744 48.2969 43.241 48.2969 43.4467V47.4428C48.2969 47.6484 48.1302 47.8151 47.9246 47.8151H44.9359ZM45.6302 40.3317C45.6302 40.5373 45.7969 40.704 46.0025 40.704H46.858C47.0636 40.704 47.2302 40.5373 47.2302 40.3317V38.7059C47.2302 38.5003 47.0636 38.3336 46.858 38.3336H46.0025C45.7969 38.3336 45.6302 38.5003 45.6302 38.7059V40.3317ZM45.6302 46.2576C45.6302 46.4632 45.7969 46.6299 46.0025 46.6299H46.858C47.0636 46.6299 47.2302 46.4632 47.2302 46.2576V44.6318C47.2302 44.4262 47.0636 44.2595 46.858 44.2595H46.0025C45.7969 44.2595 45.6302 44.4262 45.6302 44.6318V46.2576ZM38.6969 40.3317C38.6969 40.5373 38.8636 40.704 39.0692 40.704H39.9246C40.1302 40.704 40.2969 40.5373 40.2969 40.3317V38.7059C40.2969 38.5003 40.1302 38.3336 39.9246 38.3336H39.0692C38.8636 38.3336 38.6969 38.5003 38.6969 38.7059V40.3317Z" fill="#2684FF"/>
<defs>
<filter id="filter0_d_480_10128" x="0.963257" y="0.482422" width="320" height="144" filterUnits="userSpaceOnUse" color-interpolation-filters="sRGB">
<feFlood flood-opacity="0" result="BackgroundImageFix"/>
<feColorMatrix in="SourceAlpha" type="matrix" values="0 0 0 0 0 0 0 0 0 0 0 0 0 0 0 0 0 0 127 0" result="hardAlpha"/>
<feOffset/>
<feGaussianBlur stdDeviation="10"/>
<feComposite in2="hardAlpha" operator="out"/>
<feColorMatrix type="matrix" values="0 0 0 0 0.847059 0 0 0 0 0.847059 0 0 0 0 0.85098 0 0 0 0.2 0"/>
<feBlend mode="normal" in2="BackgroundImageFix" result="effect1_dropShadow_480_10128"/>
<feBlend mode="normal" in="SourceGraphic" in2="effect1_dropShadow_480_10128" result="shape"/>
</filter>
</defs>
</svg>
