<svg id="Group_1023" data-name="Group 1023" xmlns="http://www.w3.org/2000/svg" width="493.997" height="351.309" viewBox="0 0 493.997 351.309">
  <path id="Path_1071" data-name="Path 1071" d="M643.62,572.431A28.033,28.033,0,0,1,621.01,564c-3.8-4-6.4-9.153-8.919-14.134-.733-1.45-1.491-2.948-2.262-4.385a8.946,8.946,0,0,1,.928-9.982,8.8,8.8,0,0,1,9.389-3l.367.106,3.308,12.909c.493-1.925,1.553-6.264,2.222-10.514l.056-.356.329.147a45,45,0,0,1,9.667,5.826,46.377,46.377,0,0,1,17.342,34.925l.009.4-9.827-3.509Z" transform="translate(-258.15 -225.671)" fill="#f2f2f2"/>
  <path id="Path_1072" data-name="Path 1072" d="M737.848,608.681l-160.537.177a.686.686,0,0,1,0-1.371l160.537-.177a.686.686,0,1,1,0,1.371Z" transform="translate(-244.538 -257.549)" fill="#cacaca"/>
  <path id="Path_1073" data-name="Path 1073" d="M78.805,107.72h-6a2.16,2.16,0,0,0-2.16,2.16h0a2.16,2.16,0,0,1-2.16,2.16h-20a2.16,2.16,0,0,1-2.16-2.16l-.4-2.19.026.03-.026-.03-3.625-4.621a1.258,1.258,0,0,0-1.007-.489H34.5a1.282,1.282,0,0,0-1.28,1.28l-.14,3.83h-2.57a4.11,4.11,0,0,0-4.11,4.11v26.771a3.648,3.648,0,0,0,3.648,3.648H78.805a3.651,3.651,0,0,0,3.647-3.648v-27.2a3.647,3.647,0,0,0-3.647-3.647h0Z" transform="translate(-11.197 -43.502)" fill="#f2f2f2"/>
  <path id="Path_1074" data-name="Path 1074" d="M50.958,107.519H38.246v-3.83a1.282,1.282,0,0,1,1.28-1.28h6.8a1.258,1.258,0,0,1,1.007.489l3.627,4.621Z" transform="translate(-16.22 -43.429)" fill="#e6e6e6"/>
  <path id="Path_1075" data-name="Path 1075" d="M54.125,158.286H32.9a2.537,2.537,0,0,1-2.534-2.534v-5.805a2.537,2.537,0,0,1,2.534-2.534H58.375a2.537,2.537,0,0,1,2.534,2.534V151.5a6.792,6.792,0,0,1-6.785,6.785Z" transform="translate(-12.877 -62.515)" fill="#fff"/>
  <path id="Path_1076" data-name="Path 1076" d="M40.567,153.123H35.328a1.285,1.285,0,0,1-.008-2.57h5.247a1.285,1.285,0,0,1,.008,2.57Z" transform="translate(-14.435 -63.847)" fill="#f2f2f2"/>
  <path id="Path_1077" data-name="Path 1077" d="M58.36,160.16H35.328a1.285,1.285,0,0,1-.008-2.57H58.36a1.285,1.285,0,0,1,.008,2.57H58.36Z" transform="translate(-14.435 -66.831)" fill="#f2f2f2"/>
  <path id="Path_1078" data-name="Path 1078" d="M78.805,253.72h-6a2.16,2.16,0,0,0-2.16,2.16h0a2.16,2.16,0,0,1-2.16,2.16h-20a2.16,2.16,0,0,1-2.16-2.16l-.4-2.19.026.03-.026-.03-3.625-4.621a1.258,1.258,0,0,0-1.007-.489H34.5a1.282,1.282,0,0,0-1.28,1.28l-.14,3.83h-2.57a4.11,4.11,0,0,0-4.11,4.11v26.771a3.648,3.648,0,0,0,3.648,3.648H78.805a3.651,3.651,0,0,0,3.647-3.648v-27.2a3.647,3.647,0,0,0-3.647-3.647h0Z" transform="translate(-11.197 -105.418)" fill="#f2f2f2"/>
  <path id="Path_1079" data-name="Path 1079" d="M50.958,253.519H38.246v-3.831a1.282,1.282,0,0,1,1.28-1.28h6.8a1.258,1.258,0,0,1,1.007.489l3.627,4.621Z" transform="translate(-16.22 -105.346)" fill="#e6e6e6"/>
  <path id="Path_1080" data-name="Path 1080" d="M54.125,304.286H32.9a2.537,2.537,0,0,1-2.534-2.534v-5.805a2.537,2.537,0,0,1,2.534-2.534H58.375a2.537,2.537,0,0,1,2.534,2.534V297.5a6.792,6.792,0,0,1-6.785,6.785Z" transform="translate(-12.877 -124.431)" fill="#fff"/>
  <path id="Path_1081" data-name="Path 1081" d="M40.567,299.123H35.328a1.285,1.285,0,0,1-.008-2.57h5.247a1.285,1.285,0,0,1,.008,2.57Z" transform="translate(-14.435 -125.763)" fill="#f2f2f2"/>
  <path id="Path_1082" data-name="Path 1082" d="M58.36,306.16H35.328a1.285,1.285,0,1,1-.008-2.57H58.36a1.285,1.285,0,1,1,.008,2.57H58.36Z" transform="translate(-14.435 -128.747)" fill="#f2f2f2"/>
  <path id="Path_1083" data-name="Path 1083" d="M78.805,399.72h-6a2.16,2.16,0,0,0-2.16,2.16h0a2.16,2.16,0,0,1-2.16,2.16h-20a2.16,2.16,0,0,1-2.16-2.16l-.4-2.19.026.03-.026-.03-3.625-4.621a1.258,1.258,0,0,0-1.007-.489H34.5a1.282,1.282,0,0,0-1.28,1.28l-.14,3.831h-2.57a4.11,4.11,0,0,0-4.11,4.11v26.771a3.648,3.648,0,0,0,3.648,3.648H78.805a3.651,3.651,0,0,0,3.647-3.648v-27.2a3.647,3.647,0,0,0-3.647-3.647h0Z" transform="translate(-11.197 -167.334)" fill="#f2f2f2"/>
  <path id="Path_1084" data-name="Path 1084" d="M50.958,399.519H38.246v-3.83a1.282,1.282,0,0,1,1.28-1.28h6.8a1.258,1.258,0,0,1,1.007.489l3.627,4.621Z" transform="translate(-16.22 -167.262)" fill="#e6e6e6"/>
  <path id="Path_1085" data-name="Path 1085" d="M54.125,450.286H32.9a2.537,2.537,0,0,1-2.534-2.534v-5.805a2.537,2.537,0,0,1,2.534-2.534H58.375a2.537,2.537,0,0,1,2.534,2.534V443.5a6.792,6.792,0,0,1-6.785,6.785Z" transform="translate(-12.877 -186.347)" fill="#fff"/>
  <path id="Path_1086" data-name="Path 1086" d="M40.57,445.123H35.331a1.285,1.285,0,0,1,0-2.57H40.57a1.285,1.285,0,0,1,0,2.57Z" transform="translate(-14.438 -187.679)" fill="#f2f2f2"/>
  <path id="Path_1087" data-name="Path 1087" d="M58.363,452.16H35.331a1.285,1.285,0,0,1,0-2.57H58.363a1.285,1.285,0,0,1,0,2.57h0Z" transform="translate(-14.438 -190.663)" fill="#f2f2f2"/>
  <path id="Path_1088" data-name="Path 1088" d="M303.28,136.408a3.55,3.55,0,0,0-3.546,3.546V202.09a3.55,3.55,0,0,0,3.546,3.546h87.89a3.55,3.55,0,0,0,3.546-3.546V139.954a3.55,3.55,0,0,0-3.546-3.546H303.28Z" transform="translate(-127.112 -57.848)" fill="#e6e6e6"/>
  <path id="Path_1089" data-name="Path 1089" d="M361.191,204.243h-53.8a3.821,3.821,0,0,1-3.816-3.816V144.07a3.821,3.821,0,0,1,3.816-3.816h82.923a3.821,3.821,0,0,1,3.816,3.816V171.3a32.98,32.98,0,0,1-32.942,32.942Z" transform="translate(-128.742 -59.479)" fill="#fff"/>
  <path id="Path_1090" data-name="Path 1090" d="M356.711,165.536H343.927a1.221,1.221,0,0,1,0-2.442h12.784a1.221,1.221,0,0,1,0,2.442Z" transform="translate(-145.336 -69.165)" fill="#6c63ff"/>
  <path id="Path_1091" data-name="Path 1091" d="M385.37,174.206H343.928a1.221,1.221,0,0,1,0-2.442H385.37a1.221,1.221,0,0,1,0,2.442Z" transform="translate(-145.336 -72.842)" fill="#e6e6e6"/>
  <path id="Path_1092" data-name="Path 1092" d="M385.37,184.158H343.928a1.221,1.221,0,0,1,0-2.442H385.37a1.221,1.221,0,0,1,0,2.442Z" transform="translate(-145.336 -77.063)" fill="#e6e6e6"/>
  <path id="Path_1093" data-name="Path 1093" d="M385.37,194.11H343.928a1.221,1.221,0,0,1,0-2.442H385.37a1.221,1.221,0,0,1,0,2.442Z" transform="translate(-145.336 -81.283)" fill="#e6e6e6"/>
  <path id="Path_1094" data-name="Path 1094" d="M385.37,204.062H343.928a1.221,1.221,0,0,1,0-2.442H385.37a1.221,1.221,0,0,1,0,2.442Z" transform="translate(-145.336 -85.504)" fill="#e6e6e6"/>
  <path id="Path_1095" data-name="Path 1095" d="M362.875,200.787H345.526a6.247,6.247,0,0,0-6.247,6.247h0a6.247,6.247,0,0,1-6.247,6.247H275.193a6.247,6.247,0,0,1-6.247-6.247h0L267.8,200.7l.074.086-.074-.086-10.484-13.366a3.639,3.639,0,0,0-2.913-1.415H234.742a3.707,3.707,0,0,0-3.7,3.7l-.406,11.079H223.2a11.888,11.888,0,0,0-11.888,11.888v77.429a10.55,10.55,0,0,0,10.55,10.55H362.875a10.56,10.56,0,0,0,10.547-10.55V211.335a10.547,10.547,0,0,0-10.547-10.547h0Z" transform="translate(-89.614 -78.845)" fill="#e6e6e6"/>
  <path id="Path_1096" data-name="Path 1096" d="M282.335,200.205H245.567V189.126a3.707,3.707,0,0,1,3.7-3.7h19.662a3.639,3.639,0,0,1,2.913,1.415l10.49,13.366Z" transform="translate(-104.141 -78.635)" fill="#ccc"/>
  <path id="Path_1097" data-name="Path 1097" d="M291.493,347.041H230.1a7.338,7.338,0,0,1-7.33-7.33v-16.79a7.338,7.338,0,0,1,7.33-7.33h73.686a7.338,7.338,0,0,1,7.33,7.33v4.5a19.645,19.645,0,0,1-19.623,19.623Z" transform="translate(-94.473 -133.837)" fill="#fff"/>
  <path id="Path_1098" data-name="Path 1098" d="M252.289,332.107H237.136a3.717,3.717,0,1,1,0-7.434h15.153a3.717,3.717,0,1,1,.01,7.434Z" transform="translate(-98.989 -137.688)" fill="#6c63ff"/>
  <path id="Path_1099" data-name="Path 1099" d="M303.752,352.461H237.136a3.717,3.717,0,0,1,0-7.434h66.616a3.717,3.717,0,0,1,.01,7.434Z" transform="translate(-98.989 -146.32)" fill="#6c63ff"/>
  <path id="Path_1100" data-name="Path 1100" d="M328.308,41.236H1.018a1.041,1.041,0,0,1,0-2.081h327.29a1.041,1.041,0,0,1,0,2.081Z" transform="translate(0 -16.605)" fill="#cacaca"/>
  <path id="Path_1101" data-name="Path 1101" d="M784.633,581.572h-5.4l-2.57-20.84h7.974Z" transform="translate(-329.368 -237.797)" fill="#9e616a"/>
  <path id="Path_1102" data-name="Path 1102" d="M778.6,600.093H761.986v-.21a6.467,6.467,0,0,1,6.467-6.467h0l3.035-2.3,5.662,2.3h1.45Z" transform="translate(-323.145 -250.681)" fill="#2f2e41"/>
  <path id="Path_1103" data-name="Path 1103" d="M751.483,549.706l-5.173,1.559-8.476-19.211,7.635-2.3Z" transform="translate(-312.903 -224.659)" fill="#9e616a"/>
  <path id="Path_1104" data-name="Path 1104" d="M752.714,568.855l-15.907,4.8-.061-.2a6.467,6.467,0,0,1,4.325-8.058h0l2.241-3.08,6.086.57,1.389-.419,1.927,6.393Z" transform="translate(-312.324 -238.466)" fill="#2f2e41"/>
  <path id="Path_1105" data-name="Path 1105" d="M733.185,367.642s-5.78,8.824-7.825,14.826c-5.011,14.711-7.408,11.182-13.179,46.95a394.151,394.151,0,0,0,15.585,43.838s11.653-3.277,11.653-5.462-7.435-28.83-8.528-31.926-2.913-4.188-1.275-6.737,15.1-24.835,15.1-24.835-.364,37.985,0,38.713,2.115,44.471,2.115,44.471,11.985,6.135,12.711-.4c.182-1.639.412-44.986.412-45.714s11.094-68.6,5.814-71.327-32.584-2.394-32.584-2.394Z" transform="translate(-302.024 -155.905)" fill="#2f2e41"/>
  <path id="Path_1106" data-name="Path 1106" d="M706.573,364.63a5.064,5.064,0,0,1,6.466-4.3l10.47-14.634,3.353,8.729-10.457,12.559a5.091,5.091,0,0,1-9.833-2.355Z" transform="translate(-299.631 -146.604)" fill="#9e616a"/>
  <path id="Path_1107" data-name="Path 1107" d="M726.545,320.874l-6.961-5.279,14.614-22.5,11.739-45.222,9.294,8.654a6.071,6.071,0,0,1,3.674,3.152c.747,1.526,2.336-1.029,1.742.563l-13.073,35.3-.019.025Z" transform="translate(-305.163 -105.117)" fill="#3f3d56"/>
  <path id="Path_1108" data-name="Path 1108" d="M755.594,244.653l-9.9,3.847-4.069,5.621-9.865,50.6.393,1.708-.982,1.317-.386,1.979.956,1.647-1.68,2.063s.444,1.644,2.091,15.646c1.017,8.64,17.461,3.318,17.461,3.318l7.466-76.735-1.484-11.009Z" transform="translate(-309.606 -103.753)" fill="#3f3d56"/>
  <path id="Path_1109" data-name="Path 1109" d="M779.76,250.377l-8.542-7.641-12.632.761-7.272,8.843-14.1,73.045,29.653,2.471Z" transform="translate(-312.638 -102.94)" fill="#e6e6e6"/>
  <path id="Path_1110" data-name="Path 1110" d="M785.248,244.87l7.769,5.965,2.98,4.348a12.712,12.712,0,0,1,5.786,14.948L792.347,303.4l-.22.68c-.225.659.851,5.875.316,11.493-.139,1.464,1.559,3.1,1.431,4.54-.1,1.13-2.029,2.091-2.114,3.13-.077.937.938,1.828.879,2.636a13.466,13.466,0,0,1-1.268,4.534c-8.039,3.325-23.563.913-23.563.913l14.067-75.8,3.374-10.649Z" transform="translate(-325.614 -103.845)" fill="#3f3d56"/>
  <circle id="Ellipse_300" data-name="Ellipse 300" cx="13.983" cy="13.983" r="13.983" transform="translate(436.966 108.889)" fill="#9e616a"/>
  <path id="Path_1111" data-name="Path 1111" d="M790.638,200.827c-.811,4.6-4.094,9.143-8.678,10.016l-.087-.115a41.86,41.86,0,0,0,.334-6.009,2.331,2.331,0,0,0-4.514-.787c.082-1.75-.659-3.538-1.137-5.226s-.8-3.282-2.467-3.834a8.149,8.149,0,0,0-4.324.185c-1.969.445-2.969.342-3.146-.157l-2.186.8a1.346,1.346,0,0,1-1.552-.477l-.006-.008q-1.909.494-3.818.98a23.3,23.3,0,0,1-.589-2.479,6.657,6.657,0,0,0,2.228-3.464,8.437,8.437,0,0,1-2.45.939,6.291,6.291,0,0,1,2.3-5.057c3.011-2.418,6.029-3.9,9.884-3.707,4.662.235,6.058,5.251,10.3,3.295C786.079,183.249,791.449,196.23,790.638,200.827Z" transform="translate(-321.558 -77.356)" fill="#2f2e41"/>
  <path id="Path_1112" data-name="Path 1112" d="M651.917,228.728a2.85,2.85,0,0,0-4,.43l-31.3,38.833a2.85,2.85,0,0,0,.43,4l54.928,44.279a2.85,2.85,0,0,0,4-.43l31.3-38.833a2.85,2.85,0,0,0-.43-4Z" transform="translate(-261.227 -96.733)" fill="#ccc"/>
  <path id="Path_1113" data-name="Path 1113" d="M655.941,300.363l-33.622-27.1a3.067,3.067,0,0,1-.462-4.308l28.393-35.221a3.067,3.067,0,0,1,4.308-.462l51.824,41.777a3.067,3.067,0,0,1,.462,4.308l-13.719,17.019A26.474,26.474,0,0,1,655.941,300.363Z" transform="translate(-263.432 -98.638)" fill="#fff"/>
  <path id="Path_1114" data-name="Path 1114" d="M694.85,273.29l-7.99-6.441a.98.98,0,0,1,1.224-1.531l.006,0,7.99,6.441a.98.98,0,0,1-1.23,1.526Z" transform="translate(-291.129 -112.426)" fill="#6c63ff"/>
  <path id="Path_1115" data-name="Path 1115" d="M708.391,293.146l-25.9-20.879a.98.98,0,1,1,1.224-1.531l.006,0,25.9,20.879a.98.98,0,0,1-1.23,1.526h0Z" transform="translate(-289.277 -114.724)" fill="#e6e6e6"/>
  <path id="Path_1116" data-name="Path 1116" d="M703.378,299.366l-25.9-20.879a.98.98,0,1,1,1.224-1.531l.006,0,25.9,20.879a.98.98,0,0,1-1.23,1.526Z" transform="translate(-287.151 -117.362)" fill="#e6e6e6"/>
  <path id="Path_1117" data-name="Path 1117" d="M698.364,305.586l-25.9-20.879a.98.98,0,0,1,1.224-1.531l.006,0,25.9,20.879a.98.98,0,0,1-1.23,1.526Z" transform="translate(-285.024 -119.999)" fill="#e6e6e6"/>
  <path id="Path_1118" data-name="Path 1118" d="M693.35,311.805l-25.9-20.879a.98.98,0,1,1,1.224-1.531l.006,0,25.9,20.879a.98.98,0,0,1-1.23,1.526Z" transform="translate(-282.898 -122.637)" fill="#e6e6e6"/>
  <path id="Path_1119" data-name="Path 1119" d="M702.009,322.567a5.064,5.064,0,0,1,7.764,0l16.823-6.385-2.043,9.125-15.662,4.664a5.091,5.091,0,0,1-6.882-7.407Z" transform="translate(-297.196 -134.089)" fill="#9e616a"/>
  <path id="Path_1120" data-name="Path 1120" d="M723.84,307.934l-2.872-8.251L745.6,289.042,776.21,266.3l3.864,4.77a6.126,6.126,0,0,1-.9,8.617q-.128.1-.263.2l-23.524,18.6-.029.01-7.3,2.186-1.635.1-1.745.916-1.55-.5-2.146,1.611-2.464.738Z" transform="translate(-305.75 -112.934)" fill="#3f3d56"/>
  <path id="Path_1121" data-name="Path 1121" d="M471.762,378.892a15.068,15.068,0,1,1,15.068-15.068h0A15.068,15.068,0,0,1,471.762,378.892Z" transform="translate(-193.676 -147.901)" fill="#6c63ff"/>
  <path id="Path_1122" data-name="Path 1122" d="M483.33,367.96h-4.459V363.5a1.486,1.486,0,0,0-2.973,0v4.459h-4.459a1.486,1.486,0,1,0,0,2.973H475.9v4.459a1.486,1.486,0,0,0,2.973,0v-4.459h4.459a1.486,1.486,0,1,0,0-2.973Z" transform="translate(-199.299 -153.524)" fill="#fff"/>
  <path id="Path_1123" data-name="Path 1123" d="M116.1,172.818a7.2,7.2,0,1,1,7.2-7.2h0a7.2,7.2,0,0,1-7.2,7.2Z" transform="translate(-46.18 -67.178)" fill="#e6e6e6"/>
  <path id="Path_1124" data-name="Path 1124" d="M121.631,169.685h-5.686a.711.711,0,0,0,0,1.421h5.686a.711.711,0,1,0,0-1.421Z" transform="translate(-48.869 -71.96)" fill="#fff"/>
  <path id="Path_1125" data-name="Path 1125" d="M116.1,316.818a7.2,7.2,0,1,1,7.2-7.2h0a7.2,7.2,0,0,1-7.2,7.2Z" transform="translate(-46.18 -128.246)" fill="#e6e6e6"/>
  <path id="Path_1126" data-name="Path 1126" d="M121.631,313.685h-5.686a.711.711,0,0,0,0,1.421h5.686a.711.711,0,1,0,0-1.421Z" transform="translate(-48.869 -133.028)" fill="#fff"/>
  <path id="Path_1127" data-name="Path 1127" d="M116.1,460.818a7.2,7.2,0,1,1,7.2-7.2h0A7.2,7.2,0,0,1,116.1,460.818Z" transform="translate(-46.18 -189.314)" fill="#e6e6e6"/>
  <path id="Path_1128" data-name="Path 1128" d="M121.631,457.685h-5.686a.711.711,0,0,0,0,1.421h5.686a.711.711,0,1,0,0-1.421Z" transform="translate(-48.869 -194.096)" fill="#fff"/>
  <g id="Group_1022" data-name="Group 1022" transform="translate(39.403 0)">
    <ellipse id="Ellipse_301" data-name="Ellipse 301" cx="4.87" cy="4.979" rx="4.87" ry="4.979" fill="#3f3d56"/>
    <ellipse id="Ellipse_302" data-name="Ellipse 302" cx="4.87" cy="4.979" rx="4.87" ry="4.979" transform="translate(16.825)" fill="#3f3d56"/>
    <ellipse id="Ellipse_303" data-name="Ellipse 303" cx="4.87" cy="4.979" rx="4.87" ry="4.979" transform="translate(33.649)" fill="#3f3d56"/>
    <path id="Path_1129" data-name="Path 1129" d="M165.77,9.683a.574.574,0,0,1-.412-.173L162.072,6.15a.576.576,0,0,1,0-.805l3.286-3.359a.576.576,0,0,1,.823.805l-2.892,2.956L166.182,8.7a.576.576,0,0,1-.412.979Z" transform="translate(-108.065 -0.769)" fill="#3f3d56"/>
    <path id="Path_1130" data-name="Path 1130" d="M177.778,9.682a.576.576,0,0,1-.412-.979l2.892-2.957-2.892-2.956a.576.576,0,0,1,.823-.805l3.286,3.359a.576.576,0,0,1,0,.805L178.19,9.509A.574.574,0,0,1,177.778,9.682Z" transform="translate(-114.551 -0.768)" fill="#3f3d56"/>
    <path id="Path_1131" data-name="Path 1131" d="M471.284,1h-6.111a1.261,1.261,0,0,0-1.261,1.261V8.378a1.261,1.261,0,0,0,1.261,1.261h6.111a1.266,1.266,0,0,0,1.267-1.261V2.262A1.266,1.266,0,0,0,471.284,1Z" transform="translate(-236.14 -0.424)" fill="#3f3d56"/>
    <path id="Path_1132" data-name="Path 1132" d="M445.284,1h-6.11a1.261,1.261,0,0,0-1.261,1.261V8.378a1.261,1.261,0,0,0,1.261,1.261h6.11a1.266,1.266,0,0,0,1.267-1.261V2.262A1.266,1.266,0,0,0,445.284,1Z" transform="translate(-225.114 -0.424)" fill="#3f3d56"/>
    <path id="Path_1133" data-name="Path 1133" d="M495.784,1.5h-6.11a1.261,1.261,0,0,0-1.261,1.261V8.878a1.261,1.261,0,0,0,1.261,1.261h6.11a1.266,1.266,0,0,0,1.267-1.261V2.762A1.266,1.266,0,0,0,495.784,1.5Z" transform="translate(-246.53 -0.637)" fill="#3f3d56"/>
    <path id="Path_1134" data-name="Path 1134" d="M304.191,5.541H255.348a1.538,1.538,0,1,0,0,3.075h48.844a1.538,1.538,0,0,0,0-3.075Z" transform="translate(-147.04 -2.35)" fill="#3f3d56"/>
  </g>
</svg>
