<svg xmlns="http://www.w3.org/2000/svg" width="577.112" height="417.256" viewBox="0 0 577.112 417.256">
  <g id="Group_1020" data-name="Group 1020" transform="translate(0)">
    <path id="Path_994" data-name="Path 994" d="M233.049,591.6a5.876,5.876,0,0,0-8.953-1.019l-18.556-9.578,1.154,10.79,17.444,7.441a5.908,5.908,0,0,0,8.911-7.634Z" transform="translate(-147.493 -295.823)" fill="#a0616a"/>
    <path id="Path_995" data-name="Path 995" d="M192.725,568.084a2.632,2.632,0,0,1-2.144.023l-17.626-7.646a27.1,27.1,0,0,1-13.71-13.264l-9.266-19.559a8.471,8.471,0,0,1,13.382-10.39l16.288,30.22,15.04,11.361a2.638,2.638,0,0,1,.927,2.876l-1.476,4.768a2.633,2.633,0,0,1-.89,1.292A2.6,2.6,0,0,1,192.725,568.084Z" transform="translate(-123.66 -267.961)" fill="#ccc"/>
    <circle id="Ellipse_284" data-name="Ellipse 284" cx="14.353" cy="14.353" r="14.353" transform="translate(11.558 207.968)" fill="#a0616a"/>
    <path id="Path_996" data-name="Path 996" d="M54.288,682.989h7.164l3.409-27.634H54.286Z" transform="translate(-22.563 -272.387)" fill="#a0616a"/>
    <path id="Path_997" data-name="Path 997" d="M0,0H22.516V8.7H8.7A8.7,8.7,0,0,1,0,0H0Z" transform="translate(52.704 417.254) rotate(179.997)" fill="#2f2e41"/>
    <path id="Path_998" data-name="Path 998" d="M14.288,682.989h7.164l3.409-27.634H14.286Z" transform="translate(-5.938 -272.387)" fill="#a0616a"/>
    <path id="Path_999" data-name="Path 999" d="M0,0H22.516V8.7H8.7A8.7,8.7,0,0,1,0,0H0Z" transform="translate(29.329 417.254) rotate(179.997)" fill="#2f2e41"/>
    <path id="Path_1000" data-name="Path 1000" d="M115.751,713.7a2.629,2.629,0,0,1-.628-2.079l12.543-94.074,31.164,5.292,3.326-2-8.6,89.259a2.637,2.637,0,0,1-2.394,2.316l-9.436.786a2.629,2.629,0,0,1-2.844-2.771l2.443-42.508a.292.292,0,0,0-.574-.094l-12.087,44.821a2.634,2.634,0,0,1-2.539,1.945h-8.4a2.629,2.629,0,0,1-1.979-.9Z" transform="translate(-109.903 -311.012)" fill="#2f2e41"/>
    <path id="Path_1001" data-name="Path 1001" d="M137.818,577.973a2.064,2.064,0,0,0-2.639-.11l-6.23,4.846a2.627,2.627,0,0,1-4.142-1.348c-3.056-10.7-9.98-37.644-8.274-56.605.967-10.748,10.248-18.917,20.69-18.231,7.138.476,11.835,4.594,13.958,12.239,5.214,18.771,10.944,53.2,12.04,59.915a2.618,2.618,0,0,1-1.248,2.682,19.249,19.249,0,0,1-9.754,2.745C148.057,584.1,143.069,582.656,137.818,577.973Z" transform="translate(-110.388 -264.849)" fill="#ccc"/>
    <path id="Path_1002" data-name="Path 1002" d="M142.335,622.24a5.876,5.876,0,0,0-6.416-6.327l-8.691-18.988-5.751,9.2,9.134,16.62a5.908,5.908,0,0,0,11.723-.508Z" transform="translate(-112.554 -302.439)" fill="#a0616a"/>
    <path id="Path_1003" data-name="Path 1003" d="M120.331,581.284a2.633,2.633,0,0,1-1.7-1.305l-9.151-16.893a27.1,27.1,0,0,1-2.6-18.9l4.779-21.109a8.471,8.471,0,1,1,16.942.083l-5.833,33.831,4.823,18.221a2.638,2.638,0,0,1-1.045,2.835l-4.1,2.841a2.633,2.633,0,0,1-1.5.467,2.6,2.6,0,0,1-.61-.073Z" transform="translate(-106.206 -268.243)" fill="#ccc"/>
    <path id="Path_1004" data-name="Path 1004" d="M32.584,460.644,27.325,482.85l7.6,18.7-5.259-18.115Z" transform="translate(-11.357 -191.459)" opacity="0.2"/>
    <path id="Path_1005" data-name="Path 1005" d="M127.234,471.6a9.666,9.666,0,0,1-3.733-.675c-.522-.2-1.065-.367-1.586-.568-4.606-1.779-7.64-6.685-7.748-11.621a16.735,16.735,0,0,1,6.244-12.885,24.163,24.163,0,0,1,13.636-5.154c5.3-.4,11.275.941,14.238,5.358a4.652,4.652,0,0,1,.873,4.021,2.574,2.574,0,0,1-.725,1.114c-1.323,1.177-2.643.292-3.992.214a4.413,4.413,0,0,0-4.118,3.152,9.5,9.5,0,0,0,.148,5.488,13.71,13.71,0,0,1,.691,3.337,3.355,3.355,0,0,1-1.39,2.954,3.829,3.829,0,0,1-3.84-.4,26.673,26.673,0,0,0-3.414-2.186c-1.252-.515-2.935-.4-3.664.741a4.053,4.053,0,0,0-.463,1.337C127.737,468.8,127.888,468.624,127.234,471.6Z" transform="translate(-109.513 -237.478)" fill="#2f2e41"/>
    <path id="Path_1006" data-name="Path 1006" d="M607.627,323.466H252.916a5.1,5.1,0,0,0-5.1,5.1V568.924a5.1,5.1,0,0,0,5.1,5.1H607.627a5.091,5.091,0,0,0,3.874-1.788,1.187,1.187,0,0,0,.111-.14,4.772,4.772,0,0,0,.73-1.233,4.967,4.967,0,0,0,.385-1.934V419.3h-1.455V568.924a3.611,3.611,0,0,1-.6,2,3.771,3.771,0,0,1-1.379,1.239,3.612,3.612,0,0,1-1.665.4H252.916a3.645,3.645,0,0,1-3.641-3.641V328.562a3.645,3.645,0,0,1,3.641-3.641H607.627a3.646,3.646,0,0,1,3.646,3.641v32.3h1.455v-32.3A5.1,5.1,0,0,0,607.627,323.466Z" transform="translate(-165.066 -188.781)" fill="#3f3d56"/>
    <rect id="Rectangle_752" data-name="Rectangle 752" width="363.452" height="1.457" transform="translate(83.48 155.11)" fill="#3f3d56"/>
    <circle id="Ellipse_285" data-name="Ellipse 285" cx="4.37" cy="4.37" r="4.37" transform="translate(91.492 141.242)" fill="#ccc"/>
    <circle id="Ellipse_286" data-name="Ellipse 286" cx="4.37" cy="4.37" r="4.37" transform="translate(104.056 141.242)" fill="#ccc"/>
    <circle id="Ellipse_287" data-name="Ellipse 287" cx="4.37" cy="4.37" r="4.37" transform="translate(116.62 141.242)" fill="#ccc"/>
    <path id="Path_1007" data-name="Path 1007" d="M446.509,579.883a9.046,9.046,0,0,1-8.22-12.729L448.7,543.926a77.882,77.882,0,1,1,29.445,16.4l-26.571,17.988a9.018,9.018,0,0,1-5.065,1.569Zm53.724-160.6A66.7,66.7,0,0,0,458.68,538.185l3.28,2.616-11.2,25,25.707-17.4,2.538.852a66.72,66.72,0,1,0,21.229-129.967Z" transform="translate(-237.739 -224.106)" fill="#3f3d56"/>
    <circle id="Ellipse_288" data-name="Ellipse 288" cx="10.822" cy="10.822" r="10.822" transform="translate(251.671 247.481)" fill="#3f3d56"/>
    <circle id="Ellipse_289" data-name="Ellipse 289" cx="10.822" cy="10.822" r="10.822" transform="translate(221.007 247.481)" fill="#3f3d56"/>
    <circle id="Ellipse_290" data-name="Ellipse 290" cx="10.822" cy="10.822" r="10.822" transform="translate(282.334 247.481)" fill="#3f3d56"/>
    <path id="Path_1008" data-name="Path 1008" d="M944.644,455.058H841.8a4.675,4.675,0,1,1,0-9.35H944.644a4.675,4.675,0,0,1,0,9.35Z" transform="translate(-409.998 -239.589)" fill="#ccc"/>
    <path id="Path_1009" data-name="Path 1009" d="M877.439,421.058H841.793a4.675,4.675,0,0,1,0-9.35h35.646a4.675,4.675,0,0,1,0,9.35Z" transform="translate(-409.997 -225.457)" fill="#ccc"/>
    <circle id="Ellipse_291" data-name="Ellipse 291" cx="19.869" cy="19.869" r="19.869" transform="translate(365.344 181.429)" fill="#6c63ff"/>
    <path id="Path_1010" data-name="Path 1010" d="M899.939,385.456H714.694a9.948,9.948,0,0,0-9.934,9.934V436.3a9.948,9.948,0,0,0,9.934,9.934H899.939a9.948,9.948,0,0,0,9.934-9.934V395.39A9.948,9.948,0,0,0,899.939,385.456ZM908.7,436.3a8.776,8.776,0,0,1-8.766,8.766H714.694a8.776,8.776,0,0,1-8.766-8.766V395.39a8.776,8.776,0,0,1,8.766-8.766H899.939a8.776,8.776,0,0,1,8.766,8.766Z" transform="translate(-354.985 -214.546)" fill="#3f3d56"/>
    <circle id="Ellipse_292" data-name="Ellipse 292" cx="13.44" cy="13.44" r="13.44" transform="translate(540.28 160.391)" fill="#6c63ff"/>
    <path id="Path_1011" data-name="Path 1011" d="M1052.928,392.1a.582.582,0,0,1-.171-.413V376.812a.584.584,0,0,1,1.169,0v14.876a.584.584,0,0,1-1,.413Z" transform="translate(-499.623 -210.711)" fill="#fff"/>
    <path id="Path_1012" data-name="Path 1012" d="M1040.208,389.954a.584.584,0,0,1,.413-1H1055.5a.584.584,0,1,1,0,1.169h-14.875A.582.582,0,0,1,1040.208,389.954Z" transform="translate(-494.336 -216.001)" fill="#fff"/>
    <path id="Path_1013" data-name="Path 1013" d="M1038.688,696.163h-28.055c0,.806-28.915,1.461-28.915,1.461a7.516,7.516,0,0,0-1.233,1.169,7.252,7.252,0,0,0-1.695,4.675v1.169a7.307,7.307,0,0,0,7.3,7.3h52.593a7.311,7.311,0,0,0,7.3-7.3v-1.169A7.315,7.315,0,0,0,1038.688,696.163Z" transform="translate(-468.88 -343.686)" fill="#3f3d56"/>
    <rect id="Rectangle_753" data-name="Rectangle 753" width="7.597" height="49.087" transform="translate(540.004 367.965)" fill="#3f3d56"/>
    <path id="Path_1014" data-name="Path 1014" d="M1043.715,801c0,.821-11.512.317-25.712.317s-25.712.5-25.712-.317,11.512-7.33,25.712-7.33S1043.715,800.175,1043.715,801Z" transform="translate(-474.491 -384.211)" fill="#3f3d56"/>
    <circle id="Ellipse_293" data-name="Ellipse 293" cx="16.362" cy="16.362" r="16.362" transform="translate(529.877 253.971)" fill="#2f2e41"/>
    <path id="Path_1015" data-name="Path 1015" d="M857.553,682.52h-7.164l-3.409-27.634h10.574Z" transform="translate(-352.032 -272.192)" fill="#ffb8b8"/>
    <path id="Path_1016" data-name="Path 1016" d="M837.869,698.671h13.817v8.7H829.169A8.7,8.7,0,0,1,837.869,698.671Z" transform="translate(-344.629 -290.39)" fill="#2f2e41"/>
    <path id="Path_1017" data-name="Path 1017" d="M841.073,674.328l-6.835-2.145,5.021-27.386,10.089,3.166Z" transform="translate(-346.736 -267.998)" fill="#ffb8b8"/>
    <path id="Path_1018" data-name="Path 1018" d="M8.7,0H22.516V8.7H0A8.7,8.7,0,0,1,8.7,0Z" transform="translate(474.929 398.095) rotate(17.423)" fill="#2f2e41"/>
    <path id="Path_1019" data-name="Path 1019" d="M1004.469,680.741a22.127,22.127,0,0,0-.888-4.1l-1.338-1.683-3.483-4.371-.152.006c-.257.012-1.327.07-2.98.2h-.018c-1.023.082-2.273.187-3.693.321-.374.041-.766.076-1.169.117v6.1h7.3A1.463,1.463,0,0,1,999.5,678.6c.006.064.012.123.012.187a1.461,1.461,0,0,1-1.461,1.461H955.627a16.6,16.6,0,0,0-1.555,1.169A8.7,8.7,0,0,0,951,686.012c-2.478,10.893-6.995,31.205-8.327,37.172a2.652,2.652,0,0,0,.789,2.5,2.6,2.6,0,0,0,.859.532l5.271,1.975a2.8,2.8,0,0,0,.672.158c.029,0,.053.006.082.006a1.588,1.588,0,0,0,.163.006,2.648,2.648,0,0,0,2.46-1.695l4.161-10.916,6.411-16.83,2.536-6.656c2.939.69,27.6,6.148,35.857-2.647a9.391,9.391,0,0,0,1.893-2.986,12.157,12.157,0,0,0,.637-5.89Z" transform="translate(-453.846 -333.055)" fill="#2f2e41"/>
    <path id="Path_1020" data-name="Path 1020" d="M1017.026,685.24c-.128-.52-.275-1.058-.444-1.6l-4.821-6.054-.152.006c-.3.018-1.747.093-3.962.275-2.513.21-6.025.549-9.969,1.081-.117.012-.239.029-.356.047-.386.053-.777.105-1.169.164v1.081h7.3a1.463,1.463,0,0,1,1.449,1.274c.006.064.012.123.012.187a1.461,1.461,0,0,1-1.461,1.461H977.64c-1.128.368-2.215.754-3.255,1.169-5.458,2.162-9.543,5-10.379,8.684-.281,1.239-.59,2.6-.917,4.05-1.216,5.388-2.694,11.985-4.032,17.981v.006c-.275,1.239-.549,2.443-.812,3.611-1.116,5.026-2.063,9.286-2.565,11.524-.012.064-.023.123-.035.187v.012a2.727,2.727,0,0,0,.164,1.338l.006.006v.006a2.591,2.591,0,0,0,.76,1.046,2.684,2.684,0,0,0,.754.438l5.271,1.975a2.678,2.678,0,0,0,.917.169,2.59,2.59,0,0,0,1.256-.321,2.63,2.63,0,0,0,1.2-1.373l11.348-29.779,1.759-4.622c2.939.69,27.6,6.142,35.857-2.647a9.87,9.87,0,0,0,2.618-6.469,17.344,17.344,0,0,0-.532-4.909Z" transform="translate(-459.251 -335.964)" fill="#2f2e41"/>
    <path id="Path_1021" data-name="Path 1021" d="M1038.813,599.071c-.093-.111-.193-.222-.3-.327a14.3,14.3,0,0,0-12.254-4.318,46.378,46.378,0,0,0-5.791,1.14,14.6,14.6,0,0,0-6.533,3.664,14.267,14.267,0,0,0-4.33,10.635c.023.8.029,1.619.018,2.449,0,.386-.006.777-.012,1.169h5.762a3.109,3.109,0,0,1,.742.088,3.22,3.22,0,0,1,2.472,3.126v27.185c.391.111.783.222,1.169.339.123.041.24.076.356.111.134.041.269.082.4.123q1.779.552,3.477,1.169h1.905a1.464,1.464,0,0,1,1.449,1.274c.4.158.783.316,1.163.473,1.35.561,2.63,1.122,3.8,1.666,1.584.725,2.992,1.414,4.172,2.016a2.68,2.68,0,0,0,1.2.292,2.573,2.573,0,0,0,1.519-.5,3.189,3.189,0,0,0,.263-.216,2.632,2.632,0,0,0,.8-2.326,74.836,74.836,0,0,1-.526-13.85c.163-3.886.514-7.871.97-11.722.245-2.086.52-4.131.807-6.1.275-1.882.567-3.687.853-5.394A14.38,14.38,0,0,0,1038.813,599.071Z" transform="translate(-481.686 -301.348)" fill="#6c63ff"/>
    <path id="Path_1022" data-name="Path 1022" d="M1009.1,602.891a6.941,6.941,0,0,0-.923-.321,6.719,6.719,0,0,0-7.912,3.816l-4.015,9.268-.5,1.169h13.867a3.1,3.1,0,0,1,.742.088l.467-1.081,1.776-4.1A6.727,6.727,0,0,0,1009.1,602.891Z" transform="translate(-475.929 -304.689)" fill="#6c63ff"/>
    <circle id="Ellipse_294" data-name="Ellipse 294" cx="14.353" cy="14.353" r="14.353" transform="translate(531.289 259.809)" fill="#ffb8b8"/>
    <path id="Path_1023" data-name="Path 1023" d="M1014.93,543.029a51.771,51.771,0,0,0,22.4,7.38l-2.361-2.829a17.345,17.345,0,0,0,5.359,1.064,5.869,5.869,0,0,0,4.784-2.239,5.459,5.459,0,0,0,.365-5.043,10.34,10.34,0,0,0-3.253-4.067,19.366,19.366,0,0,0-18.025-3.221,11.574,11.574,0,0,0-5.383,3.453c-1.361,1.678-3.98,3.174-3.283,5.219Z" transform="translate(-483.901 -275.919)" fill="#2f2e41"/>
    <path id="Path_1024" data-name="Path 1024" d="M1007.01,521.582A44.111,44.111,0,0,0,990.962,511.2c-3.879-1.437-8.1-2.325-12.158-1.509s-7.891,3.622-9.023,7.6c-.925,3.254.03,6.757,1.466,9.821s3.353,5.9,4.514,9.081a20.726,20.726,0,0,1-20.856,27.794c3.985.534,7.658,2.407,11.553,3.4s8.493.929,11.387-1.861c3.063-2.952,3.124-7.753,2.976-12q-.33-9.48-.66-18.96c-.112-3.223-.208-6.549.954-9.558s3.925-5.643,7.15-5.615c2.444.021,4.607,1.5,6.568,2.962s4.035,3.018,6.469,3.235,5.214-1.584,5.032-4.022Z" transform="translate(-458.953 -266.054)" fill="#2f2e41"/>
    <path id="Path_1025" data-name="Path 1025" d="M1047.9,632.447l-8.193.222-.6,5.756-.134,1.332-12.833,5.762-1.169.526v10.244l1.169-.333,3.693-1.052h.018l16.269-4.634.187-.053a6.357,6.357,0,0,0,4.593-6.048l.041-6.8.035-5.008Z" transform="translate(-488.078 -317.17)" fill="#ffb8b8"/>
    <path id="Path_1026" data-name="Path 1026" d="M1059.218,608.537a6.721,6.721,0,1,0-13.417.824l.894,14.586a2.622,2.622,0,0,0,1.07,1.952,2.593,2.593,0,0,0,1.718.508l6.265-.386,1.9-.117a2.562,2.562,0,0,0,1.812-.882,1.832,1.832,0,0,0,.14-.175,2.61,2.61,0,0,0,.514-1.73Z" transform="translate(-496.727 -304.643)" fill="#6c63ff"/>
    <path id="Path_1027" data-name="Path 1027" d="M984.508,657.265h-.754v-.076c-.386.053-.777.105-1.169.164v1.081h5.4Q986.285,657.82,984.508,657.265Zm0,0h-.754v-.076c-.386.053-.777.105-1.169.164v1.081h5.4Q986.285,657.82,984.508,657.265Zm5.382,0h-6.136V629.508a4.389,4.389,0,0,0-3.173-4.208,4.118,4.118,0,0,0-1.209-.175H927.363a4.388,4.388,0,0,0-4.383,4.383v28.634a4.384,4.384,0,0,0,4.383,4.383H989.89a2.632,2.632,0,0,0,2.612-2.343,2.289,2.289,0,0,0,.018-.286,2.634,2.634,0,0,0-2.63-2.63Zm1.461,2.63a1.461,1.461,0,0,1-1.461,1.461H927.363a3.216,3.216,0,0,1-3.214-3.214V629.508a3.216,3.216,0,0,1,3.214-3.214h52.009a3.108,3.108,0,0,1,.742.088,3.221,3.221,0,0,1,2.472,3.126v28.926h7.3a1.463,1.463,0,0,1,1.449,1.274C991.345,659.772,991.351,659.831,991.351,659.895Zm-6.843-2.63h-.754v-.076c-.386.053-.777.105-1.169.164v1.081h5.4Q986.285,657.82,984.508,657.265Z" transform="translate(-445.684 -314.16)" fill="#3f3d56"/>
    <circle id="Ellipse_295" data-name="Ellipse 295" cx="3.506" cy="3.506" r="3.506" transform="translate(504.175 326.16)" fill="#6c63ff"/>
    <path id="Path_1028" data-name="Path 1028" d="M419.239,160.948a5.087,5.087,0,0,0,.024.8l-18.35,15.4-5.472-1.981-4.07,7.868,11.964,5.695L423.4,166.218a5.07,5.07,0,1,0-4.157-5.27Z" transform="translate(-224.73 -119.243)" fill="#ffb8b8"/>
    <path id="Path_1029" data-name="Path 1029" d="M381.277,195.058l-17.72-6.4a6.521,6.521,0,1,1,4.428-12.268l17.72,6.4a2.173,2.173,0,0,1,1.307,2.782l-2.952,8.179a2.177,2.177,0,0,1-2.783,1.307Z" transform="translate(-211.378 -127.491)" fill="#ccc"/>
    <path id="Path_1030" data-name="Path 1030" d="M268.529,206h5.922l2.817-22.843h-8.74Z" transform="translate(-111.609 -76.128)" fill="#ffb8b8"/>
    <path id="Path_1031" data-name="Path 1031" d="M0,0H18.613V7.191H7.191A7.191,7.191,0,0,1,0,0Z" transform="translate(174.263 135.376) rotate(179.997)" fill="#2f2e41"/>
    <path id="Path_1032" data-name="Path 1032" d="M243.484,195.87l4.844,3.406,15.444-17.065-7.15-5.027Z" transform="translate(-101.2 -73.644)" fill="#ffb8b8"/>
    <path id="Path_1033" data-name="Path 1033" d="M0,0H18.613V7.191H7.191A7.191,7.191,0,0,1,0,0H0Z" transform="matrix(-0.818, -0.575, 0.575, -0.818, 152.725, 135.532)" fill="#2f2e41"/>
    <path id="Path_1034" data-name="Path 1034" d="M382.627,244.734s14.779-1.744,12.126,7.847-32.211,17.873-32.211,17.873Z" transform="translate(-212.748 -156.006)" fill="#ffb8b8"/>
    <circle id="Ellipse_296" data-name="Ellipse 296" cx="11.864" cy="11.864" r="11.864" transform="translate(147.842 16.065)" fill="#ffb8b8"/>
    <path id="Path_1035" data-name="Path 1035" d="M310.671,236.428c-6.751-7.861-9.113-19.926,1.653-29.96a35.486,35.486,0,0,1,8.929-5.93l8.677-24.266a13.223,13.223,0,0,1,12.22-8.79,12.654,12.654,0,0,1,12.276,7.895,10.984,10.984,0,0,1,.341,7.779,124.954,124.954,0,0,1-10.124,23.165l.449,3.589,21.932,1.949-.2.333c-.107.174-10.841,16.528-24.573,27.384a22.566,22.566,0,0,1-14.133,5.249A23.419,23.419,0,0,1,310.671,236.428Z" transform="translate(-188.8 -123.944)" fill="#ccc"/>
    <path id="Path_1036" data-name="Path 1036" d="M301.467,124.637c2.1-2.5,3-5.773,3.724-8.957,1.146-5.038,2.033-10.247,4.579-14.742s7.224-8.221,12.383-7.937c5.129.282,9.276,4.409,11.477,9.1a4.083,4.083,0,0,1,3.316.16c1.586.869,2.18,3.338.859,4.574a10.961,10.961,0,0,1,8.926-.223,10.789,10.789,0,0,1,6.535,9.156,5.882,5.882,0,0,1-1.564,4.413c-2.276,2.343-5.5,1.535-8.359.938-2.7-.564-6-.716-7.521,1.86a4.828,4.828,0,0,0-.47,3.529c.584,2.572,2.488,4.363,4.335,6.078l.3.561a13.264,13.264,0,0,1-6.815-25.575h0a2.352,2.352,0,0,1-2.112-3.525,11.182,11.182,0,0,0-5.707-1.424c-3.249.213-6.061,2.526-7.752,5.309s-2.457,6.013-3.233,9.175-1.615,6.386-3.423,9.094a14.472,14.472,0,0,1-23.186,1.189,11.549,11.549,0,0,0,13.706-2.759Z" transform="translate(-181.666 -92.986)" fill="#2f2e41"/>
    <circle id="Ellipse_297" data-name="Ellipse 297" cx="17.246" cy="17.246" r="17.246" transform="translate(189.696 29.493)" fill="#6c63ff"/>
    <path id="Path_1037" data-name="Path 1037" d="M459.272,175.079a.747.747,0,0,1-.22-.53V155.461a.75.75,0,0,1,1.5,0v19.087a.75.75,0,0,1-1.28.53Z" transform="translate(-252.861 -118.641)" fill="#fff"/>
    <path id="Path_1038" data-name="Path 1038" d="M442.94,172.324a.75.75,0,0,1,.53-1.28h19.087a.75.75,0,0,1,0,1.5H443.47a.747.747,0,0,1-.53-.22Z" transform="translate(-246.072 -125.43)" fill="#fff"/>
    <path id="Path_1039" data-name="Path 1039" d="M415.458,190.812a5.083,5.083,0,0,0-.318.735l-23.156,6.141-4.111-4.119-7.028,5.392,8.409,10.24,27.727-11.851a5.07,5.07,0,1,0-1.523-6.537Z" transform="translate(-220.355 -132.539)" fill="#ffb8b8"/>
    <path id="Path_1040" data-name="Path 1040" d="M372.313,197.472l-13.321-13.321a6.521,6.521,0,1,1,9.222-9.223l13.321,13.321a2.173,2.173,0,0,1,0,3.074l-6.148,6.149a2.177,2.177,0,0,1-3.074,0Z" transform="translate(-210.478 -126.25)" fill="#ccc"/>
  </g>
</svg>
