<?xml version="1.0" encoding="UTF-8"?>
<svg id="Layer_1" data-name="Layer 1" xmlns="http://www.w3.org/2000/svg" viewBox="0 0 1702.23 409.75">
  <defs>
    <style>
      .cls-1 {
        fill: #44443d;
      }

      .cls-1, .cls-2 {
        stroke-width: 0px;
      }

      .cls-2 {
        fill: #cb613a;
      }
    </style>
  </defs>
  <path class="cls-2" d="m473.28,107.28c-18.01-63.57-61.95-99.38-120.8-98.37-37.21.66-65.58,22.82-90.59,42.85-17.31-19.06-38.56-35.2-69.47-43.11C121.72-9.42,62.08,18.92,36.77,82.62c-20.51,51.59-8.18,102.4,32.83,138.38-2.4,1.31-4.85,2.75-7.3,4.33C14.25,255.89,0,310.54,27.63,358.28c12.68,21.86,36.64,38.26,65.8,44.95,9.44,2.19,19.06,3.24,28.42,3.24,17.18,0,33.49-3.63,46.48-10.58,20.42-10.97,34.98-26.98,43.37-46.74,19.94,25.01,45.3,43.24,76.25,47.35,62.26,8.26,111.8-16.48,135.8-67.94,10.89-23.3,13.51-48.66,8.18-73.19,43.94-37.43,58.24-88.41,41.32-148.13l.04.04Zm-325.64,250.09c-22.3,11.98-67.86,3.63-82.15-21.03-15.74-27.19-7.78-56.27,20.29-74.15,13.51-8.61,26.06-11.59,42.58-11.59,6.86,0,14.43.52,23.04,1.36,2.01.22,4.02.44,6.08.66h.22c2.62.31,5.33.61,8.18.92,1.66,6.21,3.59,12.5,5.68,18.76,6.78,25.14,11.19,66.15-23.96,85.04l.04.04Zm15.61-211.66c-8.04,20.9-8.48,42.58-6.12,62.96-34.06-3.8-47.26-11.67-50.59-14.08-33.62-24.44-43.94-58.46-29.12-95.79,6.78-17.1,26.45-51.81,74.11-51.81,9.01,0,18.98,1.22,30.08,4.07,18.89,4.81,32.62,14.21,44.73,26.71-32.49,19.85-53.17,42.15-63.09,67.99v-.04Zm38.87,68.95c-3.02-17.93-4.28-37.12,1.92-53.25,6.47-16.88,21.69-32.31,46.48-47.22,1.05-.61,2.05-1.27,3.1-1.92.66.96,1.36,1.88,2.01,2.84,12.42,17.44,25.23,35.5,42.58,52.33,14.6,14.17,28.55,24.31,40.84,33.27,13.25,9.62,24.7,17.97,33.1,28.68,1.62,2.1,3.59,4.77,5.6,7.96-19.63,6.73-45.65,7.43-78.7,2.14-16.75-2.67-33.23-7.56-50.72-12.68-15-4.42-30.34-8.92-46.26-12.11l.04-.04Zm182.01,95.4c-15.87,33.97-47.13,48.88-90.46,43.11-35.33-4.68-63.22-45.51-79.22-90.68,7.08,1.92,14.25,4.02,21.6,6.21,18.01,5.29,36.64,10.8,56.14,13.9,39.66,6.38,72.32,5.2,98.81-3.63.17,9.66-1.71,20.11-6.82,31.04l-.04.04Zm29.56-97.72c-2.19-3.37-4.59-6.69-7.13-9.97-12.15-15.52-26.54-25.97-41.8-37.08-11.67-8.48-23.74-17.27-36.11-29.29-14.43-13.99-26.1-30.39-37.38-46.26-.83-1.18-1.71-2.36-2.54-3.54,22.39-17.88,41.8-33.18,64.49-33.62,38.91-.7,65.23,21.69,77.96,66.59,10.71,37.78,4.98,68.47-17.49,93.13v.04Z"/>
  <g>
    <path class="cls-1" d="m616.4,87.61c0-17.6,13.77-30.6,31.37-30.6s31.37,13.01,31.37,30.6-13.77,30.22-31.37,30.22-31.37-13.01-31.37-30.22Zm4.21,51.26h54.32v196.63h-54.32v-196.63Z"/>
    <path class="cls-1" d="m1020.98,222.65v112.85h-53.94v-109.79c0-29.46-10.71-44.76-34.05-44.76s-39.02,17.21-39.02,47.05v107.5h-53.94v-109.79c0-29.46-10.71-44.76-34.43-44.76s-38.64,17.98-38.64,47.43v107.11h-53.94v-196.63h47.05l4.97,24.48c11.86-15.3,29.08-26.4,57.77-26.78,24.1-.38,46.67,8.42,58.91,33.28,13.77-21.04,36.72-33.28,66.56-33.28,40.55,0,72.69,22.95,72.69,86.07Z"/>
    <path class="cls-1" d="m1258.31,236.8c0,60.82-38.26,100.99-91.43,100.99-28.31,0-47.82-12.24-60.44-29.07l-5.36,26.78h-47.05V67.71h53.94v96.02c13.01-15.68,32.13-27.16,59.29-27.16,52.79,0,91.05,37.87,91.05,100.23Zm-54.7.38c0-33.66-19.13-56.62-48.59-56.62s-47.82,22.95-47.82,56.23,18.36,57,47.82,57,48.59-22.95,48.59-56.62Z"/>
    <path class="cls-1" d="m1412.36,138.87h53.94v196.63h-47.82l-4.97-23.72c-12.62,15.3-29.84,26.01-57.76,26.01-40.55,0-78.04-20.28-78.04-89.9v-109.02h53.94v101.76c0,35.19,11.48,52.41,38.25,52.41s42.46-19.51,42.46-55.85v-98.31Z"/>
    <path class="cls-1" d="m1488.13,237.56c0-61.21,40.17-100.99,100.99-100.99s98.7,36.72,99.46,94.49c0,5.74-.38,12.24-1.53,18.36h-142.69v2.68c1.15,27.92,19.13,44.76,46.29,44.76,21.81,0,37.11-9.56,41.7-27.93h53.17c-6.12,38.26-40.17,68.86-92.58,68.86-65.41,0-104.82-39.4-104.82-100.23Zm146.13-23.33c-3.82-24.1-20.27-37.49-44.76-37.49s-40.93,14.15-43.99,37.49h88.75Z"/>
  </g>
</svg>