<svg xmlns="http://www.w3.org/2000/svg" enable-background="new 0 0 2000 2000" viewBox="0 0 2000 2000" id="online-retailer"><path fill="#e9eff8" fill-rule="evenodd" d="M1039,498.6c-199,0-282.9,142.4-426.6,253.1C422.2,898.3,232,802.9,201.6,1298
		c-27.1,440.6,311.1,47.7,787.9,205.5c476.8,157.8,962.5,221.4,818.4-289.3C1663.8,703.6,1501.5,498.6,1039,498.6z" clip-rule="evenodd"></path><path fill="#fff" fill-rule="evenodd" d="M364,952.3c2.5-0.6,5.2-0.6,7.7,0.2c-2-15.3,12.8-31.3,28.1-22.3c1.1-6.9,4.5-13.6,10.2-17.5
			c5.8-3.9,14-4.3,19.4,0.1c0.2-7.5,5-14.5,11.4-18.5c6.4-4,14.2-5.2,21.8-4.6c8.3,0.6,16.5,3.8,22.7,9.4c7.3,6.6,8.5,15.3,8,24.8
			c3.9-0.8,8.1-1,11.9,0.2c10.9,3.4,12.8,18.3,10.1,27.7c6.9-1.4,14.2-2.6,20.8-0.2c6.6,2.4,12,9.5,10,16.2
			c3.9-1.6,7.9-3.2,12.1-3.4c4.2-0.2,8.7,1.2,11.2,4.6c3.3,4.6,1.8,11.2-1.5,15.8c-4.4,6.2-11.5,10.1-18.9,11.7
			c-12.8,2.8-26.8-0.9-36.5-9.7c1.8,1.6-13.5,10.4-15,10.8c-6.2,2-12.4,4.1-18.9,2.6c-7-1.7-13.1-6.4-17.4-12.3
			c-14.8,11.9-38.1,11.3-52.3-1.2c-13.8,11.4-36.1,10.5-49-1.8c-5.4,2.1-12.1,3.1-16.4-0.8c-3.3-3-3.9-8.4-1.4-12.1
			c2.5-3.6,7.9-4.9,11.8-2.9c-1.2-4.8,0.4-10.3,4-13.7C359.5,954,361.7,952.9,364,952.3z" clip-rule="evenodd"></path><path fill="#f7fbfd" fill-rule="evenodd" d="M493.3 924c.5-9.6-.7-18.3-8-24.8-6.2-5.6-14.4-8.8-22.7-9.4-7.5-.5-15.3.7-21.8 4.6 12.7-1.8 26.7-1.2 36.9 6.6 2.6 2 4.9 4.5 6.4 7.4 1.7 3.2 2.5 7 2.4 10.7-.2 8.6-4.8 16.7-11.5 22-6.7 5.3-15.3 7.9-23.9 8.1 8.7 2 18.2.6 26-3.9C484.9 940.7 492.8 932.9 493.3 924zM429.5 912.8c-5.4-4.4-13.7-4-19.4-.1-5.8 3.9-9.2 10.6-10.2 17.5-.7 4.6 3.8 8.6 7.9 10.7 4.1 2.2 9 2.7 13.6 2-4.5-.5-8.2-4.2-10-8.4-2.3-5.4-1.8-11.9 1.5-16.7C416.2 913.1 423.9 911.4 429.5 912.8z" clip-rule="evenodd"></path><path fill="#f6f9fc" fill-rule="evenodd" d="M371.7,952.5c-2.5-0.8-5.2-0.9-7.7-0.2c-2.3,0.6-4.5,1.7-6.2,3.3c-3.6,3.4-5.2,8.9-4,13.7
			c-3.9-2-9.3-0.7-11.8,2.9c-2.5,3.6-1.9,9.1,1.4,12.1c4.3,3.9,11,2.9,16.4,0.8c12.9,12.3,35.2,13.1,49,1.8
			c14.2,12.5,37.5,13,52.3,1.2c4.3,5.9,10.3,10.6,17.4,12.3c6.5,1.6,12.8-0.5,18.9-2.6c1.5-0.5,16.8-9.2,15-10.8
			c9.7,8.8,23.8,12.5,36.5,9.7c7.4-1.6,14.5-5.5,18.9-11.7c3.3-4.6,4.8-11.2,1.5-15.8c-2.4-3.4-7-4.8-11.2-4.6
			c-4.2,0.2-8.2,1.8-12.1,3.4c2-6.7-3.4-13.9-10-16.2c-6.6-2.4-13.9-1.2-20.8,0.2c2.7-9.5,0.8-24.4-10.1-27.7
			c-2.3-0.7-4.6-0.9-7-0.8c1.6,8,0.8,16.8-3.8,23.5c-4.8,7.1-14.4,11.3-22.5,8.3c-8.1,7.4-19.6,10.9-30.4,9.4
			c-10.9-1.5-20.9-7.9-26.8-17.2c-6.1,4.1-15.3,3.7-20.2-1.8c-5.1-5.7-2.6-11.4,0.2-17.1c0.1-0.2,0.1-0.3,0.2-0.4
			C381.5,924.6,370,938.9,371.7,952.5z" clip-rule="evenodd"></path><path fill="#ebf4f8" fill-rule="evenodd" d="M364 952.3c2.5-.6 5.2-.6 7.7.2-1.8-13.6 9.8-27.9 23.2-24.4-5.1.3-10 2.8-13.2 6.8-3.2 3.9-4.9 9-5 14.1 0 2 .2 4 .9 5.8 2 4.8 7.1 7.5 12 9.4-4.6 1-9.3-1.4-13.1-4.2C372.8 957.1 368.6 953.5 364 952.3zM512.3 987c9.7 8.8 23.8 12.5 36.5 9.7 7.4-1.6 14.5-5.5 18.9-11.7 3.3-4.6 4.8-11.2 1.5-15.8 0 9-8.7 16.5-17.4 19-8.7 2.4-18 .3-26.1-3.5-3.9-1.9-7.7-4.2-10.4-7.5-2.7-3.4-4.2-7.9-3.1-12.1C509.1 971.5 510.2 980 512.3 987z" clip-rule="evenodd"></path><path fill="#ebf4f8" fill-rule="evenodd" d="M461,988.1c-14.8,11.9-38.1,11.3-52.3-1.2c-13.8,11.4-36.1,10.5-49-1.8c-5.4,2.1-12.1,3.1-16.4-0.8
			c-3.3-3-3.9-8.4-1.4-12.1c2.2,7.4,12.9,10.5,19.2,6c-1.9-2.8-2.9-6.2-2.8-9.6c6.9,7.8,17.8,11.9,28.1,10.5
			c10.3-1.4,19.8-8.2,24.3-17.6c0.3,6.1-0.6,12.3-2.5,18.1C421.9,993.2,443.9,996.8,461,988.1z" clip-rule="evenodd"></path><path fill="#fff" fill-rule="evenodd" d="M639,745.9c2.5-0.6,5.2-0.6,7.7,0.2c-2-15.3,12.8-31.3,28.1-22.3c1.1-6.9,4.5-13.6,10.2-17.5
			c5.8-3.9,14-4.3,19.4,0.1c0.2-7.5,5-14.5,11.4-18.5c6.4-4,14.2-5.2,21.8-4.6c8.3,0.6,16.5,3.8,22.7,9.4c7.3,6.6,8.5,15.3,8,24.8
			c3.9-0.8,8.1-1,11.9,0.2c10.9,3.4,12.8,18.3,10.1,27.7c6.9-1.4,14.2-2.6,20.8-0.2c6.6,2.4,12,9.5,10,16.2
			c3.9-1.6,7.9-3.2,12.1-3.4c4.2-0.2,8.7,1.2,11.2,4.6c3.3,4.6,1.8,11.2-1.5,15.8c-4.4,6.2-11.5,10.1-18.9,11.7
			c-12.8,2.8-26.8-0.9-36.5-9.7c1.8,1.6-13.5,10.4-15,10.8c-6.2,2-12.4,4.1-18.9,2.6c-7-1.7-13.1-6.4-17.4-12.3
			c-14.8,11.9-38.1,11.3-52.3-1.2c-13.8,11.4-36.1,10.5-49-1.8c-5.4,2.1-12.1,3.1-16.4-0.8c-3.3-3-3.9-8.4-1.4-12.1
			c2.5-3.6,7.9-4.9,11.8-2.9c-1.2-4.8,0.4-10.3,4-13.7C634.5,747.6,636.7,746.4,639,745.9z" clip-rule="evenodd"></path><path fill="#f7fbfd" fill-rule="evenodd" d="M768.3 717.5c.5-9.6-.7-18.3-8-24.8-6.2-5.6-14.4-8.8-22.7-9.4-7.5-.5-15.3.7-21.8 4.6 12.7-1.8 26.7-1.2 36.9 6.6 2.6 2 4.9 4.5 6.4 7.4 1.7 3.2 2.5 7 2.4 10.7-.2 8.6-4.8 16.7-11.5 22-6.7 5.3-15.3 7.9-23.9 8.1 8.7 2 18.2.6 26-3.9C759.9 734.3 767.8 726.5 768.3 717.5zM704.5 706.4c-5.4-4.4-13.7-4-19.4-.1-5.8 3.9-9.2 10.6-10.2 17.5-.7 4.6 3.8 8.6 7.9 10.7 4.1 2.2 9 2.7 13.6 2-4.5-.5-8.2-4.2-10-8.4-2.3-5.4-1.8-11.9 1.5-16.7C691.1 706.7 698.8 705 704.5 706.4z" clip-rule="evenodd"></path><path fill="#f6f9fc" fill-rule="evenodd" d="M646.7,746.1c-2.5-0.8-5.2-0.9-7.7-0.2c-2.3,0.6-4.5,1.7-6.2,3.3c-3.6,3.4-5.2,8.9-4,13.7
			c-3.9-2-9.3-0.7-11.8,2.9c-2.5,3.6-1.9,9.1,1.4,12.1c4.3,3.9,11,2.9,16.4,0.8c12.9,12.3,35.2,13.1,49,1.8
			c14.2,12.5,37.5,13,52.3,1.2c4.2,5.9,10.3,10.6,17.4,12.3c6.5,1.6,12.8-0.5,18.9-2.6c1.5-0.5,16.8-9.2,15-10.8
			c9.7,8.8,23.8,12.5,36.5,9.7c7.4-1.6,14.5-5.5,18.9-11.7c3.3-4.6,4.8-11.2,1.5-15.8c-2.4-3.4-7-4.8-11.2-4.6
			c-4.2,0.2-8.2,1.8-12.1,3.4c2-6.7-3.4-13.9-10-16.2c-6.6-2.4-13.9-1.2-20.8,0.2c2.7-9.5,0.8-24.4-10.1-27.7
			c-2.3-0.7-4.6-0.9-7-0.8c1.6,8,0.8,16.8-3.7,23.5c-4.8,7.1-14.4,11.3-22.5,8.3c-8.1,7.4-19.6,10.9-30.4,9.4
			c-10.9-1.5-20.9-7.9-26.8-17.2c-6.1,4.1-15.3,3.7-20.2-1.8c-5.1-5.7-2.6-11.4,0.2-17.1c0.1-0.2,0.1-0.3,0.2-0.4
			C656.5,718.2,644.9,732.5,646.7,746.1z" clip-rule="evenodd"></path><path fill="#ebf4f8" fill-rule="evenodd" d="M639 745.9c2.5-.6 5.2-.6 7.7.2-1.8-13.6 9.8-27.9 23.2-24.4-5.1.3-10 2.8-13.2 6.7-3.2 3.9-4.9 9-5 14.1 0 2 .2 4 .9 5.8 2 4.8 7.1 7.5 12 9.4-4.6 1-9.3-1.4-13.1-4.2C647.8 750.7 643.5 747.1 639 745.9zM787.3 780.6c9.7 8.8 23.8 12.5 36.5 9.7 7.4-1.6 14.5-5.5 18.9-11.7 3.3-4.6 4.8-11.2 1.5-15.8 0 9-8.7 16.5-17.4 19-8.6 2.4-18 .3-26.1-3.5-3.9-1.9-7.7-4.2-10.4-7.5-2.7-3.4-4.2-7.9-3.1-12.1C784 765.1 785.2 773.6 787.3 780.6zM736 781.7c-14.8 11.9-38.1 11.3-52.3-1.2-13.8 11.4-36.1 10.5-49-1.8-5.4 2.1-12.1 3.1-16.4-.8-3.3-3-3.9-8.4-1.4-12.1 2.2 7.4 12.9 10.5 19.2 6-1.9-2.8-2.9-6.2-2.8-9.6 6.9 7.8 17.8 11.9 28.1 10.5 10.3-1.4 19.8-8.2 24.3-17.6.3 6.1-.6 12.3-2.5 18.1C696.8 786.8 718.9 790.4 736 781.7z" clip-rule="evenodd"></path><path fill="#d0d9ee" fill-rule="evenodd" d="M695,1591.8c188.5,0,342.2-18.1,342.2-40.4c0-22.2-153.7-40.4-342.2-40.4c-188.5,0-342.2,18.1-342.2,40.4
		C352.9,1573.6,506.6,1591.8,695,1591.8z" clip-rule="evenodd"></path><path fill="#fff" fill-rule="evenodd" d="M1442.2,991.6c2.5-0.6,5.2-0.6,7.7,0.2c-2-15.3,12.8-31.4,28.1-22.3c1.1-6.9,4.5-13.6,10.2-17.5
			c5.8-3.9,14-4.3,19.4,0.1c0.2-7.5,4.9-14.5,11.4-18.5c6.4-4,14.2-5.2,21.8-4.6c8.3,0.6,16.5,3.8,22.7,9.4c7.3,6.6,8.6,15.3,8,24.8
			c3.9-0.8,8.1-1,11.9,0.2c10.9,3.4,12.8,18.3,10.1,27.7c6.9-1.4,14.2-2.6,20.8-0.2c6.6,2.4,12,9.5,10,16.2
			c3.9-1.6,7.9-3.2,12.1-3.4c4.2-0.2,8.7,1.2,11.2,4.6c3.3,4.6,1.8,11.2-1.5,15.8c-4.4,6.2-11.5,10.1-18.9,11.7
			c-12.8,2.8-26.8-0.9-36.5-9.7c1.8,1.6-13.5,10.4-15,10.8c-6.2,2-12.4,4.1-18.9,2.6c-7-1.7-13.1-6.4-17.4-12.3
			c-14.8,11.9-38.1,11.3-52.3-1.2c-13.8,11.4-36,10.5-49-1.8c-5.4,2.1-12.1,3.1-16.4-0.8c-3.3-3-3.9-8.4-1.4-12.1
			c2.5-3.6,7.9-4.9,11.8-2.9c-1.2-4.8,0.4-10.3,4-13.7C1437.7,993.3,1439.9,992.2,1442.2,991.6z" clip-rule="evenodd"></path><path fill="#f7fbfd" fill-rule="evenodd" d="M1571.5 963.3c.5-9.6-.7-18.3-8-24.8-6.2-5.6-14.4-8.8-22.7-9.4-7.5-.5-15.3.7-21.8 4.6 12.7-1.8 26.7-1.2 36.9 6.6 2.6 2 4.9 4.5 6.4 7.4 1.7 3.2 2.5 7 2.4 10.7-.2 8.6-4.8 16.7-11.5 22-6.7 5.3-15.3 7.9-23.9 8.1 8.7 2 18.2.6 26-3.9C1563.1 980 1571 972.2 1571.5 963.3zM1507.7 952.1c-5.4-4.4-13.7-4-19.4-.1-5.8 3.9-9.2 10.6-10.2 17.5-.7 4.6 3.8 8.6 7.9 10.7 4.1 2.2 9 2.7 13.6 2-4.5-.5-8.2-4.2-10-8.4-2.3-5.4-1.8-11.9 1.5-16.7C1494.3 952.4 1502 950.7 1507.7 952.1z" clip-rule="evenodd"></path><path fill="#f6f9fc" fill-rule="evenodd" d="M1449.9,991.8c-2.5-0.8-5.2-0.9-7.7-0.2c-2.3,0.6-4.5,1.7-6.2,3.3c-3.7,3.4-5.2,8.9-4,13.7
			c-3.9-2-9.3-0.7-11.8,2.9c-2.5,3.6-1.9,9.1,1.4,12.1c4.3,3.9,11,2.9,16.4,0.8c12.9,12.3,35.2,13.1,49,1.8
			c14.2,12.5,37.6,13,52.3,1.2c4.2,5.9,10.3,10.6,17.4,12.3c6.5,1.6,12.8-0.5,18.9-2.6c1.5-0.5,16.8-9.2,15-10.8
			c9.7,8.8,23.8,12.5,36.5,9.7c7.4-1.6,14.5-5.5,18.9-11.7c3.3-4.6,4.8-11.2,1.5-15.8c-2.4-3.4-7-4.8-11.2-4.6
			c-4.2,0.2-8.2,1.8-12.1,3.4c2-6.7-3.4-13.9-10-16.2c-6.6-2.4-13.9-1.2-20.8,0.2c2.7-9.5,0.8-24.4-10.1-27.7
			c-2.3-0.7-4.6-0.9-7-0.8c1.6,8,0.8,16.8-3.8,23.5c-4.8,7.1-14.4,11.3-22.5,8.3c-8.1,7.4-19.6,10.9-30.4,9.4
			c-10.9-1.5-20.9-7.9-26.8-17.2c-6.1,4.1-15.3,3.7-20.2-1.8c-5.1-5.7-2.6-11.4,0.2-17.1c0.1-0.2,0.1-0.3,0.2-0.4
			C1459.7,963.9,1448.1,978.2,1449.9,991.8z" clip-rule="evenodd"></path><path fill="#ebf4f8" fill-rule="evenodd" d="M1442.2 991.6c2.5-.6 5.2-.6 7.7.2-1.8-13.6 9.8-27.9 23.2-24.4-5.1.3-10 2.8-13.2 6.8-3.2 3.9-4.9 9-5 14.1 0 2 .2 4 .9 5.8 2 4.8 7.1 7.5 12 9.4-4.6 1-9.3-1.4-13.1-4.2C1450.9 996.4 1446.7 992.8 1442.2 991.6zM1590.5 1026.3c9.7 8.8 23.8 12.5 36.5 9.7 7.4-1.6 14.5-5.5 18.9-11.7 3.3-4.6 4.8-11.2 1.5-15.8 0 9-8.7 16.5-17.4 19-8.6 2.4-18 .3-26.1-3.5-3.9-1.9-7.7-4.2-10.4-7.5-2.7-3.4-4.2-7.9-3.1-12.1C1587.2 1010.8 1588.4 1019.3 1590.5 1026.3z" clip-rule="evenodd"></path><path fill="#ebf4f8" fill-rule="evenodd" d="M1539.2,1027.4c-14.8,11.9-38.1,11.3-52.3-1.2c-13.8,11.4-36,10.5-49-1.8c-5.4,2.1-12.1,3.1-16.4-0.8
			c-3.3-3-3.9-8.4-1.4-12.1c2.2,7.4,12.9,10.5,19.2,6c-1.9-2.8-2.9-6.2-2.8-9.6c6.9,7.8,17.8,11.9,28.1,10.5
			c10.3-1.4,19.8-8.2,24.3-17.6c0.3,6.1-0.6,12.3-2.5,18.1C1500,1032.5,1522,1036.1,1539.2,1027.4z" clip-rule="evenodd"></path><path fill="#d0d9ee" fill-rule="evenodd" d="M226.8,1472.4c87.2,132.1,380.4-95.4,762.7,31.1c345.7,114.4,696,179.2,807.6,11.6
		c-184.8-85.6-492.2-141.6-840.2-141.6C671,1373.6,412.4,1411.4,226.8,1472.4z" clip-rule="evenodd"></path><polygon fill="#dab499" fill-rule="evenodd" points="444.3 1340.8 635 1340.8 635 1531.5 498.1 1548.3 444.3 1531.5" clip-rule="evenodd"></polygon><path fill="#f5f6f3" fill-rule="evenodd" d="M481.6,1315.7c0.1,3.8,0.3,6.9,0.6,9.1C481.8,1322.6,481.6,1319.4,481.6,1315.7z" clip-rule="evenodd"></path><path fill="#c4cfe9" fill-rule="evenodd" d="M367.2 1037.8c-2.8-3.6-6.5-6.3-10.3-8.6-1-.6-2.5-.2-3 .8-2.9 5.5-5.6 11.1-9 16.3-1.1 1.7-2.7 4-4.1 5-.1.1-.4.2-.6.3 0 0 0-.1-.1-.1-.3-.4-.4-.9-.6-1.3-2.6-8 .6-16.6-1.5-24.7-1.1-4.3-3.8-8.7-6.9-11.9-3.4-3.4-7.8-5-9.9-9.6-.3-.7-.9-1-1.5-1.1h-.4c-.7.1-1.5.5-1.9 1.1-4.8 7-11.6 14.1-12.9 22.8-1.1 7.7 3 14.2 7.5 20 2.2 2.8 4.3 5.7 5.9 8.9.9 1.7 2.5 4.9.8 6.6-1.8 1.8-4.4-1.4-5.8-2.8-2.8-2.9-5.2-6.3-7.7-9.5-4.1-5.4-10.5-13.5-18.2-12-3.4.7-4.8 4.1-4.9 7.2-.3 4.8 2.1 10 4.5 14.1 5.4 9.2 16.3 11.9 23.4 19.3 1.6 1.7 6 7.5 3.5 9.9-.9.8-3 .6-4 .4-2.6-.4-5.4-1.3-7.5-2.9-7.9-6.1-10.8-16.7-19.1-22.5-3.6-2.5-9.3-4.1-13.6-3-3.7.9-5.4 4.4-5.6 7.9-.2 4.3 1.7 8.7 3.9 12.2 2.5 4.1 5.9 7.6 10.1 10 8.4 4.8 19 5.4 24.5 14.1.8 1.2 1.6 2.8 1.2 4.2-.3 1.1-1.9 1.5-2.9 1.7-4.3.9-9.9-.6-13.7-2.6-4.6-2.4-7.9-6.8-11.4-10.5-3.7-3.9-7.8-7-13-8.6-3.8-1.1-8.4-1-10.8 2.6-2.2 3.2-1.8 7.6-.9 11.1 1.2 4.7 3.8 9.1 7 12.8 3.4 4 8.8 6.2 13.7 7.9 5 1.7 10.3 2.7 15.3 4.6 1.3.5 2.3.8 3.8.9 1.5.1 3.1 0 4.6.4 1.3.3.4 1.7 0 2.6-1 2.2-4.3 2.1-6.4 2.3-2 .1-3.9.7-5.9.7-2.3 0-4.5-.4-6.8-.7-4.4-.7-9.1-1.5-13.5-.1-4.2 1.3-7.2 5.3-8 9.6-1.6 9 8.4 14.5 15.9 15.6 4.8.7 9.1-.3 13.3-2.7 5.2-2.9 9.3-7.1 15.2-7.9.4 2.4-.5 4.3-2.6 6.1-2.9 2.5-7 3.8-10.5 5.1-6.9 2.6-17.1 4.9-20.8 12.1-.5.9-.4 2 .4 2.7 3.3 3.1 7.1 5.6 11.7 6 3.8.3 7.6-1.5 10.7-3.5 5.6-3.7 10.4-9.4 16.6-12-.9 1.6-2.3 2.7-4.1 4-3.1 2.4-4.7 5.8-5.6 9.6-1.3 5.7.7 12 7.4 12 3.7 0 7.4-1.8 10.4-3.7 3.5-2.1 6.3-5.2 8.5-8.6 2.7-4.3 4.2-9.2 5-14.2 5.6 11 17.9 22.5 29.4 13 9.9-8.1-6.4-14.3-12.8-20.7 1.3.5 2.5 1.2 3.7 1.8 3.4 1.7 6.6 3.6 10.1 5 6.5 2.7 13.8 2.4 17.7-4.3 3.4-5.8-3.6-8.5-7.9-9.8-3.5-1.1-10-2.2-12.6-5.7 8.6.9 18.2 2 25.7-3 3.4-2.3 7.4-6.6 7.8-10.9.3-3.5-3.4-4.7-6.1-5-7.4-.7-14.5 2.5-21.9 2.3-1.8-.1-3.5-.3-5.3-.6-.6-.1-1.3-.3-1.9-.6-.2-.1-.5-.3-.6-.4 0-.1.1-.2.2-.4.7-.8 1.5-1.3 2.3-1.9 1.9-1.2 3.9-2 6.1-2.2 4.3-.5 8.6.1 12.8-.7 4.8-.8 8.7-3.6 11.9-7.2 2.8-3.2 5.5-7.2 6-11.5.5-4.5-2.3-7.5-6.3-9-11.2-4.3-17.7 7.3-25.7 12.5-2.1 1.4-4.6 2.3-7 3-1 .3-3.9 1.3-4.8.5-.6-.5 1.3-3.5 1.7-4.1 1.6-2.6 3.7-4.4 6.3-5.9 6.7-3.8 14.8-5 20.1-11 3.5-4 6.2-10.7 2.8-15.5-3.6-5.1-11.6-3.7-16.1-.8-5.7 3.7-8.5 11.3-15.3 13.2-.6-3.2.7-6.2 2.8-9.1 3.2-4.2 7.3-7.7 11.1-11.3 3.6-3.5 7.3-7.3 9.2-12C371.6 1046.7 370.3 1041.8 367.2 1037.8zM535.8 1193.4c1.1-4.4.9-9 .4-13.4-.1-1.2-1.4-2.1-2.5-1.9-6.1 1.1-12.2 2.4-18.4 3-2 .2-4.8.4-6.5-.1-.1 0-.5-.2-.6-.3 0 0 0-.1 0-.1.2-.5.4-.9.7-1.3 4.7-7 13.4-9.9 18.5-16.5 2.7-3.5 4.5-8.4 5.1-12.8.6-4.7-.9-9.2 1.4-13.7.8-1.6-.9-3.1-2.4-3-8.5.5-18.3-.4-25.9 4-6.8 3.9-9.2 11.1-11.1 18.3-.9 3.4-1.8 6.9-3.3 10.2-.8 1.8-2.3 5-4.7 4.7-2.5-.3-1.6-4.3-1.4-6.3.5-4 1.7-8 2.7-11.9 1.7-6.5 4.1-16.6-1.8-21.7-2.6-2.2-6.2-1.2-8.7.6-4 2.8-6.6 7.8-8.3 12.2-3.9 9.9.8 20.2-.7 30.3-.3 2.3-2.2 9.4-5.6 8.9-1.2-.2-2.3-2-2.8-2.9-1.3-2.3-2.3-5.1-2.3-7.7-.1-10 6.5-18.8 5.9-28.9-.3-4.4-2.5-9.8-6-12.6-3-2.4-6.8-1.5-9.7.5-3.5 2.5-5.7 6.7-7.2 10.6-1.7 4.5-2.3 9.3-1.6 14.1 1.4 9.5 7.5 18.2 4.1 28-.5 1.3-1.2 3-2.6 3.6-1.1.5-2.3-.6-3.1-1.2-3.4-2.8-5.6-8.2-6.4-12.4-.9-5.1.5-10.4 1.2-15.4.8-5.3.7-10.5-1.3-15.5-1.4-3.7-4.4-7.2-8.7-6.9-3.9.3-7 3.3-9.3 6.2-3 3.9-4.8 8.6-5.8 13.4-1 5.2.6 10.8 2.3 15.6 1.8 5 4.2 9.8 5.8 14.8.4 1.3.8 2.4 1.6 3.6.9 1.3 1.9 2.4 2.5 3.9.5 1.2-1.1 1.4-2 1.6-2.4.6-4.4-2.1-5.8-3.6-1.3-1.5-2.9-2.7-4.2-4.2-1.4-1.8-2.5-3.8-3.6-5.8-2.2-3.9-4.5-8.1-8.3-10.7-3.6-2.5-8.6-2.4-12.4-.4-8 4.3-6.1 15.6-2.4 22.1 2.4 4.2 5.9 7 10.3 8.8 5.5 2.3 11.3 2.8 15.6 7.1-1.6 1.8-3.7 2.3-6.4 1.7-3.8-.8-7.3-3.1-10.5-5.1-6.3-3.9-14.4-10.4-22.4-8.9-1 .2-1.8.9-1.9 2-.4 4.5 0 9 2.6 12.9 2.1 3.2 5.9 5.1 9.4 6.2 6.3 2.1 13.8 2.3 19.8 5.6-1.8.3-3.5-.2-5.7-.7-3.8-1-7.5-.1-11 1.5-5.3 2.5-9 7.9-4.8 13.3 2.3 2.9 6 4.7 9.4 5.9 3.8 1.5 8 1.8 12 1.4 5-.5 9.8-2.4 14.3-4.8-5.1 11.2-6.6 28 8 31.2 12.5 2.7 7.3-13.9 8.3-22.9.4 1.3.6 2.7.9 4 .7 3.7 1.3 7.4 2.3 11.1 1.9 6.8 6.7 12.4 14.4 11.3 6.6-.9 4.4-8.1 2.8-12.3-1.3-3.4-4.5-9.2-3.3-13.4 4.6 7.4 9.7 15.6 18.2 18.3 3.9 1.3 9.8 1.7 13.4-.6 2.9-1.9 1.6-5.6.1-7.9-4-6.2-11-9.8-15.3-15.8-1.1-1.4-2-2.9-2.8-4.5-.3-.6-.6-1.2-.7-1.9-.1-.2-.1-.6-.1-.8.1 0 .2-.1.4-.1 1 0 2 .4 2.9.7 2.1.7 3.9 1.8 5.5 3.4 3 3.1 5.2 6.8 8.5 9.7 3.6 3.3 8.2 4.6 13 4.9 4.2.2 9.1-.1 12.8-2.4 3.8-2.4 4.5-6.4 3.2-10.5-3.6-11.4-16.7-9.4-25.8-12.4-2.4-.8-4.7-2.2-6.8-3.6-.8-.6-3.4-2.2-3.4-3.5 0-.7 3.6-1.1 4.3-1.2 3-.3 5.7.1 8.6 1.3 7.1 2.9 13.1 8.5 21.1 8.9 5.3.3 12.2-1.8 13.9-7.4 1.8-6-4.2-11.4-9.4-13.1-6.5-2.1-14.2.3-19.8-3.9 2.2-2.5 5.3-3.3 8.9-3.4 5.3-.1 10.5 1 15.7 1.7 5 .7 10.3 1.3 15.2-.2C531.5 1202.4 534.6 1198.4 535.8 1193.4z" clip-rule="evenodd"></path><path fill="#d0d7ed" fill-rule="evenodd" d="M236.1,1071.6c-4.2-1.6-8.8-2-13.3-2.1c-1.2,0-2.2,1.1-2.2,2.3c0.3,6.2,0.9,12.4,0.7,18.6
			c-0.1,2-0.2,4.8-0.9,6.4c0,0.1-0.3,0.4-0.3,0.6c0,0-0.1,0-0.1,0c-0.4-0.2-0.8-0.5-1.2-0.8c-6.4-5.5-8.1-14.6-14-20.4
			c-3.1-3.1-7.8-5.5-12-6.6c-4.6-1.2-9.3-0.2-13.4-3.1c-1.5-1-3.2,0.5-3.3,2c-0.6,8.5-2.7,18.1,0.7,26.2c3,7.2,9.9,10.6,16.7,13.3
			c3.3,1.3,6.6,2.7,9.7,4.6c1.7,1,4.7,2.9,4.1,5.2c-0.6,2.4-4.5,1.1-6.4,0.6c-3.9-1.1-7.7-2.7-11.5-4.2c-6.2-2.5-16-6.2-21.8-1
			c-2.6,2.3-1.9,6-0.5,8.7c2.2,4.3,6.9,7.5,11.1,9.8c9.4,5.1,20.1,1.8,29.9,4.5c2.3,0.6,9.1,3.4,8.1,6.7c-0.3,1.2-2.2,2-3.2,2.4
			c-2.4,1-5.3,1.6-7.9,1.3c-9.9-1.2-17.9-8.8-28-9.5c-4.4-0.3-10,1.3-13.3,4.4c-2.7,2.7-2.4,6.5-0.7,9.6c2,3.8,6,6.5,9.6,8.5
			c4.3,2.3,9,3.4,13.8,3.3c9.6-0.2,19-5.2,28.3-0.5c1.3,0.6,2.8,1.5,3.2,3c0.3,1.1-0.9,2.3-1.6,2.9c-3.2,3-8.8,4.6-13.1,4.8
			c-5.2,0.3-10.3-1.8-15.1-3.1c-5.2-1.4-10.3-2-15.6-0.7c-3.8,1-7.7,3.5-8,7.7c-0.2,3.9,2.4,7.4,5,10c3.5,3.4,7.9,5.9,12.6,7.4
			c5,1.6,10.8,0.8,15.8-0.3c5.2-1.1,10.2-3,15.5-3.9c1.4-0.3,2.4-0.5,3.7-1.1c1.4-0.7,2.7-1.6,4.2-2c1.3-0.4,1.2,1.2,1.3,2.2
			c0.3,2.4-2.6,4.1-4.3,5.3c-1.6,1.2-3,2.6-4.7,3.6c-1.9,1.2-4.1,2-6.2,2.8c-4.1,1.7-8.6,3.4-11.6,6.8c-3,3.3-3.5,8.2-1.9,12.3
			c3.3,8.5,14.7,8.1,21.7,5.2c4.5-1.8,7.6-5,10-9.2c2.9-5.2,4.2-10.9,9-14.6c1.6,1.8,1.8,3.9,0.9,6.6c-1.2,3.6-4,6.8-6.4,9.8
			c-4.6,5.8-12.2,13-11.7,21.1c0.1,1,0.7,1.9,1.7,2.1c4.5,1,9,1.2,13.1-0.9c3.5-1.7,5.8-5.2,7.4-8.6c2.9-6,4-13.4,8.1-18.9
			c0.1,1.8-0.6,3.5-1.4,5.5c-1.4,3.7-1.1,7.4,0.1,11.1c1.8,5.6,6.7,9.9,12.5,6.5c3.2-1.9,5.4-5.4,7.1-8.5c1.9-3.6,2.8-7.7,2.9-11.8
			c0.1-5-1.1-10-3-14.8c10.5,6.5,26.9,10.1,31.9-4c4.3-12-12.9-9-21.7-11.2c1.4-0.2,2.7-0.3,4.1-0.4c3.8-0.2,7.5-0.3,11.3-0.9
			c7-1.1,13.1-5.1,13-12.8c-0.1-6.7-7.5-5.4-11.8-4.3c-3.5,0.9-9.7,3.3-13.7,1.6c7.9-3.6,16.7-7.6,20.5-15.7c1.7-3.7,3-9.5,1.1-13.3
			c-1.5-3.1-5.4-2.3-7.8-1.1c-6.7,3.2-11.2,9.6-17.6,13.2c-1.5,0.9-3.2,1.6-4.8,2.2c-0.6,0.2-1.3,0.4-2,0.5c-0.2,0-0.6,0-0.8,0
			c0-0.1,0-0.2,0-0.4c0.2-1,0.6-1.9,1-2.8c1-2,2.3-3.7,4.1-5c3.4-2.6,7.4-4.3,10.7-7.2c3.7-3.2,5.6-7.6,6.5-12.3c0.8-4.2,1-9-0.8-13
			c-1.9-4.1-5.8-5.3-10-4.5c-11.8,2.1-11.5,15.4-15.6,24c-1.1,2.3-2.8,4.4-4.5,6.2c-0.7,0.8-2.7,3.1-3.9,2.9
			c-0.7-0.1-0.7-3.7-0.7-4.4c0-3.1,0.9-5.7,2.4-8.3c3.8-6.7,10.1-11.9,11.5-19.8c0.9-5.2-0.2-12.3-5.6-14.7
			c-5.7-2.5-11.8,2.8-14.2,7.6c-2.9,6.1-1.5,14.1-6.4,19.2c-2.2-2.5-2.6-5.7-2.2-9.3c0.6-5.2,2.3-10.3,3.7-15.4
			c1.3-4.9,2.5-10,1.7-15.1C244.5,1077,240.9,1073.5,236.1,1071.6z" clip-rule="evenodd"></path><path fill="#d0d7ed" fill-rule="evenodd" d="M450.8,1132.5c-0.6-4.5-2.5-8.7-4.6-12.6c-0.6-1.1-2-1.4-3-0.8c-5.3,3.3-10.4,6.7-16,9.6
			c-1.8,0.9-4.3,2.1-6.1,2.3c-0.1,0-0.5,0-0.7,0c0,0,0-0.1,0-0.1c0-0.5,0.1-0.9,0.2-1.4c1.8-8.3,8.8-14.1,11.1-22.2
			c1.2-4.3,1.1-9.5,0-13.7c-1.2-4.6-4.3-8.2-3.8-13.2c0.2-1.8-2-2.5-3.3-1.9c-7.7,3.6-17.1,6.4-22.6,13.3
			c-4.9,6.1-4.5,13.8-3.6,21.1c0.4,3.5,0.8,7.1,0.7,10.7c-0.1,2-0.3,5.5-2.6,6.1c-2.4,0.7-3.1-3.4-3.6-5.4c-1-4-1.4-8.1-1.9-12.1
			c-0.8-6.7-2.3-17-9.7-19.5c-3.2-1.1-6.2,1.2-7.9,3.7c-2.7,4-3.2,9.7-3.2,14.4c0.1,10.7,8.2,18.5,10.5,28.4c0.5,2.3,1.4,9.6-2,10.4
			c-1.2,0.3-2.8-1-3.7-1.7c-2-1.6-4-3.9-5-6.3c-3.8-9.3-0.9-19.9-5.2-29.1c-1.9-4-5.9-8.2-10.3-9.5c-3.7-1.1-6.9,1.1-8.8,4
			c-2.3,3.6-2.8,8.4-2.8,12.5c0.1,4.8,1.3,9.5,3.7,13.7c4.9,8.3,13.7,14.2,14.1,24.5c0.1,1.4,0,3.2-1.1,4.3c-0.8,0.8-2.4,0.3-3.3,0
			c-4.2-1.3-8.3-5.5-10.5-9.2c-2.7-4.4-3.4-9.8-4.6-14.8c-1.3-5.2-3.2-10-6.9-14c-2.7-2.9-6.8-5-10.6-3.2c-3.5,1.7-5.3,5.7-6.3,9.2
			c-1.3,4.7-1.3,9.8-0.4,14.6c1,5.2,4.5,9.8,7.9,13.7c3.5,4,7.5,7.5,10.9,11.6c0.9,1.1,1.6,1.9,2.8,2.7c1.3,0.9,2.7,1.6,3.8,2.7
			c0.9,0.9-0.5,1.7-1.3,2.2c-2,1.4-4.8-0.3-6.7-1.2c-1.8-0.9-3.7-1.4-5.4-2.4c-2-1.1-3.7-2.6-5.5-4c-3.5-2.8-7.2-5.8-11.6-6.9
			c-4.3-1-8.9,0.9-11.7,4.3c-5.9,7,0,16.7,5.9,21.5c3.8,3,8,4.3,12.9,4.4c5.9,0.1,11.6-1.5,17.1,0.8c-0.9,2.3-2.6,3.5-5.3,4
			c-3.8,0.7-7.9-0.2-11.6-0.8c-7.3-1.3-17.3-4.4-24.1,0c-0.8,0.5-1.3,1.5-1,2.5c1.3,4.4,3.3,8.4,7.1,11.1c3.2,2.2,7.3,2.5,11,2.3
			c6.7-0.4,13.7-3,20.4-2.1c-1.5,0.9-3.3,1.2-5.5,1.4c-3.9,0.5-7,2.6-9.7,5.5c-4,4.3-5.4,10.7,0.4,14.1c3.2,1.9,7.3,2.1,10.9,2.1
			c4.1-0.1,8.1-1.3,11.7-3.2c4.5-2.3,8.2-5.8,11.5-9.7c-0.6,12.3,4.2,28.4,19,26c12.6-2.1,1.7-15.6-0.7-24.4
			c0.8,1.1,1.6,2.3,2.3,3.4c2,3.2,3.9,6.4,6.2,9.4c4.3,5.6,10.8,9,17.5,5.2c5.8-3.3,1.1-9.2-1.9-12.4c-2.5-2.7-7.6-6.9-8-11.2
			c7,5.1,14.8,10.9,23.7,10.3c4.1-0.3,9.7-2,12.2-5.5c2-2.8-0.6-5.8-2.8-7.4c-6-4.3-13.8-5.1-20.1-9c-1.5-0.9-2.9-2-4.2-3.2
			c-0.5-0.5-1-0.9-1.4-1.5c-0.1-0.2-0.3-0.5-0.3-0.7c0.1-0.1,0.2-0.1,0.4-0.2c0.9-0.3,2-0.4,3-0.5c2.3-0.1,4.3,0.2,6.4,1.2
			c3.9,1.8,7.4,4.4,11.4,5.9c4.6,1.7,9.3,1.2,13.9-0.3c4-1.3,8.4-3.5,11-7c2.6-3.7,1.8-7.6-0.9-11c-7.5-9.3-19-2.6-28.5-2.1
			c-2.5,0.1-5.2-0.3-7.6-0.9c-1-0.2-4-0.8-4.4-2c-0.3-0.7,2.9-2.4,3.5-2.7c2.7-1.4,5.4-2,8.4-2c7.7,0,15.3,3.1,22.9,0.5
			c5-1.7,10.7-6.1,10.2-12c-0.5-6.2-8.1-9-13.5-8.7c-6.8,0.4-13.1,5.5-19.9,3.7c1.1-3.1,3.7-5,7-6.4c4.9-2,10.1-3,15.2-4.2
			c4.9-1.2,10-2.6,14-5.8C450.1,1142.5,451.5,1137.6,450.8,1132.5z" clip-rule="evenodd"></path><path fill="#c4cfe9" fill-rule="evenodd" d="M418.2,1089.7c-2.6,11.1-4.8,22.3-8,33.3c-3.3,11.3-8,21.7-14.4,31.5c-13.3,20.3-30.2,37.8-43.9,57.8
			c-0.6,0.8-0.5,1.6,0,2.2c-2.6,5-4.2,10.6-5.3,16.1c-1.9,9.4-2.5,19.1-2.9,28.7c-0.5,11.7-0.4,23.4,0.2,35.1
			c0.6,13.8,1.6,27.6,1,41.4c0,0.8-0.1,1.6-0.1,2.4c-0.2,2.9,4.3,2.8,4.4,0c0.8-13.5,0-27-0.7-40.4c-0.6-12-0.9-23.9-0.4-35.9
			c0.3-9.3,0.8-18.6,2.4-27.8c1.4-8.3,3.7-17.8,10-23.9c0.9-0.9,0.8-2,0.2-2.7c12.8-17.4,27.4-33.3,39.3-51.4
			c6.3-9.7,10.9-20.1,14.2-31.2c3.4-11.2,5.6-22.6,8.2-34C423.1,1088.1,418.8,1087,418.2,1089.7z" clip-rule="evenodd"></path><path fill="#c4cfe9" fill-rule="evenodd" d="M345.9,1338.9c-2.4-21.5-12.3-40.8-22.6-59.5c-10.2-18.6-20.9-37.4-24-58.7c-0.4-2.8-4.7-1.6-4.3,1.2
			c6.2,42.4,41.6,74.2,46.4,117C341.8,1341.7,346.2,1341.7,345.9,1338.9z" clip-rule="evenodd"></path><path fill="#c4cfe9" fill-rule="evenodd" d="M411,1238c-18.9,8.3-37.5,20.9-50.2,37.4c-6.9,9-11,19.2-13.6,29.9c-1-11.2-3-22.2-5.2-33.2
			c-5-25.7-8.8-51.5-11.2-77.5c-1-10.3-1.7-20.7-2.1-31.1c-0.1-2.8-4.6-2.8-4.4,0c1.3,28.8,4.6,57.4,9.1,85.9
			c3,19.3,8.1,38.3,9.6,57.7c-1.7-10.5-4.2-20.9-7.4-31c-4.6-14.5-10.8-28.5-18.9-41.4c0.1-0.5-0.1-1.1-0.6-1.6
			c-0.5-0.6-1.1-1.2-1.7-1.8c-2-3-4.1-6-6.3-8.8c-1-1.3-2.4-0.8-3.1,0.2c-3.4-2.6-7-4.9-10.9-6.9c-9.1-4.7-20.4-7.8-24.8-18.1
			c-1.1-2.6-4.9-0.4-3.8,2.2c4.3,10.2,14.9,14.1,24.2,18.6c8.3,4,15.3,9.2,21.6,15.8c8.8,13.5,15.5,28.4,20.3,43.7
			c5.9,18.6,9.3,38.1,9.4,57.6c0,0.1,0,0.2,0,0.3c-0.3,1.4,0.8,2.4,2.1,2.5c0.6,2,4.2,1.7,4.3-0.8c1.6-20.9,4-42.9,17.4-60
			c12.4-15.8,30.3-27.8,48.6-35.7C415.9,1240.7,413.6,1236.9,411,1238z" clip-rule="evenodd"></path><path fill="#d4dcef" fill-rule="evenodd" d="M278.5,1089.3c-4-2-8.6-2.8-13-3.4c-1.2-0.1-2.3,0.9-2.4,2.1c-0.3,6.2-0.3,12.4-1.1,18.6
			c-0.3,2-0.7,4.8-1.5,6.3c-0.1,0.1-0.3,0.4-0.4,0.6c0,0-0.1,0-0.1-0.1c-0.4-0.2-0.8-0.6-1.1-0.9c-5.8-6.1-6.6-15.3-12-21.7
			c-2.8-3.4-7.2-6.3-11.3-7.8c-4.5-1.6-9.2-1.1-13.1-4.4c-1.4-1.2-3.2,0.2-3.5,1.7c-1.4,8.4-4.4,17.7-1.8,26.1
			c2.3,7.5,8.8,11.5,15.3,14.9c3.2,1.6,6.3,3.3,9.2,5.5c1.6,1.2,4.4,3.3,3.6,5.6c-0.8,2.4-4.6,0.6-6.5-0.1c-3.8-1.4-7.4-3.4-11-5.3
			c-6-3.1-15.3-7.7-21.6-3.1c-2.8,2-2.5,5.8-1.4,8.6c1.8,4.5,6.2,8.2,10.1,10.8c8.8,6,19.8,3.7,29.4,7.4c2.2,0.8,8.7,4.2,7.4,7.5
			c-0.4,1.1-2.4,1.8-3.4,2.1c-2.5,0.7-5.5,1.1-8,0.5c-9.8-2.1-16.9-10.5-26.9-12.2c-4.4-0.7-10.1,0.3-13.6,3.1c-3,2.4-3,6.3-1.6,9.5
			c1.6,3.9,5.3,7.1,8.8,9.4c4,2.7,8.6,4.3,13.4,4.7c9.6,0.7,19.4-3.3,28.2,2.2c1.2,0.7,2.6,1.8,2.9,3.3c0.2,1.1-1.1,2.2-1.8,2.8
			c-3.5,2.7-9.2,3.7-13.5,3.5c-5.2-0.2-10-2.8-14.8-4.6c-5-1.9-10.1-3-15.4-2.2c-3.9,0.6-8,2.7-8.7,6.9c-0.6,3.9,1.6,7.6,4,10.4
			c3.1,3.8,7.3,6.6,11.8,8.6c4.8,2.1,10.6,1.8,15.7,1.2c5.3-0.6,10.4-2,15.8-2.4c1.4-0.1,2.5-0.2,3.8-0.8c1.4-0.6,2.8-1.3,4.3-1.6
			c1.3-0.3,1.1,1.3,1.1,2.3c0,2.4-3,3.8-4.8,4.8c-1.7,1-3.3,2.3-5,3.1c-2,1-4.3,1.6-6.4,2.2c-4.3,1.3-8.9,2.6-12.2,5.7
			c-3.3,3-4.3,7.9-3.1,12.1c2.4,8.8,13.8,9.4,21.1,7.3c4.6-1.4,8.1-4.2,10.9-8.1c3.4-4.9,5.3-10.4,10.4-13.7c1.4,2,1.4,4.1,0.3,6.6
			c-1.6,3.5-4.7,6.4-7.3,9.1c-5.2,5.3-13.4,11.8-13.6,19.8c0,1,0.5,1.9,1.5,2.3c4.3,1.4,8.8,2,13.2,0.4c3.6-1.4,6.2-4.6,8.2-7.8
			c3.4-5.7,5.3-13,9.9-18c-0.1,1.8-0.9,3.4-1.9,5.4c-1.8,3.5-1.8,7.3-0.9,11.1c1.3,5.8,5.8,10.5,11.9,7.7c3.3-1.6,5.9-4.8,7.9-7.8
			c2.3-3.4,3.5-7.4,4-11.4c0.6-5-0.1-10.1-1.5-15c9.8,7.5,25.8,12.6,32.2-0.9c5.4-11.6-11.9-10.2-20.5-13.2c1.4-0.1,2.8,0,4.1,0
			c3.8,0.1,7.5,0.4,11.3,0.2c7-0.4,13.5-3.8,14.2-11.5c0.6-6.7-6.9-6.1-11.3-5.4c-3.6,0.5-10,2.3-13.8,0.3c8.2-2.8,17.3-6,21.9-13.7
			c2.1-3.5,3.9-9.2,2.4-13.2c-1.2-3.3-5.1-2.8-7.7-1.8c-7,2.5-12,8.5-18.8,11.5c-1.6,0.7-3.3,1.3-5,1.7c-0.7,0.1-1.3,0.3-2,0.3
			c-0.2,0-0.5-0.1-0.7-0.1c0-0.1,0-0.2,0-0.4c0.3-1,0.8-1.9,1.3-2.7c1.2-1.9,2.6-3.4,4.6-4.6c3.7-2.2,7.8-3.6,11.3-6.1
			c4-2.8,6.3-7,7.6-11.6c1.2-4.1,1.9-8.9,0.4-13c-1.5-4.3-5.3-5.8-9.5-5.5c-11.9,0.9-12.9,14.2-17.9,22.3c-1.3,2.2-3.2,4.1-5,5.8
			c-0.8,0.7-2.9,2.8-4.1,2.6c-0.7-0.2-0.3-3.7-0.2-4.4c0.3-3,1.4-5.6,3.1-8.1c4.4-6.3,11.2-10.9,13.4-18.6c1.4-5.1,1-12.3-4.1-15.2
			c-5.4-3.1-12.1,1.6-14.8,6.2c-3.5,5.8-2.8,13.9-8.2,18.5c-1.9-2.7-2.1-5.9-1.3-9.4c1.1-5.2,3.3-10.1,5.1-15
			c1.8-4.7,3.5-9.7,3.2-14.8C286.3,1095.5,283.1,1091.6,278.5,1089.3z" clip-rule="evenodd"></path><polygon fill="#d0d9ee" fill-rule="evenodd" points="396.2 1469 300.7 1469 269.4 1345.5 425.3 1345.5" clip-rule="evenodd"></polygon><rect width="174.5" height="16.1" x="259" y="1329.5" fill="#c4cfe9" fill-rule="evenodd" clip-rule="evenodd"></rect><polygon fill="#c4cfe9" fill-rule="evenodd" points="347.4 1345.5 269.4 1345.5 300.7 1469 347.4 1469" clip-rule="evenodd"></polygon><rect width="88.3" height="16.1" x="259" y="1329.5" fill="#bcc9e7" fill-rule="evenodd" clip-rule="evenodd"></rect><polygon fill="#c4cfe9" fill-rule="evenodd" points="396.2 1470.9 300.7 1470.9 269.4 1454.2 425.3 1454.2" clip-rule="evenodd"></polygon><polygon fill="#bcc9e7" fill-rule="evenodd" points="347.4 1454.2 269.4 1454.2 300.7 1470.9 347.4 1470.9" clip-rule="evenodd"></polygon><rect width="190.7" height="190.7" x="498.1" y="1357.6" fill="#d1a383" fill-rule="evenodd" clip-rule="evenodd"></rect><g><path fill="#bcc9e7" fill-rule="evenodd" d="M1217,434.2H813.2c-38.9,0-70.7,31.8-70.7,70.7v189.4l0,0l0,0c-6.5,0-11.7,5.3-11.7,11.7v99.3
			c0,6.4,5.3,11.7,11.7,11.7l0,0l0,0v563.1c0,38.9,31.8,70.7,70.7,70.7H1217c38.9,0,70.7-31.8,70.7-70.7V948.5c0.3,0,0.7,0,1,0l0,0
			c6.5,0,11.7-5.3,11.7-11.7v-99.3c0-6.5-5.3-11.7-11.7-11.7l0,0c-0.3,0-0.7,0-1,0V792c0.3,0,0.7,0,1,0l0,0
			c6.5,0,11.7-5.3,11.7-11.7v-99.3c0-6.5-5.3-11.7-11.7-11.7l0,0c-0.3,0-0.7,0-1,0V505C1287.7,466,1256,434.2,1217,434.2z" clip-rule="evenodd"></path><path fill="#fff" fill-rule="evenodd" d="M1217,453.1H813.2c-28.5,0-51.9,23.3-51.9,51.9v875.2c0,28.5,23.3,51.9,51.9,51.9H1217
			c28.5,0,51.9-23.3,51.9-51.9V505C1268.9,476.4,1245.5,453.1,1217,453.1z" clip-rule="evenodd"></path><path fill="#fff" fill-rule="evenodd" d="M1217,474.4c-132.4,0-271.4,0-403.8,0c-16.8,0-30.6,13.8-30.6,30.6v875.2c0,16.8,13.8,30.6,30.6,30.6H1217
			c16.8,0,30.6-13.8,30.6-30.6V505C1247.6,488.1,1233.8,474.4,1217,474.4z" clip-rule="evenodd"></path><path fill="#d0d9ee" fill-rule="evenodd" d="M867,505.4v84.4c0,27.2-22.3,49.5-49.5,49.5l0,0c-27.2,0-49.5-22.3-49.5-49.5v-84.4H867z" clip-rule="evenodd"></path><path fill="#aab9de" fill-rule="evenodd" d="M966.1,505.4v84.4c0,27.2-22.3,49.5-49.5,49.5l0,0c-27.2,0-49.5-22.3-49.5-49.5v-84.4H966.1z" clip-rule="evenodd"></path><path fill="#d0d9ee" fill-rule="evenodd" d="M1065.1,505.4v84.4c0,27.2-22.3,49.5-49.5,49.5l0,0c-27.2,0-49.5-22.3-49.5-49.5v-84.4H1065.1z" clip-rule="evenodd"></path><path fill="#aab9de" fill-rule="evenodd" d="M1164.2,505.4v84.4c0,27.2-22.3,49.5-49.5,49.5l0,0c-27.2,0-49.5-22.3-49.5-49.5v-84.4H1164.2z" clip-rule="evenodd"></path><path fill="#d0d9ee" fill-rule="evenodd" d="M1263.3,505.4v84.4c0,27.2-22.3,49.5-49.5,49.5l0,0c-27.3,0-49.6-22.3-49.6-49.5v-84.4H1263.3z" clip-rule="evenodd"></path><path fill="#aab9de" fill-rule="evenodd" d="M1362.4 505.4v84.4c0 27.2-22.3 49.5-49.5 49.5l0 0c-27.3 0-49.5-22.3-49.5-49.5v-84.4H1362.4zM668.8 505.4v84.4c0 27.2 22.3 49.5 49.5 49.5l0 0c27.3 0 49.5-22.3 49.5-49.5v-84.4H668.8z" clip-rule="evenodd"></path><polygon fill="#aab9de" fill-rule="evenodd" points="668.8 505.4 767.9 505.4 838.7 378.2 767.9 378.2" clip-rule="evenodd"></polygon><polygon fill="#d0d9ee" fill-rule="evenodd" points="767.9 505.4 867 505.4 909.4 378.2 838.7 378.2" clip-rule="evenodd"></polygon><polygon fill="#aab9de" fill-rule="evenodd" points="867 505.4 966.1 505.4 980.2 378.2 909.4 378.2" clip-rule="evenodd"></polygon><polygon fill="#d0d9ee" fill-rule="evenodd" points="966.1 505.4 1065.1 505.4 1051 378.2 980.2 378.2" clip-rule="evenodd"></polygon><polygon fill="#aab9de" fill-rule="evenodd" points="1065.1 505.4 1164.2 505.4 1121.8 378.2 1051 378.2" clip-rule="evenodd"></polygon><polygon fill="#d0d9ee" fill-rule="evenodd" points="1164.2 505.4 1263.3 505.4 1192.5 378.2 1121.8 378.2" clip-rule="evenodd"></polygon><polygon fill="#aab9de" fill-rule="evenodd" points="1263.3 505.4 1362.4 505.4 1263.3 378.2 1192.5 378.2" clip-rule="evenodd"></polygon></g><g><rect width="450.1" height="641.4" x="790.5" y="650.8" fill="#e9eff8" fill-rule="evenodd" clip-rule="evenodd" transform="translate(-1.271 1.33)"></rect><rect width="403.7" height="52.1" x="813.4" y="691.5" fill="#d0d9ee" fill-rule="evenodd" clip-rule="evenodd" transform="translate(-.934 1.323)"></rect><path fill="#d0d9ee" fill-rule="evenodd" d="M826.1 786.5l51.3-.1.1 51.3-51.3.1L826.1 786.5 826.1 786.5zM826.7 1202.8l51.3-.1.1 51.3-51.3.1L826.7 1202.8 826.7 1202.8zM826.6 1119.5l51.3-.1.1 51.3-51.3.1L826.6 1119.5 826.6 1119.5zM826.4 1036.3l51.3-.1.1 51.3-51.3.1L826.4 1036.3 826.4 1036.3zM826.3 953l51.3-.1.1 51.3-51.3.1L826.3 953 826.3 953zM826.2 869.7l51.3-.1.1 51.3-51.3.1L826.2 869.7zM917.7 788.2l278.4-.4c4.7 0 8.6 3.8 8.6 8.5v0c0 4.7-3.8 8.5-8.5 8.6l-278.4.4c-4.7 0-8.6-3.8-8.6-8.5l0 0C909.2 792.1 913 788.2 917.7 788.2L917.7 788.2zM918.2 1204.5l278.4-.4c4.7 0 8.5 3.8 8.6 8.5l0 0c0 4.7-3.8 8.5-8.5 8.6l-278.4.4c-4.7 0-8.5-3.8-8.6-8.5l0 0C909.7 1208.4 913.5 1204.5 918.2 1204.5L918.2 1204.5zM918.3 1235l167.2-.2c4.7 0 8.5 3.8 8.6 8.5l0 0c0 4.7-3.8 8.5-8.5 8.6l-167.2.2c-4.7 0-8.6-3.8-8.6-8.5l0 0C909.7 1238.8 913.6 1235 918.3 1235L918.3 1235zM918.1 1121.3l278.4-.4c4.7 0 8.5 3.8 8.6 8.5l0 0c0 4.7-3.8 8.6-8.5 8.6l-278.4.4c-4.7 0-8.5-3.8-8.6-8.5l0 0C909.6 1125.1 913.4 1121.3 918.1 1121.3L918.1 1121.3zM918.2 1151.7l167.2-.2c4.7 0 8.6 3.8 8.6 8.5v0c0 4.7-3.8 8.5-8.5 8.6l-167.2.2c-4.7 0-8.6-3.8-8.6-8.5l0 0C909.6 1155.6 913.5 1151.7 918.2 1151.7L918.2 1151.7zM918 1038l278.4-.4c4.7 0 8.5 3.8 8.6 8.5l0 0c0 4.7-3.8 8.6-8.5 8.6l-278.4.4c-4.7 0-8.6-3.8-8.6-8.5l0 0C909.5 1041.9 913.3 1038 918 1038L918 1038zM918 1068.4l167.2-.2c4.7 0 8.6 3.8 8.6 8.5l0 0c0 4.7-3.8 8.5-8.5 8.6l-167.2.2c-4.7 0-8.6-3.8-8.6-8.5l0 0C909.5 1072.3 913.4 1068.5 918 1068.4L918 1068.4zM917.9 954.7l278.4-.4c4.7 0 8.6 3.8 8.6 8.5v0c0 4.7-3.8 8.5-8.5 8.6l-278.4.4c-4.7 0-8.6-3.8-8.6-8.5l0 0C909.4 958.6 913.2 954.7 917.9 954.7L917.9 954.7zM917.9 985.2l167.2-.2c4.7 0 8.6 3.8 8.6 8.5l0 0c0 4.7-3.8 8.5-8.5 8.6l-167.2.2c-4.7 0-8.6-3.8-8.6-8.5l0 0C909.4 989 913.2 985.2 917.9 985.2L917.9 985.2zM917.8 871.5l278.4-.4c4.7 0 8.6 3.8 8.6 8.5l0 0c0 4.7-3.8 8.6-8.5 8.6l-278.4.4c-4.7 0-8.6-3.8-8.6-8.5l0 0C909.3 875.3 913.1 871.5 917.8 871.5L917.8 871.5zM917.8 901.9l167.2-.2c4.7 0 8.5 3.8 8.6 8.5l0 0c0 4.7-3.8 8.5-8.5 8.6L917.9 919c-4.7 0-8.6-3.8-8.6-8.5l0 0C909.3 905.8 913.1 901.9 917.8 901.9L917.8 901.9zM917.7 818.7l167.2-.2c4.7 0 8.5 3.8 8.6 8.5l0 0c0 4.7-3.8 8.6-8.5 8.6l-167.2.2c-4.7 0-8.5-3.8-8.6-8.5l0 0C909.2 822.5 913 818.7 917.7 818.7z" clip-rule="evenodd"></path><path fill="#bcc9e7" fill-rule="evenodd" d="M831.9,798.4c-1.4-2.3-0.7-5.3,1.6-6.7c2.3-1.4,5.3-0.7,6.7,1.6l11.5,18.7l26.7-37.1
			c1.6-2.2,4.6-2.7,6.8-1.1c2.2,1.6,2.7,4.6,1.1,6.8l-30.9,42.8c-0.4,0.6-0.9,1.1-1.5,1.5c-2.3,1.4-5.3,0.7-6.7-1.6L831.9,798.4
			L831.9,798.4z M832.1,881.7c-1.4-2.3-0.7-5.3,1.6-6.7c2.3-1.4,5.3-0.7,6.7,1.6l11.5,18.7l26.7-37.1c1.6-2.2,4.6-2.7,6.8-1.1
			c2.2,1.6,2.7,4.6,1.1,6.8l-30.9,42.8c-0.4,0.6-0.9,1.1-1.5,1.5c-2.3,1.4-5.3,0.7-6.7-1.6L832.1,881.7L832.1,881.7z M832.5,1214.8
			c-1.4-2.3-0.7-5.3,1.6-6.7c2.3-1.4,5.3-0.7,6.7,1.6l11.5,18.7l26.7-37.1c1.6-2.2,4.6-2.7,6.8-1.1c2.2,1.6,2.7,4.6,1.1,6.8
			l-30.9,42.8c-0.4,0.6-0.9,1.1-1.5,1.5c-2.3,1.4-5.3,0.7-6.7-1.6L832.5,1214.8L832.5,1214.8z M832.4,1131.5
			c-1.4-2.3-0.7-5.3,1.6-6.7c2.3-1.4,5.3-0.7,6.7,1.6l11.5,18.7l26.7-37.1c1.6-2.2,4.6-2.7,6.8-1.1c2.2,1.6,2.7,4.6,1.1,6.8
			l-30.9,42.8c-0.4,0.6-0.9,1.1-1.5,1.5c-2.3,1.4-5.3,0.7-6.7-1.6L832.4,1131.5L832.4,1131.5z M832.3,1048.2
			c-1.4-2.3-0.7-5.3,1.6-6.7c2.3-1.4,5.3-0.7,6.7,1.6l11.5,18.7l26.7-37.1c1.6-2.2,4.6-2.7,6.8-1.1c2.2,1.6,2.7,4.6,1.1,6.8
			l-30.9,42.8c-0.4,0.6-0.9,1.1-1.5,1.5c-2.3,1.4-5.3,0.7-6.7-1.6L832.3,1048.2L832.3,1048.2z M832.2,965c-1.4-2.3-0.7-5.3,1.6-6.7
			c2.3-1.4,5.3-0.7,6.7,1.6l11.5,18.7l26.7-37.1c1.6-2.2,4.6-2.7,6.8-1.1c2.2,1.6,2.7,4.6,1.1,6.8l-30.9,42.8
			c-0.4,0.6-0.9,1.1-1.5,1.5c-2.3,1.4-5.3,0.7-6.7-1.6L832.2,965z" clip-rule="evenodd"></path></g><g><path fill="#f4ae7c" fill-rule="evenodd" d="M665.9,1548.3c0.1-0.4,0.2-0.7,0.3-1c1.5-4.9,4.1-9.5,5.2-15.2c1.5-8.3,3.6-30.5,4.5-40.4
			c0.1-3.5,3.2-79.6,17.2-132.6v0c0.8-3.1,1.7-6.1,2.5-9.1c4.6-15.6,9.8-28.3,15.6-35.1c25.9-30.7,50.7,34.2,50.7,34.2l-22.2,59.7
			l-4.7,12.5l-28.1,68.9c0,0-8.6,33.1-5.8,44.9c2.7,11.2,13.6,15.5,24.6,19.2c1.2,0.4,2.5,0.8,3.7,1.2c0.5,0.1,0.9,0.3,1.4,0.4
			c9.3,3,17.6,5.6,16.6,7.8c-1.1,2.7-8.3,8.6-27.6,7c-17-1.4-16-4.1-24.9-4.3c-0.2,0-0.4,0-0.6,0c-0.2,0-0.5,0-0.7,0
			c-0.9,0-2,0-3.1,0.1c-9,0.4-17.3,0.1-22-2.5l0,0c-2.6-1.4-4.1-3.5-4.1-6.6C664.4,1554.1,665.1,1551.2,665.9,1548.3z" clip-rule="evenodd"></path><path fill="#142d4d" fill-rule="evenodd" d="M664.4,1557.2c0,3,1.5,5.1,4.1,6.6l0,0c5,2.3,13.2,2.7,22,2.4c1.2,0,2.2,0,3.1,0c0.2,0,0.5,0,0.7,0
			c0.2,0,0.4,0,0.6,0c8.9,0.2,8,2.9,24.9,4.3c19.3,1.6,26.5-4.3,27.6-7c1-2.3-7.3-4.9-16.6-7.8c-2.6,1-15,5.3-29.7,2.5
			c-12.9-2.4-25.7-8.8-34.9-11c-0.1,0.4-0.2,0.7-0.3,1C665.1,1551.2,664.4,1554.1,664.4,1557.2z" clip-rule="evenodd"></path><path fill="#ed7d5b" fill-rule="evenodd" d="M695.6,1349.8c8.7,14.8,26.9,43.7,44.1,58.7l22.2-59.7c0,0-24.8-64.8-50.7-34.2
			C705.4,1321.6,700.2,1334.3,695.6,1349.8z" clip-rule="evenodd"></path><path fill="#f4ae7c" fill-rule="evenodd" d="M863.2,1518.1c1.7,8.5,13.8,7.1,27.4,3.8c13.6-3.3,10.3,0.6,29.6-1.5c19.3-2.1,25.1-9.3,25.7-12.2
			c0.5-2.5-9-3.4-19.2-4.6c-1.3-0.1-2.6-0.3-3.9-0.5c-11.5-1.5-20-8.9-30.5-15c-9.9-5.8-24.8-29.4-24.8-29.4l-37.7-3
			c0,0,25.2,26.2,30.5,35.3c3.2,5.4,3,12.5,2.6,18C862.8,1512,862.6,1515.1,863.2,1518.1z" clip-rule="evenodd"></path><path fill="#142d4d" fill-rule="evenodd" d="M890.6,1521.9c13.6-3.3,10.3,0.6,29.6-1.5c19.3-2.1,25.1-9.3,25.7-12.2c0.5-2.5-9-3.4-19.2-4.6l-0.1,0.2
			c0,0-11.6,8.2-27.6,8.6c-13.1,0.3-26.9-3.4-36-3.3c-0.2,3-0.4,6.1,0.2,9.1C864.9,1526.6,877.1,1525.2,890.6,1521.9z" clip-rule="evenodd"></path><path fill="#f4ae7c" fill-rule="evenodd" d="M536.3,1286.8c0,0,163.8-55.4,200.4-43.6c36.5,11.8,132.4,217.7,132.4,217.7s11.4,15.7,4.6,18.2
			c-6.3,2.3-26.7-10.1-26.7-10.1s-93.8-72.6-105.6-97.3c-11.8-24.7-16.5-48.3-28.3-46c-11.8,2.4-152,57.7-183.9,24.7
			c-31.8-33-23.5-75.9-23.5-75.9L536.3,1286.8z" clip-rule="evenodd"></path><path fill="#0f3970" fill-rule="evenodd" d="M719.3 1241.7c24.5-11.9-44.9 28-41.1 65.3 24.9 18.8 19.4 56.8 7.4 67.3 0 0-63.5 19.7-87 0-23.5-19.7-55.9-4.5-80.1-22.2-24.2-17.8-33.8-84.4 28.7-151.3 0 0 41.5 44.5 86.7 21.6C633.8 1222.4 651.2 1253.3 719.3 1241.7zM579 945.7c0 0-20-4-31.5 3.3-11.5 7.4-10 25.7-12 32.2s-22.1 12.6-27.2 32.2c-5.1 19.7 11.6 5 30.5-6.6C557.6 995.3 574.5 983.8 579 945.7z" clip-rule="evenodd"></path><path fill="#f4ae7c" fill-rule="evenodd" d="M570.9,965.5c1.2,19.2,7.1,40.2-2.7,57.9l42.5,1.8c-2.1-11-1.5-17.2,1.1-29.9L570.9,965.5z" clip-rule="evenodd"></path><path fill="#d2d8ea" fill-rule="evenodd" d="M516.6,1132.1c0,0,2.7,8.1,5,17.1c-2.6,0-5-0.3-6.1-0.2C505.2,1149.5,514.1,1137.5,516.6,1132.1
			L516.6,1132.1z M472.1,1170.7c0.1,5.7,26.6,7.2,55,7.1l0,0.3c0.3,2.5,0.7,4.8,0.9,6.4c0.2,1.7,0.4,3.6,0.6,5.5
			c1.2,16.4-1.3,39-8.6,57.9c0,0,68.2,12.6,114.9-7c0,0-0.8-18,8.7-42.2c9.6-24.2,55.2-107.1,55.2-107.1s-22.9-41.4-42.6-50.5
			c-19.7-9.1-45.6-16.1-45.6-16.1l-38.4-2.4c0,0-32.7,5.1-40,6.6c-13.1,2.7-18.5,6.5-26.4,19C495,1065.5,471.6,1145,472.1,1170.7z" clip-rule="evenodd"></path><path fill="#cebcb5" fill-rule="evenodd" d="M517.1 1132.5c0 0 1.4 3.8 4.6 18.6 8.8-39.7 8.4-60.8 8.4-60.8C527.5 1111.6 517.1 1132.5 517.1 1132.5zM527.2 1178.2c.3 2.5.7 4.8.9 6.4.2 1.7.4 3.6.6 5.5 16.7-7 28.8-12.6 28.8-12.6C553.1 1178 527.2 1178.2 527.2 1178.2z" clip-rule="evenodd"></path><path fill="#f4ae7c" fill-rule="evenodd" d="M570.1,1023.1l41.3,41.2l-0.8-39.1C610.7,1025.1,585,1016.8,570.1,1023.1z" clip-rule="evenodd"></path><polygon fill="#99a9d4" fill-rule="evenodd" points="599.1 1056.7 611.5 1064.3 571.7 1016" clip-rule="evenodd"></polygon><path fill="#8d9fca" fill-rule="evenodd" d="M524.9,1174.7c3.6,26.3-25.1,81.8-25.1,81.8l44,18.8c6.3,2.7,13.6-0.6,15.7-7.2
			c8.9-27.7,30.2-95.8,35.8-134.4c7.1-49.2-23-111-23-111c-65,4.5-57.2,103-57.2,103s1.7,6.3,3.9,16.2v0c0.5,2.5,1.1,5.2,1.7,8
			C522.1,1157.2,523.6,1165.8,524.9,1174.7z" clip-rule="evenodd"></path><path fill="#8398c9" fill-rule="evenodd" d="M559.2,1268.9c0.1-0.3,0.2-0.5,0.3-0.8c8.9-27.7,30.2-95.8,35.8-134.4c7.2-49.2-23-111-23-111
			c-12.4,0.9-22.1,5.2-29.8,11.5c-25.2,29.6-20.8,85-20.8,85c0,0,1.7,6.3,3.9,16.1l0,0c0.5,2.5,1.1,5.2,1.7,8
			c1.5,7.4,3,15.9,4.2,24.8c3.6,26.3-25.1,81.8-25.1,81.8l44,18.8C553.3,1270.1,556.5,1270,559.2,1268.9z" clip-rule="evenodd"></path><path fill="#8d9fca" fill-rule="evenodd" d="M615,1027.7l-0.6-2.2c0,0,32.2,8.3,48,18.2c15.8,10,43.3,56.1,43.3,56.1l-47.2,50.8c-4.3,42.2-5,88.8-5,88.8
			l-20.2,9.1c-5.4,2.4-11.5-1.8-11-7.7c2.3-28.6,7.9-67.4,10.5-100.3c3.4-42.3-19.9-113.7-19.9-113.7
			C613.8,1027.1,614.4,1027.4,615,1027.7z" clip-rule="evenodd"></path><path fill="#8398c9" fill-rule="evenodd" d="M620,1027.1c9.9,2.8,30.7,9.3,42.4,16.7c12,7.6,30.9,36.3,39.2,49.4l-40.4,43.5c-0.4,3.9-0.7,8-1.1,12.3
			l-1.6,1.7c-3.2,31.5-4.4,58.9-4.8,82.4l-17.7,8c-5.4,2.4-11.5-1.8-11-7.7c2.3-28.6,7.9-73.8,10.5-106.7
			C638.1,1095.9,626.6,1050.1,620,1027.1z" clip-rule="evenodd"></path><path fill="#f4ae7c" fill-rule="evenodd" d="M654.5,1231.8c0,0-31.5-1.9-36.3-3.6c-4.8-1.7-35.9-19.1-36.5-33.3s74.4,20.1,74.4,20.1L654.5,1231.8z" clip-rule="evenodd"></path><polygon fill="#e3bb9b" fill-rule="evenodd" points="561.4 1178.4 690.3 1176.3 628.1 1217.3" clip-rule="evenodd"></polygon><polygon fill="#d1a383" fill-rule="evenodd" points="628.1 1217.3 560.6 1186.5 561.4 1178.4 631.3 1208.8" clip-rule="evenodd"></polygon><path fill="#f4ae7c" fill-rule="evenodd" d="M600.8,1158.7c0,0,10.5,1.1,16.6,0.5c4.7-0.5,15.9,2,18.5,4.8c2.6,2.9,10,21.6,11.7,22.9
			c1.6,1.3-1.2,3.5-4.2,2c0,0-3.6,7.5-10.2,3.9c-6.6-3.6-10.7-10.5-14.2-12c-3.5-1.5-24-9.3-24-9.3S595.5,1156.3,600.8,1158.7z" clip-rule="evenodd"></path><polygon fill="#99a9d4" fill-rule="evenodd" points="609 1017.8 629.4 1058.6 640.4 1067.2 616.9 1026.2" clip-rule="evenodd"></polygon><polygon fill="#acb8db" fill-rule="evenodd" points="609 1017.8 629 1057.7 638.4 1065.1 615 1024.1" clip-rule="evenodd"></polygon><polygon fill="#99a9d4" fill-rule="evenodd" points="629.4 1058.6 611.5 1064.3 610.7 1025.1 609 1017.8" clip-rule="evenodd"></polygon><path fill="#8398c9" fill-rule="evenodd" d="M652.4,1213.4c0,0-0.3,16.3-2,19.6c0,0,79.4,0.1,87.8-10.2c8.4-10.3,9.5-23.6,9.5-23.6L652.4,1213.4z" clip-rule="evenodd"></path><polygon fill="#d1a383" fill-rule="evenodd" points="628.1 1217.3 679.1 1082.9 821.9 1082.2 770.4 1205.5" clip-rule="evenodd"></polygon><polygon fill="#99a9d4" fill-rule="evenodd" points="571.7 1016 599.1 1056.7 580.5 1070.3 566.6 1023.4" clip-rule="evenodd"></polygon><polygon fill="#acb8db" fill-rule="evenodd" points="571.7 1016 597.2 1054 580.9 1065.9 567.8 1021.6" clip-rule="evenodd"></polygon><path fill="#8d9fca" fill-rule="evenodd" d="M518.2,1138.6l0.7,3.3c0.5,2.5,1.1,5.2,1.7,8c5.8,2.5,58.4,3.9,58.4,3.9
			C579.1,1153.8,536.4,1139.1,518.2,1138.6z" clip-rule="evenodd"></path><path fill="#8398c9" fill-rule="evenodd" d="M520.3,1148.8c8.5,0.2,22.3,0.7,33.6,1.8c17.5,1.7,47.3,6.7,47.3,6.7l-5.5,18.4c0,0-54,3.3-83.2,2.4l0,0
			c0,0-38.7,0.5-41-5.5c-2.3-6,5.2-42.3,14.8-74.7c9.6-32.4,17.9-50.8,26.5-60.3c8.6-9.4,49.7-13.4,49.7-13.4l-45.3,108.3
			c0,0-5.9,9.5-6.1,13.8c-0.1,1.3,0.8,2,2,2.4c0.9,0,2.8,0,5.4,0.1L520.3,1148.8z" clip-rule="evenodd"></path><path fill="#d1a383" fill-rule="evenodd" d="M737.9,1135.6c6-0.7,10.3,3.4,9.7,9.3c-0.6,5.8-5.9,11.1-11.8,11.8c-5.9,0.7-10.3-3.4-9.7-9.3
				C726.7,1141.6,732,1136.3,737.9,1135.6z" clip-rule="evenodd"></path><path fill="#d1a383" fill-rule="evenodd" d="M737.9,1135.6c3.6-0.4,6.6,0.9,8.3,3.4c-1.8,4.5-6.2,8.1-11.1,8.7c-3.6,0.4-6.6-0.9-8.3-3.4
				C728.6,1139.8,733.1,1136.1,737.9,1135.6z" clip-rule="evenodd"></path><path fill="#0f3970" fill-rule="evenodd" d="M575.9,962.3c0,0-20-4-31.5,3.3c-11.5,7.4-10,25.7-12,32.2s-22.1,12.6-27.2,32.2c-5.1,19.7,11.6,5,30.5-6.6
			C554.6,1012,571.4,1000.4,575.9,962.3z" clip-rule="evenodd"></path><path fill="#f4ae7c" fill-rule="evenodd" d="M566.9,969.2c2.2,4.4,12.6,28.1,39.7,36.6c29.7,9.4,34.2-24.6,35.9-30.5c1.7-5.9,6.6-23.8,8.4-26.1
			c1.8-2.3,7.6-20.3-3.7-33.4c-11.3-13.1-62.2,5-73.3,11C559.7,934.6,562.3,959.9,566.9,969.2z" clip-rule="evenodd"></path><path fill="#0f3970" fill-rule="evenodd" d="M634.7,914.2c0,0-3,19.8,20.2,30.8c0,0,12.9-38.2-11.8-53.4c-34.5-21.3-83.2-12.4-83.2,36
			c0,9-0.6,23.4,4.8,35.1c0,0,0.5-19.2,8.6-27c8.1-7.8,6.7,7.5,13.5,6.1C593.6,940.4,618,927.7,634.7,914.2z" clip-rule="evenodd"></path><path fill="#09378c" fill-rule="evenodd" d="M608.9 952c2.7.3 4.7 2.7 4.4 5.4-.3 2.7-2.7 4.7-5.4 4.4-2.7-.3-4.7-2.7-4.4-5.4C603.8 953.7 606.2 951.7 608.9 952zM639 955.8c2.7.3 4.7 2.7 4.4 5.4-.3 2.7-2.7 4.7-5.4 4.4-2.7-.3-4.7-2.7-4.4-5.4C633.9 957.5 636.3 955.5 639 955.8z" clip-rule="evenodd"></path><path fill="#fff" fill-rule="evenodd" d="M609.7,980.5c5.6,2.9,19,3.9,22.5,2.2C625.7,993.7,614,989.4,609.7,980.5z" clip-rule="evenodd"></path><path fill="#f3a26a" fill-rule="evenodd" d="M628,951.5c1.8,2.3,0.4,11,1.7,17.9c0.4,2.2,0.1,4.3-1,6.2l-0.2,0.4c-1.2,1.9-2.9,3-5,3.1
			c-1.9,0.1-4.1-0.5-6.7-1.9c5-1.2,2.8-1.2,6.5-1.5c1-0.1,1.8-0.6,2.4-1.5l0.2-0.3C626.8,972,627.9,953.9,628,951.5z" clip-rule="evenodd"></path><path fill="#09378c" fill-rule="evenodd" d="M620.3 944.7c-5.3-.1-4.5-1-10.2-2.5-2.7-.7-5.9 0-10.4.5C606.8 936.8 617.4 938.3 620.3 944.7zM634.2 947.1c4.3.8 3.8-.1 8.7-.4 2.3-.1 4.8.9 8.4 2.1C646.4 942.9 637.6 942.4 634.2 947.1z" clip-rule="evenodd"></path><path fill="#f4ae7c" fill-rule="evenodd" d="M577,933.6c4.9,0.5,8.2,7.4,7.4,15.4c-0.8,8-5.4,14.1-10.3,13.6c-4.9-0.5-8.2-7.4-7.4-15.4
			C567.6,939.3,572.2,933.2,577,933.6z" clip-rule="evenodd"></path></g><g><polygon fill="#e3bb9b" fill-rule="evenodd" points="1256.8 1514.2 1245.9 1333.4 1338.4 1318.9 1352.9 1481.6" clip-rule="evenodd"></polygon><polygon fill="#c19274" fill-rule="evenodd" points="1211.5 1492.5 1256.8 1514.2 1245.9 1333.4 1225.1 1328.7" clip-rule="evenodd"></polygon><polygon fill="#9d7558" fill-rule="evenodd" points="1235.5 1331 1238.7 1479.1 1256.8 1514.2 1245.9 1333.4" clip-rule="evenodd"></polygon><polygon fill="#9d7558" fill-rule="evenodd" points="1238.7 1479.1 1211.5 1492.5 1256.8 1514.2" clip-rule="evenodd"></polygon><polygon fill="#c19274" fill-rule="evenodd" points="1329.9 1316.9 1338.4 1318.9 1245.9 1333.4 1225.1 1328.7" clip-rule="evenodd"></polygon><path fill="#9d7558" fill-rule="evenodd" d="M1273.9,1340.2c0.8,1.7,0,3.7-1.7,4.5c-1.7,0.8-3.7,0-4.5-1.7c-18.2-40.4-15-72.5-3.8-91
			c6-9.8,14.3-16,23-17.7c8.9-1.8,18.2,1.1,25.9,9.2c12.7,13.5,21,42.2,14.9,89.6c-0.2,1.9-1.9,3.2-3.8,3c-1.9-0.2-3.2-1.9-3-3.8
			c5.8-45.1-1.6-71.9-13.1-84.1c-5.9-6.3-12.9-8.5-19.6-7.2c-6.9,1.4-13.5,6.4-18.5,14.5C1259.5,1272.4,1256.7,1302.1,1273.9,1340.2
			z" clip-rule="evenodd"></path><path fill="#9d7558" fill-rule="evenodd" d="M1313.8,1318.7c7.7-29,3.9-52-5-66.7c-6-9.8-14.3-16-23-17.7c-8.9-1.8-18.2,1.1-25.9,9.2
			c-12.1,12.8-20.2,39.5-15.7,83l6.8-0.8c-4.3-41.2,2.9-65.9,13.9-77.5c5.9-6.3,12.9-8.5,19.6-7.2c6.9,1.3,13.5,6.4,18.5,14.5
			c8.3,13.7,11.7,35.8,3.5,63.9L1313.8,1318.7z" clip-rule="evenodd"></path><polygon fill="#e3bb9b" fill-rule="evenodd" points="1356 1524.2 1345.1 1384.1 1437.6 1372.9 1452.1 1499" clip-rule="evenodd"></polygon><polygon fill="#c19274" fill-rule="evenodd" points="1310.7 1507.4 1356 1524.2 1345.1 1384.1 1324.3 1380.5" clip-rule="evenodd"></polygon><polygon fill="#9d7558" fill-rule="evenodd" points="1334.7 1382.3 1337.9 1497 1356 1524.2 1345.1 1384.1" clip-rule="evenodd"></polygon><polygon fill="#9d7558" fill-rule="evenodd" points="1337.9 1497 1310.7 1507.4 1356 1524.2" clip-rule="evenodd"></polygon><polygon fill="#c19274" fill-rule="evenodd" points="1429.1 1371.3 1437.6 1372.9 1345.1 1384.1 1324.3 1380.5" clip-rule="evenodd"></polygon><path fill="#9d7558" fill-rule="evenodd" d="M1373.1,1389.4c0.8,1.3,0,2.9-1.7,3.5c-1.7,0.6-3.7,0-4.5-1.3c-18.2-31.3-15-56.2-3.8-70.5
			c6-7.6,14.3-12.4,23-13.7c8.9-1.4,18.2,0.8,25.9,7.1c12.7,10.4,21,32.7,14.9,69.4c-0.2,1.4-1.9,2.5-3.8,2.3c-1.9-0.2-3.2-1.5-3-3
			c5.8-34.9-1.6-55.7-13.1-65.1c-5.9-4.9-12.9-6.6-19.6-5.5c-6.9,1-13.5,4.9-18.5,11.2C1358.6,1336.8,1355.9,1359.9,1373.1,1389.4z" clip-rule="evenodd"></path><path fill="#9d7558" fill-rule="evenodd" d="M1413,1372.7c7.7-22.4,3.9-40.3-5-51.6c-6-7.6-14.3-12.4-23-13.7c-8.9-1.4-18.2,0.8-25.9,7.1
			c-12.1,9.9-20.2,30.6-15.7,64.3l6.8-0.6c-4.3-31.9,2.9-51.1,13.9-60.1c5.9-4.9,12.9-6.6,19.6-5.5c6.9,1,13.5,4.9,18.5,11.2
			c8.3,10.6,11.7,27.7,3.5,49.6L1413,1372.7z" clip-rule="evenodd"></path></g><g><polygon fill="#e3bb9b" fill-rule="evenodd" points="1289.3 1343.5 1281.4 1527 1081.2 1505.9 1104.9 1343.5" clip-rule="evenodd"></polygon><path fill="#9d7558" fill-rule="evenodd" d="M1314.8 1504.4c-16.1 5.9-25.5 14-33.4 22.6l7.9-183.5 9-.2L1314.8 1504.4zM1289.3 1343.5l-23.3 73.6c-3.3 8.2-6.8 15.3-20.3 14.2l-128.5-8.1c-11.5-.7-11.7-6.5-11.8-14.4v-65.3H1289.3z" clip-rule="evenodd"></path><path fill="#fff" fill-rule="evenodd" d="M1196.6,1418.2l-32.7-2.1c-1.8-0.1-3.6,1.1-3.9,2.9l-4.5,29c-0.3,1.8,0.9,3.4,2.6,3.6l34,3.4
			c1.8,0.2,3.7-1.1,3.9-2.9l3.1-30.4C1199.4,1420,1198.4,1418.3,1196.6,1418.2z" clip-rule="evenodd"></path><polygon fill="#9d7558" fill-rule="evenodd" points="1190.5 1426 1188.4 1446.5 1164.5 1444.1 1167.5 1424.5" clip-rule="evenodd"></polygon><path fill="#9d7558" fill-rule="evenodd" d="M1250.9,1343.5c-2-7.1-6.7-13-13-17.7c-2.7-2-5.8-3.8-9-5.2c-1.9-5-13.5-9.2-27.7-9.8
			c-15-0.6-27.5,3.2-28.7,8.5c-0.9,0.4-1.9,0.8-2.8,1.3c-9.4,4.8-16.5,12.4-18.8,22.9h6.9c2.2-7.7,7.7-13.3,14.9-17c1-0.5,2-1,3-1.4
			c4.7,3.4,14,5.9,24.7,6.3c11.2,0.4,21-1.6,25.8-4.8c2.8,1.3,5.5,2.8,7.9,4.6c4.5,3.3,8,7.5,9.8,12.3H1250.9z" clip-rule="evenodd"></path></g><polygon fill="#fff" fill-rule="evenodd" points="1295.1 964.9 1390.2 964.9 1390.2 1239 1385.1 1239 1385.1 970 1295.1 970" clip-rule="evenodd"></polygon><path fill="#bcc9e7" fill-rule="evenodd" d="M709.6 844.1v-10.2h20.4v10.2H709.6L709.6 844.1zM473.3 596.7v5.4h10.2v-5.4H473.3L473.3 596.7zM473.3 612.2h10.2v20.4h-10.2V612.2L473.3 612.2zM473.3 642.8h10.2v20.4h-10.2V642.8L473.3 642.8zM473.3 673.3h10.2v20.4h-10.2V673.3L473.3 673.3zM473.3 703.8h10.2v20.4h-10.2V703.8L473.3 703.8zM473.3 734.4h10.2v20.4h-10.2V734.4L473.3 734.4zM473.3 764.9h10.2v20.4h-10.2V764.9L473.3 764.9zM473.3 795.4h10.2v20.4h-10.2V795.4L473.3 795.4zM473.3 825.9h10.2v8h2.2v10.2h-12.4V825.9L473.3 825.9zM495.9 844.1v-10.2h20.4v10.2H495.9L495.9 844.1zM526.4 844.1v-10.2h20.4v10.2H526.4L526.4 844.1zM556.9 844.1v-10.2h20.4v10.2H556.9L556.9 844.1zM587.4 844.1v-10.2h20.4v10.2H587.4L587.4 844.1zM618 844.1v-10.2h20.4v10.2H618L618 844.1zM648.5 844.1v-10.2h20.4v10.2H648.5L648.5 844.1zM679 844.1v-10.2h20.4v10.2H679zM437.2 595.6h-71.4c-9.1 0-16.5-7.4-16.5-16.5v-71.4c0-9.1 7.4-16.5 16.5-16.5h71.4c9.1 0 16.5 7.4 16.5 16.5v71.4C453.7 588.2 446.3 595.6 437.2 595.6zM584.1 519.5h-100v-9.2h100V519.5L584.1 519.5zM559.5 581.7h-75.4v-9.2h75.4V581.7L559.5 581.7zM620.1 540.2H484.1v-9.2h135.9V540.2L620.1 540.2zM657 561H484.1v-9.2H657V561z" clip-rule="evenodd"></path><path fill="#fff" fill-rule="evenodd" d="M400.7 519.8c0 0 5.8-10.7 18.4-11.4 11.3-.7 19.7 9.5 20.4 21.9.8 14.3-8.8 31.9-35.4 48.2-28.3-13.1-39.9-29.4-40.7-43.7-.7-12.4 6.4-23.4 17.7-24.1C393.7 509.8 400.7 519.8 400.7 519.8zM1335 915.2v10.2h-20.4v-10.2H1335L1335 915.2zM1417.2 801.4v12.9h10.2v-12.9H1417.2L1417.2 801.4zM1417.2 824.5h10.2v20.4h-10.2V824.5L1417.2 824.5zM1417.2 855h10.2v20.3h-10.2V855L1417.2 855zM1417.2 885.5h10.2v20.4h-10.2V885.5L1417.2 885.5zM1423.1 916.1h4.2v9.3h-21.2v-10.2h16.1L1423.1 916.1 1423.1 916.1zM1396 915.2v10.2h-20.4v-10.2H1396L1396 915.2zM1365.5 915.2v10.2h-20.4v-10.2H1365.5zM1349.1 745.3c7.7 0 14 6.3 14 14 0 7.7-6.3 14-14 14-7.7 0-14-6.3-14-14C1335.1 751.6 1341.4 745.3 1349.1 745.3L1349.1 745.3zM1488.8 745.3c7.7 0 14 6.3 14 14 0 7.7-6.3 14-14 14-7.7 0-14-6.3-14-14C1474.7 751.6 1481 745.3 1488.8 745.3L1488.8 745.3zM1442.2 745.3c7.7 0 14 6.3 14 14 0 7.7-6.3 14-14 14-7.7 0-14-6.3-14-14C1428.2 751.6 1434.5 745.3 1442.2 745.3L1442.2 745.3zM1395.6 745.3c7.7 0 14 6.3 14 14 0 7.7-6.3 14-14 14-7.7 0-14-6.3-14-14C1381.6 751.6 1387.9 745.3 1395.6 745.3z" clip-rule="evenodd"></path></svg>