<svg xmlns="http://www.w3.org/2000/svg" xmlns:xlink="http://www.w3.org/1999/xlink" width="559.413" height="129.283" viewBox="0 0 559.413 129.283">
  <defs>
    <clipPath id="clip-path">
      <path id="Path_2700" data-name="Path 2700" d="M.484,23H83.932V152.283H.484Zm0,0" transform="translate(-0.484 -23)"/>
    </clipPath>
    <clipPath id="clip-path-2">
      <path id="Path_2702" data-name="Path 2702" d="M.484,23H85.992v98.863H.484Zm0,0" transform="translate(-0.484 -23)"/>
    </clipPath>
    <clipPath id="clip-path-3">
      <path id="Path_2707" data-name="Path 2707" d="M26,23h86.473V152.283H26Zm0,0" transform="translate(-26 -23)"/>
    </clipPath>
    <clipPath id="clip-path-4">
      <path id="Path_2709" data-name="Path 2709" d="M26,23h86.473v96.8H26Zm0,0" transform="translate(-26 -23)"/>
    </clipPath>
  </defs>
  <g id="Slikk-AI-Logo" transform="translate(-0.484 -23.244)">
    <g id="Group_453" data-name="Group 453" transform="translate(0.484 23.244)" clip-path="url(#clip-path)">
      <path id="Path_2699" data-name="Path 2699" d="M33.551,28.878,78.236,73.772a19.272,19.272,0,0,1,2.414,2.945,19.8,19.8,0,0,1,1.786,3.363,19.56,19.56,0,0,1,0,14.9,19.369,19.369,0,0,1-4.2,6.316L33.551,146.182C21.346,158.443.468,149.754.484,132.408V42.628C.468,25.306,21.346,16.617,33.551,28.878Zm0,0" transform="translate(-0.484 -22.852)" fill="#72147e"/>
    </g>
    <g id="Group_454" data-name="Group 454" transform="translate(0.484 23.244)" clip-path="url(#clip-path-2)">
      <path id="Path_2701" data-name="Path 2701" d="M33.547,28.878C21.407,16.689.778,25.209.488,42.338c0,0,70.318,66.834,59.134,77.728l18.649-18.738a18.758,18.758,0,0,0,2.406-2.945,19.389,19.389,0,0,0,2.9-7.016,19.668,19.668,0,0,0,0-7.595,19.389,19.389,0,0,0-2.9-7.016,18.758,18.758,0,0,0-2.406-2.945Zm0,0" transform="translate(-0.48 -22.851)" fill="#f21170"/>
    </g>
    <g id="Group_456" data-name="Group 456" transform="translate(53.038 23.244)" clip-path="url(#clip-path-3)">
      <path id="Path_2706" data-name="Path 2706" d="M106.367,73.256,61.674,28.37c-12-12.06-43.969,1.923-33.027,12.913L60.781,73.578a19.584,19.584,0,0,1,5.31,9.96,19.668,19.668,0,0,1,0,7.595,19.248,19.248,0,0,1-1.11,3.645,18.961,18.961,0,0,1-1.786,3.363,19.734,19.734,0,0,1-2.414,2.953l-32.11,32.27c-9.791,9.824,21.127,24.314,33,12.39l44.693-44.894a19.387,19.387,0,0,0,2.422-2.953,19.106,19.106,0,0,0,1.8-3.371,19.567,19.567,0,0,0-1.8-18.328A19.788,19.788,0,0,0,106.367,73.256Zm0,0" transform="translate(-25.574 -22.232)" fill="#72147e"/>
    </g>
    <g id="Group_457" data-name="Group 457" transform="translate(53.038 23.244)" clip-path="url(#clip-path-4)">
      <path id="Path_2708" data-name="Path 2708" d="M106.367,73.256,61.674,28.37c-12-12.06-43.969,1.923-33.027,12.913L60.781,73.578a19.109,19.109,0,0,1,3.757,5.31,19.327,19.327,0,0,1,1.786,6.259C77.4,98.205,86.6,110.885,88.522,118.786l17.869-17.958a19.387,19.387,0,0,0,2.422-2.953,19.61,19.61,0,0,0,1.794-3.371,19.989,19.989,0,0,0,1.1-3.661,19.532,19.532,0,0,0-2.921-14.635A20.3,20.3,0,0,0,106.367,73.256Zm0,0" transform="translate(-25.574 -22.232)" fill="#fa9905"/>
    </g>
    <g id="Group_460" data-name="Group 460" transform="translate(163.33 29.887)">
      <g id="Group_459" data-name="Group 459">
        <g id="Group_458" data-name="Group 458" transform="translate(0 0)">
          <path id="Path_2710" data-name="Path 2710" d="M2.3-27.129q0-13.734,6.533-21.079,6.565-7.362,19.663-7.37,13.058,0,19.6,7.37,6.565,7.337,6.565,21.079v4.377h-16.8v-5.5q0-6.143-2.349-8.657a8.522,8.522,0,0,0-6.533-2.51,8.536,8.536,0,0,0-6.565,2.51q-2.353,2.51-2.349,8.657A20.037,20.037,0,0,0,22.634-17.99,43.747,43.747,0,0,0,29.1-9.59q3.886,3.958,8.335,7.949a76.506,76.506,0,0,1,8.335,8.657,43.43,43.43,0,0,1,6.469,10.652,35.445,35.445,0,0,1,2.575,14.064q0,13.746-6.726,21.111-6.7,7.337-19.792,7.337-13.07,0-19.792-7.337-6.7-7.362-6.694-21.111V23.976h16.8v8.882q0,6.155,2.51,8.593a9.247,9.247,0,0,0,6.694,2.414,9.3,9.3,0,0,0,6.726-2.414q2.51-2.438,2.51-8.593a19.916,19.916,0,0,0-2.607-10.266,42.493,42.493,0,0,0-6.469-8.4q-3.862-3.958-8.3-7.917a78.7,78.7,0,0,1-8.335-8.657A43.442,43.442,0,0,1,4.87-13.066,35.277,35.277,0,0,1,2.3-27.129Zm0,0" transform="translate(-1.812 55.578)" fill="#fff"/>
        </g>
      </g>
    </g>
    <g id="Group_463" data-name="Group 463" transform="translate(226.529 31.174)">
      <g id="Group_462" data-name="Group 462">
        <g id="Group_461" data-name="Group 461" transform="translate(0 0)">
          <path id="Path_2711" data-name="Path 2711" d="M3.141-54.953h17.8V42.076H50.191V58.231H3.141Zm0,0" transform="translate(-3.141 54.953)" fill="#fff"/>
        </g>
      </g>
    </g>
    <g id="Group_466" data-name="Group 466" transform="translate(281.657 31.174)">
      <g id="Group_465" data-name="Group 465">
        <g id="Group_464" data-name="Group 464" transform="translate(0 0)">
          <path id="Path_2712" data-name="Path 2712" d="M3.141-54.953h17.8V58.231H3.141Zm0,0" transform="translate(-3.141 54.953)" fill="#fff"/>
        </g>
      </g>
    </g>
    <g id="Group_469" data-name="Group 469" transform="translate(312.373 31.174)">
      <g id="Group_468" data-name="Group 468">
        <g id="Group_467" data-name="Group 467" transform="translate(0 0)">
          <path id="Path_2713" data-name="Path 2713" d="M26.408,13.112,20.937,23.474V58.231H3.141V-54.953h17.8V-5.618L44.527-54.953H62L37.254-4.492,62,58.231H43.722Zm0,0" transform="translate(-3.141 54.953)" fill="#fff"/>
        </g>
      </g>
    </g>
    <g id="Group_472" data-name="Group 472" transform="translate(379.303 31.174)">
      <g id="Group_471" data-name="Group 471">
        <g id="Group_470" data-name="Group 470" transform="translate(0 0)">
          <path id="Path_2714" data-name="Path 2714" d="M26.408,13.112,20.937,23.474V58.231H3.141V-54.953h17.8V-5.618L44.527-54.953H62L37.254-4.492,62,58.231H43.722Zm0,0" transform="translate(-3.141 54.953)" fill="#fff"/>
        </g>
      </g>
    </g>
    <g id="Group_475" data-name="Group 475" transform="translate(446.233 127.205)">
      <g id="Group_474" data-name="Group 474">
        <g id="Group_473" data-name="Group 473" transform="translate(0 0)">
          <path id="Path_2715" data-name="Path 2715" d="M20.294-8.328V8.825H3.141V-8.328Zm0,0" transform="translate(-3.141 8.328)" fill="#fff"/>
        </g>
      </g>
    </g>
    <g id="Group_478" data-name="Group 478" transform="translate(471.604 31.174)">
      <g id="Group_477" data-name="Group 477">
        <g id="Group_476" data-name="Group 476" transform="translate(0 0)">
          <path id="Path_2716" data-name="Path 2716" d="M63.132,58.231H45.174L42.085,37.7H20.265L17.208,58.231H.859L18.978-54.953H45.013ZM22.518,22.348H39.671L31.11-34.9Zm0,0" transform="translate(-0.859 54.953)" fill="#fff"/>
        </g>
      </g>
    </g>
    <g id="Group_481" data-name="Group 481" transform="translate(542.101 31.174)">
      <g id="Group_480" data-name="Group 480">
        <g id="Group_479" data-name="Group 479" transform="translate(0 0)">
          <path id="Path_2717" data-name="Path 2717" d="M3.141-54.953h17.8V58.231H3.141Zm0,0" transform="translate(-3.141 54.953)" fill="#fff"/>
        </g>
      </g>
    </g>
  </g>
</svg>
