<svg xmlns="http://www.w3.org/2000/svg" viewBox="0 0 4000 3017.69" id="woman-learning-to-cook-food"><g data-name="1"><g data-name="12"><g data-name="1"><g data-name="6"><path fill="#bed6f4" fill-rule="evenodd" d="M2818.21,1025.37C2807,1392.28,3577,1253.54,3366.49,929.08c-130.23-200.75-539.67-185.4-548.28,96.29Zm962.67,348.1v1498.2H936c-307.33-30.39-718.8-146.61-716.89-557.36,1-219.63,186.22-434.63,589-554.74,223.05-66.52,284-132.7,141.72-333.3-36.58-51.55-82.52-104-123.8-165.21C634,976,720.33,659.51,1064.53,549c152.65-49,298.33,5.5,454.19,52,328.75,98,427.6-93,575.11-261.78C2428.68-43.93,2828.21,182.89,2727,668.82c-38.85,186.62-113.33,375.57-24.08,505.77,99,144.41,362.47,173.07,520.24,139.92C3435.53,1269.88,3624.32,1297.29,3780.88,1373.47Z"></path><path fill="#75a3db" fill-rule="evenodd" d="M1137.54,2871.67c84-140.64-53.19-282.1-148.92-353.15-92.3-68.5-177.76-189.5-47.57-258.22,65.86-34.77,149.44-44.92,50.91-174.81-19.84-26.15-92.68-80.31-127.58-145.81-76.39-143.4,102.76-284.4,198.44-121.55,49.59,84.38,57.07,215.57,68.51,268.38,43.69,125.62,184.94,19.72,264.32,135.94,53.85,78.85-16.83,212.92-6.05,330.55,12,131.17,120.26,197.74,190.76,150.09,145-98-17.62-654.94-16.31-836.92,1.81-253.65,147.67-295.47,246.84-149.9,35.77,52.5,57.55,132.65,74,232,16.4,99.08,23.51,317.11,23.86,451.63.43,160.58-2.28,233.72,78.61,276.07,111.15,58.2,309-111.22,309.6-261.78.89-214.44-138.61-303.4-162.91-531.65-18.36-172.54,109.3-415.3,219.93-543.5,58.37-67.63,105.48-109.62,150.3-9.85,18.24,40.6-28.12,199.91-31.19,270.42-7.32,167.6,52.22,328.16,59.73,514.77,4,100.56-25.71,308.89-55,409.58-7.3,25.06-17,50.92-30.83,80.78-.18.41,17.66-19,36.83-63.42,43.95-101.78,51-195.06,108.25-307.13,126.59-247.74,331.36-408.61,368.37-568.42,6.8-29.36,24.06-4,26.75,43.18,3.16,55.51-32.86,307.49-44.31,357.22-26,112.85-75.47,311.35-147.13,458.5-40.76,83.7-94.22,149-123.45,182.36-49.34,56.24-.29,74.44,50.06,67.11,114.25-16.61,173.3-132.58,198.62-231.65,39.62-155.05-3.85-312.94,186.57-364.69,93.82-25.5,167.2-60.36,192.69-151.5,83.1-297.1,288.93-166.63,227.82,9.5-21.06,60.69-62.16,121.46-97.63,154.48-75.82,70.55-153.35,103.13-143.87,218.91,111.62-35.39,253.27,155-6.23,240.91-211.11,92.53,12.46,117.39-187.33,221.55Z"></path><path fill="#fff5ba" fill-rule="evenodd" d="M3293.23,2486.63a5.74,5.74,0,1,1,4.37,10.62c-6.11,2.53-10.13,4.16-14.24,5.83-66.1,26.78-156.72,63.49-247.07,206-29.31,46.23-56.59,77.37-91.43,101.79s-76.59,41.69-135.31,60.52a5.75,5.75,0,0,1-6.17-9.16c1.89-2.31,81.12-99.37,155.67-198.08,29.69-39.32,41.23-94.92,52.83-150.75,7.48-36,15-72.15,27.39-104.5,30.43-79.42,97.29-124.8,169.77-174,102-69.23,215.4-146.2,249.79-337.86a5.74,5.74,0,1,1,11.3,2c-35.24,196.42-150.74,274.81-254.65,345.34-70.9,48.12-136.29,92.5-165.45,168.58-12.11,31.61-19.51,67.23-26.89,102.75-11.86,57.11-23.67,114-54.91,155.34-57.52,76.19-118.22,151.83-143.64,183.27,48.1-16.23,83.83-32,113.69-52.9,33.42-23.42,59.77-53.58,88.28-98.54,92.33-145.62,184.93-183.14,252.48-210.51C3284.67,2490.12,3290.14,2487.9,3293.23,2486.63Z"></path><path fill="#fff5ba" fill-rule="evenodd" d="M3012.23 2741.78a5.76 5.76 0 11-4.64-10.54c21.45-9.5 42.49-16.15 62.47-22.46 36.55-11.55 69.48-22 93-46.42a5.75 5.75 0 018.29 8c-25.53 26.62-59.77 37.44-97.77 49.44C3053.8 2726 3033 2732.56 3012.23 2741.78zM3104.36 2620.35a5.75 5.75 0 01-9.64-6.26c12.14-18.69 21.65-37.83 30.67-56 17.44-35.12 33.16-66.77 63.29-86.87a5.75 5.75 0 116.39 9.55c-27.58 18.4-42.64 48.74-59.36 82.41C3126.55 2581.62 3116.9 2601.05 3104.36 2620.35zM3170.59 2560.25a5.74 5.74 0 013.33-11c14.29 4.33 28.12 8 41.8 9.87 13.4 1.86 26.65 2 40.05-.55a5.75 5.75 0 112.17 11.3c-14.74 2.83-29.22 2.67-43.8.65C3199.84 2568.55 3185.43 2564.75 3170.59 2560.25zM3027.35 2495.65a5.66 5.66 0 01-7.88 1.68 5.78 5.78 0 01-1.67-7.95c16-24.81 41.11-51.57 68.79-76.58 34.25-31 72.43-59.26 101.94-77.85a5.68 5.68 0 017.86 1.85 5.8 5.8 0 01-1.83 7.93c-29.11 18.33-66.72 46.21-100.38 76.63C3067.19 2445.74 3042.76 2471.73 3027.35 2495.65zM2942.85 2704.69a6 6 0 01-7.79 2.77 5.5 5.5 0 01-2.34-7.63c41.43-78.81 37-123.78 32.62-168.13-3.11-31.5-6.19-62.7 6.17-105.07a6.11 6.11 0 017.15-4.31 5.44 5.44 0 013.92 6.92c-11.73 40.19-8.75 70.3-5.75 100.7v0C2981.37 2576 2986 2622.66 2942.85 2704.69zM3260.21 2212.08a5.74 5.74 0 113.33-11c14.41 4.37 38.86.76 66.76-11.28 24.54-10.58 51.42-27.64 76.25-51.5a5.75 5.75 0 018 8.29c-25.92 24.91-54 42.73-79.67 53.8C3304.47 2213.5 3277.08 2217.2 3260.21 2212.08zM3114.05 2318.26a5.75 5.75 0 01-11.49-.32c.45-14.83 13.61-33 28.43-53.57 17.82-24.66 38.2-52.88 39.36-79.08a5.75 5.75 0 0111.49.5c-1.31 29.63-22.77 59.34-41.52 85.29C3126.58 2290.1 3114.39 2307 3114.05 2318.26zM3384.87 2098.16a5.76 5.76 0 11-10.09-5.54c6.12-11.1 13.12-44.41 15.89-75.26 2.16-24 1.83-46-3.44-53.5a5.76 5.76 0 119.42-6.62c7 9.93 7.83 34.75 5.46 61.11C3399.22 2050.59 3391.62 2085.92 3384.87 2098.16zM2934.45 1812.84a5.76 5.76 0 0111.09 3.11c-99.88 353.14-186.94 471.28-267.38 580.44-38.79 52.65-76 103.19-112.32 177.13-53.44 108.89-75.64 292.55-75.71 293.08a5.76 5.76 0 01-11.44-1.4c.07-.53 22.48-186 76.83-296.73 36.79-75 74.3-125.86 113.36-178.88C2748.73 2281.23 2835.15 2164 2934.45 1812.84z"></path><path fill="#fff5ba" fill-rule="evenodd" d="M2761.42 2274.57a5.76 5.76 0 01-5.86-9.91c25.63-15.19 44.08-27.74 62.26-45.57s36.53-41.4 61.7-78.37a5.76 5.76 0 019.51 6.49c-25.59 37.58-44.25 61.54-63.15 80.08S2787.8 2258.94 2761.42 2274.57zM2529.47 2668.69a5.74 5.74 0 11-9.27-6.76c34.12-46.74 88.71-91.77 141.82-135.57 68.15-56.2 133.82-110.36 148.24-161.58a5.75 5.75 0 1111.08 3.11c-15.39 54.66-82.44 110-152 167.35C2616.75 2578.59 2562.71 2623.16 2529.47 2668.69zM2615.21 2485.59a5.75 5.75 0 01-9.64-6.26c16.43-25.27 30.62-86.27 45.2-148.93 16.15-69.41 32.77-140.85 54.42-171a5.74 5.74 0 119.32 6.71c-20.26 28.22-36.62 98.56-52.52 166.91C2647.18 2396.64 2632.77 2458.58 2615.21 2485.59zM2298.26 2865.9a5.77 5.77 0 11-11.53 0c0-127 17.06-231.73 33.81-334.52 14.3-87.79 28.36-174.14 31.25-271.49 2.78-94.08-9.13-190.55-21.12-287.67-4.88-39.48-9.77-79.09-13.77-119.64-7.67-77.74 2.46-154.5 12.59-231.22 1.31-9.88 2.6-19.72 3.71-28.35a5.75 5.75 0 0111.4 1.44c-1.32 10.29-2.52 19.37-3.71 28.4-10 76.06-20.09 152.16-12.55 228.61 3.87 39.2 8.83 79.34 13.77 119.37 12 97.43 24 194.21 21.16 289.38-2.91 98.21-17 184.89-31.38 273C2315.23 2635.47 2298.26 2739.67 2298.26 2865.9z"></path><path fill="#fff5ba" fill-rule="evenodd" d="M2355.43 2379.81a5.75 5.75 0 01-5.85-9.91c25-14.82 48.42-46.79 69.68-86.07 21.57-39.84 40.83-87.1 57.28-131.8a5.76 5.76 0 1110.81 4c-16.6 45.1-36.07 92.85-57.95 133.27C2407.22 2330.25 2382.45 2363.8 2355.43 2379.81zM2363.22 2234.47a5.76 5.76 0 01-5.86-9.91c28.47-16.87 40.11-60.87 53.08-109.88 9.45-35.74 19.59-74.07 37.62-107.5a5.75 5.75 0 1110.13 5.44c-17.39 32.27-27.35 69.89-36.63 105C2408 2169 2395.75 2215.19 2363.22 2234.47zM2323.25 1817.14a5.75 5.75 0 11-9.27-6.8c17.25-23.59 29.27-43.2 38.2-62s14.78-36.82 19.72-57.32a5.75 5.75 0 1111.17 2.71c-5.13 21.27-11.23 40-20.49 59.52S2341 1792.93 2323.25 1817.14zM2355.53 2097.92a5.76 5.76 0 01-10.09 5.54c-28.58-52.05-52.75-103-71.23-163.15s-31.2-129.24-36.88-217.6a5.76 5.76 0 1111.49-.73c5.61 87.42 18.17 155.7 36.38 215S2327.28 2046.46 2355.53 2097.92zM1759.65 2868.67a5.75 5.75 0 01-10.09-5.5c69.77-127.46 52.43-229.45 22-408.41-20.33-119.59-46.46-273.28-56.51-491.61a5.75 5.75 0 1111.48-.49c10 217.49 36.09 370.87 56.38 490.21C1813.76 2634.3 1831.34 2737.7 1759.65 2868.67z"></path><path fill="#fff5ba" fill-rule="evenodd" d="M1809.18 2692.61a5.71 5.71 0 01-7.41 3.29 5.79 5.79 0 01-3.34-7.43c2-5.18 4.3-11.12 6.66-17.15 20.2-51.65 43.29-110.71 37.38-190.45a5.71 5.71 0 015.32-6.12 5.81 5.81 0 016.16 5.36c6.1 82.27-17.51 142.65-38.15 195.44C1813.63 2681.09 1811.5 2686.55 1809.18 2692.61zM1799 2556.12a5.75 5.75 0 11-10.49 4.73c-11.42-25.15-26.59-41.7-42.56-59.13-21.55-23.51-44.49-48.56-62.42-97.41a5.76 5.76 0 0110.81-4c17.18 46.81 39.3 71 60.08 93.63C1771.08 2512.13 1786.89 2529.38 1799 2556.12zM930.14 1828a5.75 5.75 0 019.46-6.53c13 18.86 83.41 152.26 138.72 278.74 32.9 75.25 60.53 148.24 67.76 193.7 19.74 124.06 48.42 185.63 77.45 248 34.1 73.22 68.69 147.5 90.2 323.29a5.76 5.76 0 01-11.44 1.4c-21.29-174-55.49-247.42-89.21-319.83-29.35-63-58.34-125.27-78.35-251-7-44.36-34.38-116.4-67-190.9C1012.74 1979 943 1846.62 930.14 1828z"></path><path fill="#fff5ba" fill-rule="evenodd" d="M1030.82 1996.79a5.75 5.75 0 11-10.91 3.65c-15.43-45.77-9.44-101-4.82-143.54 1.17-10.8 2.25-20.77 2.86-29.53a5.75 5.75 0 0111.48.76c-.61 8.89-1.72 19-2.9 30C1022 1899.6 1016.19 1953.42 1030.82 1996.79zM1215.74 2526.13a5.74 5.74 0 11-6.3 9.59c-23-15.18-44.72-21.12-67.53-27.36-30.76-8.42-63.51-17.39-104.73-49.2a5.75 5.75 0 017-9.1c39.45 30.44 71 39.09 100.72 47.22C1168.64 2503.77 1191.19 2509.94 1215.74 2526.13zM1067.91 2079.45a5.76 5.76 0 01-9.69 6.22c-15.69-24.43-34.13-44.2-53-60.85s-38.44-30.44-56-42.58a5.75 5.75 0 016.54-9.46c17.78 12.31 37.56 26.22 57.05 43.44S1051.59 2054.05 1067.91 2079.45zM1172.07 2413.53a5.75 5.75 0 01-10.9 3.65c-15.87-47.06-7.63-131.62-2.48-184.53 1.12-11.46 2.09-21.39 2.64-29.43a5.76 5.76 0 0111.49.77c-.53 7.57-1.53 17.86-2.69 29.74C1165.07 2285.71 1157 2368.77 1172.07 2413.53zM1275.47 2671.53a5.75 5.75 0 01-10.9 3.65c-9.84-29.18-4.45-80.18 9.31-144.64 13.6-63.71 35.36-140.84 58.63-223a5.75 5.75 0 1111.08 3.1c-23.21 82-44.93 159-58.45 222.32C1271.78 2595.53 1266.39 2644.58 1275.47 2671.53z"></path></g><g data-name="5"><path fill="#75a3db" fill-rule="evenodd" d="M1317.7 773.13a8.7 8.7 0 010-17.39h138.23a8.7 8.7 0 010 17.39zm175.34 0a8.7 8.7 0 010-17.39h67.82a8.7 8.7 0 010 17.39zm-175.34 36.3a8.7 8.7 0 010-17.39h40.11a8.7 8.7 0 010 17.39zm77.22 0a8.7 8.7 0 010-17.39h165.94a8.7 8.7 0 010 17.39zm-77.22 35.39a8.7 8.7 0 010-17.39h107.51a8.7 8.7 0 010 17.39zm166.38 0a8.7 8.7 0 010-17.39h76.78a8.7 8.7 0 010 17.39zM1317.7 881.13a8.7 8.7 0 010-17.39h40.11a8.7 8.7 0 010 17.39zm77.22 0a8.7 8.7 0 010-17.39h165.94a8.7 8.7 0 010 17.39zM1275.15 751a13.46 13.46 0 11-13.45 13.45A13.45 13.45 0 011275.15 751zm0 36.3a13.46 13.46 0 11-13.45 13.46 13.46 13.46 0 0113.45-13.46zm0 35.39a13.46 13.46 0 11-13.45 13.46 13.46 13.46 0 0113.45-13.46zm0 36.31a13.46 13.46 0 11-13.45 13.45A13.45 13.45 0 011275.15 859zM994.66 1053.15h287.39a5.81 5.81 0 015.81 5.81v164.73a5.81 5.81 0 01-5.81 5.81H994.66a5.81 5.81 0 01-5.81-5.81V1059a5.81 5.81 0 015.81-5.81zm5.81 155.7l68.74-67.52-68.74-67.53v135zm207-67.52l68.74 67.52v-135l-68.74 67.53zm-130 8.13l-69.65 68.42h261l-69.66-68.42-56.8 55.79a5.79 5.79 0 01-8.13 0l-56.8-55.79zm60.87 43.52l130.52-128.21H1007.83zM3458.28 899.43c-4.47 0-8.11 3.89-8.11 8.69s3.64 8.69 8.11 8.69H3587.2c4.48 0 8.11-3.89 8.11-8.69s-3.63-8.69-8.11-8.69zm163.54 0c-4.47 0-8.11 3.89-8.11 8.69s3.64 8.69 8.11 8.69h63.26c4.47 0 8.11-3.89 8.11-8.69s-3.64-8.69-8.11-8.69zm-163.54-36.31c-4.47 0-8.11 3.9-8.11 8.7s3.64 8.69 8.11 8.69h37.41c4.48 0 8.11-3.89 8.11-8.69s-3.63-8.7-8.11-8.7zm72 0c-4.48 0-8.11 3.9-8.11 8.7s3.63 8.69 8.11 8.69h154.77c4.47 0 8.11-3.89 8.11-8.69s-3.64-8.7-8.11-8.7zm-72-35.39c-4.47 0-8.11 3.9-8.11 8.7s3.64 8.69 8.11 8.69h100.28c4.47 0 8.11-3.89 8.11-8.69s-3.64-8.7-8.11-8.7zm155.18 0c-4.47 0-8.1 3.9-8.1 8.7s3.63 8.69 8.1 8.69h71.62c4.47 0 8.11-3.89 8.11-8.69s-3.64-8.7-8.11-8.7zm-155.18-36.3c-4.47 0-8.11 3.89-8.11 8.69s3.64 8.69 8.11 8.69h37.41c4.48 0 8.11-3.89 8.11-8.69s-3.63-8.69-8.11-8.69zm72 0c-4.48 0-8.11 3.89-8.11 8.69s3.63 8.69 8.11 8.69h154.77c4.47 0 8.11-3.89 8.11-8.69s-3.64-8.69-8.11-8.69zM3219 362.29c4.48 0 8.11 3.89 8.11 8.69s-3.63 8.69-8.11 8.69H3133.3c-4.48 0-8.11-3.89-8.11-8.69s3.63-8.69 8.11-8.69zm-120.28 0c4.47 0 8.11 3.89 8.11 8.69s-3.64 8.69-8.11 8.69H2992.17c-4.48 0-8.11-3.89-8.11-8.69s3.63-8.69 8.11-8.69zM3219 326c4.48 0 8.11 3.9 8.11 8.7s-3.63 8.69-8.11 8.69h-37.4c-4.48 0-8.11-3.89-8.11-8.69s3.63-8.7 8.11-8.7zm-72 0c4.48 0 8.11 3.9 8.11 8.7s-3.63 8.69-8.11 8.69H2992.17c-4.48 0-8.11-3.89-8.11-8.69s3.63-8.7 8.11-8.7zm72-35.39c4.48 0 8.11 3.9 8.11 8.7S3223.44 308 3219 308H3074.3c-4.48 0-8.11-3.89-8.11-8.69s3.63-8.7 8.11-8.7zm-199.57 0c4.48 0 8.11 3.9 8.11 8.7s-3.63 8.69-8.11 8.69h-27.22c-4.48 0-8.11-3.89-8.11-8.69s3.63-8.7 8.11-8.7zM3219 254.29c4.48 0 8.11 3.89 8.11 8.69s-3.63 8.69-8.11 8.69H3132.9c-4.48 0-8.11-3.89-8.11-8.69s3.63-8.69 8.11-8.69zm-120.68 0c4.48 0 8.11 3.89 8.11 8.69s-3.63 8.69-8.11 8.69H2992.17c-4.48 0-8.11-3.89-8.11-8.69s3.63-8.69 8.11-8.69z"></path></g><g data-name="4"><path fill="#5f4b4a" fill-rule="evenodd" d="M2959.85,2325.83c5.25-.62,19.35-18.67,29.62-32.76,15.15-20.77,16.38-22.34,26.35,13.28,5.24,18.71-.38,45.16-10,61.94-7,24,2.13,37.26-10.66,61.36-5.5,10.38-13.12,31.83-17.85,55.37-6.85,34.09.31,61.77,12.21,86.22,18.21,37.39,36.54,62.68,47.26,88.9,24.37,59.53,20.16,109.84-38.21,211.53-58.14,0-116.27-.77-174.4-.77-11.38-.22-19.08-.62-24.3-3.3-15.47-7.94-6.2-24,17.43-20.72-33.17-71.44-55.73-151.75-28.65-228.25,16.51-46.63,44.38-96.09,46.45-133.91-5.59-38.73-61.53-90.57-14.75-143.38-14.82-21.84-5.33-34.1-1-57.06,2.37-12.63,8.78-13.79,19.37-6.93,9.64,6.26,20.73,17.27,33.27,37.55C2912.73,2301.83,2940.51,2328.1,2959.85,2325.83Z"></path><path fill="#675554" fill-rule="evenodd" d="M2974.83,2505.2a123.16,123.16,0,0,0,1.26,24.39c14.88,98,7,133.06-21,232.79-7.43,26.45-17.66,54-22.81,79.73,28.32-3.31,39.24,24.32,14.26,29.41-10.93,0-22-.57-32.93-.57-13.51,0-11-10.5-9.75-22.65a686.71,686.71,0,0,0-1.52-156.69c-.11-.94-.21-1.82-.28-2.66-11.22-19.94-23.74-4.26-23.48,1.45h-.24c0,.39-.05.8-.08,1.22a689.12,689.12,0,0,0,7.25,156.69c2,12.15,5,22.65-8.48,22.65-10.93,0-22,.57-32.9.57-25.26-5.09-15.89-32.72,12.62-29.41-12-46.87-33.44-96.68-44-143.1-10.1-44.37-16.85-99.07,1-141.79,6.43-15.4,12.33-30.42,16.33-44.52,15.49,6.66,36.58,16.13,61.4,16.13C2923.8,2528.83,2955.11,2510.56,2974.83,2505.2Z"></path><path fill="#695756" fill-rule="evenodd" d="M2929.58,2326.89c-4-1.47-7.88-2.95-11.35-4.07-16.32-5.25-31.13-6.75-47.75-1.42l-5.09,1.63-2.81-4.54c-7.88-12.74-18.41-27.12-31.18-35.41-1.15-.74-5.41-3.29-7-3.07-.95.82-1.79,4.46-2,5.53-1.12,6-2.72,11.75-4.27,17.63a67.38,67.38,0,0,0-2.54,13.41c-.42,8,2.36,14.42,6.78,20.92l3,4.39-3.52,4c-12.14,13.71-18.29,28.91-16.48,47.31,4,40.6,32.55,58.11,68.25,60.87,22.26,1.72,51.16-1.37,66.83-11C2978.26,2419.72,2968.31,2341.07,2929.58,2326.89Z"></path><path fill="#6f5e5d" fill-rule="evenodd" d="M2960,2325.8c5.39-1,19.28-18.8,29.43-32.73,7-9.55,11-15,14.28-14.72-2.82,4.48-5.54,9.06-7.56,13-6.78,13.23,1,24.08-3.39,36.12s-23.74,29-23.74,29C2962.51,2359.87,2953.33,2332,2960,2325.8Z"></path><path fill="#453736" fill-rule="evenodd" d="M2902.52,2356.87a2.13,2.13,0,0,1-2.55-3.41,22.39,22.39,0,0,1,12.68-4,56.43,56.43,0,0,1,17.49,2.55,2.13,2.13,0,1,1-1.16,4.09c-5.11-1.46-10.82-2.63-16.16-2.4a18.24,18.24,0,0,0-10.3,3.21Zm-37.54-7.7a2.12,2.12,0,1,1-3.36,2.59,14.4,14.4,0,0,0-8.17-4.83c-4.7-1.17-10.08-1-14.85-.46a2.12,2.12,0,1,1-.47-4.22c5.3-.59,11.13-.74,16.34.55A18.44,18.44,0,0,1,2865,2349.17Z"></path><path fill="#7d6d6c" fill-rule="evenodd" d="M2899.14,2429.81c17.64,0,32-11.39,32-25.34s-14.4-25.34-32-25.34-32,11.38-32,25.34S2881.5,2429.81,2899.14,2429.81Z"></path><path fill="#7d6d6c" fill-rule="evenodd" d="M2847.42,2428.28c15.47,0,28.08-11.38,28.08-25.34s-12.61-25.34-28.08-25.34-28.08,11.38-28.08,25.34S2832,2428.28,2847.42,2428.28Z"></path><path fill="#453736" fill-rule="evenodd" d="M2870.64,2375.28c8,0,14.4,3,14.4,6.76,0,2.82-3.66,5.24-8.87,6.26v.28c0,5.42-2.47,9.82-5.53,9.82s-5.53-4.4-5.53-9.82v-.28c-5.2-1-8.87-3.44-8.87-6.26C2856.24,2378.31,2862.69,2375.28,2870.64,2375.28Z"></path><path fill="#453736" fill-rule="evenodd" d="M2868.42 2400.27v-1.64a2.13 2.13 0 014.25 0v10.11c.09 2.63 2 4.43 4.2 5.61a21.5 21.5 0 006.86 2.19 29.3 29.3 0 007.6.24c1.82-.19 6.7-1 7.31-3.18a2.13 2.13 0 014.1 1.15c-1.22 4.33-7.09 5.85-11 6.25a33.8 33.8 0 01-8.7-.26 26.15 26.15 0 01-8.22-2.66 14.61 14.61 0 01-3.81-2.91 10.91 10.91 0 01-3.74 3.23 17.09 17.09 0 01-6.08 1.84 22.44 22.44 0 01-6.39-.14c-3.73-.62-8.55-2.57-9.5-6.69a2.13 2.13 0 114.15-.95c.48 2.12 4.25 3.15 6.05 3.45a18.28 18.28 0 005.17.11 13.06 13.06 0 004.57-1.36 5.5 5.5 0 003.16-5.49V2409c0-.3 0-.57 0-.84v-7.59A1.73 1.73 0 012868.42 2400.27zM2914 2405.27a1.15 1.15 0 11-.6-2.21c25.43-6.93 48.13-3.31 69.72.15 16.59 2.65 32.53 5.2 48.43 2.68a1.15 1.15 0 01.36 2.27c-16.26 2.57-32.38 0-49.15-2.69C2961.43 2402.06 2939 2398.47 2914 2405.27zM2906 2399.22a1.15 1.15 0 01-.89-2.12 129.62 129.62 0 0127.88-8.53 82.66 82.66 0 0125.15-.78 1.14 1.14 0 11-.3 2.27 80.37 80.37 0 00-24.45.78A127.15 127.15 0 002906 2399.22zM2917.69 2413.5a1.15 1.15 0 11.28-2.28 385.39 385.39 0 0149.08 9.09 224.82 224.82 0 0139.36 13.89 1.15 1.15 0 01-1 2.08 222.17 222.17 0 00-39-13.74A384 384 0 002917.69 2413.5zM2830.61 2395.43a1.15 1.15 0 11-.61 2.22c-24.95-6.8-47.4-3.21-68.75.2-16.78 2.68-32.89 5.25-49.15 2.68a1.15 1.15 0 01.36-2.27c15.9 2.52 31.83 0 48.43-2.68C2782.48 2392.13 2805.18 2388.5 2830.61 2395.43zM2842.3 2387.63a1.14 1.14 0 01.73 1.45 1.16 1.16 0 01-1.45.74 203.23 203.23 0 00-35.62-8.41 135.21 135.21 0 00-31.89-.78 1.15 1.15 0 01-.23-2.29 138.05 138.05 0 0132.42.79A205.55 205.55 0 012842.3 2387.63zM2833.7 2404.07a1.15 1.15 0 01.28 2.28 383.81 383.81 0 00-48.79 9 221.77 221.77 0 00-39 13.74 1.15 1.15 0 01-1-2.08 225.11 225.11 0 0139.36-13.89A385.55 385.55 0 012833.7 2404.07zM2913.41 2334.86a1.15 1.15 0 11-2.27.36 116.09 116.09 0 01-1.43-27.53 71 71 0 015.44-22.87 1.14 1.14 0 011.51-.59 1.15 1.15 0 01.6 1.51 68.72 68.72 0 00-5.25 22.12A113.71 113.71 0 002913.41 2334.86zM2918.42 2335.5a1.15 1.15 0 11-2.15-.8 79.92 79.92 0 004.71-19.08 54 54 0 00-.74-17.13 1.15 1.15 0 112.25-.48 55.86 55.86 0 01.78 17.85A81.87 81.87 0 012918.42 2335.5zM2865.67 2331.12a1.15 1.15 0 01-2.27-.36 113.71 113.71 0 001.4-27 69 69 0 00-5.24-22.12 1.15 1.15 0 112.1-.92 71 71 0 015.44 22.86A116.15 116.15 0 012865.67 2331.12zM2860.52 2330.55a1.15 1.15 0 11-2.11.9 64.38 64.38 0 01-4.87-17.16 42.79 42.79 0 01.79-15.64 1.15 1.15 0 112.23.54 40.7 40.7 0 00-.73 14.82A62.28 62.28 0 002860.52 2330.55z"></path><path fill="#6f5e5d" fill-rule="evenodd" d="M2901.84,2499.33c28.24-26.08,57.33-42.73,87-53.21,11.42.71,2.57,53.39-14.49,70.17-20.37,19.06-39,35.16-59.4,54.22-24.86,23.26-27.8,23.21-48.51-2.48-15.51-19.25-22.63-33.64-38.14-52.89-7.51-7.94-20.34-60.5-4.2-59.11,7-2.64,23.9,13.9,52.22,45.81C2885.37,2512.05,2893.12,2507.39,2901.84,2499.33Z"></path><path fill="#675554" fill-rule="evenodd" d="M2963.82,2871.56h53.69c38.18,0,72.63-21.66,69.2-63.67-2.16-26.61-21.32-50.9-58.34-60.36-68.5-17.49-85.09,19.11-172.84,35-33,6-66.71,6.7-93.12.29-13.36-3.24-25.64-7.7-36.13-11.27-12.46-4.24-34.56-10.19-42.55,5.27-9.16,17.72,15.61,31.57,37.33,38.59,24.62,8,54.29,6.63,79.48,3.41a524.62,524.62,0,0,0,61.34-11.93c37.92-9.6,98.39-40.87,142-34.74,16.78,2.36,32.47,9.31,41.54,18.81,14.85,15.55,13.27,42.73-22.62,49.55C2982.05,2848.22,2973,2853,2963.82,2871.56Z"></path><path fill="#6f5e5d" fill-rule="evenodd" d="M3070.33,2771c-9.68-10.43-23.63-18.75-42-23.44-68.5-17.49-85.09,19.11-172.84,35-33,6-66.71,6.7-93.12.29-13.36-3.24-25.64-7.7-36.13-11.27-12.46-4.24-34.56-10.19-42.55,5.27-9.16,17.72,15.61,31.57,37.33,38.59,24.62,8,54.29,6.63,79.48,3.41a524.62,524.62,0,0,0,61.34-11.93c37.92-9.6,98.39-40.87,142-34.74,16.78,2.36,32.47,9.31,41.54,18.81a33,33,0,0,1,6.77,10.42c8.68,9,18.11,5.65,22.19,1.54C3080.72,2796.47,3077.74,2781.79,3070.33,2771Z"></path><path fill="#7d6d6c" fill-rule="evenodd" d="M2747.82,2778.74c-7.76-2.41-15-5-21.54-7.21-12.46-4.24-34.56-10.19-42.55,5.27-9.16,17.72,15.61,31.57,37.33,38.59a114.89,114.89,0,0,0,19.17,4.32,6.53,6.53,0,0,0,2.05-2.65,7.86,7.86,0,0,0-.38-6.11c11.22.64,19.24-1.18,21.32-5.62,2.5-5.35-4.18-13.23-16.46-20.94a6.85,6.85,0,0,0,1.32-3.9A6.13,6.13,0,0,0,2747.82,2778.74Z"></path><path fill="#6f5e5d" fill-rule="evenodd" d="M2903.3 2699.91a686.65 686.65 0 01.54 148.39c-1.27 12.15-3.76 22.65 9.75 22.65h3.26c30.09.47 3.62-13.31 5.27-20.92 7.48-34.7 12.62-79.86 15.31-97.38 4.63-30.12-6.69-54.54-25.27-54.54A24 24 0 002903.3 2699.91zM2866.5 2871.09c-7.47.16-14.95.43-22.39.43-25.26-5.09-15.89-32.72 12.62-29.41-11.49-44.84-31.6-92.37-42.58-137.05a20.5 20.5 0 0111.46-3.5c18.59 0 36.64 24.41 40.33 54.53 2.13 17.41 9.39 62.11 11.53 96.72C2878 2861.11 2876.76 2870.85 2866.5 2871.09z"></path><path fill="#453736" fill-rule="evenodd" d="M2898.52 2406a2.11 2.11 0 10-2.59-2.05A2.37 2.37 0 002898.52 2406zM2902 2396.5a2.11 2.11 0 10-2.59-2.05A2.39 2.39 0 002902 2396.5zM2891 2398.78a2.11 2.11 0 10-2.59-2.05A2.37 2.37 0 002891 2398.78zM2854.76 2395.07a2.11 2.11 0 10-2.59-2.05A2.37 2.37 0 002854.76 2395.07zM2846 2399.74a2.11 2.11 0 10-2.59-2A2.37 2.37 0 002846 2399.74zM2840.84 2408.6a2.11 2.11 0 10-2.59-2A2.37 2.37 0 002840.84 2408.6zM2845.23 2386.2a2.11 2.11 0 10-2.59-2A2.37 2.37 0 002845.23 2386.2zM2895.76 2387.82a2.11 2.11 0 10-2.59-2.05A2.38 2.38 0 002895.76 2387.82z"></path></g><g data-name="2"><path fill="#5f4b4a" d="M2018.41,941.15H3185.52a11.73,11.73,0,0,1,11.73,11.73v697.85a11.72,11.72,0,0,1-11.72,11.72H2018.41a11.73,11.73,0,0,1-11.73-11.73V952.88A11.73,11.73,0,0,1,2018.41,941.15Z"></path><rect width="1125.55" height="612.92" x="2039.19" y="968.08" fill="#fff"></rect><rect width="285.95" height="163.37" x="2458.99" y="1662.09" fill="#5f4b4a"></rect><rect width="457.81" height="41.18" x="2373.06" y="1825.3" fill="#7d6d6c"></rect><rect width="285.95" height="80.91" x="2458.99" y="1662.09" fill="#453736"></rect><circle cx="2601.97" cy="936.79" r="79.72" fill="#5f4b4a" transform="rotate(-55.28 2601.863 936.801)"></circle><path fill="#6f5d5c" fill-rule="evenodd" d="M2592.64,985.39a59.47,59.47,0,1,0-59.47-59.47A59.58,59.58,0,0,0,2592.64,985.39Z"></path><circle cx="2601.97" cy="936.79" r="22.12" transform="rotate(-67.5 2601.969 936.787)"></circle><ellipse cx="2601.97" cy="936.79" rx="79.72" ry="4.11"></ellipse><circle cx="2601.97" cy="936.79" r="14.4" fill="#fff"></circle><rect width="626.46" height="546.44" x="2760.87" y="531.66" fill="#75a3db"></rect><rect width="589.11" height="513.86" x="2779.54" y="547.94" fill="#fff"></rect><path fill="#5f4b4a" fill-rule="evenodd" d="M3038.3,617.79c6.06,46.6,27.64,79.07,72.29,90.54,18.26,4.69,38.6,4,54.76-5,14.45-8.07,20.67-22.53,20.15-46.56C3186.92,607.45,3069,560.41,3038.3,617.79Z"></path><path fill="#5f4b4a" fill-rule="evenodd" d="M3066.05,595.5c-3.52,43.91-20.83,74.51-58.62,85.32-15.46,4.42-32.88,3.75-47-4.76-12.65-7.6-18.48-21.22-18.9-43.87C2938.53,585.75,3037.77,541.42,3066.05,595.5Z"></path><path fill="#f55651" fill-rule="evenodd" d="M3362.56,1061.81a518.59,518.59,0,0,0-42.44-50.74c-85.29-88.06-141-18.21-146.68,50.74Z"></path><path fill="#f55651" fill-rule="evenodd" d="M2837.6,1061.81c-.12-23.72,1-44.84,3.92-62.2,5.37-31.67,122.5-87.16,215.32-87.16s218.13,46.08,225.1,77.65c4.45,20.13,6,44.52,5.87,71.71Z"></path><path fill="#f55651" fill-rule="evenodd" d="M2779.54,1047.89c10.65-13.92,21.5-26.92,32.4-38.53,105.62-112.47,188.07-14.56,171.17,52.45H2779.54Z"></path><path fill="#5f4b4a" fill-rule="evenodd" d="M3028.48,784.09a153.07,153.07,0,0,1-6.29,32.51c11.28-3,22.74-4.09,33.34-2.78,23.06-9.15,54.08-2.54,78.4,11.87,21.71-7.72,42.68-14.15,47-15.47-18.91,20.2-22,76.76,19.16,60.12-1.27,25.36-3.81,39.3-19.48,45.11a66.41,66.41,0,0,1-16.85,3.79,35.89,35.89,0,0,1-10.63,9.88c-15.67,9.64-35.4,10.4-53.11,5.39-14-4-25.64-10.26-35.2-18.65-10.25,10.23-23.16,17.8-39.11,22.31-17.72,5-37.44,4.25-53.12-5.39a36.06,36.06,0,0,1-13.84-15.33,70.74,70.74,0,0,1-31.83-9.78c-14.28-8.69-16.33-24.26-12.74-49.4,15.17,9.86,23.79,9,32.37-8.52-6.3-7.46-9-19-8.77-36.24,0-.48,0-1,0-1.44-13.55-5.7-19.31-17.75-18.92-40.74a36,36,0,0,1,4.9-18.32c-9.2-6.62-13.16-18.19-12.83-37.39-.88-38.8,71.8-73.23,90.69-27.41-1.46,14.24-4.37,26.74-9,37.16,7.13,3.34,13.12,9.31,16.93,18.55a156.8,156.8,0,0,1-2.91,18.3C3015.92,765.1,3023.83,772,3028.48,784.09Z"></path><path fill="#5f4b4a" fill-rule="evenodd" d="M3115.78,687.94c1.65,16.17,5.06,30.22,10.6,41.72-6,3.72-11.06,9.51-14.45,17.77a165.74,165.74,0,0,0,3,19c-8.6,3.47-15.87,10.5-20.32,22.07,4.44,46.56,21.68,76.66,58.76,81.25,26.38-3.05,37.26-15.74,36.71-50.27,0-.38,0-.76,0-1.13,12.43-6.46,17.73-19.08,17.35-41.88.17-7.77-2.43-15.37-6.89-22.26,7.71-7.26,11-19,10.74-37.24C3212.17,675.89,3135.67,639.49,3115.78,687.94Z"></path><path fill="#5f4b4a" fill-rule="evenodd" d="M3058.35,588.26c111,0,128.29,63.23,128.29,141.23s-57.43,141.23-128.29,141.23-128.29-63.24-128.29-141.23S2947.36,588.26,3058.35,588.26Z"></path><path fill="#fea682" fill-rule="evenodd" d="M2976,947.45c-9.08-7-11.33-13.62.94-18.31,43.79-16.77,32.82-72.64,31-129.47-.4-12.08,25.55-15.81,50.92-14,25.37-1.77,51.32,2,50.93,14-1.85,56.83-12.81,112.7,31,129.47,12.27,4.69,10,11.29.94,18.31C3111.9,970.49,3005.7,970.49,2976,947.45Z"></path><path fill="#feceb4" fill-rule="evenodd" d="M3068.34,883.19a46.32,46.32,0,0,1-5.18.61H3063l-1.64.08h-.49l-1,0h-2.2l-1,0h-.48c-.55,0-1.1,0-1.64-.08h-.17a46.51,46.51,0,0,1-5.19-.61c-38.55-6.26-84.14-53.22-85.34-113.47-1.26-62.82,12.68-109.49,60-119.64,16.41-3.52,64.09-2.5,78.4,2.39,40.39,13.8,52.52,58.45,51.34,117.25C3152.48,830,3106.89,876.93,3068.34,883.19Z"></path><path fill="#feceb4" fill-rule="evenodd" d="M2934.32,748.6c-3.21,16.6.86,28.69,11.68,41.6,8.91,10.6,20.2,17.17,25.64,8.37-1.84-15.67-5.65-54.57-3-65.88C2960.1,720.91,2938.73,725.78,2934.32,748.6Z"></path><path fill="#fea682" fill-rule="evenodd" d="M2952.93,740.63c-8.67,1.22-13.8,33.41,8.56,42.71a52.75,52.75,0,0,1-4.29-14.92c-.86-5.73-1.48-16.52.54-23.81C2959.22,739.27,2959.35,739.74,2952.93,740.63Z"></path><path fill="#feceb4" fill-rule="evenodd" d="M3183.28,748.6c3.22,16.6-.86,28.69-11.68,41.6-8.9,10.6-20.2,17.17-25.64,8.37,1.84-15.67,5.66-54.57,3-65.88C3157.51,720.91,3178.88,725.78,3183.28,748.6Z"></path><path fill="#fea682" fill-rule="evenodd" d="M3164.67,740.63c8.68,1.22,13.8,33.41-8.56,42.71a52.42,52.42,0,0,0,4.29-14.92c.86-5.73,1.49-16.52-.53-23.81C3158.38,739.27,3158.25,739.74,3164.67,740.63Z"></path><path fill="#5f4b4a" fill-rule="evenodd" d="M3034.18,637c5.88,49.79,26.81,84.48,70.12,96.74,17.72,5,37.44,4.25,53.11-5.4,14-8.62,20.05-24.06,19.55-49.74C3178.33,626,3063.92,575.73,3034.18,637Z"></path><path fill="#5f4b4a" fill-rule="evenodd" d="M3039.7 637c-4.19 44.05-17.93 75.84-45.31 90.05-36.27 18.84-70.28 2.68-69.4-52.83C2923.88 621.56 3015.8 574.82 3039.7 637zM3035.21 602.9c7 45 27 74.34 66.27 80.59 16.07 2.55 33.74-.41 47.46-11 12.28-9.51 17.15-24.36 15.81-47.84C3164.16 576.2 3059.77 543.3 3035.21 602.9z"></path><rect width="626.46" height="546.44" x="1809.02" y="531.66" fill="#75a3db"></rect><rect width="589.11" height="513.86" x="1827.7" y="547.94" fill="#fff"></rect><path fill="#d19f66" fill-rule="evenodd" d="M2203.39,674.4c34.12,0,53.93,33.94,53.93,72.74s-40.47,115.71-74.6,115.71-41.11-79.39-41.11-118.19S2169.27,674.4,2203.39,674.4Z"></path><path fill="#eab872" fill-rule="evenodd" d="M2097.52,651.55c45,20.25,84.05,75.06,88.81,127.58,6,66-29.24,128.69-87.33,128.69q-3.52,0-6.95-.27a49.24,49.24,0,0,1-7.34.55,48.74,48.74,0,0,1-36.49-16.36,124.37,124.37,0,0,1-22.37-20,48.88,48.88,0,0,1-41.15-48.26,49.49,49.49,0,0,1,.81-8.92,48.88,48.88,0,0,1-16-65.29,104.19,104.19,0,0,1-.21-13.19,48.87,48.87,0,0,1,32.09-77.44,48.88,48.88,0,0,1,96.13-7Z"></path><path fill="#feceb4" fill-rule="evenodd" d="M2355.85,1061.81q-11.54-13.39-23.65-28.14c-70.56-85.77-128.81-48-146.26,28.14Z"></path><path fill="#453736" fill-rule="evenodd" d="M2155.16,1061.81c-43.9-35.43-175.4-72.24-139.66-84,4.46-1.46,228.08-5.65,232.45-6.13,37.67-4.12,71.91,26.19,94.46,53.6,9.85,12,20.12,24.32,30.78,36.55Z"></path><path fill="#fea682" fill-rule="evenodd" d="M2189.37,909.06c-5.89,35,17.27,63.26,43.42,78.08,13.64,7.73,31.21,13,45.83,19.3,16.5,7,27.44,27.1,34.33,55.37H1963.06c5.18-31.65,15.26-53.72,32.27-60.26,18.83-7.25,38.8-11.75,56.75-20.77,28.84-14.52,35.13-34,46.45-67.83,5.09-.07,13.95-5.9,27.43-5.9S2169,907.74,2189.37,909.06Z"></path><path fill="#453736" fill-rule="evenodd" d="M1920.49,1061.81q-1.23-31.66-2.52-62.85c25.25-16.24,66.79-19.72,97.53-21.17,30.49,20.94,71.4,33.79,117.24,33.79s83.78-18.56,114.4-40.11c31.55,8.14,54.26,41.8,70.34,90.34Z"></path><path fill="#feceb4" fill-rule="evenodd" d="M2220.5,712.22c14.9,44.47-1.57,134.84-11,163.9-13.63,41.94-33,56.17-67.39,56.17-47.29,0-91.9-51-91.9-118.92,0-78.64,24.59-134,108.57-131.61C2186.63,682.56,2213.38,691,2220.5,712.22Z"></path><path fill="#feceb4" fill-rule="evenodd" d="M2016.65,773.85c-5.78,17.29-2.36,30.32,9,44.66,9.35,11.79,22,19.48,29.54,10.56-.34-16.65-.3-57.93,4.21-69.68C2050.61,746.38,2024.59,750.08,2016.65,773.85Z"></path><path fill="#fea682" fill-rule="evenodd" d="M2039.76,766.71c-10.48.69-20.39,34.3,5.14,45.62a48.87,48.87,0,0,1-3.34-16c-.36-6.11.18-17.53,3.44-25.08C2047.4,765.7,2047.5,766.2,2039.76,766.71Z"></path><path fill="#eab872" fill-rule="evenodd" d="M2072.69,765.12c8.62,2.78,18.91,2.72,23.52-10.31,5-14.07-3.42-31.31.56-44.59,24.45,19,61.3,35,86.83,18.93a62.54,62.54,0,1,0,67.75-103.43c-13.51-32-57.16-55.46-108.91-55.46-62.54,0-113.24,34.23-113.24,76.46,0,16.57,5.67,29,17.61,39.18-1.6,5.64-2,12.49-1.13,20.85C2048.67,736.1,2042.2,755.24,2072.69,765.12Z"></path><path fill="#5f4b4a" fill-rule="evenodd" d="M1829.78,1061.81a314.43,314.43,0,0,1,37.43-33.18c40.89-30.6,106.27-61.68,153.34-25.28,19,14.7,28.33,35.86,31.47,58.46Z"></path><rect width="663.77" height="578.98" x="2270.08" y="189.95" fill="#75a3db"></rect><rect width="589.11" height="513.86" x="2307.41" y="222.51" fill="#fff"></rect><path fill="#f55651" fill-rule="evenodd" d="M2498.67,262.3c39.69-46.77,132.51-46.7,195.37-2.44,53.86,37.92,78.46,90.85,87.09,153.68,10.4,75.75,17.37,165,71.72,144.67-.3,114.95-121.8,182.43-241.41,134.79-96.68,51.17-215.73,7.59-233.92-72.65,51.81-18.74,24.09-101.11,25.23-150.24.57-24.45,5.34-64.88,14.14-103C2427.76,320.08,2441.2,264.36,2498.67,262.3Z"></path><path fill="#c54e4a" fill-rule="evenodd" d="M2599.21,279.23c57.41,0,111,93.25,119.76,208.27s-30.73,208.28-88.14,208.28-111-93.25-119.75-208.28S2541.81,279.23,2599.21,279.23Z"></path><path fill="#ffd372" fill-rule="evenodd" d="M2888.55,736.34c-2.61-7.79-5.51-15.49-8.77-23.08-32-74.44-137.5-144.23-243.56-144.23-100.74,0-192.77,71-211.28,167.31Z"></path><path fill="#feb593" fill-rule="evenodd" d="M2571.12,507.82c7.41,38.85,5.05,68.23-5.7,83.1a303.94,303.94,0,0,0,50.3,4.16,283.47,283.47,0,0,0,76.78-10.24c-27-30.72-19.06-94.11-24.63-155C2629.59,430.79,2620.25,502.58,2571.12,507.82Z"></path><path fill="#feceb4" fill-rule="evenodd" d="M2710.66,408.37c4.54,17.64.21,30.38-12.13,43.87-10.15,11.09-23.32,17.85-30.18,8.44,1.51-16.57,4.38-57.72.72-69.74C2678.75,378.6,2704.42,384.12,2710.66,408.37Z"></path><path fill="#feb593" fill-rule="evenodd" d="M2688.13,399.61c10.39,1.44,17.89,35.63-8.35,45.11a48.66,48.66,0,0,0,4.47-15.74c.78-6.05,1.05-17.47-1.67-25.23C2680.58,398.07,2680.45,398.56,2688.13,399.61Z"></path><path fill="#feceb4" fill-rule="evenodd" d="M2623.42,549.15a36.54,36.54,0,0,1-4.49,1.19l-.14,0-1.44.25-.13,0-.29,0-.85.13-.14,0-.82.11-.82.1-.15,0-.85.08-.29,0h-.14l-1.45.11h-.15a37.62,37.62,0,0,1-4.65,0c-34.74-2.06-80.87-44.57-89.64-105.46-9.14-63.5-2.84-112.32,37.54-127.87,14-5.38,56.1-9.65,69.33-6.29,37.32,9.49,53.7,53.37,60.19,113.06C2690.69,485.88,2656.56,538.52,2623.42,549.15Z"></path><path fill="#f55651" fill-rule="evenodd" d="M2679.09,398.4c-63.52,36.66-239.27-74-131.33-137.92,22.43-13.29,44.4-23.57,75.56-17C2718,263.38,2720.64,368.59,2679.09,398.4Z"></path><path fill="#feceb4" fill-rule="evenodd" d="M2413.59,518.21c.68,22.25,8.25,12.53,14.86,1,10.1-17.57,14.29-19.62,17.93-19,4.65.82,4.25,8.62-2.05,26.48-7.77,22-19.73,52.86-34.16,73.14-9.32,40.88-4.58,88.76,10.28,136.46h-91c5.66-44.79,17.63-92.55,33.31-148.56h0c-6.88-14.2-20-60.82-24.11-95.34-.61-5-4.62-31.77,4.44-13.94,3.87,7.61,10.62,18.28,10.75,7.18.15-12.26.17-32.37,4.56-42,.51-1.11,5.13-4.29,7,1.18,3.17,9.12,6.63,32.92,10,29.94,2.57-2.27,4.75-27.32,8-36.46,1.53-4.28,6.24-2.81,7.67,2.82,3,11.58.46,38.34,5.41,39.06,6.73,1,10.72-14.89,14.11-24.07,2.73-7.37,6.3-7.19,8.1,1.06C2422.5,474.47,2413,497.92,2413.59,518.21Z"></path><rect width="2191.99" height="76.27" x="1170.09" y="1866.43" fill="#847987" rx="13.67"></rect><path fill="#5f4b4a" fill-rule="evenodd" d="M1289.24 1942.7h87.65l-189 915.26c-2.21 10.72-6.48 13.71-11 13.71H1173c-4.5 0-7.93-3-6.49-13.71zM3242.94 1942.7h-87.66l189 915.26c2.22 10.72 6.49 13.71 11 13.71h3.9c4.5 0 7.93-3 6.49-13.71z"></path><path fill="#7d6d6c" fill-rule="evenodd" d="M1358 2034.39L1187.88 2858c-2.21 10.72-6.48 13.71-11 13.71H1173c-4.5 0-7.93-3-6.49-13.71l110.44-823.57zM3174.22 2034.39L3344.29 2858c2.22 10.72 6.49 13.71 11 13.71h3.9c4.5 0 7.93-3 6.49-13.71l-110.44-823.57z"></path><path fill="#feb593" fill-rule="evenodd" d="M2212.53,2676.6H2107.69c16.77,39.32,26.7,101.34,16.27,113.86,3.49,31.3,153.06,50.83,139.16,17.54-22.76-11.35-36.13-40.61-40.75-54.79C2214,2727.46,2212.77,2703.43,2212.53,2676.6Z"></path><path fill="#fd6b67" fill-rule="evenodd" d="M2276.49,2806.22c-78.17,0-135.42-17.91-147.46-17.91-22.82,0-41.32,17.59-41.32,39.3a38.76,38.76,0,0,0,17.86,32.36h216.16a33,33,0,0,0,3.26-14.26C2325,2823.9,2303.28,2806.22,2276.49,2806.22Z"></path><path fill="#f55651" fill-rule="evenodd" d="M2276.49,2806.22c-78.17,0-135.42-17.91-147.46-17.91a43,43,0,0,0-17.42,3.65c40.13,42.52,132.33,58.71,212.5,61.26a32.35,32.35,0,0,0,.88-7.51C2325,2823.9,2303.28,2806.22,2276.49,2806.22Z"></path><path fill="#577228" fill-rule="evenodd" d="M2314.17,2871.67H2110.56a7.51,7.51,0,0,1-7.49-7.49V2860h218.59v4.21A7.51,7.51,0,0,1,2314.17,2871.67Z"></path><path fill="#f55651" fill-rule="evenodd" d="M2293.53,2812.75a17.36,17.36,0,1,0-17.35-17.36A17.39,17.39,0,0,0,2293.53,2812.75Z"></path><path fill="#fca57c" fill-rule="evenodd" d="M2212.53,2676.6H2107.69c11.8,27.66,20.21,66.56,20.53,91.55,31.86,1.72,64.14.09,97.1-7-1.21-3-2.2-5.67-3-8C2214,2727.46,2212.77,2703.43,2212.53,2676.6Z"></path><path fill="#feb593" fill-rule="evenodd" d="M2456.21,2676.6H2351.37c16.77,39.32,26.7,101.34,16.28,113.86,3.48,31.3,153.06,50.83,139.16,17.54-22.77-11.35-36.14-40.61-40.76-54.79C2457.67,2727.46,2456.45,2703.43,2456.21,2676.6Z"></path><path fill="#fd6b67" fill-rule="evenodd" d="M2520.18,2806.22c-78.18,0-135.43-17.91-147.47-17.91-22.82,0-41.31,17.59-41.31,39.3a38.76,38.76,0,0,0,17.86,32.36h216.15a33,33,0,0,0,3.27-14.26C2568.68,2823.9,2547,2806.22,2520.18,2806.22Z"></path><path fill="#f55651" fill-rule="evenodd" d="M2520.18,2806.22c-78.18,0-135.43-17.91-147.47-17.91a43,43,0,0,0-17.42,3.65c40.14,42.52,132.33,58.71,212.51,61.26a32.9,32.9,0,0,0,.88-7.51C2568.68,2823.9,2547,2806.22,2520.18,2806.22Z"></path><path fill="#577228" fill-rule="evenodd" d="M2557.85,2871.67H2354.24a7.51,7.51,0,0,1-7.49-7.49V2860h218.59v4.21A7.51,7.51,0,0,1,2557.85,2871.67Z"></path><path fill="#f55651" fill-rule="evenodd" d="M2537.21,2812.75a17.36,17.36,0,1,0-17.35-17.36A17.4,17.4,0,0,0,2537.21,2812.75Z"></path><path fill="#fca57c" fill-rule="evenodd" d="M2456.21,2676.6H2351.37c7.68,18,13.93,40.79,17.44,61.39,31.23,2.33,62.06,1.76,92.26-3.58C2457.13,2715.44,2456.39,2696.81,2456.21,2676.6Z"></path><path fill="#fca100" fill-rule="evenodd" d="M2074.54,2738.5c63.85,9.81,128.8,10.73,197-14.74,8.62-187.68,7.24-435.84-2.6-569.27-7.13-96.76-175.43-38.1-265.58,17.07C2025.08,2337.15,2044,2579.52,2074.54,2738.5Z"></path><path fill="#d68503" fill-rule="evenodd" d="M2275.19,2620.81c4.27-167.92,1.92-356.2-6.21-466.32-7.13-96.76-175.43-38.1-265.58,17.07,3.22,24.62,6.38,50.94,9.53,78.42,31.45,2.36,59.74,4.38,81.08,5.88C2154.43,2377.48,2212.35,2501.7,2275.19,2620.81Z"></path><path fill="#feb500" fill-rule="evenodd" d="M2324.07,2709c66.39,9.81,131.58,10.72,193.22-14.74-48.48-227.46-134.64-543.77-175-637-70.85,51.52-141.12,103.43-212,154.95C2194.92,2377.83,2252.38,2550,2324.07,2709Z"></path><path fill="#feb593" fill-rule="evenodd" d="M2293.62 1803.18c31.36.2 57 28.23 59.2 63.55l-178.66-1.09a31.35 31.35 0 01-3.37-13.36C2170.79 1814.72 2260.85 1803 2293.62 1803.18zM1778.38 1329.16c-26.68 59 32.33 123.52 54.84 150.12-37.18 40-141.32 28-180 25.91-.58-62.23-1.13-144.14 17.22-202.8C1695.62 1315.9 1754.1 1334.68 1778.38 1329.16z"></path><path fill="#fec3a6" fill-rule="evenodd" d="M1765.73,1506.17c-41.94,5.16-89.15.31-112.51-1-.54-58.26-1.06-133.77,13.93-191.3a44.91,44.91,0,0,1,5.06-.29C1723,1313.6,1764.3,1399.3,1765.73,1506.17Z"></path><path fill="#feb593" fill-rule="evenodd" d="M1864.66,1178.42c2.9,20.2,4.22,60.29-3.45,88a626,626,0,0,1-24.1,70c-14.94,35.43-29.47,41.3-55.41,43.2-25,1.82-39.42-34-43.41-49.47-11.67-45.17,25.36-88.8,40.67-129.26C1812.46,1112.37,1861,1152.92,1864.66,1178.42Z"></path><path fill="#5f4b4a" fill-rule="evenodd" d="M1763.16,1229.91c5.85,4.07,8.08,6.61,13.92,10.68,46.3-1.39,104.2-54.89,115.76-109.23,13.73-64.58-43.33-97.5-90.79-99.57-35.51-1.55-59.45,17.2-78.16,36.43-48.32,49.65-119.91,59.09-149.49,104.49-22.12,33.94-22.12,95-4.2,127s60.64,93.81,91.53,90,88.85-22.51,90-34.71-11.82-36.23,4.58-67.11Q1759.74,1258.88,1763.16,1229.91Z"></path><path fill="#feb593" fill-rule="evenodd" d="M1732.62,1240.62c-5.8,13.39-3.24,28.93,5.07,40.73,6.84,9.7,16.64,16.32,23.31,9.61.8-13.16,14.64-43.17,19-52.25C1769.46,1222,1740.6,1222.21,1732.62,1240.62Z"></path><path fill="#fc9a70" fill-rule="evenodd" d="M1758.3,1238.6c-8.31-1.76-24.21,21.61-7.14,35.78a37.7,37.7,0,0,1,1.31-12.9c1.22-4.71,4.42-13.27,8.81-18.29C1764.49,1239.51,1764.45,1239.91,1758.3,1238.6Z"></path><ellipse cx="1626.45" cy="1102.76" fill="#5f4b4a" rx="93.23" ry="89.53"></ellipse><path fill="#5f4b4a" fill-rule="evenodd" d="M1571.54,1047.63c35.28,0,63.89,28.94,63.89,64.64s-28.61,64.63-63.89,64.63-63.89-28.93-63.89-64.63,28.61-64.64,63.89-64.64Zm2.34,12.66c-27.09,0-49,23.27-49,52s22,52,49,52,49-23.27,49-52S1601,1060.29,1573.88,1060.29Z"></path><path fill="#5f4b4a" fill-rule="evenodd" d="M1729.79,1109.48c-12,42.46-49.08,65.64-82.87,51.77s-51.49-59.54-39.52-102,49.08-65.64,82.88-51.77,51.49,59.54,39.51,102Zm-8.82-.23c9.94-35.26-5.83-73.62-35.23-85.69s-61.29,6.73-71.23,42,5.83,73.63,35.23,85.69S1711,1144.51,1721,1109.25Z"></path><path fill="#5f4b4a" fill-rule="evenodd" d="M1686.14,1078.3c5.15,43.24-26.11,77.79-69.81,77.18s-83.31-36.16-88.46-79.39,26.11-77.78,69.82-77.17,83.31,36.15,88.45,79.38Zm-9.93,3c-4.27-35.9-38.55-65.43-76.57-66s-65.38,28.13-61.1,64,38.56,65.43,76.58,66S1680.49,1117.15,1676.21,1081.26Z"></path><path fill="#5f4b4a" fill-rule="evenodd" d="M1674,1038.86c-6-40.07-42.53-63.41-81.61-52.14s-65.91,52.9-59.92,93,42.53,63.41,81.61,52.14,65.91-52.9,59.92-93Zm-9.64-.21c5,33.27-18.55,68.19-52.55,78s-65.59-9.22-70.56-42.49,18.56-68.19,52.55-78S1659.35,1005.38,1664.32,1038.65Z"></path><path fill="#fd6b67" fill-rule="evenodd" d="M1587.9,1858.25c-44.42,4.83-200.64,43.88-196.92-18.86,1.82-30.71,26.31-128,68.62-212.89,39.81-79.9,103.77-156.4,152.35-165Q1599.92,1659.88,1587.9,1858.25Z"></path><path fill="#fa5e5a" fill-rule="evenodd" d="M1587.9,1858.25c-14.33,1.56-40.3,6.68-68.78,10.79,8-64.47,15.81-131.33,16.29-149.76,2.48-97.1-4.55-182.36,36.55-231.85,9.41-11.33,23.54-19.31,40-25.42Z"></path><path fill="#f55651" fill-rule="evenodd" d="M2101.9,1822.34c36.16-8.18,128.41-33.44,159.66-4.11,18.81,17.66,35.08,47.76,35.08,47.76-17.85,32.29-75.44,66.16-110.48,82.1-81.87,37.27-185.33,59.68-188.37,55.52C2033.05,1942.89,2066.65,1883.06,2101.9,1822.34Z"></path><path fill="#feb500" fill-rule="evenodd" d="M1942.1,2005.92s263.85,13.48,354.05,26.26c23,3.25,59.86,16.25,43.56,47.46-30,57.46-158.64,134.24-205.41,134.75-6,.06-288.26,7.71-381.38,2.64-19.41-1.05-87.26-14.91-93.79-75.35C1769.6,2111.87,1862.81,2065.56,1942.1,2005.92Z"></path><path fill="#feb500" fill-rule="evenodd" d="M1948.76 2006.26c41.5 2.19 265.69 14.35 347.39 25.92 18.92 2.68 47.2 11.94 47.58 32.5.28 14.43-47.17 9.79-109.77 1.77C2120.8 2051.94 1959.27 2018 1948.76 2006.26zM1661 2152.2c12.76 51.56 73.71 63.84 91.93 64.83 14 .77 31.81 1.24 51.91 1.49-55.86.5-109.5.31-142.41-1.49-17.67-1-75.48-12.54-90.63-60.2a30.32 30.32 0 0011.09 5.28C1597.22 2165.84 1636.63 2157.93 1661 2152.2z"></path><path fill="#fd625e" fill-rule="evenodd" d="M1649.5,1449.29c57.78,7.44,112.83,9.87,157.88-6.1,0,0,83.13,6.86,106.77,35.84,24.47,30-28.17,347.86,18.5,476.64,3.75,10.36,4.31,30.43-3.44,39.11-68.88,77.22-345.71,159.65-360.08,132.64-42.52-92.65-33.67-144-28.8-237.69,3.65-70.19,7.2-150,6.2-170.45-4.73-97.1-18.11-182.36,19.32-231.85C1581.88,1466.22,1615.34,1456.76,1649.5,1449.29Z"></path><path fill="#fd6b67" fill-rule="evenodd" d="M1649.5,1449.29c28.36,3.65,56.07,6.09,82.26,5.75,31,90.8,33.77,237.31,33.77,382.37,0,86.71,12.18,170.25,21.39,241.15-98.7,40.19-208.86,65.64-217.79,48.86-42.52-92.65-33.67-144-28.8-237.69,3.65-70.19,7.2-150,6.2-170.45-4.73-97.1-18.11-182.36,19.32-231.85C1581.88,1466.22,1615.34,1456.76,1649.5,1449.29Z"></path><path fill="#f55651" fill-rule="evenodd" d="M1902.74,1469.14a49.56,49.56,0,0,1,11.41,9.89c24.47,30-28.17,347.86,18.5,476.64,3.49,9.62,4.21,27.63-1.91,37.09-62.62-81.57-79.88-177.08-85.32-276.22C1843,1672.86,1862.26,1485.36,1902.74,1469.14Z"></path><path fill="#fd625e" fill-rule="evenodd" d="M1899.66,1468c16.65,3.33,75.81,42.81,130.6,135.2,47.14,79.5,71.56,174.26,80.16,222.33,12.86,71.85-.22,116.91-36.72,146.64-26.1,21.26-73.13,41.13-90.14,27.69-75.94-83.11-123.2-218.41-139.53-320.43C1836.72,1633.76,1855.32,1468,1899.66,1468Z"></path><path fill="#fd7471" fill-rule="evenodd" d="M1935.07,1967.54c42.41,22.5.91,60.7-23.3,78.78-56.22,42-159.79,82.24-236,102.22-18,4.71-75,18.23-92.91,13.57-13.89-3.62-25.13-15.27-11.85-32.64,28.25,20.21,291.29-59.7,358.18-134.69C1934.54,1988.81,1935.94,1977.43,1935.07,1967.54Z"></path><path fill="#fd8784" fill-rule="evenodd" d="M1790.86,2110a974.28,974.28,0,0,1-115.07,38.57c-18,4.71-75,18.23-92.91,13.57-13.89-3.62-25.13-15.27-11.85-32.64,17.23,12.33,121.77-12.58,215.9-50.9Q1789,2094.73,1790.86,2110Z"></path><path fill="#f55651" fill-rule="evenodd" d="M1935.07,1967.54c19.1,10.13,21.18,23.45,15.48,36.68-5.94-.12-10.86-1.46-14.23-4.36q-2.85-3.54-5.58-7.09C1934.81,1986.47,1935.85,1976.41,1935.07,1967.54Z"></path><path fill="#fd706c" fill-rule="evenodd" d="M1859.66,1522.25c10,1.9,49.93,32.62,96.14,109.44,39.76,66.1,69.18,146.76,82,187.9,19.11,61.49,19.13,101.31,3.39,129.21-11.25,20-34.57,39.94-46.41,29.29-56.64-67.52-105.66-182-131.71-269.39C1851.38,1669.56,1834.58,1524.84,1859.66,1522.25Z"></path><path fill="#fd7c78" fill-rule="evenodd" d="M1459.94,1856.7c-30.68.92-55.84-4.53-54.51-26.84,1.39-23.44,21-97.22,52.38-162.5,13.67-28.43,31.07-55.81,49.45-77.76,28.76-34.35,16.69,67.05,2.24,154.15-3.86,23.25-8,50.38-11.69,70.83C1493.27,1839.68,1487.45,1855.89,1459.94,1856.7Z"></path><path fill="#f7d486" fill-rule="evenodd" d="M1959.44,2067.79c60.86,2.86,181.06,9,231,14.85,17.38,2.05,45.24,10.22,32.92,29.85-10,15.86-28.69,42.2-55.84,57.66-34.69,19.74-79.58,26.87-99.41,27-4.52,0-218.42,11.12-288.22,1.66-6.75-.91-21.25-3.12-35.42-8.87-36.7-14.9-22.77-40.54,13.18-51a681,681,0,0,0,117.81-46.11C1924.11,2068.2,1904.31,2065.2,1959.44,2067.79Z"></path><g opacity=".43"><path fill="#fcfcfc" fill-rule="evenodd" d="M1854.31,2107.15a4.31,4.31,0,1,1,0-8.61c22.33.05,59.24-5.22,102.74-11.44,111.6-15.93,266.21-38,337.34,7,32,20.23,35.07,45.5,39,77.34,1.06,8.7,2.18,17.92,4,27.46,15.4,82.17,46.06,236,67.2,342,10,50.34,17.9,89.78,21.11,106.44a4.32,4.32,0,0,1-8.48,1.63c-2.84-14.77-10.87-55-21.11-106.38-21-105.41-51.48-258.27-67.2-342.14-1.88-10-3-19.28-4.07-28-3.6-29.56-6.46-53-35-71.06-68.45-43.3-221.25-21.48-331.53-5.73C1914.51,2101.9,1877.38,2107.2,1854.31,2107.15Z"></path><path fill="#fcfcfc" fill-rule="evenodd" d="M1958.05 2020.23a4.31 4.31 0 014.66-7.26c10.08 6.5 17.63 14.31 22 23a40 40 0 013.21 28 50.87 50.87 0 01-6.7 15.37 73.78 73.78 0 01-12 14.22 4.32 4.32 0 11-5.88-6.32 64.82 64.82 0 0010.65-12.53 42.2 42.2 0 005.58-12.77 31.47 31.47 0 00-2.53-22.09C1973.34 2032.56 1966.83 2025.89 1958.05 2020.23zM2120 2243.63a4.31 4.31 0 018.61-.51c4.84 78.45 15.65 224.06 23.11 324.45 3.57 48.13 6.37 85.84 7.38 100.91a4.31 4.31 0 01-8.61.57c-1-14.72-3.8-52.57-7.39-100.87C2135.68 2468 2124.89 2322.68 2120 2243.63zM2309 2657.2a4.32 4.32 0 011.25-8.55c32.37 4.79 64.41 7.41 95.79 5.72s61.94-7.61 91.72-19.91a4.31 4.31 0 113.28 8c-30.76 12.71-62.37 18.84-94.56 20.56S2341.79 2662.05 2309 2657.2z"></path><path fill="#fcfcfc" fill-rule="evenodd" d="M2077.28 2677a4.31 4.31 0 11.87-8.58c32.44 3.38 64.57 5.23 96 4s62.18-5.39 92.09-14.11a4.31 4.31 0 112.4 8.28c-30.63 8.93-62.12 13.23-94.19 14.45S2110 2680.41 2077.28 2677zM1699.21 2153.18a4.32 4.32 0 016.49-5.71c3.57 4.06 26.1 30.81 32.13 38l49.06-5.35 10.46-33.41-12.39-25a4.32 4.32 0 117.74-3.82l13.08 26.36a4.29 4.29 0 01.33 3.34l-11.82 37.75a4.33 4.33 0 01-3.67 3l-54 5.9a4.32 4.32 0 01-3.89-1.51C1732.62 2192.66 1703.47 2158 1699.21 2153.18zM1596.12 2173.43a4.32 4.32 0 116.49-5.71c1.7 1.94 17.49 21.49 22.46 27.64l21.61-2.36 4.43-14.12-8.94-14.88a4.31 4.31 0 117.4-4.42l9.82 16.34a4.3 4.3 0 01.53 3.69l-5.84 18.65a4.3 4.3 0 01-3.66 3l-26.77 2.92a4.33 4.33 0 01-3.82-1.58C1619.77 2202.53 1598.25 2175.85 1596.12 2173.43z"></path></g><path fill="#fea781" fill-rule="evenodd" d="M1812.9,1371.05c-8.6,5.8-18.54,7.67-31.2,8.6-11.85.86-21.32-6.74-28.43-16.61a258.09,258.09,0,0,0,37.69,6.66C1798.43,1370.47,1805.76,1370.91,1812.9,1371.05Z"></path><path fill="#4e3434" fill-rule="evenodd" d="M1608.22,1045.28a2.88,2.88,0,1,1-4.13-4c5-5.1,18.33-7.6,33.94-4.27a83.47,83.47,0,0,1,36.58,18.31,98.84,98.84,0,0,1,14.74,16c7.72,10.37,13.82,22.38,16.48,33.61,2.76,11.68,1.82,22.61-4.74,30.3a24.87,24.87,0,0,1-4,3.71,2.87,2.87,0,1,1-3.42-4.62,18.67,18.67,0,0,0,3-2.83c5.22-6.11,5.86-15.27,3.5-25.26-2.48-10.45-8.21-21.71-15.49-31.49a93.15,93.15,0,0,0-13.86-15,77.65,77.65,0,0,0-34-17C1623.18,1039.72,1612,1041.4,1608.22,1045.28Z"></path><path fill="#4e3434" fill-rule="evenodd" d="M1608.22 1045.28a2.88 2.88 0 11-4.13-4 9.55 9.55 0 016.08-2.81c5-.48 11.52 2.09 18.83 6.78a151.08 151.08 0 0122.48 18.45c22.4 21.79 44.85 53.06 46.77 72.61a2.87 2.87 0 11-5.72.56c-1.78-18.19-23.42-48-45.06-69a145.22 145.22 0 00-21.58-17.73c-6.26-4-11.58-6.25-15.15-5.9A3.9 3.9 0 001608.22 1045.28zM1579.44 1052a2.87 2.87 0 113.6 4.48c-16.77 13.55-21.71 36.27-18 57a70.88 70.88 0 009.16 24.35 50.19 50.19 0 0016.77 17.09c12 7.13 27.51 7.93 45.23-2.28a2.87 2.87 0 112.86 5c-19.8 11.4-37.32 10.39-51 2.25a55.92 55.92 0 01-18.73-19 76.72 76.72 0 01-9.92-26.36C1555.33 1091.85 1560.86 1067 1579.44 1052zM1750.31 1060.79a2.87 2.87 0 11-1.53-5.54c47.67-13.21 79.9-7.21 99 9 10 8.49 16.33 19.73 19.39 32.47 3 12.59 2.83 26.63-.25 40.88-8.38 38.68-38.12 79.26-82.49 96.74a2.88 2.88 0 01-2.09-5.36c42.46-16.73 70.93-55.57 79-92.6 2.91-13.44 3.11-26.61.29-38.33-2.78-11.57-8.52-21.75-17.52-29.41C1826.32 1053.59 1795.88 1048.16 1750.31 1060.79z"></path><path fill="#4e3434" fill-rule="evenodd" d="M1750 1060.86a2.87 2.87 0 11-.92-5.67c37.43-6.2 63.1 4.8 78.56 24 8.28 10.31 13.58 23 16.15 36.57a115.8 115.8 0 01-.21 42.07c-6.34 34.36-27.32 66.46-59.37 76.56a2.88 2.88 0 01-1.71-5.5c29.84-9.4 49.44-39.65 55.43-72.1a109.93 109.93 0 00.2-40c-2.39-12.71-7.31-24.48-15-34C1808.94 1065.13 1785.07 1055.06 1750 1060.86zM1655.09 1155.89a2.87 2.87 0 114.84 3.08c-10.72 16.79-18.06 33.77-20.8 51.84s-.92 37.22 6.66 58.48c7 19.53 18.36 40.77 31.6 57.34 11.31 14.15 23.89 24.84 36 28a2.87 2.87 0 11-1.42 5.56c-13.45-3.46-27-14.9-39.08-30-13.66-17.1-25.4-39-32.55-59-7.91-22.21-9.81-42.31-6.93-61.26S1643.94 1173.34 1655.09 1155.89zM1588.25 1178.21a2.87 2.87 0 114.79 3.18c-10.58 15.94-14.69 31.83-14.27 48.78.42 17.14 5.46 35.51 13.11 56.16a197.79 197.79 0 0031.33 54.81c11.25 13.61 23.75 23.94 35.84 27.11a2.87 2.87 0 01-1.44 5.56c-13.38-3.5-26.89-14.54-38.83-29a203.26 203.26 0 01-32.3-56.5c-7.85-21.16-13-40.09-13.45-58C1572.58 1212.18 1577 1195.21 1588.25 1178.21z"></path><path fill="#df504c" fill-rule="evenodd" d="M2187.62,1805.78c4.4-.46,8.77-.81,13.08-1a81.39,81.39,0,0,1,5.67,6.25c3.75,4.49,13.13,15.29,6.13,21-5.63,4.6-25,2.43-32.46,1.43-11.54-1.55-9-8.57-2-16.65,2.69-3.11,6.56-7.62,9.62-11Zm6.52,138.56c-2.76,1.34-5.43,2.59-8,3.75q-7.78,3.56-15.81,6.91c-4.18,0-8-.23-10.49-.4-11.62-.78-9.59-7.95-3.14-16.48,4-5.24,10.69-14.26,12.78-16.21,3.35-3.15,9.61,2.75,15.14,8.55,2.77,2.9,8.39,8.59,9.5,13.88Zm-171.06,56.41c-15,3-24.4,4.07-25.29,2.86q5.61-9.66,11.15-19.27c1.89,1.63,3.84,3.59,5.71,5.55,2.24,2.35,6.36,6.54,8.43,10.86Zm48.13-73c-2.22,1.81-9.51,10.37-13.82,15.34-7,8.08-9.51,15.1,2,16.65,7.43,1,26.83,3.16,32.46-1.44,7-5.73-2.39-16.53-6.13-21-5.14-6.15-11-12.45-14.55-9.53Zm50.54-64.41c-2.22,1.81-9.51,10.36-13.82,15.33-7,8.08-9.5,15.1,2,16.65,7.43,1,26.83,3.16,32.46-1.44,7-5.73-2.39-16.53-6.13-21-5.14-6.15-11-12.44-14.55-9.52Zm117.82-3.38c-2.09,2-8.81,11-12.77,16.22-6.46,8.52-8.49,15.69,3.13,16.48,7.48.5,27,1.38,32.29-3.58,6.61-6.18-3.47-16.34-7.51-20.57C2249.18,1862.74,2242.93,1856.85,2239.57,1860Z"></path><path fill="#f55651" fill-rule="evenodd" d="M2031.21,1604.82c6.13,10.44,11.88,21.12,17.24,31.92-7.93,2.12-22.36.48-28.54-.35-11.55-1.55-9-8.57-2-16.65,4-4.66,10.7-12.46,13.34-14.92Zm38,78.38c3.41,8.53,6.61,17,9.59,25.37-5.51-.23-10.83-.87-14-1.3-11.54-1.55-9-8.56-2-16.65,1.82-2.09,4.17-4.82,6.44-7.42Zm46,187.14a183.37,183.37,0,0,1-1.14,25.51c-1.57-.17-3-.35-4.08-.5-11.54-1.55-9-8.57-2-16.65,2-2.35,4.74-5.5,7.26-8.36Zm-21.11,80.26a104.57,104.57,0,0,1-8,9.94c-8.16,1.45-20.91,0-26.61-.77-11.55-1.55-9-8.57-2-16.65,4.31-5,11.6-13.53,13.82-15.34,3.56-2.92,9.41,3.38,14.55,9.53,2.38,2.85,7,8.26,8.32,13.29Zm-71.44,49.29c-15.5,5-29.79,6.25-38.06.71.64-1,1.36-2,2.14-3,4-5.24,10.69-14.25,12.78-16.21,3.36-3.15,9.61,2.75,15.15,8.55,2.09,2.2,5.82,6,8,10Zm-71.09-40.36q-6-8.64-11.72-17.68c4-5.32,10.17-13.54,12.15-15.4,3.36-3.14,9.62,2.75,15.15,8.55,4,4.23,14.12,14.39,7.51,20.57-3.73,3.48-14.44,4.09-23.09,4ZM1916.49,1901q-7.79-15-14.82-30.57a33.89,33.89,0,0,1,2.56-2.54c3.56-2.92,9.41,3.37,14.55,9.53,3.75,4.49,13.14,15.29,6.13,21-1.74,1.42-4.8,2.2-8.42,2.56Zm53.57-361c-2.21,1.81-9.51,10.36-13.81,15.33-7,8.09-9.51,15.1,2,16.65,7.43,1,26.83,3.17,32.45-1.43,7-5.73-2.38-16.53-6.13-21-5.14-6.16-11-12.45-14.55-9.53Zm-68.9,64.42c-2.22,1.81-9.51,10.36-13.82,15.33-7,8.08-9.51,15.1,2,16.65,7.43,1,26.83,3.17,32.46-1.44,7-5.73-2.38-16.53-6.13-21-5.14-6.15-11-12.44-14.55-9.52Zm68.47,70.88c-2.21,1.81-9.51,10.37-13.81,15.33-7,8.09-9.51,15.1,2,16.65,7.43,1,26.83,3.17,32.45-1.43,7-5.73-2.38-16.53-6.13-21-5.14-6.15-11-12.45-14.55-9.53Zm-66.28,64.42c-2.21,1.81-9.51,10.36-13.81,15.33-7,8.08-9.51,15.1,2,16.65,7.43,1,26.82,3.17,32.45-1.43,7-5.73-2.38-16.53-6.13-21-5.14-6.16-11-12.45-14.55-9.53Zm51.42,63.78c-2.21,1.81-9.51,10.37-13.81,15.34-7,8.08-9.51,15.09,2,16.65,7.43,1,26.83,3.16,32.45-1.44,7-5.73-2.38-16.53-6.13-21-5.14-6.15-11-12.45-14.55-9.53Zm47.75,58.55c-2.08,2-8.8,11-12.77,16.21-6.45,8.53-8.49,15.69,3.14,16.48,7.48.51,27,1.38,32.29-3.58,6.61-6.18-3.47-16.33-7.51-20.57-5.53-5.8-11.79-11.69-15.15-8.54ZM2026,1739.71c-2.21,1.81-9.51,10.36-13.82,15.33-7,8.08-9.5,15.1,2,16.65,7.44,1,26.83,3.17,32.46-1.43,7-5.73-2.38-16.53-6.13-21-5.14-6.16-11-12.45-14.55-9.53Zm47.75,58.54c-2.09,2-8.8,11-12.77,16.22-6.46,8.52-8.49,15.69,3.13,16.48,7.49.5,27,1.38,32.29-3.58,6.61-6.18-3.47-16.34-7.5-20.57-5.54-5.8-11.79-11.69-15.15-8.55Zm-173.31-314.76c-2.09,2-8.8,11-12.77,16.21-6.45,8.53-8.49,15.7,3.14,16.48,7.48.51,27,1.39,32.29-3.57,6.61-6.19-3.47-16.34-7.51-20.57C1910.06,1486.24,1903.81,1480.34,1900.45,1483.49Z"></path><path fill="#f7615d" fill-rule="evenodd" d="M1872.29,2071.53q-5.91,3.31-12.1,6.57c-7.75,1-17.39.51-22.16.18-11.62-.78-9.59-8-3.13-16.48,1.52-2,3.46-4.59,5.38-7.11,5.08-2.51,10.07-5.05,14.93-7.62a62.72,62.72,0,0,1,7.6,7.07c3.41,3.56,11.1,11.34,9.48,17.39Zm-73.06,35c-9.83,4.1-19.78,8-29.75,11.82.71-1.14,1.53-2.31,2.44-3.52,4-5.24,10.69-14.25,12.77-16.21,3.24-3,9.16,2.33,14.54,7.91Zm-231.39,27.85a36,36,0,0,1,3.19-4.91c2.9,2.07,8.29,3.08,15.65,3.16-5,1.54-12.49,1.84-18.84,1.75Zm107.6-17.85c7.2-2,14.6-4.11,22.14-6.38,1.14,1.23,2.27,2.56,3.37,3.87,3.75,4.49,13.14,15.29,6.13,21-5.62,4.6-25,2.44-32.45,1.44-11.55-1.55-9.05-8.57-2-16.65l2.85-3.3Zm228.94-99.73a173,173,0,0,0,22.93-20c4.13,4.9,8.23,11.56,3.39,16.08C1926.49,2016.85,1913.37,2017.11,1904.38,2016.8Z"></path><path fill="#f55651" fill-rule="evenodd" d="M1606,1560.47c-2,3.7-2.5,6.84-.54,8.87l.54-8.87Zm-18,297.78c-2.15.23-4.58.55-7.23.93l.69-.81c2-2.28,4.58-5.31,7-8.1l-.49,8Zm-102,14.81a330.53,330.53,0,0,1-35.08,1.59c-9.15-2.09-6.54-8.72,0-16.28,4.31-5,11.6-13.52,13.82-15.34,3.56-2.91,9.41,3.38,14.55,9.53,3.64,4.36,12.58,14.66,6.7,20.5Zm-92.28-53.46c1.67-9.26,4.08-20.34,7.2-32.76,2.92,1.7,6.26,5,9.36,8.24,4,4.23,14.12,14.39,7.51,20.57-3.87,3.62-15.27,4.13-24.07,3.95Zm58.6-177.77q3.6-7.72,7.38-15.33,2.69-5.37,5.51-10.73c.7.8,1.39,1.62,2.08,2.44,3.75,4.49,13.13,15.29,6.13,21-3.62,3-12.94,3.12-21.1,2.6Zm45.14,144.7c-2.08,2-8.8,11-12.77,16.22-6.45,8.52-8.49,15.69,3.14,16.48,7.48.5,27,1.38,32.29-3.58,6.6-6.18-3.47-16.34-7.51-20.57-5.53-5.8-11.79-11.69-15.15-8.55Zm-47.51-54.88c-2.09,1.95-8.81,11-12.77,16.21-6.46,8.53-8.49,15.69,3.13,16.48,7.49.51,27,1.39,32.29-3.58,6.61-6.18-3.47-16.33-7.5-20.57-5.54-5.8-11.79-11.69-15.15-8.54Zm50.54-64.42c-2.09,2-8.8,11-12.77,16.21-6.46,8.53-8.49,15.7,3.13,16.48,7.49.51,27,1.39,32.29-3.58,6.61-6.17-3.47-16.33-7.5-20.56-5.54-5.8-11.79-11.7-15.15-8.55Zm68.68,65.75c-2.21,1.81-9.51,10.36-13.81,15.33-7,8.08-9.51,15.1,2,16.65,7.44,1,26.83,3.17,32.46-1.44,7-5.73-2.38-16.53-6.13-21-5.14-6.15-11-12.44-14.55-9.52Zm-45.2-188.08c-2.21,1.81-9.51,10.37-13.81,15.34-7,8.08-9.51,15.1,2,16.65,7.43,1,26.83,3.16,32.45-1.44,7-5.73-2.38-16.53-6.13-21-5.14-6.15-11-12.44-14.55-9.53Zm47.75,58.55c-2.08,2-8.8,11-12.77,16.21-6.45,8.53-8.49,15.69,3.14,16.48,7.48.51,27,1.39,32.29-3.58,6.61-6.18-3.47-16.33-7.51-20.57-5.53-5.8-11.79-11.69-15.15-8.54Zm2.79-123c-2.21,1.81-9.51,10.36-13.81,15.33-7,8.08-9.51,15.1,2,16.65,7.43,1,26.83,3.17,32.45-1.44,7-5.73-2.38-16.53-6.13-21C1583.82,1483.86,1578,1477.57,1574.41,1480.49Z"></path><path fill="#f55651" fill-rule="evenodd" d="M1622.16,1539c-2.08,2-8.8,11-12.77,16.21-6.45,8.53-8.49,15.7,3.14,16.48,7.48.51,27,1.39,32.29-3.57,6.61-6.18-3.47-16.34-7.51-20.57-5.53-5.8-11.79-11.7-15.15-8.55Zm213-92.11a290.09,290.09,0,0,1,38.26,9.09c-6.66,3.69-24.39,1.7-31.42.75-8.11-1.09-9.29-4.88-6.84-9.84Zm92.18,549.91a171.45,171.45,0,0,1-22.91,20c-2.35-.08-4.43-.2-6-.31-11.62-.79-9.59-8-3.14-16.48,4-5.24,10.69-14.26,12.78-16.21,3.36-3.15,9.61,2.74,15.14,8.54,1.09,1.14,2.6,2.7,4.11,4.49Zm-72.09,50.23q-7.31,3.86-14.94,7.63a112.26,112.26,0,0,1,7.4-9.1c1.84-1.72,4.55-.73,7.54,1.47Zm-157.62,63.09q-11.33,3.41-22.16,6.38c4.15-4.8,9.2-10.58,11-12,2.8-2.29,7,1.11,11.19,5.66Zm-110.95,22.49c-9.49-.1-15.67-1.76-17.51-5.22-2.78-6.06-5.34-11.93-7.69-17.66a101.23,101.23,0,0,1,6.91-8.46c3.35-3.15,9.61,2.74,15.14,8.54,4,4.24,14.12,14.39,7.51,20.57a11.21,11.21,0,0,1-4.36,2.23Zm-49.22-192c.45-8.33,1-16.94,1.5-25.92.64.74,1.27,1.49,1.9,2.24,3.75,4.49,13.13,15.29,6.13,21-1.92,1.57-5.43,2.35-9.53,2.66Zm3.2-363.41q.38-9.54,1.25-18.55c3.92,5.21,8,12.42,2.68,16.75a10.48,10.48,0,0,1-3.93,1.8Zm14.05-70.93q2.08-4.56,4.53-8.83c.44-.55.91-1.11,1.4-1.67,4.3-5,11.6-13.52,13.81-15.33,3.56-2.92,9.41,3.37,14.55,9.52,3.75,4.49,13.14,15.29,6.13,21-5.62,4.61-25,2.44-32.45,1.44-6-.8-8.17-3-8-6.15ZM1805.08,1843c-2.22,1.82-9.52,10.37-13.82,15.34-7,8.08-9.51,15.1,2,16.65,7.43,1,26.83,3.16,32.45-1.44,7-5.73-2.38-16.53-6.13-21-5.14-6.15-11-12.44-14.54-9.53Zm-209.9,0c-2.22,1.82-9.51,10.37-13.82,15.34-7,8.08-9.5,15.1,2,16.65,7.43,1,26.83,3.16,32.46-1.44,7-5.73-2.38-16.53-6.13-21-5.14-6.15-11-12.44-14.55-9.53Zm204.74,144c-2.21,1.81-9.51,10.36-13.82,15.33-7,8.08-9.5,15.1,2,16.65,7.44,1,26.83,3.16,32.46-1.44,7-5.73-2.38-16.53-6.13-21-5.14-6.15-11-12.44-14.55-9.52Zm50.54-64.42c-2.22,1.81-9.51,10.36-13.82,15.33-7,8.08-9.5,15.1,2,16.65,7.43,1,26.83,3.17,32.46-1.43,7-5.73-2.38-16.53-6.13-21-5.14-6.16-11-12.45-14.55-9.53Zm-210.06-15.18c-2.21,1.81-9.51,10.36-13.81,15.33-7,8.08-9.51,15.1,2,16.65,7.43,1,26.82,3.17,32.45-1.43,7-5.73-2.38-16.53-6.13-21-5.14-6.16-11-12.45-14.55-9.53Zm47.75,58.55c-2.08,2-8.8,11-12.77,16.21-6.45,8.52-8.49,15.69,3.14,16.48,7.48.51,27,1.38,32.29-3.58,6.61-6.18-3.47-16.34-7.51-20.57-5.53-5.8-11.79-11.69-15.15-8.54Zm2.79-123c-2.21,1.82-9.51,10.37-13.81,15.34-7,8.08-9.51,15.1,2,16.65,7.43,1,26.83,3.16,32.45-1.44,7-5.73-2.38-16.53-6.13-21-5.14-6.15-11-12.44-14.55-9.53Zm47.75,58.55c-2.08,2-8.8,11-12.77,16.21-6.45,8.53-8.49,15.7,3.14,16.48,7.48.51,27,1.39,32.29-3.58,6.6-6.18-3.47-16.33-7.51-20.57-5.53-5.8-11.79-11.69-15.15-8.54Zm-1.75,138.5c-2.21,1.81-9.51,10.36-13.81,15.33-7,8.08-9.51,15.1,2,16.65,7.43,1,26.83,3.17,32.45-1.44,7-5.73-2.38-16.52-6.13-21-5.14-6.15-11-12.44-14.55-9.52Zm-165.81-61.74c-2.21,1.81-9.51,10.36-13.81,15.33-7,8.08-9.51,15.1,2,16.65,7.43,1,26.83,3.17,32.45-1.44,7-5.73-2.38-16.53-6.13-21-5.14-6.15-11-12.44-14.55-9.52Zm47.76,58.54c-2.09,2-8.81,11-12.78,16.21-6.45,8.53-8.49,15.7,3.14,16.48,7.48.51,27,1.39,32.29-3.57,6.61-6.18-3.47-16.34-7.51-20.57-5.53-5.8-11.79-11.7-15.14-8.55Zm118.54-250.35c-2.09,2-8.8,11-12.77,16.22-6.45,8.52-8.49,15.69,3.14,16.48,7.48.5,27,1.38,32.29-3.58,6.61-6.18-3.47-16.34-7.51-20.57-5.53-5.8-11.79-11.69-15.15-8.55ZM1569.07,1733c-2.21,1.81-9.51,10.36-13.81,15.33-7,8.08-9.51,15.1,2,16.65,7.44,1,26.83,3.17,32.46-1.44,7-5.73-2.38-16.53-6.13-21-5.14-6.15-11-12.44-14.55-9.52Zm47.75,58.54c-2.09,2-8.8,11-12.77,16.21-6.45,8.53-8.49,15.7,3.14,16.48,7.48.51,27,1.39,32.28-3.57,6.61-6.19-3.46-16.34-7.5-20.57-5.54-5.8-11.79-11.69-15.15-8.55Zm2.79-123c-2.21,1.81-9.51,10.36-13.81,15.33-7,8.09-9.51,15.1,2,16.65,7.43,1,26.82,3.17,32.45-1.43,7-5.73-2.38-16.53-6.13-21-5.14-6.16-11-12.45-14.55-9.53Zm47.75,58.54c-2.09,2-8.8,11-12.77,16.22-6.45,8.52-8.49,15.69,3.14,16.48,7.48.51,27,1.38,32.29-3.58,6.6-6.18-3.47-16.34-7.51-20.57-5.54-5.8-11.79-11.69-15.15-8.55Zm136.48,0c-2.21,1.81-9.51,10.36-13.82,15.33-7,8.08-9.5,15.1,2,16.65,7.44,1,26.83,3.16,32.46-1.44,7-5.73-2.38-16.53-6.13-21-5.14-6.15-11-12.44-14.55-9.52Zm47.75,58.54c-2.09,1.95-8.8,11-12.77,16.21-6.45,8.53-8.49,15.7,3.13,16.48,7.49.51,27,1.39,32.3-3.58,6.6-6.18-3.47-16.33-7.51-20.56-5.54-5.81-11.79-11.7-15.15-8.55Zm2.79-123c-2.21,1.81-9.51,10.36-13.81,15.33-7,8.08-9.51,15.1,2,16.65,7.43,1,26.82,3.17,32.45-1.44,7-5.72-2.38-16.52-6.13-21-5.14-6.16-11-12.45-14.55-9.53Zm-51.18-173.49c-2.22,1.82-9.51,10.37-13.82,15.34-7,8.08-9.5,15.1,2,16.65,7.43,1,26.83,3.16,32.46-1.44,7-5.73-2.38-16.53-6.13-21-5.14-6.15-11-12.44-14.55-9.53Zm47.75,58.55c-2.09,2-8.81,11-12.77,16.21-6.46,8.53-8.49,15.7,3.13,16.48,7.48.51,27,1.39,32.29-3.58,6.61-6.18-3.47-16.33-7.51-20.56-5.53-5.8-11.78-11.7-15.14-8.55Zm-159.52-79.6c-2.09,2-8.8,11-12.77,16.22-6.45,8.52-8.49,15.69,3.14,16.48,7.48.51,27,1.38,32.29-3.58,6.6-6.18-3.47-16.34-7.51-20.57-5.53-5.8-11.79-11.69-15.15-8.55Zm-1.75,138.5c-2.21,1.82-9.51,10.37-13.81,15.34-7,8.08-9.51,15.1,2,16.65,7.43,1,26.83,3.16,32.45-1.44,7-5.73-2.38-16.53-6.13-21-5.14-6.15-11-12.44-14.55-9.53Zm47.75,58.55c-2.09,2-8.8,11-12.77,16.21-6.45,8.53-8.49,15.69,3.14,16.48,7.48.51,27,1.39,32.29-3.58,6.61-6.18-3.47-16.33-7.51-20.57-5.53-5.8-11.79-11.69-15.15-8.54Zm2.79-123c-2.21,1.81-9.51,10.36-13.81,15.33-7,8.08-9.51,15.1,2,16.65,7.43,1,26.83,3.17,32.45-1.43,7-5.74-2.38-16.54-6.13-21-5.14-6.16-11-12.45-14.55-9.53Zm47.75,58.54c-2.08,2-8.8,11-12.77,16.21-6.45,8.53-8.49,15.7,3.13,16.48,7.49.51,27,1.39,32.3-3.57,6.6-6.18-3.47-16.34-7.51-20.57-5.53-5.8-11.79-11.69-15.15-8.55Zm-216.35,2.68c-2.08,2-8.8,11-12.77,16.21-6.45,8.53-8.49,15.69,3.14,16.48,7.48.51,27,1.39,32.29-3.58,6.61-6.18-3.47-16.33-7.51-20.57C1581.24,1606.19,1575,1600.3,1571.62,1603.45Z"></path><path fill="#fd8581" fill-rule="evenodd" d="M1649.5,1449.29c57.78,7.44,112.83,9.87,157.88-6.1,2.61-2.09,21.75-4.31,33.71,4.81-11.34,16.72-61.67,29.33-122,29.33-45.81,0-85.84-7.26-107.44-18.07C1618.54,1450.65,1631.25,1447.29,1649.5,1449.29Z"></path><path fill="#847987" fill-rule="evenodd" d="M2011.7,2324.07H1960l162.46,539.52c1.9,6.32,4.59,8.08,7.24,8.08h2.3c2.66,0,4.51-1.75,3.06-8.08Z"></path><path fill="#847987" fill-rule="evenodd" d="M1976.3 2378.12l146.19 485.47c1.9 6.32 4.59 8.08 7.24 8.08h2.3c2.65 0 4.51-1.75 3.06-8.08l-111-485.47zM1563 2324.07h51.67l-162.47 539.52c-1.9 6.32-4.58 8.08-7.23 8.08h-2.3c-2.66 0-4.52-1.75-3.07-8.08z"></path><path fill="#847987" fill-rule="evenodd" d="M1598.4,2378.12l-146.19,485.47c-1.9,6.32-4.58,8.08-7.23,8.08h-2.3c-2.66,0-4.52-1.75-3.07-8.08l111-485.47Z"></path><rect width="604.44" height="107.75" x="1485.13" y="2216.91" fill="#847987" rx="19.31"></rect></g><rect width="238.74" height="50.62" x="2148.69" y="1184.82" fill="#e0d1fc"></rect><path fill="#e0d1fc" d="M2218,1290.44l-7.72-3-28.1-10.82-16.93,2v90l40,6.4,13.39,2.14Zm-41.6,71.43a6.16,6.16,0,1,1,6.11-6.16A6.13,6.13,0,0,1,2176.39,1361.87Z"></path><path fill="#0c1e42" d="M2174.36,1293.72l-9.12,1.32-1.22-89.12a8.38,8.38,0,0,1,5.69-8.07h0a8.33,8.33,0,0,1,10.91,8.56Z"></path><polygon fill="#f0ebff" points="2218.64 1377.14 2205.25 1375 2210.27 1287.46 2217.99 1290.44 2218.64 1377.14"></polygon><path fill="#69dfd4" d="M2345,1467.22c-69.52,8.61-125.07-2.24-125.81-2.39l.78-3.92c1,.2,100.4,19.58,199.4-14.72l1.29,3.79A371.53,371.53,0,0,1,2345,1467.22Z"></path><path fill="#69dfd4" d="M2251.65 1466.36s19.13-10.61 40.39-12.21l21.25-1.61S2270.5 1470.21 2251.65 1466.36zM2302.57 1469.33s27 16.23 53.73 9.31C2356.3 1478.64 2319.73 1467.72 2302.57 1469.33zM2353.44 1463.54s11.42-19.45 35.57-22.44C2389 1441.1 2369.67 1458.44 2353.44 1463.54zM2388 1458.22s18.08 14.25 45.25 6.76C2433.28 1465 2412.88 1452.57 2388 1458.22z"></path><rect width="275.24" height="47.55" x="2728.06" y="1160.28" fill="#f0ebff"></rect><path fill="#9d79dd" d="M2858.07,1322.11l1.52-136.52s-2-8.1-8.47-4.15a10.88,10.88,0,0,0-5,9.75l5.13,130.92s-12.19,12.21-11.24,29.23c1.35,24.2,33.12,19.09,33.46,2.38S2858.07,1322.11,2858.07,1322.11Z"></path><path d="M2858.87,1330.22a4.31,4.31,0,0,0-7.46-.08c-4.4,7.36-10.38,19.92-5.59,27.5,7.1,11.25,20.62,8.19,22.31-1.36C2869.26,1349.86,2863.05,1337.57,2858.87,1330.22Z" style="mix-blend-mode:multiply" fill="#9d79dd" opacity=".59"></path><path fill="#9d79dd" d="M2945.51,1361.74c-10.11,4.37-18,4.25-24.1,1.86-15.34-6-19.49-26.41-19.49-26.41l51-23.29c-1.8-9.12-5.1-19.6-8.62-30.83-4.17-13.25-8.89-28.28-11.84-43.47-8.45-43.77,22.69-58.4,23-58.54l2.45,5.48c-1.12.51-27.13,13-19.6,51.91,2.88,14.85,7.35,29.06,11.67,42.8,4,12.73,7.71,24.55,9.37,34.88.19,1.2.36,2.39.5,3.55C2965.16,1330.42,2970.87,1350.77,2945.51,1361.74Z"></path><path d="M2945.51,1361.74c-10.11,4.37-18,4.25-24.1,1.86,6-4.95,12.57-5.51,22.58-10.55s4.05-16.37,11.15-22c3.5-2.79,4.29-9.18,4.19-14.93.19,1.2.36,2.39.5,3.55C2965.16,1330.42,2970.87,1350.77,2945.51,1361.74Z" style="mix-blend-mode:multiply" fill="#9d79dd" opacity=".59"></path><path fill="#0c1e42" d="M2856.64 1185.16a4.74 4.74 0 11-4.73-4.77A4.76 4.76 0 012856.64 1185.16zM2961.39 1185.16a4.73 4.73 0 11-4.73-4.77A4.76 4.76 0 012961.39 1185.16zM2447.35 1465.36s-5.18 81.89-5.18 112.91c0 0 112.7-1.53 117.09-1.53s9.21-58.84 9.21-58.84l8.28 58.84 116.33 1.53 5.3-108.48z"></path><path fill="#ffb592" d="M2612.84,1072.3c-1.36,16.54-6.59,39.43-24.45,47.56-29.18,13.3-64.95-9.49-64.95-9.49l-6.59-63.15,90.53-16.14,2.66,10.74,3,12A121.72,121.72,0,0,1,2612.84,1072.3Z"></path><path fill="#f0ebff" d="M2705.6,1469.79c-17.76,9-43.59,14.72-67.88,18.39a633.81,633.81,0,0,1-66.74,6.29l-7.53-29.43-6.59-159.53-3.77-185.17c62.13-19,61.19-69.32,66.84-68.37s82.84,43.68,82.84,43.68-9.42,91.16-10.36,117.75a77.34,77.34,0,0,0,1.52,19.35c2.87,13.46,9.15,23.86,14.49,48.07C2716,1315,2705.6,1469.79,2705.6,1469.79Z"></path><path fill="#e0d1fc" d="M2705.6,1469.79c-17.76,9-43.59,14.72-67.88,18.39,12.3-24.94,12-63,9.51-83.92-2.83-23.73,31.06-40.83,27.3-57.92s-10.36-19-16-33.23-.94-30.39,15.07-45.58,11.61-48.43,11.61-48.43l8.73,13.65c2.87,13.46,9.15,23.86,14.49,48.07C2716,1315,2705.6,1469.79,2705.6,1469.79Z"></path><path fill="#ffb592" d="M2658.21,1382.64l-15.06,12-10.67,10.12-6.48,7.6s-4.19,7.39-.84,11.18,11.3-8.22,11.3-8.22,15.27-10.13,21.12-11S2658.21,1382.64,2658.21,1382.64Z"></path><path fill="#f0ebff" d="M2556.86,1120.34S2519.2,1108,2499.44,1052c0,0-55.55,38.94-65,48.43s1.88,74.07,3.77,98.76,7.53,44.63,6.59,47.48S2427,1401.42,2442,1467.89c0,0,86.61,30.39,135.56,16.14Z"></path><path fill="#f95d6c" d="M2546.48,1462.42c-2.84,9.14-53.05,4.89-58.23-2.12a10.15,10.15,0,0,1-1.23-9.51,19.43,19.43,0,0,1,3.23-5.88,18.19,18.19,0,0,1-3.08-4.66c-1.24-2.82-1.54-6.31,2.49-8.6,0,0,31.32-11.9,46.5-3.8s2.82,20.73,2.82,20.73S2549.32,1453.27,2546.48,1462.42Z"></path><path fill="#722b36" d="M2534.67,1429.09s-8.47-3.83-13.28.69-5.11,8.75-5.11,8.75-8.57,1.72-7.92,9.11,7.78,10.35,7.78,10.35-4.27,1.4,2.89,5.43,25.31,7.19,25.47-2.42a10.67,10.67,0,0,0-8.5-11.12s5.55-2.67,4.73-10.31S2534.67,1429.09,2534.67,1429.09Z"></path><path d="M2487,1450.79a19.43,19.43,0,0,1,3.23-5.88,18.19,18.19,0,0,1-3.08-4.66h.22s9.17,5,17.94,5.85C2505.33,1446.09,2493.43,1447.77,2487,1450.79Z" style="mix-blend-mode:multiply" fill="#f95d6c"></path><path fill="#7b4fc9" d="M2624.64,1410.91l3.76,25.64,6.59-1,.94-6s54-4.43,64-1.58,10.35-11.72,6.59-18.68S2624.64,1410.91,2624.64,1410.91Z"></path><path d="M2612.84,1072.3c-2.44,2.35-4.21,3.73-4.21,3.73a34.32,34.32,0,0,0-25.73,4.11c-7.66,4.6-17.44,5.14-24.29,4.78,19.83-5.53,43.23-22.25,51.43-43.1l3,12A121.72,121.72,0,0,1,2612.84,1072.3Z" style="mix-blend-mode:multiply" fill="#ffb592"></path><path fill="#f0ebff" d="M2449.86 1233.66a28 28 0 01-4.94 8c-10.46 12.26-31.29 21.26-39.62 28.08-5.26 4.32-10 14.19-14.06 22.52-3.67 7.57-6.77 13.87-9.16 13.56-5-.63 1.88-8.22-5-17.09s-51.46-19-74.06-10.76-18.83 24.06-25.73 12.66 1.88-34.82 13.18-41.15 18.83-31 38.28-41.77 25.73-17.73 55.86-63.94 56.48-46.22 56.48-46.22C2444.21 1102.61 2456.13 1217.2 2449.86 1233.66zM2853.25 1283.31c-2.09 7.84-5.59 11.62-6.13 8.59-1.26-7-24.48-10.13-55.24-11.4s-45.18 17.1-45.18 17.1-4.39-10.76-9.41-22.16-15.07-25.32-23.22-36.72-25.11-14.56-28.87-19.62-10.67-19.63-9.41-57 20.08-67.73 20.08-67.73q3.35.57 6.59 1.41c47.4 12.13 74.93 63 87.54 87.22 13.19 25.32 33.89 23.41 54.6 55.07C2856.32 1256 2856 1273.1 2853.25 1283.31z"></path><path fill="#ffb592" d="M2468.84 1391.92L2458 1421.36h0c-.74-.28-48-18.59-65.42-29.9-9-5.86-33.48-19.47-56.36-34.23-21.61-13.94-41.84-28.91-46.41-39.36-9.41-21.53-3.13-32.29-3.13-32.29 65.93-34.67 89.86-5 94.52 14.2a31 31 0 01.87 6 6.45 6.45 0 001.26 2.74C2394 1324.77 2468.84 1391.92 2468.84 1391.92zM2847.12 1291.9s-1.26 21.68-14.91 35-113.43 50.81-136 71.23l-.21-.16-2.57-1.89-30.64-22.64 83.94-75.81s47.76-38 84.76-18.55A52 52 0 012847.12 1291.9z"></path><path fill="#0c1e42" d="M2499.44 1052l9.41-8.86s32.32 53.81 38.59 59.19l-1.88 14.88S2508.54 1091.22 2499.44 1052zM2569.41 1116.23l-3.14-14.25s35.46-28.8 44.56-58.55l9.1 8.54S2608.63 1099.13 2569.41 1116.23z"></path><path fill="#ffb592" d="M2613.43,1030.1a78.77,78.77,0,0,1-2.92,10.48c-5.8,16-20.66,29.74-36.25,38a79.37,79.37,0,0,1-15.64,6.34h0c-8,2.24-15.44,2.65-21.05.77-19.77-6.66-31.54-39.42-41.42-70.75-5.72-18.14-6.71-38.66-6.53-52.73a68.12,68.12,0,0,1,16.61-44.11c38.44-43.81,96.29-7.61,104.77,16.6,1.63,4.67,3.3,14.39,4.44,26.41C2617.4,982,2617.73,1009.81,2613.43,1030.1Z"></path><path fill="#0c1e42" d="M2625,993.73c-.32,9.49-9.1,22.79-9.1,22.79l-.29-.14a18.35,18.35,0,0,1-7.24-7.45c-3.14-5.71.63-7.92-1.57-13.61s-4.39-3.17-8.47-9.82-1.88-12.34-1.88-12.34a143.19,143.19,0,0,1-17.7,7c-47.27,15.13-79.26-3.53-79.26-3.53.94,2.85-4.71,31.65-4.71,31.65a28.79,28.79,0,0,1-8.16-9.49c-3.45-6.34-.32-4.43,1.26-10.77s-3.14-7.28-3.77-18.67,4.71-23.11,4.71-23.11c25.43-91.73,101.66-46.85,111.7-36.71,9.18,9.25,16.64,30.38,16.64,30.38a26.7,26.7,0,0,1,4.7,12.35c.94,7.6-.31,9.49-1.25,18.67S2625.26,984.24,2625,993.73Z"></path><path fill="#e0d1fc" d="M2619.72,944.15A161.65,161.65,0,0,1,2590.87,964C2528.1,997.3,2485,955.75,2485,955.75l-6-39.25c46.33,18.14,87,8.87,112-1.28a135.55,135.55,0,0,0,25.35-13.28l.44-.32,0,.46Z"></path><path d="M2619.72,944.15A161.65,161.65,0,0,1,2590.87,964a24.78,24.78,0,0,0-6.24-11.74c-7.06-7.13-3.77-17.09-3.77-17.09l10.14-20,9.16-18,16.19,4.75.47.14Z" style="mix-blend-mode:multiply" fill="#e0d1fc"></path><path fill="#fff" d="M2464.5,896.24s-13,1.48-11.3,18.36,20.92,29.75,42.89,12.45c0,0-1.05,27,25.94,24.69S2550.48,930,2550.48,930s4.18,20.89,30.12,12,17.78-27,17.78-27,21.34,8.44,32.22-4.64,2.93-20.47,2.93-20.47.83-18.36-11.4-21.52-13.5-2.54-13.5-2.54-12.23-18.35-42.36-7.59a20.66,20.66,0,0,0-19.14-4.12c-11.61,3.17-12.86,7-12.86,7s-22.28-10.45-36.09,9.18C2498.18,870.29,2463.45,864.27,2464.5,896.24Z"></path><path fill="none" stroke="#7b4fc9" stroke-miterlimit="10" stroke-width="3.04" d="M2556.86,1120.34c-6.61,69.19-6.61,139.28-4.63,209.37,0,24,0,48.07,4,73.1v10c1,7,1,14,2.55,20.73"></path><ellipse cx="2569.41" cy="1149.78" fill="#0c1e42" rx="6.59" ry="7.28"></ellipse><path fill="#e0d1fc" d="M2444.92,1241.66c-10.46,12.26-31.29,21.26-39.62,28.08-5.26,4.32-10,14.19-14.06,22.52l-14.18-21.89s15.53,1.43,16.47-14.24-17-39.41-2.82-36.55,14.59,17.56,23.53,12.81,4.71-8.54,14.6-16.61,15.06-9,17.41-18.52C2448,1190.24,2447.67,1220.82,2444.92,1241.66Z"></path><path fill="#ffb592" d="M2468.84,1391.92s38.13,9.5,46.6,15.2,11.77,12.34,11.77,12.34,2.82,16.14-29.19,19.94-40-18-40-18S2457.54,1391.92,2468.84,1391.92Z"></path><path fill="#ffb592" d="M2516.22,1407.91s14.44,7.12,17,10,3.61,15.19,3.61,15.19l-1.26,11.08s.63,5.38-1.88,5.22-3.77-.47-5-6.33-3.3-12.34-4.55-13-11.61.16-12.08-6S2509.79,1408.22,2516.22,1407.91Z"></path><path fill="#ffb592" d="M2506.34,1411.71s14.43,7.12,16.94,10,3.61,15.19,3.61,15.19l-1.25,11.08s.62,5.38-1.89,5.22-3.76-.47-5-6.33-3.29-12.35-4.55-13-11.61.16-12.08-6S2499.91,1412,2506.34,1411.71Z"></path><path fill="#ffb592" d="M2499.12,1416.77s14.44,7.12,17,10,3.6,15.19,3.6,15.19l-1.25,11.08s.63,5.38-1.88,5.22-3.77-.47-5-6.33-3.3-12.34-4.55-13-11.61.15-12.08-6S2492.69,1417.09,2499.12,1416.77Z"></path><path fill="#ffb592" d="M2486.88,1416.93s14.44,7.12,16.95,10,3.61,15.19,3.61,15.19l-1.26,11.08s.63,5.38-1.88,5.22-3.77-.47-5-6.33-3.3-12.34-4.55-13-11.61.16-12.08-6S2480.45,1417.24,2486.88,1416.93Z"></path><ellipse cx="2571.61" cy="1257.71" fill="#0c1e42" rx="6.59" ry="7.28"></ellipse><ellipse cx="2573.8" cy="1365.65" fill="#0c1e42" rx="6.59" ry="7.28"></ellipse><polygon fill="#0c1e42" points="2609.26 1224.16 2662.61 1216.57 2664.49 1229.23 2614.28 1237.46 2609.26 1224.16"></polygon><path fill="#0c1e42" d="M2286.22 1305.51s-19.3-8.07-15.07-24.21 6.59-20 6.59-20 76.72-24.68 101.2 0 19.77 29.44 19.77 29.44l-16.48 16s-.94-31.18-33.41-36.4c-21.91-3.53-43.82 5.27-55.76 11.36a16.92 16.92 0 00-7.31 23C2285.9 1305 2286.05 1305.24 2286.22 1305.51zM2858.1 1275.6a80.7 80.7 0 01-11.77 22.31l0 0a43.64 43.64 0 00-17.44-16.75c-7.26-3.84-17-6.35-29.61-4.58-33.89 4.75-52.56 21-52.56 21l-10.51-15.36s41.42-30.38 76.72-27.06S2858.1 1275.6 2858.1 1275.6z"></path><path fill="#e0d1fc" d="M2509.79,1418.51s9.41,15.19,33.89,20.89,84.72-2.85,84.72-2.85l-3.76-25.64Z"></path><path fill="#ffb592" d="M2694.82,1435.18a6.64,6.64,0,0,1-1.67,1.83c-9.49,7.44-45.05,5.7-48.11-2.25-3.3-8.55-2-.11,1.72-25.75s16-35.6,16-35.6l31,21.46,1.91,1.32s.1.64.26,1.75C2696.88,1404.39,2699.65,1427.08,2694.82,1435.18Z"></path><path fill="#ffb592" d="M2642.84,1429.11a15.77,15.77,0,0,0,3.45,11.4c4.39,5.54,11.29.16,12.39-2.37S2643.93,1430.06,2642.84,1429.11Z"></path><path fill="#ffb592" d="M2655.56,1435.44a15.65,15.65,0,0,0,7.12,9.5c6,3.69,10.66-3.76,10.83-6.52S2656.91,1436,2655.56,1435.44Z"></path><path fill="#ffb592" d="M2669.68,1435.12a15.68,15.68,0,0,0,7.12,9.51c6,3.68,10.66-3.76,10.83-6.52S2671,1435.63,2669.68,1435.12Z"></path><path fill="#ffb592" d="M2677.21,1432.27a15.65,15.65,0,0,0,7.12,9.51c6,3.68,11.37-6.58,11.54-9.34S2678.57,1432.78,2677.21,1432.27Z"></path><path fill="none" stroke="#f95d6c" stroke-miterlimit="10" stroke-width="7.1" d="M2566,1424s-11.09-2.11-14.65,3.8c-2.17,3.61-1.84,6-1.26,7.24a1.07,1.07,0,0,1-.71,1.48c-2.39.62-6.66,2.52-6.39,8.16.29,6.26,7.74,10.55,7.74,10.55s-1.26,4.64,2.3,7.38,18.83,4.22,20.08-1.68l1.26-5.91s7.53-.21,8.15-11-7.74-10.55-7.74-10.55S2576.63,1425.47,2566,1424Z"></path><path d="M2615.56,1016.38a137.24,137.24,0,0,1-2.13,13.72,78.77,78.77,0,0,1-2.92,10.48c-5.8,16-20.66,29.74-36.25,38-8.93,3.93-15.31,6.23-15.64,6.34.48-.28,15.66-9.36,16.12-19.18.48-10,10.36-9.49,14.6-19.47s-1.42-6.17-1.89-14.24,6.12-7.12,7.53-17.09-.47-13.3-9.41-21.84c-5.79-5.54-6.84-10.28-6.87-12.93a143.19,143.19,0,0,0,17.7-7s-2.2,5.7,1.88,12.34,6.27,4.12,8.47,9.82-1.57,7.9,1.57,13.61A18.35,18.35,0,0,0,2615.56,1016.38Z" style="mix-blend-mode:multiply" fill="#ffb592" opacity=".43"></path><path d="M2853.25,1283.31l-18.69-10.4s0-7.6-1.25-20.89-23.85-29.12-42-43.68-23.85-2.54-38.29-9.5,6.28-12.66,0-30.38-45.18-22.8-42.67-46.85c1-9.54-2.84-18.49-7.84-25.81,47.4,12.13,74.93,63,87.54,87.22,13.19,25.32,33.89,23.41,54.6,55.07C2856.32,1256,2856,1273.1,2853.25,1283.31Z" style="mix-blend-mode:multiply" fill="#e0d1fc"></path><path d="M2696.18 1398.1l-.21-.16c.91 6.45 3.68 29.14-1.15 37.24a6.64 6.64 0 01-1.67 1.83c1.54-13.9.2-40.82.2-40.82a1.21 1.21 0 00.05-.14c.11-.4.25-.79.4-1.18 10.89-28.52 103-56.95 124.29-79.39 17.71-18.64 13.06-30.61 10.78-34.35a43.64 43.64 0 0117.44 16.75c-1.36 7.38-4.95 20.07-14.1 29C2818.56 1340.17 2718.78 1377.68 2696.18 1398.1zM2383.34 1308.56a2.43 2.43 0 01-.16.28s-20.71-10.93-36.72-17.57 29.18 2.37 34.36 8.07c.14.14.26.29.39.43a31 31 0 01.87 6A6.45 6.45 0 002383.34 1308.56z" style="mix-blend-mode:multiply" fill="#ffb592" opacity=".67"></path><path d="M2458,1421.35c-.74-.28-48-18.59-65.42-29.9-9-5.86-33.48-19.47-56.36-34.23,22.88,11.7,57.28,29.25,75.19,34.23C2438.72,1399,2456.12,1416,2458,1421.35Z" style="mix-blend-mode:multiply" fill="#ffb592" opacity=".43"></path><rect width="1129.01" height="22.62" x="2036.64" y="1473.75" fill="#9d79dd"></rect><rect width="181.72" height="4.05" x="2466.5" y="1468.09" fill="#0c1e42"></rect><path fill="#f95d6c" d="M2353.33,1457.86c-3.53,8-18.86,14.77-33.24,13.65-9.36-.74-18.31-4.8-23.34-14a31.13,31.13,0,0,1-2.68-6.77c-4.51-16.53,4.36-21.92,13.95-23.27,8.91-1.27,18.44.95,18.44.95a37.67,37.67,0,0,1,9.48-.9C2354.21,1428.23,2358.81,1445.43,2353.33,1457.86Z"></path><path d="M2353.33,1457.86c-3.53,8-18.86,14.77-33.24,13.65a.47.47,0,0,1,0-.1c4-6,14.62-4.38,14.62-10.76s7.9-4.39,9.87-17.54c1.34-8.81-4.61-13.5-8.69-15.64C2354.21,1428.23,2358.81,1445.43,2353.33,1457.86Z" style="mix-blend-mode:multiply" fill="#f95d6c"></path><path d="M2296.75,1457.46a31.13,31.13,0,0,1-2.68-6.77c-4.51-16.53,4.36-21.92,13.95-23.27-3.49,3.62-9.93,10.9-10.79,16.09C2296.08,1450.47,2299.75,1453.3,2296.75,1457.46Z" style="mix-blend-mode:screen" fill="#f95d6c"></path><path fill="#69dfd4" d="M2325.15,1428.37s-24.76-5.58-23.19-24.71C2302,1403.66,2322,1400.2,2325.15,1428.37Z"></path><path fill="#69dfd4" d="M2342.79,1400.74s-.26,15.94-17.64,27.63C2325.15,1428.37,2321.73,1403.13,2342.79,1400.74Z"></path><path d="M2342.79 1400.74s-.26 15.94-17.64 27.63zM2325.15 1428.37s-4.75-8.76-9.48-10.1-2.9-1.32-4.75-7.7-9-6.91-9-6.91S2322 1400.2 2325.15 1428.37z" style="mix-blend-mode:multiply" fill="#69dfd4"></path><path fill="#f0ebff" d="M2284.08,1303.45v153.39a13.23,13.23,0,0,1-13.17,13.29h-33.45a13.23,13.23,0,0,1-13.18-13.29V1303.45a13.27,13.27,0,0,1,8-12.25,10.54,10.54,0,0,0,6.12-8.35l3.06-22.35h3.4v27h17.24v-27h3.69l3.81,22.3a12.1,12.1,0,0,0,1.24,3.6,10.59,10.59,0,0,0,5.15,4.8A13.28,13.28,0,0,1,2284.08,1303.45Z"></path><rect width="17.23" height="26.97" x="2244.91" y="1260.5" fill="#feb500" opacity=".47"></rect><polygon fill="#feb500" points="2263.58 1244.14 2263.58 1257.94 2262.15 1257.94 2262.15 1260.5 2244.91 1260.5 2244.91 1257.94 2242.54 1257.94 2242.54 1244.14 2263.58 1244.14"></polygon><polygon fill="#feb500" points="2229.85 1350.49 2229.85 1458.37 2278.01 1458.37 2278.01 1351.51 2229.85 1350.49"></polygon><path d="M2284.08,1303.45v153.39a13.23,13.23,0,0,1-13.17,13.29h-24.75c5.78-5.24,10.2-12.21,10.56-28.12.5-22.5-1.52-44,8.61-61.86s1-37.33-3.54-52.67c-2.19-7.39-4-24-4.41-40h4.77v-27h3.69l3.81,22.3a12.1,12.1,0,0,0,1.24,3.6,10.59,10.59,0,0,0,5.15,4.8A13.28,13.28,0,0,1,2284.08,1303.45Z" style="mix-blend-mode:multiply" fill="#f0ebff"></path><path fill="#fc7e0d" d="M2293.15,1464.53a9.38,9.38,0,0,1-.11,1.5,10.81,10.81,0,0,1-10.65,9.38l-.59,0-122.46-6.52,33.63-4.19,88.08-10.94A10.81,10.81,0,0,1,2293.15,1464.53Z"></path><path d="M2293,1466a10.81,10.81,0,0,1-10.65,9.38l-.59,0-122.46-6.52c.89-.47,16.81-2.85,33.63-4.19,15.18-1.18,31.08-1.5,37.32,1.26,13.18,5.79,34.81,2,43.94-.69s10.13,7.16,17.9,1.37A7.71,7.71,0,0,1,2293,1466Z" style="mix-blend-mode:multiply" fill="#fc7e0d" opacity=".41"></path><path fill="#69dfd4" d="M2288.76,1459.46l27-6.82.68,4.77-20.28,4.43,15.88.35-.33,3.74-13.18-.68,17.23,6.48-3.72,4.77-23.31-7.5S2284,1464.91,2288.76,1459.46Z"></path><path fill="#e0d1fc" d="M3162.81,1488.54v49.76c0,21.66-21.13,39.21-47.21,39.21H2085.27c-21.18,0-39.1-11.59-45.08-27.56,0-.09-.06-.17-.1-.26a33,33,0,0,1-2-11.39v-49.76Z"></path><path fill="#69dfd4" d="M2983.53,1407.76a3.11,3.11,0,0,1-1.19,2.43c-2.47,2.16-7.91,2.94-7.93,9.07,0,7.92-42.59,17.63-61.6,16.1s-42.07-5.63-42.07-5.63l.52-.52c3.8-3.77,28.07-27.32,47.64-33,21.29-6.14,18.24,13,36.5,4.6S2983.53,1403.15,2983.53,1407.76Z"></path><path d="M2982.34,1410.19c-2.47,2.16-7.91,2.94-7.93,9.07,0,7.92-42.59,17.63-61.6,16.1s-42.07-5.63-42.07-5.63l.52-.52c6.54,1.2,24.18,3.63,33.95-2.54,12.17-7.67,14.19-21,20.28-12.27s12.17,13.29,20.78,5.62,11.66-11.24,16.22-9.71C2966,1411.48,2975.07,1412.35,2982.34,1410.19Z" style="mix-blend-mode:multiply" fill="#69dfd4"></path><path fill="#f95d6c" d="M2792.56,1437.19a13.24,13.24,0,0,1-6.47-1.94c-7.6-4.27-8.58-10.28-7.84-14.09a12.89,12.89,0,0,1-4.66-9l0-.37.09-.36c.15-.67,3.95-16.53,16.19-16.93a8.35,8.35,0,0,1,7.75,4.23c.38-.26.78-.56,1.06-.77a10.19,10.19,0,0,1,2.6-1.62c2.53-.85,6.67-1.35,12,1.11,3.93,1.82,5.13,4.32,5.45,6.1a8.27,8.27,0,0,1-.93,5.21c2.12,1,4.68,2.63,5.82,5a6.33,6.33,0,0,1,0,5.35c-2.51,5.78-12.21,15.18-19.44,13.35l-3.32-.83a10.15,10.15,0,0,1-4.88,4.82A8.64,8.64,0,0,1,2792.56,1437.19Zm-14-25a8.37,8.37,0,0,0,3.81,5.8l1.92,1.15-.91,2c-.22.54-2.09,5.6,5.12,9.65,2.26,1.27,4.12,1.61,5.52,1,2.11-.9,2.94-3.78,2.95-3.81l.62-2.39,7.79,2c3.74.95,11.58-5.66,13.68-10.51a1.31,1.31,0,0,0,0-1.18c-.73-1.54-3.86-3-5.86-3.58l-4.09-1.16,3-3c.5-.52,1.91-2.35,1.65-3.75-.2-1.1-1.54-1.93-2.62-2.43-3.86-1.78-6.68-1.48-8.37-.91-.14.08-.78.56-1.2.88-1.83,1.38-4.11,3.1-6.26,1.76a5.84,5.84,0,0,1-1.72-2c-.84-1.31-1.5-2.35-3.64-2.27C2782.37,1399.77,2779.14,1410.16,2778.57,1412.23Z"></path><path fill="#69dfd4" d="M2858.92,1416.28c-5.57-.33,2.9,8.84-1.17,11.89a2.79,2.79,0,0,1-.44.29c-5.07,2.73-22.38,6.56-30.83-.94s-33.8-.68-33.8-7.5-8.74-8.77-1.83-16.21l.48-.49c7.77-7.84,17.58-7.5,30.08-1s10.81-2.72,24.33.34S2860.82,1416.39,2858.92,1416.28Z"></path><path d="M2857.75,1428.17a2.79,2.79,0,0,1-.44.29c-5.07,2.73-22.38,6.56-30.83-.94s-33.8-.68-33.8-7.5-8.74-8.77-1.83-16.21c3.46.75,8.16,2.7,9.6,7.69,2.37,8.18,14.87-3.06,24.68,3.07s2.36,11.93,12.16,13.29C2843.72,1428.75,2852.49,1428.47,2857.75,1428.17Z" style="mix-blend-mode:multiply" fill="#69dfd4"></path><path fill="#f95d6c" d="M2946.9 1432.59a13.24 13.24 0 01-6.46-1.94c-7.6-4.27-8.59-10.28-7.84-14.09a13 13 0 01-4.67-9l0-.36.08-.36c.16-.67 4-16.54 16.19-16.93a8.36 8.36 0 017.76 4.23c.38-.26.78-.57 1.06-.78a10.09 10.09 0 012.59-1.61c2.54-.85 6.68-1.36 12 1.11 3.92 1.81 5.13 4.32 5.44 6.1a8.23 8.23 0 01-.92 5.2c2.12 1 4.68 2.64 5.81 5a6.33 6.33 0 010 5.35c-2.5 5.78-12.21 15.17-19.43 13.35l-3.32-.84a10.11 10.11 0 01-4.89 4.83A8.64 8.64 0 012946.9 1432.59zm-14-25a8.38 8.38 0 003.8 5.8l1.92 1.15-.9 2.05c-.23.54-2.09 5.6 5.11 9.65 2.27 1.27 4.13 1.61 5.53 1 2.1-.9 2.94-3.78 2.95-3.81l.62-2.39 7.79 2c3.74 1 11.57-5.65 13.68-10.5a1.3 1.3 0 000-1.19c-.72-1.53-3.86-3-5.86-3.58l-4.08-1.15 3-3c.51-.52 1.92-2.35 1.66-3.76-.2-1.09-1.54-1.92-2.63-2.42-3.85-1.78-6.67-1.48-8.36-.91-.15.08-.78.56-1.2.87-1.83 1.39-4.12 3.11-6.26 1.76a5.74 5.74 0 01-1.73-2c-.84-1.31-1.49-2.36-3.64-2.27C2936.72 1395.17 2933.49 1405.56 2932.92 1407.63zM2855 1386.53s-15.21 58 50.94 24z"></path><path d="M2900,1407.84c-51,26.16-39.29-18.53-39.29-18.53l10.75,5.07h0l8.46,4Z" style="mix-blend-mode:multiply" fill="#f95d6c"></path><path fill="#feb500" d="M2862.27 1395.38h0a1.64 1.64 0 002 1.81l6.39-1.33-6.26-1.87A1.64 1.64 0 002862.27 1395.38zM2871 1398l-6.66 2.68a2.06 2.06 0 00-1.23 2.32h0a2 2 0 003.61.8zM2872.39 1399.06l-4.94 8.71a2.52 2.52 0 001.37 3.64h0a2.51 2.51 0 003.29-2.32zM2874.93 1399.83l-.2 10.3a2.34 2.34 0 002.63 2.38h0a2.35 2.35 0 001.82-3.31zM2878 1400.72l4.19 8.68a1.92 1.92 0 002.36 1h0a1.94 1.94 0 00.63-3.27zM2882.15 1402.13l7.86 5a1.11 1.11 0 001.39-.15h0a1.13 1.13 0 00-.44-1.86z"></path><path fill="#f95d6c" d="M2879.89,1398.37c-5.72,2.54-7.77-1.62-8.46-4Z"></path><path fill="#2469ce" d="M2983,1415.94l-8.3,19.18a60.78,60.78,0,0,1-56.11,36.8l-57.7-.36-29.48-.18a60.73,60.73,0,0,1-52.35-30.8l-14-24.64Z"></path><path d="M2983,1415.94l-8.3,19.18a60.78,60.78,0,0,1-56.11,36.8l-57.7-.36q4.49-2.13,10.09-4.5c40.29-16.87,14.44-26.07,36.49-25.31,13.92.49,22.09-14.61,26.22-25.81Z" style="mix-blend-mode:multiply" fill="#2469ce" opacity=".53"></path><path d="M3171.34,1488.54v49.76c0,21.66-21.32,39.21-47.63,39.21H2708.44c-9.59-5.54-18.64-11-27.13-16.36-83.22-52.16-171.41-23.52-325.44-17.39s-319.23-55.22-319.23-55.22Z" style="mix-blend-mode:multiply" fill="#e0d1fc"></path><polygon fill="#f95d6c" points="1538.56 400.08 1538.56 647.98 1776.77 647.98 1828.24 706.48 1828.24 647.98 1931.3 647.98 1931.3 400.08 1538.56 400.08"></polygon><polygon fill="#fff" points="1677.83 464.15 1677.83 592.28 1772.53 519.86 1677.83 464.15"></polygon><path d="M1538.56,603.28V648h238.2l51.48,58.5V648H1931.3V610.85c-22.84,9.14-65.65,22.51-105.85,14.85-58.49-11.14-94.7-33.42-167.12-16.71C1615.32,618.9,1570.34,613.11,1538.56,603.28Z" style="mix-blend-mode:multiply" fill="#f95d6c"></path><path d="M1538.56,400.08v37.55c12.2.31,29.21-.78,44.56-6.91,27.86-11.14,41.78-5.57,100.28,11.14s75.2-5.57,158.77-19.49c48.1-8,75,1.5,89.13,11V400.08Z" style="mix-blend-mode:screen" fill="#f95d6c"></path><path fill="#feb500" d="M3703.37,356.44V497.15a58.46,58.46,0,0,1-58.45,58.47H3361.78l-89.69,71.76L3318.63,555a58.49,58.49,0,0,1-49.73-57.82V356.44c0-.3,0-.58,0-.87A58.45,58.45,0,0,1,3327.37,298h317.55A58.46,58.46,0,0,1,3703.37,356.44Z"></path><path fill="#fff" d="M3437.81 360.66h-97.48a11.89 11.89 0 00-11.89 11.89h0a11.89 11.89 0 0011.89 11.89h97.48a11.89 11.89 0 0011.9-11.89h0A11.89 11.89 0 003437.81 360.66zM3478.71 372.55h0a11.89 11.89 0 0011.89 11.89h148.23a11.89 11.89 0 0011.89-11.89h0a11.89 11.89 0 00-11.89-11.89H3490.6A11.89 11.89 0 003478.71 372.55zM3384.43 410.61h-45.69a11.89 11.89 0 00-11.89 11.89h0a11.89 11.89 0 0011.89 11.89h45.69a11.89 11.89 0 0011.89-11.89h0A11.89 11.89 0 003384.43 410.61zM3421.1 422.5h0A11.89 11.89 0 003433 434.39h115.29a11.89 11.89 0 0011.89-11.89h0a11.89 11.89 0 00-11.89-11.89H3433A11.89 11.89 0 003421.1 422.5z"></path><rect width="57.84" height="23.78" x="3592.88" y="410.61" fill="#fff"></rect><path fill="#fff" d="M3458.43 460.55h-118.1a11.89 11.89 0 00-11.89 11.9h0a11.89 11.89 0 0011.89 11.89h118.1a11.9 11.9 0 0011.89-11.89h0A11.9 11.9 0 003458.43 460.55zM3512.54 472.45h0a11.89 11.89 0 0011.89 11.89h114.4a11.89 11.89 0 0011.89-11.89h0a11.89 11.89 0 00-11.89-11.9h-114.4A11.89 11.89 0 003512.54 472.45z"></path><path d="M3703.37,484v13.12a58.46,58.46,0,0,1-58.45,58.47H3361.78l-89.69,71.76L3318.63,555a58.49,58.49,0,0,1-49.73-57.82v-9.58c8.14,18.66,26,43.8,63.43,46.25,60.25,4,75.33-19,146.67-9.52s103.08,26.18,131.62,9.52,31.7,8.73,70.57-27A253,253,0,0,0,3703.37,484Z" style="mix-blend-mode:multiply" fill="#feb500"></path><path d="M3703.37,356.44v16.78c-9.16-12.92-23.75-29.8-42.8-40-34.1-18.23-37.27,1.58-81.67-16.65s-110.21,15.86-170.45,20.61-63.44-23-107-7.92c-18.1,6.26-27.6,16.47-32.49,26.29A58.45,58.45,0,0,1,3327.37,298h317.55A58.46,58.46,0,0,1,3703.37,356.44Z" style="mix-blend-mode:screen" fill="#feb500" opacity=".48"></path><path fill="#f95d6c" d="M2711.75,1528.44l-206.33.85h0a12.32,12.32,0,0,0-12.37-12.26l-13.26,0a12.31,12.31,0,0,0-12.26,12.36h0l-194,.8a11.5,11.5,0,0,0-11.46,11.55l1.08,264.91a11.51,11.51,0,0,0,11.56,11.46l194-.79h0a11.37,11.37,0,0,0,11.41,11.31l15.16-.06a11.37,11.37,0,0,0,11.32-11.41h0l206.33-.84a11.5,11.5,0,0,0,11.45-11.56l-1.08-264.91A11.52,11.52,0,0,0,2711.75,1528.44Z"></path><rect width="429.04" height="257.62" x="2278.7" y="1545.44" fill="#fff" transform="rotate(-.23 2544.993 1709.04)"></rect><rect width="11.37" height="258.56" x="2482.33" y="1545.46" fill="#e0d1fc" transform="rotate(-.23 2532.543 1706.523)"></rect><rect width="116.5" height="81.46" x="2290.79" y="1579.65" fill="#e0d1fc" transform="translate(-6.62 9.63)"></rect><path fill="#69dfd4" d="M2403.81,1627.18a1.47,1.47,0,0,1-.58,1.19c-1.2,1.06-3.87,1.45-3.87,4.43,0,3.85-20.86,8.66-30.19,8s-20.65-2.65-20.65-2.65l.26-.26c1.85-1.84,13.71-13.34,23.3-16.12,10.44-3,9,6.3,17.92,2.16S2403.8,1624.94,2403.81,1627.18Z"></path><path d="M2403.23,1628.37c-1.2,1.06-3.87,1.45-3.87,4.43,0,3.85-20.86,8.66-30.19,8s-20.65-2.65-20.65-2.65l.26-.26c3.21.57,11.87,1.72,16.65-1.3,6-3.76,6.92-10.23,9.92-6s6,6.44,10.21,2.69,5.7-5.49,7.94-4.75A19.62,19.62,0,0,0,2403.23,1628.37Z" style="mix-blend-mode:multiply" fill="#69dfd4"></path><path fill="#f95d6c" d="M2310.18,1641.88a6.44,6.44,0,0,1-3.17-.93c-3.74-2.06-4.24-5-3.88-6.83a6.35,6.35,0,0,1-2.31-4.37v-.17l0-.18c.08-.33,1.91-8.05,7.91-8.27a4.14,4.14,0,0,1,3.82,2l.51-.38a5.26,5.26,0,0,1,1.27-.79,7.88,7.88,0,0,1,5.9.51,4.14,4.14,0,0,1,2.68,3,4,4,0,0,1-.44,2.53,5.79,5.79,0,0,1,2.86,2.44,3.07,3.07,0,0,1,0,2.6c-1.21,2.82-6,7.41-9.5,6.53l-1.63-.4a5,5,0,0,1-2.39,2.36A4.17,4.17,0,0,1,2310.18,1641.88Zm-6.91-12.11a4.11,4.11,0,0,0,1.88,2.82l.94.55-.44,1c-.11.26-1,2.72,2.53,4.68a3.15,3.15,0,0,0,2.72.48,3.09,3.09,0,0,0,1.43-1.86l.3-1.16,3.83.94c1.83.45,5.67-2.77,6.69-5.14a.59.59,0,0,0,0-.57c-.35-.75-1.9-1.46-2.88-1.73l-2-.56,1.47-1.48a2.61,2.61,0,0,0,.8-1.83c-.1-.53-.76-.93-1.29-1.17a5.49,5.49,0,0,0-4.1-.43c-.07,0-.39.28-.59.43-.9.68-2,1.52-3.07.87a2.85,2.85,0,0,1-.85-.95,1.77,1.77,0,0,0-1.79-1.09C2305.11,1623.7,2303.55,1628.76,2303.27,1629.77Z"></path><path fill="#69dfd4" d="M2342.7,1631.58c-2.74-.15,1.44,4.29-.55,5.79l-.22.14c-2.48,1.33-11,3.23-15.13-.4s-16.58-.26-16.59-3.58-4.31-4.25-.93-7.88l.23-.24c3.8-3.83,8.61-3.68,14.76-.56s5.29-1.34,11.93.12S2343.63,1631.63,2342.7,1631.58Z"></path><path d="M2342.15,1637.37l-.22.14c-2.48,1.33-11,3.23-15.13-.4s-16.58-.26-16.59-3.58-4.31-4.25-.93-7.88c1.7.36,4,1.3,4.72,3.72,1.18,4,7.29-1.52,12.12,1.45s1.18,5.79,6,6.44A59.62,59.62,0,0,0,2342.15,1637.37Z" style="mix-blend-mode:multiply" fill="#69dfd4"></path><path fill="#f95d6c" d="M2385.9 1639.34a6.57 6.57 0 01-3.18-.94c-3.74-2.06-4.23-5-3.88-6.83a6.28 6.28 0 01-2.3-4.36V1627l0-.18c.07-.32 1.9-8 7.91-8.27a4.12 4.12 0 013.81 2.05l.52-.38a4.91 4.91 0 011.27-.79 7.9 7.9 0 015.89.51 4.14 4.14 0 012.68 3 4 4 0 01-.44 2.53 5.79 5.79 0 012.86 2.44 3 3 0 010 2.6c-1.22 2.82-6 7.41-9.51 6.54l-1.63-.4a4.94 4.94 0 01-2.39 2.35A4.34 4.34 0 012385.9 1639.34zm-6.92-12.12a4.08 4.08 0 001.88 2.82l.95.55-.44 1c-.11.26-1 2.73 2.53 4.68a3.12 3.12 0 002.71.48 3.19 3.19 0 001.44-1.85l.3-1.17 3.82.94c1.84.46 5.67-2.77 6.69-5.14a.63.63 0 000-.57c-.36-.75-1.9-1.46-2.88-1.73l-2-.55 1.46-1.48c.25-.26.94-1.15.81-1.83s-.76-.94-1.3-1.18a5.48 5.48 0 00-4.1-.42c-.07 0-.38.27-.59.42-.89.68-2 1.52-3.06.87a3 3 0 01-.86-.94c-.41-.64-.73-1.15-1.79-1.1C2380.82 1621.15 2379.26 1626.21 2379 1627.22zM2340.73 1617.12s-7.34 28.21 25 11.58z"></path><path d="M2362.82,1627.39c-25,12.83-19.31-8.93-19.31-8.93l5.28,2.44h0l4.16,1.93Z" style="mix-blend-mode:multiply" fill="#f95d6c"></path><path fill="#feb500" d="M2344.3 1621.41h0a.8.8 0 001 .87l3.14-.65-3.08-.9A.8.8 0 002344.3 1621.41zM2348.59 1622.68l-3.26 1.32a1 1 0 00-.6 1.13h0a1 1 0 001.77.38zM2349.27 1623.18l-2.41 4.24a1.23 1.23 0 00.69 1.77h0a1.22 1.22 0 001.6-1.13zM2350.52 1623.54l-.08 5a1.14 1.14 0 001.3 1.15h0a1.14 1.14 0 00.88-1.62zM2352 1624l2.08 4.22a.94.94 0 001.15.47h0a.94.94 0 00.31-1.59zM2354.07 1624.65l3.86 2.42a.53.53 0 00.68-.08h0a.54.54 0 00-.21-.9z"></path><path fill="#f95d6c" d="M2353,1622.83c-2.8,1.24-3.82-.78-4.16-1.93Z"></path><path fill="#2469ce" d="M2403.58,1631.16l-4,9.35a29.84,29.84,0,0,1-27.46,18l-28.3-.06-14.47,0a29.83,29.83,0,0,1-25.74-14.87l-6.93-12Z"></path><path d="M2403.58,1631.16l-4,9.35a29.84,29.84,0,0,1-27.46,18l-28.3-.06c1.46-.7,3.1-1.43,4.94-2.21,19.73-8.28,7-12.71,17.85-12.38,6.83.21,10.8-7.15,12.81-12.61Z" style="mix-blend-mode:multiply" fill="#2469ce" opacity=".53"></path><rect width="183.74" height="15.15" x="2289.61" y="1555.37" fill="#f0ebff" transform="rotate(-.23 2430.632 1594.218)"></rect><rect width="39.78" height="34.1" x="2291.1" y="1677.84" fill="#f0ebff" transform="rotate(-.23 2358.12 1728.593)"></rect><rect width="39.78" height="34.1" x="2291.32" y="1730.88" fill="#f0ebff" transform="rotate(-.23 2358.01 1783.398)"></rect><rect width="125.02" height="6.63" x="2345.99" y="1680.28" fill="#e0d1fc" transform="rotate(-.23 2457.784 1718.829)"></rect><rect width="125.02" height="6.63" x="2346.04" y="1693.54" fill="#e0d1fc" transform="translate(-6.93 9.88)"></rect><rect width="125.02" height="6.63" x="2346.2" y="1733.32" fill="#e0d1fc" transform="rotate(-.23 2457.68 1771.142)"></rect><rect width="125.02" height="6.63" x="2346.26" y="1748.47" fill="#e0d1fc" transform="rotate(-.23 2457.65 1786.089)"></rect><rect width="176.16" height="7.58" x="2296.2" y="1779.83" fill="#e0d1fc" transform="rotate(-.23 2432.673 1818.424)"></rect><rect width="177.11" height="7.58" x="2513.51" y="1651.07" fill="#e0d1fc" transform="rotate(-.23 2654.642 1689.33)"></rect><path fill="#69dfd4" d="M2633.25,1612.14a205.16,205.16,0,0,1-54.7,20.17l-.32-1.81c.46-.08,46.61-8.53,83.62-39.89l1.19,1.4A173.53,173.53,0,0,1,2633.25,1612.14Z"></path><path fill="#69dfd4" d="M2592.82 1627.5a52.15 52.15 0 0115.4-12l8.91-4.27S2601.6 1626 2592.82 1627.5zM2615.3 1620.19s14.36 2.39 24.75-5.07C2640.05 1615.12 2622.44 1616.61 2615.3 1620.19zM2636.29 1609.14a23.53 23.53 0 0111.61-15.59S2642.45 1604.22 2636.29 1609.14zM2650.34 1601s10.18 3 20.66-4.74A30.93 30.93 0 002650.34 1601z"></path><path fill="#f0ebff" d="M2544.52,1594.55l.21,52.43a4.55,4.55,0,0,1-4.52,4.57l-11.54,0a4.54,4.54,0,0,1-4.56-4.52l-.22-52.44a4.56,4.56,0,0,1,2.76-4.2,3.58,3.58,0,0,0,2.1-2.86l1-7.64H2531l0,9.22,5.94,0,0-9.21h1.28l1.34,7.62a4.39,4.39,0,0,0,.43,1.23,3.65,3.65,0,0,0,1.79,1.63A4.55,4.55,0,0,1,2544.52,1594.55Z"></path><rect width="5.94" height="9.22" x="2530.97" y="1579.91" fill="#feb500" opacity=".47" transform="rotate(-.23 2585.036 1616.948)"></rect><polygon fill="#feb500" points="2537.36 1574.3 2537.38 1579.02 2536.89 1579.02 2536.89 1579.9 2530.95 1579.92 2530.95 1579.05 2530.13 1579.05 2530.11 1574.33 2537.36 1574.3"></polygon><polygon fill="#feb500" points="2525.88 1610.7 2526.03 1647.58 2542.64 1647.52 2542.49 1610.98 2525.88 1610.7"></polygon><path d="M2544.52,1594.55l.21,52.43a4.55,4.55,0,0,1-4.52,4.57l-8.54,0c2-1.8,3.5-4.19,3.6-9.63.15-7.69-.58-15,2.89-21.16s.3-12.76-1.3-18c-.76-2.52-1.42-8.19-1.57-13.67h1.64l0-9.21h1.28l1.34,7.62a4.39,4.39,0,0,0,.43,1.23,3.65,3.65,0,0,0,1.79,1.63A4.55,4.55,0,0,1,2544.52,1594.55Z" style="mix-blend-mode:multiply" fill="#f0ebff"></path><path fill="#f95d6c" d="M2597.92,1639.5c-2.68,6.09-14.39,11.26-25.41,10.45-7.16-.52-14-3.58-17.9-10.58a23.6,23.6,0,0,1-2.08-5.13c-3.49-12.53,3.28-16.65,10.61-17.7a44.7,44.7,0,0,1,14.12.66,29.1,29.1,0,0,1,7.25-.71C2598.49,1617,2602.07,1630.05,2597.92,1639.5Z"></path><path d="M2597.92,1639.5c-2.68,6.09-14.39,11.26-25.41,10.45a.16.16,0,0,0,0-.07c3-4.55,11.18-3.37,11.16-8.21s6-3.35,7.5-13.34c1-6.69-3.57-10.23-6.7-11.84C2598.49,1617,2602.07,1630.05,2597.92,1639.5Z" style="mix-blend-mode:multiply" fill="#f95d6c"></path><path d="M2554.61,1639.37a23.6,23.6,0,0,1-2.08-5.13c-3.49-12.53,3.28-16.65,10.61-17.7-2.66,2.76-7.57,8.3-8.21,12.24C2554.08,1634.06,2556.89,1636.2,2554.61,1639.37Z" style="mix-blend-mode:screen" fill="#f95d6c"></path><path fill="#69dfd4" d="M2576.25,1617.21s-19-4.16-17.82-18.68C2558.43,1598.53,2573.75,1595.85,2576.25,1617.21Z"></path><path fill="#69dfd4" d="M2589.67,1596.19s-.15,12.09-13.42,21C2576.25,1617.21,2573.56,1598.07,2589.67,1596.19Z"></path><path d="M2589.67 1596.19s-.15 12.09-13.42 21zM2576.25 1617.21s-3.66-6.64-7.28-7.63-2.23-1-3.66-5.83-6.88-5.22-6.88-5.22S2573.75 1595.85 2576.25 1617.21z" style="mix-blend-mode:multiply" fill="#69dfd4"></path><path fill="#f95d6c" d="M2652.22,1637c-1.64,6.77-34.6,17.21-42.92,13.32-4.46-2.08-4.32-5.22-3.24-7.7a13.91,13.91,0,0,1,2.6-3.81l-.21-.31-2-3-2.41-3.49c-4.65-6.75,6.49-11.77,6.49-11.77s22.28-10,30.95-8.06S2646,1628,2646,1628s4.31,1.23,5.87,4.62A6.52,6.52,0,0,1,2652.22,1637Z"></path><path d="M2652.22 1637c-1.64 6.77-34.6 17.21-42.92 13.32-4.46-2.08-4.32-5.22-3.24-7.7.56 1.26 2.46 3.23 8.57 4.36 9.5 1.75 18.5-4.45 24.31-6.14 5.14-1.48 11-5.3 12.95-8.22A6.52 6.52 0 012652.22 1637zM2642.56 1625.39a51.16 51.16 0 01-34.11 13.1l-2-3c1.46.36 4.19.46 9.23-.56C2625.85 1632.93 2642.56 1625.39 2642.56 1625.39z" style="mix-blend-mode:multiply" fill="#f95d6c" opacity=".57"></path><path fill="#704636" d="M2646.1,1619a5.45,5.45,0,0,0-4.85,5c-.45,4.63.51,8,4.9,7.58s3.19-4.52,7.69-7.62,11.75.19,12.69-2.78,1.88-5.94-1.45-5-11.14,5-13.87,4.92A9.72,9.72,0,0,1,2646.1,1619Z"></path><path fill="#fc7e0d" d="M2665,1642.28a9.13,9.13,0,0,1,0,1c-.34,3.74-2.57,6.6-5.24,6.61h-.29l-60.57-4.33,16.61-3,43.52-7.87C2662.15,1634.14,2665,1637.68,2665,1642.28Z"></path><path d="M2664.94,1643.33c-.34,3.74-2.57,6.6-5.24,6.61h-.29l-60.57-4.33c.44-.34,8.3-2,16.61-3,7.5-.86,15.37-1.12,18.46.8,6.54,4,17.22,1.37,21.72-.57s5,5,8.86.92A3.28,3.28,0,0,1,2664.94,1643.33Z" style="mix-blend-mode:multiply" fill="#fc7e0d" opacity=".41"></path><path fill="#69dfd4" d="M2662.8,1638.72l13.35-4.85.35,3.36-10,3.15,7.86.21-.16,2.64-6.52-.46,8.54,4.52-1.82,3.36-11.55-5.22A5.86,5.86,0,0,1,2662.8,1638.72Z"></path><rect width="186.58" height="7.58" x="2506.99" y="1678.55" fill="#e0d1fc" transform="rotate(-.23 2652.096 1716.728)"></rect><rect width="57.11" height="7.58" x="2605.2" y="1695.46" fill="#e0d1fc" transform="rotate(-.23 2686.937 1734.236)"></rect><rect width="18.8" height="7.58" x="2674.84" y="1695.25" fill="#e0d1fc" transform="rotate(-.23 2731.787 1729.343)"></rect><rect width="68.19" height="7.58" x="2507.06" y="1695.84" fill="#e0d1fc" transform="rotate(-.23 2592.274 1734.046)"></rect><rect width="25.63" height="7.58" x="2507.27" y="1746.12" fill="#e0d1fc" transform="rotate(-.23 2572.24 1786.319)"></rect><rect width="84.68" height="7.58" x="2546.89" y="1745.84" fill="#e0d1fc" transform="rotate(-.23 2641.997 1783.968)"></rect><rect width="36.7" height="7.58" x="2657.15" y="1745.48" fill="#e0d1fc" transform="rotate(-.23 2729.186 1784.143)"></rect><rect width="186.58" height="7.58" x="2507.34" y="1762.84" fill="#e0d1fc" transform="rotate(-.23 2651.926 1801.426)"></rect><path fill="#69dfd4" d="M3423.49,1737.6a6.32,6.32,0,0,1-2.46,5c-5.12,4.44-16.37,6-16.41,18.6-.06,16.25-88.09,36.17-127.41,33s-87-11.54-87-11.54l1.07-1.06c7.87-7.75,58.07-56,98.54-67.6,44.05-12.59,37.75,26.73,75.51,9.42S3423.49,1728.16,3423.49,1737.6Z"></path><path d="M3421,1742.59c-5.12,4.44-16.37,6-16.41,18.6-.06,16.25-88.09,36.17-127.41,33s-87-11.54-87-11.54l1.07-1.06c13.53,2.44,50,7.43,70.23-5.22,25.17-15.73,29.36-43,41.95-25.15s25.17,27.24,43,11.52,24.1-23.06,33.55-19.92C3387.17,1745.24,3406,1747,3421,1742.59Z" style="mix-blend-mode:multiply" fill="#69dfd4"></path><path fill="#f95d6c" d="M3028.45,1798c-4.15,0-8.62-1.33-13.38-4-15.72-8.76-17.76-21.08-16.22-28.89-3.68-3.14-9.07-9.24-9.65-18.44l0-.75.17-.73c.32-1.38,8.17-33.91,33.49-34.73,9.57-.27,13.86,5.38,16,8.68.77-.53,1.6-1.15,2.18-1.58a21,21,0,0,1,5.37-3.31c5.25-1.76,13.82-2.78,24.84,2.27,8.12,3.72,10.6,8.85,11.26,12.51a16.87,16.87,0,0,1-1.91,10.67c4.38,2,9.68,5.4,12,10.33a12.85,12.85,0,0,1,.07,11c-5.19,11.86-25.26,31.13-40.2,27.39l-6.87-1.71a20.89,20.89,0,0,1-10.11,9.89A17.86,17.86,0,0,1,3028.45,1798Zm-28.93-51.19c.88,7.69,7.58,11.73,7.87,11.9l4,2.35-1.87,4.21c-.47,1.1-4.33,11.47,10.58,19.78,4.68,2.61,8.53,3.31,11.43,2.08,4.35-1.85,6.08-7.75,6.09-7.81l1.3-4.9,16.1,4c7.74,2,24-11.59,28.3-21.54a2.65,2.65,0,0,0,.08-2.43c-1.5-3.15-8-6.19-12.12-7.34l-8.46-2.37,6.2-6.21c1-1.07,4-4.82,3.42-7.71-.41-2.24-3.18-3.94-5.43-5-8-3.65-13.81-3-17.3-1.86-.3.15-1.61,1.14-2.48,1.79-3.79,2.84-8.51,6.37-12.95,3.61a12.05,12.05,0,0,1-3.57-4c-1.74-2.68-3.1-4.83-7.53-4.65C3007.38,1721.23,3000.7,1742.53,2999.52,1746.78Z"></path><path fill="#69dfd4" d="M3165.72,1755.08c-11.52-.68,6,18.13-2.42,24.39a6.4,6.4,0,0,1-.9.6c-10.5,5.58-46.31,13.45-63.78-1.93s-69.92-1.4-69.92-15.38c0-13.68-18.07-18-3.78-33.25.31-.33.64-.66,1-1,16.07-16.08,36.36-15.38,62.21-2.1s22.37-5.58,50.33.7S3169.66,1755.3,3165.72,1755.08Z"></path><path d="M3163.3,1779.47a6.4,6.4,0,0,1-.9.6c-10.5,5.58-46.31,13.45-63.78-1.93s-69.92-1.4-69.92-15.38c0-13.68-18.07-18-3.78-33.25,7.15,1.54,16.88,5.55,19.86,15.77,4.9,16.78,30.76-6.28,51,6.31s4.89,24.45,25.16,27.24C3134.28,1780.66,3152.42,1780.09,3163.3,1779.47Z" style="mix-blend-mode:multiply" fill="#69dfd4"></path><path fill="#f95d6c" d="M3347.73 1788.53c-4.15 0-8.62-1.32-13.38-4-15.72-8.76-17.76-21.08-16.21-28.89-3.68-3.13-9.08-9.24-9.65-18.43l0-.75.17-.74c.32-1.38 8.17-33.91 33.49-34.72 9.57-.28 13.87 5.37 16.05 8.68.77-.54 1.61-1.16 2.18-1.59a21.14 21.14 0 015.38-3.31c5.24-1.75 13.81-2.78 24.83 2.27 8.12 3.72 10.61 8.86 11.26 12.51a16.92 16.92 0 01-1.91 10.68c4.38 2 9.68 5.4 12 10.32a12.84 12.84 0 01.07 11c-5.18 11.85-25.26 31.12-40.2 27.38l-6.87-1.71a20.85 20.85 0 01-10.11 9.89A17.86 17.86 0 013347.73 1788.53zm-28.93-51.18c.88 7.68 7.58 11.72 7.87 11.89l4 2.35-1.87 4.22c-.47 1.1-4.33 11.47 10.58 19.78 4.69 2.61 8.53 3.31 11.43 2.07 4.36-1.85 6.08-7.75 6.1-7.81l1.29-4.9 16.1 4c7.74 2 23.95-11.59 28.31-21.54a2.67 2.67 0 00.07-2.43c-1.49-3.14-8-6.19-12.12-7.34l-8.46-2.37 6.2-6.21c1-1.06 4-4.81 3.42-7.7-.41-2.25-3.18-3.94-5.42-5-8-3.66-13.82-3-17.31-1.87-.29.16-1.61 1.14-2.48 1.79-3.79 2.84-8.51 6.38-12.95 3.61a12.12 12.12 0 01-3.57-4c-1.74-2.69-3.09-4.84-7.53-4.66C3326.66 1711.79 3320 1733.09 3318.8 1737.35zM3157.68 1694.08s-31.46 118.84 105.38 49.28z"></path><path d="M3250.65,1737.78c-105.55,53.63-81.28-38-81.28-38l22.24,10.39v0l17.5,8.17Z" style="mix-blend-mode:multiply" fill="#f95d6c"></path><path fill="#feb500" d="M3172.66 1712.21h0a3.4 3.4 0 004.05 3.73l13.21-2.72-12.93-3.84A3.39 3.39 0 003172.66 1712.21zM3190.71 1717.67l-13.77 5.51a4.19 4.19 0 00-2.55 4.75h0a4.19 4.19 0 007.47 1.65zM3193.59 1719.77l-10.23 17.86a5.16 5.16 0 002.85 7.46h0a5.16 5.16 0 006.79-4.75zM3198.84 1721.34l-.42 21.13a4.82 4.82 0 005.45 4.88h0a4.82 4.82 0 003.77-6.8zM3205.13 1723.18l8.67 17.8a4 4 0 004.88 2h0a4 4 0 001.3-6.71zM3213.78 1726.06l16.26 10.29a2.33 2.33 0 002.87-.32h0a2.31 2.31 0 00-.9-3.82z"></path><path fill="#f95d6c" d="M3209.11,1718.35c-11.83,5.22-16.08-3.32-17.5-8.17Z"></path><path fill="#2469ce" d="M3422.44,1754.38l-17.17,39.34a125.76,125.76,0,0,1-116.08,75.46l-119.34-.73-61-.37a125.82,125.82,0,0,1-108.3-63.17l-29-50.53Z"></path><path d="M3422.44,1754.38l-17.17,39.34a125.76,125.76,0,0,1-116.08,75.46l-119.34-.73q9.27-4.38,20.86-9.22c83.35-34.6,29.88-53.47,75.49-51.91,28.79,1,45.69-30,54.23-52.94Z" style="mix-blend-mode:multiply" fill="#2469ce" opacity=".53"></path><path fill="#9d79dd" d="M2979,1818.1l2.76-5-4.21-3.82a407.77,407.77,0,0,1,55.12-48.47c19-13.84,37.61-24.57,55.31-31.91,22.32-9.25,43.27-13.1,62.28-11.44,31.52,2.75,57.87,20.52,78.32,52.84l.38.59.52,3.19-.16.68c-9.06,37.16-28.34,62.43-57.33,75.11-17.48,7.65-38.56,10.7-62.67,9.06-19.11-1.29-40.17-5.52-62.61-12.55A406.5,406.5,0,0,1,2979,1818.1Zm243.35-44.66c-19.18-30-43.63-46.51-72.68-49-40.68-3.55-83.8,20.86-112.81,42a406.48,406.48,0,0,0-53.09,46.44,406,406,0,0,0,65.15,27c34.24,10.73,82.9,20.09,120.31,3.72,26.71-11.7,44.61-35.15,53.19-69.71Z"></path><path fill="#9d79dd" d="M2978.79 1805.35c39.56-20.41 77-35.37 111.15-44.47 27.47-7.3 53-10.87 75.79-10.59 39.34.48 57.11 12.16 57.85 12.66l-3.87 5.75 1.93-2.88-1.92 2.88c-.17-.11-17.3-11.19-54.9-11.49-34.88-.28-94.91 8.92-182.85 54.3zM2985.47 1822.63l.56-6.91c105.13 8.52 163.41-1.76 193.79-11.88 32.74-10.91 40.83-23.92 40.91-24.06l6 3.47c-.34.6-8.8 14.87-43.26 26.67-19.79 6.77-44.32 11.45-72.93 13.9C3075 1826.87 3032.87 1826.47 2985.47 1822.63z"></path><path fill="#69dfd4" d="M2982,1840.76l-168.7,27.69a9,9,0,0,1-10.4-7.46l-6-36.84a9,9,0,0,1,7.46-10.4l168.7-27.69a9,9,0,0,1,10.4,7.47l6,36.84A9,9,0,0,1,2982,1840.76Z"></path><path d="M2982,1840.76l-168.7,27.69a9,9,0,0,1-10.4-7.46l-2.34-14.3c11.43,5.23,32,5.15,54.4-1.63,32.49-9.84,40.05-9.58,82-10.94,32.81-1.07,46.1-12.46,50.16-18.29l2.38,14.54A9,9,0,0,1,2982,1840.76Z" style="mix-blend-mode:multiply" fill="#e0d1fc"></path></g></g></g></svg>