<svg width="481" height="440" viewBox="0 0 481 440" fill="none" xmlns="http://www.w3.org/2000/svg">
<path d="M76.7796 326.175C76.7796 326.175 78.5134 326.678 80.0975 326.318C81.6831 325.958 83.0897 325.874 83.1744 325.27C83.2591 324.666 82.533 324.605 82.533 324.605C82.533 324.605 83.3437 324.685 83.2802 323.97C83.2802 323.97 83.2965 323.539 82.7218 323.619C82.7218 323.619 83.3828 323.573 83.347 323.174C83.3111 322.775 83.2607 322.517 82.8895 322.549C82.8895 322.549 83.3991 322.046 83.3502 321.509C83.3014 320.972 81.0564 321.603 80.9587 321.279C80.861 320.955 82.8634 321.025 82.8146 320.475C82.7658 319.925 80.0681 319.223 78.5704 319.996C77.0726 320.768 76.7421 322.184 75.7539 322.453C75.7523 322.453 75.9428 326.277 76.7796 326.175Z" fill="#F7C19B"/>
<path d="M69.9283 330.418L77.8812 326.742L75.8331 322.213L68.9141 324.863L69.9283 330.418Z" fill="#F2384E"/>
<path d="M480.263 439.639L478.62 439.765L476.789 415.783C475.633 400.663 469.036 386.491 458.21 375.878L452.578 370.356C442.89 360.852 436.552 348.762 434.253 335.391L420.445 255.078L233.792 150.77L231.809 149.661L231.818 147.779L233.801 148.888L421.934 254.023L435.877 335.111C438.117 348.14 444.29 359.921 453.731 369.179L459.364 374.701C470.473 385.596 477.246 400.141 478.431 415.657L480.263 439.639Z" fill="#67737E"/>
<path d="M232.965 89.213C232.965 89.213 240.682 87.2187 247.544 94.9859C247.544 94.9859 250.092 98.0466 255.883 97.7828C259.893 97.6005 263.868 99.0738 266.559 102.346C266.6 102.397 266.642 102.447 266.683 102.499C266.683 102.499 268.397 104.682 274.364 103.258C274.364 103.258 269.67 110.594 264.244 108.787C264.244 108.787 261.035 107.341 255.99 112.638C255.99 112.638 252.703 117.703 244.153 116.466C244.153 116.466 238.204 116.772 232.508 122.278L232.965 89.213Z" fill="#F2384E"/>
<path d="M234.135 86.0806L233.798 148.888L233.789 150.77L233.614 183.38L231.625 183.39L231.806 149.661L231.815 147.779L232.144 86.0903L234.135 86.0806Z" fill="#BF6F31"/>
<path d="M235.345 87.4333L230.824 87.4561L230.841 84.5697L235.361 84.5469L235.345 87.4333Z" fill="#8A4224"/>
<path d="M463.869 439.701H0L61.3549 346.359C68.1307 336.058 76.331 326.784 85.7164 318.805L97.4984 308.768C99.045 307.453 100.561 306.093 102.041 304.701C112.851 294.51 121.648 282.363 128.126 268.957C133.365 258.103 140.826 244.706 150.376 232.67C152.808 229.608 155.504 226.767 158.345 224.071L162.712 219.926C167.122 215.737 171.885 211.913 176.926 208.509L186.31 202.187C192.587 197.954 197.75 192.251 201.364 185.586L206.051 176.92C206.051 176.92 213.092 159.655 224.719 155.058C226.676 154.284 228.754 153.876 230.953 153.952C231.606 153.975 232.268 153.975 232.92 153.952C248.216 153.378 257.822 176.92 257.822 176.92L262.52 185.586C266.123 192.251 271.285 197.954 277.574 202.187L279.751 203.657L286.947 208.509C291.999 211.913 296.751 215.737 301.161 219.926L305.539 224.071C308.368 226.768 311.066 229.608 313.496 232.67C323.046 244.706 330.508 258.103 335.746 268.957C338.853 275.389 342.499 281.535 346.656 287.304C352.315 295.207 358.924 302.435 366.374 308.77L378.168 318.806C387.551 326.787 395.753 336.06 402.518 346.36L463.869 439.701Z" fill="#8A4224"/>
<path d="M199.516 284.563L168.196 337.695C162.777 346.888 162.723 358.288 168.056 367.532C175.138 379.809 172.529 395.384 161.831 404.681L154.572 410.991C150.482 414.547 147.446 419.156 145.793 424.317L140.869 439.705H0L61.3549 346.363C68.1307 336.062 76.331 326.787 85.7164 318.809L97.4984 308.772C99.045 307.456 100.561 306.097 102.041 304.705C112.851 294.514 121.648 282.367 128.126 268.96C133.365 258.107 140.826 244.71 150.376 232.674C152.808 229.611 155.504 226.771 158.345 224.075L162.712 219.93C167.122 215.741 171.885 211.917 176.926 208.512L186.31 202.191C192.587 197.958 197.75 192.255 201.364 185.59L206.051 176.924C206.051 176.924 213.092 159.659 224.719 155.062L199.516 284.563Z" fill="#632D16"/>
<path d="M463.869 439.701H373.191L372.191 432.272C369.58 412.866 353.018 398.384 333.438 398.384C317.944 398.384 303.911 389.236 297.659 375.059L295.727 370.675C290.369 358.527 291.543 344.488 298.843 333.398L301.775 328.946C307.181 320.731 307.066 310.057 301.482 301.961L264.586 248.473L279.751 203.654L286.947 208.505C291.998 211.909 296.751 215.734 301.161 219.923L305.539 224.067C308.368 226.765 311.066 229.604 313.496 232.667C323.046 244.703 330.507 258.099 335.746 268.953C338.853 275.386 342.499 281.531 346.656 287.301C352.315 295.203 358.924 302.432 366.374 308.766L378.167 318.803C387.551 326.784 395.753 336.057 402.518 346.357L463.869 439.701Z" fill="#934328"/>
<path d="M346.651 287.305C328.193 289.724 312.111 290.111 312.111 290.111L306.031 294.841C304.025 296.4 301.954 297.844 299.823 299.171C281.166 310.795 258.099 313.447 237.105 306.069C229.273 303.316 221.099 301.945 212.933 301.945C203.433 301.945 193.944 303.801 185.02 307.5L179.472 309.801C164.672 315.933 148.263 317.022 132.784 312.895L102.039 304.702C112.849 294.51 121.647 282.364 128.125 268.955C133.364 258.101 140.825 244.706 150.373 232.669C152.805 229.608 155.503 226.767 158.342 224.069L162.709 219.924C167.119 215.736 171.882 211.911 176.923 208.507L186.307 202.186C192.586 197.951 197.747 192.248 201.361 185.583L206.048 176.919C206.048 176.919 215.653 153.375 230.95 153.949C231.601 153.972 232.265 153.972 232.917 153.949C248.215 153.375 257.819 176.919 257.819 176.919L262.517 185.583C266.12 192.248 271.282 197.951 277.571 202.186L286.944 208.507C291.995 211.911 296.748 215.736 301.158 219.924L305.536 224.069C308.365 226.767 311.061 229.608 313.493 232.669C323.043 244.706 330.503 258.101 335.743 268.955C338.848 275.389 342.496 281.535 346.651 287.305Z" fill="#ECF0F1"/>
<path d="M117.047 146.194L116.998 146.22L114.3 142.657L57.5039 49.0982L57.9874 48.8442L117.047 146.194Z" fill="#E1E3E8"/>
<path d="M117.196 148.526L79.7422 45.2662L80.2599 45.1083L116.413 144.121L106.756 42.9316L107.296 42.9023L117.196 148.526Z" fill="#E1E3E8"/>
<path d="M190.272 51.3293L134.983 142.49L133.123 145.251L132.369 146.368L132.152 146.233L132.169 146.065L133.813 143.353L189.681 51.2593C189.882 51.2804 190.077 51.3081 190.272 51.3293Z" fill="#E1E3E8"/>
<path d="M132.086 146.195L132.167 146.064L132.151 146.232L132.086 146.195Z" fill="#E1E3E8"/>
<path d="M133.125 145.251L132.794 146.163L132.55 146.477L132.371 146.368L133.125 145.251Z" fill="#E1E3E8"/>
<path d="M191.622 49.0984L191.562 49.2009L190.271 51.3271C190.075 51.306 189.88 51.2783 189.68 51.2571L191.026 49.0381L191.145 48.8428L191.622 49.0984ZM207.615 49.8863L205.087 53.1407L204.994 53.2547L204.973 53.2824C204.766 53.2547 204.561 53.2221 204.359 53.1961L204.441 53.087L204.783 52.6474L207.169 49.577L207.615 49.8863Z" fill="#E1E3E8"/>
<path d="M133.13 145.251L132.799 146.163L131.941 148.528L132.158 146.233L132.376 146.368L133.13 145.251Z" fill="#E1E3E8"/>
<path d="M169.386 45.2695L167.997 49.0937L133.812 143.351L132.168 146.063L141.391 47.5894L141.825 42.9349L141.83 42.9023L142.372 42.93L142.367 42.9626L141.928 47.6073L132.717 144.122L167.432 49.0513L168.832 45.2157L168.87 45.1067L169.375 45.2646C169.379 45.2646 169.379 45.2646 169.386 45.2695Z" fill="#E1E3E8"/>
<path d="M92.1371 116.459C92.0947 116.443 92.1029 116.453 92.1029 116.453C92.1029 116.453 91.9042 116.602 92.0329 116.869C92.1615 117.133 92.5538 117.306 92.5538 117.306C92.5538 117.306 92.1191 117.814 92.8876 118.26C92.8876 118.26 92.632 119.153 94.1835 119.463C95.564 119.738 99.1766 123.394 99.7985 123.79L99.8343 123.811L99.8685 123.832C99.8717 123.836 99.875 123.837 99.8782 123.839L99.901 123.853C99.9043 123.855 99.9059 123.857 99.9076 123.858L99.9157 123.863L101.383 121.385C101.383 121.385 100.805 121.04 99.4436 120.339C98.0858 119.635 97.5616 118.955 97.0178 117.727C96.4741 116.501 95.7757 116.076 95.2954 115.593C94.8135 115.109 94.7012 115.083 94.6816 115.565C94.6621 116.046 95.6536 116.61 95.3654 116.949C95.0772 117.291 93.3597 116.454 92.7704 116.142C92.181 115.827 91.6535 115.121 91.4972 115.58C91.3524 115.998 92.0117 116.389 92.1371 116.459ZM99.5168 123.606L99.7285 123.741C99.6699 123.704 99.5966 123.66 99.5168 123.606Z" fill="#F7C19B"/>
<path d="M123.953 113.736C123.969 114.644 123.472 115.408 122.951 116.012C122.777 115.639 122.588 115.401 122.404 115.387C121.528 115.317 120.89 116.334 120.018 115.951C119.143 115.57 118.212 116.271 118.212 116.271C118.608 117.55 118.141 117.088 118.101 117.483C118.061 117.877 118.613 118.703 118.289 118.924C117.966 119.147 117.465 118.234 117.082 118.296C116.7 118.356 116.158 118.859 116.849 119.821C117.543 120.785 117.865 121.062 118.062 121.776C118.062 121.776 116.399 120.694 115.459 117.265C115.459 117.265 114.832 116.414 116.242 115.297C116.242 115.297 115.459 115.452 115.453 115.219C115.446 114.983 116.234 114.768 116.234 114.768C116.234 114.768 116.128 114.384 116.729 114.633C116.729 114.633 116.864 113 118.414 112.594C119.962 112.189 119.742 111.461 120.729 111.25C121.716 111.038 123.236 112.199 123.479 113.374C123.479 113.374 123.405 112.428 123.132 112.09C123.132 112.088 123.922 111.89 123.953 113.736Z" fill="#333333"/>
<path d="M122.947 116.009C122.771 115.633 122.579 115.4 122.397 115.383C121.519 115.311 120.887 116.335 120.015 115.954C119.132 115.571 118.208 116.273 118.208 116.273C118.6 117.551 118.139 117.084 118.1 117.488C118.053 117.872 118.611 118.704 118.283 118.92C117.962 119.146 117.464 118.232 117.073 118.29C116.692 118.359 115.823 119.223 116.511 120.185C117.2 121.149 117.661 121.196 117.858 121.912C117.947 122.266 119.014 126.336 119.735 126.642C120.456 126.958 123.38 126.238 123.505 125.46C123.639 124.691 122.927 123.677 122.948 123.049C122.953 122.619 122.668 121.971 123.315 121.562C123.767 121.274 124.002 120.734 123.971 120.198C123.889 118.865 123.395 116.968 122.947 116.009ZM156.822 118.37C156.665 117.912 156.139 118.617 155.549 118.932C154.962 119.244 153.244 120.081 152.954 119.739C152.666 119.399 153.658 118.836 153.638 118.355C153.62 117.873 153.506 117.899 153.024 118.383C152.542 118.866 151.846 119.291 151.302 120.517C150.758 121.745 150.236 122.425 148.876 123.129C147.517 123.83 146.937 124.175 146.937 124.175L148.404 126.653L148.412 126.648C148.414 126.647 148.415 126.645 148.419 126.643L148.441 126.629C148.445 126.627 148.448 126.626 148.451 126.622L148.485 126.601L148.521 126.58C149.143 126.184 152.756 122.528 154.136 122.253C155.688 121.943 155.432 121.05 155.432 121.05C156.201 120.605 155.766 120.096 155.766 120.096C155.766 120.096 156.158 119.925 156.287 119.659C156.415 119.394 156.217 119.243 156.217 119.243C156.217 119.243 156.223 119.233 156.183 119.249C156.308 119.179 156.967 118.788 156.822 118.37ZM148.593 126.531L148.805 126.396C148.723 126.448 148.65 126.494 148.593 126.531Z" fill="#F7C19B"/>
<path d="M118.898 189.067V193.544H116.176V188.951L118.898 189.067Z" fill="#F7C19B"/>
<path d="M119.628 196.284L111.828 196.281C111.432 196.281 111.113 195.96 111.113 195.566V195.232C111.113 195.13 111.217 194.912 111.297 194.847L115.673 191.384C115.817 191.268 116.03 191.288 116.149 191.429C116.684 192.064 117.55 192.473 118.828 192.409C118.983 192.401 119.126 192.484 119.195 192.623C119.773 193.801 120.149 194.834 120.106 195.823C120.095 196.079 119.885 196.284 119.628 196.284Z" fill="#37424C"/>
<path d="M154.309 180.173L157.361 183.448L159.352 181.594L156.222 178.232L154.309 180.173Z" fill="#F7C19B"/>
<path d="M158.691 185.953L164.397 180.634C164.686 180.366 164.702 179.911 164.433 179.623L164.205 179.379C164.135 179.304 163.909 179.215 163.808 179.223L158.245 179.672C158.063 179.685 157.92 179.845 157.928 180.029C157.97 180.859 157.615 181.748 156.635 182.571C156.516 182.671 156.467 182.83 156.513 182.978C156.894 184.235 157.322 185.246 158.027 185.941C158.211 186.122 158.502 186.129 158.691 185.953Z" fill="#37424C"/>
<path d="M116.027 190.56H119.083C119.613 190.56 120.043 190.13 120.043 189.6V170.975C120.043 170.514 120.139 170.06 120.326 169.639L126.244 156.346C126.244 156.346 137.73 163.799 141.274 166.977C144.296 169.686 151.319 178.707 153.32 181.302C153.616 181.686 154.171 181.74 154.539 181.424L157.546 178.847C157.88 178.56 157.942 178.067 157.684 177.71C155.835 175.143 148.836 165.497 146.407 163.066C143.597 160.256 132.478 148.525 132.478 148.525H118.549C118.549 148.525 113.051 165.144 113.051 170.031C113.051 174.239 114.636 186.425 115.078 189.725C115.138 190.205 115.545 190.56 116.027 190.56Z" fill="#3A556A"/>
<path d="M151.766 125.139C149.848 126.575 142.917 131.541 139.201 131.541C136.487 131.541 134.374 131.137 133.174 130.833C132.495 130.655 131.816 131.02 131.591 131.668L131.582 131.677C131.443 132.091 131.336 132.503 131.248 132.916C129.714 140.172 135.377 147.577 135.593 148.952C135.839 150.476 132.752 151.285 128.505 151.892C127.033 152.102 119.616 152.542 116.176 149.887C116.176 149.887 117.68 138.196 116.324 135.384C116.285 135.287 116.226 135.207 116.176 135.129C115.998 134.883 115.832 134.637 115.665 134.411C114.426 132.7 113.177 131.412 108.596 130.587C107.651 130.419 106.748 130.056 105.95 129.515C103.572 127.863 98.419 124.246 96.3254 122.181C96.0112 121.877 96.0112 121.375 96.2961 121.04L97.8688 119.261C98.2025 118.878 98.7837 118.868 99.1174 119.251C100.75 121.099 105.439 125.857 110.365 125.857C112.656 125.857 114.347 125.514 115.586 125.149C115.94 125.051 116.256 124.942 116.54 124.845C117.947 124.373 118.575 124.029 118.86 124.697C118.909 124.825 118.968 124.981 119.038 125.178C119.293 125.563 119.795 125.945 120.985 125.945C121.998 125.945 122.509 125.385 122.764 124.765C122.803 123.881 122.852 123.251 122.873 122.995C122.873 122.927 122.942 122.876 123 122.876C124.889 122.906 126.746 123.28 128.545 123.791C128.85 123.87 129.156 123.959 129.451 124.047C133.197 125.198 136.57 126.771 139.077 126.771C142.41 126.771 147.375 123.064 148.762 121.963C148.979 121.795 149.293 121.815 149.48 122.012L151.829 124.312C152.06 124.55 152.031 124.944 151.766 125.139Z" fill="#2B91CC"/>
<path d="M204.976 53.2826L132.793 146.162L133.123 145.251L134.984 142.489L204.362 53.1963C204.564 53.2223 204.771 53.2549 204.976 53.2826Z" fill="#E1E3E8"/>
<path d="M116.993 146.221L116.579 146.476L41.5117 49.8865L41.9562 49.5771L114.295 142.657L116.993 146.221Z" fill="#E1E3E8"/>
<path d="M205.197 53.3153C205.127 53.3039 205.051 53.2941 204.981 53.2827C204.774 53.255 204.569 53.2225 204.367 53.1964C199.647 52.5127 194.954 51.8891 190.278 51.3307C190.083 51.3095 189.887 51.2819 189.687 51.2607C182.411 50.393 175.185 49.6718 168.002 49.0955C167.811 49.0792 167.627 49.0629 167.437 49.0515C158.87 48.3677 150.369 47.8907 141.933 47.6091C141.753 47.5977 141.574 47.5928 141.395 47.5928C130.063 47.2184 118.842 47.207 107.738 47.5326C107.559 47.5374 107.38 47.544 107.201 47.5537C98.6226 47.8093 90.1113 48.2749 81.6635 48.9375C81.4731 48.9489 81.2842 48.9652 81.0937 48.9815C73.8084 49.5562 66.5751 50.2839 59.3875 51.1467H59.3826C59.1872 51.1679 58.9919 51.1956 58.7965 51.2233C54.0867 51.7882 49.3947 52.4215 44.724 53.1166C44.5123 53.1443 44.3121 53.1769 44.1004 53.2094H44.0956C43.8627 53.242 43.6234 53.2746 43.3906 53.312L43.9881 53.0678L44.514 52.8513H44.5188L56.2373 48.0226L56.6654 47.8484L78.0249 39.0539H78.0298L78.5019 38.8634L96.9636 31.2622L102.611 29.5691L106.067 28.5337L129.667 21.46L142.504 24.9748H142.509L142.537 24.9797L155.899 28.6362L171.416 30.7299L173.168 30.9692L193.257 33.6814L196.979 39.8011L199.317 43.6416L204.79 52.6478L205.095 53.1411L205.197 53.3153Z" fill="#BF6F31"/>
<path d="M94.8438 15.6641L108.394 5.44509C119.469 -1.80607 130.067 -1.82398 140.189 5.44509C142.917 17.9238 143.145 30.4155 141.703 42.917C129.743 42.4042 118.198 42.4189 107.033 42.917L100.597 23.4949L94.8438 15.6641Z" fill="#FFC42E"/>
<path d="M71.0312 17.3675L77.4277 11.5767C77.4277 11.5767 85.2242 -5.45556 108.389 5.44561C105.877 16.2507 105.337 28.6725 107.027 42.9176C97.0371 43.3294 87.9561 44.062 80.0016 45.1886L71.0312 17.3675Z" fill="#F2384E"/>
<path d="M49.3413 19.2884C55.4252 7.9428 64.7879 5.3738 77.4294 11.5782C75.7427 21.7532 76.7358 33.0109 80.0033 45.1901C72.3272 45.8527 64.91 47.1193 57.7451 48.9768L47.5277 42.5397L44.8789 26.7936L49.3413 19.2884Z" fill="#FFC42E"/>
<path d="M57.7463 48.9754L43.3856 53.3108C36.5935 50.9079 32.1719 46.7402 30.0017 44.2721C30.0017 44.2672 29.9968 44.2672 29.9968 44.2672C29.4433 43.6372 29.0363 43.1162 28.7758 42.7646C28.5365 42.4439 28.4177 42.2599 28.4177 42.2599C26.7148 39.7202 25.7266 36.666 25.7266 33.3791C25.7266 24.5357 32.8931 17.3692 41.7364 17.3692C44.4878 17.3692 47.0796 18.0644 49.3425 19.2903C48.2908 29.5272 49.8309 37.6982 53.7365 43.9758C54.8761 45.8008 56.2111 47.4663 57.7463 48.9754ZM177.548 17.3741L171.152 11.5833C171.152 11.5833 163.355 -5.44899 140.19 5.45055C142.702 16.2557 143.243 28.6774 141.553 42.9225C151.543 43.3344 160.624 44.067 168.578 45.1936L177.548 17.3741Z" fill="#F2384E"/>
<path d="M199.24 19.2948C193.156 7.94915 183.794 5.38015 171.152 11.5845C172.839 21.7596 171.844 33.0173 168.578 45.1948C176.254 45.8574 183.671 47.124 190.836 48.9816L201.054 42.5444L203.702 26.7983L199.24 19.2948Z" fill="#FFC42E"/>
<path d="M190.836 48.9817L205.197 53.3171C211.989 50.9142 216.41 46.7464 218.581 44.2784C218.581 44.2735 218.585 44.2735 218.585 44.2735C219.139 43.6435 219.546 43.1225 219.806 42.7708C220.046 42.4501 220.165 42.2662 220.165 42.2662C221.867 39.7265 222.856 36.6723 222.856 33.3854C222.856 24.542 215.689 17.3755 206.846 17.3755C204.094 17.3755 201.503 18.0707 199.24 19.2965C200.293 29.5335 198.751 37.7045 194.846 43.9805C193.706 45.8087 192.371 47.4742 190.836 48.9817Z" fill="#F2384E"/>
<path d="M133.889 146.556C128.611 147.432 122.462 147.758 116.817 147.52C116.107 147.491 115.579 146.851 115.67 146.146C115.763 145.441 116.44 144.961 117.134 145.117C122.609 146.355 127.991 146.07 133.271 144.139C133.933 143.896 134.66 144.277 134.848 144.958L134.868 145.028C135.062 145.728 134.606 146.438 133.889 146.556Z" fill="#404251"/>
<path d="M427.079 259.293C427.079 259.293 424.801 256.852 424.326 256.515C423.85 256.178 421.887 256.727 420.974 256.077C420.974 256.077 420.858 255.685 420.637 255.508C420.414 255.332 419.964 255.177 420.059 254.567C420.153 253.956 419.484 254.435 419.359 253.219C419.359 253.219 418.966 253.269 418.497 252.937C418.029 252.605 418.204 252.099 418.58 251.879C418.955 251.661 420.819 251.188 421.317 251.249C421.317 251.249 419.316 251.889 419.364 249.862C419.364 249.862 419.473 249.655 420.057 250.033C420.64 250.41 421.926 250.856 422.252 250.811C422.576 250.767 426.952 254.329 428.938 255.322L427.079 259.293Z" fill="#EAB794"/>
<path d="M398.411 324.118L391.823 327.74L389.43 323.386L396.189 319.67L398.411 324.118Z" fill="#F7C19B"/>
<path d="M390.39 331.987L381.158 322.696C380.691 322.225 380.692 321.465 381.163 320.998L381.56 320.602C381.682 320.482 382.066 320.346 382.237 320.364L391.541 321.476C391.847 321.511 392.077 321.787 392.049 322.095C391.925 323.485 392.464 324.999 394.055 326.447C394.247 326.621 394.319 326.891 394.234 327.135C393.514 329.219 392.731 330.89 391.502 332.011C391.185 332.301 390.695 332.293 390.39 331.987Z" fill="#333333"/>
<path d="M385.876 312.947L379.288 316.568L376.895 312.213L383.654 308.498L385.876 312.947Z" fill="#F7C19B"/>
<path d="M377.855 320.814L368.623 311.523C368.155 311.053 368.157 310.293 368.628 309.825L369.025 309.43C369.147 309.309 369.531 309.174 369.702 309.192L379.006 310.304C379.312 310.337 379.542 310.615 379.514 310.923C379.39 312.313 379.929 313.827 381.52 315.273C381.712 315.447 381.784 315.717 381.7 315.961C380.981 318.045 380.198 319.716 378.969 320.837C378.65 321.129 378.16 321.121 377.855 320.814ZM465.581 253.623C464.586 254.862 464.456 256.448 464.529 257.84C465.169 257.509 465.683 257.384 465.955 257.561C467.241 258.401 467.036 260.492 468.649 260.897C470.266 261.304 470.805 263.269 470.805 263.269C468.887 264.615 470.03 264.474 469.66 265.065C469.294 265.654 467.648 266.203 467.86 266.856C468.068 267.508 469.738 266.784 470.201 267.277C470.666 267.769 470.875 269.045 468.89 269.635C466.901 270.224 466.092 269.399 465.056 270.177C465.056 270.177 468.581 271.323 473.546 267.588C473.546 267.588 475.324 267.08 474.57 264.031C474.57 264.031 475.487 265.083 475.746 264.767C476.006 264.449 475.148 263.307 475.148 263.307C475.148 263.307 475.705 262.888 474.609 262.589C474.609 262.589 476.169 260.186 474.46 257.968C472.754 255.753 473.836 254.981 472.697 253.633C471.559 252.287 468.216 252.262 466.622 253.628C466.622 253.628 467.736 252.399 468.477 252.225C468.478 252.225 467.598 251.106 465.581 253.623Z" fill="#333333"/>
<path d="M453.258 269.333C453.258 269.333 453.481 271.931 456.499 273.218C459.527 274.512 460.284 273.992 463.239 271.909C463.267 271.913 463.278 271.92 463.298 271.935C463.869 271.283 464.555 270.557 465.054 270.181C466.093 269.397 466.907 270.22 468.888 269.639C470.878 269.047 470.669 267.764 470.196 267.272C469.738 266.777 468.073 267.506 467.863 266.86C467.649 266.196 469.294 265.654 469.667 265.063C470.021 264.475 468.882 264.615 470.798 263.27C470.798 263.27 470.264 261.307 468.649 260.89C467.036 260.491 467.244 258.403 465.958 257.566C465.681 257.385 465.175 257.507 464.532 257.844C462.308 258.985 458.557 262.587 457.981 264.384C457.912 264.568 457.945 264.763 458.046 264.928C458.282 265.297 458.663 266.095 457.875 266.593C457.932 266.621 454.606 269.187 453.258 269.333Z" fill="#F7C19B"/>
<path d="M450.081 272.043C450.96 272.667 451.615 273.1 451.955 273.279C452.893 273.774 454.921 273.675 457.119 273.338C454.794 271.797 453.878 269.453 453.878 269.453C452.383 270.025 451.134 270.91 450.081 272.043ZM438.535 296.683C440.648 298.479 438.364 302.311 447.556 306.176C448.331 306.508 449.044 306.86 449.716 307.228C448.119 296.963 450.858 283.291 451.447 280.555C451.51 280.258 451.364 279.972 451.087 279.85C450.366 279.531 448.857 278.922 446.906 278.448C446.802 278.42 446.656 278.363 446.478 278.283C443.856 285.637 444.165 294.728 443.587 295.718C442.703 297.248 438.535 296.683 438.535 296.683Z" fill="#E1E3E8"/>
<path d="M385.577 314.338L409.067 308.184C409.349 308.13 409.5 308.505 409.259 308.661L394.404 318.27C393.544 318.826 393.446 320.046 394.205 320.733L397.399 324.993C397.783 325.342 398.317 325.474 398.819 325.348L419.167 318.597C421.184 318.094 423.281 318.04 425.324 318.428C432.999 319.885 453.193 322.952 460.026 316.438L457.751 316.425L454.635 316.417C453.88 316.415 453.17 316.057 452.719 315.45C451.156 313.342 450.225 310.45 449.719 307.232C449.717 307.23 449.717 307.23 449.715 307.228C449.045 306.86 448.33 306.509 447.555 306.177C438.363 302.312 440.647 298.479 438.534 296.684C438.534 296.684 419.664 291.684 416.445 292.059C413.6 292.389 390.379 304.708 381.508 308.129C380.403 308.555 380.131 309.996 380.997 310.805L384.167 313.929C384.544 314.284 385.069 314.436 385.577 314.338Z" fill="#333333"/>
<path d="M427.161 254.256L425.485 256.618C425.308 256.87 425.366 257.219 425.617 257.396L426.981 258.365L429.471 256.255C429.471 256.255 444.396 268.025 450.078 272.042C451.131 270.909 452.38 270.023 453.873 269.452C454.767 268.935 455.057 268.769 456.38 267.781C456.47 267.721 456.571 267.667 456.667 267.596C456.667 267.596 435.862 260.203 427.947 254.139C427.696 253.945 427.343 253.997 427.161 254.256Z" fill="#FBB03B"/>
<path d="M425.067 261.507C425.067 261.507 422.788 259.067 422.314 258.73C421.839 258.393 419.875 258.941 418.962 258.293C418.962 258.293 418.846 257.901 418.625 257.724C418.402 257.548 417.953 257.393 418.047 256.783C418.141 256.172 417.472 256.649 417.347 255.435C417.347 255.435 416.955 255.485 416.486 255.153C416.017 254.821 416.193 254.315 416.569 254.095C416.943 253.875 418.807 253.404 419.305 253.463C419.305 253.463 417.305 254.103 417.35 252.076C417.35 252.076 417.459 251.869 418.044 252.247C418.627 252.625 419.913 253.069 420.238 253.025C420.562 252.981 425.526 256.923 427.512 257.916L425.067 261.507Z" fill="#F7C19B"/>
<path d="M423.741 260.628C427.246 263.55 442.919 276.566 446.475 278.279C446.652 278.359 446.797 278.414 446.903 278.442C448.61 278.86 449.98 279.383 450.772 279.712C451.223 279.907 451.477 280.383 451.378 280.873C450.673 284.21 448.171 297.306 449.711 307.224C449.721 307.277 449.732 307.347 449.74 307.399C450.3 310.844 451.355 313.902 453.162 316.008C453.387 316.27 453.724 316.409 454.069 316.41L457.745 316.419L460.02 316.432L467.43 316.458C467.909 316.459 468.252 316.003 468.109 315.548C467.02 312.078 463.412 299.543 465.609 292.194C467.826 284.754 465.342 274.26 464.79 271.708C464.716 271.329 464.436 271.023 464.064 270.914C459.585 269.647 457.343 273.092 457.13 273.328L457.123 273.338L457.114 273.332C454.917 273.669 452.889 273.768 451.95 273.273C451.609 273.094 450.955 272.661 450.076 272.037C444.394 268.021 429.468 256.25 429.468 256.25L428.295 256.941L423.844 259.578C423.454 259.804 423.401 260.34 423.741 260.628Z" fill="#FBB03B"/>
<path d="M50.5623 403.955L49.7141 409.464L44.7422 409.436L45.465 403.865L50.5623 403.955Z" fill="#F7C19B"/>
<path d="M43.0825 413.999L55.19 416.298C55.8038 416.415 56.3947 416.012 56.5119 415.399L56.6096 414.882C56.6389 414.724 56.5412 414.353 56.437 414.229L51.0207 408.103C50.8334 407.881 50.5306 407.906 50.2701 408.033C48.6698 408.813 46.708 408.467 44.743 407.99C44.507 407.933 44.2579 408.018 44.1114 408.213C42.8659 409.872 42.7031 411.595 42.4768 413.145C42.4182 413.547 42.6836 413.925 43.0825 413.999Z" fill="#37424C"/>
<path d="M18.2893 404.342L15.5444 409.104L10.9844 407.304L13.6364 402.442L18.2893 404.342Z" fill="#F7C19B"/>
<path d="M84.2891 338.507C84.6782 338.158 85.02 337.628 85.1584 337.374C85.3131 337.09 85.2382 336.695 85.3098 336.346C85.3815 335.998 85.4954 335.086 85.5833 334.709C85.6712 334.329 85.8731 334.337 85.9008 333.641C85.9268 332.944 86.259 332.771 86.1466 332.413C86.0343 332.055 86.2264 331.516 86.7115 332.083C87.1967 332.649 87.0469 333.787 86.9492 334.202C86.8499 334.617 86.9671 334.785 87.3855 334.907C87.8039 335.029 88.224 334.619 88.5024 334.391C88.7807 334.163 89.0868 334.023 89.3131 333.693C89.5394 333.362 89.865 333.167 90.1613 332.844C90.4576 332.522 90.7327 332.34 91.0714 332.048C91.41 331.757 91.9716 331.399 92.2859 331.739C92.6001 332.079 92.1605 332.293 91.8609 332.592C91.5614 332.892 91.3318 333.144 90.9672 333.606C90.6025 334.069 90.0229 334.417 90.0327 334.593C90.0441 334.769 90.132 334.725 90.2232 334.702C90.3143 334.679 91.029 333.987 91.2846 333.746C91.5418 333.507 92.0026 333.235 92.5545 332.841C93.1064 332.449 93.4987 332.126 93.8422 332.52C94.1857 332.914 93.4189 333.357 93.2073 333.515C92.9957 333.673 92.6017 333.95 92.2679 334.331C91.9342 334.713 91.6151 334.886 91.3579 335.096C91.1007 335.304 90.8402 335.516 90.8727 335.552C90.9037 335.588 90.9737 335.558 91.1251 335.405C91.2765 335.251 91.7307 335.062 92.097 334.783C92.4633 334.505 92.8231 334.323 93.1601 334.054C93.4971 333.785 93.909 333.559 94.1027 333.829C94.2964 334.1 94.3111 334.103 93.7771 334.603C93.2431 335.101 93.401 334.857 92.714 335.453C92.027 336.048 91.9619 336.078 91.5663 336.297C91.1707 336.517 91.0144 336.643 91.0648 336.7C91.1153 336.757 91.3432 336.631 91.5321 336.488C91.7193 336.345 92.0416 336.345 92.8101 335.907C93.5769 335.469 93.7429 335.604 93.8439 335.718C93.9432 335.832 93.9676 336.013 93.9057 336.066C93.8422 336.122 93.5508 336.351 93.3359 336.524C93.121 336.696 92.7905 336.853 92.5512 336.971C92.3119 337.092 92.1703 337.204 91.9944 337.274C91.817 337.344 91.3009 337.53 91.0909 337.816C90.8792 338.101 89.8178 338.669 89.5459 338.85C89.274 339.029 89.3505 338.984 89.3505 338.984C89.3505 338.984 88.2386 339.549 88.0042 339.632C87.7698 339.715 87.6818 339.845 87.5825 339.943C87.4832 340.04 87.1316 340.257 86.9216 340.325C86.7099 340.394 85.9203 341.164 85.9203 341.164L84.2891 338.507Z" fill="#F7C19B"/>
<path d="M57.293 335.665L57.9018 333.484L59.6422 330.389L60.2104 324.237L68.8388 322.122L71.2597 326.366L70.2715 331.369L70.6508 332.826C70.7045 333.033 70.5792 333.243 70.3724 333.293L69.07 333.613C69.07 333.613 69.2751 336.865 64.65 336.079L61.3516 339.556L60.1208 337.64C60.1208 337.64 58.2714 337.699 58.2063 337.432C58.1412 337.167 57.293 335.665 57.293 335.665Z" fill="#F7C19B"/>
<path d="M59.158 331.694C59.158 331.694 54.1307 323.101 59.9948 321.282C59.9948 321.282 64.9911 315.231 70.6778 321.671C70.6778 321.671 71.9151 321.707 72.8968 320.874C72.8968 320.874 72.9928 321.613 72.3188 322.837C72.3188 322.837 72.4751 323.477 73.784 322.945C73.784 322.945 74.6778 323.658 72.4979 324.784C72.4979 324.784 72.1658 327.576 67.8011 326.359C67.8011 326.359 64.3709 326.013 64.156 327.21L63.8092 328.735C63.8092 328.735 63.3452 325.631 61.1425 327.187C61.1425 327.187 60.309 327.832 61.2369 330.5C61.4225 331.033 61.3265 331.65 60.9113 332.029C60.532 332.374 59.9524 332.516 59.158 331.694Z" fill="#37424C"/>
<path d="M48.863 365.308C47.8846 366.968 48.2997 369.099 49.83 370.271L57.7552 376.344C59.266 377.501 59.8423 379.51 59.1813 381.296C55.8325 390.351 53.0893 398.7 51.7006 405.474L44.5016 405.857C45.0535 398.154 46.7612 390.316 49.7421 382.327L39.0428 377.213C39.0428 377.213 34.1376 386.693 26.8083 394.998L19.116 405.161L12.2734 403.006L22.7709 386.526C23.9316 384.704 24.9052 382.768 25.6785 380.751L34.7319 358L40.3599 358.747L48.863 365.308Z" fill="#E1E3E8"/>
<path d="M49.7232 366.07C50.5145 363.993 50.521 364.484 52.0464 362.869C55.2764 359.449 59.3367 351.67 59.2048 347.234L70.2753 349.196C71.1642 349.354 72.0807 349.205 72.8736 348.774L87.3482 340.922L84.6441 336.281L72.0758 341.686C71.2309 342.049 70.2883 342.109 69.4043 341.857L61.3505 339.556L57.9056 333.48L51.685 335.559C49.7118 336.219 47.9796 337.45 46.7082 339.097L42.9849 343.921C42.0716 345.104 41.3243 346.405 40.761 347.789C40.761 347.789 37.829 352.667 36.5136 354.78C36.1814 355.312 35.8135 355.817 35.4081 356.295L33.0898 359.034C37.2641 362.899 49.7232 366.07 49.7232 366.07Z" fill="#F2384E"/>
<path d="M9.16298 412.443L20.9775 415.282C21.5766 415.426 22.1773 415.058 22.3222 414.46L22.4443 413.954C22.4817 413.799 22.402 413.43 22.3059 413.303L17.2623 407.012C17.0881 406.786 16.7902 406.795 16.5265 406.908C14.9131 407.6 12.9969 407.167 11.0857 406.603C10.8545 406.535 10.6054 406.608 10.4524 406.794C9.1467 408.368 8.90412 410.056 8.60782 411.572C8.53131 411.964 8.77388 412.349 9.16298 412.443Z" fill="#37424C"/>
<path d="M225 224.724L216.182 232.408C212.462 235.651 209.626 239.785 207.94 244.423L185.019 307.5L179.471 309.801C164.67 315.933 148.262 317.022 132.782 312.895L102.039 304.702C112.849 294.51 121.647 282.364 128.125 268.955C133.364 258.101 140.825 244.706 150.373 232.669C152.805 229.608 155.503 226.767 158.342 224.069L162.709 219.924C167.119 215.736 171.882 211.911 176.923 208.507L186.307 202.186C192.586 197.951 197.747 192.248 201.361 185.583L206.048 176.919C206.048 176.919 215.653 153.375 230.95 153.949C231.601 153.972 232.265 153.972 232.917 153.949L226.709 173.293C224.334 180.696 224.638 188.698 227.569 195.898L230.278 202.555C233.436 210.313 231.315 219.221 225 224.724Z" fill="#E2E2E2"/>
<path d="M346.652 287.305C328.194 289.724 312.113 290.111 312.113 290.111L306.032 294.841C304.026 296.4 301.955 297.844 299.824 299.171L282.499 266.186L256.905 247.936L256.459 210.99L235.316 166.7L232.918 153.949C248.216 153.375 257.82 176.919 257.82 176.919L262.518 185.583C266.121 192.248 271.284 197.951 277.573 202.186L286.945 208.507C291.997 211.911 296.749 215.736 301.159 219.924L305.537 224.069C308.367 226.767 311.063 229.608 313.495 232.669C323.045 244.706 330.504 258.101 335.745 268.955C338.849 275.389 342.498 281.535 346.652 287.305Z" fill="#F9F9F9"/>
</svg>
