<svg width="572" height="494" viewBox="0 0 572 494" fill="none" xmlns="http://www.w3.org/2000/svg">
<path fill-rule="evenodd" clip-rule="evenodd" d="M499.451 493.893C539.416 493.893 572.008 486.569 572.008 477.573C572.008 468.577 539.416 461.252 499.451 461.252C459.485 461.252 426.893 468.577 426.893 477.573C426.893 486.569 459.485 493.893 499.451 493.893Z" fill="#D1C6E2"/>
<path fill-rule="evenodd" clip-rule="evenodd" d="M23.1528 278.53C7.86455 296.866 0.539928 322.379 5.40662 348.433C12.5838 386.777 43.8977 413.47 78.9969 414.06H79.0952C82.6346 414.109 86.174 413.913 89.7626 413.421C158.929 407.866 210.987 377.24 343.715 418.533C369.327 427.284 397.544 429.447 426.105 423.498C512.673 405.359 569.402 319.282 552.885 231.24C541.185 168.661 495.664 121.96 439.23 106.623C397.495 94.5298 328.722 100.724 263.882 79.1432C207.645 60.4138 166.843 4.76634 107.656 16.5644C106.083 16.8102 104.51 17.1051 102.937 17.4001C53.0904 27.8217 20.105 75.9478 29.2977 124.811C29.8876 127.958 30.6249 130.956 31.5098 133.955C48.322 189.799 45.5691 237.974 23.1528 278.53Z" fill="#EDE4F1"/>
<path fill-rule="evenodd" clip-rule="evenodd" d="M282.267 53.4326H446.998C489.667 53.4326 524.57 88.3352 524.57 131.005V205.48C524.57 248.1 489.667 283.052 446.998 283.052H282.267C239.598 283.052 204.695 248.149 204.695 205.48V130.956C204.695 88.3351 239.598 53.4326 282.267 53.4326Z" fill="#9588C0"/>
<path d="M330.396 59.1841H273.273V277.202H330.396V59.1841Z" fill="white"/>
<path d="M393.169 59.1841H336.047V277.202H393.169V59.1841Z" fill="white"/>
<path d="M455.946 59.1841H398.824V277.202H455.946V59.1841Z" fill="white"/>
<path fill-rule="evenodd" clip-rule="evenodd" d="M267.617 277.203V59.1849H218.95C214.28 59.1849 210.495 62.9701 210.495 67.6402V268.698C210.495 273.368 214.28 277.154 218.95 277.154H267.617V277.203ZM461.597 59.1849V277.203H510.264C514.934 277.203 518.719 273.418 518.719 268.748V67.6894C518.719 63.0193 514.934 59.2341 510.264 59.2341H461.597V59.1849ZM56.7273 60.5122C57.4647 59.3816 57.1206 57.8577 55.9899 57.1694C54.8593 56.4321 53.3845 56.7762 52.6472 57.9068C37.703 81.0113 32.8363 104.804 38.1946 129.285C38.4895 130.563 39.7676 131.399 41.0949 131.153C42.4222 130.858 43.2087 129.58 42.9629 128.253C37.8996 105.05 42.4714 82.4861 56.7273 60.5122ZM57.858 77.4227C55.4492 83.8625 53.4829 90.0565 52.2047 96.103C50.9266 102.051 50.2875 107.901 50.4842 113.603C50.5333 114.931 49.501 116.061 48.1246 116.11C46.7973 116.16 45.6667 115.127 45.6175 113.751C45.4209 107.606 46.0599 101.412 47.4364 95.0706C48.7636 88.7783 50.7791 82.3386 53.3354 75.7022C53.827 74.4732 55.2034 73.8342 56.4815 74.2766C57.7105 74.7682 58.3495 76.1446 57.858 77.4227Z" fill="white"/>
<path fill-rule="evenodd" clip-rule="evenodd" d="M37.9995 155.781L30.8224 159.959C28.4136 161.385 27.5779 164.531 28.9544 166.94L30.5274 169.693C32.3955 172.888 31.6089 174.363 31.019 174.854C29.3968 176.28 27.922 177.853 26.4473 179.377C26.0048 179.819 24.6284 181.392 20.9907 179.279L18.4836 177.804C16.0748 176.378 12.9287 177.214 11.5031 179.672L7.32462 186.849C5.89902 189.258 6.73472 192.404 9.14348 193.83L11.6014 195.255C15.0425 197.221 14.9442 198.254 14.5018 199.729C13.9119 201.744 13.2728 203.71 12.8304 205.775C12.4371 207.594 12.6337 208.921 7.96368 208.921H5.11249C2.31045 208.921 0 211.232 0 214.034V222.341C0 225.143 2.2613 227.454 5.11249 227.454H7.96368C12.6337 227.454 12.4371 228.781 12.8304 230.6C13.2728 232.665 13.9119 234.631 14.5018 236.647C14.9442 238.072 15.0425 239.104 11.6014 241.12L9.14348 242.546C6.73472 243.971 5.89902 247.068 7.32462 249.526L11.5031 256.703C12.9287 259.112 16.0257 259.948 18.4836 258.522L20.9907 257.047C24.6284 254.934 26.054 256.457 26.4473 256.949C27.922 258.473 29.3968 260.046 31.019 261.472C31.6089 262.012 32.3955 263.438 30.5274 266.682L28.9544 269.386C27.5288 271.795 28.3645 274.941 30.8224 276.367L37.9995 280.545C40.4083 281.971 43.5544 281.135 44.98 278.726L46.5531 276.023C48.4703 272.729 50.3383 272.876 51.1248 273.122C53.4353 273.86 55.5491 274.302 57.9087 274.941C58.7936 275.187 60.2683 275.777 60.2683 279.709V282.61C60.2683 285.412 62.5296 287.722 65.3808 287.722H73.6886C76.4906 287.722 78.8011 285.461 78.8011 282.61V279.709C78.8011 275.826 80.2758 275.187 81.1607 274.941C83.5203 274.351 85.6341 273.86 87.9445 273.122C88.7311 272.876 90.5991 272.729 92.5163 276.023L94.0894 278.726C95.515 281.135 98.6119 281.971 101.07 280.545L108.247 276.367C110.656 274.941 111.491 271.795 110.066 269.386L108.493 266.682C106.625 263.487 107.46 262.012 108.001 261.472C109.623 260.046 111.098 258.473 112.573 256.949C113.015 256.507 114.392 254.934 118.03 257.047L120.537 258.522C122.945 259.948 126.092 259.112 127.517 256.703L131.696 249.526C133.121 247.068 132.286 243.971 129.828 242.546L127.37 241.12C123.929 239.154 124.027 238.121 124.469 236.647C125.059 234.631 125.698 232.665 126.141 230.6C126.534 228.781 126.337 227.454 131.007 227.454H133.859C136.661 227.454 138.971 225.193 138.971 222.341V214.034C138.971 211.232 136.71 208.921 133.859 208.921H131.007C126.337 208.921 126.534 207.594 126.141 205.775C125.698 203.71 125.059 201.744 124.469 199.729C124.027 198.303 123.929 197.271 127.37 195.255L129.828 193.83C132.236 192.404 133.072 189.307 131.696 186.849L127.517 179.672C126.092 177.263 122.995 176.427 120.537 177.804L118.03 179.279C114.392 181.392 112.966 179.868 112.573 179.377C111.098 177.804 109.623 176.28 108.001 174.854C107.411 174.314 106.625 172.888 108.493 169.693L110.066 166.94C111.491 164.531 110.656 161.385 108.247 159.959L101.07 155.781C98.6611 154.355 95.515 155.191 94.0894 157.6L92.5163 160.303C90.5991 163.597 88.7311 163.45 87.9445 163.204C85.6341 162.466 83.5203 162.024 81.1607 161.385C80.2758 161.139 78.8011 160.549 78.8011 156.666V153.765C78.8011 150.963 76.4906 148.653 73.6886 148.653H65.3808C62.5788 148.653 60.2683 150.963 60.2683 153.765V156.666C60.2683 160.549 58.7936 161.188 57.9087 161.385C55.5491 161.975 53.4353 162.466 51.1248 163.204C50.3383 163.45 48.4703 163.597 46.5531 160.303L44.98 157.6C43.5544 155.191 40.4083 154.355 37.9995 155.781ZM69.461 185.571C87.453 185.571 102.102 200.171 102.102 218.212C102.102 236.204 87.5021 250.853 69.461 250.853C51.4689 250.853 36.8197 236.253 36.8197 218.212C36.8689 200.171 51.4689 185.571 69.461 185.571ZM69.461 177.411C91.9755 177.411 110.213 195.648 110.213 218.163C110.213 240.678 91.9755 258.915 69.461 258.915C46.9464 258.915 28.7086 240.678 28.7086 218.163C28.7086 195.648 46.9464 177.411 69.461 177.411ZM160.158 163.744L157.7 165.17C156.865 165.662 156.57 166.694 157.061 167.53L157.602 168.464C158.241 169.545 157.946 170.086 157.75 170.233C157.209 170.725 156.668 171.266 156.177 171.757C156.029 171.905 155.537 172.446 154.309 171.708L153.473 171.217C152.637 170.725 151.556 171.02 151.113 171.856L149.688 174.314C149.196 175.149 149.491 176.231 150.327 176.673L151.162 177.165C152.342 177.853 152.293 178.197 152.146 178.689C151.949 179.377 151.703 180.065 151.556 180.753C151.408 181.392 151.457 181.835 149.884 181.835H148.901C147.967 181.835 147.181 182.621 147.181 183.555V186.407C147.181 187.341 147.967 188.127 148.901 188.127H149.884C151.457 188.127 151.408 188.57 151.556 189.209C151.703 189.897 151.9 190.585 152.146 191.273C152.293 191.765 152.342 192.109 151.162 192.797L150.327 193.289C149.491 193.78 149.196 194.813 149.688 195.648L151.113 198.106C151.605 198.942 152.686 199.188 153.473 198.745L154.309 198.254C155.537 197.516 156.029 198.057 156.177 198.205C156.668 198.745 157.209 199.286 157.75 199.778C157.946 199.925 158.241 200.466 157.602 201.547L157.061 202.481C156.57 203.317 156.865 204.399 157.7 204.841L160.158 206.267C160.994 206.758 162.076 206.463 162.518 205.628L163.059 204.694C163.698 203.563 164.337 203.612 164.632 203.71C165.418 203.956 166.156 204.104 166.942 204.349C167.237 204.448 167.729 204.644 167.729 205.972V206.955C167.729 207.889 168.515 208.675 169.449 208.675H172.301C173.284 208.675 174.07 207.889 174.07 206.955V205.972C174.07 204.644 174.562 204.448 174.857 204.349C175.643 204.153 176.381 203.956 177.167 203.71C177.413 203.612 178.052 203.563 178.74 204.694L179.281 205.628C179.773 206.463 180.854 206.758 181.641 206.267L184.099 204.841C184.934 204.349 185.18 203.268 184.738 202.481L184.197 201.547C183.558 200.466 183.853 199.925 184.049 199.778C184.59 199.286 185.082 198.745 185.622 198.205C185.77 198.057 186.262 197.516 187.49 198.254L188.326 198.745C189.162 199.237 190.243 198.942 190.686 198.106L192.111 195.648C192.603 194.813 192.308 193.731 191.472 193.289L190.637 192.797C189.457 192.109 189.506 191.765 189.653 191.273C189.85 190.585 190.096 189.897 190.243 189.209C190.391 188.57 190.342 188.127 191.915 188.127H192.898C193.881 188.127 194.668 187.341 194.668 186.407V183.555C194.668 182.621 193.881 181.835 192.898 181.835H191.915C190.342 181.835 190.391 181.392 190.243 180.753C190.096 180.065 189.899 179.377 189.653 178.689C189.506 178.197 189.457 177.853 190.637 177.165L191.472 176.673C192.308 176.182 192.603 175.1 192.111 174.314L190.686 171.856C190.194 171.02 189.113 170.725 188.326 171.217L187.49 171.708C186.262 172.446 185.77 171.905 185.622 171.757C185.131 171.217 184.59 170.676 184.049 170.233C183.853 170.037 183.558 169.545 184.197 168.464L184.738 167.53C185.229 166.694 184.934 165.613 184.099 165.17L181.641 163.744C180.805 163.253 179.723 163.548 179.281 164.384L178.74 165.318C178.101 166.448 177.462 166.399 177.167 166.301C176.381 166.055 175.643 165.907 174.857 165.662C174.562 165.563 174.07 165.367 174.07 164.039V163.056C174.07 162.073 173.284 161.336 172.301 161.336H169.449C168.515 161.336 167.729 162.122 167.729 163.056V164.039C167.729 165.367 167.237 165.563 166.942 165.662C166.156 165.858 165.418 166.055 164.632 166.301C164.386 166.399 163.747 166.448 163.059 165.318L162.518 164.384C162.026 163.548 160.945 163.253 160.158 163.744ZM170.875 173.92C177.02 173.92 182.034 178.885 182.034 185.079C182.034 191.224 177.069 196.189 170.875 196.189C164.73 196.189 159.716 191.224 159.716 185.079C159.765 178.885 164.73 173.92 170.875 173.92ZM170.875 171.118C178.544 171.118 184.787 177.361 184.787 185.03C184.787 192.699 178.544 198.942 170.875 198.942C163.206 198.942 156.963 192.699 156.963 185.03C156.963 177.361 163.206 171.118 170.875 171.118Z" fill="#D1C6E2"/>
<path fill-rule="evenodd" clip-rule="evenodd" d="M439.476 116.798C440.459 112.227 440.312 109.031 439.525 106.573C437.362 99.7896 431.119 99.298 430.578 93.2515C431.119 87.205 437.362 86.6643 439.525 79.9296C440.263 77.5208 440.459 74.2763 439.476 69.7046H415.339C414.356 74.2763 414.503 77.4716 415.29 79.9296C417.453 86.7134 423.647 87.205 424.237 93.2515C423.696 99.298 417.453 99.7896 415.29 106.573C414.503 108.982 414.356 112.227 415.339 116.798H439.476Z" fill="#9588C0"/>
<path fill-rule="evenodd" clip-rule="evenodd" d="M436.528 116.798C437.265 112.227 437.167 109.031 436.577 106.573C434.955 99.7896 429.793 99.298 429.4 93.2515C429.842 87.205 435.004 86.6643 436.577 79.9296C437.167 77.5208 437.265 74.2763 436.528 69.7046H418.29C417.553 74.2763 417.7 77.4716 418.241 79.9296C419.863 86.7134 425.025 87.205 425.467 93.2515C425.025 99.298 419.863 99.7896 418.241 106.573C417.651 108.982 417.553 112.227 418.29 116.798H436.528Z" fill="#D7CCE5"/>
<path fill-rule="evenodd" clip-rule="evenodd" d="M413.67 69.7043H441.149C442.083 69.7043 442.87 68.9177 442.87 67.9837C442.87 67.0497 442.133 66.2632 441.149 66.2632H413.67C412.736 66.2632 411.949 67.0497 411.949 67.9837C411.949 68.9177 412.687 69.7043 413.67 69.7043ZM413.67 120.239H441.149C442.083 120.239 442.87 119.453 442.87 118.519C442.87 117.585 442.133 116.798 441.149 116.798H413.67C412.736 116.798 411.949 117.585 411.949 118.519C411.949 119.453 412.687 120.239 413.67 120.239Z" fill="#5A53A2"/>
<path fill-rule="evenodd" clip-rule="evenodd" d="M424.433 87.7458C425.859 89.6138 426.596 90.6461 427.088 92.1209V103.87C427.088 104.066 427.235 104.214 427.432 104.214C427.628 104.214 427.776 104.066 427.776 103.87V92.3667C428.464 90.4003 428.857 89.7613 430.381 87.7458C431.315 86.5168 432.397 85.4845 433.331 84.2555C434.412 82.8299 435.101 81.4043 435.543 79.6346L435.592 79.438H419.271L419.321 79.6346C419.714 81.4043 420.451 82.8299 421.533 84.2555C422.418 85.4353 423.499 86.5168 424.433 87.7458Z" fill="#B6A9D2"/>
<path fill-rule="evenodd" clip-rule="evenodd" d="M418.584 116.799H436.232L427.383 105.64L418.584 116.799Z" fill="#B6A9D2"/>
<path fill-rule="evenodd" clip-rule="evenodd" d="M255.427 71.4253L257.394 74.2273C252.035 77.865 246.038 80.4705 239.353 81.9944C232.47 83.5674 224.851 83.9607 216.494 83.2725L216.248 86.1728C224.9 86.9102 232.814 86.4678 239.992 84.7964C247.07 83.1742 253.412 80.4705 259.065 76.5869L260.638 78.8482L261.867 72.4576L255.427 71.4253Z" fill="#B6A9D2"/>
<path fill-rule="evenodd" clip-rule="evenodd" d="M224.263 110.063V88.5319C222.001 88.5319 219.74 88.4336 217.43 88.2861V110.063H224.263ZM228.245 88.3845V110.014H235.078V87.6962C232.816 88.0403 230.506 88.2861 228.245 88.3845ZM239.059 87.0572V110.063H245.892V85.2875C244.123 85.8774 242.304 86.3689 240.436 86.7622C239.944 86.8605 239.502 86.9589 239.059 87.0572ZM249.874 83.7635V110.014H256.707V80.4208C254.495 81.6989 252.234 82.8295 249.874 83.7635ZM319.04 72.2605C312.65 66.4598 302.769 66.9513 296.968 73.342C291.757 79.0935 291.61 87.6962 296.378 93.5952L296.28 93.6936C295.936 94.0377 295.985 94.6276 296.329 94.9717L298.689 97.0855C299.033 97.4296 299.623 97.3804 299.967 97.0363L300.065 96.938C306.407 101.067 314.96 100.084 320.171 94.3326C325.922 87.8929 325.431 78.012 319.04 72.2605ZM316.632 74.915C321.547 79.3884 321.941 86.9588 317.467 91.8747C312.994 96.7905 305.423 97.1838 300.508 92.7104C295.592 88.237 295.198 80.6666 299.672 75.7507C304.096 70.8349 311.667 70.4416 316.632 74.915Z" fill="#5A53A2"/>
<path fill-rule="evenodd" clip-rule="evenodd" d="M296.328 94.9229L293.477 98.069L295.836 100.183L298.687 97.0367L296.328 94.9229Z" fill="#9588C0"/>
<path fill-rule="evenodd" clip-rule="evenodd" d="M295.833 100.182L293.474 98.0683C293.13 97.7242 292.54 97.7734 292.196 98.1175L279.709 111.882C279.365 112.275 279.414 112.816 279.759 113.16L282.118 115.274C282.462 115.618 283.052 115.569 283.347 115.225L295.833 101.411C296.227 101.067 296.178 100.526 295.833 100.182Z" fill="#5A53A2"/>
<path fill-rule="evenodd" clip-rule="evenodd" d="M486.572 365.737C486.719 364.999 486.277 364.213 485.49 364.065C484.753 363.918 484.016 364.36 483.819 365.098C481.508 375.077 481.361 385.351 483.917 395.969C486.424 406.587 491.635 417.55 499.992 428.955C500.434 429.594 501.319 429.692 501.958 429.25C502.597 428.807 502.696 427.922 502.253 427.283C494.093 416.173 489.079 405.506 486.621 395.281C484.212 385.154 484.36 375.323 486.572 365.737Z" fill="#1B2452"/>
<path fill-rule="evenodd" clip-rule="evenodd" d="M484.9 367.359C497.484 338.7 496.747 311.614 482.688 286.051C514.788 312.646 515.525 339.732 484.9 367.359Z" fill="#C2B5D9"/>
<path fill-rule="evenodd" clip-rule="evenodd" d="M482.689 286.051C496.797 311.565 497.486 338.7 484.901 367.359C455.898 345.091 492.127 320.954 482.689 286.051Z" fill="#9588C0"/>
<path fill-rule="evenodd" clip-rule="evenodd" d="M501.859 402.901C501.958 402.163 501.368 401.475 500.63 401.377C499.893 401.327 499.205 401.868 499.106 402.655C498.812 406.047 498.713 410.913 499.008 416.468C499.254 421.286 499.746 426.595 500.532 431.855C500.63 432.592 501.368 433.133 502.154 432.986C502.892 432.887 503.432 432.15 503.285 431.412C502.498 426.251 502.007 421.04 501.761 416.321C501.466 410.913 501.564 406.145 501.859 402.901Z" fill="#1B2452"/>
<path fill-rule="evenodd" clip-rule="evenodd" d="M500.188 405.555C486.866 381.32 496.452 358.412 528.995 336.832C511.79 361.755 502.155 384.663 500.188 405.555Z" fill="#9588C0"/>
<path fill-rule="evenodd" clip-rule="evenodd" d="M500.188 405.555C502.203 384.712 511.789 361.804 528.994 336.832C518.769 370.8 540.94 383.385 500.188 405.555Z" fill="#5A53A2"/>
<path fill-rule="evenodd" clip-rule="evenodd" d="M500.877 430.577C500.877 431.364 501.467 432.003 502.204 432.003C502.942 432.003 503.63 431.413 503.63 430.675C503.728 427.087 504.564 423.498 505.645 420.303C507.317 415.191 509.676 410.963 510.807 409.144C511.2 408.505 511.004 407.62 510.365 407.227C509.726 406.834 508.841 407.03 508.447 407.669C507.268 409.586 504.81 414.011 502.991 419.418C501.86 422.81 501.024 426.694 500.877 430.577Z" fill="#1B2452"/>
<path fill-rule="evenodd" clip-rule="evenodd" d="M539.17 411.799C530.764 431.167 512.772 407.62 506.283 411.504C508.2 407.129 510.904 403.982 513.952 402.409C522.85 397.788 530.223 413.962 539.17 411.799Z" fill="#9588C0"/>
<path fill-rule="evenodd" clip-rule="evenodd" d="M459.238 424.924V450.191C459.238 466.119 472.265 479.146 488.193 479.146H511.101C527.028 479.146 540.055 466.119 540.055 450.191V424.924H459.238Z" fill="#3F4979"/>
<path fill-rule="evenodd" clip-rule="evenodd" d="M467.449 470.297C506.973 483.029 525.948 465.529 522.163 424.924H540.056V450.191C540.056 466.119 527.029 479.146 511.102 479.146H488.194C480.083 479.146 472.709 475.754 467.449 470.297Z" fill="#1B2452"/>
<path fill-rule="evenodd" clip-rule="evenodd" d="M131.254 12.926C159.716 13.5651 194.914 31.1147 194.914 73.4893C194.914 115.864 161.634 134.003 131.254 134.053C116.85 134.102 101.759 128.35 90.5996 118.371C78.2608 107.31 70.5921 91.0389 70.6904 73.4893C70.7395 54.1209 80.3254 36.178 94.9255 25.019C105.495 16.957 119.259 12.6803 131.254 12.926Z" fill="#2B2870"/>
<path fill-rule="evenodd" clip-rule="evenodd" d="M131.254 131.152C163.011 131.152 188.868 105.246 188.868 73.5386C188.868 41.8313 162.962 15.9248 131.254 15.9248C99.498 15.9248 73.6406 41.8313 73.6406 73.5386C73.6406 105.246 99.498 131.152 131.254 131.152Z" fill="#8071B3"/>
<path fill-rule="evenodd" clip-rule="evenodd" d="M131.253 111.735C152.293 111.735 169.498 94.5784 169.498 73.4894C169.498 52.4004 152.293 35.2441 131.253 35.2441C110.213 35.2441 93.0078 52.4004 93.0078 73.4894C93.0078 94.5784 110.164 111.735 131.253 111.735Z" fill="#D7CCE5"/>
<path fill-rule="evenodd" clip-rule="evenodd" d="M130.812 93.399C141.529 93.399 150.23 84.6488 150.23 73.9323C150.23 63.2157 141.48 54.5146 130.812 54.5146C120.096 54.5146 111.346 63.2649 111.346 73.9323C111.346 84.6488 120.096 93.399 130.812 93.399Z" fill="#8071B3"/>
<path fill-rule="evenodd" clip-rule="evenodd" d="M130.811 73.9811C139.757 71.1299 153.079 62.1831 155.193 60.7575C178.789 44.7318 195.601 33.2779 219.198 17.2522C220.328 16.5148 220.525 14.8434 219.689 13.6145C218.853 12.3855 217.231 11.9431 216.101 12.6805C192.504 28.7061 175.692 40.1601 152.096 56.1857C149.982 57.6113 136.71 66.7057 130.811 73.9811Z" fill="#EDE4F1"/>
<path fill-rule="evenodd" clip-rule="evenodd" d="M154.112 59.1848L218.116 15.6796C219.247 14.9422 219.886 13.959 219.64 13.5166C220.476 14.7947 220.279 16.4169 219.149 17.1543L216.642 18.8257L211.775 22.1685L206.859 25.5113L201.943 28.8541L197.077 32.1968L155.144 60.7088C153.031 62.1344 139.709 71.1304 130.762 73.9324C138.725 69.6556 152.047 60.6596 154.112 59.1848Z" fill="#B6A9D2"/>
<path fill-rule="evenodd" clip-rule="evenodd" d="M197.077 32.2455L209.269 37.0139C210.35 37.4563 212.169 37.1122 213.349 36.3256L229.03 25.6583C230.014 24.97 230.063 24.1343 229.178 23.7902L216.692 18.9235L197.077 32.2455ZM193.98 27.6738L194.03 14.5976C194.03 13.467 194.964 11.8447 196.143 11.0582L211.825 0.390785C212.808 -0.297434 213.595 -0.0516389 213.595 0.931531L213.546 14.3518L193.98 27.6738ZM355.958 76.1932C359.153 76.1932 362.103 77.078 364.61 78.6511C367.117 77.078 370.066 76.1932 373.262 76.1932C382.307 76.1932 389.68 83.567 389.68 92.6121C389.68 101.706 382.307 109.031 373.262 109.031C370.066 109.031 367.117 108.146 364.61 106.573C362.103 108.146 359.153 109.031 355.958 109.031C346.913 109.031 339.539 101.706 339.539 92.6121C339.539 83.5178 346.913 76.1932 355.958 76.1932ZM366.379 79.8801C370.066 82.8787 372.377 87.4505 372.377 92.563C372.377 97.6755 370.017 102.247 366.379 105.246C368.444 106.377 370.754 106.966 373.262 106.966C381.225 106.966 387.714 100.527 387.714 92.5138C387.714 84.5501 381.274 78.1104 373.262 78.1104C370.754 78.1595 368.444 78.7986 366.379 79.8801ZM362.84 105.295C359.202 102.296 356.843 97.7246 356.843 92.6121C356.843 87.4996 359.202 82.9279 362.84 79.9292C360.775 78.7986 358.465 78.2087 355.958 78.2087C347.994 78.2087 341.554 84.6484 341.554 92.6121C341.554 100.576 347.994 107.065 355.958 107.065C358.465 107.016 360.775 106.377 362.84 105.295ZM364.61 104.164C368.1 101.51 370.41 97.3313 370.41 92.6121C370.41 87.8929 368.149 83.7144 364.61 81.0599C361.119 83.7144 358.809 87.8929 358.809 92.6121C358.809 97.3313 361.119 101.51 364.61 104.164Z" fill="#8071B3"/>
<path fill-rule="evenodd" clip-rule="evenodd" d="M364.611 81.8955C361.366 84.5009 359.498 88.4336 359.498 92.5629C359.498 96.7414 361.366 100.625 364.611 103.279C367.806 100.674 369.723 96.7414 369.723 92.5629C369.723 88.4336 367.855 84.5009 364.611 81.8955Z" fill="#8071B3"/>
<path fill-rule="evenodd" clip-rule="evenodd" d="M363.578 82.8301H365.692C365.987 83.125 366.282 83.42 366.528 83.7641H362.742C362.988 83.4691 363.283 83.1742 363.578 82.8301ZM362.005 84.6981C361.808 84.9931 361.612 85.288 361.415 85.6321H367.855C367.658 85.288 367.462 84.9931 367.265 84.6981H362.005ZM360.924 86.5661C360.776 86.8611 360.629 87.156 360.53 87.5001H368.789C368.642 87.2052 368.494 86.8611 368.396 86.5661H360.924ZM360.137 88.4341C360.039 88.7291 359.94 89.0241 359.891 89.3682H369.33C369.231 89.0732 369.182 88.7783 369.084 88.4341H360.137ZM359.695 90.253C359.646 90.548 359.596 90.8429 359.547 91.187H369.625C369.576 90.8921 369.526 90.548 369.477 90.253H359.695ZM359.498 92.121C359.498 92.2685 359.498 92.416 359.498 92.5635C359.498 92.7109 359.498 92.8584 359.498 93.0059H369.723C369.723 92.8584 369.723 92.7109 369.723 92.5635C369.723 92.416 369.723 92.2685 369.723 92.121H359.498ZM359.596 93.9891C359.596 94.284 359.646 94.6281 359.744 94.9231H369.576C369.625 94.6281 369.674 94.3332 369.723 93.9891H359.596ZM359.891 95.8571C359.99 96.152 360.039 96.447 360.137 96.7911H369.035C369.133 96.4961 369.231 96.2012 369.281 95.8571H359.891ZM360.481 97.7251C360.629 98.0201 360.727 98.3642 360.874 98.6591H368.347C368.494 98.3642 368.642 98.0692 368.74 97.7251H360.481ZM361.415 99.544C361.612 99.8389 361.808 100.183 362.005 100.478H367.265C367.462 100.183 367.658 99.8881 367.855 99.544H361.415ZM362.693 101.412C362.939 101.707 363.234 102.051 363.529 102.346H365.643C365.938 102.051 366.233 101.756 366.479 101.412H362.693Z" fill="white"/>
<path fill-rule="evenodd" clip-rule="evenodd" d="M490.307 71.1792C490.995 71.1792 491.536 71.7199 491.536 72.4082V104.607H493.109C494.239 104.607 495.173 105.541 495.173 106.672H495.616C496.845 106.672 497.877 107.704 497.877 108.933C497.877 110.162 496.845 111.194 495.616 111.194H484.998C483.769 111.194 482.736 110.162 482.736 108.933C482.736 107.704 483.769 106.672 484.998 106.672H485.44C485.44 105.541 486.374 104.607 487.505 104.607H489.029V72.4082C489.127 71.7199 489.668 71.1792 490.307 71.1792Z" fill="#5A53A2"/>
<path d="M505.301 75.8979H475.363V78.3067H505.301V75.8979Z" fill="#5A53A2"/>
<path fill-rule="evenodd" clip-rule="evenodd" d="M496.401 88.4833L504.414 76.2428C504.66 75.8495 505.201 75.7021 505.643 75.997C505.742 76.0953 505.84 76.1445 505.889 76.2428L513.902 88.5324C514.148 88.9257 514.049 89.4665 513.656 89.7614C513.509 89.8597 513.361 89.9089 513.164 89.9089H497.09C496.598 89.9089 496.205 89.5156 496.205 89.024C496.205 88.8274 496.303 88.6308 496.401 88.4833ZM505.152 78.3566L498.761 88.1883H511.542L505.152 78.3566ZM466.513 88.4833L474.526 76.2428C474.772 75.8495 475.362 75.7021 475.755 75.997C475.853 76.0462 475.951 76.1445 476.001 76.2428L484.013 88.5324C484.308 88.9257 484.161 89.4665 483.768 89.7614C483.62 89.8597 483.473 89.9089 483.276 89.9089H467.201C466.71 89.9089 466.316 89.5156 466.316 89.024C466.316 88.8274 466.366 88.6308 466.513 88.4833ZM475.214 78.3566L468.823 88.1883H481.654L475.214 78.3566Z" fill="#5A53A2"/>
<path fill-rule="evenodd" clip-rule="evenodd" d="M483.228 89.9087H467.153C467.104 89.9087 467.055 89.9087 467.006 89.9087C467.104 93.3498 469.906 96.1518 473.347 96.1518H476.936C480.377 96.1518 483.228 93.3498 483.277 89.9087C483.327 89.9087 483.277 89.9087 483.228 89.9087ZM513.166 89.9087H497.091C497.042 89.9087 496.993 89.9087 496.943 89.9087C497.042 93.3498 499.844 96.1518 503.334 96.1518H506.923C510.364 96.1518 513.215 93.3498 513.264 89.9087C513.215 89.9087 513.215 89.9087 513.166 89.9087Z" fill="#B6A9D2"/>
<path fill-rule="evenodd" clip-rule="evenodd" d="M239.943 483.815C356.744 483.815 452.062 477.769 452.062 470.395C452.062 463.021 356.793 456.975 239.943 456.975C123.093 456.975 27.8242 462.972 27.8242 470.395C27.8242 477.769 123.143 483.815 239.943 483.815Z" fill="#D1C6E2"/>
<path fill-rule="evenodd" clip-rule="evenodd" d="M87.9943 431.166C65.9713 406.636 54.3207 367.506 53.1409 313.727C43.0142 315.791 35.493 315.546 30.5771 313.039C21.2862 360.427 34.4607 407.275 70.1006 453.484H258.525V431.166H87.9943Z" fill="#C6BCDD"/>
<path fill-rule="evenodd" clip-rule="evenodd" d="M390.318 431.166C412.341 406.636 423.991 367.506 425.171 313.727C435.298 315.791 442.819 315.546 447.735 313.039C457.026 360.427 443.851 407.275 408.211 453.484H219.836V431.166H390.318Z" fill="#C6BCDD"/>
<path fill-rule="evenodd" clip-rule="evenodd" d="M70.0508 453.583C72.6562 459.433 77.4245 463.71 84.4051 466.463H258.475V453.583H70.0508Z" fill="#4C449A"/>
<path fill-rule="evenodd" clip-rule="evenodd" d="M408.262 453.583C405.656 459.433 400.888 463.71 393.907 466.462H219.837V453.583H408.262ZM93.6964 306.009C78.998 304.534 65.4794 307.091 53.1406 313.776C54.3204 367.555 65.971 406.686 87.994 431.216C79.9812 416.026 78.5556 404.965 83.7172 397.985C75.1145 372.52 82.5374 360.722 109.476 357.871C101.955 345.385 96.6951 328.081 93.6964 306.009ZM384.616 306.009C399.315 304.534 412.833 307.091 425.172 313.776C423.943 367.555 412.342 406.686 390.319 431.216C398.332 416.026 399.757 404.965 394.596 397.985C403.198 372.52 395.775 360.722 368.837 357.871C376.358 345.385 381.618 328.081 384.616 306.009Z" fill="#4C449A"/>
<path fill-rule="evenodd" clip-rule="evenodd" d="M72.4595 300.651C48.8143 299.619 34.8533 303.797 30.5273 313.088C35.4432 315.595 42.9644 315.792 53.0911 313.776C65.479 307.14 78.9976 304.535 93.6469 306.009C89.5667 302.47 82.4879 300.7 72.4595 300.651ZM405.852 300.651C429.498 299.619 443.459 303.797 447.785 313.088C442.869 315.595 435.298 315.792 425.221 313.776C412.833 307.14 399.314 304.535 384.665 306.009C388.745 302.47 395.824 300.7 405.852 300.651Z" fill="#9588C0"/>
<path fill-rule="evenodd" clip-rule="evenodd" d="M258.475 399.115H83.717V397.936C78.5553 404.916 80.0301 415.977 87.9937 431.167H258.475V399.115Z" fill="#7162AA"/>
<path fill-rule="evenodd" clip-rule="evenodd" d="M219.836 399.115H394.644V397.936C399.756 404.916 398.33 415.977 390.367 431.167H219.836V399.115Z" fill="#7162AA"/>
<path fill-rule="evenodd" clip-rule="evenodd" d="M258.476 357.872H109.476C82.5374 360.674 75.1145 372.521 83.7172 397.985V399.165H258.476V357.872Z" fill="#C6BCDD"/>
<path fill-rule="evenodd" clip-rule="evenodd" d="M219.837 357.871H368.836C395.775 360.674 403.198 372.521 394.595 397.985V399.165H219.837V357.871ZM112.081 250.067C82.1439 256.9 66.6098 273.712 65.3809 300.454C67.6422 300.454 70.0018 300.504 72.4597 300.602C79.7843 300.651 85.5358 301.585 89.7143 303.502C91.3857 286.887 99.0544 273.958 112.671 264.765C132.384 254.934 181.002 252.869 258.525 258.571V246.773C194.225 242.103 145.411 243.185 112.081 250.067Z" fill="#C6BCDD"/>
<path fill-rule="evenodd" clip-rule="evenodd" d="M366.228 250.067C396.166 256.9 411.749 273.712 412.929 300.454C410.668 300.454 408.308 300.504 405.85 300.602C398.525 300.651 392.774 301.585 388.595 303.502C386.924 286.887 379.255 273.958 365.638 264.765C345.926 254.934 297.308 252.869 219.785 258.571V246.773C284.134 242.103 332.899 243.185 366.228 250.067Z" fill="#C6BCDD"/>
<path fill-rule="evenodd" clip-rule="evenodd" d="M112.672 264.814C99.0549 274.007 91.3862 286.886 89.7148 303.551C91.2388 304.239 92.566 305.075 93.6967 306.058C96.6953 328.13 101.955 345.385 109.477 357.871H258.476V258.62C181.002 252.918 132.384 254.982 112.672 264.814Z" fill="#7162AA"/>
<path fill-rule="evenodd" clip-rule="evenodd" d="M365.64 264.814C379.257 274.007 386.876 286.886 388.597 303.551C387.073 304.239 385.746 305.075 384.615 306.058C381.617 328.13 376.357 345.385 368.835 357.871H219.836V258.62C297.31 252.918 345.927 254.982 365.64 264.814Z" fill="#7162AA"/>
<path fill-rule="evenodd" clip-rule="evenodd" d="M87.8451 281.528C103.428 284.477 122.944 290.573 146.491 299.717C144.918 300.159 143.394 300.651 142.018 301.24C109.573 289.442 88.0417 283.543 77.4727 283.494C79.3407 282.855 81.2087 282.413 83.0767 282.167C82.9293 264.863 82.0444 249.575 80.373 236.253C84.404 256.949 86.8619 271.991 87.8451 281.528Z" fill="#C8252C"/>
<path fill-rule="evenodd" clip-rule="evenodd" d="M146.493 299.716C153.719 297.553 160.11 298.045 165.714 301.142L161.044 317.413C160.503 319.232 161.584 320.707 163.403 320.609L159.077 320.805C157.111 319.724 155.095 319.036 153.031 318.741C149.049 321.248 143.838 320.707 137.398 317.118C136.907 310.629 138.578 305.37 142.314 301.339C142.216 301.289 142.118 301.289 142.068 301.24C143.396 300.65 144.87 300.159 146.493 299.716Z" fill="#FAB688"/>
<path fill-rule="evenodd" clip-rule="evenodd" d="M92.7112 328.819C91.7281 322.969 90.7449 316.677 89.7617 309.942C102.002 313.137 117.93 316.185 137.495 319.036C137.396 318.397 137.347 317.758 137.298 317.119C143.738 320.708 148.949 321.297 152.93 318.741C154.995 319.036 157.011 319.724 158.977 320.806L115.078 322.625C115.619 325.574 116.897 327.885 118.913 329.261C109.671 329.704 100.921 329.556 92.7112 328.819Z" fill="#C8252C"/>
<path fill-rule="evenodd" clip-rule="evenodd" d="M165.712 301.143C161.534 298.783 156.864 297.947 151.8 298.586C143.394 280.447 148.605 254.639 136.758 215.312C145.262 219.589 155.192 240.285 166.548 277.399C167.777 278.432 169.448 279.611 171.562 280.939L165.712 301.143Z" fill="#EC1C24"/>
<path fill-rule="evenodd" clip-rule="evenodd" d="M136.709 215.312C148.556 254.688 143.345 280.447 151.751 298.586C150.031 298.783 148.261 299.176 146.491 299.717C122.994 290.524 103.429 284.478 87.8453 281.528C86.8621 272.041 84.4042 256.949 80.3732 236.302C81.9954 249.624 82.8803 264.913 83.0769 282.216C81.2089 282.462 79.3408 282.905 77.4728 283.544C88.0419 283.593 109.524 289.541 142.018 301.29L142.264 301.388C138.528 305.419 136.905 310.679 137.348 317.168C137.397 317.807 137.446 318.446 137.545 319.085C117.93 316.234 102.003 313.186 89.8116 309.991C79.7341 307.336 72.1637 304.583 67.1004 301.732C53.8767 279.66 51.8121 251.197 60.9064 216.295C65.8223 210.003 76.8338 207.643 93.8918 209.265C111.687 224.308 119.847 225.045 118.324 211.428C126.091 211.625 132.235 212.903 136.709 215.312Z" fill="#EC1C24"/>
<path fill-rule="evenodd" clip-rule="evenodd" d="M137.25 215.607C147.819 237.482 149.638 281.971 154.504 286.739C156.372 288.951 160.698 291.655 167.482 294.85L167.335 295.293L165.663 301.143C161.485 298.783 156.815 297.947 151.751 298.586C143.345 280.447 148.556 254.639 136.709 215.312C136.906 215.41 137.102 215.509 137.25 215.607Z" fill="#C8252C"/>
<path fill-rule="evenodd" clip-rule="evenodd" d="M230.898 326.41L124.863 330.834C119.406 331.08 116.014 328.032 115.031 322.723L234.388 317.758H234.732C235.863 317.709 237.583 318.2 237.043 321.445C236.6 324.001 233.798 326.262 230.898 326.41Z" fill="#A6A8AB"/>
<path fill-rule="evenodd" clip-rule="evenodd" d="M248.3 260.734L179.822 263.585C178.004 263.684 176.086 265.257 175.546 267.076L161.044 317.414C160.503 319.282 161.585 320.708 163.404 320.609L231.93 317.758C233.749 317.66 235.666 316.136 236.207 314.268L250.709 263.88C251.151 262.111 250.119 260.685 248.3 260.734Z" fill="#D0D2D3"/>
<path fill-rule="evenodd" clip-rule="evenodd" d="M242.153 281.184L233.207 312.154C232.764 313.678 231.142 315.103 229.52 315.153L166.99 317.758C165.417 317.807 164.68 316.578 165.073 315.103L171.021 294.408C176.183 295.047 181.541 295.391 187.047 295.391C191.176 295.391 195.256 295.194 199.189 294.85C199.975 296.964 201.942 298.39 204.498 298.39C207.743 298.39 210.84 296.03 211.97 292.982C224.014 290.623 234.436 286.493 242.153 281.184Z" fill="#A6A8AB"/>
<path fill-rule="evenodd" clip-rule="evenodd" d="M262.703 335.209C257.492 331.817 253.412 328.671 250.561 325.722C246.137 327.737 241.909 329.507 237.878 331.178C228.145 329.9 216.789 328.72 203.713 327.54L230.947 326.41C233.847 326.262 236.6 324.05 237.092 321.396C237.632 318.2 235.961 317.66 234.781 317.709H234.437L231.832 317.807C233.65 317.709 235.568 316.185 236.108 314.317L243.285 289.443C247.661 289.197 251.544 289.099 254.936 289.197C274.157 296.177 290.723 324.738 326.462 348.531C325.872 354.774 322.824 358.756 318.006 362.689C299.228 354.676 280.4 345.729 269.339 339.289C266.931 337.864 264.719 336.487 262.703 335.209ZM364.658 351.137C350.451 363.672 339.882 371.242 333.688 374.143C326.953 377.24 325.036 374.88 323.414 367.064C342.143 361.116 331.967 356.986 338.997 352.316C346.518 351.874 355.072 348.335 364.707 341.747C370.655 341.108 371.393 344.844 364.658 351.137Z" fill="#1B2452"/>
<path fill-rule="evenodd" clip-rule="evenodd" d="M360.922 334.816C360.332 339.191 359.89 341.305 359.349 345.139L359.054 345.287L358.906 345.385L358.759 345.483L358.513 345.631L358.218 345.778L358.071 345.827L357.923 345.926L357.678 346.073H357.628L357.333 346.221L357.235 346.27L356.498 346.663L356.399 346.712L356.203 346.81L355.957 346.958H355.908L355.613 347.105L355.515 347.155L355.318 347.253L355.121 347.351L355.023 347.4L354.728 347.548L354.679 347.597L354.482 347.695L354.286 347.794L354.187 347.843L353.892 347.99L353.843 348.039L353.597 348.138L353.401 348.236L353.302 348.285L353.007 348.433H352.958L352.713 348.531L352.565 348.629L352.172 348.777L351.779 348.973L351.68 349.023L351.385 349.121L351.139 349.219L350.992 349.268L350.845 349.318L350.55 349.416L350.255 349.514L350.156 349.563L350.009 349.613L349.763 349.711L349.468 349.809L349.37 349.858L349.222 349.907L348.976 350.006L348.682 350.104L348.583 350.153L348.436 350.202L348.19 350.301H348.141L347.895 350.399L347.797 350.448L347.698 350.547L347.453 350.645L347.207 350.743H347.108L346.912 350.792L346.715 350.841H346.666L346.42 350.94H346.371L346.174 350.989L346.027 351.038H345.929L345.683 351.087H345.634L345.388 351.136L345.24 351.186H345.142L344.896 351.235L344.405 351.382L344.159 351.431L343.913 351.481H343.766L343.667 351.53L343.422 351.579L343.176 351.628L342.93 351.677L342.684 351.726L342.438 351.775H342.34H342.193C342.242 351.333 342.34 350.792 342.488 350.252C347.895 344.992 352.663 339.338 355.662 328.081C359.693 323.853 361.905 325.623 360.922 334.816ZM357.481 357.33C356.35 363.377 355.023 368.981 353.696 371.832C350.894 377.977 345.683 374.831 339.98 370.554C344.651 367.555 350.5 363.18 357.481 357.33Z" fill="#071023"/>
<path fill-rule="evenodd" clip-rule="evenodd" d="M349.223 350.006L349.026 350.105L348.781 350.203L348.682 350.252L348.535 350.301L348.289 350.4H348.24L347.994 350.498L347.896 350.547H347.699L347.453 350.645L347.208 350.744L347.109 350.793L346.913 350.842L346.716 350.891H346.667L346.421 350.989H346.372L346.175 351.039L346.028 351.088H345.929L345.684 351.137H345.634L345.389 351.186L345.241 351.235H345.143L344.897 351.284L344.405 351.432L344.16 351.481L343.914 351.53H343.766L343.668 351.579L343.422 351.629L343.177 351.678L342.931 351.727L342.685 351.776L342.439 351.825H342.341H342.193C342.243 351.383 342.341 350.842 342.488 350.301C347.896 345.041 352.664 339.388 355.663 328.131C356.744 327 357.678 326.263 358.465 325.968C357.777 335.357 354.68 343.321 349.223 350.006Z" fill="#1B2452"/>
<path fill-rule="evenodd" clip-rule="evenodd" d="M325.233 366.474C323.562 364.164 321.644 362.443 319.629 361.313C322.873 358.314 325.135 355.168 326.069 350.891C329.756 352.857 333.393 353.988 336.884 354.283C334.376 358.068 339.046 361.657 325.233 366.474Z" fill="#FAB688"/>
<path fill-rule="evenodd" clip-rule="evenodd" d="M126.779 368.981C103.92 367.556 94.5804 350.399 95.0228 329.015C102.593 329.556 110.557 329.654 118.914 329.31C120.487 330.392 122.502 330.932 124.911 330.834L203.712 327.541C216.739 328.72 228.144 329.9 237.877 331.178C243.875 331.965 249.233 332.751 253.952 333.538C257.344 334.423 262.358 336.291 269.093 339.142L269.339 339.289C280.399 345.729 299.276 354.676 318.006 362.689C318.546 362.246 319.087 361.755 319.628 361.263C321.643 362.443 323.511 364.164 325.232 366.425C324.642 366.622 324.052 366.818 323.413 367.015C323.462 367.162 323.462 367.261 323.511 367.408C270.125 372.275 252.527 364.114 238.369 359.887C191.963 368.195 169.645 371.242 126.779 368.981Z" fill="#1B2452"/>
<path fill-rule="evenodd" clip-rule="evenodd" d="M100.431 182.474C102.2 175.248 102.495 167.038 104.904 163.843C124.174 157.059 126.337 167.726 134.842 169.791C134.94 172.446 134.104 175.395 132.433 178.64C133.072 190.29 130.319 197.516 124.223 200.269C122.699 201.891 120.143 202.875 116.555 203.17C116.899 204.644 117.931 210.052 118.373 211.477C119.897 225.045 111.737 224.357 93.9417 209.314H93.8434C93.9417 204.546 94.335 200.859 94.2858 197.271C94.2367 194.813 94.1383 192.65 93.9909 190.733C87.6003 184.096 86.3713 178.689 90.2057 174.559C95.269 172.2 98.1693 175.543 99.005 184.735C100.431 184.096 99.3983 184.588 100.431 182.474Z" fill="#FAB688"/>
<path fill-rule="evenodd" clip-rule="evenodd" d="M134.792 169.791C126.288 167.776 124.125 157.108 104.854 163.843C102.495 167.038 102.151 175.248 100.381 182.474C99.3487 184.588 100.381 184.096 98.9063 184.686C98.1198 175.494 95.1703 172.102 90.1069 174.51C86.2726 178.64 87.5016 184.047 93.8922 190.684C94.0396 192.601 94.1379 194.764 94.1871 197.222C76.2442 180.704 79.882 158.239 90.7952 150.865C88.1406 151.16 85.4369 152.192 82.684 153.962C86.6659 148.604 92.0241 146.785 98.7588 148.407C98.0215 144.622 98.1689 141.869 99.2013 140.05C99.4962 142.607 99.9878 144.573 100.725 145.949C105.051 142.017 113.359 141.083 121.863 144.278C132.875 148.407 144.23 158.534 148.556 155.535C147.917 165.859 142.018 172.151 134.792 169.791Z" fill="#733E19"/>
<path fill-rule="evenodd" clip-rule="evenodd" d="M105.15 199.876C108.346 201.941 112.131 203.022 116.506 203.12C116.703 203.956 117.096 205.972 117.489 207.889C111.983 206.414 107.854 203.759 105.15 199.876Z" fill="#ED7D57"/>
<path fill-rule="evenodd" clip-rule="evenodd" d="M236.894 318.84C242.891 316.726 248.102 314.17 252.428 311.171C254.444 313.137 256.459 315.054 258.475 316.922C278.089 335.209 297.064 349.22 315.302 357.871C317.121 358.707 318.89 359.543 320.709 360.28C320.365 360.624 320.021 360.968 319.628 361.313L318.005 362.689C314.319 361.116 310.583 359.494 306.945 357.871C292.099 351.235 278.187 344.451 269.339 339.29C269.24 339.24 269.191 339.191 269.093 339.142C266.782 337.815 264.669 336.488 262.702 335.209C261.227 334.226 259.802 333.292 258.524 332.358C255.279 329.999 252.625 327.836 250.56 325.722C246.136 327.737 241.908 329.507 237.877 331.178C232.371 330.49 226.374 329.753 219.836 329.114C214.773 328.573 209.414 328.081 203.712 327.59L219.836 326.902L230.946 326.459C233.846 326.312 236.599 324.1 237.091 321.445C237.287 320.216 237.189 319.38 236.894 318.84ZM130.023 357.871C143.345 361.608 161.878 362.099 185.622 359.248C189.702 358.805 193.585 358.314 197.371 357.871C205.482 356.888 212.954 355.856 219.787 354.824C226.62 353.791 232.765 352.759 238.32 351.677C242.351 354.086 247.021 356.151 252.33 357.921C254.296 358.56 256.312 359.199 258.475 359.739C275.139 364.164 297.015 365.983 324.101 365.098C324.494 365.54 324.839 366.032 325.232 366.523C324.642 366.72 324.052 366.917 323.413 367.113L323.511 367.507C291.017 370.456 271.797 368.588 258.524 365.737C249.97 363.869 243.924 361.607 238.369 359.936C231.732 361.116 225.637 362.197 219.885 363.131C185.228 368.932 163.599 370.898 126.828 368.981C116.603 368.342 109.082 364.557 103.92 358.658C97.5788 351.383 94.8259 340.863 95.0717 329.065C96.104 329.163 97.1364 329.212 98.1687 329.261C100.283 329.36 102.396 329.458 104.559 329.507C105.248 343.812 113.752 353.3 130.023 357.871Z" fill="#071023"/>
<path fill-rule="evenodd" clip-rule="evenodd" d="M206.465 287.132C203.909 287.132 201.5 289.197 201.107 291.753C200.664 294.309 202.434 296.374 204.99 296.374C207.547 296.374 209.955 294.309 210.398 291.753C210.742 289.197 209.021 287.132 206.465 287.132Z" fill="#A6A8AB"/>
</svg>
