<svg width="520" height="326" viewBox="0 0 520 326" fill="none" xmlns="http://www.w3.org/2000/svg">
<path d="M214.524 53.1326C214.253 53.1326 214.033 52.9131 214.033 52.6417V50.1863C214.033 49.9149 214.253 49.6954 214.524 49.6954C214.795 49.6954 215.015 49.9149 215.015 50.1863V52.6417C215.015 52.9131 214.795 53.1326 214.524 53.1326ZM99.9948 234.561C99.7235 234.561 99.5039 234.342 99.5039 234.07V229.107C99.5039 228.836 99.7235 228.616 99.9948 228.616C100.266 228.616 100.486 228.836 100.486 229.107V234.07C100.486 234.342 100.267 234.561 99.9948 234.561ZM99.9948 224.636C99.7235 224.636 99.5039 224.416 99.5039 224.145V219.182C99.5039 218.91 99.7235 218.691 99.9948 218.691C100.266 218.691 100.486 218.91 100.486 219.182V224.144C100.486 224.416 100.267 224.636 99.9948 224.636ZM99.9948 214.71C99.7235 214.71 99.5039 214.491 99.5039 214.219V209.256C99.5039 208.985 99.7235 208.765 99.9948 208.765C100.266 208.765 100.486 208.985 100.486 209.256V214.219C100.486 214.491 100.267 214.71 99.9948 214.71ZM99.9948 204.785C99.7235 204.785 99.5039 204.565 99.5039 204.294V199.331C99.5039 199.059 99.7235 198.84 99.9948 198.84C100.266 198.84 100.486 199.059 100.486 199.331V204.294C100.486 204.565 100.267 204.785 99.9948 204.785ZM99.9948 194.859C99.7235 194.859 99.5039 194.64 99.5039 194.368V189.406C99.5039 189.135 99.7235 188.915 99.9948 188.915C100.266 188.915 100.486 189.135 100.486 189.406V194.368C100.486 194.64 100.267 194.859 99.9948 194.859ZM99.9948 184.934C99.7235 184.934 99.5039 184.714 99.5039 184.443V179.48C99.5039 179.209 99.7235 178.989 99.9948 178.989C100.266 178.989 100.486 179.209 100.486 179.48V184.443C100.486 184.714 100.267 184.934 99.9948 184.934ZM99.9948 175.008C99.7235 175.008 99.5039 174.789 99.5039 174.517V169.554C99.5039 169.283 99.7235 169.063 99.9948 169.063C100.266 169.063 100.486 169.283 100.486 169.554V174.517C100.486 174.789 100.267 175.008 99.9948 175.008ZM99.9948 165.083C99.7235 165.083 99.5039 164.863 99.5039 164.591V159.629C99.5039 159.358 99.7235 159.138 99.9948 159.138C100.266 159.138 100.486 159.358 100.486 159.629V164.591C100.486 164.863 100.267 165.083 99.9948 165.083ZM99.9948 155.158C99.7235 155.158 99.5039 154.938 99.5039 154.667V149.704C99.5039 149.433 99.7235 149.213 99.9948 149.213C100.266 149.213 100.486 149.433 100.486 149.704V154.667C100.486 154.938 100.267 155.158 99.9948 155.158ZM99.9948 145.232C99.7235 145.232 99.5039 145.013 99.5039 144.741V139.779C99.5039 139.507 99.7235 139.288 99.9948 139.288C100.266 139.288 100.486 139.507 100.486 139.779V144.741C100.486 145.012 100.267 145.232 99.9948 145.232ZM99.9948 135.307C99.7235 135.307 99.5039 135.087 99.5039 134.816V129.853C99.5039 129.582 99.7235 129.363 99.9948 129.363C100.266 129.363 100.486 129.582 100.486 129.853V134.815C100.486 135.087 100.267 135.307 99.9948 135.307ZM99.9948 125.381C99.7235 125.381 99.5039 125.162 99.5039 124.89V119.927C99.5039 119.656 99.7235 119.437 99.9948 119.437C100.266 119.437 100.486 119.656 100.486 119.927V124.89C100.486 125.162 100.267 125.381 99.9948 125.381ZM99.9948 115.456C99.7235 115.456 99.5039 115.236 99.5039 114.965V110.002C99.5039 109.73 99.7235 109.511 99.9948 109.511C100.266 109.511 100.486 109.73 100.486 110.002V114.965C100.486 115.236 100.267 115.456 99.9948 115.456ZM99.9948 105.53C99.7235 105.53 99.5039 105.311 99.5039 105.039V100.077C99.5039 99.8057 99.7235 99.5861 99.9948 99.5861C100.266 99.5861 100.486 99.8057 100.486 100.077V105.039C100.486 105.311 100.267 105.53 99.9948 105.53ZM99.9948 95.605C99.7235 95.605 99.5039 95.3854 99.5039 95.114V90.151C99.5039 89.8797 99.7235 89.6601 99.9948 89.6601C100.266 89.6601 100.486 89.8797 100.486 90.151V95.114C100.486 95.3854 100.267 95.605 99.9948 95.605ZM99.9948 85.6793C99.7235 85.6793 99.5039 85.4598 99.5039 85.1884V80.2254C99.5039 79.954 99.7235 79.7345 99.9948 79.7345C100.266 79.7345 100.486 79.954 100.486 80.2254V85.1884C100.486 85.4598 100.267 85.6793 99.9948 85.6793ZM99.9948 75.7541C99.7235 75.7541 99.5039 75.5346 99.5039 75.2632V70.3002C99.5039 70.0288 99.7235 69.8093 99.9948 69.8093C100.266 69.8093 100.486 70.0288 100.486 70.3002V75.2632C100.486 75.5346 100.267 75.7541 99.9948 75.7541ZM99.9948 65.8285C99.7235 65.8285 99.5039 65.609 99.5039 65.3376V60.3746C99.5039 60.1032 99.7235 59.8837 99.9948 59.8837C100.266 59.8837 100.486 60.1032 100.486 60.3746V65.3376C100.486 65.609 100.267 65.8285 99.9948 65.8285ZM214.316 45.7198C214.069 45.7198 213.857 45.5338 213.829 45.2822C213.651 43.6639 213.354 42.0472 212.947 40.4763C212.879 40.214 213.036 39.9458 213.299 39.8778C213.562 39.8078 213.83 39.9676 213.897 40.2298C214.317 41.8466 214.623 43.51 214.805 45.175C214.835 45.4444 214.64 45.6873 214.371 45.717C214.352 45.719 214.334 45.7198 214.316 45.7198ZM211.83 36.1462C211.639 36.1462 211.457 36.0335 211.378 35.846C210.747 34.3511 210 32.8862 209.157 31.4918C209.017 31.2596 209.091 30.9577 209.323 30.8177C209.556 30.6773 209.857 30.7516 209.997 30.9834C210.865 32.4182 211.633 33.9258 212.282 35.4642C212.388 35.7142 212.27 36.0022 212.02 36.1075C211.959 36.1336 211.894 36.1462 211.83 36.1462ZM206.714 27.6811C206.572 27.6811 206.431 27.6198 206.334 27.5019C205.303 26.2467 204.172 25.0544 202.969 23.9567C202.77 23.7739 202.755 23.4634 202.938 23.2628C203.121 23.0623 203.431 23.05 203.632 23.2316C204.868 24.3606 206.032 25.5877 207.092 26.8785C207.264 27.0881 207.234 27.3975 207.025 27.5696C206.933 27.6447 206.823 27.6811 206.714 27.6811ZM199.41 21.0131C199.315 21.0131 199.219 20.9858 199.135 20.9281C197.788 20.0139 196.366 19.1907 194.907 18.4818C194.663 18.3635 194.561 18.0692 194.68 17.8259C194.798 17.5818 195.091 17.4802 195.337 17.5984C196.837 18.3279 198.302 19.1749 199.686 20.1156C199.911 20.2679 199.969 20.5728 199.817 20.7975C199.722 20.938 199.567 21.0131 199.41 21.0131ZM126.466 17.5846C126.267 17.5846 126.078 17.462 126.005 17.2638C125.911 17.009 126.042 16.7266 126.296 16.6328C127.864 16.0545 129.482 15.5679 131.106 15.187C131.369 15.1268 131.634 15.2886 131.696 15.5529C131.758 15.8171 131.594 16.0814 131.33 16.1431C129.746 16.5145 128.166 16.9896 126.637 17.5545C126.58 17.5747 126.523 17.5846 126.466 17.5846ZM190.518 16.6941C190.469 16.6941 190.418 16.687 190.369 16.6712C188.82 16.1795 187.221 15.797 185.617 15.5347C185.349 15.4908 185.168 15.2384 185.212 14.971C185.256 14.7024 185.506 14.52 185.776 14.5651C187.427 14.8357 189.073 15.2293 190.667 15.7352C190.925 15.8171 191.068 16.0932 190.986 16.352C190.92 16.5608 190.726 16.6941 190.518 16.6941ZM136.105 15.3227C135.857 15.3227 135.644 15.1359 135.617 14.8843C135.588 14.6149 135.783 14.3729 136.052 14.3436C137.521 14.1853 139.018 14.1046 140.503 14.1046H141.058C141.329 14.1046 141.549 14.3242 141.549 14.5956C141.549 14.8669 141.329 15.0865 141.058 15.0865H140.503C139.053 15.0865 137.592 15.1652 136.158 15.3195C136.14 15.3215 136.122 15.3227 136.105 15.3227ZM180.759 15.0932C180.757 15.0932 180.753 15.0932 180.75 15.0932C180.53 15.0889 180.309 15.0869 180.088 15.0865H175.797C175.526 15.0865 175.306 14.8669 175.306 14.5956C175.306 14.3242 175.526 14.1046 175.797 14.1046H180.09C180.317 14.105 180.543 14.107 180.769 14.1114C181.04 14.1165 181.256 14.3404 181.251 14.6122C181.245 14.8792 181.026 15.0932 180.759 15.0932ZM170.834 15.0865H165.871C165.6 15.0865 165.38 14.8669 165.38 14.5956C165.38 14.3242 165.6 14.1046 165.871 14.1046H170.834C171.106 14.1046 171.325 14.3242 171.325 14.5956C171.325 14.8669 171.106 15.0865 170.834 15.0865ZM160.909 15.0865H155.946C155.675 15.0865 155.455 14.8669 155.455 14.5956C155.455 14.3242 155.675 14.1046 155.946 14.1046H160.909C161.18 14.1046 161.399 14.3242 161.399 14.5956C161.4 14.8669 161.18 15.0865 160.909 15.0865ZM150.983 15.0865H146.021C145.749 15.0865 145.53 14.8669 145.53 14.5956C145.53 14.3242 145.749 14.1046 146.021 14.1046H150.984C151.255 14.1046 151.475 14.3242 151.475 14.5956C151.475 14.8669 151.255 15.0865 150.983 15.0865ZM99.9948 242.01C99.7235 242.01 99.5039 241.791 99.5039 241.52V239.064C99.5039 238.793 99.7235 238.573 99.9948 238.573C100.266 238.573 100.486 238.793 100.486 239.064V241.52C100.486 241.791 100.267 242.01 99.9948 242.01Z" fill="#86AEE0"/>
<path d="M259.833 325.962C403.335 325.962 519.666 321.891 519.666 316.868C519.666 311.846 403.335 307.775 259.833 307.775C116.331 307.775 0 311.846 0 316.868C0 321.891 116.331 325.962 259.833 325.962Z" fill="#E3E7F2"/>
<path d="M298.823 227.605C299.733 226.941 300.112 225.698 299.906 224.592C299.7 223.486 298.98 222.523 298.088 221.838C297.194 221.154 296.135 220.72 295.065 220.371C293.294 219.792 291.392 219.426 289.56 219.667C291.267 217.531 293.138 215.526 295.155 213.673C295.338 213.505 295.525 213.34 295.71 213.174C296.925 214.7 298.141 216.226 299.356 217.751C300.166 218.769 301.006 219.812 302.139 220.454C303.271 221.096 304.782 221.25 305.835 220.482C306.746 219.818 307.125 218.575 306.919 217.469C306.713 216.363 305.993 215.4 305.1 214.715C304.207 214.031 303.147 213.597 302.077 213.248C300.25 212.651 298.285 212.279 296.4 212.569C298.7 210.582 301.165 208.788 303.764 207.214C305.055 208.712 306.345 210.211 307.636 211.71C308.485 212.696 309.364 213.706 310.52 214.304C311.677 214.902 313.193 214.998 314.216 214.19C315.1 213.492 315.431 212.235 315.182 211.137C314.934 210.04 314.178 209.106 313.259 208.456C312.34 207.806 311.264 207.413 310.182 207.105C308.448 206.611 306.6 206.32 304.832 206.583C306.737 205.487 308.709 204.505 310.735 203.651C311.335 203.399 311.941 203.161 312.55 202.931C313.928 204.429 315.306 205.927 316.684 207.424C317.566 208.382 318.477 209.362 319.653 209.922C320.829 210.482 322.347 210.528 323.343 209.687C324.203 208.96 324.492 207.693 324.208 206.604C323.924 205.516 323.138 204.607 322.198 203.988C321.258 203.369 320.17 203.011 319.078 202.739C317.517 202.349 315.871 202.125 314.285 202.309C316.377 201.604 318.513 201.033 320.68 200.603C322.556 201.247 324.434 201.891 326.31 202.536C327.542 202.959 328.811 203.387 330.113 203.32C331.414 203.253 332.772 202.571 333.248 201.359C333.659 200.311 333.31 199.059 332.541 198.238C331.773 197.417 330.648 196.992 329.526 196.894C328.404 196.796 327.277 197 326.185 197.28C324.174 197.795 322.167 198.618 320.693 200.064C320.686 200.065 320.679 200.064 320.672 200.066C318.365 200.52 316.092 201.133 313.87 201.895C315.175 200.845 316.192 199.424 317.012 197.948C317.559 196.964 318.042 195.925 318.231 194.816C318.42 193.706 318.294 192.511 317.693 191.56C317.092 190.608 315.969 189.955 314.851 190.087C313.557 190.24 312.553 191.38 312.159 192.621C311.765 193.863 311.858 195.198 311.956 196.496C312.104 198.473 312.252 200.449 312.401 202.426C309.709 203.439 307.101 204.672 304.607 206.104C305.706 204.727 306.385 203.012 306.835 201.292C307.121 200.203 307.33 199.078 307.238 197.957C307.146 196.835 306.726 195.709 305.908 194.937C305.089 194.165 303.839 193.81 302.788 194.215C301.572 194.685 300.883 196.038 300.809 197.337C300.736 198.637 301.158 199.908 301.575 201.141C302.21 203.017 302.844 204.894 303.478 206.771C303.401 206.818 303.322 206.863 303.245 206.91C300.716 208.463 298.315 210.222 296.07 212.16C297.095 210.472 297.478 208.434 297.582 206.449C297.641 205.325 297.618 204.181 297.301 203.102C296.984 202.022 296.344 201.005 295.386 200.414C294.428 199.824 293.131 199.73 292.184 200.339C291.088 201.044 290.687 202.509 290.878 203.796C291.07 205.083 291.741 206.242 292.399 207.364C293.433 209.128 294.467 210.892 295.502 212.656C295.471 212.684 295.44 212.712 295.409 212.739L295.353 212.724C295.363 212.737 295.373 212.75 295.383 212.762C293.23 214.685 291.229 216.776 289.407 219.017C289.657 217.261 289.38 215.426 288.904 213.7C288.6 212.594 288.21 211.496 287.556 210.554C286.902 209.612 285.956 208.833 284.84 208.569C283.725 208.305 282.441 208.629 281.721 209.522C280.889 210.555 280.973 212.099 281.572 213.282C282.171 214.466 283.192 215.371 284.189 216.245C285.605 217.487 287.021 218.729 288.438 219.972C288.474 220.016 288.509 220.061 288.545 220.106C286.605 222.627 284.895 225.321 283.451 228.156C283.298 228.456 283.737 228.751 283.891 228.448C285.311 225.661 286.987 223.012 288.884 220.532C290.037 221.98 291.19 223.427 292.343 224.875C293.154 225.893 293.993 226.936 295.126 227.578C296.259 228.22 297.77 228.373 298.823 227.605ZM158.068 139.066C156.848 138.948 155.642 139.686 155.01 140.734C154.379 141.782 154.268 143.085 154.5 144.288C154.732 145.49 155.281 146.608 155.899 147.665C156.922 149.415 158.204 151.086 159.868 152.213C156.937 152.719 153.965 152.998 150.987 153.047C150.717 153.052 150.446 153.052 150.175 153.053C150.288 150.933 150.402 148.814 150.516 146.695C150.592 145.282 150.663 143.827 150.205 142.487C149.748 141.146 148.63 139.93 147.218 139.794C145.998 139.677 144.792 140.414 144.16 141.463C143.529 142.511 143.419 143.814 143.651 145.016C143.882 146.218 144.431 147.336 145.049 148.394C146.104 150.199 147.434 151.921 149.176 153.047C145.87 153.002 142.569 152.68 139.318 152.084C139.351 149.932 139.384 147.781 139.417 145.629C139.438 144.214 139.453 142.757 138.944 141.435C138.436 140.113 137.272 138.941 135.856 138.859C134.632 138.788 133.455 139.571 132.865 140.643C132.274 141.715 132.214 143.022 132.492 144.214C132.77 145.406 133.361 146.502 134.019 147.535C135.073 149.189 136.365 150.762 137.994 151.825C135.653 151.34 133.34 150.714 131.075 149.945C130.404 149.717 129.74 149.472 129.078 149.219C129.039 147.006 129 144.792 128.961 142.578C128.936 141.162 128.903 139.706 128.351 138.402C127.799 137.097 126.597 135.964 125.18 135.928C123.955 135.898 122.804 136.719 122.249 137.81C121.694 138.901 121.677 140.208 121.993 141.391C122.31 142.573 122.937 143.65 123.629 144.661C124.617 146.105 125.795 147.477 127.218 148.473C125.007 147.535 122.857 146.456 120.784 145.241C119.723 143.361 118.661 141.481 117.6 139.601C116.904 138.368 116.18 137.102 115.074 136.217C113.967 135.331 112.37 134.905 111.107 135.547C110.015 136.103 109.395 137.372 109.427 138.596C109.459 139.819 110.067 140.978 110.909 141.868C111.751 142.758 112.815 143.407 113.905 143.968C115.913 145.002 118.14 145.782 120.383 145.671C120.39 145.675 120.395 145.68 120.402 145.684C122.606 146.981 124.898 148.125 127.256 149.11C125.437 149.021 123.583 149.443 121.85 150.051C120.694 150.456 119.551 150.953 118.595 151.718C117.639 152.484 116.879 153.548 116.68 154.755C116.482 155.963 116.923 157.306 117.928 158.006C119.091 158.817 120.731 158.614 121.949 157.889C123.166 157.165 124.055 156.011 124.913 154.884C126.221 153.17 127.528 151.454 128.835 149.74C131.756 150.859 134.768 151.741 137.832 152.378C135.942 152.704 134.152 153.609 132.543 154.682C131.524 155.362 130.541 156.126 129.806 157.104C129.07 158.083 128.598 159.302 128.706 160.522C128.814 161.741 129.575 162.933 130.723 163.362C132.051 163.859 133.589 163.256 134.588 162.252C135.587 161.248 136.161 159.91 136.712 158.606C137.552 156.621 138.391 154.636 139.231 152.651C139.328 152.669 139.424 152.689 139.521 152.706C142.7 153.27 145.924 153.574 149.15 153.619C147.097 154.252 145.313 155.632 143.794 157.172C142.934 158.044 142.126 158.991 141.605 160.098C141.083 161.205 140.868 162.495 141.221 163.667C141.574 164.84 142.56 165.853 143.772 166.042C145.172 166.26 146.556 165.358 147.331 164.173C148.105 162.988 148.396 161.561 148.671 160.172C149.104 157.991 149.538 155.809 149.971 153.627C150.016 153.627 150.061 153.626 150.106 153.626L150.141 153.678C150.142 153.661 150.143 153.643 150.144 153.626C153.284 153.618 156.422 153.363 159.523 152.856C158.051 154.104 156.951 155.796 156.091 157.543C155.54 158.663 155.063 159.838 154.915 161.077C154.766 162.315 154.973 163.632 155.689 164.653C156.406 165.674 157.684 166.337 158.915 166.131C160.338 165.892 161.385 164.575 161.753 163.18C162.12 161.785 161.944 160.311 161.764 158.879C161.509 156.845 161.255 154.812 161 152.778C161.003 152.716 161.007 152.654 161.01 152.592C164.41 151.943 167.747 150.986 170.969 149.723C171.31 149.59 171.167 149.033 170.822 149.168C167.653 150.409 164.377 151.353 161.042 152C161.15 149.99 161.258 147.979 161.366 145.969C161.442 144.555 161.513 143.1 161.055 141.76C160.597 140.418 159.479 139.202 158.068 139.066Z" fill="#85AEE6"/>
<path d="M137.024 131.012C142.022 129.635 148.7 121.012 153.871 121.87C154.329 127.935 145.528 127.112 141.804 130.22C138.635 133.509 151.323 137.083 157.365 134.06C162.399 131.794 161.228 124.824 167.491 115.378C172.73 107.228 175.893 107.329 176.867 102.19C178.645 92.7873 169.86 82.9839 168.739 83.4748C168.287 83.673 169.289 85.4428 169.291 89.767C169.623 90.161 167.563 106.939 163.882 100.904C161.685 93.5678 170.235 89.3575 165.88 80.8117C162.612 74.4052 152.34 73.3688 152.032 74.0781C157.087 75.9073 158.797 89.6428 155.912 94.7438C153.93 97.6605 152.953 94.8914 152.872 91.6978C151.212 81.2275 151.063 75.5948 144.09 70.6519C135.543 64.5932 127.332 72.4463 115.551 73.0626C115.551 73.0626 111.189 86.8594 115.955 95.3226C120.542 103.468 128.998 97.268 134.825 99.7539C137.454 100.583 137.733 104.108 135.869 105.586C133.135 108.721 127.657 108.404 123.71 108.132C117.17 107.678 115.013 106.027 114.138 107.15C111.722 110.045 120.871 119.846 126.599 118.496C133.492 119.826 142.567 108.96 149.225 112.779C148.776 118.324 134.252 122.915 128.269 122.642C125.137 122.14 123.162 120.484 122.809 120.937C123.949 124.169 132.453 131.947 137.024 131.012Z" fill="#326AB3"/>
<path d="M148.84 131.282C150.458 131.265 152.053 130.845 153.478 130.079C154.861 129.338 156.009 128.272 156.942 127.02C157.962 125.644 158.738 124.114 159.552 122.613C160.437 120.989 161.407 119.407 162.479 117.899C162.965 117.219 163.447 116.521 164.006 115.898C164.47 115.379 165.054 114.9 165.788 114.911C165.796 114.911 165.799 114.904 165.808 114.905C165.911 114.982 166.018 115.053 166.12 115.133C166.463 115.398 166.801 115.673 167.128 115.962C167.156 115.906 167.189 115.858 167.223 115.806C166.628 115.29 166.002 114.803 165.351 114.357C165.349 114.352 165.348 114.347 165.345 114.345C165.125 114.086 164.957 113.776 164.823 113.462C164.695 113.168 164.567 112.825 164.61 112.5C164.678 112.015 164.931 111.552 165.163 111.127C165.4 110.704 165.647 110.282 165.902 109.869C167.7 106.961 169.899 104.282 171.319 101.152C172.484 98.5794 173.135 95.6667 172.43 92.8754C172.402 92.7631 172.227 92.8169 172.257 92.9344C172.666 94.5606 172.608 96.26 172.242 97.8918C171.525 101.085 169.719 103.851 167.902 106.524C166.894 108.004 165.87 109.477 165.001 111.044C164.682 111.621 164.309 112.297 164.466 112.974C164.552 113.353 164.719 113.737 164.933 114.079C163.072 112.872 161.036 111.969 159.016 111.066C158.923 111.023 158.826 110.981 158.734 110.939C158.734 110.939 158.734 110.939 158.732 110.933C157.772 109.627 157.268 108.05 157.102 106.445C156.759 103.173 157.878 100.074 159.085 97.0892C159.415 96.2727 159.751 95.4546 160.068 94.6318C160.367 93.8608 160.665 93.0768 160.853 92.2658C161.169 90.886 161.122 89.3258 160.206 88.1723C160.134 88.0821 159.979 88.1786 160.054 88.2704C161.207 89.7202 160.91 91.6736 160.363 93.307C159.273 96.5516 157.569 99.6138 157.024 103.03C156.606 105.653 156.898 108.56 158.417 110.797C156.526 109.947 154.636 109.062 152.919 107.884C151.982 107.238 151.123 106.502 150.318 105.708C150.314 105.701 150.314 105.693 150.305 105.685C150.295 105.68 150.288 105.672 150.275 105.665C149.547 104.943 148.863 104.177 148.207 103.389C147.115 102.076 146.085 100.714 145.008 99.3879C144.482 97.6695 144.4 95.8419 144.441 94.0562C144.51 90.8512 145.147 87.5963 144.486 84.4151C143.894 81.5839 141.945 78.6902 138.904 78.2103C138.787 78.1913 138.75 78.3685 138.867 78.3875C140.558 78.653 141.966 79.7468 142.925 81.1353C144.78 83.8217 144.709 87.2221 144.483 90.3433C144.273 93.2156 143.969 96.2233 144.722 99.0426C144.584 98.8737 144.447 98.7016 144.305 98.5311C142.889 96.8609 141.319 95.3542 139.575 94.0313C135.999 91.3216 131.936 89.3603 127.91 87.4302C127.806 87.3772 127.724 87.5394 127.827 87.5924C128.32 87.8274 128.814 88.0627 129.305 88.3009C133.175 90.176 137.054 92.1697 140.393 94.9103C139.286 94.542 138.051 94.6722 136.912 94.7821C135.484 94.9206 133.819 95.0199 132.693 93.9593C132.607 93.879 132.486 94.0127 132.572 94.0934C133.625 95.0883 135.179 95.1204 136.539 95.0005C137.954 94.8763 139.52 94.612 140.837 95.2917C140.843 95.2948 140.847 95.2885 140.853 95.2917C140.853 95.2917 140.853 95.2917 140.856 95.2932C142.503 96.7051 143.928 98.3179 145.281 100.009C146.575 101.629 147.816 103.291 149.216 104.826C149.349 104.972 149.488 105.116 149.624 105.259C148.139 104.502 146.318 104.563 144.73 105.008C142.895 105.522 141.292 106.622 139.729 107.676C138.177 108.723 136.592 109.677 134.864 110.397C131.535 111.781 127.899 112.396 124.301 112.175C124.184 112.165 124.196 112.35 124.311 112.356C126.272 112.477 128.245 112.351 130.175 111.987C131.907 111.66 133.601 111.143 135.22 110.444C136.89 109.718 138.419 108.778 139.925 107.764C141.495 106.705 143.109 105.615 144.965 105.131C146.68 104.686 148.689 104.705 150.164 105.804C151.346 106.963 152.641 107.982 154.075 108.832C156.046 109.992 158.164 110.872 160.242 111.813C160.42 111.896 160.595 111.977 160.771 112.058C159.515 112.1 158.278 112.515 157.179 113.116C155.996 113.76 154.972 114.655 153.965 115.539C152.924 116.459 151.875 117.363 150.744 118.171C148.55 119.742 146.155 121.017 143.63 121.961C143.519 122.002 143.576 122.178 143.684 122.135C145.069 121.615 146.42 121.001 147.714 120.291C148.876 119.654 149.999 118.943 151.066 118.164C152.162 117.361 153.178 116.474 154.195 115.578C155.215 114.684 156.261 113.787 157.473 113.163C158.598 112.584 159.86 112.202 161.134 112.235C161.139 112.233 161.137 112.228 161.141 112.23C162.687 112.957 164.196 113.755 165.585 114.741C164.94 114.805 164.398 115.211 163.963 115.679C163.321 116.361 162.784 117.158 162.244 117.921C161.203 119.401 160.255 120.94 159.391 122.53C158.56 124.064 157.771 125.636 156.71 127.027C155.746 128.293 154.558 129.342 153.136 130.055C151.802 130.724 150.322 131.085 148.831 131.101C148.714 131.104 148.724 131.284 148.84 131.282Z" fill="white"/>
<path d="M242.507 177.012V234.813H200.096V210.531C200.096 202.259 196.141 194.572 189.632 189.465C184.925 185.772 180.613 181.595 176.77 177.012H242.507Z" fill="#FFC052"/>
<path d="M242.509 177.012V192.26C241.86 192.171 241.199 192.122 240.526 192.122C232.467 192.122 225.934 198.655 225.934 206.714C225.934 214.773 232.467 221.307 240.526 221.307C241.199 221.307 241.86 221.257 242.509 221.169V234.813H284.929V210.538C284.929 202.242 288.917 194.555 295.439 189.429C300.13 185.746 304.425 181.582 308.256 177.012H242.509Z" fill="#FFDA99"/>
<path d="M258.104 138.063C258.104 146.121 251.568 152.657 243.509 152.657C243.176 152.657 242.837 152.637 242.508 152.617V177.013H176.77C163.502 161.186 155.847 140.498 156.873 118.003C157.212 110.544 158.533 103.311 160.703 96.4409H186.429C186.621 104.332 193.073 110.672 201.014 110.672C208.949 110.672 215.402 104.332 215.598 96.4409H242.508V123.508C242.837 123.488 243.176 123.468 243.509 123.468C251.568 123.468 258.104 130.004 258.104 138.063Z" fill="#FFDA99"/>
<path d="M242.508 36.3073V96.4713H215.598C215.401 104.362 208.949 110.702 201.014 110.702C193.073 110.702 186.621 104.362 186.43 96.4713H160.703C171.138 63.4673 201.25 38.7037 237.033 36.4794C238.869 36.3611 240.696 36.3073 242.508 36.3073ZM308.255 177.012H287.963C287.993 177.394 288.013 177.781 288.013 178.17C288.013 186.23 281.48 192.763 273.42 192.763C265.363 192.763 258.827 186.23 258.827 178.17C258.827 177.781 258.847 177.394 258.88 177.012H242.508V152.616C242.838 152.639 243.175 152.655 243.512 152.655C251.569 152.655 258.105 146.122 258.105 138.062C258.105 130.002 251.569 123.47 243.512 123.47C243.175 123.47 242.839 123.486 242.508 123.509V96.4401H277.146C277.984 89.1748 284.153 83.5353 291.641 83.5353C299.128 83.5353 305.294 89.1748 306.132 96.4401H324.368C326.887 104.513 328.245 113.103 328.245 122.008C328.245 142.95 320.731 162.128 308.255 177.012Z" fill="#FFC052"/>
<path d="M362.557 111.163C356.904 109.948 351.356 107.845 348.216 102.714C345.99 99.0743 344.807 93.5369 343.512 90.0035C342.744 87.9085 343.063 88.206 342.476 86.4737C340.635 85.7775 336.527 83.12 339.061 81.2006C342.535 78.57 344.793 82.6963 345.755 84.8087C346.717 86.9211 346.443 86.2249 347.481 87.8065C349.494 90.8778 351.032 94.6457 353.975 97.3697C356.538 99.7412 361.154 100.626 364.437 101.885C363.878 104.972 363.163 108.053 362.557 111.163Z" fill="#FFCBC7"/>
<path d="M362.562 111.171C356.854 109.843 351.43 107.992 348.201 102.679C345.911 98.9104 345.013 93.9557 343.418 89.806C344.766 89.0908 346.092 88.4302 347.387 87.7573C349.695 90.9358 350.94 94.625 353.966 97.3676C356.6 99.7554 361.111 100.617 364.442 101.886C363.877 104.976 363.162 108.044 362.562 111.171Z" fill="#F0894D"/>
<path d="M349.137 98.9437L331.793 93.3074C333.242 86.139 329.12 78.8701 322 76.556C314.878 74.2418 307.268 77.6984 304.226 84.349L271.284 73.6437L276.069 58.9192C275.845 58.8567 275.619 58.7903 275.395 58.7175C267.73 56.2265 263.536 47.9948 266.027 40.3291C268.518 32.6635 276.75 28.4699 284.415 30.9609C284.639 31.0337 284.861 31.1128 285.078 31.1971L289.878 16.4259C326.443 28.3053 349.565 62.4241 349.137 98.9437Z" fill="#FFDA99"/>
<path d="M364.501 95.1987C363.624 93.3782 363.352 90.335 366.271 89.2562C368.395 88.4714 370.14 88.325 372.091 89.7697C374.042 91.2144 374.822 94.4206 374.432 96.7273C373.965 99.4912 377.249 101.856 375.996 104.106C374.313 107.13 365.122 104.622 362.176 104.202C364.076 101.04 366.53 99.4121 364.501 95.1987Z" fill="#464E8C"/>
<path d="M364.973 183.711C364.861 184.825 366.082 186.025 366.122 187.174C361.349 188.074 356.542 188.785 351.734 189.508C352.641 185.659 357.433 185.993 360.626 184.823C361.091 165.55 353.513 142.949 358.443 124.051C359.938 124.053 360.035 124.503 361.792 124.473C363.549 124.443 366.557 124.307 368.575 124.231C368.746 141.835 365.128 182.17 364.973 183.711Z" fill="#FFCBC7"/>
<path d="M393.257 166.608C394.331 166.263 395.544 167.45 396.623 167.204C395.556 171.579 394.075 174.246 391.963 178.242C390.794 175.701 391.253 173.236 390.855 170.542C387.663 169.686 370.943 163.516 368.76 158.399C364.716 148.915 359.153 138.055 361.663 124.471C364.487 124.451 367.314 124.275 370.129 124.21C375.208 131.913 376.07 152.286 377.334 154.553C379.785 158.95 392.1 165.059 393.257 166.608Z" fill="#FFCBC7"/>
<path d="M355.082 186.241C353.893 186.784 349.954 187.286 350.839 189.532C351.725 191.778 363.212 189.852 365.252 188.731C367.292 187.61 365.486 185.254 364.909 183.886C363.014 187.453 357.671 189.268 354.194 187.675C352.887 187.076 354.847 186.47 355.082 186.241Z" fill="#464E8C"/>
<path d="M391.252 175.187C391.291 175.998 390.423 180.308 392.423 179.946C394.423 179.585 398.137 168.915 397.35 166.852C396.451 164.494 394.066 166.303 393.288 166.597C396.094 168.655 394.446 174.753 392.171 176.209C391.38 176.716 391.225 175.558 391.252 175.187Z" fill="#1F1C80"/>
<path d="M383.502 153.29C383.502 153.29 380.75 156.188 378.244 155.514C378.244 155.514 375.351 159.677 371.036 156.649C367.663 158.625 364.344 158.545 361.071 156.409C356.619 159.224 353.925 154.927 353.925 154.927C351.391 155.479 348.781 152.452 348.781 152.452C351.461 141.186 356.895 131.639 358.35 123.624L370.411 124.315C374.051 128.118 376.066 143.672 383.502 153.29Z" fill="#464E8C"/>
<path d="M365.898 101.238C355.853 104.136 359.841 118.704 357.953 124.435C360.629 127.025 366.8 124.613 370.64 124.6C369.876 116.183 377.246 108.014 369.412 101.357C368.241 101.3 367.023 100.913 365.898 101.238Z" fill="#FF9C61"/>
<path d="M369.414 101.381C368.245 102.006 365.15 104.131 365.918 101.203C365.957 101.055 366.131 100.557 366.306 100.24C366.692 99.5387 366.88 98.3547 367.363 97.6561C367.846 96.9575 369.026 96.7186 369.676 96.2019C369.644 97.2028 369.555 98.7198 369.513 99.5838C369.47 100.448 369.454 100.64 369.414 101.381Z" fill="#FFCBC7"/>
<path d="M369.51 99.6541C369.241 99.7981 368.876 99.9623 368.6 100.039C367.799 100.261 367.107 100.351 366.281 100.26C366.756 99.4828 366.854 98.3827 367.362 97.6592C367.869 96.9357 369.012 96.7438 369.679 96.19C369.639 97.3578 369.567 98.4951 369.51 99.6541Z" fill="#F0B2AD"/>
<path d="M365.047 99.4711C363.532 98.8093 363.86 93.798 365.098 92.1939C366.392 93.8138 368.672 93.758 370.503 93.1615C370.353 93.5749 370.427 94.9266 370.115 95.4531C370.408 94.959 371.915 94.7229 371.738 95.6925C371.578 96.5766 370.576 97.077 369.802 97.3484C369.132 99.2155 367.064 100.352 365.047 99.4711Z" fill="#FFCBC7"/>
<path d="M364.23 94.4717C364.23 94.4717 364.395 93.0867 365.326 92.4514C365.326 92.4514 365.751 93.9926 367.04 94.4819C367.04 94.4819 367.069 93.7556 367.432 93.4665C367.432 93.4665 367.666 94.6085 368.783 95.465C369.826 96.2648 368.877 98.1443 368.507 98.5612C368.507 98.5612 370.416 97.4219 370.183 95.3119C370.183 95.3119 371.713 93.978 371.739 93.9119C371.765 93.8454 371.619 92.3422 371.619 92.3422C371.619 92.3422 368.008 91.4375 368 91.398C367.993 91.3584 366.527 90.8964 366.527 90.8964L365.403 91.0119L364.561 91.3232L364.23 94.4717Z" fill="#464E8C"/>
<path d="M366.81 115.342C361.179 116.962 355.899 118.792 350.145 115.799C345.557 113.412 343.585 105.906 342.467 101.412C341.937 99.2839 342.079 99.1807 341.686 97.3982C339.779 95.9195 337.028 93.4245 339.644 91.1353C342.942 88.2487 344.641 93.921 344.979 95.7719C345.528 98.776 350.481 107.437 352.115 107.92C358.167 109.708 362.022 106.525 367.178 105.126C366.999 108.472 366.798 111.888 366.81 115.342Z" fill="#FFCBC7"/>
<path d="M366.813 115.348C361.15 116.877 355.94 118.91 350.136 115.771C345.508 113.269 342.746 106.733 341.473 101.761C342.749 100.486 344.921 99.5908 346.311 98.5299C347.021 100.735 350.48 107.48 352.122 107.944C358.149 109.643 362.034 106.568 367.178 105.123C367.002 108.479 366.796 111.878 366.813 115.348Z" fill="#FF9C61"/>
<path d="M195.598 231.098V270.074C195.598 286.095 207.39 299.936 224.117 305.909C225.361 312.099 233.118 316.868 242.507 316.868C251.896 316.868 259.653 312.1 260.897 305.909C277.625 299.936 289.417 286.096 289.417 270.074V231.098H195.598Z" fill="#323C7D"/>
<path d="M275.565 231.098V270.074C275.565 286.096 271.312 298.512 254.584 304.484C254.874 315.855 241.646 314.281 235.582 315.951C237.723 316.541 240.059 316.868 242.508 316.868C251.898 316.868 259.654 312.1 260.898 305.909C277.626 299.936 289.418 286.096 289.418 270.074V231.098H275.565Z" fill="#202969"/>
<path d="M291.369 239.588H193.641C190.416 239.588 187.777 236.949 187.777 233.724C187.777 230.499 190.416 227.861 193.641 227.861H291.369C294.594 227.861 297.233 230.499 297.233 233.724C297.233 236.949 294.594 239.588 291.369 239.588Z" fill="#5A629C"/>
<path d="M294.776 228.966C295.233 229.8 295.495 230.755 295.495 231.769C295.495 234.994 292.856 237.632 289.631 237.632H191.903C190.633 237.632 189.459 237.219 188.496 236.527C189.495 238.347 191.43 239.588 193.641 239.588H291.369C294.594 239.588 297.233 236.949 297.233 233.724C297.233 231.768 296.259 230.033 294.776 228.966Z" fill="#4E5791"/>
<path d="M291.369 262.222H193.641C190.416 262.222 187.777 259.583 187.777 256.358C187.777 253.133 190.416 250.495 193.641 250.495H291.369C294.594 250.495 297.233 253.133 297.233 256.358C297.233 259.583 294.594 262.222 291.369 262.222Z" fill="#5A629C"/>
<path d="M294.776 251.6C295.233 252.434 295.495 253.389 295.495 254.403C295.495 257.628 292.856 260.266 289.631 260.266H191.903C190.633 260.266 189.459 259.853 188.496 259.161C189.495 260.981 191.43 262.222 193.641 262.222H291.369C294.594 262.222 297.233 259.583 297.233 256.358C297.233 254.402 296.259 252.667 294.776 251.6Z" fill="#4E5791"/>
<path d="M291.369 284.856H193.641C190.416 284.856 187.777 282.217 187.777 278.992C187.777 275.767 190.416 273.129 193.641 273.129H291.369C294.594 273.129 297.233 275.767 297.233 278.992C297.233 282.217 294.594 284.856 291.369 284.856Z" fill="#5A629C"/>
<path d="M294.776 274.234C295.233 275.068 295.495 276.023 295.495 277.036C295.495 280.261 292.856 282.9 289.631 282.9H191.903C190.633 282.9 189.459 282.487 188.496 281.795C189.495 283.614 191.43 284.856 193.641 284.856H291.369C294.594 284.856 297.233 282.217 297.233 278.992C297.233 277.036 296.259 275.301 294.776 274.234Z" fill="#4E5791"/>
<path d="M313.852 319.038H343.384L345.964 305.411L346.252 303.896L348.944 289.651L349.232 288.137L351.928 273.888L352.216 272.373L354.912 258.125L355.2 256.61L357.896 242.365L358.18 240.85L360.705 227.507L360.993 225.992L363.86 210.838L364.148 209.323L367.301 192.662H383.49L386.643 209.323L386.931 210.838L389.798 225.992L390.086 227.507L392.611 240.85L392.895 242.365L395.591 256.61L395.879 258.125L398.575 272.373L398.863 273.888L401.559 288.137L401.847 289.651L404.539 303.896L404.827 305.411L407.407 319.038H436.94L434.321 305.411L434.03 303.896L431.295 289.651L431.003 288.137L428.264 273.888L427.973 272.373L425.238 258.125L424.946 256.61L422.207 242.365L421.919 240.85L419.356 227.507L419.064 225.992L416.15 210.838L415.862 209.323L412.659 192.662H413.588V190.295H337.381V192.662H338.133L334.93 209.323L334.643 210.838L331.728 225.992L331.436 227.507L328.873 240.85L328.585 242.365L325.846 256.61L325.555 258.125L322.819 272.373L322.528 273.888L319.788 288.137L319.497 289.651L316.762 303.896L316.47 305.411L313.852 319.038ZM406.41 305.411H432.741L435.067 317.523H408.701L406.41 305.411ZM403.426 289.651H429.71L432.449 303.896H406.122L403.426 289.651ZM400.442 273.888H426.683L429.423 288.136H403.139L400.442 273.888ZM397.458 258.124H423.652L426.391 272.373H400.158L397.458 258.124ZM394.478 242.365H420.626L423.361 256.609H397.174L394.478 242.365ZM391.665 227.507H417.77L420.334 240.85H394.19L391.665 227.507ZM388.51 210.838H414.569L417.479 225.992H391.378L388.51 210.838ZM385.071 192.662H411.075L414.277 209.323H388.223L385.071 192.662ZM362.568 209.323H336.514L339.716 192.662H365.719L362.568 209.323ZM359.413 225.992H333.312L336.222 210.838H362.28L359.413 225.992ZM356.6 240.85H330.456L333.02 227.507H359.125L356.6 240.85ZM353.616 256.609H327.429L330.164 242.365H356.312L353.616 256.609ZM350.632 272.373H324.399L327.138 258.124H353.332L350.632 272.373ZM347.652 288.136H321.368L324.107 273.888H350.348L347.652 288.136ZM344.668 303.896H318.341L321.08 289.651H347.364L344.668 303.896ZM342.089 317.523H315.723L318.049 305.411H344.38L342.089 317.523Z" fill="#5A629C"/>
<path d="M84.7342 248.602C82.0735 249.359 80.1066 248.835 77.9602 247.615C75.3636 248.627 73.653 249.516 70.5497 249.524C67.2426 249.533 63.1044 249.764 59.594 248.344C55.6314 246.741 51.5011 243.804 47.7411 241.558C45.2232 237.856 43.8956 234.654 48.9053 233.056C54.1282 235.473 57.7881 239.51 62.168 243.116C65.2465 243.298 67.9558 244.11 71.1019 244.467C73.2567 244.711 75.9597 244.592 78.2094 244.759C79.3847 244.086 80.5924 243.537 81.9825 243.719C83.3726 243.901 82.6249 245.003 81.7882 245.601C82.9022 246.372 86.9799 247.962 84.7342 248.602Z" fill="#F9C2C2"/>
<path d="M71.0549 244.475C70.9196 246.179 70.8156 247.85 70.6633 249.575C67.0919 249.4 63.0222 249.827 59.6546 248.355C55.8534 246.693 50.8611 243.96 47.9607 241.526C43.0214 237.381 47.147 231.476 52.1199 230.794C57.3056 233.651 58.2154 239.135 62.176 243.115C65.1749 243.24 68.1268 243.832 71.0549 244.475Z" fill="#EB864B"/>
<path d="M154.998 266.599H152.096C151.269 262.827 149.889 259.257 148.043 255.996L150.449 253.584C154.044 249.979 154.044 244.136 150.449 240.531C146.854 236.927 141.025 236.927 137.429 240.531L135.374 242.592C132.21 240.557 128.737 238.988 125.037 237.966C125.035 237.966 125.034 237.965 125.033 237.965V234.554C125.033 229.457 120.911 225.324 115.827 225.324C110.742 225.324 106.62 229.457 106.62 234.554V237.464C102.857 238.293 99.297 239.676 96.0441 241.527L93.6378 239.115C90.0427 235.511 84.2134 235.511 80.6183 239.115C77.0232 242.719 77.0232 248.563 80.6183 252.167L82.6726 254.226C80.642 257.399 79.0771 260.881 78.0573 264.592C78.0569 264.593 78.0569 264.594 78.0565 264.595H74.6553C69.5708 264.595 65.4492 268.727 65.4492 273.824C65.4492 278.922 69.5708 283.054 74.6553 283.054H77.5561C78.3825 286.826 79.7631 290.396 81.6092 293.658L79.2045 296.069C75.609 299.673 75.609 305.517 79.2045 309.121C82.7996 312.726 88.6289 312.726 92.224 309.121L94.2715 307.068C94.2723 307.069 94.2735 307.07 94.2735 307.07C97.4382 309.097 100.919 310.666 104.62 311.697V315.099C104.62 320.197 108.742 324.329 113.826 324.329C118.911 324.329 123.032 320.197 123.032 315.099V312.192C126.796 311.363 130.357 309.979 133.61 308.128L136.015 310.539C139.61 314.143 145.439 314.143 149.035 310.539C152.63 306.935 152.63 301.091 149.035 297.486L146.986 295.433L146.986 295.433C149.009 292.26 150.573 288.769 151.602 285.059H154.998C160.082 285.059 164.204 280.926 164.204 275.829C164.205 270.731 160.083 266.599 154.998 266.599ZM142.239 274.827C142.239 290.001 129.962 302.308 114.826 302.308C99.6914 302.308 87.4148 290 87.4148 274.827C87.4148 259.646 99.6918 247.346 114.826 247.346C129.962 247.346 142.239 259.646 142.239 274.827Z" fill="#326AB3"/>
<path d="M97.5039 274.827C97.5039 284.42 105.261 292.196 114.829 292.196C124.397 292.196 132.162 284.42 132.162 274.827C132.162 265.235 124.397 257.45 114.829 257.45C105.261 257.45 97.5039 265.235 97.5039 274.827Z" fill="#326AB3"/>
<path d="M60.8878 220.11C60.7379 219.917 60.5239 219.747 60.4329 219.529C60.3419 219.31 60.4099 219.15 60.3106 218.938C60.008 218.297 59.3197 218.102 58.6575 217.958C57.593 217.727 56.5075 217.524 55.4877 217.985C55.0612 218.177 54.7998 218.483 54.3243 218.487C54.1059 218.488 53.9089 218.375 53.7091 218.335C52.0766 218.014 50.4475 218.532 50.082 220.305C49.9768 220.817 50.2074 221.046 50.052 221.621C49.7276 222.821 48.324 223.555 49.3589 224.986C50.3941 226.418 51.7542 227.373 53.7072 227.549C55.9628 227.753 58.0792 225.675 59.5717 224.073C60.4368 223.79 61.1699 223.375 61.4658 222.48C61.7613 221.584 61.4345 220.815 60.8878 220.11Z" fill="#3F4883"/>
<path d="M60.0707 292.642C57.7569 299.299 54.7956 305.662 51.7385 311.927C54.9281 314.004 58.16 316.086 61.3698 318.151C56.838 318.268 52.2903 318.176 47.7676 318.425C47.9769 315.028 48.4864 315.641 48.6276 311.301C48.7688 306.961 49.0212 297.87 50.3318 292.702C51.1985 289.287 52.1598 286.284 53.8105 283.326C44.8494 278.928 40.0486 272.593 39.0715 262.055C39.0228 261.531 39.128 260.856 39.1253 260.313C43 260.566 46.8221 260.835 50.721 261.054C55.4047 267.35 60.9995 273.799 62.4398 281.983C63.0257 285.311 61.1613 289.504 60.0707 292.642Z" fill="#F9CBCB"/>
<path d="M59.3433 294.711C57.6593 294.413 55.5358 293.842 54.0314 293.497C52.5265 293.152 51.7101 292.945 50.3354 292.627C51.1653 289.36 52.1883 286.241 53.813 283.344C49.7041 281.328 46.3728 279.322 43.4127 275.355C40.6562 271.661 39.2436 266.968 39.0739 262.063C39.0565 261.557 39.1067 260.833 39.1301 260.316C42.9997 260.556 46.8293 260.854 50.7219 261.041C55.4392 267.542 60.9584 273.505 62.4541 282.105C63.0625 285.601 60.5807 291.243 59.3433 294.711Z" fill="#3F4883"/>
<path d="M57.2348 282.753C55.2774 286.059 54.131 289.543 53.9609 293.482C52.7536 293.196 51.551 292.915 50.3461 292.63C51.1487 289.347 52.1966 286.264 53.8094 283.326C49.5787 281.66 45.7055 279.78 43.4317 275.464C43.4261 275.453 43.4178 275.43 43.4242 275.42C44.567 273.429 45.6244 271.39 46.7233 269.372C48.8591 274.773 51.873 278.433 56.8471 281.028C57.4745 281.355 57.6205 282.101 57.2348 282.753Z" fill="#333B73"/>
<path d="M41.125 294.44C39.2373 297.156 37.4073 297.264 35.63 298.338C30.6784 301.33 26.075 302.459 21.0499 304.69C20.453 303.722 19.8311 302.844 19.2188 301.911C22.5927 297.794 26.077 294.097 30.2773 290.9C31.7157 289.806 33.3656 288.862 34.9136 287.922C34.0579 278.051 33.8514 269.611 37.2076 260.171C38.8848 260.274 40.928 260.438 42.5179 260.542C44.1077 260.646 45.2439 260.73 46.7479 260.796C46.9785 261.554 47.1181 261.559 47.1905 262.55C47.9073 272.32 46.4955 286.713 41.125 294.44Z" fill="#F9CBCB"/>
<path d="M41.1139 294.488C39.1107 297.46 37.6799 296.552 35.5425 298.541C34.5263 296.901 32.7766 294.469 31.8889 293.19C31.0008 291.911 30.9735 291.912 30.25 290.875C31.7861 289.846 33.3193 288.838 34.9175 287.922C34.0476 278.048 33.8668 269.612 37.1969 260.169C38.21 260.233 39.0905 260.302 40.1135 260.368C41.1369 260.433 41.3861 260.478 42.6884 260.549C43.991 260.62 46.5295 260.654 48.0513 260.78C48.6641 271.412 46.8135 286.032 41.1139 294.488Z" fill="#3F4883"/>
<path d="M37.076 277.58C36.8553 281.975 37.1437 285.499 37.65 289.684C35.7164 290.78 33.7622 291.964 31.8013 293.058C31.289 292.339 30.7775 291.617 30.2656 290.896C31.7692 289.819 33.3298 288.851 34.9185 287.922C34.0518 278.049 33.8643 269.612 37.2018 260.169C38.1726 260.233 39.1421 260.303 40.1129 260.368C40.3776 260.517 40.6561 260.633 40.914 260.801C38.5286 265.928 37.3525 272.074 37.076 277.58Z" fill="#333B73"/>
<path d="M57.5623 239.45C58.02 247.194 53.5317 252.939 52.9601 260.587C52.9253 261.053 52.3687 261.655 51.7769 261.788C48.5153 262.523 45.321 262.862 41.9981 262.303C40.2907 262.015 38.6305 261.71 37.0248 260.996C36.2372 260.645 35.6679 260.319 35.9065 259.005C36.651 254.906 37.9121 249.591 38.992 245.455C39.5803 243.201 41.0162 238.745 41.6282 237.49C43.7505 233.135 45.6924 229.947 50.1574 229.22C51.0558 230.554 52.5404 230.91 53.9934 231.419C55.3906 233.79 57.399 236.689 57.5623 239.45Z" fill="#FF9C61"/>
<path d="M41.9876 262.336C40.321 261.895 38.6089 261.785 37.023 260.996C36.2449 260.609 35.6566 260.359 35.9055 259.005C36.682 254.783 37.8632 249.774 38.995 245.422C38.3601 251.24 37.4384 257.877 41.9876 262.336Z" fill="#EB864B"/>
<path d="M48.6666 311.811C47.5685 313.906 47.5234 316.003 47.7623 318.341C52.3 318.28 56.8271 318.611 61.3661 318.55C60.3894 313.75 55.9952 313.764 52.2494 312.21C51.9638 312.091 51.584 312.019 51.1979 312.205C50.2454 312.664 49.4637 312.633 48.6666 311.811ZM19.7549 301.387C17.7778 301.907 16.6365 303.301 15.5625 305.06C18.7754 308.855 21.9646 312.667 25.1629 316.478C27.1448 312.115 23.7175 308.617 22.0457 304.645C21.9184 304.342 21.6952 303.972 21.3107 303.767C20.3637 303.261 19.8582 302.559 19.7549 301.387Z" fill="#3F4883"/>
<path d="M60.0119 223.102C59.1839 225.331 58.856 228.425 56.0165 229.164C54.2189 229.631 52.0942 226.877 52.5907 224.929C52.226 223.926 52.1809 222.53 53.3668 222.196C54.2122 221.958 54.1196 223.74 55.1327 223.669C55.5172 223.642 55.7059 221.222 56.8599 221.446C58.0134 221.669 58.7717 222.897 60.0119 223.102Z" fill="#F9CBCB"/>
<path d="M53.9706 231.408C54.255 230.411 54.5411 229.414 54.8267 228.417C54.2958 227.703 53.7709 226.984 53.2408 226.269C52.2095 227.263 51.1778 228.258 50.1445 229.249C51.1663 230.589 52.3341 231.156 53.9706 231.408ZM69.4028 246.384C69.5907 247.888 69.7821 249.394 69.97 250.897C72.1738 250.532 74.3852 250.084 76.5553 249.62C78.8406 250.883 81.0069 251.567 83.6648 250.359C85.9014 249.343 81.2806 247.733 80.0737 247.075C80.8126 246.352 81.3862 245.161 79.9878 245.181C78.589 245.201 77.4632 245.928 76.4149 246.756C74.0766 246.714 71.7387 246.554 69.4028 246.384Z" fill="#F9CBCB"/>
<path d="M47.1482 245.237C49.547 247.207 53.7109 250.608 57.759 251.397C61.341 252.094 66.2802 251.949 70.0695 251.379C69.9948 249.682 69.8172 247.976 69.6914 246.276C66.7269 245.761 63.4724 245.193 60.6028 245.225C54.9602 242.354 55.7003 238.534 48.5968 234.902C42.5064 231.788 41.5459 240.636 47.1482 245.237Z" fill="#FF9F66"/>
<path d="M185.705 139.098C185.705 139.098 188.133 152.764 191.677 153.708C193.281 154.135 195.342 153.776 197.31 153.11C200.637 151.984 203.696 149.982 203.802 149.435L207.178 139.188C205.235 140.025 194.164 146.336 193.26 146.94C191.795 144.742 188.619 139.021 188.514 138.601C188.514 138.601 189.2 135.517 188.594 134.65C188.056 133.882 187.858 136.4 187.631 136.095C187.384 135.759 185.917 132.194 184.942 133.235C182.777 135.557 185.705 139.098 185.705 139.098Z" fill="#F9CBCB"/>
<path d="M195.129 145.489C195.382 148.163 196.933 151.779 197.095 153.454C200.423 152.328 204.434 151.951 204.54 151.405L207.179 139.188C205.235 140.025 198.991 143.197 195.129 145.489Z" fill="#4E85CC"/>
<path d="M175.602 131.981C176.518 131.432 177.47 131.056 178.452 130.814C178.601 130.778 178.751 130.744 178.902 130.714C180.469 130.397 182.107 130.408 183.787 130.604C183.935 130.622 184.085 130.64 184.235 130.661C184.43 130.687 184.627 130.716 184.823 130.747C184.903 130.76 184.983 130.772 185.063 130.787C185.147 130.799 185.232 130.814 185.317 130.83C185.391 130.842 185.466 130.855 185.541 130.869C185.66 130.601 185.775 130.331 185.883 130.058C186.473 128.579 186.899 127.016 187.153 125.359C187.198 125.068 187.237 124.775 187.271 124.479C187.199 124.456 187.127 124.433 187.054 124.41C186.974 124.383 186.893 124.357 186.813 124.332C186.735 124.306 186.656 124.28 186.577 124.254C186.369 124.186 186.162 124.116 185.956 124.045C185.814 123.996 185.672 123.945 185.531 123.894C184.026 123.346 182.599 122.668 181.438 121.541C181.325 121.431 181.214 121.316 181.106 121.198C180.433 120.458 179.866 119.542 179.445 118.377L175.602 131.981Z" fill="white"/>
<path d="M175.965 130.692L179.444 118.376C179.491 118.505 179.54 118.631 179.59 118.755L175.965 130.692Z" fill="#D8DAEB"/>
<path d="M175.602 131.981C178.32 130.35 181.369 130.237 184.547 130.705C184.639 130.718 184.731 130.733 184.823 130.747C184.842 130.75 184.86 130.752 184.878 130.755C184.939 130.766 185.001 130.775 185.063 130.786C185.106 130.793 185.149 130.8 185.193 130.808C185.234 130.814 185.276 130.822 185.317 130.829C185.375 130.839 185.435 130.848 185.493 130.86C185.509 130.862 185.525 130.865 185.541 130.868C185.661 130.601 185.774 130.331 185.884 130.058C185.842 130.148 185.802 130.238 185.759 130.327C185.754 130.326 185.749 130.325 185.743 130.324C185.675 130.309 185.606 130.294 185.537 130.281C185.501 130.273 185.465 130.265 185.429 130.257C185.381 130.247 185.333 130.238 185.285 130.229C185.229 130.217 185.172 130.205 185.116 130.195C185.094 130.189 185.071 130.185 185.049 130.181C184.964 130.164 184.878 130.148 184.793 130.132C181.637 129.547 178.596 129.548 175.856 131.086L175.602 131.981Z" fill="#E6E7F5"/>
<path d="M171.379 123.43C170.286 127.467 171.475 131.301 174.036 131.994C176.596 132.687 179.558 129.977 180.651 125.941C181.744 121.904 180.555 118.07 177.994 117.376C175.434 116.683 172.472 119.393 171.379 123.43Z" fill="#326AB3"/>
<path d="M191.151 126.059L189.695 131.437C190.349 131.571 191.841 132.133 192.501 132.036C194.203 131.958 195.497 130.139 194.98 128.489C194.597 126.768 192.587 126.423 191.151 126.059Z" fill="white"/>
<path d="M189.796 131.066L189.695 131.437C190.349 131.571 191.841 132.133 192.501 132.036C194.203 131.958 195.497 130.139 194.98 128.489C194.899 128.207 194.772 127.938 194.608 127.695C195.38 129.331 194.119 131.451 192.328 131.562C191.671 131.677 190.439 131.213 189.796 131.066Z" fill="#E6E7F5"/>
<path d="M172.056 123.614C171.122 127.059 172.044 130.307 174.115 130.867C174.875 131.073 175.686 130.888 176.451 130.4C177.004 130.048 177.533 129.541 178.006 128.909C178.173 128.685 178.333 128.446 178.484 128.194C178.493 128.179 178.501 128.164 178.51 128.149C178.942 127.418 179.303 126.57 179.554 125.644C179.752 124.911 179.867 124.187 179.904 123.496C179.91 123.386 179.914 123.276 179.916 123.168C179.916 123.164 179.916 123.158 179.916 123.154C179.93 122.393 179.848 121.678 179.679 121.043C179.318 119.675 178.557 118.679 177.494 118.391C175.422 117.83 172.988 120.168 172.056 123.614Z" fill="white"/>
<path d="M184.129 137.182C184.234 137.21 184.344 137.156 184.384 137.055C184.854 135.872 185.591 135.273 186.11 134.314C186.753 133.127 186.745 131.382 188.085 130.458L190.48 131.106L187.045 137.691C186.979 137.817 187.047 137.972 187.184 138.008C187.3 138.04 187.369 138.16 187.337 138.276L187.132 139.035C187.1 139.152 186.98 139.221 186.864 139.189L183.81 138.362C183.693 138.33 183.624 138.21 183.656 138.094L183.862 137.335C183.893 137.219 184.013 137.15 184.129 137.182Z" fill="#326AB3"/>
<path d="M186.395 138.724C186.511 138.755 186.631 138.687 186.663 138.57L186.869 137.811C186.9 137.695 186.831 137.575 186.715 137.543C186.578 137.506 186.51 137.352 186.576 137.226L189.856 130.937L190.48 131.106L187.045 137.692C186.979 137.817 187.047 137.972 187.184 138.009C187.3 138.041 187.369 138.16 187.337 138.277L187.132 139.036C187.1 139.152 186.98 139.221 186.864 139.189L183.81 138.362C183.693 138.33 183.624 138.211 183.656 138.094L183.685 137.989L186.395 138.724Z" fill="#1C559E"/>
<path d="M174.835 130.061C175.388 129.71 175.917 129.202 176.39 128.57C176.557 128.346 176.716 128.107 176.868 127.855C176.876 127.84 176.885 127.826 176.894 127.81C177.326 127.079 177.686 126.231 177.937 125.305C178.135 124.572 178.25 123.848 178.286 123.157C178.293 123.046 178.297 122.937 178.299 122.829C178.299 122.825 178.299 122.819 178.299 122.814C178.313 122.054 178.231 121.339 178.062 120.704C177.778 119.629 177.246 118.784 176.515 118.332C176.846 118.286 177.175 118.303 177.495 118.39C178.559 118.678 179.32 119.675 179.681 121.043C179.849 121.678 179.931 122.393 179.918 123.153C179.917 123.158 179.918 123.163 179.917 123.168C179.915 123.276 179.912 123.385 179.905 123.496C179.869 124.186 179.754 124.911 179.555 125.643C179.304 126.57 178.944 127.417 178.512 128.149C178.503 128.164 178.494 128.179 178.486 128.193C178.334 128.446 178.175 128.685 178.008 128.908C177.534 129.54 177.006 130.048 176.453 130.399C175.687 130.887 174.877 131.073 174.116 130.867C173.888 130.805 173.676 130.709 173.477 130.586C173.933 130.524 174.391 130.344 174.835 130.061Z" fill="#E6E7F5"/>
<path d="M191.909 125.847C192.592 126.136 192.934 126.995 192.705 127.842L191.922 130.731C191.692 131.579 190.964 132.147 190.228 132.053C189.049 131.896 187.63 131.762 186.481 131.612C185.682 131.507 185.151 130.766 185.417 130.112C186.124 128.372 186.581 126.581 186.823 124.729C186.889 124.223 187.48 123.943 188.02 124.161C189.36 124.701 190.608 125.287 191.909 125.847Z" fill="#326AB3"/>
<path d="M174.777 125.995L178.51 128.149C178.942 127.418 179.303 126.57 179.554 125.644C179.752 124.911 179.867 124.187 179.904 123.496C179.91 123.386 179.914 123.276 179.916 123.168C179.916 123.164 179.916 123.158 179.916 123.154L175.497 123.427L174.777 125.995Z" fill="white"/>
<path d="M177.423 126.963C177.912 127.245 178.541 127.048 178.773 126.533C178.994 126.042 179.184 125.515 179.335 124.959C179.499 124.351 179.605 123.75 179.658 123.169L179.916 123.153C179.916 123.158 179.916 123.163 179.916 123.168C179.914 123.276 179.91 123.385 179.904 123.496C179.867 124.186 179.752 124.911 179.554 125.643C179.303 126.57 178.943 127.417 178.51 128.149L174.777 125.994L174.912 125.514L177.423 126.963Z" fill="#E6E7F5"/>
<path d="M174.134 124.488C173.933 125.23 174.168 125.939 174.658 126.072C175.148 126.205 175.709 125.711 175.91 124.968C176.111 124.226 175.876 123.517 175.386 123.384C174.896 123.252 174.335 123.746 174.134 124.488Z" fill="#326AB3"/>
<path d="M174.247 124.519C174.072 125.166 174.249 125.777 174.641 125.883C175.033 125.989 175.494 125.551 175.669 124.904C175.844 124.256 175.668 123.646 175.276 123.54C174.883 123.433 174.422 123.871 174.247 124.519Z" fill="#1C559E"/>
<path d="M175.129 124.809C175.182 124.61 175.144 124.426 175.043 124.399C174.942 124.372 174.817 124.511 174.763 124.709C174.709 124.908 174.747 125.092 174.848 125.119C174.949 125.146 175.075 125.007 175.129 124.809Z" fill="white"/>
<path d="M186.327 130.809C187.476 130.959 188.896 131.093 190.075 131.25C190.81 131.345 191.539 130.776 191.768 129.928L192.551 127.039C192.593 126.883 192.616 126.726 192.621 126.573C192.786 126.942 192.826 127.393 192.705 127.842L191.922 130.731C191.692 131.579 190.964 132.147 190.228 132.053C189.05 131.896 187.63 131.762 186.481 131.612C185.731 131.514 185.218 130.855 185.376 130.234C185.573 130.529 185.914 130.755 186.327 130.809Z" fill="#1C559E"/>
<path d="M189.523 126.874L191.164 127.318C191.406 127.383 191.655 127.241 191.72 126.999C191.786 126.757 191.643 126.508 191.401 126.443L189.76 125.999C189.519 125.933 189.269 126.076 189.203 126.318C189.138 126.559 189.281 126.808 189.523 126.874Z" fill="white"/>
<path d="M189.182 126.58L191.222 127.133C191.354 127.169 191.49 127.091 191.525 126.959L191.633 126.56C191.638 126.544 191.64 126.527 191.641 126.512C191.747 126.562 191.806 126.682 191.774 126.799L191.666 127.198C191.631 127.33 191.495 127.407 191.363 127.372L189.323 126.819C189.208 126.788 189.134 126.68 189.141 126.565C189.154 126.571 189.168 126.577 189.182 126.58Z" fill="#CFD2EB"/>
<path d="M190.754 128.254L191.009 128.324C191.19 128.373 191.376 128.266 191.425 128.085C191.474 127.905 191.367 127.718 191.187 127.669L190.931 127.601C190.751 127.552 190.565 127.658 190.516 127.839C190.467 128.02 190.574 128.205 190.754 128.254Z" fill="white"/>
<path d="M190.541 128.116L191.123 128.274C191.213 128.298 191.306 128.245 191.33 128.154L191.419 127.827C191.426 127.803 191.426 127.778 191.422 127.755C191.466 127.796 191.486 127.859 191.469 127.921L191.381 128.249C191.356 128.339 191.263 128.392 191.173 128.368L190.591 128.211C190.525 128.193 190.479 128.139 190.469 128.075C190.489 128.094 190.513 128.109 190.541 128.116Z" fill="#CFD2EB"/>
<path d="M189.856 127.66C189.914 127.446 189.788 127.225 189.573 127.167C189.359 127.109 189.138 127.235 189.081 127.45C189.022 127.664 189.149 127.885 189.363 127.943C189.577 128.001 189.798 127.874 189.856 127.66Z" fill="white"/>
<path d="M189.332 127.88C189.547 127.938 189.767 127.811 189.825 127.597C189.849 127.509 189.841 127.421 189.809 127.342C189.866 127.434 189.888 127.547 189.857 127.66C189.799 127.874 189.578 128.001 189.364 127.943C189.238 127.908 189.143 127.817 189.098 127.704C189.149 127.787 189.23 127.852 189.332 127.88Z" fill="#CFD2EB"/>
<path d="M191.914 132.016C192.111 132.043 192.307 132.05 192.5 132.036C193.79 130.793 194.335 128.447 194.072 127.106C193.907 126.97 193.724 126.851 193.526 126.754C194.02 128.172 193.36 130.632 191.914 132.016Z" fill="#326AB3"/>
<path d="M208.072 197.458C208.771 200.062 209.203 202.399 209.432 204.571C210.021 210.122 209.855 218.668 208.839 224.069L205.994 223.79C205.994 223.79 201.973 209.191 200.073 201.725C199.585 199.83 199.206 198.138 199.009 196.862C197.861 189.576 202.113 168.937 202.385 167.601L202.397 167.549L202.4 167.53L213.852 165.931C219.936 180.407 212.719 184.048 208.072 197.458Z" fill="#F1CCCD"/>
<path d="M213.471 185.564C211.855 188.888 209.789 192.505 208.072 197.459C208.705 199.817 209.426 202.268 210.26 205.127L200.356 206.51C199.868 204.616 199.206 198.138 199.009 196.862C197.861 189.576 202.113 168.937 202.385 167.601L202.397 167.549L202.4 167.53L213.852 165.931C217.692 175.063 216.235 179.88 213.471 185.564Z" fill="#2C3469"/>
<path d="M213.469 185.564C211.853 188.888 209.787 192.505 208.07 197.459C208.703 199.817 209.425 202.268 210.259 205.127L208.431 205.382C208.118 202.554 205.62 197.906 204.781 198.055C205.524 197.871 212.331 184.541 212.849 179.925L213.469 185.564Z" fill="#232A54"/>
<path d="M220.06 227.402L227.037 219.315C227.037 219.315 221.914 211.313 217.769 205.994C216.785 204.72 215.856 203.607 215.063 202.783C209.386 196.904 206.422 167.271 206.422 167.271H215.807C223.165 174.035 221.312 183.348 221.529 192.548C221.604 195.737 222.629 198.811 224.352 201.496C224.699 202.037 225.025 202.585 225.334 203.146C227.48 207.063 228.753 211.658 229.928 219.204L231.381 224.102L220.06 227.402Z" fill="#F1CCCD"/>
<path d="M225.805 202.986L223.093 204.228L217.582 206.75C216.599 205.477 215.854 203.607 215.061 202.783C209.384 196.903 205.719 167.154 205.719 167.154L215.405 167.265L215.805 167.271C222.917 173.809 221.424 182.728 221.512 191.624C221.548 195.255 222.722 198.798 224.936 201.676C225.261 202.098 225.557 202.531 225.805 202.986Z" fill="#373F78"/>
<path d="M225.805 202.986L223.093 204.228C222.213 202.85 220.892 200.234 220.193 198.466C218.348 193.796 219.483 187.453 219.04 178.536C218.714 171.965 213.16 168.772 213.16 168.772L215.405 167.265L215.805 167.272C222.916 173.809 221.424 182.728 221.512 191.624C221.548 195.255 222.721 198.799 224.936 201.676C225.261 202.098 225.557 202.531 225.805 202.986Z" fill="#2C3469"/>
<path d="M220.573 148.144C220.493 154.061 219.035 164.32 218.482 168.01C218.401 168.544 218.106 169.006 217.688 169.295C217.461 169.455 217.19 169.565 216.901 169.609C214.251 170.002 211.655 170.218 209.127 170.211C206.851 170.211 204.631 170.039 202.472 169.664C201.629 169.516 200.984 168.84 200.892 167.991C200.59 165.199 201.466 159.073 201.325 153.113C201.233 149.344 202.416 139.693 209.456 138.175L213.58 138.138C218.205 139.337 220.142 142.873 220.462 145.346C220.561 146.078 220.591 147.037 220.573 148.144Z" fill="#326AB3"/>
<path d="M205.656 222.975C201.276 224.657 196.416 224.484 196.113 228.436L209.894 227.955C210.056 226.28 209.777 224.62 209.058 222.975H205.656ZM227.034 219.315C223.528 222.432 218.283 224.631 219.393 228.436L232.12 224.182C231.681 222.557 231.092 219.948 229.839 218.662L227.034 219.315ZM210.738 134.538C212.081 134.953 212.624 135.623 214.341 134.847C216.953 133.667 219.159 129.144 215.689 127.099C215.449 126.383 215.208 126.104 214.293 125.906C213.379 125.707 212.442 126.105 211.181 126.084C209.921 126.062 208.138 124.764 207.039 126.597C205.94 128.43 208.665 129.855 210.03 130.757C211.396 131.66 210.953 133.217 210.738 134.538Z" fill="#373F78"/>
<path d="M213.636 138.148C212.135 139.649 210.72 139.937 209.453 138.175L209.81 135.28L209.958 134.062H213.279L213.343 134.817L213.636 138.148Z" fill="#F9CBCB"/>
<path d="M213.394 135.356C212.574 136.343 210.312 136.629 209.699 136.206L209.962 134.062L213.302 132.66L213.394 135.356Z" fill="#F0B4B4"/>
<path d="M208.259 128.257C207.648 129.98 207.049 133.788 208.511 135.204C209.436 136.101 212.794 135.754 213.48 133.289C214.289 132.702 214.884 131.272 214.138 130.623C213.606 130.161 212.926 131.383 211.998 131.181C211.646 131.104 212.728 128.752 211.629 128.344C210.53 127.937 209.367 128.82 208.259 128.257ZM214.96 152.946C214.96 152.946 211.273 157.387 207.925 159.83C207.124 160.409 206.348 160.874 205.644 161.142C200.766 162.994 189.508 161.535 189.508 161.535C185.962 163.344 181.48 162.272 180.595 160.935C179.029 158.546 184.84 160.799 185.401 159.37C185.401 159.37 182.729 157.915 183.478 156.854C184.223 155.786 188.881 158.631 188.881 158.631C193.59 156.693 198.331 155.624 202.815 155.319C203.174 154.814 203.533 154.31 203.904 153.812C206.591 150.244 209.706 146.996 213.945 144.837C215.997 147.523 215.937 150.233 214.96 152.946Z" fill="#F9CBCB"/>
<path d="M208.967 159.948L203.145 153.441C205.832 149.872 210.978 142.051 214.566 145.171C219.344 149.327 212.315 157.505 208.967 159.948Z" fill="#4E85CC"/>
<path d="M427.284 60.72H425.711C425.264 58.676 424.515 56.7416 423.515 54.9745L424.819 53.6671C426.767 51.7141 426.767 48.5471 424.819 46.5941C422.871 44.6411 419.712 44.6411 417.764 46.5941L416.65 47.7108C414.935 46.6079 413.053 45.7578 411.048 45.204C411.047 45.2036 411.047 45.2036 411.046 45.2036V43.355C411.046 40.5926 408.813 38.3536 406.057 38.3536C403.302 38.3536 401.069 40.5926 401.069 43.355V44.9318C399.03 45.3808 397.1 46.1304 395.338 47.1336L394.034 45.8262C392.085 43.8732 388.927 43.8732 386.978 45.8262C385.03 47.7796 385.03 50.9463 386.978 52.8993L388.092 54.0152C386.991 55.7348 386.143 57.6214 385.59 59.6325L385.59 59.6341H383.747C380.991 59.6341 378.758 61.8731 378.758 64.6355C378.758 67.3979 380.991 69.6369 383.747 69.6369H385.319C385.766 71.6812 386.514 73.6161 387.515 75.3835L386.212 76.6897C384.264 78.6431 384.264 81.8098 386.212 83.7628C388.16 85.7162 391.319 85.7162 393.267 83.7628L394.377 82.6504L394.378 82.6512C396.093 83.7497 397.979 84.5999 399.985 85.1588V87.0022C399.985 89.7646 402.218 92.0036 404.974 92.0036C407.729 92.0036 409.962 89.7646 409.962 87.0022V85.4266C412.002 84.9776 413.932 84.2276 415.694 83.2244L416.997 84.5306C418.946 86.484 422.104 86.484 424.053 84.5306C426.001 82.5776 426.001 79.4106 424.053 77.4576L422.943 76.3448L422.943 76.3444C424.039 74.6248 424.887 72.7335 425.445 70.7227H427.285C430.04 70.7227 432.274 68.4833 432.274 65.7214C432.273 62.959 430.04 60.72 427.284 60.72ZM420.37 65.179C420.37 73.4016 413.717 80.0712 405.515 80.0712C397.313 80.0712 390.661 73.4016 390.661 65.179C390.661 56.952 397.313 50.2868 405.515 50.2868C413.717 50.2868 420.37 56.952 420.37 65.179Z" fill="#C9DCF5"/>
<path d="M396.127 65.179C396.127 70.377 400.331 74.5912 405.516 74.5912C410.701 74.5912 414.909 70.377 414.909 65.179C414.909 59.981 410.701 55.7621 405.516 55.7621C400.331 55.7621 396.127 59.981 396.127 65.179ZM125.886 27.9632H124.313C123.865 25.9192 123.117 23.9848 122.117 22.2173L123.421 20.9099C125.369 18.9565 125.369 15.7899 123.421 13.8369C121.473 11.8835 118.314 11.8835 116.366 13.8369L115.252 14.9532C113.537 13.8503 111.655 13.0002 109.65 12.4464C109.649 12.446 109.649 12.446 109.648 12.446V10.5974C109.648 7.83508 107.414 5.59607 104.659 5.59607C101.904 5.59607 99.6699 7.83508 99.6699 10.5974V12.1746C97.6311 12.6236 95.7014 13.3737 93.9387 14.3765L92.6349 13.0691C90.6866 11.1161 87.5279 11.1161 85.5796 13.0691C83.6314 15.0225 83.6314 18.1891 85.5796 20.1421L86.6928 21.2581C85.5927 22.9777 84.7445 24.8642 84.1919 26.8754C84.1919 26.8758 84.1919 26.8765 84.1915 26.8769H82.3481C79.5928 26.8769 77.3594 29.1163 77.3594 31.8783C77.3594 34.6407 79.5928 36.8797 82.3481 36.8797H83.9201C84.3679 38.9241 85.116 40.8589 86.1164 42.6263L84.8134 43.9326C82.8651 45.886 82.8651 49.0526 84.8134 51.0056C86.7616 52.959 89.9204 52.959 91.8686 51.0056L92.9782 49.8932C92.9786 49.8936 92.979 49.8936 92.9794 49.894C94.6943 50.9926 96.5808 51.8427 98.5864 52.4016V54.2451C98.5864 57.0074 100.82 59.2464 103.575 59.2464C106.33 59.2464 108.564 57.007 108.564 54.2451V52.6694C110.603 52.2205 112.533 51.4704 114.296 50.4672L115.599 51.7734C117.547 53.7268 120.706 53.7268 122.655 51.7734C124.603 49.8204 124.603 46.6534 122.655 44.7004L121.545 43.5876C122.64 41.868 123.488 39.9763 124.046 37.9656H125.886C128.641 37.9656 130.875 35.7262 130.875 32.9642C130.875 30.2026 128.641 27.9632 125.886 27.9632ZM118.971 32.4222C118.971 40.6449 112.318 47.3144 104.117 47.3144C95.9151 47.3144 89.2621 40.6449 89.2621 32.4222C89.2621 24.1953 95.9151 17.5301 104.117 17.5301C112.319 17.5305 118.971 24.1953 118.971 32.4222Z" fill="#C9DCF5"/>
<path d="M94.7266 32.4222C94.7266 37.6206 98.93 41.8343 104.115 41.8343C109.3 41.8343 113.508 37.6206 113.508 32.4222C113.508 27.2242 109.3 23.0053 104.115 23.0053C98.93 23.0053 94.7266 27.2242 94.7266 32.4222ZM375.557 20.2777L374.433 19.9696C374.513 18.4209 374.358 16.8915 373.989 15.4326L375.177 14.7538C376.952 13.7395 377.573 11.476 376.563 9.69823C375.553 7.92047 373.295 7.30178 371.52 8.31606L370.505 8.89598C369.496 7.77173 368.317 6.79543 366.992 6.00663C366.992 6.00624 366.992 6.00624 366.991 6.00584L367.354 4.68459C367.895 2.71023 366.737 0.672175 364.768 0.132203C362.798 -0.40777 360.763 0.755249 360.222 2.72961L359.913 3.85703C358.368 3.77831 356.842 3.93654 355.386 4.30799L354.71 3.11808C353.7 1.34032 351.442 0.721624 349.667 1.7359C347.891 2.75018 347.271 5.01372 348.281 6.79147L348.858 7.80733C347.735 8.82082 346.759 10.0032 345.97 11.3324C345.97 11.3328 345.969 11.3332 345.969 11.3336L344.652 10.9724C342.683 10.4324 340.648 11.5955 340.106 13.5698C339.565 15.5442 340.723 17.5822 342.692 18.1222L343.816 18.43C343.736 19.9791 343.891 21.5084 344.26 22.9677L343.073 23.6461C341.298 24.6604 340.677 26.924 341.687 28.7017C342.697 30.4795 344.954 31.0982 346.73 30.0839L347.741 29.5063C347.741 29.5067 347.741 29.5067 347.742 29.5071C348.752 30.6282 349.934 31.6053 351.258 32.3981L350.897 33.7157C350.356 35.6901 351.514 37.7282 353.483 38.2681C355.452 38.8081 357.487 37.6451 358.028 35.6707L358.337 34.5445C359.883 34.6232 361.409 34.465 362.865 34.0935L363.541 35.2827C364.551 37.0604 366.808 37.6791 368.584 36.6648C370.359 35.6506 370.979 33.387 369.97 31.6093L369.394 30.5962C370.514 29.5819 371.491 28.3959 372.284 27.068L373.599 27.4283C375.568 27.9683 377.603 26.8053 378.144 24.8309C378.685 22.8558 377.527 20.8177 375.557 20.2777ZM369.742 22.1105C368.131 27.9877 362.069 31.4514 356.207 29.8446C350.345 28.2377 346.896 22.1674 348.507 16.2902C350.118 10.4099 356.18 6.94931 362.042 8.55618C367.904 10.163 371.353 16.2301 369.742 22.1105Z" fill="#C9DCF5"/>
<path d="M352.415 17.3611C351.397 21.0764 353.575 24.912 357.281 25.9279C360.987 26.9437 364.821 24.7562 365.839 21.0408C366.857 17.3255 364.676 13.4856 360.97 12.4701C357.264 11.4538 353.433 13.6458 352.415 17.3611ZM86.4775 74.5812L85.3549 74.2734C85.4352 72.7267 85.2797 71.1998 84.911 69.7424L86.0974 69.0644C87.87 68.0513 88.4899 65.7909 87.4811 64.0155C86.4728 62.2402 84.218 61.6223 82.445 62.6354L81.4315 63.2145C80.4231 62.0918 79.2463 61.1167 77.9234 60.3291C77.923 60.3287 77.9226 60.3287 77.9222 60.3283L78.2838 59.0086C78.8242 57.037 77.6679 55.0018 75.7014 54.4626C73.7346 53.9234 71.7025 55.0848 71.1621 57.0564L70.8535 58.1823C69.3104 58.1039 67.7866 58.2614 66.332 58.6324L65.6571 57.4441C64.6488 55.6687 62.394 55.0508 60.6213 56.0639C58.8487 57.077 58.2288 59.3374 59.2376 61.1127L59.814 62.127C58.6921 63.1393 57.7177 64.3201 56.9297 65.6469C56.9293 65.6473 56.9294 65.6477 56.9294 65.6481L55.6136 65.2873C53.6472 64.7482 51.6147 65.9096 51.0743 67.8812C50.5339 69.8528 51.6902 71.8881 53.6567 72.4273L54.7786 72.7346C54.6983 74.2814 54.8537 75.8087 55.222 77.2661L54.0364 77.9437C52.2638 78.9568 51.6439 81.2171 52.6527 82.9925C53.661 84.7679 55.9159 85.3858 57.6885 84.3727L58.698 83.796C58.6984 83.7964 58.6984 83.7964 58.6988 83.7968C59.7079 84.9163 60.8884 85.8922 62.2104 86.6837L61.8496 87.9998C61.3093 89.9714 62.4656 92.0067 64.432 92.5459C66.3989 93.0851 68.431 91.9237 68.9713 89.9521L69.2795 88.8274C70.8231 88.9057 72.3473 88.7479 73.8018 88.3768L74.4763 89.5644C75.4846 91.3398 77.7395 91.9577 79.5121 90.9446C81.2847 89.9315 81.9046 87.6711 80.8958 85.8957L80.3211 84.8842C81.4398 83.8711 82.4153 82.6871 83.2069 81.3611L84.5202 81.7211C86.487 82.2603 88.5192 81.0989 89.0595 79.1273C89.6003 77.1553 88.4444 75.12 86.4775 74.5812ZM80.6696 76.4112C79.0607 82.2801 73.0075 85.7395 67.1532 84.1346C61.299 82.5301 57.855 76.4678 59.4639 70.5989C61.0735 64.7264 67.1259 61.271 72.9802 62.8755C78.8345 64.48 82.2792 70.5387 80.6696 76.4112Z" fill="#C9DCF5"/>
<path d="M63.3635 71.6681C62.3464 75.3783 64.5221 79.2088 68.2232 80.223C71.9243 81.2373 75.7524 79.0529 76.7694 75.3427C77.7865 71.6325 75.608 67.7981 71.9073 66.7835C68.2058 65.7688 64.3805 67.9575 63.3635 71.6681Z" fill="#C9DCF5"/>
<path d="M457.108 304.528C457.579 305.99 458.663 307.336 458.663 307.336C458.663 307.336 460.902 311.02 463.791 313.603C464.819 314.508 466.379 315.91 468.79 316.809C469.047 316.895 469.304 316.98 469.562 317.066C469.818 317.146 470.075 317.213 470.338 317.256C470.534 317.299 470.73 317.342 470.926 317.372C471.03 317.397 471.128 317.416 471.232 317.427C474.567 317.972 477.357 317.122 478.416 316.76C479.425 316.393 483.018 314.98 485.514 311.363C487.056 309.123 488.519 305.611 487.246 304.455C486.989 304.247 486.677 304.136 486.493 303.751C486.102 302.998 486.671 302.166 487.319 300.991C488.525 298.819 489.143 297.742 488.984 296.873C488.923 296.469 488.446 295.661 487.509 294.058C486.86 292.944 486.781 292.908 486.763 292.644C486.714 291.335 488.794 291.083 489.957 289.242C490.838 287.822 491.01 285.754 490.086 284.377C489.529 283.575 489.027 283.63 487.803 282.247C486.94 281.268 486.506 280.754 486.322 280.124C485.612 277.67 489.571 275.908 488.806 273.937C488.427 272.964 487.062 272.358 485.759 271.777C484.419 271.202 483.96 271.33 483.446 271.036C480.484 269.39 485.214 259.184 483.77 258.541C482.669 258.057 477.161 262.94 475.026 267.359C474.707 268.05 474.12 269.415 472.639 270.082C470.938 270.865 469.763 269.941 468.747 270.694C468.245 271.085 468.178 271.587 467.83 276.226C467.726 277.707 467.658 278.734 466.985 278.992C466.33 279.249 465.59 278.563 464.666 278.949C464.513 278.998 464.207 279.157 463.877 279.622C462.75 281.139 462.867 283.826 462.952 285.141C463.112 287.773 463.417 289.094 462.86 289.321C462.297 289.522 461.642 288.415 460.541 288.562C459.764 288.684 459.213 289.388 458.962 289.908C458.614 290.649 458.821 291.358 459.648 293.396C460.492 295.489 460.694 295.783 461.098 296.908C461.826 298.836 462.481 300.593 461.784 301.094C461.153 301.547 460.094 300.543 458.681 301.027C458.62 301.045 457.549 301.431 457.102 302.373C456.802 302.998 456.87 303.793 457.108 304.528Z" fill="#326AB3"/>
<path d="M462.528 305.035C462.554 306.392 464.016 307.037 464.974 307.711C465.884 308.351 466.741 309.067 467.534 309.849C469.045 311.34 470.301 313.073 471.278 314.956C471.28 314.947 471.28 314.939 471.282 314.931C471.71 312.501 472.347 310.097 472.928 307.722C473.528 305.274 474.085 302.802 474.33 300.287C474.532 298.188 474.415 296.12 474.22 294.045C474.22 294.044 474.22 294.043 474.22 294.042C472.629 292.321 470.472 291.343 468.756 289.782C467.253 288.413 466.151 286.25 467.115 284.256C467.201 284.079 467.465 284.234 467.379 284.41C466.36 286.518 467.853 288.69 469.459 289.98C471.003 291.221 472.765 292.153 474.172 293.56C474.171 293.556 474.171 293.553 474.171 293.549C474.146 293.304 474.122 293.06 474.097 292.815C473.889 290.814 473.718 288.795 474.03 286.8C474.238 285.417 474.568 284.059 474.942 282.719C473.547 281.022 472.6 278.86 472.467 276.656C472.454 276.46 472.761 276.46 472.773 276.656C472.897 278.71 473.766 280.741 475.042 282.35C475.06 282.279 475.083 282.214 475.101 282.143C476.013 278.93 477.096 275.754 478.338 272.658C478.448 272.389 478.559 272.113 478.675 271.844C478.748 271.667 479.042 271.747 478.969 271.924C477.745 274.831 476.711 277.829 475.799 280.846C475.315 282.449 474.869 284.065 474.532 285.711C474.459 286.09 474.391 286.463 474.348 286.837L474.348 286.838C475.498 286.746 476.239 285.781 476.945 284.976C477.567 284.268 478.279 283.651 479.078 283.15C480.658 282.161 482.514 281.648 484.377 281.686C484.573 281.69 484.574 281.995 484.377 281.992C482.399 281.952 480.446 282.55 478.825 283.685C477.99 284.269 477.347 285.001 476.673 285.755C476.043 286.46 475.296 287.087 474.314 287.15C474.311 287.151 474.309 287.147 474.305 287.147C474.305 287.148 474.305 287.149 474.305 287.149C474.158 288.337 474.134 289.518 474.213 290.735C474.378 293.214 474.807 295.668 474.764 298.158C474.721 300.582 474.317 302.986 473.797 305.348C473.754 305.55 473.705 305.752 473.656 305.954C473.656 305.955 473.656 305.955 473.655 305.956C476.09 304.995 478.642 303.96 480.358 301.892C480.755 301.413 481.088 300.886 481.348 300.321C481.599 299.774 481.788 299.192 482.133 298.693C482.778 297.761 483.86 297.392 484.896 297.073C485.084 297.015 485.165 297.31 484.977 297.368C484.385 297.551 483.783 297.737 483.25 298.062C482.703 298.396 482.337 298.867 482.062 299.44C481.793 300.003 481.59 300.59 481.27 301.129C480.982 301.614 480.635 302.064 480.25 302.476C478.486 304.364 476.038 305.342 473.684 306.272C473.644 306.287 473.612 306.28 473.584 306.267C473.583 306.268 473.583 306.27 473.583 306.272C472.879 309.307 472.016 312.33 471.508 315.402C471.507 315.411 471.505 315.421 471.504 315.43C471.505 315.459 471.505 315.484 471.492 315.507C471.491 315.51 471.491 315.514 471.49 315.518C471.386 316.154 471.294 316.791 471.233 317.427C471.128 317.415 471.031 317.396 470.927 317.372C470.994 316.723 471.086 316.081 471.19 315.438C471.19 315.437 471.191 315.435 471.191 315.434C470.13 313.295 468.699 311.354 466.959 309.72C466.071 308.887 465.108 308.15 464.089 307.485C463.2 306.905 462.244 306.2 462.223 305.035C462.219 304.838 462.525 304.838 462.528 305.035Z" fill="white"/>
<path d="M477.542 305.485C477.458 306.609 476.918 307.755 476.918 307.755C476.918 307.755 475.956 310.766 474.342 313.104C473.766 313.927 472.894 315.194 471.331 316.251C471.163 316.357 470.994 316.461 470.826 316.567C470.656 316.668 470.485 316.76 470.305 316.836C470.172 316.9 470.04 316.965 469.906 317.02C469.836 317.056 469.769 317.085 469.697 317.112C467.414 318.075 465.279 317.949 464.462 317.874C463.679 317.786 460.875 317.397 458.473 315.249C456.988 313.919 455.341 311.667 456.049 310.623C456.196 310.431 456.4 310.299 456.464 309.992C456.614 309.388 456.065 308.893 455.401 308.167C454.167 306.826 453.541 306.165 453.505 305.518C453.479 305.22 453.68 304.562 454.071 303.258C454.342 302.352 454.392 302.312 454.36 302.122C454.169 301.18 452.643 301.36 451.497 300.247C450.625 299.387 450.146 297.942 450.568 296.802C450.827 296.134 451.194 296.087 451.828 294.891C452.274 294.044 452.495 293.603 452.518 293.122C452.601 291.251 449.476 290.677 449.682 289.141C449.784 288.382 450.653 287.715 451.481 287.076C452.338 286.435 452.687 286.448 453.002 286.15C454.83 284.467 449.701 278.007 450.62 277.3C451.321 276.766 456.088 279.297 458.371 282.079C458.717 282.517 459.37 283.388 460.54 283.609C461.888 283.874 462.566 283.013 463.419 283.375C463.845 283.567 463.979 283.913 465.026 287.16C465.355 288.197 465.581 288.918 466.104 288.986C466.615 289.056 467.025 288.44 467.75 288.556C467.867 288.564 468.113 288.625 468.428 288.9C469.492 289.787 469.872 291.722 470.038 292.675C470.377 294.578 470.386 295.572 470.822 295.638C471.258 295.685 471.534 294.783 472.345 294.698C472.92 294.651 473.434 295.058 473.702 295.385C474.078 295.853 474.052 296.395 473.814 297.99C473.573 299.626 473.479 299.871 473.385 300.743C473.198 302.242 473.034 303.607 473.618 303.844C474.145 304.059 474.727 303.161 475.817 303.262C475.865 303.265 476.694 303.355 477.175 303.949C477.497 304.343 477.586 304.921 477.542 305.485Z" fill="#85AEE6"/>
<path d="M473.767 306.78C473.983 307.752 473.052 308.463 472.486 309.108C471.947 309.721 471.459 310.38 471.029 311.073C470.209 312.396 469.612 313.847 469.24 315.358C469.238 315.352 469.236 315.346 469.233 315.34C468.509 313.683 467.641 312.078 466.818 310.486C465.97 308.845 465.147 307.179 464.539 305.428C464.034 303.967 463.761 302.473 463.543 300.96C463.543 300.96 463.543 300.959 463.543 300.958C464.38 299.458 465.749 298.39 466.703 296.981C467.54 295.747 467.952 294.015 466.922 292.76C466.83 292.648 466.669 292.804 466.76 292.915C467.849 294.243 467.159 296.047 466.236 297.244C465.349 298.393 464.254 299.361 463.494 300.606C463.493 300.604 463.493 300.601 463.492 300.599C463.468 300.42 463.443 300.242 463.418 300.063C463.222 298.601 462.996 297.132 462.431 295.764C462.044 294.814 461.575 293.903 461.078 293.012C461.78 291.563 462.083 289.859 461.799 288.265C461.773 288.122 461.555 288.176 461.581 288.317C461.846 289.803 461.576 291.4 460.944 292.766C460.919 292.719 460.891 292.676 460.866 292.629C459.662 290.496 458.344 288.419 456.925 286.426C456.801 286.253 456.675 286.076 456.546 285.904C456.463 285.79 456.267 285.897 456.35 286.011C457.723 287.872 458.976 289.831 460.145 291.824C460.766 292.884 461.363 293.958 461.886 295.074C462.003 295.332 462.116 295.586 462.211 295.845L462.211 295.846C461.375 295.978 460.681 295.418 460.039 294.966C459.475 294.568 458.861 294.251 458.205 294.032C456.908 293.599 455.497 293.553 454.176 293.9C454.036 293.937 454.089 294.155 454.228 294.118C455.631 293.749 457.126 293.84 458.476 294.368C459.172 294.641 459.757 295.052 460.367 295.473C460.937 295.867 461.577 296.186 462.288 296.061C462.291 296.061 462.291 296.058 462.294 296.058L462.295 296.059C462.604 296.88 462.825 297.717 462.978 298.599C463.287 300.394 463.404 302.217 463.864 303.985C464.311 305.704 465.013 307.349 465.791 308.943C465.856 309.079 465.926 309.215 465.995 309.35L465.996 309.352C464.096 309.085 462.098 308.788 460.519 307.609C460.154 307.336 459.825 307.018 459.543 306.66C459.27 306.313 459.035 305.931 458.703 305.635C458.083 305.082 457.249 305.005 456.455 304.955C456.311 304.946 456.304 305.171 456.448 305.18C456.902 305.208 457.363 305.237 457.799 305.377C458.246 305.521 458.588 305.793 458.883 306.155C459.172 306.51 459.418 306.893 459.738 307.222C460.027 307.518 460.352 307.78 460.697 308.007C462.28 309.049 464.193 309.325 466.031 309.582C466.062 309.586 466.083 309.575 466.101 309.561C466.102 309.562 466.102 309.563 466.103 309.564C467.127 311.606 468.262 313.612 469.153 315.715C469.156 315.721 469.159 315.728 469.162 315.734C469.166 315.755 469.17 315.773 469.184 315.787C469.185 315.79 469.186 315.792 469.187 315.794C469.37 316.23 469.545 316.668 469.699 317.111C469.771 317.084 469.837 317.054 469.907 317.019C469.747 316.568 469.571 316.126 469.387 315.686C469.386 315.685 469.386 315.684 469.385 315.683C469.773 313.976 470.459 312.347 471.418 310.881C471.907 310.134 472.466 309.444 473.078 308.794C473.612 308.228 474.172 307.561 473.987 306.726C473.954 306.586 473.736 306.639 473.767 306.78Z" fill="white"/>
<path d="M65.5284 161.257V168.841H62.8764C61.6268 168.841 60.6133 167.828 60.6133 166.578V163.523C60.6133 162.273 61.6268 161.257 62.8764 161.257H65.5284ZM75.1285 168.671C74.2186 169.702 66.5277 168.841 66.5277 168.841V161.257C66.5277 161.257 67.9387 159.889 68.3157 158.631C68.6872 157.381 69.021 155.576 69.9859 155.832C70.9535 156.088 71.3795 159.581 70.1876 161.257C70.1876 161.257 73.9453 160.241 74.9647 161.352C75.9319 162.403 75.9809 167.707 75.1285 168.671ZM169.709 38.6756V45.9535H167.164C165.965 45.9535 164.993 44.9808 164.993 43.7818V40.8501C164.993 39.6511 165.965 38.6756 167.164 38.6756H169.709ZM178.922 45.7905C178.048 46.7799 170.668 45.9535 170.668 45.9535V38.6756C170.668 38.6756 172.023 37.363 172.385 36.1557C172.741 34.9567 173.061 33.224 173.987 33.4701C174.915 33.7161 175.324 37.0675 174.18 38.6756C174.18 38.6756 177.786 37.7001 178.764 38.7665C179.693 39.7753 179.739 44.8649 178.922 45.7905ZM420.046 125.527V133.111H417.394C416.144 133.111 415.131 132.098 415.131 130.848V127.793C415.131 126.544 416.144 125.527 417.394 125.527H420.046ZM429.646 132.941C428.736 133.972 421.045 133.111 421.045 133.111V125.527C421.045 125.527 422.456 124.159 422.833 122.901C423.204 121.651 423.538 119.846 424.503 120.102C425.47 120.358 425.896 123.851 424.705 125.527C424.705 125.527 428.462 124.51 429.482 125.622C430.449 126.673 430.498 131.977 429.646 132.941Z" fill="#D3E2F5"/>
<path d="M153.812 187.704C153.812 186.623 154.688 185.747 155.77 185.747C156.851 185.747 157.727 186.623 157.727 187.704C157.727 188.785 156.851 189.662 155.77 189.662C154.689 189.662 153.812 188.785 153.812 187.704ZM74.8789 126.512C74.8789 125.43 75.7551 124.554 76.8363 124.554C77.9174 124.554 78.794 125.43 78.794 126.512C78.794 127.593 77.9178 128.469 76.8363 128.469C75.7551 128.469 74.8789 127.593 74.8789 126.512ZM233.419 14.0113C233.419 12.9302 234.296 12.054 235.377 12.054C236.458 12.054 237.334 12.9302 237.334 14.0113C237.334 15.0924 236.457 15.9691 235.377 15.9691C234.296 15.9687 233.419 15.0924 233.419 14.0113ZM360.513 59.8837C360.513 58.8026 361.39 57.9263 362.471 57.9263C363.552 57.9263 364.428 58.8026 364.428 59.8837C364.428 60.9648 363.551 61.8414 362.471 61.8414C361.39 61.841 360.513 60.9648 360.513 59.8837ZM450.999 111.171C450.999 110.09 451.875 109.214 452.957 109.214C454.038 109.214 454.914 110.09 454.914 111.171C454.914 112.252 454.038 113.129 452.957 113.129C451.875 113.129 450.999 112.252 450.999 111.171ZM430.315 195C430.315 193.919 431.192 193.043 432.273 193.043C433.353 193.043 434.23 193.919 434.23 195C434.23 196.081 433.353 196.957 432.273 196.957C431.192 196.957 430.315 196.081 430.315 195Z" fill="#FFDA99"/>
</svg>
