<svg width="388" height="470" viewBox="0 0 388 470" fill="none" xmlns="http://www.w3.org/2000/svg">
<path d="M258.756 434.264C257.724 429.621 239.051 422.436 239.051 422.436C239.051 422.436 258.24 421.367 262.883 415.176C267.526 408.986 262.883 407.954 262.883 407.954C262.883 407.954 328.778 410.797 368.562 380.691C378.068 373.498 401.126 357.601 375.712 341.633C350.297 325.666 328.912 325.167 281.776 330.358C281.568 330.381 186.093 322.721 181.598 322.635C151.082 322.049 138.111 319.374 133.44 320.285C122.798 322.361 69.7261 346.08 63.11 352.569C52.3825 362.568 57.5583 367.565 53.8728 369.12C46.4269 372.262 28.6555 378.903 25.556 387.104C24.8105 389.076 24.6395 391.197 25.0938 393.259C31.8001 423.696 91.5 449.551 98.1517 450.549C108.469 452.096 123.823 444.752 123.823 444.752C123.823 444.752 203.816 470.633 216.712 469.085C229.609 467.538 259.788 438.907 258.756 434.264Z" fill="#E6E6E6"/>
<path d="M134.689 188.71C134.689 188.71 220.324 166.527 247.665 171.17C275.006 175.813 270.879 206.765 270.364 223.789C269.848 240.813 155.324 264.543 155.324 264.543L134.689 188.71Z" fill="#6C4E4E"/>
<path opacity="0.5" d="M270.839 205.194C270.422 190.141 266.553 174.377 247.664 171.17C238.005 169.529 221.07 171.237 203.205 174.133C203.213 174.134 222.129 177.62 226.771 186.904C231.414 196.189 226.771 207.538 226.771 207.538L270.839 205.194Z" fill="#4A3333"/>
<path d="M145.523 182.261C145.523 182.261 149.65 130.158 153.261 126.031C156.872 121.904 238.896 131.706 240.443 133.769C241.991 135.833 232.448 194.126 232.577 196.705C232.705 199.285 146.555 188.451 145.523 188.451C144.491 188.451 145.523 182.261 145.523 182.261Z" fill="#93AABC"/>
<path d="M148.017 182.209C148.017 182.209 151.917 132.981 155.328 129.082C158.74 125.182 236.239 134.443 237.701 136.393C239.163 138.342 230.148 193.42 230.268 195.857C230.39 198.294 148.992 188.058 148.017 188.058C147.042 188.058 148.017 182.209 148.017 182.209Z" fill="white"/>
<path d="M232.705 196.705C232.705 196.705 194.531 212.697 192.983 212.697C191.435 212.697 114.571 201.864 113.539 199.801C112.507 197.737 145.708 187.292 145.708 187.292L232.705 196.705Z" fill="#93AABC"/>
<path d="M302.348 312.002C302.348 312.002 296.158 330.574 303.896 339.859C311.634 349.145 289.967 363.074 289.967 363.074L262.11 352.756L260.562 325.931L302.348 312.002Z" fill="#CC6E4E"/>
<path d="M345.823 338.373C345.823 338.373 349.808 341.407 349.808 350.177C349.808 358.947 343.102 366.685 327.626 372.359C312.149 378.034 297.705 372.359 297.705 372.359L306.475 353.272L345.823 338.373Z" fill="#E6E6E6"/>
<path d="M301.831 331.606C301.831 331.606 313.18 336.249 320.402 336.249C327.625 336.249 335.363 334.701 341.553 336.249C347.743 337.796 348.776 342.439 347.743 346.05C346.712 349.661 337.426 362.042 314.728 365.653C292.029 369.264 270.879 365.653 266.752 362.042C262.625 358.431 267.268 342.955 269.847 342.439C272.426 341.923 286.097 348.372 293.319 348.372C300.541 348.372 289.708 340.117 301.831 331.606Z" fill="#333333"/>
<path d="M317.308 192.32C302.347 187.162 181.634 203.154 180.602 202.638L167.447 205.475L193.241 262.221L227.288 262.737C224.709 272.023 230.383 289.046 230.383 289.046C230.383 289.046 229.867 290.594 228.836 296.269C227.804 301.943 232.447 319.483 232.447 319.483C232.447 319.483 230.899 320.514 230.383 322.578C229.867 324.641 237.863 343.471 237.863 343.471C237.863 343.471 269.847 336.249 271.911 335.733C273.974 335.217 276.554 331.09 276.554 331.09C281.712 334.701 301.058 335.991 303.121 331.863C305.184 327.736 304.926 312.002 304.926 312.002C304.926 312.002 333.815 242.36 336.395 230.495C338.974 218.63 332.268 197.479 317.308 192.32ZM269.59 273.57C269.59 273.57 268.558 256.546 269.59 256.031C270.621 255.515 279.391 255.515 279.391 255.515C279.391 255.515 271.653 266.348 269.59 273.57Z" fill="#6C4E4E"/>
<path opacity="0.5" d="M307.172 228.376C299.361 230.587 291.778 232.293 283.674 233.118C275.809 233.918 267.918 234.381 260.076 235.408C252.084 236.455 244.135 237.728 236.08 238.205C228.326 238.664 220.365 238.683 212.861 240.921C211.995 241.179 212.356 242.448 213.231 242.266C221.437 240.556 229.685 240.394 238.015 239.845C246.259 239.303 254.397 237.885 262.592 236.907C270.394 235.976 278.246 235.59 286.053 234.717C293.326 233.903 301.075 232.897 307.836 229.953C308.743 229.558 308.093 228.115 307.172 228.376Z" fill="#4A3333"/>
<path opacity="0.5" d="M317.308 192.32C311.113 190.184 286.78 191.675 260.322 194.119C260.322 194.119 276.812 198.769 280.423 219.919C284.034 241.07 276.296 249.84 269.074 255.515L246.892 260.673C246.892 260.673 234.476 260.37 227.278 262.781C224.728 272.076 230.384 289.046 230.384 289.046C230.384 289.046 229.868 290.594 228.836 296.268C227.804 301.943 232.447 319.482 232.447 319.482C232.447 319.482 230.899 320.514 230.384 322.578C229.868 324.641 237.864 343.47 237.864 343.47C237.864 343.47 269.848 336.248 271.911 335.732C273.975 335.216 276.554 331.089 276.554 331.089C281.713 334.701 301.058 335.99 303.121 331.863C305.185 327.736 304.927 312.002 304.927 312.002C304.927 312.002 333.816 242.36 336.395 230.494C338.974 218.63 332.268 197.479 317.308 192.32ZM269.59 273.57C269.59 273.57 268.558 256.546 269.59 256.031C270.622 255.515 279.391 255.515 279.391 255.515C279.391 255.515 271.653 266.348 269.59 273.57Z" fill="#4A3333"/>
<path d="M256.498 305.946C255.248 298.687 254.78 287.857 254.565 280.502C254.37 273.812 254.573 266.622 252.892 260.098C252.669 259.234 251.205 259.382 251.293 260.315C251.978 267.557 252.642 274.666 252.864 281.953C253.076 288.881 253.269 299.607 255.045 306.346C255.296 307.3 256.66 306.885 256.498 305.946Z" fill="#4A3333"/>
<path d="M234.789 262.57C234.789 262.57 245.348 267.331 243.691 271.886C242.035 276.44 236.653 274.37 236.653 274.37L230.912 261.771L234.789 262.57Z" fill="#61B7B0"/>
<path d="M309.796 243.955C304.741 249.991 297.925 253.621 290.368 254.218C294.352 252.706 298.159 250.68 301.547 248.135C303.01 247.036 301.657 244.546 300.076 245.619C295.055 249.026 289.72 251.697 283.807 253.167C278.005 254.61 272.114 254.094 266.282 255.121C259.979 256.232 253.905 258.104 247.523 258.907C241.068 259.719 234.546 259.789 228.098 260.578C226.648 260.756 226.553 262.882 228.098 262.912C234.862 263.04 241.78 262.392 248.488 261.559C254.795 260.775 260.812 258.93 267.053 257.916C270.295 257.389 273.585 257.566 276.849 257.291C279.548 257.064 282.23 256.615 284.857 255.954C294.759 257.48 305.382 253.263 311.252 245.079C311.861 244.23 310.472 243.148 309.796 243.955ZM302.142 311.833C296.649 312.664 291.008 312.736 285.519 311.824C280.514 310.993 274.927 309.69 271.006 306.352C270.757 306.14 270.48 306.035 270.205 306.006C269.94 297.214 270.065 284.812 270.519 276.024C270.608 274.312 268.426 273.692 268.297 275.376C267.554 285.047 266.971 299.005 267.284 308.699C262.93 307.772 258.34 307.947 253.98 308.836C247.33 310.191 240.169 313.065 234.527 316.854C233.78 317.356 234.223 318.655 235.165 318.368C241.228 316.521 246.761 313.423 253.006 312.046C259.293 310.661 265.451 310.877 271.44 313.239C272.389 315.112 272.756 317.795 273.067 319.164C273.804 322.411 274.289 325.693 274.575 329.009C274.742 330.955 277.804 330.972 277.634 329.009C277.209 324.109 276.389 319.254 275.027 314.524C274.752 313.569 274.417 312.615 273.983 311.744C274.318 311.875 274.651 312 274.98 312.123C277.988 313.249 281.117 314.058 284.285 314.581C290.467 315.602 296.683 315.531 302.83 314.328C304.486 314.004 303.755 311.589 302.142 311.833Z" fill="#3F2B2B"/>
<path d="M246.858 336.961C246.858 336.961 236.832 340.375 237.864 343.47C238.895 346.566 254.371 346.566 253.856 346.05C253.339 345.534 246.858 336.961 246.858 336.961Z" fill="black"/>
<path d="M243.536 338.312C243.536 338.312 246.115 353.788 244.568 362.042C243.02 370.296 241.988 383.708 246.115 388.867C250.242 394.026 334.329 378.55 334.329 373.391C334.329 368.232 289.449 356.367 282.742 350.177C276.036 343.986 273.456 333.669 273.456 331.09C273.456 331.09 270.877 326.963 243.536 338.312Z" fill="#DC815C"/>
<path d="M244.828 390.673C244.828 390.673 238.122 369.006 242.249 364.879C246.375 360.752 256.177 362.815 261.336 365.395C266.495 367.974 276.296 361.268 278.36 356.109C280.423 350.951 279.391 348.371 281.971 348.371C284.55 348.371 300.542 358.173 314.986 362.299C329.431 366.426 332.01 362.299 336.137 367.974C340.264 373.649 326.851 376.228 326.851 376.228L244.828 390.673Z" fill="#3F3F3F"/>
<path d="M252.048 402.022C252.048 402.022 248.953 402.022 247.405 400.474C245.858 398.926 242.762 390.156 243.794 389.125C244.826 388.093 255.143 382.934 269.072 381.387C283 379.839 304.667 377.26 313.437 374.68C322.206 372.101 333.556 367.458 336.135 367.974C338.714 368.49 341.809 375.196 340.778 377.776C339.746 380.355 322.722 388.609 306.214 394.283C289.707 399.958 257.207 402.538 252.048 402.022Z" fill="white"/>
<path d="M340.368 378.357C342.525 374.305 325.299 380.872 314.984 384.998C304.667 389.125 283.516 392.22 275.262 392.736C267.008 393.252 253.596 395.316 249.469 399.958C248.718 400.803 249.063 401.39 250.125 401.788C251.175 402.019 252.048 402.022 252.048 402.022C257.207 402.538 289.707 399.958 306.215 394.284C321.637 388.982 337.506 381.431 340.368 378.357Z" fill="#1A1A1A"/>
<path d="M231.855 152.461C226.17 151.527 220.467 150.696 214.753 149.949C215.554 145.076 216.366 140.204 217.106 135.321C217.186 134.792 216.395 134.55 216.286 135.095C215.309 139.973 214.477 144.89 213.705 149.816C206.553 148.896 199.382 148.118 192.198 147.493C192.218 147.328 192.238 147.161 192.258 146.996C192.836 142.275 193.46 137.556 194.669 132.948C194.813 132.398 193.967 132.165 193.818 132.713C192.633 137.072 191.997 141.537 191.43 146.011C191.37 146.479 191.315 146.947 191.256 147.416C184.394 146.831 177.521 146.369 170.643 146.055C170.302 146.04 169.962 146.027 169.621 146.012C170.306 141.315 171.063 136.626 171.91 131.948C172.01 131.395 171.164 131.158 171.063 131.714C170.2 136.452 169.41 141.206 168.695 145.973C163.426 145.748 158.151 145.584 152.877 145.552C152.29 145.548 152.291 146.45 152.877 146.463C158.104 146.575 163.327 146.745 168.545 146.98C167.622 153.233 166.834 159.507 166.192 165.795C161.258 165.595 156.319 165.387 151.383 165.336C150.957 165.332 150.965 165.965 151.383 165.993C156.284 166.321 161.193 166.526 166.103 166.719C165.522 172.543 165.063 178.377 164.748 184.216C164.717 184.808 165.63 184.803 165.667 184.216C166.041 178.384 166.516 172.565 167.094 166.758C171.879 166.946 176.664 167.13 181.443 167.415C183.906 167.562 186.369 167.728 188.83 167.911C188.036 174.967 187.283 182.028 186.597 189.095C186.537 189.715 187.501 189.708 187.564 189.095C188.284 182.056 189.02 175.019 189.799 167.986C196.786 168.52 203.761 169.201 210.718 170.033C210.393 172.351 210.075 174.671 209.766 176.991C209.142 181.679 208.332 186.421 208.062 191.144C208.035 191.618 208.816 191.735 208.902 191.258C209.718 186.719 210.088 182.071 210.686 177.497C211.007 175.045 211.338 172.595 211.678 170.147C217.489 170.854 223.278 171.707 229.071 172.547C229.65 172.631 229.911 171.754 229.318 171.653C223.509 170.668 217.673 169.842 211.821 169.139C212.095 167.174 212.372 165.209 212.658 163.246C213.258 159.133 213.92 155.03 214.593 150.93C220.271 151.671 225.937 152.507 231.591 153.421C232.217 153.522 232.487 152.565 231.855 152.461ZM168.539 165.889C168.087 165.872 167.635 165.853 167.184 165.835C167.821 159.55 168.582 153.279 169.479 147.025C176.706 147.361 183.924 147.819 191.132 148.424C190.634 152.422 190.153 156.423 189.687 160.424C189.432 162.612 189.182 164.8 188.934 166.989C182.139 166.511 175.336 166.156 168.539 165.889ZM211.695 163.242C211.411 165.167 211.136 167.095 210.864 169.022C203.896 168.202 196.904 167.563 189.904 167.058C190.132 165.015 190.361 162.973 190.597 160.931C191.075 156.787 191.571 152.646 192.076 148.506C199.246 149.12 206.406 149.876 213.554 150.795C212.911 154.944 212.306 159.098 211.695 163.242ZM160.153 131.667C159.057 131.454 157.961 131.364 156.845 131.423C155.677 131.485 155.659 133.266 156.845 133.253C157.79 133.242 158.714 133.331 159.638 133.532C160.857 133.797 161.37 131.903 160.153 131.667Z" fill="#F1E6DC"/>
<path d="M178.897 132.079C177.617 132.03 176.335 132.007 175.057 131.918C173.866 131.836 173.924 133.599 175.057 133.74C176.336 133.898 177.608 133.998 178.897 133.949C180.1 133.903 180.102 132.125 178.897 132.079ZM200.491 133.833C199.323 133.332 198.125 133.093 196.852 133.212C195.645 133.324 195.6 135.177 196.852 135.13C197.859 135.092 198.793 135.272 199.727 135.645C200.761 136.058 201.523 134.275 200.491 133.833ZM222.218 135.824C221.156 135.588 220.077 135.441 218.991 135.382C217.742 135.314 217.757 137.229 218.991 137.316C219.905 137.381 220.799 137.523 221.691 137.736C222.934 138.033 223.462 136.1 222.218 135.824ZM156.497 148.192C155.684 148.185 154.87 148.208 154.057 148.22C152.849 148.24 152.847 150.079 154.057 150.099C154.87 150.112 155.684 150.134 156.497 150.127C157.742 150.116 157.744 148.204 156.497 148.192ZM174.977 149.599C173.932 149.257 172.848 149.097 171.75 149.079C170.515 149.059 170.528 150.928 171.75 150.989C172.675 151.036 173.57 151.223 174.452 151.503C175.668 151.889 176.18 149.993 174.977 149.599ZM196.329 151.036C195.682 151.017 195.046 150.954 194.409 150.834C193.892 150.736 193.357 150.978 193.21 151.515C193.076 152 193.373 152.605 193.891 152.715C194.694 152.885 195.509 152.993 196.329 153.035C197.611 153.101 197.618 151.074 196.329 151.036ZM219.746 153.722C218.687 153.406 217.557 153.385 216.46 153.288C215.945 153.243 215.505 153.759 215.505 154.243C215.505 154.812 215.945 155.135 216.46 155.198C217.473 155.322 218.493 155.521 219.513 155.44C220.471 155.364 220.731 154.016 219.746 153.722ZM154.924 168.709C153.796 168.37 152.618 168.223 151.442 168.269C150.246 168.316 150.24 170.095 151.442 170.131C152.456 170.162 153.43 170.315 154.408 170.582C155.617 170.913 156.12 169.068 154.924 168.709ZM172.709 169.078C171.662 169 170.62 168.976 169.571 169.028C168.34 169.088 168.323 170.955 169.571 170.954C170.619 170.953 171.666 170.987 172.709 171.078C173.987 171.188 173.989 169.175 172.709 169.078ZM195.896 170.686C194.613 170.503 193.353 170.422 192.058 170.503C190.821 170.582 190.799 172.483 192.058 172.446C193.161 172.413 194.275 172.446 195.369 172.598C195.903 172.672 196.427 172.467 196.589 171.905C196.722 171.441 196.426 170.761 195.896 170.686ZM217.247 172.789C215.999 172.686 214.749 172.618 213.499 172.545C212.285 172.473 212.307 174.325 213.499 174.423C214.748 174.526 215.996 174.634 217.247 174.708C218.487 174.78 218.465 172.89 217.247 172.789Z" fill="#F1E6DC"/>
<path d="M165.489 137.048C162.87 136.28 160.162 136.271 157.455 136.295C156.859 136.301 156.857 137.221 157.455 137.222C160.078 137.227 162.685 137.279 165.231 137.984C165.834 138.151 166.088 137.223 165.489 137.048ZM161.153 139.064C159.948 139.062 158.745 139.014 157.543 138.918C156.954 138.871 156.963 139.778 157.543 139.833C158.744 139.946 159.947 140.012 161.153 140.031C161.776 140.04 161.777 139.064 161.153 139.064ZM165.154 142.689C162.659 141.761 159.91 141.784 157.284 141.777C156.671 141.776 156.671 142.722 157.284 142.729C159.885 142.754 162.385 142.897 164.905 143.59C165.495 143.752 165.709 142.895 165.154 142.689ZM187.543 137.258C186.001 137.118 184.449 137.09 182.901 137.101C182.297 137.105 182.296 138.038 182.901 138.04C184.453 138.044 185.995 138.13 187.543 138.226C188.169 138.264 188.155 137.314 187.543 137.258ZM188.202 140.391C184.874 139.662 181.493 139.308 178.087 139.299C177.491 139.298 177.49 140.218 178.087 140.226C181.41 140.271 184.69 140.653 187.94 141.34C188.557 141.47 188.822 140.527 188.202 140.391ZM209.724 139.539C205.466 139.015 201.196 138.634 196.912 138.408C196.317 138.376 196.323 139.292 196.912 139.331C201.194 139.611 205.466 140.011 209.724 140.542C210.362 140.622 210.358 139.617 209.724 139.539ZM203.834 141.811C201.542 141.459 199.23 141.359 196.913 141.406C196.307 141.418 196.304 142.354 196.913 142.349C199.191 142.329 201.443 142.501 203.707 142.744C204.235 142.801 204.364 141.892 203.834 141.811ZM224.289 141.578C222.833 141.229 221.27 141.113 219.778 141.074C219.2 141.059 219.218 141.912 219.778 141.96C221.25 142.089 222.698 142.329 224.163 142.509C224.696 142.574 224.8 141.701 224.289 141.578ZM228.279 145.358C225.527 144.529 222.596 144.717 219.832 143.931C219.239 143.763 218.988 144.681 219.578 144.853C222.335 145.655 225.242 145.575 228.015 146.314C228.633 146.479 228.889 145.542 228.279 145.358ZM223.818 146.87C222.477 146.82 221.142 146.698 219.816 146.492C219.228 146.402 218.967 147.294 219.566 147.398C220.976 147.643 222.389 147.798 223.818 147.857C224.453 147.883 224.453 146.893 223.818 146.87ZM163.431 151.975C162.249 151.771 161.063 151.653 159.864 151.629C159.263 151.617 159.266 152.539 159.864 152.56C160.976 152.599 162.077 152.716 163.172 152.916C163.787 153.028 164.048 152.082 163.431 151.975ZM161.927 154.878C159.484 154.882 157.054 154.791 154.621 154.565C154.041 154.512 154.049 155.409 154.621 155.468C157.049 155.718 159.486 155.861 161.927 155.857C162.557 155.856 162.558 154.876 161.927 154.878ZM162.098 158.147C160.523 158.061 158.946 158.001 157.37 157.932C156.767 157.906 156.772 158.832 157.37 158.867C158.946 158.96 160.522 159.062 162.098 159.138C162.737 159.169 162.734 158.181 162.098 158.147ZM162.227 161.776C159.37 161.268 156.488 161.008 153.589 160.927C152.997 160.91 152.999 161.823 153.589 161.845C156.402 161.949 159.192 162.258 161.971 162.705C162.574 162.802 162.841 161.886 162.227 161.776ZM200.266 155.653C198.575 155.52 196.882 155.415 195.192 155.257C194.595 155.202 194.615 156.11 195.192 156.18C196.878 156.387 198.568 156.545 200.266 156.576C200.867 156.587 200.851 155.699 200.266 155.653ZM203.401 160.147C200.529 159.202 197.501 159.11 194.504 159.038C193.891 159.023 193.893 159.97 194.504 159.989C197.43 160.078 200.324 160.227 203.14 161.091C203.746 161.277 203.997 160.343 203.401 160.147ZM227.396 160.363C224.01 159.316 220.481 158.863 216.942 159.027C216.336 159.055 216.33 159.991 216.942 159.974C220.415 159.88 223.803 160.33 227.129 161.331C227.749 161.517 228.011 160.553 227.396 160.363ZM221.756 163.474C220.063 163.322 218.373 163.172 216.682 162.993C216.172 162.94 216.048 163.817 216.56 163.896C218.278 164.159 220.02 164.347 221.756 164.417C222.37 164.442 222.352 163.528 221.756 163.474ZM161.755 173.942C160.465 173.996 159.191 173.909 157.923 173.664C157.334 173.551 157.078 174.442 157.673 174.57C159.022 174.859 160.375 174.984 161.754 174.937C162.394 174.916 162.396 173.914 161.755 173.942ZM161.972 178.176C158.842 177.48 155.583 177.298 152.386 177.376C151.796 177.39 151.793 178.301 152.386 178.295C155.54 178.263 158.609 178.61 161.722 179.081C162.304 179.169 162.574 178.309 161.972 178.176ZM156.598 181.354C155.105 181.364 153.619 181.359 152.128 181.29C151.527 181.262 151.539 182.171 152.128 182.217C153.611 182.333 155.11 182.386 156.598 182.325C157.219 182.3 157.226 181.349 156.598 181.354ZM177.915 173.353C175.589 173.334 173.274 173.209 170.955 173.021C170.362 172.973 170.38 173.872 170.955 173.936C173.267 174.194 175.59 174.312 177.915 174.332C178.546 174.338 178.546 173.358 177.915 173.353ZM182.642 178.078C178.59 177.543 174.522 177.204 170.437 177.074C169.837 177.055 169.84 177.979 170.437 178.005C174.475 178.18 178.503 178.527 182.507 179.072C183.23 179.17 183.374 178.175 182.642 178.078ZM219.644 178.895C217.976 178.463 216.249 178.253 214.535 178.099C213.928 178.044 213.937 178.981 214.535 179.042C216.172 179.208 217.778 179.51 219.399 179.785C219.973 179.883 220.23 179.047 219.644 178.895ZM226.427 183.311C222.478 182.151 218.193 181.728 214.106 181.34C213.483 181.281 213.49 182.249 214.106 182.311C218.18 182.725 222.148 183.594 226.191 184.169C226.742 184.248 226.994 183.477 226.427 183.311ZM219.519 185.283C217.934 185.385 216.389 185.282 214.818 185.058C214.255 184.978 213.989 185.808 214.576 185.936C216.199 186.292 217.863 186.373 219.519 186.274C220.154 186.237 220.157 185.242 219.519 185.283Z" fill="#5B74CA"/>
<path d="M227.496 180.939C226.347 177.055 222.992 175.842 219.262 175.594C218.628 175.552 218.652 176.501 219.262 176.57C220.891 176.752 222.613 176.945 224.05 177.801C225.579 178.712 226.364 180.333 226.712 182.022C227.117 183.986 226.732 185.527 225.156 186.821C223.941 187.818 222.444 188.46 220.9 188.731C217.606 189.308 213.901 188.127 212.741 184.744C211.657 181.582 212.084 176.121 216.514 176.118C217.087 176.117 217.087 175.235 216.514 175.227C213.333 175.182 211.383 178.049 211.226 180.987C211.051 184.269 212.351 187.736 215.505 189.098C218.262 190.288 221.54 190.064 224.181 188.676C225.519 187.973 226.932 186.893 227.554 185.476C228.174 184.065 227.92 182.373 227.496 180.939Z" fill="#ED4450"/>
<path d="M129.504 161.854C129.504 161.854 133.566 140.651 136.511 138.477C139.456 136.302 151.634 133.073 154.603 134.218C157.572 135.363 159.584 140.552 159.608 143.871C159.608 143.871 162.671 145.553 162.952 147.166C163.233 148.779 162.882 149.948 162.882 149.948C162.882 149.948 165.758 150.555 165.244 153.968C164.731 157.381 161.529 161.262 160.01 162.081C158.491 162.899 153.652 163.742 153.652 163.742C153.652 163.742 148.255 174.099 144.679 175.829C141.103 177.56 138.133 176.415 138.133 176.415L129.504 161.854Z" fill="#E7926B"/>
<path d="M147.716 140.881C148.316 140.715 148.938 140.659 149.534 140.467C150.099 140.285 150.608 139.989 151.186 140.311C151.74 140.619 151.751 141.209 151.927 141.753C152.122 142.355 152.405 142.955 152.751 143.485C153.4 144.476 152.065 145.696 151.305 144.707C150.943 144.236 150.603 143.736 150.345 143.199C150.231 142.963 150.149 142.715 150.071 142.467C149.846 142.543 149.618 142.616 149.39 142.68C148.855 142.829 148.348 142.924 147.794 142.924C146.546 142.925 146.68 141.167 147.716 140.881ZM155.193 147.398C155.819 147.466 156.23 147.754 156.751 148.077C157.142 148.32 158.002 148.88 158.314 148.383C158.599 147.93 158.711 147.378 158.737 146.849C158.761 146.371 158.83 145.874 158.796 145.401C158.761 144.905 158.823 144.325 158.964 143.848C159.055 143.539 159.324 143.278 159.667 143.446C159.909 143.565 159.972 143.904 160.026 144.139C160.184 144.83 160.27 145.538 160.282 146.247C160.292 146.873 160.322 147.443 160.232 148.068C160.114 148.887 159.962 149.704 159.211 150.18C157.763 151.095 155.072 149.948 154.443 148.465C154.224 147.951 154.605 147.334 155.193 147.398ZM148.876 161.466C148.762 159.578 150.018 158.275 151.625 157.704C151.198 155.751 151.804 153.655 153.58 152.501C154.51 151.897 155.553 153.045 154.714 153.843C153.531 154.968 153.034 156.418 153.73 157.977C153.984 158.546 153.652 159.238 153.021 159.344C152.723 159.414 152.425 159.485 152.127 159.555C151.514 159.804 150.589 160.359 150.81 161.139C150.998 161.801 151.896 162.557 152.536 162.736C153.017 162.871 153.584 162.719 154.022 163.034C154.877 163.651 154.014 164.498 153.209 164.373C151.195 164.061 149.022 163.86 148.876 161.466Z" fill="#D17150"/>
<path d="M103.814 173.618C124.192 163.708 132.799 158.511 132.799 158.511L143.322 174.404C143.322 174.404 129.635 186.044 114.258 197.304C110.977 189.324 107.503 181.423 103.814 173.618Z" fill="#E7926B"/>
<path d="M164.024 159.61C163.93 159.329 163.645 159.142 163.428 158.955C163.271 158.82 163.111 158.694 162.941 158.581C162.072 155.963 156.851 147.509 155.776 146.753C154.514 145.865 154.514 145.865 154.514 145.865C154.514 145.865 143.742 136.634 135.112 129.094C135.298 129.143 135.484 129.195 135.673 129.237C136.819 129.491 137.281 127.519 136.139 127.219C134.003 126.657 132.024 125.759 130.414 124.207C129.048 122.891 128.279 121.221 127.248 119.661C125.944 117.689 123.586 116.092 121.276 117.253C121.103 117.155 120.942 117.072 120.795 117.005C120.696 117.019 120.599 117.039 120.505 117.063C119.733 116.426 118.956 115.799 118.386 115.344C117.411 115.38 116.858 116.154 116.811 117.119C117.309 117.707 118.003 118.417 118.704 119.101C118.681 119.241 118.665 119.382 118.659 119.523C119.048 120.289 119.701 120.908 119.701 120.908C119.701 120.908 143.387 145.587 147.012 150.495C150.23 154.853 159.453 158.599 162.232 159.253C162.403 159.458 162.635 159.624 162.843 159.787C163.08 159.973 163.295 160.169 163.603 160.208C163.952 160.254 164.121 159.895 164.024 159.61ZM123.851 119.127C124.336 119.396 124.796 119.812 125.234 120.315C124.73 119.87 124.271 119.475 123.851 119.127Z" fill="#1A1A1A"/>
<path d="M142.58 143.746C144.015 143.536 145.476 143.732 146.914 143.928C148.079 144.087 149.243 144.246 150.408 144.405C151.157 144.507 151.923 144.615 152.593 144.965C153.578 145.479 154.264 146.524 154.345 147.631C154.426 148.739 153.899 149.872 153 150.524C152.52 150.873 151.956 151.084 151.397 151.284C148.989 152.148 146.539 152.894 144.058 153.516C143.81 153.578 143.549 153.64 143.301 153.575C143.077 153.516 142.893 153.361 142.721 153.206C141.045 151.695 139.799 149.717 139.136 147.561C138.861 146.667 138.403 145.759 139.203 145.105C140.122 144.354 141.421 143.915 142.58 143.746Z" fill="#E7926B"/>
<path d="M143.544 170.6C144.959 167.85 145.439 164.827 144.376 161.849C143.881 160.462 142.818 159.512 142.183 158.259C142.019 157.935 141.775 157.718 141.768 157.332C141.744 156.035 143.319 154.421 144.11 153.555C145.533 151.996 148.114 151.835 150.08 151.381C151.254 151.11 151.476 152.837 150.393 153.179C148.686 153.718 143.713 154.75 144.42 157.551C144.433 157.602 145.542 159.22 145.578 159.285C146.042 160.12 146.399 161.001 146.661 161.92C147.615 165.259 146.158 168.947 144.56 171.972C143.996 173.039 142.984 171.686 143.544 170.6ZM134.586 148.962C136.682 146.312 138.522 143.665 141.841 143.641C143.106 143.632 143.201 144.173 142.029 144.716C139.278 145.992 137.139 147.445 135.157 149.791C134.511 150.557 133.95 149.766 134.586 148.962Z" fill="#D17150"/>
<path d="M23.0059 174.523C23.0059 174.523 31.7756 183.809 41.5771 207.538C51.3786 231.268 55.2478 247.002 58.713 252.558C62.9361 259.327 86.4577 244.681 86.4577 244.681L89.5529 175.554L37.9663 164.205L23.0059 174.523Z" fill="#61B7B0"/>
<path d="M92.3877 283.63C92.3877 283.63 45.4434 393.51 45.4434 395.574C45.4434 397.637 49.5702 399.185 50.602 397.637C51.6337 396.089 108.379 282.082 108.379 282.082L157.387 280.018C157.387 280.018 194.014 376.486 195.562 376.486C197.11 376.486 199.173 376.486 199.689 374.423C200.205 372.359 166.051 266.163 166.051 266.163L95.4828 276.923L92.3877 283.63Z" fill="#844435"/>
<path d="M116.635 283.63C116.635 283.63 90.8415 443.034 92.3892 444.581C93.937 446.129 98.5798 446.645 99.6116 444.581C100.643 442.518 131.08 285.693 131.08 285.693L165.127 280.534C165.127 280.534 238.897 420.335 240.96 420.851C243.024 421.367 248.182 419.303 247.667 417.24C247.151 415.176 176.476 262.479 176.476 262.479L116.635 283.63Z" fill="#A9644C"/>
<path d="M14.2288 79.8014C13.1816 79.8384 11.9358 79.8407 11.5936 80.8773C11.5528 81.0012 11.4928 81.102 11.4238 81.1899C11.9806 84.3905 21.198 88.1146 21.198 88.1146L21.714 81.9243C21.714 81.9243 17.2832 80.1522 14.2288 79.8014ZM84.443 52.4994C84.443 52.4994 82.1055 65.4412 79.3973 65.5193C76.6892 65.5975 72.5878 64.3603 72.5878 64.3603L72.5488 63.0062C72.5488 63.0062 78.6811 64.1848 79.3387 63.488C79.9961 62.7916 82.4313 53.2349 82.4313 53.2349L84.443 52.4994Z" fill="#1A1A1A"/>
<path d="M80.145 32.738C80.3918 32.7343 80.5662 32.8211 80.6001 33.0578C81.0135 35.9409 80.7998 38.8732 80.5852 41.7779C80.4412 43.7275 80.2872 45.7192 79.5138 47.5145C79.1049 48.4638 78.5269 49.3464 78.2577 50.3445C78.002 51.2918 78.039 52.2896 78.0451 53.2707C78.0836 59.3789 76.8447 65.4201 74.9769 71.214C74.0337 74.1396 72.9301 77.0118 71.7384 79.8444C71.1632 81.2117 70.6593 82.7235 69.9016 84.0006C69.3736 84.8907 68.5332 85.7282 67.8773 86.5295C67.4098 87.1003 66.8593 87.664 66.1508 87.9229C59.1101 90.4975 51.4872 84.6186 51.4872 84.6186L52.2647 99.8421C52.2647 99.8421 12.4169 104.378 11.0042 102.387C9.59148 100.394 19.3959 87.9151 20.3012 72.304C20.5675 67.7125 24.9024 63.8281 28.1392 61.0688C33.4167 56.5699 39.3953 52.8889 45.4058 49.4631C51.6395 45.9099 58.0465 42.6622 64.5298 39.5909C68.9596 37.4924 73.4289 35.4744 77.9399 33.5563C78.343 33.3851 79.4948 32.7478 80.145 32.738Z" fill="#E7926B"/>
<path d="M80.0466 33.6891C79.0002 34.5794 78.1219 35.654 77.2519 36.7202C75.6473 38.6868 74.1079 40.6531 72.6326 42.7025C71.2334 44.6464 69.4984 46.3174 68.0578 48.2283C65.4473 51.6915 55.5648 61.4628 52.3162 66.2996C49.0677 71.1364 46.4764 75.2768 39.0682 76.8455C31.6603 78.4142 20.0536 75.361 19.317 73.3496C16.3723 65.309 17.6922 56.6668 16.576 48.3452C16.0997 44.7949 15.1214 41.33 14.5612 37.7924C14.0009 34.2545 13.8768 30.5474 15.0749 27.1718C16.0118 24.5311 17.7055 22.2606 18.8328 19.7096C19.6586 17.8409 20.0028 15.9162 20.5259 13.9643C21.6838 9.64431 25.3521 6.34947 29.7494 5.57345C31 5.3528 32.2875 5.32349 33.5453 5.4999C34.5009 5.63407 35.9886 6.50806 36.8924 6.37044C38.329 6.15151 39.3021 3.17328 40.3134 2.13122C42.0944 0.295612 44.6012 -0.226423 47.0703 0.0838688C48.3161 0.240451 49.5345 0.586655 50.7088 1.02422C51.8433 1.44685 53.0411 2.37974 54.2829 2.30188C54.8899 2.26396 55.4602 2.01285 56.0268 1.79191C58.5683 0.800986 61.3205 0.353939 64.045 0.488973C65.5128 0.561662 67.1534 0.9139 67.9415 2.15449C68.1834 2.53546 68.3244 2.97447 68.5738 3.35055C69.401 4.59661 72.5157 3.97803 73.8766 4.18059C75.9427 4.48772 77.961 5.12094 79.8271 6.06044C80.7933 6.54685 81.8664 7.56219 81.3636 8.52007C81.0065 9.20099 79.9305 9.82388 80.427 10.4111C81.209 11.3363 82.8332 11.9298 83.7939 12.7188C84.7751 13.5244 85.6882 14.4173 86.6808 15.2508C90.1449 18.1598 90.6537 23.0894 88.3503 26.8227C86.3806 30.015 83.1211 31.2412 80.3359 33.4509C80.2382 33.5288 80.1417 33.6081 80.0466 33.6891Z" fill="#4A3333"/>
<path d="M50.2679 79.7926C50.238 78.2334 52.6304 78.1618 52.6904 79.7228C52.7338 80.8505 52.8559 83.3368 52.7953 84.4648C52.7137 85.9841 50.6054 86.0476 50.4362 84.5329C50.3107 83.4107 50.2894 80.9211 50.2679 79.7926Z" fill="#DC815C"/>
<path d="M54.5788 56.0596C54.4286 56.3081 54.2708 56.5742 54.0103 56.7023C53.4787 56.9635 52.8268 56.4552 52.7211 55.8726C52.6154 55.2899 52.8794 54.709 53.1558 54.1852C54.0361 52.5171 55.1138 50.9533 56.359 49.5369C56.7227 49.1231 57.1094 48.7149 57.5913 48.4477C57.9958 48.2233 58.5535 48.1285 58.8839 48.4523C59.0281 48.5933 59.1019 48.791 59.1516 48.9864C59.557 50.5812 59.0275 51.3164 57.8869 52.1818C56.5521 53.1946 55.4396 54.6354 54.5788 56.0596Z" fill="#1A1A1A"/>
<path d="M32.8929 11.4071C33.7893 11.1229 34.4263 11.1844 35.3118 11.5381C35.8091 11.7366 36.2711 12.2049 36.7521 12.4968C38.8169 10.8302 40.7287 9.80131 43.6578 10.3481C45.2115 10.6379 44.6171 12.9752 43.076 12.7232C41.9018 12.5313 40.7252 12.7048 39.697 13.3194C38.935 13.7751 38.3503 14.8528 37.512 15.1645C36.9762 15.3636 36.3464 15.2874 35.8309 15.0266C34.8394 14.5246 34.0298 13.9354 32.9544 13.5495C31.9695 13.1958 31.7716 11.7628 32.8929 11.4071Z" fill="#3A1714"/>
<path d="M69.7585 48.5181C69.7585 48.5181 68.1898 41.1096 61.478 43.3359C54.7662 45.5623 54.4795 59.1226 59.9932 62.3517C65.5072 65.5807 69.7585 48.5181 69.7585 48.5181Z" fill="#E7926B"/>
<path d="M57.4365 60.6356C57.7241 60.2202 58.0091 60.0464 58.5099 59.978C58.9607 59.9165 59.3747 60.2357 59.6195 60.5727C59.7212 60.7126 59.8367 60.8434 59.9355 60.9853C59.9404 60.9925 59.9413 60.9942 59.945 60.9997C59.9456 61.0002 59.9456 61.0002 59.9456 61.0002C60.0125 61.0706 60.0746 61.1439 60.1421 61.2125C60.2498 61.322 60.3631 61.426 60.4808 61.5246C60.4949 61.5363 60.5946 61.6116 60.6351 61.6438C60.6883 61.6771 60.7894 61.7429 60.7848 61.74C61.3301 62.0822 61.6344 62.82 61.2755 63.4133C60.9313 63.9828 60.2062 64.2379 59.602 63.904C58.7501 63.4331 57.962 62.762 57.4727 61.9116C57.2642 61.5484 57.18 61.0063 57.4365 60.6356Z" fill="#DC815C"/>
<path d="M68.1029 54.3629C67.6923 57.1992 66.6922 59.8171 65.1623 62.2486C64.4558 63.3714 63.6718 64.4776 62.6073 65.2685C62.0062 65.715 61.3311 66.0494 60.6576 66.3769C57.757 67.7871 54.7348 69.8956 52.6009 72.3506C50.6835 74.5569 50.2956 76.818 50.2232 79.6126C50.1387 82.8704 50.3855 86.1368 50.9598 89.3446C51.1259 90.2723 51.3221 91.204 51.7089 92.0637C52.9587 94.8402 56.032 96.4204 59.0536 96.7956C60.7079 97.0013 62.4504 96.8956 63.9387 96.1443C64.532 95.8449 65.0718 95.4499 65.593 95.0376C68.1997 92.9753 70.4476 90.3594 71.7925 87.2995C72.4711 85.7558 72.9311 84.1274 73.5416 82.559C74.2924 80.6306 74.9477 78.6645 75.504 76.6712C75.7416 75.8202 75.9625 74.9511 75.9458 74.0679C75.9292 73.1847 75.6479 72.2728 75.0098 71.6617C74.153 70.8408 72.8544 70.7113 71.8233 70.1237C69.1099 68.5769 69.0076 65.3536 69.2418 62.6644C69.5495 59.1293 70.5795 55.7109 71.1857 52.225C71.7672 48.8816 71.9686 45.3817 73.5212 42.3638C74.9914 39.5057 77.6128 37.2172 78.3885 34.098C78.5362 33.5038 78.5603 32.7605 78.063 32.4037C77.8007 32.2155 77.4559 32.1902 77.1333 32.2086C75.6384 32.2945 74.2996 33.1633 73.1851 34.1632C71.8086 35.398 70.6488 36.8822 69.7664 38.5067C69.3789 39.2204 69.1711 40.0576 68.7083 40.7034C68.0699 41.5944 67.3252 42.4267 66.6391 43.2817C66.5911 43.3415 66.5411 43.4059 66.5333 43.482C66.5201 43.6098 66.6259 43.7147 66.7187 43.8038C67.605 44.6562 68.0003 45.8974 68.2115 47.109C68.6295 49.5063 68.4531 51.9432 68.1029 54.3629Z" fill="#4A3333"/>
<path d="M66.8516 43.8927C66.8516 43.8927 68.2642 45.8849 68.2838 46.5618L83.8237 54.5495C83.8237 54.5495 84.4618 53.1759 84.4422 52.499C84.4227 51.8221 66.8516 43.8927 66.8516 43.8927Z" fill="#1A1A1A"/>
<path d="M77.4271 217.598L55.7705 197.967C51.9257 196.622 46.8154 196.15 38.7369 189.225C24.2925 176.844 24.2925 175.297 22.7448 174.781C21.197 174.265 9.33211 172.201 5.20522 164.463C1.07834 156.725 2.11005 141.249 1.07833 135.059C0.04661 128.868 -0.469391 126.289 0.56233 123.194C1.59405 120.099 4.1735 117.003 4.1735 114.424C4.1735 111.845 3.14178 106.686 5.72122 102.559C8.30067 98.4324 12.1696 94.0475 12.1696 93.0158C12.1696 91.9841 8.81639 82.4403 10.3641 80.8929C11.9118 79.3451 14.491 79.8611 14.491 79.8611C14.491 79.8611 9.84811 80.3771 12.4276 82.4406C15.007 84.504 35.1168 89.257 40.8003 89.6626C48.0224 90.1786 60.9193 93.2738 61.951 93.7895C62.9827 94.3055 65.5622 104.623 65.5622 104.623C65.5622 104.623 87.2286 115.972 94.9667 123.194C102.705 130.416 113.022 149.503 116.117 154.146C119.213 158.789 126.435 162.4 127.467 164.464C128.498 166.527 129.53 170.138 129.53 170.138C129.53 170.138 137.268 171.686 138.816 175.813C140.364 179.94 140.148 184.497 140.148 184.497L119.213 220.178L77.4271 217.598Z" fill="#E5EAEC"/>
<path d="M65.4918 103.717C50.503 95.3768 32.5825 97.4538 16.3867 93.4024C15.4598 93.1706 15.0768 94.56 15.9925 94.8327C31.9487 99.5816 49.4756 97.4087 64.5641 105.304C65.6091 105.85 66.5302 104.294 65.4918 103.717Z" fill="#ACBDCF"/>
<path opacity="0.5" d="M64.9305 206.272L77.4255 217.598L118.412 220.128L119.469 203.927L75.62 164.721L62.2074 176.07C62.2074 176.07 73.5566 189.999 72.0089 197.737C71.1536 202.013 67.7797 204.711 64.9305 206.272ZM25.792 176.171C22.9618 171.432 19.0136 167.535 14.4253 164.494C13.5131 163.889 12.6739 165.349 13.5711 165.955C17.9307 168.902 21.3919 171.437 24.2908 175.812C24.8905 176.718 26.3586 177.119 25.792 176.171Z" fill="#ACBDCF"/>
<path d="M202.684 211.676C202.976 212.701 203.081 213.783 203.502 214.761C203.924 215.74 204.777 216.639 205.842 216.687C206.882 216.733 207.784 215.966 208.397 215.125C210.528 212.201 210.425 208.266 210.233 204.653C213.447 204.36 216.692 204.398 219.899 204.766C220.096 204.789 220.308 204.82 220.448 204.961C220.566 205.08 220.606 205.254 220.642 205.419C221.012 207.143 221.313 209.16 220.147 210.483C219.113 211.658 217.184 211.913 216.467 213.304C215.851 214.498 216.655 216.176 217.971 216.445C217.551 217.823 218.533 219.34 219.853 219.915C221.174 220.49 222.705 220.311 224.083 219.89C227.865 218.735 231.173 215.484 231.515 211.544C231.728 209.099 230.817 206.675 229.536 204.582C227.701 201.584 224.984 199.025 221.654 197.9C219.07 197.026 216.273 197.05 213.552 197.246C211.076 197.425 208.612 197.74 206.159 198.124C204.916 198.318 203.665 198.532 202.489 198.979C201.503 199.354 200.582 199.887 199.736 200.516C198.808 201.204 197.888 202.1 197.755 203.308C197.643 204.321 198.193 204.684 198.828 205.349C200.459 207.057 202.036 209.394 202.684 211.676Z" fill="#DC815C"/>
<path d="M43.3789 196.447L55.7599 197.995C55.7599 197.995 73.2994 210.892 96.5135 217.082C119.728 223.273 183.18 209.86 192.466 209.344C201.751 208.828 208.458 215.019 213.1 222.757C217.743 230.495 227.545 257.32 232.703 263.511C237.862 269.701 239.41 270.733 240.441 270.733C241.473 270.733 241.473 274.86 239.925 274.86C238.378 274.86 234.509 275.633 229.35 265.832C229.35 265.832 211.295 266.348 178.279 279.76C145.263 293.172 102.446 297.3 82.8429 282.34C63.2399 267.379 57.5653 250.871 53.4381 239.006C49.3112 227.142 43.3789 196.447 43.3789 196.447Z" fill="#61B7B0"/>
<path opacity="0.5" d="M58.5254 202.31C58.5254 202.31 86.196 229.979 107.863 234.622C129.529 239.264 187.823 221.725 197.624 224.304C207.426 226.884 221.544 255.403 224.286 259.457C224.286 259.457 208.457 221.725 199.688 217.082C190.918 212.439 160.825 220.128 160.825 220.128C160.825 220.128 115.859 231.785 93.1603 222.499C70.4621 213.213 58.5254 202.31 58.5254 202.31Z" fill="#338C81"/>
<path d="M162.029 218.114C153.333 220.794 136.846 223.218 127.826 224.331C119.326 225.379 110.932 226.073 102.478 224.266C85.9249 220.727 71.4133 210.626 57.8302 200.986C57.3427 200.64 56.9025 201.431 57.3665 201.779C71.265 212.216 85.4063 222.887 102.846 226.398C111.513 228.143 120.108 227.368 128.803 226.264C137.678 225.137 154.501 222.3 163.062 219.661C164.322 219.273 163.299 217.723 162.029 218.114ZM238.798 268.701C236.37 267.265 234.815 265.212 233.493 262.774C232.868 261.621 231.299 262.636 231.781 263.775C232.947 266.529 235.416 268.682 238.054 269.975C238.898 270.389 239.624 269.19 238.798 268.701ZM228.577 264.542C224.963 257.169 220.982 249.673 217.258 242.35C213.867 235.684 211.131 228.263 206.636 222.241C202.958 217.313 197.996 214.141 191.754 213.973C183.958 213.762 176.12 215.526 168.577 217.278C167.525 217.523 167.975 219.095 169.021 218.887C176.175 217.466 183.45 215.909 190.777 215.911C198.505 215.912 203.66 220.479 207.364 226.91C210.82 232.909 213.556 239.356 216.735 245.508C220.111 252.044 224.009 259.425 228.061 265.575C228.615 266.414 229.017 265.441 228.577 264.542Z" fill="#338C81"/>
<path d="M202.353 204.315C202.353 204.315 207.837 207.057 213.869 206.508C219.902 205.96 224.838 205.96 224.838 205.96C224.838 205.96 228.128 209.799 229.225 211.444L228.128 216.379C228.128 216.379 223.741 220.218 225.386 222.412C227.031 224.606 230.87 222.412 233.612 218.025C236.354 213.637 236.354 210.895 236.354 210.895C236.354 210.895 236.902 207.056 236.354 205.411C235.805 203.766 231.418 198.83 231.418 197.734C231.418 196.637 230.87 194.991 229.225 193.895C227.58 192.798 227.031 192.798 226.483 191.701C225.934 190.604 224.289 189.507 222.095 188.959C219.902 188.41 218.256 187.862 217.16 187.862C216.063 187.862 201.256 183.475 194.127 185.12C186.997 186.765 202.353 204.315 202.353 204.315Z" fill="#E7926B"/>
<path d="M50.8597 170.912C50.8597 170.912 58.5978 176.07 66.3358 179.681C74.0739 183.293 103.479 208.054 110.185 214.76C116.891 221.467 127.724 231.268 143.2 230.237C158.676 229.205 181.891 213.213 188.081 209.602C194.272 205.991 202.01 204.443 202.01 204.443C202.01 204.443 209.748 191.547 195.304 184.324C195.304 184.324 174.669 183.809 171.058 185.872C167.446 187.935 163.32 187.935 162.288 187.935C161.256 187.935 146.296 187.935 145.264 186.904C144.232 185.872 138.558 178.65 131.335 178.134C131.335 178.134 129.272 169.88 123.081 165.753C116.891 161.626 113.28 159.563 112.248 156.467C111.216 153.372 93.6769 130.158 85.4228 122.42C77.1687 114.682 65.3038 106.428 51.3754 114.682C37.447 122.936 36.4153 162.142 42.0899 169.88C47.7645 177.618 50.8597 170.912 50.8597 170.912Z" fill="#E5EAEC"/>
<path d="M146.779 187.567C143.418 182.838 139.023 179.317 133.607 177.237C132.891 176.962 131.972 176.788 131.363 176.317C130.316 175.508 130.065 174.126 129.599 172.971C128.193 169.486 125.996 166.325 123.167 163.842C120.153 161.198 116.142 159.853 113.765 156.523C111.28 153.042 112.369 156.388 110.081 152.771C107.641 148.912 105.108 145.11 102.454 141.394C99.9226 137.849 97.2857 134.371 94.4859 131.033C91.6094 127.603 88.6392 123.916 85.153 121.093C84.1865 120.311 83.0134 121.485 83.7938 122.452C86.8389 126.229 90.3116 129.651 93.3309 133.468C96.279 137.194 99.0708 141.04 101.731 144.977C104.286 148.759 106.727 152.618 109.103 156.514C111.229 160.003 109.956 156.863 112.731 159.888C115.435 162.837 119.424 164.173 122.243 167.049C123.852 168.69 125.193 170.586 126.209 172.648C126.969 174.19 127.338 176.03 128.34 177.445C129.26 178.744 130.59 179.263 132.022 179.809C134.57 180.781 136.947 181.938 139.087 183.637C141.399 185.473 143.603 187.444 145.684 189.537C146.129 189.985 146.575 190.443 147.118 190.765C147.382 190.921 147.778 191.015 147.949 190.761C148.02 190.655 148.024 190.52 148.018 190.393C147.969 189.357 147.39 188.428 146.79 187.582C146.786 187.577 146.783 187.572 146.779 187.567Z" fill="#ACBDCF"/>
<path opacity="0.5" d="M191.82 196.427C190.457 191.812 187.385 187.608 182.887 185.673C181.91 185.254 181.047 186.591 182.028 187.142C189.232 191.184 193.418 201.372 188.359 208.614C187.722 209.526 189.1 210.501 189.859 209.771C193.291 206.473 193.068 200.651 191.82 196.427Z" fill="#ACBDCF"/>
<path d="M69.6893 181.487C68.5223 180.703 66.5904 179.359 65.347 178.693C65.3228 178.68 65.301 178.665 65.2754 178.654C64.3911 178.181 63.5019 177.716 62.6233 177.241C60.8836 176.299 59.1581 175.212 57.2142 174.76C55.767 174.424 55.3087 176.39 56.6163 176.929C58.0178 177.506 59.3509 178.237 60.6636 179.015C60.1513 179.103 59.637 179.193 59.1167 179.277C56.6729 179.671 54.4531 179.535 52.0245 179.148C48.549 178.594 45.1964 177.875 41.7251 178.854C40.5408 179.189 41.0563 180.852 42.2233 180.662C46.2643 180 50.1004 181.391 54.0658 181.923C57.6422 182.403 60.9856 181.414 64.5376 181.357C65.5705 181.965 68.0885 182.543 69.1733 183.035C70.6555 183.708 71.0727 182.416 69.6893 181.487Z" fill="#ACBDCF"/>
<path opacity="0.5" d="M78.313 116.93C68.806 113.105 58.7838 118.248 52.7182 125.658C49.5957 129.472 47.1918 133.921 45.8984 138.687C44.4851 143.896 44.4926 149.575 44.7609 154.931C45.0387 160.478 46.2983 166.054 49.9184 170.414C50.3413 170.923 51.0647 170.193 50.645 169.687C47.4926 165.892 46.2334 161.01 45.8648 156.176C45.4801 151.13 45.4298 145.652 46.4727 140.683C48.3209 131.879 54.1944 123.198 62.2723 119.005C67.1327 116.482 72.9056 115.857 78.0708 117.809C78.6236 118.017 78.8474 117.146 78.313 116.93Z" fill="#ACBDCF"/>
</svg>
