<svg width="428" height="432" viewBox="0 0 428 432" fill="none" xmlns="http://www.w3.org/2000/svg">
<path d="M224.489 165L198.931 201.969L179.335 230.309C177.522 232.921 175.043 234.832 172.242 235.943C168.744 237.343 164.768 237.463 161.035 236.093L76.916 206.87L79.933 178.585L156.726 202.412L193.136 143.7L224.489 165Z" fill="#FC5F69"/>
<path d="M198.931 201.969L179.335 230.309C177.521 232.922 175.043 234.833 172.242 235.943C172.229 234.918 172.296 233.905 172.431 232.916C173.23 227.071 175.914 221.689 178.03 216.188C181.76 206.455 192.677 158.127 198.391 162.978C201.744 165.824 194.005 185.568 195.661 189.627C197.272 193.583 198.187 197.76 198.931 201.969Z" fill="#EE2A33"/>
<path d="M62.9617 232.707L2.90373 227.201C1.1464 227.04 -0.147568 225.484 0.013554 223.727L7.09174 146.529C7.25286 144.772 8.80808 143.478 10.5654 143.639L70.6233 149.145C72.3806 149.307 73.6746 150.862 73.5135 152.619L66.4353 229.817C66.2742 231.575 64.719 232.869 62.9617 232.707Z" fill="#CE5D09"/>
<path d="M62.0231 228.048L68.8535 153.556L11.5033 148.298L4.67293 222.789L62.0231 228.048Z" fill="white"/>
<path d="M53.692 155.635L26.03 153.099C25.1147 153.015 24.4407 152.205 24.5246 151.29L25.3777 141.986C25.4616 141.071 26.2717 140.397 27.187 140.48L54.849 143.017C55.7643 143.101 56.4383 143.911 56.3543 144.826L55.5013 154.13C55.4173 155.045 54.6073 155.719 53.692 155.635Z" fill="#4D475B"/>
<path d="M41.0184 146.124C43.4351 146.124 45.3943 144.165 45.3943 141.748C45.3943 139.332 43.4351 137.372 41.0184 137.372C38.6017 137.372 36.6426 139.332 36.6426 141.748C36.6426 144.165 38.6017 146.124 41.0184 146.124Z" fill="#4D475B"/>
<path d="M41.0222 143.612C42.0516 143.612 42.8861 142.778 42.8861 141.748C42.8861 140.719 42.0516 139.884 41.0222 139.884C39.9927 139.884 39.1582 140.719 39.1582 141.748C39.1582 142.778 39.9927 143.612 41.0222 143.612Z" fill="white"/>
<path d="M14.954 162.22L13.9609 173.05L26.0018 174.154L26.9948 163.324L14.954 162.22Z" fill="#55B1F4"/>
<path d="M19.369 171.228L17.127 168.806L17.9616 168.032L19.4714 169.662L24.1536 165.766L24.8812 166.64L19.369 171.228Z" fill="white"/>
<path d="M30.6345 165.668L30.4277 167.923L62.6213 170.875L62.8281 168.62L30.6345 165.668Z" fill="#E1E1FE"/>
<path d="M30.3494 170.27L30.1426 172.525L45.6157 173.944L45.8225 171.689L30.3494 170.27Z" fill="#E1E1FE"/>
<path d="M13.6083 176.881L12.6152 187.711L24.6561 188.815L25.6491 177.985L13.6083 176.881Z" fill="#55B1F4"/>
<path d="M18.0233 185.889L15.7812 183.467L16.6159 182.693L18.1257 184.324L22.8079 180.427L23.5366 181.302L18.0233 185.889Z" fill="white"/>
<path d="M29.2888 180.328L29.082 182.583L61.2756 185.535L61.4824 183.28L29.2888 180.328Z" fill="#E1E1FE"/>
<path d="M29.0037 184.931L28.7969 187.186L44.27 188.605L44.4768 186.35L29.0037 184.931Z" fill="#E1E1FE"/>
<path d="M12.2626 191.543L11.2695 202.373L23.3104 203.477L24.3034 192.647L12.2626 191.543Z" fill="#55B1F4"/>
<path d="M16.6787 200.55L14.4355 198.129L15.2713 197.354L16.78 198.985L21.4622 195.088L22.1909 195.963L16.6787 200.55Z" fill="white"/>
<path d="M27.947 194.989L27.7402 197.245L59.9338 200.197L60.1406 197.941L27.947 194.989Z" fill="#E1E1FE"/>
<path d="M27.6619 199.592L27.4551 201.847L42.9282 203.266L43.135 201.011L27.6619 199.592Z" fill="#E1E1FE"/>
<path d="M10.9188 206.203L9.92578 217.033L21.9666 218.137L22.9597 207.307L10.9188 206.203Z" fill="#55B1F4"/>
<path d="M15.3358 215.212L13.0938 212.79L13.9284 212.016L15.4382 213.646L20.1204 209.75L20.848 210.624L15.3358 215.212Z" fill="white"/>
<path d="M26.5994 209.652L26.3926 211.907L58.5862 214.859L58.793 212.604L26.5994 209.652Z" fill="#E1E1FE"/>
<path d="M26.3181 214.254L26.1113 216.51L41.5845 217.929L41.7913 215.673L26.3181 214.254Z" fill="#E1E1FE"/>
<path d="M79.6288 181.453L75.4283 179.73L73.0098 204.2L77.036 205.753" fill="#E1E1FE"/>
<path d="M75.1415 182.684L73.5664 203.574L69.0068 201.764L70.3489 187.099C70.3489 187.099 60.4867 173.53 64.0912 169.489C67.6956 165.46 75.1415 182.684 75.1415 182.684Z" fill="#FEABB5"/>
<path d="M196.156 117.38L194.235 127.291L192.338 140.527L188.689 166.111L188.542 167.1L187.434 167.442L169.959 172.768L147.869 179.493C140.682 181.874 132.725 179.457 128.094 173.42L86.7715 110.549L103.329 94.533L143.2 144.249L196.156 117.38Z" fill="#FC5F69"/>
<path d="M197.787 138.588L194.138 164.173C193.735 164.635 193.321 165.075 192.884 165.504L175.408 170.829C181.694 161.657 186.966 149.138 191.443 141.041C193.147 137.961 194.729 134.652 195.083 131.182L195 133.789C196.112 135.28 197.052 136.895 197.787 138.588Z" fill="#EE2A33"/>
<path d="M102.023 95.7955L97.6209 90.9346L84.5605 102.639L88.5993 108.638L102.023 95.7955Z" fill="#E1E1FE"/>
<path d="M64.873 68.0517L67.34 76.5677C67.5822 77.4036 68.6165 77.8398 69.648 77.5409L83.3851 73.5614C84.4167 73.2626 85.0576 72.3411 84.8155 71.5052L82.3485 62.9893L64.873 68.0517Z" fill="#4D475B"/>
<path d="M71.8008 76.918L80.7252 107.725C81.4832 110.341 84.2012 111.84 86.8114 111.084C89.4212 110.328 90.9155 107.602 90.1595 104.992L81.2351 74.1849L71.8008 76.918Z" fill="#4D475B"/>
<path d="M36.9785 49.102C41.6819 65.3408 58.6582 74.6974 74.9079 69.9995C91.1523 65.2851 100.498 48.3034 95.7947 32.0647C91.0912 15.8259 74.1149 6.46927 57.8652 11.1672C41.6211 15.8811 32.2752 32.8627 36.9785 49.102ZM43.415 47.2422C39.7297 34.5483 47.0464 21.2829 59.7355 17.6084C72.4245 13.9343 85.6843 21.2349 89.3584 33.924C93.0325 46.6131 85.7322 59.8726 73.0378 63.5578C60.3488 67.2318 47.0891 59.9313 43.415 47.2422Z" fill="#D1CFEA"/>
<g opacity="0.2">
<path d="M51.4805 19.3241C51.7703 20.0243 72.1356 69.2357 70.863 66.1631C71.777 65.9913 72.689 65.7816 73.602 65.5225C76.7031 64.619 79.5103 63.1947 81.9533 61.3672L81.145 59.4091C79.4525 55.3187 87.6325 75.0885 62.7223 14.8842C58.6963 15.4602 54.8255 16.979 51.4805 19.3241Z" fill="white"/>
</g>
<path d="M41.4565 47.7971C45.2027 60.7671 58.1268 68.4285 70.8624 66.163C71.7764 65.9912 72.6884 65.7815 73.6015 65.5224C76.7025 64.6189 79.5097 63.1945 81.9528 61.367C90.4253 54.9851 94.3878 43.9574 91.3213 33.3507C86.0547 15.2038 63.5268 8.31409 48.9466 21.3395C41.3788 28.3006 38.7677 38.5127 41.4565 47.7971ZM49.7854 23.3686C62.4689 11.0823 84.2901 16.4013 89.3557 33.9188C92.0741 43.3027 88.8315 53.3517 81.1444 59.409C78.7976 61.2511 76.0667 62.6722 73.0336 63.5567C60.4305 67.2623 47.1 59.9656 43.419 47.241C40.8088 38.3011 43.7583 29.0733 49.7854 23.3686Z" fill="#BDBCDD"/>
<path d="M82.7746 102.742C84.0857 100.276 80.2754 99.4888 80.2754 99.4888C80.2754 99.4888 83.8784 95.9041 82.2713 94.5734C80.8659 93.3945 79.6094 94.0133 79.3175 94.1817C79.7717 93.7511 83.0479 90.5417 80.9959 89.5398C78.8172 88.4596 75.4401 88.4298 73.4161 90.517C71.1949 92.8074 71.5535 101.511 75.4271 104.785C76.7898 105.937 81.4595 105.191 82.7746 102.742Z" fill="#FEABB5"/>
<path d="M95.4802 92.8536L94.6384 88.6202C94.6384 88.6202 93.8529 78.0333 84.7427 78.2226C77.2195 78.379 76.1978 80.2138 76.0303 82.8959C75.7835 86.8462 84.9341 87.3775 84.9341 87.3775L88.4639 99.1404L95.4802 92.8536Z" fill="#FEABB5"/>
<path d="M355.26 55.0826L343.563 59.9848C336.621 63.8467 341.274 75.4135 348.517 72.933L360.5 68.8768L355.26 55.0826Z" fill="#FFCF30"/>
<path d="M386.072 97.4385L379.531 101.015C378.633 101.498 377.492 101.164 376.979 100.264L363.421 76.4221L360.405 70.9684C359.922 70.0711 360.256 68.9306 361.153 68.4469L367.694 64.8707C368.624 64.3588 369.796 64.6955 370.279 65.5928L374.025 72.331L386.884 94.8911C387.367 95.7884 387.032 96.9297 386.072 97.4385Z" fill="#FFCF30"/>
<path d="M368.025 46.2229L349.291 54.362C340.823 59.5177 348.988 76.3185 357.725 73.4179L375.401 66.4068L368.025 46.2229Z" fill="#04020F"/>
<path d="M418.676 69.6433C410.394 68.6864 392.276 63.4831 376.016 65.847C370.091 65.0272 362.952 50.3386 368.618 44.7344C368.565 44.7554 380.479 25.5684 390.57 4.22729C389.735 10.9028 393.912 23.0144 399.734 37.5824C402.308 43.994 405.135 49.8593 407.963 54.8079C412.061 62.0425 415.452 67.5228 418.676 69.6433Z" fill="#FFCF30"/>
<path d="M418.782 70.0572C423.658 68.0294 421.431 51.5246 413.808 33.1927C406.184 14.8609 396.051 1.64384 391.175 3.67167C386.299 5.6995 388.526 22.2043 396.149 40.5362C403.772 58.868 413.905 72.085 418.782 70.0572Z" fill="#4D475B"/>
<path d="M394.63 29.8664C395.65 33.0452 396.869 36.346 398.246 39.662C399.69 43.1358 401.165 46.294 402.645 49.1315C409.417 62.2649 415.906 68.513 417.869 67.9639L417.902 67.9547C419.915 67.1202 420.237 54.5792 411.707 34.0629C403.557 14.4813 394.474 5.09174 392.084 5.76052C391.385 6.05081 390.307 8.83529 391.23 15.6835C391.8 19.8749 392.965 24.7161 394.63 29.8664Z" fill="#04020F"/>
<path d="M394.631 29.8662C395.65 33.045 396.869 36.3458 398.246 39.6618C399.691 43.1356 401.166 46.2938 402.645 49.1313C406.506 46.7031 408.496 41.9379 407.204 37.3209C405.673 31.8494 400.104 28.5948 394.631 29.8662Z" fill="#FFCF30"/>
<path d="M361.036 88.9982C361.036 88.9982 360.864 69.5466 366.211 71.3179C371.557 73.0892 367.7 83.0302 367.7 83.0302L377.529 100.315L375.296 102.714" fill="#FEABB5"/>
<path d="M377.38 95.2364C378.581 96.1668 381.542 96.5583 384.042 96.4341C386.104 96.3317 387.849 94.8714 388.342 92.8662C389.06 89.9465 389.84 85.4831 388.86 82.6369C388.612 81.5827 388.244 80.5627 387.748 79.6368C385.543 75.5129 379.031 76.6249 377.282 78.7817C375.529 80.9273 379.096 82.4361 379.096 82.4361C379.096 82.4361 374.895 85.2545 376.197 86.8653C377.353 88.2918 378.694 87.9283 379.02 87.8255C378.485 88.1525 374.258 90.1622 376.073 91.5349C376.525 91.8813 377.235 92.1792 378.092 92.4127C377.128 93.3204 376.359 94.4582 377.38 95.2364Z" fill="#FEABB5"/>
<path d="M355.33 90.9231L359.524 86.422L375.711 102.241L371.813 107.156" fill="#E1E1FE"/>
<path d="M372.842 107.594L328.136 158.087C324.191 163.184 317.62 165.487 311.35 163.966L293.767 161.798L283.065 160.473L263.424 158.045L274.641 120.685L310.889 128.058L354.135 89.1714L372.842 107.594Z" fill="#FC5F69"/>
<path d="M293.765 161.798L283.063 160.472C282.614 159.887 282.199 159.28 281.806 158.661C277.736 152.3 275.496 144.022 276.448 136.459C276.769 133.98 276.18 127.7 279.608 128.748C282.719 129.69 289.542 150.266 291.107 155.497C291.757 157.69 292.658 159.805 293.765 161.798Z" fill="#EE2A33"/>
<path d="M350.016 214.593L349.861 230.112C349.861 230.112 303.782 231.883 284.464 224.437C282.502 223.688 280.825 222.84 279.491 221.882C272.255 216.674 265.344 201.824 260.022 187.389C253.858 170.646 249.807 154.447 249.807 154.447L278.139 123.506L297.525 192.592L350.016 214.593Z" fill="#FC5F69"/>
<path d="M284.464 224.437C282.501 223.688 280.825 222.84 279.49 221.882C272.255 216.674 265.343 201.824 260.021 187.389C260.401 179.023 262.727 170.768 265.64 162.952C266.787 159.877 268.111 152.728 272.838 153.732C277.247 154.653 275.178 162.25 274.84 165.378C274.149 171.85 272.9 178.271 272.63 184.782C272.057 198.828 276.368 212.969 284.464 224.437Z" fill="#EE2A33"/>
<path d="M349.856 230.114C349.856 230.114 344.401 211.939 350.037 211.996C355.673 212.052 355.256 220.343 355.256 220.343" fill="#FEABB5"/>
<path d="M413.692 216.78C413.68 217.927 413.207 218.959 412.449 219.702C411.684 220.444 410.65 220.897 409.503 220.886L338.393 220.175C336.106 220.152 334.264 218.281 334.287 215.987C334.299 214.847 334.772 213.807 335.53 213.065C336.295 212.322 337.329 211.869 338.476 211.88L409.586 212.591C411.873 212.614 413.715 214.493 413.692 216.78Z" fill="#1E304E"/>
<path d="M423.39 144.819L414.805 209.855C414.598 211.442 413.233 212.627 411.637 212.611L342.131 211.917L351.544 140.549L420.278 141.235C422.183 141.254 423.637 142.931 423.39 144.819Z" fill="#2C3D61"/>
<path d="M353.357 143.085L344.899 209.419C344.722 210.809 343.482 211.93 342.129 211.917C340.776 211.903 339.825 210.76 340.002 209.37L348.46 143.036C348.745 140.796 351.52 139.714 352.871 141.296C353.254 141.761 353.446 142.391 353.357 143.085Z" fill="#3F547A"/>
<path d="M344.552 219.023C343.787 219.766 342.753 220.219 341.606 220.207L303.122 219.823C300.835 219.8 298.993 217.928 299.016 215.634C299.027 214.494 299.501 213.455 300.258 212.712C301.023 211.97 302.058 211.517 303.205 211.528L341.689 211.913C345.366 211.949 347.178 216.449 344.552 219.023Z" fill="#2C3D61"/>
<path d="M383.95 184.302C387.525 184.302 390.423 181.404 390.423 177.829C390.423 174.254 387.525 171.355 383.95 171.355C380.375 171.355 377.477 174.254 377.477 177.829C377.477 181.404 380.375 184.302 383.95 184.302Z" fill="#3F547A"/>
<path d="M355.256 220.344C355.256 220.344 390.079 210.281 386.613 222.95C383.148 235.62 349.855 230.115 349.855 230.115" fill="#FEABB5"/>
<path d="M219.227 417.484C210.871 418.165 210.871 405.377 203.485 407.245C203.224 407.303 202.978 407.376 202.746 407.463L203.195 394.269L222.992 402.162C223.018 402.276 224.228 407.613 224.151 407.274L224.745 409.997C225.107 412.864 224.643 417.035 219.227 417.484Z" fill="#E1E1FE"/>
<path d="M230.018 428.766C229.917 430.171 228.729 431.257 227.324 431.257H173.277C171.828 431.257 170.67 430.113 170.568 428.679C169.743 416.485 183.762 417.774 190.409 416.297C197.245 414.79 196.202 409.505 202.748 407.462C202.98 407.375 203.226 407.303 203.487 407.245C210.872 405.377 210.872 418.165 219.229 417.484C224.645 417.035 225.109 412.864 224.747 409.997C224.587 408.563 224.211 407.433 224.153 407.274L224.138 407.245C230.511 412.024 230.409 423.639 230.018 428.766Z" fill="#04020F"/>
<path d="M230.129 427.663C230.108 428.056 230.084 428.427 230.058 428.766C229.957 430.171 228.769 431.257 227.364 431.257H173.316C171.868 431.257 170.709 430.113 170.608 428.679C170.584 428.329 170.576 427.992 170.576 427.663H230.129Z" fill="#04020F"/>
<path d="M256.891 417.484C248.305 418.184 248.425 404.457 240.41 407.462L240.859 394.269L260.656 402.162L261.801 407.245L261.815 407.274L262.409 409.997C262.771 412.864 262.308 417.035 256.891 417.484Z" fill="#E1E1FE"/>
<path d="M267.682 428.766C267.581 430.171 266.393 431.257 264.989 431.257H210.941C209.492 431.257 208.334 430.113 208.232 428.679C207.407 416.485 221.426 417.774 228.073 416.297C234.909 414.791 233.866 409.505 240.412 407.462C248.411 404.463 248.317 418.183 256.893 417.484C262.309 417.035 262.773 412.864 262.411 409.997C262.251 408.563 261.875 407.433 261.817 407.274L261.802 407.245C268.175 412.024 268.073 423.639 267.682 428.766Z" fill="#04020F"/>
<path d="M267.792 427.663C267.77 428.055 267.746 428.427 267.72 428.765C267.619 430.171 266.431 431.257 265.026 431.257H210.978C209.53 431.257 208.372 430.113 208.27 428.678C208.246 428.328 208.238 427.992 208.238 427.663H267.792Z" fill="#04020F"/>
<path d="M195.089 34.3925C195.063 34.4219 194.996 34.5297 194.903 34.7067C193.922 36.5731 190.049 46.1373 201.079 52.6636C213.155 59.8087 209.226 36.2785 209.226 36.2785L201.075 33.2034L195.089 34.3925Z" fill="#04020F"/>
<path d="M234.69 404.806L228.837 263.055C227.37 423.393 227.556 403.033 227.54 404.806H196.431C196.414 403.3 196.648 423.613 194.428 231.24L194.293 221.428C199.329 222.028 204.541 222.439 209.9 222.698C217.877 223.081 226.196 223.116 234.796 222.852C245.291 222.533 256.21 221.781 267.435 220.704L267.594 230.376L267.935 251.401L269.977 404.806H234.69Z" fill="#1D1B37"/>
<path d="M224.204 236.596C227.086 236.983 229.982 237.37 232.89 237.327C235.798 237.283 238.742 236.792 241.348 235.5C242.29 235.033 243.202 234.447 243.838 233.609C244.475 232.772 244.801 231.646 244.487 230.643C244.156 229.583 243.173 228.829 242.118 228.483C241.063 228.137 239.931 228.135 238.821 228.142C227.035 228.21 215.257 228.809 203.51 229.77C202.404 229.861 199.816 230.296 200.391 231.995C200.882 233.451 203.189 233.774 204.448 233.943C208.665 234.509 212.883 235.076 217.1 235.642C219.468 235.96 221.836 236.278 224.204 236.596Z" fill="#04020F"/>
<path d="M228.834 222.851C229.228 230.499 229.622 237.359 229.928 242.859C230.287 249.271 235.929 254.078 242.318 253.419L267.932 251.401L267.432 220.704C256.207 221.781 239.329 222.534 228.834 222.851Z" fill="#04020F"/>
<path d="M194.293 221.428L194.734 253.342H198.758C204.588 253.342 209.347 248.706 209.524 242.882C209.718 236.282 209.83 229.517 209.9 222.698C204.541 222.439 199.329 222.028 194.293 221.428Z" fill="#04020F"/>
<path d="M198.186 224.557H249.39L243.501 125.137L238.079 107.63L216.081 108.17L208.31 117.436L204.804 121.919C204.804 121.919 199.615 208.138 198.186 224.557Z" fill="#E1E1FE"/>
<path d="M194.293 221.428L194.428 231.24C197.793 231.47 201.211 231.646 204.682 231.781C214.524 232.164 224.784 232.199 235.397 231.934C245.815 231.681 256.575 231.14 267.594 230.375L267.435 220.704C256.21 221.78 245.292 222.533 234.797 222.851C226.196 223.116 217.877 223.081 209.9 222.698C204.541 222.439 199.329 222.028 194.293 221.428Z" fill="#EA8124"/>
<path d="M223.436 136.549L223.459 136.796L223.671 136.896L223.436 136.549Z" fill="#46A1E9"/>
<path d="M274.093 248.073L244.612 250.412C238.23 251.08 232.583 246.269 232.226 239.853C232.171 238.918 232.037 233.115 231.87 224.973C231.87 224.828 231.859 224.695 231.859 224.55C231.848 224.038 231.836 223.525 231.825 223.013C231.714 217.555 231.58 211.218 231.435 204.658C231.268 196.104 231.102 187.183 230.945 179.342C230.689 166.132 230.5 156.019 230.5 156.019L238.085 107.625L247.786 110.476C247.786 110.476 268.612 115.293 275.495 120.859C279.692 124.252 273.102 142.698 272.467 158.024C272.411 159.472 272.345 160.92 272.278 162.356C272.066 166.823 271.821 171.166 271.576 175.12C270.93 185.401 270.284 192.997 270.284 192.997L272.311 222.334L272.746 228.571L273.548 240.143L274.093 248.073Z" fill="#FC5F69"/>
<path d="M187.18 250.481H195.4C201.236 250.481 205.992 245.837 206.17 240.012C206.326 234.944 206.426 229.776 206.493 224.553C206.504 223.572 206.515 222.592 206.526 221.612C206.66 209.928 206.66 198.056 206.782 186.517C206.805 184.612 206.849 182.697 206.916 180.758C208.097 146.743 216.083 108.173 216.083 108.173L208.342 112.751C208.342 112.751 195.789 116.571 194.03 119.445C189.318 127.13 187.971 153.393 187.558 183.309C187.403 195.438 187.38 208.18 187.369 220.509C187.347 230.99 187.313 241.193 187.18 250.481Z" fill="#FC5F69"/>
<path d="M225 404.806C226.052 372.459 228.136 267.328 224.577 264.382C220.053 260.64 217.559 253.345 217.559 253.345C220.488 256.481 228.836 257.163 228.836 257.163C227.373 423.679 227.554 403.072 227.539 404.806H225Z" fill="#04020F"/>
<path d="M211.439 222.742V231.338C211.439 232.065 212.026 232.652 212.754 232.652H226.078C226.805 232.652 227.392 232.065 227.392 231.338V222.742C227.392 222.015 226.805 221.428 226.078 221.428H212.754C212.026 221.428 211.439 222.015 211.439 222.742Z" fill="#FFCF30"/>
<path d="M239.516 82.5017L238.08 107.63L222.034 117.457L216.082 108.17L220.971 86.2638L239.516 82.5017Z" fill="#FEABB5"/>
<path d="M208.968 98.0812C226.62 106.463 239.875 81.8707 239.875 81.8707C239.977 81.7569 253.751 76.8277 251.271 69.0698C248.923 61.4052 241.082 66.7653 240.806 66.9542L245.415 49.5887L241.067 31.902C241.067 31.902 211.805 24.2086 203.081 35.7633C202.315 36.7738 201.661 38.0483 201.108 39.5285C195.533 54.5517 196.146 91.9932 208.968 98.0812Z" fill="#FEABB5"/>
<path d="M193.22 34.0331C192.97 52.5543 235.237 41.5265 235.237 41.5265C229.42 48.9163 237.4 55.2963 239.06 56.8098C240.72 58.3233 240.815 66.9597 240.815 66.9597L240.82 66.9533C241.097 66.7644 248.938 61.4043 251.286 69.0689C251.316 69.1614 251.339 69.2483 251.362 69.3351C254.181 63.717 258.091 54.6499 258.067 47.6479C258.029 36.7027 250.912 35.4903 250.912 35.4903C250.912 35.4903 254.577 27.3766 244.993 22.5806C235.408 17.7843 218.769 24.7295 218.769 24.7295C218.769 24.7295 193.395 21.0926 193.22 34.0331Z" fill="#04020F"/>
<path d="M222.667 62.7702C222.797 64.7765 221.844 66.4746 220.551 66.5585C219.244 66.6432 218.093 65.0815 217.963 63.0753C217.833 61.0683 218.773 59.3711 220.079 59.2863C221.372 59.2024 222.536 60.7632 222.667 62.7702Z" fill="#04020F"/>
<path d="M216.338 56.5251C218.253 53.8266 222.805 53.9705 224.545 56.7865C221.831 55.4843 219.202 55.3488 216.338 56.5251Z" fill="#222130"/>
<path d="M205.729 61.9188C205.739 63.9293 204.687 65.5675 203.391 65.5741C202.082 65.5808 201.026 63.9532 201.016 61.9427C201.006 59.9316 202.045 58.2934 203.354 58.2868C204.65 58.2802 205.719 59.9077 205.729 61.9188Z" fill="#04020F"/>
<path d="M199.783 55.3071C201.856 52.7278 206.391 53.1429 207.96 56.0578C205.329 54.5961 202.712 54.3038 199.783 55.3071Z" fill="#222130"/>
<path d="M210.786 61.4623C210.645 64.4171 210.167 67.3034 209.606 70.1731C208.968 72.429 209.322 74.3918 211.86 73.9118C212.542 73.7948 213.194 73.442 213.873 73.1493C212.773 74.1993 211.204 75.2032 209.6 74.4478C207.885 73.6188 208.165 71.4032 208.49 69.9474C209.088 67.0852 209.768 64.2394 210.786 61.4623Z" fill="#E48A9A"/>
<path d="M220.97 79.4498C220.907 79.5637 220.946 87.0921 213.695 88.2255C211.338 88.5812 209.648 87.9605 208.459 86.9289C205.798 84.6807 205.51 80.4527 205.51 80.4527L220.97 79.4498Z" fill="#EE2A33"/>
<path d="M220.659 79.4698C219.487 81.0065 217.395 82.5217 213.692 82.9917C209.454 83.5373 207.155 82.0634 205.926 80.4255L220.659 79.4698Z" fill="white"/>
<path d="M219.128 85.033C218.047 86.5097 216.36 87.8091 213.695 88.2256C211.338 88.5812 209.648 87.9605 208.459 86.9289C209.25 85.7821 210.94 84.32 214.26 84.213C216.688 84.1228 218.204 84.5521 219.128 85.033Z" fill="#FC5F69"/>
<path d="M247.784 110.483L251.878 116.343L245.352 122.819L251.013 124.518L230.496 156.477L238.077 107.629L247.784 110.483Z" fill="#FF7D90"/>
<path d="M208.342 112.753L203.519 117.782L209.368 122.81L201.631 127.017L208.463 158.729L216.082 108.17L208.342 112.753Z" fill="#FF7D90"/>
<path d="M209.9 196.248L217.815 209.789L224.917 196.248V134.338L224.498 129.771L218.403 126.969L217.674 135.133L209.9 196.248Z" fill="#46A1E9"/>
<path d="M217.672 135.132C218.521 136.324 219.441 137.091 220.399 137.091C221.955 137.091 223.534 135.878 224.916 134.337L224.497 129.771L218.401 126.968L217.672 135.132Z" fill="#258BCA"/>
<path d="M229.202 125.843C228.98 125.924 224.616 134.855 220.4 134.855C216.184 134.855 214.504 118.644 214.504 118.644L216.258 117.463C216.258 117.463 224.267 117.45 224.479 117.463C224.69 117.476 230.525 122.011 230.525 122.011L229.202 125.843Z" fill="#46A1E9"/>
<path d="M222.037 117.462L222.126 117.93L227.799 130.892L235.997 121.043L238.075 107.627L222.037 117.462Z" fill="#B7B7E4"/>
<path d="M222.032 117.457L215.377 126.605L213.92 122.5L216.08 108.17L222.032 117.457Z" fill="#B7B7E4"/>
</svg>
