<svg width="420" height="372" viewBox="0 0 420 372" fill="none" xmlns="http://www.w3.org/2000/svg">
<path d="M419.982 199.67C419.825 219.645 401.13 238.134 385.549 249.659C380.733 253.219 375.759 256.54 370.447 260.018C364.123 264.18 356.72 266.399 349.15 266.404H48.2593C30.2747 266.404 14.2819 254.029 10.027 236.11C9.71986 234.827 9.48271 233.528 9.31656 232.219C7.40769 216.961 6.63988 206.965 21.0388 203.783C35.4304 200.587 50.5316 201.983 64.8321 198.34C71.7629 196.555 78.8512 193.242 82.5935 186.915C86.7574 179.835 85.7738 170.434 82.098 163.048C70.9286 140.619 57.7265 113.711 67.0207 87.9282C72.9105 71.5876 86.9633 60.1458 101.032 50.7861C167.445 6.62943 269.669 -9.83508 346.944 5.74595C357.138 7.80248 380.064 15.9236 390.514 28.4227C419.982 63.665 420.139 180.214 419.982 199.67Z" fill="url(#paint0_linear_375_19327)"/>
<path d="M27.9233 311.009C38.1346 301.818 9.91498 298.141 10.8149 282.215C11.2865 273.877 26.2171 269.4 40.3494 267.025C42.8607 266.608 45.4023 266.401 47.948 266.406H391.505C397.573 266.406 403.621 267.364 409.345 269.433C415.461 271.644 419.174 274.25 419.919 277.309C422.843 289.314 334.672 299.979 334.977 306.723C335.275 313.466 362.099 326.809 356.588 342.88C340.901 388.603 10.3276 374.073 0.612636 335.527C-3.90647 317.618 17.7203 320.202 27.9233 311.009Z" fill="url(#paint1_linear_375_19327)"/>
<path d="M82.4029 318.735C81.9926 318.736 81.5869 318.649 81.2128 318.48C80.8387 318.312 80.5046 318.066 80.2329 317.759C79.9611 317.452 79.7579 317.09 79.6368 316.698C79.5156 316.306 79.4793 315.893 79.5301 315.486L97.7058 169.705C97.7528 169.328 97.8735 168.964 98.0611 168.634C98.2486 168.304 98.4994 168.014 98.799 167.781C99.0987 167.547 99.4413 167.375 99.8073 167.275C100.173 167.174 100.556 167.146 100.933 167.193C101.309 167.24 101.673 167.361 102.003 167.548C102.333 167.736 102.623 167.987 102.856 168.286C103.09 168.586 103.262 168.929 103.362 169.295C103.463 169.661 103.491 170.043 103.444 170.42L85.2682 316.201C85.1811 316.9 84.8419 317.543 84.3144 318.009C83.7868 318.476 83.1071 318.734 82.4029 318.735ZM154.987 318.735C154.241 318.734 153.524 318.445 152.986 317.929C152.448 317.412 152.131 316.707 152.1 315.962L149.319 248.838C149.303 248.459 149.363 248.08 149.493 247.724C149.624 247.367 149.823 247.04 150.081 246.76C150.338 246.481 150.647 246.255 150.992 246.095C151.336 245.936 151.709 245.845 152.088 245.83C153.659 245.761 155.03 247.004 155.097 248.599L157.878 315.723C157.894 316.112 157.832 316.501 157.693 316.866C157.555 317.231 157.345 317.564 157.075 317.845C156.805 318.127 156.48 318.35 156.122 318.503C155.763 318.656 155.377 318.734 154.987 318.734V318.735ZM214.048 318.735C213.304 318.734 212.589 318.447 212.051 317.932C211.514 317.417 211.195 316.715 211.163 315.971L208.17 248.847C208.153 248.468 208.211 248.089 208.34 247.732C208.47 247.375 208.669 247.047 208.925 246.767C209.181 246.487 209.49 246.26 209.834 246.099C210.178 245.939 210.55 245.847 210.93 245.83C212.523 245.748 213.875 246.995 213.947 248.59L216.939 315.714C216.957 316.105 216.895 316.495 216.757 316.86C216.62 317.226 216.41 317.56 216.139 317.842C215.869 318.125 215.545 318.349 215.185 318.502C214.826 318.656 214.439 318.734 214.048 318.734V318.735Z" fill="#373A50"/>
<path d="M227.566 253.594H119.254C116.72 253.594 114.256 252.769 112.234 251.242C110.213 249.716 108.744 247.571 108.051 245.135L57.9384 55.548C55.8318 48.1127 63.432 36.2911 77.8892 36.2911L78.7982 36.3322C71.5696 36.9105 66.5304 43.9988 68.5541 51.1199L120.691 234.527C121.382 236.966 122.849 239.112 124.871 240.641C126.893 242.169 129.358 242.996 131.893 242.995H230.094C236.48 242.995 241.404 237.948 241.734 231.992L241.743 232.024C243.857 239.46 235.299 253.595 227.566 253.595V253.594Z" fill="#B2C7FF"/>
<path d="M241.735 231.992C241.404 237.947 236.481 242.995 230.095 242.995H131.893C129.359 242.996 126.893 242.169 124.872 240.641C122.85 239.112 121.382 236.966 120.691 234.527L68.5544 51.1199C66.438 43.6748 72.0391 36.2911 79.7566 36.2911H177.951C183.164 36.2911 187.732 39.7447 189.161 44.751L241.298 228.158C241.661 229.454 241.801 230.744 241.736 231.992H241.735Z" fill="#D1DEFF"/>
<path d="M116.575 181.199C115.839 181.197 115.124 180.956 114.538 180.512C113.951 180.069 113.524 179.447 113.321 178.74L76.5026 48.8599C75.8857 46.691 77.5181 44.5516 79.7592 44.5516H177.951C178.689 44.5541 179.406 44.7957 179.995 45.2403C180.584 45.6849 181.013 46.3084 181.218 47.0175L218.032 176.881C218.138 177.259 218.185 177.651 218.167 178.017C218.08 179.571 216.788 181.198 214.776 181.198H116.575V181.199Z" fill="#909EFF"/>
<path d="M193.137 161.153H141.701C141.495 161.153 141.271 160.925 141.203 160.644L122.667 84.3738C122.598 84.0924 122.711 83.8644 122.918 83.8644H174.355C174.561 83.8644 174.784 84.0924 174.853 84.373L193.389 160.644C193.457 160.926 193.344 161.153 193.137 161.153V161.153ZM141.828 160.134H192.516L174.227 84.8832H123.538L141.828 160.134Z" fill="white"/>
<path d="M158.777 76.2125C158.57 76.2125 158.347 75.9844 158.279 75.7031L157.785 73.6646C157.717 73.3832 157.831 73.156 158.036 73.156C158.243 73.156 158.466 73.3832 158.534 73.6646L159.028 75.7031C159.096 75.9844 158.983 76.2117 158.777 76.2117V76.2125Z" fill="url(#paint2_linear_375_19327)"/>
<path d="M172.414 133.842C172.208 133.842 171.985 133.614 171.916 133.333L170.978 129.457C170.91 129.175 171.023 128.947 171.23 128.947C171.436 128.947 171.659 129.175 171.728 129.457L172.666 133.333C172.734 133.614 172.621 133.842 172.414 133.842ZM170.537 126.09C170.331 126.09 170.108 125.863 170.039 125.581L169.101 121.705C169.033 121.423 169.146 121.196 169.353 121.196C169.559 121.196 169.782 121.423 169.851 121.705L170.789 125.581C170.857 125.863 170.744 126.09 170.537 126.09ZM168.66 118.338C168.454 118.338 168.231 118.11 168.162 117.829L167.224 113.953C167.156 113.671 167.269 113.443 167.475 113.443C167.681 113.443 167.905 113.671 167.973 113.953L168.911 117.829C168.979 118.11 168.866 118.337 168.66 118.337V118.338ZM166.784 110.586C166.578 110.586 166.354 110.359 166.286 110.078L165.347 106.202C165.279 105.919 165.392 105.692 165.598 105.692C165.805 105.692 166.028 105.919 166.096 106.201L167.035 110.077C167.103 110.359 166.989 110.586 166.784 110.586ZM164.907 102.835C164.7 102.835 164.477 102.607 164.409 102.326L163.47 98.4488C163.402 98.1674 163.515 97.9394 163.721 97.9394C163.928 97.9394 164.151 98.1674 164.219 98.4488L165.158 102.326C165.226 102.607 165.113 102.835 164.907 102.835ZM163.03 95.0831C162.823 95.0831 162.6 94.855 162.532 94.5728L161.593 90.6977C161.524 90.4155 161.638 90.1882 161.844 90.1882C162.05 90.1882 162.274 90.4155 162.342 90.6968L163.281 94.5728C163.349 94.855 163.236 95.0822 163.03 95.0822V95.0831ZM161.153 87.3311C160.946 87.3311 160.723 87.1031 160.655 86.8217L159.716 82.9449C159.648 82.6635 159.761 82.4355 159.967 82.4355C160.173 82.4355 160.397 82.6635 160.465 82.9449L161.404 86.8217C161.472 87.1031 161.359 87.3311 161.153 87.3311ZM159.275 79.5791C159.069 79.5791 158.845 79.3511 158.777 79.0689L157.839 75.1937C157.771 74.9116 157.884 74.6843 158.09 74.6843C158.296 74.6843 158.52 74.9115 158.588 75.1929L159.526 79.0689C159.595 79.3511 159.482 79.5791 159.275 79.5791ZM173.846 139.756H172.349C172.142 139.756 171.919 139.528 171.851 139.246C171.783 138.964 171.895 138.737 172.102 138.737H173.225L172.855 137.208C172.787 136.926 172.9 136.699 173.106 136.699C173.312 136.699 173.536 136.926 173.604 137.208L174.097 139.246C174.166 139.528 174.052 139.756 173.846 139.756ZM169.5 139.756H166.65C166.443 139.756 166.22 139.528 166.152 139.246C166.084 138.964 166.197 138.737 166.403 138.737H169.253C169.459 138.737 169.683 138.964 169.751 139.245C169.819 139.528 169.706 139.756 169.5 139.756ZM163.801 139.756H160.951C160.745 139.756 160.521 139.528 160.453 139.246C160.385 138.964 160.498 138.737 160.704 138.737H163.555C163.761 138.737 163.984 138.964 164.053 139.245C164.121 139.528 164.008 139.756 163.801 139.756ZM158.103 139.756H155.252C155.046 139.756 154.823 139.528 154.754 139.246C154.686 138.964 154.8 138.737 155.005 138.737H157.856C158.062 138.737 158.286 138.964 158.354 139.245C158.422 139.528 158.309 139.756 158.103 139.756ZM152.402 139.756H149.554C149.348 139.756 149.125 139.528 149.056 139.246C148.988 138.964 149.101 138.737 149.308 138.737H152.156C152.362 138.737 152.586 138.964 152.654 139.245C152.722 139.528 152.608 139.756 152.402 139.756ZM146.704 139.756H143.856C143.649 139.756 143.426 139.528 143.358 139.246C143.29 138.964 143.402 138.737 143.609 138.737H146.457C146.664 138.737 146.887 138.964 146.955 139.245C147.023 139.528 146.911 139.756 146.704 139.756ZM141.005 139.756H138.155C137.95 139.756 137.726 139.528 137.657 139.246C137.589 138.964 137.703 138.737 137.908 138.737H140.759C140.965 138.737 141.188 138.964 141.257 139.245C141.325 139.528 141.212 139.756 141.005 139.756ZM135.307 139.756H132.457C132.251 139.756 132.027 139.528 131.959 139.246C131.891 138.964 132.004 138.737 132.21 138.737H135.06C135.266 138.737 135.49 138.964 135.558 139.245C135.626 139.528 135.513 139.756 135.307 139.756ZM129.607 139.756H126.758C126.552 139.756 126.329 139.528 126.26 139.246C126.192 138.964 126.305 138.737 126.512 138.737H129.36C129.567 138.737 129.79 138.964 129.858 139.245C129.926 139.527 129.813 139.756 129.607 139.756ZM123.908 139.756H122.41C122.204 139.756 121.98 139.528 121.912 139.246C121.844 138.964 121.958 138.737 122.163 138.737H123.661C123.868 138.737 124.091 138.964 124.159 139.245C124.227 139.528 124.115 139.756 123.908 139.756Z" fill="white"/>
<path d="M122.412 139.756C122.205 139.756 121.982 139.528 121.914 139.246L106.348 73.6646C106.28 73.3833 106.393 73.156 106.599 73.156H158.035C158.242 73.156 158.465 73.3833 158.533 73.6646C158.602 73.9468 158.489 74.174 158.282 74.174H107.221L122.663 139.246C122.731 139.528 122.618 139.756 122.412 139.756Z" fill="white"/>
<path d="M174.599 84.8832H123.162C123.055 84.8832 122.939 84.8216 122.842 84.7142L106.524 74.005C106.39 73.8549 106.32 73.6582 106.329 73.457C106.345 73.2741 106.45 73.1552 106.598 73.1552H158.034C158.141 73.1552 158.257 73.2175 158.355 73.325L174.673 84.0333C174.808 84.1832 174.878 84.38 174.869 84.5813C174.853 84.765 174.748 84.8832 174.599 84.8832ZM123.082 83.8643H173.515L158.114 74.174H107.683L123.082 83.8643Z" fill="white"/>
<path d="M141.7 161.153C141.596 161.153 141.479 161.094 141.379 160.984L122.091 139.586C122.006 139.489 121.945 139.372 121.914 139.246L106.348 73.6646C106.297 73.4538 106.346 73.2652 106.474 73.1889C106.595 73.115 106.776 73.1675 106.92 73.325L123.236 84.0334C123.321 84.1269 123.384 84.2483 123.414 84.3738L141.951 160.643C142.002 160.854 141.953 161.044 141.825 161.119C141.787 161.142 141.744 161.153 141.7 161.153ZM122.616 139.051L140.88 159.313L122.712 84.5691L107.419 74.996L122.616 139.051ZM174.896 141.104L173.527 139.587C173.339 139.377 173.275 139.055 173.383 138.866C173.491 138.678 173.73 138.694 173.922 138.906L175.29 140.423C175.479 140.633 175.543 140.954 175.435 141.143C175.315 141.351 175.063 141.29 174.896 141.104ZM189.085 156.844L186.72 154.22C186.531 154.01 186.467 153.689 186.575 153.501C186.683 153.312 186.922 153.329 187.114 153.54L189.478 156.163C189.667 156.373 189.732 156.694 189.624 156.882C189.503 157.09 189.252 157.028 189.085 156.844ZM184.356 151.597L181.99 148.973C181.801 148.764 181.736 148.442 181.845 148.254C181.951 148.065 182.192 148.081 182.384 148.293L184.749 150.916C184.938 151.125 185.003 151.448 184.894 151.635C184.774 151.844 184.523 151.781 184.356 151.597ZM179.625 146.349L177.261 143.727C177.072 143.517 177.007 143.195 177.115 143.007C177.223 142.819 177.462 142.835 177.654 143.046L180.019 145.669C180.207 145.879 180.272 146.2 180.164 146.389C180.044 146.597 179.792 146.535 179.625 146.349ZM193.137 161.153C193.035 161.153 192.919 161.096 192.817 160.984L191.449 159.468C191.261 159.259 191.196 158.936 191.304 158.748C191.411 158.559 191.651 158.576 191.843 158.787L193.211 160.303C193.399 160.512 193.464 160.834 193.356 161.022C193.335 161.062 193.304 161.096 193.265 161.119C193.226 161.142 193.182 161.154 193.137 161.154V161.153ZM123.804 76.95L106.722 65.7404H160.566L177.649 76.95H123.804Z" fill="white"/>
<path d="M121.324 192.076H219.234C220.111 192.076 221.049 192.873 221.318 193.849L227.761 217.177C228.026 218.134 227.542 218.909 226.681 218.909H128.736C127.855 218.909 126.923 218.115 126.652 217.137L120.22 193.849C119.95 192.873 120.447 192.076 121.324 192.076Z" fill="#EBF2FF"/>
<path d="M132.922 200.264H139.588C139.968 200.264 140.393 200.626 140.517 201.078L142.957 209.908C143.082 210.359 142.856 210.722 142.476 210.722H135.81C135.404 210.722 134.979 210.36 134.854 209.908L132.415 201.078C132.29 200.627 132.516 200.264 132.922 200.264Z" fill="url(#paint3_linear_375_19327)"/>
<path d="M147.442 200.264H154.108C154.487 200.264 154.913 200.626 155.038 201.078L157.477 209.908C157.601 210.359 157.376 210.722 156.996 210.722H150.33C149.924 210.722 149.498 210.36 149.374 209.908L146.935 201.078C146.81 200.627 147.036 200.264 147.442 200.264Z" fill="url(#paint4_linear_375_19327)"/>
<path d="M161.962 200.264H168.627C169.007 200.264 169.433 200.626 169.557 201.078L171.996 209.908C172.121 210.36 171.895 210.722 171.515 210.722H164.85C164.443 210.722 164.018 210.36 163.893 209.908L161.454 201.078C161.33 200.627 161.555 200.264 161.961 200.264H161.962Z" fill="url(#paint5_linear_375_19327)"/>
<path d="M176.483 200.264H183.149C183.528 200.264 183.954 200.626 184.079 201.078L186.518 209.908C186.642 210.36 186.417 210.722 186.037 210.722H179.371C178.965 210.722 178.539 210.36 178.415 209.908L175.976 201.078C175.851 200.627 176.077 200.264 176.483 200.264Z" fill="url(#paint6_linear_375_19327)"/>
<path d="M191.002 200.265H197.668C198.048 200.265 198.474 200.626 198.598 201.078L201.037 209.908C201.162 210.36 200.936 210.722 200.556 210.722H193.891C193.484 210.722 193.06 210.36 192.934 209.908L190.495 201.078C190.371 200.627 190.596 200.265 191.002 200.265Z" fill="url(#paint7_linear_375_19327)"/>
<path d="M205.524 200.265H212.19C212.569 200.265 212.995 200.626 213.12 201.078L215.559 209.908C215.683 210.36 215.458 210.722 215.078 210.722H208.412C208.006 210.722 207.581 210.36 207.456 209.908L205.017 201.078C204.892 200.627 205.118 200.265 205.524 200.265Z" fill="url(#paint8_linear_375_19327)"/>
<path d="M317.753 333.883L334.623 333.702L333.575 317.649L317.275 318.154L317.599 333.748C317.603 333.786 317.622 333.82 317.65 333.845C317.678 333.87 317.715 333.883 317.753 333.883Z" fill="#FFDAD9"/>
<path d="M335.021 333.206L337.942 345.41C338.444 347.985 336.528 350.398 333.906 350.486C323.138 350.847 301.973 350.49 298.065 350.455C297.916 350.453 297.773 350.394 297.666 350.29C297.559 350.185 297.496 350.044 297.491 349.894C297.316 346.161 299.796 343.787 303.45 341.952L317.535 332.466C317.562 332.45 317.592 332.442 317.622 332.444L335.021 333.207V333.206Z" fill="#373A50"/>
<path d="M376.954 333.883L393.824 333.702L392.775 317.649L376.477 318.154L376.8 333.748C376.804 333.786 376.823 333.82 376.851 333.845C376.88 333.87 376.916 333.883 376.954 333.883Z" fill="#FFDAD9"/>
<path d="M394.22 333.206L397.142 345.41C397.644 347.985 395.727 350.398 393.106 350.486C382.337 350.847 361.173 350.49 357.264 350.455C357.115 350.453 356.972 350.394 356.865 350.289C356.758 350.185 356.696 350.044 356.69 349.894C356.516 346.161 358.995 343.787 362.649 341.952L376.735 332.466C376.761 332.45 376.791 332.442 376.822 332.444L394.22 333.207V333.206Z" fill="#373A50"/>
<path d="M327.53 122.924C327.53 122.924 324.158 139.789 316.014 140.195C307.964 140.596 297.109 136.56 288.072 132.287L278.473 127.763L280.996 118.29L307.128 120.936L308.847 113.658L310.311 114.378L327.53 122.924Z" fill="#FFDAD9"/>
<path d="M327.528 122.924C327.528 122.924 324.157 139.789 316.013 140.195C307.962 140.596 297.107 136.561 288.07 132.288C292.887 131.724 297.653 130.787 302.326 129.486C305.398 128.628 308.612 127.486 310.535 124.948C312.225 122.723 312.47 119.597 311.449 117.051C311.138 116.262 310.26 115.298 310.309 114.378L327.528 122.924Z" fill="#FECDCB"/>
<path d="M318.672 55.7753C319.212 58.6218 320.045 61.5519 322.03 63.6618C322.975 64.665 324.348 65.4804 325.681 65.1334C327.029 64.7832 327.822 63.3944 328.263 62.0737C329.421 58.6078 329.17 54.6941 327.579 51.4047C326.603 49.3851 325.062 47.5459 322.99 46.6854C321.571 46.0964 317.513 45.7576 316.999 47.8642C316.765 48.8281 317.673 50.5278 317.883 51.4982C318.188 52.9157 318.402 54.3504 318.672 55.7753Z" fill="#111228"/>
<path d="M387.218 98.0674C386.071 101.294 383.334 103.777 380.249 105.253C377.154 106.73 373.711 107.304 370.307 107.643C358.954 108.762 347.498 107.426 336.258 105.46C332.665 104.839 329.062 104.143 325.724 102.676C322.393 101.208 319.328 98.8861 317.597 95.6786C315.866 92.4794 315.677 88.313 317.671 85.2754C319.675 82.237 324.66 80.4594 327.849 82.2181C328.914 83.0263 330.166 83.5507 331.489 83.7423C331.874 83.7989 332.26 83.8268 332.645 83.8268C333.105 83.8271 333.565 83.7892 334.019 83.7135C334.038 83.7135 334.047 83.7135 334.066 83.7045C338.812 83.1057 344.271 77.9106 347.272 74.2135C347.319 74.1577 347.357 74.1101 347.395 74.0634C347.46 73.9879 347.507 73.9321 347.545 73.8747C347.676 73.7156 347.742 73.6212 347.742 73.6212C347.742 73.6212 352.586 72.0413 352.727 67.6772C352.85 63.8013 349.04 65.3344 348.185 65.7298L348.1 65.4099L348.09 65.3918C348.09 65.4 348.1 65.4197 348.09 65.4386C348.052 65.6273 348.034 65.7487 348.025 65.7864V65.8045C347.733 66.3319 346.708 66.4632 346.209 65.9652C345.598 65.3631 345.56 64.4034 345.475 63.5478C344.835 57.5095 339.118 52.4391 333.051 52.5433C330.934 52.581 328.864 53.1643 326.796 53.6146C325.356 53.9255 323.879 54.1888 322.432 54.1511C321.782 54.1421 321.133 54.0855 320.503 53.9354C318.424 53.4645 316.459 52.0536 315.885 50.0126C315.141 47.3794 316.853 44.6888 318.744 42.7135C323.795 37.4274 330.84 34.1166 338.12 33.5809C345.409 33.0543 352.859 35.3118 358.616 39.8071C360.572 41.3312 362.425 43.2688 362.848 45.7052C363.262 48.0283 362.744 50.4646 363.036 52.8345C363.403 55.7975 364.099 58.1296 366.187 60.3871C368.36 62.739 371.125 64.451 373.496 66.6051C375.856 68.7683 377.897 71.6459 377.86 74.8443C377.813 77.6473 376.204 80.5348 377.305 83.1024C378.584 86.0744 382.544 86.6019 385.027 88.6707C387.651 90.8626 388.366 94.8501 387.218 98.0674Z" fill="#111228"/>
<path d="M336.115 83.1589C335.858 83.254 335.598 83.3369 335.34 83.4132C335.601 83.3353 335.862 83.2573 336.116 83.1589H336.115ZM334.733 83.5723C334.935 83.5272 335.138 83.4722 335.34 83.4124C335.253 83.4386 335.168 83.4739 335.081 83.4977C334.968 83.5256 334.855 83.5535 334.733 83.5723ZM342.973 78.7284C343.151 78.5684 343.33 78.4085 343.5 78.2493C343.356 78.392 343.138 78.5938 342.972 78.7284H342.973ZM348.089 65.4385C348.107 65.5585 348.084 65.6809 348.024 65.7863C348.033 65.7486 348.051 65.6263 348.089 65.4385ZM335.841 324.023L340.969 212.018L375.078 324.851C375.145 326.5 395.472 325.673 395.405 324.023L367.736 161.639L309.352 166.001L315.399 324.023C315.399 326.346 335.841 326.346 335.841 324.023Z" fill="#373A50"/>
<path d="M322.064 95.3347C314.017 99.5618 311.361 105.441 305.457 112.848L318.597 125.159L322.064 95.3347Z" fill="#5062EB"/>
<path d="M369.377 99.2009C366.406 93.508 355.318 91.5433 349.323 90.9773C345.445 90.6114 336.378 90.5556 332.539 91.2111C327.531 92.0658 318.82 96.0189 316.43 100.616C312.069 109.002 310.602 142.214 310.602 142.214L304.916 183.483C306.396 192.936 376.59 189.606 375.326 179.569C375.326 179.569 368.547 149.389 369.023 142.187C369.772 130.842 374.212 108.464 369.377 99.2009Z" fill="#657BFF"/>
<path d="M375.341 126.885C375.341 126.885 378.167 149.75 370.631 156.174C359.875 165.344 287 147.353 287 147.353L288.072 139.073L354.278 136.392L355.64 123.931L375.341 126.885Z" fill="#FFDAD9"/>
<path d="M377.58 129.786C377.58 131.839 351.213 131.839 351.213 129.786C351.213 129.786 353.165 115.51 353.474 110.75C354.041 101.978 360.016 95.3396 364.963 95.3347C366.942 95.3331 371.862 99.0598 375.34 105.476C378.385 111.093 377.58 129.786 377.58 129.786Z" fill="#5062EB"/>
<path d="M349.322 90.9806C349.322 90.9806 345.154 100.415 337.437 99.1985C332.229 98.379 331.986 91.312 331.986 91.312C331.986 91.312 334.811 89.2908 335.018 86.4886C335.077 85.706 335.107 84.8357 335.092 83.8841C335.092 82.9489 334.993 81.4346 334.782 80.0106L334.671 79.3174C334.391 77.6358 339.547 75.8803 342.992 74.8918C344.247 74.5374 346.092 74.1101 347.073 74.0141C347.42 73.9772 347.743 73.6228 347.743 73.6228C347.743 73.6228 346.695 86.7093 349.322 90.9806Z" fill="#FFDAD9"/>
<path d="M343.96 76.1165C343.922 76.9049 343.625 77.7777 343.274 78.4626C341.422 82.2689 336.768 85.4033 335.019 86.4878C335.175 84.3265 335.096 82.1547 334.783 80.0106C336.399 78.4848 340.796 77.0238 343.96 76.1165Z" fill="#F4BEBE"/>
<path d="M348.161 65.6313C348.068 65.6789 348.022 65.7076 348.002 65.7076C347.715 66.2375 346.691 66.3778 346.189 65.8839C345.571 65.2876 345.525 64.3286 345.433 63.473C344.739 57.4405 338.975 52.4226 332.91 52.5809C330.793 52.6375 328.73 53.2388 326.665 53.7088C325.229 54.0321 323.754 54.3085 322.306 54.2839C320.871 61.0876 321.005 77.2002 327.974 82.3009C329.364 83.3334 331.054 83.8833 332.786 83.8668C333.246 83.8635 333.705 83.8216 334.157 83.7413C334.176 83.7413 334.186 83.7413 334.205 83.7315C334.599 83.6626 335.024 83.5666 335.219 83.5157C335.28 83.4993 335.992 83.2647 336.25 83.1679C340.396 81.5798 344.559 77.5947 347.324 74.1232C347.372 74.0657 347.409 74.019 347.446 73.9714C347.501 73.8959 347.557 73.8385 347.595 73.7827C347.725 73.6211 347.79 73.5268 347.79 73.5268C347.79 73.5268 352.619 71.9026 352.722 67.5377C352.809 63.6609 349.014 65.2285 348.161 65.6313ZM348.064 65.2941C348.064 65.3023 348.074 65.322 348.064 65.3409C348.064 65.331 348.064 65.322 348.074 65.3122L348.064 65.2941Z" fill="#FFDAD9"/>
<path d="M325.271 62.9735C325.395 62.1089 325.996 61.469 326.626 61.5625C327.247 61.6479 327.651 62.419 327.52 63.2844M327.078 74.1576C328.526 74.4956 330.238 74.4956 332.223 74.1576H327.078ZM334.169 62.9735C334.292 62.1089 334.904 61.469 335.524 61.5625C336.145 61.6479 336.549 62.419 336.427 63.2844" fill="#FFDAD9"/>
<path d="M327.929 63.3468L327.116 63.2295C327.174 62.8316 327.097 62.4453 326.91 62.1959C326.842 62.104 326.726 61.9908 326.565 61.9678C326.104 61.9022 325.747 62.5297 325.679 63.026L324.867 62.9153C325.003 61.9186 325.747 61.0253 326.68 61.1557C327.437 61.2632 328.106 62.1196 327.929 63.3468ZM329.45 74.8246C328.559 74.8246 327.736 74.7368 326.987 74.5605L327.174 73.7615C328.557 74.0871 330.231 74.0847 332.153 73.7566L332.291 74.5654C331.282 74.7376 330.333 74.8246 329.45 74.8246ZM336.833 63.3468L336.021 63.2295C336.095 62.7118 335.912 62.0318 335.462 61.9678C335.084 61.9145 334.666 62.4108 334.576 63.0293L333.763 62.9112C333.925 61.8054 334.715 61.0318 335.576 61.1557C336.338 61.2624 337.008 62.1188 336.833 63.3468Z" fill="#FFDAD9"/>
<path d="M336.427 63.2876C336.301 64.158 335.704 64.7855 335.077 64.6969C334.457 64.6149 334.052 63.8414 334.17 62.9702C334.295 62.1072 334.9 61.4731 335.519 61.5617C336.147 61.6503 336.553 62.4173 336.427 63.2876ZM327.523 63.2876C327.405 64.158 326.8 64.7855 326.181 64.6969C325.553 64.6149 325.147 63.8414 325.273 62.9702C325.391 62.1072 325.996 61.4731 326.623 61.5617C327.243 61.6503 327.648 62.4173 327.523 63.2876ZM325.598 60.935C325.761 60.6856 325.956 60.4641 326.21 60.2845C326.77 59.8768 327.506 59.9194 327.973 60.4822C328.145 60.7348 328.287 60.9998 328.394 61.2738C328.147 61.0974 327.953 60.8964 327.756 60.7119C327.312 60.396 326.978 60.3206 326.363 60.5593C326.114 60.6594 325.871 60.8136 325.598 60.9358V60.935ZM334.271 60.702C334.432 60.4518 334.628 60.2303 334.882 60.0507C335.442 59.643 336.178 59.6857 336.646 60.2484C336.818 60.501 336.959 60.7668 337.066 61.0408C336.819 60.8636 336.625 60.6626 336.428 60.4781C335.984 60.1623 335.65 60.0868 335.034 60.3255C334.786 60.4256 334.542 60.5798 334.271 60.702ZM330.605 62.3271C330.674 63.1835 330.698 64.039 330.716 64.8946C330.729 66.2695 330.84 67.6312 329.928 68.6919C329.299 69.4392 328.99 69.9371 329.561 70.8124C329.774 71.1668 330.095 71.4571 330.396 71.7615C330.037 71.5285 329.687 71.2709 329.398 70.9297C328.635 69.9634 328.982 69.3235 329.623 68.4515C330.437 67.4393 330.304 66.1875 330.402 64.8889C330.45 64.035 330.505 63.181 330.605 62.3271Z" fill="#111228"/>
<path d="M332.23 74.2347C332.23 75.8729 331.072 77.2002 329.648 77.2002C328.233 77.2002 327.074 75.8729 327.074 74.2347C327.074 74.2052 327.082 74.183 327.082 74.1609C328.527 74.5005 330.239 74.5005 332.223 74.1609C332.223 74.183 332.23 74.2052 332.23 74.2347Z" fill="white"/>
<path d="M282.86 137.069C282.86 137.069 280.729 135.409 281.382 133.228C282.034 131.038 288.069 139.077 288.069 139.077L282.86 137.069Z" fill="#FFDAD9"/>
<path d="M249.011 176.923L302.691 112.931L287.49 100.477L233.811 164.468L249.011 176.923Z" fill="#FF4129"/>
<path d="M244.273 173.042L297.954 109.05L292.234 104.365L238.555 168.356L244.273 173.042Z" fill="#C70000"/>
<path d="M249.009 176.924L233.807 164.468L231.279 176.943L229.633 185.077L237.278 181.858L249.009 176.924Z" fill="#FFDAD9"/>
<path d="M237.278 181.858L231.279 176.943L229.633 185.077L237.278 181.858Z" fill="#111228"/>
<path d="M290.867 96.3542L306.072 108.812L302.694 112.934L287.489 100.477L290.867 96.3542Z" fill="#EBF2FF"/>
<path d="M306.067 108.807L311.326 102.389C311.459 102.226 311.558 102.039 311.619 101.838C311.679 101.636 311.699 101.425 311.678 101.216C311.657 101.007 311.594 100.804 311.494 100.619C311.395 100.435 311.259 100.271 311.096 100.139L298.377 89.7174C298.215 89.5835 298.028 89.4829 297.827 89.4214C297.626 89.3598 297.415 89.3385 297.206 89.3587C296.997 89.3789 296.794 89.4402 296.608 89.539C296.423 89.6379 296.259 89.7724 296.125 89.9348L290.867 96.3529L306.068 108.807H306.067Z" fill="#FADF68"/>
<path d="M288.067 139.077L287.001 147.354C287.001 147.354 273.197 151.047 270.33 142.266C267.472 133.484 282.862 137.069 282.862 137.069L288.067 139.077ZM275.433 112.746C277.976 115.13 278.249 118.988 276.045 121.341C273.83 123.704 269.962 123.68 267.419 121.297C264.862 118.901 272.876 110.349 275.433 112.746Z" fill="#FFDAD9"/>
<path d="M202.504 21.5518L227.489 118.431L195.128 119.151L168.43 19.1302L202.504 21.5518Z" fill="#EAC250"/>
<path d="M205.919 21.7912L230.735 118.355L198.583 119.071L172.07 19.3861L205.919 21.7912Z" fill="#FADF68"/>
<path d="M188.87 26.3563L191.898 37.9186L181.453 37.3452L178.361 25.6672L188.87 26.3563ZM202.959 27.2808L205.904 38.6864L195.736 38.1286L192.73 26.6098L202.959 27.2808ZM193.513 44.0849L196.513 55.5365L186.163 55.1394L183.102 43.573L193.513 44.0849ZM207.474 44.7699L210.391 56.0672L200.315 55.6817L197.338 44.2719L207.474 44.7699ZM198.113 61.6437L201.083 72.9862L190.828 72.7631L187.797 61.3082L198.113 61.6437ZM211.947 62.0932L214.837 73.2856L204.851 73.0682L201.903 61.7668L211.947 62.0932Z" fill="#EAC250"/>
<path d="M221.898 106.477L208.995 106.613L205.178 92.0504L218.18 92.0964L221.898 106.477Z" fill="white"/>
<path d="M208.996 107.023C208.905 107.023 208.817 106.993 208.745 106.937C208.673 106.882 208.622 106.805 208.599 106.717L204.781 92.1546C204.765 92.094 204.763 92.0305 204.776 91.969C204.788 91.9076 204.815 91.8498 204.853 91.8001C204.891 91.7504 204.94 91.7102 204.996 91.6825C205.053 91.6548 205.115 91.6403 205.177 91.6403H205.179L218.181 91.6862C218.271 91.6866 218.359 91.717 218.431 91.7726C218.502 91.8283 218.554 91.9061 218.576 91.9938L222.296 106.374C222.311 106.434 222.313 106.497 222.3 106.559C222.288 106.62 222.262 106.677 222.224 106.727C222.186 106.776 222.137 106.816 222.081 106.844C222.026 106.872 221.964 106.887 221.902 106.887L209 107.023H208.996ZM205.71 92.4622L209.311 106.199L221.369 106.073L217.861 92.5049L205.71 92.4622Z" fill="#111228"/>
<path d="M210.112 104.85C210.044 104.807 209.985 104.751 209.938 104.685C209.892 104.619 209.859 104.544 209.841 104.465C209.823 104.387 209.821 104.305 209.835 104.225C209.849 104.146 209.879 104.07 209.922 104.001L216.238 94.0174C216.325 93.8795 216.464 93.7818 216.623 93.7459C216.782 93.71 216.949 93.7387 217.087 93.8259C217.225 93.913 217.322 94.0513 217.358 94.2105C217.394 94.3696 217.365 94.5365 217.278 94.6745L210.962 104.659C210.919 104.728 210.862 104.787 210.796 104.834C210.73 104.88 210.656 104.913 210.577 104.931C210.498 104.949 210.416 104.951 210.336 104.937C210.257 104.923 210.18 104.894 210.112 104.85Z" fill="url(#paint9_linear_375_19327)"/>
<path d="M212.477 98.9024L199.333 98.9434L195.439 84.2106L208.686 84.3558L212.477 98.9024Z" fill="url(#paint10_linear_375_19327)"/>
<path d="M187.975 31.6801L185.772 32.384L185.724 35.0172L182.068 29.0338L187.975 31.6801Z" fill="#FADF68"/>
<path d="M201.847 32.5192L199.701 33.2165L199.652 35.8144L196.094 29.9131L201.847 32.5192ZM191.417 46.5277L191.914 48.4177L191.674 48.4071L190.839 47.2857L189.733 47.2348L190.998 52.0419L191.758 52.0731L191.953 52.8179L189.476 52.717L189.279 51.9705L190.025 52.0017L188.757 47.1897L187.647 47.1389L187.387 48.2151L187.1 48.202L186.6 46.303L191.417 46.5277ZM201.866 53.3109C201.603 53.0755 201.508 52.7072 201.652 52.4881L205.208 47.0823C205.352 46.8641 205.678 46.8797 205.939 47.1151C206.199 47.3513 206.295 47.7196 206.152 47.937L202.601 53.3413C202.439 53.5873 202.094 53.5152 201.866 53.3109ZM192.361 67.9888C191.242 67.0085 190.83 65.4499 191.444 64.5172C192.059 63.5853 193.467 63.628 194.581 64.6099C195.694 65.5894 196.102 67.1414 195.492 68.0716C194.83 69.0822 193.379 68.8804 192.361 67.9888ZM192.412 65.3671C192.092 65.8551 192.306 66.6697 192.891 67.1824C193.475 67.6943 194.21 67.714 194.53 67.2267C194.85 66.7394 194.636 65.9273 194.053 65.4138C193.543 64.9651 192.771 64.8224 192.412 65.3671Z" fill="#FEFEFE"/>
<path d="M196.761 69.819L194.747 68.052C194.482 67.8182 194.385 67.4491 194.531 67.2268C194.677 67.0045 195.01 67.0135 195.276 67.2465L197.287 69.0142C197.552 69.2464 197.648 69.6147 197.503 69.8362C197.34 70.0847 196.993 70.0224 196.761 69.819ZM207.514 64.1088L209.105 66.4114L211.426 66.8379L210.273 68.559L211.298 71.0585L209 69.8337L207.306 70.9633L207.039 68.4745L204.952 66.6575L207.103 66.3548L207.514 64.1088Z" fill="#FEFEFE"/>
<path d="M255.342 245.986C254.139 248.87 263.721 256.538 267.176 259.187C265.196 257.845 261.397 255.873 260.386 259.659C258.999 264.849 277.243 275.329 277.243 275.329C277.243 275.329 280.051 260.244 277.857 252.216C276.791 248.305 273.912 252.639 273.912 252.639C273.912 252.639 274.351 238.97 270.987 236.848C267.624 234.729 266.746 242.259 266.746 242.259C266.746 242.259 258.706 226.831 254.465 229.393C250.282 231.917 262.889 245.61 263.228 245.982C262.969 245.844 256.775 242.547 255.342 245.986Z" fill="#3DCFA4"/>
<path d="M256.852 232.21C258.546 234.808 260.272 237.493 263.136 242.427C265.13 245.888 267.034 249.397 268.812 252.97C269.237 253.896 270.594 256.467 272.533 261.134L273.66 263.904C274.328 265.783 275.066 267.639 275.622 269.556C276.292 271.443 276.701 273.397 277.244 275.329C276.611 271.373 275.591 267.474 274.273 263.68C272.91 259.901 271.337 256.201 269.56 252.599C267.763 249.01 265.806 245.504 263.693 242.092C261.58 238.685 259.321 235.366 256.852 232.21Z" fill="#30BB93"/>
<path d="M259.377 248.375C261.957 250.025 261.707 249.942 264.57 251.664C272.565 256.335 270.759 254.423 264.995 250.946C263.399 250.02 261.186 248.815 259.377 248.375Z" fill="#30BB93"/>
<path d="M270.924 247.986C271.02 246.026 271.078 243.296 270.582 241.4C270.527 242.332 270.264 245.128 270.09 247.938C269.617 257.356 270.433 255.475 270.924 247.986H270.924ZM263.602 260.178C265.619 261.416 267.865 263.21 269.721 264.725C271.541 266.229 273.585 267.938 275.527 269.664L276.322 270.37L276.219 269.312C276.102 268.114 276.042 266.891 275.993 265.678C275.947 264.462 275.926 263.244 275.933 262.027C275.946 260.81 275.99 259.593 276.072 258.377C276.147 257.16 276.307 255.951 276.494 254.737C276.126 255.909 275.883 257.118 275.672 258.332C275.49 259.55 275.362 260.776 275.289 262.005C275.15 264.468 275.184 266.937 275.39 269.395L276.082 269.043C274.056 267.252 271.682 265.341 270.126 264.206C268.32 262.862 265.666 261.051 263.602 260.178Z" fill="#30BB93"/>
<path d="M301.103 241.807C302.441 245.013 291.788 253.538 287.945 256.484C290.148 254.992 294.371 252.8 295.495 257.009C297.038 262.78 276.753 274.432 276.753 274.432C276.753 274.432 273.631 257.659 276.07 248.734C277.255 244.386 280.456 249.203 280.456 249.203C280.456 249.203 279.969 234.006 283.708 231.646C287.449 229.291 288.424 237.663 288.424 237.663C288.424 237.663 297.363 220.51 302.079 223.358C306.73 226.163 292.712 241.388 292.336 241.803C292.624 241.649 299.509 237.983 301.103 241.807Z" fill="#3DCFA4"/>
<path d="M299.423 226.491C297.539 229.378 295.62 232.364 292.436 237.85C290.214 241.692 288.109 245.601 286.125 249.572L284.679 252.567C284.183 253.559 283.772 254.59 283.307 255.596L282.623 257.112C282.395 257.618 282.201 258.138 281.989 258.649L280.734 261.729C279.993 263.817 279.172 265.881 278.554 268.013C277.807 270.111 277.353 272.284 276.75 274.431C277.454 270.035 278.588 265.698 280.054 261.479C281.568 257.277 283.318 253.164 285.294 249.159C287.298 245.172 289.462 241.265 291.816 237.478C294.165 233.689 296.679 230 299.423 226.491Z" fill="#30BB93"/>
<path d="M296.62 244.463C293.753 246.298 294.03 246.205 290.847 248.12C289.051 249.17 286.809 250.444 284.775 251.287C286.408 249.829 288.508 248.447 290.375 247.321C292.149 246.292 294.61 244.952 296.62 244.463ZM284.775 251.287C284.209 249.019 283.932 246.354 283.779 244.031C283.673 241.852 283.608 238.816 284.159 236.708C284.221 237.744 284.513 240.854 284.706 243.978C284.818 246.199 284.936 248.957 284.775 251.287ZM291.921 257.586C289.679 258.963 287.181 260.958 285.116 262.642C283.094 264.314 280.821 266.213 278.662 268.133L277.778 268.919L277.893 267.742C278.022 266.409 278.088 265.049 278.144 263.701C278.202 262.348 278.211 260.995 278.21 259.642C278.196 258.288 278.145 256.935 278.056 255.584C277.972 254.23 277.794 252.887 277.586 251.537C277.996 252.839 278.266 254.184 278.501 255.533C278.701 256.887 278.849 258.251 278.927 259.618C279.082 262.356 279.044 265.101 278.814 267.834L278.044 267.442C280.298 265.451 282.938 263.326 284.668 262.064C286.675 260.571 289.626 258.557 291.921 257.586Z" fill="#30BB93"/>
<path d="M286.035 272.653L283.899 287.839C283.85 288.192 283.674 288.515 283.405 288.749C283.136 288.982 282.792 289.111 282.436 289.111H270.415C269.678 289.111 269.053 288.568 268.951 287.839L266.827 272.652C266.797 272.443 266.813 272.23 266.873 272.027C266.933 271.825 267.036 271.637 267.175 271.478C267.314 271.318 267.485 271.19 267.677 271.103C267.869 271.015 268.078 270.97 268.289 270.97H284.572C285.469 270.97 286.16 271.764 286.035 272.653Z" fill="url(#paint11_linear_375_19327)"/>
<path d="M54.1514 155.244C54.2227 155.748 53.7962 156.189 53.2917 156.104L48.8218 155.393C46.1706 156.914 43.1666 157.713 40.1101 157.71C30.4533 157.71 22.6152 149.886 22.6152 140.229C22.6152 130.573 30.4533 122.735 40.1101 122.735C49.7668 122.735 57.5909 130.573 57.5909 140.23C57.5909 144.486 56.0627 148.402 53.5402 151.421L54.1514 155.244Z" fill="url(#paint12_linear_375_19327)"/>
<path d="M45.1229 148.2V150.275C45.1227 150.446 45.0546 150.61 44.9336 150.731C44.8125 150.852 44.6484 150.92 44.4774 150.92H34.9289C34.8438 150.921 34.7595 150.904 34.6807 150.872C34.602 150.84 34.5304 150.792 34.47 150.732C34.4096 150.672 34.3617 150.601 34.329 150.522C34.2962 150.444 34.2793 150.36 34.2792 150.275V148.199C34.2792 147.844 34.568 147.554 34.9289 147.554H44.4774C44.8334 147.554 45.1229 147.844 45.1229 148.2ZM45.0516 139.024L42.968 146.166H36.2906L34.207 139.024L38.8804 130.279H38.8845V137.419C38.5679 137.585 38.3164 137.853 38.1699 138.18C38.0235 138.506 37.9906 138.872 38.0765 139.22C38.1624 139.567 38.3622 139.876 38.6439 140.096C38.9257 140.317 39.2732 140.436 39.6309 140.436C39.9887 140.436 40.3362 140.317 40.6179 140.096C40.8997 139.876 41.0994 139.567 41.1854 139.22C41.2713 138.872 41.2384 138.506 41.0919 138.18C40.9455 137.853 40.694 137.585 40.3774 137.419V130.28L45.0516 139.024Z" fill="white"/>
<defs>
<linearGradient id="paint0_linear_375_19327" x1="178.482" y1="54.653" x2="252.33" y2="290.354" gradientUnits="userSpaceOnUse">
<stop stop-color="#CEDCF9" stop-opacity="0"/>
<stop offset="1" stop-color="#C3D2FF"/>
</linearGradient>
<linearGradient id="paint1_linear_375_19327" x1="213.519" y1="361.043" x2="207.191" y2="259.795" gradientUnits="userSpaceOnUse">
<stop stop-color="#CEDCF9" stop-opacity="0"/>
<stop offset="1" stop-color="#C3D2FF"/>
</linearGradient>
<linearGradient id="paint2_linear_375_19327" x1="106.594" y1="74.6843" x2="155.889" y2="62.7479" gradientUnits="userSpaceOnUse">
<stop stop-color="#515360"/>
<stop offset="1" stop-color="#2E3543"/>
</linearGradient>
<linearGradient id="paint3_linear_375_19327" x1="141.742" y1="205.465" x2="134.214" y2="207.545" gradientUnits="userSpaceOnUse">
<stop stop-color="#FADF68"/>
<stop offset="1" stop-color="#EAC250"/>
</linearGradient>
<linearGradient id="paint4_linear_375_19327" x1="156.262" y1="205.466" x2="148.734" y2="207.545" gradientUnits="userSpaceOnUse">
<stop stop-color="#3DCFA4"/>
<stop offset="1" stop-color="#30BB93"/>
</linearGradient>
<linearGradient id="paint5_linear_375_19327" x1="170.782" y1="205.466" x2="163.254" y2="207.545" gradientUnits="userSpaceOnUse">
<stop stop-color="#F34B6D"/>
<stop offset="1" stop-color="#E24067"/>
</linearGradient>
<linearGradient id="paint6_linear_375_19327" x1="185.303" y1="205.466" x2="177.775" y2="207.545" gradientUnits="userSpaceOnUse">
<stop stop-color="#909EFF"/>
<stop offset="1" stop-color="#6977E3"/>
</linearGradient>
<linearGradient id="paint7_linear_375_19327" x1="199.823" y1="205.466" x2="192.295" y2="207.545" gradientUnits="userSpaceOnUse">
<stop stop-color="#D1DEFF"/>
<stop offset="1" stop-color="#B2C7FF"/>
</linearGradient>
<linearGradient id="paint8_linear_375_19327" x1="214.345" y1="205.466" x2="206.816" y2="207.546" gradientUnits="userSpaceOnUse">
<stop stop-color="#51D1FE"/>
<stop offset="1" stop-color="#38C0E5"/>
</linearGradient>
<linearGradient id="paint9_linear_375_19327" x1="208.512" y1="99.2117" x2="218.017" y2="96.8035" gradientUnits="userSpaceOnUse">
<stop stop-color="#F34B6D"/>
<stop offset="1" stop-color="#E24067"/>
</linearGradient>
<linearGradient id="paint10_linear_375_19327" x1="197.284" y1="91.4836" x2="209.797" y2="88.3134" gradientUnits="userSpaceOnUse">
<stop stop-color="#F34B6D"/>
<stop offset="1" stop-color="#E24067"/>
</linearGradient>
<linearGradient id="paint11_linear_375_19327" x1="276.434" y1="272.651" x2="276.7" y2="286.998" gradientUnits="userSpaceOnUse">
<stop stop-color="#D1DEFF"/>
<stop offset="1" stop-color="#B2C7FF"/>
</linearGradient>
<linearGradient id="paint12_linear_375_19327" x1="22.6152" y1="140.222" x2="57.5909" y2="140.222" gradientUnits="userSpaceOnUse">
<stop stop-color="#909EFF"/>
<stop offset="1" stop-color="#6977E3"/>
</linearGradient>
</defs>
</svg>
