<svg width="937" height="792" viewBox="0 0 937 792" fill="none" xmlns="http://www.w3.org/2000/svg">
<g filter="url(#filter0_dddddd_384_24805)">
<rect x="118.5" y="62.5" width="675" height="423" rx="34.5" stroke="#2A747E"/>
</g>
<g filter="url(#filter1_dddddd_384_24805)">
<rect x="143" y="32" width="676" height="424" rx="35" fill="white"/>
</g>
<rect x="213" y="419" width="321" height="120" rx="2" transform="rotate(-90 213 419)" fill="#E2CFFF"/>
<rect x="346" y="419" width="321" height="120" rx="2" transform="rotate(-90 346 419)" fill="#DAF4FF"/>
<rect x="479" y="419" width="321" height="120" rx="2" transform="rotate(-90 479 419)" fill="#FFEED5"/>
<g filter="url(#filter2_dddddd_384_24805)">
<rect x="624" y="421" width="390" height="146" rx="2" transform="rotate(-90 624 421)" fill="#D9FFE9"/>
</g>
<g filter="url(#filter3_dddddd_384_24805)">
<rect x="225" y="124" width="96" height="58" rx="2" fill="white"/>
</g>
<g filter="url(#filter4_dddddd_384_24805)">
<rect x="213" y="74" width="120" height="16" rx="2" fill="white"/>
</g>
<g filter="url(#filter5_dddddd_384_24805)">
<rect x="346" y="74" width="120" height="16" rx="2" fill="white"/>
</g>
<line x1="346.5" y1="77" x2="346.5" y2="86" stroke="#30ABCF"/>
<g filter="url(#filter6_dddddd_384_24805)">
<rect x="479" y="74" width="120" height="16" rx="2" fill="white"/>
</g>
<g filter="url(#filter7_dddddd_384_24805)">
<rect x="624" y="2" width="146" height="19" rx="2" fill="white"/>
</g>
<g filter="url(#filter8_dddddd_384_24805)">
<rect x="358" y="124" width="96" height="58" rx="2" fill="white"/>
</g>
<g filter="url(#filter9_dddddd_384_24805)">
<rect x="491" y="124" width="96" height="58" rx="2" fill="white"/>
</g>
<g filter="url(#filter10_dddddd_384_24805)">
<rect x="639" y="62" width="116" height="71" rx="2" fill="white"/>
</g>
<g filter="url(#filter11_dddddd_384_24805)">
<rect x="639" y="149" width="116" height="70" rx="2" fill="white"/>
</g>
<g filter="url(#filter12_dddddd_384_24805)">
<rect x="639" y="235" width="116" height="71" rx="2" fill="white"/>
</g>
<rect x="233" y="168" width="36" height="9" rx="2" fill="#8833FF"/>
<rect x="363" y="168" width="36" height="9" rx="2" fill="#30ACCF"/>
<rect x="496" y="168" width="36" height="9" rx="2" fill="#DA901D"/>
<rect x="647" y="116" width="44" height="11" rx="2" fill="#2FAE65"/>
<rect x="647" y="204" width="44" height="11" rx="2" fill="#2FAE65"/>
<rect x="647" y="289" width="44" height="11" rx="2" fill="#2FAE65"/>
<line x1="213.5" y1="77" x2="213.5" y2="86" stroke="#8833FF"/>
<line x1="479.5" y1="77" x2="479.5" y2="86" stroke="#DA911D"/>
<line x1="624.5" y1="5" x2="624.5" y2="16" stroke="#2FAE65"/>
<path d="M223.352 79.569V78.939H227.083V79.569H225.564V84H224.878V79.569H223.352ZM226.883 82.285C226.883 81.228 227.639 80.486 228.668 80.486C229.69 80.486 230.446 81.228 230.446 82.285C230.446 83.342 229.69 84.084 228.668 84.084C227.639 84.084 226.883 83.342 226.883 82.285ZM227.548 82.285C227.548 82.999 228.003 83.496 228.668 83.496C229.326 83.496 229.788 82.999 229.788 82.285C229.788 81.571 229.326 81.074 228.668 81.074C228.003 81.074 227.548 81.571 227.548 82.285ZM231.139 82.439V81.851H233.274V82.439H231.139ZM237.888 84H236.215V78.939H237.86C239.372 78.939 240.394 79.961 240.394 81.473C240.394 82.978 239.386 84 237.888 84ZM237.811 79.569H236.901V83.363H237.839C238.966 83.363 239.68 82.635 239.68 81.473C239.68 80.297 238.966 79.569 237.811 79.569ZM240.931 82.285C240.931 81.228 241.687 80.486 242.716 80.486C243.738 80.486 244.494 81.228 244.494 82.285C244.494 83.342 243.738 84.084 242.716 84.084C241.687 84.084 240.931 83.342 240.931 82.285ZM241.596 82.285C241.596 82.999 242.051 83.496 242.716 83.496C243.374 83.496 243.836 82.999 243.836 82.285C243.836 81.571 243.374 81.074 242.716 81.074C242.051 81.074 241.596 81.571 241.596 82.285Z" fill="black"/>
<path d="M353.519 78.939V84H352.833V78.939H353.519ZM355.245 84H354.587V80.577H355.182L355.252 81.102C355.469 80.71 355.903 80.479 356.386 80.479C357.289 80.479 357.702 81.032 357.702 81.907V84H357.044V82.054C357.044 81.361 356.722 81.081 356.218 81.081C355.602 81.081 355.245 81.522 355.245 82.187V84ZM358.578 82.439V81.851H360.713V82.439H358.578ZM363.707 82.194H362.426V84H361.74V78.939H363.707C364.701 78.939 365.338 79.59 365.338 80.563C365.338 81.508 364.694 82.194 363.707 82.194ZM363.588 79.555H362.426V81.578H363.56C364.239 81.578 364.617 81.179 364.617 80.556C364.617 79.919 364.232 79.555 363.588 79.555ZM367.963 80.549V81.151H367.669C367.046 81.151 366.661 81.529 366.661 82.187V84H366.003V80.584H366.619L366.661 81.102C366.801 80.745 367.144 80.507 367.613 80.507C367.732 80.507 367.83 80.521 367.963 80.549ZM368.233 82.285C368.233 81.228 368.989 80.486 370.018 80.486C371.04 80.486 371.796 81.228 371.796 82.285C371.796 83.342 371.04 84.084 370.018 84.084C368.989 84.084 368.233 83.342 368.233 82.285ZM368.898 82.285C368.898 82.999 369.353 83.496 370.018 83.496C370.676 83.496 371.138 82.999 371.138 82.285C371.138 81.571 370.676 81.074 370.018 81.074C369.353 81.074 368.898 81.571 368.898 82.285ZM372.307 82.201C372.307 81.235 372.93 80.479 373.924 80.479C374.477 80.479 374.904 80.731 375.121 81.158L375.17 80.577H375.758V83.86C375.758 84.938 375.093 85.624 374.043 85.624C373.112 85.624 372.475 85.099 372.349 84.231H373.007C373.091 84.735 373.469 85.029 374.043 85.029C374.687 85.029 375.107 84.609 375.107 83.958V83.272C374.883 83.671 374.435 83.909 373.896 83.909C372.923 83.909 372.307 83.16 372.307 82.201ZM372.965 82.187C372.965 82.831 373.364 83.335 374.008 83.335C374.673 83.335 375.079 82.859 375.079 82.187C375.079 81.529 374.687 81.053 374.015 81.053C373.357 81.053 372.965 81.557 372.965 82.187ZM378.668 80.549V81.151H378.374C377.751 81.151 377.366 81.529 377.366 82.187V84H376.708V80.584H377.324L377.366 81.102C377.506 80.745 377.849 80.507 378.318 80.507C378.437 80.507 378.535 80.521 378.668 80.549ZM380.639 84.084C379.631 84.084 378.938 83.356 378.938 82.292C378.938 81.221 379.617 80.479 380.611 80.479C381.584 80.479 382.221 81.151 382.221 82.166V82.411L379.575 82.418C379.624 83.139 380.002 83.538 380.653 83.538C381.164 83.538 381.5 83.328 381.612 82.936H382.228C382.06 83.671 381.486 84.084 380.639 84.084ZM380.611 81.032C380.037 81.032 379.673 81.375 379.589 81.977H381.563C381.563 81.41 381.192 81.032 380.611 81.032ZM382.676 83.006H383.306C383.306 83.356 383.572 83.566 384.006 83.566C384.468 83.566 384.734 83.377 384.734 83.062C384.734 82.831 384.622 82.691 384.265 82.6L383.663 82.46C383.054 82.313 382.767 82.012 382.767 81.508C382.767 80.878 383.299 80.479 384.055 80.479C384.804 80.479 385.294 80.899 385.308 81.55H384.678C384.664 81.207 384.433 80.99 384.034 80.99C383.621 80.99 383.39 81.172 383.39 81.487C383.39 81.718 383.558 81.872 383.894 81.956L384.496 82.103C385.077 82.243 385.364 82.509 385.364 83.02C385.364 83.671 384.804 84.084 383.992 84.084C383.187 84.084 382.676 83.657 382.676 83.006ZM385.814 83.006H386.444C386.444 83.356 386.71 83.566 387.144 83.566C387.606 83.566 387.872 83.377 387.872 83.062C387.872 82.831 387.76 82.691 387.403 82.6L386.801 82.46C386.192 82.313 385.905 82.012 385.905 81.508C385.905 80.878 386.437 80.479 387.193 80.479C387.942 80.479 388.432 80.899 388.446 81.55H387.816C387.802 81.207 387.571 80.99 387.172 80.99C386.759 80.99 386.528 81.172 386.528 81.487C386.528 81.718 386.696 81.872 387.032 81.956L387.634 82.103C388.215 82.243 388.502 82.509 388.502 83.02C388.502 83.671 387.942 84.084 387.13 84.084C386.325 84.084 385.814 83.657 385.814 83.006Z" fill="black"/>
<path d="M486.655 84H485.969V78.939H487.88C488.965 78.939 489.609 79.513 489.609 80.458C489.609 81.158 489.259 81.662 488.629 81.865L489.658 84H488.895L487.95 81.998H486.655V84ZM486.655 79.555V81.389H487.887C488.524 81.389 488.888 81.046 488.888 80.465C488.888 79.877 488.51 79.555 487.88 79.555H486.655ZM491.668 84.084C490.66 84.084 489.967 83.356 489.967 82.292C489.967 81.221 490.646 80.479 491.64 80.479C492.613 80.479 493.25 81.151 493.25 82.166V82.411L490.604 82.418C490.653 83.139 491.031 83.538 491.682 83.538C492.193 83.538 492.529 83.328 492.641 82.936H493.257C493.089 83.671 492.515 84.084 491.668 84.084ZM491.64 81.032C491.066 81.032 490.702 81.375 490.618 81.977H492.592C492.592 81.41 492.221 81.032 491.64 81.032ZM494.828 84L493.449 80.577H494.149L494.898 82.488C495.017 82.81 495.115 83.097 495.171 83.307C495.227 83.083 495.339 82.789 495.458 82.488L496.221 80.577H496.907L495.479 84H494.828ZM497.753 79.765C497.515 79.765 497.319 79.569 497.319 79.331C497.319 79.086 497.515 78.897 497.753 78.897C497.991 78.897 498.187 79.086 498.187 79.331C498.187 79.569 497.991 79.765 497.753 79.765ZM497.431 84V80.577H498.089V84H497.431ZM500.521 84.084C499.513 84.084 498.82 83.356 498.82 82.292C498.82 81.221 499.499 80.479 500.493 80.479C501.466 80.479 502.103 81.151 502.103 82.166V82.411L499.457 82.418C499.506 83.139 499.884 83.538 500.535 83.538C501.046 83.538 501.382 83.328 501.494 82.936H502.11C501.942 83.671 501.368 84.084 500.521 84.084ZM500.493 81.032C499.919 81.032 499.555 81.375 499.471 81.977H501.445C501.445 81.41 501.074 81.032 500.493 81.032ZM503.457 84L502.337 80.577H503.016L503.583 82.355C503.66 82.607 503.73 82.866 503.793 83.167C503.849 82.866 503.94 82.579 504.017 82.355L504.591 80.577H505.263L505.83 82.355C505.886 82.523 505.998 82.922 506.054 83.167C506.11 82.894 506.173 82.656 506.271 82.355L506.845 80.577H507.531L506.362 84H505.739L505.144 82.166C505.032 81.823 504.962 81.557 504.927 81.368C504.892 81.536 504.829 81.76 504.703 82.173L504.108 84H503.457Z" fill="black"/>
<path d="M635.144 13.077C633.702 13.077 632.743 12.041 632.743 10.473C632.743 8.912 633.73 7.855 635.179 7.855C636.32 7.855 637.195 8.534 637.384 9.57H636.649C636.46 8.912 635.893 8.513 635.158 8.513C634.136 8.513 633.464 9.283 633.464 10.466C633.464 11.649 634.136 12.419 635.158 12.419C635.9 12.419 636.488 12.02 636.677 11.397H637.405C637.188 12.405 636.285 13.077 635.144 13.077ZM637.91 11.285C637.91 10.228 638.666 9.486 639.695 9.486C640.717 9.486 641.473 10.228 641.473 11.285C641.473 12.342 640.717 13.084 639.695 13.084C638.666 13.084 637.91 12.342 637.91 11.285ZM638.575 11.285C638.575 11.999 639.03 12.496 639.695 12.496C640.353 12.496 640.815 11.999 640.815 11.285C640.815 10.571 640.353 10.074 639.695 10.074C639.03 10.074 638.575 10.571 638.575 11.285ZM642.859 13H642.201V9.577H642.789L642.852 10.025C643.027 9.703 643.391 9.479 643.874 9.479C644.406 9.479 644.784 9.745 644.959 10.172C645.12 9.745 645.533 9.479 646.065 9.479C646.849 9.479 647.325 9.969 647.325 10.76V13H646.681V10.921C646.681 10.382 646.38 10.074 645.918 10.074C645.421 10.074 645.092 10.424 645.092 10.97V13H644.441V10.914C644.441 10.375 644.147 10.081 643.685 10.081C643.188 10.081 642.859 10.424 642.859 10.97V13ZM648.237 14.533V9.577H648.832L648.881 10.193C649.112 9.724 649.574 9.479 650.12 9.479C651.1 9.479 651.709 10.214 651.709 11.264C651.709 12.307 651.135 13.091 650.12 13.091C649.574 13.091 649.119 12.86 648.895 12.44V14.533H648.237ZM648.902 11.292C648.902 11.992 649.308 12.496 649.98 12.496C650.652 12.496 651.051 11.992 651.051 11.292C651.051 10.585 650.652 10.081 649.98 10.081C649.308 10.081 648.902 10.578 648.902 11.292ZM653.106 13H652.448V7.848H653.106V13ZM655.552 13.084C654.544 13.084 653.851 12.356 653.851 11.292C653.851 10.221 654.53 9.479 655.524 9.479C656.497 9.479 657.134 10.151 657.134 11.166V11.411L654.488 11.418C654.537 12.139 654.915 12.538 655.566 12.538C656.077 12.538 656.413 12.328 656.525 11.936H657.141C656.973 12.671 656.399 13.084 655.552 13.084ZM655.524 10.032C654.95 10.032 654.586 10.375 654.502 10.977H656.476C656.476 10.41 656.105 10.032 655.524 10.032ZM658.801 13H658.143V10.13H657.471V9.577H658.143V8.506H658.801V9.577H659.473V10.13H658.801V13ZM661.506 13.084C660.498 13.084 659.805 12.356 659.805 11.292C659.805 10.221 660.484 9.479 661.478 9.479C662.451 9.479 663.088 10.151 663.088 11.166V11.411L660.442 11.418C660.491 12.139 660.869 12.538 661.52 12.538C662.031 12.538 662.367 12.328 662.479 11.936H663.095C662.927 12.671 662.353 13.084 661.506 13.084ZM661.478 10.032C660.904 10.032 660.54 10.375 660.456 10.977H662.43C662.43 10.41 662.059 10.032 661.478 10.032ZM665.195 13.084C664.201 13.084 663.599 12.342 663.599 11.299C663.599 10.249 664.208 9.479 665.223 9.479C665.748 9.479 666.189 9.71 666.42 10.13V7.848H667.071V13H666.483L666.427 12.377C666.203 12.846 665.741 13.084 665.195 13.084ZM665.328 12.489C666 12.489 666.413 11.992 666.413 11.278C666.413 10.578 666 10.074 665.328 10.074C664.656 10.074 664.264 10.578 664.264 11.278C664.264 11.985 664.656 12.489 665.328 12.489Z" fill="black"/>
<rect x="233" y="133" width="72" height="5" rx="2" fill="#D9D9D9" fill-opacity="0.48"/>
<rect x="233" y="143" width="37" height="3" rx="1.5" fill="#D9D9D9"/>
<rect x="363" y="133" width="72" height="5" rx="2" fill="#D9D9D9" fill-opacity="0.48"/>
<rect x="363" y="143" width="37" height="3" rx="1.5" fill="#D9D9D9"/>
<rect x="496" y="133" width="72" height="5" rx="2" fill="#D9D9D9" fill-opacity="0.48"/>
<rect x="496" y="143" width="37" height="3" rx="1.5" fill="#D9D9D9"/>
<rect x="647.117" y="72.1914" width="87.6" height="6.08333" rx="2" fill="#D9D9D9" fill-opacity="0.48"/>
<rect x="647.117" y="84.3584" width="45.0167" height="3.65" rx="1.825" fill="#D9D9D9"/>
<rect x="647.117" y="164.658" width="87.6" height="6.08333" rx="2" fill="#D9D9D9" fill-opacity="0.48"/>
<rect x="647.117" y="176.825" width="45.0167" height="3.65" rx="1.825" fill="#D9D9D9"/>
<rect x="647.117" y="257.125" width="87.6" height="6.08333" rx="2" fill="#D9D9D9" fill-opacity="0.48"/>
<rect x="647.117" y="269.292" width="45.0167" height="3.65" rx="1.825" fill="#D9D9D9"/>
<path d="M178.098 48.3485C177.151 47.4015 176.236 46.4257 175.255 45.5172C174.159 44.5029 172.388 45.0605 172.043 46.493C172.014 46.6084 172 46.7286 172 46.8487C172 49.8723 172 52.9007 172 55.9243C172 55.958 172.005 55.9964 172.01 56.0301C172.909 55.1937 173.762 54.3092 174.604 53.4151C175.528 52.4344 176.433 51.4346 177.218 50.3386C177.648 49.7425 178.113 49.1465 178.098 48.3485Z" fill="#71147E"/>
<path d="M181.473 51.6075C181.358 52.319 180.913 52.8189 180.42 53.2996C179.51 54.1841 178.629 55.0878 177.734 55.9867C177.256 56.4674 177.27 56.8568 177.811 57.2654C178.514 57.7989 179.314 57.9672 180.175 57.8278C180.491 57.7749 180.779 57.6163 181.013 57.3807C182.468 55.929 183.909 54.4677 185.384 53.04C186.341 52.1123 186.274 50.7086 185.355 49.9107C184.78 49.4108 184.259 48.8483 183.718 48.31C183.201 49.5646 182.358 50.6029 181.473 51.6075Z" fill="#F99807"/>
<path d="M178.098 48.3485C178.113 49.1465 177.648 49.7425 177.218 50.3386C176.433 51.4346 175.528 52.4344 174.604 53.4151C173.762 54.3092 172.905 55.1888 172.005 56.03C171.967 56.7991 172.374 57.4528 173.101 57.7989C173.819 58.1402 174.671 58.0489 175.231 57.5105C176.16 56.6164 177.069 55.6935 177.979 54.785C178.63 54.136 179.29 53.4919 179.922 52.8237C180.664 52.0306 180.64 50.8913 179.879 50.1174C179.295 49.5117 178.692 48.935 178.098 48.3485Z" fill="#F11170"/>
<path d="M181.473 51.6075C182.358 50.6029 183.201 49.5693 183.708 48.305C182.799 47.3917 181.889 46.4736 180.975 45.5651C180.539 45.1324 179.989 45.0747 179.41 45.1276C178.816 45.1853 178.266 45.3776 177.801 45.7621C177.332 46.1515 177.313 46.5024 177.744 46.935C178.725 47.9301 179.706 48.9251 180.712 49.8961C181.209 50.3768 181.468 50.9249 181.473 51.6075Z" fill="#71147E"/>
<path d="M191.46 55.258C190.858 55.258 190.404 55.0881 190.095 54.7484C189.787 54.4011 189.633 53.9066 189.633 53.2649V52.8119H190.806V53.3555C190.806 53.8688 191.02 54.1255 191.449 54.1255C191.659 54.1255 191.817 54.0651 191.922 53.9443C192.035 53.816 192.091 53.6122 192.091 53.3328C192.091 53.0006 192.016 52.71 191.866 52.4608C191.715 52.2042 191.437 51.8984 191.031 51.5436C190.52 51.0906 190.163 50.6829 189.96 50.3205C189.757 49.9506 189.656 49.5354 189.656 49.0749C189.656 48.4483 189.813 47.9651 190.129 47.6254C190.445 47.2781 190.904 47.1044 191.505 47.1044C192.099 47.1044 192.546 47.2781 192.847 47.6254C193.155 47.9651 193.309 48.4558 193.309 49.0975V49.4259H192.136V49.0182C192.136 48.7465 192.084 48.5502 191.979 48.4294C191.873 48.301 191.719 48.2369 191.516 48.2369C191.103 48.2369 190.896 48.4898 190.896 48.9956C190.896 49.2825 190.971 49.5505 191.122 49.7996C191.279 50.0488 191.561 50.3507 191.967 50.7056C192.486 51.1585 192.843 51.57 193.039 51.9399C193.234 52.3099 193.332 52.744 193.332 53.2422C193.332 53.8915 193.17 54.3898 192.847 54.737C192.531 55.0843 192.069 55.258 191.46 55.258Z" fill="#242729"/>
<path d="M194.043 47.2177H195.283V54.0123H197.325V55.1447H194.043V47.2177Z" fill="#242729"/>
<path d="M197.919 47.2177H199.16V55.1447H197.919V47.2177Z" fill="#242729"/>
<path d="M200.089 47.2177H201.329V50.5584L202.908 47.2177H204.148L202.671 50.128L204.171 55.1447H202.874L201.825 51.6115L201.329 52.6194V55.1447H200.089V47.2177Z" fill="#242729"/>
<path d="M204.758 47.2177H205.999V50.5584L207.577 47.2177H208.818L207.341 50.128L208.84 55.1447H207.543L206.495 51.6115L205.999 52.6194V55.1447H204.758V47.2177Z" fill="#242729"/>
<path d="M212.192 47.2177H213.872L215.158 55.1447H213.917L213.692 53.5706V53.5933H212.282L212.057 55.1447H210.906L212.192 47.2177ZM213.545 52.5175L212.993 48.5992H212.97L212.429 52.5175H213.545Z" fill="#242729"/>
<path d="M215.76 47.2177H217V55.1447H215.76V47.2177Z" fill="#242729"/>
<defs>
<filter id="filter0_dddddd_384_24805" x="0" y="60.838" width="912" height="731.162" filterUnits="userSpaceOnUse" color-interpolation-filters="sRGB">
<feFlood flood-opacity="0" result="BackgroundImageFix"/>
<feColorMatrix in="SourceAlpha" type="matrix" values="0 0 0 0 0 0 0 0 0 0 0 0 0 0 0 0 0 0 127 0" result="hardAlpha"/>
<feOffset dy="3.48148"/>
<feGaussianBlur stdDeviation="2.32176"/>
<feColorMatrix type="matrix" values="0 0 0 0 0 0 0 0 0 0 0 0 0 0 0 0 0 0 0.07 0"/>
<feBlend mode="normal" in2="BackgroundImageFix" result="effect1_dropShadow_384_24805"/>
<feColorMatrix in="SourceAlpha" type="matrix" values="0 0 0 0 0 0 0 0 0 0 0 0 0 0 0 0 0 0 127 0" result="hardAlpha"/>
<feOffset dy="15.3185"/>
<feGaussianBlur stdDeviation="4.80741"/>
<feColorMatrix type="matrix" values="0 0 0 0 0 0 0 0 0 0 0 0 0 0 0 0 0 0 0.0531481 0"/>
<feBlend mode="normal" in2="effect1_dropShadow_384_24805" result="effect2_dropShadow_384_24805"/>
<feColorMatrix in="SourceAlpha" type="matrix" values="0 0 0 0 0 0 0 0 0 0 0 0 0 0 0 0 0 0 127 0" result="hardAlpha"/>
<feOffset dy="37.6"/>
<feGaussianBlur stdDeviation="9.5875"/>
<feColorMatrix type="matrix" values="0 0 0 0 0 0 0 0 0 0 0 0 0 0 0 0 0 0 0.0425185 0"/>
<feBlend mode="normal" in2="effect2_dropShadow_384_24805" result="effect3_dropShadow_384_24805"/>
<feColorMatrix in="SourceAlpha" type="matrix" values="0 0 0 0 0 0 0 0 0 0 0 0 0 0 0 0 0 0 127 0" result="hardAlpha"/>
<feOffset dy="72.4148"/>
<feGaussianBlur stdDeviation="18.7926"/>
<feColorMatrix type="matrix" values="0 0 0 0 0 0 0 0 0 0 0 0 0 0 0 0 0 0 0.035 0"/>
<feBlend mode="normal" in2="effect3_dropShadow_384_24805" result="effect4_dropShadow_384_24805"/>
<feColorMatrix in="SourceAlpha" type="matrix" values="0 0 0 0 0 0 0 0 0 0 0 0 0 0 0 0 0 0 127 0" result="hardAlpha"/>
<feOffset dy="121.852"/>
<feGaussianBlur stdDeviation="34.5532"/>
<feColorMatrix type="matrix" values="0 0 0 0 0 0 0 0 0 0 0 0 0 0 0 0 0 0 0.0274815 0"/>
<feBlend mode="normal" in2="effect4_dropShadow_384_24805" result="effect5_dropShadow_384_24805"/>
<feColorMatrix in="SourceAlpha" type="matrix" values="0 0 0 0 0 0 0 0 0 0 0 0 0 0 0 0 0 0 127 0" result="hardAlpha"/>
<feOffset dy="188"/>
<feGaussianBlur stdDeviation="59"/>
<feColorMatrix type="matrix" values="0 0 0 0 0 0 0 0 0 0 0 0 0 0 0 0 0 0 0.0168519 0"/>
<feBlend mode="normal" in2="effect5_dropShadow_384_24805" result="effect6_dropShadow_384_24805"/>
<feBlend mode="normal" in="SourceGraphic" in2="effect6_dropShadow_384_24805" result="shape"/>
</filter>
<filter id="filter1_dddddd_384_24805" x="25" y="30.838" width="912" height="731.162" filterUnits="userSpaceOnUse" color-interpolation-filters="sRGB">
<feFlood flood-opacity="0" result="BackgroundImageFix"/>
<feColorMatrix in="SourceAlpha" type="matrix" values="0 0 0 0 0 0 0 0 0 0 0 0 0 0 0 0 0 0 127 0" result="hardAlpha"/>
<feOffset dy="3.48148"/>
<feGaussianBlur stdDeviation="2.32176"/>
<feColorMatrix type="matrix" values="0 0 0 0 0 0 0 0 0 0 0 0 0 0 0 0 0 0 0.07 0"/>
<feBlend mode="normal" in2="BackgroundImageFix" result="effect1_dropShadow_384_24805"/>
<feColorMatrix in="SourceAlpha" type="matrix" values="0 0 0 0 0 0 0 0 0 0 0 0 0 0 0 0 0 0 127 0" result="hardAlpha"/>
<feOffset dy="15.3185"/>
<feGaussianBlur stdDeviation="4.80741"/>
<feColorMatrix type="matrix" values="0 0 0 0 0 0 0 0 0 0 0 0 0 0 0 0 0 0 0.0531481 0"/>
<feBlend mode="normal" in2="effect1_dropShadow_384_24805" result="effect2_dropShadow_384_24805"/>
<feColorMatrix in="SourceAlpha" type="matrix" values="0 0 0 0 0 0 0 0 0 0 0 0 0 0 0 0 0 0 127 0" result="hardAlpha"/>
<feOffset dy="37.6"/>
<feGaussianBlur stdDeviation="9.5875"/>
<feColorMatrix type="matrix" values="0 0 0 0 0 0 0 0 0 0 0 0 0 0 0 0 0 0 0.0425185 0"/>
<feBlend mode="normal" in2="effect2_dropShadow_384_24805" result="effect3_dropShadow_384_24805"/>
<feColorMatrix in="SourceAlpha" type="matrix" values="0 0 0 0 0 0 0 0 0 0 0 0 0 0 0 0 0 0 127 0" result="hardAlpha"/>
<feOffset dy="72.4148"/>
<feGaussianBlur stdDeviation="18.7926"/>
<feColorMatrix type="matrix" values="0 0 0 0 0 0 0 0 0 0 0 0 0 0 0 0 0 0 0.035 0"/>
<feBlend mode="normal" in2="effect3_dropShadow_384_24805" result="effect4_dropShadow_384_24805"/>
<feColorMatrix in="SourceAlpha" type="matrix" values="0 0 0 0 0 0 0 0 0 0 0 0 0 0 0 0 0 0 127 0" result="hardAlpha"/>
<feOffset dy="121.852"/>
<feGaussianBlur stdDeviation="34.5532"/>
<feColorMatrix type="matrix" values="0 0 0 0 0 0 0 0 0 0 0 0 0 0 0 0 0 0 0.0274815 0"/>
<feBlend mode="normal" in2="effect4_dropShadow_384_24805" result="effect5_dropShadow_384_24805"/>
<feColorMatrix in="SourceAlpha" type="matrix" values="0 0 0 0 0 0 0 0 0 0 0 0 0 0 0 0 0 0 127 0" result="hardAlpha"/>
<feOffset dy="188"/>
<feGaussianBlur stdDeviation="59"/>
<feColorMatrix type="matrix" values="0 0 0 0 0 0 0 0 0 0 0 0 0 0 0 0 0 0 0.0168519 0"/>
<feBlend mode="normal" in2="effect5_dropShadow_384_24805" result="effect6_dropShadow_384_24805"/>
<feBlend mode="normal" in="SourceGraphic" in2="effect6_dropShadow_384_24805" result="shape"/>
</filter>
<filter id="filter2_dddddd_384_24805" x="544" y="29.7037" width="306" height="571.296" filterUnits="userSpaceOnUse" color-interpolation-filters="sRGB">
<feFlood flood-opacity="0" result="BackgroundImageFix"/>
<feColorMatrix in="SourceAlpha" type="matrix" values="0 0 0 0 0 0 0 0 0 0 0 0 0 0 0 0 0 0 127 0" result="hardAlpha"/>
<feOffset dy="1.85185"/>
<feGaussianBlur stdDeviation="1.57407"/>
<feColorMatrix type="matrix" values="0 0 0 0 0 0 0 0 0 0 0 0 0 0 0 0 0 0 0.07 0"/>
<feBlend mode="normal" in2="BackgroundImageFix" result="effect1_dropShadow_384_24805"/>
<feColorMatrix in="SourceAlpha" type="matrix" values="0 0 0 0 0 0 0 0 0 0 0 0 0 0 0 0 0 0 127 0" result="hardAlpha"/>
<feOffset dy="8.14815"/>
<feGaussianBlur stdDeviation="3.25926"/>
<feColorMatrix type="matrix" values="0 0 0 0 0 0 0 0 0 0 0 0 0 0 0 0 0 0 0.0531481 0"/>
<feBlend mode="normal" in2="effect1_dropShadow_384_24805" result="effect2_dropShadow_384_24805"/>
<feColorMatrix in="SourceAlpha" type="matrix" values="0 0 0 0 0 0 0 0 0 0 0 0 0 0 0 0 0 0 127 0" result="hardAlpha"/>
<feOffset dy="20"/>
<feGaussianBlur stdDeviation="6.5"/>
<feColorMatrix type="matrix" values="0 0 0 0 0 0 0 0 0 0 0 0 0 0 0 0 0 0 0.0425185 0"/>
<feBlend mode="normal" in2="effect2_dropShadow_384_24805" result="effect3_dropShadow_384_24805"/>
<feColorMatrix in="SourceAlpha" type="matrix" values="0 0 0 0 0 0 0 0 0 0 0 0 0 0 0 0 0 0 127 0" result="hardAlpha"/>
<feOffset dy="38.5185"/>
<feGaussianBlur stdDeviation="12.7407"/>
<feColorMatrix type="matrix" values="0 0 0 0 0 0 0 0 0 0 0 0 0 0 0 0 0 0 0.035 0"/>
<feBlend mode="normal" in2="effect3_dropShadow_384_24805" result="effect4_dropShadow_384_24805"/>
<feColorMatrix in="SourceAlpha" type="matrix" values="0 0 0 0 0 0 0 0 0 0 0 0 0 0 0 0 0 0 127 0" result="hardAlpha"/>
<feOffset dy="64.8148"/>
<feGaussianBlur stdDeviation="23.4259"/>
<feColorMatrix type="matrix" values="0 0 0 0 0 0 0 0 0 0 0 0 0 0 0 0 0 0 0.0274815 0"/>
<feBlend mode="normal" in2="effect4_dropShadow_384_24805" result="effect5_dropShadow_384_24805"/>
<feColorMatrix in="SourceAlpha" type="matrix" values="0 0 0 0 0 0 0 0 0 0 0 0 0 0 0 0 0 0 127 0" result="hardAlpha"/>
<feOffset dy="100"/>
<feGaussianBlur stdDeviation="40"/>
<feColorMatrix type="matrix" values="0 0 0 0 0 0 0 0 0 0 0 0 0 0 0 0 0 0 0.0168519 0"/>
<feBlend mode="normal" in2="effect5_dropShadow_384_24805" result="effect6_dropShadow_384_24805"/>
<feBlend mode="normal" in="SourceGraphic" in2="effect6_dropShadow_384_24805" result="shape"/>
</filter>
<filter id="filter3_dddddd_384_24805" x="145" y="122.704" width="256" height="239.296" filterUnits="userSpaceOnUse" color-interpolation-filters="sRGB">
<feFlood flood-opacity="0" result="BackgroundImageFix"/>
<feColorMatrix in="SourceAlpha" type="matrix" values="0 0 0 0 0 0 0 0 0 0 0 0 0 0 0 0 0 0 127 0" result="hardAlpha"/>
<feOffset dy="1.85185"/>
<feGaussianBlur stdDeviation="1.57407"/>
<feColorMatrix type="matrix" values="0 0 0 0 0 0 0 0 0 0 0 0 0 0 0 0 0 0 0.07 0"/>
<feBlend mode="normal" in2="BackgroundImageFix" result="effect1_dropShadow_384_24805"/>
<feColorMatrix in="SourceAlpha" type="matrix" values="0 0 0 0 0 0 0 0 0 0 0 0 0 0 0 0 0 0 127 0" result="hardAlpha"/>
<feOffset dy="8.14815"/>
<feGaussianBlur stdDeviation="3.25926"/>
<feColorMatrix type="matrix" values="0 0 0 0 0 0 0 0 0 0 0 0 0 0 0 0 0 0 0.0531481 0"/>
<feBlend mode="normal" in2="effect1_dropShadow_384_24805" result="effect2_dropShadow_384_24805"/>
<feColorMatrix in="SourceAlpha" type="matrix" values="0 0 0 0 0 0 0 0 0 0 0 0 0 0 0 0 0 0 127 0" result="hardAlpha"/>
<feOffset dy="20"/>
<feGaussianBlur stdDeviation="6.5"/>
<feColorMatrix type="matrix" values="0 0 0 0 0 0 0 0 0 0 0 0 0 0 0 0 0 0 0.0425185 0"/>
<feBlend mode="normal" in2="effect2_dropShadow_384_24805" result="effect3_dropShadow_384_24805"/>
<feColorMatrix in="SourceAlpha" type="matrix" values="0 0 0 0 0 0 0 0 0 0 0 0 0 0 0 0 0 0 127 0" result="hardAlpha"/>
<feOffset dy="38.5185"/>
<feGaussianBlur stdDeviation="12.7407"/>
<feColorMatrix type="matrix" values="0 0 0 0 0 0 0 0 0 0 0 0 0 0 0 0 0 0 0.035 0"/>
<feBlend mode="normal" in2="effect3_dropShadow_384_24805" result="effect4_dropShadow_384_24805"/>
<feColorMatrix in="SourceAlpha" type="matrix" values="0 0 0 0 0 0 0 0 0 0 0 0 0 0 0 0 0 0 127 0" result="hardAlpha"/>
<feOffset dy="64.8148"/>
<feGaussianBlur stdDeviation="23.4259"/>
<feColorMatrix type="matrix" values="0 0 0 0 0 0 0 0 0 0 0 0 0 0 0 0 0 0 0.0274815 0"/>
<feBlend mode="normal" in2="effect4_dropShadow_384_24805" result="effect5_dropShadow_384_24805"/>
<feColorMatrix in="SourceAlpha" type="matrix" values="0 0 0 0 0 0 0 0 0 0 0 0 0 0 0 0 0 0 127 0" result="hardAlpha"/>
<feOffset dy="100"/>
<feGaussianBlur stdDeviation="40"/>
<feColorMatrix type="matrix" values="0 0 0 0 0 0 0 0 0 0 0 0 0 0 0 0 0 0 0.0168519 0"/>
<feBlend mode="normal" in2="effect5_dropShadow_384_24805" result="effect6_dropShadow_384_24805"/>
<feBlend mode="normal" in="SourceGraphic" in2="effect6_dropShadow_384_24805" result="shape"/>
</filter>
<filter id="filter4_dddddd_384_24805" x="133" y="72.7037" width="280" height="197.296" filterUnits="userSpaceOnUse" color-interpolation-filters="sRGB">
<feFlood flood-opacity="0" result="BackgroundImageFix"/>
<feColorMatrix in="SourceAlpha" type="matrix" values="0 0 0 0 0 0 0 0 0 0 0 0 0 0 0 0 0 0 127 0" result="hardAlpha"/>
<feOffset dy="1.85185"/>
<feGaussianBlur stdDeviation="1.57407"/>
<feColorMatrix type="matrix" values="0 0 0 0 0 0 0 0 0 0 0 0 0 0 0 0 0 0 0.07 0"/>
<feBlend mode="normal" in2="BackgroundImageFix" result="effect1_dropShadow_384_24805"/>
<feColorMatrix in="SourceAlpha" type="matrix" values="0 0 0 0 0 0 0 0 0 0 0 0 0 0 0 0 0 0 127 0" result="hardAlpha"/>
<feOffset dy="8.14815"/>
<feGaussianBlur stdDeviation="3.25926"/>
<feColorMatrix type="matrix" values="0 0 0 0 0 0 0 0 0 0 0 0 0 0 0 0 0 0 0.0531481 0"/>
<feBlend mode="normal" in2="effect1_dropShadow_384_24805" result="effect2_dropShadow_384_24805"/>
<feColorMatrix in="SourceAlpha" type="matrix" values="0 0 0 0 0 0 0 0 0 0 0 0 0 0 0 0 0 0 127 0" result="hardAlpha"/>
<feOffset dy="20"/>
<feGaussianBlur stdDeviation="6.5"/>
<feColorMatrix type="matrix" values="0 0 0 0 0 0 0 0 0 0 0 0 0 0 0 0 0 0 0.0425185 0"/>
<feBlend mode="normal" in2="effect2_dropShadow_384_24805" result="effect3_dropShadow_384_24805"/>
<feColorMatrix in="SourceAlpha" type="matrix" values="0 0 0 0 0 0 0 0 0 0 0 0 0 0 0 0 0 0 127 0" result="hardAlpha"/>
<feOffset dy="38.5185"/>
<feGaussianBlur stdDeviation="12.7407"/>
<feColorMatrix type="matrix" values="0 0 0 0 0 0 0 0 0 0 0 0 0 0 0 0 0 0 0.035 0"/>
<feBlend mode="normal" in2="effect3_dropShadow_384_24805" result="effect4_dropShadow_384_24805"/>
<feColorMatrix in="SourceAlpha" type="matrix" values="0 0 0 0 0 0 0 0 0 0 0 0 0 0 0 0 0 0 127 0" result="hardAlpha"/>
<feOffset dy="64.8148"/>
<feGaussianBlur stdDeviation="23.4259"/>
<feColorMatrix type="matrix" values="0 0 0 0 0 0 0 0 0 0 0 0 0 0 0 0 0 0 0.0274815 0"/>
<feBlend mode="normal" in2="effect4_dropShadow_384_24805" result="effect5_dropShadow_384_24805"/>
<feColorMatrix in="SourceAlpha" type="matrix" values="0 0 0 0 0 0 0 0 0 0 0 0 0 0 0 0 0 0 127 0" result="hardAlpha"/>
<feOffset dy="100"/>
<feGaussianBlur stdDeviation="40"/>
<feColorMatrix type="matrix" values="0 0 0 0 0 0 0 0 0 0 0 0 0 0 0 0 0 0 0.0168519 0"/>
<feBlend mode="normal" in2="effect5_dropShadow_384_24805" result="effect6_dropShadow_384_24805"/>
<feBlend mode="normal" in="SourceGraphic" in2="effect6_dropShadow_384_24805" result="shape"/>
</filter>
<filter id="filter5_dddddd_384_24805" x="266" y="72.7037" width="280" height="197.296" filterUnits="userSpaceOnUse" color-interpolation-filters="sRGB">
<feFlood flood-opacity="0" result="BackgroundImageFix"/>
<feColorMatrix in="SourceAlpha" type="matrix" values="0 0 0 0 0 0 0 0 0 0 0 0 0 0 0 0 0 0 127 0" result="hardAlpha"/>
<feOffset dy="1.85185"/>
<feGaussianBlur stdDeviation="1.57407"/>
<feColorMatrix type="matrix" values="0 0 0 0 0 0 0 0 0 0 0 0 0 0 0 0 0 0 0.07 0"/>
<feBlend mode="normal" in2="BackgroundImageFix" result="effect1_dropShadow_384_24805"/>
<feColorMatrix in="SourceAlpha" type="matrix" values="0 0 0 0 0 0 0 0 0 0 0 0 0 0 0 0 0 0 127 0" result="hardAlpha"/>
<feOffset dy="8.14815"/>
<feGaussianBlur stdDeviation="3.25926"/>
<feColorMatrix type="matrix" values="0 0 0 0 0 0 0 0 0 0 0 0 0 0 0 0 0 0 0.0531481 0"/>
<feBlend mode="normal" in2="effect1_dropShadow_384_24805" result="effect2_dropShadow_384_24805"/>
<feColorMatrix in="SourceAlpha" type="matrix" values="0 0 0 0 0 0 0 0 0 0 0 0 0 0 0 0 0 0 127 0" result="hardAlpha"/>
<feOffset dy="20"/>
<feGaussianBlur stdDeviation="6.5"/>
<feColorMatrix type="matrix" values="0 0 0 0 0 0 0 0 0 0 0 0 0 0 0 0 0 0 0.0425185 0"/>
<feBlend mode="normal" in2="effect2_dropShadow_384_24805" result="effect3_dropShadow_384_24805"/>
<feColorMatrix in="SourceAlpha" type="matrix" values="0 0 0 0 0 0 0 0 0 0 0 0 0 0 0 0 0 0 127 0" result="hardAlpha"/>
<feOffset dy="38.5185"/>
<feGaussianBlur stdDeviation="12.7407"/>
<feColorMatrix type="matrix" values="0 0 0 0 0 0 0 0 0 0 0 0 0 0 0 0 0 0 0.035 0"/>
<feBlend mode="normal" in2="effect3_dropShadow_384_24805" result="effect4_dropShadow_384_24805"/>
<feColorMatrix in="SourceAlpha" type="matrix" values="0 0 0 0 0 0 0 0 0 0 0 0 0 0 0 0 0 0 127 0" result="hardAlpha"/>
<feOffset dy="64.8148"/>
<feGaussianBlur stdDeviation="23.4259"/>
<feColorMatrix type="matrix" values="0 0 0 0 0 0 0 0 0 0 0 0 0 0 0 0 0 0 0.0274815 0"/>
<feBlend mode="normal" in2="effect4_dropShadow_384_24805" result="effect5_dropShadow_384_24805"/>
<feColorMatrix in="SourceAlpha" type="matrix" values="0 0 0 0 0 0 0 0 0 0 0 0 0 0 0 0 0 0 127 0" result="hardAlpha"/>
<feOffset dy="100"/>
<feGaussianBlur stdDeviation="40"/>
<feColorMatrix type="matrix" values="0 0 0 0 0 0 0 0 0 0 0 0 0 0 0 0 0 0 0.0168519 0"/>
<feBlend mode="normal" in2="effect5_dropShadow_384_24805" result="effect6_dropShadow_384_24805"/>
<feBlend mode="normal" in="SourceGraphic" in2="effect6_dropShadow_384_24805" result="shape"/>
</filter>
<filter id="filter6_dddddd_384_24805" x="399" y="72.7037" width="280" height="197.296" filterUnits="userSpaceOnUse" color-interpolation-filters="sRGB">
<feFlood flood-opacity="0" result="BackgroundImageFix"/>
<feColorMatrix in="SourceAlpha" type="matrix" values="0 0 0 0 0 0 0 0 0 0 0 0 0 0 0 0 0 0 127 0" result="hardAlpha"/>
<feOffset dy="1.85185"/>
<feGaussianBlur stdDeviation="1.57407"/>
<feColorMatrix type="matrix" values="0 0 0 0 0 0 0 0 0 0 0 0 0 0 0 0 0 0 0.07 0"/>
<feBlend mode="normal" in2="BackgroundImageFix" result="effect1_dropShadow_384_24805"/>
<feColorMatrix in="SourceAlpha" type="matrix" values="0 0 0 0 0 0 0 0 0 0 0 0 0 0 0 0 0 0 127 0" result="hardAlpha"/>
<feOffset dy="8.14815"/>
<feGaussianBlur stdDeviation="3.25926"/>
<feColorMatrix type="matrix" values="0 0 0 0 0 0 0 0 0 0 0 0 0 0 0 0 0 0 0.0531481 0"/>
<feBlend mode="normal" in2="effect1_dropShadow_384_24805" result="effect2_dropShadow_384_24805"/>
<feColorMatrix in="SourceAlpha" type="matrix" values="0 0 0 0 0 0 0 0 0 0 0 0 0 0 0 0 0 0 127 0" result="hardAlpha"/>
<feOffset dy="20"/>
<feGaussianBlur stdDeviation="6.5"/>
<feColorMatrix type="matrix" values="0 0 0 0 0 0 0 0 0 0 0 0 0 0 0 0 0 0 0.0425185 0"/>
<feBlend mode="normal" in2="effect2_dropShadow_384_24805" result="effect3_dropShadow_384_24805"/>
<feColorMatrix in="SourceAlpha" type="matrix" values="0 0 0 0 0 0 0 0 0 0 0 0 0 0 0 0 0 0 127 0" result="hardAlpha"/>
<feOffset dy="38.5185"/>
<feGaussianBlur stdDeviation="12.7407"/>
<feColorMatrix type="matrix" values="0 0 0 0 0 0 0 0 0 0 0 0 0 0 0 0 0 0 0.035 0"/>
<feBlend mode="normal" in2="effect3_dropShadow_384_24805" result="effect4_dropShadow_384_24805"/>
<feColorMatrix in="SourceAlpha" type="matrix" values="0 0 0 0 0 0 0 0 0 0 0 0 0 0 0 0 0 0 127 0" result="hardAlpha"/>
<feOffset dy="64.8148"/>
<feGaussianBlur stdDeviation="23.4259"/>
<feColorMatrix type="matrix" values="0 0 0 0 0 0 0 0 0 0 0 0 0 0 0 0 0 0 0.0274815 0"/>
<feBlend mode="normal" in2="effect4_dropShadow_384_24805" result="effect5_dropShadow_384_24805"/>
<feColorMatrix in="SourceAlpha" type="matrix" values="0 0 0 0 0 0 0 0 0 0 0 0 0 0 0 0 0 0 127 0" result="hardAlpha"/>
<feOffset dy="100"/>
<feGaussianBlur stdDeviation="40"/>
<feColorMatrix type="matrix" values="0 0 0 0 0 0 0 0 0 0 0 0 0 0 0 0 0 0 0.0168519 0"/>
<feBlend mode="normal" in2="effect5_dropShadow_384_24805" result="effect6_dropShadow_384_24805"/>
<feBlend mode="normal" in="SourceGraphic" in2="effect6_dropShadow_384_24805" result="shape"/>
</filter>
<filter id="filter7_dddddd_384_24805" x="544" y="0.703704" width="306" height="200.296" filterUnits="userSpaceOnUse" color-interpolation-filters="sRGB">
<feFlood flood-opacity="0" result="BackgroundImageFix"/>
<feColorMatrix in="SourceAlpha" type="matrix" values="0 0 0 0 0 0 0 0 0 0 0 0 0 0 0 0 0 0 127 0" result="hardAlpha"/>
<feOffset dy="1.85185"/>
<feGaussianBlur stdDeviation="1.57407"/>
<feColorMatrix type="matrix" values="0 0 0 0 0 0 0 0 0 0 0 0 0 0 0 0 0 0 0.07 0"/>
<feBlend mode="normal" in2="BackgroundImageFix" result="effect1_dropShadow_384_24805"/>
<feColorMatrix in="SourceAlpha" type="matrix" values="0 0 0 0 0 0 0 0 0 0 0 0 0 0 0 0 0 0 127 0" result="hardAlpha"/>
<feOffset dy="8.14815"/>
<feGaussianBlur stdDeviation="3.25926"/>
<feColorMatrix type="matrix" values="0 0 0 0 0 0 0 0 0 0 0 0 0 0 0 0 0 0 0.0531481 0"/>
<feBlend mode="normal" in2="effect1_dropShadow_384_24805" result="effect2_dropShadow_384_24805"/>
<feColorMatrix in="SourceAlpha" type="matrix" values="0 0 0 0 0 0 0 0 0 0 0 0 0 0 0 0 0 0 127 0" result="hardAlpha"/>
<feOffset dy="20"/>
<feGaussianBlur stdDeviation="6.5"/>
<feColorMatrix type="matrix" values="0 0 0 0 0 0 0 0 0 0 0 0 0 0 0 0 0 0 0.0425185 0"/>
<feBlend mode="normal" in2="effect2_dropShadow_384_24805" result="effect3_dropShadow_384_24805"/>
<feColorMatrix in="SourceAlpha" type="matrix" values="0 0 0 0 0 0 0 0 0 0 0 0 0 0 0 0 0 0 127 0" result="hardAlpha"/>
<feOffset dy="38.5185"/>
<feGaussianBlur stdDeviation="12.7407"/>
<feColorMatrix type="matrix" values="0 0 0 0 0 0 0 0 0 0 0 0 0 0 0 0 0 0 0.035 0"/>
<feBlend mode="normal" in2="effect3_dropShadow_384_24805" result="effect4_dropShadow_384_24805"/>
<feColorMatrix in="SourceAlpha" type="matrix" values="0 0 0 0 0 0 0 0 0 0 0 0 0 0 0 0 0 0 127 0" result="hardAlpha"/>
<feOffset dy="64.8148"/>
<feGaussianBlur stdDeviation="23.4259"/>
<feColorMatrix type="matrix" values="0 0 0 0 0 0 0 0 0 0 0 0 0 0 0 0 0 0 0.0274815 0"/>
<feBlend mode="normal" in2="effect4_dropShadow_384_24805" result="effect5_dropShadow_384_24805"/>
<feColorMatrix in="SourceAlpha" type="matrix" values="0 0 0 0 0 0 0 0 0 0 0 0 0 0 0 0 0 0 127 0" result="hardAlpha"/>
<feOffset dy="100"/>
<feGaussianBlur stdDeviation="40"/>
<feColorMatrix type="matrix" values="0 0 0 0 0 0 0 0 0 0 0 0 0 0 0 0 0 0 0.0168519 0"/>
<feBlend mode="normal" in2="effect5_dropShadow_384_24805" result="effect6_dropShadow_384_24805"/>
<feBlend mode="normal" in="SourceGraphic" in2="effect6_dropShadow_384_24805" result="shape"/>
</filter>
<filter id="filter8_dddddd_384_24805" x="278" y="122.704" width="256" height="239.296" filterUnits="userSpaceOnUse" color-interpolation-filters="sRGB">
<feFlood flood-opacity="0" result="BackgroundImageFix"/>
<feColorMatrix in="SourceAlpha" type="matrix" values="0 0 0 0 0 0 0 0 0 0 0 0 0 0 0 0 0 0 127 0" result="hardAlpha"/>
<feOffset dy="1.85185"/>
<feGaussianBlur stdDeviation="1.57407"/>
<feColorMatrix type="matrix" values="0 0 0 0 0 0 0 0 0 0 0 0 0 0 0 0 0 0 0.07 0"/>
<feBlend mode="normal" in2="BackgroundImageFix" result="effect1_dropShadow_384_24805"/>
<feColorMatrix in="SourceAlpha" type="matrix" values="0 0 0 0 0 0 0 0 0 0 0 0 0 0 0 0 0 0 127 0" result="hardAlpha"/>
<feOffset dy="8.14815"/>
<feGaussianBlur stdDeviation="3.25926"/>
<feColorMatrix type="matrix" values="0 0 0 0 0 0 0 0 0 0 0 0 0 0 0 0 0 0 0.0531481 0"/>
<feBlend mode="normal" in2="effect1_dropShadow_384_24805" result="effect2_dropShadow_384_24805"/>
<feColorMatrix in="SourceAlpha" type="matrix" values="0 0 0 0 0 0 0 0 0 0 0 0 0 0 0 0 0 0 127 0" result="hardAlpha"/>
<feOffset dy="20"/>
<feGaussianBlur stdDeviation="6.5"/>
<feColorMatrix type="matrix" values="0 0 0 0 0 0 0 0 0 0 0 0 0 0 0 0 0 0 0.0425185 0"/>
<feBlend mode="normal" in2="effect2_dropShadow_384_24805" result="effect3_dropShadow_384_24805"/>
<feColorMatrix in="SourceAlpha" type="matrix" values="0 0 0 0 0 0 0 0 0 0 0 0 0 0 0 0 0 0 127 0" result="hardAlpha"/>
<feOffset dy="38.5185"/>
<feGaussianBlur stdDeviation="12.7407"/>
<feColorMatrix type="matrix" values="0 0 0 0 0 0 0 0 0 0 0 0 0 0 0 0 0 0 0.035 0"/>
<feBlend mode="normal" in2="effect3_dropShadow_384_24805" result="effect4_dropShadow_384_24805"/>
<feColorMatrix in="SourceAlpha" type="matrix" values="0 0 0 0 0 0 0 0 0 0 0 0 0 0 0 0 0 0 127 0" result="hardAlpha"/>
<feOffset dy="64.8148"/>
<feGaussianBlur stdDeviation="23.4259"/>
<feColorMatrix type="matrix" values="0 0 0 0 0 0 0 0 0 0 0 0 0 0 0 0 0 0 0.0274815 0"/>
<feBlend mode="normal" in2="effect4_dropShadow_384_24805" result="effect5_dropShadow_384_24805"/>
<feColorMatrix in="SourceAlpha" type="matrix" values="0 0 0 0 0 0 0 0 0 0 0 0 0 0 0 0 0 0 127 0" result="hardAlpha"/>
<feOffset dy="100"/>
<feGaussianBlur stdDeviation="40"/>
<feColorMatrix type="matrix" values="0 0 0 0 0 0 0 0 0 0 0 0 0 0 0 0 0 0 0.0168519 0"/>
<feBlend mode="normal" in2="effect5_dropShadow_384_24805" result="effect6_dropShadow_384_24805"/>
<feBlend mode="normal" in="SourceGraphic" in2="effect6_dropShadow_384_24805" result="shape"/>
</filter>
<filter id="filter9_dddddd_384_24805" x="411" y="122.704" width="256" height="239.296" filterUnits="userSpaceOnUse" color-interpolation-filters="sRGB">
<feFlood flood-opacity="0" result="BackgroundImageFix"/>
<feColorMatrix in="SourceAlpha" type="matrix" values="0 0 0 0 0 0 0 0 0 0 0 0 0 0 0 0 0 0 127 0" result="hardAlpha"/>
<feOffset dy="1.85185"/>
<feGaussianBlur stdDeviation="1.57407"/>
<feColorMatrix type="matrix" values="0 0 0 0 0 0 0 0 0 0 0 0 0 0 0 0 0 0 0.07 0"/>
<feBlend mode="normal" in2="BackgroundImageFix" result="effect1_dropShadow_384_24805"/>
<feColorMatrix in="SourceAlpha" type="matrix" values="0 0 0 0 0 0 0 0 0 0 0 0 0 0 0 0 0 0 127 0" result="hardAlpha"/>
<feOffset dy="8.14815"/>
<feGaussianBlur stdDeviation="3.25926"/>
<feColorMatrix type="matrix" values="0 0 0 0 0 0 0 0 0 0 0 0 0 0 0 0 0 0 0.0531481 0"/>
<feBlend mode="normal" in2="effect1_dropShadow_384_24805" result="effect2_dropShadow_384_24805"/>
<feColorMatrix in="SourceAlpha" type="matrix" values="0 0 0 0 0 0 0 0 0 0 0 0 0 0 0 0 0 0 127 0" result="hardAlpha"/>
<feOffset dy="20"/>
<feGaussianBlur stdDeviation="6.5"/>
<feColorMatrix type="matrix" values="0 0 0 0 0 0 0 0 0 0 0 0 0 0 0 0 0 0 0.0425185 0"/>
<feBlend mode="normal" in2="effect2_dropShadow_384_24805" result="effect3_dropShadow_384_24805"/>
<feColorMatrix in="SourceAlpha" type="matrix" values="0 0 0 0 0 0 0 0 0 0 0 0 0 0 0 0 0 0 127 0" result="hardAlpha"/>
<feOffset dy="38.5185"/>
<feGaussianBlur stdDeviation="12.7407"/>
<feColorMatrix type="matrix" values="0 0 0 0 0 0 0 0 0 0 0 0 0 0 0 0 0 0 0.035 0"/>
<feBlend mode="normal" in2="effect3_dropShadow_384_24805" result="effect4_dropShadow_384_24805"/>
<feColorMatrix in="SourceAlpha" type="matrix" values="0 0 0 0 0 0 0 0 0 0 0 0 0 0 0 0 0 0 127 0" result="hardAlpha"/>
<feOffset dy="64.8148"/>
<feGaussianBlur stdDeviation="23.4259"/>
<feColorMatrix type="matrix" values="0 0 0 0 0 0 0 0 0 0 0 0 0 0 0 0 0 0 0.0274815 0"/>
<feBlend mode="normal" in2="effect4_dropShadow_384_24805" result="effect5_dropShadow_384_24805"/>
<feColorMatrix in="SourceAlpha" type="matrix" values="0 0 0 0 0 0 0 0 0 0 0 0 0 0 0 0 0 0 127 0" result="hardAlpha"/>
<feOffset dy="100"/>
<feGaussianBlur stdDeviation="40"/>
<feColorMatrix type="matrix" values="0 0 0 0 0 0 0 0 0 0 0 0 0 0 0 0 0 0 0.0168519 0"/>
<feBlend mode="normal" in2="effect5_dropShadow_384_24805" result="effect6_dropShadow_384_24805"/>
<feBlend mode="normal" in="SourceGraphic" in2="effect6_dropShadow_384_24805" result="shape"/>
</filter>
<filter id="filter10_dddddd_384_24805" x="559" y="60.7037" width="276" height="252.296" filterUnits="userSpaceOnUse" color-interpolation-filters="sRGB">
<feFlood flood-opacity="0" result="BackgroundImageFix"/>
<feColorMatrix in="SourceAlpha" type="matrix" values="0 0 0 0 0 0 0 0 0 0 0 0 0 0 0 0 0 0 127 0" result="hardAlpha"/>
<feOffset dy="1.85185"/>
<feGaussianBlur stdDeviation="1.57407"/>
<feColorMatrix type="matrix" values="0 0 0 0 0 0 0 0 0 0 0 0 0 0 0 0 0 0 0.07 0"/>
<feBlend mode="normal" in2="BackgroundImageFix" result="effect1_dropShadow_384_24805"/>
<feColorMatrix in="SourceAlpha" type="matrix" values="0 0 0 0 0 0 0 0 0 0 0 0 0 0 0 0 0 0 127 0" result="hardAlpha"/>
<feOffset dy="8.14815"/>
<feGaussianBlur stdDeviation="3.25926"/>
<feColorMatrix type="matrix" values="0 0 0 0 0 0 0 0 0 0 0 0 0 0 0 0 0 0 0.0531481 0"/>
<feBlend mode="normal" in2="effect1_dropShadow_384_24805" result="effect2_dropShadow_384_24805"/>
<feColorMatrix in="SourceAlpha" type="matrix" values="0 0 0 0 0 0 0 0 0 0 0 0 0 0 0 0 0 0 127 0" result="hardAlpha"/>
<feOffset dy="20"/>
<feGaussianBlur stdDeviation="6.5"/>
<feColorMatrix type="matrix" values="0 0 0 0 0 0 0 0 0 0 0 0 0 0 0 0 0 0 0.0425185 0"/>
<feBlend mode="normal" in2="effect2_dropShadow_384_24805" result="effect3_dropShadow_384_24805"/>
<feColorMatrix in="SourceAlpha" type="matrix" values="0 0 0 0 0 0 0 0 0 0 0 0 0 0 0 0 0 0 127 0" result="hardAlpha"/>
<feOffset dy="38.5185"/>
<feGaussianBlur stdDeviation="12.7407"/>
<feColorMatrix type="matrix" values="0 0 0 0 0 0 0 0 0 0 0 0 0 0 0 0 0 0 0.035 0"/>
<feBlend mode="normal" in2="effect3_dropShadow_384_24805" result="effect4_dropShadow_384_24805"/>
<feColorMatrix in="SourceAlpha" type="matrix" values="0 0 0 0 0 0 0 0 0 0 0 0 0 0 0 0 0 0 127 0" result="hardAlpha"/>
<feOffset dy="64.8148"/>
<feGaussianBlur stdDeviation="23.4259"/>
<feColorMatrix type="matrix" values="0 0 0 0 0 0 0 0 0 0 0 0 0 0 0 0 0 0 0.0274815 0"/>
<feBlend mode="normal" in2="effect4_dropShadow_384_24805" result="effect5_dropShadow_384_24805"/>
<feColorMatrix in="SourceAlpha" type="matrix" values="0 0 0 0 0 0 0 0 0 0 0 0 0 0 0 0 0 0 127 0" result="hardAlpha"/>
<feOffset dy="100"/>
<feGaussianBlur stdDeviation="40"/>
<feColorMatrix type="matrix" values="0 0 0 0 0 0 0 0 0 0 0 0 0 0 0 0 0 0 0.0168519 0"/>
<feBlend mode="normal" in2="effect5_dropShadow_384_24805" result="effect6_dropShadow_384_24805"/>
<feBlend mode="normal" in="SourceGraphic" in2="effect6_dropShadow_384_24805" result="shape"/>
</filter>
<filter id="filter11_dddddd_384_24805" x="559" y="147.704" width="276" height="251.296" filterUnits="userSpaceOnUse" color-interpolation-filters="sRGB">
<feFlood flood-opacity="0" result="BackgroundImageFix"/>
<feColorMatrix in="SourceAlpha" type="matrix" values="0 0 0 0 0 0 0 0 0 0 0 0 0 0 0 0 0 0 127 0" result="hardAlpha"/>
<feOffset dy="1.85185"/>
<feGaussianBlur stdDeviation="1.57407"/>
<feColorMatrix type="matrix" values="0 0 0 0 0 0 0 0 0 0 0 0 0 0 0 0 0 0 0.07 0"/>
<feBlend mode="normal" in2="BackgroundImageFix" result="effect1_dropShadow_384_24805"/>
<feColorMatrix in="SourceAlpha" type="matrix" values="0 0 0 0 0 0 0 0 0 0 0 0 0 0 0 0 0 0 127 0" result="hardAlpha"/>
<feOffset dy="8.14815"/>
<feGaussianBlur stdDeviation="3.25926"/>
<feColorMatrix type="matrix" values="0 0 0 0 0 0 0 0 0 0 0 0 0 0 0 0 0 0 0.0531481 0"/>
<feBlend mode="normal" in2="effect1_dropShadow_384_24805" result="effect2_dropShadow_384_24805"/>
<feColorMatrix in="SourceAlpha" type="matrix" values="0 0 0 0 0 0 0 0 0 0 0 0 0 0 0 0 0 0 127 0" result="hardAlpha"/>
<feOffset dy="20"/>
<feGaussianBlur stdDeviation="6.5"/>
<feColorMatrix type="matrix" values="0 0 0 0 0 0 0 0 0 0 0 0 0 0 0 0 0 0 0.0425185 0"/>
<feBlend mode="normal" in2="effect2_dropShadow_384_24805" result="effect3_dropShadow_384_24805"/>
<feColorMatrix in="SourceAlpha" type="matrix" values="0 0 0 0 0 0 0 0 0 0 0 0 0 0 0 0 0 0 127 0" result="hardAlpha"/>
<feOffset dy="38.5185"/>
<feGaussianBlur stdDeviation="12.7407"/>
<feColorMatrix type="matrix" values="0 0 0 0 0 0 0 0 0 0 0 0 0 0 0 0 0 0 0.035 0"/>
<feBlend mode="normal" in2="effect3_dropShadow_384_24805" result="effect4_dropShadow_384_24805"/>
<feColorMatrix in="SourceAlpha" type="matrix" values="0 0 0 0 0 0 0 0 0 0 0 0 0 0 0 0 0 0 127 0" result="hardAlpha"/>
<feOffset dy="64.8148"/>
<feGaussianBlur stdDeviation="23.4259"/>
<feColorMatrix type="matrix" values="0 0 0 0 0 0 0 0 0 0 0 0 0 0 0 0 0 0 0.0274815 0"/>
<feBlend mode="normal" in2="effect4_dropShadow_384_24805" result="effect5_dropShadow_384_24805"/>
<feColorMatrix in="SourceAlpha" type="matrix" values="0 0 0 0 0 0 0 0 0 0 0 0 0 0 0 0 0 0 127 0" result="hardAlpha"/>
<feOffset dy="100"/>
<feGaussianBlur stdDeviation="40"/>
<feColorMatrix type="matrix" values="0 0 0 0 0 0 0 0 0 0 0 0 0 0 0 0 0 0 0.0168519 0"/>
<feBlend mode="normal" in2="effect5_dropShadow_384_24805" result="effect6_dropShadow_384_24805"/>
<feBlend mode="normal" in="SourceGraphic" in2="effect6_dropShadow_384_24805" result="shape"/>
</filter>
<filter id="filter12_dddddd_384_24805" x="559" y="233.704" width="276" height="252.296" filterUnits="userSpaceOnUse" color-interpolation-filters="sRGB">
<feFlood flood-opacity="0" result="BackgroundImageFix"/>
<feColorMatrix in="SourceAlpha" type="matrix" values="0 0 0 0 0 0 0 0 0 0 0 0 0 0 0 0 0 0 127 0" result="hardAlpha"/>
<feOffset dy="1.85185"/>
<feGaussianBlur stdDeviation="1.57407"/>
<feColorMatrix type="matrix" values="0 0 0 0 0 0 0 0 0 0 0 0 0 0 0 0 0 0 0.07 0"/>
<feBlend mode="normal" in2="BackgroundImageFix" result="effect1_dropShadow_384_24805"/>
<feColorMatrix in="SourceAlpha" type="matrix" values="0 0 0 0 0 0 0 0 0 0 0 0 0 0 0 0 0 0 127 0" result="hardAlpha"/>
<feOffset dy="8.14815"/>
<feGaussianBlur stdDeviation="3.25926"/>
<feColorMatrix type="matrix" values="0 0 0 0 0 0 0 0 0 0 0 0 0 0 0 0 0 0 0.0531481 0"/>
<feBlend mode="normal" in2="effect1_dropShadow_384_24805" result="effect2_dropShadow_384_24805"/>
<feColorMatrix in="SourceAlpha" type="matrix" values="0 0 0 0 0 0 0 0 0 0 0 0 0 0 0 0 0 0 127 0" result="hardAlpha"/>
<feOffset dy="20"/>
<feGaussianBlur stdDeviation="6.5"/>
<feColorMatrix type="matrix" values="0 0 0 0 0 0 0 0 0 0 0 0 0 0 0 0 0 0 0.0425185 0"/>
<feBlend mode="normal" in2="effect2_dropShadow_384_24805" result="effect3_dropShadow_384_24805"/>
<feColorMatrix in="SourceAlpha" type="matrix" values="0 0 0 0 0 0 0 0 0 0 0 0 0 0 0 0 0 0 127 0" result="hardAlpha"/>
<feOffset dy="38.5185"/>
<feGaussianBlur stdDeviation="12.7407"/>
<feColorMatrix type="matrix" values="0 0 0 0 0 0 0 0 0 0 0 0 0 0 0 0 0 0 0.035 0"/>
<feBlend mode="normal" in2="effect3_dropShadow_384_24805" result="effect4_dropShadow_384_24805"/>
<feColorMatrix in="SourceAlpha" type="matrix" values="0 0 0 0 0 0 0 0 0 0 0 0 0 0 0 0 0 0 127 0" result="hardAlpha"/>
<feOffset dy="64.8148"/>
<feGaussianBlur stdDeviation="23.4259"/>
<feColorMatrix type="matrix" values="0 0 0 0 0 0 0 0 0 0 0 0 0 0 0 0 0 0 0.0274815 0"/>
<feBlend mode="normal" in2="effect4_dropShadow_384_24805" result="effect5_dropShadow_384_24805"/>
<feColorMatrix in="SourceAlpha" type="matrix" values="0 0 0 0 0 0 0 0 0 0 0 0 0 0 0 0 0 0 127 0" result="hardAlpha"/>
<feOffset dy="100"/>
<feGaussianBlur stdDeviation="40"/>
<feColorMatrix type="matrix" values="0 0 0 0 0 0 0 0 0 0 0 0 0 0 0 0 0 0 0.0168519 0"/>
<feBlend mode="normal" in2="effect5_dropShadow_384_24805" result="effect6_dropShadow_384_24805"/>
<feBlend mode="normal" in="SourceGraphic" in2="effect6_dropShadow_384_24805" result="shape"/>
</filter>
</defs>
</svg>
