<svg width="495" height="512" viewBox="0 0 495 512" fill="none" xmlns="http://www.w3.org/2000/svg">
<path d="M418.665 51.0521C418.665 79.2484 395.809 102.11 367.613 102.11C339.416 102.11 316.555 79.2484 316.555 51.0521C316.555 22.8559 339.416 0 367.613 0C395.809 0 418.665 22.8559 418.665 51.0521Z" fill="#FFD7D7"/>
<path d="M250.18 447.257C250.18 483.015 279.165 512 314.922 512C350.687 512 379.672 483.015 379.672 447.257C379.672 411.493 350.687 382.507 314.922 382.507C279.165 382.507 250.18 411.493 250.18 447.257Z" fill="#FFF8D9"/>
<path d="M292.205 281.694V458.383C292.205 473.394 280.03 485.569 265.008 485.569H28.1971C13.1748 485.569 1 473.394 1 458.383V281.694C1 266.683 13.1748 254.497 28.1971 254.497H226.956L249.327 232.603C251.279 230.692 254.568 232.075 254.568 234.807V254.497H265.008C280.03 254.497 292.205 266.683 292.205 281.694Z" fill="white" stroke="#141831" stroke-miterlimit="10" stroke-linecap="round" stroke-linejoin="round"/>
<path d="M161.411 285.778C161.411 302.938 147.506 316.844 130.351 316.844C113.197 316.844 99.291 302.938 99.291 285.778C99.291 268.624 113.197 254.718 130.351 254.718C147.506 254.718 161.411 268.624 161.411 285.778Z" fill="#141831"/>
<path d="M166.476 251.167C166.476 264.135 155.967 274.644 143.002 274.644C130.038 274.644 119.529 264.135 119.529 251.167C119.529 238.203 130.038 227.694 143.002 227.694C155.967 227.694 166.476 238.203 166.476 251.167Z" fill="#141831"/>
<path d="M205.309 244.733C205.309 260.773 192.311 273.772 176.276 273.772C160.24 273.772 147.242 260.773 147.242 244.733C147.242 228.698 160.24 215.7 176.276 215.7C192.311 215.7 205.309 228.698 205.309 244.733Z" fill="#141831"/>
<path d="M330.565 433.634C319.805 444.413 303.834 449.952 287.096 445.954L226.637 433.485L225.946 437.511L217.746 485.5H26.3008L41.7868 411.862C43.2346 373.717 80.9033 336.693 136.963 330.799C154.494 328.95 173.81 330.146 194.377 335.311C199.364 336.562 204.436 338.057 209.573 339.785C223.798 344.586 273.319 371.635 273.319 371.635L264.811 323.841C263.839 318.433 267.071 313.147 272.329 311.559L307.7 300.808C313.603 299.015 319.796 302.48 321.356 308.448L343.146 391.949C346.387 408.136 340.877 423.295 330.565 433.634Z" fill="#FF8E2D"/>
<path d="M330.565 433.634C319.805 444.413 303.834 449.952 287.096 445.954L226.637 433.485L225.946 437.511C226.217 430.767 228.748 417.738 228.748 417.738C228.748 417.738 236.267 422.305 238.92 423.706C242.357 425.527 246.093 426.77 249.82 427.834C275.953 435.316 303.638 437.268 330.565 433.634ZM185.242 474.273C135.632 474.273 92.1752 447.933 68.0877 408.471H42.0221C41.9156 409.6 41.8299 410.731 41.7868 411.863L26.3008 485.5H217.746L220.445 469.715C209.209 472.686 197.412 474.273 185.242 474.273Z" fill="#F27619"/>
<path d="M296.098 279.347C295.173 270.685 293.341 262.773 289.775 263.455C285.062 264.356 286.488 277.095 286.488 277.095C285.236 267.638 283.091 259.001 279.532 259.723C274.829 260.677 276.747 277.265 276.747 277.265C270.923 265.761 266.819 269.281 267.438 273.631C267.956 277.394 269.238 281.776 275.57 292.009C275.57 292.009 263.711 282.857 261.046 288.531C258.204 294.583 276.757 310.126 276.757 310.126L306.065 301.42C306.065 301.42 306.227 265.385 299.129 266.742C294.772 267.575 296.098 279.347 296.098 279.347Z" fill="#FFAAAA" stroke="#141831" stroke-miterlimit="10" stroke-linecap="round" stroke-linejoin="round"/>
<path d="M275.571 292.01C275.571 292.01 280.768 293.829 282.342 300.001M217.741 485.499L226.639 433.485L287.104 445.947C319.902 453.783 349.767 425.005 343.155 391.945L321.358 308.447C319.804 302.475 313.61 299.009 307.707 300.805L272.336 311.553C267.074 313.146 263.841 318.427 264.812 323.835L273.327 371.634C273.327 371.634 223.798 344.583 209.576 339.785C115.651 308.093 43.8128 358.895 41.7932 411.858L26.3047 485.499H217.741Z" stroke="#141831" stroke-miterlimit="10" stroke-linecap="round" stroke-linejoin="round"/>
<path d="M265.83 329.556L322.814 314.025L321.356 308.442C319.807 302.48 313.609 299.009 307.709 300.803L272.333 311.55C267.077 313.145 263.842 318.428 264.812 323.838L265.83 329.556Z" fill="white" stroke="#141831" stroke-miterlimit="10" stroke-linecap="round" stroke-linejoin="round"/>
<path d="M43.0781 401.467C43.4085 423.564 43.506 463.466 43.5188 485.499H106.718C107.863 461.012 110.429 410.363 111.306 385.91" fill="#FF8E2D"/>
<path d="M43.0781 401.467C43.4085 423.564 43.506 463.466 43.5188 485.499H106.718C107.863 461.012 110.429 410.363 111.306 385.91" stroke="#141831" stroke-miterlimit="10" stroke-linecap="round" stroke-linejoin="round"/>
<path d="M226.641 433.489L230.85 407.454" stroke="#141831" stroke-miterlimit="10" stroke-linecap="round" stroke-linejoin="round"/>
<path d="M273.328 371.629L283.293 378.456" stroke="#141831" stroke-miterlimit="10" stroke-linecap="round" stroke-linejoin="round"/>
<path d="M199.562 290.872C202.38 294.554 207.642 295.267 211.324 292.45C215.006 289.632 215.708 284.357 212.89 280.674C210.073 276.992 204.809 276.304 201.126 279.122" fill="#FFAAAA"/>
<path d="M199.562 290.872C202.38 294.554 207.642 295.267 211.324 292.45C215.006 289.632 215.708 284.357 212.89 280.674C210.073 276.992 204.809 276.304 201.126 279.122" stroke="#141831" stroke-miterlimit="10" stroke-linecap="round" stroke-linejoin="round"/>
<path d="M133.836 257.344C131.513 260.769 129.785 264.415 128.63 268.169C123.508 284.779 129.509 303.47 144.649 313.739C163.203 326.323 188.461 321.481 201.045 302.926C207.067 294.046 209.093 283.614 207.522 273.772C205.847 263.082 199.906 253.092 190.232 246.53C189.744 246.2 189.237 245.873 188.746 245.573C186.574 244.233 184.318 243.116 182.018 242.235C164.789 235.583 144.643 241.409 133.836 257.344Z" fill="#FFAAAA"/>
<path d="M133.828 257.343C131.512 260.758 129.788 264.422 128.636 268.169C123.511 284.788 129.508 303.47 144.653 313.741C158.052 322.829 174.956 322.819 188.043 315.139C176.547 318.874 163.515 317.439 152.737 310.128C137.591 299.856 131.594 281.174 136.719 264.556C137.872 260.808 139.6 257.166 141.925 253.738C145.434 248.564 149.931 244.459 155 241.502C146.653 244.157 139.123 249.536 133.828 257.343Z" fill="#F99191"/>
<path d="M133.836 257.344C131.513 260.769 129.785 264.415 128.63 268.169C123.508 284.779 129.509 303.47 144.649 313.739C163.203 326.323 188.461 321.481 201.045 302.926C207.067 294.046 209.093 283.614 207.522 273.772C205.847 263.082 199.906 253.092 190.232 246.53C189.744 246.2 189.237 245.873 188.746 245.573C186.574 244.233 184.318 243.116 182.018 242.235C164.789 235.583 144.643 241.409 133.836 257.344Z" stroke="#141831" stroke-miterlimit="10" stroke-linecap="round" stroke-linejoin="round"/>
<path d="M133.835 257.344C131.512 260.769 129.784 264.415 128.629 268.169C146.882 279.439 170.904 274.537 183.242 256.81C183.346 256.681 183.446 256.534 183.538 256.398C185.861 252.972 187.589 249.326 188.744 245.573C186.573 244.233 184.317 243.116 182.016 242.235C164.787 235.583 144.642 241.409 133.835 257.344Z" fill="#141831"/>
<path d="M182.016 242.235C181.031 247.13 181.481 252.204 183.242 256.81C185.096 261.693 188.414 266.079 193.063 269.233C197.498 272.241 202.526 273.714 207.52 273.772C205.845 263.082 199.904 253.092 190.23 246.531C189.743 246.2 189.236 245.873 188.744 245.573C186.573 244.233 184.317 243.116 182.016 242.235Z" fill="#141831"/>
<path d="M131.031 282.257C127.636 285.416 122.329 285.238 119.171 281.843C116.012 278.449 116.204 273.13 119.599 269.971C122.993 266.813 128.298 267.017 131.457 270.411" fill="#F99191"/>
<path d="M131.031 282.257C127.636 285.416 122.329 285.238 119.171 281.843C116.012 278.449 116.204 273.13 119.599 269.971C122.993 266.813 128.298 267.017 131.457 270.411" stroke="#141831" stroke-miterlimit="10" stroke-linecap="round" stroke-linejoin="round"/>
<path d="M189.674 282.041C189.674 282.041 184.886 279.155 180.808 281.871M161.845 283.948C161.617 291.069 165.78 297.391 171.159 298.09C176.525 298.786 181.054 293.593 181.282 286.472C181.509 279.351 177.347 273.03 171.982 272.333C166.602 271.634 162.072 276.827 161.845 283.948ZM207.738 288.394C206.14 295.337 200.501 300.386 195.121 299.688C189.756 298.991 186.703 292.813 188.301 285.87C189.9 278.927 195.539 273.878 200.904 274.575C206.284 275.274 209.337 281.451 207.738 288.394Z" stroke="#141831" stroke-miterlimit="10" stroke-linecap="round" stroke-linejoin="round"/>
<path d="M162.485 279.914L130.723 269.375" stroke="#141831" stroke-miterlimit="10" stroke-linecap="round" stroke-linejoin="round"/>
<path d="M176.941 285.087C176.941 285.218 176.93 285.338 176.919 285.469C176.669 287.4 174.88 288.764 172.938 288.513L172.436 288.447L169.392 288.055C167.45 287.804 166.076 286.025 166.326 284.094C166.49 282.84 167.276 281.836 168.345 281.334C168.934 281.051 169.61 280.942 170.298 281.029L172.807 281.356L173.854 281.487C174.41 281.563 174.923 281.76 175.359 282.065C175.687 282.273 175.97 282.534 176.21 282.84C176.69 283.462 176.963 284.258 176.941 285.087ZM203.342 287.444C203.331 287.574 203.331 287.695 203.309 287.825C203.08 289.582 201.608 290.869 199.895 290.902C199.709 290.902 199.524 290.891 199.338 290.869L195.782 290.411C193.84 290.16 192.465 288.382 192.716 286.451C192.902 285.087 193.829 284.007 195.029 283.571C195.542 283.385 196.109 283.309 196.698 283.385L198.215 283.582L200.244 283.844C200.833 283.92 201.379 284.138 201.826 284.455C202.12 284.662 202.382 284.924 202.6 285.196C203.091 285.818 203.364 286.615 203.342 287.444Z" fill="white" stroke="#141831" stroke-miterlimit="10" stroke-linecap="round" stroke-linejoin="round"/>
<path d="M176.875 305.803C177.191 306.414 177.524 306.918 177.867 307.325C179.655 309.458 181.7 309.138 183.448 308.081C183.714 307.928 183.971 307.751 184.222 307.557C185.197 306.828 186.078 305.777 186.707 304.922C187.146 304.326 186.725 303.489 185.986 303.469C182.715 303.381 179.668 302.64 176.853 301.221C176.13 300.857 175.317 301.509 175.536 302.288C175.942 303.727 176.389 304.882 176.875 305.803Z" fill="#141831"/>
<path d="M176.875 305.804C177.192 306.414 177.524 306.918 177.867 307.326C179.655 309.458 181.701 309.138 183.448 308.082C183.131 307.471 182.799 306.967 182.456 306.559C180.665 304.419 178.627 304.736 176.875 305.804Z" fill="#FE4B5F"/>
<path d="M194.379 335.315C188.243 346.286 176.3 353.927 163.698 353.927C155.368 353.927 147.736 350.461 142.746 344.422C139.571 340.577 137.6 335.858 136.969 330.8C140.144 330.469 143.377 330.237 146.658 330.101C158.533 329.635 171.135 330.537 184.301 333.081C187.621 333.722 190.981 334.46 194.379 335.315Z" fill="white" stroke="#141831" stroke-miterlimit="10" stroke-linecap="round" stroke-linejoin="round"/>
<path d="M184.299 333.081C179.531 339.703 171.716 344.218 163.696 344.218C154.53 344.218 147.87 338.305 146.656 330.101C158.531 329.635 171.133 330.537 184.299 333.081Z" fill="#FFAAAA" stroke="#141831" stroke-miterlimit="10" stroke-linecap="round" stroke-linejoin="round"/>
<path d="M176.945 285.087C176.945 285.218 176.934 285.338 176.923 285.469C176.672 287.4 174.883 288.763 172.941 288.513L172.439 288.447C171.916 287.476 171.621 286.374 171.621 285.207C171.621 283.778 172.057 282.458 172.81 281.356L173.857 281.487C174.414 281.563 174.927 281.76 175.363 282.065C175.69 282.272 175.974 282.534 176.214 282.84C176.694 283.461 176.967 284.258 176.945 285.087ZM203.346 287.443C203.335 287.574 203.335 287.694 203.313 287.825C203.084 289.582 201.611 290.869 199.898 290.902C198.6 289.658 197.793 287.902 197.793 285.96C197.793 285.12 197.945 284.323 198.218 283.582L200.247 283.843C200.837 283.92 201.382 284.138 201.829 284.454C202.124 284.662 202.386 284.923 202.604 285.196C203.095 285.818 203.367 286.614 203.346 287.443Z" fill="#141831"/>
<path d="M386.477 282.445L389.599 283.296" stroke="#141831" stroke-miterlimit="10" stroke-linecap="round" stroke-linejoin="round"/>
<path d="M482.271 85.4206V265.742C482.271 269.135 481.017 272.244 478.933 274.612L478.922 274.623C476.467 277.437 472.845 279.226 468.787 279.226H326.19C318.739 279.226 312.706 273.194 312.706 265.742V132.32H301.447C298.884 132.32 297.346 129.473 298.753 127.324L312.706 106.05V85.4206C312.706 77.9695 318.739 71.9365 326.19 71.9365H468.787C476.238 71.9365 482.271 77.9695 482.271 85.4206Z" fill="white" stroke="#141831" stroke-miterlimit="10" stroke-linecap="round" stroke-linejoin="round"/>
<path d="M398.027 171.255L392.856 213.922L376.906 231.104L351.269 258.727C341.145 269.658 323.221 267.181 316.425 253.905L287.831 200.492C287.024 198.965 286.98 197.219 287.602 195.703L283.86 191.666C282.682 190.652 282.736 188.797 283.991 187.859L300.06 175.771C301.446 174.735 303.442 175.422 303.89 177.102L305.133 181.826C306.333 181.542 307.599 181.673 308.712 182.197C309.661 182.623 310.512 183.321 311.112 184.281L334.556 221.482L354.869 195.332C364.121 183.419 377.375 175.269 392.19 172.389L398.027 171.255Z" fill="#FE4B5F"/>
<path d="M376.906 231.104L351.269 258.726C341.145 269.658 323.221 267.181 316.425 253.904L287.831 200.492C287.024 198.965 286.98 197.219 287.602 195.703L283.86 191.666C282.682 190.652 282.736 188.797 283.991 187.859L300.06 175.771C301.446 174.735 303.442 175.422 303.89 177.102L305.133 181.826C306.333 181.542 307.599 181.673 308.712 182.197C308.221 183.07 307.621 183.888 306.933 184.619C304.206 187.532 300.584 189.637 298.511 193.041C295.184 198.517 296.842 205.619 299.308 211.532C303.671 222.016 310.479 231.715 319.894 238.064C329.309 244.413 341.494 247.075 352.338 243.704C360.313 241.228 366.99 235.795 374.495 232.118C375.259 231.747 376.066 231.398 376.906 231.104Z" fill="#E21B39"/>
<path d="M392.855 213.918L351.27 258.729C341.142 269.657 323.224 267.182 316.432 253.908L287.833 200.492C287.022 198.968 286.978 197.216 287.609 195.708L283.866 191.663C282.685 190.648 282.742 188.792 283.989 187.855L300.058 175.773C301.448 174.738 303.447 175.425 303.896 177.097L305.131 181.831C307.363 181.304 309.808 182.196 311.118 184.277L334.561 221.486L354.867 195.331C364.117 183.416 377.379 175.264 392.188 172.392L398.025 171.26" stroke="#141831" stroke-miterlimit="10" stroke-linecap="round" stroke-linejoin="round"/>
<path d="M305.129 181.831L296.98 187.86" stroke="#141831" stroke-miterlimit="10" stroke-linecap="round" stroke-linejoin="round"/>
<path d="M478.932 274.612L478.921 274.623C476.466 277.437 472.845 279.227 468.786 279.227H360.401C359.059 277.307 358.241 274.765 358.023 271.437C357.685 266.157 357.619 262.393 357.739 257.833C357.75 257.451 357.772 257.059 357.783 256.666C357.783 256.491 357.794 256.306 357.794 256.131C357.837 254.92 357.892 253.655 357.957 252.28C357.979 251.898 358.001 251.517 358.012 251.124C358.023 251.048 358.023 250.971 358.023 250.884C358.307 244.949 358.754 237.094 359.277 224.876C359.31 224.156 359.343 223.425 359.365 222.672C359.397 221.93 359.43 221.167 359.463 220.381C359.463 220.305 359.474 220.228 359.474 220.152C359.485 219.836 359.496 219.519 359.507 219.192C359.507 219.061 359.517 218.93 359.528 218.788C359.539 218.33 359.561 217.872 359.583 217.403C359.594 216.934 359.616 216.454 359.637 215.974C359.725 213.574 359.812 211.043 359.91 208.348C361.078 174.584 402.991 160.467 447.513 177.605C447.916 177.758 448.32 177.933 448.724 178.118C449.455 178.445 450.164 178.827 450.862 179.242C451.167 179.427 451.473 179.613 451.778 179.82C452.095 180.027 452.4 180.235 452.706 180.464C452.771 180.496 452.837 180.551 452.891 180.605C453.109 180.758 453.328 180.922 453.535 181.096C453.677 181.195 453.808 181.304 453.949 181.435C454.211 181.642 454.462 181.86 454.713 182.078C468.535 194.362 474.623 223.73 477.252 249.422C477.317 250.011 477.372 250.589 477.426 251.168C477.481 251.757 477.536 252.335 477.59 252.902C477.645 253.48 477.699 254.059 477.743 254.626C477.906 256.404 478.037 258.16 478.157 259.873C478.321 262.022 478.452 264.117 478.561 266.146C478.561 266.299 478.572 266.452 478.583 266.604C478.659 268.012 478.736 269.386 478.79 270.717C478.845 272.048 478.899 273.346 478.932 274.612Z" fill="#FE4B5F"/>
<path d="M478.921 274.623C476.466 277.437 472.845 279.227 468.786 279.227H360.401C359.059 277.307 358.241 274.765 358.023 271.437C357.685 266.157 357.619 262.393 357.739 257.833C357.75 257.451 357.772 257.059 357.783 256.666C357.783 256.491 357.794 256.306 357.794 256.131C357.837 254.931 357.892 253.655 357.957 252.28C357.979 251.898 358.001 251.517 358.012 251.124C358.023 251.048 358.023 250.971 358.023 250.884C358.317 244.993 358.765 237.138 359.277 224.876C359.31 224.156 359.343 223.425 359.365 222.672C359.397 221.93 359.43 221.167 359.463 220.381C359.463 220.305 359.474 220.228 359.474 220.152C359.496 219.705 359.507 219.247 359.528 218.788C359.539 218.33 359.561 217.872 359.583 217.403C359.594 216.934 359.616 216.454 359.637 215.974C359.725 213.574 359.812 211.043 359.91 208.348C361.078 174.584 402.991 160.467 447.513 177.605C447.916 177.758 448.32 177.933 448.724 178.118C449.455 178.445 450.164 178.827 450.862 179.242C451.167 179.427 451.473 179.613 451.778 179.82C452.095 180.027 452.4 180.235 452.706 180.464C452.771 180.496 452.837 180.551 452.891 180.605C453.109 180.758 453.328 180.922 453.535 181.096C453.677 181.195 453.808 181.304 453.949 181.435C454.211 181.642 454.462 181.86 454.713 182.078C468.568 194.319 474.645 223.621 477.252 249.422C477.317 250.011 477.372 250.589 477.426 251.168C477.481 251.757 477.536 252.335 477.59 252.902C477.645 253.48 477.699 254.059 477.743 254.626C477.906 256.404 478.037 258.16 478.157 259.873C478.31 262.022 478.441 264.117 478.561 266.146C478.561 266.299 478.572 266.452 478.583 266.604C478.725 269.419 478.845 272.103 478.921 274.623Z" stroke="#141831" stroke-miterlimit="10" stroke-linecap="round" stroke-linejoin="round"/>
<path d="M475.865 274.742L416.234 285.487C414.532 285.793 412.852 285.291 411.62 284.233L406.612 286.546C405.281 287.353 403.536 286.731 403.023 285.258L396.488 266.243C395.932 264.607 397.197 262.916 398.921 263.003L403.808 263.287C403.907 262.109 404.376 260.985 405.15 260.101C405.161 260.09 405.161 260.09 405.161 260.101C405.86 259.272 406.83 258.64 407.976 258.345L450.599 247.501L420.74 203.623L461.356 189.714L481.724 226.151L491.182 243.072C498.459 256.076 490.582 272.363 475.865 274.742Z" fill="#FE4B5F"/>
<path d="M475.865 274.741L416.234 285.487C414.532 285.793 412.852 285.291 411.62 284.233L406.612 286.545C405.281 287.353 403.536 286.731 403.023 285.258L396.488 266.243C395.932 264.607 397.197 262.916 398.921 263.003L403.808 263.287C403.907 262.108 404.376 260.985 405.15 260.101C405.161 260.09 405.161 260.09 405.161 260.101C408.401 262.097 409.961 266.112 412.852 268.665C415.831 271.283 419.976 272.068 423.915 272.527C436.635 273.989 449.639 273.007 461.988 269.658C469.865 267.519 478.178 263.788 481.582 256.381C484.647 249.737 482.924 242.024 481.985 234.769C481.625 231.976 481.462 229.009 481.724 226.151L491.182 243.071C498.459 256.075 490.582 272.363 475.865 274.741Z" fill="#E21B39"/>
<path d="M461.357 189.711L491.181 243.077C498.458 256.078 490.585 272.363 475.864 274.736L416.236 285.492C414.536 285.794 412.856 285.296 411.616 284.231L406.614 286.547C405.286 287.358 403.537 286.732 403.029 285.257L396.484 266.247C395.927 264.607 397.197 262.916 398.926 263.004L403.811 263.288C403.996 261.001 405.598 258.95 407.982 258.345L450.602 247.501L420.74 203.621" stroke="#141831" stroke-miterlimit="10" stroke-linecap="round" stroke-linejoin="round"/>
<path d="M403.812 263.288L407.038 272.897" stroke="#141831" stroke-miterlimit="10" stroke-linecap="round" stroke-linejoin="round"/>
<path d="M450.602 247.502L455.743 253.957" stroke="#141831" stroke-miterlimit="10" stroke-linecap="round" stroke-linejoin="round"/>
<path d="M283.872 182.644C283.872 182.644 275.163 183.37 270.363 181.076C265.124 178.572 259.441 172.732 261.727 170.85C264.013 168.968 269.957 177.325 277.406 174.426" fill="#FFAAAA"/>
<path d="M283.872 182.644C283.872 182.644 275.163 183.37 270.363 181.076C265.124 178.572 259.441 172.732 261.727 170.85C264.013 168.968 269.957 177.325 277.406 174.426" stroke="#141831" stroke-miterlimit="10" stroke-linecap="round" stroke-linejoin="round"/>
<path d="M284.694 183.402C284.694 183.402 276.069 181.991 271.971 178.6C267.497 174.899 263.402 167.853 266.077 166.583C268.751 165.313 272.488 174.864 280.418 173.861" fill="#FFAAAA"/>
<path d="M284.694 183.402C284.694 183.402 276.069 181.991 271.971 178.6C267.497 174.899 263.402 167.853 266.077 166.583C268.751 165.313 272.488 174.864 280.418 173.861" stroke="#141831" stroke-miterlimit="10" stroke-linecap="round" stroke-linejoin="round"/>
<path d="M276.933 171.97L284.825 171.264C284.825 171.264 275.923 161.77 281.082 160.813C287.693 159.588 295.598 174.169 295.598 174.169L297.65 177.583L286.359 186.24C286.359 186.24 279.526 183.195 275.788 179.411C271.708 175.279 268.34 167.859 271.128 166.863C273.916 165.867 276.677 175.744 284.668 175.541C281.511 175.582 279.036 174.172 276.933 171.97Z" fill="#FFAAAA"/>
<path d="M276.933 171.97L284.825 171.264C284.825 171.264 275.923 161.77 281.082 160.813C287.693 159.588 295.598 174.169 295.598 174.169L297.65 177.583L286.359 186.24C286.359 186.24 279.526 183.195 275.788 179.411C271.708 175.279 268.34 167.859 271.128 166.863C273.916 165.867 276.677 175.744 284.668 175.541C281.511 175.582 279.036 174.172 276.933 171.97Z" stroke="#141831" stroke-miterlimit="10" stroke-linecap="round" stroke-linejoin="round"/>
<path d="M284.824 171.263L287.392 173.49" stroke="#141831" stroke-miterlimit="10" stroke-linecap="round" stroke-linejoin="round"/>
<path d="M397.134 268.137C397.134 268.137 383.806 260.177 380.602 264.332C378.019 267.681 386.474 271.577 386.474 271.577C386.474 271.577 379.726 272.619 375.164 272.397C371.508 272.221 370.866 277.165 378.768 277.255C376.994 277.561 375.264 277.759 373.904 277.692C370.916 277.549 370.354 280.723 374.473 282.03C372.111 282.434 372.075 285.341 376.256 286.441C373.705 287.742 374.376 292.179 388.038 289.605C392.628 288.74 396.569 288.013 402.538 283.73L397.134 268.137Z" fill="#FFAAAA" stroke="#141831" stroke-miterlimit="10" stroke-linecap="round" stroke-linejoin="round"/>
<path d="M378.77 277.255C378.77 277.255 379.969 277.292 381.823 277.094L378.77 277.255ZM374.402 282.087C374.402 282.087 377.47 282.183 381.383 281.255L374.402 282.087ZM376.182 286.496C376.182 286.496 379.25 286.591 383.163 285.664L376.182 286.496Z" fill="white"/>
<path d="M378.77 277.255C378.77 277.255 379.969 277.292 381.823 277.094M374.402 282.087C374.402 282.087 377.47 282.183 381.383 281.255M376.182 286.496C376.182 286.496 379.25 286.591 383.163 285.664" stroke="#141831" stroke-miterlimit="10" stroke-linecap="round" stroke-linejoin="round"/>
<path d="M437.732 151.735C437.594 152.069 437.452 152.392 437.301 152.712C431.891 164.356 418.21 169.775 406.224 164.83C393.913 159.751 388.046 145.642 393.125 133.331C395.246 128.19 398.932 124.178 403.417 121.614C405.129 120.626 406.956 119.852 408.863 119.316C413.894 117.89 419.424 118.076 424.628 120.224C424.716 120.26 424.811 120.299 424.896 120.343C437.029 125.517 442.779 139.503 437.732 151.735Z" fill="#FFAAAA"/>
<path d="M437.727 151.738C437.596 152.065 437.454 152.392 437.301 152.708C431.89 164.36 418.21 169.771 406.22 164.829C402.904 163.465 400.057 161.436 397.766 158.96C399.358 160.16 401.126 161.174 403.057 161.971C415.035 166.913 428.716 161.491 434.127 149.85C434.279 149.523 434.421 149.207 434.563 148.868C438.261 139.89 436.145 129.963 429.97 123.275C438.523 129.722 442.014 141.363 437.727 151.738Z" fill="#F99191"/>
<path d="M437.732 151.735C437.594 152.069 437.452 152.392 437.301 152.712C431.891 164.356 418.21 169.775 406.224 164.83C393.913 159.751 388.046 145.642 393.125 133.331C395.246 128.19 398.932 124.178 403.417 121.614C405.129 120.626 406.956 119.852 408.863 119.316C413.894 117.89 419.424 118.076 424.628 120.224C424.716 120.26 424.811 120.299 424.896 120.343C437.029 125.517 442.779 139.503 437.732 151.735Z" stroke="#141831" stroke-miterlimit="10" stroke-linecap="round" stroke-linejoin="round"/>
<path d="M437.733 151.735C437.595 152.069 437.453 152.392 437.302 152.712C434.513 152.362 431.731 151.633 429.009 150.51C417.382 145.713 410.013 134.952 408.97 123.235C408.853 121.938 408.816 120.628 408.864 119.316C413.895 117.89 419.425 118.076 424.629 120.224C424.717 120.26 424.812 120.299 424.897 120.343C437.03 125.517 442.78 139.503 437.733 151.735Z" fill="#141831"/>
<path d="M424.897 120.343C420.169 123.068 414.547 124.166 408.971 123.235C407.19 122.947 405.412 122.446 403.677 121.731C403.59 121.694 403.502 121.658 403.418 121.614C405.13 120.626 406.957 119.852 408.864 119.316C413.895 117.89 419.425 118.076 424.63 120.224C424.717 120.26 424.813 120.299 424.897 120.343ZM457.168 132.455C454.509 138.9 447.124 141.971 440.678 139.312C434.232 136.652 431.161 129.268 433.821 122.822C436.48 116.376 443.865 113.305 450.311 115.964C456.757 118.624 459.828 126.008 457.168 132.455Z" fill="#141831"/>
<path d="M392.16 148.898C393.529 150.186 395.275 150.98 397.527 151.112" stroke="#141831" stroke-miterlimit="10" stroke-linecap="round" stroke-linejoin="round"/>
<path d="M410.772 142.982C410.106 144.598 408.259 145.372 406.643 144.706L402.831 143.133C401.216 142.466 400.444 140.612 401.111 138.996C401.443 138.192 402.071 137.595 402.821 137.289C403.566 136.973 404.433 136.949 405.245 137.283L409.057 138.856C410.672 139.523 411.436 141.374 410.772 142.982Z" fill="white" stroke="#141831" stroke-miterlimit="10" stroke-linecap="round" stroke-linejoin="round"/>
<path d="M406.832 141.179C406.352 142.341 405.526 143.239 404.518 143.829L402.831 143.133C401.216 142.466 400.444 140.612 401.111 138.996C401.443 138.192 402.071 137.595 402.821 137.289C403.566 136.973 404.433 136.949 405.245 137.283L407.155 138.071C407.344 139.081 407.255 140.153 406.832 141.179Z" fill="#141831"/>
<path d="M431.309 157.884C431.76 160.54 434.289 162.335 436.946 161.883C439.61 161.43 441.397 158.902 440.946 156.245C440.493 153.581 437.972 151.793 435.308 152.246" fill="#F99191"/>
<path d="M431.309 157.884C431.76 160.54 434.289 162.335 436.946 161.883C439.61 161.43 441.397 158.902 440.946 156.245C440.493 153.581 437.972 151.793 435.308 152.246" stroke="#141831" stroke-miterlimit="10" stroke-linecap="round" stroke-linejoin="round"/>
<path d="M433.667 160.028C433.667 161.673 432.34 163.001 430.703 163.001C429.066 163.001 427.73 161.673 427.73 160.028C427.73 158.391 429.066 157.064 430.703 157.064C432.34 157.064 433.667 158.391 433.667 160.028Z" fill="#FE4B5F"/>
<path d="M206.625 182.26C196.128 192.332 183.298 200.297 168.587 205.209C126.715 219.222 82.132 204.404 56.3906 171.491C67.0778 151.608 85.6706 136.613 107.968 130.719C110.998 129.914 114.099 129.275 117.258 128.825C121.129 128.269 125.082 127.985 129.105 127.985C134.763 127.985 140.29 128.553 145.627 129.642C148.752 130.281 151.805 131.086 154.788 132.068C178.836 139.938 197.997 158.567 206.625 182.26Z" fill="#5F64FF"/>
<path d="M203.295 174.415C193.146 158.542 177.705 146.367 159.455 140.394C156.474 139.415 153.424 138.607 150.295 137.97C144.959 136.878 139.429 136.309 133.774 136.309C129.757 136.309 125.798 136.593 121.929 137.151C118.766 137.606 115.671 138.243 112.645 139.04C90.9917 144.763 72.8435 159.065 62.0228 178.09C60.0658 175.985 58.1769 173.777 56.3906 171.49C67.0747 151.613 85.6668 136.616 107.968 130.722C110.995 129.914 114.101 129.277 117.253 128.822C121.121 128.264 125.081 127.98 129.109 127.98C134.764 127.98 140.294 128.549 145.63 129.641C148.748 130.278 151.808 131.086 154.79 132.065C176.112 139.051 193.589 154.48 203.295 174.415Z" fill="#2330D8"/>
<path d="M125.941 145.469V159.096C125.941 162.17 128.434 164.663 131.508 164.663C134.582 164.663 137.075 162.17 137.075 159.096V145.469H125.941Z" fill="white" stroke="#141831" stroke-miterlimit="10" stroke-linecap="round" stroke-linejoin="round"/>
<path d="M40.0875 141.128C57.8753 194.305 115.412 222.998 168.59 205.21C186.655 199.167 201.899 188.532 213.453 175.033L240.515 178.57L227.038 154.653C238.802 131.309 241.62 103.46 232.672 76.708C214.884 23.5311 157.347 -5.1623 104.17 12.6255C50.9925 30.4134 22.2997 87.9509 40.0875 141.128Z" stroke="#141831" stroke-miterlimit="10" stroke-linecap="round" stroke-linejoin="round"/>
<path d="M240.52 178.568L213.452 175.029C211.299 177.538 209.026 179.953 206.624 182.26C196.126 192.332 183.297 200.297 168.586 205.209C126.713 219.222 82.1304 204.404 56.389 171.491C49.4418 162.614 43.8674 152.424 40.0921 141.122C22.3039 87.9466 50.9921 30.4161 104.167 12.6282C157.342 -5.15998 214.885 23.5283 232.673 76.7033C241.62 103.463 238.803 131.31 227.039 154.649L240.52 178.568Z" stroke="#141831" stroke-miterlimit="10" stroke-linecap="round" stroke-linejoin="round"/>
<path d="M116.706 116.393C128.983 108.805 132.784 92.7022 125.197 80.4252C117.609 68.1483 101.506 64.3467 89.2293 71.9341C76.9524 79.5216 73.1508 95.6248 80.7382 107.902C88.3256 120.179 104.429 123.98 116.706 116.393Z" fill="#141831"/>
<path d="M168.121 115.053C178.247 108.795 181.382 95.5138 175.124 85.3881C168.866 75.2624 155.585 72.127 145.459 78.3849C135.333 84.6428 132.198 97.9243 138.456 108.05C144.714 118.176 157.995 121.311 168.121 115.053Z" fill="#141831"/>
<path d="M162.398 82.9943C164.654 80.75 168.302 80.75 170.558 82.9943C172.802 85.2505 172.79 88.8978 170.546 91.1421C168.302 93.3864 164.654 93.3984 162.398 91.1535" fill="#FFAAAA"/>
<path d="M162.398 82.9943C164.654 80.75 168.302 80.75 170.558 82.9943C172.802 85.2505 172.79 88.8978 170.546 91.1421C168.302 93.3864 164.654 93.3984 162.398 91.1535" stroke="#141831" stroke-miterlimit="10" stroke-linecap="round" stroke-linejoin="round"/>
<path d="M166.568 83.0955C166.568 101.88 151.364 117.083 132.601 117.083C113.838 117.083 98.6543 101.88 98.6543 83.0955C98.6543 80.9768 98.8394 78.8984 99.2304 76.8832C102.131 61.1023 115.957 49.1699 132.601 49.1699C133.033 49.1699 133.486 49.1699 133.918 49.19C139.287 49.396 144.349 50.8566 148.792 53.2636C156.734 57.5642 162.762 64.9498 165.272 73.7971C166.115 76.7385 166.568 79.8658 166.568 83.0955Z" fill="#FFAAAA"/>
<path d="M159.54 103.794C153.338 111.876 143.58 117.084 132.601 117.084C113.84 117.084 98.6582 101.879 98.6582 83.0934C98.6582 80.9742 98.8378 78.9029 99.2329 76.8796C100.801 68.3309 105.579 60.9198 112.271 55.9272C109.075 60.0818 106.836 64.9904 105.854 70.3422C105.459 72.3539 105.279 74.4371 105.279 76.5563C105.279 95.3415 120.461 110.547 139.222 110.547C146.837 110.547 153.877 108.032 159.54 103.794Z" fill="#F99191"/>
<path d="M166.568 83.0955C166.568 101.88 151.364 117.083 132.601 117.083C113.838 117.083 98.6543 101.88 98.6543 83.0955C98.6543 80.9768 98.8394 78.8984 99.2304 76.8832C102.131 61.1023 115.957 49.1699 132.601 49.1699C133.033 49.1699 133.486 49.1699 133.918 49.19C139.287 49.396 144.349 50.8566 148.792 53.2636C156.734 57.5642 162.762 64.9498 165.272 73.7971C166.115 76.7385 166.568 79.8658 166.568 83.0955Z" stroke="#141831" stroke-miterlimit="10" stroke-linecap="round" stroke-linejoin="round"/>
<path d="M165.272 73.797C157.146 73.4876 149.739 70.3192 144.04 65.2993C139.267 61.061 135.708 55.5067 133.918 49.1899C139.288 49.3959 144.349 50.8565 148.793 53.2635C156.734 57.5641 162.762 64.9497 165.272 73.797Z" fill="#141831"/>
<path d="M148.793 53.2636C148.011 57.6254 146.365 61.699 144.04 65.2994C138.032 74.7223 127.458 80.9768 115.422 80.9768C109.558 80.9768 104.024 79.4951 99.2305 76.8832C102.131 61.1023 115.957 49.1699 132.601 49.1699C133.033 49.1699 133.486 49.1699 133.918 49.19C139.287 49.396 144.349 50.8566 148.793 53.2636Z" fill="#141831"/>
<path d="M161.381 89.9169C161.381 92.3609 159.398 94.3434 156.954 94.3434H154.361C154.271 94.3434 154.182 94.3434 154.092 94.3288C151.767 94.1949 149.934 92.2721 149.934 89.9169C149.934 88.6942 150.425 87.5916 151.23 86.7867C152.035 85.9817 153.138 85.4897 154.361 85.4897H156.954C158.951 85.4897 160.636 86.8165 161.202 88.6346C161.321 89.0378 161.381 89.4693 161.381 89.9169Z" fill="white" stroke="#141831" stroke-miterlimit="10" stroke-linecap="round" stroke-linejoin="round"/>
<path d="M161.379 89.9168C161.379 92.3607 159.396 94.3432 156.952 94.3432H154.358C154.269 94.3432 154.179 94.3432 154.09 94.3287C154.105 91.1089 156.728 88.5005 159.948 88.5005C160.38 88.5005 160.797 88.5456 161.2 88.6344C161.319 89.0376 161.379 89.4692 161.379 89.9168Z" fill="#141831"/>
<path d="M137.963 89.7372C137.963 92.1812 135.98 94.1637 133.536 94.1637H130.943C130.853 94.1637 130.764 94.1637 130.674 94.1491C128.349 94.0152 126.516 92.0924 126.516 89.7372C126.516 88.5145 127.007 87.4119 127.812 86.607C128.617 85.802 129.72 85.3101 130.943 85.3101H133.536C135.533 85.3101 137.218 86.6368 137.784 88.4549C137.903 88.8581 137.963 89.2896 137.963 89.7372Z" fill="white" stroke="#141831" stroke-miterlimit="10" stroke-linecap="round" stroke-linejoin="round"/>
<path d="M137.961 89.7371C137.961 92.181 135.978 94.1635 133.534 94.1635H130.94C130.851 94.1635 130.761 94.1635 130.672 94.149C130.687 90.9292 133.31 88.3208 136.53 88.3208C136.962 88.3208 137.379 88.3659 137.782 88.4547C137.901 88.8579 137.961 89.2895 137.961 89.7371ZM139.53 106.581C139.561 106.621 139.592 106.659 139.631 106.699C140.433 107.532 141.446 107.952 142.652 107.952C142.652 107.952 142.652 107.952 142.66 107.952C143.968 107.952 145.066 107.477 145.97 106.769C148.462 104.829 149.52 101.162 149.583 100.952C149.622 100.788 149.559 100.617 149.419 100.523C149.279 100.43 149.1 100.438 148.968 100.539C148.742 100.71 143.454 104.744 138.323 99.9083C138.214 99.8071 138.05 99.776 137.91 99.8303C137.762 99.8927 137.669 100.025 137.669 100.181C137.661 100.36 137.552 104.394 139.53 106.581Z" fill="#141831"/>
<path d="M140.789 105.427C140.812 105.455 140.835 105.484 140.863 105.513C141.452 106.124 142.194 106.432 143.08 106.432C143.08 106.432 143.08 106.432 143.085 106.432C144.045 106.432 144.851 106.084 145.513 105.564C145.49 105.535 145.468 105.507 145.439 105.478C144.851 104.867 144.108 104.559 143.223 104.559C143.223 104.559 143.223 104.559 143.217 104.559C142.257 104.559 141.452 104.907 140.789 105.427Z" fill="#FE4B5F"/>
<path d="M101.835 85.3483C99.5788 83.104 95.9315 83.104 93.6755 85.3483C91.4311 87.6045 91.4428 91.2518 93.6872 93.4961C95.9315 95.7404 99.5788 95.7524 101.835 93.5075" fill="#F99191"/>
<path d="M101.835 85.3483C99.5788 83.104 95.9315 83.104 93.6755 85.3483C91.4311 87.6045 91.4428 91.2518 93.6872 93.4961C95.9315 95.7404 99.5788 95.7524 101.835 93.5075" stroke="#141831" stroke-miterlimit="10" stroke-linecap="round" stroke-linejoin="round"/>
<path d="M206.625 182.26C196.128 192.332 183.298 200.297 168.587 205.209C126.715 219.222 82.132 204.404 56.3906 171.491C70.3087 145.595 97.6478 127.985 129.105 127.985C164.753 127.985 195.11 150.602 206.625 182.26Z" stroke="#141831" stroke-miterlimit="10" stroke-linecap="round" stroke-linejoin="round"/>
<path d="M154.786 132.068C152.467 143.015 142.786 150.897 131.507 150.897C119.731 150.897 109.742 142.281 107.967 130.719C110.997 129.914 114.097 129.275 117.257 128.825C121.127 128.269 125.08 127.985 129.104 127.985C134.761 127.985 140.288 128.553 145.626 129.642C148.75 130.281 151.804 131.086 154.786 132.068Z" fill="white" stroke="#141831" stroke-miterlimit="10" stroke-linecap="round" stroke-linejoin="round"/>
<path d="M145.626 129.642C144.419 136.352 138.561 141.429 131.507 141.429C124.17 141.429 118.122 135.926 117.258 128.825C121.128 128.269 125.081 127.985 129.105 127.985C134.762 127.985 140.289 128.553 145.626 129.642Z" fill="#FFAAAA" stroke="#141831" stroke-miterlimit="10" stroke-linecap="round" stroke-linejoin="round"/>
<path d="M199.623 76.7268L196.669 86.7086C196.416 87.5631 197.22 88.3532 198.07 88.0855L208.311 84.8595C214.203 88.7187 221.34 90.8305 228.992 90.4507C246.391 89.5871 260.63 75.5579 261.728 58.172C263.045 37.3128 245.853 20.118 224.995 21.4303C207.681 22.5197 193.675 36.6437 192.718 53.9657C192.245 62.5254 194.889 70.4565 199.623 76.7268Z" fill="#FF8F9F"/>
<path d="M213.314 59.2292C215.571 59.2292 217.401 57.3994 217.401 55.1422C217.401 52.885 215.571 51.0552 213.314 51.0552C211.056 51.0552 209.227 52.885 209.227 55.1422C209.227 57.3994 211.056 59.2292 213.314 59.2292Z" fill="white"/>
<path d="M227.232 59.2292C229.489 59.2292 231.319 57.3994 231.319 55.1422C231.319 52.885 229.489 51.0552 227.232 51.0552C224.974 51.0552 223.145 52.885 223.145 55.1422C223.145 57.3994 224.974 59.2292 227.232 59.2292Z" fill="white"/>
<path d="M241.146 59.2292C243.403 59.2292 245.233 57.3994 245.233 55.1422C245.233 52.885 243.403 51.0552 241.146 51.0552C238.888 51.0552 237.059 52.885 237.059 55.1422C237.059 57.3994 238.888 59.2292 241.146 59.2292Z" fill="white"/>
</svg>
