<svg width="585" height="354" viewBox="0 0 585 354" fill="none" xmlns="http://www.w3.org/2000/svg">
<path d="M218.144 2.96658H217.297V0H220.263V0.847594H218.144V2.96658Z" fill="#30A9FA"/>
<path d="M252.17 0.847594H246.872V0H252.17V0.847594ZM241.532 0.847594H236.235V0H241.532V0.847594ZM230.895 0.847594H225.598V0H230.895V0.847594Z" fill="#30A9FA"/>
<path d="M260.435 2.96658H259.588V0.847594H257.469V0H260.435V2.96658Z" fill="#30A9FA"/>
<path d="M260.445 34.8357H259.598V29.5383H260.445V34.8357ZM260.445 24.1984H259.598V18.901H260.445V24.1984ZM260.445 13.5611H259.598V8.26367H260.445V13.5611Z" fill="#30A9FA"/>
<path d="M260.435 43.1424H257.469V42.2948H259.588V40.1758H260.435V43.1424Z" fill="#30A9FA"/>
<path d="M252.17 43.1435H246.872V42.2959H252.17V43.1435ZM241.532 43.1435H236.235V42.2959H241.532V43.1435ZM230.895 43.1435H225.598V42.2959H230.895V43.1435Z" fill="#30A9FA"/>
<path d="M220.263 43.1424H217.297V40.1758H218.144V42.2948H220.263V43.1424Z" fill="#30A9FA"/>
<path d="M218.144 34.8357H217.297V29.5383H218.144V34.8357ZM218.144 24.1984H217.297V18.901H218.144V24.1984ZM218.144 13.5611H217.297V8.26367H218.144V13.5611Z" fill="#30A9FA"/>
<path d="M288.027 273.944H249.419V248.346H204.539V91.7959H301.122V30.2606H260.48V27.7178H303.665V94.3387H207.082V245.804H251.962V271.401H285.484V115.783H323.626V118.326H288.027V273.944Z" fill="#30A9FA"/>
<path d="M279.936 66.96H237.641V109.255H279.936V66.96Z" fill="#CDE7F9"/>
<path d="M324.474 120.105C326.113 120.105 327.441 118.777 327.441 117.138C327.441 115.5 326.113 114.172 324.474 114.172C322.836 114.172 321.508 115.5 321.508 117.138C321.508 118.777 322.836 120.105 324.474 120.105Z" fill="#FDD047"/>
<path d="M428.727 283.691H366.853V118.41H334.645V115.868H369.396V281.148H426.185V94.6777H428.727V283.691Z" fill="#30A9FA"/>
<path d="M269.509 146.551H176.57V182.319H269.509V146.551Z" fill="#CDE7F9"/>
<path d="M441.018 120.359H398.723V162.654H441.018V120.359Z" fill="#CDE7F9"/>
<path d="M396.388 178.928H303.449V222.536H396.388V178.928Z" fill="#CDE7F9"/>
<path d="M496.112 51.7881H365.074V100.355H496.112V51.7881Z" fill="#CDE7F9"/>
<path d="M335.494 120.105C337.132 120.105 338.461 118.777 338.461 117.138C338.461 115.5 337.132 114.172 335.494 114.172C333.856 114.172 332.527 115.5 332.527 117.138C332.527 118.777 333.856 120.105 335.494 120.105Z" fill="#13E0CF"/>
<path d="M425.088 137.1H416.484C415.637 137.1 414.959 137.778 414.959 138.625V145.957H408.178C407.33 145.957 406.652 146.635 406.652 147.483V153.416C406.652 154.263 407.33 154.941 408.178 154.941H425.045V137.1H425.088Z" fill="#FFCA00"/>
<path d="M423.73 130.149V154.856H431.147C431.995 154.856 432.673 154.178 432.673 153.33V130.149C432.673 129.301 431.995 128.623 431.147 128.623H425.214C424.409 128.665 423.73 129.344 423.73 130.149Z" fill="#F77E00"/>
<path d="M260.996 75.9445C258.792 74.6731 255.952 75.436 254.639 77.6397L245.061 94.2526C243.789 96.4563 244.552 99.2958 246.756 100.61C248.96 101.881 251.799 101.118 253.113 98.9143L262.691 82.3015C263.962 80.0554 263.199 77.2159 260.996 75.9445Z" fill="#FABC04"/>
<path d="M256.33 75.8186C258.534 74.5472 261.373 75.31 262.687 77.5137L272.265 94.1266C273.536 96.3303 272.773 99.1698 270.57 100.484C268.366 101.755 265.527 100.992 264.213 98.7884L254.635 82.1755C253.364 79.9294 254.126 77.09 256.33 75.8186Z" fill="#3C8BD9"/>
<path d="M249.087 101.246C251.685 101.246 253.791 99.1401 253.791 96.542C253.791 93.944 251.685 91.8379 249.087 91.8379C246.489 91.8379 244.383 93.944 244.383 96.542C244.383 99.1401 246.489 101.246 249.087 101.246Z" fill="#34A852"/>
<path d="M442.296 163.756H398.645V161.213H439.753V120.528H442.296V163.756Z" fill="#30A9FA"/>
<path d="M226.959 220.205H184.664V262.5H226.959V220.205Z" fill="#CDE7F9"/>
<path d="M281.249 110.358H237.598V107.815H278.706V67.1309H281.249V110.358Z" fill="#30A9FA"/>
<path d="M205.69 229.146L195.477 234.528C195.138 234.697 195.138 235.164 195.477 235.333L205.69 240.631C205.818 240.715 205.987 240.715 206.114 240.631L216.328 235.333C216.667 235.164 216.667 234.697 216.328 234.528L206.114 229.146C205.987 229.061 205.818 229.061 205.69 229.146Z" fill="#0069FF"/>
<path d="M195.943 237.877L192.637 239.615C192.298 239.784 192.298 240.25 192.637 240.42L205.69 247.243C205.817 247.328 205.987 247.328 206.114 247.243L219.167 240.42C219.506 240.25 219.506 239.784 219.167 239.615L215.861 237.877C215.734 237.792 215.565 237.792 215.437 237.877L206.156 242.793C206.029 242.878 205.86 242.878 205.732 242.793L196.324 237.877C196.197 237.792 196.07 237.792 195.943 237.877Z" fill="#0069FF"/>
<path d="M193.275 243.046L189.969 244.784C189.63 244.953 189.63 245.419 189.969 245.589L205.692 253.938C205.819 254.022 205.989 254.022 206.116 253.938L222.008 245.589C222.347 245.419 222.347 244.953 222.008 244.784L218.703 243.046C218.575 242.961 218.406 242.961 218.279 243.046L206.158 249.488C206.031 249.572 205.862 249.572 205.734 249.488L193.699 243.046C193.571 243.004 193.402 243.004 193.275 243.046Z" fill="#0069FF"/>
<path d="M228.276 263.772H184.625V261.229H225.733V220.121H228.276V263.772Z" fill="#30A9FA"/>
<path d="M231.706 156.085H189.496V159.136H231.706V156.085Z" fill="white"/>
<path d="M256.668 162.865H189.496V165.917H256.668V162.865Z" fill="white"/>
<path d="M256.668 169.604H189.496V172.656H256.668V169.604Z" fill="white"/>
<path d="M358.417 192.531H316.207V195.583H358.417V192.531Z" fill="white"/>
<path d="M383.379 199.311H316.207V202.362H383.379V199.311Z" fill="white"/>
<path d="M383.379 206.052H316.207V209.103H383.379V206.052Z" fill="white"/>
<path d="M396.357 89.7197C403.73 89.7197 409.707 83.7429 409.707 76.3701C409.707 68.9973 403.73 63.0205 396.357 63.0205C388.985 63.0205 383.008 68.9973 383.008 76.3701C383.008 83.7429 388.985 89.7197 396.357 89.7197Z" fill="#0879F9"/>
<path d="M392.675 84.2954L386.403 78.3622C385.894 77.896 385.894 77.0908 386.36 76.5823C386.826 76.0737 387.632 76.0737 388.14 76.5399L392.59 80.7779L403.693 69.4201C404.16 68.9115 404.965 68.9115 405.473 69.3777C405.982 69.8439 405.982 70.6491 405.516 71.1577L392.675 84.2954Z" fill="white"/>
<path d="M454.499 68.7842H414.238V71.666H454.499V68.7842Z" fill="white"/>
<path d="M478.316 75.2256H414.238V78.1074H478.316V75.2256Z" fill="white"/>
<path d="M478.316 81.668H414.238V84.5498H478.316V81.668Z" fill="white"/>
<path d="M451.61 320.095L448.771 336.581L447.288 345.099L423.852 345.438L434.87 338.53L434.997 334.97L435.676 318.993L451.61 320.095Z" fill="#FFB1DF"/>
<path d="M450.633 348.913L448.09 339.929C448.09 339.929 436.986 348.193 427.705 342.599L413.55 349.422C411.94 350.269 412.533 352.685 414.356 352.685H447.793C449.743 352.685 451.184 350.778 450.633 348.913Z" fill="#0F0A46"/>
<path d="M512.212 320.095L512.17 335.606L512.127 345.099L488.691 345.438L499.71 338.53L499.413 336.835L496.277 318.993L512.212 320.095Z" fill="#FFB1DF"/>
<path d="M515.476 348.913L512.934 339.929C512.934 339.929 501.83 348.193 492.549 342.599L478.394 349.422C476.784 350.269 477.377 352.685 479.199 352.685H512.637C514.586 352.685 516.027 350.778 515.476 348.913Z" fill="#0F0A46"/>
<path d="M539.505 156.084L519.544 155.364L519.248 141.76L519.121 135.488L519.163 135.318C519.163 135.318 512.001 137.564 511.704 129.088C511.662 127.859 511.407 124.13 511.407 124.13C511.407 124.13 509.924 123.918 509.246 122.392C509.246 122.392 511.492 118.875 511.619 114.467C511.662 113.069 511.831 110.738 513.23 109.17L536.878 116.925L539.505 156.084Z" fill="#FFB1DF"/>
<path d="M525.478 124.767L524.334 124.216C526.156 120.614 525.69 119.385 525.436 119.046C524.927 118.41 523.656 118.707 523.656 118.707L523.359 117.478C523.444 117.478 525.394 117.012 526.411 118.283C527.385 119.427 527.089 121.589 525.478 124.767Z" fill="#D35EAF"/>
<path d="M512.85 129.258C512.808 129.258 512.766 129.258 512.766 129.258L512.808 127.987C512.808 127.987 514.334 128.029 515.351 127.055L516.241 127.987C514.969 129.174 513.274 129.258 512.85 129.258Z" fill="#D35EAF"/>
<path d="M565.483 173.63L578.451 201.94C580.147 205.669 579.172 210.076 576.078 212.704L544.505 239.657L536.453 228.512L561.203 205.542L548.489 179.436L565.483 173.63Z" fill="#FFB1DF"/>
<path d="M497.677 182.573L490.218 188.633L478.521 198.168C475.682 200.457 471.613 200.33 468.944 197.829L439.235 170.918C433.896 167.358 433.006 162.866 433.006 162.866C432.539 161.976 433.472 161.086 433.472 161.086C433.472 159.73 434.828 159.306 434.828 159.306C435.294 157.95 436.608 157.95 436.608 157.95C437.074 156.594 438.388 156.594 438.388 156.594C438.388 156.594 437.032 154.348 434.828 151.254C432.582 148.118 434.828 146.338 434.828 146.338L441.524 154.814L449.11 165.96L474.114 179.775L484.158 171.257L488.862 167.273L497.677 182.573Z" fill="#FFB1DF"/>
<path d="M527.05 130.317C527.05 130.317 525.651 137.691 519.252 141.718L519.125 135.445C521.668 134.979 524.592 133.242 527.05 130.317Z" fill="#D35EAF"/>
<path d="M513.318 120.019C513.88 120.019 514.335 119.563 514.335 119.001C514.335 118.44 513.88 117.984 513.318 117.984C512.756 117.984 512.301 118.44 512.301 119.001C512.301 119.563 512.756 120.019 513.318 120.019Z" fill="#D35EAF"/>
<path d="M513.911 116.799C514.801 116.799 515.522 116.533 515.522 116.206C515.522 115.878 514.801 115.612 513.911 115.612C513.022 115.612 512.301 115.878 512.301 116.206C512.301 116.533 513.022 116.799 513.911 116.799Z" fill="#D35EAF"/>
<path d="M557.47 121.97C555.987 117.775 550.053 114.469 544.29 114.554C545.095 105.57 542.637 96.0341 528.185 97.2631C528.185 97.2631 521.913 95.1441 514.285 100.018C508.691 103.62 509.072 112.011 515.005 113.071C515.895 113.283 516.828 113.367 517.633 113.198L518.014 115.953C518.226 117.563 520.133 118.283 521.405 117.224C522.973 115.91 525.134 115.232 527.719 117.351C528.652 118.114 528.482 120.063 527.931 121.97C527.592 122.649 527.253 123.454 526.956 124.386C526.787 124.683 526.999 137.058 537.043 140.024C554.673 145.152 559.885 128.794 557.47 121.97Z" fill="#46105B"/>
<path d="M497.677 182.573L490.219 188.634L484.031 171.385L488.735 167.401L497.677 182.573Z" fill="#D35EAF"/>
<path d="M497.218 236.564L505.693 192.828L503.914 179.436L495.861 185.666L485.605 169.138C485.605 169.138 506.583 148.16 513.703 146.38C520.823 144.6 545.827 146.38 545.827 146.38C545.827 146.38 552.523 147.736 556.973 155.746L568.119 176.724L556.083 180.75L553.328 228.173L497.218 236.564Z" fill="#E7364D"/>
<path d="M451.613 320.094L448.774 336.58C444.197 336.029 439.111 335.436 435.043 334.97L435.679 318.95L451.613 320.094Z" fill="#D35EAF"/>
<path d="M512.216 320.095L512.174 335.606C508.402 335.903 503.698 336.411 499.417 336.835L496.281 318.993L512.216 320.095Z" fill="#D35EAF"/>
<path d="M481.957 238.641L495.264 331.706H519.844L518.065 244.701L481.957 238.641Z" fill="#0F0A46"/>
<path d="M501.319 217.662L466.737 221.773C456.524 223.087 448.26 230.757 446.183 240.844L432.113 331.706H458.431L476.315 252.413L511.067 250.676C511.067 250.676 543.063 245.675 549.039 236.563C555.014 227.452 553.87 223.638 553.87 223.638L501.319 217.662Z" fill="#0F0A46"/>
<path d="M562.644 167.697L557.347 157.738C551.965 147.609 544.379 146.974 544.294 146.974L519.078 146.423L519.121 145.151L544.379 145.702C544.76 145.745 552.77 146.38 558.491 157.145L563.789 167.104L562.644 167.697Z" fill="white"/>
<path d="M509.888 173.275L497.246 183.856L498.062 184.831L510.704 174.25L509.888 173.275Z" fill="white"/>
<path d="M560.237 345.395H511.797V352.769H560.237V345.395Z" fill="#CDE7F9"/>
<path d="M540.573 254.533H531.801V346.455H540.573V254.533Z" fill="#CDE7F9"/>
<path d="M584.389 174.986C584.389 175.579 584.347 176.13 584.347 176.681C584.347 176.808 584.347 176.978 584.347 177.105C582.948 222.154 581.168 230.291 572.353 243.09C557.52 264.619 505.012 257.287 488.78 254.448C488.145 254.321 487.594 254.236 487.085 254.151C485.051 253.77 483.949 253.515 483.949 253.515C483.992 250.252 484.288 250.04 484.67 247.794C485.687 242.115 490.815 238.089 496.578 238.428C505.393 238.937 518.87 239.996 526.922 236.86C535.864 233.385 539.339 207.449 540.314 188.547C540.823 178.885 547.01 174.477 557.817 172.697L580.914 171.299C582.821 171.384 584.431 172.994 584.389 174.986Z" fill="#FF9B2C"/>
<path d="M584.394 177.106H584.309L583.588 177.275L583.419 176.47L583.461 177.317C582.91 177.36 562.144 179.394 553.711 180.496C549.939 181.004 549.134 185.836 548.964 188.633C548.159 203.72 546.888 220.714 542.311 231.521C538.327 240.929 529.13 246.142 515.696 246.566C506.33 246.863 498.109 244.828 496.795 244.447C492.006 245.21 489.717 251.143 488.785 254.448C488.149 254.321 487.598 254.237 487.09 254.152C488.107 250.507 490.777 243.557 496.752 242.752L496.922 242.709L497.091 242.752C497.176 242.752 505.949 245.167 515.696 244.828C528.58 244.405 537.013 239.658 540.785 230.801C545.277 220.248 546.506 203.423 547.311 188.463C547.481 185.115 548.54 179.394 553.499 178.716C557.949 178.123 565.789 177.275 571.595 176.682C574.816 176.343 577.74 176.046 579.901 175.834C580.961 175.707 581.851 175.622 582.444 175.58C582.783 175.538 583.037 175.537 583.292 175.495C583.927 175.495 584.224 175.622 584.309 176.173L584.394 176.555V177.106Z" fill="white"/>
<path d="M113.807 28.9871C113.807 28.9871 127.835 53.1859 105.501 58.1443L82.5312 58.78C82.5312 58.78 63.4179 53.6945 69.7325 41.6163L78.6322 27.1224C78.6322 27.1224 79.3103 9.1958 92.9566 7.79727C92.9566 7.79727 118.935 6.86491 118.512 17.7565C118.427 17.7565 117.918 24.7915 113.807 28.9871Z" fill="#46105B"/>
<path d="M88.5076 39.4975L85.9649 70.3499L105.799 70.5195L104.57 52.72L104.231 47.7192V47.6768C118.089 48.143 109.231 18.9434 109.231 18.9434C104.866 28.7331 95.9241 27.9702 95.9241 27.9702C88.6772 27.0803 86.6006 31.403 86.6006 31.403C78.2094 34.7086 88.5076 39.4975 88.5076 39.4975Z" fill="#FFB1DF"/>
<path d="M107.406 39.8355C106.474 40.8526 104.312 42.4207 101.388 40.4712C101.134 40.3017 101.219 39.8779 101.558 39.8355L107.152 39.2422C107.448 39.2422 107.66 39.6236 107.406 39.8355Z" fill="white"/>
<path d="M103.426 38.6916L102.875 37.0388L103.976 36.6998L102.705 31.8261L104.358 31.4023L106.011 37.844L103.426 38.6916Z" fill="#D35EAF"/>
<path d="M107.821 31.3826C108.209 31.2969 108.455 30.9124 108.369 30.5238C108.283 30.1353 107.899 29.8898 107.51 29.9756C107.122 30.0613 106.876 30.4458 106.962 30.8344C107.048 31.2229 107.432 31.4684 107.821 31.3826Z" fill="#D35EAF"/>
<path d="M98.6645 33.6326C99.053 33.5469 99.2985 33.1624 99.2127 32.7738C99.127 32.3853 98.7425 32.1398 98.3539 32.2256C97.9654 32.3113 97.7199 32.6958 97.8057 33.0844C97.8914 33.4729 98.2759 33.7184 98.6645 33.6326Z" fill="#D35EAF"/>
<path d="M107.594 28.9915C108.829 28.5528 109.709 27.8573 109.561 27.4383C109.412 27.0192 108.29 27.0352 107.055 27.474C105.82 27.9128 104.939 28.6083 105.088 29.0273C105.237 29.4464 106.359 29.4303 107.594 28.9915Z" fill="#D35EAF"/>
<path d="M97.7441 30.9299C99.0485 30.8016 100.071 30.3388 100.027 29.8963C99.9836 29.4537 98.8909 29.1989 97.5865 29.3272C96.282 29.4556 95.2599 29.9184 95.3034 30.3609C95.347 30.8035 96.4397 31.0583 97.7441 30.9299Z" fill="#D35EAF"/>
<path d="M107.874 34.6229C106.094 34.6229 104.356 33.5634 103.594 31.8258C102.577 29.495 103.678 26.7403 106.052 25.7655C108.383 24.7484 111.137 25.8503 112.112 28.2236C113.129 30.5544 112.027 33.3091 109.654 34.2839C109.061 34.4958 108.467 34.6229 107.874 34.6229ZM105.162 31.1478C105.797 32.631 107.535 33.3515 109.018 32.7158C110.502 32.0801 111.222 30.3425 110.586 28.8593C109.951 27.376 108.213 26.6555 106.73 27.2912C105.204 27.9269 104.526 29.6645 105.162 31.1478Z" fill="#46105B"/>
<path d="M98.6787 37.0383C98.0854 37.0383 97.4921 36.9112 96.9411 36.6993C95.7969 36.2331 94.9069 35.3431 94.3983 34.1989C93.3812 31.868 94.4831 29.1133 96.8564 28.1386C99.1872 27.1215 101.942 28.2233 102.917 30.5966C103.891 32.9699 102.832 35.6822 100.459 36.6569C99.9077 36.9112 99.272 37.0383 98.6787 37.0383ZM95.9664 33.5632C96.6021 35.0465 98.3397 35.7669 99.8229 35.1312C100.543 34.8346 101.094 34.2413 101.391 33.5208C101.688 32.8004 101.688 31.9951 101.349 31.2747C100.713 29.7914 98.9753 29.0709 97.4921 29.7066C96.0511 30.3423 95.3307 32.0799 95.9664 33.5632Z" fill="#46105B"/>
<path d="M103.7 28.8349L101.518 29.3652L101.918 31.0125L104.1 30.4822L103.7 28.8349Z" fill="#46105B"/>
<path d="M86.727 32.1645L85.0742 31.8679C85.2437 31.0203 85.6675 30.3846 86.3456 29.9608C87.5746 29.1979 89.185 29.537 89.6512 29.6641L95.3725 29.876L95.3301 31.5712L89.3969 31.3593L89.3122 31.3169C88.9732 31.2322 87.8713 31.0203 87.278 31.4017C87.0661 31.4864 86.8118 31.656 86.727 32.1645Z" fill="#46105B"/>
<path d="M91.8125 42.8887C91.8125 42.8887 92.8296 48.7371 104.569 52.7208L104.23 47.72C100.585 47.4657 95.7962 46.3638 91.8125 42.8887Z" fill="#D35EAF"/>
<path d="M49.1365 320.093L45.7885 334.46L43.3305 345.097L19.8945 345.436L30.9133 338.528L31.2947 335.435L33.2018 318.991L49.1365 320.093Z" fill="#FFB1DF"/>
<path d="M47.1873 348.911L44.6445 339.927C44.6445 339.927 33.541 348.191 24.2599 342.597L10.1051 349.42C8.49464 350.267 9.08796 352.683 10.9103 352.683H44.3479C46.2973 352.683 47.7382 350.776 47.1873 348.911Z" fill="#0F0A46"/>
<path d="M135.253 345.436L111.859 345.097L109.995 334.545L107.494 320.093L123.429 318.991L124.022 332.595L124.234 338.528L135.253 345.436Z" fill="#FFB1DF"/>
<path d="M108.47 348.911L111.013 339.927C111.013 339.927 122.116 348.191 131.398 342.597L145.552 349.42C147.163 350.267 146.569 352.683 144.747 352.683H111.31C109.36 352.683 107.919 350.776 108.47 348.911Z" fill="#0F0A46"/>
<path d="M49.1368 320.093L45.7888 334.46L31.2949 335.435L33.202 318.991L49.1368 320.093Z" fill="#D35EAF"/>
<path d="M124.022 332.595L109.995 334.545L107.494 320.093L123.429 318.991L124.022 332.595Z" fill="#D35EAF"/>
<path d="M210.002 0.3685L178.855 27.9062L206.758 59.4656L237.905 31.9278L210.002 0.3685Z" fill="#CDE7F9"/>
<path d="M200.177 51.9564C200.177 51.9564 198.355 53.9058 196.363 55.9824C194.456 57.9743 192.337 60.0509 191.405 60.7713L182.59 56.3639C182.59 55.9824 185.302 50.7697 186.446 48.566C186.785 47.9303 186.997 47.5489 186.997 47.5489L191.405 32.377C191.405 32.377 194.329 35.3011 192.38 42.6752L200.177 51.9564Z" fill="#FFB1DF"/>
<path d="M196.324 55.9838C194.417 57.9757 192.298 60.0523 191.366 60.7727L182.551 56.3652C182.551 55.9838 185.263 50.7711 186.407 48.5674L196.324 55.9838Z" fill="#D35EAF"/>
<path d="M67.7849 151.082C67.7849 151.082 62.2331 159.643 60.0718 173.755L29.2617 332.128H52.7824L93.8908 182.74L101.18 329.967H124.701L124.277 165.195C124.277 165.195 122.158 151.082 116.988 146.802L67.7849 151.082Z" fill="#0F0A46"/>
<path d="M37.0585 113.916C39.3894 103.194 51.7219 84.7589 56.2141 73.9097C59.1383 66.7899 69.1823 55.8136 85.5833 55.6017C85.5833 55.6017 98.6362 75.393 105.925 58.4835L145.72 75.5625L185.981 49.2871L196.152 62.4248L156.612 95.5657C153.476 98.1933 149.28 99.2104 145.296 98.278L123.64 93.8282C123.64 99.7613 122.708 104.381 121.521 106.542C119.953 109.339 117.071 113.916 117.071 113.916C117.071 113.916 120.928 146.676 123.047 154.77C123.047 154.77 83.4643 159.517 61.7659 156.974L65.7496 130.656C65.7072 130.656 34.0072 127.986 37.0585 113.916Z" fill="#0879F9"/>
<path d="M119.702 128.114L116.354 113.789L116.523 113.535C116.608 113.408 124.829 102.305 122.795 95.0577C121.354 89.8026 119.574 85.4798 117.159 80.1824L118.303 79.6738C120.719 85.0137 122.499 89.4212 123.982 94.761C126.016 102.093 118.939 112.391 117.667 114.129L120.888 127.86L119.702 128.114Z" fill="white"/>
<path d="M92.9997 113.959L56.7227 106.585L69.267 83.4453L70.3689 84.0386L58.6297 105.695L93.254 112.687L92.9997 113.959Z" fill="white"/>
<path d="M45.9997 95.0146L44.8555 94.4213C44.9402 94.2094 54.7299 75.1386 58.5441 68.9935C66.9777 55.3472 85.4128 54.9658 85.6247 54.9658H85.9638L86.1757 55.2625C90.2441 61.1956 94.355 64.3741 97.9996 64.4165H98.042C101.475 64.4165 103.467 61.6618 103.509 61.6618L104.526 62.3823C104.441 62.5094 102.153 65.6879 98.042 65.6879H97.9996C93.9312 65.6455 89.6508 62.5094 85.3281 56.2796C82.8277 56.4067 67.1048 57.6357 59.646 69.714C55.8742 75.7743 46.0845 94.8451 45.9997 95.0146Z" fill="white"/>
<path d="M91.8535 124.342L96.6 124.596L97.4476 124.638C103.127 128.495 110.585 127.097 110.585 127.097C111.645 127.097 128.554 125.571 128.554 125.571C128.554 122.986 123.596 122.18 123.596 122.18L111.73 121.757L110.882 118.366C115.544 119.214 116.391 115.824 116.391 115.824L112.45 112.772C109.738 111.967 98.9733 112.815 98.7614 112.899L95.032 112.815L92.4892 112.772L91.8535 124.342Z" fill="#FFB1DF"/>
<path d="M136.399 118.282H111.946C110.801 118.282 109.869 119.215 109.869 120.359C109.869 121.503 110.801 122.435 111.946 122.435H136.399V118.282Z" fill="#82C5F8"/>
<path d="M204.885 83.7003L191.239 120.571C190.815 121.673 189.755 122.435 188.569 122.435H135.001C133.009 122.435 131.653 120.444 132.331 118.579L145.977 81.7085C146.401 80.6066 147.46 79.8438 148.647 79.8438H202.215C204.207 79.8438 205.563 81.8356 204.885 83.7003Z" fill="#C1E1FB"/>
<path d="M171.628 101.235C172.431 99.4915 171.875 97.5228 170.387 96.8376C168.898 96.1524 167.041 97.0102 166.239 98.7535C165.436 100.497 165.992 102.466 167.48 103.151C168.968 103.836 170.825 102.978 171.628 101.235Z" fill="white"/>
<path d="M132.923 118.452L131.736 118.028L144.916 82.599C145.637 80.6071 147.586 79.251 149.705 79.251H153.689V80.5224H149.705C148.095 80.5224 146.654 81.5395 146.103 83.0228L132.923 118.452Z" fill="white"/>
<path d="M77.361 132.183C74.6063 132.183 61.2567 131.886 46.4238 126.843L46.8476 125.656C63.2062 131.25 77.7 130.954 77.8696 130.954L77.9119 132.225C77.8696 132.183 77.7 132.183 77.361 132.183Z" fill="white"/>
<path d="M91.8535 124.342L96.6424 124.638L95.0744 112.857L92.574 112.814L91.8535 124.342Z" fill="#D35EAF"/>
<path d="M213.739 15.043L224.249 26.655C224.673 27.1212 224.63 27.8416 224.164 28.2654L205.093 45.5139C204.627 45.9377 203.907 45.8954 203.483 45.4292L192.973 33.8172C192.549 33.351 192.591 32.6305 193.058 32.2067L212.128 14.9582C212.425 14.6615 212.891 14.6191 213.273 14.7463C213.442 14.7887 213.612 14.9158 213.739 15.043Z" fill="#3EB0E4"/>
<path d="M213.737 15.0428L216.067 17.6279C216.746 23.4763 215.177 36.1478 204.286 36.5716C202.082 36.6564 194.92 34.8764 197.081 32.2913C197.293 32.037 197.632 31.9522 197.929 32.0794C200.599 33.266 214.711 38.4363 213.313 14.7461C213.44 14.7885 213.609 14.9156 213.737 15.0428Z" fill="white"/>
<path d="M95.6781 173.959L85.0859 212.406L86.3117 212.744L96.9039 174.297L95.6781 173.959Z" fill="white"/>
<path d="M151.824 326.662C151.824 326.662 151.824 324.501 142.077 310.685C142.077 310.685 130.973 297.675 136.652 292.547C136.652 292.547 147.756 283.901 155.893 326.662H151.824Z" fill="#2C9EF3"/>
<path d="M159.918 329.884C159.918 329.884 159.918 276.02 181.32 278.435C181.32 278.435 189.16 280.342 181.32 294.158C181.32 294.158 167.801 314.204 166.444 329.079L159.918 329.884Z" fill="#2C9EF3"/>
<path d="M160.469 328.273L159.028 329.036L155.892 330.688C156.824 323.696 155.807 313.016 153.179 306.871C149.365 297.971 136.016 277.332 146.144 272.713C157.672 267.458 161.062 282.799 161.698 298.649C162.249 313.228 160.469 328.273 160.469 328.273Z" fill="#2C9EF3"/>
<path d="M162.459 333.019L161.188 332.892C163.9 304.752 178.182 283.181 178.351 282.969L179.411 283.689C179.284 283.901 165.171 305.218 162.459 333.019Z" fill="white"/>
<path d="M157.585 337.045L156.314 336.875C162.29 295.343 148.686 280.298 148.559 280.171L149.491 279.281C149.618 279.451 153.136 283.223 155.89 292.292C158.433 300.556 160.764 315.05 157.585 337.045Z" fill="white"/>
<path d="M153.136 330.774C151.356 313.525 139.701 299.286 139.574 299.159L140.549 298.354C140.676 298.481 152.585 313.017 154.407 330.647L153.136 330.774Z" fill="white"/>
<path d="M160.466 328.273L159.025 329.036C158.602 321.323 160.424 307.126 161.695 298.692C162.246 313.229 160.466 328.273 160.466 328.273Z" fill="#0C61E7"/>
<path d="M145.721 323.78H172.25V343.317C172.25 348.53 168.012 352.726 162.842 352.726H155.171C149.959 352.726 145.763 348.488 145.763 343.317V323.78H145.721Z" fill="#E8344C"/>
<path d="M581.172 352.559H0.697266V353.83H581.172V352.559Z" fill="#0F0A46"/>
</svg>
