<svg width="620" height="371" viewBox="0 0 620 371" fill="none" xmlns="http://www.w3.org/2000/svg">
<path d="M263.927 370.276C369.414 370.276 454.929 364.306 454.929 356.943C454.929 349.579 369.414 343.609 263.927 343.609C158.44 343.609 72.9258 349.579 72.9258 356.943C72.9258 364.306 158.44 370.276 263.927 370.276Z" fill="#36A6CF"/>
<path d="M308.748 241.187H414.94C422.214 241.187 428.165 235.236 428.165 227.962C428.165 220.688 422.214 214.737 414.94 214.737H308.748C301.475 214.737 295.523 220.688 295.523 227.962C295.523 235.236 301.475 241.187 308.748 241.187ZM337.087 281.445H396.786C404.06 281.445 410.011 275.493 410.011 268.22C410.011 260.946 404.06 254.995 396.786 254.995H337.087C329.813 254.995 323.862 260.946 323.862 268.22C323.862 275.493 329.813 281.444 337.087 281.445ZM282.299 282.2H292.123C299.396 282.2 305.347 276.249 305.347 268.976C305.347 261.702 299.396 255.751 292.123 255.751H282.299C275.025 255.751 269.074 261.702 269.074 268.976C269.074 276.249 275.025 282.2 282.299 282.2Z" fill="#36A6CF"/>
<path d="M334.298 238.912C312.699 191.553 353.345 164.155 358.496 161.604C372.914 154.463 389.654 152.11 405.482 154.998C404.31 131.705 424.018 110.444 446.921 106.044C469.825 101.644 493.934 111.957 509.988 128.875C522.79 142.367 531.355 161.911 525.775 179.653C522.131 191.241 534.735 239.897 525.546 247.842C488.506 279.87 366.209 308.879 334.298 238.912Z" fill="#36A6CF"/>
<path d="M261.205 152.445L261.849 150.883C260.799 150.288 260.001 149.669 259.455 149.027C258.909 148.385 258.548 147.562 258.372 146.559C258.26 145.926 258.262 145.257 258.376 144.552C258.491 143.848 259.178 143.383 259.877 143.528C260.517 143.661 260.955 144.267 260.866 144.915C260.765 145.655 260.783 146.276 260.922 146.775C261.221 147.819 261.787 148.565 262.619 149.014L265.522 141.966C264.683 141.419 263.897 140.683 263.166 139.758C262.623 139.074 262.304 138.305 262.21 137.451C262.116 136.597 262.251 135.727 262.616 134.841C263.264 133.267 264.347 132.221 265.864 131.705C266.881 131.356 268.153 131.411 269.682 131.868L270.281 130.412C270.353 130.239 270.49 130.102 270.662 130.03C270.835 129.958 271.029 129.958 271.202 130.029C271.287 130.064 271.365 130.116 271.431 130.181C271.496 130.246 271.549 130.324 271.584 130.409C271.62 130.495 271.638 130.587 271.638 130.679C271.638 130.772 271.62 130.863 271.585 130.949L270.986 132.405C272.222 133.058 273.088 133.856 273.582 134.798C273.989 135.567 274.189 136.394 274.179 137.279C274.171 138.09 273.425 138.693 272.637 138.499C272.06 138.357 271.658 137.823 271.698 137.23C271.731 136.729 271.679 136.283 271.542 135.892C271.318 135.258 270.876 134.719 270.215 134.274L267.586 140.658C268.586 141.396 269.235 141.917 269.531 142.222C270.095 142.809 270.505 143.409 270.76 144.023C271.016 144.637 271.137 145.291 271.124 145.986C271.111 146.681 270.961 147.376 270.674 148.073C270.043 149.607 269.028 150.685 267.63 151.308C266.232 151.931 264.743 151.96 263.162 151.396L262.509 152.982C262.438 153.155 262.301 153.293 262.128 153.365C261.955 153.437 261.761 153.437 261.588 153.366C261.416 153.294 261.278 153.157 261.206 152.985C261.134 152.812 261.134 152.618 261.205 152.445ZM268.922 133.713C268.007 133.489 267.187 133.554 266.461 133.907C265.735 134.26 265.215 134.818 264.901 135.581C264.59 136.335 264.541 137.054 264.754 137.736C264.967 138.419 265.515 139.119 266.399 139.838L268.922 133.713ZM263.923 149.551C264.828 149.799 265.693 149.719 266.518 149.311C267.343 148.902 267.95 148.227 268.338 147.284C268.669 146.48 268.736 145.752 268.54 145.101C268.343 144.449 267.73 143.686 266.699 142.81L263.923 149.551Z" fill="#A8E0FF"/>
<path d="M282.19 161.571L241.084 144.638L241.71 146.139L252.22 120.625L250.719 121.251L291.824 138.184L291.199 136.683L280.689 162.196C280.125 163.564 282.25 164.442 282.815 163.072L293.325 137.558C293.562 136.984 293.276 136.295 292.7 136.057L251.594 119.124C251.02 118.888 250.331 119.173 250.093 119.749L239.583 145.263C239.347 145.838 239.632 146.527 240.208 146.764L281.314 163.697C282.682 164.261 283.56 162.136 282.19 161.571Z" fill="#A8E0FF"/>
<path d="M84.1853 253.735C83.4535 254.862 81.8743 255.261 80.1873 254.749L72.8456 252.539C69.3717 256.092 65.2863 258.839 60.8661 260.718L60.2506 268.363C60.113 270.114 59.166 271.446 57.8465 271.719L53.7383 272.579C52.4327 272.853 51.0307 272.022 50.1962 270.473L46.5811 263.743C41.7561 263.797 36.894 262.931 32.2582 261.069L26.4749 266.001C25.14 267.135 23.5263 267.405 22.406 266.667L18.8959 264.373C17.7683 263.641 17.3701 262.062 17.8823 260.375L20.0584 253.129C16.4509 249.624 13.6576 245.501 11.7531 241.037L4.2681 240.438C2.51703 240.301 1.17824 239.346 0.911593 238.034L0.051689 233.926C-0.222341 232.62 0.609587 231.218 2.15826 230.384L8.72821 226.857C8.65033 221.961 9.54938 217.017 11.4502 212.32L6.62994 206.662C5.4956 205.327 5.22557 203.714 5.95737 202.586L8.25127 199.076C8.98964 197.956 10.5688 197.558 12.256 198.07L19.3569 200.202C22.9063 196.556 27.0797 193.744 31.5993 191.843L32.1927 184.456C32.3302 182.705 33.2846 181.366 34.5968 181.099L38.705 180.239C40.0106 179.965 41.4126 180.797 42.2471 182.346L45.7602 188.901C50.6484 188.844 55.5781 189.756 60.2664 191.677L65.9684 186.818C67.3033 185.683 68.917 185.413 70.0446 186.145L73.5547 188.439C74.6749 189.177 75.0732 190.756 74.5609 192.444L72.3947 199.641C75.98 203.165 78.752 207.294 80.6342 211.778L88.1752 212.38C89.9262 212.518 91.2585 213.465 91.5317 214.784L92.3917 218.893C92.6657 220.198 91.8338 221.6 90.2851 222.435L83.5631 226.043C83.604 230.853 82.7172 235.708 80.8418 240.328L85.8132 246.156C86.9476 247.491 87.2176 249.105 86.4792 250.225L84.1853 253.735ZM38.1756 238.511C44.9124 242.914 53.9381 241.018 58.3403 234.295C62.7434 227.558 60.8541 218.526 54.1237 214.13C47.3869 209.727 38.3686 211.617 33.959 218.347C29.5559 225.083 31.4527 234.109 38.1756 238.511Z" fill="#36A6CF"/>
<path d="M578.558 65.9168H588.542V90.4881H578.558V65.9168ZM583.55 44.4909L571.18 65.9168H595.92L583.55 44.4909ZM527.424 44.9751H537.408V69.5464H527.424V44.9751ZM532.416 23.5494L520.046 44.9751H544.786L532.416 23.5494ZM473.503 21.4258H483.487V45.9971H473.503V21.4258ZM478.495 0L466.125 21.4258H490.865L478.495 0Z" fill="#A8E0FF"/>
<path d="M517.34 204.952L554.843 205.155L577.029 205.274C577.029 205.274 576.996 213.082 576.995 213.289C576.986 215.122 567.561 216.616 554.784 217C552.231 217.076 549.677 217.107 547.122 217.094C530.635 217.012 517.278 215.175 517.289 212.991C517.29 212.784 517.34 204.952 517.34 204.952Z" fill="url(#paint0_linear_396_2191)"/>
<path d="M547.158 201.201C530.671 201.201 517.305 202.971 517.305 205.155C517.305 207.338 530.671 209.108 547.158 209.108C563.646 209.108 577.012 207.338 577.012 205.155C577.012 202.971 563.646 201.201 547.158 201.201Z" fill="#FFD65A"/>
<path d="M538.235 214.681C527.045 214.142 521.008 212.883 519.227 212.024C519.231 211.188 519.238 210.018 519.244 208.881C522.126 209.99 527.651 210.961 538.251 211.454L538.235 214.681Z" fill="#FFD685"/>
<path d="M517.391 195.179L554.894 195.381L577.08 195.501C577.08 195.501 577.047 203.308 577.046 203.515C577.036 205.348 567.612 206.842 554.835 207.226C552.282 207.302 549.727 207.334 547.173 207.32C530.686 207.238 517.329 205.401 517.34 203.218C517.341 203.011 517.391 195.179 517.391 195.179Z" fill="url(#paint1_linear_396_2191)"/>
<path d="M547.205 191.428C530.718 191.428 517.352 193.198 517.352 195.381C517.352 197.565 530.718 199.335 547.205 199.335C563.693 199.335 577.059 197.565 577.059 195.381C577.059 193.198 563.693 191.428 547.205 191.428Z" fill="#FFD65A"/>
<path d="M539.653 205.256C528.463 204.717 522.426 203.458 520.645 202.599C520.649 201.763 520.656 200.593 520.662 199.456C523.544 200.565 529.069 201.537 539.669 202.029L539.653 205.256Z" fill="#FFD685"/>
<path d="M517.438 185.749L554.941 185.952L577.127 186.071L577.093 194.086C577.083 195.918 567.658 197.413 554.882 197.797C552.329 197.873 549.774 197.904 547.22 197.891C530.732 197.808 517.376 195.972 517.387 193.788C517.388 193.581 517.438 185.749 517.438 185.749Z" fill="url(#paint2_linear_396_2191)"/>
<path d="M547.252 181.997C530.765 181.997 517.399 183.767 517.399 185.951C517.399 188.134 530.765 189.904 547.252 189.904C563.74 189.904 577.105 188.134 577.105 185.951C577.105 183.767 563.74 181.997 547.252 181.997Z" fill="#FFD65A"/>
<path d="M538.328 195.477C527.138 194.938 521.102 193.679 519.32 192.82C519.325 191.984 519.332 190.814 519.338 189.677C522.219 190.786 527.745 191.757 538.345 192.25L538.328 195.477Z" fill="#FFD685"/>
<path d="M517.485 176.317L554.988 176.52L577.174 176.64C577.174 176.64 577.14 184.447 577.139 184.654C577.13 186.487 567.705 187.981 554.929 188.365C552.376 188.441 549.821 188.472 547.267 188.459C530.779 188.377 517.423 186.54 517.434 184.356C517.435 184.149 517.485 176.317 517.485 176.317Z" fill="url(#paint3_linear_396_2191)"/>
<path d="M547.299 172.567C530.812 172.567 517.446 174.337 517.446 176.521C517.446 178.705 530.812 180.475 547.299 180.475C563.787 180.475 577.152 178.705 577.152 176.521C577.152 174.337 563.787 172.567 547.299 172.567Z" fill="#FFD65A"/>
<path d="M538.375 186.046C527.185 185.507 521.149 184.248 519.367 183.389C519.372 182.553 519.379 181.384 519.385 180.246C522.266 181.355 527.792 182.327 538.391 182.819L538.375 186.046Z" fill="#FFD685"/>
<path d="M517.532 166.888L555.035 167.09L577.221 167.21C577.221 167.21 577.187 175.017 577.186 175.224C577.177 177.057 567.752 178.551 554.976 178.935C552.422 179.011 549.868 179.043 547.314 179.029C530.826 178.947 517.47 177.11 517.48 174.927C517.482 174.72 517.532 166.888 517.532 166.888Z" fill="url(#paint4_linear_396_2191)"/>
<path d="M547.346 163.136C530.858 163.136 517.493 164.906 517.493 167.089C517.493 169.273 530.858 171.043 547.346 171.043C563.833 171.043 577.199 169.273 577.199 167.089C577.199 164.906 563.833 163.136 547.346 163.136Z" fill="#FFD65A"/>
<path d="M538.426 176.615C527.236 176.077 521.199 174.817 519.418 173.958C519.423 173.123 519.43 171.953 519.436 170.815C522.317 171.925 527.843 172.896 538.442 173.388L538.426 176.615Z" fill="#FFD685"/>
<path d="M517.578 157.456L555.082 157.659L577.268 157.778C577.268 157.778 577.234 165.586 577.233 165.793C577.224 167.625 567.799 169.12 555.023 169.504C552.469 169.58 549.915 169.611 547.361 169.598C530.873 169.515 517.516 167.679 517.527 165.495C517.528 165.288 517.578 157.456 517.578 157.456Z" fill="url(#paint5_linear_396_2191)"/>
<path d="M547.393 153.706C530.905 153.706 517.54 155.476 517.54 157.66C517.54 159.843 530.905 161.613 547.393 161.613C563.88 161.613 577.246 159.843 577.246 157.66C577.246 155.476 563.88 153.706 547.393 153.706Z" fill="#FFD65A"/>
<path d="M538.469 167.356C527.279 166.818 521.242 165.559 519.461 164.699C519.466 163.864 519.472 162.694 519.479 161.557C522.36 162.666 527.886 163.637 538.485 164.129L538.469 167.356Z" fill="#FFD685"/>
<path d="M517.578 148.026L555.082 148.229L577.268 148.349C577.268 148.349 577.234 156.156 577.233 156.363C577.224 158.196 567.799 159.69 555.023 160.074C552.469 160.15 549.915 160.181 547.361 160.168C530.873 160.086 517.516 158.249 517.527 156.065C517.528 155.859 517.578 148.026 517.578 148.026Z" fill="url(#paint6_linear_396_2191)"/>
<path d="M547.393 144.276C530.905 144.276 517.54 146.046 517.54 148.23C517.54 150.413 530.905 152.184 547.393 152.184C563.88 152.184 577.246 150.413 577.246 148.23C577.246 146.046 563.88 144.276 547.393 144.276Z" fill="#FFD65A"/>
<path d="M538.469 157.926C527.279 157.387 521.242 156.128 519.461 155.269C519.466 154.433 519.472 153.263 519.479 152.126C522.36 153.235 527.886 154.207 538.485 154.699L538.469 157.926Z" fill="#FFD685"/>
<path d="M517.532 138.749L555.035 138.952L577.221 139.071C577.221 139.071 577.187 146.879 577.186 147.086C577.177 148.918 567.752 150.413 554.976 150.797C552.422 150.873 549.868 150.904 547.314 150.891C530.826 150.808 517.47 148.972 517.48 146.788C517.482 146.581 517.532 138.749 517.532 138.749Z" fill="url(#paint7_linear_396_2191)"/>
<path d="M547.346 134.999C530.858 134.999 517.493 136.769 517.493 138.953C517.493 141.136 530.858 142.906 547.346 142.906C563.833 142.906 577.199 141.136 577.199 138.953C577.199 136.769 563.833 134.999 547.346 134.999Z" fill="#FFD65A"/>
<path d="M538.426 148.477C527.236 147.938 521.199 146.679 519.418 145.82C519.423 144.984 519.43 143.814 519.436 142.677C522.317 143.786 527.843 144.757 538.442 145.25L538.426 148.477Z" fill="#FFD685"/>
<path d="M517.578 129.318L555.082 129.521L577.268 129.641C577.268 129.641 577.234 137.448 577.233 137.655C577.224 139.488 567.799 140.982 555.023 141.366C552.469 141.442 549.915 141.473 547.361 141.46C530.873 141.378 517.516 139.541 517.527 137.357C517.528 137.15 517.578 129.318 517.578 129.318Z" fill="url(#paint8_linear_396_2191)"/>
<path d="M547.393 125.569C530.905 125.569 517.54 127.339 517.54 129.523C517.54 131.706 530.905 133.477 547.393 133.477C563.88 133.477 577.246 131.706 577.246 129.523C577.246 127.339 563.88 125.569 547.393 125.569Z" fill="#FFD65A"/>
<path d="M538.469 139.218C527.279 138.679 521.242 137.42 519.461 136.561C519.466 135.725 519.472 134.555 519.479 133.418C522.36 134.527 527.886 135.499 538.485 135.991L538.469 139.218Z" fill="#FFD685"/>
<path d="M517.578 119.889L555.082 120.091L577.268 120.211C577.268 120.211 577.234 128.018 577.233 128.225C577.224 130.058 567.799 131.552 555.023 131.936C552.469 132.012 549.915 132.043 547.361 132.03C530.873 131.948 517.516 130.111 517.527 127.928C517.528 127.721 517.578 119.889 517.578 119.889Z" fill="url(#paint9_linear_396_2191)"/>
<path d="M547.393 116.14C530.905 116.14 517.54 117.91 517.54 120.093C517.54 122.277 530.905 124.047 547.393 124.047C563.88 124.047 577.246 122.277 577.246 120.093C577.246 117.91 563.88 116.14 547.393 116.14Z" fill="#FFD65A"/>
<path d="M538.469 129.789C527.279 129.251 521.242 127.991 519.461 127.132C519.466 126.296 519.472 125.127 519.479 123.989C522.36 125.099 527.886 126.07 538.485 126.562L538.469 129.789Z" fill="#FFD685"/>
<path d="M391.867 356.942H320.238V343.678C320.238 323.898 336.273 307.863 356.053 307.863C375.833 307.863 391.867 323.898 391.867 343.678L391.867 356.942Z" fill="#97D6F2"/>
<path d="M470.352 211.918L507.855 212.121L530.041 212.24C530.041 212.24 530.008 220.048 530.007 220.255C529.998 222.087 520.572 223.581 507.796 223.966C505.243 224.041 502.688 224.073 500.134 224.059C483.647 223.977 470.29 222.141 470.301 219.957C470.302 219.75 470.352 211.918 470.352 211.918Z" fill="url(#paint10_linear_396_2191)"/>
<path d="M500.17 208.168C483.683 208.168 470.317 209.938 470.317 212.122C470.317 214.305 483.683 216.075 500.17 216.075C516.658 216.075 530.023 214.305 530.023 212.122C530.023 209.938 516.658 208.168 500.17 208.168Z" fill="#FFD65A"/>
<path d="M491.246 221.646C480.057 221.108 474.02 219.849 472.238 218.989C472.243 218.154 472.25 216.984 472.256 215.847C475.138 216.956 480.663 217.927 491.262 218.419L491.246 221.646Z" fill="#FFD685"/>
<path d="M470.399 202.145L507.902 202.347L530.088 202.467C530.088 202.467 530.055 210.274 530.054 210.481C530.044 212.314 520.619 213.808 507.843 214.192C505.29 214.268 502.735 214.299 500.181 214.286C483.693 214.204 470.337 212.367 470.348 210.184C470.349 209.977 470.399 202.145 470.399 202.145Z" fill="url(#paint11_linear_396_2191)"/>
<path d="M500.217 198.394C483.73 198.394 470.364 200.165 470.364 202.348C470.364 204.532 483.73 206.302 500.217 206.302C516.705 206.302 530.07 204.532 530.07 202.348C530.07 200.165 516.705 198.394 500.217 198.394Z" fill="#FFD65A"/>
<path d="M492.664 212.223C481.474 211.684 475.438 210.425 473.656 209.566C473.661 208.73 473.668 207.56 473.674 206.423C476.556 207.532 482.081 208.503 492.68 208.996L492.664 212.223Z" fill="#FFD685"/>
<path d="M470.446 192.714L507.949 192.916L530.135 193.036C530.135 193.036 530.101 200.844 530.1 201.051C530.091 202.883 520.666 204.377 507.89 204.761C505.336 204.837 502.782 204.869 500.228 204.855C483.74 204.773 470.384 202.937 470.395 200.753C470.396 200.546 470.446 192.714 470.446 192.714Z" fill="url(#paint12_linear_396_2191)"/>
<path d="M500.264 188.965C483.776 188.965 470.411 190.735 470.411 192.918C470.411 195.102 483.776 196.872 500.264 196.872C516.751 196.872 530.117 195.102 530.117 192.918C530.117 190.735 516.751 188.965 500.264 188.965Z" fill="#FFD65A"/>
<path d="M491.344 202.441C480.154 201.903 474.117 200.644 472.336 199.784C472.341 198.949 472.348 197.779 472.354 196.642C475.235 197.751 480.761 198.722 491.36 199.214L491.344 202.441Z" fill="#FFD685"/>
<path d="M470.496 183.284L508 183.487L530.186 183.606C530.186 183.606 530.152 191.414 530.151 191.621C530.142 193.454 520.717 194.948 507.941 195.332C505.387 195.408 502.833 195.439 500.279 195.426C483.791 195.343 470.434 193.507 470.445 191.323C470.446 191.116 470.496 183.284 470.496 183.284Z" fill="url(#paint13_linear_396_2191)"/>
<path d="M500.311 179.533C483.823 179.533 470.458 181.303 470.458 183.487C470.458 185.67 483.823 187.44 500.311 187.44C516.798 187.44 530.164 185.67 530.164 183.487C530.164 181.303 516.798 179.533 500.311 179.533Z" fill="#FFD65A"/>
<path d="M491.387 193.012C480.197 192.473 474.16 191.214 472.379 190.355C472.384 189.519 472.39 188.349 472.397 187.212C475.278 188.321 480.804 189.292 491.403 189.785L491.387 193.012Z" fill="#FFD685"/>
<path d="M470.539 173.853L508.043 174.055L530.229 174.175C530.229 174.175 530.195 181.982 530.194 182.189C530.185 184.022 520.76 185.516 507.984 185.9C505.43 185.976 502.876 186.007 500.322 185.994C483.834 185.912 470.477 184.075 470.488 181.892C470.489 181.685 470.539 173.853 470.539 173.853Z" fill="url(#paint14_linear_396_2191)"/>
<path d="M500.358 170.103C483.87 170.103 470.504 171.874 470.504 174.057C470.504 176.241 483.87 178.011 500.358 178.011C516.845 178.011 530.211 176.241 530.211 174.057C530.211 171.874 516.845 170.103 500.358 170.103Z" fill="#FFD65A"/>
<path d="M491.434 183.581C480.244 183.043 474.207 181.783 472.426 180.924C472.43 180.089 472.437 178.919 472.444 177.781C475.325 178.891 480.851 179.862 491.45 180.354L491.434 183.581Z" fill="#FFD685"/>
<path d="M470.586 164.423L508.089 164.625L530.275 164.745C530.275 164.745 530.242 172.553 530.241 172.759C530.232 174.592 520.807 176.086 508.03 176.47C505.477 176.546 502.923 176.578 500.368 176.564C483.881 176.482 470.524 174.645 470.535 172.462C470.536 172.255 470.586 164.423 470.586 164.423Z" fill="url(#paint15_linear_396_2191)"/>
<path d="M500.405 160.673C483.917 160.673 470.551 162.443 470.551 164.626C470.551 166.81 483.917 168.58 500.405 168.58C516.892 168.58 530.258 166.81 530.258 164.626C530.258 162.443 516.892 160.673 500.405 160.673Z" fill="#FFD65A"/>
<path d="M491.481 174.321C480.291 173.783 474.254 172.523 472.473 171.664C472.477 170.829 472.484 169.659 472.49 168.521C475.372 169.631 480.898 170.602 491.497 171.094L491.481 174.321Z" fill="#FFD685"/>
<path d="M470.586 154.992L508.089 155.195L530.275 155.314C530.275 155.314 530.242 163.122 530.241 163.329C530.232 165.162 520.807 166.656 508.03 167.04C505.477 167.116 502.923 167.147 500.368 167.134C483.881 167.051 470.524 165.215 470.535 163.031C470.536 162.824 470.586 154.992 470.586 154.992Z" fill="url(#paint16_linear_396_2191)"/>
<path d="M500.405 151.243C483.917 151.243 470.551 153.013 470.551 155.197C470.551 157.38 483.917 159.15 500.405 159.15C516.892 159.15 530.258 157.38 530.258 155.197C530.258 153.013 516.892 151.243 500.405 151.243Z" fill="#FFD65A"/>
<path d="M491.481 164.892C480.291 164.354 474.254 163.095 472.473 162.236C472.477 161.4 472.484 160.23 472.49 159.093C475.372 160.202 480.898 161.173 491.497 161.666L491.481 164.892Z" fill="#FFD685"/>
<path d="M470.586 145.562L508.089 145.765L530.275 145.885C530.275 145.885 530.242 153.692 530.241 153.899C530.232 155.732 520.807 157.226 508.03 157.61C505.477 157.686 502.923 157.717 500.368 157.704C483.881 157.622 470.524 155.785 470.535 153.602C470.536 153.395 470.586 145.562 470.586 145.562Z" fill="url(#paint17_linear_396_2191)"/>
<path d="M500.405 141.813C483.917 141.813 470.551 143.583 470.551 145.767C470.551 147.951 483.917 149.721 500.405 149.721C516.892 149.721 530.258 147.951 530.258 145.767C530.258 143.583 516.892 141.813 500.405 141.813Z" fill="#FFD65A"/>
<path d="M491.481 155.463C480.291 154.924 474.254 153.665 472.473 152.806C472.477 151.97 472.484 150.801 472.49 149.663C475.372 150.772 480.898 151.744 491.497 152.236L491.481 155.463Z" fill="#FFD685"/>
<path d="M470.586 136.134L508.089 136.336L530.275 136.456C530.275 136.456 530.242 144.264 530.241 144.47C530.232 146.303 520.807 147.797 508.03 148.181C505.477 148.257 502.923 148.289 500.368 148.275C483.881 148.193 470.524 146.357 470.535 144.173C470.536 143.966 470.586 136.134 470.586 136.134Z" fill="url(#paint18_linear_396_2191)"/>
<path d="M500.405 132.384C483.917 132.384 470.551 134.154 470.551 136.337C470.551 138.521 483.917 140.291 500.405 140.291C516.892 140.291 530.258 138.521 530.258 136.337C530.258 134.154 516.892 132.384 500.405 132.384Z" fill="#FFD65A"/>
<path d="M491.481 146.033C480.291 145.495 474.254 144.235 472.473 143.376C472.477 142.541 472.484 141.371 472.49 140.233C475.372 141.343 480.898 142.314 491.497 142.806L491.481 146.033Z" fill="#FFD685"/>
<path d="M470.586 126.703L508.089 126.906L530.275 127.025C530.275 127.025 530.242 134.833 530.241 135.04C530.232 136.873 520.807 138.367 508.03 138.751C505.477 138.827 502.923 138.858 500.368 138.845C483.881 138.762 470.524 136.926 470.535 134.742C470.536 134.535 470.586 126.703 470.586 126.703Z" fill="url(#paint19_linear_396_2191)"/>
<path d="M500.405 122.955C483.917 122.955 470.551 124.725 470.551 126.909C470.551 129.092 483.917 130.862 500.405 130.862C516.892 130.862 530.258 129.092 530.258 126.909C530.258 124.725 516.892 122.955 500.405 122.955Z" fill="#FFD65A"/>
<path d="M491.481 136.603C480.291 136.065 474.254 134.806 472.473 133.947C472.477 133.111 472.484 131.941 472.49 130.804C475.372 131.913 480.898 132.884 491.497 133.376L491.481 136.603Z" fill="#FFD685"/>
<path d="M470.586 117.569L508.089 117.772L530.275 117.892C530.275 117.892 530.242 125.699 530.241 125.906C530.232 127.739 520.807 129.233 508.03 129.617C505.477 129.693 502.923 129.724 500.368 129.711C483.881 129.629 470.524 127.792 470.535 125.608C470.536 125.401 470.586 117.569 470.586 117.569Z" fill="url(#paint20_linear_396_2191)"/>
<path d="M500.405 113.821C483.917 113.821 470.551 115.591 470.551 117.775C470.551 119.958 483.917 121.729 500.405 121.729C516.892 121.729 530.258 119.958 530.258 117.775C530.258 115.591 516.892 113.821 500.405 113.821Z" fill="#FFD65A"/>
<path d="M491.481 127.469C480.291 126.93 474.254 125.671 472.473 124.812C472.477 123.976 472.484 122.806 472.49 121.669C475.372 122.778 480.898 123.749 491.497 124.242L491.481 127.469Z" fill="#FFD685"/>
<path d="M470.586 108.477L508.089 108.679L530.275 108.799C530.275 108.799 530.242 116.606 530.241 116.813C530.232 118.646 520.807 120.14 508.03 120.524C505.477 120.6 502.923 120.631 500.368 120.618C483.881 120.536 470.524 118.699 470.535 116.516C470.536 116.309 470.586 108.477 470.586 108.477Z" fill="url(#paint21_linear_396_2191)"/>
<path d="M500.405 104.727C483.917 104.727 470.551 106.498 470.551 108.681C470.551 110.865 483.917 112.635 500.405 112.635C516.892 112.635 530.258 110.865 530.258 108.681C530.258 106.498 516.892 104.727 500.405 104.727Z" fill="#FFD65A"/>
<path d="M491.481 118.376C480.291 117.838 474.254 116.578 472.473 115.719C472.477 114.883 472.484 113.714 472.49 112.576C475.372 113.686 480.898 114.657 491.497 115.149L491.481 118.376Z" fill="#FFD685"/>
<path d="M470.586 99.4004L508.089 99.603L530.275 99.7226C530.275 99.7226 530.242 107.53 530.241 107.737C530.232 109.57 520.807 111.064 508.03 111.448C505.477 111.524 502.923 111.555 500.368 111.542C483.881 111.46 470.524 109.623 470.535 107.439C470.536 107.232 470.586 99.4004 470.586 99.4004Z" fill="url(#paint22_linear_396_2191)"/>
<path d="M500.405 95.6523C483.917 95.6523 470.551 97.4224 470.551 99.6059C470.551 101.789 483.917 103.56 500.405 103.56C516.892 103.56 530.258 101.789 530.258 99.6059C530.258 97.4224 516.892 95.6523 500.405 95.6523Z" fill="#FFD65A"/>
<path d="M491.481 109.3C480.291 108.761 474.254 107.502 472.473 106.643C472.477 105.807 472.484 104.638 472.49 103.5C475.372 104.609 480.898 105.581 491.497 106.073L491.481 109.3Z" fill="#FFD685"/>
<path d="M500.246 193.4L537.75 193.603L559.936 193.723C559.936 193.723 559.902 201.53 559.901 201.737C559.892 203.57 550.467 205.064 537.69 205.448C535.137 205.524 532.583 205.555 530.028 205.542C513.541 205.46 500.184 203.623 500.195 201.439C500.196 201.232 500.246 193.4 500.246 193.4Z" fill="url(#paint23_linear_396_2191)"/>
<path d="M530.065 189.648C513.577 189.648 500.211 191.418 500.211 193.602C500.211 195.786 513.577 197.556 530.065 197.556C546.552 197.556 559.918 195.786 559.918 193.602C559.918 191.418 546.552 189.648 530.065 189.648Z" fill="#FFD65A"/>
<path d="M521.141 203.128C509.951 202.59 503.914 201.33 502.133 200.471C502.138 199.635 502.144 198.466 502.151 197.328C505.032 198.437 510.558 199.409 521.157 199.901L521.141 203.128Z" fill="#FFD685"/>
<path d="M500.297 183.626L537.8 183.829L559.986 183.948C559.986 183.948 559.953 191.756 559.952 191.963C559.943 193.796 550.518 195.289 537.741 195.674C535.188 195.75 532.634 195.781 530.079 195.768C513.592 195.685 500.235 193.849 500.246 191.665C500.247 191.458 500.297 183.626 500.297 183.626Z" fill="url(#paint24_linear_396_2191)"/>
<path d="M530.112 179.876C513.624 179.876 500.258 181.646 500.258 183.83C500.258 186.013 513.624 187.783 530.112 187.783C546.599 187.783 559.965 186.013 559.965 183.83C559.965 181.646 546.599 179.876 530.112 179.876Z" fill="#FFD65A"/>
<path d="M522.559 193.704C511.369 193.166 505.332 191.906 503.551 191.047C503.555 190.212 503.562 189.042 503.569 187.904C506.45 189.014 511.976 189.985 522.575 190.477L522.559 193.704Z" fill="#FFD685"/>
<path d="M500.344 174.195L537.847 174.398L560.033 174.518C560.033 174.518 560 182.325 559.999 182.532C559.99 184.365 550.565 185.859 537.788 186.243C535.235 186.319 532.68 186.35 530.126 186.337C513.639 186.255 500.282 184.418 500.293 182.234C500.294 182.027 500.344 174.195 500.344 174.195Z" fill="url(#paint25_linear_396_2191)"/>
<path d="M530.158 170.445C513.671 170.445 500.305 172.215 500.305 174.399C500.305 176.582 513.671 178.353 530.158 178.353C546.646 178.353 560.012 176.582 560.012 174.399C560.012 172.215 546.646 170.445 530.158 170.445Z" fill="#FFD65A"/>
<path d="M521.235 183.924C510.045 183.385 504.008 182.126 502.227 181.267C502.231 180.431 502.238 179.262 502.244 178.124C505.126 179.233 510.651 180.205 521.251 180.697L521.235 183.924Z" fill="#FFD685"/>
<path d="M500.387 164.765L537.89 164.967L560.076 165.087C560.076 165.087 560.043 172.894 560.042 173.101C560.033 174.934 550.608 176.428 537.831 176.812C535.278 176.888 532.724 176.919 530.169 176.906C513.682 176.824 500.325 174.987 500.336 172.804C500.337 172.597 500.387 164.765 500.387 164.765Z" fill="url(#paint26_linear_396_2191)"/>
<path d="M530.205 161.016C513.718 161.016 500.352 162.786 500.352 164.969C500.352 167.153 513.718 168.923 530.205 168.923C546.693 168.923 560.059 167.153 560.059 164.969C560.059 162.786 546.693 161.016 530.205 161.016Z" fill="#FFD65A"/>
<path d="M521.281 174.493C510.092 173.955 504.055 172.695 502.273 171.836C502.278 171.001 502.285 169.831 502.291 168.693C505.173 169.803 510.698 170.774 521.298 171.266L521.281 174.493Z" fill="#FFD685"/>
<path d="M531.079 166.849C546.82 166.849 559.581 154.089 559.581 138.348C559.581 122.607 546.82 109.847 531.079 109.847C515.339 109.847 502.578 122.607 502.578 138.348C502.578 154.089 515.339 166.849 531.079 166.849Z" fill="url(#paint27_linear_396_2191)"/>
<path d="M531.077 165.058C545.828 165.058 557.787 153.1 557.787 138.348C557.787 123.597 545.828 111.639 531.077 111.639C516.326 111.639 504.367 123.597 504.367 138.348C504.367 153.1 516.326 165.058 531.077 165.058Z" fill="#FFD65A"/>
<path d="M519.322 153.987L520.828 151.864C519.458 150.607 518.474 149.402 517.876 148.249C517.278 147.096 517.019 145.736 517.101 144.168C517.152 143.179 517.386 142.174 517.801 141.156C518.217 140.138 519.41 139.677 520.409 140.137C521.324 140.558 521.772 141.619 521.415 142.561C521.007 143.638 520.821 144.576 520.857 145.375C520.945 147.046 521.536 148.362 522.631 149.322L529.426 139.741C528.355 138.629 527.43 137.253 526.65 135.611C526.071 134.396 525.858 133.131 526.012 131.816C526.166 130.501 526.669 129.241 527.523 128.037C529.041 125.897 531.029 124.701 533.486 124.45C535.132 124.277 537.025 124.798 539.163 126.013L540.566 124.034C540.913 123.545 541.591 123.429 542.08 123.776C542.57 124.124 542.685 124.802 542.338 125.291L540.935 127.27C542.567 128.678 543.591 130.175 544.007 131.761C544.353 133.058 544.367 134.368 544.047 135.694C543.754 136.909 542.426 137.557 541.31 136.993C540.492 136.58 540.073 135.64 540.337 134.763C540.561 134.022 540.636 133.334 540.565 132.7C540.449 131.671 539.971 130.708 539.132 129.812L532.977 138.49C534.225 139.944 535.018 140.951 535.359 141.511C536.003 142.587 536.41 143.631 536.582 144.64C536.754 145.65 536.71 146.675 536.451 147.714C536.191 148.753 535.726 149.746 535.053 150.694C533.575 152.778 531.678 154.047 529.364 154.5C527.049 154.952 524.802 154.481 522.624 153.088L521.095 155.245C520.747 155.734 520.069 155.849 519.58 155.502C519.091 155.155 518.975 154.477 519.322 153.987ZM537.384 128.521C536.087 127.869 534.832 127.683 533.62 127.963C532.408 128.243 531.434 128.901 530.699 129.938C529.972 130.963 529.65 132.025 529.734 133.123C529.818 134.222 530.399 135.463 531.478 136.848L537.384 128.521ZM524.403 150.579C525.677 151.265 527.004 151.443 528.384 151.115C529.764 150.787 530.909 149.982 531.818 148.7C532.593 147.608 532.945 146.538 532.875 145.492C532.805 144.445 532.147 143.086 530.902 141.416L524.403 150.579Z" fill="url(#paint28_linear_396_2191)"/>
<path d="M520.451 152.394L521.957 150.27C520.587 149.013 519.602 147.808 519.004 146.655C518.406 145.502 518.148 144.142 518.229 142.575C518.281 141.585 518.514 140.58 518.93 139.562C519.346 138.544 520.539 138.083 521.537 138.543C522.453 138.964 522.901 140.025 522.544 140.967C522.136 142.044 521.949 142.982 521.985 143.781C522.074 145.452 522.665 146.768 523.76 147.728L530.555 138.147C529.484 137.035 528.558 135.659 527.779 134.017C527.2 132.802 526.987 131.537 527.141 130.222C527.295 128.907 527.798 127.647 528.652 126.443C530.17 124.303 532.157 123.107 534.614 122.856C536.261 122.684 538.154 123.205 540.291 124.419L541.695 122.44C542.042 121.951 542.72 121.836 543.209 122.183C543.699 122.53 543.814 123.208 543.467 123.697L542.064 125.676C543.695 127.085 544.72 128.582 545.136 130.168C545.482 131.464 545.495 132.775 545.176 134.1C544.883 135.316 543.555 135.963 542.439 135.4C541.621 134.987 541.202 134.046 541.466 133.169C541.69 132.428 541.765 131.741 541.694 131.106C541.577 130.077 541.1 129.114 540.261 128.218L534.106 136.896C535.354 138.35 536.147 139.357 536.488 139.917C537.131 140.994 537.539 142.037 537.711 143.047C537.883 144.057 537.839 145.081 537.58 146.12C537.32 147.159 536.855 148.152 536.182 149.1C534.704 151.185 532.807 152.453 530.493 152.906C528.178 153.358 525.931 152.888 523.753 151.494L522.224 153.651C521.876 154.14 521.198 154.256 520.709 153.909C520.219 153.561 520.104 152.883 520.451 152.394ZM538.513 126.927C537.216 126.275 535.961 126.089 534.749 126.369C533.537 126.649 532.563 127.307 531.828 128.344C531.101 129.369 530.779 130.431 530.863 131.529C530.947 132.628 531.528 133.869 532.607 135.254L538.513 126.927ZM525.532 148.985C526.806 149.671 528.132 149.849 529.513 149.521C530.893 149.193 532.038 148.388 532.947 147.106C533.722 146.014 534.074 144.944 534.004 143.898C533.934 142.851 533.276 141.492 532.031 139.822L525.532 148.985Z" fill="#FFEDC0"/>
<path d="M144.234 322.796H158.002V349.603H144.234V322.796ZM517.428 234.133H531.196V259.636H517.428V234.133Z" fill="#7AC7E2"/>
<path d="M531.194 259.636C531.194 263.438 528.112 266.52 524.31 266.52L151.116 356.487C147.314 356.487 144.232 353.405 144.232 349.603C144.232 345.801 147.314 342.719 151.116 342.719L524.31 252.752C528.112 252.752 531.194 255.834 531.194 259.636ZM169.171 312.805H132.332C126.663 312.805 122.066 317.401 122.066 323.071H179.437C179.437 317.401 174.84 312.805 169.171 312.805Z" fill="#7AC7E2"/>
<path d="M212.899 314.383H91.2212C72.4939 314.383 57.3125 299.202 57.3125 280.475H246.808C246.808 299.202 231.627 314.383 212.899 314.383Z" fill="#97D6F2"/>
<path opacity="0.52" d="M91.223 307.864C78.3651 307.864 67.5496 298.96 64.6172 286.994H239.506C236.574 298.96 225.758 307.864 212.9 307.864H91.223Z" fill="url(#paint29_linear_396_2191)"/>
<path d="M542.366 224.83H505.528C499.858 224.83 495.262 229.426 495.262 235.096H552.632C552.632 229.426 548.036 224.83 542.366 224.83Z" fill="#7AC7E2"/>
<path d="M586.091 226.41H464.413C445.685 226.41 430.504 211.228 430.504 192.501H620C620 211.228 604.818 226.41 586.091 226.41Z" fill="#97D6F2"/>
<path opacity="0.52" d="M464.414 219.89C451.556 219.89 440.741 210.985 437.809 199.02H612.698C609.765 210.985 598.95 219.89 586.092 219.89H464.414Z" fill="url(#paint30_linear_396_2191)"/>
<path d="M96.1499 157.155C96.7263 124.971 123.909 99.5059 156.352 101.354C185.8 103.032 209.351 127.457 209.957 156.948C210.375 177.309 200.143 195.211 184.523 205.594C177.814 210.052 173.716 217.513 173.572 225.566L173.517 228.663C173.387 235.92 167.342 241.752 160.084 241.622L141.942 241.297C134.684 241.167 128.852 235.123 128.982 227.865L129.052 223.994C129.195 215.996 125.353 208.528 118.952 203.73C104.826 193.141 95.8097 176.156 96.1499 157.155Z" fill="#FFD880"/>
<path d="M115.208 175.021L147.383 241.598C147.95 242.772 149.338 243.5 150.602 243.522L151.702 243.542C152.947 243.564 154.404 242.892 154.989 241.734L189.204 173.923C190.899 170.562 187.376 167.452 184.702 168.278C184.178 168.14 183.599 168.106 182.965 168.226C180.155 168.757 177.309 168.784 174.549 168.313C175.607 161.442 172.754 151.925 167.228 147.878C162.167 144.173 154.489 144.943 151.786 151.091C148.427 158.729 154.914 166.336 160.75 170.533C161.522 171.089 162.319 171.595 163.13 172.066C160.274 173.203 156.47 172.96 153.591 172.477C150.924 172.03 148.27 171.262 145.752 170.194C150.781 162.803 149.774 152.472 141.698 147.699C135.312 143.925 127.091 147.088 125.67 154.588C124.516 160.679 128.206 166.574 132.619 170.668C129.1 171.593 125.161 171.174 121.647 170.15C121.319 170.054 121.007 170.01 120.705 169.994C118.044 167.99 113.388 171.255 115.208 175.021ZM139.169 166.382C135.933 163.817 131.208 158.844 133.361 155.01C135.606 151.011 140.372 155.875 141.106 158.532C141.869 161.293 140.876 164.164 139.169 166.382ZM167.189 165.696C166.991 165.585 166.785 165.491 166.589 165.374C164.169 163.927 161.639 161.879 160.075 159.478C158.818 157.548 157.045 153.026 160.793 153.157C165.231 153.312 167.193 161.389 167.189 165.696ZM125.24 178.491C130.378 179.012 135.605 178.225 139.923 175.661C149.723 180.631 164.872 183.526 171.542 175.347C174.202 175.945 176.941 176.193 179.692 176.096L151.288 232.39L125.24 178.491Z" fill="#F5C859"/>
<path d="M123.055 236.338C119.425 231.523 123.177 229.486 123.177 229.486C141.07 235.491 160.559 236.654 178.799 230.768C178.799 230.768 182.901 231.743 178.673 237.803C167.505 253.811 134.631 251.696 123.055 236.338Z" fill="#D6D6D6"/>
<path d="M123.043 236.943L123.054 236.338C141.242 242.589 160.633 245.258 178.672 237.804L178.658 238.571C162.236 248.836 139.879 245.462 123.043 236.943Z" fill="#B2B2B2"/>
<path d="M178.659 238.571L178.418 252.009C178.417 252.065 178.412 252.121 178.411 252.177C161.092 259.966 140.717 258.015 122.797 250.7L123.043 236.943C139.879 245.463 162.237 248.837 178.659 238.571Z" fill="#C4C4C4"/>
<path d="M123.751 258.345C118.974 253.881 122.793 250.699 122.793 250.699C140.714 258.015 161.088 259.965 178.407 252.176C179.854 253.23 181.149 257.671 176.444 261.267C160.079 268.302 139.412 266.65 123.751 258.345Z" fill="#D6D6D6"/>
<path d="M123.775 258.411C123.769 258.388 123.76 258.368 123.754 258.346C139.415 266.65 160.082 268.303 176.447 261.267C176.089 262.113 175.671 262.926 175.225 263.72C158.872 271.99 137.421 269.893 123.775 258.411Z" fill="#B2B2B2"/>
<path d="M175.224 263.72C170.887 271.449 162.569 276.619 153.085 276.449L147.231 276.344C136.056 276.144 126.738 268.608 123.775 258.411C137.421 269.893 158.871 271.989 175.224 263.72ZM123.176 229.487L123.22 227.006C123.287 223.287 126.356 220.326 130.075 220.393C130.075 220.393 150.732 224.539 172.234 221.148C175.908 220.568 178.914 224.283 178.847 228.002L178.798 230.768C160.557 236.654 141.068 235.491 123.176 229.487Z" fill="#C4C4C4"/>
<path opacity="0.2" d="M172.852 248.678C172.006 254.825 169.912 260.878 166.208 265.855C164.13 268.646 160.958 271.272 157.542 270.607C156.924 270.486 156.311 270.249 155.854 269.815C154.895 268.902 154.857 267.411 154.885 266.087C155.142 253.926 155.149 241.729 155.656 229.576C156.014 221 170.012 221.599 172.233 229.222C173.966 235.17 173.687 242.607 172.852 248.678Z" fill="white"/>
<path opacity="0.46" d="M180.98 117.966C186.56 121.567 191.83 127.848 194.76 133.808C197.268 138.909 197.899 145.66 194.012 149.808C190.747 153.293 185.422 153.812 180.659 153.457C178.828 153.321 176.963 153.077 175.313 152.27C171.133 150.225 169.445 145.287 167.774 140.944C165.282 134.47 161.99 128.335 157.973 122.68C156.695 120.883 155.323 119.093 154.647 116.994C152.735 111.066 157.856 108.675 163.364 109.968C170.889 111.736 175.334 114.324 180.98 117.966ZM185.327 189.651C183.291 191.55 180.985 193.454 178.214 193.728C177.301 193.818 176.339 193.712 175.552 193.239C174.077 192.352 173.589 190.47 173.335 188.768C172.333 182.06 173.085 174.773 177.079 169.292C179.566 165.882 183.487 163.416 187.669 162.765C190.556 162.315 195.913 162.589 197.461 165.582C199.364 169.26 196.355 175.455 194.529 178.632C192.135 182.799 188.824 186.389 185.327 189.651Z" fill="white"/>
<path d="M47.6143 269.996C49.7825 272.39 53.1821 279.037 55.3543 288.152C57.2624 296.159 56.2638 316.009 56.3167 325.042C56.3209 325.749 57.21 328.134 56.7929 328.706C56.1611 329.572 54.3318 329.863 53.19 328.849C52.0254 327.814 52.2514 326.838 51.7588 325.359C49.5961 318.868 37.9245 282.516 33.6898 271.136C32.6952 268.464 31.6383 267.569 31.6072 264.717C31.6033 264.338 31.6042 264.009 31.6275 263.624C38.9691 270.52 40.5539 265.369 47.6143 269.996Z" fill="#E28B5A"/>
<path d="M51.2148 323.472C51.4775 324.525 51.7274 325.977 51.9353 327.088C52.3746 329.438 51.7844 332.008 51.6372 334.058C51.5856 334.777 52.262 335.628 53.2608 336.095C53.5639 336.236 53.843 336.368 54.0503 336.471C56.341 331.272 61.6277 321.666 61.5506 321.361C61.3443 320.546 59.2431 319.381 56.3922 318.451C56.207 319.137 55.4387 320.285 54.8067 321.101C53.7226 322.5 52.2533 323.066 51.2148 323.472Z" fill="#E54A6E"/>
<path d="M52.4082 254.086C44.7464 259.014 38.6688 263.694 38.3468 266.892C38.2134 268.216 38.6899 269.745 39.2877 270.992L39.5583 271.072C50.1691 274.21 61.582 272.975 71.2974 267.68C73.056 266.721 74.6299 265.889 75.6685 265.38C75.6922 265.369 78.3765 261.712 78.4003 261.701C73.5634 253.253 61.7378 254.615 52.4082 254.086Z" fill="#E28B5A"/>
<path d="M44.8467 272.993C46.0539 275.989 46.0578 283.401 44.9461 292.705C43.9695 300.879 37.0611 319.161 33.989 327.655C33.7483 328.32 33.7586 330.866 33.1696 331.258C32.2774 331.852 30.4603 331.493 29.7393 330.147C29.0041 328.773 29.5535 327.935 29.6023 326.378C29.8161 319.539 31.4272 281.393 31.386 269.251C31.3762 266.4 30.6938 265.195 31.65 262.508C31.7777 262.151 31.892 261.842 32.0469 261.489C36.5531 270.497 39.8203 266.211 44.8467 272.993Z" fill="#FF9E73"/>
<path d="M29.6803 324.691C29.5389 325.768 29.2994 327.191 29.0857 328.301C28.6339 330.648 27.1433 332.824 26.2552 334.678C25.9441 335.328 26.2616 336.367 27.0202 337.167C27.2504 337.41 27.4619 337.635 27.6171 337.807C31.6528 333.808 40.0906 326.806 40.1304 326.494C40.2371 325.66 38.4365 323.735 36.1242 321.826C35.7008 322.396 34.9085 323.078 34.0215 323.606C32.5005 324.51 30.7953 324.694 29.6803 324.691Z" fill="#E54A6E"/>
<path d="M49.3861 254.8C40.4934 256.776 33.21 259.032 31.8024 261.922C31.2198 263.118 31.1012 264.753 31.2314 266.13L31.4576 266.298C40.3303 272.91 51.4664 275.696 62.4134 274.084C64.3949 273.793 66.1593 273.556 67.3098 273.437C67.3361 273.435 71.1186 270.931 71.145 270.928C69.5257 261.329 57.9581 258.52 49.3861 254.8Z" fill="#FF9E73"/>
<path d="M69.8123 200.928C70.3986 202.608 70.9851 204.288 71.6418 205.942C73.6279 210.94 76.2423 215.666 79.4221 220.004C79.6214 220.276 79.8704 220.572 80.2076 220.581C80.8254 220.597 83.2298 220.323 83.1927 219.706C82.7274 211.971 80.5931 203.74 79.3891 196.086C79.0705 194.06 78.0484 191.875 76.8453 190.214C75.2131 187.962 71.0561 180.188 68.5823 182.705C67.0888 184.224 65.2846 186.617 65.8477 188.23C66.7777 190.895 68.8822 198.264 69.8123 200.928Z" fill="#602615"/>
<path d="M92.0904 205.675L82.2595 213.621L79.1797 196.485L87.2412 186.725L92.0904 205.675Z" fill="#E28B5A"/>
<path d="M82.8014 276.787C82.0888 266.614 80.146 257.241 79.9848 255.536C78.8418 247.622 73.9675 228.143 75.0238 224.908C75.5589 220.996 80.0719 213.033 81.3515 208.582C85.4433 210.58 87.4072 204.392 87.9523 202.131C89.5123 201.4 91.2018 200.714 93.282 200.062C94.4062 201.321 95.6429 202.806 96.8362 204.435C94.7268 208.28 94.6321 212.46 97.3866 215.749C98.877 217.526 94.6043 255.882 99.5067 271.16C91.5398 274.171 86.2412 274.037 82.8014 276.787Z" fill="#00497F"/>
<path d="M85.4108 185.631C86.1259 193.638 82.86 200.52 77.8965 201.024C72.9329 201.528 68.2493 195.453 67.4357 187.456C66.6221 179.459 66.1325 177.267 71.2506 175.798C77.9295 173.882 84.3483 173.74 85.4108 185.631Z" fill="#FF9E73"/>
<path d="M71.1945 183.254C69.8587 185.368 68.2846 187.658 65.8506 188.231C65.1554 185.531 64.4634 182.652 65.3315 180.002C65.911 178.233 67.1892 176.704 68.827 175.819C70.2904 175.029 74.2145 173.663 74.9971 176.081C75.6105 177.976 72.1753 181.702 71.1945 183.254Z" fill="#8A3811"/>
<path d="M65.9077 179.342C66.9405 175.715 71.0414 172.448 75.283 171.811C80.4215 171.04 86.0173 170.868 89.8649 176.409C101.181 192.706 99.1529 233.85 109.182 241.601C106.58 248.632 102.194 250.342 97.181 255.825C97.1151 255.462 92.3186 213.626 92.1803 213.279C88.2242 203.353 81.6619 193.457 78.9024 191.155C71.0417 185.523 66.1487 184.868 65.6528 183.974C65.2734 183.29 65.694 180.094 65.9077 179.342Z" fill="#8A3811"/>
<path d="M78.5096 245.156C77.5993 245.128 77.8404 245.639 78.0487 246.287C78.3982 245.761 79.066 245.174 78.5096 245.156Z" fill="#FF7878"/>
<path d="M78.0509 246.288C77.8523 246.587 77.7556 246.867 78.0468 247.011C78.0985 247.037 78.1536 247.058 78.2062 247.082C78.2048 246.812 78.1322 246.54 78.0509 246.288Z" fill="#FF7878"/>
<path d="M99.5103 259.165C97.7118 254.324 97.2579 253.672 95.7783 250.757C93.1322 245.543 83.4997 249.533 78.2083 247.082C78.2098 247.381 78.1231 247.676 77.8472 247.935C73.2718 252.235 63.0638 252.756 56.7335 253.38C53.3469 253.714 45.0714 255.189 44.2855 255.328C41.6349 255.798 44.2164 265.22 45.2174 267.834C46.016 269.92 51.0644 278.825 52.5954 283.26C72.4441 283.872 106.295 285.421 99.5103 259.165Z" fill="#00497F"/>
<path d="M59.4142 239.882C58.3992 240.23 57.681 240.958 57.3069 241.715C57.1512 242.03 57.046 242.374 57.1754 242.677C57.344 243.071 57.8866 243.315 58.4566 243.385C59.0266 243.455 59.6276 243.382 60.2151 243.308L64.1124 242.82C64.3086 242.795 64.5185 242.766 64.669 242.665C64.7693 242.598 64.8304 242.507 64.8849 242.418C66.4077 239.926 62.0335 238.986 59.4142 239.882Z" fill="#FF9E73"/>
<path d="M82.7697 228.946C83.2487 235.263 83.2797 240.77 84.008 246.394C78.6837 243.592 70.4437 241.172 63.1852 239.805C62.7799 239.729 61.8754 239.749 61.479 239.862C60.5364 240.132 62.4285 242.323 61.8495 243.114C63.575 243.125 70.0702 246.536 71.9041 247.826C76.9768 251.396 84.8804 255.677 88.0405 253.915C88.0313 253.849 88.538 253.553 88.539 253.484C90.1094 251.604 91.0665 249.471 91.5312 245.37C92.312 238.482 93.2822 233.496 92.8665 228.653C89.4672 227.973 85.9067 227.953 82.7697 228.946Z" fill="#FF9E73"/>
<path d="M30.013 230.851L42.9011 255.246C43.1411 255.701 43.7561 256.093 44.2828 256.039L74.0663 252.98C76.0951 252.771 76.1165 249.569 74.0663 249.779L60.487 251.174L50.4966 252.2C49.856 252.266 45.1572 252.773 45.1572 252.773C45.1572 252.773 44.3345 251.113 44.0198 250.518L39.6313 242.211L32.7762 229.236C31.814 227.414 29.0506 229.03 30.013 230.851Z" fill="#004070"/>
<path d="M545.664 287.136L545.309 286.299L558.19 280.839V284.119L573.101 277.559L573.467 278.391L557.28 285.512V282.211L545.664 287.136ZM545.778 300.207H550.831V316.138H545.778V300.207ZM553.123 297.615H558.176V316.138H553.123V297.615ZM560.721 289.75H565.774V316.138H560.721V289.75ZM568.313 286.717H573.366V316.138H568.313V286.717Z" fill="#A8E0FF"/>
<path d="M572.977 279.602L572.02 276.886L573.856 277.765L572.977 279.602Z" fill="#A8E0FF"/>
<defs>
<linearGradient id="paint0_linear_396_2191" x1="577.005" y1="211.247" x2="517.299" y2="210.948" gradientUnits="userSpaceOnUse">
<stop stop-color="#F2BF40"/>
<stop offset="0.684" stop-color="#F2BF40"/>
<stop offset="0.866" stop-color="#F7BA40"/>
<stop offset="1" stop-color="#FFB340"/>
</linearGradient>
<linearGradient id="paint1_linear_396_2191" x1="577.056" y1="201.473" x2="517.35" y2="201.175" gradientUnits="userSpaceOnUse">
<stop stop-color="#F2BF40"/>
<stop offset="0.684" stop-color="#F2BF40"/>
<stop offset="0.866" stop-color="#F7BA40"/>
<stop offset="1" stop-color="#FFB340"/>
</linearGradient>
<linearGradient id="paint2_linear_396_2191" x1="577.103" y1="192.044" x2="517.397" y2="191.745" gradientUnits="userSpaceOnUse">
<stop stop-color="#F2BF40"/>
<stop offset="0.684" stop-color="#F2BF40"/>
<stop offset="0.866" stop-color="#F7BA40"/>
<stop offset="1" stop-color="#FFB340"/>
</linearGradient>
<linearGradient id="paint3_linear_396_2191" x1="577.15" y1="182.612" x2="517.444" y2="182.313" gradientUnits="userSpaceOnUse">
<stop stop-color="#F2BF40"/>
<stop offset="0.684" stop-color="#F2BF40"/>
<stop offset="0.866" stop-color="#F7BA40"/>
<stop offset="1" stop-color="#FFB340"/>
</linearGradient>
<linearGradient id="paint4_linear_396_2191" x1="577.197" y1="173.182" x2="517.491" y2="172.884" gradientUnits="userSpaceOnUse">
<stop stop-color="#F2BF40"/>
<stop offset="0.684" stop-color="#F2BF40"/>
<stop offset="0.866" stop-color="#F7BA40"/>
<stop offset="1" stop-color="#FFB340"/>
</linearGradient>
<linearGradient id="paint5_linear_396_2191" x1="577.243" y1="163.751" x2="517.538" y2="163.452" gradientUnits="userSpaceOnUse">
<stop stop-color="#F2BF40"/>
<stop offset="0.684" stop-color="#F2BF40"/>
<stop offset="0.866" stop-color="#F7BA40"/>
<stop offset="1" stop-color="#FFB340"/>
</linearGradient>
<linearGradient id="paint6_linear_396_2191" x1="577.243" y1="154.321" x2="517.538" y2="154.022" gradientUnits="userSpaceOnUse">
<stop stop-color="#F2BF40"/>
<stop offset="0.684" stop-color="#F2BF40"/>
<stop offset="0.866" stop-color="#F7BA40"/>
<stop offset="1" stop-color="#FFB340"/>
</linearGradient>
<linearGradient id="paint7_linear_396_2191" x1="577.197" y1="145.044" x2="517.491" y2="144.745" gradientUnits="userSpaceOnUse">
<stop stop-color="#F2BF40"/>
<stop offset="0.684" stop-color="#F2BF40"/>
<stop offset="0.866" stop-color="#F7BA40"/>
<stop offset="1" stop-color="#FFB340"/>
</linearGradient>
<linearGradient id="paint8_linear_396_2191" x1="577.243" y1="135.613" x2="517.538" y2="135.314" gradientUnits="userSpaceOnUse">
<stop stop-color="#F2BF40"/>
<stop offset="0.684" stop-color="#F2BF40"/>
<stop offset="0.866" stop-color="#F7BA40"/>
<stop offset="1" stop-color="#FFB340"/>
</linearGradient>
<linearGradient id="paint9_linear_396_2191" x1="577.243" y1="126.183" x2="517.538" y2="125.885" gradientUnits="userSpaceOnUse">
<stop stop-color="#F2BF40"/>
<stop offset="0.684" stop-color="#F2BF40"/>
<stop offset="0.866" stop-color="#F7BA40"/>
<stop offset="1" stop-color="#FFB340"/>
</linearGradient>
<linearGradient id="paint10_linear_396_2191" x1="530.017" y1="218.212" x2="470.311" y2="217.914" gradientUnits="userSpaceOnUse">
<stop stop-color="#F2BF40"/>
<stop offset="0.684" stop-color="#F2BF40"/>
<stop offset="0.866" stop-color="#F7BA40"/>
<stop offset="1" stop-color="#FFB340"/>
</linearGradient>
<linearGradient id="paint11_linear_396_2191" x1="530.064" y1="208.439" x2="470.358" y2="208.141" gradientUnits="userSpaceOnUse">
<stop stop-color="#F2BF40"/>
<stop offset="0.684" stop-color="#F2BF40"/>
<stop offset="0.866" stop-color="#F7BA40"/>
<stop offset="1" stop-color="#FFB340"/>
</linearGradient>
<linearGradient id="paint12_linear_396_2191" x1="530.111" y1="199.008" x2="470.405" y2="198.71" gradientUnits="userSpaceOnUse">
<stop stop-color="#F2BF40"/>
<stop offset="0.684" stop-color="#F2BF40"/>
<stop offset="0.866" stop-color="#F7BA40"/>
<stop offset="1" stop-color="#FFB340"/>
</linearGradient>
<linearGradient id="paint13_linear_396_2191" x1="530.162" y1="189.579" x2="470.456" y2="189.28" gradientUnits="userSpaceOnUse">
<stop stop-color="#F2BF40"/>
<stop offset="0.684" stop-color="#F2BF40"/>
<stop offset="0.866" stop-color="#F7BA40"/>
<stop offset="1" stop-color="#FFB340"/>
</linearGradient>
<linearGradient id="paint14_linear_396_2191" x1="530.204" y1="180.147" x2="470.499" y2="179.849" gradientUnits="userSpaceOnUse">
<stop stop-color="#F2BF40"/>
<stop offset="0.684" stop-color="#F2BF40"/>
<stop offset="0.866" stop-color="#F7BA40"/>
<stop offset="1" stop-color="#FFB340"/>
</linearGradient>
<linearGradient id="paint15_linear_396_2191" x1="530.251" y1="170.717" x2="470.545" y2="170.419" gradientUnits="userSpaceOnUse">
<stop stop-color="#F2BF40"/>
<stop offset="0.684" stop-color="#F2BF40"/>
<stop offset="0.866" stop-color="#F7BA40"/>
<stop offset="1" stop-color="#FFB340"/>
</linearGradient>
<linearGradient id="paint16_linear_396_2191" x1="530.251" y1="161.287" x2="470.545" y2="160.988" gradientUnits="userSpaceOnUse">
<stop stop-color="#F2BF40"/>
<stop offset="0.684" stop-color="#F2BF40"/>
<stop offset="0.866" stop-color="#F7BA40"/>
<stop offset="1" stop-color="#FFB340"/>
</linearGradient>
<linearGradient id="paint17_linear_396_2191" x1="530.251" y1="151.857" x2="470.545" y2="151.559" gradientUnits="userSpaceOnUse">
<stop stop-color="#F2BF40"/>
<stop offset="0.684" stop-color="#F2BF40"/>
<stop offset="0.866" stop-color="#F7BA40"/>
<stop offset="1" stop-color="#FFB340"/>
</linearGradient>
<linearGradient id="paint18_linear_396_2191" x1="530.251" y1="142.428" x2="470.545" y2="142.13" gradientUnits="userSpaceOnUse">
<stop stop-color="#F2BF40"/>
<stop offset="0.684" stop-color="#F2BF40"/>
<stop offset="0.866" stop-color="#F7BA40"/>
<stop offset="1" stop-color="#FFB340"/>
</linearGradient>
<linearGradient id="paint19_linear_396_2191" x1="530.251" y1="132.998" x2="470.545" y2="132.699" gradientUnits="userSpaceOnUse">
<stop stop-color="#F2BF40"/>
<stop offset="0.684" stop-color="#F2BF40"/>
<stop offset="0.866" stop-color="#F7BA40"/>
<stop offset="1" stop-color="#FFB340"/>
</linearGradient>
<linearGradient id="paint20_linear_396_2191" x1="530.251" y1="123.864" x2="470.545" y2="123.565" gradientUnits="userSpaceOnUse">
<stop stop-color="#F2BF40"/>
<stop offset="0.684" stop-color="#F2BF40"/>
<stop offset="0.866" stop-color="#F7BA40"/>
<stop offset="1" stop-color="#FFB340"/>
</linearGradient>
<linearGradient id="paint21_linear_396_2191" x1="530.251" y1="114.771" x2="470.546" y2="114.473" gradientUnits="userSpaceOnUse">
<stop stop-color="#F2BF40"/>
<stop offset="0.684" stop-color="#F2BF40"/>
<stop offset="0.866" stop-color="#F7BA40"/>
<stop offset="1" stop-color="#FFB340"/>
</linearGradient>
<linearGradient id="paint22_linear_396_2191" x1="530.251" y1="105.695" x2="470.545" y2="105.396" gradientUnits="userSpaceOnUse">
<stop stop-color="#F2BF40"/>
<stop offset="0.684" stop-color="#F2BF40"/>
<stop offset="0.866" stop-color="#F7BA40"/>
<stop offset="1" stop-color="#FFB340"/>
</linearGradient>
<linearGradient id="paint23_linear_396_2191" x1="559.911" y1="199.695" x2="500.206" y2="199.396" gradientUnits="userSpaceOnUse">
<stop stop-color="#F2BF40"/>
<stop offset="0.684" stop-color="#F2BF40"/>
<stop offset="0.866" stop-color="#F7BA40"/>
<stop offset="1" stop-color="#FFB340"/>
</linearGradient>
<linearGradient id="paint24_linear_396_2191" x1="559.962" y1="189.921" x2="500.256" y2="189.622" gradientUnits="userSpaceOnUse">
<stop stop-color="#F2BF40"/>
<stop offset="0.684" stop-color="#F2BF40"/>
<stop offset="0.866" stop-color="#F7BA40"/>
<stop offset="1" stop-color="#FFB340"/>
</linearGradient>
<linearGradient id="paint25_linear_396_2191" x1="560.009" y1="180.49" x2="500.303" y2="180.191" gradientUnits="userSpaceOnUse">
<stop stop-color="#F2BF40"/>
<stop offset="0.684" stop-color="#F2BF40"/>
<stop offset="0.866" stop-color="#F7BA40"/>
<stop offset="1" stop-color="#FFB340"/>
</linearGradient>
<linearGradient id="paint26_linear_396_2191" x1="560.052" y1="171.059" x2="500.346" y2="170.761" gradientUnits="userSpaceOnUse">
<stop stop-color="#F2BF40"/>
<stop offset="0.684" stop-color="#F2BF40"/>
<stop offset="0.866" stop-color="#F7BA40"/>
<stop offset="1" stop-color="#FFB340"/>
</linearGradient>
<linearGradient id="paint27_linear_396_2191" x1="507.829" y1="121.851" x2="554.325" y2="154.825" gradientUnits="userSpaceOnUse">
<stop stop-color="#F2BF40"/>
<stop offset="0.684" stop-color="#F2BF40"/>
<stop offset="0.866" stop-color="#F7BA40"/>
<stop offset="1" stop-color="#FFB340"/>
</linearGradient>
<linearGradient id="paint28_linear_396_2191" x1="523.16" y1="133.83" x2="538.859" y2="145.697" gradientUnits="userSpaceOnUse">
<stop stop-color="#F2BF40"/>
<stop offset="0.684" stop-color="#F2BF40"/>
<stop offset="0.866" stop-color="#F7BA40"/>
<stop offset="1" stop-color="#FFB340"/>
</linearGradient>
<linearGradient id="paint29_linear_396_2191" x1="64.6172" y1="297.429" x2="239.506" y2="297.429" gradientUnits="userSpaceOnUse">
<stop stop-color="white"/>
<stop offset="1" stop-color="white"/>
</linearGradient>
<linearGradient id="paint30_linear_396_2191" x1="437.809" y1="209.455" x2="612.698" y2="209.455" gradientUnits="userSpaceOnUse">
<stop stop-color="white"/>
<stop offset="1" stop-color="white"/>
</linearGradient>
</defs>
</svg>
