<svg width="550" height="353" viewBox="0 0 550 353" fill="none" xmlns="http://www.w3.org/2000/svg">
<path d="M237.844 352.28C318.871 352.28 384.556 348.622 384.556 344.11C384.556 339.598 318.871 335.94 237.844 335.94C156.818 335.94 91.1328 339.598 91.1328 344.11C91.1328 348.622 156.818 352.28 237.844 352.28Z" fill="#D3E7F2"/>
<path d="M179.123 240.905L167.815 341.537C167.746 342.19 167.931 342.844 168.333 343.363C168.735 343.882 169.321 344.225 169.97 344.322L220.778 344.28C221.454 344.41 222.155 344.271 222.731 343.892C223.306 343.513 223.711 342.924 223.859 342.251L225.584 333.297L207.357 321.883L220.636 241.64L179.123 240.905Z" fill="#FFCB48"/>
<path d="M234.035 241.358L227.37 259.372C226.751 260.955 225.594 262.268 224.102 263.082C222.611 263.896 220.88 264.159 219.214 263.825L178.478 256.227C176.832 255.954 175.34 255.097 174.274 253.814C173.209 252.53 172.641 250.906 172.676 249.238L173.178 235.81L234.035 241.358ZM213.469 304.851L210.203 304.356L213.914 282.341L217.179 282.836C217.561 282.884 217.929 283.009 218.262 283.201C218.595 283.394 218.886 283.651 219.119 283.958C219.351 284.265 219.52 284.615 219.615 284.988C219.711 285.361 219.73 285.749 219.674 286.129L216.924 302.483C216.769 303.249 216.321 303.925 215.676 304.367C215.031 304.809 214.239 304.982 213.469 304.851ZM162.711 236.389L150.491 233.993C149.288 233.744 148.205 233.095 147.417 232.152C146.63 231.209 146.184 230.027 146.152 228.799L144.809 192.939C144.751 191.733 145.096 190.542 145.792 189.555C146.487 188.568 147.492 187.841 148.647 187.49L160.753 183.956L162.711 236.389Z" fill="#295A6E"/>
<path d="M266.596 242.75L168.204 246.107C166.873 246.182 165.566 245.727 164.57 244.841C163.574 243.955 162.97 242.71 162.89 241.379L160.43 175.85C160.42 175.191 160.54 174.537 160.783 173.924C161.027 173.312 161.389 172.754 161.848 172.282C162.308 171.81 162.856 171.433 163.462 171.173C164.068 170.914 164.719 170.776 165.377 170.769L263.755 167.405L266.596 242.75Z" fill="#FF9A2E"/>
<path d="M239.4 168.239C239.4 168.239 300.179 157.341 345.926 112.343L360.704 282.885C360.704 282.885 307.699 247.944 242.997 243.308C242.997 243.308 238.191 232.665 236.637 206.098C235.251 183.257 239.4 168.239 239.4 168.239Z" fill="#FFCB48"/>
<path d="M370.434 287.421C386.673 286.16 396.662 244.237 392.744 193.784C388.827 143.331 372.487 103.453 356.247 104.714C340.008 105.975 330.02 147.897 333.937 198.35C337.855 248.803 354.195 288.681 370.434 287.421Z" fill="#D5EAF5"/>
<path d="M351.29 210.077L335.084 211.293L333.402 189.49L349.198 188.381L351.29 210.077Z" fill="#295A6E"/>
<path d="M359.729 209.562L349.764 210.268L348.082 188.465L358.054 187.759C363.072 187.405 367.44 191.01 367.807 195.801L368.146 200.24C368.211 201.406 368.044 202.573 367.655 203.674C367.266 204.775 366.663 205.788 365.881 206.655C365.098 207.522 364.151 208.225 363.096 208.724C362.04 209.223 360.896 209.507 359.729 209.562Z" fill="#FF5E4D"/>
<path d="M219.357 195.766L179.115 197.179L178.875 190.769L219.11 189.356C219.897 189.31 220.67 189.578 221.26 190.101C221.849 190.624 222.207 191.36 222.254 192.148V192.762C222.264 193.544 221.965 194.297 221.423 194.859C220.88 195.422 220.138 195.747 219.357 195.766ZM220.346 221.52L180.112 222.933L179.864 216.516L220.099 215.102C220.887 215.056 221.661 215.324 222.252 215.847C222.843 216.37 223.202 217.106 223.251 217.894V218.509C223.258 218.897 223.189 219.284 223.047 219.645C222.905 220.007 222.693 220.337 222.423 220.617C222.154 220.897 221.831 221.12 221.475 221.275C221.118 221.43 220.735 221.513 220.346 221.52ZM219.852 208.629L179.617 210.042L179.37 203.625L219.604 202.211C220.391 202.167 221.163 202.436 221.752 202.959C222.342 203.482 222.7 204.217 222.749 205.003V205.625C222.759 206.406 222.46 207.16 221.917 207.722C221.375 208.284 220.633 208.61 219.852 208.629ZM369.715 289.988C360.944 289.988 352.245 280.483 345.135 263.069C338.152 245.958 333.262 222.961 331.368 198.296C328.251 157.828 334.004 121.545 345.686 108.003C348.831 104.357 352.351 102.35 356.146 102.102C365.22 101.473 374.238 111.021 381.588 129.001C388.571 146.104 393.461 169.108 395.362 193.766C398.479 234.241 392.719 270.525 381.037 284.059C377.892 287.705 374.372 289.713 370.584 289.96C370.28 289.981 369.998 289.988 369.715 289.988ZM356.994 107.233H356.492C354.117 107.403 351.792 108.788 349.573 111.36C338.901 123.728 333.523 159.313 336.491 197.886C338.35 222.028 343.113 244.481 349.919 261.104C356.28 276.652 363.665 285.281 370.21 284.801C372.584 284.631 374.91 283.246 377.129 280.68C387.8 268.313 393.179 232.728 390.21 194.148C388.352 170.005 383.595 147.56 376.782 130.937C370.627 115.82 363.439 107.233 357.008 107.233H356.994Z" fill="#295A6E"/>
<path d="M254.822 170.931C260.772 169.047 266.643 166.955 272.433 164.655C273.889 164.111 275.317 163.503 276.752 162.917C278.186 162.33 279.614 161.722 281.034 161.093C283.861 159.913 286.688 158.592 289.515 157.291C290.893 156.584 292.264 155.878 293.621 155.171C294.328 154.825 294.971 154.464 295.636 154.047L297.622 152.888L301.636 150.676C302.972 149.969 304.35 149.298 305.728 148.648C308.435 147.234 311.269 146.068 314.025 144.711C316.901 143.496 319.608 142.047 322.732 140.937L323.191 141.482C321.381 144.192 319.245 146.67 316.831 148.86C314.461 151.056 311.912 153.051 309.212 154.825C307.862 155.687 306.463 156.471 305.049 157.228C304.343 157.595 303.636 157.97 302.894 158.288L300.675 159.206C299.176 159.772 297.706 160.401 296.194 160.903C294.682 161.404 293.19 161.97 291.706 162.528C288.703 163.567 285.72 164.648 282.688 165.525C281.169 165.984 279.656 166.429 278.123 166.825C276.589 167.221 275.084 167.673 273.543 168.034C267.432 169.571 261.241 170.77 254.998 171.624L254.822 170.931ZM178.678 303.67C178.791 300.321 179.003 296.985 179.158 293.635L179.469 288.631L179.83 283.627C179.957 281.96 180.014 280.285 180.091 278.617C180.175 276.955 180.378 275.302 180.699 273.67C181.017 272.03 181.406 270.397 181.886 268.772C182.356 267.121 182.954 265.509 183.674 263.952L184.056 264.001C184.37 265.69 184.549 267.401 184.593 269.118C184.657 270.807 184.628 272.482 184.537 274.157C184.438 275.819 184.223 277.472 183.894 279.104C183.554 280.744 183.187 282.384 182.904 284.051L182.021 288.999L181.081 293.946C180.374 297.225 179.787 300.511 179.066 303.784L178.678 303.67ZM203.364 174.889C200.339 175.334 197.307 175.673 194.283 176.069L189.738 176.592L185.194 177.059C183.674 177.207 182.162 177.433 180.65 177.631C179.138 177.823 177.614 177.899 176.091 177.857C174.559 177.812 173.031 177.689 171.511 177.49C169.949 177.298 168.405 176.974 166.896 176.522V176.14C168.354 175.55 169.86 175.089 171.398 174.762C172.896 174.426 174.411 174.168 175.936 173.991C177.448 173.81 178.972 173.749 180.494 173.808C182.021 173.871 183.54 173.956 185.067 173.97L189.639 174.027L194.212 174.14C197.258 174.26 200.304 174.331 203.357 174.5L203.364 174.889Z" fill="#FFE5B0"/>
<path d="M119.05 338.046C141.481 338.046 159.666 335.727 159.666 332.866C159.666 330.005 141.481 327.685 119.05 327.685C96.6181 327.685 78.4336 330.005 78.4336 332.866C78.4336 335.727 96.6181 338.046 119.05 338.046Z" fill="#D5EAF5"/>
<path d="M122.378 298.462H120.314V301.36H122.378V298.462Z" fill="#3B2B5B"/>
<path d="M107.529 291.387H134.986V292.278C134.986 293.59 134.465 294.848 133.537 295.776C132.609 296.704 131.351 297.225 130.039 297.225H112.491C111.179 297.225 109.92 296.704 108.992 295.776C108.065 294.848 107.543 293.59 107.543 292.278V291.387H107.529Z" fill="#3B2B5B"/>
<path d="M83.7207 285.43L78.512 220.41C78.3399 218.278 78.9754 216.16 80.2925 214.475C81.6095 212.79 83.5117 211.662 85.6218 211.314C95.0269 209.788 104.607 209.669 114.047 210.961C120.111 211.802 126.627 213.929 127.425 220C127.658 221.767 127.34 226.608 127.249 228.686C126.825 238.085 129.369 244.856 131.023 249.888C132.676 254.92 136.288 270.821 134.556 279.274C134.556 279.274 155.949 278.617 161.108 278.942C166.268 279.267 164.508 286.624 163.525 287.5C162.543 288.377 144.648 292.002 127.206 292.773C113.778 293.359 98.0109 293.946 89.5159 292.101C87.9623 291.758 86.5604 290.923 85.5169 289.722C84.4734 288.521 83.8437 287.016 83.7207 285.43Z" fill="#FF5E4D"/>
<path d="M104.816 284.108C104.816 284.108 111.545 283.076 117.771 282.263C123.997 281.451 160.882 278.171 162.295 279.21C163.709 280.249 164.592 280.03 164.606 283.55C164.62 287.069 164.408 286.624 163.504 287.522C162.882 288.136 153.609 290.257 140.422 291.727C134.252 292.433 127.807 292.688 120.315 293.077C96.2295 294.292 97.5299 291.387 97.5299 291.387L104.816 284.108Z" fill="#E23229"/>
<path d="M115.799 297.239L121.347 299.783C121.347 299.783 126.35 297.239 126.541 297.239H115.799ZM120.852 301.07H121.856C122.459 301.07 123.038 301.309 123.465 301.736C123.891 302.163 124.131 302.742 124.131 303.345V305.762H118.59V303.345C118.59 302.744 118.828 302.168 119.252 301.741C119.676 301.315 120.251 301.073 120.852 301.07Z" fill="#30193B"/>
<path d="M125.155 318.576H117.381L117.452 305.508C117.452 305.298 117.535 305.097 117.683 304.948C117.832 304.8 118.033 304.717 118.243 304.717H124.385C124.595 304.717 124.796 304.8 124.944 304.948C125.093 305.097 125.176 305.298 125.176 305.508L125.155 318.576Z" fill="#3B2B5B"/>
<path d="M102.562 301.501C102.491 301.501 102.421 301.487 102.356 301.457C102.291 301.428 102.234 301.385 102.188 301.331C102.096 301.236 102.045 301.11 102.045 300.978C102.045 300.846 102.096 300.719 102.188 300.624L105.015 298.01C105.109 297.923 105.233 297.875 105.361 297.875H119.262C119.398 297.877 119.527 297.932 119.623 298.029C119.718 298.125 119.771 298.256 119.771 298.391C119.771 298.526 119.718 298.656 119.622 298.751C119.527 298.846 119.397 298.9 119.262 298.9H105.601L102.908 301.381C102.81 301.46 102.688 301.502 102.562 301.501Z" fill="#30193B"/>
<path d="M103.317 300.497C103.713 300.957 103.042 302.165 101.826 303.19C100.611 304.215 99.3102 304.674 98.9215 304.215C98.5328 303.755 99.1972 302.54 100.413 301.515C101.628 300.49 102.929 300.031 103.317 300.497Z" fill="#3B2B5B"/>
<path d="M90.3775 281.345C90.3775 281.345 100.392 281.578 116.802 280.306C133.213 279.034 135.086 279.26 135.086 279.26C135.086 279.26 159.051 278.256 161.086 278.942C161.086 278.942 156.896 281.253 144.379 282.242C131.863 283.232 118.937 285.324 112.64 283.507C109.014 282.461 87.706 289.797 90.3775 281.345Z" fill="#FF5E4D"/>
<path d="M108.922 282.949C102.399 282.666 94.0805 281.352 90.349 281.903C87.6704 282.292 86.575 283.458 86.2428 282.977C85.3523 281.719 89.6422 279.246 89.8613 274.984C90.0097 272.157 87.7906 217.173 86.257 213.109C86.1451 212.85 85.9827 212.616 85.7793 212.421C85.5759 212.225 85.3355 212.072 85.0722 211.971C84.8089 211.87 84.5281 211.822 84.2461 211.831C83.9641 211.839 83.6867 211.904 83.43 212.021C81.8516 212.754 80.5355 213.953 79.6587 215.457C78.7818 216.96 78.3863 218.696 78.5253 220.431L83.7268 285.522C83.8479 287.082 84.4666 288.563 85.492 289.746C86.5174 290.93 87.8953 291.752 89.4231 292.094C94.0169 293.105 100.78 293.395 108.152 293.352C110.576 293.352 114.901 293.239 116.866 290.801C119.438 287.642 116.491 283.274 108.922 282.949Z" fill="#F2483B"/>
<path d="M124.646 330.124C124.647 330.795 124.449 331.452 124.077 332.011C123.705 332.57 123.175 333.006 122.555 333.264C121.935 333.521 121.252 333.589 120.594 333.458C119.935 333.328 119.33 333.004 118.855 332.53C118.38 332.055 118.057 331.45 117.926 330.791C117.796 330.132 117.863 329.45 118.121 328.829C118.379 328.209 118.814 327.679 119.373 327.307C119.932 326.935 120.589 326.737 121.261 326.738C122.159 326.738 123.02 327.095 123.654 327.73C124.289 328.365 124.646 329.226 124.646 330.124Z" fill="#AACBE8"/>
<path d="M122.442 329.777C122.489 330.016 122.464 330.263 122.371 330.487C122.278 330.712 122.12 330.903 121.918 331.038C121.715 331.173 121.478 331.245 121.235 331.245C120.992 331.244 120.754 331.172 120.552 331.037C120.35 330.902 120.193 330.71 120.1 330.486C120.007 330.261 119.982 330.014 120.029 329.776C120.076 329.538 120.193 329.319 120.365 329.147C120.536 328.974 120.755 328.857 120.993 328.809C121.152 328.776 121.316 328.775 121.475 328.806C121.634 328.837 121.786 328.9 121.921 328.99C122.055 329.08 122.171 329.196 122.26 329.331C122.35 329.466 122.412 329.618 122.442 329.777Z" fill="#D5EAF5"/>
<path d="M125.149 330.11H117.375C117.385 329.854 117.408 329.599 117.446 329.346C117.625 328.448 118.114 327.642 118.828 327.069C119.542 326.497 120.436 326.194 121.351 326.214C122.266 326.234 123.145 326.576 123.833 327.18C124.521 327.784 124.975 328.611 125.114 329.516C125.135 329.707 125.149 330.11 125.149 330.11Z" fill="#3B2B5B"/>
<path d="M143.729 328.258C144.144 328.258 144.541 328.093 144.834 327.8C145.127 327.508 145.291 327.11 145.291 326.696V323.085C145.296 322.793 145.219 322.507 145.069 322.257C144.919 322.007 144.702 321.804 144.443 321.671C144.019 321.452 133.92 316.3 121.969 317.049C121.562 317.084 121.185 317.277 120.919 317.586C120.653 317.896 120.518 318.297 120.544 318.704C120.57 319.111 120.754 319.492 121.058 319.766C121.361 320.039 121.759 320.182 122.167 320.166C131.354 319.586 139.581 322.88 142.167 324.046V326.668C142.164 326.875 142.201 327.081 142.278 327.274C142.355 327.467 142.469 327.642 142.615 327.79C142.76 327.939 142.934 328.056 143.125 328.136C143.316 328.217 143.522 328.258 143.729 328.258Z" fill="#30193B"/>
<path d="M140.535 330.555C140.535 331.224 140.734 331.879 141.106 332.435C141.478 332.992 142.006 333.426 142.625 333.682C143.244 333.939 143.924 334.006 144.581 333.875C145.238 333.744 145.841 333.422 146.314 332.948C146.788 332.475 147.11 331.872 147.241 331.215C147.371 330.558 147.304 329.878 147.048 329.259C146.792 328.641 146.358 328.112 145.801 327.74C145.244 327.368 144.59 327.169 143.92 327.169C143.023 327.169 142.162 327.526 141.527 328.161C140.892 328.796 140.535 329.657 140.535 330.555Z" fill="#AACBE8"/>
<path d="M142.761 330.209C142.712 330.448 142.736 330.697 142.83 330.923C142.924 331.149 143.083 331.342 143.287 331.478C143.491 331.613 143.731 331.684 143.976 331.682C144.22 331.68 144.459 331.605 144.661 331.467C144.863 331.328 145.019 331.133 145.109 330.905C145.199 330.678 145.22 330.429 145.167 330.19C145.115 329.95 144.993 329.732 144.816 329.563C144.639 329.394 144.415 329.282 144.174 329.24C143.859 329.184 143.534 329.254 143.27 329.435C143.005 329.616 142.822 329.894 142.761 330.209Z" fill="#D5EAF5"/>
<path d="M140.025 330.541H147.799C147.799 330.541 147.799 330.025 147.722 329.77C147.538 328.877 147.047 328.076 146.333 327.508C145.62 326.939 144.729 326.64 143.817 326.661C142.906 326.682 142.03 327.022 141.343 327.623C140.657 328.223 140.203 329.046 140.061 329.947C140.047 330.138 140.025 330.541 140.025 330.541Z" fill="#3B2B5B"/>
<path d="M99.359 328.145C99.1539 328.145 98.9508 328.104 98.7613 328.026C98.5718 327.947 98.3996 327.832 98.2546 327.687C98.1096 327.542 97.9945 327.37 97.916 327.181C97.8375 326.991 97.7971 326.788 97.7971 326.583V322.979C97.7918 322.687 97.8685 322.4 98.0184 322.15C98.1684 321.9 98.3856 321.698 98.6452 321.565C99.0693 321.346 109.169 316.187 121.119 316.936C121.526 316.971 121.903 317.164 122.169 317.473C122.435 317.783 122.57 318.184 122.544 318.591C122.518 318.998 122.334 319.379 122.031 319.653C121.727 319.926 121.329 320.069 120.922 320.053C111.734 319.473 103.508 322.767 100.921 323.94V326.555C100.925 326.762 100.887 326.968 100.81 327.161C100.733 327.354 100.619 327.529 100.474 327.677C100.328 327.825 100.155 327.943 99.9633 328.023C99.772 328.104 99.5665 328.145 99.359 328.145Z" fill="#30193B"/>
<path d="M121.312 329.247C120.898 329.247 120.5 329.083 120.207 328.79C119.915 328.497 119.75 328.1 119.75 327.685V316.067C119.75 315.652 119.915 315.255 120.207 314.962C120.5 314.669 120.898 314.505 121.312 314.505C121.726 314.505 122.123 314.669 122.416 314.962C122.709 315.255 122.874 315.652 122.874 316.067V327.685C122.874 328.1 122.709 328.497 122.416 328.79C122.123 329.083 121.726 329.247 121.312 329.247Z" fill="#3B2B5B"/>
<path d="M102.554 330.449C102.552 331.118 102.353 331.772 101.98 332.328C101.607 332.883 101.078 333.316 100.459 333.571C99.8404 333.826 99.1599 333.893 98.5037 333.761C97.8475 333.63 97.245 333.307 96.7722 332.833C96.2995 332.359 95.9778 331.756 95.8477 331.1C95.7177 330.443 95.7851 329.763 96.0416 329.145C96.298 328.526 96.7319 327.998 97.2884 327.626C97.845 327.255 98.4992 327.056 99.1685 327.056C100.067 327.058 100.928 327.417 101.563 328.053C102.197 328.689 102.554 329.55 102.554 330.449Z" fill="#AACBE8"/>
<path d="M100.357 330.095C100.405 330.334 100.382 330.581 100.289 330.806C100.197 331.031 100.04 331.224 99.8383 331.36C99.6365 331.496 99.399 331.568 99.1557 331.569C98.9125 331.57 98.6745 331.499 98.4718 331.364C98.2691 331.23 98.1108 331.038 98.017 330.814C97.9232 330.589 97.8981 330.342 97.9447 330.104C97.9914 329.865 98.1079 329.645 98.2794 329.473C98.4508 329.3 98.6696 329.182 98.908 329.134C99.2276 329.07 99.5597 329.135 99.8314 329.315C100.103 329.495 100.292 329.776 100.357 330.095Z" fill="#D5EAF5"/>
<path d="M103.063 330.435H95.2891C95.3021 330.177 95.328 329.92 95.3668 329.664C95.5496 328.771 96.0403 327.97 96.7532 327.401C97.4662 326.832 98.3562 326.531 99.2681 326.552C100.18 326.572 101.056 326.911 101.743 327.511C102.43 328.111 102.885 328.933 103.028 329.834C103.042 330.046 103.063 330.435 103.063 330.435Z" fill="#3B2B5B"/>
<path d="M129.855 280.779C130.251 280.68 130.011 280.447 129.77 280.278C129.262 280.101 128.838 279.974 128.739 279.924C128.666 279.888 128.601 279.838 128.549 279.776C128.497 279.714 128.458 279.642 128.435 279.564L128.173 279.5C128.173 279.5 127.728 280.207 127.686 280.27C127.994 280.498 128.345 280.66 128.718 280.748C129.091 280.835 129.478 280.846 129.855 280.779Z" fill="#FF97A6"/>
<path d="M131.806 281.394C131.962 280.391 130.591 280.56 129.771 280.278C130.011 280.447 130.251 280.68 129.856 280.779C129.478 280.846 129.091 280.835 128.718 280.748C128.345 280.66 127.994 280.498 127.686 280.271C127.551 280.598 127.481 280.948 127.481 281.302C127.474 281.691 131.686 282.129 131.806 281.394ZM116.088 281.359C116.166 280.341 114.844 280.589 114.018 280.341C114.265 280.497 114.512 280.723 114.124 280.836C113.751 280.92 113.366 280.927 112.991 280.858C112.615 280.789 112.258 280.644 111.94 280.433C111.82 280.766 111.767 281.119 111.784 281.472C111.798 281.854 116.032 282.094 116.088 281.359Z" fill="#3B2B5B"/>
<path d="M114.125 280.836C114.514 280.723 114.267 280.497 114.019 280.341C113.503 280.193 113.072 280.087 112.98 280.044C112.906 280.011 112.838 279.964 112.783 279.904C112.727 279.845 112.683 279.775 112.655 279.698L112.394 279.649C112.394 279.649 111.984 280.355 111.941 280.433C112.259 280.644 112.617 280.789 112.992 280.858C113.367 280.927 113.753 280.92 114.125 280.836Z" fill="#FF97A6"/>
<path d="M137.708 231.626C138.193 234.414 138.43 237.241 138.415 240.071C138.415 244.778 139.51 252.425 137.708 260.107C135.517 269.57 130.994 276.645 129.623 279.189C129.27 279.839 127.701 280.426 127.658 279.507C127.517 276.447 130.902 259.521 130.902 259.521L128.005 243.499L112.852 279.931L111.283 279.493C111.359 271.966 112.057 264.459 113.368 257.047C114.718 250.05 116.195 231.817 125.941 228.778C127.651 228.41 135.107 231.421 137.708 231.626Z" fill="#3B2B5B"/>
<path d="M137.707 231.626C138.192 234.415 138.428 237.241 138.413 240.071C138.413 244.778 139.509 252.425 137.707 260.107C135.516 269.571 130.993 276.645 129.622 279.189C129.268 279.839 127.699 280.426 127.657 279.507C127.516 276.447 130.731 258.595 130.731 258.595L128.003 243.499C128.003 243.499 132.039 230.212 135.29 231.138C136.074 231.392 136.885 231.555 137.707 231.626Z" fill="#30193B"/>
<path d="M141.784 222.565L145.982 224.686L145.848 221.06C144.951 220.613 144.022 220.23 143.07 219.915C142.509 219.806 141.935 219.784 141.367 219.852L141.784 222.565Z" fill="#84B1D3"/>
<path d="M118.088 203.688C118.026 203.68 117.968 203.656 117.917 203.619C117.866 203.582 117.826 203.533 117.799 203.476C117.547 203.014 117.345 202.526 117.198 202.021C117.198 202.021 116.943 200.89 117.262 200.494C117.262 200.494 117.438 200.445 117.445 200.734C117.445 200.734 117.53 199.985 117.77 199.922C118.011 199.858 118.081 200.204 118.081 200.204C118.096 200.181 118.116 200.161 118.139 200.145C118.162 200.13 118.188 200.12 118.215 200.115C118.243 200.11 118.271 200.112 118.297 200.118C118.324 200.125 118.349 200.138 118.371 200.155C118.644 200.712 118.77 201.33 118.739 201.95C118.739 201.95 118.816 201.399 118.986 201.483C119.156 201.568 119.05 202.657 118.83 202.897C118.758 203.082 118.704 203.274 118.668 203.469C118.654 203.632 118.329 203.703 118.088 203.688Z" fill="#FF97A6"/>
<path d="M144.174 220.29C142.619 219.435 138.64 216.509 134.152 216.685C132.739 216.735 131.177 218.304 130.477 219.131C127.94 222.085 126.018 227.873 126.202 228.947C126.117 230.361 132.11 234.389 137.94 233.018C138.494 230.699 139.589 228.543 141.135 226.728C143.22 224.459 144.315 220.608 144.174 220.29Z" fill="#AACBE8"/>
<path d="M144.173 220.29C143.467 219.908 142.279 219.102 140.774 218.346C140.611 218.268 139.841 223.293 139.113 224.749C136.152 230.587 132.59 232.962 132.59 232.962L133.007 233.053C134.639 233.397 136.327 233.385 137.954 233.018C138.508 230.699 139.602 228.543 141.148 226.728C143.219 224.459 144.315 220.608 144.173 220.29Z" fill="#84B1D3"/>
<path d="M123.191 212.367C122.611 210.438 120.597 204.544 120.597 204.544C118.859 201.547 115.94 203.985 116.046 205.844C116.251 209.307 119.933 215.208 122.138 216.678C124.534 218.269 124.152 215.555 123.191 212.367Z" fill="#AACBE8"/>
<path d="M123.466 214.212C125.292 215.403 127.353 216.184 129.509 216.502C132.711 216.813 134.103 216.502 134.993 216.685C135.884 216.869 134.287 219.512 130.753 219.753C127.869 219.922 125.276 219.102 121.926 216.53L123.466 214.212Z" fill="#AACBE8"/>
<path d="M139.688 219.088V220.382C140.088 220.258 140.448 220.03 140.732 219.723C141.016 219.415 141.214 219.038 141.306 218.629L140.599 217.837C140.6 218.116 140.512 218.387 140.348 218.612C140.184 218.837 139.953 219.004 139.688 219.088Z" fill="#84B1D3"/>
<path d="M140.182 215.936C140.182 215.936 138.839 218.106 138.903 218.438C138.913 218.566 138.958 218.688 139.033 218.792C139.107 218.896 139.209 218.978 139.327 219.029C139.444 219.08 139.573 219.098 139.7 219.081C139.827 219.064 139.947 219.013 140.048 218.933C140.655 218.502 141.157 216.332 141.157 216.332L140.182 215.936Z" fill="#FF97A6"/>
<path d="M139.553 217.018C139.609 217.625 139.984 218.268 140.528 218.24C140.718 217.804 140.878 217.355 141.009 216.897L140.231 215.88C140.04 216.191 139.751 216.643 139.553 217.018Z" fill="#C95D77"/>
<path d="M143.715 215.3C143.54 214.621 143.271 213.969 142.916 213.364C142.843 213.218 142.741 213.088 142.617 212.982C142.493 212.876 142.35 212.796 142.195 212.746C142.039 212.696 141.876 212.677 141.713 212.691C141.551 212.705 141.393 212.751 141.248 212.827C140.468 213.177 139.751 213.654 139.128 214.24C138.817 214.742 139.128 215.399 139.326 215.894C139.598 216.516 140.026 217.056 140.57 217.463C141.145 217.696 141.789 217.696 142.365 217.463C143.658 216.869 143.87 216.353 143.715 215.3Z" fill="#FF97A6"/>
<path d="M141.792 207.837C140.428 207.533 140.16 208.247 140.223 208.353C140.249 208.382 140.28 208.404 140.316 208.417C140.352 208.431 140.39 208.436 140.428 208.431C140.761 208.565 140.838 209.222 140.647 209.562C140.28 210.226 137.686 210.219 136.859 211.767C136.746 212.058 136.725 212.377 136.8 212.681C136.874 212.984 137.041 213.257 137.276 213.463C136.273 214.876 139.397 217.067 139.792 216.919C140.026 216.827 139.644 215.427 139.404 214.565C139.382 214.485 139.377 214.401 139.389 214.318C139.402 214.236 139.431 214.157 139.475 214.086C139.52 214.016 139.579 213.956 139.648 213.909C139.717 213.862 139.795 213.831 139.877 213.816C141.156 213.59 143.093 212.989 143.651 212.233C145.079 210.275 143.39 208.339 141.792 207.837Z" fill="#FF5E4D"/>
<path d="M141.792 207.837C141.454 207.779 141.106 207.796 140.775 207.887C140.627 207.935 140.497 208.026 140.4 208.148C140.363 208.195 140.341 208.251 140.336 208.311C140.336 208.261 140.372 208.311 140.421 208.311H140.478C140.568 208.356 140.647 208.419 140.71 208.497C140.774 208.575 140.82 208.666 140.845 208.763C140.899 208.934 140.918 209.114 140.902 209.293C140.884 209.495 140.797 209.685 140.654 209.83C140.519 209.945 140.366 210.038 140.202 210.106C139.587 210.367 138.987 210.523 138.421 210.777C137.874 210.99 137.408 211.368 137.085 211.858C136.992 212.099 136.973 212.362 137.029 212.614C137.086 212.865 137.216 213.094 137.403 213.272C137.44 213.311 137.461 213.363 137.461 213.417C137.461 213.471 137.44 213.522 137.403 213.562C137.312 213.701 137.255 213.861 137.239 214.027C137.223 214.194 137.248 214.361 137.312 214.516C137.453 214.866 137.651 215.191 137.898 215.477C138.157 215.771 138.438 216.045 138.739 216.297C138.888 216.426 139.046 216.544 139.213 216.65C139.366 216.775 139.548 216.858 139.743 216.89C139.538 216.89 139.338 216.834 139.163 216.728C138.983 216.64 138.808 216.541 138.64 216.431C138.294 216.214 137.976 215.956 137.693 215.661C137.398 215.367 137.159 215.022 136.986 214.643C136.885 214.432 136.84 214.198 136.855 213.964C136.87 213.73 136.944 213.504 137.071 213.307L137.128 213.611C136.831 213.382 136.624 213.057 136.541 212.692C136.437 212.328 136.472 211.937 136.64 211.597C137.009 211.011 137.561 210.561 138.209 210.318C138.817 210.063 139.453 209.922 140.018 209.71C140.15 209.669 140.274 209.607 140.386 209.526C140.474 209.447 140.532 209.34 140.548 209.222C140.598 208.968 140.548 208.615 140.351 208.516H140.407C140.294 208.516 140.139 208.516 140.075 208.282C140.08 208.166 140.128 208.055 140.209 207.971C140.345 207.831 140.52 207.735 140.711 207.696C141.078 207.652 141.449 207.7 141.792 207.837Z" fill="#FF7B71"/>
<path d="M139.228 218.078C139.328 218.434 139.483 218.772 139.687 219.081L138.394 219.922C138.394 219.922 137.489 218.346 138.267 217.307L139.454 217.18L139.39 217.3C139.26 217.538 139.204 217.808 139.228 218.078Z" fill="#84B1D3"/>
<path d="M463.315 352.018C503.549 352.018 536.166 349.576 536.166 346.562C536.166 343.549 503.549 341.106 463.315 341.106C423.081 341.106 390.465 343.549 390.465 346.562C390.465 349.576 423.081 352.018 463.315 352.018Z" fill="#D3E7F2"/>
<path d="M521.749 294.893C521.818 294.909 521.881 294.948 521.927 295.003C521.972 295.057 521.999 295.126 522.003 295.197C522.003 295.578 522.046 296.469 522.081 297.176C522.081 297.176 522.124 298.271 521.657 298.639C521.657 298.639 521.452 298.639 521.523 298.321C521.523 298.321 521.198 299.14 520.922 299.155C520.647 299.169 520.668 298.766 520.668 298.766C520.647 298.788 520.621 298.805 520.593 298.817C520.566 298.829 520.536 298.835 520.505 298.835C520.475 298.835 520.445 298.829 520.417 298.817C520.389 298.805 520.364 298.788 520.343 298.766C520.225 298.073 520.278 297.362 520.498 296.695C520.498 296.695 520.244 297.282 520.088 297.147C519.933 297.013 520.385 295.833 520.71 295.593C520.803 295.379 520.921 295.177 521.064 294.992C521.268 294.759 521.495 294.822 521.749 294.893Z" fill="#FF97A6"/>
<path d="M525.105 289.677C524.667 286.006 523.927 282.378 522.892 278.829C521.38 273.882 519.359 274.807 518.539 276.08C517.521 277.641 518.228 281.564 518.143 283.225C517.974 286.758 517.359 290.405 517.436 292.024C517.486 294.186 522.136 295.67 522.136 295.67C522.136 295.67 525.691 293.55 525.105 289.677Z" fill="#AACBE8"/>
<path d="M499.36 347.297C499.049 345.665 501.098 346.096 502.272 345.679C501.925 345.919 501.565 346.259 502.151 346.386C502.978 346.584 504.766 346.244 505.268 345.63C505.468 346.094 505.574 346.594 505.579 347.1C505.6 347.651 499.558 348.329 499.36 347.297Z" fill="#3B2B5B"/>
<path d="M502.15 346.393C501.584 346.259 501.923 345.919 502.27 345.686C502.977 345.432 503.606 345.241 503.747 345.17C503.953 345.064 504.11 344.881 504.185 344.661L504.553 344.562C504.553 344.562 504.333 345.092 505.04 345.319C505.16 345.319 505.203 345.516 505.266 345.644C504.765 346.251 502.977 346.591 502.15 346.393Z" fill="#FF97A6"/>
<path d="M506.299 346.767C505.981 345.135 508.023 345.552 509.196 345.128C508.85 345.368 508.49 345.714 509.083 345.834C509.917 346.025 511.698 345.679 512.2 345.057C512.402 345.521 512.51 346.021 512.518 346.527C512.539 347.078 506.504 347.799 506.299 346.767Z" fill="#3B2B5B"/>
<path d="M509.084 345.842C508.518 345.714 508.85 345.368 509.197 345.135C509.903 344.873 510.532 344.675 510.667 344.612C510.771 344.558 510.863 344.484 510.938 344.394C511.013 344.304 511.07 344.201 511.105 344.089L511.472 343.997C511.472 343.997 511.26 344.527 511.967 344.746C512.087 344.746 512.13 344.944 512.2 345.071C511.677 345.686 509.918 346.032 509.084 345.842Z" fill="#FF97A6"/>
<path d="M514.25 277.599C514.25 277.783 516.25 280.2 518.717 284.504C521.445 289.26 521.445 295.875 521.226 303.755C520.999 312.06 514.985 336.138 512.384 343.227C512.017 344.223 510.42 344.852 510.264 343.552C509.791 339.417 510.773 327.056 510.222 315.727C509.848 308.766 508.969 301.84 507.593 295.006L502.052 312.611L505.26 344.626L503.048 344.944C503.204 345.205 491.182 318.54 491.917 309.939C492.315 304.167 493.184 298.438 494.518 292.808C496.73 283.168 497.698 282.207 497.988 279.762C499.592 280.391 511.31 279.161 514.25 277.599Z" fill="#3B2B5B"/>
<path d="M514.25 277.599C514.25 277.783 516.251 280.2 518.717 284.504C521.445 289.26 521.445 295.875 521.226 303.755C521 312.06 514.985 336.138 512.385 343.227C512.017 344.223 510.42 344.852 510.264 343.552C509.791 339.417 510.773 327.056 510.222 315.727C509.848 308.766 508.97 301.84 507.593 295.006L502.052 312.611L505.261 344.626L503.932 344.817L497.571 312.42C497.547 312.335 497.547 312.244 497.571 312.158C498.165 309.939 507.833 279.422 510.038 279.055C511.529 278.872 512.965 278.376 514.25 277.599Z" fill="#30193B"/>
<path d="M507.438 257.471C507.438 257.471 508.102 260.899 507.862 261.295C507.773 261.445 507.647 261.571 507.497 261.66C507.347 261.75 507.177 261.801 507.003 261.809C506.828 261.817 506.655 261.781 506.497 261.705C506.34 261.628 506.204 261.514 506.102 261.372C505.515 260.531 505.961 257.514 505.961 257.514L507.438 257.471Z" fill="#FF97A6"/>
<path d="M507.699 258.941C507.466 259.206 507.16 259.397 506.819 259.49C506.479 259.583 506.119 259.574 505.783 259.464C505.761 259.074 505.785 258.683 505.854 258.298L507.564 258.256C507.623 258.481 507.668 258.71 507.699 258.941Z" fill="#C95D77"/>
<path d="M503.839 256.927C503.698 256.362 504.065 254.277 504.638 253.945C505.733 253.316 508.171 254.277 508.616 254.715C509.062 255.153 508.92 255.987 508.814 256.574C508.669 257.317 508.336 258.01 507.846 258.588C507.268 258.979 506.563 259.135 505.874 259.026C504.291 258.666 503.903 258.128 503.839 256.927Z" fill="#FF97A6"/>
<path d="M508.61 251.315C508.343 250.527 507.914 249.802 507.352 249.188C506.79 248.573 506.107 248.083 505.345 247.746C505.3 247.721 505.249 247.711 505.198 247.718C505.148 247.725 505.101 247.748 505.064 247.784C505.028 247.82 505.005 247.867 504.998 247.918C504.991 247.969 505.001 248.02 505.027 248.064C505.416 248.556 505.713 249.114 505.903 249.711C505.472 249.202 503.719 247.626 502.942 246.693C502.779 246.496 502.511 246.693 502.546 246.92C502.645 247.393 502.737 247.86 502.829 248.333C502.122 247.888 501.846 246.997 501.33 246.382C501.295 246.349 501.252 246.325 501.205 246.313C501.158 246.301 501.108 246.302 501.061 246.315C501.015 246.327 500.972 246.352 500.937 246.386C500.903 246.42 500.877 246.463 500.864 246.51C500.518 248.496 499.938 250.277 501.924 252.87C503.14 254.475 505.055 254.284 506.97 254.665C507.1 255.661 507.337 256.639 507.677 257.584C507.733 257.696 507.822 257.788 507.932 257.848C508.042 257.907 508.168 257.931 508.292 257.916C509.204 257.874 509.705 256.807 509.995 256.051C510.626 255.423 511.02 254.597 511.112 253.711C511.239 252.743 509.557 251.217 508.61 251.315Z" fill="#3B2B5B"/>
<path d="M505.904 249.711C505.162 248.969 504.349 248.298 503.6 247.591C503.416 247.407 503.225 247.223 503.048 247.033L502.914 246.884L502.808 246.778C502.808 246.778 502.716 246.778 502.702 246.863C502.688 246.948 502.702 247.04 502.752 247.167L502.836 247.549L503.006 248.312C503.011 248.335 503.012 248.358 503.008 248.381C503.004 248.404 502.996 248.426 502.983 248.446C502.971 248.466 502.954 248.483 502.935 248.496C502.916 248.509 502.895 248.519 502.872 248.524C502.85 248.534 502.826 248.539 502.801 248.539C502.777 248.539 502.753 248.534 502.73 248.524C502.219 248.099 501.798 247.575 501.494 246.983C501.412 246.855 501.322 246.732 501.225 246.616C501.162 246.531 501.183 246.552 501.154 246.545C501.142 246.539 501.129 246.536 501.116 246.536C501.102 246.536 501.089 246.539 501.077 246.545C501.077 246.545 501.077 246.545 501.077 246.602L501.034 246.842L500.949 247.308C500.83 247.923 500.761 248.548 500.745 249.174C500.743 249.792 500.853 250.405 501.07 250.983C501.293 251.565 501.59 252.116 501.953 252.623C502.281 253.149 502.751 253.57 503.31 253.839C504.434 254.369 505.762 254.418 506.999 254.708C505.741 254.503 504.434 254.602 503.197 254.072C502.585 253.806 502.06 253.372 501.684 252.821C501.283 252.301 500.957 251.728 500.716 251.118C500.273 249.87 500.214 248.519 500.547 247.238L500.639 246.764L500.681 246.531C500.691 246.472 500.71 246.414 500.737 246.361C500.771 246.296 500.819 246.241 500.879 246.199C500.992 246.127 501.128 246.099 501.26 246.121C501.383 246.15 501.49 246.226 501.557 246.333C501.662 246.463 501.759 246.6 501.847 246.743C502.118 247.294 502.495 247.787 502.957 248.192L502.681 248.375L502.547 247.605L502.476 247.216C502.476 247.089 502.384 246.99 502.476 246.75C502.494 246.7 502.522 246.655 502.558 246.617C502.594 246.579 502.638 246.548 502.686 246.528C502.735 246.507 502.787 246.497 502.839 246.497C502.892 246.498 502.944 246.509 502.992 246.531C503.058 246.577 503.115 246.635 503.162 246.701L503.289 246.849C503.458 247.047 503.635 247.238 503.812 247.428C504.469 248.185 505.218 248.92 505.904 249.711Z" fill="#7F65C1"/>
<path d="M497.541 262.326C498.813 261.62 502.057 260.729 505.987 260.432C507.351 260.329 508.719 260.308 510.086 260.369C511.881 260.474 513.634 260.956 515.231 261.782C515.231 261.782 515.86 278.921 516.199 280.581C513.355 282.444 510.104 283.593 506.722 283.931C503.485 284.367 500.196 284.19 497.025 283.408C497.025 282.9 498.029 276.758 498.128 273.592C498.166 269.828 497.97 266.066 497.541 262.326Z" fill="#D3E7F2"/>
<path d="M487.345 251.952C486.271 247.004 493.387 254.227 493.387 254.227C493.387 254.227 496.462 261.606 501.727 261.019C503.465 260.821 498.617 266.581 498.617 266.581C498.617 266.581 488.716 258.263 487.345 251.952Z" fill="#D3E7F2"/>
<path d="M485.4 239.944C485.328 239.946 485.257 239.924 485.198 239.882C485.139 239.84 485.096 239.78 485.075 239.711C484.969 239.35 484.877 239.039 484.665 238.361C484.665 238.361 484.304 237.774 484.538 237.372C484.792 237.09 485.116 236.88 485.477 236.764V235.923C485.493 235.897 485.514 235.874 485.539 235.856C485.564 235.839 485.592 235.827 485.622 235.821C485.652 235.815 485.683 235.815 485.713 235.822C485.743 235.828 485.771 235.841 485.796 235.859C486.088 236.498 486.216 237.2 486.17 237.902C486.17 237.902 486.276 237.266 486.46 237.357C486.644 237.449 486.509 238.707 486.255 239.025C486.218 239.254 486.154 239.477 486.064 239.69C485.902 239.951 485.661 239.944 485.4 239.944Z" fill="#FF97A6"/>
<path d="M492.474 258.517C489.605 259.04 480.46 245.054 483.994 240.517C484.32 240.046 484.797 239.702 485.346 239.541C485.895 239.381 486.483 239.413 487.011 239.633C487.011 239.633 497.118 257.655 492.474 258.517Z" fill="#D3E7F2"/>
<path d="M522.082 276.772C518.357 267.005 517.841 264.221 515.721 262.192C514.725 261.252 512.237 260.475 512.894 262.376C512.76 266.079 517.135 277.67 518.661 278.532C519.707 279.161 523.248 279.868 522.082 276.772Z" fill="#AACBE8"/>
<path d="M507.699 260.333C507.699 260.333 510.66 260.298 510.999 260.333C512.494 260.449 513.937 260.935 515.197 261.747C515.197 261.747 515.826 278.885 516.165 280.546C514.111 281.915 511.82 282.89 509.409 283.423C509.147 283.486 507.359 283.804 507.359 283.804C508.404 280.306 509.17 276.731 509.649 273.111C510.377 267.281 508.144 260.432 507.699 260.333Z" fill="#AACBE8"/>
<path d="M505.127 259.994C506.182 259.911 507.227 259.733 508.25 259.464L509.035 260.333L504.66 260.553L505.127 259.994Z" fill="#AACBE8"/>
<path d="M438.029 346.895C437.711 346.287 436.121 345.764 434.856 345.41C435.231 345.637 435.612 345.969 435.026 346.152C434.171 346.421 432.269 346.195 431.69 345.587C431.514 346.088 431.442 346.619 431.478 347.149C431.499 347.714 438.545 347.87 438.029 346.895Z" fill="#3B2B5B"/>
<path d="M435.025 346.152C435.612 345.969 435.23 345.637 434.856 345.41C434.064 345.191 433.442 345.043 433.258 344.979C433.146 344.933 433.045 344.865 432.96 344.779C432.875 344.693 432.808 344.59 432.764 344.478L432.368 344.4C432.368 344.4 432.636 344.944 431.909 345.227C431.788 345.276 431.753 345.446 431.689 345.587C432.269 346.195 434.17 346.421 435.025 346.152Z" fill="#FF97A6"/>
<path d="M410.507 346.428C410.825 345.82 412.422 345.297 413.687 344.944C413.305 345.17 412.931 345.502 413.51 345.686C414.373 345.955 416.274 345.728 416.846 345.121C417.028 345.62 417.103 346.152 417.065 346.682C417.044 347.248 409.998 347.403 410.507 346.428Z" fill="#3B2B5B"/>
<path d="M413.51 345.686C412.931 345.502 413.305 345.17 413.687 344.944C414.472 344.725 415.101 344.576 415.277 344.513C415.391 344.468 415.494 344.4 415.58 344.314C415.667 344.228 415.734 344.125 415.779 344.011L416.175 343.933C416.175 343.933 415.906 344.47 416.634 344.76C416.754 344.81 416.79 344.979 416.846 345.121C416.267 345.728 414.373 345.955 413.51 345.686Z" fill="#FF97A6"/>
<path d="M408.77 276.723C406.973 278.918 405.434 281.313 404.183 283.861C401.667 289.041 402.77 292.681 403.95 299.854C405.364 308.448 412.537 335.601 414.438 343.439C414.7 344.52 416.594 345.163 416.65 343.799C417.032 335.226 415.618 291.5 415.618 291.5L431.477 344.718H433.598C433.71 344.125 433.71 343.516 433.598 342.923C432.552 333.622 429.463 295.437 428.226 290.949C425.64 281.536 423.534 279.076 423.046 276.504C421.378 277.302 411.979 278.15 408.77 276.723Z" fill="#7F65C1"/>
<path d="M433.561 342.937C432.515 333.636 429.426 295.451 428.189 290.963C425.603 281.55 423.497 279.09 423.009 276.518C422.627 276.701 418.889 277.147 416.648 277.436C416.648 277.436 425.723 302.391 432.607 344.732H433.568C433.678 344.138 433.676 343.529 433.561 342.937Z" fill="#6851AD"/>
<path d="M422.968 259.287C420.888 258.372 418.698 257.728 416.452 257.372C414.172 257.094 411.864 257.14 409.597 257.506C406.572 257.98 407.844 259.803 407.844 259.803C407.844 259.803 406.148 274.532 408.77 276.723C411.979 278.136 421.378 277.302 423.011 276.518C423.011 276.369 421.315 276.292 421.35 276.164C423.209 270.263 422.968 259.287 422.968 259.287Z" fill="#FFE5B0"/>
<path d="M402.763 275.938C405.413 279.316 406.091 272.751 406.091 272.751L408.918 260.164L410.615 257.379C409.415 257.394 408.257 257.815 407.328 258.574C406.706 259.033 404.862 262.362 404.558 262.991C401.483 269.337 400.664 273.267 402.763 275.938Z" fill="#357A5F"/>
<path d="M427.831 279.02C425.817 282.808 423.252 277.401 423.252 277.401L422.898 262.871L422.842 259.217C423.854 259.816 424.72 260.632 425.379 261.606C426.02 262.845 426.568 264.13 427.019 265.45C428.482 269.408 429.471 275.931 427.831 279.02Z" fill="#29684D"/>
<path d="M422.975 274.016C422.975 274.016 424.551 272.602 425.264 272.602C425.978 272.602 427.151 273.691 426.833 273.712C426.515 273.733 426.219 273.712 426.219 273.712C426.219 273.712 426.812 273.797 426.798 274.094C426.784 274.39 425.667 274.094 425.335 274.136C425.003 274.178 423.194 275.712 422.975 274.016Z" fill="#FF97A6"/>
<path d="M409.441 257.492C411.339 257.224 413.258 257.139 415.173 257.238L413.321 273.062L407.307 272.737V263.231L409.441 257.492Z" fill="#357A5F"/>
<path d="M416.035 257.499C415.864 257.529 415.707 257.614 415.59 257.742C415.472 257.87 415.4 258.033 415.385 258.206L413.512 273.083C413.512 273.288 411.731 262.588 411.774 262.22C411.816 261.853 413.018 261.613 413.018 261.613C413.018 261.613 411.604 260.468 411.788 260.348C411.972 260.227 413.152 258.227 414.255 257.464C415.357 256.701 417.251 257.294 417.251 257.294L416.035 257.499ZM418.813 257.549C418.898 257.584 422.665 258.842 423.633 259.754C424.601 260.666 423.237 266.221 423.237 266.221L422.177 273.182L418.149 272.8L419.392 264.623L418.813 257.549Z" fill="#29684D"/>
<path d="M417.738 257.634C418.007 257.771 418.23 257.982 418.382 258.243C418.534 258.504 418.607 258.802 418.593 259.104C418.445 262.524 417.971 273.493 417.964 273.67C417.957 273.846 421.498 263.62 421.498 263.252C421.498 262.885 420.374 262.447 420.374 262.447C420.374 262.447 421.95 261.556 421.787 261.408C421.625 261.259 420.805 259.061 419.844 258.15C418.883 257.238 416.975 257.252 416.975 257.252L417.738 257.634Z" fill="#357A5F"/>
<path d="M404.996 277.458C409.943 279.5 422.813 282.249 423.647 276.263C423.83 274.929 423.545 273.573 422.841 272.426L406.947 272.475C406.947 272.475 398.6 274.814 404.996 277.458Z" fill="#357A5F"/>
<path d="M408.719 272.489C408.719 272.489 407.051 271.217 406.344 271.267C405.638 271.316 404.535 272.482 404.853 272.482C405.059 272.481 405.264 272.469 405.468 272.447C405.468 272.447 404.888 272.574 404.917 272.871C404.945 273.168 406.04 272.779 406.38 272.814C406.719 272.85 408.627 274.214 408.719 272.489Z" fill="#FF97A6"/>
<path d="M424.6 280.659C419.285 281.147 407.03 279.889 408.013 273.917C408.373 271.698 408.988 271.09 408.988 271.09L424.211 275.295C424.211 275.295 431.476 280.023 424.6 280.659Z" fill="#29684D"/>
<path d="M417.144 254.347C416.868 255.563 416.669 256.795 416.551 258.037C416.578 258.135 416.633 258.223 416.709 258.291C416.785 258.358 416.879 258.403 416.98 258.418C417.081 258.434 417.184 258.42 417.277 258.379C417.37 258.338 417.449 258.27 417.505 258.185C417.978 257.429 417.816 254.46 417.816 254.46L417.144 254.347Z" fill="#FF97A6"/>
<path d="M416.686 256.757C416.798 256.935 416.975 257.062 417.18 257.111C417.385 257.16 417.6 257.127 417.781 257.019C417.859 256.411 417.901 255.725 417.929 255.21L416.975 255.132C416.898 255.577 416.777 256.206 416.686 256.757Z" fill="#C95D77"/>
<path d="M415.108 251.74C415.108 251.74 414.683 247.796 419.39 247.966C419.39 247.966 421.857 248.354 422.542 248.877C423.228 249.4 423.744 252.411 423.327 253.577C422.62 255.464 420.295 257.068 418.146 256.142C416.267 255.337 415.108 251.74 415.108 251.74Z" fill="#3B2B5B"/>
<path d="M421.215 248.771C421.215 248.771 422.127 244.241 425.922 244.029C429.717 243.817 431.936 247.344 432.12 249.874C432.304 252.404 432.042 255.075 427.773 260.213C427.773 260.213 424.643 264.729 426.862 267.33C426.862 267.33 423.971 268.115 422.812 264.659C421.653 261.203 424.374 256.92 424.635 255.393C424.897 253.867 425.872 248.764 421.604 249.874L421.215 248.771Z" fill="#3B2B5B"/>
<path d="M419.575 255.874C419.963 255.317 420.27 254.708 420.487 254.065C420.585 253.816 420.629 253.55 420.618 253.284C420.607 253.017 420.54 252.756 420.421 252.517C420.303 252.278 420.135 252.066 419.93 251.896C419.724 251.725 419.485 251.6 419.229 251.528C418.967 251.457 418.805 251.4 418.776 251.337C418.157 251.122 417.502 251.024 416.847 251.047C416.14 251.174 415.815 251.944 415.546 252.51C415.21 253.231 415.071 254.028 415.144 254.821C415.391 255.512 415.898 256.08 416.557 256.404C418.147 257.054 418.769 256.842 419.575 255.874Z" fill="#FF97A6"/>
<path d="M417.307 250.609C417.307 250.708 418.819 254.46 420.494 254.637C422.169 254.814 421.597 251.895 421.568 251.81C421.54 251.725 417.307 250.609 417.307 250.609Z" fill="#3B2B5B"/>
<path d="M432.148 249.888C431.971 248.553 431.408 247.298 430.53 246.276C429.694 245.254 428.526 244.556 427.229 244.305C426.589 244.184 425.933 244.184 425.293 244.305C424.664 244.441 424.077 244.727 423.583 245.139C422.588 246.001 421.872 247.14 421.526 248.411C421.511 248.457 421.48 248.495 421.438 248.519C421.396 248.542 421.347 248.549 421.3 248.538L419.37 248.107H418.586C418.324 248.107 418.056 248.156 417.794 248.213C417.284 248.323 416.802 248.54 416.381 248.849C415.965 249.196 415.637 249.636 415.422 250.133C415.207 250.63 415.112 251.171 415.144 251.711C415.075 251.156 415.139 250.592 415.331 250.066C415.523 249.54 415.836 249.067 416.247 248.686C416.692 248.334 417.208 248.081 417.759 247.944C418.035 247.874 418.317 247.852 418.593 247.803L419.434 247.768L421.413 248.171L421.187 248.298C421.539 246.944 422.29 245.728 423.342 244.806C423.894 244.362 424.543 244.054 425.236 243.909C425.923 243.785 426.627 243.785 427.314 243.909C428.686 244.196 429.905 244.975 430.742 246.1C431.586 247.19 432.076 248.511 432.148 249.888ZM424.664 255.408C424.347 256.606 423.963 257.786 423.512 258.941C423.101 260.099 422.863 261.311 422.805 262.538C422.729 263.754 423.054 264.961 423.731 265.973C424.083 266.474 424.568 266.865 425.132 267.102C425.695 267.34 426.315 267.414 426.918 267.316C426.303 267.5 425.647 267.5 425.031 267.316C424.415 267.101 423.873 266.713 423.469 266.199C422.703 265.142 422.32 263.856 422.381 262.553C422.471 261.286 422.759 260.041 423.236 258.863C423.469 258.277 423.717 257.697 423.943 257.132C424.224 256.575 424.465 255.999 424.664 255.408Z" fill="#7F65C1"/>
<path d="M417.349 253.584C417.337 253.544 417.315 253.508 417.287 253.478C417.259 253.447 417.225 253.423 417.186 253.407L417.123 253.372C417.031 253.316 416.974 253.28 416.911 253.294L416.861 253.089C416.994 253.073 417.128 253.109 417.236 253.188L417.292 253.224C417.355 253.253 417.41 253.296 417.455 253.348C417.5 253.4 417.534 253.461 417.554 253.528L417.349 253.584Z" fill="white"/>
<path d="M416.473 253.471C416.335 253.467 416.201 253.433 416.079 253.37C415.956 253.308 415.85 253.219 415.766 253.111C415.61 252.901 415.502 252.66 415.448 252.404C415.335 251.975 415.385 251.519 415.589 251.125L415.653 250.976L415.759 251.089C415.893 251.231 416.027 251.351 416.162 251.478C416.43 251.713 416.668 251.981 416.868 252.277C416.949 252.374 417.01 252.487 417.046 252.609C417.083 252.73 417.094 252.857 417.08 252.983C417.042 253.122 416.959 253.244 416.844 253.331C416.729 253.418 416.588 253.465 416.444 253.464L416.473 253.471ZM415.766 251.351C415.629 251.665 415.604 252.017 415.695 252.347C415.741 252.57 415.835 252.78 415.971 252.962C416.033 253.045 416.113 253.114 416.204 253.163C416.296 253.212 416.397 253.24 416.501 253.245C416.596 253.246 416.688 253.216 416.765 253.16C416.841 253.104 416.897 253.025 416.925 252.934C416.939 252.736 416.876 252.541 416.748 252.39C416.547 252.107 416.31 251.853 416.042 251.634L415.766 251.351ZM418.734 254.743C418.477 254.749 418.222 254.687 417.996 254.563C417.77 254.439 417.581 254.257 417.448 254.036C417.382 253.92 417.346 253.789 417.342 253.655C417.341 253.586 417.355 253.518 417.382 253.455C417.408 253.392 417.448 253.335 417.497 253.287C417.505 253.266 417.519 253.247 417.539 253.234C417.558 253.221 417.581 253.215 417.603 253.217C418.133 253.252 418.586 253.316 419.066 253.379L419.773 253.471C419.844 253.471 420.035 253.506 420.098 253.655C420.116 253.714 420.119 253.777 420.105 253.838C420.091 253.899 420.062 253.955 420.02 254.001C419.892 254.212 419.715 254.391 419.506 254.522C419.296 254.653 419.058 254.734 418.812 254.757L418.734 254.743ZM417.681 253.415C417.649 253.441 417.623 253.474 417.606 253.512C417.589 253.55 417.581 253.592 417.582 253.634C417.587 253.733 417.616 253.83 417.667 253.916C417.789 254.12 417.965 254.286 418.176 254.394C418.388 254.503 418.625 254.55 418.861 254.531C419.077 254.507 419.284 254.434 419.466 254.318C419.649 254.202 419.802 254.045 419.914 253.86C419.978 253.768 419.971 253.733 419.964 253.718C419.957 253.704 419.9 253.669 419.808 253.662L419.066 253.563C418.579 253.506 418.148 253.443 417.681 253.415Z" fill="white"/>
<path d="M454.502 269.267C453.611 269.45 450.424 279.726 448.593 285.38C448.212 286.567 447.237 290.278 448.438 290.617C451.675 291.515 454.876 287.444 455.64 285.338C456.113 284.023 456.7 277.528 457.272 271.733C457.357 270.85 456.318 268.906 454.502 269.267Z" fill="#295A6E"/>
<path d="M446.226 346.675C446.014 345.135 448.043 345.516 449.258 345.135C448.898 345.368 448.551 345.7 449.11 345.842C449.951 346.075 451.788 345.799 452.325 345.184C452.509 345.664 452.598 346.176 452.587 346.69C452.58 347.262 446.375 347.714 446.226 346.675Z" fill="#3B2B5B"/>
<path d="M449.11 345.856C448.538 345.7 448.898 345.368 449.259 345.149C450.008 344.916 450.672 344.746 450.785 344.682C450.893 344.633 450.99 344.562 451.07 344.475C451.15 344.388 451.212 344.285 451.252 344.174L451.633 344.089C451.633 344.089 452.262 345.085 452.34 345.212C451.789 345.813 449.951 346.089 449.11 345.856Z" fill="#FF97A6"/>
<path d="M466.609 347.205C466.397 345.665 468.425 346.046 469.641 345.665C469.281 345.898 468.934 346.23 469.493 346.372C470.334 346.605 472.171 346.329 472.708 345.714C472.892 346.194 472.981 346.706 472.97 347.22C472.963 347.792 466.758 348.266 466.609 347.205Z" fill="#3B2B5B"/>
<path d="M469.493 346.386C468.921 346.23 469.281 345.898 469.641 345.679C470.391 345.446 471.055 345.276 471.168 345.212C471.276 345.163 471.372 345.092 471.453 345.005C471.533 344.918 471.594 344.815 471.634 344.704L472.016 344.619C472.016 344.619 472.645 345.615 472.723 345.743C472.172 346.343 470.334 346.619 469.493 346.386Z" fill="#FF97A6"/>
<path d="M471.974 274.461C471.974 274.645 474.016 278.32 476.377 282.779C478.836 287.444 473.72 338.986 472.659 344.626C472.648 344.692 472.623 344.756 472.586 344.812C472.549 344.869 472.501 344.918 472.445 344.955C472.389 344.993 472.326 345.019 472.259 345.031C472.193 345.044 472.125 345.043 472.059 345.029L471.734 344.965C471.441 344.905 471.176 344.749 470.983 344.521C470.789 344.292 470.678 344.006 470.666 343.707L463.345 292.271L459.027 311.07L453.168 344.329L451.012 344.251C451.012 344.251 447.74 316.689 448.814 308.441C452.8 277.684 457.295 276.8 458.171 274.73C459.783 275.429 468.914 275.952 471.974 274.461Z" fill="#3B2B5B"/>
<path d="M471.972 274.461C471.972 274.645 474.015 278.32 476.375 282.779C478.835 287.444 473.718 338.986 472.658 344.626C472.646 344.692 472.621 344.756 472.584 344.812C472.547 344.869 472.499 344.918 472.443 344.955C472.387 344.993 472.324 345.019 472.258 345.031C472.191 345.044 472.123 345.043 472.057 345.029L471.732 344.965C471.131 344.845 471.456 315.473 470.318 305.727C469.026 295.496 467.002 285.371 464.262 275.429C464.262 275.429 470.439 275.203 471.972 274.461Z" fill="#30193B"/>
<path d="M459.654 256.892C458.241 259.012 454.502 266.786 453.576 270.977C452.502 275.804 457.11 273.097 457.11 273.097L460.82 259.747C461.626 258.779 461.909 253.648 459.654 256.892Z" fill="#295A6E"/>
<path d="M472.347 257.16L472.269 257.118C468.502 255.301 462.791 254.998 460.961 255.704C460.021 256.093 459.053 258.595 459.053 258.595C457.258 263.599 457.844 274.814 458.099 275.012C459.562 275.981 469.216 276.426 472.488 275.465C472.537 274.383 474.269 269.302 475.64 265.139C476.672 262.051 476.615 259.019 472.347 257.16Z" fill="#295A6E"/>
<path d="M468.418 252.248C468.418 252.248 468.481 255.782 468.184 256.143C468.08 256.279 467.942 256.385 467.784 256.452C467.626 256.519 467.454 256.544 467.284 256.524C467.113 256.504 466.951 256.44 466.813 256.338C466.675 256.237 466.565 256.101 466.495 255.945C466.078 255.005 466.997 252.051 466.997 252.051L468.418 252.248Z" fill="#FF97A6"/>
<path d="M468.405 254.425C468.139 254.663 467.807 254.814 467.453 254.857C467.099 254.9 466.74 254.833 466.426 254.665C466.502 254.038 466.622 253.417 466.786 252.807L468.426 253.04C468.426 253.57 468.433 253.86 468.405 254.425Z" fill="#C95D77"/>
<path d="M465.153 251.909C465.054 251.316 465.895 249.301 465.895 249.301C466.813 247.987 469.824 249.605 470.213 250.086C470.602 250.566 470.404 251.4 470.213 251.987C470.002 252.728 469.6 253.401 469.047 253.938C468.425 254.285 467.694 254.381 467.004 254.206C465.457 253.676 465.131 253.125 465.153 251.909Z" fill="#FF97A6"/>
<path d="M472.842 257.74C472.17 257.655 473.675 262.517 473.824 264.687C473.944 266.468 474.092 273.274 474.092 273.274C474.092 273.274 474.206 280.928 477.852 277.076C481.287 273.507 477.612 258.362 472.842 257.74Z" fill="#164E5B"/>
<path d="M474.476 276.263C474.476 276.263 471.295 293.564 473.062 294.582C474.829 295.6 478.843 293.55 479.14 291.96C479.437 290.37 481.027 278.581 478.193 273.253C475.875 268.892 474.476 276.263 474.476 276.263ZM472.348 257.16L472.271 257.118C471.68 256.846 471.073 256.61 470.454 256.411L469.896 256.241C469.896 256.241 470.44 258.913 469.189 264.107C467.974 269.019 464.482 275.988 464.482 275.988H465.189C468.016 276.065 470.991 275.924 472.532 275.479C472.582 274.398 474.313 269.316 475.684 265.153C476.674 262.051 476.617 259.019 472.348 257.16Z" fill="#164E5B"/>
<path d="M474.786 294.271C474.876 294.285 474.959 294.326 475.026 294.387C475.093 294.449 475.139 294.529 475.161 294.617C475.333 295.337 475.416 296.075 475.408 296.815C475.408 297.444 474.927 298.667 474.581 298.688C474.429 298.709 474.274 298.709 474.122 298.688C474.064 298.742 473.988 298.772 473.91 298.772C473.831 298.772 473.755 298.742 473.698 298.688C473.563 298.575 473.818 297.854 473.804 297.275C473.804 296.886 473.684 296.872 473.521 296.335C473.521 296.335 473.295 297.041 473.069 296.858C472.843 296.674 473.21 295.352 473.585 295.077C473.721 294.853 473.834 294.616 473.924 294.37C473.973 294.2 474.447 294.2 474.786 294.271ZM450.446 289.91C450.357 289.926 450.275 289.967 450.208 290.029C450.142 290.09 450.094 290.169 450.071 290.257C449.894 290.976 449.808 291.714 449.817 292.455C449.859 293.084 450.305 294.306 450.651 294.335C450.804 294.35 450.958 294.35 451.11 294.335C451.168 294.388 451.244 294.418 451.322 294.418C451.401 294.418 451.477 294.388 451.534 294.335C451.662 294.221 451.407 293.508 451.428 292.921C451.428 292.532 451.549 292.511 451.711 291.974C451.711 291.974 451.937 292.645 452.156 292.497C452.375 292.349 452.022 290.999 451.648 290.716C451.507 290.495 451.393 290.258 451.308 290.009C451.259 289.847 450.785 289.84 450.446 289.91Z" fill="#FFA9BA"/>
<path d="M466.58 256.475H468.064C468.064 256.475 468.121 258.022 467.506 258.107C466.891 258.192 466.523 257.676 466.58 256.475Z" fill="#3B2B5B"/>
<path d="M467.153 257.761C467.153 257.761 466.086 261.295 464.446 265.952C463.393 268.956 463.322 269.231 463.322 269.231L465.711 271.62L467.966 270.122C467.966 270.122 468.17 258.764 467.549 257.824C466.927 256.885 467.153 257.761 467.153 257.761Z" fill="#3B2B5B"/>
<path d="M468.369 255.238C468.296 255.488 468.187 255.726 468.044 255.945C467.801 256.134 467.543 256.304 467.273 256.454L468.531 258.27L469.775 256.213L468.369 255.238Z" fill="#1C5263"/>
<path d="M467.392 256.432L466.085 258.234C465.804 257.906 465.591 257.525 465.459 257.114C465.327 256.703 465.278 256.269 465.315 255.839L465.414 255.464L466.389 255.167C466.394 255.443 466.489 255.71 466.658 255.928C466.827 256.145 467.063 256.303 467.329 256.376" fill="#1C5263"/>
<path d="M470.799 248.284C470.917 247.992 470.959 247.675 470.922 247.362C470.885 247.05 470.77 246.752 470.587 246.496C470.239 246.099 469.755 245.847 469.23 245.789C468.728 245.647 467.11 245.626 466.841 245.527C465.167 244.912 462.728 242.792 462.156 245.245C461.696 247.238 464.622 248.983 466.057 249.414C467.075 249.725 468.092 249.414 469.11 249.683C469.422 250.119 469.645 250.613 469.766 251.136C469.888 251.658 469.905 252.2 469.817 252.729C469.813 252.751 469.815 252.774 469.823 252.795C469.83 252.816 469.843 252.834 469.861 252.849C469.878 252.863 469.899 252.873 469.921 252.876C469.943 252.88 469.965 252.878 469.986 252.87C470.934 252.559 472.107 250.404 472.163 249.888C472.135 249.511 471.988 249.152 471.742 248.864C471.497 248.575 471.167 248.372 470.799 248.284Z" fill="#FFCB48"/>
<path d="M472.157 249.902C472.119 249.526 471.954 249.175 471.69 248.906C471.465 248.625 471.142 248.44 470.786 248.39C470.759 248.388 470.733 248.376 470.715 248.356C470.697 248.336 470.687 248.311 470.687 248.284C470.78 248.033 470.815 247.765 470.789 247.5C470.763 247.234 470.678 246.978 470.538 246.75C470.373 246.548 470.17 246.381 469.939 246.26C469.708 246.138 469.455 246.065 469.195 246.043C468.728 245.965 468.256 245.918 467.782 245.902C467.542 245.902 467.301 245.902 467.075 245.845C466.936 245.839 466.8 245.808 466.672 245.753C466.559 245.704 466.439 245.662 466.333 245.605C465.508 245.134 464.645 244.732 463.754 244.404C463.56 244.331 463.35 244.318 463.149 244.368C462.949 244.417 462.768 244.525 462.63 244.679C462.37 245.043 462.243 245.484 462.269 245.93C462.456 246.862 462.982 247.691 463.746 248.255C463.316 248.011 462.941 247.681 462.643 247.286C462.345 246.891 462.132 246.439 462.015 245.958C461.978 245.703 461.995 245.443 462.064 245.195C462.12 244.944 462.221 244.704 462.361 244.488C462.529 244.248 462.781 244.081 463.068 244.022C463.328 243.962 463.599 243.962 463.86 244.022C464.784 244.334 465.678 244.729 466.531 245.202C466.637 245.259 466.743 245.294 466.849 245.344C466.942 245.387 467.043 245.414 467.146 245.421C467.372 245.421 467.612 245.471 467.853 245.485C468.346 245.511 468.837 245.57 469.323 245.662C469.635 245.692 469.936 245.792 470.205 245.953C470.474 246.115 470.703 246.334 470.877 246.594C471.026 246.864 471.111 247.164 471.127 247.471C471.143 247.778 471.089 248.085 470.969 248.368L470.877 248.227C471.075 248.264 471.264 248.341 471.432 248.452C471.599 248.564 471.743 248.709 471.853 248.877C472.066 249.175 472.173 249.536 472.157 249.902Z" fill="#FFE4AE"/>
<path d="M146.16 72.2708C145.212 72.5837 144.374 73.1635 143.747 73.9407C143.12 74.718 142.731 75.6596 142.626 76.6526C142.52 78.4407 141.693 80.5609 143.015 82.1369C146.584 86.3773 155.27 88.858 162.033 88.6247C168.797 88.3915 174.974 85.0557 176.783 80.4761C178.592 75.8964 175.779 70.3768 170.019 67.5922C165.998 65.6558 160.987 65.0833 156.28 65.3236C151.771 65.5568 147.227 66.5675 144.11 68.7937C139.425 72.1436 139.001 78.0661 143.015 82.1369C147.029 86.2077 154.966 88.0735 161.327 86.5469" fill="#D3E7F2"/>
<path d="M146.047 72.2143C145.272 72.5 144.567 72.9497 143.982 73.5328C143.396 74.1158 142.944 74.8184 142.655 75.5925C142.118 77.2675 141.573 79.9813 142.499 81.6704C144.16 84.6811 149.326 86.7377 153.341 87.7342C162.33 89.9746 172.599 88.0523 176.373 81.7129C180.613 74.6031 173.15 66.7371 162.62 65.4579C152.655 64.2353 140.761 67.2248 140.125 75.2109C139.489 83.197 151.128 88.8792 161.411 86.6317C161.659 86.5752 161.454 86.4551 161.263 86.4904C152.309 88.4551 141.863 84.2006 140.612 77.2604C139.199 69.3874 148.938 65.1894 158.938 65.3731C164.323 65.472 169.829 66.829 173.362 69.9881C176.048 72.391 177.433 75.5077 177.108 78.4689C176.338 85.4798 166.557 89.5435 157.171 88.2855C152.478 87.6565 147.574 86.0239 144.45 83.3383C142.407 81.5786 142.443 79.8895 142.725 77.7834C143.029 75.5572 143.432 73.6349 146.301 72.3557C146.513 72.2567 146.202 72.179 146.068 72.2426L146.047 72.2143Z" fill="#D3E7F2"/>
<path d="M158.494 81.2324C157.646 86.9923 164.204 91.8334 172.141 93.6568C169.682 91.6002 169.024 90.5401 167.413 88.116C165.802 85.6919 165.173 82.8366 166.558 80.4479L159.95 81.7129" fill="#D3E7F2"/>
<path d="M158.309 81.2252C157.659 87.2536 164.331 91.8898 172.041 93.7344C172.119 93.7344 172.465 93.7344 172.338 93.6142C168.154 90.0382 164.486 84.9214 166.762 80.4548C166.819 80.3559 166.557 80.3559 166.494 80.37L159.886 81.628C159.631 81.6775 159.843 81.8259 160.034 81.7905L163.815 81.0838L165.702 80.7234C166.211 80.9425 166.267 81.2322 165.879 81.5927C165.879 82.8506 165.525 83.9178 165.879 85.2111C166.55 87.7413 168.472 90.4481 170.663 92.54C171.264 93.1125 172.154 93.4376 170.854 93.2467C169.916 93.0369 169.002 92.7314 168.126 92.335C166.276 91.634 164.531 90.6828 162.939 89.5081C159.914 87.2041 158.373 84.3419 158.698 81.2888C158.698 81.1545 158.324 81.1686 158.309 81.2888V81.2252Z" fill="#D3E7F2"/>
<path d="M197.887 104.993C197.887 104.993 201.795 106.159 201.739 102.526C201.682 98.8936 198.056 98.3353 196.834 99.2187C195.01 100.526 195.788 102.046 195.788 102.046C195.365 101.846 194.889 101.785 194.429 101.873C193.97 101.961 193.549 102.192 193.229 102.533C192.092 103.735 193.01 106.774 195.088 107.261C195.429 107.38 195.794 107.409 196.149 107.347C196.505 107.284 196.838 107.133 197.118 106.905C197.399 106.678 197.616 106.383 197.751 106.049C197.885 105.714 197.932 105.351 197.887 104.993Z" fill="#FCD98B"/>
<path d="M201.715 102.526C201.661 101.673 201.337 100.858 200.79 100.201C200.655 100.048 200.506 99.9082 200.344 99.7841C200.176 99.6647 199.999 99.5584 199.814 99.4661C199.453 99.2787 199.06 99.1589 198.655 99.1127C198.256 99.0541 197.85 99.0782 197.461 99.1834L197.185 99.2753L196.945 99.4095C196.78 99.5299 196.624 99.6622 196.478 99.8053C196.192 100.08 195.981 100.423 195.864 100.802C195.761 101.179 195.775 101.578 195.906 101.947C195.923 101.986 195.923 102.03 195.907 102.07C195.891 102.11 195.86 102.142 195.821 102.159C195.799 102.169 195.775 102.175 195.751 102.175C195.726 102.175 195.702 102.169 195.68 102.159C195.488 102.062 195.283 101.996 195.072 101.961C194.854 101.933 194.633 101.933 194.415 101.961C193.96 102.017 193.535 102.215 193.199 102.526C193.349 102.341 193.525 102.179 193.722 102.046C193.923 101.913 194.145 101.817 194.379 101.763C194.61 101.703 194.85 101.687 195.086 101.713C195.329 101.739 195.567 101.799 195.793 101.89L195.574 102.109C195.356 101.671 195.301 101.17 195.418 100.696C195.535 100.23 195.78 99.8065 196.125 99.4731C196.288 99.3093 196.462 99.1581 196.648 99.0208C196.754 98.9572 196.86 98.8865 196.966 98.8371C197.079 98.7896 197.195 98.7494 197.312 98.7169C197.774 98.5968 198.255 98.5751 198.726 98.6533C199.643 98.7829 200.473 99.2676 201.037 100.003C201.57 100.73 201.812 101.63 201.715 102.526Z" fill="#FFE8BB"/>
<path d="M189.569 121.898C189.569 122.018 186.438 126.195 185.908 129.354C184.332 138.867 187.421 163.277 188.233 168.267C188.346 168.974 189.703 168.097 189.71 167.256C189.788 161.97 195.23 133.495 195.23 133.495L215.386 168.203L216.92 167.864C216.92 167.864 211.874 152.895 209.004 144.733C207.103 139.312 204.63 129.969 198.509 123.114C196.962 122.831 191.944 121.636 189.569 121.898Z" fill="#7F65C1"/>
<path d="M185.582 170.112C185.582 169.871 186.67 169.313 187.412 169.03C187.2 169.186 186.988 169.412 187.349 169.49C187.698 169.541 188.054 169.52 188.394 169.427C188.735 169.335 189.053 169.173 189.328 168.952C189.459 169.252 189.533 169.573 189.547 169.899C189.561 170.253 185.66 170.79 185.582 170.112Z" fill="#3B2B5B"/>
<path d="M187.349 169.49C186.988 169.412 187.2 169.186 187.412 169.03C187.879 168.846 188.26 168.719 188.345 168.677C188.412 168.642 188.47 168.594 188.518 168.535C188.565 168.477 188.6 168.41 188.621 168.338L188.854 168.267C188.854 168.267 189.285 168.875 189.328 168.974C189.051 169.191 188.732 169.348 188.392 169.437C188.051 169.526 187.696 169.544 187.349 169.49Z" fill="#FF97A6"/>
<path d="M219.871 169.32C219.871 168.967 218.712 168.656 217.942 168.458C218.175 168.592 218.408 168.783 218.062 168.903C217.723 168.993 217.37 169.012 217.023 168.959C216.677 168.907 216.345 168.785 216.048 168.599C215.949 168.907 215.911 169.231 215.935 169.553C215.956 169.907 219.857 169.998 219.871 169.32Z" fill="#3B2B5B"/>
<path d="M218.063 168.91C218.409 168.79 218.176 168.599 217.943 168.465C217.469 168.338 217.074 168.253 216.982 168.217C216.913 168.19 216.851 168.149 216.798 168.097C216.746 168.045 216.705 167.982 216.678 167.914L216.438 167.878C216.438 167.878 216.077 168.521 216.049 168.585C216.344 168.774 216.676 168.9 217.022 168.956C217.369 169.012 217.723 168.997 218.063 168.91Z" fill="#FF97A6"/>
<path d="M216.035 167.8L216.912 167.61C216.912 167.61 211.866 152.641 208.996 144.478C207.088 139.05 204.706 129.276 198.586 122.428C197.978 122.315 194.883 122.93 193.526 122.739C192.395 122.569 199.929 133.799 206.247 145.842C209.899 152.982 213.166 160.312 216.035 167.8Z" fill="#6E57B5"/>
<path d="M189.576 109.784C190.771 108.936 194.163 108.159 200.071 109.784C200.675 109.952 201.25 110.212 201.774 110.555C201.494 112.138 201.528 113.762 201.873 115.332C200.626 117.7 199.726 120.235 199.202 122.859C197.159 123.453 190.474 122.527 189.562 121.912C188.894 119.897 188.525 117.794 188.467 115.672C188.382 113.65 188.762 111.636 189.576 109.784Z" fill="#D5EAF5"/>
<path d="M198.975 109.544C199.972 109.726 200.929 110.082 201.802 110.597C201.521 112.181 201.555 113.804 201.901 115.375C200.637 117.813 199.719 120.415 199.173 123.106C198.155 123.41 193.455 122.817 193.455 122.817C195.429 121.168 197.002 119.092 198.056 116.746C199.462 113.078 198.77 109.452 198.975 109.544Z" fill="#AACBE8"/>
<path d="M190.642 111.855C190.642 111.855 190.755 112.661 187.525 115.7C186.612 116.753 185.55 117.668 184.373 118.414C183.242 119.05 182.705 116.421 182.705 116.421C182.705 116.421 187.377 112.018 188.5 110.767C188.857 110.389 189.244 110.041 189.659 109.728L190.642 111.855Z" fill="#D5EAF5"/>
<path d="M194.827 106.717C195.067 107.509 195.237 108.32 195.336 109.141C195.251 109.403 194.841 109.792 194.495 109.283C194.149 108.774 194.113 106.816 194.113 106.816L194.827 106.717Z" fill="#FF97A6"/>
<path d="M195.221 108.314C195.1 108.443 194.943 108.532 194.77 108.571C194.598 108.61 194.418 108.597 194.253 108.533C194.191 108.138 194.151 107.739 194.133 107.339L194.804 106.675C194.889 106.986 195.143 107.947 195.221 108.314Z" fill="#C95D77"/>
<path d="M192.346 106.01C192.392 105.394 192.525 104.787 192.741 104.208C192.829 103.934 193.022 103.706 193.278 103.573C193.533 103.441 193.831 103.415 194.105 103.502C194.837 103.689 195.532 103.997 196.162 104.413C196.508 104.802 196.353 105.417 196.24 105.876C196.102 106.458 195.814 106.994 195.406 107.431C194.945 107.727 194.388 107.833 193.851 107.728C192.628 107.424 192.367 106.972 192.346 106.01ZM210.961 134.937C211.629 134.884 212.298 135.006 212.905 135.291C213.272 135.545 214.035 136.527 213.951 136.704C213.866 136.881 213.675 136.704 213.675 136.704C213.675 136.704 213.781 136.958 213.597 137.008C213.414 137.057 213.081 136.591 212.707 136.372C212.481 136.238 212.156 136.209 212 136.089C212 136.089 212.276 136.563 212.12 136.626C211.965 136.69 211.314 135.983 211.194 135.693C211.074 135.404 210.82 135.093 210.961 134.937Z" fill="#FF97A6"/>
<path d="M204.31 122.718C204.31 122.718 202.274 116.279 201.483 114.986C199.999 112.491 199.469 112.915 199.469 112.915V109.996C199.469 109.996 201.744 109.996 202.755 111.254C204.635 113.608 207.575 124.612 207.844 124.986L204.31 122.718Z" fill="#AACBE8"/>
<path d="M208.762 126.273C209.794 127.771 212.296 132.584 212.296 132.584C213.433 135.503 210.084 136.188 208.833 135.064C206.507 132.944 204.196 126.633 204.133 122.216C204.133 120.484 206.027 120.407 207.052 122.541C207.886 124.258 208.239 125.524 208.762 126.273Z" fill="#AACBE8"/>
<path d="M187.284 108.908C187.379 108.963 187.452 109.047 187.495 109.148C187.537 109.249 187.545 109.361 187.518 109.466C187.129 111.057 186.641 115.283 186.479 116.124C186.316 116.965 183.892 119.481 183.079 118.046C182.769 117.084 182.649 116.071 182.726 115.064C182.867 111.707 183.645 106.717 187.284 108.908Z" fill="#D5EAF5"/>
<path d="M185.731 108.583C185.879 108.644 186.044 108.644 186.191 108.583C186.338 108.522 186.455 108.405 186.516 108.258L187.753 105.226L186.65 104.774L185.406 107.806C185.348 107.952 185.349 108.115 185.41 108.261C185.471 108.406 185.586 108.522 185.731 108.583Z" fill="#AACBE8"/>
<path d="M187.633 101.106C187.633 101.106 183.392 97.1268 182.219 91.9676L174.961 103.311C174.961 103.311 181.081 101.897 186.036 104.194L187.633 101.106Z" fill="#C43B72"/>
<path d="M185.525 104.321L188.409 105.509C188.536 105.562 188.679 105.567 188.81 105.521C188.94 105.475 189.049 105.383 189.115 105.261L190.395 102.964C190.466 102.841 190.487 102.695 190.452 102.556C190.418 102.418 190.332 102.298 190.211 102.222L187.532 100.498C187.467 100.457 187.393 100.43 187.317 100.418C187.24 100.406 187.162 100.411 187.087 100.431C187.012 100.45 186.942 100.485 186.881 100.534C186.821 100.582 186.77 100.642 186.734 100.71L185.25 103.537C185.211 103.605 185.187 103.681 185.18 103.76C185.173 103.838 185.183 103.918 185.209 103.992C185.235 104.066 185.277 104.134 185.331 104.191C185.386 104.248 185.452 104.292 185.525 104.321Z" fill="#90BEE0"/>
<path d="M176.756 96.8229C174.876 99.8902 173.978 102.767 174.763 103.247C175.547 103.728 177.703 101.622 179.582 98.5544C181.462 95.4872 182.833 91.9889 182.049 91.4871C181.264 90.9853 178.635 93.7486 176.756 96.8229Z" fill="#D5EAF5"/>
<path d="M181.03 97.7911C180.974 97.7558 179.652 96.4837 179.652 96.4837L177.779 99.1693L179.546 100.074L181.03 97.7911Z" fill="#AACBE8"/>
<path d="M178.317 97.5297C177.816 98.2859 177.575 99.0138 177.78 99.1481C177.985 99.2824 178.572 98.7877 179.074 98.0315C179.575 97.2753 179.823 96.5473 179.611 96.406C179.399 96.2646 178.805 96.8229 178.317 97.5297Z" fill="#90BEE0"/>
<path d="M181.171 95.5932C180.368 97.3144 179.397 98.9525 178.273 100.484C176.931 102.06 180.832 101.615 180.874 101.551C180.917 101.487 181.984 97.042 181.171 95.5932Z" fill="#C43B72"/>
<path d="M186.048 105.919C186.078 105.845 186.129 105.783 186.194 105.739C186.26 105.695 186.337 105.671 186.416 105.671C186.755 105.671 187.25 105.763 186.939 106.307C186.801 106.526 186.618 106.714 186.402 106.858C186.187 107.001 185.943 107.098 185.688 107.141C185.673 107.144 185.658 107.143 185.644 107.138C185.63 107.133 185.618 107.124 185.609 107.112C185.6 107.1 185.595 107.086 185.594 107.071C185.593 107.056 185.596 107.041 185.603 107.028L186.048 105.919ZM186.939 107.177C186.939 107.177 186.889 106.124 187.13 106.329C187.257 106.435 187.172 106.901 187.172 106.901C187.172 106.901 187.25 107.481 187.243 107.65C187.14 107.99 187.01 108.321 186.854 108.64L186.345 108.484C186.345 108.484 186.465 108.307 186.501 108.244C186.635 107.989 186.939 107.177 186.939 107.177Z" fill="#FF97A6"/>
<path d="M182.337 93.9959C182.21 94.4743 182.059 94.9461 181.885 95.4094C181.885 95.4094 183.899 98.7593 185.539 99.7629C185.503 99.7983 182.245 95.4872 182.337 93.9959Z" fill="#D15D92"/>
<path d="M187.242 101.127L189.949 102.47L187.44 100.823L187.242 101.127Z" fill="#D5EAF5"/>
<path d="M195.385 106.371C195.385 106.371 192.96 103.912 194.197 102.908C195.434 101.904 197.215 104.555 195.385 106.371Z" fill="#FCD98B"/>
<path d="M525.876 119.665C498.193 102.477 462.347 99.0561 431.929 110.795C423.449 114.081 414.318 119.87 413.314 128.944C412.183 139.135 421.752 147.086 430.657 152.167C446.644 161.284 464.199 168.097 482.511 169.914C500.822 171.73 519.968 168.288 535.431 158.309C540.378 155.093 545.149 150.994 547.29 145.475C551.142 135.538 545.127 123.962 536.293 117.997C527.459 112.032 505.02 108.286 494.476 106.717" fill="#D3E7F2"/>
<path d="M526.518 119.53C504.683 106.36 478.965 101.146 453.724 104.774C437.314 107.177 398.069 119.566 417.469 142.535C425.469 152.012 438.756 157.517 449.979 162.012C462.375 166.959 475.591 170.189 488.976 170.599C507.578 171.179 543.996 165.087 548.844 142.732C555.021 114.265 512.899 109.205 494.658 106.484C494.037 106.392 493.21 106.844 494.249 107C512.702 109.749 557.41 116.258 546.279 145.383C540.95 159.327 521.423 166.069 508.037 168.62C490.072 172.041 471.527 169.221 454.502 162.966C442.487 158.535 427.575 152.471 418.939 142.4C407.454 128.972 419.115 116.315 432.452 110.986C462.636 98.9218 497.648 103.275 525.197 119.799C525.515 119.99 526.928 119.799 526.518 119.53ZM439.625 169.2C435.476 167.666 431.052 166.104 426.727 167.08C422.402 168.055 418.564 172.536 420.055 176.698C421.547 180.861 426.635 181.9 430.939 182.402C436.148 183.009 442.862 182.783 444.812 177.914C446.275 174.239 443.597 169.878 439.915 168.436C436.233 166.995 428.536 166.09 424.925 167.694" fill="#D3E7F2"/>
<path d="M440.296 169.101C433.935 166.79 423.214 163.793 419.574 172.112C415.722 180.91 429.037 182.819 434.712 182.819C437.66 182.819 441.13 182.522 443.525 180.614C447.215 177.674 446.303 172.507 442.932 169.702C438.486 166.012 429.504 165.659 424.267 167.546C423.949 167.659 425.263 167.885 425.588 167.765C430.613 165.956 440.034 166.86 443.257 171.794C447.844 178.861 439.511 182.571 433.582 182.345C428.896 182.161 420.86 181.045 420.564 174.96C420.161 165.56 433.341 167.235 439.002 169.306C439.32 169.419 440.649 169.214 440.331 169.101H440.296ZM412.733 188.472C412.585 185.434 408.577 183.525 405.906 185.009C403.234 186.494 402.478 190.352 403.984 193.003C405.489 195.653 408.747 197.003 411.758 196.748C415.079 196.473 418.316 194.247 419.207 191.031C420.097 187.815 418.09 183.928 414.818 183.257C411.546 182.585 402.598 184.458 403.637 187.624" fill="#D3E7F2"/>
<path d="M413.442 188.48C412.608 182.769 404.311 182.826 402.692 188.048C400.501 195.116 409.385 198.649 414.848 196.444C417.993 195.158 420.559 192.126 420.099 188.564C419.941 187.205 419.365 185.928 418.451 184.909C417.538 183.891 416.331 183.18 414.997 182.875C412.325 182.324 401.993 183.221 402.848 187.653C402.961 188.253 404.48 188.19 404.381 187.653C403.562 183.412 421.343 180.048 418.361 190.981C416.756 196.812 407.76 198.374 404.671 192.883C404.224 192.063 403.972 191.152 403.934 190.219C403.896 189.286 404.073 188.357 404.452 187.504C406.184 184.034 411.336 184.529 411.908 188.465C412 189.066 413.527 189.017 413.442 188.465V188.48Z" fill="#D3E7F2"/>
</svg>
