<svg width="490" height="357" viewBox="0 0 490 357" fill="none" xmlns="http://www.w3.org/2000/svg">
<path opacity="0.73" fill-rule="evenodd" clip-rule="evenodd" d="M252.669 0C254.156 0.0702904 255.459 0.613135 256.578 1.6286C263.527 6.84012 270.475 12.0516 277.424 17.2632C278.953 18.363 279.062 19.5573 277.75 20.8461C270.216 14.8537 262.507 9.09938 254.623 3.58292C253.251 2.75982 252.599 1.56554 252.669 0Z" fill="#36242F"/>
<path opacity="0.955" fill-rule="evenodd" clip-rule="evenodd" d="M340.611 48.2065C337.726 48.6707 335.337 49.9736 333.445 52.1152C332.796 52.1711 332.253 51.9539 331.816 51.4637C331.599 50.1609 331.382 48.858 331.165 47.5551C330.506 48.1001 329.746 48.3173 328.885 48.2065C328.885 45.8179 328.885 43.4293 328.885 41.0407C329.463 37.363 329.572 33.6716 329.211 29.9662C328.441 28.7652 327.68 27.5709 326.931 26.3833C331.324 18.4559 330.889 18.2387 325.628 25.7318C320.773 25.8826 315.996 26.534 311.296 27.6862C306.953 28.1205 302.61 28.1205 298.267 27.6862C296.273 26.9951 294.644 25.8008 293.381 24.1033C293.132 24.4655 292.806 24.6826 292.404 24.7547C287.851 20.5386 286.223 15.3271 287.518 9.12013C291.112 1.18911 297.084 -1.52524 305.433 0.977135C307.408 2.64417 308.819 4.70708 309.667 7.16581C310.458 8.17476 311.435 8.9348 312.599 9.44585C318.381 10.7846 324.244 11.6532 330.188 12.0516C331.932 14.3984 334.321 15.4841 337.354 15.3088C340.794 17.7333 342.639 21.0991 342.891 25.4061C343.751 33.189 342.991 40.7891 340.611 48.2065ZM298.919 1.30285C301.019 1.1097 302.973 1.54402 304.782 2.60573C307.421 6.131 307.204 6.45672 304.13 3.58289C298.514 2.4232 294.062 4.26893 290.776 9.12013C289.585 11.5836 288.934 14.1893 288.821 16.9374C287.769 8.83122 291.134 3.6197 298.919 1.30285Z" fill="#372430"/>
<path opacity="0.719" fill-rule="evenodd" clip-rule="evenodd" d="M334.097 10.4231C336.03 10.7414 337.767 11.5014 339.309 12.7031C337.389 14.113 335.217 14.6558 332.794 14.3317C332.633 12.7954 333.067 11.4926 334.097 10.4231Z" fill="#36242F"/>
<path opacity="0.984" fill-rule="evenodd" clip-rule="evenodd" d="M386.212 12.3773C412.054 12.2687 437.894 12.3773 463.734 12.703C468.341 14.0531 471.49 16.9845 473.179 21.4975C473.614 36.0463 473.614 50.5951 473.179 65.1439C470.984 71.0303 466.75 74.1787 460.476 74.5898C444.625 74.8067 428.773 75.0243 412.921 75.2412C410.424 78.6072 407.927 81.9726 405.43 85.3386C404.266 87.203 402.746 87.6368 400.87 86.6414C400.545 82.7387 400.436 78.83 400.544 74.9155C394.798 75.2601 389.152 74.7175 383.607 73.2869C379.616 71.0727 377.119 67.7067 376.115 63.1896C375.68 50.1608 375.68 37.132 376.115 24.1032C377.295 18.2584 380.661 14.3498 386.212 12.3773Z" fill="#E1D6C8"/>
<path opacity="0.735" fill-rule="evenodd" clip-rule="evenodd" d="M253.97 24.1032C261.341 25.7285 268.724 27.3571 276.119 28.989C275.747 29.7741 275.312 30.5341 274.816 31.2691C267.604 29.6967 260.439 27.9595 253.318 26.0576C253.727 25.4603 253.944 24.8089 253.97 24.1032Z" fill="#36242F"/>
<path opacity="0.994" fill-rule="evenodd" clip-rule="evenodd" d="M328.888 41.0407C329.175 46.7777 327.004 51.4463 322.373 55.0467C320.939 55.7124 319.419 56.0382 317.813 56.0238C314.219 55.7795 310.744 55.345 307.39 54.7209C308.733 53.906 308.95 52.82 308.041 51.4637C307.436 52.2382 307.219 53.1067 307.39 54.0695C305.64 54.1763 303.902 54.0676 302.179 53.7438C301.881 53.4741 301.663 53.1484 301.527 52.7666C303.122 51.2842 304.317 49.547 305.11 47.5551C305.647 45.3517 305.538 43.1803 304.784 41.0407C304.312 43.6672 303.769 46.273 303.156 48.858C301.934 50.1102 300.956 51.5217 300.224 53.0923C300.315 53.9399 300.749 54.4825 301.527 54.7209C298.211 56.4271 294.845 56.4271 291.43 54.7209C291.197 57.3332 291.306 59.939 291.755 62.5382C290.762 59.7839 290.328 56.8525 290.453 53.7438C290.73 49.0543 291.165 44.3857 291.755 39.7378C295.511 38.3839 299.311 38.1667 303.156 39.0864C303.634 35.7182 302.114 34.4153 298.596 35.1777C295.884 34.9674 293.604 35.836 291.755 37.7835C291.684 33.4214 291.901 29.0785 292.407 24.7547C292.809 24.6826 293.135 24.4655 293.384 24.1033C294.647 25.8009 296.275 26.9951 298.27 27.6862C302.613 28.1205 306.956 28.1205 311.299 27.6862C315.999 26.5341 320.776 25.8826 325.63 25.7319C330.892 18.2387 331.327 18.4559 326.933 26.3833C327.683 27.571 328.443 28.7652 329.213 29.9662C329.574 33.6716 329.465 37.3631 328.888 41.0407Z" fill="#B35747"/>
<path opacity="0.93" fill-rule="evenodd" clip-rule="evenodd" d="M235.73 108.139C235.579 111.101 236.121 113.923 237.358 116.608C241.158 119.539 244.524 122.905 247.456 126.705C247.239 126.814 247.021 126.922 246.804 127.031C239.777 119.689 232.611 112.523 225.307 105.533C225.307 105.099 225.09 104.882 224.655 104.882C224.433 102.14 223.999 99.4261 223.353 96.7389C223.956 94.694 224.064 92.6309 223.678 90.5502C220.097 90.3672 216.731 89.39 213.581 87.6187C201.311 75.5704 195.991 60.913 197.621 43.6465C197.993 36.9309 200.707 31.3937 205.764 27.0348C212.254 24.7861 217.9 26.0889 222.701 30.9435C235.944 47.208 238.875 65.1226 231.496 84.6873C230.056 86.34 228.645 87.9686 227.261 89.5731C227.587 90.5502 227.913 91.5274 228.238 92.5045C229.223 92.9977 230.092 93.6491 230.844 94.4589C232.3 99.157 233.929 103.717 235.73 108.139Z" fill="#392531"/>
<path fill-rule="evenodd" clip-rule="evenodd" d="M207.066 29.9662C208.546 29.1425 210.066 29.2511 211.626 30.2919C218.452 36.1418 223.012 43.4162 225.307 52.1152C219.1 45.5785 213.672 38.4126 209.021 30.6176C208.483 30.0407 207.832 29.8235 207.066 29.9662Z" fill="#C6C5D1"/>
<path fill-rule="evenodd" clip-rule="evenodd" d="M207.068 29.9661C207.833 29.8234 208.485 30.0406 209.022 30.6175C213.673 38.4125 219.102 45.5784 225.308 52.1151C226.913 57.3989 227.564 62.8273 227.262 68.4011C216.567 58.1305 208.75 45.9702 203.811 31.9204C204.722 31.0151 205.808 30.3637 207.068 29.9661Z" fill="#DFDFE7"/>
<path fill-rule="evenodd" clip-rule="evenodd" d="M311.947 34.5263C314.778 34.4183 317.6 34.5269 320.415 34.852C322.699 35.2802 324.653 36.2574 326.278 37.7835C321.484 38.2384 316.707 38.6727 311.947 39.0863C311.156 37.5498 311.156 36.0298 311.947 34.5263Z" fill="#402731"/>
<path fill-rule="evenodd" clip-rule="evenodd" d="M291.754 39.7379C291.754 39.0864 291.754 38.435 291.754 37.7835C293.603 35.836 295.883 34.9674 298.594 35.1778C302.112 34.4153 303.633 35.7182 303.154 39.0864C299.309 38.1667 295.509 38.3839 291.754 39.7379Z" fill="#3C2631"/>
<path fill-rule="evenodd" clip-rule="evenodd" d="M298.27 39.7378C299.131 39.627 299.891 39.8442 300.55 40.3892C300.984 41.9092 300.984 43.4293 300.55 44.9493C298.412 45.8687 297.217 45.1088 296.967 42.6692C296.979 41.4752 297.413 40.498 298.27 39.7378Z" fill="#3F2731"/>
<path fill-rule="evenodd" clip-rule="evenodd" d="M315.206 41.6921C316.068 41.5813 316.828 41.7985 317.486 42.3435C317.98 43.8219 317.871 45.2333 317.161 46.5778C314.175 47.1861 313.198 45.9918 314.229 42.9949C314.696 42.6404 315.022 42.2061 315.206 41.6921Z" fill="#3A2530"/>
<path fill-rule="evenodd" clip-rule="evenodd" d="M203.81 31.9206C208.749 45.9704 216.566 58.1306 227.262 68.4012C227.262 69.4871 227.262 70.5724 227.262 71.6584C217.256 60.9735 208.352 49.4646 200.553 37.1321C201.321 35.152 202.407 33.4148 203.81 31.9206Z" fill="#C8C8D3"/>
<path fill-rule="evenodd" clip-rule="evenodd" d="M396.637 49.5094C399.894 49.0751 403.151 48.6408 406.408 48.2065C408.363 48.2065 410.317 48.2065 412.271 48.2065C411.587 43.2723 413.433 39.798 417.809 37.7835C421.303 38.9061 422.606 41.2947 421.717 44.9493C419.634 47.0226 417.137 48.3255 414.226 48.858C416.035 51.4457 418.532 52.7484 421.717 52.7666C425.815 52.4897 429.398 51.0782 432.466 48.5322C430.069 43.4597 429.96 38.3567 432.14 33.2234C434.579 29.6218 437.401 29.1875 440.609 31.9205C441.789 38.4666 439.834 43.8953 434.746 48.2065C434.311 48.6408 434.311 49.0751 434.746 49.5094C436.201 50.9424 437.83 52.1367 439.632 53.0923C444.054 54.6864 448.614 55.5548 453.312 55.6981C445.493 57.2889 438.87 55.2258 433.443 49.5094C428.694 53.1027 423.374 54.2968 417.483 53.0923C415.185 51.8554 413.122 50.4439 411.294 48.858C406.43 49.454 401.544 49.6711 396.637 49.5094Z" fill="#48363F"/>
<path fill-rule="evenodd" clip-rule="evenodd" d="M416.18 39.0864C418.836 39.1328 420.573 40.4357 421.392 42.995C421.147 44.2216 420.495 45.1988 419.437 45.9265C417.697 46.4701 415.959 47.0129 414.226 47.5551C413.032 44.2694 413.683 41.4466 416.18 39.0864Z" fill="#DACFC2"/>
<path fill-rule="evenodd" clip-rule="evenodd" d="M435.723 31.2691C438.602 31.2164 440.122 32.6278 440.283 35.5034C439.551 40.3352 437.38 44.3524 433.769 47.5551C432.918 46.6351 432.375 45.5493 432.14 44.2979C431.706 41.475 431.706 38.652 432.14 35.8291C433.041 34.0015 434.235 32.4815 435.723 31.2691Z" fill="#DDD1C4"/>
<path fill-rule="evenodd" clip-rule="evenodd" d="M200.55 37.1321C208.35 49.4647 217.253 60.9735 227.259 71.6584C227.236 76.2472 225.933 80.3734 223.351 84.0358C215.611 76.8367 209.205 68.5849 204.133 59.2811C202.779 56.3541 201.259 53.5315 199.573 50.8123C199.248 48.2156 199.139 45.6098 199.247 42.9951C199.186 40.9126 199.62 38.9583 200.55 37.1321Z" fill="#DEDEE6"/>
<path opacity="0.999" fill-rule="evenodd" clip-rule="evenodd" d="M328.885 41.0407C328.885 43.4293 328.885 45.8179 328.885 48.2065C329.746 48.3173 330.507 48.1001 331.165 47.5551C331.382 48.858 331.6 50.1608 331.817 51.4637C332.254 51.9539 332.796 52.1711 333.445 52.1152C333.42 52.9334 333.746 53.5848 334.422 54.0695C335.536 52.3656 336.947 51.7141 338.657 52.1152C337.192 52.6519 337.084 53.3034 338.331 54.0695C338.766 54.9378 338.766 55.8069 338.331 56.6752C337.334 52.7158 335.922 52.4989 334.097 56.0238C332.189 60.9871 330.343 65.9811 328.56 71.0069C328.105 72.3645 327.345 73.4505 326.279 74.2641C326.322 73.9788 326.214 73.7612 325.954 73.6127C323.96 75.6413 321.68 77.2699 319.114 78.4985C314.817 80.1114 310.474 81.0886 306.085 81.43C305.65 81.43 305.216 81.43 304.782 81.43C299.524 80.4091 295.941 77.3695 294.033 72.3098C293.167 69.063 292.407 65.8058 291.753 62.5382C291.304 59.9389 291.195 57.3332 291.427 54.7209C294.843 56.427 298.209 56.427 301.525 54.7209C303.502 55.5248 305.456 55.5248 307.388 54.7209C310.742 55.345 314.217 55.7795 317.811 56.0238C319.417 56.0381 320.936 55.7124 322.371 55.0466C327.002 51.4463 329.173 46.7776 328.885 41.0407Z" fill="#79403D"/>
<path opacity="0.985" fill-rule="evenodd" clip-rule="evenodd" d="M340.612 48.2065C344.287 56.2681 341.682 60.8281 332.795 61.8867C333.362 68.6089 333.796 75.3403 334.097 82.0814C334.097 83.1673 334.097 84.2526 334.097 85.3386C333.539 95.7785 328.001 101.424 317.486 102.276C307.758 100.87 303.524 95.2248 304.783 85.3386C304.783 84.4702 304.783 83.6012 304.783 82.7328C304.783 82.2983 304.783 81.8644 304.783 81.4299C305.217 81.4299 305.651 81.4299 306.086 81.4299C314.162 82.5041 320.893 80.1153 326.28 74.2641C327.346 73.4504 328.106 72.3645 328.56 71.0069C330.344 65.981 332.189 60.9871 334.097 56.0238C335.923 52.4988 337.334 52.7157 338.332 56.6752C338.766 55.8068 338.766 54.9378 338.332 54.0694C337.085 53.3033 337.193 52.6519 338.658 52.1151C336.948 51.7141 335.537 52.3655 334.423 54.0694C333.746 53.5848 333.421 52.9333 333.446 52.1151C335.338 49.9736 337.727 48.6707 340.612 48.2065Z" fill="#B45847"/>
<path fill-rule="evenodd" clip-rule="evenodd" d="M406.405 48.2066C403.148 48.6409 399.891 49.0752 396.634 49.5095C396.28 49.4704 396.063 49.2533 395.982 48.8581C399.43 48.21 402.904 47.9928 406.405 48.2066Z" fill="#8A7B7A"/>
<path fill-rule="evenodd" clip-rule="evenodd" d="M307.388 54.7209C305.457 55.5248 303.503 55.5248 301.526 54.7209C300.747 54.4825 300.313 53.9398 300.223 53.0923C300.955 51.5217 301.932 50.1102 303.154 48.858C303.768 46.273 304.31 43.6672 304.783 41.0407C305.536 43.1803 305.645 45.3517 305.108 47.5551C304.315 49.547 303.121 51.2842 301.526 52.7666C301.662 53.1483 301.879 53.4741 302.177 53.7438C303.901 54.0675 305.638 54.1763 307.388 54.0695C307.218 53.1066 307.435 52.2382 308.04 51.4637C308.948 52.82 308.731 53.906 307.388 54.7209Z" fill="#4C2D34"/>
<path fill-rule="evenodd" clip-rule="evenodd" d="M199.25 42.9949C199.142 45.6097 199.251 48.2154 199.576 50.8122C201.262 53.5313 202.782 56.354 204.136 59.2809C209.208 68.5848 215.614 76.8366 223.353 84.0356C222.458 85.6375 221.047 86.289 219.119 85.99C217.081 86.1014 215.235 85.5587 213.582 84.3614C204.99 76.406 200.104 66.5256 198.924 54.7209C198.391 50.6942 198.499 46.7855 199.25 42.9949Z" fill="#BABAC3"/>
<path opacity="0.769" fill-rule="evenodd" clip-rule="evenodd" d="M95.6703 56.0238C92.533 56.5619 89.2758 56.8876 85.8987 57.001C82.4747 58.3071 80.738 60.8047 80.6872 64.4925C80.2527 64.7095 79.8188 64.9271 79.3843 65.144C79.0645 60.2393 81.2357 57.0909 85.8987 55.6981C89.2758 55.1665 92.533 55.2747 95.6703 56.0238Z" fill="#3B2935"/>
<path opacity="0.993" fill-rule="evenodd" clip-rule="evenodd" d="M95.6706 56.0238C99.5793 56.0238 103.488 56.0238 107.397 56.0238C107.595 57.9924 107.92 59.9468 108.374 61.8867C109.233 63.1812 110.427 63.9414 111.957 64.1668C119.774 64.6013 127.591 64.6013 135.408 64.1668C136.6 63.9889 137.577 63.4456 138.34 62.5382C139.021 60.6256 139.564 58.6712 139.969 56.6752C147.559 55.9156 155.159 55.8069 162.769 56.3495C165.242 57.9208 166.653 60.2008 167.003 63.1896C167.329 86.8577 167.438 110.527 167.329 134.197C165.55 136.429 164.898 139.035 165.375 142.014C166.054 148.292 166.489 154.589 166.678 160.906C166.786 166.122 166.678 171.333 166.352 176.54C165.632 178.779 164.22 180.408 162.117 181.426C159.085 181.751 156.045 181.86 152.997 181.752C133.671 181.752 114.345 181.752 95.0192 181.752C91.3216 181.86 87.6299 181.751 83.9447 181.426C82.7246 180.316 81.6386 179.122 80.6875 177.843C80.6875 140.06 80.6875 102.276 80.6875 64.4925C80.7383 60.8047 82.4751 58.3071 85.899 57.0009C89.2761 56.8876 92.5333 56.5619 95.6706 56.0238Z" fill="#D6EAED"/>
<path fill-rule="evenodd" clip-rule="evenodd" d="M313.251 59.2811C310.353 62.6738 306.661 63.8679 302.177 62.864C301.815 62.6145 301.598 62.2888 301.525 61.8868C305.305 60.782 309.214 59.913 313.251 59.2811Z" fill="#F2ECEC"/>
<path fill-rule="evenodd" clip-rule="evenodd" d="M313.252 59.2811C313.951 59.7703 314.06 60.4217 313.577 61.2354C312.959 62.2731 312.2 63.1415 311.297 63.8411C308.424 63.5291 305.709 63.9636 303.154 65.144C302.84 65.7616 302.732 66.413 302.829 67.0983C300.18 65.7316 299.42 63.7773 300.549 61.2354C300.798 61.5976 301.124 61.8145 301.526 61.8868C301.598 62.2888 301.815 62.6145 302.177 62.864C306.662 63.8679 310.354 62.6738 313.252 59.2811Z" fill="#5E201F"/>
<path fill-rule="evenodd" clip-rule="evenodd" d="M311.296 63.8411C309.156 66.5342 306.333 67.6201 302.827 67.0983C302.73 66.413 302.838 65.7616 303.153 65.144C305.708 63.9636 308.423 63.5291 311.296 63.8411Z" fill="#942522"/>
<path opacity="0.988" fill-rule="evenodd" clip-rule="evenodd" d="M79.3856 65.144C79.3856 76.0016 79.3856 86.8585 79.3856 97.716C71.3599 84.9439 60.2854 81.361 46.1622 86.9673C32.9259 96.4705 30.4287 108.305 38.6706 122.471C46.8681 131.767 56.7483 134.047 68.3111 129.311C73.0445 126.424 76.7362 122.624 79.3856 117.911C79.3856 123.991 79.3856 130.071 79.3856 136.151C64.6181 136.042 49.8521 136.151 35.0877 136.477C34.2191 137.563 34.2191 138.648 35.0877 139.734C49.8521 140.06 64.6181 140.168 79.3856 140.06C79.3856 141.146 79.3856 142.231 79.3856 143.317C64.6181 143.208 49.8521 143.317 35.0877 143.643C34.2191 144.728 34.2191 145.814 35.0877 146.9C49.8521 147.225 64.6181 147.334 79.3856 147.225C79.3856 149.831 79.3856 152.437 79.3856 155.043C65.2989 154.297 51.1846 154.189 37.042 154.717C34.8428 156.062 33.9741 158.017 34.4363 160.58C33.9741 163.143 34.8428 165.098 37.042 166.443C51.1846 166.971 65.2989 166.863 79.3856 166.117C79.3856 169.157 79.3856 172.197 79.3856 175.237C60.7095 175.346 42.0351 175.237 23.3618 174.912C21.4852 174.097 20.2909 172.686 19.7789 170.677C19.3445 137.019 19.3445 103.362 19.7789 69.7041C20.2909 67.6957 21.4852 66.2847 23.3618 65.4697C30.0899 65.144 36.8214 65.0359 43.5564 65.144C43.6805 67.4143 44.332 69.4767 45.5107 71.3327C49.5691 72.0669 53.6949 72.3926 57.8881 72.3099C62.0814 72.3926 66.207 72.0669 70.2654 71.3327C71.3905 69.4409 71.8243 67.3785 71.5683 65.144C74.1741 65.144 76.7798 65.144 79.3856 65.144Z" fill="#D6EBEE"/>
<path fill-rule="evenodd" clip-rule="evenodd" d="M80.6879 64.4926C80.6879 102.276 80.6879 140.06 80.6879 177.843C79.5961 177.398 79.1616 176.529 79.385 175.237C79.385 172.197 79.385 169.158 79.385 166.117C79.385 162.426 79.385 158.734 79.385 155.043C79.385 152.437 79.385 149.831 79.385 147.225C79.385 145.923 79.385 144.62 79.385 143.317C79.385 142.231 79.385 141.146 79.385 140.06C79.385 138.757 79.385 137.454 79.385 136.151C79.385 130.071 79.385 123.991 79.385 117.911C79.385 111.179 79.385 104.447 79.385 97.716C79.385 86.8585 79.385 76.0016 79.385 65.1441C79.8196 64.9271 80.2534 64.7095 80.6879 64.4926Z" fill="#524650"/>
<path fill-rule="evenodd" clip-rule="evenodd" d="M116.515 78.1728C131.262 75.9377 142.011 81.3662 148.761 94.4588C153.395 110.322 148.509 122.156 134.103 129.962C118.406 134.754 106.572 130.085 98.6 115.956C93.2125 97.8534 99.1843 85.2592 116.515 78.1728Z" fill="#FEFEFD"/>
<path fill-rule="evenodd" clip-rule="evenodd" d="M326.279 74.2642C320.892 80.1154 314.161 82.5042 306.084 81.43C310.473 81.0887 314.817 80.1115 319.113 78.4985C321.679 77.2699 323.959 75.6413 325.953 73.6127C326.213 73.7613 326.321 73.9788 326.279 74.2642Z" fill="#432932"/>
<path opacity="0.996" fill-rule="evenodd" clip-rule="evenodd" d="M334.096 82.0813C340.923 82.3588 347.655 83.336 354.291 85.0128C361.175 87.0186 368.124 88.7553 375.137 90.2243C388.35 95.8821 395.407 105.979 396.309 120.516C396.634 123.766 396.743 127.024 396.634 130.288C395.2 139.726 394.983 149.28 395.983 158.951C395.983 162.208 395.983 165.466 395.983 168.723C394.824 192.358 394.498 216.028 395.006 239.73C395.431 247.035 396.191 254.201 397.286 261.227C397.289 263.855 397.506 266.461 397.937 269.045C398.544 276.286 399.63 283.452 401.195 290.542C400.978 291.194 400.76 291.845 400.543 292.496C394.633 295.834 388.553 298.657 382.303 300.965C381.651 300.965 381 300.965 380.348 300.965C375.747 260.231 374.77 219.407 377.417 178.494C377.606 176.897 378.04 175.377 378.72 173.934C381.102 171.342 383.164 168.52 384.909 165.466C384.474 164.597 384.04 164.597 383.606 165.466C374.824 178.594 364.401 190.32 352.337 200.643C344.718 207.057 336.467 212.595 327.582 217.255C322.559 219.381 317.347 220.25 311.947 219.861C308.849 219.195 305.809 218.326 302.827 217.255C282.599 205.407 263.272 192.27 244.849 177.843C244.632 177.952 244.415 178.06 244.198 178.169C250.16 182.995 256.24 187.664 262.438 192.175C262.655 193.043 262.872 193.912 263.089 194.78C262.681 198.464 262.355 202.155 262.112 205.855C256.385 213.758 249.111 219.729 240.289 223.77C233.031 225.202 225.865 224.876 218.791 222.792C218.68 219.733 218.354 216.693 217.814 213.672C216.999 211.795 215.588 210.601 213.58 210.089C203.811 209.764 194.039 209.655 184.265 209.764C179.718 206.517 175.376 203.043 171.236 199.341C173.995 200.365 176.601 200.04 179.054 198.363C181.082 196.37 182.711 194.09 183.939 191.523C187.569 181.641 189.415 171.435 189.477 160.906C205.038 169.501 220.563 178.187 236.055 186.963C237.778 183.191 239.407 179.391 240.94 175.563C240.138 174.648 239.27 173.888 238.335 173.283C241.905 172.042 245.162 170.305 248.106 168.071C256.404 161.47 260.964 152.785 261.786 142.014C262.424 139.978 262.642 137.807 262.438 135.499C260.318 135.309 258.364 135.743 256.575 136.802C256.309 132.617 255.44 128.491 253.969 124.425C255.908 118.29 258.188 112.21 260.809 106.185C262.578 102.851 265.075 100.245 268.301 98.3673C269.018 111.078 269.886 123.781 270.907 136.477C270.69 137.671 270.472 138.865 270.255 140.059C269.195 139.135 268.87 139.352 269.278 140.711C283.935 150.591 298.593 160.471 313.25 170.351C316.26 173.872 318.106 177.889 318.787 182.403C319.301 178.082 318.107 174.282 315.205 171.003C318.225 170.955 320.722 172.15 322.696 174.586C324.418 176.945 325.613 179.551 326.279 182.403C325.829 175.102 321.921 170.651 314.553 169.049C326.849 149.776 339.226 130.558 351.685 111.396C351.251 110.528 350.817 110.528 350.382 111.396C346.943 117.638 343.035 123.501 338.656 128.985C340.159 115.896 341.895 102.867 343.868 89.8986C343.868 89.2472 343.868 88.5957 343.868 87.9443C343.868 87.2928 343.868 86.6414 343.868 85.99C342.33 85.8766 340.81 85.6597 339.308 85.3385C337.57 85.3385 335.834 85.3385 334.096 85.3385C334.096 84.2526 334.096 83.1673 334.096 82.0813Z" fill="#6E97B0"/>
<path opacity="0.991" fill-rule="evenodd" clip-rule="evenodd" d="M304.783 82.7328C304.783 83.6012 304.783 84.4702 304.783 85.3386C303.73 85.6891 302.644 85.906 301.526 85.99C298.275 86.504 295.126 87.3724 292.08 88.5958C291.556 99.9158 291.664 111.208 292.406 122.471C291.865 132.999 291.539 143.639 291.429 154.391C285.184 150.346 278.995 146.22 272.863 142.014C271.281 127.717 270.087 113.385 269.28 99.0188C269.03 98.6566 268.705 98.4397 268.303 98.3674C274.992 93.393 282.375 89.5931 290.452 86.9672C295.157 85.2168 299.934 83.8051 304.783 82.7328Z" fill="#6D97B0"/>
<path fill-rule="evenodd" clip-rule="evenodd" d="M79.3848 97.716C79.3848 104.447 79.3848 111.179 79.3848 117.911C76.7354 122.624 73.0437 126.424 68.3103 129.311C56.7475 134.047 46.8673 131.767 38.6698 122.471C30.4279 108.305 32.9251 96.4705 46.1614 86.9673C60.2846 81.361 71.3591 84.9439 79.3848 97.716Z" fill="#FEFEFD"/>
<path fill-rule="evenodd" clip-rule="evenodd" d="M121.726 84.0358C128.496 84.3954 131.211 87.8695 129.869 94.4588C127.735 98.1128 124.586 99.3069 120.424 98.0418C116.975 95.8041 115.781 92.6556 116.841 88.5959C117.975 86.4813 119.604 84.9615 121.726 84.0358Z" fill="#ADA66B"/>
<path fill-rule="evenodd" clip-rule="evenodd" d="M304.784 85.3386C303.525 95.2248 307.759 100.87 317.487 102.276C328.002 101.424 333.539 95.7786 334.098 85.3386C335.836 85.3386 337.573 85.3386 339.31 85.3386C338.29 96.0189 332.644 102.859 322.372 105.859C321.279 107.53 320.844 109.375 321.07 111.396C320.635 111.396 320.418 111.179 320.418 110.745C320.524 109.209 320.416 107.689 320.092 106.185C318.268 106.592 316.422 107.026 314.555 107.488C313.687 113.132 312.818 118.778 311.949 124.425C311.515 124.425 311.298 124.208 311.298 123.774C311.682 118.748 312.333 113.753 313.252 108.79C313.035 107.922 312.818 107.053 312.601 106.185C303.599 102.291 299.908 95.5597 301.526 85.99C302.644 85.906 303.73 85.6891 304.784 85.3386Z" fill="#3D2A35"/>
<path fill-rule="evenodd" clip-rule="evenodd" d="M339.309 85.3386C340.811 85.6598 342.331 85.8767 343.869 85.99C343.869 86.6415 343.869 87.2929 343.869 87.9444C342.742 86.9828 341.874 87.2004 341.264 88.5958C341.798 89.6453 342.667 90.0798 343.869 89.8987C341.897 102.867 340.16 115.896 338.658 128.985C330.691 142.525 322.222 155.772 313.252 168.723C306.997 165.062 301.134 160.936 295.663 156.346C294.663 145.047 293.578 133.756 292.406 122.471C291.664 111.208 291.555 99.9159 292.08 88.5958C295.126 87.3724 298.274 86.504 301.526 85.99C299.907 95.5597 303.598 102.291 312.6 106.185C312.817 107.053 313.035 107.922 313.252 108.79C312.332 113.753 311.681 118.748 311.297 123.774C310.174 127.739 309.523 131.864 309.343 136.151C311.309 136.258 313.263 136.15 315.206 135.825C316.4 135.499 317.16 134.739 317.486 133.545C318.724 126.164 319.918 118.782 321.069 111.396C320.844 109.375 321.278 107.53 322.372 105.859C332.644 102.859 338.29 96.0189 339.309 85.3386Z" fill="#FCFCFC"/>
<path fill-rule="evenodd" clip-rule="evenodd" d="M343.867 87.9444C343.867 88.5958 343.867 89.2473 343.867 89.8987C342.665 90.0798 341.796 89.6453 341.262 88.5958C341.872 87.2004 342.74 86.9829 343.867 87.9444Z" fill="#FF807D"/>
<path fill-rule="evenodd" clip-rule="evenodd" d="M55.2804 89.8987C61.4742 89.4688 64.1888 92.2914 63.4234 98.3674C61.7081 101.776 58.9942 102.97 55.2804 101.95C50.0993 97.9108 50.0993 93.8933 55.2804 89.8987Z" fill="#FDD484"/>
<path fill-rule="evenodd" clip-rule="evenodd" d="M296.315 95.7617C297.407 96.2066 297.841 97.0756 297.618 98.3674C296.967 98.3674 296.315 98.3674 295.664 98.3674C295.62 97.417 295.837 96.5486 296.315 95.7617Z" fill="#FF7774"/>
<path opacity="0.986" fill-rule="evenodd" clip-rule="evenodd" d="M214.233 97.0645C218.26 98.9185 221.734 101.524 224.656 104.882C225.09 104.882 225.307 105.099 225.307 105.533C232.612 112.523 239.778 119.689 246.805 127.031C247.022 126.922 247.239 126.814 247.456 126.705C244.525 122.905 241.159 119.539 237.359 116.608C236.122 113.923 235.579 111.1 235.73 108.139C236.121 106.316 236.773 104.579 237.685 102.927C238.481 102.202 239.35 102.093 240.29 102.602C241.501 107.321 243.347 111.772 245.828 115.956C248.693 118.711 251.406 121.534 253.971 124.425C255.442 128.491 256.31 132.617 256.576 136.802C258.096 138.757 259.834 140.494 261.788 142.014C260.965 152.785 256.405 161.47 248.108 168.071C245.68 165.64 243.074 163.468 240.29 161.557C239.856 160.906 239.422 160.254 238.987 159.603C241.417 159.553 243.588 158.793 245.502 157.323C242.883 157.866 240.277 158.409 237.685 158.951C228.553 156.239 220.845 151.245 214.558 143.968C214.256 143.581 214.147 143.147 214.233 142.665C216.713 143.475 216.822 143.041 214.558 141.362C213.91 138.948 214.343 136.776 215.861 134.848C216.407 135.83 217.167 136.155 218.141 135.825C215.134 133.416 214.375 130.485 215.861 127.031C216.986 126.33 218.18 126.221 219.444 126.705C220.937 128.229 222.674 129.098 224.656 129.311C221.389 127.457 219.218 124.743 218.141 121.168C218.555 119.017 219.858 117.714 222.05 117.259C224.29 118.52 226.244 120.148 227.913 122.145C228.347 122.579 228.781 122.579 229.216 122.145C222.569 116.584 216.597 110.396 211.301 103.579C209.486 99.9862 210.463 97.8149 214.233 97.0645Z" fill="#B55847"/>
<path fill-rule="evenodd" clip-rule="evenodd" d="M115.866 98.3675C118.252 99.2795 120.749 99.9309 123.357 100.322C125.693 100.241 127.864 99.5896 129.872 98.3675C132.576 99.1166 134.748 100.637 136.386 102.928C141.003 118.5 135.248 125.774 119.123 124.751C109.552 121.12 106.404 114.28 109.677 104.23C111.244 101.685 113.307 99.7303 115.866 98.3675Z" fill="#ACA56A"/>
<path fill-rule="evenodd" clip-rule="evenodd" d="M354.292 85.9901C355.13 86.8832 355.564 88.0779 355.595 89.573C355.37 95.2125 354.827 100.75 353.966 106.185C353.575 99.4443 353.683 92.7123 354.292 85.9901Z" fill="#45404F"/>
<path fill-rule="evenodd" clip-rule="evenodd" d="M50.7213 102.276C52.9387 102.996 55.2188 103.648 57.5614 104.23C63.0505 100.996 67.176 102.299 69.9388 108.139C70.3733 111.831 70.3733 115.522 69.9388 119.213C62.1267 127.622 54.092 127.84 45.8355 119.865C45.4012 115.739 45.4012 111.613 45.8355 107.488C47.1568 105.408 48.7854 103.671 50.7213 102.276Z" fill="#FDD483"/>
<path fill-rule="evenodd" clip-rule="evenodd" d="M320.416 110.745C318.857 117.758 317.663 124.923 316.833 132.242C316.53 133.175 315.987 133.934 315.205 134.522C313.7 134.846 312.18 134.954 310.645 134.848C310.866 131.337 311.301 127.863 311.947 124.425C312.816 118.778 313.685 113.132 314.553 107.488C316.42 107.026 318.266 106.592 320.09 106.185C320.414 107.69 320.522 109.209 320.416 110.745Z" fill="#F6F5F6"/>
<path fill-rule="evenodd" clip-rule="evenodd" d="M334.748 108.791C335.399 108.791 336.051 108.791 336.702 108.791C336.702 109.659 336.702 110.528 336.702 111.396C336.051 111.396 335.399 111.396 334.748 111.396C334.748 110.528 334.748 109.659 334.748 108.791Z" fill="#FF7A77"/>
<path opacity="0.823" fill-rule="evenodd" clip-rule="evenodd" d="M7.726 113.351C9.7755 113.542 10.5355 114.628 10.006 116.608C8.21087 118.689 6.58227 120.86 5.12024 123.122C6.60188 125.37 8.23048 127.541 10.006 129.637C10.5112 131.232 9.96826 132.318 8.37744 132.894C5.81605 130.66 3.31882 128.271 0.885886 125.728C-0.00854095 124.298 -0.225666 122.778 0.234446 121.168C2.89799 118.611 5.39515 116.005 7.726 113.351Z" fill="#D5EBED"/>
<path fill-rule="evenodd" clip-rule="evenodd" d="M214.233 97.0645C210.463 97.815 209.486 99.9862 211.301 103.579C216.597 110.396 222.569 116.584 229.216 122.145C228.781 122.579 228.347 122.579 227.913 122.145C226.244 120.148 224.29 118.52 222.05 117.259C219.858 117.714 218.555 119.017 218.141 121.168C219.218 124.743 221.389 127.457 224.656 129.311C222.674 129.098 220.937 128.229 219.444 126.705C218.18 126.221 216.986 126.33 215.861 127.031C214.375 130.485 215.134 133.416 218.141 135.825C217.167 136.155 216.407 135.83 215.861 134.848C214.343 136.776 213.91 138.948 214.558 141.362C216.822 143.041 216.713 143.475 214.233 142.665C212.408 139.77 212.625 136.948 214.884 134.197C212.336 129.703 213.422 126.555 218.141 124.751C215.976 121.045 216.844 118.222 220.747 116.282C216.401 112.031 212.601 107.363 209.347 102.276C208.588 98.3648 210.217 96.6274 214.233 97.0645Z" fill="#462A33"/>
<path fill-rule="evenodd" clip-rule="evenodd" d="M263.09 121.168C264.079 123.813 264.513 126.635 264.393 129.636C264.176 131.591 263.959 133.545 263.742 135.499C263.092 130.742 262.875 125.964 263.09 121.168Z" fill="#423A49"/>
<path opacity="0.895" fill-rule="evenodd" clip-rule="evenodd" d="M396.637 130.288C400.143 139.943 399.926 149.498 395.985 158.951C394.985 149.28 395.202 139.726 396.637 130.288Z" fill="#F0E6D5"/>
<path opacity="0.983" fill-rule="evenodd" clip-rule="evenodd" d="M167.328 134.197C168.291 134.026 169.159 134.243 169.934 134.848C171.728 141.479 174.877 147.342 179.379 152.437C181.634 156.053 183.046 159.962 183.614 164.163C183.722 169.596 183.614 175.024 183.288 180.449C182.282 184.227 181.087 187.919 179.705 191.523C176.807 191.179 173.984 190.527 171.236 189.569C166.238 187.936 161.244 186.091 156.253 184.032C155.051 183.361 153.965 182.601 152.996 181.752C156.044 181.86 159.084 181.751 162.116 181.426C164.219 180.408 165.631 178.779 166.351 176.54C166.676 171.333 166.784 166.122 166.676 160.906C167.461 162.687 168.438 164.424 169.608 166.117C170.139 166.979 170.9 167.413 171.888 167.42C168.458 163.072 167.047 158.077 167.653 152.437C167.102 148.83 166.342 145.356 165.373 142.014C164.897 139.035 165.549 136.429 167.328 134.197Z" fill="#B55948"/>
<path fill-rule="evenodd" clip-rule="evenodd" d="M261.788 142.014C259.833 140.494 258.096 138.757 256.576 136.802C258.365 135.743 260.319 135.309 262.439 135.499C262.643 137.807 262.425 139.978 261.788 142.014Z" fill="#3C2A36"/>
<path fill-rule="evenodd" clip-rule="evenodd" d="M79.3849 136.151C79.3849 137.454 79.3849 138.757 79.3849 140.06C64.6174 140.168 49.8513 140.06 35.087 139.734C34.2184 138.648 34.2184 137.563 35.087 136.477C49.8513 136.151 64.6174 136.042 79.3849 136.151Z" fill="#FDFEFE"/>
<path fill-rule="evenodd" clip-rule="evenodd" d="M97.6233 137.454C114.779 137.345 131.934 137.454 149.087 137.78C150.085 139.297 149.868 140.6 148.436 141.688C131.715 142.123 114.995 142.123 98.2748 141.688C96.852 140.452 96.6351 139.041 97.6233 137.454Z" fill="#FCFDFE"/>
<path fill-rule="evenodd" clip-rule="evenodd" d="M268.303 98.3675C268.705 98.4398 269.03 98.6567 269.28 99.0189C270.087 113.385 271.281 127.717 272.863 142.014C278.995 146.22 285.184 150.346 291.429 154.391C291.539 143.639 291.865 132.999 292.406 122.471C293.578 133.756 294.664 145.047 295.663 156.346C301.135 160.936 306.998 165.062 313.252 168.723C322.222 155.772 330.691 142.525 338.658 128.985C343.037 123.501 346.945 117.638 350.384 111.396C350.819 110.528 351.253 110.528 351.687 111.396C339.228 130.558 326.851 149.776 314.555 169.049C321.923 170.651 325.831 175.103 326.281 182.403C325.614 179.551 324.42 176.945 322.698 174.586C320.723 172.15 318.226 170.955 315.206 171.003C318.109 174.282 319.303 178.082 318.789 182.403C318.108 177.889 316.262 173.873 313.252 170.352C298.595 160.471 283.937 150.591 269.28 140.711C268.871 139.352 269.197 139.135 270.257 140.06C270.474 138.866 270.692 137.671 270.908 136.477C269.888 123.781 269.02 111.078 268.303 98.3675Z" fill="#40333F"/>
<path fill-rule="evenodd" clip-rule="evenodd" d="M326.931 135.5C327.583 135.5 328.234 135.5 328.886 135.5C329.067 136.702 328.632 137.571 327.583 138.105C326.978 137.331 326.761 136.462 326.931 135.5Z" fill="#FF7875"/>
<path fill-rule="evenodd" clip-rule="evenodd" d="M320.416 110.745C320.416 111.179 320.633 111.396 321.068 111.396C319.917 118.782 318.723 126.164 317.485 133.545C317.159 134.739 316.399 135.5 315.205 135.825C313.262 136.15 311.308 136.258 309.342 136.151C309.522 131.864 310.173 127.739 311.296 123.774C311.296 124.208 311.513 124.425 311.948 124.425C311.301 127.863 310.866 131.337 310.645 134.848C312.18 134.954 313.7 134.846 315.205 134.522C315.987 133.934 316.53 133.175 316.833 132.242C317.663 124.923 318.857 117.758 320.416 110.745Z" fill="#53424C"/>
<path fill-rule="evenodd" clip-rule="evenodd" d="M313.903 125.076C314.912 125.286 315.346 125.937 315.206 127.031C313.416 127.095 312.982 126.443 313.903 125.076Z" fill="#4B3A45"/>
<path fill-rule="evenodd" clip-rule="evenodd" d="M295.663 122.471C297.234 122.597 297.885 123.465 297.617 125.076C296.749 125.076 295.88 125.076 295.011 125.076C294.968 124.126 295.185 123.258 295.663 122.471Z" fill="#FF8581"/>
<path fill-rule="evenodd" clip-rule="evenodd" d="M315.855 110.745C316.507 110.745 317.158 110.745 317.81 110.745C317.81 111.396 317.81 112.048 317.81 112.699C317.158 112.699 316.507 112.699 315.855 112.699C315.855 112.048 315.855 111.396 315.855 110.745Z" fill="#4E3C47"/>
<path fill-rule="evenodd" clip-rule="evenodd" d="M79.3849 143.317C79.3849 144.62 79.3849 145.922 79.3849 147.225C64.6174 147.334 49.8513 147.225 35.087 146.9C34.2184 145.814 34.2184 144.728 35.087 143.642C49.8513 143.317 64.6174 143.208 79.3849 143.317Z" fill="#FDFEFE"/>
<path opacity="0.987" fill-rule="evenodd" clip-rule="evenodd" d="M397.289 261.227C396.194 254.201 395.434 247.035 395.009 239.73C394.502 216.028 394.827 192.358 395.986 168.723C406.418 158.94 418.361 151.449 431.816 146.248C439.213 144.123 446.596 144.123 453.964 146.248C465.68 153.361 469.914 163.676 466.668 177.192C462.989 189.1 457.126 199.74 449.079 209.112C433.007 227.681 415.744 245.053 397.289 261.227Z" fill="#F7EAD7"/>
<path fill-rule="evenodd" clip-rule="evenodd" d="M97.6233 145.271C114.779 145.162 131.934 145.271 149.087 145.597C150.085 147.115 149.868 148.418 148.436 149.506C131.715 149.94 114.995 149.94 98.2748 149.506C96.852 148.269 96.6351 146.858 97.6233 145.271Z" fill="#FCFDFE"/>
<path fill-rule="evenodd" clip-rule="evenodd" d="M165.375 142.014C166.344 145.356 167.103 148.83 167.655 152.437C167.049 158.077 168.46 163.072 171.889 167.42C170.901 167.413 170.141 166.979 169.609 166.117C168.44 164.424 167.463 162.687 166.678 160.906C166.489 154.589 166.054 148.292 165.375 142.014Z" fill="#57363B"/>
<path fill-rule="evenodd" clip-rule="evenodd" d="M306.735 151.786C307.827 152.23 308.261 153.099 308.038 154.391C307.386 154.391 306.735 154.391 306.084 154.391C306.04 153.441 306.257 152.572 306.735 151.786Z" fill="#FF7875"/>
<path fill-rule="evenodd" clip-rule="evenodd" d="M79.3842 155.043C79.3842 158.734 79.3842 162.425 79.3842 166.117C65.2974 166.863 51.1831 166.971 37.0406 166.443C34.8413 165.098 33.9727 163.143 34.4348 160.58C33.9727 158.017 34.8413 156.062 37.0406 154.717C51.1831 154.189 65.2974 154.297 79.3842 155.043Z" fill="#FEFEFE"/>
<path fill-rule="evenodd" clip-rule="evenodd" d="M100.882 157.649C115.866 157.54 130.85 157.649 145.831 157.974C147.497 158.42 148.692 159.398 149.414 160.906C149.849 163.728 149.849 166.552 149.414 169.374C148.348 170.879 146.936 171.856 145.18 172.306C130.631 172.74 116.082 172.74 101.533 172.306C97.9531 171.124 96.4333 168.627 96.9734 164.814C96.6086 161.494 97.9114 159.105 100.882 157.649Z" fill="#FDFEFE"/>
<path fill-rule="evenodd" clip-rule="evenodd" d="M238.986 159.603C238.552 159.386 238.118 159.168 237.684 158.951C240.276 158.409 242.882 157.866 245.501 157.323C243.587 158.793 241.416 159.553 238.986 159.603Z" fill="#5D3437"/>
<path opacity="0.987" fill-rule="evenodd" clip-rule="evenodd" d="M189.477 160.906C189.415 171.436 187.57 181.641 183.94 191.523C182.711 194.09 181.083 196.37 179.054 198.363C176.601 200.04 173.996 200.365 171.237 199.341C170.097 196.941 169.662 194.336 169.934 191.523C170.521 191.009 170.955 190.357 171.237 189.569C173.985 190.527 176.807 191.179 179.705 191.523C181.088 187.919 182.282 184.227 183.288 180.449C183.614 175.024 183.722 169.596 183.614 164.163C184.862 161.908 186.816 160.822 189.477 160.906Z" fill="#3A2733"/>
<path opacity="0.937" fill-rule="evenodd" clip-rule="evenodd" d="M240.291 161.557C243.074 163.468 245.68 165.64 248.108 168.071C245.163 170.305 241.906 172.042 238.336 173.283C237.934 173.211 237.609 172.994 237.359 172.632C236.925 170.894 236.925 169.157 237.359 167.42C238.354 165.431 239.331 163.477 240.291 161.557Z" fill="#382530"/>
<path fill-rule="evenodd" clip-rule="evenodd" d="M171.889 167.42C173.263 168.001 174.565 168.761 175.797 169.7C174.041 169.797 172.738 169.037 171.889 167.42Z" fill="#643638"/>
<path fill-rule="evenodd" clip-rule="evenodd" d="M380.348 300.965C379.561 301.443 378.693 301.66 377.742 301.617C378.482 300.61 378.916 299.415 379.045 298.034C374.525 258.035 373.548 217.971 376.113 177.843C371.981 181.623 368.833 185.966 366.668 190.872C366.753 190.391 366.644 189.956 366.342 189.569C362.149 193.624 357.805 197.533 353.313 201.295C353.064 200.933 352.738 200.716 352.336 200.644C364.4 190.32 374.823 178.594 383.605 165.466C384.04 164.597 384.473 164.597 384.908 165.466C383.163 168.52 381.101 171.342 378.719 173.935C378.039 175.377 377.605 176.897 377.416 178.495C374.77 219.407 375.747 260.231 380.348 300.965Z" fill="#413846"/>
<path fill-rule="evenodd" clip-rule="evenodd" d="M377.743 301.617C373.614 301.791 369.488 302.007 365.365 302.268C364.113 304.567 363.679 307.173 364.062 310.085C363.845 310.085 363.628 310.085 363.411 310.085C363.411 307.48 363.411 304.874 363.411 302.268C352.971 302.194 342.548 301.76 332.142 300.965C331.56 286.86 331.343 272.745 331.49 258.622C331.275 246.999 331.492 235.49 332.142 224.095C331.931 226.523 332.149 228.911 332.793 231.261C349.536 222.338 360.828 208.875 366.668 190.872C368.834 185.966 371.982 181.623 376.114 177.843C373.549 217.971 374.526 258.035 379.046 298.034C378.917 299.415 378.483 300.609 377.743 301.617Z" fill="#6D97B0"/>
<path opacity="0.992" fill-rule="evenodd" clip-rule="evenodd" d="M95.0176 181.752C114.344 181.752 133.669 181.752 152.996 181.752C153.964 182.601 155.05 183.361 156.253 184.032C161.244 186.091 166.238 187.937 171.236 189.569C170.955 190.357 170.52 191.009 169.933 191.523C165.066 196.566 162.894 202.646 163.419 209.764C148.001 209.764 132.584 209.764 117.167 209.764C116.732 209.764 116.298 209.764 115.864 209.764C111.324 205.766 107.09 201.424 103.161 196.735C99.7334 192.117 97.0188 187.123 95.0176 181.752Z" fill="#F7EAD7"/>
<path fill-rule="evenodd" clip-rule="evenodd" d="M169.935 191.523C169.663 194.336 170.097 196.941 171.237 199.341C175.377 203.043 179.719 206.517 184.266 209.764C161.9 210.632 139.534 210.632 117.168 209.764C132.586 209.764 148.003 209.764 163.42 209.764C162.896 202.646 165.068 196.566 169.935 191.523Z" fill="#E0D6CB"/>
<path opacity="0.998" fill-rule="evenodd" clip-rule="evenodd" d="M273.512 298.36C271.849 297.781 270.111 297.564 268.301 297.708C263.683 296.234 259.015 294.714 254.295 293.148C254.858 286.439 255.402 279.707 255.924 272.953C268.464 264.889 273.893 253.38 272.21 238.427C272.941 252.164 267.73 263.022 256.575 270.999C256.936 266.665 257.153 262.322 257.226 257.97C257.921 253.85 258.572 249.724 259.181 245.593C259.095 246.164 259.312 246.598 259.832 246.896C260.734 241.93 261.386 236.935 261.786 231.913C262.412 219.278 263.497 206.683 265.044 194.129C273.137 200.158 281.497 205.804 290.124 211.067C289.302 240.159 288.325 269.256 287.193 298.36C282.633 298.36 278.072 298.36 273.512 298.36Z" fill="#6D97B0"/>
<path fill-rule="evenodd" clip-rule="evenodd" d="M237.033 186.963C245.035 190.125 250.572 195.771 253.645 203.901C254.079 204.769 254.079 205.638 253.645 206.507C251.239 200.404 247.547 195.193 242.57 190.872C244.26 194.252 245.998 197.726 247.782 201.295C249.06 204.23 249.495 207.27 249.085 210.415C248.244 205.155 246.507 200.16 243.873 195.432C241.569 192.518 239.288 189.695 237.033 186.963Z" fill="#3E3340"/>
<path opacity="0.981" fill-rule="evenodd" clip-rule="evenodd" d="M108.049 209.764C97.52 210.305 86.88 210.631 76.128 210.741C75.5541 211.202 75.1202 211.745 74.8251 212.369C71.1497 214.33 69.9556 217.371 71.2422 221.49C77.9735 249.285 84.7055 277.079 91.4368 304.874C91.6746 307.542 93.0863 309.062 95.6712 309.434C99.2378 310.078 102.93 310.295 106.746 310.085C107.887 312.152 109.19 314.106 110.654 315.948C96.9741 315.948 83.2938 315.948 69.6136 315.948C61.6178 308.708 55.2118 300.24 50.3961 290.542C45.4125 279.092 45.6296 267.8 51.0476 256.667C55.7063 252.598 60.4837 252.598 65.3793 256.667C64.0874 253.425 62.5676 250.168 60.8192 246.896C56.5616 236.51 55.6929 225.87 58.2134 214.975C59.3723 212.296 61.2179 210.234 63.7507 208.786C67.228 206.994 70.9197 205.908 74.8251 205.529C86.1524 204.964 97.2268 206.375 108.049 209.764Z" fill="#F7EAD7"/>
<path opacity="0.994" fill-rule="evenodd" clip-rule="evenodd" d="M108.048 209.764C110.653 209.764 113.259 209.764 115.865 209.764C116.299 209.764 116.733 209.764 117.168 209.764C139.534 210.632 161.9 210.632 184.266 209.764C194.04 209.655 203.812 209.764 213.581 210.089C215.589 210.601 217 211.795 217.815 213.672C218.355 216.693 218.681 219.733 218.792 222.792C219.103 226.781 219.755 230.69 220.747 234.518C220.319 235.249 220.102 236.118 220.095 237.124C222.74 259.883 224.912 282.684 226.61 305.525C225.423 305.741 224.337 306.175 223.353 306.828C224.074 303.844 224.182 300.804 223.678 297.708C221.112 270.312 218.29 242.951 215.21 215.627C214.449 214.866 213.69 214.107 212.929 213.347C166.948 212.374 120.913 212.048 74.8242 212.369C75.1193 211.745 75.5532 211.202 76.1271 210.741C86.8791 210.631 97.5191 210.305 108.048 209.764Z" fill="#C7C7D4"/>
<path opacity="0.997" fill-rule="evenodd" clip-rule="evenodd" d="M352.338 200.643C352.74 200.716 353.066 200.933 353.315 201.295C357.808 197.533 362.151 193.624 366.344 189.569C366.646 189.956 366.755 190.39 366.67 190.872C360.83 208.875 349.538 222.338 332.795 231.261C332.151 228.911 331.933 226.523 332.144 224.095C332.252 221.48 332.143 218.875 331.818 216.278C320.737 222.333 309.663 222.333 298.594 216.278C298.152 229.748 297.609 243.21 296.966 256.667C296.353 266.623 295.701 276.611 295.011 286.633C295.011 287.285 295.011 287.936 295.011 288.588C294.663 293.374 294.229 298.152 293.709 302.919C287.3 303.398 281.004 304.049 274.817 304.874C273.578 303.026 273.143 300.854 273.514 298.359C278.074 298.359 282.634 298.359 287.194 298.359C288.326 269.256 289.304 240.158 290.126 211.066C281.499 205.803 273.139 200.157 265.045 194.129C263.499 206.683 262.413 219.278 261.788 231.913C261.253 229.866 260.927 227.694 260.811 225.398C260.354 230.842 259.81 236.271 259.182 241.684C256.717 242.94 254.111 243.809 251.365 244.29C248.074 244.322 244.817 243.997 241.593 243.313C234.405 240.912 227.456 237.981 220.747 234.518C219.755 230.69 219.104 226.781 218.793 222.792C225.867 224.876 233.033 225.202 240.29 223.77C249.112 219.729 256.387 213.758 262.114 205.855C262.357 202.155 262.682 198.464 263.091 194.78C262.874 193.912 262.656 193.043 262.439 192.175C256.242 187.664 250.162 182.995 244.199 178.169C244.416 178.06 244.634 177.952 244.851 177.843C263.274 192.27 282.6 205.407 302.829 217.255C305.81 218.326 308.851 219.195 311.949 219.861C317.349 220.25 322.56 219.381 327.583 217.255C336.468 212.595 344.72 207.057 352.338 200.643Z" fill="#382633"/>
<path fill-rule="evenodd" clip-rule="evenodd" d="M74.8236 212.369C120.912 212.048 166.948 212.374 212.929 213.346C213.689 214.107 214.449 214.866 215.209 215.626C218.289 242.951 221.112 270.312 223.678 297.708C224.181 300.804 224.073 303.844 223.352 306.828C222.588 308.134 221.502 309.111 220.095 309.76C199.897 309.868 179.702 310.194 159.511 310.737C158.958 311.98 158.741 313.283 158.859 314.645C157.154 321.001 155.851 327.515 154.951 334.189C142.623 334.832 130.245 335.048 117.819 334.84C119.874 328.573 121.828 322.276 123.682 315.948C124.448 314.529 125.1 313.008 125.636 311.388C126.225 310.926 126.442 310.275 126.287 309.434C116.081 309.434 105.876 309.434 95.6697 309.434C93.0848 309.062 91.6731 307.542 91.4353 304.874C84.704 277.079 77.972 249.284 71.2407 221.489C69.9541 217.37 71.1482 214.33 74.8236 212.369Z" fill="#341A3F"/>
<path fill-rule="evenodd" clip-rule="evenodd" d="M108.047 216.929C140.836 216.929 173.625 216.929 206.414 216.929C206.414 217.581 206.414 218.232 206.414 218.884C173.625 218.884 140.836 218.884 108.047 218.884C108.047 218.232 108.047 217.581 108.047 216.929Z" fill="#CBC4CE"/>
<path fill-rule="evenodd" clip-rule="evenodd" d="M332.145 224.095C331.495 235.49 331.278 246.999 331.493 258.622C319.923 258.938 308.415 258.287 296.967 256.667C297.61 243.211 298.153 229.748 298.595 216.278C309.664 222.333 320.738 222.333 331.819 216.278C332.144 218.875 332.253 221.48 332.145 224.095Z" fill="#FEFDFD"/>
<path fill-rule="evenodd" clip-rule="evenodd" d="M205.766 224.095C206.564 224.52 206.998 225.28 207.069 226.375C209.436 246.032 211.825 265.684 214.234 285.331C213.843 287.857 213.3 287.857 212.606 285.331C210.149 264.93 207.869 244.518 205.766 224.095Z" fill="#E8E5E9"/>
<path fill-rule="evenodd" clip-rule="evenodd" d="M302.829 226.05C303.697 226.05 304.566 226.05 305.435 226.05C305.616 227.252 305.181 228.121 304.132 228.655C303.082 228.121 302.648 227.252 302.829 226.05Z" fill="#FF837F"/>
<path fill-rule="evenodd" clip-rule="evenodd" d="M325.627 226.05C326.278 226.05 326.93 226.05 327.581 226.05C327.581 226.701 327.581 227.353 327.581 228.004C326.93 228.004 326.278 228.004 325.627 228.004C325.627 227.353 325.627 226.701 325.627 226.05Z" fill="#FF6E6C"/>
<path opacity="0.997" fill-rule="evenodd" clip-rule="evenodd" d="M220.746 234.518C227.455 237.981 234.404 240.912 241.592 243.313C244.816 243.997 248.073 244.322 251.364 244.29C253.192 248.907 255.146 253.467 257.227 257.97C257.154 262.322 256.936 266.665 256.575 270.999C256.178 271.579 255.961 272.231 255.924 272.953C255.402 279.707 254.859 286.439 254.295 293.148C259.015 294.714 263.683 296.234 268.301 297.708C269.167 303.764 269.819 309.844 270.256 315.948C232.9 316.38 195.768 315.946 158.859 314.645C158.741 313.283 158.959 311.98 159.511 310.737C179.702 310.194 199.897 309.868 220.095 309.76C221.502 309.111 222.588 308.134 223.352 306.828C224.336 306.175 225.422 305.741 226.609 305.525C224.912 282.684 222.74 259.883 220.095 237.124C220.102 236.118 220.319 235.249 220.746 234.518Z" fill="#E1D6C8"/>
<path fill-rule="evenodd" clip-rule="evenodd" d="M261.786 231.913C261.385 236.935 260.734 241.93 259.832 246.896C259.312 246.598 259.095 246.163 259.18 245.593C259.18 244.29 259.18 242.987 259.18 241.684C259.808 236.271 260.351 230.842 260.809 225.398C260.925 227.695 261.251 229.866 261.786 231.913Z" fill="#464251"/>
<path fill-rule="evenodd" clip-rule="evenodd" d="M312.6 239.73C313.468 239.73 314.337 239.73 315.205 239.73C315.205 240.381 315.205 241.033 315.205 241.684C314.337 241.684 313.468 241.684 312.6 241.684C312.6 241.033 312.6 240.381 312.6 239.73Z" fill="#FF7C79"/>
<path opacity="0.989" fill-rule="evenodd" clip-rule="evenodd" d="M473.504 315.948C443.104 315.948 412.703 315.948 382.303 315.948C382.303 310.954 382.303 305.96 382.303 300.965C388.553 298.657 394.633 295.834 400.543 292.496C400.76 291.845 400.978 291.194 401.194 290.542C399.63 283.452 398.544 276.286 397.937 269.045C413.513 259.627 429.582 251.05 446.144 243.313C454.136 239.757 462.387 238.889 470.899 240.707C483.051 251.285 483.051 261.926 470.899 272.628C467.643 275.125 464.169 277.296 460.476 279.142C464.601 279.359 468.727 279.576 472.853 279.793C483.957 282.206 489.059 289.046 488.162 300.314C487.637 302.233 486.768 303.97 485.556 305.525C481.918 309.55 477.9 313.025 473.504 315.948Z" fill="#F7EAD7"/>
<path fill-rule="evenodd" clip-rule="evenodd" d="M145.18 246.896C148.411 249.363 151.559 251.969 154.626 254.713C154.951 257.528 155.06 260.351 154.951 263.182C151.47 263.29 147.996 263.181 144.528 262.856C141.488 260.25 138.448 257.644 135.408 255.039C138.658 254.714 141.915 254.605 145.18 254.713C145.18 252.107 145.18 249.501 145.18 246.896Z" fill="#EBEBF1"/>
<path fill-rule="evenodd" clip-rule="evenodd" d="M302.176 251.456C304.366 251.914 304.582 252.783 302.827 254.062C301.432 253.451 301.215 252.583 302.176 251.456Z" fill="#FF7A78"/>
<path fill-rule="evenodd" clip-rule="evenodd" d="M324.977 253.41C325.628 253.41 326.279 253.41 326.931 253.41C326.931 254.061 326.931 254.713 326.931 255.364C326.279 255.364 325.628 255.364 324.977 255.364C324.977 254.713 324.977 254.061 324.977 253.41Z" fill="#FF6D6B"/>
<path fill-rule="evenodd" clip-rule="evenodd" d="M296.966 256.667C308.414 258.287 319.922 258.938 331.492 258.622C331.345 272.745 331.562 286.86 332.144 300.965C342.55 301.76 352.973 302.194 363.413 302.268C363.413 304.874 363.413 307.48 363.413 310.085C363.413 312.04 363.413 313.994 363.413 315.948C345.173 315.948 326.932 315.948 308.692 315.948C308.67 308.119 308.344 300.302 307.715 292.496C303.516 290.451 299.281 288.497 295.012 286.633C295.702 276.611 296.353 266.623 296.966 256.667Z" fill="#341A3F"/>
<path fill-rule="evenodd" clip-rule="evenodd" d="M255.924 272.953C255.961 272.231 256.178 271.579 256.575 270.999C267.73 263.022 272.941 252.164 272.21 238.427C273.893 253.38 268.465 264.889 255.924 272.953Z" fill="#3D313E"/>
<path fill-rule="evenodd" clip-rule="evenodd" d="M344.521 241.684C344.574 255.687 350.22 266.979 361.459 275.559C361.242 275.776 361.024 275.994 360.807 276.21C348.895 267.801 343.466 256.293 344.521 241.684Z" fill="#3F3341"/>
<path fill-rule="evenodd" clip-rule="evenodd" d="M295.012 286.634C299.281 288.497 303.516 290.451 307.715 292.497C308.344 300.302 308.67 308.119 308.692 315.948C308.257 315.948 307.824 315.948 307.389 315.948C307.083 308.567 306.757 301.183 306.412 293.799C302.802 291.614 299.002 289.876 295.012 288.588C295.012 287.936 295.012 287.285 295.012 286.634Z" fill="#EBE8EC"/>
<path opacity="0.995" fill-rule="evenodd" clip-rule="evenodd" d="M295.01 288.588C299 289.876 302.8 291.614 306.41 293.799C306.756 301.183 307.081 308.567 307.388 315.948C296.313 315.948 285.239 315.948 274.164 315.948C273.978 312.197 274.195 308.506 274.816 304.874C281.002 304.049 287.299 303.398 293.707 302.92C294.228 298.152 294.662 293.374 295.01 288.588Z" fill="#341A3F"/>
<path fill-rule="evenodd" clip-rule="evenodd" d="M133.454 285.982C143.887 285.765 154.31 285.983 164.724 286.634C154.742 287.176 144.753 287.502 134.757 287.611C133.535 290.813 132.232 293.962 130.849 297.057C130.632 296.84 130.414 296.622 130.197 296.405C131.67 293.033 132.755 289.559 133.454 285.982Z" fill="#362232"/>
<path fill-rule="evenodd" clip-rule="evenodd" d="M380.35 300.965C381.002 300.965 381.653 300.965 382.305 300.965C382.305 305.96 382.305 310.954 382.305 315.948C376.659 315.948 371.013 315.948 365.367 315.948C365.367 314.211 365.367 312.474 365.367 310.737C365.367 307.914 365.367 305.091 365.367 302.268C369.49 302.008 373.616 301.791 377.745 301.617C378.695 301.66 379.563 301.443 380.35 300.965Z" fill="#341B40"/>
<path fill-rule="evenodd" clip-rule="evenodd" d="M365.368 302.268C365.368 305.091 365.368 307.914 365.368 310.737C364.734 312.331 364.517 314.069 364.716 315.948C364.08 314.133 363.863 312.178 364.065 310.085C363.681 307.173 364.115 304.567 365.368 302.268Z" fill="#F5F3F5"/>
<path fill-rule="evenodd" clip-rule="evenodd" d="M95.6719 309.434C105.878 309.434 116.083 309.434 126.29 309.434C126.444 310.275 126.227 310.926 125.638 311.388C119.596 310.103 113.299 309.668 106.746 310.085C102.93 310.295 99.2385 310.078 95.6719 309.434Z" fill="#614C63"/>
<path fill-rule="evenodd" clip-rule="evenodd" d="M106.744 310.085C113.296 309.668 119.594 310.103 125.636 311.388C125.1 313.008 124.448 314.529 123.682 315.948C119.338 315.948 114.996 315.948 110.653 315.948C109.188 314.106 107.885 312.152 106.744 310.085Z" fill="#E1D6C8"/>
<path opacity="0.997" fill-rule="evenodd" clip-rule="evenodd" d="M363.412 310.085C363.629 310.085 363.846 310.085 364.063 310.085C363.861 312.178 364.078 314.133 364.715 315.948C370.578 316.817 376.441 316.817 382.304 315.948C412.704 315.948 443.104 315.948 473.505 315.948C477.203 315.84 480.894 315.949 484.58 316.274C486.711 317.425 488.231 319.054 489.14 321.16C489.14 322.028 489.14 322.897 489.14 323.766C483.839 333.931 478.519 344.137 473.179 354.383C472.434 355.123 471.673 355.775 470.899 356.338C318.897 356.338 166.894 356.338 14.8915 356.338C11.3735 354.143 10.3963 351.103 11.96 347.217C20.7545 337.12 29.5489 327.023 38.3434 316.925C48.7203 315.978 59.1432 315.653 69.6125 315.948C83.2927 315.948 96.9729 315.948 110.653 315.948C114.996 315.948 119.339 315.948 123.682 315.948C121.829 322.276 119.874 328.573 117.819 334.84C116.777 334.665 115.909 334.883 115.213 335.491C111.739 335.491 108.264 335.491 104.79 335.491C104.79 336.577 104.79 337.663 104.79 338.749C132.369 338.857 159.946 338.749 187.523 338.423C188.308 337.527 189.176 336.767 190.129 336.143C190.483 336.104 190.699 335.887 190.78 335.491C178.845 334.84 166.902 334.623 154.951 334.84C154.951 334.623 154.951 334.406 154.951 334.189C155.851 327.515 157.154 321.001 158.86 314.645C195.768 315.946 232.9 316.38 270.256 315.948C271.559 315.948 272.862 315.948 274.165 315.948C285.239 315.948 296.314 315.948 307.388 315.948C307.823 315.948 308.256 315.948 308.691 315.948C326.931 315.948 345.172 315.948 363.412 315.948C363.412 313.994 363.412 312.04 363.412 310.085Z" fill="#CACAD7"/>
<path fill-rule="evenodd" clip-rule="evenodd" d="M365.366 310.737C365.366 312.474 365.366 314.211 365.366 315.948C371.012 315.948 376.657 315.948 382.303 315.948C376.44 316.817 370.577 316.817 364.714 315.948C364.515 314.069 364.732 312.332 365.366 310.737Z" fill="#A49CAE"/>
<path fill-rule="evenodd" clip-rule="evenodd" d="M154.951 335.491C154.951 335.275 154.951 335.057 154.951 334.84C166.902 334.623 178.845 334.84 190.78 335.491C190.7 335.887 190.483 336.104 190.129 336.143C178.516 335.493 166.79 335.276 154.951 335.491Z" fill="#A59FB2"/>
<path fill-rule="evenodd" clip-rule="evenodd" d="M115.212 335.491C128.458 336.36 141.704 336.36 154.95 335.491C166.789 335.277 178.515 335.493 190.128 336.143C189.175 336.767 188.307 337.527 187.522 338.423C159.945 338.749 132.368 338.857 104.789 338.749C104.789 337.663 104.789 336.577 104.789 335.491C108.263 335.491 111.738 335.491 115.212 335.491Z" fill="#3A2145"/>
<path fill-rule="evenodd" clip-rule="evenodd" d="M154.951 334.189C154.951 334.406 154.951 334.623 154.951 334.84C154.951 335.057 154.951 335.275 154.951 335.492C141.705 336.36 128.459 336.36 115.213 335.492C115.909 334.883 116.777 334.666 117.819 334.84C130.246 335.049 142.623 334.832 154.951 334.189Z" fill="#362232"/>
<path fill-rule="evenodd" clip-rule="evenodd" d="M192.084 351.126C236.601 350.909 281.116 351.126 325.629 351.778C303.371 351.995 281.114 352.212 258.857 352.429C236.377 352.429 214.12 351.995 192.084 351.126Z" fill="#7F7481"/>
<path fill-rule="evenodd" clip-rule="evenodd" d="M331.492 351.126C340.406 350.909 349.309 351.127 358.201 351.777C353.75 351.994 349.298 352.212 344.847 352.429C340.156 352.427 335.704 351.992 331.492 351.126Z" fill="#807582"/>
</svg>
