<svg width="621" height="289" viewBox="0 0 621 289" fill="none" xmlns="http://www.w3.org/2000/svg">
<path d="M514.152 60.5006C514.152 60.5006 510.756 61.5094 507.639 60.8201C504.522 60.1307 501.758 59.9815 501.586 58.7961C501.413 57.6107 502.838 57.4867 502.838 57.4867C502.838 57.4867 501.245 57.6527 501.363 56.2487C501.363 56.2487 501.325 55.4018 502.456 55.551C502.456 55.551 501.157 55.469 501.222 54.6851C501.287 53.9011 501.384 53.3925 502.115 53.4534C502.115 53.4534 501.109 52.4719 501.197 51.4168C501.285 50.3639 505.701 51.5766 505.89 50.9376C506.079 50.3008 502.147 50.4605 502.237 49.3802C502.328 48.2999 507.616 46.8918 510.567 48.3903C513.515 49.8888 514.182 52.6653 516.126 53.1823C516.124 53.1823 515.796 60.6918 514.152 60.5006Z" fill="#F5BF9A"/>
<path d="M540.284 78.7726L511.99 61.6245L515.958 52.7109L544.273 68.7935L540.284 78.7726Z" fill="#FFC42F"/>
<path d="M201.73 31.5077L0 239.046L48.5708 286.258L250.301 78.7193L201.73 31.5077Z" fill="#333333"/>
<path d="M237.045 65.83L35.3145 273.368L48.5724 286.255L250.303 78.717L237.045 65.83Z" fill="#939393"/>
<path d="M296.543 19.9397L116.756 246.758L169.838 288.833L349.625 62.0152L296.543 19.9397Z" fill="#313F95"/>
<path d="M335.136 50.5296L155.35 277.348L169.839 288.833L349.626 62.0145L335.136 50.5296Z" fill="#03092D"/>
<path d="M379.152 1.74198L256.541 251.702L317.352 281.531L439.963 31.5712L379.152 1.74198Z" fill="#313F95"/>
<path d="M423.363 23.4266L300.752 273.387L317.352 281.529L439.963 31.5691L423.363 23.4266Z" fill="#03092D"/>
<path d="M442.433 0.277395L421.582 277.91L489.125 282.983L509.976 5.35004L442.433 0.277395Z" fill="#313F95"/>
<path d="M491.538 3.96193L470.688 281.595L489.125 282.979L509.976 5.34661L491.538 3.96193Z" fill="#03092D"/>
<path d="M604.756 245.015L607.808 255.366L617.339 254.025L614.51 243.524L604.756 245.015Z" fill="#F5BF9A"/>
<path d="M618.453 264.673L594.594 264.664C593.386 264.664 592.406 263.683 592.406 262.476V261.455C592.406 261.144 592.728 260.473 592.97 260.276L605.488 250.584C605.925 250.231 606.49 250.387 606.94 250.721C609.702 252.783 613.556 252.838 617.468 252.64C617.938 252.615 618.382 252.869 618.59 253.294C620.357 256.898 620.046 260.234 619.914 263.262C619.882 264.048 619.241 264.673 618.453 264.673Z" fill="#333333"/>
<path d="M542.546 241.315L542.203 252.255L551.81 253.987L552.416 242.976L542.546 241.315Z" fill="#F5BF9A"/>
<path d="M549.507 264.596L526.527 257.021C525.363 256.637 524.73 255.384 525.115 254.22L525.438 253.236C525.537 252.935 526.058 252.391 526.355 252.28L541.487 246.914C542.019 246.712 542.515 247.042 542.843 247.507C544.85 250.369 548.545 251.645 552.376 252.694C552.837 252.82 553.183 253.205 553.249 253.68C553.808 257.713 552.45 260.828 551.363 263.703C551.082 264.449 550.266 264.846 549.507 264.596Z" fill="#333333"/>
<path d="M563.873 95.4155L561.691 91.5399L556.926 86.4515L552.969 74.9844H535.524L532.891 84.2111L537.113 93.2906L537.071 96.2457C537.065 96.6639 537.401 97.0065 537.819 97.0065H540.451C540.451 97.0065 541.581 103.305 550.035 99.6442L552.323 101.555L559.402 100.506C559.402 100.506 562.956 99.7514 562.956 99.2134C562.956 98.6732 563.873 95.4155 563.873 95.4155Z" fill="#F5BF9A"/>
<path d="M558.459 88.7121C558.459 88.7121 564.03 69.975 551.998 69.2499C551.998 69.2499 539.642 60.0442 531.808 74.9835C531.808 74.9835 529.467 75.6308 527.205 74.498C527.205 74.498 527.367 75.9524 529.225 77.97C529.225 77.97 529.225 79.2626 526.48 78.8591C526.48 78.8591 525.108 80.6351 529.791 81.7658C529.791 81.7658 531.728 86.934 539.482 82.5729C539.482 82.5729 545.863 80.3114 546.832 82.493L548.204 85.2379C548.204 85.2379 547.639 79.1008 552.565 81.0386C552.565 81.0386 554.455 81.8772 553.933 87.4027C553.831 88.504 554.299 89.6348 555.27 90.1665C556.157 90.6499 557.328 90.6499 558.459 88.7121Z" fill="#37424C"/>
<path d="M578.301 153.375L562.734 160.004C562.734 160.004 542.275 193.131 542.267 196.871C542.208 221.406 541.914 230.587 541.449 244.156L553.381 249.446C555.865 234.49 555.96 225.055 558.364 202.648L577.587 179.182L603.478 245.076L616.261 244.463L596.126 155.311L583.581 147.826L578.301 153.375Z" fill="#333333"/>
<path d="M509.01 89.0063C508.427 88.1614 508.018 86.9928 507.87 86.4442C507.706 85.8326 508.03 85.1117 508.055 84.414C508.078 83.7162 508.278 81.9234 508.287 81.1604C508.293 80.3975 507.902 80.3197 508.171 78.9767C508.44 77.6337 507.887 77.1524 508.266 76.5198C508.644 75.8872 508.526 74.7711 507.339 75.6308C506.151 76.4904 505.914 78.7308 505.912 79.5673C505.909 80.4038 505.611 80.6728 504.756 80.7128C503.9 80.7527 503.287 79.7754 502.86 79.2142C502.433 78.6531 501.914 78.2432 501.635 77.5097C501.355 76.7762 500.821 76.2528 500.405 75.5004C499.989 74.7501 499.548 74.2751 499.035 73.5626C498.522 72.8501 497.614 71.9085 496.859 72.4151C496.105 72.9216 496.843 73.5311 497.278 74.2394C497.713 74.9498 498.034 75.5383 498.518 76.587C499.001 77.6358 499.949 78.569 499.846 78.899C499.745 79.2289 499.598 79.1028 499.432 79.0188C499.266 78.9347 498.223 77.2827 497.843 76.7068C497.465 76.131 496.706 75.3995 495.834 74.397C494.959 73.3924 494.36 72.6 493.522 73.1927C492.683 73.7854 493.946 74.9855 494.276 75.3848C494.606 75.7842 495.233 76.4925 495.695 77.3752C496.157 78.2579 496.687 78.7371 497.082 79.2542C497.477 79.7712 497.877 80.2945 497.799 80.3492C497.723 80.4038 497.601 80.3155 497.383 79.9519C497.164 79.5883 496.384 79.0167 495.813 78.3189C495.241 77.619 494.638 77.1062 494.117 76.4378C493.595 75.7695 492.916 75.1473 492.42 75.574C491.927 76.0007 491.897 76.0007 492.687 77.1987C493.478 78.3966 493.288 77.8586 494.327 79.3109C495.365 80.7653 495.474 80.8494 496.13 81.4505C496.786 82.0516 497.025 82.3626 496.903 82.4488C496.782 82.535 496.403 82.1882 496.111 81.8309C495.819 81.4715 495.203 81.3223 493.94 80.1327C492.677 78.9452 492.296 79.126 492.055 79.2983C491.811 79.4706 491.683 79.8027 491.777 79.9372C491.872 80.0717 492.326 80.6434 492.656 81.0701C492.988 81.4967 493.545 81.9465 493.948 82.2849C494.352 82.6233 494.568 82.9028 494.873 83.1172C495.178 83.3316 496.078 83.9242 496.351 84.5674C496.624 85.2105 498.387 86.7826 498.824 87.2492C499.262 87.7179 499.136 87.5939 499.136 87.5939C499.136 87.5939 501 89.1828 501.408 89.4498C501.817 89.7167 501.925 90.0046 502.072 90.2379C502.217 90.4712 502.786 91.045 503.158 91.272C503.53 91.499 504.684 93.3317 504.684 93.3317L509.01 89.0063Z" fill="#F5BF9A"/>
<path d="M562.734 160.004C562.734 160.004 553.528 140.722 552.889 117.193L530.856 115.852C529.087 115.745 527.405 115.039 526.09 113.853L502.064 92.2116L509.36 84.5928L530.869 100.688C532.315 101.77 534.089 102.319 535.892 102.243L552.324 101.552L561.691 91.537C563.07 91.4697 566.763 94.6328 567.921 95.3748C572.511 98.313 576.71 101.348 579.787 105.917C582.477 109.913 584.245 114.446 585.609 119.043C587.599 125.745 588.789 132.929 590.84 139.72C591.261 141.111 596.774 155.415 596.299 155.68C586.555 161.141 572.334 160.666 562.734 160.004Z" fill="#FFC42F"/>
</svg>
