<svg width="430" height="360" viewBox="0 0 430 360" fill="none" xmlns="http://www.w3.org/2000/svg">
<path d="M350.5 346.983C350.5 348.158 342.107 348.997 331.867 348.997C321.628 348.997 313.234 348.158 313.234 346.983C313.234 345.808 321.628 344.969 331.867 344.969C342.275 344.969 350.5 345.808 350.5 346.983Z" fill="#F2F0FB"/>
<path d="M248.441 39.6231C265.898 47.8485 286.042 48.1842 305.011 51.7094C363.931 62.9563 413.955 111.301 426.881 169.215C432.42 194.058 431.077 221.756 416.641 242.907C405.562 259.19 387.768 270.101 368.967 276.48C350.166 282.859 330.358 285.209 310.55 287.559C252.469 294.274 191.199 300.485 137.65 277.319C91.1516 257.008 55.2286 214.37 43.4781 165.521C40.1208 151.421 38.61 136.313 42.4709 122.212C47.3389 104.419 59.9288 89.9825 73.3579 77.2248C95.0124 56.7453 119.689 39.2874 146.211 25.3547C157.962 19.3116 213.693 -11.4077 222.086 4.53947C225.443 10.9183 225.275 17.9686 229.975 24.5153C234.676 30.8942 241.222 36.2659 248.441 39.6231Z" fill="#F8F7FC"/>
<path d="M405.729 43.8198V167.2C405.729 175.09 399.35 181.469 391.46 181.469H203.284C195.394 181.469 189.016 175.09 189.016 167.2V43.8198C189.016 35.9301 195.394 29.5513 203.284 29.5513H391.292C399.35 29.5513 405.729 35.9301 405.729 43.8198Z" fill="white"/>
<path d="M391.46 182.476H203.284C194.89 182.476 188.176 175.761 188.176 167.368V43.8197C188.176 35.4265 194.89 28.7119 203.284 28.7119H391.292C399.685 28.7119 406.4 35.4265 406.4 43.8197V167.2C406.567 175.593 399.685 182.476 391.46 182.476ZM203.284 30.3906C195.898 30.3906 189.854 36.4337 189.854 43.8197V167.2C189.854 174.586 195.898 180.629 203.284 180.629H391.292C398.678 180.629 404.721 174.586 404.721 167.2V43.8197C404.721 36.4337 398.678 30.3906 391.292 30.3906H203.284Z" fill="url(#paint0_linear_375_19395)"/>
<path d="M405.729 60.7741V43.8198C405.729 35.9302 399.35 29.5513 391.46 29.5513H203.284C195.394 29.5513 189.016 35.9302 189.016 43.8198V60.7741H405.729Z" fill="url(#paint1_linear_375_19395)"/>
<path d="M392.973 45.834C392.973 48.6877 390.791 50.87 387.937 50.87H276.139C273.286 50.87 271.103 48.6877 271.103 45.834C271.103 42.9803 273.286 40.7981 276.139 40.7981H387.937C390.791 40.7981 392.973 42.9803 392.973 45.834ZM225.444 46.0019C225.444 48.8556 223.094 51.3736 220.073 51.3736C217.219 51.3736 214.701 49.0235 214.701 46.0019C214.701 43.1482 217.051 40.6302 220.073 40.6302C223.094 40.7981 225.444 43.1482 225.444 46.0019ZM209.497 46.0019C209.497 48.8556 207.147 51.3736 204.126 51.3736C201.272 51.3736 198.754 49.0235 198.754 46.0019C198.754 43.1482 201.104 40.6302 204.126 40.6302C207.147 40.7981 209.497 43.1482 209.497 46.0019ZM242.567 46.0019C242.567 48.8556 240.216 51.3736 237.195 51.3736C234.173 51.3736 231.823 49.0235 231.823 46.0019C231.823 43.1482 234.173 40.6302 237.195 40.6302C240.216 40.6302 242.567 43.1482 242.567 46.0019Z" fill="white"/>
<path d="M250.79 171.061H248.104C247.936 171.061 247.6 170.893 247.6 170.558C247.6 170.39 247.768 170.054 248.104 170.054H250.79C251.461 170.054 252.132 169.886 252.804 169.382C252.972 169.215 253.307 169.215 253.475 169.382C253.643 169.55 253.643 169.886 253.475 170.054C252.636 170.893 251.797 171.061 250.79 171.061ZM241.557 171.061H236.521C236.353 171.061 236.017 170.893 236.017 170.558C236.017 170.39 236.185 170.054 236.521 170.054H241.557C241.725 170.054 242.061 170.222 242.061 170.558C241.893 170.893 241.725 171.061 241.557 171.061ZM229.806 171.061H224.771C224.603 171.061 224.267 170.893 224.267 170.558C224.267 170.39 224.435 170.054 224.771 170.054H229.806C229.974 170.054 230.31 170.222 230.31 170.558C230.142 170.893 229.974 171.061 229.806 171.061ZM218.056 171.061H213.02C212.852 171.061 212.516 170.893 212.516 170.558C212.516 170.39 212.684 170.054 213.02 170.054H218.056C218.224 170.054 218.56 170.222 218.56 170.558C218.392 170.893 218.224 171.061 218.056 171.061ZM206.305 171.061H205.298C203.787 171.061 202.277 170.054 201.773 168.711C201.605 168.543 201.773 168.207 201.941 168.207C202.109 168.04 202.445 168.207 202.445 168.375C202.948 169.55 203.955 170.222 205.298 170.222H206.305C206.473 170.222 206.809 170.39 206.809 170.725C206.641 170.893 206.473 171.061 206.305 171.061ZM254.315 164.011C254.147 164.011 253.811 163.843 253.811 163.507V158.471C253.811 158.303 253.979 157.968 254.315 157.968C254.483 157.968 254.818 158.136 254.818 158.471V163.507C254.65 163.843 254.483 164.011 254.315 164.011ZM201.773 162.332C201.605 162.332 201.27 162.164 201.27 161.829V156.793C201.27 156.625 201.437 156.289 201.773 156.289C201.941 156.289 202.277 156.457 202.277 156.793V161.829C202.277 162.164 201.941 162.332 201.773 162.332ZM254.315 152.26C254.147 152.26 253.811 152.092 253.811 151.757V146.721C253.811 146.553 253.979 146.217 254.315 146.217C254.483 146.217 254.818 146.385 254.818 146.721V151.757C254.65 152.092 254.483 152.26 254.315 152.26ZM201.773 150.582C201.605 150.582 201.27 150.414 201.27 150.078V145.042C201.27 144.874 201.437 144.539 201.773 144.539C201.941 144.539 202.277 144.706 202.277 145.042V150.078C202.277 150.414 201.941 150.582 201.773 150.582ZM254.315 140.51C254.147 140.51 253.811 140.342 253.811 140.006V134.97C253.811 134.635 253.811 134.299 253.643 133.963C253.643 133.795 253.643 133.459 253.979 133.459C254.147 133.459 254.483 133.459 254.483 133.795C254.65 134.131 254.65 134.635 254.65 134.97V140.006C254.65 140.342 254.483 140.51 254.315 140.51ZM201.773 138.831C201.605 138.831 201.27 138.663 201.27 138.328V134.97C201.27 134.299 201.437 133.795 201.773 133.124C201.941 132.956 202.109 132.788 202.277 132.956C202.445 133.124 202.612 133.292 202.445 133.459C202.277 133.963 202.109 134.299 202.109 134.802V138.16C202.277 138.663 201.941 138.831 201.773 138.831ZM248.439 131.949H243.403C243.236 131.949 242.9 131.781 242.9 131.445C242.9 131.277 243.068 130.942 243.403 130.942H248.439C248.607 130.942 248.943 131.109 248.943 131.445C248.943 131.781 248.607 131.949 248.439 131.949ZM236.689 131.949H231.653C231.485 131.949 231.149 131.781 231.149 131.445C231.149 131.277 231.317 130.942 231.653 130.942H236.689C236.857 130.942 237.193 131.109 237.193 131.445C237.193 131.781 236.857 131.949 236.689 131.949ZM224.938 131.949H219.902C219.735 131.949 219.399 131.781 219.399 131.445C219.399 131.277 219.567 130.942 219.902 130.942H224.938C225.106 130.942 225.442 131.109 225.442 131.445C225.442 131.781 225.106 131.949 224.938 131.949ZM213.188 131.949H208.152C207.984 131.949 207.648 131.781 207.648 131.445C207.648 131.277 207.816 130.942 208.152 130.942H213.188C213.356 130.942 213.691 131.109 213.691 131.445C213.691 131.781 213.356 131.949 213.188 131.949Z" fill="#4C5C75"/>
<path d="M323.643 134.97V167.2C323.643 169.047 322.132 170.725 320.118 170.725H274.459C272.612 170.725 270.934 169.214 270.934 167.2V134.97C270.934 133.124 272.444 131.445 274.459 131.445H320.118C322.132 131.613 323.643 133.124 323.643 134.97ZM392.971 134.97V167.2C392.971 169.047 391.46 170.725 389.446 170.725H343.787C341.94 170.725 340.262 169.214 340.262 167.2V134.97C340.262 133.124 341.772 131.445 343.787 131.445H389.614C391.46 131.613 392.971 133.124 392.971 134.97Z" fill="#F2F0FB"/>
<path d="M345.972 169.382C345.804 169.382 345.468 169.214 345.3 169.047C344.964 168.711 345.132 168.207 345.468 167.872L386.931 134.97C387.266 134.634 387.77 134.802 388.106 135.138C388.441 135.474 388.273 135.977 387.938 136.313L346.475 169.214C346.475 169.214 346.307 169.382 345.972 169.382Z" fill="white"/>
<path d="M387.431 169.382C387.263 169.382 387.095 169.382 386.927 169.214L345.465 136.313C345.129 135.977 344.961 135.474 345.297 135.138C345.632 134.802 346.136 134.634 346.472 134.97L387.934 167.872C388.27 168.207 388.438 168.711 388.102 169.047C387.934 169.214 387.599 169.382 387.431 169.382ZM168.871 248.111C168.871 248.782 168.368 249.454 167.528 249.454H154.603C153.931 249.454 153.26 248.95 153.26 248.111C153.26 247.439 153.763 246.768 154.603 246.768H167.696C168.368 246.768 168.871 247.271 168.871 248.111ZM177.768 248.111C177.768 248.782 177.264 249.454 176.425 249.454H172.061C171.389 249.454 170.718 248.95 170.718 248.111C170.718 247.439 171.221 246.768 172.061 246.768H176.425C177.264 246.768 177.768 247.271 177.768 248.111Z" fill="white"/>
<path d="M168.87 247.775C168.702 247.607 168.366 247.439 168.03 247.439H154.937C154.265 247.439 153.594 248.111 153.594 248.782V249.118C153.258 248.95 153.09 248.614 153.09 248.111C153.09 247.439 153.594 246.768 154.433 246.768H167.527C168.198 246.768 168.702 247.271 168.87 247.775ZM177.766 247.775C177.599 247.607 177.263 247.439 176.927 247.439H172.563C171.891 247.439 171.22 248.111 171.22 248.782V249.118C170.884 248.95 170.716 248.614 170.716 248.111C170.716 247.439 171.388 246.768 172.059 246.768H176.423C177.095 246.768 177.599 247.271 177.766 247.775ZM298.125 355.376C298.125 357.894 251.795 359.908 194.553 359.908C137.311 359.908 90.9805 357.894 90.9805 355.376C90.9805 352.858 137.311 350.844 194.553 350.844C251.795 350.676 298.125 352.69 298.125 355.376Z" fill="#F2F0FB"/>
<path d="M220.24 328.014C220.24 328.014 218.897 336.24 221.247 338.086C223.597 339.765 238.201 341.611 241.223 345.976C244.244 350.34 239.208 358.062 221.247 354.369C201.271 350.172 199.928 348.997 201.439 343.458C202.614 339.261 207.65 334.393 206.978 327.007L220.24 328.014Z" fill="#F6A285"/>
<path d="M158.129 248.614C158.129 248.614 227.96 235.185 238.536 256.336C244.747 268.926 226.282 323.482 221.414 334.057C219.567 337.918 206.474 334.897 204.459 331.036C197.913 318.95 209.663 268.758 209.663 268.758L135.803 266.072L158.129 248.614Z" fill="#111D33"/>
<path d="M115.492 296.456V351.851C115.492 353.865 117.003 355.376 119.017 355.376H131.439C129.425 355.376 127.914 353.865 127.914 351.851V296.456C127.914 294.441 129.425 292.931 131.439 292.931H119.017C117.171 292.763 115.492 294.441 115.492 296.456Z" fill="#CFCDF1"/>
<path d="M128.08 296.456V351.851C128.08 353.865 129.591 355.376 131.605 355.376H186.833C188.847 355.376 190.358 353.865 190.358 351.851V296.456C190.358 294.441 188.847 292.931 186.833 292.931H131.605C129.591 292.763 128.08 294.441 128.08 296.456Z" fill="#F2F0FB"/>
<path d="M255.489 322.643C255.489 322.643 259.685 330.364 262.707 330.364C265.728 330.364 278.99 322.643 284.361 324.321C289.733 326 290.237 335.568 272.947 343.961C253.642 353.194 251.628 353.026 249.446 347.487C247.767 343.29 248.942 335.904 243.57 330.196L255.489 322.643Z" fill="#F6A285"/>
<path d="M150.91 292.931C185.154 293.434 206.976 284.873 206.976 284.873C206.976 284.873 235.849 330.868 243.235 334.729C247.599 336.911 260.525 330.364 260.357 325.328V324.657C259.35 318.446 247.096 291.252 238.031 272.115C232.492 260.197 220.405 252.643 207.312 252.811L136.137 253.482C131.102 254.322 126.401 254.322 122.876 253.482C120.358 252.979 118.344 251.972 117.001 250.629C116.833 250.629 102.9 292.259 150.91 292.931Z" fill="#4C5C75"/>
<path d="M150.91 292.931C185.154 293.434 206.976 284.873 206.976 284.873C206.976 284.873 235.849 330.868 243.235 334.729C247.599 336.911 260.525 330.364 260.357 325.328V324.657C259.686 324.825 259.014 325.161 258.511 325.496C257 326.504 256.161 328.014 254.65 329.021C251.46 331.372 246.76 330.364 243.571 327.679C240.549 325.161 238.87 321.3 237.192 317.775C233.667 310.053 229.974 302.499 224.602 295.952C219.23 289.573 211.676 284.37 203.451 283.53C196.401 282.691 182.3 284.873 175.418 286.552C167.192 288.398 158.631 289.405 150.238 288.23C141.845 286.888 133.787 283.194 128.416 276.648C125.394 272.955 123.38 268.422 122.708 263.722C122.205 260.533 123.044 256.84 122.876 253.65C120.358 253.147 118.344 252.14 117.001 250.797C116.833 250.629 102.9 292.259 150.91 292.931Z" fill="#111D33"/>
<path d="M220.238 239.214C220.238 239.214 219.063 239.718 198.415 241.732C181.293 243.411 175.922 244.754 169.879 240.893C162.325 236.192 159.807 208.663 159.807 208.663L182.3 206.648L182.804 210.509L184.818 224.442L219.566 229.31L219.902 237.032L220.238 239.214Z" fill="#F6A285"/>
<path d="M220.238 239.214C220.238 239.214 219.063 239.718 198.415 241.732C181.293 243.411 175.922 244.754 169.879 240.893C162.325 236.192 159.807 208.663 159.807 208.663L182.3 206.648L182.804 210.509C182.133 210.677 181.461 210.677 180.79 210.845C178.272 211.516 177.097 213.699 177.097 216.217C177.097 218.231 177.936 220.077 178.775 221.924C179.95 224.61 181.125 227.128 182.3 229.814C182.972 231.324 183.811 233.003 184.986 234.178C187.169 236.025 190.19 236.025 192.876 236.025C199.758 235.857 206.473 235.857 213.355 235.689C214.866 235.689 216.545 235.689 218.056 236.025C218.727 236.192 219.399 236.528 219.902 236.864L220.238 239.214Z" fill="url(#paint2_linear_375_19395)"/>
<path d="M154.602 160.486C150.07 166.025 148.056 212.691 154.938 211.516C161.317 210.509 179.446 211.013 183.475 208.998C190.19 205.473 182.971 176.601 175.921 169.382C171.221 164.514 157.792 156.625 154.602 160.486Z" fill="#6EB854"/>
<path d="M183.476 208.831C183.308 208.998 183.476 208.998 183.476 208.831C187.337 201.948 180.79 177.44 174.411 170.725C170.215 166.361 158.632 159.311 154.268 161.157C154.435 160.821 154.603 160.486 154.771 160.318C157.961 156.457 171.39 164.346 176.09 169.215C182.805 176.601 190.023 205.305 183.476 208.831Z" fill="#438829"/>
<path d="M182.803 249.789C181.124 249.286 179.11 249.118 177.096 249.622C176.088 249.957 175.249 250.461 174.242 251.132C146.712 248.614 132.612 275.137 116.664 250.964C116.497 237.871 119.35 219.406 120.022 215.041C120.19 214.37 120.19 214.034 120.19 214.034C120.19 214.034 119.854 213.531 119.182 212.859C114.482 207.32 95.6814 183.315 99.5422 171.565C101.389 166.193 115.825 162.332 127.743 159.814C129.422 159.478 130.933 159.143 132.444 158.975C136.472 158.303 139.998 157.8 142.012 157.464C143.355 157.296 144.194 157.128 144.194 157.128C144.194 157.128 150.405 157.632 157.12 159.31C163.666 160.989 170.717 163.843 173.738 168.711C179.278 177.608 174.746 210.677 174.746 210.677C174.746 210.677 183.307 233.507 182.803 249.789Z" fill="#6EB854"/>
<path d="M177.098 249.621C176.091 249.957 175.251 250.461 174.244 251.132C146.714 248.614 132.614 275.137 116.667 250.964C116.499 237.871 119.352 219.406 120.024 215.041C121.87 215.209 122.542 217.056 123.213 218.567C125.228 223.267 126.235 228.471 125.899 233.506C125.731 235.857 125.395 238.375 126.738 240.221C128.585 242.907 132.278 243.075 135.635 242.739C142.014 242.403 148.561 242.235 154.94 243.075C157.793 243.41 160.647 244.082 163.501 244.753C166.187 245.425 168.872 245.928 171.558 246.6C173.237 246.936 174.915 247.271 176.091 248.446C176.594 248.782 176.762 249.286 177.098 249.621ZM176.762 187.847C176.594 181.133 175.923 175.09 174.076 171.9C170.215 165.521 158.8 162.668 151.414 161.325C147.386 160.653 144.532 160.485 144.532 160.485C144.532 160.485 135.803 161.493 125.899 163.675C114.484 166.025 101.559 169.886 99.8801 174.922C99.7122 175.593 99.5443 176.265 99.3765 177.104C99.2086 175.09 99.2086 173.411 99.8801 171.732C101.559 166.864 113.477 163.171 124.556 160.821C134.796 158.639 144.364 157.464 144.364 157.464C144.364 157.464 147.386 157.632 151.582 158.471C158.968 159.814 170.215 162.668 174.076 169.047C176.258 172.404 176.762 180.126 176.762 187.847Z" fill="#438829"/>
<path d="M189.013 240.557C188.342 241.564 182.131 237.032 181.459 236.528C181.963 237.032 186.831 241.732 186.327 243.075C185.824 244.418 181.963 239.55 179.613 238.71C177.598 238.039 176.088 237.2 175.584 236.864C176.255 237.367 181.627 241.396 181.795 242.571C181.963 243.243 180.116 242.403 178.102 241.396C176.759 240.725 175.416 240.053 174.073 239.885C170.884 239.046 168.701 240.221 168.701 240.221C168.701 240.221 165.848 242.907 159.805 242.068C159.805 242.068 158.63 242.571 137.982 244.586C120.86 246.264 115.488 247.607 109.445 243.746C101.891 239.046 100.045 214.034 100.045 214.034L122.707 211.852L123.378 217.895L124.553 226.96L159.301 231.828C163.498 229.981 168.701 227.296 172.059 227.967C176.255 228.806 190.524 238.543 189.013 240.557Z" fill="#F6A285"/>
<path d="M178.27 241.396C176.927 240.725 175.584 240.053 174.241 239.885C171.052 239.046 168.869 240.221 168.869 240.221C168.869 240.221 166.016 242.907 159.973 242.068C159.973 242.068 158.798 242.571 138.15 244.586C121.028 246.264 115.656 247.607 109.613 243.746C102.059 239.046 100.213 214.034 100.213 214.034L122.707 211.852L123.378 217.895C122.707 218.231 122.035 218.399 121.364 218.567C118.342 219.07 115.321 218.231 112.131 218.063C109.11 217.895 105.585 218.399 103.738 220.749C101.22 223.938 102.899 228.806 105.92 231.324C109.11 233.842 113.138 234.514 117.167 235.017C124.721 236.192 132.107 237.2 139.661 238.375C145.536 239.214 151.579 240.053 157.623 239.885C161.148 239.718 164.673 239.046 168.198 239.046C171.723 239.046 175.248 239.55 178.27 241.396Z" fill="url(#paint3_linear_375_19395)"/>
<path d="M248.103 199.598L231.988 244.082C231.485 245.257 230.477 246.097 229.134 246.097H194.386C192.372 246.097 190.861 244.082 191.533 242.068L207.648 197.584C208.151 196.409 209.159 195.569 210.501 195.569H245.249C247.432 195.569 248.942 197.584 248.103 199.598Z" fill="#CFCDF1"/>
<path d="M236.521 244.082C236.018 245.257 235.011 246.097 233.668 246.097H198.92C196.905 246.097 195.395 244.082 196.066 242.068L212.181 197.584C212.685 196.409 213.692 195.569 215.035 195.569H249.783C251.797 195.569 253.308 197.584 252.636 199.598L236.521 244.082Z" fill="url(#paint4_linear_375_19395)"/>
<path d="M231.486 246.096V247.607C231.486 248.447 231.151 249.286 230.479 249.957L228.801 251.636C228.129 252.307 227.29 252.643 226.45 252.643H151.751C150.911 252.643 149.904 252.307 149.401 251.636L147.722 249.957C147.051 249.286 146.715 248.447 146.715 247.607V246.096H231.486Z" fill="#CFCDF1"/>
<path d="M231.486 246.096V247.607C231.486 248.447 231.15 249.286 230.478 249.957L228.8 251.636C228.128 252.307 227.289 252.643 226.45 252.643H192.709C193.548 252.643 194.556 252.307 195.059 251.636L196.738 249.957C197.409 249.286 197.745 248.447 197.745 247.607V246.096H231.486Z" fill="url(#paint5_linear_375_19395)"/>
<path d="M230.981 218.735C230.142 221.42 227.456 223.435 224.77 223.435C222.252 223.435 220.741 221.253 221.581 218.735C222.42 216.049 225.106 214.034 227.792 214.034C230.31 213.866 231.821 216.049 230.981 218.735Z" fill="#F2F0FB"/>
<path d="M228.801 218.734C228.298 220.077 226.787 221.252 225.444 221.252C224.101 221.252 223.262 220.077 223.597 218.734C224.101 217.391 225.612 216.216 226.955 216.216C228.466 216.049 229.305 217.224 228.801 218.734Z" fill="white"/>
<path d="M99.2076 172.068C94.6752 177.608 93.3323 217.392 100.215 216.384C106.594 215.377 121.534 215.713 125.73 214.202C135.298 210.509 116.33 174.418 116.33 174.418C116.33 174.418 102.397 168.207 99.2076 172.068Z" fill="#6EB854"/>
<path d="M102.228 172.068C97.8634 177.272 96.5205 212.691 102.06 216.217C101.389 216.217 100.717 216.384 100.046 216.384C93.3311 217.392 94.5061 177.608 99.0385 172.068C100.046 170.893 102.228 170.557 104.578 170.893C103.739 171.061 102.899 171.397 102.228 172.068Z" fill="#438829"/>
<path d="M164.844 119.023C164.844 119.023 167.194 127.584 160.48 131.277L155.779 115.666L164.844 119.023Z" fill="#894852"/>
<path d="M151.581 158.135V159.814C151.581 160.318 151.581 160.821 151.413 161.325C150.406 165.018 145.706 167.2 137.984 167.2C131.941 167.2 127.744 165.857 125.73 163.507C125.058 162.668 124.555 161.661 124.387 160.653C134.626 158.471 144.195 157.296 144.195 157.296C144.195 157.296 147.384 157.464 151.581 158.135Z" fill="#438829"/>
<path d="M128.752 159.814V147.392C130.431 150.582 139.495 152.932 147.217 153.435V159.646C147.217 163.843 128.752 163.843 128.752 159.814Z" fill="url(#paint6_linear_375_19395)"/>
<path d="M154.604 152.764C150.407 155.282 130.935 152.596 128.585 147.392C126.57 142.86 125.899 137.656 126.738 132.788C126.067 130.102 126.402 127.752 127.913 127.08C128.081 127.08 128.081 126.913 128.249 126.913C131.774 118.016 140.167 111.301 152.757 113.148C163.668 114.658 162.997 147.896 154.604 152.764Z" fill="url(#paint7_linear_375_19395)"/>
<path d="M154.269 123.22C135.636 120.534 133.789 120.534 134.461 124.73C134.964 127.752 135.132 130.606 133.789 130.941C132.111 127.92 129.593 126.241 127.914 127.08C126.068 127.92 125.9 131.445 127.41 134.634C127.746 135.474 128.25 136.145 128.753 136.817C128.418 141.685 128.586 147.224 128.586 148.064C128.586 148.064 128.082 147.392 127.41 146.385C123.382 140.342 110.792 119.527 123.885 116.841C123.885 116.841 115.66 95.8577 139.161 100.726C151.415 103.244 160.648 98.7114 162.998 102.74C164.005 104.587 166.019 109.287 166.355 113.819C167.026 119.527 164.676 124.73 154.269 123.22Z" fill="#894852"/>
<path d="M154.772 144.371C154.604 145.881 153.429 146.889 151.918 146.889C150.407 146.889 149.064 145.714 148.729 144.371H154.772Z" fill="#E17659"/>
<path d="M154.266 123.22C135.633 120.534 133.787 120.534 134.458 124.73C134.962 127.752 135.13 130.606 133.787 130.941C132.108 127.92 129.59 126.241 127.911 127.081C126.065 127.92 125.897 131.445 127.408 134.634C127.744 135.474 128.247 136.145 128.751 136.817C128.415 141.685 128.583 147.224 128.583 148.064C128.583 148.064 128.079 147.392 127.408 146.385C127.072 144.538 128.079 142.356 127.911 140.342C127.911 136.817 124.554 133.795 124.89 130.27C125.058 128.759 125.897 127.248 127.24 126.409C128.583 125.57 130.262 125.234 131.772 125.738C131.269 124.73 130.765 123.723 130.765 122.716C130.765 121.709 131.101 120.534 131.94 119.862C133.619 118.687 135.969 120.03 137.815 119.359C138.991 118.855 139.83 117.848 140.837 117.009C142.348 115.834 144.362 115.33 146.209 115.33C148.055 115.33 150.07 115.666 151.916 115.666C156.616 116.001 161.316 115.498 165.681 114.155C166.017 113.987 166.352 113.987 166.688 113.819C167.024 119.527 164.674 124.73 154.266 123.22ZM124.051 117.009C124.051 117.009 126.736 118.016 128.079 121.709C128.079 121.709 128.247 117.009 123.715 116.001L124.051 117.009Z" fill="#51383C"/>
<path d="M151.749 132.788C151.581 133.627 151.749 134.466 151.917 135.138C152.085 135.977 152.588 136.649 152.924 137.32C153.092 137.656 153.26 138.16 153.428 138.495C153.428 138.663 153.596 138.999 153.596 139.335C153.596 139.67 153.428 140.006 153.092 140.342C152.421 140.845 152.085 140.677 151.581 140.677C151.078 140.677 150.742 140.51 150.238 140.51V140.342C150.574 140.174 151.078 140.006 151.413 139.838C151.749 139.67 152.253 139.67 152.253 139.502C152.253 139.67 152.085 138.495 151.917 137.656C151.749 136.817 151.413 136.145 151.245 135.138C151.245 134.466 151.245 133.627 151.749 132.788Z" fill="#E17659"/>
<path d="M143.187 128.424C143.859 128.088 144.698 127.92 145.537 127.92C146.377 127.92 147.048 128.256 147.552 128.927C147.72 129.263 147.887 129.599 147.887 129.934C147.72 130.27 147.216 130.438 146.88 130.438C146.545 130.438 146.209 130.102 145.873 129.934C145.202 129.599 144.53 129.599 143.859 129.599C143.187 129.599 142.684 129.934 142.012 130.102C141.509 130.27 141.005 130.941 140.501 130.606C139.998 130.27 140.501 129.766 141.173 129.431C141.844 128.927 142.516 128.591 143.187 128.424ZM155.106 128.088C155.777 127.92 156.616 127.752 157.456 127.752C158.295 127.752 158.967 128.256 159.47 128.759C159.638 129.095 159.806 129.431 159.638 129.766C159.47 130.102 158.967 130.27 158.631 130.102L157.624 129.599C156.952 129.263 156.449 129.095 155.777 129.263C155.106 129.263 154.602 129.431 153.931 129.599C153.427 129.766 152.923 130.27 152.42 130.102C151.916 129.766 152.588 129.263 153.091 128.927C153.763 128.591 154.434 128.256 155.106 128.088ZM142.348 132.956C142.684 132.62 143.019 132.452 143.355 132.117C143.691 131.781 144.027 131.613 144.53 131.445C145.034 131.277 145.537 131.277 145.873 131.613C146.209 131.781 146.712 132.117 146.88 132.62C146.377 132.452 146.041 132.284 145.705 132.284C145.37 132.117 145.034 131.949 144.698 132.117C144.362 132.117 144.027 132.284 143.691 132.62C143.187 132.62 142.852 132.788 142.348 132.956Z" fill="#111D33"/>
<path d="M145.876 132.62C145.876 133.124 145.54 133.627 144.869 133.627C144.365 133.627 144.029 133.292 144.029 132.62C144.029 132.116 144.365 131.781 144.869 131.781C145.54 131.613 145.876 132.116 145.876 132.62Z" fill="#111D33"/>
<path d="M145.539 132.62C145.539 132.788 145.371 132.956 145.203 132.956C145.035 132.956 144.867 132.788 144.867 132.62C144.867 132.452 145.035 132.284 145.203 132.284C145.371 132.452 145.539 132.452 145.539 132.62Z" fill="white"/>
<path d="M153.428 132.956C153.763 132.62 154.099 132.452 154.435 132.116C154.771 131.781 155.106 131.613 155.61 131.445C156.114 131.277 156.617 131.277 156.953 131.613C157.289 131.781 157.792 132.116 157.96 132.62C157.456 132.452 157.121 132.284 156.785 132.284C156.449 132.116 156.114 131.948 155.778 132.116C155.442 132.116 155.106 132.284 154.771 132.62C154.099 132.62 153.763 132.788 153.428 132.956Z" fill="#111D33"/>
<path d="M156.954 132.62C156.954 133.124 156.618 133.627 155.947 133.627C155.443 133.627 155.107 133.292 155.107 132.62C155.107 132.116 155.443 131.781 155.947 131.781C156.45 131.613 156.954 132.116 156.954 132.62Z" fill="#111D33"/>
<path d="M156.451 132.62C156.451 132.788 156.283 132.956 156.115 132.956C155.947 132.956 155.779 132.788 155.779 132.62C155.779 132.452 155.947 132.284 156.115 132.284C156.283 132.452 156.451 132.452 156.451 132.62Z" fill="white"/>
<path d="M131.773 131.949C131.605 131.109 131.269 130.438 130.766 129.766C130.094 129.095 129.255 128.759 128.584 128.927C128.248 128.927 127.744 129.095 127.409 129.263C127.409 129.263 127.241 129.431 127.409 129.431C127.409 129.431 127.576 129.599 127.576 129.431C127.912 129.263 128.248 129.095 128.584 129.095C129.255 129.095 129.927 129.263 130.598 129.934C131.102 130.438 131.437 131.109 131.605 131.781C131.437 131.613 131.269 131.445 130.934 131.445C130.598 131.445 130.43 131.445 130.094 131.613C129.927 131.613 129.759 131.781 129.591 131.781C129.423 131.949 129.423 132.116 129.423 132.284C129.423 132.452 129.591 132.452 129.591 132.452C129.759 132.452 129.759 132.284 129.759 132.284C129.759 132.284 129.759 132.116 129.927 132.116C130.094 131.949 130.094 131.949 130.262 131.949C130.598 131.781 130.766 131.781 130.934 131.949C131.269 131.949 131.605 132.116 131.773 132.452C131.941 132.956 131.941 133.627 131.941 134.299C131.941 134.467 131.941 134.467 132.109 134.467L132.277 134.299" fill="#E17659"/>
<path d="M419.156 172.572V211.181C419.156 214.706 416.302 217.56 412.777 217.56H364.935C361.41 217.56 358.557 214.706 358.557 211.181V172.572C358.557 169.047 361.41 166.193 364.935 166.193H412.777C416.302 166.193 419.156 169.047 419.156 172.572Z" fill="url(#paint8_linear_375_19395)"/>
<path d="M412.444 221.42H407.408C407.24 221.42 406.905 221.252 406.905 220.917C406.905 220.749 407.073 220.413 407.408 220.413H412.444C412.612 220.413 412.948 220.581 412.948 220.917C412.78 221.252 412.612 221.42 412.444 221.42ZM400.694 221.42H395.658C395.49 221.42 395.154 221.252 395.154 220.917C395.154 220.749 395.322 220.413 395.658 220.413H400.694C400.862 220.413 401.197 220.581 401.197 220.917C401.029 221.252 400.862 221.42 400.694 221.42ZM388.943 221.42H383.907C383.739 221.42 383.404 221.252 383.404 220.917C383.404 220.749 383.571 220.413 383.907 220.413H388.943C389.111 220.413 389.447 220.581 389.447 220.917C389.279 221.252 389.111 221.42 388.943 221.42ZM377.193 221.42H372.157C371.989 221.42 371.653 221.252 371.653 220.917C371.653 220.749 371.821 220.413 372.157 220.413H377.193C377.361 220.413 377.696 220.581 377.696 220.917C377.528 221.252 377.361 221.42 377.193 221.42ZM365.442 221.42H361.917C361.413 221.42 360.91 221.42 360.406 221.252C360.238 221.252 360.07 220.917 360.07 220.749C360.07 220.581 360.406 220.413 360.574 220.413C361.078 220.581 361.581 220.581 361.917 220.581H365.442C365.61 220.581 365.946 220.749 365.946 221.085C365.778 221.252 365.61 221.42 365.442 221.42ZM418.991 220.749C418.823 220.749 418.655 220.581 418.655 220.581C418.487 220.413 418.655 220.077 418.823 220.077C420.334 219.406 421.509 218.231 422.18 216.888C422.348 216.72 422.516 216.552 422.684 216.72C422.852 216.888 423.02 217.056 422.852 217.224C422.012 218.902 420.67 220.077 419.159 220.917C419.159 220.749 418.991 220.749 418.991 220.749ZM355.202 217.224C355.035 217.224 354.867 217.056 354.867 217.056C354.363 216.049 354.195 214.874 354.195 213.699V211.852C354.195 211.684 354.363 211.348 354.699 211.348C355.035 211.348 355.202 211.516 355.202 211.852V213.699C355.202 214.706 355.37 215.713 355.874 216.552C356.042 216.72 355.874 217.056 355.706 217.056C355.37 217.224 355.37 217.224 355.202 217.224ZM423.188 210.677C423.02 210.677 422.684 210.509 422.684 210.173V205.137C422.684 204.97 422.852 204.634 423.188 204.634C423.355 204.634 423.691 204.802 423.691 205.137V210.173C423.691 210.509 423.523 210.677 423.188 210.677ZM354.531 205.641C354.363 205.641 354.027 205.473 354.027 205.137V200.102C354.027 199.934 354.195 199.598 354.531 199.598C354.867 199.598 355.035 199.766 355.035 200.102V205.137C355.035 205.305 354.867 205.641 354.531 205.641ZM423.188 198.927C423.02 198.927 422.684 198.759 422.684 198.423V193.387C422.684 193.219 422.852 192.883 423.188 192.883C423.355 192.883 423.691 193.051 423.691 193.387V198.423C423.691 198.759 423.523 198.927 423.188 198.927ZM354.531 193.891C354.363 193.891 354.027 193.723 354.027 193.387V188.351C354.027 188.183 354.195 187.847 354.531 187.847C354.867 187.847 355.035 188.015 355.035 188.351V193.387C355.035 193.555 354.867 193.891 354.531 193.891ZM423.188 187.176C423.02 187.176 422.684 187.008 422.684 186.672V181.636C422.684 181.469 422.852 181.133 423.188 181.133C423.355 181.133 423.691 181.301 423.691 181.636V186.672C423.691 187.008 423.523 187.176 423.188 187.176ZM354.531 182.14C354.363 182.14 354.027 181.972 354.027 181.636V176.601C354.027 176.433 354.195 176.097 354.531 176.097C354.867 176.097 355.035 176.265 355.035 176.601V181.636C355.035 181.804 354.867 182.14 354.531 182.14ZM423.188 175.425C423.02 175.425 422.684 175.258 422.684 174.922V169.886C422.684 169.718 422.852 169.382 423.188 169.382C423.355 169.382 423.691 169.55 423.691 169.886V174.922C423.691 175.258 423.523 175.425 423.188 175.425ZM354.531 170.39C354.363 170.39 354.027 170.222 354.027 169.886C354.027 168.039 354.699 166.361 355.874 165.018C356.042 164.85 356.21 164.85 356.545 165.018C356.713 165.186 356.713 165.354 356.545 165.689C355.538 166.864 354.867 168.375 354.867 170.054C355.035 170.054 354.867 170.39 354.531 170.39ZM423.188 169.047C423.02 169.047 422.852 168.879 422.852 168.711C422.516 167.2 421.677 165.689 420.502 164.682C420.334 164.514 420.334 164.346 420.502 164.011C420.67 163.843 420.837 163.843 421.173 164.011C422.516 165.186 423.523 166.697 423.859 168.543C423.523 168.711 423.355 169.047 423.188 169.047ZM414.291 163.171H409.255C409.087 163.171 408.751 163.004 408.751 162.668C408.751 162.5 408.919 162.164 409.255 162.164H414.291C414.459 162.164 414.794 162.332 414.794 162.668C414.626 163.004 414.459 163.171 414.291 163.171ZM402.54 163.171H397.504C397.336 163.171 397.001 163.004 397.001 162.668C397.001 162.5 397.169 162.164 397.504 162.164H402.54C402.708 162.164 403.044 162.332 403.044 162.668C402.876 163.004 402.708 163.171 402.54 163.171ZM390.79 163.171H385.754C385.586 163.171 385.25 163.004 385.25 162.668C385.25 162.5 385.418 162.164 385.754 162.164H390.79C390.958 162.164 391.293 162.332 391.293 162.668C391.125 163.004 390.958 163.171 390.79 163.171ZM379.039 163.171H374.003C373.835 163.171 373.5 163.004 373.5 162.668C373.5 162.5 373.667 162.164 374.003 162.164H379.039C379.207 162.164 379.543 162.332 379.543 162.668C379.375 163.004 379.207 163.171 379.039 163.171ZM367.289 163.171H362.253C362.085 163.171 361.749 163.004 361.749 162.668C361.749 162.5 361.917 162.164 362.253 162.164H367.289C367.456 162.164 367.792 162.332 367.792 162.668C367.624 163.004 367.456 163.171 367.289 163.171Z" fill="#4C5C75"/>
<path d="M387.937 208.327H371.654C368.968 208.327 367.458 205.473 368.968 203.291L377.026 190.701C378.369 188.687 381.223 188.687 382.565 190.701L390.791 203.291C391.966 205.305 390.455 208.327 387.937 208.327Z" fill="white"/>
<path d="M409.252 208.327H386.422C383.736 208.327 382.226 205.473 383.736 203.291L395.151 185.833C396.494 183.819 399.348 183.819 400.691 185.833L412.105 203.291C413.448 205.305 411.77 208.327 409.252 208.327ZM390.954 180.629C390.954 183.483 388.604 185.833 385.751 185.833C382.897 185.833 380.547 183.483 380.547 180.629C380.547 177.776 382.897 175.425 385.751 175.425C388.604 175.425 390.954 177.776 390.954 180.629Z" fill="white"/>
<path d="M247.264 142.356V177.943C247.264 181.133 244.578 183.819 241.389 183.819H212.348L202.612 190.03C201.773 190.533 200.598 190.03 200.598 189.022V183.819H197.24C194.051 183.819 191.365 181.133 191.365 177.943V142.356C191.365 139.167 194.051 136.481 197.24 136.481H241.389C244.746 136.481 247.264 139.167 247.264 142.356Z" fill="#EE9545"/>
<path d="M203.451 158.639V161.157C203.451 161.493 203.619 161.829 203.955 161.996L206.808 163.004C207.144 164.179 207.648 165.354 208.319 166.529L206.976 169.215C206.808 169.55 206.808 169.886 207.144 170.222L208.991 172.068C209.159 172.236 209.662 172.404 209.998 172.236L212.684 170.893C213.691 171.565 214.866 172.068 216.209 172.404L217.216 175.258C217.384 175.593 217.552 175.761 218.055 175.761H220.573C220.909 175.761 221.245 175.593 221.413 175.258L222.252 172.404C223.427 172.068 224.602 171.565 225.777 170.893L228.463 172.236C228.799 172.404 229.134 172.404 229.47 172.068L231.317 170.222C231.485 170.054 231.652 169.55 231.485 169.215L230.142 166.529C230.813 165.522 231.317 164.346 231.652 163.004L234.506 161.996C234.842 161.829 235.01 161.661 235.01 161.157V158.639C235.01 158.303 234.842 157.968 234.506 157.8L231.652 156.96C231.317 155.785 230.813 154.61 230.142 153.435L231.485 150.749C231.652 150.414 231.652 150.078 231.317 149.742L229.47 147.896C229.302 147.728 228.799 147.56 228.463 147.728L225.777 149.071C224.77 148.399 223.595 147.896 222.252 147.56L221.413 144.706C221.245 144.371 220.909 144.203 220.573 144.203H218.055C217.72 144.203 217.384 144.371 217.216 144.706L216.209 147.56C215.034 147.896 213.859 148.399 212.684 149.071L209.998 147.728C209.662 147.56 209.326 147.56 208.991 147.896L207.144 149.742C206.976 149.91 206.808 150.414 206.976 150.749L208.319 153.435C207.648 154.442 207.144 155.618 206.808 156.96L203.955 157.8C203.619 157.968 203.451 158.303 203.451 158.639ZM212.684 159.982C212.684 156.457 215.537 153.771 218.895 153.771C222.252 153.771 225.106 156.625 225.106 159.982C225.106 163.339 222.252 166.193 218.895 166.193C215.37 166.193 212.684 163.339 212.684 159.982Z" fill="white"/>
<path d="M209.662 159.982C209.662 165.018 213.859 169.214 218.895 169.214C223.931 169.214 228.127 165.018 228.127 159.982C228.127 154.946 223.931 150.749 218.895 150.749C213.859 150.749 209.662 154.946 209.662 159.982ZM212.684 159.982C212.684 156.457 215.537 153.771 218.895 153.771C222.252 153.771 225.106 156.625 225.106 159.982C225.106 163.339 222.252 166.193 218.895 166.193C215.37 166.193 212.684 163.339 212.684 159.982Z" fill="#F2F0FB"/>
<path d="M111.798 67.9921V126.409C111.798 129.934 108.944 132.788 105.419 132.788H6.37885C2.8537 132.788 0 129.934 0 126.409V67.9921C0 64.467 2.8537 61.6133 6.37885 61.6133H105.419C108.944 61.6133 111.798 64.467 111.798 67.9921Z" fill="#F35170"/>
<path d="M45.8266 97.2005C45.8266 106.601 38.2727 114.155 28.8723 114.155C19.4719 114.155 11.918 106.601 11.918 97.2005C11.918 87.8001 19.4719 80.2462 28.8723 80.2462C38.2727 80.2462 45.8266 87.8001 45.8266 97.2005Z" fill="white"/>
<path d="M34.9157 98.8795L28.8726 103.748C27.3618 104.923 25.0117 103.915 25.0117 101.901V92.3328C25.0117 90.3184 27.3618 89.3112 28.8726 90.4862L34.9157 95.3543C36.0908 96.1936 36.0908 98.0401 34.9157 98.8795Z" fill="#F35170"/>
<path d="M93.67 82.4285C93.67 83.6035 92.6628 84.6107 91.4878 84.6107H64.4616C63.2865 84.6107 62.2793 83.6035 62.2793 82.4285C62.2793 81.2534 63.2865 80.2462 64.4616 80.2462H91.4878C92.8307 80.2462 93.67 81.2534 93.67 82.4285ZM100.049 92.3325C100.049 93.5075 99.0417 94.5147 97.8666 94.5147H58.2506C57.0755 94.5147 56.0684 93.5075 56.0684 92.3325C56.0684 91.1574 57.0755 90.1502 58.2506 90.1502H97.8666C99.0417 90.1502 100.049 90.9895 100.049 92.3325ZM100.049 102.069C100.049 103.244 99.0417 104.251 97.8666 104.251H58.2506C57.0755 104.251 56.0684 103.244 56.0684 102.069C56.0684 100.894 57.0755 99.8864 58.2506 99.8864H97.8666C99.0417 99.8864 100.049 100.894 100.049 102.069ZM79.5694 111.973C79.5694 113.148 78.5622 114.155 77.3871 114.155H58.2506C57.0755 114.155 56.0684 113.148 56.0684 111.973C56.0684 110.798 57.0755 109.79 58.2506 109.79H77.3871C78.5622 109.79 79.5694 110.63 79.5694 111.973Z" fill="white"/>
<path d="M392.971 75.8819V117.848C392.971 119.862 391.292 121.541 389.278 121.541H205.466C203.452 121.541 201.773 119.862 201.773 117.848V75.8819C201.773 73.8675 203.452 72.1888 205.466 72.1888H389.11C391.292 72.1888 392.971 73.8675 392.971 75.8819Z" fill="#F2F0FB"/>
<path d="M295.105 111.133H280.837C278.487 111.133 277.144 108.615 278.487 106.769L285.537 95.8576C286.712 94.179 289.23 94.179 290.405 95.8576L297.455 106.769C298.798 108.615 297.455 111.133 295.105 111.133Z" fill="white"/>
<path d="M313.906 111.134H293.93C291.58 111.134 290.237 108.616 291.58 106.769L301.484 91.4934C302.659 89.8148 305.177 89.8148 306.352 91.4934L316.424 106.769C317.431 108.616 316.088 111.134 313.906 111.134ZM297.791 86.961C297.791 89.479 295.777 91.4934 293.259 91.4934C290.741 91.4934 288.727 89.479 288.727 86.961C288.727 84.4431 290.741 82.4287 293.259 82.4287C295.777 82.4287 297.791 84.6109 297.791 86.961Z" fill="white"/>
<path d="M201.437 18.472V55.7379C201.437 60.1024 197.911 63.6276 193.547 63.6276H148.224C143.859 63.6276 140.334 60.1024 140.334 55.7379V18.472C140.334 14.1076 143.859 10.5824 148.224 10.5824H193.547C197.911 10.5824 201.437 14.1076 201.437 18.472Z" fill="#B189FC"/>
<path d="M195.898 68.1602H190.862C190.694 68.1602 190.358 67.9923 190.358 67.6566C190.358 67.4887 190.526 67.153 190.862 67.153H195.898C196.066 67.153 196.401 67.3209 196.401 67.6566C196.401 67.9923 196.233 68.1602 195.898 68.1602ZM184.147 68.1602H179.111C178.943 68.1602 178.608 67.9923 178.608 67.6566C178.608 67.4887 178.776 67.153 179.111 67.153H184.147C184.315 67.153 184.651 67.3209 184.651 67.6566C184.651 67.9923 184.483 68.1602 184.147 68.1602ZM172.397 68.1602H167.361C167.193 68.1602 166.857 67.9923 166.857 67.6566C166.857 67.4887 167.025 67.153 167.361 67.153H172.397C172.565 67.153 172.9 67.3209 172.9 67.6566C172.9 67.9923 172.732 68.1602 172.397 68.1602ZM160.646 68.1602H155.61C155.442 68.1602 155.107 67.9923 155.107 67.6566C155.107 67.4887 155.274 67.153 155.61 67.153H160.646C160.814 67.153 161.15 67.3209 161.15 67.6566C161.15 67.9923 160.982 68.1602 160.646 68.1602ZM148.896 68.1602H143.86C143.692 68.1602 143.524 67.9923 143.524 67.6566C143.524 67.4887 143.692 67.3209 144.028 67.3209H149.063C149.231 67.3209 149.567 67.4887 149.567 67.8244C149.399 67.9923 149.231 68.1602 148.896 68.1602ZM202.277 66.6494C202.109 66.6494 201.941 66.6494 201.941 66.4815C201.773 66.3137 201.941 65.9779 202.109 65.9779C203.452 65.1386 204.459 63.7957 205.13 62.2849C205.298 62.1171 205.466 61.9492 205.634 62.1171C205.802 62.2849 205.97 62.4528 205.802 62.6206C205.13 64.2993 203.955 65.6422 202.444 66.6494H202.277ZM137.984 65.4743C137.817 65.4743 137.817 65.4743 137.649 65.3065C136.474 63.9636 135.634 62.4528 135.131 60.7741C135.131 60.6063 135.299 60.2705 135.466 60.2705C135.634 60.2705 135.97 60.4384 135.97 60.6063C136.306 62.1171 137.145 63.6278 138.152 64.8029C138.32 64.9708 138.32 65.3065 138.152 65.4743C138.152 65.3065 138.152 65.4743 137.984 65.4743ZM206.305 56.2418C206.137 56.2418 205.802 56.0739 205.802 55.7382V50.7023C205.802 50.5344 205.97 50.1987 206.305 50.1987C206.641 50.1987 206.809 50.3665 206.809 50.7023V55.7382C206.809 56.0739 206.641 56.2418 206.305 56.2418ZM135.466 54.2274C135.299 54.2274 134.963 54.0596 134.963 53.7238V48.6879C134.963 48.52 135.131 48.1843 135.466 48.1843C135.634 48.1843 135.97 48.3522 135.97 48.6879V53.7238C135.802 54.0596 135.634 54.2274 135.466 54.2274ZM206.305 44.4913C206.137 44.4913 205.802 44.3234 205.802 43.9877V38.9518C205.802 38.7839 205.97 38.4482 206.305 38.4482C206.641 38.4482 206.809 38.616 206.809 38.9518V43.9877C206.809 44.3234 206.641 44.4913 206.305 44.4913ZM135.466 42.4769C135.299 42.4769 134.963 42.3091 134.963 41.9733V36.9374C134.963 36.7695 135.131 36.4338 135.466 36.4338C135.634 36.4338 135.97 36.6017 135.97 36.9374V41.9733C135.802 42.3091 135.634 42.4769 135.466 42.4769ZM206.305 32.7408C206.137 32.7408 205.802 32.5729 205.802 32.2372V27.2012C205.802 27.0334 205.97 26.6977 206.305 26.6977C206.641 26.6977 206.809 26.8655 206.809 27.2012V32.2372C206.809 32.5729 206.641 32.7408 206.305 32.7408ZM135.466 30.7264C135.299 30.7264 134.963 30.5585 134.963 30.2228V25.1869C134.963 25.019 135.131 24.6833 135.466 24.6833C135.634 24.6833 135.97 24.8511 135.97 25.1869V30.2228C135.802 30.5585 135.634 30.7264 135.466 30.7264ZM206.305 20.9903C206.137 20.9903 205.802 20.8224 205.802 20.4867V15.4507C205.802 14.7793 205.634 14.1078 205.466 13.4364C205.466 13.2685 205.466 12.9328 205.802 12.9328C205.97 12.9328 206.305 12.9328 206.305 13.2685C206.473 13.94 206.641 14.7793 206.641 15.6186V20.6545C206.809 20.8224 206.641 20.9903 206.305 20.9903ZM135.466 18.9759C135.299 18.9759 134.963 18.808 134.963 18.4723V15.4507C134.963 14.7793 134.963 14.1078 135.131 13.4364C135.131 13.2685 135.466 13.1006 135.634 13.1006C135.802 13.1006 135.97 13.4364 135.97 13.6042C135.802 14.1078 135.802 14.7793 135.802 15.4507V18.6402C135.802 18.808 135.634 18.9759 135.466 18.9759ZM139.16 8.5683C138.992 8.5683 138.824 8.56829 138.824 8.40043C138.656 8.23256 138.656 7.89684 138.992 7.89684C140.502 6.88965 142.181 6.21819 143.86 6.05033C144.028 6.05033 144.363 6.21819 144.363 6.38605C144.363 6.55392 144.195 6.88965 144.028 6.88965C142.349 7.05752 140.838 7.56111 139.495 8.5683H139.16ZM202.277 8.40043H202.109C200.766 7.56111 199.255 7.05752 197.576 6.88965C197.408 6.88965 197.241 6.72178 197.241 6.38605C197.241 6.21819 197.408 6.05033 197.744 6.05033C199.591 6.05033 201.269 6.72179 202.612 7.72897C202.78 7.89684 202.78 8.0647 202.78 8.23257C202.612 8.23257 202.444 8.40043 202.277 8.40043ZM190.862 6.72178H185.826C185.658 6.72178 185.322 6.55392 185.322 6.21819C185.322 6.05033 185.49 5.7146 185.826 5.7146H190.862C191.03 5.7146 191.365 5.88246 191.365 6.21819C191.365 6.55392 191.03 6.72178 190.862 6.72178ZM179.111 6.72178H174.075C173.907 6.72178 173.572 6.55392 173.572 6.21819C173.572 6.05033 173.74 5.7146 174.075 5.7146H179.111C179.279 5.7146 179.615 5.88246 179.615 6.21819C179.615 6.55392 179.279 6.72178 179.111 6.72178ZM167.361 6.72178H162.325C162.157 6.72178 161.821 6.55392 161.821 6.21819C161.821 6.05033 161.989 5.7146 162.325 5.7146H167.361C167.529 5.7146 167.864 5.88246 167.864 6.21819C167.864 6.55392 167.529 6.72178 167.361 6.72178ZM155.61 6.72178H150.574C150.406 6.72178 150.071 6.55392 150.071 6.21819C150.071 6.05033 150.239 5.7146 150.574 5.7146H155.61C155.778 5.7146 156.114 5.88246 156.114 6.21819C156.114 6.55392 155.778 6.72178 155.61 6.72178Z" fill="#4C5C75"/>
<path d="M162.491 50.8701C162.156 50.8701 161.988 50.8701 161.652 50.7022C160.813 50.1986 160.645 49.3593 160.98 48.52L174.577 24.3475C175.081 23.5082 175.92 23.3403 176.76 23.676C177.599 24.1796 177.767 25.0189 177.431 25.8583L163.834 50.0307C163.498 50.5343 162.995 50.8701 162.491 50.8701Z" fill="white"/>
<path d="M162.491 51.2058C162.155 51.2058 161.819 51.038 161.483 50.8701C160.476 50.3665 160.141 49.0236 160.644 48.1843L174.241 24.0118C174.577 23.5082 174.913 23.1725 175.416 23.0046C175.92 22.8367 176.423 23.0046 176.927 23.1725C177.431 23.5082 177.766 23.8439 177.934 24.3475C178.102 24.8511 177.934 25.3547 177.766 25.8583L164.169 50.0308C163.834 50.8701 163.162 51.2058 162.491 51.2058ZM176.088 23.8439H175.752C175.416 24.0118 175.248 24.1796 175.081 24.3475L161.483 48.52C161.148 49.0236 161.316 49.8629 161.987 50.1986C162.491 50.5344 163.33 50.3665 163.666 49.695L177.263 25.5226C177.431 25.1868 177.431 24.8511 177.431 24.6832C177.263 24.3475 177.095 24.1796 176.927 24.0118C176.423 23.8439 176.256 23.8439 176.088 23.8439ZM161.819 36.6016C161.483 36.6016 161.148 36.4338 160.812 36.2659L154.433 31.5657C154.097 31.2299 153.762 30.7264 153.762 30.2228C153.762 29.7192 153.93 29.2156 154.433 28.8798L160.812 24.1796C161.483 23.676 162.491 23.8439 162.994 24.5154C163.498 25.1868 163.33 26.194 162.659 26.6976L157.958 30.0549L162.659 33.4122C163.33 33.9158 163.498 34.923 162.994 35.5944C162.826 36.4337 162.323 36.6016 161.819 36.6016Z" fill="white"/>
<path d="M161.821 37.1054C161.317 37.1054 160.982 36.9375 160.646 36.7696L154.267 32.0694C153.763 31.7337 153.428 31.0622 153.428 30.3908C153.428 29.7193 153.763 29.0479 154.267 28.7121L160.646 24.0119C161.149 23.6762 161.653 23.5083 162.157 23.6762C162.66 23.8441 163.164 24.0119 163.5 24.5155C164.171 25.3549 164.003 26.6978 162.996 27.3692L158.799 30.3908L162.996 33.4123C163.835 34.0838 164.171 35.2589 163.5 36.266C162.996 36.7696 162.492 37.1054 161.821 37.1054ZM161.821 24.5155C161.653 24.5155 161.317 24.5155 161.149 24.6834L154.771 29.3836C154.435 29.5515 154.267 29.8872 154.267 30.3908C154.267 30.7265 154.435 31.0622 154.771 31.398L161.149 36.0982C161.653 36.4339 162.492 36.266 162.828 35.7624C163.164 35.2588 163.164 34.4195 162.492 34.0838L157.456 30.3908L162.492 26.6978C162.996 26.362 163.164 25.5227 162.828 25.0191C162.66 24.6834 162.325 24.5155 161.989 24.5155H161.821ZM176.593 50.0309C176.089 50.0309 175.586 49.8631 175.25 49.3595C174.747 48.688 174.914 47.6808 175.586 47.1772L180.286 43.8199L175.586 40.4627C174.914 39.9591 174.747 38.9519 175.25 38.2804C175.754 37.609 176.761 37.4411 177.432 37.9447L183.811 42.6449C184.147 42.9806 184.483 43.4842 184.483 43.9878C184.483 44.4914 184.315 44.995 183.811 45.3307L177.432 50.0309C177.264 49.8631 176.929 50.0309 176.593 50.0309Z" fill="white"/>
<path d="M176.595 50.3665C175.924 50.3665 175.252 50.0307 174.917 49.5271C174.245 48.6878 174.413 47.3449 175.42 46.6734L179.617 43.6519L175.42 40.6303C174.581 39.9589 174.245 38.7838 174.917 37.7766C175.252 37.273 175.756 37.1052 176.259 36.9373C176.763 36.7695 177.267 36.9373 177.77 37.273L184.149 41.9732C184.653 42.309 184.988 42.9804 184.988 43.6519C184.988 44.3234 184.653 44.9948 184.149 45.3305L177.77 50.0307C177.435 50.3665 177.099 50.3665 176.595 50.3665ZM176.595 37.9445H176.427C176.092 37.9445 175.924 38.1124 175.588 38.4481C175.252 38.9517 175.252 39.791 175.924 40.1267L180.96 43.8198L175.924 47.5128C175.42 47.8485 175.252 48.6878 175.588 49.1914C175.924 49.695 176.763 49.8629 177.267 49.5271L183.646 44.8269C183.981 44.6591 184.149 44.3233 184.149 43.8198C184.149 43.484 183.981 43.1483 183.646 42.8126L177.267 38.1124C177.099 37.9445 176.931 37.9445 176.595 37.9445Z" fill="white"/>
<path d="M303.161 155.282L295.607 160.821C292.921 162.836 288.893 160.821 288.893 157.464V146.217C288.893 142.86 292.753 140.845 295.607 142.86L303.161 148.399C305.511 150.246 305.511 153.603 303.161 155.282Z" fill="#CFCDF1"/>
<path d="M329.182 316.6C328.007 313.578 325.153 309.214 322.635 307.199C319.949 305.185 317.096 303.674 314.41 301.828C308.199 297.631 302.995 292.091 299.134 285.713C297.623 283.195 296.28 279.837 297.791 277.151C299.134 274.801 302.156 273.794 304.842 273.962C310.717 274.13 316.088 277.487 319.781 282.187C323.474 286.72 325.489 292.427 327 298.134C328.678 304.681 329.182 309.717 329.182 316.6Z" fill="#6EB854"/>
<path d="M330.021 325.161C329.853 325.161 329.853 324.993 329.853 324.993C330.356 299.31 305.68 281.852 305.345 281.684C305.177 281.684 305.177 281.516 305.345 281.348C305.345 281.18 305.513 281.18 305.68 281.348C305.848 281.516 330.86 299.142 330.356 324.993C330.189 324.993 330.021 325.161 330.021 325.161Z" fill="#438829"/>
<path d="M333.211 315.76C334.89 313.914 338.415 311.899 340.765 311.396C343.115 310.892 345.633 310.724 348.151 310.389C353.69 309.549 359.062 307.367 363.762 304.178C365.609 302.835 367.623 301.156 367.455 298.806C367.287 296.792 365.609 295.113 363.594 294.274C359.566 292.427 354.698 293.099 350.669 295.113C346.64 297.127 343.451 300.317 340.597 303.674C337.408 307.703 335.561 311.06 333.211 315.76Z" fill="#6EB854"/>
<path d="M330.021 321.468C329.854 321.468 329.854 321.3 329.854 321.132C337.911 303.17 360.741 299.309 360.908 299.142C361.076 299.142 361.076 299.142 361.076 299.309C361.076 299.477 361.076 299.477 360.908 299.477C360.741 299.477 338.247 303.506 330.189 321.132C330.189 321.3 330.021 321.468 330.021 321.468Z" fill="#438829"/>
<path d="M334.891 301.492C336.234 298.302 339.759 293.77 342.612 291.755C345.634 289.741 348.823 288.398 351.845 286.552C358.727 282.523 364.938 276.983 369.471 270.269C371.317 267.583 372.996 264.226 371.653 261.204C370.478 258.518 367.121 257.343 364.267 257.175C357.888 256.84 351.845 260.197 347.648 264.897C343.452 269.597 340.766 275.473 338.752 281.516C336.234 288.734 335.394 294.106 334.891 301.492Z" fill="#6EB854"/>
<path d="M330.021 325.329C329.853 325.329 329.853 325.161 329.853 325.161C329.517 306.696 338.749 291.42 346.471 281.852C354.864 271.612 363.426 265.569 363.593 265.401H363.929V265.737C363.761 265.737 355.2 271.78 346.975 282.019C339.253 291.42 330.021 306.696 330.356 324.993C330.188 325.328 330.021 325.329 330.021 325.329Z" fill="#438829"/>
<path d="M347.815 322.307L343.45 344.633C343.115 345.976 342.107 346.815 340.764 346.815H322.299C320.956 346.815 319.781 345.808 319.614 344.633L315.249 322.307C314.913 320.628 316.256 318.95 317.935 318.95H345.297C346.808 319.117 348.151 320.628 347.815 322.307Z" fill="#A96256"/>
<path d="M344.122 340.772L343.282 344.801C342.947 346.144 341.939 346.983 340.596 346.983H322.131C320.788 346.983 319.613 345.976 319.446 344.801L315.081 322.475C314.745 320.796 316.088 319.117 317.767 319.117H317.935C317.431 320.796 317.095 322.643 317.095 324.657C317.095 334.729 325.321 342.954 335.393 342.954C338.75 342.954 341.604 342.115 344.122 340.772Z" fill="#894852"/>
<defs>
<linearGradient id="paint0_linear_375_19395" x1="188.243" y1="105.562" x2="406.517" y2="105.562" gradientUnits="userSpaceOnUse">
<stop stop-color="#57B2FD"/>
<stop offset="1" stop-color="#497BFD"/>
</linearGradient>
<linearGradient id="paint1_linear_375_19395" x1="189.083" y1="45.1543" x2="405.678" y2="45.1543" gradientUnits="userSpaceOnUse">
<stop stop-color="#57B2FD"/>
<stop offset="1" stop-color="#497BFD"/>
</linearGradient>
<linearGradient id="paint2_linear_375_19395" x1="159.828" y1="224.956" x2="220.162" y2="224.956" gradientUnits="userSpaceOnUse">
<stop stop-color="#F6A285"/>
<stop offset="1" stop-color="#FC6B58"/>
</linearGradient>
<linearGradient id="paint3_linear_375_19395" x1="100.168" y1="229.004" x2="178.206" y2="229.004" gradientUnits="userSpaceOnUse">
<stop stop-color="#F6A285"/>
<stop offset="1" stop-color="#FC6B58"/>
</linearGradient>
<linearGradient id="paint4_linear_375_19395" x1="195.831" y1="220.845" x2="252.761" y2="220.845" gradientUnits="userSpaceOnUse">
<stop stop-color="#57B2FD"/>
<stop offset="1" stop-color="#497BFD"/>
</linearGradient>
<linearGradient id="paint5_linear_375_19395" x1="192.618" y1="249.418" x2="231.536" y2="249.418" gradientUnits="userSpaceOnUse">
<stop stop-color="#57B2FD"/>
<stop offset="1" stop-color="#497BFD"/>
</linearGradient>
<linearGradient id="paint6_linear_375_19395" x1="148.787" y1="159.599" x2="109.926" y2="149.552" gradientUnits="userSpaceOnUse">
<stop stop-color="#FDE0BB"/>
<stop offset="1" stop-color="#FC6B58"/>
</linearGradient>
<linearGradient id="paint7_linear_375_19395" x1="166.408" y1="134.703" x2="96.4286" y2="129.113" gradientUnits="userSpaceOnUse">
<stop stop-color="#FDE0BB"/>
<stop offset="1" stop-color="#FC6B58"/>
</linearGradient>
<linearGradient id="paint8_linear_375_19395" x1="358.6" y1="191.826" x2="419.225" y2="191.826" gradientUnits="userSpaceOnUse">
<stop stop-color="#8EB6FF"/>
<stop offset="1" stop-color="#9EBBFB"/>
</linearGradient>
</defs>
</svg>
