<svg width="472" height="413" viewBox="0 0 472 413" fill="none" xmlns="http://www.w3.org/2000/svg">
<path d="M33.9119 186.429C33.9119 186.429 20.3195 208.178 31.2136 232.031C34.1249 238.405 38.6438 243.9 44.1363 248.25C52.1419 254.591 68.0507 269.521 67.2412 287.491C68.0523 305.461 52.1419 320.391 44.1363 326.732C38.6438 331.082 34.1249 336.58 31.2136 342.952C20.3195 366.806 33.9119 388.553 33.9119 388.553H114.717C114.717 388.553 128.31 366.804 117.415 342.952C114.504 336.578 109.985 331.082 104.493 326.732C96.4871 320.391 80.5784 305.461 81.3879 287.491C80.5768 269.521 96.4871 254.591 104.493 248.25C109.985 243.9 114.504 238.403 117.415 232.031C128.31 208.177 114.717 186.429 114.717 186.429H33.9119Z" fill="#E0FBFC"/>
<g opacity="0.45">
<path d="M52.1072 251.333C50.7792 250.153 49.534 249.121 48.4336 248.25C42.9508 243.906 38.4205 238.411 35.5109 232.029C24.6249 208.18 38.2189 186.422 38.2189 186.422H42.8305C42.8305 186.422 29.2364 208.18 40.1224 232.029C42.7362 237.752 47.2405 246.467 52.1072 251.333ZM93.2729 320.693C94.601 321.874 95.8461 322.906 96.9466 323.777C102.429 328.12 106.96 333.616 109.869 339.998C120.755 363.847 107.161 385.604 107.161 385.604H102.55C102.55 385.604 116.144 363.847 105.258 339.998C102.644 334.273 98.1381 325.56 93.2729 320.693Z" fill="white"/>
</g>
<path d="M141.05 177.646L135.375 288.795H133.483L127.809 177.646H141.05Z" fill="#8A3D1E"/>
<path d="M141.05 177.646L135.375 288.795H134.426V177.646H141.05Z" fill="#AA5F26"/>
<path d="M127.809 397.338L133.483 286.189H135.375L141.05 397.338H127.809Z" fill="#AA5F26"/>
<path d="M127.809 397.338L133.483 286.189H134.433V397.338H127.809Z" fill="#8A3D1E"/>
<path d="M136.139 295.554H132.716C132.467 295.554 132.266 295.352 132.266 295.103V282.694C132.266 282.446 132.467 282.244 132.716 282.244H136.139C136.388 282.244 136.589 282.446 136.589 282.694V295.102C136.589 295.352 136.388 295.554 136.139 295.554Z" fill="#8A3D1E"/>
<path d="M20.8198 177.647L15.1468 288.796H13.2547L7.58008 177.647H20.8198Z" fill="#AA5F26"/>
<path d="M20.8195 177.647L15.1466 288.796H14.1973V177.647H20.8195Z" fill="#8A3D1E"/>
<path d="M7.58008 397.338L13.2547 286.19H15.1451L20.8198 397.338H7.58008Z" fill="#8A3D1E"/>
<path d="M7.58008 397.338L13.2547 286.19H14.204V397.338H7.58008Z" fill="#AA5F26"/>
<path d="M15.9126 295.555H12.4893C12.2406 295.555 12.0391 295.353 12.0391 295.104V282.695C12.0391 282.447 12.2406 282.245 12.4893 282.245H15.9126C16.1613 282.245 16.3629 282.447 16.3629 282.695V295.103C16.3629 295.353 16.1613 295.555 15.9126 295.555Z" fill="#8A3D1E"/>
<path d="M148.631 165.032V175.716C148.631 176.99 147.586 178.035 146.311 178.035H2.31959C1.03219 178.035 0 176.99 0 175.716V165.032C0 163.757 1.03219 162.712 2.31959 162.712H146.311C147.586 162.712 148.631 163.757 148.631 165.032Z" fill="#672E23"/>
<path d="M121.786 180.349V187.065C121.786 188.344 120.748 189.381 119.469 189.381H29.163C27.8789 189.381 26.8418 188.344 26.8418 187.065V180.349C26.8418 179.064 27.8789 178.032 29.163 178.032H119.469C120.748 178.032 121.786 179.063 121.786 180.349Z" fill="#AA5F26"/>
<path d="M121.786 180.349V183.707H26.8418V180.349C26.8418 179.064 27.8789 178.032 29.163 178.032H119.469C120.748 178.032 121.786 179.063 121.786 180.349Z" fill="#8A3D1E"/>
<path d="M2.31634 396.956H146.308C147.587 396.956 148.624 397.993 148.624 399.272V409.954C148.624 411.233 147.587 412.27 146.308 412.27H2.31634C1.03707 412.27 0 411.233 0 409.954V399.272C0.0016255 397.993 1.03707 396.956 2.31634 396.956Z" fill="#672E23"/>
<path d="M26.8398 394.638V387.921C26.8398 386.642 27.8769 385.605 29.1562 385.605H119.462C120.747 385.605 121.784 386.642 121.784 387.921V394.638C121.784 395.922 120.747 396.954 119.462 396.954H29.1562C27.8769 396.953 26.8398 395.922 26.8398 394.638Z" fill="#AA5F26"/>
<path d="M26.8398 394.638V391.278H121.784V394.637C121.784 395.921 120.747 396.953 119.462 396.953H29.1562C27.8769 396.953 26.8398 395.922 26.8398 394.638Z" fill="#8A3D1E"/>
<path d="M118.393 211.22C118.393 211.22 117.386 234.507 95.3487 253.45C91.6718 256.615 88.1607 259.973 85.0316 263.679C80.5647 268.97 75.5923 276.124 74.3082 282.924C72.2633 274.739 66.6602 267.156 61.0214 261.235C56.101 256.056 51.1513 252.143 48.5359 250.193C45.8734 248.213 43.3798 246.004 41.1757 243.517C37.6646 239.557 36.5625 236.935 36.5625 236.935C50.7515 224.373 73.2256 228.969 73.2256 228.969C94.5213 231.366 117.878 211.657 118.39 211.226C118.393 211.22 118.393 211.22 118.393 211.22Z" fill="#FFB902"/>
<path d="M118.392 211.22C118.392 211.22 117.384 234.507 95.3468 253.45C91.6699 256.615 88.1588 259.973 85.0298 263.679C80.5629 268.97 75.5905 276.124 74.3064 282.924C72.2615 274.739 66.6584 267.156 61.0195 261.235C94.76 252.868 118.016 211.886 118.388 211.226C118.392 211.22 118.392 211.22 118.392 211.22Z" fill="#F2A807"/>
<path d="M118.393 211.22C96.0437 236.304 69.0507 245.843 36.5586 236.933C50.7476 224.372 73.2217 228.967 73.2217 228.967C94.7531 231.395 118.393 211.22 118.393 211.22Z" fill="#F2A807"/>
<path d="M110.833 385.607H35.9742C32.5428 381.839 31.0148 375.74 30.3565 370.39C29.6202 364.478 29.9404 359.478 29.9404 359.478C51.054 365.363 71.6994 366.543 91.6069 360.47C94.4093 359.612 97.1434 358.513 99.6499 356.985C107.358 352.266 110.789 345.805 112.626 338.766C127.402 365.431 110.833 385.607 110.833 385.607Z" fill="#FFB902"/>
<path d="M30.3604 370.39C29.6241 364.478 29.9443 359.478 29.9443 359.478C51.0579 365.363 71.7034 366.543 91.6108 360.47C94.4132 359.612 97.1473 358.513 99.6538 356.985C107.362 352.266 110.793 345.805 112.63 338.766C115.179 374.56 76.718 375.122 30.3604 370.39Z" fill="#F2A807"/>
<path d="M74.3167 306.217C73.3918 300.507 73.3918 294.782 74.3167 289.071C75.2286 294.782 75.2416 300.507 74.3167 306.217ZM74.3167 327.118C73.3918 321.407 73.3918 315.682 74.3167 309.972C75.2286 315.682 75.2416 321.406 74.3167 327.118Z" fill="#FFB902"/>
<path d="M74.3164 309.97C75.2283 315.682 75.2413 321.406 74.3164 327.116V309.97ZM74.3164 306.217V289.071C75.2283 294.782 75.2413 300.507 74.3164 306.217Z" fill="#F2A807"/>
<path d="M356.68 186.429C356.68 186.429 343.087 208.178 353.981 232.031C356.892 238.405 361.411 243.9 366.904 248.25C374.909 254.591 390.818 269.521 390.009 287.491C390.82 305.461 374.909 320.391 366.904 326.732C361.413 331.082 356.892 336.58 353.981 342.952C343.087 366.806 356.68 388.553 356.68 388.553H437.485C437.485 388.553 451.077 366.804 440.183 342.952C437.272 336.578 432.753 331.082 427.26 326.732C419.255 320.391 403.346 305.461 404.155 287.491C403.344 269.521 419.255 254.591 427.26 248.25C432.753 243.9 437.272 238.403 440.183 232.031C451.077 208.177 437.485 186.429 437.485 186.429H356.68Z" fill="#E0FBFC"/>
<g opacity="0.45">
<path d="M374.875 251.334C373.547 250.154 372.302 249.122 371.201 248.25C365.718 243.907 361.188 238.411 358.278 232.029C347.392 208.18 360.987 186.423 360.987 186.423H365.598C365.598 186.423 352.004 208.18 362.89 232.029C365.504 237.753 370.008 246.467 374.875 251.334ZM416.041 320.694C417.369 321.874 418.614 322.906 419.714 323.777C425.197 328.121 429.727 333.617 432.637 339.998C443.523 363.848 429.929 385.605 429.929 385.605H425.317C425.317 385.605 438.911 363.848 428.025 339.998C425.412 334.273 420.906 325.561 416.041 320.694Z" fill="white"/>
</g>
<path d="M463.816 177.647L458.141 288.795H456.249L450.574 177.647H463.816Z" fill="#8A3D1E"/>
<path d="M463.817 177.647L458.143 288.795H457.193V177.647H463.817Z" fill="#AA5F26"/>
<path d="M450.574 397.338L456.249 286.19H458.141L463.816 397.338H450.574Z" fill="#AA5F26"/>
<path d="M450.574 397.338L456.249 286.19H457.198V397.338H450.574Z" fill="#8A3D1E"/>
<path d="M458.907 295.554H455.483C455.235 295.554 455.033 295.353 455.033 295.104V282.695C455.033 282.446 455.235 282.245 455.483 282.245H458.907C459.155 282.245 459.357 282.446 459.357 282.695V295.102C459.357 295.353 459.155 295.554 458.907 295.554Z" fill="#8A3D1E"/>
<path d="M343.587 177.646L337.912 288.795H336.02L330.346 177.646H343.587Z" fill="#AA5F26"/>
<path d="M343.587 177.646L337.912 288.795H336.963V177.646H343.587Z" fill="#8A3D1E"/>
<path d="M330.346 397.338L336.02 286.189H337.912L343.587 397.338H330.346Z" fill="#8A3D1E"/>
<path d="M330.346 397.338L336.02 286.189H336.97V397.338H330.346Z" fill="#AA5F26"/>
<path d="M338.678 295.554H335.255C335.006 295.554 334.805 295.352 334.805 295.103V282.694C334.805 282.446 335.006 282.244 335.255 282.244H338.678C338.927 282.244 339.129 282.446 339.129 282.694V295.102C339.129 295.352 338.927 295.554 338.678 295.554Z" fill="#8A3D1E"/>
<path d="M471.4 165.032V175.716C471.4 176.99 470.355 178.035 469.081 178.035H325.089C323.802 178.035 322.77 176.99 322.77 175.716V165.032C322.77 163.757 323.802 162.712 325.089 162.712H469.081C470.355 162.712 471.4 163.757 471.4 165.032Z" fill="#672E23"/>
<path d="M444.553 180.349V187.065C444.553 188.344 443.516 189.381 442.237 189.381H351.931C350.646 189.381 349.609 188.344 349.609 187.065V180.349C349.609 179.064 350.646 178.032 351.931 178.032H442.237C443.516 178.032 444.553 179.063 444.553 180.349Z" fill="#AA5F26"/>
<path d="M444.553 180.349V183.707H349.609V180.349C349.609 179.064 350.646 178.032 351.931 178.032H442.237C443.516 178.032 444.553 179.063 444.553 180.349Z" fill="#8A3D1E"/>
<path d="M325.088 396.957H469.079C470.359 396.957 471.396 397.994 471.396 399.273V409.954C471.396 411.233 470.359 412.27 469.079 412.27H325.088C323.809 412.27 322.771 411.233 322.771 409.954V399.273C322.771 397.994 323.809 396.957 325.088 396.957Z" fill="#672E23"/>
<path d="M349.611 394.638V387.922C349.611 386.643 350.648 385.605 351.928 385.605H442.234C443.518 385.605 444.555 386.643 444.555 387.922V394.638C444.555 395.922 443.518 396.955 442.234 396.955H351.926C350.648 396.953 349.611 395.922 349.611 394.638Z" fill="#AA5F26"/>
<path d="M349.611 394.639V391.279H444.555V394.637C444.555 395.921 443.518 396.953 442.234 396.953H351.926C350.648 396.953 349.611 395.923 349.611 394.639Z" fill="#8A3D1E"/>
<path d="M441.161 211.22C441.161 211.22 440.153 234.507 418.116 253.451C414.439 256.616 410.928 259.974 407.799 263.68C403.332 268.971 398.36 276.125 397.076 282.924C395.031 274.74 389.428 267.157 383.789 261.235C378.869 256.056 373.919 252.144 371.303 250.193C368.639 248.213 366.147 246.004 363.943 243.517C360.432 239.558 359.33 236.936 359.33 236.936C373.519 224.374 395.993 228.969 395.993 228.969C417.289 231.367 440.646 211.657 441.158 211.227C441.161 211.22 441.161 211.22 441.161 211.22Z" fill="#FFB902"/>
<path d="M441.161 211.22C441.161 211.22 440.153 234.507 418.116 253.451C414.439 256.616 410.928 259.974 407.799 263.68C403.332 268.971 398.36 276.125 397.076 282.924C395.031 274.74 389.428 267.157 383.789 261.235C417.53 252.869 440.786 211.887 441.158 211.227C441.161 211.22 441.161 211.22 441.161 211.22Z" fill="#F2A807"/>
<path d="M441.162 211.22C418.813 236.305 391.82 245.843 359.328 236.934C373.517 224.372 395.991 228.967 395.991 228.967C417.521 231.396 441.162 211.22 441.162 211.22Z" fill="#F2A807"/>
<path d="M433.601 385.607H358.742C355.31 381.84 353.782 375.741 353.124 370.391C352.388 364.479 352.708 359.479 352.708 359.479C373.822 365.364 394.467 366.544 414.374 360.471C417.177 359.612 419.911 358.514 422.417 356.986C430.126 352.267 433.557 345.805 435.394 338.767C450.17 365.432 433.601 385.607 433.601 385.607Z" fill="#FFB902"/>
<path d="M353.126 370.39C352.39 364.478 352.71 359.478 352.71 359.478C373.824 365.363 394.469 366.543 414.376 360.47C417.179 359.612 419.913 358.513 422.419 356.985C430.128 352.266 433.559 345.805 435.396 338.766C437.945 374.56 399.484 375.122 353.126 370.39Z" fill="#F2A807"/>
<path d="M397.084 306.217C396.159 300.507 396.159 294.782 397.084 289.071C397.995 294.782 398.009 300.507 397.084 306.217ZM397.084 327.118C396.159 321.407 396.159 315.682 397.084 309.972C397.995 315.682 398.009 321.406 397.084 327.118Z" fill="#FFB902"/>
<path d="M397.084 309.97C397.996 315.682 398.009 321.406 397.084 327.116V309.97ZM397.084 306.217V289.071C397.994 294.782 398.009 300.507 397.084 306.217Z" fill="#F2A807"/>
<path d="M207.477 112.198L207.273 117.711L211.533 117.869L211.736 112.356L207.477 112.198Z" fill="#FEB582"/>
<path d="M211.915 115.384C211.915 115.384 217.304 118.859 217.611 119.134C217.946 119.434 217.91 119.628 217.892 119.787C217.839 120.28 217.418 120.701 216.872 120.706L206.979 120.652C206.906 120.652 206.844 120.598 206.834 120.527C206.789 120.241 206.754 119.974 206.728 119.724C206.537 117.884 206.839 116.013 207.112 115.41C207.141 115.346 207.231 115.348 207.26 115.411C208.087 117.269 210.771 117.126 211.608 115.493C211.665 115.38 211.8 115.332 211.915 115.384Z" fill="#293241"/>
<path d="M217.892 119.789C217.839 120.282 217.418 120.703 216.872 120.707L206.979 120.654C206.906 120.654 206.844 120.6 206.834 120.529C206.789 120.242 206.755 119.976 206.729 119.726L217.892 119.789Z" fill="#1C232D"/>
<path d="M203.234 60.4927L217.723 71.8923C219.468 73.0025 220.407 75.0246 220.132 77.0728L214.016 114.204L206.738 114.126L210.54 81.4649C210.63 80.878 210.358 80.2945 209.851 79.984L191.137 67.2596L203.234 60.4927Z" fill="#293241"/>
<path d="M207.012 120.984L196.277 128.77L197.636 130.644L208.371 122.858L207.012 120.984Z" fill="#2896E8"/>
<path d="M207.976 122.302L208.377 122.858L197.646 130.641L196.285 128.77L196.687 128.477L197.646 129.795L207.976 122.302Z" fill="#1D8BCE"/>
<path d="M213.37 120.681H201.154V123.061H213.37V120.681Z" fill="#2896E8"/>
<path d="M213.37 120.681H201.156V121.483H213.37V120.681Z" fill="#1D8BCE"/>
<path d="M196.985 103.354C182.326 103.354 170.445 115.234 170.445 129.891C170.445 144.55 182.326 156.431 196.985 156.431C211.64 156.431 223.523 144.55 223.523 129.891C223.521 115.234 211.64 103.354 196.985 103.354ZM197.051 151.099C185.323 151.099 175.819 141.595 175.819 129.867C175.819 118.142 185.323 108.635 197.051 108.635C208.776 108.635 218.284 118.142 218.284 129.867C218.282 141.595 208.776 151.099 197.051 151.099Z" fill="#2896E8"/>
<path d="M197.466 156.424C197.307 156.431 197.144 156.431 196.987 156.431C182.328 156.431 170.447 144.55 170.447 129.891C170.447 115.236 182.328 103.354 196.987 103.354C197.146 103.354 197.309 103.354 197.466 103.36C183.03 103.615 171.406 115.395 171.406 129.891C171.406 144.389 183.03 156.169 197.466 156.424Z" fill="#38ABF2"/>
<path d="M223.522 129.89C223.522 144.415 211.854 156.216 197.381 156.424C211.365 155.675 222.474 144.1 222.474 129.926C222.474 115.27 210.593 103.388 195.936 103.388C195.802 103.388 195.672 103.388 195.539 103.394C196.017 103.365 196.5 103.354 196.983 103.354C211.641 103.352 223.522 115.234 223.522 129.89Z" fill="#1D8BCE"/>
<path d="M196.895 107.57H196.605V152.215H196.895V107.57Z" fill="#293241"/>
<path d="M189.303 108.896L189.031 108.995L204.3 150.947L204.572 150.848L189.303 108.896Z" fill="#293241"/>
<path d="M182.614 112.725L182.393 112.911L211.09 147.108L211.311 146.922L182.614 112.725Z" fill="#293241"/>
<path d="M177.651 118.63L177.506 118.881L216.168 141.202L216.312 140.952L177.651 118.63Z" fill="#293241"/>
<path d="M175.017 125.865L174.967 126.15L218.932 133.905L218.983 133.62L175.017 125.865Z" fill="#293241"/>
<path d="M218.972 125.801L175.006 133.564L175.056 133.849L219.022 126.085L218.972 125.801Z" fill="#293241"/>
<path d="M216.255 118.48L177.602 140.815L177.746 141.066L216.4 118.73L216.255 118.48Z" fill="#293241"/>
<path d="M211.238 112.517L182.541 146.714L182.763 146.9L211.46 112.703L211.238 112.517Z" fill="#293241"/>
<path d="M204.473 108.648L189.209 150.6L189.481 150.699L204.744 108.747L204.473 108.648Z" fill="#293241"/>
<path d="M196.985 107.95C184.867 107.95 175.039 117.771 175.039 129.89C175.039 142.011 184.865 151.835 196.985 151.835C209.1 151.835 218.924 142.011 218.924 129.89C218.924 117.771 209.101 107.95 196.985 107.95ZM196.985 150.724C185.476 150.724 176.151 141.398 176.151 129.89C176.151 118.384 185.476 109.056 196.985 109.056C208.49 109.056 217.819 118.384 217.819 129.89C217.819 141.398 208.49 150.724 196.985 150.724Z" fill="#EAEAEA"/>
<path d="M196.985 106.492C184.062 106.492 173.584 116.967 173.584 129.89C173.584 142.816 184.062 153.29 196.985 153.29C209.907 153.29 220.382 142.816 220.382 129.89C220.384 116.967 209.907 106.492 196.985 106.492ZM196.985 151.834C184.867 151.834 175.039 142.009 175.039 129.888C175.039 117.77 184.865 107.949 196.985 107.949C209.099 107.949 218.924 117.77 218.924 129.888C218.924 142.011 209.101 151.834 196.985 151.834Z" fill="#DBDBDC"/>
<path d="M197.698 78.1338H194.939V89.7285H197.698V78.1338Z" fill="#EAEAEA"/>
<path d="M196.357 78.1338H194.939V89.7285H196.357V78.1338Z" fill="#DBDBDC"/>
<path d="M198.206 89.5493H194.625V129.202H198.206V89.5493Z" fill="#385575"/>
<path d="M195.617 89.5493H194.625V129.202H195.617V89.5493Z" fill="#405E7A"/>
<path d="M198.206 89.5493H197.035V129.202H198.206V89.5493Z" fill="#3D5A80"/>
<path d="M198.877 87.3974C199.135 87.516 199.277 87.8005 199.264 88.0833L199.215 89.1773C199.179 89.9299 198.558 90.5232 197.806 90.5232H194.852C194.1 90.5232 193.479 89.9299 193.446 89.1773L193.397 88.0833C193.384 87.7989 193.526 87.516 193.784 87.3974C193.878 87.3535 193.984 87.3291 194.096 87.3291H198.565C198.675 87.3291 198.783 87.3535 198.877 87.3974Z" fill="#3D5A80"/>
<path d="M199.265 88.0849L199.216 89.1789C199.179 89.9315 198.56 90.5248 197.807 90.5248H194.852C194.34 90.5248 193.891 90.2501 193.643 89.8388C193.895 90.068 194.224 90.203 194.585 90.203H197.541C198.293 90.203 198.912 89.6096 198.95 88.857L198.999 87.7631C199.005 87.6509 198.984 87.5371 198.94 87.4331C199.158 87.5664 199.277 87.8249 199.265 88.0849Z" fill="#385575"/>
<path d="M205.23 78.8783H191.761C190.564 78.8783 189.366 78.7108 188.237 78.3207C187.487 78.0623 186.775 77.7404 186.161 77.3227C184.298 76.0596 183.726 73.4914 184.921 71.583C185.865 70.0762 187.674 69.6145 190.142 70.0713C190.982 70.2274 191.78 70.546 192.543 70.9344C195.473 72.4283 201.132 73.0135 207.611 73.9124C208.576 74.0473 209.433 74.6731 209.763 75.5915C210.187 76.7684 209.558 77.6234 208.201 78.2541C207.273 78.6848 206.252 78.8783 205.23 78.8783Z" fill="#3D5A80"/>
<path d="M208.2 78.2526C207.274 78.6834 206.253 78.8784 205.229 78.8784H191.762C190.564 78.8784 189.366 78.711 188.234 78.3193C187.485 78.0624 186.776 77.7373 186.16 77.3212C184.653 76.3004 183.99 74.4213 184.427 72.7324C184.523 73.9889 185.172 75.1983 186.277 75.9477C186.893 76.3638 187.605 76.6856 188.355 76.9425C189.486 77.3358 190.681 77.5016 191.879 77.5016H205.346C206.37 77.5016 207.392 77.3098 208.321 76.8791C209.026 76.5491 209.536 76.1622 209.8 75.699C210.148 76.8206 209.519 77.6447 208.2 78.2526Z" fill="#385575"/>
<path d="M197.148 127.303L185.279 133.218L186.312 135.29L198.18 129.375L197.148 127.303Z" fill="#2896E8"/>
<path d="M197.137 127.303L197.49 128.012L185.63 133.921L186.311 135.286L186.302 135.289L185.27 133.218L197.137 127.303Z" fill="#1D8BCE"/>
<path d="M181.781 128.339L180.158 130.08L189.093 138.41L190.716 136.67L181.781 128.339Z" fill="#2896E8"/>
<path d="M181.776 128.342L181.799 128.365L180.846 129.385L189.759 137.692L189.086 138.412L180.152 130.081L181.776 128.342Z" fill="#1D8BCE"/>
<path d="M196.456 133.617C198.664 133.617 200.454 131.826 200.454 129.618C200.454 127.409 198.664 125.619 196.456 125.619C194.247 125.619 192.457 127.409 192.457 129.618C192.457 131.826 194.247 133.617 196.456 133.617Z" fill="#385575"/>
<path d="M198.423 131.592C199.512 130.502 199.512 128.734 198.422 127.645C197.333 126.555 195.565 126.555 194.475 127.645C193.386 128.735 193.386 130.502 194.476 131.592C195.565 132.682 197.333 132.682 198.423 131.592Z" fill="white"/>
<path d="M188.642 123.256L184.76 127.176L187.788 130.175L191.67 126.255L188.642 123.256Z" fill="#FEB582"/>
<path d="M189.748 128.598C189.748 128.598 191.362 134.804 191.401 135.213C191.443 135.66 191.287 135.779 191.165 135.885C190.793 136.211 190.198 136.236 189.792 135.87L182.547 129.134C182.493 129.085 182.485 129.004 182.524 128.944C182.684 128.703 182.84 128.482 182.989 128.282C184.095 126.798 185.584 125.625 186.193 125.366C186.258 125.338 186.323 125.4 186.3 125.469C185.652 127.396 187.724 129.106 189.446 128.472C189.564 128.425 189.698 128.481 189.748 128.598Z" fill="#293241"/>
<path d="M191.164 135.885C190.791 136.211 190.196 136.236 189.79 135.87L182.545 129.134C182.491 129.085 182.483 129.004 182.522 128.944C182.682 128.703 182.838 128.482 182.987 128.282L191.164 135.885Z" fill="#1C232D"/>
<path d="M202.86 99.2328C202.933 99.3384 203 99.4522 203.055 99.5693C203.415 100.333 203.579 100.886 203.133 101.552L186.314 123.16L191.789 127.937L214.4 103.277C216.498 101.084 216.498 97.6268 214.4 95.434L200.505 73.098L189.664 56.9194L181.241 66.2596L181.074 67.8574C180.9 69.5024 181.08 71.1653 181.623 72.7274C182.828 76.1946 186.062 81.8676 194.741 87.1358C195.076 87.339 195.367 87.6072 195.588 87.9291L202.86 99.2328Z" fill="#293241"/>
<path d="M241.552 54.4356C241.892 54.6664 241.983 55.1281 241.752 55.4727C241.629 55.6547 241.437 55.7653 241.234 55.7929C241.061 55.8156 240.878 55.7815 240.718 55.6726L240.777 55.7132C241.164 55.9733 241.263 56.4951 241.006 56.8771C240.868 57.0819 240.655 57.2087 240.422 57.2412C240.229 57.2672 240.023 57.225 239.845 57.1047L239.509 56.8804C239.831 57.1534 239.902 57.6313 239.663 57.9873C239.524 58.1954 239.307 58.3205 239.08 58.3514C238.883 58.3774 238.677 58.3352 238.499 58.2165L238.272 58.0653C238.636 58.3075 238.73 58.8017 238.488 59.1609C238.356 59.3576 238.152 59.4763 237.937 59.5055H237.934C237.747 59.5315 237.555 59.4893 237.389 59.3755L233.745 56.9226L232.072 55.1898L235.338 50.2061C235.809 50.3881 236.541 50.4921 237.298 50.5442C238.355 50.6157 239.465 50.5832 239.998 50.5214C240.541 50.4856 241.048 50.4141 241.32 50.7311C241.411 50.8351 241.473 50.9522 241.512 51.0773C241.659 51.5666 241.331 52.0754 240.837 52.2168L238.719 52.5305L241.552 54.4356Z" fill="#FEB582"/>
<path d="M171.573 74.4292L161.732 89.6715C160.926 90.9199 159.261 91.2792 158.013 90.4729L137.392 77.1601C136.144 76.3538 135.784 74.6893 136.591 73.4409L146.431 58.1986C146.789 57.646 147.527 57.4867 148.08 57.8426L171.217 72.7794C171.771 73.137 171.931 73.8749 171.573 74.4292Z" fill="#AA5F26"/>
<path d="M171.572 74.4294L166.702 81.9733C165.987 83.0819 164.508 83.4005 163.399 82.6837L142.271 69.0441C141.163 68.3289 140.844 66.8513 141.561 65.7411L146.431 58.1972C146.788 57.6445 147.526 57.4852 148.079 57.8412L171.216 72.7779C171.771 73.1371 171.93 73.8751 171.572 74.4294Z" fill="#8A3D1E"/>
<path d="M171.572 74.4294L167.053 81.4288C166.338 82.5374 164.858 82.8543 163.751 82.1391L142.623 68.4979C141.515 67.7827 141.196 66.3035 141.911 65.1966L146.43 58.1972C146.788 57.6445 147.526 57.4852 148.078 57.8412L171.216 72.7779C171.77 73.1371 171.929 73.8751 171.572 74.4294Z" fill="#AA5F26"/>
<path d="M144.722 73.4683C144.101 73.0668 143.922 72.2378 144.324 71.6168L146.268 68.6048C146.354 68.4699 146.534 68.4309 146.669 68.5186L148.431 69.6565C148.566 69.7426 148.605 69.9231 148.518 70.058L146.574 73.0684C146.174 73.6926 145.343 73.8714 144.722 73.4683Z" fill="#8A3D1E"/>
<path d="M145.019 73.0103C144.398 72.6088 144.219 71.7798 144.621 71.1588L146.565 68.1468C146.653 68.0118 146.831 67.9728 146.966 68.0606L148.728 69.1985C148.863 69.2862 148.902 69.465 148.814 69.6L146.87 72.6104C146.471 73.233 145.642 73.4118 145.019 73.0103Z" fill="#672E23"/>
<path d="M146.17 71.7033L145.962 72.3519L145.23 71.8805L145.736 71.4238C145.668 71.2758 145.674 71.0987 145.769 70.9524C145.915 70.7264 146.216 70.6614 146.441 70.8077C146.667 70.954 146.732 71.2547 146.586 71.4806C146.492 71.6269 146.333 71.7066 146.17 71.7033Z" fill="white"/>
<path d="M158.412 82.3065C157.791 81.905 157.612 81.076 158.013 80.455L159.957 77.4446C160.045 77.3097 160.224 77.2707 160.359 77.3585L162.121 78.4963C162.256 78.5825 162.295 78.7629 162.207 78.8978L160.263 81.9099C159.861 82.5292 159.032 82.708 158.412 82.3065Z" fill="#8A3D1E"/>
<path d="M158.706 81.8482C158.085 81.4467 157.907 80.6177 158.308 79.9967L160.252 76.9847C160.338 76.8497 160.519 76.8107 160.654 76.8985L162.416 78.0364C162.551 78.1241 162.59 78.3029 162.502 78.4379L160.558 81.4499C160.158 82.0708 159.329 82.2497 158.706 81.8482Z" fill="#672E23"/>
<path d="M159.858 80.5412L159.649 81.1898L158.918 80.7184L159.422 80.2616C159.354 80.1137 159.36 79.9365 159.454 79.7902C159.601 79.5643 159.901 79.4993 160.127 79.6456C160.353 79.7919 160.418 80.0926 160.272 80.3185C160.179 80.4648 160.02 80.5429 159.858 80.5412Z" fill="white"/>
<path d="M156.845 75.6245L151.343 72.0728C151.273 72.0273 151.252 71.933 151.298 71.8631L152.322 70.2766C152.367 70.2067 152.461 70.1856 152.531 70.2311L158.034 73.7828C158.103 73.8283 158.125 73.9226 158.079 73.9925L157.055 75.579C157.01 75.6489 156.915 75.67 156.845 75.6245Z" fill="#F2A807"/>
<path d="M158.079 73.9923L157.631 74.688C157.676 74.6181 157.655 74.5238 157.585 74.4783L152.083 70.9266C152.011 70.8811 151.919 70.9006 151.873 70.9721L152.322 70.278C152.367 70.2065 152.461 70.187 152.531 70.2325L158.034 73.7842C158.105 73.8281 158.125 73.9224 158.079 73.9923Z" fill="#FFB902"/>
<path d="M153.066 62.2635L152.178 63.6401L154.123 64.8954L155.011 63.5187L153.066 62.2635Z" fill="#672E23"/>
<path d="M163.106 68.7616L162.217 70.1382L164.161 71.3937L165.05 70.0171L163.106 68.7616Z" fill="#672E23"/>
<path d="M162.675 65.7254L157.07 62.1021L156.189 61.5349C155.942 61.3804 155.62 61.452 155.464 61.6925L154.344 63.4269C154.181 63.6789 153.845 63.752 153.593 63.5895C153.341 63.4269 153.268 63.0905 153.43 62.8385L154.55 61.1057C155.033 60.3612 156.028 60.1434 156.777 60.6246L157.621 61.1707L163.226 64.794L163.759 65.137L164.017 66.3918C164.058 66.5073 164.116 66.6064 164.189 66.7039L162.675 65.7254ZM165.505 68.1815L164.391 69.9127C164.228 70.1646 163.892 70.2378 163.64 70.0752C163.388 69.9127 163.317 69.5762 163.479 69.3242L164.599 67.5898C164.723 67.3964 164.698 67.1542 164.573 66.9852C164.781 67.0778 165.017 67.0973 165.243 67.016C165.371 66.9656 165.488 66.8974 165.594 66.795C165.618 66.7771 165.635 66.7527 165.649 66.7234C165.833 67.1916 165.794 67.7329 165.505 68.1815Z" fill="#853D2C"/>
<path d="M165.649 66.7258C165.635 66.7567 165.618 66.7794 165.594 66.7973C165.488 66.8981 165.371 66.9664 165.243 67.0184C165.019 67.0997 164.781 67.0802 164.573 66.9875C164.537 66.9387 164.495 66.8981 164.442 66.8607L164.194 66.6998C164.123 66.6023 164.064 66.5047 164.022 66.3877L163.764 65.1328L165.033 65.9521C165.324 66.139 165.539 66.4153 165.649 66.7258Z" fill="#853D2C"/>
<path d="M165.771 60.5704C165.614 61.0645 165.545 61.8285 165.542 62.6169C165.534 63.7206 165.63 64.8666 165.728 65.4095C165.788 65.9329 165.888 66.4205 165.648 66.7245C165.537 66.4157 165.324 66.1393 165.03 65.9524L163.761 65.1332L163.567 64.2099L163.228 64.7918L162.676 65.7248L162.021 66.8416L157.797 64.1156L157.795 64.1091L156.41 63.2216L157.072 62.1032L157.623 61.1702L158.497 59.7007C158.644 59.4553 158.814 59.2261 159.008 59.0148L160.412 57.4868L165.771 60.5704Z" fill="#FEB582"/>
<path d="M211.686 24.4713L210.558 36.1992C208.951 36.2789 206.493 46.6284 207.301 63.4767C196.743 65.1055 189.116 70.8402 179.035 67.7225C179.035 67.7225 181.795 56.2579 181.241 39.104C181.2 37.828 181.216 36.552 181.286 35.2776L173.52 41.513L166.094 60.8613L159.625 57.7761C159.625 57.7761 165.643 37.407 167.553 35.9424L180.869 23.0294C182.153 22.1354 183.616 21.5324 185.155 21.2625L189.869 20.4335L191.314 20.1799C191.772 20.1182 192.229 20.0694 192.689 20.0288C195.196 19.8093 197.72 19.9312 200.196 20.3766C200.955 20.5164 201.709 20.6838 202.457 20.8805L202.488 20.8952L208.455 22.7661C209.632 23.1367 210.723 23.7154 211.686 24.4713Z" fill="#2896E8"/>
<path d="M191.107 13.5336C191.107 13.5336 191.41 15.3054 192.164 16.1344L192.068 13.9238L191.35 12.8672L191.107 13.5336Z" fill="#222824"/>
<path d="M191.517 11.3597C191.517 11.3597 191.156 14.8041 192.838 17.5024C193.87 19.1588 195.761 20.0138 197.705 19.8448C201.739 19.4937 203.692 15.7501 202.1 6.76925L195.075 3.66455L190.465 6.47504L191.517 11.3597Z" fill="#FEB582"/>
<path d="M192.678 16.7471L192.72 21.2156C192.738 23.2117 194.316 24.8437 196.311 24.9298C198.52 25.0257 200.332 23.2003 200.222 20.9929L200.064 17.8345L192.678 16.7471Z" fill="#FEB582"/>
<path d="M191.474 11.742C191.474 11.742 192.3 11.0804 191.95 9.6906C193.423 8.95263 194.07 7.70912 193.133 5.50007C193.133 5.50007 200.172 9.12331 203.545 7.25398C203.545 7.25398 205.126 6.21692 203.943 4.56866C203.722 2.53679 203.033 1.13398 201.401 0.994188L199.375 1.43145C199.375 1.43145 196.501 -0.762976 194.07 0.282219C194.07 0.282219 190.629 1.3713 190.107 3.09758C190.107 3.09758 187.449 3.32353 188.247 6.45261L189.956 10.8024L190.201 12.0167L191.474 11.742Z" fill="#222824"/>
<path d="M192.189 11.937C192.387 12.8538 191.989 13.7186 191.3 13.8665C190.61 14.0144 189.892 13.3919 189.694 12.4751C189.495 11.5583 189.893 10.6935 190.583 10.5456C191.272 10.3961 191.99 11.0186 192.189 11.937Z" fill="#FEB582"/>
<path d="M202.49 20.8947L199.543 25.2137L197.257 24.7829L200.187 20.3729C200.946 20.5111 201.706 20.685 202.456 20.885L202.49 20.8947ZM195.528 24.8479L193.281 25.4494L189.871 20.4347L191.315 20.1811C191.771 20.1193 192.248 20.0673 192.706 20.0283L195.528 24.8479Z" fill="#1D8BCE"/>
<path d="M198.143 24.5847L196.595 25.8949L194.955 24.705L196.501 23.3965L198.143 24.5847Z" fill="white"/>
<path d="M195.366 24.826C195.366 24.826 195.156 42.383 191.949 49.0524L194.935 54.0915L198.888 49.675C198.888 49.675 197.957 25.6712 197.658 24.8081L195.366 24.826Z" fill="white"/>
<path d="M236.147 50.0175L232.048 56.1359C232.048 56.1359 215.988 46.6836 215.043 44.4616L205.559 28.639L211.685 24.4663C215.759 28.1091 223.2 40.1036 223.2 40.1036L236.147 50.0175Z" fill="#2896E8"/>
<path d="M329.066 156.413H142.332V162.712H329.066V156.413Z" fill="#293241"/>
</svg>
