<svg width="565" height="461" viewBox="0 0 565 461" fill="none" xmlns="http://www.w3.org/2000/svg">
<path d="M15.5547 171.304C15.5547 136.946 42.9552 109.091 76.7533 109.091H89.5176C83.547 103.838 79.7625 96.0805 79.7625 87.4218C79.7625 71.597 92.3834 58.7677 107.952 58.7677H150.44C146.143 55.0071 143.41 49.4498 143.41 43.2333C143.41 31.9103 152.441 22.729 163.58 22.729H270.265C281.403 22.729 290.434 31.9103 290.434 43.2333C290.434 54.5562 281.403 63.7375 270.265 63.7375H230.322C222.882 68.8952 217.998 77.5778 217.998 87.4218C217.998 96.0805 221.783 103.834 227.753 109.091H293.45C327.248 109.091 354.649 136.942 354.649 171.304C354.649 205.662 327.248 233.517 293.45 233.517H380.485C396.053 233.517 408.674 246.346 408.674 262.171C408.674 277.996 396.053 290.825 380.485 290.825H415.946C454.69 290.825 486.852 319.38 493.236 356.911H505.656C529.815 356.911 549.397 376.821 549.397 401.377V405.882C549.397 430.44 529.811 450.347 505.656 450.347H415.946H122.356H94.0195C50.6849 450.347 15.5581 414.636 15.5581 370.584C15.5581 326.532 50.6883 290.822 94.0195 290.822H231.381C215.812 290.822 203.191 277.992 203.191 262.167C203.191 246.343 215.812 233.513 231.381 233.513H76.7533C42.9552 233.513 15.5547 205.662 15.5547 171.304Z" fill="#CDF1FC"/>
<path d="M351.305 65.3808C363.412 65.3808 373.226 55.4652 373.226 43.2336C373.226 31.0021 363.412 21.0864 351.305 21.0864C339.198 21.0864 329.383 31.0021 329.383 43.2336C329.383 55.4652 339.198 65.3808 351.305 65.3808Z" fill="#E0F7FC"/>
<path d="M282.476 460.058C438.483 460.058 564.952 454.987 564.952 448.732C564.952 442.476 438.483 437.405 282.476 437.405C126.469 437.405 0 442.476 0 448.732C0 454.987 126.469 460.058 282.476 460.058Z" fill="#9CDAE5"/>
<path d="M453.548 231.871C453.469 232.12 453.059 233.247 452.024 233.972C451.994 233.992 451.953 233.992 451.922 233.968C451.608 233.712 449.872 232.315 449.439 232.284C448.961 232.254 446.891 232.141 447.044 231.567C447.174 231.085 448.482 230.71 448.896 230.604C448.954 230.59 448.978 230.518 448.94 230.471C448.595 230.05 447.246 228.421 446.655 227.892C445.972 227.28 445.692 226.87 446.088 226.672C446.481 226.474 449.268 227.892 453.524 231.786C453.548 231.806 453.558 231.84 453.548 231.871Z" fill="#F5C1CA"/>
<path d="M453.339 231.174C453.479 231.03 453.704 231.017 453.858 231.143C455.286 232.301 457.82 234.224 461.017 236.086C462.055 236.69 463.162 237.291 464.324 237.855C464.385 237.886 465.707 238.658 465.768 238.678C466.817 239.023 468.75 238.828 469.488 236.574C470.499 233.479 471.295 226.457 473.682 224.476C473.775 224.401 474.249 225.19 474.328 225.278C474.543 225.518 474.758 225.767 474.974 226.026C476.449 227.809 476.903 230.228 476.169 232.424C474.731 236.735 471.869 244.027 468.429 246.076C468.429 246.076 467.739 246.763 466.342 246.384C466.26 246.363 466.106 246.394 465.837 246.237C465.837 246.237 463.579 244.942 461.369 243.211C460.563 242.572 459.695 241.875 458.804 241.148C455.87 238.746 452.867 236.185 450.958 234.091C450.818 233.937 450.821 233.701 450.968 233.551L453.339 231.174Z" fill="#DD458E"/>
<path d="M450.977 233.555L451.974 232.547L451.035 233.654C450.898 233.814 450.915 234.05 451.065 234.193C453.128 236.137 456.322 238.46 459.43 240.625C460.373 241.284 461.292 241.909 462.146 242.487C464.482 244.044 466.832 245.158 466.832 245.158C467.112 245.294 467.266 245.25 467.348 245.267C468.769 245.54 469.278 244.143 469.278 244.143C471.973 240.847 474.965 235.003 476.068 230.593C476.249 229.862 476.293 229.121 476.232 228.394C476.618 229.695 476.618 231.102 476.174 232.427C474.736 236.738 471.874 244.031 468.434 246.08C468.434 246.08 467.744 246.766 466.347 246.387C466.265 246.367 466.111 246.398 465.842 246.24C465.842 246.24 463.584 244.946 461.374 243.214C460.568 242.575 459.7 241.879 458.809 241.151C455.875 238.75 452.872 236.188 450.963 234.094C450.826 233.941 450.83 233.705 450.977 233.555Z" fill="#DD458E"/>
<path d="M422.432 187.402C421.977 188.915 421.39 190.35 420.693 191.706L465.872 205.256L456.592 194.476L423.128 184.44C422.958 185.428 422.729 186.418 422.432 187.402ZM428.641 287.689C428.395 287.624 428.149 287.563 427.907 287.488C425.553 286.781 423.381 285.763 421.421 284.496C424.215 290.644 429.444 295.648 436.282 297.977L437.922 298.469L428.641 287.689ZM300.256 255.961C297.715 256.006 295.123 255.664 292.558 254.895C291.154 254.475 289.811 253.939 288.541 253.307L277.211 291.088L286.491 301.868L300.256 255.961Z" fill="#0590E5"/>
<path d="M275.597 223.396C279.611 210.013 293.714 202.417 307.097 206.43C309.662 207.199 312.012 208.343 314.109 209.778L327.878 163.871L373.057 177.421C373.221 175.905 373.521 174.381 373.975 172.868C377.989 159.485 392.092 151.889 405.475 155.902C409.099 156.989 412.299 158.819 414.957 161.169L410.492 156.131C407.357 151.011 402.397 146.981 396.194 145.123C382.812 141.109 368.708 148.706 364.695 162.088C364.241 163.601 363.944 165.125 363.776 166.641L318.597 153.091L304.829 199.001C302.728 197.567 300.378 196.426 297.813 195.654C284.43 191.641 270.327 199.237 266.313 212.62C263.929 220.564 265.641 228.765 270.224 234.958C271.218 236.3 272.349 237.551 273.603 238.681L278.111 243.648C274.6 237.762 273.473 230.477 275.597 223.396ZM379.823 329.487C383.129 318.458 378.552 306.94 369.347 300.983C371.789 306.359 372.373 312.61 370.546 318.71C370.512 318.823 370.471 318.936 370.437 319.049L379.717 329.828C379.748 329.712 379.789 329.603 379.823 329.487Z" fill="#0590E5"/>
<path d="M451.719 249.806C451.965 249.878 452.204 249.964 452.443 250.042L465.874 205.256L420.695 191.706C421.392 190.35 421.979 188.915 422.433 187.402C426.447 174.02 418.85 159.916 405.468 155.903C392.085 151.889 377.982 159.486 373.968 172.868C373.514 174.382 373.217 175.905 373.05 177.422L327.871 163.872L314.102 209.778C312.001 208.344 309.655 207.203 307.09 206.431C293.707 202.417 279.604 210.014 275.59 223.396C271.577 236.779 279.173 250.882 292.556 254.896C295.121 255.664 297.714 256.006 300.255 255.961L286.486 301.868L331.262 315.295C331.296 315.179 331.324 315.066 331.355 314.95C335.368 301.568 349.471 293.971 362.854 297.984C376.236 301.998 383.833 316.101 379.82 329.484C379.785 329.596 379.744 329.709 379.71 329.822L424.486 343.249L437.917 298.463C437.671 298.398 437.425 298.336 437.182 298.261C423.8 294.248 416.203 280.144 420.217 266.762C424.233 253.386 438.337 245.793 451.719 249.806Z" fill="#32A0FF"/>
<path d="M373.047 324.391C373.047 324.391 373.198 322.737 372.624 322.133C372.108 321.586 372.296 321.771 372.063 321.549C371.982 321.474 371.835 321.313 371.835 321.313C371.835 321.313 370.421 319.827 370.581 319.219C370.742 318.608 371.268 318.645 371.893 319.568C372.514 320.49 373.874 319.762 373.221 318.082C372.569 316.401 372.313 314.294 372.965 314.495C373.618 314.697 373.942 316.183 373.942 316.183C373.942 316.183 374.014 316.172 373.908 315.8C373.802 315.424 373.218 314.608 373.467 314.605C373.717 314.601 375.319 314.461 376.408 316.634C377.498 318.806 376.941 320.295 376.791 320.941C376.644 321.586 376.61 323.977 376.968 324.691C376.968 324.684 373.57 325.661 373.047 324.391Z" fill="#F4BE84"/>
<path d="M372.494 324.199L377.286 324.548L377.3 322.997L372.638 323.113L372.494 324.199Z" fill="white"/>
<path d="M377.393 324.087L372.501 323.776C372.163 326.109 371.566 328.957 369.977 331.792C367.409 336.376 362.244 342.009 351.857 346.193C351.857 346.193 345.518 350.374 353.07 355.456C353.07 355.46 378.639 346.224 377.393 324.087Z" fill="#4484E0"/>
<path d="M349.719 442.822L349.354 446.59C349.354 446.59 352.95 448.161 353.589 447.413C354.228 446.665 354.668 446.863 354.668 446.863L354.972 442.098L349.719 442.822Z" fill="#22313B"/>
<path d="M334.029 441.671L334.255 445.285L338.941 445.042L339.498 441.019L334.029 441.671Z" fill="#22313B"/>
<path d="M358.855 382.707H335.243C335.198 385.781 335.175 391.703 335.557 395.573C336.093 400.997 337.094 414.544 336.295 418.574C335.561 422.28 333.316 438.502 332.896 443.201C332.848 443.724 333.269 444.172 333.805 444.172C335.871 444.178 339.178 444.53 339.741 443.495C340.465 442.163 345.845 421.556 346.644 417.522C347.444 413.492 348.912 410.155 348.912 410.155C348.912 410.155 349.449 415.579 349.336 419.63L348.673 443.519C348.656 444.107 349.162 444.575 349.756 444.52C351.641 444.346 353.933 444.315 355.464 443.861C355.464 443.861 357.926 427.974 358.818 420.566C359.713 413.157 361.103 386.194 359.207 383.089C359.135 382.956 359.013 382.83 358.855 382.707Z" fill="#3F4752"/>
<path d="M332.9 443.201C332.852 443.724 333.273 444.172 333.809 444.172C334.256 444.175 334.833 444.168 335.459 444.151C336.524 436.561 340.278 414.906 340.999 410.261C341.576 406.548 340.012 391.608 338.987 382.707H335.24C335.24 382.71 335.24 382.71 335.24 382.713C335.24 382.802 335.237 382.891 335.237 382.987C335.237 382.997 335.237 383.004 335.237 383.014C335.233 383.205 335.233 383.407 335.23 383.619C335.23 383.636 335.23 383.649 335.23 383.666C335.226 383.875 335.226 384.09 335.223 384.312C335.223 384.332 335.223 384.353 335.223 384.377C335.223 384.486 335.223 384.595 335.219 384.708C335.219 384.712 335.219 384.712 335.219 384.715C335.219 384.828 335.219 384.944 335.216 385.06C335.216 385.084 335.216 385.111 335.216 385.135C335.216 385.238 335.216 385.343 335.216 385.449C335.216 385.463 335.216 385.477 335.216 385.49C335.216 385.613 335.216 385.74 335.216 385.866C335.216 385.88 335.216 385.89 335.216 385.904C335.216 386.013 335.216 386.122 335.216 386.235C335.216 386.266 335.216 386.293 335.216 386.324C335.216 386.573 335.216 386.826 335.219 387.082C335.219 387.109 335.219 387.14 335.219 387.167C335.219 387.284 335.219 387.4 335.223 387.516C335.223 387.529 335.223 387.543 335.223 387.56C335.223 387.69 335.226 387.823 335.226 387.953C335.226 387.977 335.226 388.004 335.226 388.028C335.226 388.141 335.23 388.25 335.23 388.363C335.23 388.39 335.23 388.414 335.23 388.441C335.233 388.575 335.233 388.708 335.237 388.841C335.237 388.858 335.237 388.879 335.237 388.899C335.24 389.015 335.24 389.131 335.243 389.248C335.243 389.278 335.243 389.309 335.243 389.34C335.247 389.606 335.254 389.876 335.26 390.142C335.26 390.173 335.26 390.204 335.264 390.235C335.267 390.354 335.271 390.474 335.274 390.593C335.274 390.61 335.274 390.624 335.274 390.641C335.277 390.774 335.281 390.908 335.284 391.041C335.284 391.068 335.288 391.095 335.288 391.126C335.291 391.235 335.295 391.345 335.298 391.454C335.298 391.485 335.301 391.512 335.301 391.543C335.305 391.673 335.312 391.806 335.315 391.936C335.315 391.956 335.315 391.977 335.318 391.994C335.322 392.106 335.329 392.219 335.332 392.329C335.332 392.359 335.336 392.39 335.336 392.421C335.346 392.68 335.359 392.936 335.373 393.189C335.373 393.217 335.377 393.247 335.377 393.275C335.383 393.387 335.39 393.5 335.397 393.609C335.397 393.623 335.4 393.64 335.4 393.654C335.407 393.777 335.418 393.9 335.424 394.023C335.424 394.047 335.428 394.074 335.428 394.098C335.435 394.2 335.441 394.299 335.448 394.402C335.452 394.426 335.452 394.45 335.455 394.474C335.465 394.593 335.472 394.709 335.482 394.825C335.482 394.842 335.486 394.856 335.486 394.873C335.493 394.972 335.503 395.071 335.51 395.17C335.513 395.198 335.513 395.225 335.517 395.252C335.527 395.365 335.537 395.478 335.547 395.587C335.79 398.043 336.128 402.169 336.353 406.322C336.371 406.609 336.384 406.896 336.398 407.18C336.412 407.463 336.425 407.75 336.439 408.037C336.446 408.181 336.453 408.321 336.459 408.464C336.473 408.748 336.483 409.031 336.493 409.311C336.504 409.591 336.514 409.871 336.524 410.148C336.64 413.745 336.613 416.952 336.289 418.592C336.166 419.22 335.995 420.207 335.8 421.433C335.793 421.471 335.79 421.509 335.783 421.543C335.749 421.754 335.715 421.97 335.681 422.195C335.223 425.133 334.649 429.156 334.137 432.978C333.573 437.221 333.074 441.227 332.9 443.201ZM351.058 395.01C350.296 397.691 348.599 410.934 348.599 410.934C348.793 410.442 348.916 410.155 348.916 410.155C348.916 410.155 349.453 415.579 349.34 419.63L348.677 443.519C348.66 444.107 349.166 444.575 349.76 444.52C351.335 444.376 353.124 444.271 354.921 443.915C353.633 443.652 351.649 442.73 351.136 441.651C350.487 440.281 352.554 415.333 352.554 415.333C351.314 410.565 351.058 395.01 351.058 395.01Z" fill="#2F3740"/>
<path d="M333.489 445.449C333.489 445.449 338.609 443.679 339.859 444.356C339.859 444.356 339.825 445.633 340.44 446.292C341.054 446.952 344.75 450.897 344.098 451.518C343.445 452.14 337.096 452.594 333.328 451.204L333.489 445.449ZM349.3 445.787C349.085 445.763 348.893 445.93 348.887 446.152L348.753 450.986C348.753 450.986 348.162 451.553 351.602 451.652C355.042 451.751 364.213 452.017 364.804 451.454C365.394 450.887 364.834 450.289 362.003 449.039C359.168 447.792 356.073 445.66 354.96 444.462C354.96 444.462 352.668 444.393 353.19 446.159C353.19 446.163 352.657 446.146 349.3 445.787Z" fill="#2D313D"/>
<path d="M359.218 383.093C359.136 382.956 359.013 382.83 358.859 382.71H338.994H335.247C335.247 382.761 335.247 382.812 335.243 382.864C335.243 382.905 335.243 382.946 335.24 382.99C335.24 383 335.24 383.007 335.24 383.017C335.24 383.116 335.236 383.215 335.236 383.318C335.236 383.335 335.236 383.352 335.236 383.369C335.236 383.451 335.233 383.533 335.233 383.619C335.233 383.622 335.233 383.629 335.233 383.632C335.229 383.97 335.226 384.329 335.223 384.708C335.223 384.708 335.223 384.708 335.223 384.712C335.223 384.79 335.223 384.872 335.223 384.954C344.066 388.236 354.788 385.938 359.624 384.36C359.511 383.782 359.375 383.352 359.218 383.093Z" fill="#2F3740"/>
<path d="M357.878 374.594C357.701 373.935 357.554 373.521 357.554 373.521L337.118 374.362C337.118 374.362 337.046 374.778 336.934 375.492C337.036 375.632 337.118 375.738 337.118 375.738C346.238 379.461 352.844 379.465 357.878 374.594Z" fill="#330E00"/>
<path d="M332.625 357.219L336.208 370.38L334.387 382.676C334.387 382.676 349.574 389.05 359.725 382.423L358.632 354.726L332.625 357.219Z" fill="#286BCE"/>
<path d="M356.088 345.667C358.257 346.579 361.3 348.406 358.626 354.722L357.693 374.157C357.693 374.157 358.732 377.153 358.076 377.788C353.038 382.676 346.428 382.676 337.298 378.949C337.298 378.949 336.817 378.338 336.755 378.092C336.421 376.77 337.537 373.085 337.537 373.085L332.434 357.222C332.434 357.222 327.407 350.377 330.733 347.894C335.977 343.983 347.508 342.053 356.088 345.667Z" fill="#4484E0"/>
<path d="M328.139 319.124C328.139 319.124 328.61 317.624 329.355 317.347C330.024 317.098 329.785 317.173 330.079 317.088C330.178 317.057 330.372 316.985 330.372 316.985C330.372 316.985 332.203 316.316 332.282 315.715C332.36 315.114 331.869 314.916 330.963 315.442C330.058 315.971 329.092 314.745 330.301 313.57C331.51 312.395 332.521 310.68 331.855 310.567C331.189 310.455 330.345 311.606 330.345 311.606C330.345 311.606 330.284 311.568 330.516 311.288C330.748 311.008 331.582 310.554 331.356 310.441C331.131 310.328 329.723 309.505 327.937 310.916C326.151 312.326 326.11 313.864 326.007 314.485C325.905 315.11 325.054 317.201 324.467 317.665C324.463 317.669 327.196 320.001 328.139 319.124Z" fill="#F4BE84"/>
<path d="M328.687 319.206L324.213 317.464L324.865 316.057L329.026 318.161L328.687 319.206Z" fill="white"/>
<path d="M324.313 317L328.866 318.82C328.169 321.071 327.486 323.903 327.705 327.144C328.057 332.387 330.304 339.69 337.89 347.928C337.89 347.928 341.822 354.425 332.818 355.774C332.818 355.778 313.687 336.459 324.313 317Z" fill="#4484E0"/>
<path d="M359.72 382.792L358.931 366.527C356.581 369.29 355.276 372.186 354.006 375.585C348.616 372.788 343.899 368.703 340.364 363.763C341.692 367.319 343.024 370.875 344.353 374.431C340.903 370.383 335.465 359.449 332.016 355.402L336.203 370.373L334.383 382.669C334.383 382.673 349.569 389.419 359.72 382.792Z" fill="#286BCE"/>
<path d="M350.133 343.31C350.133 343.31 352.145 343.225 352.51 343.45C352.876 343.676 353.791 346.319 353.975 346.736C354.16 347.153 351.53 349.616 351.53 349.616C351.53 349.616 353.702 353.182 353.61 353.469C353.518 353.755 349.668 369.338 349.668 369.338C349.668 369.338 340.333 355.415 340.142 354.722C339.951 354.029 341.037 350.449 341.037 350.449C341.037 350.449 338.274 348.413 338.106 347.969C337.939 347.525 337.584 344.687 338.106 344.325C338.427 344.103 340.285 343.686 340.285 343.686L350.133 343.31Z" fill="#68A9EA"/>
<path d="M340.285 344.352C340.285 344.352 343.147 351.737 345.665 358.237C347.646 363.35 349.835 358.001 349.835 358.001L350.454 343.341C350.317 343.331 350.03 343.293 349.893 343.286L340.285 344.352Z" fill="#F8E8D8"/>
<path d="M349.739 348.024C350.313 347.887 350.34 346.094 350.34 346.094L350.453 343.382C350.446 343.368 350.442 343.354 350.436 343.341C350.292 343.331 350.026 343.296 349.896 343.29L341.039 344.27C341.07 344.376 340.715 345.114 340.779 345.322C341.292 346.832 342.945 349.004 343.276 349.059C343.666 349.12 344.656 347.986 344.789 347.614C344.994 347.798 345.343 348.348 345.544 348.529C345.654 351.169 345.558 354.643 345.514 357.851C347.047 361.809 348.478 365.502 349.097 367.097C349.209 367.247 349.322 367.387 349.435 367.52L349.766 359.675C348.769 355.897 347.768 352.119 346.771 348.345C347.088 347.911 347.498 347.586 347.816 347.153C348.342 347.668 349.001 348.024 349.739 348.024Z" fill="url(#paint0_linear_396_1510)"/>
<path d="M347.69 344.782C346.83 345.278 345.057 345.537 344.09 345.561C342.656 345.599 343.233 344.762 342.755 344.635L340.285 338.412L346.519 337.691L346.539 338.047L347.69 344.782Z" fill="#D38753"/>
<path d="M349.838 358.004L346.843 347.898L348.151 346.425L345.928 345.066L344.227 346.634L345.811 348.034C345.811 348.034 345.436 352.717 345.665 358.237C347.646 363.353 349.418 367.92 349.418 367.92L349.838 358.004Z" fill="#DE3D73"/>
<path d="M341.575 341.913C341.575 341.913 344.957 345.151 345.824 345.011C346.692 344.871 347.143 341.606 347.143 341.606C347.143 341.606 350.074 342.911 350.453 343.345C350.828 343.775 350.067 347.587 349.657 347.792C348.803 348.222 346.224 345.346 345.756 345.715C345.288 346.08 343.959 348.54 343.522 348.488C343.085 348.441 339.601 345.005 339.799 343.741C339.997 342.474 341.575 341.913 341.575 341.913Z" fill="#F8E8D8"/>
<path d="M340.261 336.166C340.261 336.166 337.713 335.92 337.785 333.587C337.853 331.322 340.739 331.831 341.323 334.188C341.334 334.236 341.402 334.239 341.412 334.188C341.549 333.515 342.006 331.462 342.642 330.94C342.642 330.94 341.644 327.568 344.001 326.55C346.361 325.533 351.977 325.454 352.09 329.126C352.202 332.798 351.779 333.928 351.693 335.633C351.604 337.337 348.937 342.379 347.81 342.737C346.683 343.096 341.17 339.677 340.319 338.816C339.469 337.955 340.261 336.166 340.261 336.166Z" fill="#F4BE84"/>
<path d="M355.995 324.726C355.995 324.726 354.984 324.941 354.372 324.569C354.372 324.569 355.629 321.522 354.792 320.245C354.792 320.245 352.941 322.455 347.435 321.403C341.926 320.351 336.925 322.099 335.535 326.796C334.145 331.492 337.618 337.914 340.023 338.327C339.712 337.412 340.262 336.165 340.262 336.165C340.262 336.165 337.714 335.919 337.786 333.586C337.854 331.322 340.74 331.831 341.324 334.187C341.335 334.235 341.403 334.239 341.413 334.187C341.55 333.514 342.008 331.462 342.643 330.939C342.643 330.939 341.646 327.568 344.002 326.55C346.363 325.532 351.978 325.454 352.091 329.125C352.101 329.501 352.108 329.846 352.108 330.171C352.104 330.171 356.329 328.76 355.995 324.726Z" fill="#221E52"/>
<path d="M226.097 195.04L230.011 195.098C235.241 195.176 239.541 190.992 239.62 185.752C239.654 183.542 237.891 181.722 235.681 181.688L220.826 181.466C218.62 181.435 216.803 183.201 216.769 185.411C216.69 190.65 220.867 194.964 226.097 195.04Z" fill="#161111"/>
<path d="M207.246 174.255L249.461 174.883C251.397 174.911 252.945 176.506 252.917 178.446L252.849 183.132C252.818 185.072 251.227 186.619 249.287 186.589L207.072 185.96C205.136 185.933 203.588 184.338 203.616 182.398L203.684 177.711C203.715 175.775 205.31 174.227 207.246 174.255Z" fill="#B5B5B5"/>
<path d="M209.358 173.435L247.378 174.002C250.476 174.05 252.949 176.598 252.901 179.693L252.894 180.185C252.846 183.279 250.302 185.752 247.204 185.708L209.184 185.141C206.089 185.093 203.616 182.548 203.661 179.45L203.668 178.958C203.715 175.864 206.26 173.391 209.358 173.435Z" fill="#CDCDCB"/>
<path d="M203.657 179.553L203.667 178.859C203.712 175.819 206.208 173.391 209.245 173.435L224.018 173.657C224.274 174.098 224.564 174.552 224.895 175.017C224.895 175.017 220.704 178.931 223.154 185.349L209.071 185.141C206.038 185.093 203.612 182.593 203.657 179.553Z" fill="#B5B5B5"/>
<path d="M173.972 92.634C174.453 60.2808 199.487 34.4208 229.883 34.875C260.279 35.3293 284.527 61.9237 284.045 94.277C283.765 113.108 275.165 129.735 262.031 140.255C257.495 143.89 254.78 149.539 254.688 155.575L254.551 164.688L202.021 163.902L202.148 155.335C202.24 149.218 199.62 143.425 195.098 139.661C182.002 128.772 173.688 111.704 173.972 92.634Z" fill="#FFA500"/>
<path opacity="0.85" d="M234.518 133.441L223.014 133.407L222.552 164.213L220.377 164.179L220.838 133.4L210.577 133.366L210.297 133.164C210.092 133.021 205.307 129.574 205.279 125.093C205.266 122.716 206.553 120.564 209.115 118.699C211.783 116.752 214.369 116.11 216.79 116.793C220.981 117.968 222.996 122.689 223.082 122.89L223.048 131.224L234.535 131.262L234.62 121.227L234.845 120.936C234.989 120.752 238.411 116.407 242.835 116.475C242.838 116.475 242.842 116.475 242.842 116.475C245.284 116.513 247.483 117.859 249.379 120.475C251.48 123.368 252.166 126.036 251.425 128.413C250.315 131.965 246.407 133.366 246.24 133.424L236.69 133.455L236.423 164.418L234.248 164.397L234.518 133.441ZM220.988 123.539C220.606 122.736 218.983 119.669 216.206 118.894C214.457 118.402 212.5 118.931 210.396 120.465C208.439 121.889 207.452 123.44 207.459 125.073C207.472 127.932 210.396 130.469 211.298 131.187L220.875 131.214L220.988 123.539ZM249.352 127.747C249.871 126.07 249.287 124.055 247.62 121.756C246.148 119.731 244.532 118.685 242.814 118.655C242.811 118.655 242.807 118.655 242.801 118.655C240.007 118.614 237.53 121.162 236.789 122.009L236.71 131.269L245.68 131.299C246.315 131.033 248.682 129.916 249.352 127.747Z" fill="#923509"/>
<path opacity="0.58" d="M174.011 91.2853C174.014 91.1623 174.021 91.0359 174.024 90.913C174.038 90.5509 174.059 90.1854 174.079 89.8234C174.086 89.7312 174.089 89.6355 174.096 89.5433C174.124 89.1027 174.158 88.6621 174.195 88.2248C174.205 88.119 174.216 88.0165 174.223 87.9106C174.253 87.5622 174.287 87.2104 174.325 86.8654C174.339 86.7459 174.349 86.6229 174.363 86.5034C174.414 86.0696 174.465 85.6358 174.523 85.202C174.53 85.1542 174.537 85.1098 174.544 85.0619C174.595 84.6725 174.653 84.2866 174.714 83.9006C174.735 83.7742 174.755 83.6479 174.776 83.5181C174.834 83.1697 174.892 82.8213 174.954 82.4729C174.971 82.3875 174.984 82.2987 174.998 82.2133C175.076 81.7966 175.158 81.3798 175.24 80.9665C175.264 80.847 175.292 80.7275 175.316 80.6079C175.384 80.2937 175.452 79.976 175.524 79.6618C175.551 79.5388 175.582 79.4124 175.609 79.2895C175.705 78.883 175.804 78.4799 175.906 78.0803C175.93 77.9881 175.954 77.8993 175.978 77.8105C176.064 77.486 176.149 77.1649 176.241 76.8404C176.279 76.7038 176.316 76.5638 176.357 76.4271C176.45 76.1061 176.542 75.7884 176.641 75.4707C176.668 75.3785 176.696 75.2863 176.723 75.1975C176.842 74.8149 176.965 74.4324 177.092 74.0498C177.14 73.9098 177.187 73.7697 177.235 73.6297C177.327 73.3599 177.42 73.09 177.515 72.8202C177.563 72.6836 177.611 72.5435 177.662 72.4069C177.795 72.0414 177.932 71.6759 178.072 71.3104C178.123 71.1806 178.174 71.0509 178.226 70.9177C178.328 70.6615 178.431 70.4053 178.533 70.1491C178.595 69.9954 178.66 69.8383 178.724 69.6846C178.837 69.4148 178.953 69.1483 179.069 68.8785C179.145 68.7043 179.223 68.5301 179.302 68.3559C179.428 68.0758 179.554 67.7991 179.684 67.5225C179.759 67.3585 179.838 67.198 179.916 67.034C180.019 66.8188 180.121 66.6071 180.227 66.3919C180.306 66.2348 180.381 66.0742 180.463 65.9171C180.627 65.596 180.791 65.275 180.958 64.9539C181.047 64.7865 181.136 64.6226 181.225 64.4552C181.327 64.2673 181.43 64.0795 181.532 63.8916C181.628 63.714 181.727 63.5398 181.826 63.3622C181.935 63.1675 182.048 62.9728 182.164 62.7781C182.325 62.5014 182.485 62.2248 182.652 61.9549C182.755 61.7842 182.857 61.61 182.963 61.4426C183.076 61.2581 183.192 61.0737 183.308 60.8892C183.404 60.739 183.5 60.5887 183.595 60.4384C183.797 60.1241 184.002 59.8133 184.21 59.5059C184.309 59.359 184.405 59.2121 184.507 59.0653C184.64 58.8706 184.774 58.6793 184.91 58.488C184.999 58.3616 185.088 58.2353 185.177 58.1123C185.317 57.9176 185.457 57.7229 185.597 57.5282C185.668 57.4326 185.74 57.337 185.812 57.2413C186.085 56.8724 186.362 56.5069 186.645 56.1449C186.72 56.0492 186.796 55.9536 186.871 55.8545C187.028 55.653 187.188 55.4549 187.349 55.2568C187.421 55.168 187.492 55.0826 187.561 54.9972C187.919 54.56 188.285 54.1262 188.654 53.7027C188.657 53.6992 188.661 53.6924 188.667 53.689C188.848 53.4807 189.029 53.2757 189.214 53.0708C189.279 52.999 189.344 52.9273 189.409 52.8556C189.996 52.2066 190.601 51.5713 191.216 50.9496C191.26 50.9052 191.308 50.8574 191.352 50.813C191.557 50.6081 191.765 50.4031 191.974 50.2016C192.001 50.1743 192.032 50.147 192.059 50.1196C192.718 49.4843 193.388 48.8661 194.074 48.2649C194.112 48.2308 194.146 48.2 194.184 48.1693C194.874 47.5647 195.581 46.9806 196.298 46.4102C196.322 46.3931 196.342 46.376 196.366 46.359C197.36 45.5768 198.378 44.8288 199.423 44.1183C199.437 44.1115 199.447 44.1012 199.458 44.0944C200.236 43.565 201.029 43.0526 201.835 42.5642C201.845 42.5573 201.859 42.5505 201.869 42.5437C202.955 41.8844 204.065 41.2628 205.199 40.6821C192.069 56.425 174.858 91.4151 190.423 123.099C211.112 165.211 245.849 152.836 256.315 147.869C255.297 150.267 254.733 152.887 254.692 155.582L254.556 164.695L202.026 163.909L202.152 155.343C202.166 154.386 202.115 153.44 201.999 152.508C201.907 151.76 201.777 151.022 201.606 150.298C201.562 150.117 201.517 149.936 201.469 149.758C201.374 149.4 201.268 149.044 201.155 148.692C200.984 148.163 200.79 147.644 200.578 147.135C199.939 145.605 199.116 144.163 198.125 142.852C197.907 142.561 197.678 142.274 197.442 141.994C197.207 141.714 196.961 141.444 196.708 141.178C196.582 141.045 196.455 140.915 196.325 140.785C195.936 140.399 195.53 140.027 195.103 139.675C193.466 138.312 191.902 136.857 190.423 135.31C190.239 135.119 190.054 134.92 189.873 134.726C189.508 134.333 189.149 133.937 188.794 133.534C188.439 133.131 188.09 132.724 187.745 132.311C187.229 131.689 186.727 131.057 186.235 130.415C185.744 129.773 185.269 129.117 184.801 128.451C184.49 128.007 184.186 127.56 183.889 127.105C182.396 124.841 181.054 122.457 179.869 119.974C179.513 119.229 179.175 118.474 178.847 117.709C178.632 117.2 178.42 116.688 178.215 116.172C178.014 115.656 177.816 115.137 177.625 114.614C177.15 113.306 176.719 111.974 176.333 110.621C174.711 104.941 173.878 98.9022 173.97 92.6447C173.98 92.1836 173.994 91.7327 174.011 91.2853Z" fill="#EB860D"/>
<path d="M203.45 175.375L253.226 176.116C256.383 176.164 258.978 173.64 259.023 170.477C259.071 167.318 256.55 164.715 253.394 164.667L203.617 163.926C200.461 163.878 197.869 166.402 197.821 169.565C197.776 172.728 200.297 175.331 203.45 175.375Z" fill="#B5B5B5"/>
<path d="M202.351 174.679L254.344 175.454C256.889 175.492 258.979 173.459 259.017 170.918L259.051 168.681C259.089 166.14 257.06 164.046 254.515 164.008L202.522 163.233C199.98 163.195 197.887 165.224 197.849 167.769L197.815 170.01C197.781 172.551 199.81 174.641 202.351 174.679Z" fill="#C6C6C6"/>
<path opacity="0.65" d="M229.439 89.4882C237.763 101.293 252.591 105.142 262.558 98.0854C272.521 91.0286 273.85 75.7367 265.523 63.9321C257.199 52.1275 242.371 48.2781 232.408 55.3349C222.441 62.3916 221.112 77.6802 229.439 89.4882Z" fill="#FDCE14"/>
<path d="M246.942 64.2944C248.728 66.8254 251.519 67.9287 253.179 66.7537C254.839 65.5787 254.733 62.5763 252.946 60.0419C251.16 57.5075 248.369 56.4076 246.709 57.5826C245.053 58.7576 245.155 61.76 246.942 64.2944ZM259.672 73.2503C260.129 73.8993 260.888 74.152 261.366 73.8139C261.844 73.4757 261.858 72.6765 261.4 72.0241C260.942 71.3751 260.184 71.1223 259.706 71.4605C259.228 71.7986 259.214 72.6013 259.672 73.2503Z" fill="#FFFBD6"/>
<path d="M203.629 163.25L224.079 163.554C222.507 165.466 220.837 169.285 224.895 175.017L203.458 174.696C200.302 174.648 197.785 172.048 197.833 168.886C197.881 165.726 200.476 163.202 203.629 163.25Z" fill="#B5B5B5"/>
<path d="M227.336 0.000229618L226.996 22.6504L233.133 22.7424L233.473 0.0922488L227.336 0.000229618Z" fill="#FFA500"/>
<path d="M137.399 112.661L137.307 118.812L159.912 119.15L160.005 113L137.399 112.661Z" fill="#FFA500"/>
<path d="M149.572 30.9302L145.166 35.2168L160.912 51.4686L165.315 47.1854L149.572 30.9302Z" fill="#FFA500"/>
<path d="M292.031 115.437L291.855 121.586L314.451 122.23L314.626 116.081L292.031 115.437Z" fill="#FFA500"/>
<path d="M314.708 34.0933L318.923 38.5644L302.486 54.1193L298.271 49.6516L314.708 34.0933Z" fill="#FFA500"/>
<path d="M439.906 448.523L436.999 448.025C436.846 448.179 436.781 448.308 436.777 448.315C438.714 444.394 451.051 375.616 458.87 330.341L459.126 328.862H526.65L546.017 448.998L542.496 449.565L523.614 332.425H462.128C452.957 385.47 442.092 446.337 439.906 448.523Z" fill="#96B0D6"/>
<path d="M486.701 330.304L483.195 330.956L505.241 449.593L508.747 448.942L486.701 330.304Z" fill="#96B0D6"/>
<path d="M496.16 330.376L475.395 449.013L478.907 449.628L499.672 330.991L496.16 330.376Z" fill="#96B0D6"/>
<path d="M529.657 356.942H455.715V360.508H529.657V356.942Z" fill="#96B0D6"/>
<path d="M487.224 389.935H449.822V393.501H487.224V389.935Z" fill="#96B0D6"/>
<path d="M481.434 423.049H443.674V426.615H481.434V423.049Z" fill="#96B0D6"/>
<path d="M534.974 389.935H496.281V393.501H534.974V389.935Z" fill="#96B0D6"/>
<path d="M540.313 423.049H502.434V426.615H540.313V423.049Z" fill="#96B0D6"/>
<path d="M156.061 337.575C156.061 337.575 157.021 335.539 158.5 333.729C159.982 331.922 164.06 330.368 159.548 328.995C155.002 327.612 154.483 330.324 154.172 331.454C153.704 333.159 154.845 332.124 153.735 333.48C152.625 334.836 152.188 337.104 152.188 337.104L156.061 337.575Z" fill="#FBDDB8"/>
<path d="M134.055 341.312C137.296 341.517 143.807 342.125 146.317 343.799C146.317 343.799 149.371 337.439 151.991 334.372C151.991 334.372 157.159 335.523 158.135 336.681C158.135 336.681 152.869 348.963 149.016 349.687C145.163 350.415 138.116 350.64 135.469 348.95C133.86 347.922 131.93 346.34 131.305 344.619C130.725 343.02 132.279 341.199 134.055 341.312Z" fill="#4579D0"/>
<path d="M134.783 348.136C137.43 349.827 144.476 349.602 148.329 348.874C151.861 348.208 156.582 337.828 157.34 336.113C157.688 336.301 157.975 336.492 158.136 336.684C158.136 336.684 152.869 348.966 149.016 349.691C145.163 350.418 138.116 350.644 135.469 348.953C134.912 348.598 134.438 348.109 134.045 347.542C134.277 347.764 134.52 347.969 134.783 348.136Z" fill="#3368B5"/>
<path d="M68.5989 328.794C68.5989 328.794 70.6414 326.41 71.6251 325.74C72.6089 325.071 73.432 324.678 73.1588 323.786C72.8821 322.895 72.0589 324.138 71.8403 323.817C71.6183 323.496 73.4389 322.352 72.4039 321.32C71.369 320.292 69.9685 319.233 69.4015 319.804C68.8345 320.374 67.7244 321.194 67.926 322.734C68.1275 324.275 66.8295 326.123 66.365 326.813C65.8971 327.503 68.5989 328.794 68.5989 328.794Z" fill="#FFDDB5"/>
<path d="M44.7318 344.635C44.7318 344.635 52.7074 339.573 58.4969 335.43L66.7082 324.452L70.8582 327.226C70.8582 327.226 64.7476 336.609 61.4139 341.425C58.029 346.312 44.1989 352.488 44.7318 344.635Z" fill="#4484E0"/>
<path d="M157.776 299.088L199.512 275.526L179.999 240.96L185.816 236.666L176.679 235.081L176.532 234.822C176.429 234.883 176.33 234.945 176.228 235.003C164.061 241.872 148.629 237.578 141.76 225.412C134.891 213.245 139.185 197.813 151.352 190.948C151.457 190.89 151.56 190.838 151.666 190.78L132.634 157.071L138.273 151.736L128.685 150.072L87.9703 173.06C88.1001 173.278 88.2367 173.49 88.3631 173.716C95.232 185.882 90.9385 201.314 78.7719 208.183C69.0134 213.693 57.1541 212.015 49.2981 204.856L53.537 199.582L43.9492 197.919L44.4991 198.913C44.4376 198.804 44.3693 198.701 44.3078 198.592C44.1814 198.37 44.0687 198.144 43.9492 197.919L3.23438 220.906L12.0571 236.537L12.0434 236.772L12.1629 236.728L26.4199 261.98C24.9785 262.475 23.5576 263.104 22.1845 263.879C10.0179 270.748 5.7244 286.18 12.5933 298.347C19.4622 310.513 34.8942 314.807 47.0608 307.938C48.4374 307.162 49.7046 306.271 50.8761 305.291L74.0651 346.364L83.6529 348.027L81.7265 342.04L115.801 322.803C116.32 325.293 117.222 327.742 118.541 330.075C125.409 342.241 140.841 346.535 153.008 339.666C165.175 332.797 169.468 317.365 162.599 305.198C161.271 302.859 159.638 300.816 157.776 299.088Z" fill="#C61067"/>
<path d="M53.8859 200.245C53.7595 200.023 53.6468 199.798 53.5273 199.572L12.8125 222.56L36.0015 263.633C34.5601 264.128 33.1392 264.757 31.7661 265.532C19.5994 272.401 15.3059 287.833 22.1748 300C29.0438 312.166 44.4758 316.46 56.6424 309.591C58.0189 308.816 59.2895 307.924 60.4577 306.944L83.6467 348.017L125.383 324.453C125.902 326.943 126.804 329.392 128.122 331.725C134.991 343.891 150.423 348.185 162.59 341.316C174.756 334.447 179.05 319.015 172.181 306.848C170.866 304.515 169.23 302.476 167.368 300.748L209.104 277.183L186.12 236.475C186.018 236.537 185.919 236.598 185.816 236.656C173.65 243.525 158.218 239.232 151.349 227.065C144.48 214.898 148.773 199.466 160.94 192.597C161.046 192.539 161.148 192.488 161.254 192.43L138.27 151.722L97.5518 174.71C97.6816 174.928 97.8183 175.14 97.9447 175.365C104.814 187.532 100.52 202.964 88.3535 209.83C76.1868 216.705 60.7548 212.412 53.8859 200.245Z" fill="#ED1E79"/>
<path d="M33.8566 437.531C33.8566 437.531 32.5894 445.961 33.9796 446.699C35.3697 447.44 50.204 446.398 50.204 446.398C50.204 446.398 51.6659 444.318 49.5687 443.563C47.4715 442.805 40.5445 440.517 39.8784 437.682L33.8566 437.531Z" fill="#252933"/>
<path d="M46.3898 437.845C46.3898 437.845 45.1226 446.275 46.5128 447.013C47.9029 447.754 62.7372 446.712 62.7372 446.712C62.7372 446.712 64.1991 444.632 62.1019 443.877C60.0047 443.119 53.0777 440.831 52.4116 437.996L46.3898 437.845Z" fill="#2D313D"/>
<path d="M50.2189 326.856C50.2189 326.856 51.592 331.498 51.5237 334.316C51.4519 337.134 47.1721 339.143 47.1721 339.143L47.1106 341.609L38.7832 341.4C38.7832 341.4 38.9437 340.065 38.831 339.498C38.7149 338.931 45.1978 327.061 50.2189 326.856Z" fill="#FFDDB5"/>
<path d="M40.4567 438.392L33.4102 438.214C33.4102 438.214 34.5715 419.91 37.6217 410.82C37.6217 410.82 35.4288 399.836 34.8994 392.772C34.8994 392.772 32.8739 389.196 33.8064 380.052L53.5524 379.84C53.5524 379.84 57.9039 403.217 58.5017 407.463C59.0994 411.709 53.6207 433.429 53.4806 439.065L45.7305 438.87C45.7305 438.87 46.9635 417.747 49.942 411.476C49.942 411.476 46.5605 405.752 44.535 402.175C44.535 402.175 45.6622 413.485 44.9039 415.582C44.149 417.683 40.9964 431 40.4567 438.392Z" fill="#3F4752"/>
<path d="M52.5851 357.106C53.5893 352.816 51.8951 346.906 50.9421 344.119C49.8423 343.211 48.821 343.064 48.821 343.064C48.821 343.064 48.8278 343.06 48.8312 343.057L47.4615 341.619L37.5971 341.373C37.5971 341.373 32.6307 342.661 31.7665 348.983C30.9024 355.309 34.868 365.983 34.055 370.191C33.2455 374.403 31.4455 381.063 33.6486 381.996C35.8517 382.928 50.6654 382.593 53.5551 379.844C53.7532 379.656 53.9069 379.441 54.0299 379.202C51.1061 368.787 51.2324 362.885 52.5851 357.106Z" fill="#4484E0"/>
<path d="M52.5862 357.106C53.1122 354.859 52.897 352.167 52.4359 349.715C52.0568 349.951 51.7835 350.132 51.7835 350.132C51.7835 350.132 48.87 351.477 48.6923 353.127C48.0297 359.316 48.3234 361.847 48.2346 365.413C48.1458 368.979 50.6598 369.041 50.4992 375.459C50.4138 378.922 46.4517 381.04 42.8242 382.259C44.7302 382.143 46.6293 381.959 48.3542 381.706C50.267 381.364 51.9167 380.903 52.938 380.302C52.9517 380.295 52.9653 380.285 52.979 380.278C53.0371 380.244 53.0917 380.207 53.1464 380.172C53.1669 380.159 53.1839 380.148 53.2044 380.135C53.2523 380.101 53.2967 380.066 53.3411 380.032C53.3581 380.019 53.3752 380.005 53.3923 379.991C53.4504 379.943 53.505 379.899 53.5528 379.851C53.6519 379.759 53.7373 379.657 53.8158 379.551C53.8193 379.547 53.8227 379.54 53.8261 379.537C53.9012 379.435 53.9695 379.325 54.0276 379.209C51.1072 368.788 51.2336 362.886 52.5862 357.106Z" fill="#2D4F9F"/>
<path d="M44.907 415.589C45.6653 413.492 44.5381 402.183 44.5381 402.183C44.7397 402.538 44.9583 402.92 45.1803 403.31C45.638 397.735 41.6211 391.884 41.6211 391.884C44.1385 403.935 42.5366 411.651 40.9858 417.252C39.4351 422.854 38.0859 438.334 38.0859 438.334L40.4564 438.392C40.9961 431.001 44.1488 417.683 44.907 415.589Z" fill="#2F3740"/>
<path d="M53.0535 321.829C52.7291 322.065 52.3055 322.229 51.8615 322.348C50.6011 322.683 49.269 322.604 48.0257 322.225L41.3993 320.189C40.6376 319.957 39.8281 319.916 39.0561 320.108C35.9957 320.876 34.8549 324.029 34.8549 324.029L33.3759 326.812C32.5664 331.024 35.6405 334.976 37.0306 335.717C38.4208 336.458 37.666 338.552 38.3525 339.276C39.0391 339.997 45.037 339.795 46.4818 338.422C47.9266 337.049 47.4143 329.279 47.4143 329.279C48.825 329.313 49.4568 332.151 49.4568 332.151C50.2117 330.061 48.8898 328.196 48.883 328.186C51.5848 325.849 52.8418 322.789 53.1594 321.914C53.1902 321.846 53.1116 321.788 53.0535 321.829Z" fill="#221E52"/>
<path d="M75.7492 338.446C75.7492 338.446 77.3375 337.773 77.5459 336.926C77.7303 336.165 77.6791 336.434 77.7372 336.103C77.7577 335.99 77.8123 335.768 77.8123 335.768C77.8123 335.768 78.311 333.681 78.96 333.534C79.6089 333.384 79.8959 333.907 79.4313 334.959C78.9668 336.011 80.4458 336.95 81.5798 335.495C82.7138 334.04 84.4729 332.752 84.6846 333.476C84.8964 334.201 83.7385 335.246 83.7385 335.246C83.7385 335.246 83.7897 335.307 84.0664 335.024C84.3431 334.74 84.7359 333.777 84.8896 334.013C85.0433 334.248 86.1329 335.714 84.811 337.828C83.4892 339.942 81.8052 340.147 81.1289 340.321C80.4526 340.499 78.2598 341.65 77.8294 342.347C77.8362 342.34 74.909 339.573 75.7492 338.446Z" fill="#FFDDB5"/>
<path d="M74.6855 338.945L76.2738 337.913L79.4675 341.827L78.0022 342.989L74.6855 338.945Z" fill="#DEEBF4"/>
<path d="M44.2012 344.908C44.2012 344.908 46.9064 341.957 52.1255 343.06C57.4096 344.177 62.0344 345.24 62.0344 345.24L75.8269 337.927L79.1264 342.261C79.1264 342.261 66.9461 351.876 62.6014 351.76C60.692 352.307 49.5057 353.591 44.2012 344.908Z" fill="#4484E0"/>
<path d="M78.4352 341.359C74.5516 344.331 63.3926 349.782 56.9131 348.864C56.9131 348.864 53.6374 348.508 51.0859 350.742C56.0592 352.798 61.3398 352.119 62.5933 351.76C63.0989 351.774 63.7103 351.654 64.3968 351.436L64.3934 351.432C69.6023 349.769 79.1183 342.261 79.1183 342.261L78.4352 341.359Z" fill="#2D4F9F"/>
<path d="M127.238 439.421L127.494 443.069C127.494 443.069 131.364 444.353 132.02 443.683C132.676 443.014 133.332 441.364 133.332 441.364V438.997L127.238 439.421Z" fill="#FBDDB8"/>
<path d="M127.231 442.509C126.981 442.488 126.769 442.69 126.769 442.942V448.5C126.769 448.5 126.114 449.169 130.052 449.169C133.99 449.169 144.49 449.169 145.146 448.5C145.802 447.83 145.146 447.161 141.863 445.822C138.581 444.483 134.974 442.14 133.659 440.797C133.659 440.797 131.032 440.797 131.691 442.806C131.691 442.809 131.083 442.809 127.231 442.509Z" fill="#19262D"/>
<path d="M101.507 433.495L100.254 436.921C100.254 436.921 103.249 439.732 104.117 439.4C104.988 439.069 106.255 437.846 106.255 437.846L107.519 435.807L101.507 433.495Z" fill="#FBDDB8"/>
<path d="M100.237 436.302C100.018 436.179 99.7449 436.271 99.6425 436.5L97.3745 441.556C97.3745 441.556 96.5035 441.887 100.087 443.557C103.666 445.231 113.213 449.692 114.084 449.36C114.955 449.029 114.63 448.141 112.192 445.531C109.753 442.918 107.427 439.253 106.781 437.481C106.781 437.481 104.394 436.367 104.172 438.471C104.172 438.468 103.618 438.208 100.237 436.302Z" fill="#19262D"/>
<path d="M126.144 406.203C126.144 406.203 117.929 426.817 107.833 437.856L100.141 434.666C100.141 434.666 112.413 409.636 115.296 404.734C115.296 404.734 116.389 389.77 117.929 384.493C117.933 384.493 128.231 401.37 126.144 406.203Z" fill="#0F192F"/>
<path d="M117.934 385.842L137.065 386.211C137.065 386.211 139.811 406.207 137.885 412.83C135.961 419.452 134.038 440.8 134.038 440.8H126.346C126.346 440.8 126.585 419.702 126.828 407.679C126.828 407.679 119.375 391.731 117.934 385.842Z" fill="#142C4F"/>
<path d="M122.738 341.674L123.339 338.382L130.615 337.938L131.428 342.026C131.431 342.026 128.132 347.402 122.738 341.674Z" fill="#EFCEAB"/>
<path d="M122.471 341.179C122.471 341.179 128.421 343.912 131.3 340.797C131.3 340.797 144.553 352.571 137.472 386.956C137.472 386.956 117.241 386.601 116.77 386.686C116.299 386.772 118.369 384.217 119.209 380.637C121.89 369.232 130.009 369.147 122.409 341.733C122.355 341.535 122.331 341.442 122.471 341.179Z" fill="#F5F8FE"/>
<path d="M122.292 341.101C122.292 341.101 122.234 341.107 122.125 341.121C121.821 341.166 121.52 341.22 121.223 341.285C119.495 341.883 114.921 343.939 114.218 349.196C113.35 355.696 118.518 368.539 117.49 374.284C116.872 377.737 115.796 384.497 114.689 389.548C120.568 390.197 123.17 387.67 124.352 387.318C125.981 384.148 126.562 377.655 128.126 371.968C128.427 371.193 128.427 368.426 128.652 367.596C132.587 353.141 122.292 341.101 122.292 341.101Z" fill="#4579D0"/>
<path d="M119.799 378.4C117.917 374.131 120.554 355.676 120.554 355.676L114.355 348.445C114.3 348.691 114.256 348.94 114.222 349.203C113.354 355.703 118.522 368.546 117.494 374.291C116.876 377.744 115.8 384.504 114.693 389.556C116.438 389.747 117.89 389.662 119.106 389.433C118.187 385.993 119.799 378.4 119.799 378.4Z" fill="#3368B5"/>
<path d="M121.875 341.162L127.159 345.541L127.999 342.371L123.767 341.152L121.875 341.162Z" fill="#9CD6E2"/>
<path d="M131.3 340.793L128.205 342.242L131.132 345.678C131.129 345.681 132.55 342.163 131.3 340.793Z" fill="#9CD6E2"/>
<path d="M139.722 351.481C139.722 351.481 139.449 349.059 139.076 345.794C138.967 344.844 138.041 342.597 136.59 341.982C134.615 341.145 133.533 341.128 131.299 340.793C131.299 340.793 137.297 365.144 136.873 383.694C137.013 385.378 136.784 386.58 136.692 387.431C136.692 387.431 137.304 386.683 140.043 388.094C141.928 389.067 139.804 377.638 139.254 375.363C140.757 366.513 140.6 360.686 139.722 351.481Z" fill="#4579D0"/>
<path d="M133.827 328.165C133.827 328.165 133.55 331.878 133.55 333.747C133.55 335.615 134.073 339.666 130.336 340.288C126.6 340.909 124.468 339.072 123.092 338.279C123.092 338.279 118.603 334.372 119.225 333.125C119.847 331.878 120.472 328.145 124.205 328.145C127.945 328.141 133.827 328.165 133.827 328.165Z" fill="#FBDDB8"/>
<path d="M133.235 324.094C134.481 324.094 135.103 323.472 135.103 323.472C133.856 324.094 127.63 320.982 123.896 320.361C120.16 319.739 118.291 325.341 118.291 325.341L117.044 326.587C115.798 327.834 115.798 329.699 117.044 332.193C118.291 334.683 123.271 338.419 123.271 338.419C123.893 338.419 122.024 336.551 121.403 335.929C120.781 335.308 119.534 333.439 120.781 333.439C122.028 333.439 123.271 335.929 123.271 335.929C123.893 334.061 122.65 329.703 122.65 329.703C122.65 329.703 126.386 330.324 131.366 329.081C136.346 327.834 136.971 324.722 136.971 324.722C135.103 324.719 133.235 324.094 133.235 324.094Z" fill="#221E52"/>
<path d="M147.543 349.329C147.543 349.329 148.783 348.318 148.749 347.512C148.718 346.784 148.742 347.04 148.708 346.73C148.698 346.624 148.688 346.412 148.688 346.412C148.688 346.412 148.592 344.427 149.132 344.123C149.671 343.823 150.061 344.216 149.921 345.271C149.781 346.327 151.338 346.781 151.973 345.193C152.609 343.604 153.838 342.002 154.214 342.593C154.59 343.181 153.832 344.414 153.832 344.414C153.832 344.414 153.893 344.455 154.067 344.13C154.241 343.806 154.34 342.846 154.539 343.017C154.737 343.188 156.086 344.209 155.457 346.432C154.829 348.656 153.381 349.274 152.824 349.606C152.271 349.937 150.614 351.529 150.409 352.26C150.409 352.26 147.086 350.552 147.543 349.329Z" fill="#FFDDB5"/>
<path d="M119.986 346.067C116.717 344.216 113.008 347.778 114.733 351.116C116.386 354.309 119.463 358.22 125.243 361.994C133.406 367.323 136.487 364.556 139.462 363.333C142.936 361.906 151.923 350.658 151.923 350.658L148.394 347.918C148.394 347.918 138.526 358.995 135.288 358.387C134.045 358.152 130.26 355.3 126.435 351.607C124.655 349.893 122.715 347.618 119.986 346.067Z" fill="#4579D0"/>
<path d="M482.73 98.6563C482.795 95.6744 482.337 92.6618 481.329 89.7585L487.836 83.9894L483.573 77.1171L475.553 80.3722C473.398 78.1418 470.891 76.3622 468.175 75.0745L468.695 66.4328L460.821 64.5884L457.433 72.605C454.458 72.5776 451.452 73.0695 448.563 74.1147L442.749 67.5532L435.88 71.8159L439.214 80.0375C437.083 82.1552 435.385 84.6008 434.142 87.2377L425.196 86.698L423.352 94.5746L431.703 98.1064C431.699 100.955 432.171 103.828 433.148 106.598L426.316 112.654L430.579 119.526L439.074 116.08C441.116 118.15 443.47 119.82 446.008 121.056L445.458 130.214L453.331 132.058L456.883 123.652C459.735 123.693 462.615 123.256 465.395 122.313L471.403 129.093L478.272 124.831L474.904 116.53C477.073 114.447 478.819 112.032 480.103 109.416L488.953 109.948L490.797 102.072L482.73 98.6563ZM463.954 108.982C457.959 112.702 450.086 110.857 446.366 104.859C442.647 98.8612 444.491 90.9847 450.486 87.265C456.48 83.5454 464.353 85.3898 468.073 91.3877C471.789 97.3857 469.948 105.262 463.954 108.982Z" fill="#A9CEEA"/>
<path d="M479.659 100.251C479.724 97.2696 479.266 94.257 478.259 91.3537L484.766 85.5846L480.503 78.7123L472.483 81.9674C470.328 79.737 467.821 77.9574 465.105 76.6697L465.624 68.028L457.751 66.1836L454.363 74.2002C451.388 74.1728 448.382 74.6647 445.492 75.7099L439.679 69.1484L432.81 73.4111L436.144 81.6327C434.012 83.7504 432.315 86.196 431.071 88.8329L422.126 88.2932L420.281 96.1698L428.633 99.7016C428.629 102.55 429.101 105.423 430.077 108.193L423.246 114.249L427.509 121.121L436.004 117.675C438.046 119.745 440.4 121.415 442.937 122.651L442.388 131.809L450.261 133.653L453.813 125.247C456.665 125.288 459.544 124.851 462.325 123.908L468.333 130.689L475.202 126.426L471.834 118.126C474.003 116.042 475.748 113.627 477.033 111.011L485.883 111.544L487.727 103.667L479.659 100.251ZM460.883 110.577C454.889 114.297 447.016 112.452 443.296 106.454C439.576 100.456 441.421 92.5799 447.415 88.8602C453.41 85.1405 461.283 86.985 465.003 92.9829C468.722 98.9808 466.878 106.857 460.883 110.577Z" fill="#C9E2F4"/>
<path d="M422.123 88.2894L424.784 88.45L425.194 86.6943L422.123 88.2894Z" fill="#A9CEEA"/>
<path d="M457.752 66.1801L460.823 64.585L459.931 66.689L457.752 66.1801Z" fill="#A9CEEA"/>
<path d="M439.676 69.1444L442.746 67.5493L439.857 69.3459L439.676 69.1444Z" fill="#A9CEEA"/>
<path d="M450.262 133.649L453.329 132.054L451.15 131.545L450.262 133.649Z" fill="#A9CEEA"/>
<path d="M485.885 111.54L488.955 109.945L486.295 109.785L485.885 111.54Z" fill="#A9CEEA"/>
<path d="M468.334 130.685L471.405 129.09L471.227 128.888L468.334 130.685Z" fill="#A9CEEA"/>
<path d="M264.572 323.185L265.184 324.524L273.385 322.191L272.066 319.722L264.572 323.185Z" fill="#EA1768"/>
<path d="M262.643 319.79L263.148 320.408L267.325 316.142L265.812 314.81L262.643 319.79Z" fill="#EA1768"/>
<path d="M271.436 329.952L271.924 328.087L266.203 327.407L266.21 328.131L271.436 329.952Z" fill="#EA1768"/>
<path d="M244.443 343.163C244.252 342.665 244.03 341.237 243.952 340.438C243.873 339.638 244.867 338.347 246.175 338.877C247.483 339.403 249.355 340.745 248.764 341.568C248.177 342.391 246.927 343.71 246.701 343.997C246.476 344.284 244.635 343.662 244.443 343.163Z" fill="#F49C76"/>
<path d="M243.129 334.972L247.371 343.798C247.371 343.798 247.72 344.816 249.936 342.886C250.179 342.675 250.251 342.326 250.114 342.036C249.871 341.527 249.257 341.138 249.175 340.577C249.024 339.532 248.942 339.273 247.726 337.496C247.282 336.847 247.248 335.7 246.521 334.477C246.469 334.467 246.415 334.457 243.129 334.972Z" fill="#012B6A"/>
<path d="M244.491 328.763C244.491 328.763 243.931 332.493 246.735 334.85C246.735 334.85 255.332 331.694 263.072 335.256C263.072 335.256 257.17 328.828 255.886 318.164C255.886 318.161 255.209 324.032 244.491 328.763Z" fill="#EA1768"/>
<path d="M262.165 325.706C264.088 330.604 264.624 334.898 263.367 335.29C262.11 335.683 259.531 332.032 257.608 327.134C255.685 322.236 255.149 317.942 256.406 317.549C257.666 317.153 260.245 320.808 262.165 325.706Z" fill="#EA1768"/>
<path d="M261.92 325.798C263.798 330.59 264.358 334.771 263.17 335.14C261.981 335.509 259.491 331.926 257.612 327.134C255.734 322.341 255.174 318.161 256.362 317.792C257.551 317.423 260.041 321.009 261.92 325.798Z" fill="#F785B4"/>
<path d="M261.342 325.982C263.04 330.31 263.737 334.03 262.9 334.289C262.06 334.549 260.003 331.249 258.302 326.922C256.605 322.594 255.908 318.875 256.745 318.615C257.585 318.355 259.645 321.655 261.342 325.982Z" fill="white"/>
<path d="M256.648 320.285C256.56 320.312 256.498 320.398 256.457 320.534C256.659 322.078 257.308 324.394 258.301 326.922C259.367 329.634 260.573 331.943 261.529 333.224C261.608 333.258 261.676 333.265 261.738 333.248C262.37 333.053 261.741 329.996 260.334 326.416C258.93 322.833 257.28 320.09 256.648 320.285Z" fill="#E7E7E7"/>
<path d="M257.396 324.394C257.653 325.197 257.957 326.047 258.298 326.922C258.619 327.741 258.954 328.52 259.289 329.248L260.457 328.78C260.648 326.734 258.852 324.326 258.852 324.326L257.396 324.394Z" fill="#EA1768"/>
<path d="M244.491 328.763L240.897 330.409C240.723 330.617 240.474 330.973 240.327 331.468C239.992 332.595 240.45 333.562 240.593 333.859C241.153 335.034 242.171 335.546 242.492 335.693C243.907 335.413 245.324 335.133 246.738 334.853C246.154 334.194 245.485 333.271 244.948 331.587C244.576 330.419 244.491 329.504 244.491 328.763Z" fill="#012B6A"/>
<path d="M242.76 335.54C242.76 335.54 244.02 338.224 244.707 337.36C245.397 336.496 246.736 334.846 246.736 334.846L242.76 335.54Z" fill="#191740"/>
<path d="M246.107 328.514C246.107 328.514 249.93 327.8 253.482 322.444C253.482 322.444 252.187 327.246 246.107 328.514Z" fill="#F785B4"/>
<path d="M249.056 337.76C248.888 337.401 248.516 337.281 248.202 337.316C247.922 337.346 246.876 339.519 246.528 340.154C246.217 340.666 246.917 341.38 247.423 340.584C247.928 339.789 249.165 337.989 249.056 337.76Z" fill="#FEB48C"/>
<path d="M248.227 337.169C248.06 336.81 247.688 336.691 247.374 336.725C247.093 336.756 246.048 338.928 245.7 339.563C245.389 340.076 246.089 340.789 246.595 339.994C247.1 339.198 248.333 337.401 248.227 337.169ZM249.7 338.614C249.754 338.269 249.112 338.009 248.846 338.17C248.617 338.306 247.326 340.557 246.998 341.063C246.83 341.336 247.367 342.074 247.872 341.278C248.381 340.485 249.662 338.853 249.7 338.614Z" fill="#FEB48C"/>
<path d="M250.123 339.686C250.167 339.304 249.726 339.061 249.433 339.215C249.221 339.324 248.09 340.964 247.831 341.469C247.629 341.736 247.909 342.337 248.493 341.677C249.074 341.018 250.095 339.894 250.123 339.686Z" fill="#FEB48C"/>
<path d="M243.95 340.55C243.95 340.55 243.916 339.888 243.875 339.393C243.855 339.153 243.971 339.037 244.388 338.31C244.804 337.579 245.129 337.128 245.129 337.128C245.129 337.128 247.025 337.818 247.346 337.944C247.667 338.074 247.236 339.03 246.215 338.819L245.651 338.767C245.651 338.767 245.86 339.714 245.491 340.499C245.122 341.285 244.032 341.285 243.95 340.55Z" fill="#F49C76"/>
<path d="M246.469 338.852C246.472 338.825 246.452 338.798 246.421 338.794L245.547 338.709L245.557 338.777C245.813 340.27 245.161 340.803 245.154 340.81C245.13 340.827 245.126 340.861 245.143 340.881C245.15 340.888 245.154 340.892 245.164 340.895C245.181 340.902 245.202 340.902 245.219 340.888C245.246 340.864 245.909 340.331 245.673 338.825L246.414 338.897C246.438 338.9 246.465 338.88 246.469 338.852Z" fill="#BA6549"/>
<path d="M243.811 341.954L243.322 343.348L246.7 345.896L247.298 344.219C246.437 342.955 243.811 341.954 243.811 341.954Z" fill="white"/>
<path d="M234.022 341.619C235.89 344.26 238.24 351.856 238.24 351.856C238.24 351.856 238.988 350.104 239.204 351.549L243.507 342.286C243.507 342.286 246.721 343.679 247.295 344.772C247.295 344.772 242.78 360.512 240.204 361.69C237.626 362.872 233.503 357.376 233.503 357.376L231.877 342.699C231.723 341.473 233.882 341.421 234.022 341.619Z" fill="#4484E0"/>
<path d="M235.564 347.624C235.687 345.845 233.801 342.565 232.186 341.94C231.97 342.118 231.837 342.364 231.882 342.695L233.507 357.372C233.507 357.372 235.471 359.985 237.534 361.218C236.629 357.786 235.294 351.566 235.564 347.624Z" fill="#346ED8"/>
<path d="M225.235 440.639L224.869 444.332C224.869 444.332 228.479 445.872 229.122 445.138C229.764 444.407 230.204 444.598 230.204 444.598L230.512 439.929L225.235 440.639Z" fill="#22313B"/>
<path d="M209.488 439.509L209.71 443.051L214.417 442.815L214.974 438.87L209.488 439.509Z" fill="#22313B"/>
<path d="M210.746 379.742C210.746 379.742 210.483 389.008 211.023 394.323C211.563 399.638 212.567 412.918 211.764 416.87C211.026 420.501 208.772 436.401 208.355 441.008C208.307 441.521 208.731 441.958 209.267 441.961C211.341 441.968 214.661 442.313 215.224 441.299C215.952 439.994 221.352 419.794 222.155 415.842C222.957 411.89 224.433 408.618 224.433 408.618C224.433 408.618 224.972 413.932 224.86 417.905L224.194 441.323C224.177 441.897 224.686 442.358 225.28 442.303C227.172 442.132 229.474 442.101 231.011 441.657C231.011 441.657 233.484 426.089 234.379 418.824C235.278 411.562 236.671 385.132 234.772 382.088C232.866 379.045 210.746 379.742 210.746 379.742Z" fill="#3F4752"/>
<path d="M208.351 441.009C208.304 441.521 208.727 441.958 209.263 441.961C209.714 441.961 210.291 441.958 210.92 441.941C211.989 434.502 215.757 413.277 216.484 408.724C217.113 404.782 215.22 387.946 214.223 379.68C212.126 379.697 210.746 379.742 210.746 379.742C210.746 379.742 210.483 389.008 211.022 394.323C211.562 399.638 212.566 412.918 211.764 416.87C211.026 420.504 208.771 436.404 208.351 441.009ZM226.577 393.773C225.812 396.4 224.108 409.379 224.108 409.379C224.303 408.898 224.429 408.618 224.429 408.618C224.429 408.618 224.969 413.932 224.856 417.905L224.19 441.323C224.173 441.897 224.682 442.358 225.276 442.303C226.854 442.16 228.651 442.057 230.458 441.709C229.166 441.449 227.172 440.544 226.659 439.489C226.007 438.146 228.084 413.69 228.084 413.69C226.834 409.017 226.577 393.773 226.577 393.773Z" fill="#2F3740"/>
<path d="M208.942 443.215C208.942 443.215 214.083 441.48 215.336 442.143C215.336 442.143 215.302 443.396 215.92 444.042C216.539 444.687 220.245 448.554 219.592 449.165C218.94 449.773 212.563 450.221 208.785 448.858L208.942 443.215ZM224.815 443.546C224.6 443.522 224.405 443.69 224.402 443.905L224.268 448.643C224.268 448.643 223.677 449.196 227.131 449.295C230.584 449.394 239.789 449.654 240.38 449.1C240.971 448.547 240.411 447.959 237.569 446.733C234.724 445.51 231.615 443.42 230.499 442.245C230.499 442.245 228.196 442.18 228.722 443.908C228.719 443.912 228.183 443.895 224.815 443.546Z" fill="#2D313D"/>
<path d="M218.672 336.585L219.509 333.217L226.794 333.258L227.314 337.548C227.314 337.548 223.638 342.89 218.672 336.585Z" fill="#BA6549"/>
<path d="M230.687 323.824C230.687 323.824 230.632 327.4 230.502 329.309C230.369 331.219 230.123 335.591 226.263 335.963C222.4 336.335 220.354 334.306 219.005 333.398C219.005 333.398 214.698 329.087 215.422 327.858C216.146 326.628 217.048 322.857 220.863 323.12C224.678 323.386 230.687 323.824 230.687 323.824Z" fill="#FEB48C"/>
<path d="M229.752 319.325L222.295 315.725C220.55 314.885 218.449 315.23 217.107 316.627C215.765 318.024 215.017 319.838 215.017 319.838L213.657 321.023C212.298 322.208 212.164 324.118 213.261 326.748C214.357 329.381 219.184 333.552 219.184 333.552C219.819 333.596 218.043 331.554 217.452 330.874C216.861 330.194 215.72 328.196 216.991 328.285C218.265 328.374 219.358 331.007 219.358 331.007C220.126 329.142 219.163 324.599 219.163 324.599C219.163 324.599 222.937 325.501 228.116 324.579C233.294 323.66 234.151 320.521 234.151 320.521C233.277 320.459 232.413 320.268 231.733 320.073C231.05 319.886 230.39 319.633 229.752 319.325Z" fill="#221E52"/>
<path d="M217.241 336.007C217.241 336.007 215.956 339.932 216.636 340.386C217.316 340.841 220.485 342.501 220.485 342.501C220.485 342.501 218.825 344.69 218.825 345.824C218.825 346.958 230.978 361.686 230.978 361.686C230.978 361.686 234.377 345.746 233.622 344.991C232.867 344.236 231.59 342.876 231.59 342.876C231.59 342.876 232.652 339.707 231.59 338.952C230.528 338.197 227.433 337.442 227.433 337.442L225.998 338.651L218.75 334.802L217.241 336.007Z" fill="#F5F5F5"/>
<path d="M234.605 374.516C234.605 373.61 235.06 358.206 235.06 358.206C235.06 358.206 236.72 347.03 234.909 343.105C234.185 341.534 233.072 340.427 231.999 339.659C232.269 340.858 231.593 342.88 231.593 342.88C231.593 342.88 232.87 344.239 233.625 344.994C234.38 345.749 230.981 361.69 230.981 361.69L229.246 379.83L230.305 385.179C230.305 385.179 233.779 385.962 236.419 382.505C236.416 382.501 234.605 375.421 234.605 374.516Z" fill="#4484E0"/>
<path d="M231.227 380.404C231.227 380.404 232.115 362.172 232.833 358.998C233.195 357.403 232.915 355.409 232.549 353.817C231.804 357.827 230.981 361.687 230.981 361.687L229.246 379.827L230.305 385.176C230.305 385.176 232.238 385.61 234.315 384.394C233.382 383.612 232.098 382.286 231.227 380.404Z" fill="#286BCE"/>
<path d="M227.433 337.442L225.999 338.651L218.751 334.802L218.498 335.003L223.639 340.841L225.849 339.235L228.397 340.482L229.749 338.122C228.598 337.729 227.433 337.442 227.433 337.442Z" fill="#9BD4DF"/>
<path d="M227.566 341.842L228.099 340.339L225.845 339.239L223.908 340.646L225.732 342.637L226.921 351.627L230.408 361C230.767 361.437 230.975 361.69 230.975 361.69C230.975 361.69 231.071 361.243 231.225 360.508L227.566 341.842Z" fill="#DE3D73"/>
<path d="M230.411 360.997C225.838 348.082 217.111 336.425 217.111 336.425C216.803 337.443 216.093 340.028 216.636 340.39C217.316 340.845 220.485 342.505 220.485 342.505C220.485 342.505 218.825 344.694 218.825 345.828C218.825 346.808 228.017 358.08 230.411 360.997ZM233.622 344.995C232.867 344.24 231.59 342.88 231.59 342.88C231.59 342.88 232.652 339.711 231.59 338.956C231.18 338.665 230.466 338.375 229.745 338.126C229.793 341.825 231.436 359.477 231.436 359.477C232.338 355.074 234.203 345.572 233.622 344.995Z" fill="#68A9EA"/>
<path d="M230.979 361.686C230.979 361.686 218.826 346.955 218.826 345.824C218.826 344.69 220.486 342.501 220.486 342.501C220.486 342.501 217.317 340.84 216.637 340.386C215.957 339.932 217.241 336.007 217.241 336.007C217.241 336.007 212.258 338.084 208.859 340.84L209.843 360.621L211.261 369.238L209.372 383.704C209.372 383.704 221.542 386.289 228.336 384.705C228.336 384.705 232.185 364.658 231.505 363.073C231.427 362.882 231.246 362.393 230.979 361.686Z" fill="#4484E0"/>
<path d="M219.342 385.019L216.258 378.29C216.258 378.29 212.029 367.268 212.029 365.454C212.029 363.641 214.731 349.711 214.731 349.711L209.775 359.238L209.843 360.624L211.261 369.242L208.859 384.483C208.859 384.483 213.361 384.575 219.342 385.019Z" fill="#286BCE"/>
<path d="M218.813 381.006C218.813 381.006 218.964 378.666 215.79 379.069C215.059 379.161 214.595 378.499 214.264 377.385L211.258 378.465C212.761 381.532 214.011 383.817 214.445 384.237C215.65 385.405 216.364 385.996 217.003 384.855C217.642 383.714 218.936 385.139 219.291 384.094C219.647 383.052 221.344 384.442 221.259 383.209C221.174 381.972 218.813 381.006 218.813 381.006Z" fill="#FBC0A4"/>
<path d="M210.662 378.901L211.547 380.76C211.547 380.76 214.354 380.319 216.1 378.608L215.273 376.869L210.662 378.901Z" fill="#F8E8D8"/>
<path d="M208.859 340.841C208.859 340.841 200.101 360.775 200.706 364.699C201.31 368.624 210.973 380.405 210.973 380.405L216.257 378.29L207.875 363.114C207.879 363.114 222.75 346.504 208.859 340.841Z" fill="#4484E0"/>
<path d="M205.235 369.987C202.858 365.003 204.442 362.458 204.442 362.458C203.988 359.801 207.722 343.495 207.725 343.484C205.378 349.035 200.238 361.663 200.706 364.703C201.184 367.821 207.383 375.896 209.908 379.082C208.671 376.784 206.731 373.119 205.235 369.987Z" fill="#286BCE"/>
<path d="M474.525 288.872C474.525 288.872 476.048 316.706 477.063 322.67C477.063 322.67 476.455 324.248 472.865 325.259C469.278 326.27 467.178 327.277 468.599 328.92C468.599 328.92 482.138 329.235 483.221 328.48C484.304 327.721 483.898 326.522 482.34 323.684C482.34 323.684 484.574 291.686 483.286 288.875H474.525V288.872ZM485.663 288.872C485.663 288.872 485.865 297.045 488.505 302.661C491.146 308.279 496.156 319.575 496.156 321.406C496.156 323.237 496.156 325.949 496.156 325.949C496.156 325.949 499.135 327.841 500.692 324.623C500.692 324.623 500.016 319.763 499.405 315.978C498.797 312.19 496.426 300.577 495.545 296.98C494.664 293.384 494.462 288.872 494.462 288.872H485.663Z" fill="#E8B795"/>
<path d="M472.563 325.344C469.164 326.324 467.221 327.322 468.6 328.917C468.6 328.917 482.14 329.231 483.223 328.476C484.231 327.773 483.947 326.686 482.656 324.258C482.652 324.261 475.845 327.199 472.563 325.344ZM496.155 325.952C496.155 325.952 494.122 327.639 495.191 329.439C496.257 331.239 501.183 329.948 501.794 328.985C502.402 328.022 500.694 324.627 500.694 324.627L496.155 325.952Z" fill="#2D313D"/>
<path d="M486.564 204.012C486.564 204.012 488.985 202.759 490.833 207.647C492.678 212.538 492.773 220.158 492.107 222.754C492.107 222.754 497.466 228.523 493.088 232.294C493.088 232.294 487.052 238.64 486.656 240.277C486.499 239.894 483.91 235.232 479.715 234.972C475.517 234.712 465.178 223.851 470.691 222.16C470.691 222.16 470.281 223.915 472.163 223.495C474.045 223.072 472.86 216.596 472.877 214.304C472.897 212.012 474.277 206.366 478.291 203.968C482.301 201.57 486.922 201.741 486.564 204.012Z" fill="#1C1715"/>
<path d="M479.711 219.093C479.711 219.093 478.843 222.32 478.273 222.751C478.273 222.751 477.703 224.24 479.383 228.448C481.067 232.656 485.326 230.306 486.009 229.159C486.693 228.011 488.195 225.811 486.822 223.625C486.822 223.625 484.94 222.259 485.924 219.294C485.927 219.294 480.012 218.102 479.711 219.093Z" fill="#EBA97A"/>
<path d="M486.662 219.369C486.662 219.369 483.81 221.582 481.477 220.728C479.145 219.874 477.078 217.62 476.439 215.362C475.801 213.105 476.839 208.575 478.407 206.963C479.975 205.351 485.805 204.292 487.441 206.393C489.081 208.49 489.716 216.957 486.662 219.369Z" fill="#FDC596"/>
<path d="M491.919 259.315C491.919 259.315 498.122 262.656 498.463 264.34L491.625 262.154L491.919 259.315Z" fill="#BF027C"/>
<path d="M473.888 261.136C473.888 261.136 471.299 279.317 473.813 290.903C473.813 290.903 492.025 292.29 495.444 290.446C495.444 290.446 496.589 270.495 495.175 261.238L473.888 261.136Z" fill="#314452"/>
<path opacity="0.15" d="M495.444 290.446C495.444 290.446 495.414 288.724 495.608 286.993C494.075 287.761 490.673 289.78 485.481 288.974C478.431 287.881 476.812 273.781 477.642 267.151C477.953 264.675 478.82 262.441 479.787 260.613L473.888 261.136C473.888 261.136 471.299 279.318 473.813 290.903C473.813 290.903 492.025 292.29 495.444 290.446Z" fill="#231F20"/>
<path d="M485.867 222.542C485.867 222.542 480.768 224.776 478.298 222.228C478.298 222.228 467.607 232.94 473.673 261.033C473.673 261.033 494.065 262.085 494.468 262.157C494.871 262.229 493.003 256.064 490.619 254.356C488.251 252.658 474.565 244.775 485.919 222.993C485.997 222.846 485.987 222.761 485.867 222.542Z" fill="#F6F6F6"/>
<path d="M487.784 261.761C471.644 258.099 476.635 241.595 476.081 238.289C475.624 235.539 480.18 226.44 481.728 223.451C480.484 223.461 479.21 223.174 478.298 222.235C478.298 222.235 467.607 232.946 473.673 261.04C473.673 261.04 481.775 261.457 487.869 261.785C487.838 261.775 487.814 261.768 487.784 261.761Z" fill="#DCE2EA"/>
<path d="M470.087 230.798C470.087 230.798 470.408 228.755 471.098 226.067C471.296 225.295 471.812 224.376 472.526 223.936C474.073 222.979 476.56 222.505 478.472 222.228C478.472 222.228 473.154 242.49 473.516 257.925C473.776 259.285 473.889 260.46 473.673 261.033C473.673 261.033 472.406 261.532 470.234 262.987C468.239 264.323 471.006 252.884 471.477 250.991C470.189 243.631 469.332 238.459 470.087 230.798ZM486.021 222.481C486.021 222.481 487.36 222.621 489.198 223.174C489.935 223.4 494.926 225.224 494.588 233.158C494.219 241.725 493.443 248.949 494.676 251.893C495.909 254.837 498.721 259.729 498.874 265.006C492.514 259.879 484.822 254.369 480.611 245.519C474.749 233.209 486.021 222.481 486.021 222.481Z" fill="#F1599A"/>
<path d="M490.602 223.837C492.306 224.896 494.83 227.44 494.584 233.158C494.215 241.725 493.44 248.949 494.673 251.893C495.906 254.838 498.717 259.729 498.871 265.006C498.871 265.006 496.118 256.2 491.633 251.593C491.63 251.589 495.23 233.059 490.602 223.837Z" fill="#DD458E"/>
<path d="M486.544 222.478L482.021 226.214L481.301 223.553L484.928 222.532L486.544 222.478Z" fill="#9CD6E2"/>
<path d="M478.473 222.232L481.127 223.448L478.62 226.334C478.62 226.331 477.4 223.38 478.473 222.232Z" fill="#9CD6E2"/>
<path d="M489.902 226.614C489.902 226.614 492.242 227.519 493.57 225.716C494.899 223.912 492.669 222.826 492.669 222.826C492.669 222.826 494.12 224.654 492.006 224.882C489.892 225.111 489.878 221.562 490.623 219.602C492.768 213.945 491.524 210.226 490.53 208.2C489.536 206.175 487.771 204.689 487.771 204.689L486.561 204.016L485.725 206.069C485.725 206.069 487.248 208.395 488.017 210.54C488.788 212.685 489.116 215.442 487.309 218.994C485.506 222.543 485.055 226.034 489.902 226.614Z" fill="#442B19"/>
<path d="M485.724 206.065L486.561 204.012C486.561 204.012 488.982 202.759 490.83 207.647C491.466 209.327 491.797 211.342 491.93 213.371C491.1 216.411 488.753 219.916 487.476 222.891C485.864 226.648 490.799 225.644 490.799 225.644C490.799 225.644 489.153 228.427 486.68 226.282C483.958 223.922 486.332 220.032 487.37 217.993C488.408 215.953 488.234 212.094 487.237 209.901C486.243 207.708 485.724 206.065 485.724 206.065Z" fill="#513826"/>
<path d="M485.724 206.065C485.724 206.065 480.198 204.6 477.421 211.291C474.644 217.983 478.63 221.067 477.93 223.13C477.23 225.193 475.348 225.49 473.732 223.366C473.732 223.366 475.72 224.647 476.014 223.202C476.311 221.757 473.008 219.636 473.308 214.116C473.414 212.176 473.729 210.509 474.091 209.16C474.941 207.165 476.287 205.16 478.288 203.968C482.302 201.574 486.923 201.741 486.561 204.013L485.724 206.065Z" fill="#442B19"/>
<path d="M463.032 227.7C462.858 227.936 462.018 228.988 460.655 229.384C460.614 229.394 460.57 229.381 460.549 229.343C460.307 228.957 458.964 226.846 458.514 226.658C458.018 226.454 455.856 225.589 456.228 225.033C456.539 224.568 458.066 224.64 458.544 224.674C458.613 224.677 458.66 224.612 458.636 224.548C458.421 223.974 458.695 222.221 459.057 221.026C459.354 220.042 460.054 219.4 460.546 219.332C461.038 219.264 459.76 223.711 463.128 227.232C463.155 227.263 463.056 227.673 463.032 227.7Z" fill="#FBDDB8"/>
<path d="M488.099 227.208C491.133 225.832 494.128 229.275 492.338 232.082C490.624 234.774 487.597 237.981 482.19 240.857C474.556 244.915 472.056 242.227 469.525 240.912C466.57 239.375 459.527 228.725 459.527 228.725L462.864 226.586C462.864 226.586 470.7 237.155 473.607 236.874C474.724 236.765 478.293 234.545 481.965 231.59C483.669 230.217 485.565 228.359 488.099 227.208Z" fill="#F1599A"/>
<defs>
<linearGradient id="paint0_linear_396_1510" x1="346.805" y1="347.603" x2="354.191" y2="367.779" gradientUnits="userSpaceOnUse">
<stop stop-color="#CFD4D8"/>
<stop offset="1" stop-color="#CFD4D8"/>
</linearGradient>
</defs>
</svg>
