<svg width="670" height="406" viewBox="0 0 670 406" fill="none" xmlns="http://www.w3.org/2000/svg">
<path d="M249.917 3.469H248.945V0.0664062H252.348V1.03858H249.917V3.469Z" fill="#30A9FA"/>
<path d="M288.958 1.03858H282.882V0.0664062H288.958V1.03858ZM276.757 1.03858H270.681V0.0664062H276.757V1.03858ZM264.557 1.03858H258.48V0.0664062H264.557V1.03858Z" fill="#30A9FA"/>
<path d="M298.438 3.469H297.466V1.03858H295.035V0.0664062H298.438V3.469Z" fill="#30A9FA"/>
<path d="M298.437 40.0219H297.465V33.9459H298.437V40.0219ZM298.437 27.8212H297.465V21.7452H298.437V27.8212ZM298.437 15.6205H297.465V9.54443H298.437V15.6205Z" fill="#30A9FA"/>
<path d="M298.438 49.5491H295.035V48.5769H297.466V46.1465H298.438V49.5491Z" fill="#30A9FA"/>
<path d="M288.958 49.5493H282.882V48.5771H288.958V49.5493ZM276.757 49.5493H270.681V48.5771H276.757V49.5493ZM264.557 49.5493H258.48V48.5771H264.557V49.5493Z" fill="#30A9FA"/>
<path d="M252.348 49.5491H248.945V46.1465H249.917V48.5769H252.348V49.5491Z" fill="#30A9FA"/>
<path d="M249.917 40.0219H248.945V33.9459H249.917V40.0219ZM249.917 27.8212H248.945V21.7452H249.917V27.8212ZM249.917 15.6205H248.945V9.54443H249.917V15.6205Z" fill="#30A9FA"/>
<path d="M330.079 314.271H285.797V284.911H234.32V105.351H345.099V34.772H298.483V31.8555H348.016V108.268H237.237V281.995H288.713V311.354H327.162V132.864H370.91V135.78H330.079V314.271Z" fill="#30A9FA"/>
<path d="M320.796 76.8672H272.285V125.378H320.796V76.8672Z" fill="#CDE7F9"/>
<path d="M371.883 137.822C373.762 137.822 375.286 136.298 375.286 134.419C375.286 132.54 373.762 131.017 371.883 131.017C370.004 131.017 368.48 132.54 368.48 134.419C368.48 136.298 370.004 137.822 371.883 137.822Z" fill="#FDD047"/>
<path d="M491.462 325.451H420.493V135.878H383.551V132.961H423.41V322.534H488.545V108.657H491.462V325.451Z" fill="#30A9FA"/>
<path d="M308.841 168.154H202.242V209.179H308.841V168.154Z" fill="#CDE7F9"/>
<path d="M505.558 138.114H457.047V186.625H505.558V138.114Z" fill="#CDE7F9"/>
<path d="M454.376 205.291H347.777V255.309H454.376V205.291Z" fill="#CDE7F9"/>
<path d="M568.754 59.4653H418.457V115.171H568.754V59.4653Z" fill="#CDE7F9"/>
<path d="M384.524 137.822C386.403 137.822 387.926 136.298 387.926 134.419C387.926 132.54 386.403 131.017 384.524 131.017C382.644 131.017 381.121 132.54 381.121 134.419C381.121 136.298 382.644 137.822 384.524 137.822Z" fill="#13E0CF"/>
<path d="M487.281 157.313H477.414C476.442 157.313 475.664 158.091 475.664 159.063V167.473H467.887C466.914 167.473 466.137 168.25 466.137 169.223V176.028C466.137 177 466.914 177.778 467.887 177.778H487.233V157.313H487.281Z" fill="#FFCA00"/>
<path d="M485.727 149.342V177.681H494.233C495.205 177.681 495.983 176.903 495.983 175.931V149.342C495.983 148.37 495.205 147.592 494.233 147.592H487.428C486.504 147.641 485.727 148.419 485.727 149.342Z" fill="#F77E00"/>
<path d="M299.069 87.1722C296.541 85.7139 293.284 86.5889 291.777 89.1165L280.792 108.171C279.334 110.699 280.209 113.955 282.736 115.462C285.264 116.921 288.521 116.046 290.027 113.518L301.013 94.4635C302.471 91.8872 301.596 88.6305 299.069 87.1722Z" fill="#FABC04"/>
<path d="M293.724 87.0267C296.252 85.5684 299.509 86.4434 301.016 88.971L312.001 108.026C313.459 110.553 312.585 113.81 310.057 115.317C307.529 116.775 304.272 115.9 302.766 113.372L291.78 94.318C290.322 91.7417 291.197 88.4849 293.724 87.0267Z" fill="#3C8BD9"/>
<path d="M285.411 116.191C288.391 116.191 290.807 113.776 290.807 110.796C290.807 107.816 288.391 105.4 285.411 105.4C282.431 105.4 280.016 107.816 280.016 110.796C280.016 113.776 282.431 116.191 285.411 116.191Z" fill="#34A852"/>
<path d="M507.016 187.889H456.949V184.972H504.099V138.308H507.016V187.889Z" fill="#30A9FA"/>
<path d="M260.031 252.635H211.52V301.146H260.031V252.635Z" fill="#CDE7F9"/>
<path d="M322.305 126.642H272.238V123.725H319.388V77.061H322.305V126.642Z" fill="#30A9FA"/>
<path d="M235.639 262.89L223.924 269.064C223.536 269.258 223.536 269.793 223.924 269.987L235.639 276.063C235.785 276.16 235.979 276.16 236.125 276.063L247.84 269.987C248.229 269.793 248.229 269.258 247.84 269.064L236.125 262.89C235.979 262.793 235.785 262.793 235.639 262.89Z" fill="#0069FF"/>
<path d="M224.454 272.904L220.663 274.897C220.274 275.091 220.274 275.626 220.663 275.82L235.634 283.646C235.78 283.744 235.974 283.744 236.12 283.646L251.092 275.82C251.48 275.626 251.48 275.091 251.092 274.897L247.3 272.904C247.154 272.807 246.96 272.807 246.814 272.904L236.169 278.543C236.023 278.64 235.829 278.64 235.683 278.543L224.892 272.904C224.746 272.807 224.6 272.807 224.454 272.904Z" fill="#0069FF"/>
<path d="M221.396 278.835L217.604 280.828C217.215 281.022 217.215 281.557 217.604 281.751L235.638 291.327C235.784 291.424 235.978 291.424 236.124 291.327L254.352 281.751C254.741 281.557 254.741 281.022 254.352 280.828L250.561 278.835C250.415 278.737 250.22 278.737 250.075 278.835L236.173 286.223C236.027 286.32 235.832 286.32 235.687 286.223L221.882 278.835C221.736 278.786 221.541 278.786 221.396 278.835Z" fill="#0069FF"/>
<path d="M261.551 302.605H211.484V299.688H258.635V252.538H261.551V302.605Z" fill="#30A9FA"/>
<path d="M265.48 179.091H217.066V182.591H265.48V179.091Z" fill="white"/>
<path d="M294.111 186.868H217.066V190.367H294.111V186.868Z" fill="white"/>
<path d="M294.111 194.597H217.066V198.097H294.111V194.597Z" fill="white"/>
<path d="M410.816 220.895H362.402V224.394H410.816V220.895Z" fill="white"/>
<path d="M439.447 228.671H362.402V232.171H439.447V228.671Z" fill="white"/>
<path d="M439.447 236.399H362.402V239.899H439.447V236.399Z" fill="white"/>
<path d="M454.327 102.97C462.784 102.97 469.639 96.1147 469.639 87.6583C469.639 79.2019 462.784 72.3467 454.327 72.3467C445.871 72.3467 439.016 79.2019 439.016 87.6583C439.016 96.1147 445.871 102.97 454.327 102.97Z" fill="#0879F9"/>
<path d="M450.095 96.7485L442.901 89.9433C442.317 89.4086 442.317 88.485 442.852 87.9017C443.387 87.3184 444.31 87.3185 444.894 87.8531L449.998 92.714L462.733 79.6869C463.268 79.1036 464.191 79.1036 464.775 79.6383C465.358 80.173 465.358 81.0966 464.823 81.6799L450.095 96.7485Z" fill="white"/>
<path d="M521.014 78.9575H474.836V82.2629H521.014V78.9575Z" fill="white"/>
<path d="M548.332 86.3452H474.836V89.6506H548.332V86.3452Z" fill="white"/>
<path d="M548.332 93.7344H474.836V97.0398H548.332V93.7344Z" fill="white"/>
<path d="M517.71 367.205L514.453 386.114L512.752 395.884L485.871 396.273L498.509 388.35L498.655 384.267L499.433 365.941L517.71 367.205Z" fill="#FFB1DF"/>
<path d="M516.596 400.259L513.679 389.954C513.679 389.954 500.944 399.433 490.298 393.016L474.063 400.842C472.216 401.815 472.897 404.585 474.987 404.585H513.339C515.575 404.585 517.227 402.398 516.596 400.259Z" fill="#0F0A46"/>
<path d="M587.224 367.205L587.175 384.996L587.127 395.884L560.246 396.273L572.884 388.35L572.544 386.406L568.947 365.941L587.224 367.205Z" fill="#FFB1DF"/>
<path d="M590.967 400.259L588.05 389.954C588.05 389.954 575.315 399.433 564.669 393.016L548.434 400.842C546.587 401.815 547.268 404.585 549.358 404.585H587.71C589.946 404.585 591.599 402.398 590.967 400.259Z" fill="#0F0A46"/>
<path d="M618.527 179.091L595.632 178.264L595.292 162.661L595.146 155.467L595.195 155.273C595.195 155.273 586.98 157.849 586.64 148.127C586.591 146.718 586.299 142.44 586.299 142.44C586.299 142.44 584.598 142.197 583.82 140.447C583.82 140.447 586.397 136.413 586.542 131.357C586.591 129.753 586.785 127.08 588.39 125.281L615.513 134.177L618.527 179.091Z" fill="#FFB1DF"/>
<path d="M602.438 143.169L601.126 142.537C603.216 138.406 602.681 136.996 602.39 136.607C601.806 135.878 600.348 136.218 600.348 136.218L600.008 134.809C600.105 134.809 602.341 134.274 603.508 135.732C604.626 137.045 604.285 139.524 602.438 143.169Z" fill="#D35EAF"/>
<path d="M587.953 148.322C587.904 148.322 587.855 148.322 587.855 148.322L587.904 146.864C587.904 146.864 589.654 146.912 590.821 145.794L591.841 146.864C590.383 148.225 588.439 148.322 587.953 148.322Z" fill="#D35EAF"/>
<path d="M648.32 199.215L663.194 231.685C665.139 235.963 664.021 241.018 660.472 244.032L624.259 274.947L615.023 262.163L643.411 235.817L628.828 205.874L648.32 199.215Z" fill="#FFB1DF"/>
<path d="M570.553 209.471L561.998 216.422L548.582 227.359C545.325 229.984 540.659 229.838 537.596 226.97L503.522 196.104C497.397 192.021 496.376 186.868 496.376 186.868C495.842 185.848 496.911 184.827 496.911 184.827C496.911 183.271 498.466 182.785 498.466 182.785C499.001 181.23 500.508 181.23 500.508 181.23C501.043 179.674 502.55 179.674 502.55 179.674C502.55 179.674 500.994 177.098 498.466 173.55C495.89 169.953 498.466 167.911 498.466 167.911L506.147 177.633L514.847 190.417L543.526 206.263L555.047 196.493L560.442 191.924L570.553 209.471Z" fill="#FFB1DF"/>
<path d="M604.234 149.537C604.234 149.537 602.63 157.995 595.29 162.612L595.145 155.418C598.061 154.884 601.415 152.891 604.234 149.537Z" fill="#D35EAF"/>
<path d="M588.483 137.725C589.127 137.725 589.65 137.203 589.65 136.558C589.65 135.914 589.127 135.392 588.483 135.392C587.839 135.392 587.316 135.914 587.316 136.558C587.316 137.203 587.839 137.725 588.483 137.725Z" fill="#D35EAF"/>
<path d="M589.164 134.031C590.184 134.031 591.011 133.726 591.011 133.35C591.011 132.975 590.184 132.67 589.164 132.67C588.143 132.67 587.316 132.975 587.316 133.35C587.316 133.726 588.143 134.031 589.164 134.031Z" fill="#D35EAF"/>
<path d="M639.135 139.961C637.434 135.148 630.629 131.357 624.018 131.454C624.941 121.149 622.122 110.212 605.547 111.622C605.547 111.622 598.353 109.192 589.603 114.782C583.187 118.913 583.624 128.538 590.429 129.753C591.45 129.996 592.52 130.093 593.443 129.899L593.881 133.058C594.124 134.905 596.311 135.732 597.769 134.517C599.568 133.01 602.047 132.232 605.012 134.662C606.081 135.537 605.887 137.773 605.255 139.961C604.866 140.738 604.477 141.662 604.137 142.731C603.943 143.072 604.186 157.265 615.706 160.668C635.927 166.55 641.906 147.787 639.135 139.961Z" fill="#46105B"/>
<path d="M570.546 209.471L561.991 216.422L554.895 196.638L560.29 192.069L570.546 209.471Z" fill="#D35EAF"/>
<path d="M570.014 271.398L579.736 221.234L577.694 205.874L568.459 213.019L556.695 194.062C556.695 194.062 580.757 170.001 588.923 167.959C597.089 165.918 625.768 167.959 625.768 167.959C625.768 167.959 633.448 169.515 638.552 178.702L651.336 202.763L637.531 207.381L634.372 261.773L570.014 271.398Z" fill="#E7364D"/>
<path d="M517.713 367.205L514.456 386.113C509.206 385.481 503.373 384.801 498.707 384.266L499.436 365.892L517.713 367.205Z" fill="#D35EAF"/>
<path d="M587.222 367.205L587.173 384.996C582.847 385.336 577.452 385.919 572.542 386.406L568.945 365.941L587.222 367.205Z" fill="#D35EAF"/>
<path d="M552.516 273.78L567.779 380.524H595.972L593.93 280.731L552.516 273.78Z" fill="#0F0A46"/>
<path d="M574.733 249.719L535.069 254.434C523.354 255.941 513.875 264.739 511.493 276.308L495.355 380.524H525.541L546.054 289.578L585.913 287.585C585.913 287.585 622.612 281.849 629.466 271.398C636.32 260.947 635.008 256.573 635.008 256.573L574.733 249.719Z" fill="#0F0A46"/>
<path d="M645.063 192.409L638.987 180.986C632.814 169.369 624.113 168.64 624.016 168.64L595.094 168.008L595.142 166.549L624.113 167.181C624.551 167.23 633.737 167.959 640.3 180.306L646.376 191.729L645.063 192.409Z" fill="white"/>
<path d="M584.555 198.808L570.055 210.944L570.991 212.063L585.491 199.926L584.555 198.808Z" fill="white"/>
<path d="M642.294 396.225H586.734V404.682H642.294V396.225Z" fill="#CDE7F9"/>
<path d="M619.738 292.008H609.676V397.44H619.738V292.008Z" fill="#CDE7F9"/>
<path d="M669.999 200.769C669.999 201.45 669.95 202.082 669.95 202.714C669.95 202.86 669.95 203.054 669.95 203.2C668.346 254.871 666.305 264.204 656.194 278.883C639.181 303.576 578.955 295.167 560.338 291.91C559.609 291.765 558.977 291.667 558.394 291.57C556.061 291.133 554.797 290.841 554.797 290.841C554.845 287.098 555.186 286.855 555.623 284.279C556.79 277.765 562.671 273.147 569.282 273.536C579.393 274.12 594.85 275.335 604.086 271.738C614.342 267.752 618.328 238.004 619.446 216.324C620.029 205.241 627.126 200.186 639.521 198.145L666.013 196.541C668.2 196.638 670.048 198.485 669.999 200.769Z" fill="#FF9B2C"/>
<path d="M669.996 203.2H669.898L669.072 203.394L668.878 202.471L668.926 203.443C668.294 203.491 644.476 205.825 634.803 207.088C630.477 207.672 629.553 213.213 629.359 216.421C628.435 233.726 626.977 253.218 621.727 265.613C617.158 276.404 606.61 282.383 591.201 282.869C580.459 283.209 571.029 280.876 569.522 280.439C564.029 281.313 561.404 288.119 560.335 291.91C559.606 291.764 558.974 291.667 558.391 291.57C559.557 287.39 562.62 279.418 569.473 278.494L569.668 278.446L569.862 278.494C569.959 278.494 580.021 281.265 591.201 280.876C605.978 280.39 615.651 274.946 619.978 264.787C625.13 252.683 626.54 233.386 627.463 216.227C627.658 212.387 628.873 205.825 634.56 205.047C639.664 204.366 648.657 203.394 655.316 202.714C659.01 202.325 662.364 201.984 664.843 201.741C666.058 201.596 667.079 201.498 667.76 201.45C668.149 201.401 668.44 201.401 668.732 201.353C669.461 201.353 669.801 201.498 669.898 202.13L669.996 202.568V203.2Z" fill="white"/>
<path d="M130.258 33.3139C130.258 33.3139 146.348 61.0693 120.731 66.7565L94.3854 67.4856C94.3854 67.4856 72.463 61.6526 79.7057 47.7992L89.9135 31.1751C89.9135 31.1751 90.6912 10.6137 106.343 9.00967C106.343 9.00967 136.14 7.94028 135.654 20.4327C135.557 20.4327 134.973 28.5017 130.258 33.3139Z" fill="#46105B"/>
<path d="M101.237 45.3686L98.3201 80.7555L121.069 80.95L119.659 60.5344L119.27 54.7986V54.75C135.165 55.2847 125.006 21.7935 125.006 21.7935C119.999 33.022 109.743 32.1471 109.743 32.1471C101.431 31.1263 99.0492 36.0844 99.0492 36.0844C89.4248 39.8758 101.237 45.3686 101.237 45.3686Z" fill="#FFB1DF"/>
<path d="M122.916 45.7572C121.846 46.9238 119.367 48.7223 116.013 46.4863C115.722 46.2919 115.819 45.8058 116.208 45.7572L122.624 45.0767C122.964 45.0767 123.207 45.5141 122.916 45.7572Z" fill="white"/>
<path d="M118.342 44.4451L117.71 42.5494L118.974 42.1605L117.516 36.5706L119.411 36.0845L121.307 43.4729L118.342 44.4451Z" fill="#D35EAF"/>
<path d="M123.386 36.0613C123.831 35.9629 124.113 35.5219 124.015 35.0762C123.916 34.6306 123.475 34.349 123.03 34.4474C122.584 34.5458 122.302 34.9868 122.401 35.4324C122.499 35.8781 122.94 36.1596 123.386 36.0613Z" fill="#D35EAF"/>
<path d="M112.886 38.6423C113.331 38.5439 113.613 38.1029 113.515 37.6573C113.416 37.2116 112.975 36.9301 112.53 37.0285C112.084 37.1268 111.802 37.5678 111.901 38.0135C111.999 38.4591 112.44 38.7407 112.886 38.6423Z" fill="#D35EAF"/>
<path d="M123.129 33.3185C124.545 32.8152 125.555 32.0176 125.385 31.537C125.214 31.0563 123.927 31.0747 122.51 31.578C121.094 32.0813 120.084 32.8789 120.255 33.3595C120.425 33.8402 121.712 33.8218 123.129 33.3185Z" fill="#D35EAF"/>
<path d="M111.827 35.5425C113.323 35.3953 114.496 34.8645 114.446 34.3569C114.396 33.8493 113.143 33.5571 111.646 33.7042C110.15 33.8514 108.978 34.3822 109.028 34.8898C109.078 35.3975 110.331 35.6897 111.827 35.5425Z" fill="#D35EAF"/>
<path d="M123.449 39.7782C121.408 39.7782 119.415 38.563 118.54 36.5701C117.373 33.8966 118.637 30.7371 121.359 29.6191C124.033 28.4525 127.192 29.7163 128.31 32.4384C129.477 35.1118 128.213 38.2714 125.491 39.3894C124.81 39.6324 124.13 39.7782 123.449 39.7782ZM120.338 35.7923C121.068 37.4936 123.061 38.32 124.762 37.5908C126.463 36.8617 127.289 34.8688 126.56 33.1675C125.831 31.4662 123.838 30.6398 122.137 31.369C120.387 32.0981 119.609 34.091 120.338 35.7923Z" fill="#46105B"/>
<path d="M112.906 42.549C112.226 42.549 111.545 42.4032 110.913 42.1601C109.601 41.6255 108.58 40.6047 107.997 39.2922C106.83 36.6188 108.094 33.4592 110.816 32.3412C113.49 31.1746 116.649 32.4384 117.767 35.1605C118.885 37.8826 117.67 40.9935 114.948 42.1115C114.316 42.4032 113.587 42.549 112.906 42.549ZM109.795 38.5631C110.525 40.2644 112.518 41.0908 114.219 40.3616C115.045 40.0214 115.677 39.3409 116.017 38.5145C116.358 37.6882 116.358 36.7646 115.969 35.9383C115.24 34.237 113.247 33.4106 111.545 34.1397C109.893 34.8689 109.066 36.8618 109.795 38.5631Z" fill="#46105B"/>
<path d="M118.66 33.1383L116.156 33.7466L116.615 35.6359L119.119 35.0277L118.66 33.1383Z" fill="#46105B"/>
<path d="M99.1926 36.9592L97.2969 36.6189C97.4913 35.6468 97.9774 34.9176 98.7551 34.4315C100.165 33.5566 102.012 33.9455 102.547 34.0913L109.109 34.3343L109.06 36.2787L102.255 36.0356L102.158 35.987C101.769 35.8898 100.505 35.6468 99.8245 36.0842C99.5815 36.1815 99.2898 36.3759 99.1926 36.9592Z" fill="#46105B"/>
<path d="M105.031 49.2573C105.031 49.2573 106.198 55.9653 119.662 60.5345L119.274 54.7987C115.093 54.5071 109.6 53.2432 105.031 49.2573Z" fill="#D35EAF"/>
<path d="M56.075 367.205L52.2349 383.683L49.4156 395.884L22.5352 396.273L35.1734 388.349L35.6108 384.801L37.7982 365.941L56.075 367.205Z" fill="#FFB1DF"/>
<path d="M53.8416 400.258L50.9251 389.953C50.9251 389.953 38.1897 399.432 27.5444 393.015L11.3092 400.841C9.46209 401.814 10.1426 404.584 12.2328 404.584H50.5848C52.8208 404.584 54.4735 402.397 53.8416 400.258Z" fill="#0F0A46"/>
<path d="M154.85 396.273L128.018 395.884L125.88 383.78L123.012 367.205L141.289 365.941L141.969 381.544L142.212 388.349L154.85 396.273Z" fill="#FFB1DF"/>
<path d="M124.128 400.258L127.045 389.953C127.045 389.953 139.78 399.432 150.425 393.015L166.661 400.841C168.508 401.814 167.827 404.584 165.737 404.584H127.385C125.149 404.584 123.496 402.397 124.128 400.258Z" fill="#0F0A46"/>
<path d="M56.0814 367.205L52.2413 383.683L35.6172 384.801L37.8046 365.941L56.0814 367.205Z" fill="#D35EAF"/>
<path d="M141.969 381.544L125.88 383.78L123.012 367.205L141.289 365.941L141.969 381.544Z" fill="#D35EAF"/>
<path d="M240.584 0.488126L204.859 32.0732L236.863 68.271L272.587 36.6859L240.584 0.488126Z" fill="#CDE7F9"/>
<path d="M229.317 59.6588C229.317 59.6588 227.227 61.8948 224.942 64.2766C222.755 66.5612 220.324 68.943 219.255 69.7693L209.145 64.7141C209.145 64.2766 212.255 58.2977 213.568 55.7701C213.957 55.041 214.2 54.6035 214.2 54.6035L219.255 37.2017C219.255 37.2017 222.609 40.5556 220.373 49.0135L229.317 59.6588Z" fill="#FFB1DF"/>
<path d="M224.895 64.277C222.708 66.5616 220.278 68.9434 219.208 69.7697L209.098 64.7145C209.098 64.277 212.209 58.2981 213.521 55.7705L224.895 64.277Z" fill="#D35EAF"/>
<path d="M77.4663 173.354C77.4663 173.354 71.0986 183.173 68.6196 199.359L33.2812 381.009H60.2589L107.409 209.664L115.77 378.53H142.748L142.261 189.54C142.261 189.54 139.831 173.354 133.901 168.444L77.4663 173.354Z" fill="#0F0A46"/>
<path d="M42.2256 130.725C44.8991 118.427 59.0442 97.2825 64.1967 84.8387C67.5507 76.6725 79.0709 64.0829 97.8823 63.8398C97.8823 63.8398 112.854 86.54 121.214 67.1452L166.858 86.7344L213.036 56.5972L224.702 71.6658L179.35 109.678C175.753 112.691 170.941 113.858 166.372 112.789L141.533 107.685C141.533 114.49 140.463 119.788 139.102 122.267C137.304 125.475 133.998 130.725 133.998 130.725C133.998 130.725 138.422 168.299 140.852 177.584C140.852 177.584 95.4519 183.028 70.5644 180.111L75.1336 149.925C75.085 149.925 38.7258 146.863 42.2256 130.725Z" fill="#0879F9"/>
<path d="M137.008 147.009L133.168 130.579L133.362 130.287C133.46 130.142 142.89 117.406 140.556 109.094C138.904 103.067 136.862 98.1086 134.092 92.0325L135.404 91.4492C138.175 97.5739 140.216 102.629 141.917 108.754C144.251 117.163 136.133 128.975 134.675 130.968L138.369 146.717L137.008 147.009Z" fill="white"/>
<path d="M106.386 130.773L64.7773 122.315L79.1654 95.7749L80.4293 96.4554L66.9647 121.294L106.678 129.315L106.386 130.773Z" fill="white"/>
<path d="M52.4765 109.045L51.1641 108.365C51.2613 108.122 62.4898 86.248 66.8646 79.1998C76.5377 63.5478 97.6824 63.1104 97.9254 63.1104H98.3143L98.5573 63.4506C103.224 70.2558 107.939 73.9014 112.119 73.95H112.168C116.105 73.95 118.39 70.7905 118.438 70.7905L119.605 71.6168C119.508 71.7627 116.883 75.4083 112.168 75.4083H112.119C107.453 75.3597 102.543 71.7627 97.5851 64.6172C94.7172 64.763 76.6835 66.1727 68.1284 80.0261C63.8023 86.9771 52.5737 108.851 52.4765 109.045Z" fill="white"/>
<path d="M105.078 142.682L110.522 142.973L111.494 143.022C118.008 147.445 126.563 145.841 126.563 145.841C127.778 145.841 147.173 144.091 147.173 144.091C147.173 141.126 141.486 140.203 141.486 140.203L127.875 139.717L126.903 135.828C132.25 136.8 133.222 132.911 133.222 132.911L128.702 129.412C125.591 128.488 113.244 129.46 113.001 129.557L108.724 129.46L105.807 129.412L105.078 142.682Z" fill="#FFB1DF"/>
<path d="M156.167 135.731H128.12C126.808 135.731 125.738 136.8 125.738 138.113C125.738 139.425 126.808 140.495 128.12 140.495H156.167V135.731Z" fill="#82C5F8"/>
<path d="M234.713 96.0664L219.061 138.356C218.575 139.62 217.36 140.495 215.999 140.495H154.558C152.273 140.495 150.718 138.21 151.496 136.071L167.147 93.7818C167.634 92.518 168.849 91.6431 170.21 91.6431H231.651C233.935 91.6431 235.491 93.9277 234.713 96.0664Z" fill="#C1E1FB"/>
<path d="M196.575 116.177C197.496 114.177 196.858 111.919 195.151 111.133C193.444 110.347 191.314 111.331 190.394 113.331C189.473 115.33 190.11 117.588 191.817 118.374C193.524 119.16 195.654 118.176 196.575 116.177Z" fill="white"/>
<path d="M152.181 135.925L150.82 135.439L165.938 94.802C166.764 92.5174 169 90.9619 171.43 90.9619H175.999V92.4202H171.43C169.583 92.4202 167.93 93.5868 167.299 95.2881L152.181 135.925Z" fill="white"/>
<path d="M88.4529 151.675C85.2934 151.675 69.9817 151.334 52.9688 145.55L53.4548 144.189C72.2177 150.605 88.8418 150.265 89.0362 150.265L89.0848 151.723C89.0362 151.675 88.8418 151.675 88.4529 151.675Z" fill="white"/>
<path d="M105.078 142.682L110.571 143.022L108.772 129.509L105.904 129.46L105.078 142.682Z" fill="#D35EAF"/>
<path d="M244.873 17.3216L256.928 30.6403C257.414 31.175 257.365 32.0013 256.831 32.4874L234.957 52.2711C234.422 52.7571 233.596 52.7085 233.11 52.1738L221.055 38.8551C220.569 38.3204 220.617 37.4941 221.152 37.008L243.026 17.2244C243.366 16.8841 243.901 16.8355 244.338 16.9813C244.533 17.0299 244.727 17.1758 244.873 17.3216Z" fill="#3EB0E4"/>
<path d="M244.868 17.3212L247.542 20.2863C248.32 26.9943 246.521 41.5282 234.029 42.0143C231.501 42.1115 223.286 40.07 225.765 37.1049C226.008 36.8132 226.397 36.716 226.738 36.8618C229.8 38.2229 245.986 44.1531 244.382 16.981C244.528 17.0296 244.723 17.1754 244.868 17.3212Z" fill="white"/>
<path d="M109.458 199.593L97.3086 243.691L98.7145 244.078L110.863 199.981L109.458 199.593Z" fill="white"/>
<path d="M173.846 374.739C173.846 374.739 173.846 372.26 162.666 356.414C162.666 356.414 149.931 341.491 156.444 335.609C156.444 335.609 169.18 325.693 178.513 374.739H173.846Z" fill="#2C9EF3"/>
<path d="M183.133 378.433C183.133 378.433 183.133 316.652 207.68 319.423C207.68 319.423 216.673 321.61 207.68 337.456C207.68 337.456 192.174 360.448 190.619 377.51L183.133 378.433Z" fill="#2C9EF3"/>
<path d="M183.763 376.586L182.111 377.461L178.514 379.357C179.583 371.337 178.416 359.087 175.403 352.039C171.028 341.831 155.716 318.159 167.334 312.861C180.555 306.833 184.444 324.429 185.173 342.609C185.805 359.33 183.763 376.586 183.763 376.586Z" fill="#2C9EF3"/>
<path d="M186.048 382.031L184.59 381.885C187.701 349.609 204.082 324.867 204.276 324.624L205.491 325.45C205.346 325.693 189.159 350.143 186.048 382.031Z" fill="white"/>
<path d="M180.459 386.648L179.001 386.454C185.855 338.818 170.251 321.562 170.105 321.416L171.175 320.395C171.321 320.589 175.355 324.916 178.515 335.318C181.431 344.796 184.105 361.421 180.459 386.648Z" fill="white"/>
<path d="M175.355 379.455C173.314 359.671 159.947 343.338 159.801 343.193L160.919 342.269C161.065 342.415 174.724 359.088 176.814 379.309L175.355 379.455Z" fill="white"/>
<path d="M183.767 376.587L182.115 377.462C181.629 368.615 183.719 352.331 185.177 342.658C185.809 359.331 183.767 376.587 183.767 376.587Z" fill="#0C61E7"/>
<path d="M166.848 371.434H197.277V393.842C197.277 399.821 192.416 404.633 186.485 404.633H177.687C171.708 404.633 166.896 399.772 166.896 393.842V371.434H166.848Z" fill="#E8344C"/>
<path d="M666.31 404.44H0.519531V405.899H666.31V404.44Z" fill="#0F0A46"/>
</svg>
