<svg width="397" height="339" viewBox="0 0 397 339" fill="none" xmlns="http://www.w3.org/2000/svg">
<path opacity="0.44" d="M226.371 3.26052C185.706 -4.6892 142.159 2.39839 106.782 19.0834C68.5619 37.1734 36.831 66.5819 15.8938 103.32C3.05859 125.736 -3.88304 151.773 2.27539 176.339C4.82751 185.879 9.29984 194.798 15.4186 202.549C21.5373 210.3 29.1737 216.721 37.8602 221.419C59.8102 233.767 73.1321 231.446 98.4954 229.248C144.361 225.276 190.387 234.648 234.281 247.164C248.952 251.348 263.652 255.92 278.979 257.268C294.305 258.616 310.631 256.407 322.965 248.149C338.507 237.744 345.089 219.804 348.33 202.685C356.697 158.488 346.338 105.723 324.302 70.1771C300.348 31.5359 264.635 10.7412 226.371 3.26052Z" fill="#74CDFD"/>
<path opacity="0.44" d="M238.598 331.11C277.779 315.818 313.241 292.334 342.613 262.23C371.56 232.291 388.228 200.172 394.617 166.103C398.675 144.462 396.179 122.697 382.324 107.539C371.786 96.0079 354.711 89.7038 334.927 89.9997C310.902 90.359 299.63 97.6746 277.419 109.996C237.256 132.278 192.447 144.977 148.509 154.5C133.822 157.683 118.979 160.598 104.655 166.109C90.3322 171.62 76.3041 180.126 67.9264 191.316C57.3698 205.417 57.4623 221.175 60.3006 234.925C67.1893 268.3 88.8629 296.434 119.976 315.272C150.693 333.869 192.835 348.717 238.598 331.11Z" fill="#74CDFD"/>
<path d="M384.903 201.024C384.22 188.311 377.496 183.77 369.288 183.77C366.831 183.767 364.404 184.302 362.176 185.338C361.412 183.459 360.096 181.858 358.4 180.746C356.705 179.634 354.711 179.065 352.684 179.114C350.419 179.04 348.198 179.754 346.399 181.133C344.601 182.512 343.336 184.472 342.82 186.679C340.336 184.776 337.29 183.752 334.161 183.77C331.799 183.73 329.467 184.307 327.395 185.442C325.324 186.577 323.584 188.233 322.347 190.245C320.051 189.136 317.503 188.655 314.962 188.85C311.71 189.013 308.639 190.395 306.361 192.721C304.083 195.048 302.765 198.147 302.67 201.401C302.816 204.453 304.165 207.322 306.422 209.381C308.678 211.44 311.659 212.521 314.711 212.388H372.516C375.673 212.526 378.756 211.408 381.09 209.278C383.424 207.148 384.82 204.18 384.971 201.024L384.903 201.024ZM362.964 111.198C362.521 102.842 358.156 99.8577 352.829 99.8577C351.232 99.856 349.656 100.208 348.212 100.888C347.725 99.6593 346.873 98.6088 345.772 97.8776C344.671 97.1463 343.373 96.7692 342.051 96.7969C340.573 96.7551 339.126 97.2283 337.958 98.1354C336.79 99.0425 335.974 100.327 335.649 101.77C334.042 100.521 332.063 99.8473 330.028 99.8577C328.489 99.835 326.971 100.216 325.626 100.963C324.28 101.71 323.154 102.796 322.359 104.114C320.872 103.385 319.217 103.069 317.566 103.197C315.443 103.318 313.443 104.233 311.964 105.762C310.486 107.291 309.637 109.32 309.587 111.446C309.669 113.439 310.538 115.319 312.003 116.672C313.468 118.026 315.41 118.744 317.403 118.668H354.923C356.985 118.746 358.994 118.004 360.509 116.604C362.025 115.204 362.923 113.26 363.008 111.198H362.964ZM151.948 169.813C151.003 151.696 141.702 145.224 130.348 145.224C126.943 145.221 123.58 145.985 120.51 147.458C119.496 144.811 117.692 142.541 115.343 140.954C112.994 139.367 110.214 138.541 107.38 138.588C104.207 138.517 101.108 139.555 98.6177 141.523C96.1272 143.491 94.401 146.266 93.7363 149.37C90.3302 146.668 86.1056 145.206 81.7579 145.225C78.4622 145.186 75.2149 146.019 72.3449 147.639C69.4749 149.26 67.0844 151.61 65.4156 154.452C62.2543 152.874 58.7229 152.187 55.2006 152.464C50.6381 152.766 46.3562 154.773 43.2059 158.087C40.0556 161.401 38.2676 165.779 38.1973 170.351C38.3338 174.635 40.1643 178.689 43.2872 181.625C46.41 184.56 50.57 186.137 54.854 186.009H134.813C139.244 186.142 143.547 184.511 146.777 181.474C150.007 178.438 151.9 174.244 152.042 169.813H151.948Z" fill="white"/>
<path d="M287.532 229.354C287.495 229.354 287.458 229.35 287.422 229.342C287.354 229.326 287.291 229.296 287.236 229.254C287.182 229.211 287.137 229.158 287.104 229.097L251.436 161.724C251.377 161.61 251.365 161.478 251.403 161.356C251.441 161.234 251.526 161.132 251.639 161.072C251.752 161.013 251.884 161 252.006 161.037C252.128 161.074 252.231 161.158 252.291 161.271L287.701 228.153L349.146 183.978C349.197 183.941 349.256 183.914 349.318 183.9C349.379 183.885 349.444 183.883 349.506 183.893C349.569 183.903 349.629 183.926 349.683 183.959C349.737 183.993 349.784 184.037 349.821 184.088C349.858 184.14 349.885 184.198 349.9 184.26C349.914 184.322 349.916 184.386 349.906 184.449C349.896 184.512 349.873 184.572 349.84 184.626C349.806 184.68 349.763 184.727 349.711 184.764L287.815 229.263C287.733 229.323 287.634 229.354 287.532 229.354Z" fill="#E3E3E3"/>
<path d="M287.533 229.354C287.495 229.354 287.458 229.35 287.422 229.341C287.322 229.318 287.232 229.263 287.165 229.185C287.098 229.106 287.058 229.009 287.05 228.907L282.443 168.816C282.433 168.688 282.475 168.561 282.558 168.464C282.642 168.367 282.761 168.306 282.889 168.297C283.017 168.287 283.143 168.328 283.241 168.412C283.338 168.496 283.399 168.614 283.408 168.743L287.898 227.309L317.95 176.84C318.016 176.73 318.123 176.651 318.247 176.62C318.371 176.589 318.503 176.608 318.613 176.674C318.723 176.739 318.802 176.846 318.834 176.97C318.866 177.094 318.847 177.225 318.782 177.335L287.949 229.118C287.906 229.19 287.845 229.249 287.772 229.291C287.699 229.332 287.616 229.354 287.533 229.354Z" fill="#E3E3E3"/>
<path d="M311.463 126.793C299.155 123.909 286.229 125.368 274.873 130.922C263.518 136.477 254.432 145.787 249.155 157.274C245.338 173.556 349.914 198.073 353.731 181.791C354.109 169.155 350.108 156.778 342.405 146.755C334.701 136.731 323.77 129.679 311.463 126.793Z" fill="#95ACEA"/>
<path d="M311.465 126.793C319.382 128.649 320.574 153.414 315.012 185.021C322.114 186.248 329.295 186.956 336.5 187.141C339.799 156.799 329.737 131.077 311.465 126.793ZM262.217 169.726C268.753 172.763 275.501 175.32 282.408 177.378C291.473 146.592 303.548 124.937 311.465 126.793C293.192 122.509 272.747 141.079 262.217 169.726Z" fill="#FF9F36"/>
<path d="M268.065 220.01C267.89 219.969 267.708 219.963 267.53 219.992C267.352 220.021 267.182 220.085 267.029 220.18C266.876 220.275 266.743 220.399 266.638 220.545C266.532 220.691 266.457 220.857 266.416 221.032L259.749 249.471C259.708 249.646 259.702 249.828 259.731 250.006C259.76 250.183 259.824 250.354 259.919 250.507C260.014 250.66 260.138 250.793 260.284 250.898C260.431 251.003 260.596 251.078 260.772 251.119L292.606 258.582L299.899 227.473L268.065 220.01Z" fill="#FCCA6E"/>
<path d="M308.905 229.584L299.901 227.473L292.607 258.583L301.611 260.694C301.787 260.735 301.969 260.741 302.146 260.712C302.324 260.683 302.494 260.619 302.647 260.524C302.8 260.429 302.933 260.305 303.038 260.158C303.144 260.012 303.219 259.847 303.26 259.671L309.927 231.233C310.01 230.879 309.949 230.506 309.757 230.197C309.566 229.888 309.259 229.667 308.905 229.584Z" fill="#E68227"/>
<path d="M296.89 240.324L263.719 232.548L262.451 237.956L295.622 245.733L296.89 240.324Z" fill="#E68227"/>
<path d="M280.61 222.952L273.316 254.062L278.725 255.33L286.018 224.22L280.61 222.952Z" fill="#E68227"/>
<path d="M265.796 241.84L265.354 243.725L273.04 245.527L273.482 243.642L265.796 241.84ZM264.719 246.432L272.405 248.234L272.847 246.349L265.161 244.547L264.719 246.432ZM264.084 249.14L271.77 250.942L272.212 249.056L264.526 247.254L264.084 249.14Z" fill="#E68227"/>
<path d="M36.0572 179.409C35.9944 179.409 35.9329 179.392 35.8791 179.359C35.8254 179.327 35.7815 179.281 35.7521 179.225L10.3212 131.19C10.2785 131.109 10.2696 131.015 10.2966 130.927C10.3235 130.84 10.3841 130.767 10.465 130.724C10.5458 130.681 10.6404 130.672 10.7279 130.699C10.8153 130.726 10.8886 130.786 10.9315 130.867L36.1771 178.552L79.9855 147.057C80.0598 147.003 80.1523 146.981 80.2426 146.996C80.333 147.011 80.4138 147.061 80.4673 147.135C80.5207 147.209 80.5425 147.302 80.5278 147.392C80.5131 147.483 80.4631 147.563 80.3888 147.617L36.2588 179.344C36.2001 179.386 36.1295 179.409 36.0572 179.409Z" fill="#E3E3E3"/>
<path d="M36.0557 179.409C35.9687 179.409 35.8849 179.376 35.8211 179.317C35.7573 179.258 35.7181 179.177 35.7115 179.09L32.4268 136.247C32.4198 136.156 32.4493 136.066 32.5089 135.996C32.5685 135.927 32.6533 135.884 32.7446 135.877C32.8359 135.87 32.9262 135.899 32.9957 135.959C33.0652 136.018 33.1082 136.103 33.1152 136.194L36.3164 177.951L57.7424 141.968C57.7896 141.89 57.8658 141.834 57.9542 141.812C58.0426 141.79 58.1362 141.803 58.2145 141.85C58.2928 141.897 58.3495 141.972 58.3722 142.061C58.3949 142.149 58.3818 142.243 58.3357 142.321L36.3523 179.24C36.3217 179.291 36.2782 179.334 36.2263 179.364C36.1743 179.393 36.1155 179.409 36.0557 179.409Z" fill="#E3E3E3"/>
<path d="M53.1177 106.286C44.3426 104.229 35.1265 105.27 27.0305 109.23C18.9345 113.191 12.4565 119.828 8.69381 128.018C5.97227 139.626 80.5325 157.106 83.2539 145.498C83.5233 136.489 80.6703 127.664 75.1781 120.518C69.686 113.372 61.8924 108.344 53.1177 106.286Z" fill="#88E1E1"/>
<path d="M53.1222 106.285C58.7669 107.609 59.6167 125.265 55.6507 147.801C60.7142 148.675 65.8346 149.18 70.9713 149.312C73.3236 127.679 66.1499 109.34 53.1222 106.285ZM18.0098 136.896C22.6698 139.06 27.4811 140.884 32.4055 142.351C38.8687 120.401 47.4775 104.962 53.1222 106.285C40.0944 103.231 25.5174 116.471 18.0098 136.896Z" fill="#4DC7F6"/>
<path d="M22.1793 172.747C22.0543 172.718 21.9247 172.713 21.7979 172.734C21.6712 172.755 21.5498 172.8 21.4406 172.868C21.3315 172.936 21.2367 173.024 21.1618 173.129C21.0868 173.233 21.0332 173.351 21.0039 173.476L16.2505 193.752C16.2211 193.877 16.2167 194.006 16.2375 194.133C16.2582 194.26 16.3037 194.381 16.3714 194.49C16.4391 194.6 16.5277 194.694 16.632 194.769C16.7363 194.844 16.8544 194.898 16.9794 194.927L39.6763 200.248L44.8762 178.068L22.1793 172.747Z" fill="#FCCA6E"/>
<path d="M51.2971 179.573L44.8776 178.068L39.6777 200.248L46.0972 201.753C46.3497 201.812 46.6154 201.769 46.8358 201.632C47.0563 201.495 47.2134 201.277 47.2727 201.024L52.026 180.748C52.0852 180.496 52.0417 180.23 51.905 180.01C51.7683 179.789 51.5496 179.632 51.2971 179.573Z" fill="#E68227"/>
<path d="M42.7307 187.231L19.082 181.687L18.1784 185.541L41.8271 191.085L42.7307 187.231Z" fill="#E68227"/>
<path d="M31.1257 174.841L25.9258 197.021L29.7801 197.925L34.98 175.745L31.1257 174.841Z" fill="#E68227"/>
<path d="M20.558 188.31L20.243 189.655L25.7231 190.939L26.0381 189.595L20.558 188.31ZM19.7903 191.585L25.2706 192.87L25.5857 191.525L20.1056 190.24L19.7903 191.585ZM19.3379 193.515L24.8179 194.8L25.1332 193.456L19.6529 192.171L19.3379 193.515Z" fill="#E68227"/>
<path d="M164.984 251.776C164.902 251.776 164.82 251.766 164.74 251.748C164.592 251.713 164.453 251.647 164.333 251.554C164.212 251.461 164.113 251.343 164.042 251.209L85.532 102.915C85.3998 102.665 85.3722 102.373 85.4554 102.103C85.5385 101.833 85.7255 101.607 85.9753 101.475C86.2251 101.342 86.5172 101.315 86.7873 101.398C87.0574 101.481 87.2834 101.668 87.4156 101.918L165.355 249.131L300.6 151.898C300.714 151.816 300.842 151.758 300.979 151.726C301.115 151.694 301.256 151.689 301.394 151.711C301.532 151.734 301.664 151.783 301.783 151.857C301.902 151.931 302.006 152.027 302.087 152.141C302.169 152.254 302.228 152.383 302.26 152.519C302.292 152.655 302.297 152.796 302.274 152.934C302.252 153.072 302.202 153.205 302.128 153.324C302.055 153.443 301.958 153.546 301.845 153.628L165.606 251.575C165.425 251.706 165.207 251.776 164.984 251.776Z" fill="#E3E3E3"/>
<path d="M164.987 251.776C164.905 251.776 164.823 251.766 164.744 251.748C164.523 251.696 164.325 251.575 164.178 251.403C164.031 251.231 163.942 251.017 163.925 250.791L153.784 118.527C153.774 118.388 153.791 118.247 153.834 118.114C153.878 117.981 153.947 117.858 154.038 117.752C154.129 117.646 154.24 117.559 154.365 117.495C154.49 117.432 154.626 117.394 154.766 117.383C154.905 117.373 155.046 117.39 155.179 117.433C155.312 117.477 155.435 117.546 155.541 117.637C155.647 117.728 155.734 117.84 155.797 117.964C155.861 118.089 155.899 118.225 155.909 118.365L165.793 247.275L231.939 136.188C232.011 136.068 232.105 135.962 232.217 135.878C232.33 135.794 232.457 135.733 232.593 135.698C232.729 135.664 232.87 135.656 233.009 135.676C233.148 135.697 233.281 135.744 233.402 135.816C233.522 135.887 233.627 135.982 233.711 136.094C233.795 136.207 233.856 136.335 233.89 136.471C233.924 136.607 233.931 136.748 233.911 136.887C233.89 137.025 233.843 137.159 233.771 137.279L165.903 251.255C165.808 251.414 165.674 251.545 165.514 251.637C165.353 251.728 165.172 251.776 164.987 251.776Z" fill="#E3E3E3"/>
<path d="M217.662 26.0297C190.571 19.6813 162.119 22.8926 137.125 35.1197C112.131 47.3468 92.1316 67.8378 80.5155 93.1215C72.1138 128.959 302.296 182.923 310.698 147.085C311.53 119.273 302.722 92.0289 285.767 69.9672C268.811 47.9055 244.751 32.3832 217.662 26.0297Z" fill="#FDC957"/>
<path d="M217.657 26.0293C235.084 30.1146 237.707 84.6244 225.464 154.195C241.096 156.894 256.903 158.454 272.761 158.861C280.024 92.0754 257.877 35.4583 217.657 26.0293ZM109.258 120.529C123.644 127.212 138.498 132.841 153.701 137.371C173.654 69.6078 200.231 21.9438 217.657 26.0293C177.438 16.6002 132.435 57.4751 109.258 120.529Z" fill="#FE4757"/>
<path d="M122.143 231.209C121.757 231.119 121.357 231.105 120.966 231.169C120.574 231.233 120.2 231.374 119.863 231.583C119.526 231.792 119.233 232.065 119.002 232.387C118.77 232.709 118.605 233.074 118.514 233.46L103.839 296.055C103.749 296.441 103.735 296.841 103.8 297.232C103.864 297.624 104.004 297.999 104.213 298.335C104.422 298.672 104.696 298.965 105.018 299.196C105.34 299.428 105.704 299.593 106.09 299.684L176.16 316.111L192.213 247.636L122.143 231.209Z" fill="#FCCA6E"/>
<path d="M212.03 252.283L192.212 247.637L176.158 316.111L195.977 320.757C196.363 320.848 196.763 320.861 197.154 320.797C197.546 320.733 197.92 320.592 198.257 320.384C198.594 320.175 198.887 319.901 199.118 319.579C199.349 319.257 199.515 318.893 199.606 318.507L214.28 255.912C214.463 255.132 214.329 254.312 213.907 253.631C213.485 252.951 212.81 252.466 212.03 252.283Z" fill="#E68227"/>
<path d="M185.581 275.922L112.572 258.806L109.782 270.709L182.791 287.825L185.581 275.922Z" fill="#E68227"/>
<path d="M149.756 237.684L133.703 306.158L145.605 308.949L161.658 240.474L149.756 237.684Z" fill="#E68227"/>
<path d="M117.148 279.258L116.175 283.408L133.093 287.374L134.066 283.224L117.148 279.258ZM114.778 289.366L131.696 293.333L132.669 289.183L115.751 285.216L114.778 289.366ZM113.381 295.326L130.299 299.292L131.272 295.142L114.354 291.176L113.381 295.326Z" fill="#E68227"/>
</svg>
