<svg width="391" height="362" viewBox="0 0 391 362" fill="none" xmlns="http://www.w3.org/2000/svg">
<path opacity="0.36" d="M28.9069 202.787C12.6467 174.193 1.79226 140.075 12.1344 109.575C21.9488 80.628 50.4197 65.8272 78.411 58.8639C107.68 51.5823 138.408 50.7519 167.99 44.5629C199.025 38.0709 229.531 29.0164 259.028 17.385C272.406 12.11 285.636 6.28821 299.574 2.74637C324.703 -3.63852 355.536 0.391948 371.951 22.4621C389.091 45.5075 389.869 78.8643 377.492 104.244C363.351 133.238 337.988 155.972 328.675 187.462C323.03 206.55 324.36 227.29 317.696 246.018C311.169 264.36 301.299 281.675 287.761 295.759C272.312 311.834 251.935 323.515 229.89 326.882C199.453 331.529 168.799 320.357 141.487 306.147C104.969 287.147 70.9284 261.76 46.0049 228.7C40.096 220.862 34.2147 212.119 28.9079 202.788L28.9069 202.787Z" fill="#E9E9F2"/>
<path d="M218.361 126.22C236.232 108.349 236.232 79.3747 218.361 61.5038C200.491 43.633 171.516 43.633 153.645 61.5038C135.774 79.3747 135.774 108.349 153.645 126.22C171.516 144.091 200.491 144.091 218.361 126.22Z" fill="#FFC82B"/>
<path d="M210.988 91.0384C210.97 90.8751 210.95 90.7118 210.928 90.5485C210.914 90.4515 210.9 90.3556 210.886 90.2587C210.872 90.1637 210.858 90.0678 210.844 89.9729C210.819 89.8096 210.79 89.6473 210.761 89.4851C210.756 89.4565 210.752 89.4279 210.746 89.3993C210.738 89.3555 210.732 89.3116 210.724 89.2677C210.648 88.8625 210.562 88.4614 210.467 88.0624C210.433 87.9165 210.395 87.7705 210.357 87.6256L216.78 83.4597L214.736 78.71L207.295 80.5113C206.973 80 206.634 79.4999 206.273 79.0101C206.256 78.9866 206.239 78.9631 206.221 78.9407C206.123 78.808 206.024 78.6763 205.923 78.5457C205.864 78.4692 205.804 78.3937 205.745 78.3181C205.685 78.2416 205.624 78.165 205.563 78.0895C205.459 77.9609 205.354 77.8344 205.248 77.7078C205.229 77.6864 205.211 77.664 205.193 77.6425C204.8 77.1782 204.392 76.7312 203.969 76.3005L207.449 69.4811L203.304 66.3899L197.761 71.6702C197.227 71.3885 196.682 71.1242 196.126 70.8803C196.099 70.8691 196.073 70.8579 196.046 70.8456C195.895 70.7803 195.743 70.715 195.59 70.6517C195.5 70.615 195.41 70.5792 195.321 70.5435C195.231 70.5078 195.141 70.4711 195.05 70.4364C194.896 70.3772 194.741 70.32 194.586 70.2639C194.558 70.2537 194.532 70.2435 194.504 70.2343C193.932 70.0292 193.355 69.8455 192.773 69.6832L192.378 62.0372L187.242 61.433L185.082 68.778C184.479 68.8004 183.875 68.8453 183.271 68.9117C183.242 68.9147 183.215 68.9188 183.186 68.9219C183.054 68.9372 182.922 68.9515 182.79 68.9688C182.758 68.9729 182.727 68.978 182.694 68.9821C182.597 68.9953 182.501 69.0096 182.405 69.0239C182.309 69.0382 182.215 69.0515 182.119 69.0668C181.955 69.0923 181.793 69.1198 181.631 69.1494C181.607 69.1535 181.585 69.1566 181.561 69.1617C181.556 69.1617 181.55 69.1637 181.545 69.1648C180.947 69.2729 180.355 69.4025 179.772 69.5536L175.606 63.1302L170.857 65.1744L172.658 72.6163C172.531 72.6959 172.404 72.7755 172.278 72.8582C171.935 73.0827 171.598 73.3154 171.264 73.5572C171.228 73.5838 171.192 73.6113 171.157 73.6368C171.153 73.6399 171.147 73.643 171.143 73.647C171.124 73.6613 171.107 73.6756 171.087 73.6889C170.955 73.7869 170.823 73.8859 170.692 73.9869C170.616 74.0461 170.54 74.1053 170.465 74.1655C170.388 74.2257 170.312 74.2859 170.235 74.3471C170.211 74.3676 170.184 74.3869 170.16 74.4074C170.057 74.491 169.956 74.5768 169.855 74.6625C169.832 74.6809 169.81 74.6992 169.788 74.7176C169.324 75.1105 168.877 75.5187 168.446 75.9413L161.627 72.4612L158.536 76.6067L163.817 82.1503C163.536 82.6831 163.272 83.229 163.028 83.7853C163.015 83.8128 163.004 83.8404 162.992 83.8679C162.927 84.0179 162.862 84.169 162.8 84.321C162.762 84.4119 162.727 84.5027 162.691 84.5935C162.655 84.6823 162.619 84.7711 162.585 84.8609C162.524 85.016 162.467 85.1722 162.411 85.3273C162.402 85.3539 162.392 85.3794 162.383 85.4059C162.178 85.9784 161.994 86.5561 161.832 87.1368L154.186 87.5327L153.582 92.6682L160.926 94.8287C160.949 95.4319 160.994 96.036 161.06 96.6402C161.063 96.6688 161.067 96.6963 161.07 96.7249C161.089 96.8892 161.109 97.0525 161.13 97.2168C161.144 97.3138 161.158 97.4097 161.172 97.5056C161.187 97.6016 161.2 97.6965 161.215 97.7924C161.241 97.9557 161.268 98.118 161.298 98.2802C161.303 98.3088 161.307 98.3374 161.313 98.366C161.421 98.964 161.551 99.5559 161.702 100.14L155.279 104.306L157.323 109.055L164.764 107.254C165.086 107.765 165.426 108.265 165.786 108.755C165.803 108.779 165.821 108.802 165.838 108.825C165.936 108.957 166.035 109.089 166.136 109.22C166.195 109.296 166.255 109.372 166.315 109.447C166.375 109.524 166.435 109.6 166.496 109.676C166.6 109.804 166.705 109.931 166.811 110.057C166.83 110.08 166.848 110.101 166.867 110.124C167.259 110.588 167.668 111.035 168.09 111.466L164.61 118.285L168.755 121.376L174.299 116.095C174.832 116.377 175.377 116.641 175.935 116.885C175.96 116.896 175.986 116.907 176.012 116.918C176.164 116.984 176.317 117.049 176.47 117.113C176.559 117.149 176.649 117.184 176.738 117.22C176.828 117.255 176.918 117.292 177.009 117.327C177.163 117.386 177.317 117.443 177.471 117.499C177.499 117.51 177.527 117.52 177.555 117.53C178.128 117.735 178.704 117.919 179.285 118.08L179.681 125.726L184.816 126.33L186.976 118.985C187.579 118.963 188.183 118.918 188.787 118.852C188.816 118.849 188.845 118.844 188.873 118.841C189.005 118.826 189.136 118.812 189.268 118.794C189.3 118.79 189.331 118.785 189.364 118.781C189.461 118.768 189.557 118.754 189.654 118.739C189.749 118.725 189.845 118.712 189.94 118.697C190.103 118.672 190.265 118.644 190.427 118.615C190.451 118.611 190.473 118.608 190.497 118.604C190.502 118.604 190.508 118.602 190.513 118.601C191.111 118.492 191.703 118.363 192.287 118.212L196.452 124.635L201.202 122.591L199.4 115.149C199.912 114.828 200.413 114.488 200.903 114.127C200.907 114.124 200.912 114.121 200.916 114.118C200.934 114.105 200.952 114.092 200.969 114.078C201.103 113.979 201.235 113.88 201.367 113.778C201.442 113.72 201.517 113.661 201.591 113.602C201.669 113.541 201.746 113.48 201.823 113.418C201.848 113.398 201.873 113.378 201.899 113.359C202.001 113.275 202.102 113.191 202.202 113.106C202.224 113.086 202.248 113.068 202.27 113.049C202.734 112.656 203.181 112.248 203.612 111.826L210.432 115.306L213.523 111.161L208.243 105.617C208.525 105.083 208.789 104.538 209.033 103.982C209.045 103.956 209.055 103.929 209.067 103.902C209.133 103.751 209.198 103.599 209.261 103.446C209.265 103.437 209.269 103.428 209.274 103.419C209.277 103.411 209.281 103.402 209.284 103.393C209.313 103.321 209.341 103.248 209.369 103.177C209.405 103.087 209.441 102.997 209.477 102.906C209.536 102.752 209.593 102.597 209.649 102.442C209.659 102.415 209.669 102.388 209.679 102.36C209.884 101.788 210.067 101.211 210.23 100.63L217.875 100.234L218.479 95.0981L211.135 92.9376C211.112 92.3345 211.069 91.7303 211.001 91.1261C210.998 91.0975 210.994 91.0679 210.991 91.0394L210.988 91.0384ZM194.514 112.555C194.384 112.614 194.252 112.669 194.119 112.725C193.999 112.777 193.879 112.83 193.757 112.88C193.726 112.893 193.695 112.906 193.663 112.918C190.646 114.122 187.376 114.599 184.14 114.305C184.107 114.302 184.074 114.299 184.04 114.296C183.896 114.282 183.753 114.263 183.611 114.246C183.481 114.231 183.351 114.217 183.222 114.2C183.188 114.195 183.155 114.191 183.122 114.186C179.906 113.72 176.836 112.498 174.18 110.625C174.153 110.605 174.125 110.586 174.098 110.567C173.981 110.483 173.868 110.396 173.753 110.311C173.648 110.232 173.542 110.155 173.437 110.075C173.411 110.054 173.384 110.033 173.358 110.013C170.806 108.002 168.759 105.408 167.395 102.458C167.381 102.429 167.368 102.398 167.353 102.368C167.293 102.235 167.237 102.1 167.18 101.966C167.129 101.848 167.076 101.73 167.027 101.61C167.015 101.58 167.002 101.548 166.989 101.517C165.784 98.4986 165.307 95.2267 165.602 91.9895C165.605 91.9589 165.607 91.9273 165.61 91.8966C165.625 91.7517 165.643 91.6078 165.66 91.4639C165.676 91.3333 165.689 91.2027 165.707 91.072C165.711 91.0414 165.717 91.0108 165.721 90.9802C166.186 87.7613 167.409 84.6885 169.283 82.0309C169.301 82.0044 169.32 81.9778 169.339 81.9523C169.416 81.8452 169.495 81.7411 169.574 81.636C169.66 81.5196 169.744 81.4033 169.833 81.289C169.853 81.2635 169.873 81.2379 169.893 81.2124C171.905 78.66 174.5 76.6107 177.45 75.2473C177.48 75.234 177.509 75.2197 177.539 75.2064C177.661 75.1513 177.786 75.0993 177.909 75.0462C178.039 74.9901 178.168 74.9329 178.299 74.8789C178.329 74.8666 178.359 74.8554 178.389 74.8431C181.406 73.6379 184.678 73.1613 187.914 73.4552C187.947 73.4582 187.979 73.4613 188.013 73.4644C188.149 73.4776 188.283 73.495 188.418 73.5113C188.557 73.5276 188.695 73.5419 188.833 73.5603C188.866 73.5644 188.899 73.5695 188.93 73.5746C192.147 74.04 195.217 75.2636 197.873 77.1363C197.899 77.1547 197.926 77.1741 197.953 77.1925C198.063 77.271 198.169 77.3527 198.277 77.4333C198.39 77.517 198.504 77.5997 198.616 77.6864C198.641 77.7068 198.668 77.7272 198.693 77.7476C201.245 79.7592 203.294 82.3544 204.657 85.3038C204.67 85.3334 204.684 85.363 204.698 85.3937C204.752 85.5131 204.802 85.6335 204.853 85.7529C204.91 85.8856 204.969 86.0182 205.024 86.1529C205.037 86.1836 205.049 86.2132 205.061 86.2438C206.265 89.2605 206.742 92.5304 206.448 95.7656C206.445 95.8003 206.442 95.835 206.438 95.8707C206.424 96.0013 206.408 96.1309 206.392 96.2616C206.375 96.4024 206.361 96.5443 206.342 96.6841C206.337 96.7188 206.332 96.7535 206.326 96.7882C205.86 100.002 204.639 103.071 202.767 105.725C202.748 105.753 202.728 105.779 202.709 105.807C202.624 105.925 202.535 106.041 202.449 106.157C202.371 106.261 202.296 106.365 202.216 106.467C202.196 106.494 202.174 106.52 202.154 106.547C200.143 109.099 197.549 111.146 194.6 112.511C194.569 112.525 194.54 112.539 194.509 112.553L194.514 112.555Z" fill="white"/>
<path d="M382.223 348.274H11.7773V361.207H382.223V348.274Z" fill="#141921"/>
<path d="M367.348 321.943C367.348 321.072 373.609 304.368 384.216 300.539C380.043 318.288 372.043 324.982 368.74 326.334C367.696 324.727 367.349 321.943 367.349 321.943H367.348ZM367.348 306.979C367.348 306.979 372.739 297.06 384.216 298.452C377.609 302.628 367.348 308.832 367.348 308.832V306.978V306.979ZM368.347 285.889C368.347 285.889 370.652 269.74 385.435 267.304C376.392 279.659 368.347 285.889 368.347 285.889ZM367.837 293.524C367.837 293.524 386.937 282.791 386.937 277.223C385.72 285.923 380.676 293.406 367.46 296.712C367.112 296.363 367.838 293.524 367.838 293.524H367.837ZM377.434 254.253C377.434 254.253 372.043 241.027 377.434 234.415C380.042 238.418 379.695 248.336 377.434 254.253ZM379.263 249.207C379.263 249.207 383.521 240.333 390.999 238.419C387.521 247.293 379.263 249.207 379.263 249.207ZM364.392 264.346C364.392 264.346 357.609 257.559 357.088 249.207C363.001 253.557 364.392 264.346 364.392 264.346ZM353.958 270.784C353.958 270.784 340.915 260.517 339.872 249.207C348.045 253.036 353.958 270.784 353.958 270.784ZM356.218 275.743C356.218 275.743 348.045 275.656 341.959 266.607C348.567 267.999 356.218 275.743 356.218 275.743ZM362.305 296.016C362.305 296.016 343.524 284.357 332.568 285.053C340.742 279.832 357.262 285.053 362.305 296.016ZM366.304 326.334C366.304 326.334 357.609 321.595 355.348 309.588C361.956 309.937 367.695 322.024 366.304 326.334Z" fill="#105243"/>
<path d="M367.241 299.774C367.241 299.774 362.441 290.612 364.326 285.254C367.07 289.208 368.099 296.317 367.241 299.774ZM358.668 283.056C358.668 283.056 362.783 272.462 369.985 270.906C367.927 275.745 358.668 283.056 358.668 283.056Z" fill="#105243"/>
<path d="M353.355 269.163C353.355 269.163 365.132 298.093 367.614 324.717C362.276 282.258 379.222 249.196 379.222 249.196" stroke="#109490" stroke-width="1.99" stroke-miterlimit="10"/>
<path d="M363.979 262.822C363.979 262.822 364.838 273.136 369.29 280.375L363.979 262.822Z" fill="#105243"/>
<path d="M359.044 323.562H374.825C376.385 323.562 377.58 324.96 377.346 326.513L373.995 348.736H359.327L355.936 327.224C355.633 325.301 357.109 323.562 359.044 323.562Z" fill="#FFC82B"/>
<path d="M171.362 132.104H50.8113C45.1974 132.104 40.6465 136.656 40.6465 142.27V330.486C40.6465 336.101 45.1974 340.653 50.8113 340.653H171.362C176.976 340.653 181.527 336.101 181.527 330.486V142.27C181.527 136.656 176.976 132.104 171.362 132.104Z" stroke="#62677C" stroke-width="31" stroke-miterlimit="10"/>
<path d="M75.9283 339.267H58.7201C57.2858 339.267 56.123 340.413 56.123 341.826V345.715C56.123 347.128 57.2858 348.274 58.7201 348.274H75.9283C77.3626 348.274 78.5253 347.128 78.5253 345.715V341.826C78.5253 340.413 77.3626 339.267 75.9283 339.267Z" fill="#62677C"/>
<path d="M163.458 339.267H146.249C144.815 339.267 143.652 340.413 143.652 341.826V345.715C143.652 347.128 144.815 348.274 146.249 348.274H163.458C164.892 348.274 166.055 347.128 166.055 345.715V341.826C166.055 340.413 164.892 339.267 163.458 339.267Z" fill="#62677C"/>
<path d="M325.639 132.104H205.089C199.475 132.104 194.924 136.656 194.924 142.27V330.486C194.924 336.101 199.475 340.653 205.089 340.653H325.639C331.253 340.653 335.804 336.101 335.804 330.486V142.27C335.804 136.656 331.253 132.104 325.639 132.104Z" stroke="#62677C" stroke-width="31" stroke-miterlimit="10"/>
<path d="M230.153 339.204H212.863C211.422 339.204 210.254 340.372 210.254 341.813V345.78C210.254 347.221 211.422 348.389 212.863 348.389H230.153C231.594 348.389 232.763 347.221 232.763 345.78V341.813C232.763 340.372 231.594 339.204 230.153 339.204Z" fill="#62677C"/>
<path d="M317.718 339.204H300.428C298.987 339.204 297.818 340.372 297.818 341.813V345.78C297.818 347.221 298.987 348.389 300.428 348.389H317.718C319.159 348.389 320.327 347.221 320.327 345.78V341.813C320.327 340.372 319.159 339.204 317.718 339.204Z" fill="#62677C"/>
<path d="M172.933 150.638H49.2598V168.499H172.933V150.638Z" fill="#3B3D50"/>
<path d="M79.8812 153.173H53.459V159.044H79.8812V153.173Z" fill="#62677C"/>
<path d="M57.7307 153.173H53.459V159.044H57.7307V153.173Z" fill="#FAAB5C"/>
<path d="M57.7307 160.094H53.459V165.965H57.7307V160.094Z" fill="#93B0DC"/>
<path d="M108.231 160.094H81.8086V165.965H108.231V160.094Z" fill="#62677C"/>
<path d="M86.0803 160.094H81.8086V165.965H86.0803V160.094Z" fill="#105243"/>
<path d="M136.582 160.094H110.16V165.965H136.582V160.094Z" fill="#62677C"/>
<path d="M114.432 160.094H110.16V165.965H114.432V160.094Z" fill="#93B0DC"/>
<path d="M164.932 160.094H138.51V165.964H164.932V160.094Z" fill="#62677C"/>
<path d="M142.781 160.094H138.51V165.964H142.781V160.094Z" fill="white"/>
<path d="M86.0803 153.173H81.8086V159.044H86.0803V153.173Z" fill="#93B0DC"/>
<path d="M169.131 153.173H110.496V159.044H169.131V153.173Z" fill="#62677C"/>
<path d="M136.612 153.841H132.609V155.642H136.612V153.841Z" fill="#93B0DC"/>
<path d="M145.717 153.841H141.715V155.642H145.717V153.841Z" fill="#93B0DC"/>
<path d="M172.933 174.927H49.2598V192.789H172.933V174.927Z" fill="#3B3D50"/>
<path d="M79.8812 177.462H53.459V183.333H79.8812V177.462Z" fill="#62677C"/>
<path d="M57.7307 177.462H53.459V183.333H57.7307V177.462Z" fill="#FAAB5C"/>
<path d="M57.7307 184.383H53.459V190.254H57.7307V184.383Z" fill="#93B0DC"/>
<path d="M108.231 184.383H81.8086V190.254H108.231V184.383Z" fill="#62677C"/>
<path d="M86.0803 184.383H81.8086V190.254H86.0803V184.383Z" fill="#105243"/>
<path d="M136.582 184.383H110.16V190.254H136.582V184.383Z" fill="#62677C"/>
<path d="M114.432 184.383H110.16V190.254H114.432V184.383Z" fill="#93B0DC"/>
<path d="M164.932 184.383H138.51V190.254H164.932V184.383Z" fill="#62677C"/>
<path d="M142.781 184.383H138.51V190.254H142.781V184.383Z" fill="white"/>
<path d="M86.0803 177.462H81.8086V183.333H86.0803V177.462Z" fill="#93B0DC"/>
<path d="M169.131 177.462H110.496V183.333H169.131V177.462Z" fill="#62677C"/>
<path d="M136.612 178.131H132.609V179.932H136.612V178.131Z" fill="#93B0DC"/>
<path d="M145.717 178.131H141.715V179.932H145.717V178.131Z" fill="#93B0DC"/>
<path d="M172.933 199.216H49.2598V217.077H172.933V199.216Z" fill="#3B3D50"/>
<path d="M79.8812 201.752H53.459V207.622H79.8812V201.752Z" fill="#62677C"/>
<path d="M57.7307 201.752H53.459V207.622H57.7307V201.752Z" fill="#FAAB5C"/>
<path d="M57.7307 208.672H53.459V214.543H57.7307V208.672Z" fill="#93B0DC"/>
<path d="M108.231 208.672H81.8086V214.543H108.231V208.672Z" fill="#62677C"/>
<path d="M86.0803 208.672H81.8086V214.543H86.0803V208.672Z" fill="#105243"/>
<path d="M136.582 208.672H110.16V214.543H136.582V208.672Z" fill="#62677C"/>
<path d="M114.432 208.672H110.16V214.543H114.432V208.672Z" fill="#93B0DC"/>
<path d="M164.932 208.672H138.51V214.543H164.932V208.672Z" fill="#62677C"/>
<path d="M142.781 208.672H138.51V214.543H142.781V208.672Z" fill="white"/>
<path d="M86.0803 201.752H81.8086V207.622H86.0803V201.752Z" fill="#93B0DC"/>
<path d="M169.131 201.752H110.496V207.622H169.131V201.752Z" fill="#62677C"/>
<path d="M136.612 202.419H132.609V204.22H136.612V202.419Z" fill="#93B0DC"/>
<path d="M145.717 202.419H141.715V204.22H145.717V202.419Z" fill="#93B0DC"/>
<path d="M172.933 223.505H49.2598V241.366H172.933V223.505Z" fill="#3B3D50"/>
<path d="M79.8812 226.04H53.459V231.911H79.8812V226.04Z" fill="#62677C"/>
<path d="M57.7307 226.04H53.459V231.911H57.7307V226.04Z" fill="#FAAB5C"/>
<path d="M57.7307 232.961H53.459V238.832H57.7307V232.961Z" fill="#93B0DC"/>
<path d="M108.231 232.961H81.8086V238.832H108.231V232.961Z" fill="#62677C"/>
<path d="M86.0803 232.961H81.8086V238.832H86.0803V232.961Z" fill="#105243"/>
<path d="M136.582 232.961H110.16V238.832H136.582V232.961Z" fill="#62677C"/>
<path d="M114.432 232.961H110.16V238.832H114.432V232.961Z" fill="#93B0DC"/>
<path d="M164.932 232.961H138.51V238.832H164.932V232.961Z" fill="#62677C"/>
<path d="M142.781 232.961H138.51V238.832H142.781V232.961Z" fill="white"/>
<path d="M86.0803 226.04H81.8086V231.911H86.0803V226.04Z" fill="#93B0DC"/>
<path d="M169.131 226.04H110.496V231.911H169.131V226.04Z" fill="#62677C"/>
<path d="M136.612 226.708H132.609V228.509H136.612V226.708Z" fill="#93B0DC"/>
<path d="M145.717 226.708H141.715V228.509H145.717V226.708Z" fill="#93B0DC"/>
<path d="M172.933 247.648H49.2598V265.51H172.933V247.648Z" fill="#3B3D50"/>
<path d="M79.8812 250.183H53.459V256.054H79.8812V250.183Z" fill="#62677C"/>
<path d="M57.7307 250.183H53.459V256.054H57.7307V250.183Z" fill="#FAAB5C"/>
<path d="M57.7307 257.104H53.459V262.975H57.7307V257.104Z" fill="#93B0DC"/>
<path d="M108.231 257.104H81.8086V262.975H108.231V257.104Z" fill="#62677C"/>
<path d="M86.0803 257.104H81.8086V262.975H86.0803V257.104Z" fill="#105243"/>
<path d="M136.582 257.104H110.16V262.975H136.582V257.104Z" fill="#62677C"/>
<path d="M114.432 257.104H110.16V262.975H114.432V257.104Z" fill="#93B0DC"/>
<path d="M164.932 257.104H138.51V262.975H164.932V257.104Z" fill="#62677C"/>
<path d="M142.781 257.104H138.51V262.975H142.781V257.104Z" fill="white"/>
<path d="M86.0803 250.183H81.8086V256.054H86.0803V250.183Z" fill="#93B0DC"/>
<path d="M169.131 250.183H110.496V256.054H169.131V250.183Z" fill="#62677C"/>
<path d="M136.612 250.852H132.609V252.653H136.612V250.852Z" fill="#93B0DC"/>
<path d="M145.717 250.852H141.715V252.653H145.717V250.852Z" fill="#93B0DC"/>
<path d="M172.933 271.938H49.2598V289.799H172.933V271.938Z" fill="#3B3D50"/>
<path d="M79.8812 274.473H53.459V280.343H79.8812V274.473Z" fill="#62677C"/>
<path d="M57.7307 274.473H53.459V280.343H57.7307V274.473Z" fill="#FAAB5C"/>
<path d="M57.7307 281.394H53.459V287.264H57.7307V281.394Z" fill="#93B0DC"/>
<path d="M108.231 281.394H81.8086V287.264H108.231V281.394Z" fill="#62677C"/>
<path d="M86.0803 281.394H81.8086V287.264H86.0803V281.394Z" fill="#105243"/>
<path d="M136.582 281.394H110.16V287.264H136.582V281.394Z" fill="#62677C"/>
<path d="M114.432 281.394H110.16V287.264H114.432V281.394Z" fill="#93B0DC"/>
<path d="M164.932 281.393H138.51V287.264H164.932V281.393Z" fill="#62677C"/>
<path d="M142.781 281.393H138.51V287.264H142.781V281.393Z" fill="white"/>
<path d="M86.0803 274.473H81.8086V280.343H86.0803V274.473Z" fill="#93B0DC"/>
<path d="M169.131 274.473H110.496V280.343H169.131V274.473Z" fill="#62677C"/>
<path d="M136.612 275.141H132.609V276.942H136.612V275.141Z" fill="#93B0DC"/>
<path d="M145.717 275.141H141.715V276.942H145.717V275.141Z" fill="#93B0DC"/>
<path d="M172.933 296.226H49.2598V314.088H172.933V296.226Z" fill="#3B3D50"/>
<path d="M79.8812 298.762H53.459V304.633H79.8812V298.762Z" fill="#62677C"/>
<path d="M57.7307 298.762H53.459V304.633H57.7307V298.762Z" fill="#FAAB5C"/>
<path d="M57.7307 305.682H53.459V311.553H57.7307V305.682Z" fill="#93B0DC"/>
<path d="M108.231 305.682H81.8086V311.553H108.231V305.682Z" fill="#62677C"/>
<path d="M86.0803 305.682H81.8086V311.553H86.0803V305.682Z" fill="#105243"/>
<path d="M136.582 305.682H110.16V311.553H136.582V305.682Z" fill="#62677C"/>
<path d="M114.432 305.682H110.16V311.553H114.432V305.682Z" fill="#93B0DC"/>
<path d="M164.932 305.682H138.51V311.553H164.932V305.682Z" fill="#62677C"/>
<path d="M142.781 305.682H138.51V311.553H142.781V305.682Z" fill="white"/>
<path d="M86.0803 298.762H81.8086V304.633H86.0803V298.762Z" fill="#93B0DC"/>
<path d="M169.131 298.762H110.496V304.633H169.131V298.762Z" fill="#62677C"/>
<path d="M136.612 299.43H132.609V301.231H136.612V299.43Z" fill="#93B0DC"/>
<path d="M145.717 299.43H141.715V301.231H145.717V299.43Z" fill="#93B0DC"/>
<path d="M327.121 150.638H203.447V168.499H327.121V150.638Z" fill="#3B3D50"/>
<path d="M234.071 153.173H207.648V159.044H234.071V153.173Z" fill="#62677C"/>
<path d="M211.92 153.173H207.648V159.044H211.92V153.173Z" fill="#FAAB5C"/>
<path d="M211.92 160.094H207.648V165.964H211.92V160.094Z" fill="#93B0DC"/>
<path d="M262.42 160.094H235.998V165.964H262.42V160.094Z" fill="#62677C"/>
<path d="M240.27 160.094H235.998V165.964H240.27V160.094Z" fill="#105243"/>
<path d="M290.77 160.094H264.348V165.964H290.77V160.094Z" fill="#62677C"/>
<path d="M268.619 160.094H264.348V165.964H268.619V160.094Z" fill="#93B0DC"/>
<path d="M319.119 160.094H292.697V165.964H319.119V160.094Z" fill="#62677C"/>
<path d="M296.969 160.094H292.697V165.964H296.969V160.094Z" fill="white"/>
<path d="M240.27 153.173H235.998V159.044H240.27V153.173Z" fill="#93B0DC"/>
<path d="M323.318 153.173H264.684V159.044H323.318V153.173Z" fill="#62677C"/>
<path d="M290.799 153.841H286.797V155.642H290.799V153.841Z" fill="#93B0DC"/>
<path d="M299.905 153.841H295.902V155.642H299.905V153.841Z" fill="#93B0DC"/>
<path d="M327.121 174.927H203.447V192.789H327.121V174.927Z" fill="#3B3D50"/>
<path d="M234.071 177.462H207.648V183.333H234.071V177.462Z" fill="#62677C"/>
<path d="M211.92 177.462H207.648V183.333H211.92V177.462Z" fill="#FAAB5C"/>
<path d="M211.92 184.383H207.648V190.254H211.92V184.383Z" fill="#93B0DC"/>
<path d="M262.42 184.383H235.998V190.254H262.42V184.383Z" fill="#62677C"/>
<path d="M240.27 184.383H235.998V190.254H240.27V184.383Z" fill="#105243"/>
<path d="M290.77 184.383H264.348V190.254H290.77V184.383Z" fill="#62677C"/>
<path d="M268.619 184.383H264.348V190.254H268.619V184.383Z" fill="#93B0DC"/>
<path d="M319.119 184.383H292.697V190.254H319.119V184.383Z" fill="#62677C"/>
<path d="M296.969 184.383H292.697V190.254H296.969V184.383Z" fill="white"/>
<path d="M240.27 177.462H235.998V183.333H240.27V177.462Z" fill="#93B0DC"/>
<path d="M323.318 177.462H264.684V183.333H323.318V177.462Z" fill="#62677C"/>
<path d="M290.799 178.13H286.797V179.932H290.799V178.13Z" fill="#93B0DC"/>
<path d="M299.905 178.13H295.902V179.932H299.905V178.13Z" fill="#93B0DC"/>
<path d="M327.121 199.216H203.447V217.077H327.121V199.216Z" fill="#3B3D50"/>
<path d="M234.071 201.752H207.648V207.622H234.071V201.752Z" fill="#62677C"/>
<path d="M211.92 201.752H207.648V207.622H211.92V201.752Z" fill="#FAAB5C"/>
<path d="M211.92 208.672H207.648V214.543H211.92V208.672Z" fill="#93B0DC"/>
<path d="M262.42 208.672H235.998V214.543H262.42V208.672Z" fill="#62677C"/>
<path d="M240.27 208.672H235.998V214.543H240.27V208.672Z" fill="#105243"/>
<path d="M290.77 208.672H264.348V214.543H290.77V208.672Z" fill="#62677C"/>
<path d="M268.619 208.672H264.348V214.543H268.619V208.672Z" fill="#93B0DC"/>
<path d="M319.119 208.672H292.697V214.543H319.119V208.672Z" fill="#62677C"/>
<path d="M296.969 208.672H292.697V214.543H296.969V208.672Z" fill="white"/>
<path d="M240.27 201.752H235.998V207.622H240.27V201.752Z" fill="#93B0DC"/>
<path d="M323.318 201.752H264.684V207.622H323.318V201.752Z" fill="#62677C"/>
<path d="M290.799 202.419H286.797V204.22H290.799V202.419Z" fill="#93B0DC"/>
<path d="M299.905 202.419H295.902V204.22H299.905V202.419Z" fill="#93B0DC"/>
<path d="M327.121 223.505H203.447V241.366H327.121V223.505Z" fill="#3B3D50"/>
<path d="M234.071 226.04H207.648V231.911H234.071V226.04Z" fill="#62677C"/>
<path d="M211.92 226.04H207.648V231.911H211.92V226.04Z" fill="#FAAB5C"/>
<path d="M211.92 232.961H207.648V238.832H211.92V232.961Z" fill="#93B0DC"/>
<path d="M262.42 232.961H235.998V238.832H262.42V232.961Z" fill="#62677C"/>
<path d="M240.27 232.961H235.998V238.832H240.27V232.961Z" fill="#105243"/>
<path d="M290.77 232.961H264.348V238.832H290.77V232.961Z" fill="#62677C"/>
<path d="M268.619 232.961H264.348V238.832H268.619V232.961Z" fill="#93B0DC"/>
<path d="M319.119 232.961H292.697V238.832H319.119V232.961Z" fill="#62677C"/>
<path d="M296.969 232.961H292.697V238.832H296.969V232.961Z" fill="white"/>
<path d="M240.27 226.04H235.998V231.911H240.27V226.04Z" fill="#93B0DC"/>
<path d="M323.318 226.04H264.684V231.911H323.318V226.04Z" fill="#62677C"/>
<path d="M290.799 226.708H286.797V228.509H290.799V226.708Z" fill="#93B0DC"/>
<path d="M299.905 226.708H295.902V228.509H299.905V226.708Z" fill="#93B0DC"/>
<path d="M327.121 247.648H203.447V265.51H327.121V247.648Z" fill="#3B3D50"/>
<path d="M234.071 250.183H207.648V256.054H234.071V250.183Z" fill="#62677C"/>
<path d="M211.92 250.183H207.648V256.054H211.92V250.183Z" fill="#FAAB5C"/>
<path d="M211.92 257.104H207.648V262.975H211.92V257.104Z" fill="#93B0DC"/>
<path d="M262.42 257.104H235.998V262.975H262.42V257.104Z" fill="#62677C"/>
<path d="M240.27 257.104H235.998V262.975H240.27V257.104Z" fill="#105243"/>
<path d="M290.77 257.104H264.348V262.975H290.77V257.104Z" fill="#62677C"/>
<path d="M268.619 257.104H264.348V262.975H268.619V257.104Z" fill="#93B0DC"/>
<path d="M319.119 257.104H292.697V262.975H319.119V257.104Z" fill="#62677C"/>
<path d="M296.969 257.104H292.697V262.975H296.969V257.104Z" fill="white"/>
<path d="M240.27 250.183H235.998V256.054H240.27V250.183Z" fill="#93B0DC"/>
<path d="M323.318 250.183H264.684V256.054H323.318V250.183Z" fill="#62677C"/>
<path d="M290.799 250.852H286.797V252.653H290.799V250.852Z" fill="#93B0DC"/>
<path d="M299.905 250.852H295.902V252.653H299.905V250.852Z" fill="#93B0DC"/>
<path d="M327.121 271.938H203.447V289.799H327.121V271.938Z" fill="#3B3D50"/>
<path d="M234.071 274.473H207.648V280.343H234.071V274.473Z" fill="#62677C"/>
<path d="M211.92 274.473H207.648V280.343H211.92V274.473Z" fill="#FAAB5C"/>
<path d="M211.92 281.393H207.648V287.264H211.92V281.393Z" fill="#93B0DC"/>
<path d="M262.42 281.393H235.998V287.264H262.42V281.393Z" fill="#62677C"/>
<path d="M240.27 281.393H235.998V287.264H240.27V281.393Z" fill="#105243"/>
<path d="M290.77 281.393H264.348V287.264H290.77V281.393Z" fill="#62677C"/>
<path d="M268.619 281.393H264.348V287.264H268.619V281.393Z" fill="#93B0DC"/>
<path d="M319.119 281.393H292.697V287.264H319.119V281.393Z" fill="#62677C"/>
<path d="M296.969 281.393H292.697V287.264H296.969V281.393Z" fill="white"/>
<path d="M240.27 274.473H235.998V280.343H240.27V274.473Z" fill="#93B0DC"/>
<path d="M323.318 274.473H264.684V280.343H323.318V274.473Z" fill="#62677C"/>
<path d="M290.799 275.141H286.797V276.942H290.799V275.141Z" fill="#93B0DC"/>
<path d="M299.905 275.141H295.902V276.942H299.905V275.141Z" fill="#93B0DC"/>
<path d="M327.121 296.226H203.447V314.088H327.121V296.226Z" fill="#3B3D50"/>
<path d="M234.071 298.762H207.648V304.633H234.071V298.762Z" fill="#62677C"/>
<path d="M211.92 298.762H207.648V304.633H211.92V298.762Z" fill="#FAAB5C"/>
<path d="M211.92 305.682H207.648V311.553H211.92V305.682Z" fill="#93B0DC"/>
<path d="M262.42 305.682H235.998V311.553H262.42V305.682Z" fill="#62677C"/>
<path d="M240.27 305.682H235.998V311.553H240.27V305.682Z" fill="#105243"/>
<path d="M290.77 305.682H264.348V311.553H290.77V305.682Z" fill="#62677C"/>
<path d="M268.619 305.682H264.348V311.553H268.619V305.682Z" fill="#93B0DC"/>
<path d="M319.119 305.682H292.697V311.553H319.119V305.682Z" fill="#62677C"/>
<path d="M296.969 305.682H292.697V311.553H296.969V305.682Z" fill="white"/>
<path d="M240.27 298.762H235.998V304.633H240.27V298.762Z" fill="#93B0DC"/>
<path d="M323.318 298.762H264.684V304.633H323.318V298.762Z" fill="#62677C"/>
<path d="M290.799 299.43H286.797V301.231H290.799V299.43Z" fill="#93B0DC"/>
<path d="M299.905 299.43H295.902V301.231H299.905V299.43Z" fill="#93B0DC"/>
<path d="M80.7662 199.374C80.7662 199.374 80.2733 196.555 79.6988 191.234C79.162 186.27 78.6528 181.161 76.8619 176.516C74.9964 171.676 71.6003 168.031 67.1112 166.104C62.6415 164.186 57.633 163.713 52.9225 164.852C46.8966 166.309 41.9064 170.738 39.0154 176.631C37.0959 180.544 35.9846 184.865 35.1937 189.21C34.263 194.327 33.2528 198.07 33.1568 198.593C29.8178 216.697 19.8427 247.608 24.0052 249.433C24.6716 249.725 26.1217 249.455 27.7769 249.15C29.0066 248.923 30.1934 248.569 31.3231 248.104C31.9374 248.494 32.5762 248.847 33.2375 249.162C34.3273 258.061 41.7697 265.079 51.0081 265.369C55.2696 265.503 59.2362 264.179 62.4384 261.854C63.263 262.023 64.111 262.129 64.9815 262.157C72.7493 262.401 79.3059 256.627 80.1815 249.043C81.503 249.648 82.2857 249.469 82.6633 249.325C87.1268 247.621 84.3981 231.897 80.7672 199.375L80.7662 199.374Z" fill="#121212"/>
<path d="M31.418 285.784H79.9233V309.341H31.418V285.784Z" fill="#F2A397"/>
<path d="M80.2099 300.306C85.899 305.904 88.1369 333.469 87.8369 348.918H20.1201C18.4189 344.742 16.3984 338.124 16.6157 329.919C16.9005 319.201 20.8364 312.083 25.3755 303.875C26.0092 302.729 26.6654 301.626 80.2088 300.306H80.2099Z" fill="#202E49"/>
<path d="M69.0165 234.644C69.0165 234.644 60.3036 244.422 63.2018 247.559C68.9399 254.005 84.2032 266.121 89.2046 270.132C89.4209 270.297 89.6668 270.419 89.9301 270.488C90.1934 270.557 90.4669 270.575 90.7363 270.538C91.0057 270.501 91.2649 270.411 91.4996 270.274C91.7343 270.136 91.9394 269.953 92.1027 269.736L103.929 254.188C104.391 253.59 104.607 252.837 104.532 252.084C104.457 251.331 104.095 250.636 103.524 250.141L80.6162 230.387L69.0165 234.645V234.644Z" fill="#FFC82B"/>
<path d="M82.7724 247.075C82.7724 247.075 93.6303 253.529 94.6079 266.495L92.4455 269.272C92.4455 269.272 91.0883 271.639 89.2065 270.132C87.3247 268.624 78.6211 261.653 78.6211 261.653L82.7714 247.075H82.7724Z" fill="#CB7D29"/>
<path d="M72.6205 251.991C65.8476 251.991 60.3574 246.501 60.3574 239.729C60.3574 232.957 65.8476 227.466 72.6205 227.466C79.3934 227.466 84.8836 232.956 84.8836 239.729C84.8836 246.502 79.3934 251.991 72.6205 251.991Z" fill="#FFC82B"/>
<path d="M104.551 278.167L115.268 263.978L105.122 256.102L103.532 254.822L92.416 269.359L94.3519 270.751L104.551 278.167Z" fill="#F2A397"/>
<path d="M94.3536 270.751C97.2242 266.908 102.623 259.396 105.124 256.102L103.534 254.822L92.4453 269.273L94.3526 270.751H94.3536Z" fill="#F6957D"/>
<path d="M110.072 280.135C105.155 280.135 101.17 276.149 101.17 271.234C101.17 266.318 105.156 262.332 110.072 262.332C114.987 262.332 118.973 266.318 118.973 271.234C118.973 276.149 114.987 280.135 110.072 280.135Z" fill="#F2A397"/>
<path d="M102.533 266.445C102.533 266.445 131.249 224.274 132.577 220.692C133.869 217.195 140.651 225.611 140.651 225.611L118.426 274.1L102.533 266.445ZM62.9999 207.635L66.4522 231.703C66.4522 231.703 67.3584 234.897 63.3367 235.381C59.315 235.864 50.7399 234.784 47.6765 231.52C44.614 228.257 45.6855 226.639 45.6855 226.639L52.1808 200.516L62.9999 207.635Z" fill="#F2A397"/>
<path d="M63.4828 210.749L50.7891 204.72L65.5003 223.271L63.4828 210.749Z" fill="#F6957D"/>
<path d="M66.5138 224.783C66.5138 224.783 75.794 227.362 77.6768 228.868C79.5596 230.374 80.9301 242.621 83.7129 248.67C87.8336 257.626 90.5021 262.389 83.5792 272.231C79.4034 278.167 80.8229 293.257 80.8229 293.257H29.9868C31.5267 263.584 24.7109 228.606 24.7109 228.606L47.6543 223.319C52.8271 224.211 66.5127 224.783 66.5127 224.783H66.5138Z" fill="#FFC82B"/>
<path d="M68.1368 225.261C68.1368 225.261 67.451 220.597 65.257 220.269C63.064 219.941 49.6621 217.925 47.5772 218.803C45.4924 219.68 42.9688 225.261 42.9688 225.261C42.9688 225.261 47.2476 235.698 53.3919 236.247C59.5352 236.795 70.1104 234.901 68.9919 231.021C67.8735 227.14 68.1358 225.261 68.1358 225.261H68.1368Z" fill="#FFC82B"/>
<path d="M35.8331 239.728C35.8331 239.728 43.8336 245.017 41.4774 250.355C38.8272 256.356 38.8506 271.812 46.4552 272.781C60.0256 274.509 54.1292 276.882 47.8553 278.399C41.5814 279.915 44.15 279.916 44.15 286.417C44.15 291.042 29.6112 295.054 29.9898 291.316C32.5176 266.307 22.0097 250.47 35.8341 239.729L35.8331 239.728Z" fill="#CB7D29"/>
<path d="M73.2002 202.951L66.4609 203.284C66.4844 203.367 66.5222 203.48 66.5742 203.614C66.6895 203.904 66.8793 204.286 67.1804 204.655C67.7784 205.388 68.8223 206.084 70.6265 205.901C71.7654 205.683 72.4134 204.916 72.7797 204.192C72.9634 203.828 73.0746 203.478 73.14 203.218C73.1665 203.111 73.1859 203.02 73.1991 202.951H73.2002Z" fill="#E56441" stroke="#E56441"/>
<path d="M8.125 287.573L25.8476 289.025L28.8723 276.181L32.5164 266.305L13.8662 264.073L11.5344 275.127L8.125 287.574V287.573Z" fill="#F2A397"/>
<path d="M13.2362 267.058L12.582 270.157L30.9486 270.552L32.1568 267.279L13.2362 267.058Z" fill="#F6957D"/>
<path d="M27.7611 252.747C20.9882 252.747 15.498 247.257 15.498 240.485C15.498 233.713 20.9882 228.222 27.7611 228.222C34.534 228.222 40.0242 233.712 40.0242 240.485C40.0242 247.258 34.534 252.747 27.7611 252.747Z" fill="#FFC82B"/>
<path d="M30.127 234.719C30.127 234.719 17.2026 232.598 16.1056 236.725C13.734 245.023 10.8205 258.345 10.1113 264.716C10.0878 264.988 10.1174 265.26 10.1991 265.519C10.2807 265.779 10.4134 266.019 10.5889 266.227C10.7644 266.435 10.9787 266.605 11.2206 266.73C11.4624 266.854 11.7267 266.93 11.9972 266.951L31.4617 268.612C32.2149 268.683 32.9659 268.461 33.5619 267.995C34.1568 267.529 34.5507 266.851 34.663 266.103L39.9337 242.235L30.127 234.718V234.719Z" fill="#FFC82B"/>
<path d="M8.05892 318.212H54.9988C55.9071 318.212 56.7837 317.88 57.4643 317.279C58.145 316.678 58.5828 315.849 58.696 314.948L63.029 280.37C63.0953 279.846 63.0484 279.314 62.8922 278.809C62.7361 278.304 62.4749 277.837 62.1248 277.441C61.7758 277.045 61.3452 276.728 60.8635 276.511C60.3819 276.293 59.8594 276.181 59.3308 276.181H3.72598C3.19737 276.181 2.67488 276.293 2.19322 276.511C1.71155 276.728 1.28193 277.045 0.931909 277.441C0.581885 277.837 0.320643 278.304 0.16553 278.809C0.00939742 279.314 -0.0365241 279.846 0.0287865 280.37L4.36173 314.948C4.47501 315.849 4.91279 316.678 5.59345 317.279C6.27411 317.88 7.1507 318.212 8.05892 318.212Z" fill="url(#paint0_linear_375_15627)"/>
<path d="M31.4201 299.847C29.6006 299.847 28.125 298.373 28.125 296.552C28.125 294.731 29.5996 293.257 31.4201 293.257C33.2407 293.257 34.7142 294.732 34.7142 296.552C34.7142 298.371 33.2396 299.847 31.4201 299.847Z" fill="white"/>
<path d="M139.432 228.381L142.26 222.954C142.26 222.954 152.262 217.233 153.421 215.165C154.581 213.096 155.037 207.19 152.984 205.677C152.984 205.677 160.964 199.684 159.606 198.47C158.251 197.168 142.574 208.814 142.574 208.814C142.574 208.814 144.482 200.234 141.582 199.832C140.796 203.158 139.45 206.325 137.601 209.199C134.548 213.921 134.171 218.15 134.171 218.15L130.572 225.057L139.432 228.381ZM17.6163 316.801C17.6163 316.801 15.1355 317.007 15.509 318.26C15.8825 319.512 18.098 318.934 20.1205 320.185C22.1431 321.437 30.1386 322.33 34.1327 321.665C38.1269 321 39.2361 316.801 39.2361 316.801C39.2361 316.801 39.9035 312.818 32.849 312.41C25.7944 312.001 22.5115 314.264 21.2839 316.719L17.6163 316.802V316.801Z" fill="#F2A397"/>
<path d="M36.236 313.029L34.7124 317.127M32.2898 312.361L30.7662 316.459M28.1232 312.708L26.5996 316.806" stroke="#E56441" stroke-width="2.24" stroke-linecap="round"/>
<path d="M49.9757 201.88C47.7633 203.325 44.7702 203.495 42.4211 202.278C40.4362 201.252 38.9882 199.267 38.5667 197.078C38.4912 196.681 38.4494 196.279 38.4422 195.869C38.431 195.155 38.5331 194.436 38.7963 193.774C39.4556 192.141 41.171 191.027 42.9293 190.967C44.6906 190.909 46.4254 191.853 47.4347 193.296L48.4113 196.597L49.9757 201.88Z" fill="#F2A397"/>
<path d="M42.6859 189.598C42.7553 190.409 42.8625 191.219 43.0053 192.025C43.6952 195.948 45.2157 199.776 47.1434 203.154C48.3302 205.23 49.7211 207.198 51.3957 208.912C51.5671 209.088 51.7416 209.26 51.9202 209.427C52.7366 210.208 53.6213 210.925 54.5581 211.559C56.8512 213.107 59.4646 214.147 62.2117 214.353C64.0537 214.491 65.9385 214.214 67.6652 213.544C68.2652 213.315 68.8448 213.035 69.3989 212.712C71.8236 211.291 73.3462 209.013 74.4717 206.492C75.9718 203.132 76.7872 199.487 77.0076 195.792C77.1944 192.656 76.9515 189.483 76.3362 186.416C76.079 185.127 75.7524 183.855 75.3657 182.613C74.1472 178.697 71.7501 175.038 68.4622 172.55C62.1485 167.778 53.0346 168.509 47.5669 174.225C46.2698 175.58 45.2014 177.145 44.4187 178.848C42.84 182.263 42.3716 185.94 42.6859 189.598Z" fill="#F2A397"/>
<path d="M75.3618 181.138C74.772 180.157 73.9505 179.048 72.8086 179.123C72.3902 179.15 72.0024 179.342 71.5952 179.443C70.7492 179.655 69.8084 179.451 69.1267 178.907C68.5573 178.454 68.1695 177.79 67.5531 177.404C66.8245 176.948 65.8254 176.974 65.1213 177.467C64.5172 177.891 64.1682 178.583 63.6937 179.148C62.616 180.434 60.8863 181.037 59.2097 181.082C57.533 181.127 55.8839 180.675 54.2889 180.155C53.5307 179.908 52.6745 179.652 51.9674 180.02C51.4765 180.275 51.1704 180.783 50.954 181.292C50.4009 182.592 50.2703 184.038 50.3295 185.451C50.4009 187.155 50.704 189.006 49.7999 190.452C49.1651 191.467 47.9599 192.098 46.7639 192.039C45.6435 191.984 44.6311 191.384 43.5576 191.056C42.4841 190.727 41.1238 190.764 40.4707 191.676C40.1278 187.029 40.1921 182.179 42.2187 177.984C44.0658 174.159 47.4497 171.143 51.3898 169.557C55.3298 167.97 59.7852 167.786 63.8988 168.844C65.457 169.245 66.9796 169.824 68.343 170.679C71.8269 172.867 74.1556 177.203 75.3608 181.137L75.3618 181.138ZM69.2665 195.44C69.4287 196.147 70.1339 196.589 70.8411 196.427C71.5483 196.265 71.9901 195.559 71.8279 194.851C71.6656 194.144 70.9605 193.702 70.2533 193.864C69.5461 194.027 69.1042 194.732 69.2665 195.44ZM58.1566 195.314C58.3188 196.022 59.024 196.464 59.7311 196.301C60.4383 196.139 60.8802 195.434 60.7179 194.727C60.5557 194.019 59.8505 193.578 59.1423 193.74C58.4351 193.902 57.9933 194.607 58.1555 195.314H58.1566Z" fill="#121212"/>
<path d="M66.9645 197.731L68.1656 200.9L66.043 201.401" stroke="#D3603A" stroke-width="3.04" stroke-linecap="round" stroke-linejoin="round"/>
<path d="M61.9028 185.221C62.1048 186.103 61.5068 186.963 60.6098 187.077C59.2567 187.251 57.2994 187.629 55.5452 188.454C54.8931 188.761 54.1176 188.521 53.7849 187.881C53.4665 187.268 53.7175 186.579 54.2584 186.15C55.3666 185.27 57.127 183.967 60.3711 184.033C61.0987 184.048 61.7395 184.512 61.9028 185.221ZM68.3461 185.33C68.2604 186.209 68.7022 187.046 69.3013 187.136C70.2044 187.273 71.5187 187.599 72.7219 188.371C73.1699 188.659 73.6689 188.402 73.8536 187.759C74.0301 187.144 73.8281 186.467 73.4474 186.056C72.6678 185.213 71.4341 183.966 69.2951 184.115C68.8155 184.148 68.4165 184.623 68.3471 185.33H68.3461Z" fill="#121212"/>
<path d="M68.0089 204.175L60.6839 203.348C60.6839 203.348 60.2247 206.184 63.9546 206.629C67.6844 207.072 68.0089 204.175 68.0089 204.175Z" fill="white"/>
<defs>
<linearGradient id="paint0_linear_375_15627" x1="31.8116" y1="275.989" x2="25.3305" y2="365.681" gradientUnits="userSpaceOnUse">
<stop stop-color="white"/>
<stop offset="1" stop-color="#9BB6DF"/>
</linearGradient>
</defs>
</svg>
