<svg width="489" height="436" viewBox="0 0 489 436" fill="none" xmlns="http://www.w3.org/2000/svg">
<path d="M464.01 334.668C463.413 334.668 462.808 334.512 462.258 334.184C460.629 333.215 460.095 331.109 461.065 329.48C474.199 307.416 481.791 278.011 481.895 248.807C482 219.486 474.49 192.818 461.292 175.642C450.051 161.012 434.202 153.435 414.185 153.121C398.968 152.879 386.92 157.147 386.801 157.19C385.018 157.831 383.052 156.907 382.409 155.126C381.766 153.344 382.687 151.379 384.468 150.735C384.986 150.548 397.056 146.247 412.927 146.247C413.302 146.247 413.678 146.25 414.058 146.255C423.779 146.381 432.815 148.142 440.915 151.489C451.1 155.698 459.787 162.417 466.735 171.46C474.023 180.945 479.638 192.731 483.423 206.491C487.018 219.555 488.813 233.801 488.759 248.831C488.706 263.742 486.839 278.558 483.209 292.868C479.448 307.699 473.981 321.199 466.962 332.991C466.658 333.502 466.226 333.926 465.708 334.22C465.191 334.514 464.606 334.669 464.01 334.668ZM73.5716 371.77C73.0997 371.77 72.6329 371.673 72.2002 371.485C71.7676 371.296 71.3786 371.021 71.0577 370.675C69.7671 369.287 69.8457 367.116 71.2335 365.825C71.3202 365.744 80.122 357.48 87.279 345.7C96.5657 330.414 98.8694 316.716 94.1262 304.986C89.831 294.364 75.01 287.147 59.3185 279.505C45.6335 272.841 31.4826 265.95 21.0322 255.689C8.75017 243.629 4.07889 229.153 6.75115 211.433C8.93908 196.926 15.4531 184.667 26.113 174.996C34.528 167.361 45.5084 161.358 58.7489 157.152C81.0319 150.074 101.848 150.51 102.722 150.532C104.616 150.58 106.114 152.154 106.066 154.049C106.055 154.5 105.956 154.944 105.773 155.356C105.591 155.768 105.328 156.14 105.002 156.45C104.675 156.761 104.291 157.004 103.87 157.166C103.449 157.328 103.001 157.405 102.55 157.393C102.346 157.388 81.8672 156.976 60.667 163.744C32.9335 172.599 17.0772 188.988 13.5379 212.456C11.1849 228.058 15.0942 240.239 25.8409 250.791C35.4934 260.268 49.133 266.911 62.3237 273.334C79.2337 281.569 95.2058 289.347 100.489 302.413C103.606 310.12 104.191 318.587 102.228 327.579C100.696 334.597 97.6114 341.94 93.0592 349.404C85.4033 361.957 76.2922 370.493 75.908 370.851C75.2737 371.442 74.4386 371.77 73.5716 371.77Z" fill="#E4E0FF"/>
<path d="M49.8545 434.511C49.8545 434.511 -2.47997 410.564 27.3072 366.581C57.0947 322.598 -0.411668 324.112 0.0022249 295.844C0.416118 267.575 37.6502 236.947 43.856 318.662C43.856 318.662 60.3747 298.878 65.7827 312.309C71.191 325.74 57.0947 334.45 57.0947 334.45C57.0947 334.45 102.332 320.057 106.872 347.211C111.412 374.365 100.271 389.207 100.271 389.207C100.271 389.207 106.358 370.808 126.369 376.937C146.379 383.067 129.908 434.511 129.908 434.511L49.8545 434.511Z" fill="#C8C2ED"/>
<path d="M84.6931 420.403C84.7368 420.404 84.7795 420.39 84.815 420.364C84.8505 420.339 84.877 420.303 84.8908 420.261C84.9045 420.22 84.9048 420.175 84.8915 420.134C84.8782 420.092 84.8521 420.055 84.8168 420.03C67.9139 407.489 18.1891 286.305 17.6887 285.082C17.6679 285.031 17.6276 284.99 17.5769 284.969C17.5261 284.948 17.469 284.947 17.418 284.968C17.3671 284.989 17.3265 285.029 17.3052 285.08C17.2839 285.131 17.2837 285.188 17.3045 285.239C17.8051 286.463 67.5748 407.754 84.5694 420.363C84.6067 420.39 84.65 420.403 84.6931 420.403Z" fill="#E4E0FF"/>
<path d="M53.8366 396.046C61.2072 396.046 67.238 394.614 67.3582 394.584C67.4107 394.57 67.4555 394.536 67.4832 394.49C67.5109 394.443 67.5191 394.387 67.5063 394.335C67.4934 394.282 67.4604 394.236 67.4143 394.208C67.3682 394.179 67.3128 394.17 67.2599 394.181C67.0218 394.239 43.3667 399.856 32.5755 388.624C32.5566 388.604 32.5341 388.588 32.5092 388.577C32.4842 388.566 32.4574 388.561 32.4302 388.56C32.4029 388.559 32.3759 388.564 32.3505 388.574C32.3252 388.584 32.302 388.599 32.2824 388.618C32.2628 388.637 32.2471 388.659 32.2361 388.684C32.2252 388.709 32.2193 388.736 32.2188 388.763C32.2183 388.79 32.2231 388.817 32.233 388.843C32.2429 388.868 32.2577 388.891 32.2766 388.911C37.755 394.613 46.466 396.046 53.8366 396.046ZM43.3449 345.215C43.4005 345.215 43.4555 345.193 43.4965 345.149C43.6368 344.999 57.527 330.032 59.1776 320.404C59.1844 320.351 59.1704 320.297 59.1386 320.254C59.1068 320.211 59.0595 320.182 59.0067 320.173C58.9539 320.164 58.8997 320.175 58.8553 320.205C58.8108 320.235 58.7797 320.281 58.7684 320.334C57.1387 329.841 43.3327 344.717 43.1935 344.867C43.1657 344.896 43.1471 344.933 43.1401 344.973C43.1331 345.013 43.1379 345.054 43.1541 345.091C43.1702 345.128 43.1969 345.16 43.2308 345.182C43.2647 345.204 43.3044 345.216 43.3449 345.215ZM79.7389 415.036C79.803 415.036 79.8664 415.006 79.9069 414.95C80.0382 414.768 93.2571 396.683 111.281 388.958C111.329 388.935 111.367 388.894 111.386 388.844C111.405 388.793 111.403 388.738 111.382 388.689C111.361 388.639 111.322 388.6 111.272 388.579C111.223 388.558 111.167 388.557 111.117 388.576C92.9861 396.348 79.7026 414.524 79.5704 414.707C79.548 414.738 79.5345 414.774 79.5316 414.812C79.5286 414.851 79.5363 414.889 79.5537 414.923C79.5712 414.957 79.5977 414.986 79.6304 415.005C79.6631 415.025 79.7007 415.036 79.7389 415.036ZM233.281 434.511C233.281 434.511 239.323 413.157 229.11 392.156C225.461 384.655 199 392.156 199 392.156C199 392.156 230.483 356.581 202.534 341.038C174.586 325.494 175.413 351.186 184.515 372.058C184.515 372.058 167.758 363.943 159.588 373.265C151.418 382.587 168.483 396.974 168.483 396.974C168.483 396.974 135.719 369.417 114.195 394.619C92.67 419.821 99.9612 434.51 99.9612 434.51H233.281V434.511Z" fill="#E4E0FF"/>
<path d="M152.576 427.508C152.602 427.508 152.627 427.504 152.65 427.495C164.196 423.11 173.66 416.316 180.781 407.302C186.476 400.093 190.692 391.457 193.31 381.634C197.766 364.917 196.02 350.354 196.002 350.208C195.993 350.155 195.964 350.107 195.921 350.075C195.878 350.043 195.824 350.028 195.771 350.035C195.718 350.042 195.669 350.069 195.635 350.111C195.601 350.153 195.585 350.206 195.59 350.26C195.608 350.404 197.344 364.899 192.905 381.54C188.813 396.882 178.483 417.24 152.503 427.107C152.458 427.125 152.421 427.157 152.397 427.199C152.374 427.242 152.366 427.291 152.375 427.338C152.383 427.385 152.408 427.428 152.445 427.459C152.482 427.491 152.528 427.508 152.576 427.508Z" fill="#C8C2ED"/>
<path d="M166.36 422.291C175.321 422.291 203.511 421.141 218.926 407.354C218.967 407.317 218.992 407.266 218.995 407.211C218.998 407.156 218.979 407.102 218.942 407.061C218.906 407.02 218.854 406.995 218.799 406.992C218.745 406.989 218.691 407.008 218.65 407.045C200.373 423.391 163.935 421.849 163.569 421.831C163.458 421.819 163.357 421.914 163.352 422.028C163.351 422.056 163.355 422.083 163.364 422.108C163.373 422.134 163.387 422.158 163.406 422.178C163.424 422.198 163.446 422.214 163.471 422.226C163.495 422.237 163.522 422.244 163.549 422.245C163.609 422.248 164.624 422.291 166.36 422.291ZM188.419 394.721C188.467 394.721 188.513 394.705 188.55 394.675C188.587 394.645 188.612 394.603 188.622 394.557C188.632 394.51 188.626 394.462 188.604 394.42C188.583 394.377 188.547 394.344 188.504 394.324C188.352 394.256 173.295 387.397 169.227 377.719C169.216 377.694 169.201 377.671 169.182 377.651C169.162 377.632 169.139 377.616 169.114 377.606C169.089 377.595 169.062 377.59 169.034 377.59C169.007 377.59 168.98 377.596 168.955 377.606C168.929 377.617 168.906 377.632 168.887 377.652C168.868 377.671 168.853 377.694 168.843 377.72C168.832 377.745 168.827 377.772 168.828 377.8C168.828 377.827 168.834 377.854 168.844 377.879C172.976 387.709 188.181 394.634 188.334 394.702C188.361 394.714 188.39 394.721 188.419 394.721Z" fill="#C8C2ED"/>
<path d="M427.48 434.511C427.48 434.511 482.495 420.36 467.273 387.965C460.882 374.365 445.863 377.028 445.863 377.028C445.863 377.028 506.327 325.069 448.708 301.541C427.48 292.873 431.922 342.095 431.922 342.095C431.922 342.095 420.734 324.187 412.262 332.081C403.789 339.975 409.995 366.264 409.995 366.264C409.995 366.264 388.575 345.131 367.429 363.86C346.283 382.587 324.703 434.384 324.703 434.384L427.48 434.511Z" fill="#E4E0FF"/>
<path d="M386.029 427.874C386.069 427.874 386.108 427.862 386.142 427.84C412.998 410.388 429.584 381.822 438.769 360.932C448.718 338.305 452.369 319.556 452.404 319.369C452.413 319.316 452.401 319.262 452.37 319.217C452.339 319.173 452.292 319.143 452.239 319.132C452.186 319.122 452.131 319.133 452.086 319.163C452.04 319.193 452.009 319.239 451.997 319.291C451.961 319.478 448.318 338.189 438.386 360.775C429.223 381.609 412.683 410.097 385.916 427.493C385.878 427.517 385.849 427.553 385.833 427.595C385.818 427.637 385.816 427.683 385.829 427.726C385.842 427.769 385.868 427.807 385.904 427.834C385.94 427.86 385.984 427.874 386.029 427.874Z" fill="#C8C2ED"/>
<path d="M400.16 418.581C406.725 418.581 429.718 417.685 446.789 405.863C446.812 405.848 446.831 405.828 446.846 405.805C446.86 405.782 446.87 405.756 446.875 405.73C446.88 405.703 446.88 405.675 446.874 405.649C446.868 405.622 446.857 405.597 446.842 405.575C446.826 405.552 446.807 405.533 446.784 405.518C446.761 405.503 446.735 405.493 446.708 405.488C446.682 405.483 446.654 405.484 446.627 405.489C446.601 405.495 446.575 405.506 446.553 405.522C426.657 419.299 398.642 418.149 398.362 418.138C398.308 418.138 398.257 418.159 398.218 418.196C398.18 418.232 398.157 418.283 398.154 418.336C398.152 418.39 398.17 418.442 398.205 418.482C398.24 418.522 398.289 418.548 398.342 418.553C398.384 418.554 399.029 418.581 400.16 418.581ZM443.177 349.787C443.211 349.787 443.245 349.779 443.275 349.763C443.305 349.746 443.331 349.723 443.35 349.694C443.369 349.666 443.38 349.633 443.384 349.599C443.387 349.565 443.381 349.53 443.368 349.499C443.306 349.353 437.237 334.764 439.685 321.886C439.694 321.832 439.682 321.778 439.651 321.734C439.62 321.689 439.573 321.659 439.52 321.649C439.466 321.639 439.412 321.65 439.366 321.679C439.321 321.709 439.29 321.755 439.278 321.808C436.806 334.811 442.923 349.513 442.986 349.66C443.001 349.697 443.028 349.73 443.062 349.752C443.096 349.775 443.136 349.787 443.177 349.787ZM408.207 407.407C408.241 407.407 408.275 407.399 408.305 407.383C408.335 407.366 408.361 407.343 408.38 407.315C408.399 407.286 408.41 407.253 408.413 407.219C408.417 407.185 408.411 407.151 408.398 407.12C408.361 407.032 404.754 398.2 406.853 387.606C406.864 387.552 406.853 387.496 406.822 387.45C406.792 387.405 406.744 387.373 406.69 387.362C406.637 387.352 406.581 387.363 406.535 387.393C406.489 387.424 406.457 387.471 406.447 387.525C404.322 398.248 407.978 407.19 408.015 407.279C408.031 407.317 408.058 407.349 408.092 407.372C408.126 407.395 408.166 407.407 408.207 407.407ZM326.902 434.385C326.902 434.385 370.278 382.018 353.729 366.168C337.181 350.318 324.562 375.373 324.562 375.373C324.562 375.373 336.353 297.063 290.017 298.04C243.681 299.017 294.414 354.868 294.414 354.868C294.414 354.868 277.534 338.669 270.505 347.285C263.475 355.902 273.417 373.589 286.061 374.365C286.061 374.365 226.919 362.487 222.586 386.429C218.253 410.37 232.327 434.301 232.327 434.301L326.902 434.385Z" fill="#C8C2ED"/>
<path d="M287.668 430.209C287.696 430.209 287.723 430.204 287.749 430.193C287.774 430.182 287.797 430.166 287.817 430.146C296.676 421 302.551 409.38 305.281 395.607C307.463 384.598 307.651 372.198 305.839 358.751C302.756 335.866 294.834 317.63 294.754 317.449C294.73 317.402 294.689 317.366 294.639 317.348C294.589 317.33 294.534 317.332 294.486 317.354C294.438 317.375 294.399 317.414 294.378 317.463C294.358 317.511 294.356 317.566 294.374 317.616C294.454 317.797 302.355 335.986 305.43 358.816C308.264 379.863 307.457 409.273 287.519 429.857C287.491 429.887 287.472 429.924 287.464 429.964C287.457 430.004 287.462 430.045 287.477 430.082C287.493 430.12 287.52 430.152 287.554 430.174C287.587 430.197 287.627 430.209 287.668 430.209Z" fill="#E4E0FF"/>
<path d="M304.382 413.109C306.959 413.109 310.37 412.891 314.122 412.076C321.537 410.465 331.843 406.13 338.827 394.621C338.853 394.574 338.859 394.519 338.846 394.467C338.832 394.416 338.799 394.371 338.753 394.343C338.707 394.315 338.653 394.306 338.6 394.318C338.548 394.329 338.502 394.361 338.472 394.405C331.565 405.788 321.37 410.077 314.034 411.67C306.08 413.397 299.687 412.42 299.623 412.41C299.57 412.404 299.517 412.418 299.474 412.451C299.432 412.483 299.403 412.531 299.395 412.584C299.386 412.636 299.399 412.69 299.429 412.734C299.46 412.778 299.506 412.809 299.558 412.82C299.592 412.825 301.445 413.109 304.382 413.109ZM306.86 378.007C306.897 378.007 306.934 377.997 306.965 377.978C306.997 377.96 307.024 377.933 307.042 377.9C307.059 377.868 307.068 377.832 307.068 377.795C307.067 377.758 307.056 377.722 307.037 377.691C306.963 377.572 299.498 365.744 282.218 358.064C282.167 358.042 282.11 358.041 282.059 358.06C282.007 358.08 281.966 358.119 281.944 358.17C281.921 358.22 281.92 358.277 281.94 358.329C281.959 358.38 281.999 358.421 282.049 358.444C299.213 366.072 306.611 377.791 306.684 377.909C306.723 377.972 306.791 378.007 306.86 378.007Z" fill="#E4E0FF"/>
<path d="M18.3795 435.282H455.708C455.935 435.282 456.153 435.191 456.313 435.031C456.474 434.87 456.564 434.653 456.564 434.426C456.564 434.199 456.474 433.981 456.313 433.82C456.153 433.66 455.935 433.57 455.708 433.57H18.3795C18.1524 433.57 17.9347 433.66 17.7742 433.82C17.6136 433.981 17.5234 434.199 17.5234 434.426C17.5234 434.653 17.6136 434.87 17.7742 435.031C17.9347 435.191 18.1524 435.282 18.3795 435.282Z" fill="#C8C2ED"/>
<path d="M139.922 231.815C138.203 232.158 136.412 232.191 134.609 231.91C134.702 234.918 134.953 239.077 135.633 241.643C136.793 246.026 145.688 245.51 142.594 240.354C141.001 237.699 140.263 234.397 139.922 231.815Z" fill="#FF96A9"/>
<path d="M139.923 231.815C139.601 229.383 139.63 227.591 139.63 227.591L134.56 228.225C134.56 228.225 134.545 229.779 134.611 231.91C136.414 232.191 138.204 232.158 139.923 231.815Z" fill="#ED7E94"/>
<path d="M136.149 223.982C137.049 222.182 140.698 222.345 143.326 220.702C142.616 219.256 141.95 218.181 141.95 218.181C126.352 217.923 126.481 226.045 129.961 228.365C132.371 229.971 137.992 230.032 141.609 229.063C138.361 228.56 135.413 226.929 136.149 223.982Z" fill="#ED7E94"/>
<path d="M144.786 227.205C145.473 225.679 144.354 222.799 143.325 220.702C140.697 222.345 137.049 222.182 136.149 223.982C135.413 226.929 138.361 228.56 141.609 229.063C143.216 228.632 144.429 227.998 144.786 227.205Z" fill="#FF96A9"/>
<path d="M133.957 222.177C133.957 222.177 152.134 221.404 150.072 208.384C148.009 195.363 129.832 205.29 128.543 218.052C128.543 218.052 116.296 215.345 117.714 227.592C117.714 227.592 84.3257 253.89 110.108 269.231C135.891 284.572 136.278 239.839 136.278 239.839C136.278 239.839 136.665 231.717 133.571 226.045C133.571 226.045 130.864 224.369 131.25 222.822C131.637 221.275 133.957 222.177 133.957 222.177Z" fill="#3F327A"/>
<path d="M85.6172 200.778C88.136 196.28 91.0947 192.222 94.2295 188.318C93.3558 187.57 92.5014 186.8 91.6672 186.008C91.5464 185.914 91.4256 185.821 91.3051 185.729C86.6839 191.044 82.8302 196.674 82.1797 201.293C82.1797 201.293 92.6784 235.157 125.443 248.909C125.629 247.61 125.73 246.302 125.752 244.996C107.344 236.47 92.984 219.655 85.6172 200.778Z" fill="#ED7E94"/>
<path d="M123.399 232.667C114.147 227.002 102.611 217.899 93.1763 204.044C93.1763 204.044 95.6457 198.689 99.0878 192.218C97.4468 190.973 95.8194 189.688 94.2256 188.319C91.0908 192.222 88.1321 196.28 85.6133 200.778C92.9801 219.656 107.34 236.47 125.748 244.996C125.819 240.782 125.036 236.575 123.399 232.667Z" fill="#FF96A9"/>
<path d="M125.751 244.996C125.729 246.303 125.628 247.61 125.441 248.909C126.76 249.464 128.096 249.979 129.447 250.453C129.447 250.453 130.726 250.688 132.846 250.854C132.757 249.802 132.656 248.752 132.541 247.703C130.221 246.929 127.959 246.019 125.751 244.996ZM143.292 250.626C146.811 250.189 150.648 249.321 154.37 247.702C154.37 247.702 155.615 247.126 157.647 245.862C157.451 244.444 157.156 243.048 156.712 241.736C152.302 244.114 147.515 245.826 142.338 246.671C142.943 247.881 143.189 249.269 143.292 250.626Z" fill="#ECC2F0"/>
<path d="M152.696 235.97C150.752 236.963 148.752 237.841 146.704 238.597C146.187 241.415 144.829 243.716 141.819 244.092C137.545 244.947 134.689 241.198 132.369 237.541C129.82 236.328 126.761 234.725 123.398 232.666C125.035 236.574 125.818 240.782 125.747 244.996C127.955 246.018 130.217 246.929 132.537 247.702C132.653 248.746 132.752 249.798 132.842 250.853C135.372 251.051 139.104 251.144 143.289 250.625C143.185 249.268 142.94 247.881 142.334 246.67C147.511 245.825 152.298 244.113 156.709 241.736C155.93 239.433 154.691 237.394 152.696 235.97Z" fill="#FEF2FE"/>
<path d="M141.821 244.093C144.831 243.716 146.19 241.416 146.707 238.598C144.49 239.417 142.228 240.103 139.93 240.655C139.93 240.655 136.991 239.74 132.371 237.541C134.691 241.198 137.548 244.947 141.821 244.093Z" fill="#FF96A9"/>
<path d="M152.648 162.619C149.417 160.196 149.35 155.242 150.711 150.978C148.562 154.497 147.725 162.748 150.233 164.854C153.508 167.604 155.398 165.198 155.398 165.198C155.398 165.198 170.517 187.231 175.882 198.297C171.896 184.821 162.366 174.274 156.258 161.588C156.258 164.166 153.679 163.135 152.648 162.619Z" fill="#ED7E94"/>
<path d="M156.646 158.036C156.646 158.036 156.604 149.9 152.994 149.384C152.149 149.263 151.37 149.902 150.713 150.978C149.352 155.241 149.419 160.196 152.65 162.619C153.681 163.135 156.259 164.166 156.259 161.588C162.367 174.274 171.898 184.82 175.884 198.296C177.016 200.631 177.715 202.479 177.745 203.528C177.889 208.558 171.781 226.201 152.699 235.97C154.694 237.394 155.933 239.433 156.711 241.736C170.27 234.428 180.272 220.826 187.105 206.724C187.797 204.572 188.402 202.392 188.917 200.191C188.918 200.191 165.068 163.365 156.646 158.036Z" fill="#FF96A9"/>
<path d="M156.711 241.736C157.154 243.048 157.449 244.444 157.646 245.862C164.355 241.688 179.644 229.998 187.105 206.725C180.271 220.826 170.269 234.428 156.711 241.736Z" fill="#ED7E94"/>
<path d="M131.51 368.365C138.213 342.99 140.923 315.397 155.721 293.419C151.783 293.786 146.128 296.407 138.903 305.111C123.78 323.331 125.288 366.99 125.288 366.99C112.899 375.424 103.783 387.805 97.3086 399.595C98.1827 402.005 99.645 404.166 101.488 406.018C110.118 392.279 119.424 379.078 131.51 368.365Z" fill="#DB4A87"/>
<path d="M145.335 314.247C138.97 331.567 136.223 350.513 131.507 368.365C119.421 379.078 110.115 392.278 101.484 406.018C104.257 408.804 107.9 410.88 111.765 411.984C137.918 386.696 150.521 356.325 156.602 332.905C153.011 326.587 149.03 320.502 145.335 314.247Z" fill="#E5649A"/>
<path d="M158.602 324.443C156.296 317.189 153.56 310.103 149.986 303.345C148.231 306.885 146.702 310.529 145.336 314.247C149.031 320.503 153.012 326.587 156.603 332.905C157.333 330.1 157.999 327.278 158.602 324.443Z" fill="#DB4A87"/>
<path d="M155.717 293.419C153.565 296.616 151.675 299.935 149.984 303.345C153.559 310.104 156.294 317.189 158.6 324.443C162.27 307.13 162.274 295.314 162.274 295.314C162.274 295.314 160.022 293.018 155.717 293.419Z" fill="#E5649A"/>
<path d="M111.766 411.984C107.901 410.88 104.258 408.804 101.485 406.018C95.9626 414.81 90.7162 423.822 85.1953 432.544C95.3246 426.326 104.124 419.373 111.766 411.984Z" fill="#FF96A9"/>
<path d="M97.3086 399.595C87.6846 417.12 83.8984 433.338 83.8984 433.338C84.3353 433.075 84.7658 432.809 85.198 432.544C90.7189 423.822 95.9654 414.81 101.488 406.018C99.645 404.167 98.1827 402.005 97.3086 399.595ZM191.805 410.558C198.425 417.72 205.637 425.303 213.499 433.338C213.499 433.338 213.104 432.466 212.372 430.869C206.114 423.854 200.092 416.882 194.259 409.874C193.45 410.135 192.632 410.363 191.805 410.558Z" fill="#ED7E94"/>
<path d="M194.258 409.874C200.091 416.882 206.113 423.855 212.371 430.869C210.497 426.778 206.412 417.927 201.092 406.755C198.933 408.049 196.636 409.105 194.258 409.874Z" fill="#FF96A9"/>
<path d="M147.491 310.612C147.491 310.612 155.429 310.61 157.476 298.923C159.523 287.236 138.899 289.47 138.899 289.47C138.899 289.47 137.438 289.467 135.411 289.931C132.623 291.945 130.485 294.553 129.958 298.236C128.411 312.674 134.084 325.05 141.818 337.426C158.241 363.779 175.232 387.02 194.254 409.873C196.632 409.104 198.929 408.048 201.088 406.755C185.691 374.422 159.949 322.653 147.491 310.612Z" fill="#E5649A"/>
<path d="M129.961 298.236C130.488 294.553 132.626 291.945 135.414 289.931C124.541 292.42 97.3567 308.368 191.803 410.558C192.63 410.364 193.449 410.135 194.257 409.874C175.236 387.02 158.244 363.779 141.821 337.426C134.087 325.05 128.414 312.674 129.961 298.236Z" fill="#DB4A87"/>
<path d="M127.188 245.642C127.459 247.271 129.447 250.453 129.447 250.453C129.447 250.453 131.234 253.864 133.307 258.859C133.189 255.102 132.948 251.362 132.541 247.702C130.722 247.096 128.939 246.403 127.188 245.642Z" fill="#ECC2F0"/>
<path d="M139.324 287.441C139.218 288.14 139.082 288.819 138.902 289.47C138.902 289.47 147.495 309.581 162.277 295.314C162.277 295.314 162.316 294.368 162.32 292.753C160.62 294.213 158.63 295.384 156.261 296.174C149.225 297.933 142.941 293.316 139.324 287.441Z" fill="#DB4A87"/>
<path d="M157.856 262.66C155.497 261.969 153.21 260.768 151.101 259.562C156.166 259.984 160.883 256.26 162.429 251.5C162.398 251.337 162.36 251.174 162.317 251.013C160.726 245.124 152.647 251.013 152.647 251.013L150.232 243.061C150.232 243.061 134.599 248.734 129.443 245.468C127.489 244.23 127.017 244.647 127.183 245.641C128.934 246.402 130.717 247.096 132.537 247.702C132.943 251.362 133.185 255.102 133.302 258.859C136.605 266.819 140.631 278.802 139.32 287.441C142.937 293.316 149.221 297.933 156.257 296.173C158.627 295.384 160.616 294.213 162.316 292.753C162.333 287.073 161.92 273.09 157.856 262.66Z" fill="#FEF2FE"/>
<path d="M162.43 251.5C160.885 256.259 156.167 259.984 151.102 259.562C153.212 260.768 155.498 261.969 157.857 262.66C157.677 262.197 157.488 261.737 157.29 261.281C157.29 261.281 163.545 257.142 162.43 251.5ZM137.239 254.234C137.239 254.234 134.213 269.486 148.266 260.25C148.266 260.25 137.375 265.401 137.239 254.234Z" fill="#ECC2F0"/>
<path d="M136.582 117.512H126.249C105.325 117.512 88.3633 134.474 88.3633 155.398C88.3633 176.322 105.325 193.284 126.249 193.284H136.582L178.234 208.06V102.759L136.582 117.512Z" fill="#FF5B41"/>
<path d="M142.178 186.826H131.846C110.922 186.826 93.9599 169.864 93.9599 148.941C93.9599 140.993 96.4089 133.619 100.591 127.526C93.0742 134.449 88.3633 144.373 88.3633 155.398C88.3633 176.322 105.325 193.284 126.249 193.284H136.582L178.234 208.06V199.617L142.178 186.826Z" fill="#E8462C"/>
<path d="M181.213 208.568C192.863 208.568 202.308 184.763 202.308 155.399C202.308 126.034 192.863 102.229 181.213 102.229C169.562 102.229 160.117 126.034 160.117 155.399C160.117 184.763 169.562 208.568 181.213 208.568Z" fill="#E8462C"/>
<path d="M181.211 198.021C190.551 198.021 198.122 178.938 198.122 155.399C198.122 131.86 190.551 112.777 181.211 112.777C171.872 112.777 164.301 131.86 164.301 155.399C164.301 178.938 171.872 198.021 181.211 198.021Z" fill="#FF5B41"/>
<path d="M142.177 186.827C142.177 186.827 131.342 174.054 133.297 148.51C133.297 148.51 122.732 173.767 133.297 189.553L142.177 186.827Z" fill="#E8462C"/>
<path d="M181.214 144.635C184.087 144.635 186.416 141.648 186.416 137.962C186.416 134.277 184.087 131.289 181.214 131.289C178.341 131.289 176.012 134.277 176.012 137.962C176.012 141.648 178.341 144.635 181.214 144.635Z" fill="#322666"/>
<path d="M181.214 181.445C184.087 181.445 186.416 178.458 186.416 174.772C186.416 171.087 184.087 168.099 181.214 168.099C178.341 168.099 176.012 171.087 176.012 174.772C176.012 178.458 178.341 181.445 181.214 181.445Z" fill="#322666"/>
<path d="M94.2287 188.319C100.079 181.034 106.543 174.287 111.915 166.229C113.144 164.181 113.398 159.531 113.967 155.379C111.835 156.348 110.667 158.857 110.54 163.823C110.54 163.823 111.056 166.057 109.509 167.948C108.547 169.123 98.891 177.003 91.3047 185.729C91.4255 185.821 91.546 185.914 91.6668 186.008C92.5009 186.8 93.3552 187.57 94.2287 188.319Z" fill="#ED7E94"/>
<path d="M114.319 170.526C114.319 170.526 116.725 172.073 118.96 168.807C121.195 165.542 120.335 154.885 116.553 154.885C115.573 154.885 114.711 155.039 113.964 155.379C113.395 159.531 113.142 164.181 111.913 166.229C106.541 174.287 100.077 181.034 94.2266 188.319C95.8204 189.688 97.4478 190.973 99.0888 192.217C103.616 183.705 109.827 173.26 114.319 170.526Z" fill="#FF96A9"/>
<path d="M140.516 225.669C140.516 225.669 143.048 226.161 144.141 224.883C144.141 224.883 143.959 227.066 142.927 227.188C141.894 227.309 140.516 225.669 140.516 225.669Z" fill="white"/>
<path d="M332.199 245.033C332.199 245.033 334.312 252.367 340.03 245.779C343.597 241.669 344.938 235.818 345.443 231.998C343.481 233.046 341.274 233.683 338.981 233.964C337.135 238.035 334.593 242.906 332.199 245.033Z" fill="#FF96A9"/>
<path d="M341.667 227.489C341.667 227.489 340.586 230.424 338.98 233.964C341.273 233.683 343.48 233.046 345.442 231.998C345.746 229.695 345.746 228.129 345.746 228.129C345.746 228.129 345.644 222.89 341.667 227.489Z" fill="#ED7E94"/>
<path d="M343.883 220.423C342.62 218.738 339.219 217.765 336.394 216.299L333.566 222.039L335.679 222.66L334.685 228.129C334.685 228.129 336.439 229.438 339.128 229.731C343.071 227.287 346.448 223.72 343.883 220.423Z" fill="#FF96A9"/>
<path d="M350.719 214.332C349.352 212.965 337.793 213.462 337.793 213.462L336.395 216.299C339.219 217.766 342.62 218.739 343.883 220.423C346.448 223.72 343.072 227.286 339.128 229.731C340.98 229.932 343.275 229.652 345.747 228.129C351.811 224.394 352.086 215.7 350.719 214.332Z" fill="#ED7E94"/>
<path d="M345.746 218.683C345.746 218.683 333.69 214.457 326.48 207.372C326.48 207.372 348.48 206.378 358.175 213.028C358.175 213.028 358.424 222.287 345.746 228.129L347.113 220.796C347.113 220.796 350.345 220.37 348.729 217.724C347.113 215.078 345.746 218.683 345.746 218.683Z" fill="#322666"/>
<path d="M308.181 160.666C307.628 159.973 307.109 159.252 306.628 158.506C306.333 159.881 306.046 161.258 305.766 162.636C306.312 163.35 306.904 164.028 307.538 164.666C307.731 163.231 307.945 161.883 308.181 160.666Z" fill="#F6DEF8"/>
<path d="M304.437 153.962C303.964 155.374 303.505 156.792 303.062 158.214C303.81 159.781 304.713 161.273 305.763 162.636C306.043 161.257 306.331 159.88 306.626 158.507C305.7 157.07 304.93 155.543 304.437 153.962Z" fill="#FEF2FE"/>
<path d="M308.084 213.463C311.834 220.963 316.718 227.896 323.158 233.198C311.599 220.298 305.64 198.516 305.764 193.079C305.764 193.079 305.992 176.112 307.534 164.666C306.9 164.028 306.308 163.35 305.762 162.636C302.309 179.664 300.297 197.07 308.084 213.463ZM404.056 185.13C403.734 185.507 403.375 185.86 403.001 186.205C403.743 198.894 401.604 211.449 400.061 223.406C385.145 236.83 369.236 250.254 348.355 252.739C347.762 254.218 347.195 255.707 346.653 257.205C347.948 257.229 349.285 257.234 350.675 257.214C350.675 257.214 384.317 247.933 402.049 224.566C402.05 224.566 405.048 201.867 404.056 185.13Z" fill="#322666"/>
<path d="M400.063 223.406C401.606 211.449 403.745 198.894 403.002 186.205C401.184 187.882 398.831 189.222 396.606 190.535C395.597 203.017 393.524 220.721 389.748 223.572C389.748 223.572 351.294 245.961 336.922 242.298C331.695 240.966 327.102 237.598 323.16 233.197C316.72 227.895 311.836 220.963 308.085 213.462C300.299 197.069 302.31 179.663 305.763 162.636C304.713 161.272 303.809 159.78 303.062 158.213C299.05 171.069 294.805 188.63 295.325 197.055C295.325 197.055 301.622 230.532 311.566 244.618C311.566 244.618 316.747 256.644 346.655 257.205C347.197 255.707 347.764 254.218 348.357 252.739C369.238 250.253 385.147 236.83 400.063 223.406Z" fill="#3F327A"/>
<path d="M404.056 185.13C403.983 183.875 403.882 182.621 403.752 181.37C403.438 181.807 403.083 182.218 402.711 182.617C402.835 183.814 402.93 185.01 403 186.205C403.374 185.861 403.734 185.507 404.056 185.13Z" fill="#F6DEF8"/>
<path d="M396.865 187.135C396.788 188.208 396.701 189.35 396.605 190.535C398.83 189.223 401.183 187.881 403.002 186.205C402.932 185.01 402.836 183.814 402.712 182.617C401.073 184.376 398.94 185.805 396.865 187.135Z" fill="#FEF2FE"/>
<path d="M313.299 139.355C312.141 139.846 310.707 141.027 308.915 143.195C307.97 144.338 306.297 148.431 304.438 153.962C304.93 155.543 305.7 157.07 306.626 158.506C307.106 156.266 307.598 154.033 308.086 151.813C315.417 150.95 315.639 144.851 313.299 139.355Z" fill="#FF96A9"/>
<path d="M310.571 154.579C314.893 152.084 319.118 151.641 318.464 147.384C317.958 144.093 317.244 137.683 313.297 139.355C315.638 144.851 315.416 150.95 308.085 151.813C307.597 154.033 307.105 156.266 306.625 158.507C307.106 159.252 307.625 159.973 308.178 160.666C308.804 157.45 309.587 155.146 310.571 154.579Z" fill="#ED7E94"/>
<path d="M317.153 300.844C316.451 300.912 316.041 300.965 316.041 300.965C316.041 300.965 312.86 311.039 307.488 325.73C310.799 329.017 314.951 331.236 319.757 331.236C318.815 321.105 317.874 310.975 317.153 300.844Z" fill="#322666"/>
<path d="M280.158 405.821C281.615 404.363 282.83 402.419 284.288 400.962C289.39 395.131 293.763 389.3 297.65 382.741C312.848 356.567 327.127 331.125 333.639 301.957C328.572 299.967 320.16 300.551 317.155 300.844C317.876 310.974 318.816 321.105 319.758 331.236C314.952 331.236 310.8 329.017 307.489 325.73C295.808 357.68 273.766 411.47 251.551 431.001C262.433 424.532 271.202 414.99 280.158 405.821Z" fill="#3F327A"/>
<path d="M333.634 301.957C327.122 331.126 312.843 356.567 297.645 382.741C293.758 389.3 289.385 395.131 284.283 400.962C282.825 402.42 281.61 404.363 280.153 405.821C271.197 414.99 262.427 424.533 251.546 431.001C251.172 431.33 250.794 431.653 250.41 431.971C250.41 431.971 292.919 412.084 312.557 373.056C332.195 334.028 336.001 317.372 337.578 307.678C338.051 304.773 336.308 303.007 333.634 301.957Z" fill="#322666"/>
<path d="M383.161 379.519C375.704 360.129 365.76 341.236 352.834 324.333C346.165 326.789 339.247 327.261 332.258 327.153C351.898 359.06 383.5 411.059 392.691 430.038C390.72 412.895 389.293 395.871 383.161 379.519Z" fill="#3F327A"/>
<path d="M352.83 324.332C365.756 341.236 375.7 360.129 383.157 379.519C389.289 395.87 390.716 412.894 392.687 430.037C392.998 430.678 393.302 431.322 393.598 431.97C393.598 431.97 404.518 375.541 337.657 300.965C337.657 300.965 324.615 288.163 316.039 300.965C316.039 300.965 322.745 311.705 332.254 327.153C339.244 327.261 346.161 326.789 352.83 324.332Z" fill="#322666"/>
<path d="M333.817 300.461L342.187 242.643C342.187 242.643 338.738 242.719 337.13 242.26C335.665 241.842 334.159 241.427 332.65 240.709C332.65 240.709 309.756 250.705 315.756 298.823C320.853 303.446 327.503 302.661 333.817 300.461Z" fill="#FEF2FE"/>
<path d="M332.194 243.623L332.074 245.566L334.476 245.26L334.245 243.169L332.194 243.623Z" fill="#E5649A"/>
<path d="M334.247 243.169L330.262 244.048L331.051 240.709L330.687 243.41L334.372 242.964L335.272 246.325L341.689 243.896L334.695 247.236L334.247 243.169Z" fill="#F6DEF8"/>
<path d="M315.758 298.823C315.846 299.529 315.939 300.243 316.04 300.965C316.04 300.965 321.509 309.169 333.565 302.208L333.818 300.461C327.504 302.661 320.854 303.447 315.758 298.823Z" fill="#322666"/>
<path d="M332.496 245.101C332.728 244.656 332.863 244.418 332.863 244.418C318.61 256.398 313.68 282.327 313.68 282.327L318.445 295.518C317.87 277.784 322.145 259.752 332.496 245.101Z" fill="#E5649A"/>
<path d="M332.496 245.101C322.145 259.752 317.871 277.784 318.445 295.518L318.527 295.745L327.313 288.536C327.313 288.536 326.794 285.961 325.736 275.443C324.358 261.727 330.86 248.239 332.496 245.101Z" fill="#DB4A87"/>
<path d="M348.355 252.739C349.163 252.643 349.962 252.525 350.755 252.397L350.946 240.999C350.946 240.999 347.086 241.94 346.073 242.138C345.06 242.336 342.187 242.643 342.187 242.643C304.365 270.995 328.965 328.641 328.965 328.641C342.14 328.641 352.829 316.709 352.829 316.709C342.878 304.714 340.751 292.524 341.691 282.327C341.583 272.287 344.565 262.212 348.355 252.739Z" fill="#3F327A"/>
<path d="M350.754 252.396C349.961 252.525 349.162 252.643 348.354 252.739C344.564 262.212 341.582 272.287 341.69 282.327C343.037 267.728 350.674 257.214 350.674 257.214L350.754 252.396Z" fill="#322666"/>
<path d="M314.889 248.793C314.889 248.793 311.232 302.457 307.089 316.046C307.089 316.046 306.249 319.029 314.753 327.481L316.038 300.965C316.038 300.965 310.812 254.863 332.649 240.709C332.649 240.709 328.687 238.534 327.852 237.65C327.852 237.65 324.998 235.348 324.547 234.68C324.097 234.012 314.889 248.793 314.889 248.793Z" fill="#3F327A"/>
<path d="M258.41 427.643L230.215 433.338H259.797L258.41 427.643ZM394.086 427.625L367.248 433.338H400.807L394.086 427.625ZM343.893 257.229L334.932 254.107L342.187 252.243L345.441 242.243C344.19 242.429 342.187 242.643 342.187 242.643C323.055 256.985 319.064 278.736 321.431 296.733C322.648 274.121 343.893 257.229 343.893 257.229Z" fill="#322666"/>
<path d="M315.634 295.275C315.047 282.503 315.541 251.8 332.652 240.709C332.652 240.709 330.881 239.736 329.457 238.827H329.456L320.889 243.79L321.261 248.525L311.566 250.502C311.567 250.502 313.771 287.249 315.634 295.275Z" fill="#322666"/>
<path d="M304.41 158.298C304.648 158.298 304.84 158.08 304.84 157.811C304.84 157.542 304.648 157.323 304.41 157.323C304.173 157.323 303.98 157.542 303.98 157.811C303.98 158.08 304.173 158.298 304.41 158.298Z" fill="#F6DEF8"/>
<path d="M303.397 161.993C303.72 161.993 303.982 161.696 303.982 161.329C303.982 160.963 303.72 160.666 303.397 160.666C303.074 160.666 302.812 160.963 302.812 161.329C302.812 161.696 303.074 161.993 303.397 161.993Z" fill="#7860DC"/>
<path d="M302.71 164.367C303.033 164.367 303.294 164.07 303.294 163.703C303.294 163.337 303.033 163.04 302.71 163.04C302.387 163.04 302.125 163.337 302.125 163.703C302.125 164.07 302.387 164.367 302.71 164.367Z" fill="#7860DC"/>
<path d="M302.709 166.078C302.709 166.444 302.447 166.741 302.124 166.741C301.801 166.741 301.539 166.444 301.539 166.078C301.539 165.712 301.801 165.415 302.124 165.415C302.447 165.415 302.709 165.712 302.709 166.078Z" fill="#7860DC"/>
<path d="M315.42 300.717C315.42 301.472 315.03 302.084 314.55 302.084C314.069 302.084 313.68 301.472 313.68 300.717C313.68 299.962 314.069 299.349 314.55 299.349C315.03 299.349 315.42 299.961 315.42 300.717ZM326.275 301.587H323.623C323.557 301.587 323.494 301.56 323.447 301.514C323.401 301.467 323.374 301.404 323.374 301.338C323.374 301.272 323.401 301.209 323.447 301.162C323.494 301.116 323.557 301.089 323.623 301.089H326.275C326.341 301.089 326.404 301.116 326.45 301.162C326.497 301.209 326.523 301.272 326.523 301.338C326.523 301.404 326.497 301.467 326.45 301.514C326.404 301.56 326.341 301.587 326.275 301.587ZM333.359 309.044C333.232 309.043 333.109 308.993 333.018 308.904C332.926 308.816 332.872 308.695 332.867 308.568C332.861 308.441 332.905 308.317 332.988 308.22C333.072 308.124 333.189 308.064 333.316 308.052C333.386 308.045 340.308 307.403 343.122 303.886C343.204 303.783 343.324 303.717 343.455 303.703C343.52 303.695 343.586 303.701 343.648 303.719C343.711 303.737 343.77 303.768 343.821 303.809C343.872 303.849 343.914 303.9 343.945 303.957C343.977 304.014 343.997 304.077 344.004 304.142C344.011 304.207 344.006 304.273 343.987 304.335C343.969 304.398 343.939 304.456 343.898 304.507C340.817 308.358 333.703 309.016 333.402 309.042C333.388 309.044 333.373 309.044 333.359 309.044Z" fill="#322666"/>
<path d="M337.996 257.918C337.96 257.918 337.924 257.91 337.891 257.895L335.944 256.983C335.887 256.954 335.843 256.903 335.822 256.842C335.801 256.781 335.805 256.715 335.832 256.656C335.859 256.598 335.908 256.552 335.969 256.529C336.029 256.506 336.096 256.507 336.155 256.533L338.102 257.444C338.153 257.469 338.194 257.509 338.219 257.56C338.244 257.611 338.251 257.668 338.239 257.724C338.226 257.779 338.196 257.828 338.152 257.863C338.108 257.899 338.053 257.918 337.996 257.918Z" fill="#3F327A"/>
<path d="M354.273 116.588H364.708C385.838 116.588 402.967 133.717 402.967 154.847C402.967 175.976 385.838 193.105 364.708 193.105H354.273L312.211 208.027V101.688L354.273 116.588Z" fill="#7860DC"/>
<path d="M348.622 186.584H359.056C380.186 186.584 397.315 169.455 397.315 148.325C397.315 140.299 394.842 132.852 390.618 126.7C398.209 133.691 402.967 143.713 402.967 154.847C402.967 175.976 385.838 193.106 364.708 193.106H354.273L312.211 208.027V199.5L348.622 186.584Z" fill="#634AC9"/>
<path d="M309.202 208.54C320.967 208.54 330.505 184.5 330.505 154.846C330.505 125.193 320.967 101.153 309.202 101.153C297.436 101.153 287.898 125.193 287.898 154.846C287.898 184.5 297.436 208.54 309.202 208.54Z" fill="#634AC9"/>
<path d="M309.202 197.888C318.634 197.888 326.28 178.618 326.28 154.846C326.28 131.075 318.634 111.805 309.202 111.805C299.771 111.805 292.125 131.075 292.125 154.846C292.125 178.618 299.771 197.888 309.202 197.888Z" fill="#7860DC"/>
<path d="M267.754 142.238H309.201C311.962 142.238 314.2 140 314.2 137.239C314.2 134.477 311.962 132.239 309.201 132.239H267.754C264.992 132.239 262.754 134.478 262.754 137.239C262.754 140 264.992 142.238 267.754 142.238ZM267.754 175.498H309.201C311.962 175.498 314.2 173.259 314.2 170.498C314.2 167.737 311.962 165.498 309.201 165.498H267.754C264.992 165.498 262.754 167.737 262.754 170.498C262.754 173.259 264.992 175.498 267.754 175.498Z" fill="#3F327A"/>
<path d="M348.621 186.584C348.621 186.584 359.563 173.686 357.589 147.89C357.589 147.89 368.258 173.396 357.589 189.338L348.621 186.584Z" fill="#634AC9"/>
<path d="M397.977 159.028C392.792 160.512 389.418 172.523 392.108 175.512C395.091 178.826 397.411 177.997 397.411 177.997C397.411 177.997 397.252 181.763 396.866 187.135C398.941 185.805 401.074 184.376 402.713 182.617C402.457 180.141 402.08 177.66 401.554 175.18C400.303 170.175 401.847 163.422 397.977 159.028Z" fill="#FF96A9"/>
<path d="M402.051 172.86C402.051 172.86 405.863 160.099 399.731 158.939C399.128 158.825 398.542 158.867 397.977 159.028C401.847 163.423 400.303 170.176 401.554 175.18C402.08 177.661 402.456 180.141 402.713 182.617C403.085 182.218 403.44 181.807 403.754 181.37C403.407 178.085 402.862 175.159 402.051 172.86Z" fill="#ED7E94"/>
<path d="M335.79 224.825L339.647 225.599C339.647 225.599 338.219 227.527 336.914 227.345C335.608 227.163 335.79 224.825 335.79 224.825Z" fill="white"/>
<path d="M342.189 242.643C342.158 242.644 338.734 242.717 337.133 242.26C336.413 242.055 335.684 241.85 334.949 241.61L334.375 242.965L342.189 242.643Z" fill="#FF96A9"/>
<path d="M44.8906 72.6858H176.041L128.624 65.2898C128.624 65.2898 128.361 51.026 112.776 56.8373C112.776 56.8373 111.503 46.0074 99.4602 45.4791C87.4177 44.9509 88.2103 55.2525 88.2103 55.2525C88.2103 55.2525 72.8898 45.2148 63.909 54.9882C54.928 64.7615 69.1919 67.403 69.1919 67.403L44.8906 72.6858ZM422.201 15.8491H345.858L373.459 11.5437C373.459 11.5437 373.613 3.24051 382.684 6.62326C382.684 6.62326 383.425 0.3191 390.435 0.0114455C397.445 -0.296209 396.984 5.70058 396.984 5.70058C396.984 5.70058 405.902 -0.142234 411.13 5.5469C416.358 11.236 408.055 12.7737 408.055 12.7737L422.201 15.8491Z" fill="#E4E0FF"/>
</svg>
