<svg width="945" height="791" viewBox="0 0 945 791" fill="none" xmlns="http://www.w3.org/2000/svg">
<g filter="url(#filter0_dddddd_384_25906)">
<rect x="118.5" y="2.5" width="687.775" height="461.411" rx="34.5" stroke="#475585"/>
</g>
<g filter="url(#filter1_dddddd_384_25906)">
<rect x="138" y="22" width="688.775" height="462.411" rx="35" fill="white"/>
</g>
<path d="M196.945 50H197.96L200.505 57H199.615L199.095 55.57H195.81L195.295 57H194.4L196.945 50ZM196.12 54.73H198.785L197.45 51.075L196.12 54.73ZM201.416 57V49.5H202.256V57H201.416ZM203.457 57V49.5H204.297V57H203.457ZM207.901 57V50H210.216C210.699 50 211.152 50.0917 211.576 50.275C211.999 50.455 212.371 50.7067 212.691 51.03C213.011 51.35 213.261 51.7217 213.441 52.145C213.624 52.565 213.716 53.0167 213.716 53.5C213.716 53.9833 213.624 54.4367 213.441 54.86C213.261 55.28 213.011 55.6517 212.691 55.975C212.371 56.295 211.999 56.5467 211.576 56.73C211.152 56.91 210.699 57 210.216 57H207.901ZM208.741 56.16H210.216C210.582 56.16 210.926 56.0917 211.246 55.955C211.569 55.815 211.852 55.6233 212.096 55.38C212.339 55.1367 212.529 54.855 212.666 54.535C212.806 54.2117 212.876 53.8667 212.876 53.5C212.876 53.1333 212.806 52.79 212.666 52.47C212.529 52.1467 212.337 51.8633 212.091 51.62C211.847 51.3767 211.566 51.1867 211.246 51.05C210.926 50.91 210.582 50.84 210.216 50.84H208.741V56.16ZM216.732 57.13C216.272 57.13 215.852 57.0117 215.472 56.775C215.095 56.5383 214.793 56.2217 214.567 55.825C214.343 55.425 214.232 54.9833 214.232 54.5C214.232 54.1333 214.297 53.7917 214.427 53.475C214.557 53.155 214.735 52.875 214.962 52.635C215.192 52.3917 215.458 52.2017 215.762 52.065C216.065 51.9283 216.388 51.86 216.732 51.86C217.192 51.86 217.61 51.9783 217.987 52.215C218.367 52.4517 218.668 52.77 218.892 53.17C219.118 53.57 219.232 54.0133 219.232 54.5C219.232 54.8633 219.167 55.2033 219.037 55.52C218.907 55.8367 218.727 56.1167 218.497 56.36C218.27 56.6 218.005 56.7883 217.702 56.925C217.402 57.0617 217.078 57.13 216.732 57.13ZM216.732 56.29C217.045 56.29 217.327 56.2083 217.577 56.045C217.83 55.8783 218.028 55.66 218.172 55.39C218.318 55.1167 218.392 54.82 218.392 54.5C218.392 54.1733 218.317 53.8733 218.167 53.6C218.02 53.3267 217.822 53.1083 217.572 52.945C217.322 52.7817 217.042 52.7 216.732 52.7C216.418 52.7 216.137 52.7833 215.887 52.95C215.637 53.1133 215.438 53.3317 215.292 53.605C215.145 53.8783 215.072 54.1767 215.072 54.5C215.072 54.8333 215.147 55.1367 215.297 55.41C215.447 55.68 215.648 55.895 215.902 56.055C216.155 56.2117 216.432 56.29 216.732 56.29ZM223.475 55.68L224.225 56.085C223.998 56.4017 223.71 56.655 223.36 56.845C223.013 57.035 222.636 57.13 222.23 57.13C221.77 57.13 221.35 57.0117 220.97 56.775C220.593 56.5383 220.291 56.2217 220.065 55.825C219.841 55.425 219.73 54.9833 219.73 54.5C219.73 54.1333 219.795 53.7917 219.925 53.475C220.055 53.155 220.233 52.875 220.46 52.635C220.69 52.3917 220.956 52.2017 221.26 52.065C221.563 51.9283 221.886 51.86 222.23 51.86C222.636 51.86 223.013 51.955 223.36 52.145C223.71 52.335 223.998 52.59 224.225 52.91L223.475 53.315C223.315 53.1183 223.125 52.9667 222.905 52.86C222.685 52.7533 222.46 52.7 222.23 52.7C221.92 52.7 221.638 52.7833 221.385 52.95C221.135 53.1133 220.936 53.3317 220.79 53.605C220.643 53.8783 220.57 54.1767 220.57 54.5C220.57 54.8233 220.643 55.1217 220.79 55.395C220.94 55.665 221.14 55.8817 221.39 56.045C221.643 56.2083 221.923 56.29 222.23 56.29C222.476 56.29 222.708 56.2333 222.925 56.12C223.141 56.0067 223.325 55.86 223.475 55.68ZM226.652 57.095C226.382 57.085 226.119 57.035 225.862 56.945C225.609 56.8517 225.386 56.7267 225.192 56.57C225.002 56.41 224.864 56.2267 224.777 56.02L225.497 55.71C225.547 55.8233 225.637 55.93 225.767 56.03C225.897 56.13 226.047 56.21 226.217 56.27C226.387 56.33 226.559 56.36 226.732 56.36C226.916 56.36 227.087 56.3317 227.247 56.275C227.407 56.2183 227.537 56.135 227.637 56.025C227.741 55.9117 227.792 55.7767 227.792 55.62C227.792 55.4533 227.736 55.3233 227.622 55.23C227.512 55.1333 227.372 55.0583 227.202 55.005C227.036 54.9483 226.866 54.895 226.692 54.845C226.349 54.7583 226.042 54.655 225.772 54.535C225.502 54.4117 225.289 54.2567 225.132 54.07C224.979 53.88 224.902 53.6383 224.902 53.345C224.902 53.035 224.987 52.7667 225.157 52.54C225.331 52.3133 225.557 52.1383 225.837 52.015C226.117 51.8917 226.417 51.83 226.737 51.83C227.141 51.83 227.509 51.9167 227.842 52.09C228.176 52.2633 228.424 52.4983 228.587 52.795L227.912 53.19C227.856 53.07 227.769 52.965 227.652 52.875C227.536 52.7817 227.402 52.7083 227.252 52.655C227.102 52.6017 226.949 52.5733 226.792 52.57C226.599 52.5633 226.417 52.5883 226.247 52.645C226.081 52.7017 225.946 52.7883 225.842 52.905C225.742 53.0183 225.692 53.16 225.692 53.33C225.692 53.4967 225.746 53.6233 225.852 53.71C225.962 53.7967 226.104 53.8667 226.277 53.92C226.454 53.97 226.646 54.0283 226.852 54.095C227.156 54.1917 227.439 54.3033 227.702 54.43C227.966 54.5567 228.177 54.715 228.337 54.905C228.501 55.095 228.581 55.33 228.577 55.61C228.577 55.9167 228.486 56.185 228.302 56.415C228.119 56.6417 227.881 56.815 227.587 56.935C227.297 57.055 226.986 57.1083 226.652 57.095Z" fill="black"/>
<path d="M260.253 47.2V48.376H256.991V57H255.815V48.376H252.56V47.2H260.253ZM263.645 57.182C263.001 57.182 262.413 57.0163 261.881 56.685C261.353 56.3537 260.931 55.9103 260.614 55.355C260.301 54.795 260.145 54.1767 260.145 53.5C260.145 52.9867 260.236 52.5083 260.418 52.065C260.6 51.617 260.849 51.225 261.167 50.889C261.489 50.5483 261.862 50.2823 262.287 50.091C262.711 49.8997 263.164 49.804 263.645 49.804C264.172 49.804 264.655 49.9113 265.094 50.126C265.537 50.336 265.915 50.63 266.228 51.008C266.545 51.386 266.781 51.8247 266.935 52.324C267.093 52.8233 267.152 53.3577 267.11 53.927H261.398C261.454 54.3237 261.584 54.6783 261.79 54.991C261.995 55.299 262.256 55.544 262.574 55.726C262.896 55.908 263.253 56.0013 263.645 56.006C264.065 56.006 264.445 55.8987 264.786 55.684C265.126 55.4647 265.402 55.166 265.612 54.788L266.809 55.068C266.529 55.6887 266.106 56.1973 265.542 56.594C264.977 56.986 264.345 57.182 263.645 57.182ZM261.363 53.003H265.927C265.889 52.611 265.763 52.254 265.549 51.932C265.334 51.6053 265.061 51.344 264.73 51.148C264.398 50.952 264.037 50.854 263.645 50.854C263.253 50.854 262.893 50.9497 262.567 51.141C262.24 51.3323 261.969 51.5913 261.755 51.918C261.545 52.24 261.414 52.6017 261.363 53.003ZM268.289 57V50H269.465V50.875C269.713 50.5483 270.023 50.2893 270.396 50.098C270.774 49.902 271.185 49.804 271.628 49.804C272.146 49.804 272.62 49.93 273.049 50.182C273.479 50.434 273.817 50.7677 274.064 51.183C274.312 50.7677 274.648 50.434 275.072 50.182C275.502 49.93 275.973 49.804 276.486 49.804C277.014 49.804 277.492 49.9323 277.921 50.189C278.351 50.441 278.691 50.7817 278.943 51.211C279.2 51.6403 279.328 52.1187 279.328 52.646V57H278.152V52.926C278.152 52.5807 278.068 52.261 277.9 51.967C277.732 51.673 277.506 51.4373 277.221 51.26C276.937 51.0827 276.622 50.994 276.276 50.994C275.931 50.994 275.616 51.078 275.331 51.246C275.047 51.4093 274.82 51.638 274.652 51.932C274.484 52.2213 274.4 52.5527 274.4 52.926V57H273.224V52.926C273.224 52.5527 273.14 52.2213 272.972 51.932C272.804 51.638 272.576 51.4093 272.286 51.246C272.002 51.078 271.687 50.994 271.341 50.994C271.001 50.994 270.686 51.0827 270.396 51.26C270.112 51.4373 269.885 51.673 269.717 51.967C269.549 52.261 269.465 52.5807 269.465 52.926V57H268.289ZM281.907 60.5H280.731V50H281.907V51.197C282.145 50.7863 282.462 50.455 282.859 50.203C283.255 49.9463 283.727 49.818 284.273 49.818C284.781 49.818 285.257 49.9137 285.701 50.105C286.149 50.2963 286.541 50.5623 286.877 50.903C287.213 51.239 287.476 51.6287 287.668 52.072C287.859 52.5153 287.955 52.9913 287.955 53.5C287.955 54.0087 287.859 54.487 287.668 54.935C287.476 55.383 287.213 55.7773 286.877 56.118C286.541 56.454 286.149 56.7177 285.701 56.909C285.257 57.1003 284.781 57.196 284.273 57.196C283.727 57.196 283.255 57.07 282.859 56.818C282.462 56.5613 282.145 56.2277 281.907 55.817V60.5ZM284.259 50.959C283.806 50.959 283.409 51.0733 283.069 51.302C282.728 51.5307 282.464 51.8363 282.278 52.219C282.096 52.6017 282.005 53.0287 282.005 53.5C282.005 53.9667 282.096 54.3937 282.278 54.781C282.464 55.1683 282.726 55.4763 283.062 55.705C283.402 55.9337 283.801 56.048 284.259 56.048C284.711 56.048 285.127 55.936 285.505 55.712C285.883 55.4833 286.186 55.1777 286.415 54.795C286.643 54.4077 286.758 53.976 286.758 53.5C286.758 53.0333 286.646 52.6087 286.422 52.226C286.198 51.8387 285.897 51.5307 285.519 51.302C285.141 51.0733 284.721 50.959 284.259 50.959ZM289.057 57V46.5H290.233V57H289.057ZM297.474 50H298.65V57H297.474L297.425 55.817C297.206 56.223 296.902 56.552 296.515 56.804C296.132 57.056 295.675 57.182 295.143 57.182C294.63 57.182 294.149 57.0863 293.701 56.895C293.253 56.699 292.856 56.4307 292.511 56.09C292.17 55.7447 291.904 55.348 291.713 54.9C291.522 54.452 291.426 53.969 291.426 53.451C291.426 52.9517 291.519 52.4803 291.706 52.037C291.893 51.5937 292.152 51.2063 292.483 50.875C292.819 50.539 293.206 50.2777 293.645 50.091C294.084 49.8997 294.555 49.804 295.059 49.804C295.61 49.804 296.093 49.9347 296.508 50.196C296.923 50.4527 297.259 50.7863 297.516 51.197L297.474 50ZM295.122 56.041C295.584 56.041 295.983 55.929 296.319 55.705C296.66 55.4763 296.921 55.1683 297.103 54.781C297.29 54.3937 297.383 53.9667 297.383 53.5C297.383 53.024 297.29 52.5947 297.103 52.212C296.916 51.8247 296.653 51.519 296.312 51.295C295.976 51.0663 295.579 50.952 295.122 50.952C294.66 50.952 294.24 51.0663 293.862 51.295C293.484 51.5237 293.183 51.8317 292.959 52.219C292.74 52.6017 292.63 53.0287 292.63 53.5C292.63 53.9713 292.744 54.4007 292.973 54.788C293.202 55.1707 293.505 55.4763 293.883 55.705C294.261 55.929 294.674 56.041 295.122 56.041ZM303.675 51.176H302.086L302.079 57H300.903L300.91 51.176H299.706V50H300.91L300.903 47.802H302.079L302.086 50H303.675V51.176ZM307.832 57.182C307.188 57.182 306.6 57.0163 306.068 56.685C305.541 56.3537 305.118 55.9103 304.801 55.355C304.488 54.795 304.332 54.1767 304.332 53.5C304.332 52.9867 304.423 52.5083 304.605 52.065C304.787 51.617 305.037 51.225 305.354 50.889C305.676 50.5483 306.049 50.2823 306.474 50.091C306.899 49.8997 307.351 49.804 307.832 49.804C308.359 49.804 308.842 49.9113 309.281 50.126C309.724 50.336 310.102 50.63 310.415 51.008C310.732 51.386 310.968 51.8247 311.122 52.324C311.281 52.8233 311.339 53.3577 311.297 53.927H305.585C305.641 54.3237 305.772 54.6783 305.977 54.991C306.182 55.299 306.444 55.544 306.761 55.726C307.083 55.908 307.44 56.0013 307.832 56.006C308.252 56.006 308.632 55.8987 308.973 55.684C309.314 55.4647 309.589 55.166 309.799 54.788L310.996 55.068C310.716 55.6887 310.294 56.1973 309.729 56.594C309.164 56.986 308.532 57.182 307.832 57.182ZM305.55 53.003H310.114C310.077 52.611 309.951 52.254 309.736 51.932C309.521 51.6053 309.248 51.344 308.917 51.148C308.586 50.952 308.224 50.854 307.832 50.854C307.44 50.854 307.081 50.9497 306.754 51.141C306.427 51.3323 306.157 51.5913 305.942 51.918C305.732 52.24 305.601 52.6017 305.55 53.003ZM314.639 57.133C314.261 57.119 313.892 57.049 313.533 56.923C313.178 56.7923 312.866 56.6173 312.595 56.398C312.329 56.174 312.135 55.9173 312.014 55.628L313.022 55.194C313.092 55.3527 313.218 55.502 313.4 55.642C313.582 55.782 313.792 55.894 314.03 55.978C314.268 56.062 314.508 56.104 314.751 56.104C315.008 56.104 315.248 56.0643 315.472 55.985C315.696 55.9057 315.878 55.789 316.018 55.635C316.163 55.4763 316.235 55.2873 316.235 55.068C316.235 54.8347 316.156 54.6527 315.997 54.522C315.843 54.3867 315.647 54.2817 315.409 54.207C315.176 54.1277 314.938 54.053 314.695 53.983C314.214 53.8617 313.785 53.717 313.407 53.549C313.029 53.3763 312.73 53.1593 312.511 52.898C312.296 52.632 312.189 52.2937 312.189 51.883C312.189 51.449 312.308 51.0733 312.546 50.756C312.789 50.4387 313.106 50.1937 313.498 50.021C313.89 49.8483 314.31 49.762 314.758 49.762C315.323 49.762 315.838 49.8833 316.305 50.126C316.772 50.3687 317.119 50.6977 317.348 51.113L316.403 51.666C316.324 51.498 316.202 51.351 316.039 51.225C315.876 51.0943 315.689 50.9917 315.479 50.917C315.269 50.8423 315.054 50.8027 314.835 50.798C314.564 50.7887 314.31 50.8237 314.072 50.903C313.839 50.9823 313.65 51.1037 313.505 51.267C313.365 51.4257 313.295 51.624 313.295 51.862C313.295 52.0953 313.37 52.2727 313.519 52.394C313.673 52.5153 313.871 52.6133 314.114 52.688C314.361 52.758 314.63 52.8397 314.919 52.933C315.344 53.0683 315.74 53.2247 316.109 53.402C316.478 53.5793 316.774 53.801 316.998 54.067C317.227 54.333 317.339 54.662 317.334 55.054C317.334 55.4833 317.206 55.859 316.949 56.181C316.692 56.4983 316.359 56.741 315.948 56.909C315.542 57.077 315.106 57.1517 314.639 57.133Z" fill="#730C7F"/>
<rect x="348" y="111" width="88" height="5" rx="2" fill="#5B5B5B" fill-opacity="0.48"/>
<rect x="348" y="122.167" width="45.0167" height="3.65" rx="1.825" fill="#D9D9D9"/>
<rect x="348" y="131" width="45.0167" height="3.65" rx="1.825" fill="#EDEDED"/>
<rect x="348" y="140" width="79" height="3" rx="1.5" fill="#EDEDED"/>
<rect x="348" y="149" width="27" height="3" rx="1.5" fill="#D9D9D9"/>
<rect x="348" y="158" width="62" height="3" rx="1.5" fill="#EDEDED"/>
<rect x="348" y="167" width="31" height="3" rx="1.5" fill="#D9D9D9"/>
<rect x="501" y="111" width="88" height="5" rx="2" fill="#5B5B5B" fill-opacity="0.48"/>
<rect x="501" y="122.167" width="45.0167" height="3.65" rx="1.825" fill="#D9D9D9"/>
<rect x="501" y="131" width="45.0167" height="3.65" rx="1.825" fill="#EDEDED"/>
<rect x="501" y="140" width="79" height="3" rx="1.5" fill="#EDEDED"/>
<rect x="501" y="149" width="27" height="3" rx="1.5" fill="#D9D9D9"/>
<rect x="501" y="158" width="62" height="3" rx="1.5" fill="#EDEDED"/>
<rect x="501" y="167" width="31" height="3" rx="1.5" fill="#D9D9D9"/>
<rect x="654" y="111" width="88" height="5" rx="2" fill="#5B5B5B" fill-opacity="0.48"/>
<rect x="654" y="122.167" width="45.0167" height="3.65" rx="1.825" fill="#D9D9D9"/>
<rect x="654" y="131" width="45.0167" height="3.65" rx="1.825" fill="#EDEDED"/>
<rect x="654" y="140" width="79" height="3" rx="1.5" fill="#EDEDED"/>
<rect x="654" y="149" width="27" height="3" rx="1.5" fill="#D9D9D9"/>
<rect x="654" y="158" width="62" height="3" rx="1.5" fill="#EDEDED"/>
<rect x="654" y="167" width="31" height="3" rx="1.5" fill="#D9D9D9"/>
<rect x="196" y="286" width="88" height="5" rx="2" fill="#5B5B5B" fill-opacity="0.48"/>
<rect x="196" y="297.167" width="45.0167" height="3.65" rx="1.825" fill="#D9D9D9"/>
<rect x="196" y="306" width="45.0167" height="3.65" rx="1.825" fill="#EDEDED"/>
<rect x="196" y="315" width="79" height="3" rx="1.5" fill="#EDEDED"/>
<rect x="196" y="324" width="27" height="3" rx="1.5" fill="#D9D9D9"/>
<rect x="196" y="333" width="62" height="3" rx="1.5" fill="#EDEDED"/>
<rect x="196" y="342" width="31" height="3" rx="1.5" fill="#D9D9D9"/>
<rect x="349" y="286" width="88" height="5" rx="2" fill="#5B5B5B" fill-opacity="0.48"/>
<rect x="349" y="297.167" width="45.0167" height="3.65" rx="1.825" fill="#D9D9D9"/>
<rect x="349" y="306" width="45.0167" height="3.65" rx="1.825" fill="#EDEDED"/>
<rect x="349" y="315" width="79" height="3" rx="1.5" fill="#EDEDED"/>
<rect x="349" y="324" width="27" height="3" rx="1.5" fill="#D9D9D9"/>
<rect x="349" y="333" width="62" height="3" rx="1.5" fill="#EDEDED"/>
<rect x="349" y="342" width="31" height="3" rx="1.5" fill="#D9D9D9"/>
<rect x="502" y="286" width="88" height="5" rx="2" fill="#5B5B5B" fill-opacity="0.48"/>
<rect x="502" y="297.167" width="45.0167" height="3.65" rx="1.825" fill="#D9D9D9"/>
<rect x="502" y="306" width="45.0167" height="3.65" rx="1.825" fill="#EDEDED"/>
<rect x="502" y="315" width="79" height="3" rx="1.5" fill="#EDEDED"/>
<rect x="502" y="324" width="27" height="3" rx="1.5" fill="#D9D9D9"/>
<rect x="502" y="333" width="62" height="3" rx="1.5" fill="#EDEDED"/>
<rect x="502" y="342" width="31" height="3" rx="1.5" fill="#D9D9D9"/>
<rect x="655" y="286" width="88" height="5" rx="2" fill="#5B5B5B" fill-opacity="0.48"/>
<rect x="655" y="297.167" width="45.0167" height="3.65" rx="1.825" fill="#D9D9D9"/>
<rect x="655" y="306" width="45.0167" height="3.65" rx="1.825" fill="#EDEDED"/>
<rect x="655" y="315" width="79" height="3" rx="1.5" fill="#EDEDED"/>
<rect x="655" y="324" width="27" height="3" rx="1.5" fill="#D9D9D9"/>
<rect x="655" y="333" width="62" height="3" rx="1.5" fill="#EDEDED"/>
<rect x="655" y="342" width="31" height="3" rx="1.5" fill="#D9D9D9"/>
<rect opacity="0.5" x="182.5" y="89.5" width="138" height="136" rx="9.5" stroke="#242729"/>
<rect opacity="0.5" x="182.5" y="268.5" width="138" height="136" rx="9.5" stroke="#242729"/>
<rect opacity="0.5" x="335.5" y="89.5" width="138" height="136" rx="9.5" stroke="#242729"/>
<rect opacity="0.5" x="335.5" y="268.5" width="138" height="136" rx="9.5" stroke="#242729"/>
<rect opacity="0.5" x="489.5" y="89.5" width="138" height="136" rx="9.5" stroke="#242729"/>
<rect opacity="0.5" x="489.5" y="268.5" width="138" height="136" rx="9.5" stroke="#242729"/>
<rect opacity="0.5" x="642.5" y="89.5" width="138" height="136" rx="9.5" stroke="#242729"/>
<rect opacity="0.5" x="642.5" y="268.5" width="138" height="136" rx="9.5" stroke="#242729"/>
<rect x="234" y="135" width="35" height="35" rx="17.5" fill="#730C7F"/>
<path d="M254.836 149.895H251.017C250.725 149.895 250.488 149.658 250.488 149.366C250.488 149.074 250.725 148.837 251.017 148.837H254.836C255.128 148.837 255.365 149.074 255.365 149.366C255.365 149.658 255.128 149.895 254.836 149.895Z" fill="white"/>
<path d="M251.041 153.402H253.763C254.055 153.402 254.292 153.639 254.292 153.931C254.292 154.223 254.055 154.46 253.763 154.46H251.041C250.748 154.46 250.512 154.223 250.512 153.931C250.512 153.639 250.748 153.402 251.041 153.402Z" fill="white"/>
<path d="M255.925 151.116H251.017C250.811 151.091 250.61 151.187 250.499 151.362C250.388 151.537 250.388 151.76 250.499 151.935C250.61 152.11 250.811 152.206 251.017 152.181H255.925C256.194 152.149 256.397 151.92 256.397 151.649C256.397 151.377 256.194 151.148 255.925 151.116Z" fill="white"/>
<path fill-rule="evenodd" clip-rule="evenodd" d="M251.881 145.111H255.054C257.094 145.111 258.748 146.765 258.748 148.806V154.499C258.763 156.047 257.809 157.438 256.361 157.984C256.211 159.588 254.861 160.814 253.249 160.807H249.361C247.32 160.807 245.666 159.153 245.666 157.112V150.719C245.655 149.137 246.833 147.798 248.404 147.608C248.914 146.121 250.308 145.119 251.881 145.111ZM249.329 159.609H253.218C254.088 159.61 254.851 159.031 255.085 158.194H251.881C249.84 158.194 248.186 156.539 248.186 154.499V148.837C247.367 149.081 246.804 149.833 246.802 150.688V157.081C246.802 158.477 247.933 159.609 249.329 159.609ZM257.582 154.499C257.582 155.895 256.45 157.027 255.054 157.027H251.881C250.486 157.023 249.357 155.893 249.353 154.499V148.806C249.357 147.411 250.486 146.282 251.881 146.278H255.054C256.45 146.278 257.582 147.41 257.582 148.806V154.499Z" fill="white"/>
<path d="M216.224 196.143C215.703 196.143 215.214 196.04 214.756 195.835C214.297 195.626 213.894 195.34 213.546 194.977C213.201 194.61 212.93 194.185 212.732 193.701C212.537 193.217 212.44 192.7 212.44 192.15C212.44 191.6 212.537 191.083 212.732 190.599C212.93 190.115 213.201 189.691 213.546 189.328C213.894 188.962 214.297 188.676 214.756 188.47C215.214 188.261 215.703 188.157 216.224 188.157C216.847 188.157 217.421 188.302 217.946 188.591C218.47 188.881 218.904 189.266 219.249 189.746L218.43 190.186C218.173 189.849 217.848 189.581 217.456 189.383C217.067 189.182 216.657 189.081 216.224 189.081C215.824 189.081 215.45 189.162 215.102 189.323C214.757 189.484 214.455 189.706 214.195 189.988C213.934 190.271 213.731 190.597 213.584 190.967C213.437 191.338 213.364 191.732 213.364 192.15C213.364 192.572 213.437 192.968 213.584 193.338C213.734 193.708 213.94 194.035 214.2 194.317C214.464 194.599 214.768 194.821 215.113 194.982C215.461 195.14 215.832 195.219 216.224 195.219C216.671 195.219 217.086 195.118 217.467 194.916C217.852 194.711 218.173 194.443 218.43 194.113L219.249 194.559C218.904 195.039 218.47 195.424 217.946 195.714C217.421 196 216.847 196.143 216.224 196.143ZM220.33 196V190.5H221.254V191.187C221.448 190.931 221.694 190.727 221.991 190.577C222.288 190.423 222.611 190.346 222.959 190.346C223.172 190.346 223.377 190.373 223.575 190.428L223.201 191.352C223.051 191.305 222.904 191.281 222.761 191.281C222.486 191.281 222.233 191.349 222.002 191.484C221.775 191.616 221.593 191.796 221.457 192.023C221.322 192.251 221.254 192.504 221.254 192.782V196H220.33ZM226.392 196.143C225.886 196.143 225.424 196.013 225.006 195.752C224.591 195.492 224.259 195.144 224.01 194.707C223.764 194.267 223.642 193.782 223.642 193.25C223.642 192.847 223.713 192.471 223.856 192.122C223.999 191.77 224.195 191.462 224.445 191.198C224.698 190.931 224.991 190.722 225.325 190.571C225.658 190.421 226.014 190.346 226.392 190.346C226.806 190.346 227.185 190.43 227.53 190.599C227.878 190.764 228.175 190.995 228.421 191.292C228.67 191.589 228.856 191.934 228.977 192.326C229.101 192.718 229.147 193.138 229.114 193.585H224.626C224.67 193.897 224.773 194.176 224.934 194.421C225.095 194.663 225.301 194.856 225.55 194.999C225.803 195.142 226.084 195.215 226.392 195.219C226.722 195.219 227.02 195.135 227.288 194.966C227.556 194.794 227.772 194.559 227.937 194.262L228.878 194.482C228.658 194.97 228.326 195.369 227.882 195.681C227.438 195.989 226.942 196.143 226.392 196.143ZM224.599 192.859H228.185C228.155 192.551 228.056 192.271 227.888 192.018C227.719 191.761 227.504 191.556 227.244 191.402C226.984 191.248 226.7 191.171 226.392 191.171C226.084 191.171 225.801 191.246 225.545 191.396C225.288 191.547 225.075 191.75 224.907 192.007C224.742 192.26 224.639 192.544 224.599 192.859ZM234.431 190.5H235.355V196H234.431L234.392 195.07C234.22 195.389 233.981 195.648 233.677 195.846C233.376 196.044 233.017 196.143 232.599 196.143C232.196 196.143 231.818 196.068 231.466 195.917C231.114 195.763 230.802 195.553 230.531 195.285C230.263 195.014 230.054 194.702 229.904 194.35C229.754 193.998 229.679 193.618 229.679 193.211C229.679 192.819 229.752 192.449 229.899 192.1C230.045 191.752 230.249 191.448 230.509 191.187C230.773 190.923 231.077 190.718 231.422 190.571C231.767 190.421 232.137 190.346 232.533 190.346C232.966 190.346 233.345 190.449 233.672 190.654C233.998 190.856 234.262 191.118 234.464 191.44L234.431 190.5ZM232.583 195.246C232.946 195.246 233.259 195.158 233.523 194.982C233.791 194.803 233.996 194.561 234.139 194.256C234.286 193.952 234.359 193.617 234.359 193.25C234.359 192.876 234.286 192.539 234.139 192.238C233.992 191.934 233.785 191.693 233.518 191.517C233.254 191.338 232.942 191.248 232.583 191.248C232.22 191.248 231.89 191.338 231.593 191.517C231.296 191.697 231.059 191.939 230.883 192.243C230.711 192.544 230.625 192.88 230.625 193.25C230.625 193.62 230.714 193.958 230.894 194.262C231.074 194.563 231.312 194.803 231.609 194.982C231.906 195.158 232.231 195.246 232.583 195.246ZM239.303 191.424H238.054L238.049 196H237.125L237.13 191.424H236.184V190.5H237.13L237.125 188.773H238.049L238.054 190.5H239.303V191.424ZM242.569 196.143C242.063 196.143 241.601 196.013 241.183 195.752C240.769 195.492 240.437 195.144 240.188 194.707C239.942 194.267 239.819 193.782 239.819 193.25C239.819 192.847 239.891 192.471 240.034 192.122C240.177 191.77 240.373 191.462 240.622 191.198C240.875 190.931 241.169 190.722 241.502 190.571C241.836 190.421 242.192 190.346 242.569 190.346C242.984 190.346 243.363 190.43 243.708 190.599C244.056 190.764 244.353 190.995 244.599 191.292C244.848 191.589 245.033 191.934 245.154 192.326C245.279 192.718 245.325 193.138 245.292 193.585H240.804C240.848 193.897 240.95 194.176 241.112 194.421C241.273 194.663 241.478 194.856 241.728 194.999C241.981 195.142 242.261 195.215 242.569 195.219C242.899 195.219 243.198 195.135 243.466 194.966C243.733 194.794 243.95 194.559 244.115 194.262L245.055 194.482C244.835 194.97 244.503 195.369 244.06 195.681C243.616 195.989 243.119 196.143 242.569 196.143ZM240.776 192.859H244.362C244.333 192.551 244.234 192.271 244.065 192.018C243.897 191.761 243.682 191.556 243.422 191.402C243.161 191.248 242.877 191.171 242.569 191.171C242.261 191.171 241.979 191.246 241.722 191.396C241.466 191.547 241.253 191.75 241.084 192.007C240.919 192.26 240.817 192.544 240.776 192.859ZM248.936 196V188.3H251.483C252.015 188.3 252.513 188.401 252.979 188.602C253.445 188.8 253.853 189.077 254.205 189.433C254.557 189.785 254.832 190.194 255.03 190.659C255.232 191.121 255.333 191.618 255.333 192.15C255.333 192.682 255.232 193.18 255.03 193.646C254.832 194.108 254.557 194.517 254.205 194.872C253.853 195.224 253.445 195.501 252.979 195.703C252.513 195.901 252.015 196 251.483 196H248.936ZM249.86 195.076H251.483C251.886 195.076 252.264 195.001 252.616 194.85C252.972 194.696 253.283 194.486 253.551 194.218C253.819 193.95 254.028 193.64 254.178 193.288C254.332 192.933 254.409 192.553 254.409 192.15C254.409 191.747 254.332 191.369 254.178 191.017C254.028 190.661 253.817 190.35 253.545 190.082C253.278 189.814 252.968 189.605 252.616 189.455C252.264 189.301 251.886 189.224 251.483 189.224H249.86V195.076ZM258.65 196.143C258.144 196.143 257.682 196.013 257.264 195.752C256.85 195.492 256.518 195.144 256.269 194.707C256.023 194.267 255.9 193.782 255.9 193.25C255.9 192.847 255.972 192.471 256.115 192.122C256.258 191.77 256.454 191.462 256.703 191.198C256.956 190.931 257.25 190.722 257.583 190.571C257.917 190.421 258.273 190.346 258.65 190.346C259.156 190.346 259.616 190.476 260.031 190.736C260.449 190.997 260.781 191.347 261.026 191.787C261.276 192.227 261.4 192.715 261.4 193.25C261.4 193.65 261.329 194.024 261.186 194.372C261.043 194.72 260.845 195.028 260.592 195.296C260.342 195.56 260.051 195.767 259.717 195.917C259.387 196.068 259.032 196.143 258.65 196.143ZM258.65 195.219C258.995 195.219 259.305 195.129 259.58 194.949C259.858 194.766 260.077 194.526 260.234 194.229C260.396 193.928 260.476 193.602 260.476 193.25C260.476 192.891 260.394 192.561 260.229 192.26C260.067 191.959 259.849 191.719 259.574 191.539C259.299 191.36 258.991 191.27 258.65 191.27C258.306 191.27 257.996 191.362 257.721 191.545C257.446 191.725 257.228 191.965 257.066 192.265C256.905 192.566 256.824 192.894 256.824 193.25C256.824 193.617 256.907 193.95 257.072 194.251C257.237 194.548 257.459 194.784 257.737 194.96C258.016 195.133 258.32 195.219 258.65 195.219ZM266.068 194.548L266.893 194.993C266.643 195.342 266.326 195.62 265.941 195.829C265.56 196.038 265.145 196.143 264.698 196.143C264.192 196.143 263.73 196.013 263.312 195.752C262.898 195.492 262.566 195.144 262.317 194.707C262.071 194.267 261.948 193.782 261.948 193.25C261.948 192.847 262.02 192.471 262.163 192.122C262.306 191.77 262.502 191.462 262.751 191.198C263.004 190.931 263.297 190.722 263.631 190.571C263.965 190.421 264.32 190.346 264.698 190.346C265.145 190.346 265.56 190.45 265.941 190.659C266.326 190.868 266.643 191.149 266.893 191.501L266.068 191.946C265.892 191.73 265.683 191.563 265.441 191.446C265.199 191.329 264.951 191.27 264.698 191.27C264.357 191.27 264.047 191.362 263.769 191.545C263.494 191.725 263.275 191.965 263.114 192.265C262.953 192.566 262.872 192.894 262.872 193.25C262.872 193.606 262.953 193.934 263.114 194.234C263.279 194.531 263.499 194.77 263.774 194.949C264.053 195.129 264.361 195.219 264.698 195.219C264.969 195.219 265.224 195.157 265.463 195.032C265.701 194.907 265.903 194.746 266.068 194.548ZM267.59 193.91V190.5H268.514V193.706C268.514 193.985 268.582 194.238 268.718 194.465C268.854 194.693 269.035 194.874 269.262 195.01C269.493 195.142 269.746 195.208 270.021 195.208C270.3 195.208 270.551 195.142 270.775 195.01C271.002 194.874 271.184 194.693 271.319 194.465C271.455 194.238 271.523 193.985 271.523 193.706V190.5H272.447L272.452 196H271.528L271.523 195.301C271.329 195.558 271.083 195.763 270.786 195.917C270.489 196.068 270.168 196.143 269.823 196.143C269.413 196.143 269.037 196.044 268.696 195.846C268.359 195.644 268.089 195.375 267.887 195.037C267.689 194.7 267.59 194.324 267.59 193.91ZM273.557 196V190.5H274.481V191.187C274.676 190.931 274.92 190.727 275.213 190.577C275.51 190.423 275.833 190.346 276.181 190.346C276.588 190.346 276.96 190.445 277.297 190.643C277.635 190.841 277.901 191.103 278.095 191.429C278.289 191.103 278.553 190.841 278.887 190.643C279.224 190.445 279.595 190.346 279.998 190.346C280.412 190.346 280.788 190.447 281.125 190.648C281.463 190.846 281.73 191.114 281.928 191.451C282.13 191.789 282.231 192.165 282.231 192.579V196H281.307V192.799C281.307 192.528 281.241 192.276 281.109 192.045C280.977 191.814 280.799 191.629 280.575 191.49C280.352 191.351 280.104 191.281 279.833 191.281C279.562 191.281 279.314 191.347 279.09 191.479C278.867 191.607 278.689 191.787 278.557 192.018C278.425 192.245 278.359 192.506 278.359 192.799V196H277.435V192.799C277.435 192.506 277.369 192.245 277.237 192.018C277.105 191.787 276.925 191.607 276.698 191.479C276.474 191.347 276.227 191.281 275.955 191.281C275.688 191.281 275.44 191.351 275.213 191.49C274.989 191.629 274.811 191.814 274.679 192.045C274.547 192.276 274.481 192.528 274.481 192.799V196H273.557ZM285.645 196.143C285.139 196.143 284.677 196.013 284.259 195.752C283.845 195.492 283.513 195.144 283.264 194.707C283.018 194.267 282.895 193.782 282.895 193.25C282.895 192.847 282.967 192.471 283.11 192.122C283.253 191.77 283.449 191.462 283.698 191.198C283.951 190.931 284.245 190.722 284.578 190.571C284.912 190.421 285.268 190.346 285.645 190.346C286.06 190.346 286.439 190.43 286.784 190.599C287.132 190.764 287.429 190.995 287.675 191.292C287.924 191.589 288.109 191.934 288.23 192.326C288.355 192.718 288.401 193.138 288.368 193.585H283.88C283.924 193.897 284.027 194.176 284.188 194.421C284.349 194.663 284.555 194.856 284.804 194.999C285.057 195.142 285.337 195.215 285.645 195.219C285.975 195.219 286.274 195.135 286.542 194.966C286.81 194.794 287.026 194.559 287.191 194.262L288.131 194.482C287.911 194.97 287.58 195.369 287.136 195.681C286.692 195.989 286.195 196.143 285.645 196.143ZM283.852 192.859H287.438C287.409 192.551 287.31 192.271 287.141 192.018C286.973 191.761 286.758 191.556 286.498 191.402C286.238 191.248 285.953 191.171 285.645 191.171C285.337 191.171 285.055 191.246 284.798 191.396C284.542 191.547 284.329 191.75 284.16 192.007C283.995 192.26 283.893 192.544 283.852 192.859ZM294.157 192.579V196H293.233V192.782C293.233 192.504 293.165 192.251 293.029 192.023C292.894 191.796 292.712 191.616 292.485 191.484C292.257 191.349 292.004 191.281 291.726 191.281C291.451 191.281 291.198 191.349 290.967 191.484C290.739 191.616 290.558 191.796 290.422 192.023C290.287 192.251 290.219 192.504 290.219 192.782V196H289.295V190.5H290.219V191.187C290.413 190.931 290.659 190.727 290.956 190.577C291.253 190.423 291.575 190.346 291.924 190.346C292.334 190.346 292.708 190.447 293.046 190.648C293.387 190.846 293.656 191.114 293.854 191.451C294.056 191.789 294.157 192.165 294.157 192.579ZM298.106 191.424H296.857L296.852 196H295.928L295.933 191.424H294.987V190.5H295.933L295.928 188.773H296.852L296.857 190.5H298.106V191.424Z" fill="black"/>
<defs>
<filter id="filter0_dddddd_384_25906" x="0" y="0.837963" width="924.775" height="769.573" filterUnits="userSpaceOnUse" color-interpolation-filters="sRGB">
<feFlood flood-opacity="0" result="BackgroundImageFix"/>
<feColorMatrix in="SourceAlpha" type="matrix" values="0 0 0 0 0 0 0 0 0 0 0 0 0 0 0 0 0 0 127 0" result="hardAlpha"/>
<feOffset dy="3.48148"/>
<feGaussianBlur stdDeviation="2.32176"/>
<feColorMatrix type="matrix" values="0 0 0 0 0 0 0 0 0 0 0 0 0 0 0 0 0 0 0.07 0"/>
<feBlend mode="normal" in2="BackgroundImageFix" result="effect1_dropShadow_384_25906"/>
<feColorMatrix in="SourceAlpha" type="matrix" values="0 0 0 0 0 0 0 0 0 0 0 0 0 0 0 0 0 0 127 0" result="hardAlpha"/>
<feOffset dy="15.3185"/>
<feGaussianBlur stdDeviation="4.80741"/>
<feColorMatrix type="matrix" values="0 0 0 0 0 0 0 0 0 0 0 0 0 0 0 0 0 0 0.0531481 0"/>
<feBlend mode="normal" in2="effect1_dropShadow_384_25906" result="effect2_dropShadow_384_25906"/>
<feColorMatrix in="SourceAlpha" type="matrix" values="0 0 0 0 0 0 0 0 0 0 0 0 0 0 0 0 0 0 127 0" result="hardAlpha"/>
<feOffset dy="37.6"/>
<feGaussianBlur stdDeviation="9.5875"/>
<feColorMatrix type="matrix" values="0 0 0 0 0 0 0 0 0 0 0 0 0 0 0 0 0 0 0.0425185 0"/>
<feBlend mode="normal" in2="effect2_dropShadow_384_25906" result="effect3_dropShadow_384_25906"/>
<feColorMatrix in="SourceAlpha" type="matrix" values="0 0 0 0 0 0 0 0 0 0 0 0 0 0 0 0 0 0 127 0" result="hardAlpha"/>
<feOffset dy="72.4148"/>
<feGaussianBlur stdDeviation="18.7926"/>
<feColorMatrix type="matrix" values="0 0 0 0 0 0 0 0 0 0 0 0 0 0 0 0 0 0 0.035 0"/>
<feBlend mode="normal" in2="effect3_dropShadow_384_25906" result="effect4_dropShadow_384_25906"/>
<feColorMatrix in="SourceAlpha" type="matrix" values="0 0 0 0 0 0 0 0 0 0 0 0 0 0 0 0 0 0 127 0" result="hardAlpha"/>
<feOffset dy="121.852"/>
<feGaussianBlur stdDeviation="34.5532"/>
<feColorMatrix type="matrix" values="0 0 0 0 0 0 0 0 0 0 0 0 0 0 0 0 0 0 0.0274815 0"/>
<feBlend mode="normal" in2="effect4_dropShadow_384_25906" result="effect5_dropShadow_384_25906"/>
<feColorMatrix in="SourceAlpha" type="matrix" values="0 0 0 0 0 0 0 0 0 0 0 0 0 0 0 0 0 0 127 0" result="hardAlpha"/>
<feOffset dy="188"/>
<feGaussianBlur stdDeviation="59"/>
<feColorMatrix type="matrix" values="0 0 0 0 0 0 0 0 0 0 0 0 0 0 0 0 0 0 0.0168519 0"/>
<feBlend mode="normal" in2="effect5_dropShadow_384_25906" result="effect6_dropShadow_384_25906"/>
<feBlend mode="normal" in="SourceGraphic" in2="effect6_dropShadow_384_25906" result="shape"/>
</filter>
<filter id="filter1_dddddd_384_25906" x="20" y="20.838" width="924.775" height="769.573" filterUnits="userSpaceOnUse" color-interpolation-filters="sRGB">
<feFlood flood-opacity="0" result="BackgroundImageFix"/>
<feColorMatrix in="SourceAlpha" type="matrix" values="0 0 0 0 0 0 0 0 0 0 0 0 0 0 0 0 0 0 127 0" result="hardAlpha"/>
<feOffset dy="3.48148"/>
<feGaussianBlur stdDeviation="2.32176"/>
<feColorMatrix type="matrix" values="0 0 0 0 0 0 0 0 0 0 0 0 0 0 0 0 0 0 0.07 0"/>
<feBlend mode="normal" in2="BackgroundImageFix" result="effect1_dropShadow_384_25906"/>
<feColorMatrix in="SourceAlpha" type="matrix" values="0 0 0 0 0 0 0 0 0 0 0 0 0 0 0 0 0 0 127 0" result="hardAlpha"/>
<feOffset dy="15.3185"/>
<feGaussianBlur stdDeviation="4.80741"/>
<feColorMatrix type="matrix" values="0 0 0 0 0 0 0 0 0 0 0 0 0 0 0 0 0 0 0.0531481 0"/>
<feBlend mode="normal" in2="effect1_dropShadow_384_25906" result="effect2_dropShadow_384_25906"/>
<feColorMatrix in="SourceAlpha" type="matrix" values="0 0 0 0 0 0 0 0 0 0 0 0 0 0 0 0 0 0 127 0" result="hardAlpha"/>
<feOffset dy="37.6"/>
<feGaussianBlur stdDeviation="9.5875"/>
<feColorMatrix type="matrix" values="0 0 0 0 0 0 0 0 0 0 0 0 0 0 0 0 0 0 0.0425185 0"/>
<feBlend mode="normal" in2="effect2_dropShadow_384_25906" result="effect3_dropShadow_384_25906"/>
<feColorMatrix in="SourceAlpha" type="matrix" values="0 0 0 0 0 0 0 0 0 0 0 0 0 0 0 0 0 0 127 0" result="hardAlpha"/>
<feOffset dy="72.4148"/>
<feGaussianBlur stdDeviation="18.7926"/>
<feColorMatrix type="matrix" values="0 0 0 0 0 0 0 0 0 0 0 0 0 0 0 0 0 0 0.035 0"/>
<feBlend mode="normal" in2="effect3_dropShadow_384_25906" result="effect4_dropShadow_384_25906"/>
<feColorMatrix in="SourceAlpha" type="matrix" values="0 0 0 0 0 0 0 0 0 0 0 0 0 0 0 0 0 0 127 0" result="hardAlpha"/>
<feOffset dy="121.852"/>
<feGaussianBlur stdDeviation="34.5532"/>
<feColorMatrix type="matrix" values="0 0 0 0 0 0 0 0 0 0 0 0 0 0 0 0 0 0 0.0274815 0"/>
<feBlend mode="normal" in2="effect4_dropShadow_384_25906" result="effect5_dropShadow_384_25906"/>
<feColorMatrix in="SourceAlpha" type="matrix" values="0 0 0 0 0 0 0 0 0 0 0 0 0 0 0 0 0 0 127 0" result="hardAlpha"/>
<feOffset dy="188"/>
<feGaussianBlur stdDeviation="59"/>
<feColorMatrix type="matrix" values="0 0 0 0 0 0 0 0 0 0 0 0 0 0 0 0 0 0 0.0168519 0"/>
<feBlend mode="normal" in2="effect5_dropShadow_384_25906" result="effect6_dropShadow_384_25906"/>
<feBlend mode="normal" in="SourceGraphic" in2="effect6_dropShadow_384_25906" result="shape"/>
</filter>
</defs>
</svg>
