<svg width="440" height="403" viewBox="0 0 440 403" fill="none" xmlns="http://www.w3.org/2000/svg">
<path d="M197.676 68.2094H245.273C247.451 68.1914 249.546 69.0386 251.1 70.565C252.654 72.0914 253.538 74.1721 253.558 76.35V105.809C253.526 108.018 252.633 110.128 251.069 111.69C249.506 113.251 247.395 114.142 245.186 114.172H235.43V125.329L224.273 114.172H197.773C195.563 114.144 193.45 113.255 191.886 111.692C190.323 110.13 189.43 108.019 189.4 105.809V76.35C189.409 75.272 189.63 74.2064 190.051 73.2139C190.472 72.2214 191.084 71.3215 191.852 70.5656C192.621 69.8097 193.531 69.2125 194.53 68.8082C195.529 68.404 196.598 68.2005 197.676 68.2094Z" fill="#00D3A0"/>
<path d="M245.957 77.9161H196.988C196.646 77.9161 196.369 78.1932 196.369 78.5349V80.0915C196.369 80.4332 196.646 80.7102 196.988 80.7102H245.957C246.299 80.7102 246.576 80.4332 246.576 80.0915V78.5349C246.576 78.1932 246.299 77.9161 245.957 77.9161Z" fill="white"/>
<path d="M245.957 86.2791H196.988C196.646 86.2791 196.369 86.5561 196.369 86.8978V88.4544C196.369 88.7961 196.646 89.0731 196.988 89.0731H245.957C246.299 89.0731 246.576 88.7961 246.576 88.4544V86.8978C246.576 86.5561 246.299 86.2791 245.957 86.2791Z" fill="white"/>
<path d="M245.957 94.6517H196.988C196.646 94.6517 196.369 94.9288 196.369 95.2705V96.8271C196.369 97.1688 196.646 97.4458 196.988 97.4458H245.957C246.299 97.4458 246.576 97.1688 246.576 96.8271V95.2705C246.576 94.9288 246.299 94.6517 245.957 94.6517Z" fill="white"/>
<path d="M245.957 103.015H196.988C196.646 103.015 196.369 103.292 196.369 103.633V105.19C196.369 105.532 196.646 105.809 196.988 105.809H245.957C246.299 105.809 246.576 105.532 246.576 105.19V103.633C246.576 103.292 246.299 103.015 245.957 103.015Z" fill="white"/>
<path d="M211.355 174.607L210.388 169.938C212.48 166.995 213.587 163.465 213.549 159.854C213.676 155.435 214.099 151.029 214.816 146.666C214.816 146.666 217.716 141.774 220.095 140.382C220.43 140.212 220.708 139.947 220.895 139.621C221.083 139.294 221.171 138.921 221.148 138.545C221.042 137.356 220.404 135.896 217.939 135.896C213.81 135.896 206.811 140.363 206.724 149.141L205.041 149.702C205.041 149.702 202.508 141.803 199.637 138.342C199.637 138.342 192.279 115.226 187.32 116.415C183.568 117.314 193.372 140.198 193.372 140.198L192.888 140.595C192.888 140.595 180.581 115.168 175.853 117.314C171.377 119.344 186.653 143.631 186.653 143.631L185.212 144.472C185.212 144.472 173.301 121.268 168.283 124.816C165.479 126.75 179.991 147.304 179.991 147.304L178.193 148.252C178.193 148.252 167.084 131.004 162.869 131.932C158.654 132.86 173.359 151.723 173.359 151.723C173.359 151.723 179.256 174.182 188.286 176.715L189.253 180.524C189.253 180.524 202.363 181.182 211.355 174.607Z" fill="#FFCDBE"/>
<path d="M188.131 176.715L189.146 180.524C189.146 180.524 202.227 181.182 211.247 174.607L210.232 169.937C197.528 178.513 188.131 176.715 188.131 176.715ZM177.051 151.152C176.848 151.152 176.654 151.072 176.511 150.929C176.368 150.785 176.287 150.591 176.287 150.388C176.287 150.275 176.313 150.162 176.364 150.06C176.414 149.958 176.487 149.868 176.577 149.799C176.993 149.47 186.874 141.774 196.165 139.531C196.354 139.502 196.547 139.546 196.705 139.652C196.864 139.759 196.977 139.921 197.022 140.107C197.067 140.293 197.041 140.488 196.948 140.656C196.856 140.823 196.704 140.95 196.523 141.01C187.56 143.176 177.621 150.911 177.515 150.988C177.384 151.094 177.22 151.152 177.051 151.152ZM193.371 167.076C193.198 167.076 193.031 167.018 192.896 166.911C192.761 166.804 192.666 166.654 192.626 166.486C190.867 158.606 179.748 156.644 179.642 156.624C179.544 156.606 179.451 156.568 179.367 156.513C179.284 156.458 179.212 156.388 179.157 156.305C179.101 156.222 179.062 156.129 179.042 156.031C179.023 155.933 179.023 155.833 179.043 155.735C179.08 155.544 179.189 155.375 179.347 155.262C179.505 155.149 179.701 155.1 179.893 155.126C180.338 155.203 189.726 156.856 193.148 163.508C194.202 159.361 197.083 151.771 204.431 149.973C204.531 149.939 204.638 149.927 204.743 149.936C204.849 149.946 204.951 149.977 205.043 150.028C205.136 150.08 205.217 150.149 205.281 150.234C205.346 150.318 205.392 150.414 205.416 150.517C205.441 150.62 205.445 150.727 205.426 150.831C205.407 150.936 205.367 151.035 205.308 151.123C205.249 151.211 205.172 151.285 205.083 151.342C204.994 151.399 204.893 151.436 204.789 151.452C195.788 153.666 194.154 166.293 194.154 166.418C194.131 166.596 194.048 166.759 193.917 166.881C193.786 167.003 193.617 167.075 193.438 167.085L193.371 167.076Z" fill="#FAA68E"/>
<path d="M299.85 147.778V188.268H332.238V127.533H299.85V147.778Z" fill="#FAA68E"/>
<path d="M311.993 168.023C311.121 168.037 310.255 167.873 309.449 167.541C308.642 167.208 307.912 166.714 307.304 166.09C303.736 162.512 305.37 156.344 310.059 154.488C318.674 151.017 328.177 141.919 332.238 137.752V127.533H299.85V188.268H332.238V168.023H311.993Z" fill="#EA8A6F"/>
<path d="M309.971 168.023L309.005 169.957C308.31 171.34 307.949 172.866 307.951 174.414V182.148L305.93 188.22L303.9 182.148V176.077L305.93 169.995V167.975H299.859V159.873L293.777 160.385V267.218H338.319V159.902L309.971 168.023Z" fill="#B5D3FF"/>
<path d="M316.043 188.268C316.043 188.268 324.309 183.976 328.186 180.166C329.792 178.684 331.602 177.44 333.562 176.473L334.258 176.125H338.309V159.921L309.971 168.023L309.005 169.957C308.365 171.249 308.012 172.664 307.97 174.105C308.154 174.259 316.043 180.273 316.043 188.268ZM299.849 178.146C301.869 178.146 303.89 182.197 303.89 182.197V176.125L305.92 170.054V168.033H299.849V159.931L293.768 160.434V184.227H295.798C295.798 184.227 297.819 178.146 299.849 178.146Z" fill="#A0C7FF"/>
<path d="M332.237 144.385V151.848L310 168.043C310 168.043 318.093 174.114 318.093 182.216V186.267H320.026C320.669 186.268 321.303 186.114 321.875 185.82C322.447 185.526 322.94 185.099 323.313 184.575C327.074 179.306 338.299 163.305 338.299 159.941V155.899C338.299 155.899 336.288 144.994 332.237 144.385ZM299.849 151.829V158.49C299.849 158.49 301.869 168.023 305.92 168.023C305.92 168.023 305.92 170.044 301.869 170.044C297.819 170.044 295.798 184.217 295.798 184.217C294.611 176.861 293.932 169.431 293.768 161.981V159.95L294.812 155.783C295.094 154.661 295.743 153.666 296.655 152.955C297.568 152.244 298.692 151.858 299.849 151.858V151.829Z" fill="#CEE2FF"/>
<path d="M299.849 158.491V151.829C298.692 151.829 297.568 152.215 296.655 152.926C295.743 153.637 295.094 154.633 294.812 155.754L293.768 159.921C293.768 159.921 295.798 168.023 305.92 168.023C301.869 168.023 299.849 158.491 299.849 158.491Z" fill="#AAC3E9"/>
<path d="M334.306 153.492C334.917 152.97 335.407 152.32 335.741 151.589C336.075 150.857 336.245 150.061 336.239 149.257C336.239 149.18 336.239 149.103 336.239 149.025C335.272 146.705 333.919 144.626 332.217 144.365V151.829L309.98 168.023C310.766 168.653 311.515 169.328 312.223 170.044C319.861 165.355 330.061 157.031 334.306 153.492Z" fill="#A8C1E7"/>
<path d="M303.879 250.009C303.747 250.009 303.616 249.982 303.495 249.93C303.374 249.878 303.264 249.802 303.174 249.706C303.083 249.61 303.013 249.496 302.968 249.372C302.923 249.248 302.904 249.116 302.912 248.984V218.114C302.912 213.995 304.846 190.221 304.933 189.216C304.947 188.946 305.067 188.694 305.267 188.513C305.468 188.333 305.732 188.24 306.001 188.254C306.27 188.268 306.523 188.388 306.703 188.589C306.884 188.789 306.977 189.053 306.963 189.322C306.958 189.341 306.958 189.361 306.963 189.38C306.963 189.631 304.942 214.082 304.942 218.114V248.984C304.95 249.116 304.931 249.248 304.886 249.372C304.841 249.496 304.771 249.61 304.68 249.706C304.59 249.802 304.481 249.878 304.359 249.93C304.238 249.982 304.107 250.009 303.975 250.009H303.879Z" fill="#759EDB"/>
<path d="M186.48 186.248L184.449 180.167C184.449 180.167 204.694 178.146 212.796 172.074L214.817 178.146C214.817 178.146 202.674 188.268 186.48 186.248Z" fill="#CEE2FF"/>
<path d="M257.724 172.886L255.984 173.756C255.544 173.974 255.2 174.346 255.017 174.801C253.808 177.701 249.216 189.303 249.216 196.37C249.216 204.462 235.042 244.953 235.042 244.953L214.797 176.125C214.797 176.125 194.552 184.217 184.43 184.217C184.43 184.217 202.654 291.534 228.971 293.535C255.288 295.536 273.512 242.922 273.512 242.922C273.512 242.922 265.014 185.174 260.479 173.911C260.274 173.419 259.882 173.027 259.39 172.823C258.897 172.618 258.343 172.617 257.85 172.819L257.724 172.886Z" fill="#1C2D80"/>
<path d="M293.769 160.434L303.882 263.168V311.76H265.432L266.398 285.607C266.398 285.607 269.434 242.922 267.365 238.881C265.296 234.84 261.294 176.125 257.243 174.105C257.243 174.105 255.222 172.084 261.294 172.084C267.365 172.084 279.518 168.033 279.518 168.033C279.518 168.033 285.677 160.937 293.769 160.434Z" fill="#1C2D80"/>
<path d="M294.512 167.965L279.604 190.289L289.726 204.462L279.604 212.564L291.902 260.025C292.611 262.71 292.377 265.557 291.239 268.09C290.1 270.622 288.126 272.687 285.646 273.938C282.659 275.427 272.991 276.78 266.987 277.264C266.687 282.233 266.445 285.636 266.445 285.636L265.479 311.789H303.88V263.167L294.512 167.965Z" fill="#131F5D"/>
<path d="M289.724 200.46L281.642 206.493L303.878 277.012V263.168L293.765 160.434C292.626 160.513 291.498 160.714 290.401 161.033L279.602 186.248L289.724 200.46Z" fill="#2F419F"/>
<path d="M337.283 151.829C338.055 153.756 338.405 155.827 338.308 157.901V161.865L291.746 287.473V311.769H370.696V216.606C370.696 216.606 376.768 184.218 390.941 180.167C390.963 179.679 390.889 179.191 390.721 178.732C390.554 178.273 390.298 177.852 389.967 177.492C389.637 177.133 389.238 176.842 388.795 176.638C388.351 176.433 387.871 176.318 387.383 176.299H387.084L378.991 174.279C378.991 174.279 354.502 163.943 350.451 161.923C346.4 159.902 340.299 153.85 337.283 151.829Z" fill="#22348F"/>
<path d="M364.625 204.463C359.365 222.89 353.245 249.023 349.6 265.043C348.682 269.115 346.405 272.752 343.143 275.357C339.881 277.961 335.83 279.377 331.656 279.371H314.863C314.159 279.371 313.467 279.188 312.856 278.839C312.244 278.49 311.734 277.988 311.376 277.382C311.018 276.775 310.824 276.087 310.813 275.383C310.802 274.679 310.975 273.984 311.314 273.368C321.582 254.834 340.319 222.687 340.319 222.687L320.983 208.61L294.753 279.371L291.746 287.473V311.769H370.696V216.606C370.696 216.606 375.608 190.444 386.89 182.216V178.842C386.89 178.842 372.726 176.125 364.625 204.463Z" fill="#1A2976"/>
<path d="M330.206 202.442L354.502 186.248L350.451 161.952C346.41 159.921 340.299 153.85 337.283 151.829C338.055 153.756 338.405 155.827 338.308 157.901V161.865L291.746 287.473V293.545L340.329 214.595L330.206 202.442Z" fill="#3346A9"/>
<path d="M215.734 310.976H201.231C200.695 310.979 200.179 310.769 199.796 310.392C199.414 310.015 199.197 309.502 199.191 308.966C199.189 308.518 199.335 308.083 199.607 307.728C202.575 303.861 210.9 297.886 221.786 296.803C222.965 296.687 224.145 296.581 225.315 296.494C226.939 296.378 228.563 296.3 230.197 296.271C231.57 296.271 232.943 296.271 234.316 296.329C235.47 296.387 236.62 296.494 237.767 296.648C238.734 296.774 239.701 296.948 240.668 297.17C241.47 297.365 242.261 297.604 243.036 297.886C243.7 298.136 244.346 298.43 244.97 298.766C245.535 299.052 246.081 299.375 246.604 299.732C247.087 300.069 247.552 300.43 247.996 300.815C248.422 301.183 248.837 301.569 249.234 301.956C250.021 302.651 250.676 303.483 251.167 304.412C251.806 305.774 252.114 307.268 252.067 308.772C252.077 309.048 252.033 309.323 251.937 309.581C251.841 309.84 251.695 310.077 251.507 310.279C251.32 310.481 251.094 310.644 250.843 310.759C250.592 310.873 250.321 310.938 250.046 310.947L215.734 310.976Z" fill="#0C174A"/>
<path d="M215.736 310.977C215.736 310.977 225.279 302.749 238.398 302.749C252.04 302.749 251.131 305.446 251.982 308.443C252.051 308.699 252.067 308.966 252.032 309.229C251.996 309.491 251.909 309.744 251.775 309.972C251.641 310.201 251.463 310.4 251.251 310.559C251.039 310.718 250.798 310.834 250.542 310.899C250.368 310.946 250.189 310.969 250.01 310.967L215.736 310.977Z" fill="#92ABCE"/>
<path d="M267.394 289.668L256.594 290.751L242.189 286.023C240.912 285.466 239.547 285.139 238.157 285.056H224.999C223.96 285.056 222.935 285.305 222.011 285.781L212.662 290.615C211.571 291.267 210.637 292.152 209.926 293.207C208.167 295.836 205.189 300.825 206.755 302.391C206.755 302.478 206.755 302.343 206.803 302.391C207.063 302.527 207.352 302.598 207.645 302.598C207.937 302.598 208.226 302.527 208.486 302.391C208.095 303.148 207.79 303.945 207.577 304.77C207.458 305.078 207.431 305.414 207.5 305.736C207.618 306.031 207.837 306.274 208.118 306.423C208.724 306.794 209.451 306.916 210.145 306.763C210.84 306.61 211.447 306.193 211.841 305.601C211.841 305.968 211.841 306.297 211.841 306.665C211.79 306.988 211.816 307.32 211.918 307.631C212.047 307.91 212.265 308.137 212.537 308.279C212.999 308.519 213.514 308.639 214.035 308.627C214.593 308.659 215.15 308.557 215.659 308.328C216.101 308.07 216.499 307.743 216.839 307.361L218.222 305.988C217.998 306.438 217.848 306.921 217.777 307.419C217.662 307.931 217.727 308.467 217.96 308.937C218.128 309.259 218.393 309.52 218.718 309.681C219.043 309.843 219.411 309.897 219.768 309.836C220.524 309.529 221.228 309.108 221.857 308.589C223.808 307.277 225.613 305.76 227.242 304.064C228.392 302.778 230.316 302.382 231.825 301.531C234.975 302.526 238.282 302.933 241.58 302.73C243.449 304.164 245.464 305.395 247.593 306.404C248.882 307.044 250.302 307.375 251.741 307.37L267.761 307.796L267.394 289.668Z" fill="#FFCDBE"/>
<path d="M267.394 289.668L259.166 290.49V294.038C259.166 296.346 258.249 298.559 256.617 300.191C254.986 301.823 252.772 302.739 250.465 302.739C250.213 302.739 249.972 302.739 249.73 302.739C247.985 302.613 246.263 302.266 244.606 301.705C241.843 300.74 239.02 299.955 236.156 299.355C235.285 299.171 234.377 299.297 233.589 299.712C232.801 300.127 232.184 300.805 231.844 301.627C234.994 302.625 238.302 303.028 241.599 302.817C243.47 304.251 245.485 305.485 247.612 306.5C248.9 307.143 250.321 307.475 251.76 307.467L267.78 307.902L267.394 289.668Z" fill="#FAA68E"/>
<path d="M209.594 301.009C209.544 301.026 209.49 301.026 209.44 301.009C209.411 300.989 209.386 300.964 209.367 300.935C209.348 300.906 209.335 300.873 209.329 300.839C209.322 300.805 209.323 300.77 209.33 300.736C209.338 300.702 209.352 300.67 209.372 300.641L213.143 295.101C213.621 294.39 214.291 293.83 215.076 293.487L221.573 290.586C221.639 290.557 221.713 290.555 221.78 290.58C221.847 290.605 221.901 290.656 221.931 290.722C221.96 290.787 221.963 290.861 221.937 290.929C221.912 290.996 221.861 291.05 221.796 291.079L215.299 293.98C214.605 294.287 214.012 294.783 213.587 295.411L209.807 300.951C209.778 300.975 209.744 300.993 209.707 301.003C209.67 301.013 209.632 301.015 209.594 301.009ZM212.775 304.566C212.717 304.557 212.662 304.538 212.611 304.508C212.562 304.458 212.534 304.39 212.534 304.32C212.534 304.25 212.562 304.182 212.611 304.131L217.184 298.234C217.681 297.605 218.33 297.113 219.069 296.803L225.315 294.231C225.348 294.217 225.384 294.21 225.421 294.21C225.457 294.211 225.493 294.218 225.527 294.233C225.56 294.247 225.59 294.268 225.615 294.294C225.64 294.321 225.66 294.352 225.673 294.386C225.698 294.451 225.698 294.524 225.671 294.589C225.644 294.654 225.592 294.706 225.528 294.734L219.282 297.306C218.626 297.575 218.053 298.012 217.619 298.572L213.036 304.47C213.006 304.509 212.966 304.539 212.92 304.556C212.874 304.573 212.823 304.577 212.775 304.566ZM218.537 305.63C218.478 305.63 218.42 305.61 218.373 305.572C218.316 305.529 218.277 305.466 218.266 305.395C218.256 305.325 218.273 305.253 218.315 305.195L221.612 300.796C222.231 299.959 223.113 299.353 224.116 299.075L230.932 297.267C230.967 297.254 231.005 297.249 231.042 297.252C231.08 297.255 231.116 297.265 231.15 297.283C231.183 297.301 231.212 297.325 231.235 297.354C231.258 297.384 231.275 297.418 231.285 297.454C231.294 297.491 231.296 297.528 231.29 297.565C231.284 297.603 231.27 297.638 231.25 297.669C231.229 297.701 231.203 297.728 231.171 297.748C231.14 297.769 231.104 297.783 231.067 297.789L224.3 299.597C223.418 299.837 222.641 300.36 222.086 301.086L218.799 305.524C218.77 305.564 218.73 305.596 218.684 305.615C218.637 305.634 218.587 305.639 218.537 305.63Z" fill="#EA8A6F"/>
<path d="M271.508 287.464H263.406V311.76H271.508V287.464Z" fill="#B5D3FF"/>
<path d="M267.448 287.473V301.705C267.449 302.229 267.347 302.748 267.147 303.232C266.947 303.716 266.654 304.157 266.284 304.528C265.914 304.898 265.475 305.193 264.991 305.393C264.507 305.594 263.988 305.698 263.464 305.698H263.406V311.769H271.498V287.473H267.448Z" fill="#82B6FF"/>
<path d="M383.343 179.925C385.45 178.877 387.855 178.593 390.147 179.122C392.44 179.651 394.477 180.96 395.912 182.825C396.26 183.27 396.608 183.792 396.975 184.217C398.851 186.625 401.026 190.434 401.026 192.319C401.026 196.37 382.811 303.667 382.811 303.667C382.811 303.667 381.796 311.76 371.21 311.76H271.502V285.443H348.431C348.431 285.443 352.482 283.413 354.503 283.413C354.503 283.413 352.482 279.371 354.503 279.371C354.628 277.956 355.243 276.629 356.243 275.62C356.332 275.513 356.429 275.413 356.533 275.32C358.554 273.29 364.626 230.779 364.626 230.779C364.626 230.779 372.727 184.217 382.85 180.166L383.343 179.925Z" fill="#22348F"/>
<path d="M370.107 305.688H271.492V311.76H371.209C381.844 311.76 382.811 303.658 382.811 303.658C382.811 303.658 384.039 296.407 385.857 285.607C384.371 291.415 381.741 296.868 378.122 301.647C377.19 302.894 375.98 303.908 374.59 304.609C373.199 305.311 371.665 305.68 370.107 305.688Z" fill="#1B2A78"/>
<path d="M370.696 288.227C370.571 288.228 370.448 288.197 370.338 288.138C370.228 288.079 370.135 287.993 370.067 287.889C366.345 282.301 356.773 284.138 356.677 284.157C356.58 284.178 356.479 284.18 356.381 284.161C356.284 284.143 356.19 284.105 356.108 284.05C356.025 283.995 355.954 283.924 355.899 283.841C355.844 283.758 355.806 283.665 355.787 283.567C355.739 283.42 355.739 283.261 355.787 283.113C355.923 282.813 359.171 275.572 371.672 275.572C371.779 275.56 371.887 275.57 371.99 275.603C372.092 275.636 372.187 275.689 372.267 275.761C372.347 275.833 372.411 275.92 372.455 276.019C372.499 276.117 372.522 276.223 372.522 276.331C372.522 276.438 372.499 276.545 372.455 276.643C372.411 276.741 372.347 276.829 372.267 276.9C372.187 276.972 372.092 277.026 371.99 277.058C371.887 277.091 371.779 277.102 371.672 277.09C363.357 277.09 359.51 280.512 358.001 282.446C361.163 282.127 367.998 282.098 371.295 287.048C371.406 287.216 371.445 287.421 371.406 287.618C371.366 287.816 371.25 287.989 371.082 288.102C370.966 288.176 370.833 288.219 370.696 288.227ZM367.689 295.304C367.564 295.307 367.44 295.277 367.33 295.218C367.22 295.159 367.127 295.072 367.06 294.966C363.193 289.233 353.467 287.231 353.37 287.231C353.273 287.213 353.179 287.175 353.097 287.12C353.014 287.065 352.943 286.994 352.888 286.911C352.833 286.828 352.795 286.735 352.776 286.638C352.758 286.54 352.759 286.439 352.781 286.342C352.823 286.146 352.939 285.975 353.105 285.863C353.27 285.751 353.473 285.708 353.67 285.743C354.105 285.839 364.15 287.908 368.327 294.164C368.405 294.277 368.45 294.41 368.457 294.548C368.465 294.685 368.435 294.822 368.37 294.944C368.305 295.065 368.208 295.167 368.09 295.237C367.972 295.307 367.836 295.344 367.699 295.343L367.689 295.304ZM228.99 277.921C228.822 277.923 228.656 277.887 228.504 277.817C228.352 277.747 228.217 277.644 228.11 277.515C227.665 276.983 227.733 276.132 228.313 274.982C229.86 271.878 231.59 256.612 232.286 248.936C232.293 248.838 232.318 248.742 232.361 248.654C232.404 248.566 232.465 248.488 232.538 248.423C232.612 248.359 232.698 248.309 232.79 248.278C232.883 248.246 232.981 248.233 233.079 248.24C233.28 248.259 233.466 248.358 233.594 248.514C233.723 248.67 233.785 248.87 233.766 249.071C233.679 249.98 231.706 271.53 229.637 275.659C229.568 275.792 229.51 275.931 229.463 276.074C230.672 275.001 233.128 271.24 234.297 263.061C234.326 262.866 234.43 262.69 234.588 262.57C234.745 262.451 234.943 262.398 235.139 262.423C235.338 262.452 235.519 262.558 235.64 262.72C235.761 262.881 235.814 263.084 235.786 263.284C234.404 272.952 231.097 277.37 229.347 277.863C229.231 277.897 229.111 277.917 228.99 277.921ZM239.102 267.982C238.9 267.982 238.706 267.902 238.562 267.759C238.419 267.615 238.339 267.421 238.339 267.218C238.339 253.519 236.405 249.381 236.405 249.332C236.361 249.243 236.334 249.146 236.328 249.046C236.321 248.946 236.335 248.846 236.367 248.752C236.399 248.658 236.45 248.571 236.516 248.496C236.583 248.421 236.663 248.361 236.753 248.317C236.933 248.232 237.14 248.219 237.329 248.283C237.518 248.346 237.675 248.479 237.768 248.656C237.855 248.83 239.866 253.035 239.866 267.218C239.868 267.318 239.849 267.417 239.812 267.51C239.774 267.603 239.719 267.687 239.649 267.758C239.579 267.829 239.495 267.885 239.403 267.924C239.311 267.962 239.212 267.982 239.112 267.982H239.102ZM268.465 236.851C268.334 236.857 268.203 236.837 268.08 236.792C267.957 236.746 267.844 236.676 267.75 236.585C267.655 236.495 267.579 236.386 267.527 236.265C267.476 236.145 267.449 236.015 267.45 235.884C267.45 206.096 255.538 181.916 255.413 181.675C255.284 181.436 255.256 181.157 255.334 180.897C255.412 180.638 255.59 180.42 255.828 180.292C256.067 180.164 256.346 180.136 256.606 180.214C256.865 180.292 257.083 180.469 257.211 180.708C257.337 180.959 269.47 205.565 269.47 235.816C269.48 235.952 269.461 236.089 269.414 236.216C269.367 236.344 269.294 236.461 269.199 236.559C269.104 236.656 268.99 236.733 268.863 236.783C268.736 236.834 268.601 236.857 268.465 236.851ZM266.444 246.973C266.188 246.973 265.942 246.871 265.76 246.69C265.579 246.509 265.477 246.263 265.477 246.007C265.129 232.79 257.501 208.059 257.424 207.817C257.381 207.689 257.366 207.554 257.379 207.419C257.392 207.285 257.434 207.155 257.5 207.037C257.566 206.92 257.657 206.818 257.765 206.737C257.874 206.657 257.998 206.6 258.129 206.57C258.252 206.53 258.382 206.515 258.511 206.526C258.64 206.537 258.766 206.574 258.88 206.634C258.995 206.695 259.096 206.777 259.178 206.878C259.26 206.978 259.321 207.094 259.357 207.218C259.676 208.243 267.15 232.461 267.498 245.949C267.506 246.215 267.409 246.473 267.228 246.668C267.047 246.864 266.797 246.98 266.531 246.993L266.444 246.973ZM356.029 276.838H355.826C355.693 276.817 355.566 276.768 355.452 276.695C355.339 276.621 355.243 276.525 355.169 276.412C355.095 276.299 355.046 276.172 355.024 276.039C355.002 275.906 355.009 275.77 355.043 275.639C355.457 273.904 356.049 272.215 356.812 270.602C356.966 270.257 357.054 269.887 357.073 269.51C357.934 254.602 368.375 209.181 368.82 207.257C368.88 206.995 369.04 206.768 369.266 206.623C369.492 206.478 369.766 206.428 370.029 206.483C370.161 206.507 370.287 206.557 370.399 206.632C370.511 206.707 370.606 206.805 370.677 206.919C370.749 207.032 370.797 207.16 370.816 207.293C370.836 207.426 370.828 207.562 370.792 207.692C370.686 208.156 359.945 254.863 359.094 269.568C359.063 270.197 358.912 270.814 358.649 271.385C357.956 272.885 357.421 274.454 357.054 276.065C357.007 276.297 356.877 276.504 356.688 276.646C356.5 276.789 356.265 276.857 356.029 276.838Z" fill="#131F5D"/>
<path d="M209.758 190.289C211.435 190.289 212.794 188.93 212.794 187.253C212.794 185.576 211.435 184.217 209.758 184.217C208.082 184.217 206.723 185.576 206.723 187.253C206.723 188.93 208.082 190.289 209.758 190.289Z" fill="#CEE2FF"/>
<path d="M269.017 114.355C268.167 112.039 268.13 109.503 268.912 107.162C269.694 104.822 271.248 102.818 273.319 101.477L272.178 93.4526L262.162 94.8835L263.873 106.911C263.873 106.911 266.725 112.634 269.017 114.355Z" fill="#774136"/>
<path d="M305.966 86.6175L269.072 100.037C269.072 100.037 264.238 108.912 269.072 114.355C269.072 114.355 260.206 109.521 258.205 95.4541C257.074 87.4296 262.237 80.5652 262.237 80.5652C261.762 77.3218 262.143 74.0108 263.342 70.96C264.541 67.9093 266.516 65.2247 269.072 63.1722C274.989 58.4638 282.946 51.0387 290.593 49.9558C298.608 48.815 302.33 46.2433 308.634 47.3938C314.938 48.5443 317.79 54.2678 317.79 54.2678L322.053 84.3358L305.966 86.6175Z" fill="#A65D4E"/>
<path d="M300.262 60.8421C306.698 59.9236 313.262 60.9681 319.095 63.8393L317.732 54.2678C316.813 52.6076 315.578 51.1428 314.097 49.9558C307.745 59.624 281.67 61.4319 275.927 62.2537C275.145 62.4086 274.338 62.3974 273.561 62.2208C272.783 62.0443 272.051 61.7063 271.412 61.2289C270.581 61.9056 269.778 62.5631 269.014 63.1625C265.725 65.7964 263.425 69.4666 262.488 73.5751C266.966 68.1898 273.286 64.6613 280.22 63.6749L300.262 60.8421Z" fill="#774136"/>
<path d="M305.116 80.575C305.116 80.575 303.704 56.2307 317.733 54.239C317.733 54.239 326.038 55.1091 328.609 58.8314C331.181 62.5536 336.76 67.436 340.907 73.44C346.06 80.8941 342.029 110.092 330.002 111.793L309.96 114.694L305.116 80.575Z" fill="#A65D4E"/>
<path d="M341.739 75.0446C339.486 75.6924 336.905 75.8374 334.894 74.3292C330.804 71.2547 325.574 60.1654 318.787 58.6668C318.411 58.591 318.064 58.4093 317.788 58.1431C317.512 57.8769 317.318 57.5373 317.228 57.1644C317.139 56.7914 317.158 56.4006 317.283 56.0382C317.409 55.6757 317.635 55.3566 317.936 55.1186C318.286 54.8607 318.661 54.6404 319.057 54.4612C318.245 54.3258 317.733 54.2775 317.733 54.2775C303.704 56.2691 305.116 80.5748 305.116 80.5748L306.257 88.5897C306.257 88.5897 303.356 66.353 318.574 74.5709C324.5 77.7807 327.556 80.2074 328.503 86.8785L331.964 111.242C341.777 107.143 345.316 83.775 341.739 75.0446Z" fill="#774136"/>
<path d="M269.076 100.037L272.112 121.394C273.107 128.839 275.516 136.026 279.208 142.567C283.279 149.654 289.36 156.46 297.375 155.319C319.428 152.187 336.337 127.282 336.337 127.282L328.342 99.7951C328.342 99.7951 306.589 90.62 305.138 80.5941C299.702 85.5458 293.252 89.2541 286.237 91.4611C274.471 95.1737 269.076 100.037 269.076 100.037Z" fill="#FFCDBE"/>
<path d="M281.052 98.3353C289.199 94.9578 296.82 90.4324 303.685 84.8965C302.815 93.1918 326.57 102.087 326.57 102.087L328.571 101.806L328.291 99.8048C328.291 99.8048 306.537 90.6201 305.087 80.6039C299.65 85.5526 293.2 89.2576 286.186 91.4612C274.439 95.1738 268.996 100.037 268.996 100.037L270.069 107.549C271.374 103.459 273.318 101.477 281.052 98.3353Z" fill="#FAA68E"/>
<path d="M284.732 116.229L282.502 116.546C282.01 116.615 281.668 117.071 281.738 117.562L283.761 131.815C283.831 132.307 284.286 132.649 284.778 132.579L287.008 132.262C287.5 132.193 287.842 131.737 287.772 131.246L285.748 116.993C285.679 116.501 285.224 116.159 284.732 116.229Z" fill="#FAA68E"/>
<path d="M288.207 105.49C288.207 105.49 297.943 102.067 301.955 101.497C305.967 100.926 309.689 98.3545 305.387 96.9236C301.085 95.4927 287.636 101.487 288.207 105.49ZM282.193 106.35C279.425 106.72 276.684 107.266 273.985 107.984C271.645 108.786 268.638 107.684 270.33 104.958C272.022 102.231 280.878 102.521 282.193 106.35Z" fill="#774136"/>
<path d="M299.492 120.275C301.152 120.039 302.052 116.707 301.502 112.831C300.951 108.956 299.16 106.006 297.5 106.242C295.84 106.477 294.94 109.81 295.49 113.685C296.04 117.56 297.832 120.51 299.492 120.275Z" fill="#774136"/>
<path d="M276.442 123.539C277.547 123.382 278.06 120.563 277.589 117.243C277.118 113.923 275.84 111.359 274.735 111.516C273.63 111.673 273.116 114.491 273.588 117.811C274.059 121.131 275.337 123.695 276.442 123.539Z" fill="#774136"/>
<path d="M284.66 138.854L300.651 136.302C300.651 136.302 300.97 148.551 294.57 149.576C288.17 150.601 284.66 138.854 284.66 138.854Z" fill="#842630"/>
<path d="M294.566 149.576C297.225 149.151 298.714 146.782 299.564 144.162C297.94 141.938 295.572 143.263 292.913 143.688C290.254 144.114 288.988 143.369 288.137 145.989C289.761 148.252 291.907 150.001 294.566 149.576Z" fill="#F25A6B"/>
<path d="M288.344 141.339L297.935 139.811C299.115 139.628 299.946 138.245 300.217 136.37L285.105 138.787C285.947 140.517 287.155 141.532 288.344 141.339Z" fill="#F5F5FC"/>
<path d="M314.813 138.409C320.965 138.409 325.951 133.423 325.951 127.272C325.951 121.121 320.965 116.134 314.813 116.134C308.662 116.134 303.676 121.121 303.676 127.272C303.676 133.423 308.662 138.409 314.813 138.409Z" fill="#FAA68E"/>
<path d="M339.669 128.881C346.858 127.817 351.492 118.888 350.019 108.936C348.546 98.9849 341.524 91.7804 334.335 92.8445C327.146 93.9086 322.512 102.838 323.986 112.79C325.459 122.741 332.48 129.946 339.669 128.881Z" fill="#0C174A"/>
<path d="M335.949 118.281C333.194 117.706 330.63 116.44 328.499 114.601C326.368 112.763 324.739 110.413 323.767 107.771C323.68 109.441 323.758 111.115 323.999 112.77C325.469 122.718 332.497 129.882 339.652 128.916C346.332 127.949 350.799 120.147 350.219 111.059C346.584 117.71 340.551 119.112 335.949 118.281Z" fill="#02041A"/>
<path d="M341.871 125.725C347.623 124.874 351.321 117.666 350.131 109.627C348.941 101.588 343.314 95.761 337.562 96.6125C331.81 97.4639 328.111 104.671 329.301 112.71C330.491 120.75 336.119 126.577 341.871 125.725Z" fill="#22348F"/>
<path d="M319.096 63.8394C313.263 60.9677 306.699 59.9231 300.262 60.8423L280.22 63.6847C273.286 64.6711 266.967 68.1996 262.489 73.5849C261.958 75.8728 261.85 78.2385 262.17 80.5653C263.677 77.8122 265.807 75.4488 268.388 73.663C270.969 71.8773 273.932 70.7183 277.039 70.2784L303.192 66.5561C309.551 65.6709 316.003 67.3328 321.143 71.1804C326.284 75.0279 329.697 80.7498 330.64 87.101L333.124 105.248L339.138 104.397L336.856 88.3578C336.122 83.1318 334.119 78.1651 331.023 73.8912C327.928 69.6174 323.833 66.1663 319.096 63.8394Z" fill="#22348F"/>
<path d="M298.077 136.65L305.889 135.538C306.117 135.516 306.346 135.583 306.526 135.726C306.706 135.868 306.824 136.075 306.856 136.302L307.745 142.548C307.767 142.776 307.7 143.005 307.558 143.185C307.415 143.365 307.209 143.483 306.981 143.515L299.179 144.626C298.827 144.676 298.469 144.584 298.184 144.37C297.9 144.156 297.712 143.838 297.661 143.486L296.897 138.129C296.877 137.955 296.892 137.778 296.94 137.609C296.989 137.44 297.07 137.282 297.18 137.145C297.289 137.007 297.425 136.893 297.579 136.808C297.733 136.723 297.902 136.669 298.077 136.65Z" fill="#070D34"/>
<path d="M305.341 139.725L300.332 140.44C299.711 140.53 299.077 140.423 298.519 140.136C297.961 139.848 297.507 139.393 297.219 138.835C297.161 139.177 297.161 139.527 297.219 139.87L297.5 141.871C297.615 142.669 298.042 143.389 298.687 143.873C299.332 144.357 300.143 144.565 300.942 144.452L305.95 143.737C306.213 143.7 306.467 143.612 306.696 143.476C306.925 143.341 307.124 143.161 307.284 142.948C307.443 142.735 307.558 142.493 307.623 142.235C307.688 141.977 307.701 141.708 307.661 141.445L307.091 137.443C307.129 137.708 307.113 137.978 307.045 138.237C306.978 138.496 306.859 138.739 306.696 138.952C306.533 139.164 306.329 139.342 306.096 139.475C305.863 139.608 305.607 139.692 305.341 139.725Z" fill="#02051C"/>
<path d="M339.555 135.896L307.485 140.45L307.195 138.439L339.265 133.885C339.659 133.829 340.04 133.696 340.383 133.494C340.726 133.291 341.027 133.023 341.266 132.704C341.506 132.385 341.681 132.022 341.78 131.636C341.88 131.25 341.902 130.848 341.846 130.453L340.425 120.427L342.426 120.147L343.847 130.172C344.032 131.5 343.685 132.847 342.881 133.919C342.077 134.991 340.881 135.702 339.555 135.896Z" fill="#070D34"/>
<path d="M342.011 118.697C345.603 118.166 347.873 113.394 347.082 108.038C346.291 102.682 342.738 98.7694 339.146 99.2999C335.554 99.8303 333.284 104.602 334.075 109.959C334.866 115.315 338.419 119.227 342.011 118.697Z" fill="#7388FF"/>
<path d="M342.118 118.59C338.522 119.102 334.973 115.167 334.21 109.811C333.446 104.455 335.728 99.6791 339.324 99.1764C341.47 98.867 343.597 100.143 345.125 102.367C343.269 99.3601 340.562 97.5811 337.826 97.9775C333.504 98.5963 330.768 104.368 331.706 110.885C332.643 117.401 336.897 122.177 341.209 121.519C345.521 120.862 348.267 115.119 347.329 108.612C347.329 108.487 347.329 108.38 347.271 108.264C347.9 113.514 345.637 118.087 342.118 118.59Z" fill="#131F5D"/>
<path d="M435.955 311.76H13.9307C11.9551 311.76 10.3535 313.361 10.3535 315.337V324.376C10.3535 326.352 11.9551 327.954 13.9307 327.954H435.955C437.931 327.954 439.532 326.352 439.532 324.376V315.337C439.532 313.361 437.931 311.76 435.955 311.76Z" fill="#05165E"/>
<path d="M421.307 327.954H30.5977V402.863H421.307V327.954Z" fill="#74A4E9"/>
<path d="M30.5977 327.954V374.516L421.307 344.651V327.954H30.5977Z" fill="#638DC9"/>
<path d="M207.198 295.101L69.9107 283.664C69.0621 283.592 68.2578 283.254 67.6122 282.699C66.9665 282.143 66.5123 281.398 66.3142 280.57L42.0278 179.548C41.9025 179.031 41.8805 178.494 41.9629 177.969C42.0454 177.444 42.2306 176.94 42.5082 176.486C42.7857 176.033 43.15 175.638 43.5802 175.326C44.0104 175.013 44.4981 174.789 45.0152 174.665C45.4357 174.563 45.8696 174.527 46.3011 174.559L183.589 185.996C184.439 186.068 185.244 186.405 185.892 186.961C186.539 187.516 186.995 188.261 187.195 189.09L211.51 290.113C211.749 291.149 211.569 292.238 211.01 293.143C210.451 294.048 209.557 294.696 208.523 294.947C208.093 295.07 207.645 295.123 207.198 295.101Z" fill="#CEE2FF"/>
<path d="M214.701 290.461L190.037 187.36C189.837 186.517 189.376 185.758 188.72 185.192C188.064 184.626 187.246 184.282 186.383 184.208L47.1615 172.538C46.1253 172.47 45.1021 172.799 44.2995 173.458C43.497 174.117 42.9751 175.057 42.8398 176.086C43.2506 175.564 43.7842 175.151 44.3931 174.884C45.0021 174.618 45.6674 174.506 46.33 174.559L183.618 185.996C184.467 186.067 185.272 186.404 185.918 186.96C186.564 187.516 187.017 188.261 187.214 189.09L211.539 290.113C211.778 291.149 211.598 292.238 211.039 293.143C210.479 294.048 209.586 294.696 208.552 294.947C208.132 295.051 207.697 295.083 207.266 295.043L206.599 294.995L206.676 295.188L210.427 295.498C211.518 295.583 212.599 295.232 213.431 294.521C214.263 293.811 214.779 292.799 214.865 291.708C214.874 291.286 214.818 290.866 214.701 290.461Z" fill="#6B7786"/>
<path d="M211.298 289.339C85.9315 283.538 50.6234 180.089 48.8735 174.781L46.2824 174.559C45.2213 174.476 44.17 174.813 43.3558 175.499C42.5417 176.185 42.0301 177.163 41.9318 178.223C41.8964 178.654 41.9291 179.088 42.0284 179.509L66.3535 280.57C66.554 281.398 67.0104 282.142 67.6578 282.695C68.3052 283.249 69.1107 283.585 69.9597 283.654L207.247 295.101C208.317 295.187 209.378 294.845 210.197 294.152C211.015 293.458 211.526 292.468 211.617 291.398C211.648 290.967 211.616 290.534 211.521 290.113L211.298 289.339Z" fill="#BED0EC"/>
<path d="M113.599 271.27C113.599 271.27 103.477 285.443 103.477 295.566C103.477 305.688 111.569 311.76 111.569 311.76H188.46C188.989 311.76 189.497 311.552 189.875 311.182C190.253 310.811 190.47 310.307 190.48 309.778C190.487 309.512 190.44 309.247 190.344 308.999C190.248 308.75 190.103 308.524 189.919 308.331C189.735 308.139 189.515 307.985 189.271 307.878C189.027 307.771 188.764 307.714 188.498 307.709H148.404C146.579 307.708 144.809 307.083 143.387 305.94C141.018 304.006 137.934 300.574 137.934 295.566C137.934 287.464 148.047 275.32 148.047 275.32L113.599 271.27Z" fill="#6B7786"/>
<path d="M113.6 271.269V267.219L148.009 271.269V275.32L113.6 271.269Z" fill="#4E5763"/>
<path d="M188.463 307.709H148.408C146.583 307.707 144.813 307.083 143.39 305.939C140.665 303.87 138.786 300.881 138.102 297.528C137.4 298.775 136.38 299.813 135.144 300.535C133.909 301.257 132.504 301.637 131.073 301.637H109.552C107.419 301.639 105.373 300.798 103.857 299.297C104.977 304.197 107.699 308.582 111.592 311.76H188.483C188.996 311.724 189.476 311.495 189.827 311.119C190.178 310.743 190.373 310.248 190.373 309.734C190.373 309.22 190.178 308.725 189.827 308.349C189.476 307.973 188.996 307.744 188.483 307.709H188.463Z" fill="#535C6A"/>
<path d="M137.887 295.565C137.887 300.574 140.981 304.025 143.349 305.939C144.784 307.087 146.568 307.712 148.406 307.709H152.447C150.609 307.71 148.826 307.086 147.391 305.939C145.031 304.006 139.907 300.574 139.907 295.565C139.907 287.464 148.009 275.32 148.009 275.32C148.009 275.32 137.887 287.473 137.887 295.565Z" fill="#2E333B"/>
<path d="M417.605 0.00051482H353.505C352.052 -0.0135105 350.612 0.259163 349.265 0.80291C347.918 1.34666 346.692 2.15079 345.656 3.16925C344.621 4.18771 343.796 5.40047 343.23 6.73807C342.664 8.07566 342.368 9.51179 342.357 10.9642V50.6036C342.395 53.5791 343.594 56.4222 345.698 58.5264C347.802 60.6306 350.645 61.8294 353.621 61.867H355.013V76.8913L370.047 61.867H417.479C420.455 61.8294 423.3 60.631 425.405 58.5271C427.511 56.4231 428.712 53.58 428.752 50.6036V10.9642C428.741 9.51216 428.443 8.07661 427.877 6.73959C427.31 5.40258 426.486 4.19032 425.45 3.17212C424.415 2.15391 423.189 1.34972 421.843 0.805514C420.497 0.261311 419.057 -0.0122338 417.605 0.00051482Z" fill="#00D3A0"/>
<path d="M418.746 13.0621H352.365C352.023 13.0621 351.746 13.3392 351.746 13.6809V16.2043C351.746 16.546 352.023 16.823 352.365 16.823H418.746C419.088 16.823 419.365 16.546 419.365 16.2043V13.6809C419.365 13.3392 419.088 13.0621 418.746 13.0621Z" fill="white"/>
<path d="M418.746 24.3352H352.365C352.023 24.3352 351.746 24.6122 351.746 24.954V27.4774C351.746 27.8191 352.023 28.0961 352.365 28.0961H418.746C419.088 28.0961 419.365 27.8191 419.365 27.4774V24.954C419.365 24.6122 419.088 24.3352 418.746 24.3352Z" fill="white"/>
<path d="M418.746 35.6082H352.365C352.023 35.6082 351.746 35.8852 351.746 36.2269V38.7503C351.746 39.092 352.023 39.3691 352.365 39.3691H418.746C419.088 39.3691 419.365 39.092 419.365 38.7503V36.2269C419.365 35.8852 419.088 35.6082 418.746 35.6082Z" fill="white"/>
<path d="M418.746 46.8718H352.365C352.023 46.8718 351.746 47.1489 351.746 47.4906V50.014C351.746 50.3557 352.023 50.6327 352.365 50.6327H418.746C419.088 50.6327 419.365 50.3557 419.365 50.014V47.4906C419.365 47.1489 419.088 46.8718 418.746 46.8718Z" fill="white"/>
<path d="M124.497 64.5937H1.76927C1.53738 64.5924 1.30753 64.637 1.09293 64.7248C0.878327 64.8127 0.683209 64.9421 0.518789 65.1056C0.35437 65.2691 0.223892 65.4635 0.134859 65.6776C0.045827 65.8918 -3.50016e-06 66.1214 2.00497e-10 66.3533V150.369C0.0050919 150.835 0.193742 151.28 0.524994 151.608C0.856247 151.936 1.30336 152.119 1.76927 152.119H8.4693C11.6018 164.688 32.6397 168.014 32.6397 168.014C26.4037 165.22 25.7076 155.764 27.3705 152.119H124.535C125.003 152.119 125.452 151.934 125.783 151.605C126.115 151.275 126.302 150.827 126.305 150.36V66.3533C126.302 65.8874 126.116 65.4413 125.786 65.1118C125.457 64.7824 125.011 64.5962 124.545 64.5937H124.497Z" fill="#C2DAFF"/>
<path d="M100.038 119.18L101.672 124.101L95.1166 147.053H93.473L86.918 125.735V119.18H100.038Z" fill="#F4A490"/>
<path d="M31.1592 115.893L29.5156 132.299H40.9917V115.893H31.1592Z" fill="#F4A490"/>
<path d="M29.5156 119.18C29.5156 119.18 31.1592 91.2969 39.3578 91.2969C44.3211 91.3021 49.2687 91.8533 54.1114 92.9405C54.1114 92.9405 59.0325 106.06 65.5875 106.06C72.1425 106.06 76.0581 92.8534 76.0581 92.8534C76.0581 92.8534 80.3507 92.9405 83.6282 92.9405C86.9057 92.9405 91.8268 91.2969 95.1043 94.5744C98.3818 97.8519 103.303 120.814 103.303 120.814L88.5493 124.082C88.5493 124.082 86.9057 128.993 83.6282 130.637V151.906H39.3578V120.814C36.1706 119.808 32.857 119.258 29.5156 119.18Z" fill="#638DC9"/>
<path d="M40.9908 97.8616C39.9467 95.7732 36.9205 95.0191 34.8516 94.7387C36.0697 92.6407 37.549 91.2969 39.3569 91.2969C44.3202 91.3021 49.2678 91.8533 54.1105 92.9405C55.3007 95.9759 56.8662 98.8503 58.7706 101.497C58.7706 101.497 55.7444 106.05 55.7444 109.328C55.7444 112.228 54.4972 131.391 46.492 139.435C45.8578 140.033 45.4864 140.858 45.4592 141.73C45.4321 142.601 45.7513 143.448 46.347 144.085C46.6254 144.373 46.9528 144.608 47.3138 144.781C55.5834 148.662 64.9655 149.467 73.7755 147.053C77.2083 146.191 80.5161 144.891 83.6177 143.186V151.887H39.3569V120.814C37.8877 120.359 36.393 119.991 34.8806 119.712C36.5725 115.535 42.4024 100.675 40.9908 97.8616ZM83.6274 107.694C86.1875 111.118 88.9275 114.403 91.8356 117.536C94.417 120.118 100.044 117.614 102.316 116.434C102.935 119.054 103.283 120.814 103.283 120.814L88.5581 124.082V122.448C88.5485 115.893 83.6274 107.694 83.6274 107.694Z" fill="#5276A8"/>
<path d="M73.7761 88.0192V90.7746C73.7761 90.7746 73.7761 92.9403 77.0536 92.9403C77.0536 92.9403 75.4101 107.694 65.5776 107.694C55.745 107.694 54.0918 92.9403 54.0918 92.9403L57.8624 91.9735C58.6607 91.7748 59.3695 91.3147 59.8759 90.6664C60.3823 90.0181 60.6571 89.2189 60.6565 88.3963V87.9999L73.7761 88.0192Z" fill="#F4A490"/>
<path d="M67.2336 117.942C67.2878 117.944 67.3416 117.934 67.392 117.914C67.4424 117.895 67.4883 117.865 67.527 117.827C67.5658 117.789 67.5965 117.744 67.6176 117.694C67.6386 117.644 67.6494 117.591 67.6494 117.536C67.7491 115.327 68.2916 113.161 69.2446 111.165C69.292 111.067 69.2993 110.955 69.265 110.852C69.2307 110.749 69.1574 110.664 69.0609 110.614C69.0128 110.589 68.9602 110.574 68.9062 110.57C68.8523 110.566 68.798 110.573 68.7467 110.59C68.6954 110.607 68.648 110.634 68.6073 110.67C68.5666 110.706 68.5335 110.749 68.5098 110.798C67.4915 112.915 66.9189 115.218 66.8276 117.565C66.8349 117.668 66.8809 117.764 66.9563 117.834C67.0317 117.904 67.1308 117.943 67.2336 117.942ZM66.4118 126.982C66.466 126.983 66.5198 126.974 66.5702 126.954C66.6206 126.934 66.6665 126.905 66.7052 126.867C66.744 126.829 66.7748 126.784 66.7958 126.734C66.8168 126.684 66.8276 126.63 66.8276 126.576C66.8276 126.102 66.7696 114.839 61.7325 111.474C61.6879 111.435 61.6354 111.405 61.5785 111.388C61.5216 111.371 61.4616 111.365 61.4026 111.373C61.3436 111.381 61.2869 111.401 61.2364 111.433C61.1859 111.464 61.1428 111.506 61.1099 111.556C61.077 111.606 61.0552 111.662 61.0459 111.721C61.0366 111.779 61.0401 111.839 61.056 111.897C61.072 111.954 61.1 112.007 61.1383 112.053C61.1766 112.099 61.2243 112.135 61.2781 112.161C65.9574 115.274 66.0155 126.47 66.0155 126.576C66.0142 126.629 66.0235 126.682 66.0428 126.731C66.0621 126.78 66.0911 126.825 66.1281 126.863C66.165 126.9 66.2092 126.931 66.2579 126.951C66.3066 126.972 66.359 126.982 66.4118 126.982ZM61.5004 141.726C76.3024 141.726 83.0894 131.807 83.1571 131.7C83.1874 131.656 83.2085 131.606 83.2191 131.554C83.2297 131.501 83.2296 131.447 83.2188 131.395C83.2079 131.343 83.1866 131.293 83.1561 131.249C83.1255 131.205 83.0864 131.168 83.0411 131.139C82.9509 131.079 82.8408 131.057 82.7342 131.077C82.6277 131.097 82.5331 131.157 82.4706 131.246C82.4126 131.342 75.848 140.914 61.5004 140.914C61.4412 140.905 61.3807 140.909 61.323 140.925C61.2654 140.942 61.212 140.97 61.1665 141.009C61.121 141.048 61.0845 141.097 61.0595 141.151C61.0344 141.206 61.0215 141.265 61.0215 141.325C61.0215 141.385 61.0344 141.444 61.0595 141.498C61.0845 141.553 61.121 141.601 61.1665 141.64C61.212 141.679 61.2654 141.708 61.323 141.725C61.3807 141.741 61.4412 141.745 61.5004 141.736V141.726Z" fill="#5276A8"/>
<path d="M63.6724 143.698C76.3183 143.698 81.1814 140.179 81.4231 140.005C81.5048 139.934 81.5563 139.834 81.5671 139.726C81.5779 139.619 81.5471 139.511 81.4811 139.425C81.4164 139.344 81.3233 139.291 81.2209 139.277C81.1185 139.262 81.0145 139.288 80.9301 139.347C80.8624 139.396 74.23 144.181 56.6147 142.548C56.5623 142.539 56.5089 142.542 56.4577 142.555C56.4064 142.569 56.3585 142.593 56.3168 142.625C56.2751 142.658 56.2406 142.699 56.2153 142.745C56.19 142.792 56.1746 142.843 56.1699 142.896C56.1646 142.95 56.1702 143.005 56.1863 143.058C56.2024 143.11 56.2287 143.159 56.2638 143.201C56.2988 143.244 56.3419 143.279 56.3905 143.304C56.4391 143.33 56.4923 143.345 56.547 143.35C59.1477 143.601 61.5261 143.698 63.6724 143.698ZM84.4106 108.931C84.6039 108.931 86.3442 108.825 88.0555 105.422C88.0796 105.374 88.0941 105.322 88.0982 105.269C88.1022 105.216 88.0958 105.162 88.0792 105.112C88.0626 105.061 88.0361 105.014 88.0014 104.974C87.9666 104.933 87.9242 104.9 87.8766 104.876C87.829 104.852 87.7771 104.837 87.7239 104.833C87.6707 104.829 87.6172 104.835 87.5664 104.852C87.5157 104.869 87.4688 104.895 87.4283 104.93C87.3878 104.965 87.3545 105.007 87.3304 105.055C86.8588 106.145 86.1085 107.092 85.155 107.8C86.4506 104.117 86.4602 97.349 86.4602 97.0396C86.4693 96.9804 86.4655 96.9199 86.4491 96.8622C86.4326 96.8046 86.4039 96.7512 86.3649 96.7057C86.3258 96.6602 86.2774 96.6237 86.223 96.5987C86.1685 96.5736 86.1093 96.5607 86.0493 96.5607C85.9894 96.5607 85.9302 96.5736 85.8757 96.5987C85.8212 96.6237 85.7728 96.6602 85.7338 96.7057C85.6948 96.7512 85.666 96.8046 85.6496 96.8622C85.6331 96.9199 85.6293 96.9804 85.6384 97.0396C85.6384 97.117 85.6384 105.18 84.0432 108.332C83.9958 108.43 83.9885 108.542 84.0228 108.645C84.0571 108.748 84.1304 108.833 84.2269 108.883C84.2838 108.913 84.3465 108.929 84.4106 108.931Z" fill="#5276A8"/>
<path d="M110.69 105.238C110.69 105.238 104.995 120.63 101.486 123.54C97.9761 126.45 94.1862 134.649 94.2925 138.448C94.3989 142.248 91.8368 147.053 95.1143 147.053C96.1602 147.224 97.2321 147.138 98.2371 146.802C99.2619 146.231 105.769 146.541 107.712 140.324C109.646 134.262 116.974 108.419 116.974 108.419C116.974 108.419 120.735 108.903 123.945 104.455C123.945 104.455 127.976 103.024 128.218 101.961C128.46 100.897 129.929 98.5769 129.649 97.1847C129.369 95.7925 128.315 95.9472 128.315 95.9472C128.315 95.9472 128.895 93.8685 128.315 93.4915C127.786 93.2612 127.201 93.1907 126.632 93.2885C126.632 93.2885 127.145 91.3548 126.497 91.0938C125.992 90.9298 125.461 90.861 124.931 90.8908C124.931 90.8908 132.346 82.1894 132.752 81.2226C133.226 80.0721 131.322 80.0238 129.852 80.7392C128.382 81.4546 114.47 96.4596 113.513 96.5563C113.513 96.5563 110.612 89.3632 107.499 88.9958C104.386 88.6284 105.827 90.6201 105.827 90.6201C105.827 90.6201 108.804 94.9901 108.727 96.5563C108.65 98.1225 108.92 103.343 110.69 105.238Z" fill="#FBC9B5"/>
<path d="M121.25 103.16C121.095 102.444 122.072 102.193 122.072 102.193C122.072 102.193 119.693 102.077 119.171 101.332C118.649 100.588 120.032 99.3986 120.032 99.3986C118.678 99.3986 117.064 97.5617 117.779 96.9139C118.495 96.2662 121.695 96.9139 121.695 96.9139L123.503 95.5314C123.638 94.8451 123.638 94.139 123.503 93.4527C123.319 91.9445 124.924 90.9003 124.924 90.9003C125.457 90.8711 125.991 90.94 126.5 91.1034C127.148 91.3837 126.635 93.298 126.635 93.298C127.2 93.1987 127.783 93.2694 128.308 93.5011C128.926 93.8781 128.308 95.9568 128.308 95.9568C128.308 95.9568 129.362 95.7924 129.632 97.1943C129.903 98.5962 128.443 100.917 128.201 101.97C127.96 103.024 123.938 104.465 123.938 104.465C123.938 104.465 121.405 103.885 121.25 103.16Z" fill="#FBC9B5"/>
<path d="M120.321 99.4953H120.398C120.97 99.363 121.552 99.2789 122.138 99.2439C122.672 99.1844 123.185 99.0024 123.637 98.7122C123.878 98.5575 126.005 97.175 126.131 96.5949C126.257 96.0148 126.74 93.8684 126.74 93.8491C126.748 93.8231 126.75 93.7958 126.747 93.7689C126.744 93.7419 126.736 93.7158 126.723 93.692C126.71 93.6682 126.693 93.6472 126.671 93.6302C126.65 93.6132 126.626 93.6005 126.6 93.5929C126.574 93.5853 126.547 93.5829 126.52 93.5858C126.493 93.5887 126.467 93.5969 126.443 93.6099C126.419 93.623 126.398 93.6405 126.381 93.6617C126.364 93.6828 126.351 93.7071 126.344 93.7331C126.344 93.8201 125.831 95.9761 125.725 96.4885C125.061 97.2261 124.28 97.8499 123.414 98.3351C123.015 98.5933 122.562 98.7554 122.09 98.8089C121.47 98.8407 120.855 98.9314 120.253 99.0796C120.202 99.1011 120.161 99.1407 120.138 99.1907C120.115 99.2407 120.111 99.2976 120.127 99.3503C120.143 99.3884 120.17 99.4208 120.204 99.4433C120.239 99.4657 120.279 99.4771 120.321 99.476V99.4953ZM122.68 102.338L124.313 102.183C124.719 102.143 125.1 101.97 125.396 101.69L127.166 100.046C127.416 99.8174 127.597 99.5226 127.688 99.1956L128.393 96.6819C128.409 96.6306 128.403 96.5754 128.377 96.5284C128.352 96.4813 128.309 96.4462 128.258 96.4305C128.207 96.4154 128.152 96.4212 128.105 96.4465C128.058 96.4719 128.022 96.5148 128.007 96.5659L127.291 99.0796C127.222 99.3331 127.081 99.5613 126.885 99.737L125.116 101.381C124.887 101.599 124.59 101.733 124.275 101.758L122.641 101.912C122.593 101.923 122.551 101.949 122.52 101.987C122.49 102.025 122.473 102.072 122.473 102.12C122.473 102.169 122.49 102.216 122.52 102.254C122.551 102.292 122.593 102.318 122.641 102.328L122.68 102.338Z" fill="#F4A490"/>
<path d="M123.435 104.552C123.463 104.552 123.49 104.546 123.515 104.535C123.541 104.525 123.563 104.509 123.582 104.489C123.601 104.469 123.616 104.445 123.626 104.42C123.635 104.394 123.64 104.366 123.638 104.339C123.638 104.291 123.621 104.244 123.589 104.209C123.556 104.173 123.512 104.15 123.464 104.146C122.702 103.956 122.001 103.576 121.424 103.043C121.424 102.956 121.705 102.618 122.024 102.367L122.449 102.028H121.917C120.564 101.941 119.413 101.313 119.21 100.791C119.007 100.269 119.578 99.7562 119.8 99.5629L120.138 99.2632L119.694 99.2052C119.303 99.1435 118.938 98.9729 118.641 98.7129C118.343 98.4529 118.125 98.1141 118.011 97.7356C117.963 97.5712 117.886 97.1748 118.147 96.9815C118.63 96.6141 120.525 96.8945 121.608 97.1652H121.714L123.648 95.5023V92.8435C123.638 92.796 123.611 92.7535 123.574 92.723C123.536 92.6925 123.489 92.6759 123.44 92.6759C123.391 92.6759 123.344 92.6925 123.307 92.723C123.269 92.7535 123.242 92.796 123.232 92.8435V95.3186L121.608 96.7204C121.018 96.5851 118.64 96.0727 117.905 96.6334C117.74 96.7776 117.624 96.9693 117.572 97.1821C117.52 97.395 117.535 97.6187 117.615 97.8226C117.731 98.2182 117.943 98.5794 118.231 98.8743C118.519 99.1693 118.875 99.3891 119.268 99.5145C119.078 99.6912 118.937 99.9141 118.859 100.162C118.782 100.409 118.769 100.672 118.824 100.926C119.121 101.344 119.508 101.69 119.956 101.94C120.404 102.189 120.903 102.335 121.415 102.367C121.144 102.647 120.892 103.005 121.076 103.285C121.719 103.924 122.531 104.367 123.416 104.561L123.435 104.552ZM115.971 105.238C116.03 105.236 116.085 105.212 116.126 105.17C116.126 105.17 117.528 103.682 120.854 104.31C120.907 104.319 120.962 104.306 121.007 104.276C121.052 104.245 121.084 104.199 121.096 104.146C121.102 104.092 121.089 104.038 121.059 103.994C121.028 103.949 120.983 103.918 120.931 103.904C120.145 103.698 119.327 103.649 118.522 103.76C117.717 103.871 116.943 104.14 116.242 104.552C116.416 102.995 116.726 98.4897 114.424 98.016C114.372 98.0069 114.318 98.0178 114.274 98.0464C114.229 98.075 114.196 98.1194 114.183 98.1707C114.174 98.223 114.185 98.2768 114.213 98.3215C114.242 98.3663 114.286 98.3987 114.337 98.4124C116.687 98.8958 115.778 104.938 115.768 104.996C115.764 105.039 115.772 105.083 115.793 105.121C115.814 105.159 115.846 105.19 115.884 105.209L115.971 105.238Z" fill="#F4A490"/>
<path d="M67.9784 46.4657C67.9784 46.4657 64.8943 39.8044 51.7843 39.4176C38.6743 39.0309 36.5473 55.3797 36.3153 63.588C36.0832 71.7963 30.8528 83.0983 24.3848 79.6081C24.3848 79.6081 27.2852 94.4584 40.3469 94.8451C53.4085 95.2318 52.3934 75.5088 52.3934 75.5088L52.8091 61.577C52.8672 59.622 53.6994 57.7701 55.1226 56.4285C56.5458 55.0868 58.4436 54.3653 60.3986 54.4226C62.3488 54.4773 64.2412 53.7573 65.6617 52.4201C67.0823 51.0829 67.9153 49.2374 67.9784 47.2875V46.4657Z" fill="#2B2725"/>
<path d="M80.1772 74.2907L81.8112 74.4454C81.8112 74.4454 83.7448 71.3419 84.7116 61.548C85.6784 51.7542 82.5749 49.8109 82.5749 49.8109C81.2081 52.7267 79.2682 55.3374 76.8707 57.4874L75.2852 73.8073L80.1772 74.2907Z" fill="#3F3937"/>
<path d="M82.5868 49.8108C82.5868 49.8108 81.62 43.1204 68.5389 41.8442C55.4579 40.568 48.1488 48.0802 46.7083 62.7661C45.9155 70.926 56.5408 80.1687 56.5408 80.1687L74.4849 81.9283L75.2873 73.7684L76.7279 59.0825C76.7279 59.0825 82.1034 54.6642 82.5288 49.7721" fill="#3F3937"/>
<path d="M76.8812 57.4874C76.9157 57.0622 77.1171 56.668 77.4414 56.3908C77.7656 56.1137 78.1864 55.9761 78.6118 56.0081H78.6698C80.3037 56.1628 83.0881 61.3836 82.2857 69.5436L81.8022 74.4356C81.8022 74.4356 78.6118 90.0594 68.7793 89.6436C56.143 89.1119 55.4082 74.426 55.4082 74.426L56.1333 67.0008C56.1333 67.0008 62.669 67.6389 64.6123 64.5355C66.5556 61.432 70.6355 53.5911 73.8937 53.9005C74.3299 53.9277 74.756 54.0436 75.1458 54.2412C75.5356 54.4389 75.881 54.7141 76.1607 55.0499C76.4404 55.3857 76.6486 55.7752 76.7725 56.1943C76.8964 56.6134 76.9333 57.0534 76.8812 57.4874Z" fill="#FBC9B5"/>
<path d="M61.9658 82.7407C65.0147 82.7407 67.4863 80.2691 67.4863 77.2202C67.4863 74.1713 65.0147 71.6997 61.9658 71.6997C58.9169 71.6997 56.4453 74.1713 56.4453 77.2202C56.4453 80.2691 58.9169 82.7407 61.9658 82.7407Z" fill="#FFA89C"/>
<path d="M76.0293 81.3484C76.1601 80.0786 76.7636 78.9044 77.72 78.059C78.6765 77.2136 79.9159 76.7589 81.1921 76.785C80.3233 79.7562 78.9674 82.5626 77.1798 85.0899C76.7508 84.5729 76.4283 83.9762 76.2309 83.334C76.0334 82.6919 75.9649 82.0171 76.0293 81.3484Z" fill="#FFA89C"/>
<path d="M71.2983 70.6938C71.6673 68.7257 71.2815 67.0019 70.4366 66.8434C69.5916 66.685 68.6075 68.152 68.2385 70.12C67.8695 72.0881 68.2553 73.8119 69.1002 73.9703C69.9452 74.1288 70.9293 72.6618 71.2983 70.6938Z" fill="#332D27"/>
<path d="M81.4159 72.5523C81.7656 70.6839 81.4917 69.0649 80.8042 68.9362C80.1166 68.8075 79.2758 70.2179 78.9261 72.0864C78.5764 73.9548 78.8503 75.5738 79.5379 75.7025C80.2254 75.8311 81.0663 74.4208 81.4159 72.5523Z" fill="#332D27"/>
<path d="M67.4922 63.762C67.2673 63.791 67.0485 63.8563 66.8445 63.9554C66.7608 63.9926 66.6918 64.0563 66.6481 64.1367C66.6044 64.2171 66.5885 64.3097 66.6028 64.4001C66.6844 64.5504 66.8136 64.6694 66.9701 64.7385H67.0378C67.879 65.1155 68.778 65.3476 69.6966 65.4249C70.707 65.6002 71.7273 65.7133 72.7517 65.7633C72.9992 65.7842 73.2481 65.7444 73.4768 65.6473C73.5427 65.6168 73.598 65.5675 73.6359 65.5055C73.6737 65.4436 73.6924 65.3718 73.6895 65.2993C73.6895 65.0576 73.3318 64.8545 73.0997 64.7095C72.8095 64.5394 72.5055 64.3939 72.1909 64.2744C71.5671 64.0291 70.9189 63.8509 70.2573 63.7427C69.3405 63.6017 68.407 63.6082 67.4922 63.762ZM82.3522 65.918C82.5044 66.001 82.6364 66.1166 82.7389 66.2564C82.7833 66.3292 82.8068 66.4128 82.8068 66.4981C82.8068 66.5834 82.7833 66.667 82.7389 66.7398C82.6517 66.8556 82.5297 66.9403 82.3908 66.9815H82.3328C81.6693 67.1551 80.9749 67.175 80.3025 67.0395C79.5553 66.9808 78.8146 66.8579 78.0885 66.6721C77.9031 66.6359 77.7358 66.5369 77.6148 66.3918C77.5835 66.2856 77.5939 66.1715 77.6438 66.0727C77.7211 65.8407 78.0112 65.7247 78.2239 65.6376C78.4647 65.5433 78.714 65.4721 78.9683 65.4249C79.4523 65.3316 79.9468 65.3055 80.4379 65.3476C81.1087 65.4024 81.7607 65.5967 82.3522 65.918Z" fill="#332D27"/>
<path d="M74.1291 73.6436L73.1366 78.9365C73.0914 79.178 73.2504 79.4104 73.4918 79.4556L74.6036 79.6641C74.845 79.7094 75.0774 79.5503 75.1227 79.3089L76.1151 74.016C76.1604 73.7746 76.0014 73.5422 75.76 73.4969L74.6482 73.2885C74.4068 73.2432 74.1744 73.4022 74.1291 73.6436Z" fill="#F3988E"/>
<path d="M69.3404 81.0968C71.1144 82.0638 73.1244 82.5127 75.1412 82.3924C75.2026 82.3923 75.2633 82.4047 75.3197 82.4287C75.3761 82.4527 75.4271 82.488 75.4696 82.5322C75.512 82.5765 75.5451 82.6289 75.5668 82.6863C75.5884 82.7437 75.5982 82.8048 75.5956 82.8661C75.6048 82.9075 75.6048 82.9504 75.5956 82.9918C75.5369 83.415 75.3759 83.8176 75.1266 84.1646C74.8773 84.5117 74.5471 84.7927 74.1648 84.9834C73.3293 85.4281 72.379 85.61 71.4383 85.5055C70.2092 85.0047 69.1866 84.1013 68.5379 82.9435C68.49 82.8223 68.49 82.6875 68.5379 82.5664L68.7796 81.4546C68.7964 81.3328 68.8608 81.2227 68.9587 81.1484C69.0566 81.0741 69.1799 81.0417 69.3017 81.0582L69.3404 81.0968Z" fill="#F25A6B"/>
<path d="M55.7679 69.2462L44.6722 71.4956C44.1855 71.5942 43.871 72.0687 43.9697 72.5554L48.1745 93.2971C48.2732 93.7837 48.7477 94.0983 49.2344 93.9996L60.3301 91.7503C60.8167 91.6516 61.1313 91.1771 61.0326 90.6904L56.8278 69.9487C56.7291 69.4621 56.2546 69.1475 55.7679 69.2462Z" fill="#CEE2FF"/>
<path d="M60.881 89.9627L57.0137 70.6264C56.9252 70.2015 56.6722 69.8288 56.31 69.5897C55.9477 69.3506 55.5056 69.2645 55.0801 69.3502L56.6947 69.0215C57.1215 68.936 57.5649 69.0234 57.9274 69.2645C58.2899 69.5056 58.542 69.8806 58.6283 70.3073L62.4955 89.5953C62.5393 89.8061 62.541 90.0235 62.5004 90.2349C62.4599 90.4464 62.378 90.6477 62.2594 90.8274C62.1408 91.0071 61.9879 91.1616 61.8094 91.282C61.6309 91.4024 61.4304 91.4863 61.2193 91.5289L59.6048 91.848C60.0315 91.7617 60.4065 91.5096 60.6476 91.1471C60.8887 90.7846 60.9761 90.3412 60.8906 89.9144L60.881 89.9627Z" fill="#081758"/>
<path d="M29.564 137.211C29.564 137.211 29.361 132.087 31.0046 130.588C32.6482 129.09 45.6228 112.219 47.4404 102.367L46.8507 93.1434L45.2071 86.8881C45.1102 86.5247 45.1409 86.139 45.2941 85.7956C45.7968 84.7031 48.1945 79.6273 48.6973 78.3801C49.0743 77.4133 53.106 70.8003 53.2606 70.1332C53.4153 69.4661 54.6529 70.5972 54.6432 71.6704C54.6335 72.7436 52.4485 76.7075 52.4485 76.7075L51.7717 82.2667L55.0492 79.9657C55.0492 79.9657 58.5878 78.7378 60.6374 78.2254C60.6374 78.2254 61.9136 79.1922 60.4344 80.4588C59.239 81.3314 57.842 81.8868 56.3738 82.0733L55.407 83.8716L59.6513 83.6686C59.6513 83.6686 63.2285 86.0083 63.8086 86.569C64.3887 87.1298 61.962 87.7292 59.9413 86.192L56.6638 86.4047L55.639 89.3728L59.0712 88.0386C60.2138 88.7842 61.4532 89.3697 62.7548 89.7788C64.4564 90.2139 63.0641 92.4473 58.8102 90.7457L56.2578 93.5591C56.2578 93.5591 58.3558 98.8669 57.0215 101.564C56.4779 102.916 55.6036 104.109 54.4788 105.035C54.4788 105.035 47.7111 133.237 41.9102 139.763C41.9102 139.763 38.9034 142.809 36.1674 143.147C33.4313 143.485 31.9327 144.375 30.4245 143.756C29.8831 143.534 29.6124 142.615 29.4577 141.532C29.3689 140.091 29.4045 138.646 29.564 137.211Z" fill="#FBC9B5"/>
<path d="M49.7431 106.021C49.866 105.461 50.1304 104.94 50.5112 104.511C50.892 104.081 51.3765 103.755 51.9185 103.566C53.4362 102.895 54.7141 101.779 55.5827 100.366C57.1683 97.9582 56.2885 93.5012 56.2885 93.5012C56.2885 93.5012 58.3865 98.809 57.0619 101.506C56.5155 102.859 55.6378 104.053 54.5095 104.977C54.5095 104.977 47.7418 133.179 41.9409 139.705C41.9409 139.705 38.9342 142.751 36.1981 143.089C33.462 143.428 31.9634 144.317 30.4649 143.698C29.9138 143.476 29.6431 142.557 29.498 141.475C42.3083 140.517 48.2639 113.901 49.7431 106.021Z" fill="#FFBCAD"/>
<path d="M51.5398 76.9879C51.5398 76.9879 54.2082 73.285 54.5562 71.0807C54.6336 71.2677 54.673 71.4681 54.6723 71.6704C54.6723 72.7436 52.4776 76.7172 52.4776 76.7172L51.8008 82.2764L49.8672 83.8136L51.5398 76.9879ZM54.0825 82.6825C54.5789 82.0304 55.3048 81.5914 56.1128 81.4546C57.8724 81.1549 60.9469 80.4878 61.1499 79.2116C61.131 79.4609 61.057 79.703 60.9333 79.9203C60.8095 80.1376 60.6392 80.3249 60.4345 80.4685C59.2393 81.3399 57.8418 81.8922 56.3739 82.0734L55.407 83.8716H55.5617L52.8933 84.152L54.0825 82.6825ZM54.0632 89.8369C54.0138 89.1003 54.2154 88.3686 54.6349 87.7612C55.0545 87.1538 55.6675 86.7063 56.3739 86.4917L56.7219 86.3757L55.6971 89.3535L54.1115 90.2043L54.0632 89.8369Z" fill="#FFAC96"/>
<path d="M48.7842 86.7334C48.832 86.7343 48.8785 86.7183 48.9157 86.6883C48.9528 86.6582 48.9782 86.616 48.9873 86.5691L49.229 85.0222C49.264 84.7901 49.3571 84.5706 49.4997 84.3841L50.3795 83.2142C50.4155 83.1765 50.4356 83.1263 50.4356 83.0741C50.4356 83.0218 50.4155 82.9716 50.3795 82.9339C50.3417 82.8978 50.2915 82.8777 50.2393 82.8777C50.1871 82.8777 50.1369 82.8978 50.0991 82.9339L49.2193 84.094C49.0371 84.335 48.9175 84.6173 48.8712 84.9158L48.6295 86.4627C48.6211 86.5152 48.6336 86.5689 48.6643 86.6123C48.695 86.6557 48.7416 86.6853 48.7939 86.6948L48.7842 86.7334ZM51.3946 88.2223C51.4424 88.2232 51.4889 88.2072 51.5261 88.1771C51.5632 88.1471 51.5886 88.1049 51.5977 88.058L51.8684 86.6078C51.9247 86.3233 52.0624 86.0614 52.2648 85.8536L53.8503 84.2681C53.8694 84.249 53.8845 84.2264 53.8948 84.2015C53.9051 84.1766 53.9104 84.15 53.9104 84.123C53.9104 84.0961 53.9051 84.0694 53.8948 84.0446C53.8845 84.0197 53.8694 83.9971 53.8503 83.978C53.8313 83.959 53.8087 83.9439 53.7838 83.9336C53.7589 83.9233 53.7322 83.918 53.7053 83.918C53.6784 83.918 53.6517 83.9233 53.6268 83.9336C53.6019 83.9439 53.5793 83.959 53.5603 83.978L51.9747 85.5636C51.7144 85.8298 51.5365 86.1655 51.4623 86.5304L51.2013 87.971C51.1941 87.9978 51.1929 88.0258 51.1975 88.0531C51.2022 88.0804 51.2127 88.1064 51.2282 88.1294C51.2438 88.1523 51.2642 88.1716 51.2879 88.186C51.3116 88.2003 51.3381 88.2094 51.3656 88.2127L51.3946 88.2223ZM52.5548 92.0993C52.5847 92.0986 52.6141 92.0913 52.6408 92.0779C52.6675 92.0645 52.691 92.0454 52.7095 92.0219L54.2757 90.0883C54.2929 90.0673 54.3057 90.0432 54.3135 90.0173C54.3214 89.9914 54.324 89.9642 54.3213 89.9373C54.3186 89.9103 54.3106 89.8842 54.2978 89.8603C54.285 89.8365 54.2677 89.8154 54.2467 89.7982C54.2258 89.7811 54.2017 89.7683 54.1757 89.7604C54.1498 89.7526 54.1226 89.75 54.0957 89.7527C54.0688 89.7554 54.0426 89.7633 54.0188 89.7761C53.9949 89.7889 53.9738 89.8063 53.9567 89.8273L52.3904 91.7609C52.3544 91.7987 52.3343 91.8489 52.3343 91.9011C52.3343 91.9533 52.3544 92.0035 52.3904 92.0413C52.4356 92.0812 52.4946 92.102 52.5548 92.0993Z" fill="#FF9C6E"/>
<path d="M143.476 14.1643H105.77C104.908 14.1643 104.055 14.3342 103.259 14.6642C102.463 14.9942 101.74 15.4779 101.131 16.0876C100.523 16.6973 100.04 17.4211 99.711 18.2175C99.3822 19.0139 99.2136 19.8673 99.2149 20.729V45.2571C99.2136 46.1182 99.3823 46.9712 99.7112 47.7671C100.04 48.5629 100.523 49.286 101.132 49.895C101.741 50.5039 102.464 50.9867 103.26 51.3157C104.056 51.6447 104.909 51.8133 105.77 51.8121H113.968V60.0203L122.167 51.8121H143.485C144.347 51.8133 145.2 51.6447 145.997 51.3159C146.793 50.987 147.517 50.5044 148.127 49.8956C148.736 49.2868 149.22 48.5637 149.55 47.7678C149.88 46.9719 150.05 46.1187 150.05 45.2571V20.729C150.05 18.9879 149.358 17.3182 148.127 16.0871C146.896 14.8559 145.226 14.1643 143.485 14.1643H143.476Z" fill="#74A4E9"/>
<path d="M123.481 39.8624C123.108 39.8602 122.75 39.7143 122.482 39.455C122.213 39.1957 122.055 38.843 122.04 38.4702V37.7837C121.96 36.6292 122.119 35.4705 122.509 34.3806C122.898 33.2907 123.509 32.2933 124.303 31.4511C125.956 29.5175 126.874 28.0769 126.874 26.4333C126.874 24.5674 125.695 23.3202 123.394 23.2815C122.502 23.2903 121.619 23.4674 120.793 23.8036C120.492 23.9247 120.155 23.9215 119.856 23.7946C119.557 23.6678 119.32 23.4277 119.198 23.1268C119.085 22.8288 119.091 22.4986 119.215 22.205C119.339 21.9114 119.572 21.6771 119.865 21.5509C121.182 20.958 122.607 20.6453 124.051 20.6324C128.257 20.6324 130.162 23.2332 130.162 26.0079C130.162 28.5023 128.769 30.2909 127.019 32.3792C126.319 33.0849 125.773 33.9273 125.413 34.854C125.054 35.7806 124.89 36.7714 124.931 37.7644V38.3735C124.936 38.7565 124.79 39.126 124.523 39.4013C124.257 39.6766 123.893 39.8354 123.51 39.8431L123.481 39.8624ZM121.296 43.6136C121.358 43.2217 121.526 42.8543 121.782 42.5506C122.037 42.247 122.371 42.0186 122.746 41.8901C123.122 41.7616 123.525 41.7378 123.913 41.8212C124.301 41.9046 124.659 42.0921 124.948 42.3636C125.238 42.635 125.448 42.9802 125.556 43.362C125.664 43.7438 125.666 44.1478 125.562 44.5308C125.458 44.9137 125.251 45.261 124.965 45.5355C124.678 45.81 124.322 46.0012 123.935 46.0887C123.636 46.1353 123.331 46.1221 123.036 46.05C122.742 45.9778 122.466 45.8481 122.222 45.6683C121.978 45.4885 121.773 45.2622 121.617 45.0024C121.461 44.7427 121.359 44.4547 121.315 44.155C121.285 43.9762 121.278 43.7942 121.296 43.6136Z" fill="white"/>
</svg>
