<svg width="480" height="447" viewBox="0 0 480 447" fill="none" xmlns="http://www.w3.org/2000/svg">
<path d="M231.065 430.997C231.065 430.997 5.60391 429.045 0.535644 436.025C-4.53262 443.005 27.144 443.7 62.6222 444.408C98.1004 445.117 240.435 446.807 278.869 446.384C317.304 445.962 415.291 443.483 425.005 438.598C434.719 433.713 379.699 430.392 356.526 430.996C333.354 431.602 231.065 430.997 231.065 430.997Z" fill="#FFE9D4"/>
<path d="M403.818 359.418C403.818 359.418 388.1 388.259 387.795 392.227C387.489 396.194 378.88 393.142 376.699 392.99C374.519 392.837 355.423 345.205 356.578 341.858C357.733 338.512 360.052 338.763 359.96 339.095C359.869 339.428 378.791 389.48 379.249 389.48C379.707 389.48 369.485 344.768 371.162 343.853C372.84 342.937 377.201 342.327 376.699 343.395C376.197 344.463 382.236 389.633 382.236 389.633C382.236 389.633 394.966 355.603 395.882 354.993C396.798 354.382 398.934 354.84 398.476 356.214C398.018 357.587 385.827 386.733 385.827 386.733L402.597 356.519L403.818 359.418Z" fill="#4A704A"/>
<path d="M479.439 300.923C479.439 300.923 467.459 303.596 467.388 298.724C467.317 293.852 477.917 296.451 477.917 296.451L471.925 277.282C471.925 277.282 461.025 282.59 459.106 280.206C457.188 277.823 468.618 272.593 468.618 272.593L459.772 255.103C446.469 255.798 432.586 271.741 432.586 271.741C432.586 271.741 449.095 283.604 443.498 285.645C437.901 287.686 428.214 277.038 428.214 277.038C428.214 277.038 426.753 275.941 417.945 285.187C409.137 294.433 404.699 301.933 416.459 309.989C428.219 318.045 445.391 313.927 445.391 313.927C447.129 320.345 471.019 333.424 474.679 326.011C478.339 318.598 479.439 300.923 479.439 300.923ZM429.976 301.622C424.845 300.371 416.834 294.284 420.971 291.147C425.108 288.01 434.677 297.459 434.677 297.459C434.677 297.459 435.107 302.873 429.976 301.622ZM405.116 324.44C401.711 318.388 380.805 325.215 379.782 321.966C378.759 318.717 402.265 319.268 405.339 315.691C408.412 312.114 405.667 300.933 402.153 295.36C398.639 289.787 382.163 305.913 379.096 301.699C376.029 297.484 397.336 289.994 400.594 286.71C403.852 283.426 398.846 272.235 392.302 266.724C385.758 261.212 377.202 277.889 374.048 275.163C370.895 272.437 384.735 263.507 386.472 261.386C388.21 259.266 384.597 233.056 375.953 226.823C367.31 220.59 354.647 234.313 350.241 244.879C345.835 255.445 360.125 272.259 353.366 273.241C346.607 274.223 344.575 257.673 335.751 256.675C326.927 255.678 329.432 266.811 329.802 269.912C330.172 273.012 341.35 278.562 344.134 281.806C346.918 285.05 351.661 292.967 345.597 293.101C339.533 293.235 332.285 277.514 327.905 278.281C323.524 279.048 323.923 286.68 323.945 290.708C323.967 294.735 352.356 310.974 340.983 308.899C329.609 306.824 324.352 294.917 322.658 296.521C320.871 298.214 321.456 304.222 319.839 309.135C318.223 314.048 317.063 336.914 335.361 338.263C353.659 339.612 357.637 345.355 357.637 345.355C357.637 345.355 393.402 346.171 394.357 344.177C395.312 342.183 408.521 330.491 405.116 324.44ZM359.072 289.274C357.266 291.693 348.139 280.385 352.042 278.693C355.945 277.001 359.373 284.063 359.373 284.063C359.373 284.063 360.877 286.855 359.072 289.274ZM372.902 292.031C370.325 293.144 367.585 291.643 369.724 288.86C371.025 287.168 372.797 286.466 373.988 286.175C375 285.928 376.092 286.277 376.701 287.122C378.103 289.072 375.05 291.104 372.902 292.031ZM373.154 314.212C369.703 312.801 370.978 309.947 375.115 308.057C379.252 306.166 382 308.737 382 308.737C383.606 312.746 376.606 315.622 373.154 314.212Z" fill="#6CA36C"/>
<path d="M371.08 356.426C359.517 344.549 378.545 326.648 384.496 324.655C390.447 322.663 398.819 337.566 403.702 338.37C408.585 339.174 387.512 323.349 393.153 318.038C398.794 312.727 408.144 303.247 411.279 305.679C414.413 308.112 416.685 320.447 420.367 322.118C424.048 323.79 414.639 303.168 417.437 301.007C420.235 298.846 453.099 282.481 455.765 292.169C458.431 301.857 457.724 327.864 455.315 330.057C452.907 332.25 438.241 327.206 437.043 334.736C435.845 342.266 453.5 332.721 454.978 337.025C456.455 341.329 452.477 358.093 450.212 361.304C447.947 364.514 425.293 352.614 425.265 358.454C425.237 364.295 450.822 366.627 450.642 370.582C450.461 374.537 432.619 386.714 421.304 384.961C409.988 383.208 382.643 368.303 371.08 356.426Z" fill="#4A704A"/>
<path d="M393.594 363.082C392.45 360.564 374.595 354.612 374.595 354.612C374.595 354.612 352.635 345.911 334.767 351.408C326.239 354.031 326.581 359.416 329.667 364.628C330.3 365.696 344.944 365.321 345.754 366.35C346.935 367.848 334.352 370.714 335.635 371.996C338.177 374.536 340.599 376.498 341.634 377.274C345.296 380.02 355.07 388.692 357.428 387.574C362.578 385.133 373.006 383.225 377.252 379.147C378.814 377.647 382.64 378.189 385.828 376.358C389.016 374.527 394.739 365.599 393.594 363.082ZM353.994 358.961C352.163 361.25 335.392 361.496 336.536 356.461C337.681 351.425 351.082 355.07 351.082 355.07C351.082 355.07 355.826 356.672 353.994 358.961Z" fill="#6CA36C"/>
<path d="M380.559 399.81H354.365L362.091 437.404H380.559H399.026L406.753 399.81H380.559Z" fill="#7F635D"/>
<path d="M410.237 389.633H350.877V401.223H410.237V389.633Z" fill="#7F635D"/>
<path d="M354.959 402.696L405.188 407.421L406.462 401.222H354.656L354.959 402.696Z" fill="#664E4A"/>
<path d="M178.267 6.26099C178.267 6.26099 176.597 2.78818 175.507 1.09855C174.417 -0.591069 166.856 -0.067997 165.422 0.909618C163.986 1.88723 159.1 7.50452 160.085 9.05319C161.233 10.8572 164.362 9.98583 164.362 9.98583L166.309 13.6754L178.267 6.26099Z" fill="#C6685C"/>
<path d="M186.761 86.1069C188.961 72.397 191.684 48.6998 185.621 41.9708C181.003 36.8473 168.058 42.4215 161.441 58.6159C159.048 64.4732 156.931 74.9891 156.566 86.1473C170.736 87.5671 181.74 86.6994 186.761 86.1069Z" fill="#393351"/>
<path d="M228.316 76.4936C221.558 70.8618 184.952 96.1108 184.952 96.1108C184.952 96.1108 185.806 92.0455 186.76 86.107C181.739 86.6995 170.734 87.5673 156.565 86.1472C155.922 105.84 160.736 127.532 179.125 129.15C207.933 131.684 235.074 82.1253 228.316 76.4936Z" fill="#F27C79"/>
<path d="M141.695 339.915C138.939 338.709 138.589 336.255 137.416 333.928C137.337 333.771 136.884 330.429 136.881 330.163C136.866 329.01 133.534 325.948 131.982 328.349C128.922 333.082 125.567 325.686 125.744 327.661C126.273 333.541 123.574 343.023 125.765 343.666C130.431 345.037 152.209 346.629 152.621 344.342C152.869 342.969 146.46 342.002 141.695 339.915ZM56.7156 327.661C57.4523 325.686 52.0041 333.082 50.2839 328.349C49.4114 325.947 45.2121 329.009 44.8716 330.163C44.7928 330.429 43.3936 333.771 43.2701 333.928C41.4389 336.255 40.394 338.709 37.297 339.915C31.9411 342.002 25.258 342.969 25.1171 344.342C24.8826 346.629 47.1112 345.036 52.1652 343.667C54.5373 343.023 54.5225 333.541 56.7156 327.661Z" fill="#393351"/>
<path d="M36.7578 330.863C36.7578 330.863 37.6932 332.747 46.9118 333.294C57.5953 333.928 58.7274 330.863 58.7274 330.863L109.891 208.046C91.7258 205.772 79.2761 200.551 73.2263 199.246C58.7157 257.698 36.7578 330.863 36.7578 330.863ZM125.157 211.794L121.19 330.863C121.19 330.863 127.411 333.928 137.419 333.928C145.233 333.928 150.998 329.858 150.998 329.858C150.998 329.858 154.931 270.759 159.766 212.626C148.28 213.107 136.429 212.686 125.157 211.794Z" fill="#FFE9D4"/>
<path d="M125.153 211.794L124.816 221.913C138.667 223.223 152.198 222.421 159.005 221.83C159.254 218.765 159.507 215.695 159.762 212.626C148.276 213.107 136.426 212.686 125.153 211.794ZM105.549 218.459L109.888 208.045C106.997 207.683 104.252 207.247 101.654 206.763L81.0762 207.431C81.0762 207.431 89.4467 214.024 105.549 218.459Z" fill="#F2C3A7"/>
<path d="M182.591 38.1998C180.704 36.8087 178.635 35.4547 176.511 34.1849L169.168 63.2351L146.369 58.5353L148.497 24.7667C145.616 24.6916 142.62 24.8461 139.699 25.2892C139.563 28.5 139.148 35.8486 137.998 44.0332C136.456 55.0106 128.526 86.8062 116.85 89.8903C109.107 91.9357 101.949 91.2681 98.0035 90.5863C91.66 110.082 88.8081 124.113 88.8078 124.113C86.274 129.71 77.3861 164.131 67.6543 203.332C73.7041 204.638 87.2389 210.53 105.404 212.804C111.296 213.541 118.676 213.89 125.123 214.401C136.395 215.293 153.399 213.309 164.885 212.828C169.01 163.238 168.668 114.15 172.222 103.252C171.236 95.516 171.918 87.4744 173.627 82.3177C175.49 76.6999 181.135 46.1541 182.591 38.1998Z" fill="#ED6966"/>
<path d="M169.169 63.235L176.512 34.1848C170.634 30.6718 164.356 27.8027 160.499 26.5803C157.314 25.5713 153.053 24.8855 148.498 24.7666L146.37 58.5352L169.169 63.235ZM186.283 45.5295C185.812 42.7135 186.014 40.7226 182.591 38.1994C181.135 46.1537 175.49 76.6994 173.628 82.3176C171.918 87.4743 171.236 95.5159 172.222 103.252C172.515 102.354 172.813 101.449 173.122 100.529C181.372 75.9557 187.711 54.0561 186.283 45.5295ZM116.851 89.8898C128.527 86.8058 136.457 55.0102 137.999 44.0328C139.149 35.8485 139.564 28.4999 139.7 25.2888C133.517 26.2268 127.683 28.4631 124.071 32.6026C117.818 39.7677 115.492 44.3627 105.615 69.3814C102.667 76.8509 100.138 84.0272 98.0039 90.5855C101.95 91.2674 109.108 91.935 116.851 89.8898Z" fill="#50456D"/>
<path d="M167.663 113.274C132.322 113.274 95.5083 99.8152 95.1328 99.6767L95.5143 98.645C95.8949 98.7857 134.018 112.72 169.773 112.157L169.79 113.257C169.083 113.268 168.372 113.274 167.663 113.274Z" fill="#C14F4F"/>
<path d="M140.76 437.938C142.027 435.826 158.076 314.187 158.076 314.187L195.244 246.61L193.093 137.424L207.048 120.139L295.765 104.275L342.078 117.886L350.249 261.392L363.765 326.858C363.765 326.858 363.342 364.025 363.765 365.714C364.187 367.404 386.572 422.31 386.572 422.31V437.938H140.76Z" fill="#F2C8A5"/>
<path d="M269.16 256.043C269.056 256.043 268.951 256.034 268.845 256.015C267.849 255.843 267.182 254.895 267.354 253.899L272.977 221.479C273.043 221.098 273.228 220.747 273.506 220.478L293.648 200.948C294.085 200.524 294.704 200.346 295.301 200.471L339.226 209.764C340.215 209.973 340.847 210.944 340.637 211.933C340.428 212.922 339.457 213.554 338.468 213.345L295.496 204.255L276.482 222.692L270.961 254.525C270.807 255.415 270.033 256.043 269.16 256.043ZM257.159 426.675C256.962 426.675 256.762 426.643 256.566 426.576C255.61 426.249 255.1 425.208 255.427 424.252L267.426 389.208C267.537 388.883 267.738 388.596 268.005 388.379L285.798 373.952L302.304 332.932C302.559 332.3 303.144 331.861 303.822 331.794L359.362 326.303C360.371 326.204 361.264 326.939 361.364 327.945C361.463 328.951 360.728 329.847 359.722 329.946L305.286 335.328L289.017 375.758C288.901 376.046 288.713 376.3 288.472 376.496L270.719 390.891L258.89 425.437C258.63 426.197 257.92 426.675 257.159 426.675ZM306.324 422.452C306.001 422.452 305.674 422.367 305.378 422.187C304.513 421.664 304.236 420.539 304.759 419.674L315.74 401.513C316.046 401.007 316.577 400.68 317.166 400.635L355.601 397.678C356.068 397.643 356.527 397.786 356.89 398.078L383.076 419.196C383.863 419.831 383.987 420.983 383.352 421.77C382.717 422.557 381.565 422.68 380.778 422.045L355.157 401.384L318.386 404.212L307.892 421.568C307.548 422.137 306.943 422.452 306.324 422.452Z" fill="#D6A683"/>
<path d="M246.685 55.9959C246.685 55.9959 249.947 69.7181 249.047 73.3174C248.147 76.9167 247.36 82.2032 244.998 85.015C242.636 87.8268 225.876 93.4507 224.639 95.138C223.402 96.8252 208.442 96.9374 204.393 101.324C200.344 105.711 195.83 134.657 195.493 140.956C195.155 147.255 214.179 137.204 218.678 138.667C223.177 140.129 241.736 147.215 252.309 146.878C262.882 146.54 267.943 144.516 271.992 144.853C276.042 145.19 298.987 145.078 302.699 144.065C306.411 143.053 307.423 136.867 310.347 135.405C313.272 133.942 332.24 142.146 335.389 138.209C338.538 134.273 336.341 125.548 335.441 121.498C334.542 117.449 321.37 94.3502 315.184 91.6507C308.997 88.9511 284.14 87.7139 283.128 86.1393C282.115 84.5647 281.89 80.9654 281.89 80.9654C281.89 80.9654 287.514 79.1656 288.077 75.7915C288.639 72.4171 289.839 67.0932 289.877 66.9057C289.914 66.7183 290.814 63.0064 290.814 63.0064C290.814 63.0064 292.689 62.2567 293.026 61.1318C293.363 60.0069 292.089 55.2456 292.014 53.5958C291.939 51.946 294.188 48.7593 294.338 47.5596C294.488 46.3598 293.626 44.3726 294.151 41.8231C294.676 39.2735 292.651 26.9011 289.877 25.2513C287.102 23.6015 274.61 19.2525 266.178 19.89C257.746 20.5274 251.26 23.8641 248.073 27.9882C244.886 32.1124 242.561 40.8856 244.136 46.847C245.71 52.8089 246.685 55.9959 246.685 55.9959Z" fill="#F2C8A5"/>
<path d="M281.889 80.9664C281.889 80.9664 284.768 80.0446 286.612 78.2841C285.971 77.9961 284.905 77.8352 283.726 77.8545C281.439 77.892 272.591 73.5804 269.029 71.8183C265.467 70.0563 261.455 65.6321 260.781 67.2816C260.106 68.9314 260.781 70.5808 260.781 70.5808C260.781 70.5808 264.867 76.5045 269.741 78.7917C274.616 81.0787 281.889 80.9664 281.889 80.9664ZM290.035 64.0418C289.177 64.0418 288.271 63.8936 287.33 63.599C286.811 63.4363 286.522 62.8831 286.685 62.3636C286.847 61.8442 287.4 61.5547 287.92 61.718C288.924 62.0328 289.855 62.1379 290.686 62.0298C291.223 61.9604 291.721 62.3407 291.79 62.8807C291.86 63.4206 291.479 63.9147 290.939 63.9847C290.644 64.0228 290.343 64.0418 290.035 64.0418ZM289.388 68.5296C289.292 68.5296 289.195 68.5154 289.098 68.4859C289.088 68.4828 288.122 68.1859 286.977 67.8695C286.214 67.6583 283.861 67.5644 282.557 67.5547C282.012 67.5505 281.575 67.1062 281.578 66.562C281.583 66.0202 282.023 65.5838 282.564 65.5838C282.566 65.5838 282.569 65.5838 282.571 65.5838C282.943 65.5865 286.24 65.6209 287.502 65.9698C288.676 66.2943 289.637 66.5898 289.678 66.6022C290.198 66.7624 290.49 67.3139 290.33 67.8339C290.199 68.2574 289.809 68.5296 289.388 68.5296ZM284.776 49.9598C284.776 49.9598 283.989 48.3477 283.051 47.5602C282.114 46.7728 278.29 48.0477 277.84 48.76C277.39 49.4723 281.283 50.8924 282.339 50.8972C283.801 50.9039 284.776 49.9598 284.776 49.9598ZM261.522 54.2285C260.913 54.2285 260.234 54.1609 259.475 54.0112C258.941 53.9058 258.593 53.3876 258.699 52.8534C258.804 52.3195 259.32 51.9714 259.856 52.0774C263.498 52.7951 264.336 51.337 265.396 49.4898C265.788 48.8086 266.192 48.1041 266.758 47.5382C268.227 46.0689 268.16 44.8951 268.09 43.6522L268.083 43.5282C268.007 42.1624 269.063 41.5832 270.084 41.0233C270.824 40.6176 271.745 40.1127 272.747 39.1876C275.044 37.0676 277.802 35.9137 279.627 35.1504C279.851 35.0565 280.064 34.9675 280.264 34.8817C282.551 33.9008 285.538 33.8902 288.458 34.8513C291.327 35.7957 294.125 36.3414 294.153 36.3465C294.688 36.45 295.037 36.9668 294.934 37.5013C294.83 38.0358 294.313 38.3835 293.779 38.2818C293.66 38.2589 290.829 37.7065 287.842 36.7235C285.408 35.9221 282.865 35.9113 281.04 36.693C280.836 36.7808 280.617 36.872 280.387 36.9683C278.589 37.7207 276.125 38.7512 274.084 40.6358C272.905 41.7247 271.822 42.3181 271.032 42.7513C270.651 42.9604 270.129 43.2463 270.05 43.3848C270.051 43.386 270.049 43.3978 270.051 43.4186L270.057 43.5396C270.137 44.9313 270.246 46.8377 268.151 48.9314C267.771 49.312 267.448 49.8747 267.106 50.4708C266.174 52.0952 264.949 54.2285 261.522 54.2285Z" fill="#D6A683"/>
<path d="M258.062 63.8735C257.337 63.8738 256.621 63.648 256.008 63.2079C254.213 61.9191 253.084 59.8863 252.131 57.8813C251.277 56.086 249.409 50.8497 250.995 48.2165C251.402 47.5398 252.22 46.7189 253.803 46.6506C253.884 46.647 253.965 46.6455 254.045 46.6455C258.943 46.6455 260.757 53.1704 260.834 53.4526C260.975 53.9784 260.664 54.519 260.138 54.6605C259.613 54.8024 259.073 54.4912 258.931 53.9666C258.916 53.9117 257.402 48.471 253.888 48.6198C253.128 48.6527 252.845 48.9647 252.684 49.2334C251.779 50.7359 252.815 54.7299 253.911 57.0353C254.882 59.0771 255.805 60.6361 257.158 61.607C257.598 61.9234 258.16 61.9886 258.659 61.7824C258.852 61.703 259.31 61.461 259.397 60.9334C259.487 60.3964 259.996 60.0336 260.532 60.1233C261.068 60.2129 261.431 60.7206 261.341 61.2575C261.168 62.3 260.446 63.1774 259.411 63.6045C258.974 63.7844 258.516 63.8735 258.062 63.8735Z" fill="#D6A683"/>
<path d="M249.505 71.128C249.301 71.128 249.096 71.1014 248.892 71.0477C248.365 70.9097 248.05 70.3713 248.188 69.8446C248.326 69.3182 248.863 69.0019 249.391 69.1411C249.49 69.167 249.607 69.1743 249.792 69.0556C250.66 68.4954 251.442 66.328 251.672 64.9786C251.944 63.3831 253.121 59.5626 253.211 59.2903C253.383 58.7739 253.94 58.4944 254.457 58.6662C254.973 58.8379 255.253 59.3957 255.081 59.9124C255.005 60.1427 253.865 63.8473 253.615 65.3103C253.608 65.351 252.896 69.3985 250.86 70.712C250.432 70.9876 249.972 71.128 249.505 71.128ZM288.272 48.8834C287.937 48.8834 287.61 48.7128 287.426 48.4047C286.992 47.6821 285.841 45.7625 284.003 45.3439C282.365 44.9708 278.88 45.6415 277.676 45.9315C277.147 46.0592 276.614 45.7332 276.487 45.2041C276.359 44.675 276.685 44.1426 277.214 44.0152C277.704 43.8975 282.063 42.8801 284.441 43.4221C287.099 44.0276 288.617 46.559 289.116 47.3911C289.396 47.8581 289.245 48.4632 288.778 48.7433C288.619 48.8381 288.444 48.8834 288.272 48.8834ZM292.01 54.5822C291.533 54.5822 291.115 54.2363 291.037 53.7512C290.539 50.6141 291.351 47.7449 291.386 47.6242C291.537 47.1011 292.085 46.8002 292.606 46.9508C293.129 47.1017 293.43 47.6471 293.28 48.1699C293.273 48.1952 292.556 50.752 292.984 53.4419C293.069 53.9794 292.703 54.4844 292.165 54.5698C292.113 54.5782 292.061 54.5822 292.01 54.5822ZM266.885 319.08C266.523 319.08 266.156 318.972 265.837 318.749L246.131 304.951C245.84 304.747 245.614 304.463 245.482 304.133L228.596 262.056L194.555 248.307C193.618 247.928 193.165 246.861 193.544 245.924C193.922 244.987 194.989 244.533 195.926 244.912L230.689 258.953C231.151 259.14 231.517 259.506 231.702 259.969L248.676 302.264L267.936 315.75C268.764 316.329 268.966 317.471 268.386 318.299C268.03 318.807 267.462 319.08 266.885 319.08ZM204.838 124.704C204.35 124.704 203.863 124.51 203.503 124.126C202.812 123.388 202.849 122.23 203.585 121.539C205.402 119.835 208.704 116.913 210.412 116.486C212.106 116.063 262.888 108.281 263.389 108.205C265.905 107.825 295.14 102.527 295.435 102.474C295.716 102.423 296.004 102.439 296.278 102.519L327.111 111.581C328.081 111.865 328.636 112.883 328.351 113.853C328.066 114.822 327.049 115.377 326.079 115.093L295.662 106.153C291.884 106.837 266.366 111.458 263.936 111.824C260.134 112.398 213.545 119.562 211.314 120.034C210.55 120.317 208.007 122.411 206.09 124.208C205.737 124.54 205.287 124.704 204.838 124.704Z" fill="#D6A683"/>
<path d="M180.759 371.602H137.814V409.319H180.759V371.602Z" fill="#DB8F52"/>
<path d="M133.569 371.602H31.8984V409.319H133.569V371.602Z" fill="#FFB471"/>
<path d="M36.082 437.938L36.082 354.054H25.1158L25.1158 437.938H36.082Z" fill="#50456D"/>
<path d="M141.16 437.937V354.053H130.194V437.937H141.16Z" fill="#50456D"/>
<path d="M189.916 437.938V354.054H178.95V437.938H189.916Z" fill="#393351"/>
<path d="M150.287 343.087H15.1758V375.985H150.287V343.087Z" fill="#FFB471"/>
<path d="M199.386 343.087H150.287V375.985H199.386V343.087Z" fill="#DB8F52"/>
<path d="M130.194 377.252H36.0815C35.3816 377.252 34.8145 376.685 34.8145 375.985C34.8145 375.285 35.3816 374.718 36.0815 374.718H130.194C130.894 374.718 131.461 375.286 131.461 375.985C131.461 376.685 130.894 377.252 130.194 377.252Z" fill="#DB8F52"/>
<path d="M228.784 82.6885C228.784 82.6885 235.894 77.2209 235.941 74.9683C235.987 72.7158 233.101 69.0082 232.866 68.5153C232.632 68.0224 231.318 65.8402 230.262 66.0983C229.206 66.3563 228.408 67.8111 227.375 69.2427C226.343 70.6743 222.728 74.1803 223.152 76.6344C223.575 79.0883 225.569 83.9084 228.784 82.6885Z" fill="#F27C79"/>
<path d="M172.941 112.447C172.755 112.447 172.568 112.406 172.39 112.32C171.757 112.016 171.491 111.256 171.796 110.623C175.479 102.977 183.752 95.4806 184.102 95.1652C184.623 94.6956 185.427 94.7378 185.897 95.2597C186.367 95.7812 186.325 96.585 185.803 97.0549C185.721 97.1289 177.55 104.536 174.087 111.727C173.868 112.182 173.413 112.447 172.941 112.447Z" fill="#C66C67"/>
<path d="M224.458 60.4624L222.113 61.5577L222.644 62.6932L223.199 62.4339L235.685 86.9356C236.392 88.3228 237.358 89.5618 238.531 90.5853C238.499 89.0287 238.169 87.4925 237.558 86.0603L226.777 60.7624L227.332 60.5031L226.802 59.3677L224.458 60.4624Z" fill="#84C0CE"/>
<path d="M221.453 77.1621C221.453 77.1621 222.72 73.4663 223.776 71.6713C224.832 69.8764 226.31 68.8203 226.909 67.2716C227.507 65.7229 228.176 64.2796 229.197 65.2654C230.218 66.2508 229.302 68.9965 228.985 71.2844C228.669 73.5722 228.493 74.417 227.331 76.8458C226.169 79.274 221.805 80.2245 221.453 77.1621Z" fill="#F27C79"/>
<path d="M232.056 67.0526C232.056 67.0526 230.435 65.1991 229.639 65.4949C228.844 65.7907 226.891 70.274 227.565 71.2579C228.567 72.7209 230.027 70.5034 230.027 70.5034C230.027 70.5034 228.869 73.0351 229.461 73.6267C230.052 74.2179 230.655 73.6635 230.655 73.6635C230.655 73.6635 230.507 75.1116 230.932 75.4518C231.357 75.792 232.725 75.4518 232.725 75.4518C232.725 75.4518 232.115 77.0823 232.614 77.3965C233.113 77.7107 235.907 76.0313 235.719 73.608C235.53 71.1843 234.122 68.98 232.056 67.0526Z" fill="#F27C79"/>
<path d="M215.377 45.0496L210.893 43.7228C210.458 43.5939 209.996 43.8447 209.868 44.28L193.839 98.4469C193.71 98.8821 193.96 99.3436 194.396 99.4725L198.88 100.799C199.315 100.928 199.776 100.677 199.905 100.242L215.934 46.0752C216.063 45.6397 215.812 45.1782 215.377 45.0496Z" fill="#FFB471"/>
<path d="M213.013 45.2296C208.434 43.7561 204.53 43.37 202.34 43.2813C201.243 43.2369 200.257 43.939 199.945 44.9911L196.653 56.1155C196.336 57.1885 196.804 58.3367 197.781 58.8818C200.381 60.3324 204.39 62.2146 207.727 63.0917C211.004 64.1713 215.392 64.774 218.362 64.9723C219.479 65.0469 220.496 64.3382 220.814 63.2652L224.106 52.1408C224.417 51.0886 223.972 49.9625 223.028 49.4032C221.141 48.2856 217.656 46.4852 213.013 45.2296Z" fill="#393351"/>
<path d="M192.242 80.7478C193.193 79.8118 196.628 76.2282 198.943 72.7916C201.052 69.6623 201.642 68.1692 202.268 69.2195C203.723 71.6601 200.699 74.7475 201.025 76.339C201.352 77.9305 208.588 75.5153 209.463 77.1823C210.632 79.4122 208.521 79.8163 208.55 80.3829C208.58 80.9494 209.469 81.608 208.717 83.013C207.965 84.4183 207.515 84.4986 207.363 84.8472C207.21 85.1961 207.167 86.2845 206.921 87.1459C206.675 88.0076 198.139 90.1753 194.847 89.1207C193.496 88.6885 190.424 82.5358 192.242 80.7478Z" fill="#FF867A"/>
<path d="M192.939 80.811L146.197 85.9735C146.197 85.9735 146.285 84.6207 146.382 82.3374C141.888 83.9407 129.127 87.9103 116.994 86.2412C118.308 100.676 122.166 115.653 131.897 118.639C153.133 125.154 194.244 95.2658 197.717 88.6015C201.19 81.9374 192.939 80.811 192.939 80.811Z" fill="#FF867A"/>
<path d="M148.347 84.5655C148.379 76.5004 146.614 65.6337 145.437 55.7498C143.83 42.247 142.743 29.8272 137.788 28.2012C127.766 24.9135 117.072 39.0027 115.401 60.1613C114.98 65.4937 113.933 78.2398 114.838 88.1793C126.971 89.8484 143.852 86.1688 148.347 84.5655Z" fill="#50456D"/>
<path d="M114.836 89.1319C114.342 89.1319 113.925 88.751 113.887 88.2503C113.874 88.0882 112.684 71.8868 114.645 58.0076C116.621 44.0261 121.047 36.9658 121.235 36.6721C121.519 36.2284 122.108 36.098 122.552 36.3811C122.996 36.6642 123.125 37.254 122.843 37.6977C122.799 37.7656 118.446 44.7447 116.534 58.2744C114.601 71.951 115.776 87.9463 115.788 88.1063C115.828 88.6312 115.434 89.0893 114.909 89.1289C114.885 89.131 114.86 89.1319 114.836 89.1319Z" fill="#393351"/>
<path d="M128.355 102.826C128.157 102.826 127.957 102.78 127.77 102.683C127.147 102.36 126.904 101.592 127.227 100.969C133.883 88.1383 145.375 84.8791 145.862 84.7466C146.539 84.5622 147.238 84.9615 147.422 85.6388C147.607 86.3158 147.208 87.0143 146.531 87.1993C146.371 87.2439 135.593 90.3639 129.484 102.14C129.258 102.576 128.814 102.826 128.355 102.826Z" fill="#C66C67"/>
<path d="M178.107 8.6192C178.107 8.6192 179.579 7.10101 178.86 5.47567C178.14 3.85034 176.797 4.70904 175.339 5.12285C173.88 5.53695 172.609 5.69601 171.381 5.9915C169.92 6.34343 169.113 8.6868 168.546 9.7284C167.978 10.7703 167.323 11.1512 167.683 11.9921C168.042 12.8333 176.112 11.2107 178.107 8.6192Z" fill="#3A4B66"/>
<path d="M167.511 12.5493C167.511 12.5493 167.337 11.482 167.582 10.8575C167.828 10.2328 168.386 9.14951 168.779 9.06621C169.171 8.98291 169.359 9.31763 169.43 10.0218C169.5 10.7253 168.04 14.3026 167.511 12.5493Z" fill="#FF867A"/>
<path d="M158.21 26.1838C157.325 27.6815 167.263 33.4669 167.449 31.1274L169.65 22.8209L170.665 19.0001L171.588 15.5158L167.62 11.6865C167.62 11.6865 159.763 23.561 158.21 26.1838Z" fill="#FF867A"/>
<path d="M170.745 7.93132L166.994 14.1308C165.922 16.2705 169.733 22.1848 174.784 21.8141C176.235 21.7079 177.448 20.0394 178.03 17.5261C178.511 15.4534 178.584 13.7892 178.523 12.1261C178.488 11.1732 178.639 10.2303 178.559 9.60585C178.057 5.69629 173.485 4.06976 170.745 7.93132Z" fill="#FF867A"/>
<path d="M175.942 12.9961C175.942 12.9961 178.434 13.2373 178.763 14.3353C179.092 15.4331 179.665 24.9059 176.648 26.1705C171.576 28.2969 168.284 24.953 167.448 23.2265C166.18 20.6097 168.675 10.4837 169.058 9.05336C169.266 8.27707 169.759 8.39447 169.885 8.94772C170.011 9.50097 169.954 12.0973 170.517 13.2149C171.08 14.3326 172.661 12.8537 173.474 12.6804C174.287 12.5069 175.942 12.9961 175.942 12.9961Z" fill="#3A4B66"/>
<path d="M173.324 13.3394C173.324 13.3394 175.083 14.3535 177.687 14.8859C177.687 14.8859 177.545 16.4925 176.458 16.7135C175.371 16.9344 173.678 15.4265 173.324 13.3394Z" fill="white"/>
<path d="M175.448 10.9318C175.48 10.9441 175.517 10.9465 175.553 10.9363C176.418 10.6873 176.866 11.4186 176.885 11.4497C176.933 11.5294 177.036 11.5538 177.115 11.5049C177.194 11.4557 177.22 11.3513 177.173 11.2713C176.973 10.9302 176.358 10.3519 175.466 10.6088C175.377 10.6345 175.324 10.7286 175.348 10.8192C175.362 10.8729 175.4 10.9133 175.448 10.9318Z" fill="#3A4B66"/>
<path d="M172.37 12.6229C171.345 12.1364 170.878 10.7993 171.327 9.53854C171.776 8.28174 173.036 7.66299 174.259 8.09913C174.829 8.30347 175.264 8.70067 175.489 9.22223C175.722 9.75857 175.723 10.3818 175.494 11.0247C175.266 11.664 174.838 12.1904 174.29 12.507C173.73 12.8303 173.112 12.8976 172.549 12.6968C172.488 12.6751 172.428 12.6504 172.37 12.6229ZM174.293 8.56998C174.236 8.54311 174.178 8.51897 174.117 8.49754C173.249 8.18787 172.149 8.49482 171.726 9.6807C171.329 10.7929 171.762 11.967 172.691 12.299C173.135 12.4575 173.628 12.4014 174.078 12.1412C174.54 11.8747 174.901 11.4277 175.096 10.8829C175.289 10.3426 175.291 9.82649 175.102 9.39035C174.947 9.03178 174.663 8.74534 174.293 8.56998ZM177.785 14.1049C176.938 13.7028 176.615 12.408 177.069 11.134C177.522 9.86723 178.563 9.202 179.545 9.55242C180.018 9.72114 180.373 10.0921 180.542 10.5964C180.715 11.108 180.687 11.7126 180.461 12.3437C180.236 12.9748 179.856 13.5112 179.39 13.8538C178.9 14.2144 178.372 14.321 177.904 14.1541C177.863 14.1396 177.823 14.1233 177.785 14.1049ZM179.512 9.9958C179.477 9.9792 179.441 9.96412 179.403 9.95084C178.639 9.67829 177.843 10.2231 177.468 11.2758C177.071 12.3884 177.332 13.5045 178.046 13.756C178.377 13.8743 178.766 13.7879 179.139 13.5133C179.538 13.2202 179.866 12.7545 180.063 12.2016C180.256 11.6604 180.283 11.1518 180.141 10.7311C180.028 10.3927 179.806 10.1356 179.512 9.9958Z" fill="#3A4B66"/>
<path d="M171.716 9.20111L169.202 8.52441L168.977 8.93128L171.523 9.60767L171.716 9.20111Z" fill="#3A4B66"/>
<path d="M158.89 24.4497L165.997 29.7347L168.569 27.592L169.502 31.1252L167.735 34.8461L165.695 31.6972L161.482 33.2069L156.928 26.9497L158.89 24.4497Z" fill="white"/>
<path d="M174.704 7.87247C174.732 7.88968 174.758 7.90749 174.783 7.9259C174.911 8.02339 174.847 8.22983 174.686 8.24251C174.12 8.28718 173.032 8.37079 172.848 8.36928C172.771 8.36867 172.731 8.31706 172.711 8.24614C172.653 8.03184 172.819 7.82086 173.041 7.81151C173.55 7.79008 174.527 7.76442 174.704 7.87247Z" fill="#3A4B66"/>
<path d="M178.96 9.56827C179.009 9.46716 178.974 9.34552 178.878 9.28757C178.568 9.10195 177.902 8.71923 177.726 8.75364C177.723 8.75394 177.721 8.75455 177.719 8.75515C177.534 8.79318 177.493 9.04038 177.65 9.14451C178.012 9.38537 178.581 9.75963 178.691 9.81577C178.789 9.86497 178.892 9.70681 178.96 9.56827Z" fill="#3A4B66"/>
<path d="M176.04 12.6465C176.246 12.6876 176.417 12.6018 176.48 12.3966C176.616 11.9487 177.298 12.2034 177.161 12.6498C177.013 13.1355 176.48 13.4711 175.977 13.3706C175.785 13.3323 175.628 13.1877 175.646 12.9767C175.662 12.7983 175.847 12.6076 176.04 12.6465Z" fill="#C66C67"/>
<path d="M174.193 11.0948C174.332 11.055 174.529 11.1386 174.556 11.2952C174.588 11.4863 174.589 11.6695 174.523 11.8545C174.471 12.0036 174.331 12.1078 174.168 12.0661C174.025 12.0299 173.903 11.8603 173.956 11.7103C173.985 11.6282 174.03 11.1422 174.193 11.0948ZM178.274 12.0112L178.191 12.3362C178.099 12.7015 177.531 12.5578 177.624 12.192L177.706 11.8669C177.799 11.5017 178.367 11.6454 178.274 12.0112Z" fill="#3A4B66"/>
<path d="M238.606 79.8872C237.938 79.3203 237.636 78.4309 237.833 77.5767C238.233 75.8373 238.953 73.0119 239.438 72.8661C240.142 72.6548 244.366 74.4148 244.225 75.1892C244.084 75.9637 240.916 80.821 240.353 80.9617C240.053 81.0371 239.27 80.4507 238.606 79.8872Z" fill="#F2C8A5"/>
<path d="M232.009 86.9121C232.009 86.9121 229.969 85.8913 229.528 87.088C229.088 88.2848 229.299 88.7776 230.32 89.0943C231.34 89.4112 232.502 89.1999 232.819 88.7423C233.135 88.2848 233.178 87.2866 232.009 86.9121Z" fill="#F2C8A5"/>
<path d="M240.57 85.1937C240.542 84.7316 240.663 84.2747 240.891 83.8717C241.294 83.1588 241.796 82.6844 242.326 82.7592C243.207 82.8833 244.037 83.7893 243.791 84.2819C243.544 84.7748 241.236 86.0325 240.814 85.7862C240.649 85.6902 240.586 85.4506 240.57 85.1937Z" fill="#F2C8A5"/>
<path d="M215.386 442.16C212.635 442.161 210.911 439.189 212.277 436.8C215.558 431.055 221.788 422.501 230.568 420.592C247.402 416.932 273.228 427.702 277.029 428.758C279.129 429.341 281.403 433.36 283.018 436.842C284.163 439.311 282.348 442.134 279.626 442.135L215.386 442.16Z" fill="#D6A683"/>
<path d="M205.918 439.538C206.844 437.533 206.785 435.212 205.747 433.263C204.868 431.613 203.831 429.756 203.258 429.039C202.131 427.631 191.619 428.381 187.676 428.288C183.734 428.194 176.225 427.255 175.662 430.447C175.099 433.638 174.066 441.241 175.662 442.836C177.258 444.432 200.723 444.62 202.6 444.244C203.631 444.038 204.943 441.651 205.918 439.538Z" fill="#D6A683"/>
<path d="M135.672 437.131C135.793 435.1 133.895 431.491 131.578 430.101C129.26 428.71 123.002 429.482 122.384 430.101C121.766 430.719 118.599 434.086 118.521 435.431C118.444 436.776 120.685 441.92 122.152 442.384C123.62 442.848 132.891 442.848 133.2 442.384C133.509 441.92 135.586 438.58 135.672 437.131Z" fill="#D6A683"/>
<path d="M193.955 181.334C193.955 181.334 212.235 176.671 215.964 179.214C219.692 181.756 235.44 195.105 235.724 197.435C236.007 199.766 215.879 212.541 213.76 214.629C211.641 216.717 194.714 219.89 194.714 219.89L193.955 181.334Z" fill="#E8BD99"/>
<path d="M333.261 149.126C333.261 149.126 315.463 149.974 312.073 153.152C308.683 156.33 307.156 163.534 304 168.407C300.844 173.281 305.17 177.518 319.004 177.094C332.837 176.671 335.804 176.035 338.134 173.28C340.465 170.526 333.261 149.126 333.261 149.126Z" fill="#E8BD99"/>
<path d="M280.912 269.572C280.9 272.439 282.904 274.869 285.68 275.585C287.789 276.129 290.829 277.917 294.277 283.034C300.845 292.781 305.93 296.147 315.465 296.159C324.999 296.171 331.779 301.154 333.898 289.128C336.017 277.102 327.33 260.363 325.847 258.457C324.363 256.55 302.116 260.152 297.878 262.27C293.641 264.389 281.14 265.449 280.928 269.051C280.918 269.226 280.913 269.4 280.912 269.572Z" fill="#E8BD99"/>
</svg>
