<svg width="488" height="396" viewBox="0 0 488 396" fill="none" xmlns="http://www.w3.org/2000/svg">
<path d="M409.694 395.8H61.5846C41.214 395.8 23.8894 381.236 20.3674 361.246L0.663049 250.73C-2.09746 235.405 3.89951 219.984 16.0838 210.37L212.175 57.1139C219.505 51.4025 228.643 48.2612 237.972 48.2612C246.92 48.2612 255.487 51.0217 262.721 56.3524L470.711 208.371C485.371 219.032 491.463 237.88 485.846 255.109L449.579 366.862C443.963 384.187 427.876 395.8 409.694 395.8ZM237.972 48.8324C228.833 48.8324 219.79 51.9736 212.556 57.5899L16.4646 210.846C4.37546 220.27 -1.43113 235.5 1.23419 250.635L20.9385 361.246C24.4605 381.045 41.5947 395.324 61.5846 395.324H409.694C427.685 395.324 443.487 383.806 449.008 366.767L485.37 255.014C490.891 237.975 484.895 219.413 470.426 208.847L262.34 56.8283C255.201 51.5929 246.824 48.8324 237.972 48.8324Z" fill="#F8F3FF"/>
<path d="M475.088 251.682L444.151 346.968L438.82 363.435C434.727 376.001 423.019 384.568 409.787 384.568H61.5822C46.7325 384.568 34.1675 374.001 31.5022 359.342L29.3128 346.968L11.7978 248.731C9.79883 237.594 14.1776 226.267 23.0302 219.318L219.122 66.0619C229.878 57.6852 244.918 57.3996 255.96 65.4907L464.046 217.509C474.707 225.41 479.086 239.117 475.088 251.682Z" fill="#F8F3FF"/>
<path d="M154.585 127.65L140.402 133.647C138.403 131.838 137.166 130.125 136.499 128.506C134.215 123.652 136.309 119.844 136.309 119.844L131.454 121.082C130.312 121.082 129.55 119.939 129.931 118.797L132.882 110.801C133.263 109.754 134.119 108.897 135.167 108.517L142.972 105.471C142.972 105.471 140.307 94.4285 139.831 90.6209C139.545 88.4315 140.307 87.3844 141.354 87.0036C141.83 86.8133 142.306 87.0036 142.496 87.4796C143.829 90.7161 149.445 104.614 150.873 109.754C151.634 112.419 152.777 118.321 153.633 122.7C154.3 125.46 154.585 127.65 154.585 127.65Z" fill="#FF987A"/>
<path d="M154.586 127.65L140.403 133.647C138.404 131.838 137.166 130.125 136.5 128.507C141.164 126.984 146.305 126.983 150.874 124.985C151.826 124.509 152.873 124.033 153.444 123.081C153.539 122.986 153.634 122.795 153.729 122.7C154.301 125.46 154.586 127.65 154.586 127.65Z" fill="#F97A5D"/>
<path d="M146.115 108.231L137.547 98.2361C137.262 97.9505 136.786 97.9505 136.5 98.2361C136.215 98.5217 136.024 98.9024 135.834 99.3784C135.358 100.616 135.644 102.044 136.31 103.091L142.973 113.371C142.973 113.371 139.166 117.369 144.306 123.747" fill="#FF987A"/>
<path d="M144.207 124.318C144.112 124.318 143.921 124.223 143.826 124.128C139.257 118.512 141.446 114.514 142.303 113.371L135.83 103.376C134.973 102.044 134.783 100.521 135.259 99.188C135.449 98.712 135.735 98.3313 136.02 97.8553C136.211 97.5697 136.592 97.4745 136.877 97.4745C137.258 97.4745 137.543 97.6649 137.734 97.8553L146.301 107.85C146.491 108.041 146.491 108.326 146.206 108.517C146.015 108.707 145.73 108.707 145.539 108.421L136.972 98.4264C136.877 98.3313 136.782 98.3313 136.782 98.3313C136.782 98.3313 136.687 98.3313 136.592 98.4264C136.306 98.712 136.116 99.0928 136.02 99.4735C135.64 100.521 135.83 101.758 136.496 102.805L143.16 113.086C143.255 113.276 143.255 113.562 143.064 113.657C142.969 113.847 139.638 117.464 144.397 123.461C144.587 123.652 144.492 123.937 144.302 124.128C144.492 124.223 144.397 124.318 144.207 124.318Z" fill="#F97A5D"/>
<path d="M135.833 110.42L131.359 122.605H131.55C132.978 122.795 134.215 122.034 134.786 120.701L138.784 110.516" fill="#FF987A"/>
<path d="M131.931 123.081H131.265C131.074 123.081 130.979 122.986 130.884 122.89C130.789 122.795 130.789 122.605 130.884 122.51L135.358 110.325C135.453 110.04 135.739 109.944 135.929 110.04C136.215 110.135 136.31 110.42 136.215 110.611L131.931 122.224C132.978 122.224 133.835 121.558 134.216 120.606L138.309 110.325C138.404 110.04 138.689 109.944 138.88 110.04C139.165 110.135 139.261 110.42 139.165 110.611L135.167 120.796C134.596 122.224 133.359 123.081 131.931 123.081Z" fill="#F97A5D"/>
<path d="M140.877 115.18C140.877 115.18 138.211 121.558 134.309 121.843L137.259 114.228" fill="#FF987A"/>
<path d="M134.308 122.224C134.118 122.224 134.022 122.129 133.927 122.034C133.832 121.938 133.832 121.748 133.832 121.558L136.783 113.942C136.878 113.657 137.164 113.562 137.354 113.657C137.64 113.752 137.735 114.038 137.64 114.228L134.974 120.986C138.211 120.035 140.4 114.799 140.4 114.799C140.495 114.514 140.781 114.418 141.066 114.514C141.352 114.609 141.447 114.894 141.352 115.18C141.162 115.561 138.496 122.034 134.308 122.224Z" fill="#F97A5D"/>
<path d="M434.824 352.013C435.776 355.154 437.014 359.628 436.728 363.435C436.538 366.577 435.205 369.337 431.873 370.194C428.827 371.051 419.213 371.336 407.029 371.431C381.232 371.622 343.918 370.575 333.828 370.289C332.114 370.194 331.257 370.194 331.257 370.194L331.162 369.242L329.258 354.583C326.117 354.488 323.357 354.107 320.882 353.536C295.466 347.729 304.699 319.458 318.788 289.092C330.591 263.486 343.347 257.679 354.008 257.394C356.007 257.394 357.911 257.489 359.719 257.679C363.527 258.155 366.954 259.107 369.905 259.583C369.905 259.583 385.421 258.346 395.511 256.918C396.939 256.727 398.271 256.537 399.413 256.347H399.604C411.503 254.253 424.448 250.445 438.632 288.616C441.868 297.278 444.629 305.56 446.342 313.175C450.435 331.261 449.007 345.54 434.824 352.013Z" fill="#52C1FF"/>
<path d="M337.159 124.318L321.262 230.55C320.691 234.643 317.169 237.689 312.98 237.689H159.724C154.584 237.689 150.681 233.12 151.443 228.075L167.34 121.843C167.911 117.75 171.433 114.704 175.621 114.704H328.877C334.017 114.704 337.92 119.273 337.159 124.318Z" fill="white"/>
<path d="M323.927 213.511C323.832 213.511 323.832 213.511 323.927 213.511C323.736 213.511 323.641 213.321 323.736 213.226L325.355 202.374C325.355 202.279 325.45 202.183 325.64 202.183C325.735 202.183 325.831 202.279 325.831 202.469L324.212 213.321C324.117 213.416 324.022 213.511 323.927 213.511ZM328.877 179.814C328.686 179.814 328.591 179.623 328.686 179.528L336.968 124.223C337.349 121.843 336.587 119.559 335.064 117.75C333.541 115.941 331.256 114.894 328.972 114.894H282.9C282.805 114.894 282.614 114.799 282.614 114.609C282.614 114.418 282.709 114.323 282.9 114.323H328.972C331.447 114.323 333.826 115.37 335.445 117.274C337.063 119.178 337.824 121.653 337.444 124.128L329.162 179.433C329.162 179.719 329.067 179.814 328.877 179.814ZM165.911 132.028C165.721 132.028 165.626 131.838 165.721 131.743L167.244 121.748C167.91 117.56 171.528 114.418 175.716 114.418H211.603C211.698 114.418 211.888 114.513 211.888 114.704C211.888 114.894 211.793 114.989 211.603 114.989H175.621C171.623 114.989 168.196 117.94 167.625 121.938L166.102 131.933C166.102 132.028 166.007 132.028 165.911 132.028Z" fill="#2C1E70"/>
<path d="M233.88 166.868C233.88 166.868 232.072 188.286 213.319 200.28C212.748 200.661 212.177 201.041 211.606 201.327C203.229 206.658 194.853 211.227 187.142 214.558C170.008 221.793 155.444 222.364 149.161 208.466C139.833 187.81 135.073 133.076 135.073 133.076C134.026 129.554 154.873 123.271 157.157 126.793L178.385 177.434C178.385 177.434 211.606 146.688 221.22 145.07C230.644 143.451 233.88 166.868 233.88 166.868Z" fill="#E8354C"/>
<path d="M211.604 201.327C203.228 206.658 194.851 211.227 187.141 214.558L206.274 173.151L211.604 201.327Z" fill="#CE1938"/>
<path d="M274.811 239.784H193.805C193.329 221.983 203.895 159.443 209.797 152.59C217.983 143.071 230.929 144.403 230.929 144.403C230.929 144.403 231.881 144.403 233.594 144.308C240.162 144.118 257.677 144.022 271.099 145.831C279.38 146.973 286.139 148.877 287.757 152.114C291.755 160.3 275.478 222.459 274.811 239.784Z" fill="#E8354C"/>
<path d="M226.263 222.078V237.594H214.27L210.176 239.403L203.894 242.259L199.23 249.017C198.658 249.779 197.706 250.254 196.755 250.254H195.898C195.612 250.254 195.422 249.969 195.517 249.683L196.183 246.923L194.089 250.35C193.423 251.397 192.281 251.968 191.138 251.968C190.853 251.968 190.567 251.682 190.567 251.397V251.206L191.138 249.303L190.567 250.35C189.996 251.397 188.759 251.778 187.616 251.302L187.14 251.111C185.427 252.253 184.475 252.158 183.999 251.111L186.664 239.117L187.236 236.642C180.287 238.451 180.477 233.882 180.477 233.882C180.477 233.882 189.425 231.312 196.374 226.076C200.943 222.649 212.461 221.983 219.695 221.983C223.693 221.983 226.263 222.078 226.263 222.078Z" fill="#FF987A"/>
<path d="M226.264 222.078V237.594H214.27L210.177 239.403C209.891 238.546 209.891 237.689 209.987 236.833C210.367 230.645 214.27 224.744 219.791 221.888C223.694 221.983 226.264 222.078 226.264 222.078Z" fill="#F97A5D"/>
<path d="M187.332 250.921L190.188 237.975L193.234 235.024" fill="#FF987A"/>
<path d="M187.331 251.397H187.236C186.951 251.302 186.855 251.111 186.855 250.826L189.711 237.785C189.711 237.689 189.806 237.594 189.806 237.499L192.852 234.548C193.043 234.358 193.328 234.358 193.519 234.548C193.709 234.739 193.709 235.024 193.519 235.215L190.568 238.07L187.712 250.921C187.712 251.302 187.522 251.397 187.331 251.397Z" fill="#F97A5D"/>
<path d="M191.328 249.303L193.803 240.545L196.754 237.689" fill="#FF987A"/>
<path d="M191.327 249.779H191.231C190.946 249.683 190.851 249.398 190.946 249.207L193.421 240.45C193.421 240.355 193.516 240.26 193.516 240.26L196.562 237.404C196.752 237.213 197.038 237.213 197.228 237.404C197.419 237.594 197.419 237.88 197.228 238.07L194.277 240.926L191.803 249.588C191.707 249.683 191.517 249.779 191.327 249.779Z" fill="#F97A5D"/>
<path d="M196.375 246.828L198.088 241.402L199.992 239.403" fill="#FF987A"/>
<path d="M196.374 247.304H196.183C195.898 247.208 195.803 246.923 195.898 246.732L197.611 241.307C197.611 241.211 197.706 241.211 197.706 241.116L199.61 239.022C199.801 238.832 200.086 238.832 200.277 239.022C200.467 239.212 200.467 239.498 200.277 239.688L198.373 241.687L196.659 247.018C196.755 247.208 196.564 247.304 196.374 247.304ZM187.426 237.023C187.236 237.023 187.14 236.928 187.045 236.833C186.855 236.642 186.95 236.357 187.14 236.166L192.566 232.359C192.757 232.168 193.042 232.264 193.233 232.454C193.423 232.644 193.328 232.93 193.137 233.12L187.711 236.928C187.616 237.023 187.521 237.023 187.426 237.023Z" fill="#F97A5D"/>
<path d="M280.142 147.544C280.142 147.544 296.324 150.781 304.51 174.293C315.172 205.039 322.882 233.501 300.798 238.927C278.809 244.353 224.17 238.927 224.17 238.927C221.029 239.308 218.744 217.604 221.79 217.319L274.716 205.896L276.144 172.77L280.142 147.544Z" fill="#E8354C"/>
<path d="M224.17 239.117C223.313 239.117 222.552 237.975 221.885 235.786C221.314 233.882 220.838 231.217 220.457 228.361C220.172 225.505 220.077 222.84 220.267 220.841C220.457 218.461 221.029 217.128 221.885 217.033L274.621 205.706L275.096 194.283C275.096 194.188 275.192 194.092 275.382 194.092C275.477 194.092 275.572 194.188 275.572 194.378L275.096 205.991C275.096 206.086 275.001 206.182 274.906 206.182L221.98 217.604C221.695 217.604 221.029 217.985 220.743 220.936C220.553 222.935 220.648 225.6 220.933 228.361C221.6 234.263 223.028 238.832 224.17 238.737C224.265 238.737 224.455 238.832 224.455 238.927C224.455 239.022 224.36 239.212 224.265 239.212L224.17 239.117Z" fill="#CE1938"/>
<path d="M271.1 145.736V145.926C271.1 152.399 264.151 156.302 252.443 156.302C241.02 156.302 234.166 152.59 233.786 146.402L233.5 144.213C240.068 144.118 257.678 143.927 271.1 145.736Z" fill="white"/>
<path d="M239.303 145.926L238.065 136.503C228.356 136.693 224.739 128.983 224.929 120.606C224.929 118.416 225.215 116.132 225.595 113.847C227.023 105.28 230.069 97.5698 230.069 97.5698L259.102 96.9987V112.895L261.196 125.651L265.385 145.831C265.48 152.399 239.303 152.399 239.303 145.926Z" fill="#FF987A"/>
<path d="M268.241 119.273C268.431 118.892 269.764 115.846 269.764 113.467C269.764 111.943 269.193 110.611 267.574 110.42C263.1 109.754 258.151 117.465 258.151 117.465L258.817 113.276C248.917 112.8 254.057 104.138 254.057 104.138C246.537 108.326 230.07 107.755 229.022 101.663L227.214 107.47C223.025 101.377 228.547 99.5688 228.547 99.5688C227.404 78.151 248.346 85.0047 255.676 87.9556C262.91 90.9065 269.859 94.9997 274.143 98.6169C281.091 104.709 268.907 118.607 268.241 119.273Z" fill="#58082E"/>
<path d="M258.724 113.752C255.582 113.562 253.583 112.61 252.631 110.896C251.584 108.993 252.251 106.613 252.917 105.185C247.015 107.755 237.115 108.041 231.88 105.566C229.881 104.614 228.644 103.281 228.453 101.758C228.453 101.473 228.548 101.282 228.834 101.187C229.119 101.187 229.31 101.282 229.405 101.568C229.595 102.805 230.642 103.852 232.356 104.709C237.687 107.279 248.253 106.803 253.774 103.757C253.964 103.662 254.154 103.662 254.345 103.852C254.535 104.043 254.535 104.233 254.44 104.424C254.44 104.424 252.251 108.041 253.583 110.516C254.345 111.944 256.058 112.705 258.819 112.8C259.104 112.8 259.295 112.991 259.295 113.276C259.199 113.562 258.914 113.752 258.724 113.752Z" fill="#3D0422"/>
<path d="M257.199 118.131C257.58 115.941 258.627 113.847 260.245 112.229C261.864 110.611 263.863 109.468 266.052 108.992C266.909 108.802 267.765 108.707 268.622 109.088C269.574 109.468 270.24 110.515 270.621 111.467C271.192 112.99 271.097 114.799 270.526 116.322C269.955 117.75 268.908 118.892 267.956 120.034C266.909 121.177 265.957 122.319 264.91 123.557C264.243 124.318 263.577 125.08 262.72 125.556C261.864 126.031 260.721 126.127 259.865 125.556C259.103 124.984 258.817 124.032 258.627 123.081C258.341 121.843 257.961 120.51 257.675 119.273L257.199 118.131Z" fill="#FF987A"/>
<path d="M245.492 115.561C245.492 116.513 244.731 117.274 243.779 117.274C242.827 117.274 242.065 116.513 242.065 115.561C242.065 114.609 242.827 113.847 243.779 113.847C244.731 113.752 245.492 114.514 245.492 115.561ZM232.832 112.991C232.832 113.942 232.071 114.704 231.119 114.704C230.167 114.704 229.405 113.942 229.405 112.991C229.405 112.039 230.167 111.277 231.119 111.277C232.071 111.277 232.832 112.039 232.832 112.991ZM249.11 112.229C248.919 113.181 247.111 112.515 244.826 111.943C242.541 111.468 240.638 111.277 240.828 110.42C241.018 109.469 243.017 109.183 245.397 109.659C247.682 110.135 249.395 111.277 249.11 112.229ZM235.783 109.849C235.593 110.801 233.784 110.135 231.499 109.564C229.215 109.088 227.311 108.897 227.501 108.041C227.692 107.089 229.691 106.803 232.071 107.279C234.26 107.755 235.973 108.897 235.783 109.849Z" fill="#58082E"/>
<path d="M236.45 124.318C235.308 124.318 234.261 124.223 233.214 124.033C231.691 123.747 230.834 123.081 230.644 122.224C230.453 121.367 230.929 120.511 231.596 119.939C232.072 119.559 232.548 119.273 233.024 119.083L233.595 118.797C236.546 117.084 238.259 113.371 237.593 110.04C237.593 109.945 237.593 109.849 237.783 109.849C237.878 109.849 237.974 109.945 237.974 110.04C238.64 113.562 236.926 117.464 233.785 119.273C233.595 119.368 233.404 119.463 233.119 119.654C232.643 119.939 232.167 120.13 231.786 120.511C231.31 120.891 230.834 121.653 231.025 122.414C231.215 123.366 232.357 123.747 233.309 123.937C234.451 124.128 235.689 124.318 236.831 124.223C236.926 124.223 237.022 124.318 237.022 124.413C237.022 124.509 236.926 124.604 236.831 124.604C236.641 124.318 236.546 124.318 236.45 124.318ZM234.832 129.268C232.167 129.268 231.025 127.269 230.929 127.269C230.834 127.174 230.929 127.079 231.025 126.984C231.12 126.888 231.215 126.984 231.31 127.079C231.405 127.174 233.119 130.125 237.498 128.316C237.593 128.316 237.688 128.316 237.783 128.411C237.783 128.507 237.783 128.602 237.688 128.697C236.546 129.078 235.594 129.268 234.832 129.268ZM260.629 118.892C260.438 118.892 260.438 118.797 260.438 118.702C261.676 112.991 267.006 113.657 267.006 113.657C267.102 113.657 267.197 113.752 267.197 113.847C267.197 113.942 267.102 114.038 267.006 114.038C266.816 114.038 261.961 113.371 260.819 118.797C260.819 118.797 260.724 118.892 260.629 118.892Z" fill="#F97A5D"/>
<path d="M260.815 118.226C260.625 118.226 260.625 118.036 260.625 117.94C261.482 114.894 266.241 116.227 266.241 116.227C266.336 116.227 266.432 116.322 266.336 116.417C266.336 116.513 266.241 116.608 266.146 116.513C266.146 116.513 261.767 115.275 261.006 117.94C260.911 118.226 260.911 118.226 260.815 118.226Z" fill="#F97A5D"/>
<g opacity="0.3">
<path d="M248.92 123.176C248.349 124.984 246.159 125.936 243.97 125.27C241.876 124.604 240.638 122.509 241.21 120.701C241.781 118.892 243.97 117.94 246.159 118.607C248.349 119.273 249.586 121.272 248.92 123.176Z" fill="#E8354C"/>
</g>
<g opacity="0.3">
<path d="M230.358 118.702C229.787 120.511 227.597 121.462 225.408 120.796C225.218 120.796 225.123 120.701 225.027 120.606C225.027 118.416 225.313 116.132 225.694 113.847C226.265 113.752 226.931 113.847 227.597 114.038C229.692 114.799 230.929 116.893 230.358 118.702Z" fill="#E8354C"/>
</g>
<path d="M246.823 132.79C246.728 132.79 246.633 132.695 246.633 132.695C246.633 132.6 246.633 132.504 246.728 132.409C253.962 129.934 257.77 124.128 257.77 124.032C257.865 123.937 257.96 123.937 258.056 123.937C258.151 124.032 258.151 124.128 258.151 124.223C258.151 124.318 254.248 130.22 246.823 132.79C246.918 132.79 246.918 132.79 246.823 132.79Z" fill="#F97A5D"/>
<path d="M253.966 104.614C253.776 104.614 253.586 104.519 253.49 104.328C253.395 104.138 253.49 103.852 253.681 103.662C255.014 102.996 255.965 102.329 256.537 101.663C256.727 101.472 257.012 101.472 257.203 101.568C257.393 101.758 257.393 102.044 257.298 102.234C256.632 103.091 255.585 103.852 254.157 104.519C254.062 104.614 254.062 104.614 253.966 104.614Z" fill="#3D0422"/>
<path d="M238.164 136.598C240.925 136.312 243.685 135.265 246.446 133.837C245.208 138.216 242.924 141.072 238.926 142.214L238.164 136.598Z" fill="#F97A5D"/>
<path d="M137.928 322.884C138.499 326.121 134.12 353.821 134.692 364.482H52.257L51.4955 349.157L50.4484 328.881L47.4023 268.817C51.2099 267.769 62.252 266.818 75.4834 266.246C76.8161 266.151 78.0535 266.151 79.3862 266.056C92.7128 265.58 107.658 265.39 120.032 265.866C121.46 265.961 122.888 265.961 124.221 266.056C134.12 266.627 141.64 267.674 144.211 269.292C171.625 287.093 184.571 358.39 184.571 358.39H154.586C148.875 350.87 138.88 325.264 137.928 322.884Z" fill="#FFC43F"/>
<path d="M134.689 364.482H53.4917C53.3965 362.864 53.3013 361.246 53.3013 359.628C53.2061 356.011 52.3494 352.584 51.5879 349.062C50.7312 345.349 49.7793 341.637 49.6841 337.734C49.5889 334.878 50.0648 331.832 50.636 328.786C51.3023 324.788 52.159 320.79 52.0638 317.078L51.6831 314.032C52.3494 318.601 55.1099 322.694 58.6319 325.645C62.154 328.596 66.4375 330.595 70.7211 332.308C84.714 337.734 100.23 340.304 114.794 336.687C123.552 334.498 131.928 329.643 138.02 322.884C138.496 326.121 134.118 353.821 134.689 364.482Z" fill="#F2A41C"/>
<path d="M444.059 346.968L438.729 363.435C434.635 376 422.927 384.568 409.696 384.568H61.5858C46.7362 384.568 34.1711 374.001 31.5058 359.342L29.3164 346.968H444.059Z" fill="#E7DCF9"/>
<path d="M48.8281 324.598L50.5415 330.595C52.6357 325.264 53.3973 319.934 52.255 314.508L48.8281 324.598Z" fill="#F2A41C"/>
<path d="M124.696 272.529L124.411 273.671C122.602 281.096 115.558 285.57 105.563 285.57C96.9007 285.57 84.9067 282.143 78.9098 274.528C76.9108 271.958 75.7685 269.197 75.5781 266.246C76.9108 266.151 78.1482 266.151 79.4809 266.056C92.8075 265.58 107.752 265.39 120.127 265.866C121.555 265.961 122.983 265.961 124.315 266.056L124.696 272.529Z" fill="white"/>
<path d="M116.224 258.917L116.986 271.863C114.035 284.142 80.3374 275.956 83.2883 263.676L89.8565 237.785L90.3324 231.788C94.616 231.026 97.8524 227.504 98.2332 223.125C100.898 221.412 102.707 218.366 102.707 214.939C102.707 214.082 102.612 213.226 102.422 212.464C103.373 212.654 104.325 212.75 105.277 212.75C108.133 212.75 110.703 211.893 112.512 210.465C113.94 213.511 117.652 214.368 120.317 212.654C120.317 212.654 123.649 221.031 126.314 228.551C127.266 231.217 128.218 233.787 128.789 235.786C129.075 236.547 129.265 237.213 129.36 237.88C134.881 258.346 116.224 258.917 116.224 258.917Z" fill="#FF987A"/>
<path d="M105.561 278.145C97.5653 278.145 87.7607 274.528 84.2386 269.388C84.1435 269.293 84.2387 269.102 84.3338 269.102C84.429 269.007 84.6194 269.102 84.6194 269.197C89.1885 276.051 104.99 280.049 112.7 276.432C112.796 276.337 112.986 276.432 112.986 276.527C113.081 276.622 112.986 276.813 112.891 276.813C110.987 277.669 108.417 278.145 105.561 278.145Z" fill="#EF7154"/>
<path d="M124.313 223.506L120.315 212.559C119.268 213.226 117.84 213.606 116.413 213.321H116.317C113.271 214.844 109.464 214.653 106.418 212.654H105.275C104.799 212.654 104.228 212.654 103.752 212.559C103.467 213.13 103.086 213.702 102.705 214.178V214.749C102.705 218.176 100.897 221.222 98.2313 222.935C98.1361 224.172 97.7553 225.315 97.2794 226.362C97.1842 226.552 97.089 226.647 96.9938 226.838C96.8986 227.028 96.8034 227.123 96.7082 227.314C96.4227 227.79 96.1371 228.17 95.7563 228.551C95.6611 228.646 95.5659 228.837 95.4707 228.932C95.2804 229.122 95.09 229.313 94.8996 229.408L94.5188 229.789L93.6621 230.36C93.567 230.455 93.3766 230.55 93.2814 230.55C93.091 230.645 92.9958 230.741 92.9006 230.741C92.6151 230.931 92.2343 231.026 91.8535 231.121C91.568 231.217 91.2824 231.312 91.092 231.407C90.9016 231.502 90.7112 231.502 90.4257 231.597L89.9497 237.594L88.5219 243.401C87.3796 243.115 86.3325 242.544 85.3806 241.878C83.0009 240.069 81.3826 237.213 81.3826 233.977C81.3826 232.454 81.7634 230.931 82.4297 229.598C80.2404 227.79 78.8125 225.029 78.8125 221.983C78.8125 220.555 79.0981 219.127 79.6692 217.89C79.574 217.509 79.4788 217.128 79.4788 216.843C78.9077 212.369 81.3826 208.561 85.3806 207.419C85.6662 202.279 89.9497 198.186 95.1852 198.186C97.1842 198.186 98.9928 198.757 100.611 199.804C101.658 199.423 102.705 199.138 103.943 198.947C105.656 196.377 108.702 194.664 112.034 194.664C117.46 194.664 121.838 199.042 121.838 204.468V204.849C122.505 205.706 122.885 206.848 122.885 207.99C122.885 208.561 122.79 209.037 122.695 209.513C122.6 209.704 122.6 209.894 122.505 210.084C124.028 211.607 125.265 213.892 125.741 216.557C126.027 219.508 125.551 222.078 124.313 223.506Z" fill="#58082E"/>
<path d="M122.792 207.99C122.792 208.561 122.697 209.037 122.601 209.513L121.935 209.037C121.649 206.657 121.364 204.182 120.317 201.898C119.365 199.709 117.461 197.71 115.081 197.138C111.179 196.187 107.561 199.137 103.659 200.089C101.564 200.565 99.375 200.565 97.2808 200.756C95.1866 200.946 92.9021 201.517 91.379 203.04C89.1897 205.134 88.9993 208.656 87.1907 211.036C86.1436 212.369 84.7157 213.321 83.6686 214.653C81.2889 217.795 81.9552 222.269 82.8119 226.171C83.6686 230.169 84.5253 234.167 85.2869 238.26C85.5724 239.498 85.6676 240.926 85.2869 241.973C82.9071 240.164 81.2889 237.309 81.2889 234.072C81.2889 232.549 81.6696 231.026 82.336 229.693C80.1466 227.885 78.7188 225.124 78.7188 222.078C78.7188 220.65 79.0043 219.222 79.5755 217.985C79.4803 217.604 79.3851 217.223 79.3851 216.938C78.814 212.464 81.2889 208.656 85.2869 207.514C85.5724 202.374 89.856 198.281 95.0914 198.281C97.0904 198.281 98.899 198.852 100.517 199.899C101.564 199.518 102.611 199.233 103.849 199.042C105.562 196.472 108.608 194.759 111.94 194.759C117.366 194.759 121.745 199.137 121.745 204.563V204.944C122.411 205.801 122.792 206.848 122.792 207.99Z" fill="#3D0422"/>
<path d="M98.3275 223.316C98.2323 223.316 98.1371 223.316 98.1371 223.22C98.0419 223.125 98.1371 222.935 98.2323 222.935C100.993 221.126 102.611 218.175 102.611 214.939V214.368C102.611 214.273 102.611 214.273 102.706 214.177C103.087 213.701 103.468 213.13 103.753 212.559C103.753 212.464 103.848 212.464 103.944 212.464C104.8 212.559 105.657 212.559 106.514 212.464H106.704C109.56 214.463 113.272 214.653 116.318 213.13H116.604C118.032 213.321 119.364 213.035 120.316 212.369C120.412 212.274 120.602 212.369 120.602 212.464C120.697 212.559 120.602 212.75 120.507 212.75C119.364 213.511 117.937 213.892 116.414 213.606C113.272 215.129 109.465 214.939 106.419 212.94C105.657 213.035 104.8 212.94 104.039 212.94C103.753 213.416 103.468 213.987 103.087 214.368V214.939C103.087 218.366 101.374 221.507 98.5178 223.316H98.3275Z" fill="#3D0422"/>
<path d="M91.7574 223.982C90.2343 222.84 88.2353 222.459 86.4267 222.935C84.9037 223.221 83.4758 224.077 82.8095 225.505C82.2384 226.743 82.3336 228.17 82.9047 229.408C83.3806 230.645 84.1422 231.693 84.9989 232.74C86.046 234.167 87.0931 235.595 88.6161 236.452C89.4728 236.928 90.5199 237.309 91.3766 236.833C92.1381 236.547 92.5189 235.786 92.8996 235.024C93.7564 233.216 94.3275 231.026 94.0419 229.027C93.6612 227.028 93.4708 225.22 91.7574 223.982Z" fill="#FF987A"/>
<path d="M103.09 356.677C103.09 361.817 101.947 366.005 100.52 366.005C99.0918 366.005 89.668 362.293 89.668 357.153C89.668 352.013 99.0918 347.348 100.52 347.348C101.947 347.348 103.09 351.537 103.09 356.677Z" fill="#080730"/>
<path d="M155.536 352.965C155.441 352.965 155.346 352.869 155.346 352.774L142.305 297.088C142.305 296.993 142.4 296.802 142.495 296.802C142.59 296.802 142.781 296.898 142.781 296.993L155.822 352.679C155.822 352.869 155.726 352.965 155.536 352.965C155.631 352.965 155.631 352.965 155.536 352.965Z" fill="#F2A41C"/>
<path d="M86.2368 360.009C86.5224 360.294 86.9031 360.485 87.1887 360.77C87.1887 360.77 88.5214 361.436 90.8059 362.008C93.9472 362.769 98.7067 363.435 104.037 362.008C108.035 360.961 107.94 355.82 107.94 355.82C110.986 356.487 113.461 360.104 115.175 361.532C116.793 362.96 117.459 362.959 118.125 362.198C118.601 361.722 118.792 360.77 118.601 359.818C120.22 361.246 120.981 361.056 121.647 360.294C122.123 359.818 122.219 358.962 122.028 358.01C122.98 358.676 123.456 358.486 124.027 357.914C126.407 355.249 116.698 345.254 112.414 345.254C108.226 345.254 101.753 352.965 97.5644 353.25C96.2317 353.345 94.0424 351.917 92.2338 350.394C90.9011 349.347 89.7588 348.3 89.3781 347.919C87.6646 351.061 85.3801 356.772 86.2368 360.009Z" fill="#FF987A"/>
<path d="M118.602 360.009C118.507 360.009 118.507 360.009 118.412 359.913C117.84 359.437 117.174 358.581 116.508 357.629C115.08 355.725 113.366 353.345 111.463 352.965C111.367 352.965 111.272 352.774 111.272 352.679C111.272 352.584 111.463 352.489 111.558 352.489C113.652 352.965 115.461 355.344 116.888 357.343C117.555 358.295 118.221 359.152 118.697 359.628C118.792 359.723 118.792 359.818 118.697 360.009H118.602ZM122.029 358.2C121.934 358.2 121.934 358.2 121.838 358.105C121.267 357.629 120.601 356.772 119.935 355.82C118.507 353.916 116.793 351.537 114.889 351.156C114.794 351.156 114.699 350.966 114.699 350.87C114.699 350.775 114.889 350.68 114.985 350.68C117.079 351.156 118.887 353.536 120.315 355.535C120.982 356.486 121.648 357.343 122.124 357.819C122.219 357.914 122.219 358.01 122.124 358.2H122.029ZM108.036 356.011H107.941C107.941 356.011 106.703 355.439 105.18 355.439C105.085 355.439 104.895 355.344 104.895 355.249C104.895 355.154 104.99 354.963 105.085 354.963C106.798 354.963 108.036 355.535 108.131 355.535C108.226 355.63 108.321 355.725 108.226 355.82C108.226 356.011 108.131 356.011 108.036 356.011Z" fill="#F97A5D"/>
<path d="M98.9925 366.386C98.9925 366.481 99.0877 366.481 99.0877 366.577H98.8973C95.3753 366.862 44.4486 370.765 13.7022 366.577C0.185263 364.768 1.89869 349.823 7.80047 333.451C13.4167 317.744 23.0309 300.705 26.8385 292.519C38.7372 267.103 49.6841 268.436 49.6841 268.436C49.6841 268.436 59.5838 280.906 56.7281 298.421C54.9195 309.653 45.5909 332.213 45.5909 332.213C58.9175 338.781 86.4274 334.117 100.801 347.824C98.0406 347.824 94.3282 353.536 95.6608 359.913C96.1368 362.008 97.1839 364.292 98.9925 366.386Z" fill="#FFC43F"/>
<path d="M98.9925 366.386C98.9925 366.482 98.9925 366.482 98.8973 366.577C95.3753 366.862 44.4486 370.765 13.7022 366.577C0.185263 364.768 1.89869 349.823 7.80047 333.451C7.41971 336.402 7.70527 339.352 8.56198 342.113C9.60907 345.54 11.6081 348.681 14.2734 351.061C19.1281 355.344 25.7914 356.867 32.1691 358.105C53.1109 361.817 74.5286 362.484 95.6608 360.009C96.1368 362.008 97.1839 364.292 98.9925 366.386Z" fill="#F2A41C"/>
<path d="M95.947 346.016C94.3288 346.587 92.9961 347.92 92.3298 349.538C91.5683 351.156 91.3779 352.869 91.2827 354.678C91.0923 357.058 91.0923 359.438 91.1875 361.817C91.2827 362.96 91.3779 364.197 92.2346 365.054C93.2817 366.196 95.0903 366.006 96.6134 365.815C96.423 363.721 96.1374 361.627 95.947 359.533C95.7566 357.629 95.5663 355.725 95.947 353.821C96.423 351.918 97.5653 350.204 99.3739 349.538C99.8498 349.347 100.326 349.252 100.802 349.062C101.373 348.776 101.849 348.205 101.658 347.539C101.468 346.968 100.707 346.587 100.135 346.301C98.7075 345.54 97.2797 345.54 95.947 346.016Z" fill="white"/>
<path d="M55.6836 302.323C55.4932 302.323 55.398 302.133 55.4932 302.038C55.6836 301.276 55.874 300.42 56.0644 299.563C56.5403 297.373 57.0163 295.184 57.1115 293.09C57.397 284.047 54.4461 276.717 51.9712 272.243C51.876 272.148 51.9712 271.958 52.0664 271.958C52.1616 271.863 52.352 271.958 52.352 272.053C54.8269 276.622 57.7778 284.047 57.4922 293.185C57.397 295.279 56.9211 297.564 56.4451 299.753C56.2548 300.61 56.0644 301.371 55.9692 302.228C55.9692 302.228 55.874 302.323 55.6836 302.323ZM45.6887 332.403C45.5935 332.308 45.5935 332.403 45.6887 332.403C45.4983 332.308 45.4031 332.213 45.4983 332.118C45.4983 332.023 49.1155 323.456 52.1616 314.317C52.1616 314.222 52.352 314.127 52.4472 314.127C52.5423 314.127 52.6375 314.317 52.6375 314.413C49.4963 323.551 45.9742 332.213 45.879 332.213C45.879 332.308 45.7838 332.403 45.6887 332.403Z" fill="#F2A41C"/>
<path d="M140.593 314.413C138.498 314.413 136.595 315.84 136.119 317.935L125.648 361.912C125.553 362.103 125.553 362.388 125.553 362.579H126.6V365.91C127.456 366.957 128.694 367.529 130.122 367.529H89.2852V366.005C89.2852 364.102 90.8082 362.483 92.8072 362.483H122.126C122.126 362.293 122.221 362.008 122.221 361.817L132.692 317.839C133.168 315.745 135.072 314.317 137.166 314.317H140.593V314.413Z" fill="#F8F3FF"/>
<path d="M208.177 320.124L197.706 364.102C197.23 366.196 195.327 367.624 193.232 367.624H130.121C127.171 367.624 124.981 364.863 125.648 362.007L136.118 318.03C136.594 315.936 138.498 314.508 140.592 314.508H203.703C206.654 314.412 208.844 317.173 208.177 320.124Z" fill="white"/>
<path d="M208.177 320.124L197.706 364.102C197.23 366.196 195.327 367.624 193.232 367.624H130.121C127.171 367.624 124.981 364.863 125.648 362.008L127.837 352.679C135.642 358.105 145.257 361.341 155.442 361.341C181.714 361.341 203.037 340.59 203.989 314.603C206.845 314.698 208.844 317.363 208.177 320.124Z" fill="#F8F3FF"/>
<path d="M173.242 341.542C172.766 343.541 170.767 345.159 168.672 345.159C166.578 345.159 165.246 343.541 165.721 341.542C166.197 339.543 168.196 337.829 170.291 337.829C172.385 337.829 173.717 339.543 173.242 341.542Z" fill="#E7DCF9"/>
<path d="M17.0352 340.875C16.94 340.875 16.94 340.875 16.8448 340.78C16.7496 340.685 16.7496 340.495 16.8448 340.399C28.5532 331.071 45.497 331.832 45.5922 331.832C45.6874 331.832 45.7826 331.927 45.7826 332.118C45.7826 332.213 45.6874 332.403 45.497 332.308C45.3066 332.308 28.5532 331.547 17.0352 340.685C17.1304 340.78 17.0352 340.875 17.0352 340.875Z" fill="#F2A41C"/>
<path d="M103.562 256.251C106.989 261.772 111.178 265.294 116.604 265.58L116.223 258.917L103.562 256.251Z" fill="#EF7154"/>
<g opacity="0.3">
<path d="M112.133 233.596C112.133 235.69 109.087 237.309 105.279 237.309C101.472 237.309 98.4258 235.69 98.4258 233.596C98.4258 231.502 101.472 229.884 105.279 229.884C108.992 229.884 112.133 231.502 112.133 233.596Z" fill="#FC6865"/>
</g>
<g opacity="0.3">
<path d="M128.883 235.69H128.217C124.409 235.69 121.363 233.977 121.363 231.978C121.363 230.265 123.457 228.837 126.408 228.361C127.36 231.121 128.217 233.691 128.883 235.69Z" fill="#FC6865"/>
</g>
<path d="M106.992 228.742C107.833 228.742 108.515 228.06 108.515 227.219C108.515 226.377 107.833 225.695 106.992 225.695C106.151 225.695 105.469 226.377 105.469 227.219C105.469 228.06 106.151 228.742 106.992 228.742Z" fill="#3D0422"/>
<path d="M109.753 221.793C110.134 221.793 110.61 221.888 110.705 222.269C110.8 222.649 110.324 222.935 109.943 223.03C107.754 223.792 105.279 224.363 102.995 224.172C101.947 224.077 101.757 223.22 102.614 222.744C103.566 222.173 104.803 222.078 105.85 221.983C107.088 221.793 108.42 221.697 109.753 221.793Z" fill="#3D0422"/>
<path d="M119.843 227.314C120.685 227.314 121.366 226.632 121.366 225.791C121.366 224.949 120.685 224.268 119.843 224.268C119.002 224.268 118.32 224.949 118.32 225.791C118.32 226.632 119.002 227.314 119.843 227.314Z" fill="#3D0422"/>
<path d="M122.601 220.365C122.981 220.365 123.457 220.46 123.553 220.841C123.648 221.221 123.172 221.507 122.791 221.602C120.602 222.364 118.127 222.935 115.842 222.744C114.795 222.649 114.605 221.793 115.461 221.317C116.413 220.745 117.651 220.65 118.698 220.555C119.935 220.365 121.268 220.27 122.601 220.365Z" fill="#3D0422"/>
<path d="M118.701 237.023C117.94 237.023 116.988 236.928 116.036 236.642C115.941 236.642 115.845 236.452 115.845 236.357C115.845 236.262 116.036 236.166 116.131 236.166C118.606 236.738 121.842 236.642 121.557 234.453C121.462 233.501 120.7 232.549 120.034 232.073C118.701 231.121 116.702 231.026 115.179 230.074C114.037 229.313 113.18 227.98 112.799 226.362C112.514 224.934 112.609 223.411 112.704 221.983C112.704 221.888 112.799 221.698 112.99 221.793C113.085 221.793 113.18 221.888 113.18 222.078C113.085 223.506 112.99 224.934 113.275 226.362C113.466 227.219 113.942 228.837 115.369 229.789C116.797 230.741 118.796 230.645 120.224 231.788C120.986 232.359 121.842 233.406 121.938 234.548C122.318 236.166 120.51 237.023 118.701 237.023ZM124.413 243.02C122.985 244.162 119.463 245.971 114.037 243.306C113.561 243.115 113.085 243.591 113.371 243.972C114.703 246.066 117.368 249.493 120.891 249.493C124.698 249.493 125.174 245.4 125.174 243.401C125.269 242.925 124.793 242.735 124.413 243.02ZM91.6672 232.264C91.572 232.264 91.4768 232.168 91.4768 232.073C90.8105 226.552 87.1933 226.647 87.0981 226.647C86.9077 226.647 86.8125 226.552 86.8125 226.457C86.8125 226.362 86.9077 226.171 87.0029 226.171C87.0029 226.171 91.0961 225.981 91.8576 231.978C91.9528 232.168 91.8576 232.264 91.6672 232.264Z" fill="#EF7154"/>
<path d="M91.5706 231.692C91.4754 231.692 91.3802 231.597 91.3802 231.502C90.4283 228.932 87.287 229.884 87.1918 229.884C87.0966 229.884 86.9062 229.884 86.9062 229.693C86.9062 229.503 86.9062 229.408 87.0966 229.408C87.0966 229.408 90.809 228.266 91.8561 231.312C91.8561 231.502 91.7609 231.597 91.5706 231.692ZM101.566 253.301H101.47C95.8541 249.303 93.1888 243.02 93.0936 243.02C92.9984 242.925 93.0936 242.734 93.1888 242.734C93.284 242.639 93.4744 242.734 93.4744 242.83C93.4744 242.925 96.1397 249.017 101.661 252.92C101.756 253.015 101.756 253.11 101.756 253.205C101.756 253.301 101.661 253.301 101.566 253.301Z" fill="#EF7154"/>
<path d="M102.708 214.463C102.518 214.463 102.422 214.273 102.518 214.178C102.803 212.464 102.327 210.846 102.327 210.846C102.327 210.751 102.327 210.56 102.518 210.56C102.613 210.56 102.803 210.56 102.803 210.751C102.803 210.846 103.374 212.464 102.993 214.273C102.993 214.368 102.898 214.463 102.708 214.463ZM116.32 213.511C116.225 213.511 116.13 213.511 116.13 213.416C116.035 213.321 116.13 213.13 116.225 213.13C118.034 211.988 118.129 209.799 118.129 209.799C118.129 209.704 118.224 209.608 118.414 209.608C118.509 209.608 118.605 209.704 118.605 209.894C118.605 209.989 118.509 212.369 116.415 213.606C116.415 213.511 116.32 213.511 116.32 213.511ZM106.42 212.845C106.325 212.845 106.325 212.845 106.23 212.75C105.373 211.798 105.468 210.751 105.468 210.751C105.468 210.655 105.659 210.56 105.754 210.56C105.849 210.56 105.944 210.751 105.944 210.846C105.944 210.846 105.849 211.607 106.516 212.464C106.611 212.559 106.611 212.75 106.516 212.845H106.42ZM95.4735 223.887H95.0927C94.9975 223.887 94.9023 223.792 94.9023 223.601C94.9023 223.506 94.9975 223.411 95.1879 223.411C95.1879 223.411 97.7581 223.601 99.5667 221.793C99.6619 221.698 99.8522 221.698 99.9474 221.793C100.043 221.888 100.043 222.078 99.9474 222.173C98.3292 223.697 96.235 223.887 95.4735 223.887Z" fill="#3D0422"/>
<path d="M306.511 317.744L313.269 301.657L334.877 303.846L334.116 354.297C330.213 353.916 300.799 356.296 297.277 356.011V319.362L306.511 317.744Z" fill="#FF987A"/>
<path d="M334.875 304.513C334.685 304.513 334.59 304.322 334.59 304.227C335.161 296.136 338.302 288.045 344.014 280.43C344.109 280.335 344.299 280.239 344.394 280.335C344.49 280.43 344.585 280.62 344.49 280.715C338.873 288.235 335.732 296.136 335.161 304.227C335.161 304.418 335.066 304.513 334.875 304.513ZM406.363 311.557C406.268 311.557 406.173 311.462 406.077 311.367L399.605 296.707C399.509 296.517 399.605 296.422 399.795 296.327C399.985 296.231 400.081 296.327 400.176 296.517L406.649 311.176C406.744 311.367 406.649 311.462 406.458 311.557H406.363Z" fill="#29B2EF"/>
<path d="M353.436 208.18C353.436 208.18 346.011 214.558 350.676 223.792C355.34 233.025 368.762 206.181 368.762 206.181L353.436 208.18Z" fill="#58082E"/>
<path d="M352.77 220.27L346.202 219.984C346.107 219.984 346.012 219.889 346.012 219.698C346.012 219.603 346.107 219.508 346.297 219.508L352.865 219.794C352.961 219.794 353.056 219.889 353.056 220.079C353.056 220.174 352.961 220.27 352.77 220.27ZM395.511 257.108C395.511 259.678 394.273 262.248 391.798 264.723C387.324 269.388 378.091 274.242 370.571 274.242C364.098 274.242 361.052 270.72 359.909 268.626C359.433 267.769 359.243 266.913 359.243 265.961V265.58L359.719 257.87C363.527 258.346 366.953 259.298 369.904 259.773C369.904 259.773 385.325 258.536 395.511 257.108Z" fill="white"/>
<path d="M349.918 232.835C350.299 242.163 354.868 248.922 362.388 248.922C363.531 248.922 364.673 248.731 365.72 248.446L364.768 265.961C369.242 274.052 390.184 262.82 389.993 256.823L390.66 218.556C390.564 213.702 389.041 210.37 386.662 208.181V211.703C380.284 197.9 368.004 203.611 355.059 211.703C353.06 214.939 351.537 219.223 350.585 224.744C350.489 225.029 350.489 225.315 350.489 225.505C350.014 228.075 349.823 230.55 349.918 232.835Z" fill="#FF987A"/>
<path d="M352.867 224.458C353.708 224.458 354.39 223.776 354.39 222.935C354.39 222.094 353.708 221.412 352.867 221.412C352.026 221.412 351.344 222.094 351.344 222.935C351.344 223.776 352.026 224.458 352.867 224.458Z" fill="#58082E"/>
<path d="M368.476 224.839C369.317 224.839 369.999 224.157 369.999 223.316C369.999 222.475 369.317 221.793 368.476 221.793C367.635 221.793 366.953 222.475 366.953 223.316C366.953 224.157 367.635 224.839 368.476 224.839Z" fill="#58082E"/>
<path d="M364.575 266.056C364.479 265.961 364.575 265.77 364.67 265.77C364.765 265.675 364.955 265.77 364.955 265.866C367.05 269.483 372.285 268.626 375.236 267.865C382.565 265.77 389.8 260.249 389.705 256.918L389.8 252.158C389.8 252.063 389.895 251.968 390.085 251.968C390.181 251.968 390.276 252.063 390.276 252.253L390.181 257.013C390.371 261.011 382.185 266.532 375.331 268.436C371.428 269.388 366.574 269.673 364.575 266.056Z" fill="#EF7154"/>
<g opacity="0.3">
<path d="M363.434 230.17C363.434 232.93 367.622 235.215 372.857 235.215C377.998 235.215 382.281 232.93 382.281 230.17C382.281 227.409 378.093 225.124 372.857 225.124C367.622 225.029 363.434 227.314 363.434 230.17Z" fill="#FC6865"/>
</g>
<g opacity="0.3">
<path d="M349.915 232.835C352.961 232.264 355.15 230.645 355.15 228.742C355.15 227.028 353.247 225.505 350.486 224.839C350.391 225.124 350.391 225.41 350.391 225.6C350.01 228.075 349.82 230.55 349.915 232.835Z" fill="#FC6865"/>
</g>
<path d="M353.34 210.751C352.769 213.321 364.858 214.749 366.476 210.37C375.043 216.557 378.946 209.132 378.946 209.132C377.232 217.414 385.324 219.699 385.324 219.699V227.219L390.845 229.027L392.463 229.503L392.558 229.408C393.224 228.742 398.745 222.173 398.555 209.799C398.365 197.519 387.418 202.374 387.418 202.374C387.418 202.374 388.274 194.092 375.9 192.379C367.428 191.237 364.287 193.616 357.338 193.712H357.052C356.1 193.712 355.244 193.807 354.482 193.902C337.824 195.52 348.39 208.561 353.34 210.751Z" fill="#58082E"/>
<path d="M354.391 193.902C354.486 193.902 354.486 193.902 354.391 193.902C354.771 194.664 355.628 194.568 356.39 194.568C360.483 195.044 364.576 195.33 368.669 195.425C370.954 195.425 373.238 195.425 375.618 195.33C377.141 195.235 378.664 195.139 380.187 195.425C381.71 195.711 383.138 196.472 383.995 197.805C385.423 200.089 384.375 203.135 383.328 205.706C384.566 204.659 385.899 203.516 387.422 202.945C388.945 202.279 390.848 202.279 392.181 203.135C394.085 204.373 394.561 206.848 394.751 209.132C395.227 215.32 394.466 221.698 392.657 227.599C392.467 228.17 392.371 229.027 392.562 229.503C393.228 228.837 398.749 222.269 398.559 209.894C398.368 197.614 387.422 202.469 387.422 202.469C387.422 202.469 388.278 194.188 375.904 192.474C367.432 191.332 364.29 193.712 357.342 193.807H357.056C356.104 193.712 355.247 193.807 354.391 193.902Z" fill="#3D0422"/>
<path d="M372.76 213.13C370.761 213.13 368.571 212.274 366.287 210.655C366.191 210.56 366.191 210.465 366.191 210.37C366.287 210.275 366.382 210.275 366.477 210.275C369.238 212.274 371.808 213.035 374.092 212.559C377.138 211.893 378.566 209.132 378.566 209.132C378.661 209.037 378.757 208.942 378.852 209.037C378.947 209.132 379.042 209.228 378.947 209.323C378.852 209.418 377.329 212.274 374.092 213.035C373.807 213.035 373.331 213.13 372.76 213.13Z" fill="#3D0422"/>
<path d="M359.812 213.416C358.289 213.416 356.861 213.226 355.624 212.845C354.006 212.369 353.054 211.703 353.149 210.846C351.531 209.989 350.103 208.847 349.056 207.514C348.961 207.419 348.961 207.229 349.056 207.133C349.151 207.038 349.341 207.038 349.437 207.133C350.484 208.466 351.911 209.608 353.53 210.465C353.625 210.56 353.72 210.655 353.625 210.751C353.53 211.322 354.291 211.893 355.719 212.369C359.146 213.416 364.952 213.13 366.19 210.465C365.904 210.179 364.857 209.132 363.715 207.705C363.62 207.609 363.62 207.419 363.715 207.324C363.81 207.229 364.001 207.229 364.096 207.324C365.428 209.132 366.571 210.179 366.571 210.179C366.666 210.275 366.666 210.37 366.666 210.465C365.904 212.559 362.858 213.416 359.812 213.416Z" fill="#3D0422"/>
<path d="M385.42 225.981C386.087 224.268 387.514 222.84 389.228 221.888C389.799 221.602 390.56 221.317 391.227 221.412C391.798 221.507 392.274 221.888 392.559 222.364C392.845 222.84 393.035 223.316 393.131 223.792C393.702 226.076 393.131 230.074 390.465 231.597C386.467 233.787 385.42 229.693 385.23 229.027C385.135 228.456 385.23 227.885 385.23 227.314C385.325 226.838 385.23 226.457 385.42 225.981Z" fill="#FF987A"/>
<path d="M390.56 231.788C390.465 231.788 390.369 231.788 390.369 231.693C390.274 231.597 390.369 231.407 390.465 231.407C392.94 229.979 393.511 226.171 392.94 223.887C392.844 223.316 392.654 222.84 392.368 222.554C392.083 222.078 391.607 221.793 391.131 221.698C390.56 221.602 389.989 221.698 389.322 222.174C387.609 223.125 386.276 224.458 385.61 226.172C385.515 226.267 385.42 226.362 385.324 226.267C385.229 226.171 385.134 226.076 385.229 225.981C385.991 224.268 387.323 222.745 389.132 221.793C389.703 221.507 390.465 221.126 391.321 221.317C391.892 221.412 392.464 221.793 392.844 222.364C393.13 222.745 393.32 223.221 393.511 223.887C394.082 226.171 393.511 230.36 390.75 231.978C390.655 231.788 390.56 231.788 390.56 231.788ZM376.662 246.066C373.711 250.826 370.094 253.872 365.43 254.157L365.715 248.446L376.662 246.066Z" fill="#EF7154"/>
<path d="M387.134 228.266C387.039 228.266 387.039 228.266 387.134 228.266C386.944 228.17 386.848 228.075 386.944 227.98C388.086 224.839 390.942 224.934 390.942 224.934C391.037 224.934 391.132 225.029 391.132 225.22C391.132 225.315 391.037 225.41 390.846 225.41C390.751 225.41 388.371 225.41 387.324 228.17C387.229 228.17 387.229 228.266 387.134 228.266Z" fill="#EF7154"/>
<path d="M387.133 228.266C387.038 228.266 387.038 228.266 386.942 228.17C386.847 228.075 386.847 227.885 386.942 227.79C388.466 226.362 389.989 227.123 389.989 227.123C390.084 227.218 390.179 227.314 390.084 227.409C389.989 227.504 389.893 227.599 389.798 227.504C389.703 227.504 388.561 226.933 387.228 228.075C387.228 228.266 387.133 228.266 387.133 228.266Z" fill="#EF7154"/>
<path d="M352.771 229.979C348.583 229.979 345.156 226.552 345.156 222.364C345.156 217.985 348.869 217.604 352.771 217.604C356.674 217.604 360.387 217.985 360.387 222.364C360.387 226.552 356.96 229.979 352.771 229.979ZM352.771 218.08C348.298 218.08 345.632 218.747 345.632 222.364C345.632 226.267 348.773 229.503 352.771 229.503C356.674 229.503 359.911 226.362 359.911 222.364C359.911 218.842 357.341 218.08 352.771 218.08ZM370.382 229.979C366.193 229.979 362.766 226.552 362.766 222.364C362.766 217.985 366.479 217.604 370.382 217.604C374.284 217.604 377.997 217.985 377.997 222.364C377.997 226.552 374.57 229.979 370.382 229.979ZM370.382 218.08C365.908 218.08 363.242 218.747 363.242 222.364C363.242 226.267 366.384 229.503 370.382 229.503C374.284 229.503 377.521 226.362 377.521 222.364C377.521 218.842 374.856 218.08 370.382 218.08Z" fill="white"/>
<g opacity="0.6">
<path d="M345.441 222.364C345.441 226.457 348.678 229.694 352.771 229.694C356.864 229.694 360.101 226.457 360.101 222.364C360.101 218.271 356.769 217.89 352.771 217.89C348.773 217.89 345.441 218.366 345.441 222.364Z" fill="white"/>
</g>
<g opacity="0.6">
<path d="M363.051 222.364C363.051 226.457 366.287 229.693 370.38 229.693C374.474 229.693 377.71 226.457 377.71 222.364C377.71 218.271 374.378 217.89 370.38 217.89C366.382 217.89 363.051 218.366 363.051 222.364Z" fill="white"/>
</g>
<path d="M363.243 220.936C363.147 220.936 363.147 220.936 363.052 220.841C362.1 220.079 361.053 219.984 359.911 220.841C359.816 220.936 359.625 220.841 359.625 220.746C359.53 220.65 359.625 220.46 359.721 220.46C361.053 219.603 362.291 219.603 363.433 220.555C363.528 220.65 363.528 220.746 363.433 220.936H363.243ZM393.894 223.506C393.799 223.506 393.703 223.411 393.703 223.411C392.656 221.126 390.372 219.699 387.802 219.699H376.76C376.664 219.699 376.474 219.603 376.474 219.413C376.474 219.223 376.569 219.127 376.76 219.127H387.992C390.657 219.127 393.037 220.65 394.179 223.125C394.275 223.221 394.179 223.411 394.084 223.411C393.989 223.506 393.894 223.506 393.894 223.506Z" fill="white"/>
<path d="M361.812 221.793C362.383 222.84 362.192 224.268 361.336 225.124C360.193 226.362 358.099 226.457 356.862 227.599C355.815 228.551 355.624 230.265 356.481 231.407C356.957 231.978 357.623 232.359 358.385 232.549C359.146 232.74 359.813 232.74 360.574 232.74" fill="#FF987A"/>
<path d="M360.577 232.93C359.815 232.93 359.054 232.93 358.292 232.74C357.721 232.549 356.864 232.264 356.293 231.502C355.341 230.36 355.532 228.456 356.674 227.409C357.34 226.838 358.102 226.457 358.958 226.171C359.815 225.886 360.577 225.505 361.148 224.934C361.909 224.172 362.1 222.84 361.529 221.888C361.433 221.793 361.529 221.602 361.624 221.602C361.719 221.507 361.909 221.602 361.909 221.697C362.48 222.84 362.29 224.363 361.433 225.315C360.767 225.981 359.91 226.362 359.054 226.647C358.292 226.933 357.531 227.219 356.959 227.79C356.008 228.742 355.817 230.265 356.579 231.216C357.055 231.788 357.816 232.073 358.292 232.264C358.958 232.454 359.72 232.454 360.481 232.454C360.577 232.454 360.672 232.549 360.672 232.74C360.767 232.835 360.672 232.93 360.577 232.93ZM362.004 237.404C360.767 237.689 358.673 237.975 356.579 237.309C356.007 237.118 355.436 237.785 355.817 238.261C356.769 239.784 358.102 241.592 359.339 241.783C360.672 241.973 362.004 239.784 362.766 238.261C362.956 237.88 362.576 237.309 362.004 237.404Z" fill="#EF7154"/>
<path d="M367.619 214.653C367.238 214.749 366.762 214.939 366.762 215.32C366.762 215.701 367.238 215.891 367.619 215.986C369.809 216.462 372.283 216.652 374.473 216.177C375.425 215.986 375.52 215.129 374.663 214.749C373.711 214.368 372.474 214.368 371.427 214.368C370.189 214.273 368.857 214.368 367.619 214.653ZM353.626 214.844C353.246 214.939 352.77 215.129 352.77 215.51C352.77 215.891 353.246 216.081 353.626 216.177C355.816 216.652 358.291 216.843 360.48 216.367C361.432 216.177 361.527 215.32 360.67 214.939C359.718 214.558 358.481 214.558 357.434 214.558C356.196 214.463 354.864 214.653 353.626 214.844Z" fill="#58082E"/>
<path d="M383.899 240.355C383.803 240.355 383.803 240.355 383.708 240.26C383.613 240.164 383.613 239.974 383.708 239.879C386.849 236.452 389.039 232.549 389.039 232.549C389.134 232.454 389.229 232.359 389.324 232.454C389.42 232.549 389.515 232.644 389.42 232.74C389.42 232.74 387.23 236.738 383.994 240.164C384.089 240.355 383.994 240.355 383.899 240.355Z" fill="#EF7154"/>
<path d="M381.613 207.609C381.518 207.609 381.518 207.609 381.423 207.514C381.328 207.419 381.328 207.324 381.423 207.133L383.422 204.658C383.517 204.563 383.612 204.563 383.803 204.658C383.898 204.754 383.898 204.849 383.803 205.039L381.804 207.514C381.709 207.609 381.613 207.609 381.613 207.609Z" fill="#3D0422"/>
<path d="M377.71 258.536H377.615C377.52 258.441 377.425 258.346 377.52 258.25C378.377 256.442 379.329 254.633 380.28 252.92C380.376 252.825 380.471 252.729 380.566 252.825C380.661 252.92 380.756 253.015 380.661 253.11C379.709 254.824 378.757 256.632 377.901 258.441C377.901 258.441 377.805 258.536 377.71 258.536Z" fill="#EF7154"/>
<path d="M362.006 355.63L362.196 359.818C362.196 359.818 397.226 361.722 418.834 357.438C447.677 351.632 452.436 336.877 445.487 311.271C434.731 307.368 419.31 308.606 406.364 311.271L412.456 325.645C395.512 326.787 381.519 333.831 356.77 349.633C341.54 359.342 352.487 359.437 362.006 355.63Z" fill="#FF987A"/>
<path d="M430.447 344.397C430.351 344.397 430.161 344.302 430.161 344.207C427.02 329.262 412.456 325.931 412.361 325.835C412.17 325.835 412.075 325.645 412.17 325.455C412.265 325.264 412.36 325.169 412.551 325.264C412.741 325.264 427.591 328.691 430.827 344.017C430.732 344.207 430.637 344.397 430.447 344.397Z" fill="#EF7154"/>
<path d="M393.706 329.833C393.611 329.833 393.515 329.738 393.42 329.643C393.325 329.453 393.42 329.357 393.611 329.262C401.226 326.121 410.174 325.455 412.173 325.264L408.746 317.649C408.651 317.459 408.746 317.363 408.936 317.268C409.126 317.173 409.222 317.268 409.317 317.459L412.934 325.455V325.74C412.839 325.835 412.839 325.835 412.744 325.835C412.649 325.835 402.463 326.216 393.991 329.738C393.801 329.833 393.706 329.833 393.706 329.833Z" fill="#EF7154"/>
<path d="M341.922 306.988C344.111 306.988 345.92 308.511 346.396 310.605L356.962 354.964C357.057 355.154 357.057 355.44 357.057 355.63H356.01V358.962C355.153 360.009 353.916 360.675 352.488 360.675H393.8V359.152C393.8 357.248 392.182 355.63 390.278 355.63H360.674C360.674 355.44 360.579 355.154 360.579 354.964L350.013 310.605C349.537 308.511 347.633 306.988 345.539 306.988H341.922Z" fill="#F8F3FF"/>
<path d="M273.671 312.699L284.237 357.058C284.713 359.152 286.617 360.58 288.711 360.58H352.393C355.344 360.58 357.629 357.819 356.867 354.868L346.301 310.51C345.825 308.416 343.921 306.893 341.827 306.893H278.145C275.194 306.988 273.005 309.748 273.671 312.699Z" fill="white"/>
<path d="M273.668 312.699L284.234 357.058C284.71 359.152 286.614 360.58 288.708 360.58H352.39C355.436 360.58 357.626 357.819 356.864 354.868L354.675 345.445C346.774 350.966 337.16 354.202 326.784 354.202C300.321 354.202 278.713 333.26 277.761 306.988C275.001 307.273 273.002 309.939 273.668 312.699Z" fill="#F8F3FF"/>
<path d="M309.267 333.165C309.838 335.449 312.218 337.353 314.502 337.353C316.882 337.353 318.31 335.449 317.644 333.165C317.072 330.785 314.693 328.977 312.313 328.977C310.124 328.977 308.696 330.88 309.267 333.165Z" fill="#E7DCF9"/>
<path d="M112.797 33.2213C112.512 42.8355 117.271 51.3074 124.696 56.1621C127.933 58.2563 130.312 61.6832 130.598 65.5859V65.6811L130.788 73.9627C130.883 77.4847 133.834 80.2452 137.261 80.15L144.4 79.9596C147.922 79.8644 150.683 76.9136 150.588 73.4867L150.397 65.2052C150.493 61.112 151.73 57.4948 155.062 54.9247C161.344 49.9748 165.342 42.1692 165.152 33.6021C164.771 18.8476 152.206 7.23448 137.356 8.09119C124.03 8.75752 113.273 19.7996 112.797 33.2213Z" fill="#FFC43F"/>
<path d="M124.697 56.1621C127.934 58.2563 130.313 61.6832 130.599 65.5859V65.6811L130.789 73.9627C130.885 77.4847 133.836 80.2452 137.262 80.15L144.402 79.9596C147.924 79.8644 150.684 76.9136 150.589 73.4867C150.494 66.3475 150.208 65.4907 150.494 62.9206C150.875 59.7794 152.493 56.8285 155.063 54.8295L157.347 52.8305C156.11 53.0209 154.873 53.116 153.54 53.116C135.454 53.592 120.414 39.3135 119.938 21.2274C119.843 19.3236 120.033 17.515 120.223 15.7064C115.749 20.2755 112.894 26.3677 112.703 33.1261C112.418 42.8355 117.272 51.3074 124.697 56.1621Z" fill="#FFB92F"/>
<path d="M140.212 64.9195L139.736 64.8244C140.212 61.4927 138.022 55.4005 136.023 50.0699C135.547 48.6421 134.976 47.3094 134.595 46.0719C133.834 46.2623 133.072 46.1671 132.216 46.1671C130.598 46.0719 129.17 45.8815 128.027 44.8345C126.504 43.4066 126.695 41.122 127.361 39.599C127.742 38.5519 128.313 37.8856 128.979 37.3145C129.836 36.6481 130.978 36.5529 131.835 36.9337C133.263 37.6 133.644 39.2183 133.834 40.4557C134.024 41.6932 134.5 43.3114 135.071 45.12C135.262 45.0248 135.452 44.9297 135.643 44.7393C136.119 44.3585 136.404 43.7874 136.69 43.2162C137.451 41.6932 138.213 41.4076 138.974 41.4076C140.116 41.3124 141.068 41.8836 141.83 43.121C142.115 43.6922 142.496 44.1681 142.972 44.5489C143.163 44.7393 143.448 44.8345 143.639 44.9297C144.114 43.121 144.4 41.4076 144.495 40.1702C144.59 38.9327 144.876 37.2193 146.304 36.5529C147.161 36.077 148.303 36.1722 149.16 36.8385C149.826 37.3145 150.492 37.9808 150.873 39.0279C151.539 40.5509 151.92 42.8355 150.492 44.2633C149.445 45.3104 148.017 45.596 146.399 45.7864C145.638 45.8815 144.971 45.9767 144.21 45.8816L143.353 49.3084C141.925 55.0198 140.307 61.3975 140.973 64.8244L140.497 64.9195V65.0147H140.307L140.212 64.9195C140.212 65.0147 140.212 65.0147 140.212 64.9195ZM142.496 45.2152C141.925 44.7393 141.544 44.0729 141.164 43.5018C140.402 42.1691 139.641 42.0739 139.069 42.1691C138.498 42.2643 138.022 42.2643 137.356 43.597C137.07 44.1681 136.69 44.8345 136.119 45.3104C135.833 45.5008 135.547 45.6912 135.262 45.7864C135.738 47.0238 136.214 48.3565 136.69 49.7843C138.022 53.4967 139.45 57.3044 140.116 60.4456C140.497 57.0188 141.544 52.8304 142.496 49.0228C142.782 47.8805 143.067 46.6431 143.353 45.596C143.067 45.596 142.782 45.4056 142.496 45.2152ZM133.072 40.5509C132.882 38.9327 132.406 37.9808 131.549 37.6C130.978 37.3145 130.122 37.4096 129.455 37.8856C128.884 38.2663 128.408 38.9327 128.123 39.7894C127.551 41.2172 127.456 43.121 128.599 44.1681C129.455 45.0248 130.788 45.2152 132.216 45.3104C132.882 45.3104 133.644 45.4056 134.215 45.3104C133.739 43.5018 133.263 41.8836 133.072 40.5509ZM146.589 37.2193C145.828 37.6 145.352 38.5519 145.257 40.1702C145.162 41.5028 144.781 43.121 144.4 45.0248C144.971 45.12 145.638 45.0248 146.304 44.9297C147.732 44.7393 149.064 44.5489 149.921 43.597C150.968 42.4547 150.778 40.5509 150.207 39.2183C149.826 38.3615 149.35 37.7904 148.779 37.4096C148.398 37.1241 147.922 37.0289 147.446 37.0289C147.065 37.0289 146.875 37.1241 146.589 37.2193Z" fill="white"/>
<path d="M130.5 64.9196C130.595 65.8715 130.786 74.0578 130.881 74.5337C131.262 77.7702 134.022 80.2451 137.354 80.15L144.493 79.9596C147.825 79.8644 150.49 77.2942 150.68 74.0578C150.775 73.0107 150.395 65.9666 150.49 64.4436L130.5 64.9196Z" fill="#52C1FF"/>
<path d="M130.68 67.7505L150.566 67.2121L150.587 67.9734L130.7 68.5117L130.68 67.7505Z" fill="#29B2EF"/>
<path d="M130.773 70.7014L150.66 70.163L150.681 70.9242L130.794 71.4626L130.773 70.7014Z" fill="#29B2EF"/>
<path d="M130.883 73.7723V74.5338L150.682 73.9627V73.2012L130.883 73.7723Z" fill="#29B2EF"/>
<path d="M136.973 80.15C136.973 81.2923 137.925 82.2442 139.162 82.149L142.874 82.0538C144.017 82.0538 144.969 81.1019 144.873 79.8644L136.973 80.15Z" fill="#4F3C94"/>
<path d="M137.163 80.9115L144.017 80.7211C144.017 81.1019 143.922 81.4826 143.731 81.7682C144.397 81.3875 144.873 80.7211 144.873 79.8644L136.973 80.0548C136.973 80.4355 137.068 80.7211 137.163 80.9115Z" fill="#2C1E70"/>
<path opacity="0.2" d="M156.165 32.0049C157.567 30.3677 155.013 25.8805 150.46 21.9825C145.908 18.0845 141.081 16.2518 139.679 17.889C138.277 19.5263 140.831 24.0135 145.383 27.9115C149.936 31.8095 154.763 33.6422 156.165 32.0049Z" fill="white"/>
<path d="M137.924 3.33165C137.734 3.33165 137.639 3.23646 137.639 3.04608L137.544 0.285558C137.544 0.0951784 137.639 0 137.829 0C138.02 0 138.115 0.0951784 138.115 0.285558L138.21 3.04608C138.21 3.14127 138.115 3.33165 137.924 3.33165ZM167.909 14.7544C167.814 14.6593 167.814 14.4689 167.909 14.3737L169.813 12.3747C169.908 12.2795 170.099 12.2795 170.194 12.3747C170.289 12.4699 170.289 12.6603 170.194 12.7555L168.29 14.7544C168.195 14.8496 168.005 14.8496 167.909 14.7544ZM108.32 16.3727L106.321 14.4689C106.226 14.3737 106.226 14.1833 106.321 14.0881C106.417 13.9929 106.607 13.9929 106.702 14.0881L108.701 15.9919C108.796 16.0871 108.796 16.2775 108.701 16.3727C108.606 16.4679 108.416 16.4679 108.32 16.3727Z" fill="#2C1E70"/>
<path d="M137.928 3.33165C137.737 3.33165 137.642 3.23646 137.642 3.04608L137.547 0.285558C137.547 0.0951784 137.642 0 137.832 0C138.023 0 138.118 0.0951784 138.118 0.285558L138.213 3.04608C138.213 3.14127 138.118 3.33165 137.928 3.33165Z" fill="#2C1E70"/>
<path d="M444.628 146.593C445.96 161.062 436.156 174.578 421.972 177.815C415.88 179.243 409.788 178.672 404.457 176.482L399.127 180.29C398.841 180.48 398.365 180.29 398.365 179.909L398.556 173.341C392.368 169.057 387.894 162.394 386.467 154.398C383.611 138.406 394.272 123.176 410.264 120.415C427.113 117.369 443.105 129.268 444.628 146.593Z" fill="white"/>
<path d="M398.94 180.671C398.845 180.671 398.75 180.671 398.56 180.575C398.274 180.48 398.179 180.195 398.179 179.909L398.369 173.436C391.896 168.867 387.613 162.109 386.28 154.398C384.947 146.593 386.661 138.787 391.135 132.314C395.704 125.841 402.462 121.558 410.268 120.13C418.359 118.702 426.831 120.796 433.399 125.746C440.063 130.791 444.156 138.216 444.917 146.593C446.25 161.252 436.445 174.769 422.072 178.101C416.17 179.433 410.078 178.957 404.557 176.768L399.321 180.48C399.226 180.575 399.036 180.671 398.94 180.671ZM415.408 120.13C413.695 120.13 412.077 120.32 410.363 120.606C402.653 121.938 395.99 126.222 391.516 132.6C387.042 138.977 385.328 146.688 386.661 154.398C387.994 162.109 392.277 168.772 398.655 173.246C398.75 173.246 398.75 173.341 398.75 173.436L398.56 180.004C398.56 180.1 398.56 180.195 398.655 180.195H398.94L404.271 176.387C404.366 176.387 404.461 176.292 404.461 176.387C409.982 178.576 415.979 179.052 421.786 177.72C435.874 174.483 445.584 161.157 444.251 146.688C443.489 138.406 439.491 131.172 432.923 126.127C427.973 122.224 421.786 120.13 415.408 120.13Z" fill="#2C1E70"/>
<path d="M26.1741 162.394C24.7463 177.815 35.122 192.189 50.2572 195.711C56.7301 197.234 63.203 196.567 68.9144 194.283L74.6258 198.281C75.0066 198.566 75.4825 198.281 75.4825 197.805L75.2922 190.856C81.8603 186.287 86.715 179.148 88.238 170.676C91.1889 153.637 79.8613 137.454 62.9175 134.408C44.9265 131.267 27.8875 144.022 26.1741 162.394Z" fill="white"/>
<path d="M74.9118 198.662C74.7214 198.662 74.6262 198.662 74.4358 198.566L68.8196 194.568C62.9178 196.948 56.4449 197.424 50.1624 195.996C34.8368 192.474 24.4611 178.101 25.8889 162.489C27.6023 143.547 45.1173 131.172 62.7274 134.313C71.009 135.741 78.2434 140.405 83.0981 147.259C87.9528 154.113 89.7614 162.489 88.3336 170.771C86.9057 179.052 82.3366 186.287 75.4829 191.046L75.6733 197.9C75.6733 198.186 75.4829 198.471 75.2925 198.566C75.1021 198.566 75.0069 198.662 74.9118 198.662ZM68.9148 193.997H69.01L74.7214 197.995C74.8166 198.09 74.9118 198.09 75.007 197.995C75.1021 197.9 75.1973 197.805 75.1973 197.71L75.007 190.761C75.007 190.666 75.007 190.57 75.1021 190.57C81.9558 185.811 86.4298 178.672 87.9528 170.485C89.3806 162.299 87.572 154.113 82.8125 147.259C78.053 140.5 70.9138 135.931 62.8226 134.504C45.498 131.457 28.2687 143.642 26.5552 162.299C25.1274 177.72 35.4079 191.903 50.4479 195.33C56.5401 196.948 63.013 196.377 68.9148 193.997Z" fill="#2C1E70"/>
<path d="M419.595 149.639C419.405 152.114 421.404 154.113 423.783 154.113C424.83 154.113 425.878 153.732 426.639 153.066C427.305 152.399 428.162 152.114 429.114 152.114H429.209V159.348C429.209 160.966 427.877 162.299 426.258 162.299H407.601C405.983 162.299 404.65 160.966 404.65 159.348V152.114H404.555C403.603 152.114 402.746 152.494 402.08 153.066C401.319 153.732 400.367 154.113 399.224 154.113C396.845 154.113 394.846 152.114 395.036 149.639C395.131 147.545 396.94 145.831 399.034 145.736C400.271 145.641 401.319 146.117 402.08 146.878C402.746 147.449 403.603 147.83 404.555 147.83V140.596C404.555 138.977 405.888 137.645 407.506 137.645H414.74C414.74 136.788 414.455 135.836 413.788 135.17C413.027 134.408 412.646 133.266 412.646 132.124C412.741 130.03 414.455 128.316 416.549 128.126C419.024 127.935 421.023 129.934 421.023 132.314C421.023 133.361 420.642 134.408 419.976 135.17C419.309 135.836 419.024 136.693 419.024 137.645H426.258C427.877 137.645 429.209 138.977 429.209 140.596V147.83C428.352 147.83 427.401 147.545 426.734 146.878C425.973 146.117 424.83 145.736 423.688 145.736C421.499 145.831 419.69 147.545 419.595 149.639Z" fill="#E8354C"/>
<path d="M68.8175 158.111V175.435C68.8175 176.958 67.58 178.196 66.057 178.196H48.7324C47.2094 178.196 45.9719 176.958 45.9719 175.435V168.772C43.6873 168.772 43.5922 170.676 41.022 170.676C38.7375 170.676 36.9289 168.772 37.1192 166.487C37.2144 164.488 38.8327 162.965 40.8317 162.87C43.497 162.775 43.5922 164.774 45.9719 164.774V158.111C45.9719 156.588 47.2094 155.35 48.7324 155.35H55.3957C55.3957 152.97 53.3015 152.875 53.4919 150.21C53.5871 148.211 55.2053 146.593 57.1091 146.497C59.3937 146.402 61.2975 148.116 61.2975 150.4C61.2975 152.875 59.3937 153.161 59.3937 155.35H66.057C67.58 155.445 68.8175 156.588 68.8175 158.111Z" fill="#11CBAB"/>
<path d="M277.573 367.243C277.573 368.1 271.862 368.861 264.818 368.861C257.774 368.861 252.062 368.1 252.062 367.243C252.062 366.386 257.774 365.625 264.818 365.625C271.862 365.625 277.573 366.386 277.573 367.243Z" fill="#F9F3FF"/>
<path d="M262.339 367.624H266.527C268.526 367.624 270.335 366.672 271.382 365.054C273.572 361.722 274.999 357.438 274.999 354.202C274.999 355.249 270.24 356.106 264.433 356.106C258.627 356.106 253.867 355.249 253.867 354.202C253.867 357.438 255.295 361.817 257.484 365.054C258.532 366.672 260.435 367.624 262.339 367.624Z" fill="white"/>
<path d="M275.097 354.107C275.097 355.154 270.338 356.011 264.531 356.011C258.724 356.011 253.965 355.154 253.965 354.107C253.965 353.06 258.724 352.203 264.531 352.203C270.338 352.203 275.097 353.06 275.097 354.107Z" fill="white"/>
<path d="M274.432 354.107C274.432 354.964 270.339 355.725 265.198 355.725C260.153 355.725 255.965 354.964 255.965 354.107C255.965 353.25 260.058 352.489 265.198 352.489C270.339 352.489 274.432 353.25 274.432 354.107Z" fill="#FF987A"/>
<path d="M274.43 354.107V354.202C273.098 353.631 269.766 353.155 265.863 353.155C261.008 353.155 257.106 353.821 256.725 354.678C256.344 354.488 256.059 354.297 256.059 354.107C256.059 353.25 260.152 352.489 265.292 352.489C270.337 352.489 274.43 353.25 274.43 354.107Z" fill="#EF7154"/>
<path d="M255.297 359.533H253.012C252.06 359.533 251.299 358.771 251.299 357.819C251.299 356.867 252.06 356.106 253.012 356.106H254.059C253.964 355.725 253.964 355.344 253.869 355.059H252.917C251.394 355.059 250.156 356.296 250.156 357.819C250.156 359.342 251.394 360.58 252.917 360.58H255.963C255.772 360.294 255.487 359.913 255.297 359.533Z" fill="white"/>
<path d="M264.15 351.727C263.864 351.727 263.674 351.537 263.674 351.251V348.776C263.674 348.015 263.008 347.348 262.246 347.348H261.009C259.676 347.348 258.629 346.301 258.629 344.969V344.493C258.629 344.207 258.819 344.017 259.105 344.017C259.39 344.017 259.581 344.207 259.581 344.493V345.064C259.581 345.825 260.247 346.492 261.009 346.492H262.246C263.579 346.492 264.626 347.539 264.626 348.871V351.346C264.626 351.441 264.436 351.727 264.15 351.727ZM266.625 351.727C266.339 351.727 266.149 351.537 266.149 351.251V350.299C266.149 350.014 266.339 349.823 266.625 349.823C266.91 349.823 267.101 350.014 267.101 350.299V351.251C267.101 351.441 266.91 351.727 266.625 351.727ZM266.625 349.252C266.339 349.252 266.149 349.062 266.149 348.776V345.73C266.149 345.445 266.339 345.254 266.625 345.254C266.91 345.254 267.101 345.445 267.101 345.73V348.776C267.101 349.062 266.91 349.252 266.625 349.252Z" fill="#FF987A"/>
<path d="M261.673 351.727C261.388 351.727 261.197 351.537 261.197 351.251V350.394C261.197 349.918 260.816 349.538 260.341 349.538H259.008C257.961 349.538 257.199 348.681 257.199 347.729V347.158C257.199 346.872 257.39 346.682 257.675 346.682C257.961 346.682 258.151 346.872 258.151 347.158V347.729C258.151 348.205 258.532 348.586 259.008 348.586H260.341C261.388 348.586 262.149 349.442 262.149 350.394V351.251C262.149 351.441 261.864 351.727 261.673 351.727ZM269.574 351.727C269.288 351.727 269.098 351.537 269.098 351.251V350.394C269.098 349.918 268.717 349.538 268.241 349.538C267.956 349.538 267.765 349.347 267.765 349.062C267.765 348.776 267.956 348.586 268.241 348.586C269.288 348.586 270.05 349.442 270.05 350.394V351.251C270.05 351.441 269.859 351.727 269.574 351.727Z" fill="#FF987A"/>
<path d="M207.703 356.677C207.703 357.534 213.415 358.295 220.459 358.295C227.503 358.295 233.214 357.534 233.214 356.677C233.214 355.82 227.503 355.059 220.459 355.059C213.415 355.059 207.703 355.82 207.703 356.677Z" fill="#F9F3FF"/>
<path d="M222.93 356.963H218.741C216.742 356.963 214.934 356.011 213.887 354.392C211.697 351.061 210.27 346.777 210.27 343.541C210.27 344.588 215.029 345.445 220.836 345.445C226.737 345.445 231.402 344.588 231.402 343.541C231.402 346.777 229.974 351.156 227.784 354.392C226.737 356.011 224.929 356.963 222.93 356.963Z" fill="white"/>
<path d="M210.27 343.541C210.27 344.588 215.029 345.445 220.836 345.445C226.642 345.445 231.402 344.588 231.402 343.541C231.402 342.494 226.642 341.637 220.836 341.637C214.934 341.637 210.27 342.494 210.27 343.541Z" fill="white"/>
<path d="M210.844 343.541C210.844 344.397 214.937 345.159 220.077 345.159C225.217 345.159 229.311 344.397 229.311 343.541C229.311 342.684 225.217 341.922 220.077 341.922C214.937 341.922 210.844 342.589 210.844 343.541Z" fill="#FF987A"/>
<path d="M210.844 343.541V343.636C212.176 343.065 215.508 342.589 219.411 342.589C224.266 342.589 228.168 343.255 228.549 344.112C228.93 343.921 229.215 343.731 229.215 343.541C229.215 342.684 225.122 341.922 219.982 341.922C214.937 341.922 210.844 342.589 210.844 343.541Z" fill="#EF7154"/>
<path d="M229.309 350.014H232.355C233.878 350.014 235.115 348.776 235.115 347.253C235.115 345.73 233.878 344.493 232.355 344.493H231.403C231.403 344.873 231.308 345.254 231.212 345.54H232.259C233.211 345.54 233.973 346.301 233.973 347.253C233.973 348.205 233.211 348.967 232.259 348.967H229.975C229.785 349.347 229.499 349.728 229.309 350.014Z" fill="white"/>
<path d="M221.218 341.066C220.932 341.066 220.742 340.875 220.742 340.59V338.115C220.742 336.782 221.789 335.735 223.122 335.735H224.359C225.121 335.735 225.787 335.069 225.787 334.307V333.736C225.787 333.451 225.977 333.26 226.263 333.26C226.549 333.26 226.739 333.451 226.739 333.736V334.307C226.739 335.64 225.692 336.687 224.359 336.687H223.027C222.265 336.687 221.599 337.353 221.599 338.115V340.59C221.694 340.875 221.408 341.066 221.218 341.066ZM218.648 341.066C218.362 341.066 218.172 340.875 218.172 340.59V339.638C218.172 339.352 218.362 339.162 218.648 339.162C218.933 339.162 219.124 339.352 219.124 339.638V340.59C219.124 340.875 218.933 341.066 218.648 341.066ZM218.648 338.686C218.362 338.686 218.172 338.496 218.172 338.21V335.164C218.172 334.878 218.362 334.688 218.648 334.688C218.933 334.688 219.124 334.878 219.124 335.164V338.21C219.124 338.4 218.933 338.686 218.648 338.686Z" fill="#FF987A"/>
<path d="M223.691 341.066C223.405 341.066 223.215 340.875 223.215 340.59V339.733C223.215 338.686 224.071 337.924 225.023 337.924H226.356C226.832 337.924 227.213 337.544 227.213 337.068V336.497C227.213 336.211 227.403 336.021 227.689 336.021C227.974 336.021 228.165 336.211 228.165 336.497V337.068C228.165 338.115 227.308 338.876 226.356 338.876H225.023C224.547 338.876 224.167 339.257 224.167 339.733V340.59C224.167 340.875 223.976 341.066 223.691 341.066ZM215.695 341.066C215.409 341.066 215.219 340.875 215.219 340.59V339.733C215.219 338.686 216.075 337.924 217.027 337.924C217.313 337.924 217.503 338.115 217.503 338.4C217.503 338.686 217.313 338.876 217.027 338.876C216.551 338.876 216.171 339.257 216.171 339.733V340.59C216.171 340.875 215.98 341.066 215.695 341.066Z" fill="#FF987A"/>
<path d="M372.663 292.805L376.185 299.944L384.086 301.086C386.752 301.467 387.894 304.798 385.895 306.702L380.183 312.318L381.516 320.219C381.992 322.885 379.136 324.979 376.757 323.646L369.713 319.934L362.669 323.646C360.289 324.884 357.433 322.885 357.909 320.219L359.242 312.318L353.53 306.702C351.626 304.798 352.674 301.467 355.339 301.086L363.24 299.944L366.762 292.805C367.999 290.33 371.426 290.33 372.663 292.805Z" fill="#29B2EF"/>
<path d="M170.39 195.711C170.294 195.711 170.294 195.711 170.199 195.615C170.104 195.52 170.104 195.33 170.199 195.235C179.528 187.62 178.1 177.529 178.1 177.434L166.868 150.781C166.772 150.686 166.868 150.495 166.963 150.495C167.058 150.4 167.248 150.495 167.248 150.591L178.481 177.339C178.481 177.529 180.004 187.905 170.39 195.615C170.58 195.711 170.485 195.711 170.39 195.711ZM293.661 219.223C293.565 219.223 293.47 219.223 293.47 219.127C285.855 207.324 274.908 206.086 274.813 206.086C274.718 206.086 274.623 205.991 274.623 205.801C274.623 205.706 274.718 205.61 274.908 205.61C275.003 205.61 286.141 206.848 293.851 218.842C293.946 218.937 293.851 219.127 293.756 219.127C293.756 219.223 293.661 219.223 293.661 219.223ZM277.193 172.199C277.002 172.199 276.907 172.104 277.002 171.913C278.43 160.395 282.619 154.684 282.714 154.589C282.809 154.493 282.904 154.493 282.999 154.493C283.095 154.589 283.095 154.684 283.095 154.779C283.095 154.874 278.906 160.49 277.478 171.913C277.478 172.199 277.383 172.199 277.193 172.199ZM201.993 178.386C201.802 178.386 201.707 178.291 201.802 178.101C203.04 158.967 211.416 151.447 211.512 151.352C211.607 151.257 211.797 151.257 211.892 151.352C211.988 151.447 211.988 151.638 211.892 151.733C211.797 151.828 203.611 159.158 202.373 178.101C202.278 178.291 202.183 178.386 201.993 178.386Z" fill="#CE1938"/>
<path d="M133.17 310.986C133.17 317.363 121.271 322.504 106.516 322.504C91.762 322.504 79.8633 317.363 79.8633 310.986C79.8633 304.608 91.762 299.468 106.516 299.468C121.271 299.373 133.17 304.608 133.17 310.986Z" fill="#F2A41C"/>
</svg>
