<svg width="470" height="298" viewBox="0 0 470 298" fill="none" xmlns="http://www.w3.org/2000/svg">
<path d="M16.905 264.548C1.52582 244.859 5.02469 216.438 24.7138 201.059L61.6111 172.241L117.291 243.523L80.3937 272.341C60.7045 287.736 32.2841 284.237 16.905 264.548Z" fill="#58595B"/>
<path d="M271.336 211.635C244.506 234.012 210.726 242.06 178.997 236.843C156.716 233.185 133.925 238.799 116.129 252.7L109.751 257.677C105.712 260.826 99.8908 260.111 96.7259 256.071L44.4177 189.115C41.2687 185.076 41.9844 179.255 46.024 176.09L51.8448 171.573C69.6096 157.689 81.2513 137.141 82.9689 114.653C85.3386 83.5448 100.304 53.5181 126.832 32.7952C178.122 -7.26696 252.728 3.05473 291.073 56.4126C325.982 104.999 317.282 173.307 271.336 211.635Z" fill="#FFA726"/>
<path d="M178.998 236.843C156.717 233.185 133.926 238.799 116.13 252.699L109.752 257.677C105.713 260.826 99.8917 260.11 96.7427 256.071L89.9199 247.339C93.0848 251.379 98.8898 252.095 102.929 248.946L109.307 243.968C127.103 230.068 149.894 224.454 172.175 228.111C203.888 233.328 237.668 225.281 264.498 202.904C310.254 164.734 319.08 96.8559 284.68 48.2852C286.907 50.8616 289.022 53.5653 291.058 56.3803C325.983 104.983 317.283 173.306 271.321 211.619C244.507 234.012 210.727 242.059 178.998 236.843Z" fill="#F7991C"/>
<path d="M80.7584 270.48L26.6212 201.154C24.2038 198.053 24.7446 193.568 27.8458 191.151C30.9471 188.733 35.432 189.274 37.8494 192.375L92.0025 261.701C94.4199 264.802 93.8792 269.287 90.7779 271.704C87.6607 274.122 83.1758 273.581 80.7584 270.48ZM63.8525 283.68L9.6994 214.37C7.28199 211.269 7.82272 206.784 10.924 204.367C14.0253 201.949 18.5102 202.49 20.9276 205.591L75.0807 274.917C77.4981 278.018 76.9573 282.503 73.8561 284.92C70.7548 287.338 66.2699 286.781 63.8525 283.68Z" fill="#BDBDBD"/>
<path d="M79.01 233.375L76.863 230.624L159.118 166.372L146.586 150.325L64.3306 214.577L62.1836 211.825L144.439 147.573L133.64 133.753C126.499 124.624 128.137 111.376 137.266 104.251L137.887 103.758C147.015 96.6168 160.263 98.2549 167.388 107.384C174.513 116.513 172.891 129.761 163.762 136.886L149.322 148.162L161.854 164.209L176.295 152.933C185.424 145.792 198.672 147.43 205.797 156.559C212.937 165.688 211.299 178.936 202.17 186.061L201.55 186.554C192.421 193.695 179.173 192.057 172.048 182.928L161.25 169.107L79.01 233.375ZM164.033 166.976L174.832 180.797C180.78 188.415 191.817 189.766 199.435 183.818L200.055 183.325C207.673 177.377 209.025 166.34 203.077 158.722C197.129 151.104 186.092 149.752 178.474 155.7L164.033 166.976ZM164.669 109.531C158.721 101.913 147.683 100.561 140.065 106.509L139.445 107.002C131.827 112.95 130.475 123.988 136.423 131.606L147.222 145.426L161.663 134.15C169.265 128.202 170.617 117.149 164.669 109.531Z" fill="#414042"/>
<path d="M273.324 61.9785L269.428 63.8074C262.398 67.1155 254.176 66.2885 247.814 61.8194C217.661 40.6353 181.606 32.3175 137.695 41.1283C180.906 13.7576 226.137 15.014 274.136 55.601C276.283 57.3822 275.853 60.7857 273.324 61.9785Z" fill="#FFB24D"/>
<path d="M391.588 90.7487C395.802 97.7147 399.524 96.9831 402.768 88.9357L402.896 80.8564L392.16 81.6994L391.588 90.7487Z" fill="#F7C19B"/>
<path d="M386.021 66.0653C386.021 66.0653 382.172 76.9118 385.687 83.1303C387.5 86.3429 391.492 87.6311 394.895 86.1838C397.488 85.0864 401.321 82.9553 404.326 79.202C404.581 78.8839 403.865 69.0552 403.865 69.0552L401.543 65.6995L392.621 64.459L386.021 66.0653Z" fill="#F7C19B"/>
<path d="M395.42 75.0515L396.788 71.2504C396.788 71.2504 395.611 71.6957 394.196 71.9184C392.128 72.2206 390.188 70.7733 389.886 68.7058L389.806 68.1969C389.806 68.1969 380.677 67.6879 384.097 59.5451C384.526 58.5113 385.417 57.732 386.482 57.414C388.343 56.8732 391.619 56.6506 396.009 59.227C397.281 59.9745 398.903 59.7678 400.287 59.2429C401.782 58.6863 404.072 58.7817 405.599 63.203C405.869 63.9823 406.251 64.698 406.76 65.35C408.207 67.2267 412.453 74.1768 403.213 82.3832C402.959 82.6059 402.545 82.415 402.561 82.0811C402.657 80.3316 402.72 76.5146 401.607 74.5107C400.923 73.2702 399.189 73.143 398.315 74.2722L397.011 75.9421C396.708 76.3397 396.136 76.4192 395.738 76.133C395.42 75.8785 395.277 75.4491 395.42 75.0515Z" fill="#333333"/>
<path d="M455.867 280.338L463.762 274.536L454.909 262.49L447.014 268.291L455.867 280.338Z" fill="#F7C19B"/>
<path d="M464.332 277.365L466.606 278.208L467.274 278.526C467.656 278.717 467.99 279.003 468.212 279.369L469.087 280.801C469.31 281.15 469.182 281.612 468.833 281.834L467.242 282.804L467.004 282.407L466.145 282.932L466.383 283.329L464.507 284.522L464.3 284.188L463.409 284.729L463.632 285.095L461.501 286.383L459.561 285.651C458.161 287.178 457 288.705 456.141 290.263C456.109 290.343 453.962 291.663 453.915 291.615L453.724 291.297L452.881 291.806L453.072 292.124C452.404 292.601 451.72 293.015 451.02 293.381L450.813 293.047L449.986 293.54L450.145 293.81C449.43 294.239 448.746 294.557 448.094 294.732L447.935 294.462L447.044 294.86L447.187 295.098C446.662 295.321 446.138 295.464 445.613 295.559L445.486 295.257L444.579 295.4L444.595 295.75C443.609 295.909 442.67 296.005 441.828 296.021C441.828 296.021 441.032 295.003 441.669 294.542L449.764 288.323L459.974 280.021L464.332 277.365Z" fill="#333333"/>
<path d="M465.478 275.6C465.796 276.125 466.067 276.697 466.273 277.302L466.591 278.224C463.22 280.196 460.262 282.327 457.908 284.713C457.415 285.206 456.954 285.715 456.524 286.24C452.819 290.709 447.809 293.412 441.654 294.557L441.177 293.778C440.827 293.206 440.922 292.458 441.431 291.997L444.692 288.975C445.264 288.434 445.869 287.926 446.457 287.401C448.111 285.922 449.383 284.14 450.322 282.073C450.369 281.962 450.417 281.85 450.481 281.723C450.513 281.659 450.544 281.596 450.56 281.516C451.149 282.264 452.548 282.789 452.612 282.82C452.66 282.836 452.691 282.82 452.739 282.804C452.755 282.789 452.771 282.773 452.771 282.757C452.803 282.693 452.771 282.63 452.691 282.598C452.198 282.407 451.053 281.866 450.656 281.262C450.672 281.214 450.703 281.166 450.719 281.119C451.26 280.546 452.516 280.133 453.057 280.005C453.121 279.989 453.169 279.926 453.153 279.862C453.137 279.799 453.073 279.751 453.009 279.767C452.93 279.783 451.705 280.085 450.91 280.657C450.974 280.482 451.037 280.292 451.101 280.101C451.133 279.989 451.181 279.862 451.212 279.751C451.292 279.496 451.371 279.242 451.451 278.972C451.483 278.86 451.515 278.765 451.53 278.654C451.626 278.256 451.721 277.874 451.817 277.461C452.357 277.19 453.264 277.143 453.646 277.159C453.709 277.159 453.773 277.111 453.773 277.047C453.773 276.984 453.725 276.92 453.662 276.92C453.598 276.92 452.612 276.888 451.88 277.174C451.912 277.015 451.944 276.84 451.976 276.681C452.023 276.411 452.182 276.172 452.405 276.013L460.866 270.431C461.168 270.224 461.598 270.336 461.773 270.654L462.361 271.688C462.79 272.451 463.347 273.151 463.983 273.771C464.556 274.296 465.065 274.916 465.478 275.6Z" fill="#58595B"/>
<path d="M452.769 282.741C452.769 282.757 452.753 282.789 452.737 282.789C452.706 282.821 452.658 282.821 452.61 282.805C452.531 282.773 451.147 282.248 450.559 281.501C450.59 281.421 450.638 281.326 450.67 281.23C451.052 281.835 452.213 282.391 452.706 282.566C452.753 282.614 452.801 282.677 452.769 282.741ZM453.151 279.847C453.167 279.91 453.119 279.974 453.056 279.99C452.515 280.117 451.258 280.53 450.718 281.103C450.781 280.944 450.829 280.785 450.893 280.642C451.688 280.069 452.912 279.783 452.992 279.751C453.071 279.735 453.135 279.783 453.151 279.847Z" fill="#231F20"/>
<path d="M453.773 277.016C453.773 277.08 453.709 277.143 453.645 277.127C453.248 277.111 452.357 277.159 451.816 277.43C451.832 277.334 451.864 277.239 451.88 277.143C452.612 276.857 453.598 276.889 453.661 276.889C453.725 276.905 453.773 276.952 453.773 277.016Z" fill="#303030"/>
<path d="M465.478 275.6C465.796 276.125 466.066 276.698 466.273 277.302L466.591 278.224C463.219 280.196 460.261 282.328 457.907 284.713L451.832 284.363C451.482 284.347 451.228 284.029 451.275 283.679L452.404 275.998L460.865 270.416C461.168 270.209 461.597 270.32 461.772 270.638L462.36 271.672C462.79 272.435 463.346 273.135 463.983 273.755C464.555 274.296 465.064 274.916 465.478 275.6Z" fill="#414042"/>
<path d="M452.803 276.284L452.691 276.268L452.707 276.173L452.787 276.125L452.85 276.22L452.819 276.236L452.803 276.284Z" fill="#58595B"/>
<path d="M466.065 277.891L465.969 277.923L465.922 277.78L466.017 277.748L466.065 277.891ZM465.969 277.605L465.874 277.637L465.826 277.493L465.922 277.462L465.969 277.605ZM465.874 277.334L465.778 277.366C465.763 277.318 465.747 277.271 465.731 277.223L465.826 277.191C465.842 277.239 465.858 277.287 465.874 277.334ZM465.778 277.064L465.683 277.112C465.667 277.064 465.651 277.016 465.635 276.985L465.731 276.937C465.747 276.969 465.763 277.016 465.778 277.064ZM465.667 276.794L465.572 276.841C465.556 276.794 465.54 276.746 465.508 276.714L465.603 276.666C465.619 276.698 465.635 276.746 465.667 276.794ZM465.54 276.523L465.444 276.571C465.429 276.523 465.397 276.491 465.381 276.444L465.476 276.396C465.492 276.428 465.524 276.476 465.54 276.523ZM465.413 276.253L465.317 276.301C465.301 276.253 465.269 276.221 465.254 276.173L465.349 276.126C465.365 276.173 465.381 276.205 465.413 276.253ZM465.269 275.998L465.174 276.046C465.158 275.998 465.126 275.967 465.095 275.919L465.19 275.871C465.222 275.919 465.238 275.951 465.269 275.998ZM465.031 275.808C464.999 275.76 464.983 275.728 464.951 275.68L465.047 275.617C465.079 275.664 465.095 275.696 465.126 275.744L465.031 275.808ZM464.872 275.553C464.84 275.505 464.824 275.474 464.792 275.426L464.888 275.362C464.92 275.41 464.936 275.442 464.967 275.49L464.872 275.553ZM464.713 275.315C464.681 275.283 464.649 275.235 464.633 275.203L464.729 275.14C464.761 275.171 464.792 275.219 464.808 275.251L464.713 275.315ZM464.538 275.076C464.506 275.044 464.474 274.997 464.442 274.965L464.522 274.901C464.554 274.933 464.586 274.981 464.617 275.012L464.538 275.076ZM464.347 274.853C464.315 274.822 464.283 274.774 464.252 274.742L464.331 274.678C464.363 274.71 464.395 274.758 464.427 274.79L464.347 274.853ZM464.156 274.631C464.124 274.599 464.093 274.551 464.061 274.519L464.14 274.44C464.172 274.472 464.204 274.519 464.236 274.551L464.156 274.631ZM463.965 274.424C463.934 274.392 463.902 274.36 463.87 274.313L463.949 274.233C463.981 274.265 464.013 274.297 464.045 274.344L463.965 274.424ZM463.759 274.217C463.727 274.185 463.695 274.154 463.647 274.122L463.727 274.042C463.759 274.074 463.79 274.106 463.838 274.138L463.759 274.217ZM463.552 274.01C463.52 273.979 463.488 273.947 463.441 273.915L463.52 273.836C463.552 273.867 463.584 273.899 463.631 273.931L463.552 274.01ZM463.345 273.804C463.313 273.772 463.282 273.74 463.25 273.692L463.329 273.613C463.361 273.645 463.393 273.676 463.425 273.724L463.345 273.804ZM463.138 273.581C463.107 273.549 463.075 273.502 463.043 273.47L463.122 273.39C463.154 273.422 463.186 273.47 463.218 273.502L463.138 273.581ZM462.947 273.358C462.916 273.327 462.884 273.279 462.852 273.247L462.932 273.183C462.963 273.215 462.995 273.263 463.027 273.295L462.947 273.358ZM462.757 273.136C462.725 273.104 462.693 273.056 462.661 273.024L462.741 272.961C462.773 272.993 462.804 273.04 462.836 273.072L462.757 273.136ZM462.582 272.897C462.55 272.865 462.518 272.818 462.502 272.786L462.598 272.722C462.629 272.754 462.661 272.802 462.677 272.834L462.582 272.897ZM462.407 272.659C462.375 272.611 462.359 272.579 462.327 272.531L462.423 272.468C462.455 272.515 462.47 272.547 462.502 272.595L462.407 272.659ZM462.248 272.42C462.216 272.372 462.2 272.341 462.168 272.293L462.264 272.229C462.295 272.277 462.311 272.309 462.343 272.356L462.248 272.42ZM462.184 272.118L462.089 272.182C462.057 272.134 462.041 272.102 462.009 272.054L462.105 272.007C462.136 272.038 462.168 272.07 462.184 272.118ZM462.041 271.863L461.946 271.911L461.866 271.784L461.961 271.736L462.041 271.863ZM461.898 271.609L461.802 271.657L461.723 271.529L461.818 271.482L461.898 271.609ZM461.755 271.354L461.659 271.402L461.58 271.275L461.675 271.227L461.755 271.354ZM461.612 271.1L461.516 271.148L461.437 271.021L461.532 270.973L461.612 271.1ZM452.976 276.142L452.912 276.046L453.039 275.967L453.103 276.062L452.976 276.142ZM453.214 275.967L453.151 275.871L453.278 275.792L453.342 275.887L453.214 275.967ZM453.469 275.808L453.405 275.712L453.532 275.633L453.596 275.728L453.469 275.808ZM453.707 275.649L453.644 275.553L453.771 275.474L453.835 275.569L453.707 275.649ZM453.946 275.49L453.882 275.394L454.009 275.315L454.073 275.41L453.946 275.49ZM454.2 275.33L454.137 275.235L454.264 275.156L454.328 275.251L454.2 275.33ZM454.439 275.171L454.375 275.076L454.503 274.997L454.566 275.092L454.439 275.171ZM454.677 275.012L454.614 274.917L454.741 274.837L454.805 274.933L454.677 275.012ZM454.932 274.837L454.868 274.742L454.996 274.663L455.059 274.758L454.932 274.837ZM455.186 274.678L455.123 274.599L455.25 274.519L455.314 274.615L455.186 274.678ZM461.373 270.909C461.341 270.877 461.309 270.846 461.278 270.83L461.325 270.734C461.373 270.766 461.421 270.798 461.453 270.846L461.373 270.909ZM455.425 274.519L455.361 274.424L455.489 274.344L455.552 274.44L455.425 274.519ZM455.664 274.36L455.6 274.265L455.727 274.185L455.791 274.281L455.664 274.36ZM455.918 274.185L455.854 274.106L455.982 274.026L456.045 274.122L455.918 274.185ZM456.157 274.026L456.093 273.947L456.22 273.867L456.284 273.963L456.157 274.026ZM456.395 273.867L456.331 273.788L456.459 273.708L456.522 273.804L456.395 273.867ZM456.634 273.708L456.57 273.613L456.697 273.533L456.761 273.629L456.634 273.708ZM456.888 273.549L456.824 273.454L456.952 273.374L457.015 273.47L456.888 273.549ZM457.127 273.39L457.063 273.295L457.19 273.215L457.254 273.311L457.127 273.39ZM457.365 273.231L457.302 273.136L457.429 273.056L457.492 273.152L457.365 273.231ZM457.62 273.072L457.556 272.977L457.683 272.897L457.747 272.993L457.62 273.072ZM457.858 272.913L457.795 272.818L457.922 272.738L457.985 272.834L457.858 272.913ZM458.113 272.754L458.049 272.659L458.176 272.579L458.24 272.675L458.113 272.754ZM458.351 272.595L458.288 272.5L458.415 272.42L458.479 272.515L458.351 272.595ZM458.59 272.42L458.526 272.325L458.653 272.245L458.717 272.341L458.59 272.42ZM458.844 272.261L458.781 272.166L458.908 272.086L458.972 272.182L458.844 272.261ZM459.083 272.102L459.019 272.007L459.146 271.927L459.21 272.022L459.083 272.102ZM459.321 271.943L459.258 271.848L459.385 271.768L459.449 271.863L459.321 271.943ZM459.576 271.784L459.512 271.688L459.64 271.609L459.703 271.704L459.576 271.784ZM459.814 271.625L459.751 271.529L459.878 271.45L459.942 271.545L459.814 271.625ZM461.15 270.798C461.103 270.798 461.071 270.798 461.023 270.814L460.975 270.718C461.023 270.702 461.087 270.687 461.134 270.687L461.15 270.798ZM460.069 271.466L460.005 271.37L460.133 271.291L460.196 271.386L460.069 271.466ZM460.307 271.291L460.244 271.195L460.371 271.116L460.435 271.211L460.307 271.291ZM460.546 271.132L460.482 271.036L460.61 270.957L460.673 271.052L460.546 271.132ZM460.8 270.973L460.737 270.877L460.864 270.798L460.928 270.893L460.8 270.973Z" fill="#58595B"/>
<path d="M466.161 278.113L466.05 278.177L466.002 278.081L466.018 278.066V278.05L466.113 278.002L466.161 278.113Z" fill="#58595B"/>
<path d="M457.986 284.189L457.906 284.109L458.002 284.014L458.081 284.093L457.986 284.189ZM458.193 283.998L458.113 283.918L458.224 283.823L458.304 283.902L458.193 283.998ZM458.399 283.791L458.32 283.712L458.431 283.616L458.511 283.696L458.399 283.791ZM458.606 283.6L458.527 283.521L458.638 283.425L458.717 283.505L458.606 283.6ZM458.829 283.409L458.749 283.33L458.86 283.235L458.94 283.314L458.829 283.409ZM459.035 283.203L458.956 283.123L459.067 283.028L459.147 283.107L459.035 283.203ZM459.242 283.012L459.163 282.932L459.274 282.837L459.354 282.916L459.242 283.012ZM459.465 282.821L459.401 282.741L459.513 282.646L459.576 282.726L459.465 282.821ZM459.687 282.63L459.624 282.551L459.735 282.455L459.799 282.535L459.687 282.63ZM459.91 282.455L459.847 282.376L459.958 282.28L460.021 282.36L459.91 282.455ZM460.133 282.264L460.069 282.185L460.181 282.089L460.244 282.169L460.133 282.264ZM460.355 282.089L460.292 282.01L460.403 281.914L460.467 281.994L460.355 282.089ZM460.578 281.899L460.515 281.819L460.626 281.724L460.689 281.803L460.578 281.899ZM460.801 281.724L460.737 281.644L460.848 281.549L460.912 281.628L460.801 281.724ZM461.023 281.549L460.96 281.469L461.071 281.374L461.135 281.453L461.023 281.549ZM461.262 281.374L461.198 281.294L461.31 281.215L461.373 281.294L461.262 281.374ZM461.485 281.199L461.421 281.119L461.532 281.04L461.596 281.119L461.485 281.199ZM461.723 281.024L461.66 280.928L461.771 280.849L461.835 280.944L461.723 281.024ZM461.946 280.865L461.882 280.769L461.994 280.69L462.057 280.785L461.946 280.865ZM462.184 280.69L462.121 280.594L462.232 280.515L462.296 280.61L462.184 280.69ZM462.423 280.515L462.359 280.419L462.471 280.34L462.534 280.435L462.423 280.515ZM462.646 280.356L462.582 280.26L462.693 280.181L462.757 280.276L462.646 280.356ZM462.884 280.197L462.821 280.101L462.932 280.022L462.996 280.117L462.884 280.197ZM463.123 280.022L463.059 279.926L463.186 279.847L463.25 279.942L463.123 280.022ZM463.361 279.863L463.298 279.767L463.425 279.688L463.489 279.783L463.361 279.863ZM463.6 279.704L463.536 279.608L463.663 279.529L463.727 279.624L463.6 279.704ZM463.854 279.545L463.791 279.449L463.918 279.37L463.982 279.465L463.854 279.545ZM464.093 279.386L464.029 279.29L464.157 279.211L464.22 279.306L464.093 279.386ZM464.331 279.243L464.268 279.147L464.395 279.068L464.459 279.163L464.331 279.243ZM464.57 279.084L464.506 278.988L464.634 278.909L464.697 279.004L464.57 279.084ZM464.824 278.925L464.761 278.829L464.888 278.75L464.952 278.845L464.824 278.925ZM465.922 278.257L465.795 278.336L465.731 278.241L465.858 278.161L465.922 278.257ZM465.063 278.781L464.999 278.686L465.127 278.606L465.19 278.702L465.063 278.781ZM465.683 278.4L465.556 278.479L465.492 278.384L465.62 278.304L465.683 278.4ZM465.302 278.622L465.238 278.527L465.365 278.447L465.429 278.543L465.302 278.622Z" fill="#58595B"/>
<path d="M457.812 284.364H457.717L457.733 284.253H457.78L457.812 284.221L457.892 284.3L457.812 284.364Z" fill="#58595B"/>
<path d="M457.573 284.348L457.43 284.332V284.221L457.573 284.237V284.348ZM457.287 284.332L457.144 284.316V284.205L457.287 284.221V284.332ZM457.001 284.316L456.857 284.301V284.189L457.001 284.205V284.316ZM456.714 284.301L456.571 284.285V284.173L456.714 284.189V284.301ZM456.428 284.285L456.285 284.269V284.157L456.428 284.173V284.285ZM456.142 284.269L455.999 284.253V284.141L456.142 284.157V284.269ZM455.855 284.253L455.712 284.237V284.126L455.855 284.141V284.253ZM455.569 284.237L455.426 284.221V284.11L455.569 284.126V284.237ZM455.267 284.221L455.124 284.205V284.094L455.267 284.11V284.221ZM454.981 284.205L454.838 284.189V284.078L454.981 284.094V284.205ZM454.694 284.189L454.551 284.173V284.062L454.694 284.078V284.189ZM454.408 284.173L454.265 284.157V284.046L454.408 284.062V284.173ZM454.122 284.157L453.979 284.141V284.03L454.122 284.046V284.157ZM453.836 284.141L453.693 284.126V284.014L453.836 284.03V284.141ZM453.549 284.126L453.406 284.11V283.998L453.549 284.014V284.126ZM453.263 284.094L453.12 284.078V283.967L453.263 283.982V284.094ZM452.977 284.078L452.834 284.062V283.951L452.977 283.967V284.078ZM452.691 284.062L452.547 284.046V283.935L452.691 283.951V284.062ZM452.388 284.046L452.245 284.03V283.919L452.388 283.935V284.046ZM452.102 284.03L451.959 284.014V283.903L452.102 283.919V284.03ZM451.8 283.982C451.768 283.967 451.72 283.935 451.705 283.903C451.705 283.887 451.689 283.887 451.689 283.871L451.784 283.807L451.8 283.823C451.816 283.855 451.848 283.871 451.864 283.887L451.8 283.982ZM451.736 283.696L451.625 283.712C451.625 283.68 451.625 283.648 451.625 283.617L451.641 283.553L451.752 283.569L451.736 283.633C451.736 283.648 451.72 283.68 451.736 283.696ZM451.768 283.426L451.657 283.41L451.673 283.267L451.784 283.283L451.768 283.426ZM451.8 283.14L451.689 283.124L451.705 282.98L451.816 282.996L451.8 283.14ZM451.848 282.853L451.736 282.837L451.752 282.694L451.864 282.71L451.848 282.853ZM451.879 282.567L451.768 282.551L451.784 282.408L451.895 282.424L451.879 282.567ZM451.927 282.281L451.816 282.265L451.832 282.122L451.943 282.138L451.927 282.281ZM451.975 281.994L451.864 281.979L451.879 281.835L451.991 281.851L451.975 281.994ZM452.007 281.708L451.895 281.692L451.911 281.549L452.023 281.565L452.007 281.708ZM452.054 281.422L451.943 281.406L451.959 281.263L452.07 281.279L452.054 281.422ZM452.102 281.136L451.991 281.12L452.007 280.977L452.118 280.992L452.102 281.136ZM452.134 280.849L452.023 280.833L452.039 280.69L452.15 280.706L452.134 280.849ZM452.182 280.563L452.07 280.547L452.086 280.404L452.198 280.42L452.182 280.563ZM452.213 280.293L452.102 280.277L452.118 280.134L452.229 280.15L452.213 280.293ZM452.261 280.006L452.15 279.991L452.166 279.847L452.277 279.863L452.261 280.006ZM452.309 279.72L452.198 279.704L452.213 279.561L452.325 279.577L452.309 279.72ZM452.341 279.434L452.229 279.418L452.245 279.275L452.357 279.291L452.341 279.434ZM452.388 279.148L452.277 279.132L452.293 278.989L452.404 279.004L452.388 279.148ZM452.436 278.861L452.325 278.845L452.341 278.702L452.452 278.718L452.436 278.861ZM452.468 278.575L452.357 278.559L452.372 278.416L452.484 278.432L452.468 278.575ZM452.516 278.289L452.404 278.273L452.42 278.13L452.532 278.146L452.516 278.289ZM452.547 278.003L452.436 277.987L452.452 277.843L452.563 277.859L452.547 278.003ZM452.595 277.716L452.484 277.7L452.5 277.557L452.611 277.573L452.595 277.716ZM452.643 277.43L452.532 277.414L452.547 277.271L452.659 277.287L452.643 277.43ZM452.675 277.144L452.563 277.128L452.579 276.985L452.691 277.001L452.675 277.144ZM452.722 276.857L452.611 276.842L452.627 276.698L452.738 276.714L452.722 276.857ZM452.77 276.571L452.659 276.555L452.675 276.412L452.786 276.428L452.77 276.571Z" fill="#58595B"/>
<path d="M453.04 283.123C452.801 283.313 452.451 283.266 452.26 283.027C452.069 282.789 452.117 282.439 452.356 282.248C452.594 282.057 452.944 282.105 453.135 282.343C453.326 282.566 453.278 282.932 453.04 283.123ZM452.451 282.375C452.276 282.502 452.26 282.757 452.388 282.916C452.515 283.091 452.769 283.107 452.928 282.98C453.103 282.852 453.119 282.598 452.992 282.439C452.865 282.264 452.61 282.248 452.451 282.375ZM453.533 280.324C453.294 280.514 452.944 280.467 452.753 280.228C452.563 279.99 452.61 279.64 452.849 279.449C453.087 279.258 453.437 279.306 453.628 279.544C453.819 279.783 453.787 280.133 453.533 280.324ZM452.96 279.592C452.801 279.719 452.769 279.974 452.896 280.133C453.024 280.292 453.278 280.324 453.437 280.196C453.612 280.069 453.628 279.815 453.501 279.656C453.358 279.481 453.119 279.449 452.96 279.592Z" fill="#E6E7E8"/>
<path d="M452.689 282.582C452.753 282.614 452.784 282.678 452.768 282.741C452.768 282.757 452.753 282.789 452.737 282.789C452.705 282.821 452.657 282.821 452.609 282.805C452.53 282.773 451.146 282.248 450.558 281.501C450.542 281.469 450.526 281.453 450.51 281.437C450.446 281.358 450.399 281.262 450.367 281.183C450.319 281.087 450.303 280.976 450.303 280.88C450.287 280.467 450.605 280.069 451.226 279.735C451.194 279.863 451.146 279.974 451.114 280.085C450.733 280.34 450.542 280.594 450.558 280.88C450.558 280.896 450.558 280.928 450.558 280.944C450.574 281.024 450.606 281.119 450.653 281.199C450.653 281.214 450.669 281.23 450.685 281.246C451.051 281.866 452.196 282.407 452.689 282.582Z" fill="#231F20"/>
<path d="M453.15 279.847C453.166 279.91 453.119 279.974 453.055 279.99C452.514 280.117 451.258 280.53 450.717 281.103C450.685 281.135 450.654 281.167 450.622 281.198C450.558 281.278 450.51 281.357 450.479 281.437C450.463 281.469 450.463 281.501 450.447 281.548C450.431 281.596 450.431 281.66 450.447 281.707C450.399 281.819 450.351 281.93 450.288 282.057C450.192 281.866 450.176 281.691 450.208 281.501C450.224 281.389 450.272 281.278 450.335 281.182C450.383 281.103 450.447 281.023 450.526 280.944C450.622 280.833 450.749 280.737 450.892 280.642C451.687 280.069 452.912 279.783 452.991 279.751C453.071 279.735 453.135 279.783 453.15 279.847Z" fill="#231F20"/>
<path d="M453.948 277.493C453.678 277.652 453.344 277.572 453.185 277.302C453.026 277.031 453.105 276.697 453.376 276.538C453.646 276.379 453.98 276.459 454.139 276.729C454.282 276.984 454.203 277.334 453.948 277.493ZM453.439 276.697C453.264 276.809 453.201 277.047 453.312 277.222C453.423 277.397 453.662 277.461 453.837 277.35C454.012 277.238 454.076 277 453.964 276.825C453.869 276.634 453.63 276.586 453.439 276.697Z" fill="#E6E7E8"/>
<path d="M453.772 277.016C453.772 277.08 453.708 277.143 453.645 277.127C453.247 277.111 452.356 277.159 451.816 277.43C451.625 277.525 451.482 277.636 451.402 277.795C451.291 278.018 451.339 278.288 451.529 278.622C451.498 278.734 451.466 278.829 451.45 278.94C451.116 278.447 451.02 278.018 451.195 277.684C451.323 277.429 451.577 277.255 451.879 277.143C452.611 276.857 453.597 276.889 453.66 276.889C453.724 276.905 453.772 276.952 453.772 277.016Z" fill="#231F20"/>
<path d="M378.096 287.601L387.76 286.587L386.199 271.719L376.535 272.733L378.096 287.601Z" fill="#F7C19B"/>
<path d="M387.247 289.07L388.853 290.883L389.299 291.472C389.553 291.822 389.696 292.235 389.728 292.665L389.823 294.335C389.855 294.748 389.537 295.098 389.124 295.13L387.279 295.241L387.247 294.764L386.245 294.828L386.277 295.289L384.05 295.48L384.018 295.098L382.969 295.162L383.001 295.575L380.504 295.718L379.12 294.175C377.18 294.875 375.43 295.686 373.951 296.657C373.888 296.72 371.359 296.879 371.359 296.816L371.343 296.434L370.357 296.497L370.373 296.879C369.562 296.99 368.766 297.038 367.971 297.022L367.939 296.625L366.985 296.688L367.001 297.006C366.158 297.054 365.411 297.006 364.759 296.863L364.743 296.561L363.773 296.497L363.789 296.768C363.216 296.72 362.691 296.609 362.182 296.434L362.214 296.116L361.339 295.814L361.18 296.132C360.226 295.814 359.367 295.464 358.604 295.082C358.604 295.082 358.365 293.81 359.16 293.698L369.212 291.965L382.11 289.372L387.247 289.07Z" fill="#333333"/>
<path d="M389.091 288.037C389.123 288.657 389.107 289.294 389.012 289.914L388.869 290.884C384.972 291.059 381.346 291.568 378.165 292.586C377.497 292.792 376.861 293.031 376.241 293.285C370.881 295.528 365.188 295.576 359.208 293.715L359.144 292.808C359.096 292.14 359.542 291.52 360.194 291.345L364.488 290.2C365.251 289.993 366.015 289.818 366.778 289.628C368.925 289.087 370.897 288.101 372.678 286.717C372.774 286.638 372.869 286.558 372.965 286.479C373.028 286.431 373.076 286.383 373.14 286.335C373.315 287.274 374.301 288.387 374.348 288.451C374.38 288.482 374.428 288.498 374.46 288.482C374.476 288.482 374.507 288.467 374.523 288.451C374.571 288.403 374.571 288.323 374.539 288.276C374.189 287.878 373.426 286.876 373.362 286.145C373.41 286.113 373.442 286.081 373.49 286.049C374.237 285.795 375.541 286.017 376.082 286.145C376.145 286.16 376.209 286.129 376.225 286.049C376.241 285.986 376.209 285.922 376.13 285.906C376.05 285.89 374.825 285.588 373.855 285.715C373.998 285.588 374.142 285.461 374.285 285.318C374.38 285.238 374.46 285.143 374.555 285.063C374.746 284.872 374.937 284.681 375.128 284.491C375.207 284.411 375.287 284.331 375.35 284.252C375.621 283.95 375.891 283.648 376.161 283.33C376.782 283.345 377.577 283.711 377.927 283.918C377.99 283.95 378.054 283.934 378.086 283.87C378.118 283.807 378.102 283.743 378.038 283.711C377.99 283.679 377.116 283.186 376.352 283.107C376.464 282.98 376.559 282.852 376.67 282.709C376.845 282.487 377.084 282.343 377.37 282.328L387.453 281.326C387.819 281.294 388.137 281.58 388.153 281.946L388.185 283.139C388.217 284.029 388.376 284.904 388.662 285.731C388.885 286.463 389.044 287.242 389.091 288.037Z" fill="#58595B"/>
<path d="M374.522 288.434C374.506 288.45 374.491 288.466 374.459 288.466C374.411 288.466 374.379 288.466 374.347 288.434C374.3 288.371 373.314 287.257 373.139 286.319C373.218 286.256 373.282 286.192 373.361 286.128C373.425 286.844 374.188 287.862 374.538 288.259C374.57 288.323 374.57 288.403 374.522 288.434ZM376.208 286.049C376.192 286.112 376.129 286.16 376.065 286.144C375.524 286.001 374.236 285.778 373.473 286.049C373.6 285.937 373.727 285.826 373.854 285.715C374.824 285.588 376.049 285.89 376.129 285.906C376.192 285.922 376.224 285.985 376.208 286.049Z" fill="#231F20"/>
<path d="M378.071 283.839C378.039 283.902 377.96 283.918 377.912 283.887C377.578 283.696 376.767 283.314 376.146 283.298C376.21 283.219 376.274 283.139 376.337 283.06C377.117 283.139 377.975 283.632 378.023 283.664C378.087 283.712 378.103 283.791 378.071 283.839Z" fill="#303030"/>
<path d="M389.093 288.037C389.125 288.658 389.109 289.294 389.013 289.914L388.87 290.884C384.974 291.059 381.348 291.568 378.167 292.586L372.95 289.437C372.648 289.262 372.569 288.849 372.775 288.578L377.34 282.312L387.423 281.31C387.789 281.278 388.107 281.564 388.123 281.93L388.155 283.123C388.186 284.014 388.345 284.888 388.632 285.715C388.886 286.463 389.045 287.242 389.093 288.037Z" fill="#414042"/>
<path d="M377.562 282.741L377.467 282.677L377.53 282.598H377.626V282.709H377.594L377.562 282.741Z" fill="#58595B"/>
<path d="M388.55 290.344L388.439 290.328L388.455 290.185L388.566 290.201L388.55 290.344ZM388.598 290.042L388.487 290.026L388.503 289.883L388.614 289.899L388.598 290.042ZM388.646 289.756L388.535 289.74C388.535 289.692 388.55 289.644 388.55 289.597L388.662 289.612C388.662 289.66 388.646 289.708 388.646 289.756ZM388.678 289.469L388.566 289.453C388.566 289.406 388.582 289.358 388.582 289.31L388.694 289.326C388.694 289.374 388.678 289.422 388.678 289.469ZM388.71 289.167L388.598 289.151C388.598 289.103 388.598 289.056 388.614 289.008H388.725C388.71 289.072 388.71 289.119 388.71 289.167ZM388.725 288.881H388.614C388.614 288.833 388.614 288.785 388.614 288.738H388.725C388.725 288.785 388.725 288.833 388.725 288.881ZM388.725 288.595H388.614C388.614 288.547 388.614 288.499 388.614 288.451H388.725C388.725 288.483 388.725 288.531 388.725 288.595ZM388.725 288.292H388.614C388.614 288.245 388.614 288.197 388.614 288.149H388.725C388.725 288.197 388.725 288.245 388.725 288.292ZM388.598 288.006C388.598 287.958 388.598 287.911 388.582 287.863L388.694 287.847C388.694 287.895 388.694 287.942 388.71 287.99L388.598 288.006ZM388.582 287.72C388.582 287.672 388.566 287.624 388.566 287.577L388.678 287.561C388.678 287.609 388.694 287.656 388.694 287.704L388.582 287.72ZM388.55 287.434C388.55 287.386 388.535 287.338 388.535 287.29L388.646 287.275C388.646 287.322 388.662 287.37 388.662 287.418L388.55 287.434ZM388.503 287.147C388.487 287.1 388.487 287.052 388.471 287.004L388.582 286.988C388.598 287.036 388.598 287.084 388.614 287.131L388.503 287.147ZM388.439 286.861C388.423 286.813 388.423 286.766 388.407 286.718L388.519 286.686C388.535 286.734 388.535 286.781 388.55 286.829L388.439 286.861ZM388.376 286.575C388.36 286.527 388.36 286.479 388.344 286.432L388.455 286.4C388.471 286.448 388.487 286.495 388.487 286.543L388.376 286.575ZM388.312 286.288C388.296 286.241 388.28 286.193 388.264 286.145L388.376 286.114C388.391 286.161 388.407 286.209 388.423 286.257L388.312 286.288ZM388.232 286.018C388.217 285.97 388.201 285.923 388.185 285.875L388.28 285.843C388.296 285.891 388.312 285.939 388.328 285.986L388.232 286.018ZM388.137 285.732C388.121 285.684 388.105 285.636 388.089 285.589L388.201 285.557C388.216 285.605 388.232 285.652 388.248 285.7L388.137 285.732ZM388.042 285.461C388.026 285.414 388.01 285.366 387.994 285.318L388.105 285.287C388.121 285.334 388.137 285.382 388.153 285.43L388.042 285.461ZM387.962 285.175C387.946 285.127 387.93 285.08 387.93 285.032L388.042 285C388.057 285.048 388.057 285.096 388.073 285.143L387.962 285.175ZM387.898 284.889C387.883 284.841 387.883 284.794 387.867 284.746L387.978 284.73C387.994 284.778 387.994 284.825 388.01 284.873L387.898 284.889ZM387.835 284.603C387.819 284.555 387.819 284.507 387.803 284.46L387.914 284.444C387.93 284.491 387.93 284.539 387.946 284.587L387.835 284.603ZM387.787 284.3C387.787 284.253 387.771 284.205 387.771 284.157L387.882 284.141C387.882 284.189 387.898 284.237 387.898 284.285L387.787 284.3ZM387.755 284.014C387.755 283.966 387.739 283.919 387.739 283.871L387.851 283.855C387.851 283.903 387.867 283.951 387.867 283.998L387.755 284.014ZM387.723 283.728C387.723 283.68 387.708 283.633 387.708 283.585H387.819C387.819 283.633 387.819 283.68 387.835 283.728H387.723ZM387.803 283.426H387.692C387.692 283.378 387.692 283.33 387.692 283.283H387.803C387.803 283.33 387.803 283.378 387.803 283.426ZM387.787 283.124H387.676V282.98H387.787V283.124ZM387.787 282.837H387.676V282.694H387.787V282.837ZM387.771 282.551H387.66V282.408H387.771V282.551ZM387.771 282.249H387.66V282.106H387.771V282.249ZM377.783 282.694L377.768 282.583L377.911 282.567L377.927 282.678L377.783 282.694ZM378.07 282.662L378.054 282.551L378.197 282.535L378.213 282.646L378.07 282.662ZM378.356 282.631L378.34 282.519L378.483 282.503L378.499 282.615L378.356 282.631ZM378.658 282.599L378.642 282.487L378.785 282.472L378.801 282.583L378.658 282.599ZM378.944 282.567L378.929 282.456L379.072 282.44L379.088 282.551L378.944 282.567ZM379.231 282.551L379.215 282.44L379.358 282.424L379.374 282.535L379.231 282.551ZM379.533 282.519L379.517 282.408L379.66 282.392L379.676 282.503L379.533 282.519ZM379.819 282.487L379.803 282.376L379.946 282.36L379.962 282.472L379.819 282.487ZM380.105 282.456L380.09 282.344L380.233 282.328L380.249 282.44L380.105 282.456ZM380.408 282.424L380.392 282.312L380.535 282.297L380.551 282.408L380.408 282.424ZM387.644 281.978C387.628 281.931 387.612 281.899 387.596 281.867L387.692 281.804C387.723 281.851 387.755 281.899 387.755 281.963L387.644 281.978ZM380.694 282.392L380.678 282.281L380.821 282.265L380.837 282.376L380.694 282.392ZM380.98 282.376L380.964 282.265L381.107 282.249L381.123 282.36L380.98 282.376ZM381.282 282.344L381.266 282.233L381.41 282.217L381.425 282.328L381.282 282.344ZM381.585 282.312L381.569 282.201L381.712 282.185L381.728 282.297L381.585 282.312ZM381.871 282.281L381.855 282.169L381.998 282.153L382.014 282.265L381.871 282.281ZM382.157 282.249L382.141 282.138L382.284 282.122L382.3 282.233L382.157 282.249ZM382.443 282.233L382.427 282.122L382.571 282.106L382.586 282.217L382.443 282.233ZM382.73 282.201L382.714 282.09L382.857 282.074L382.873 282.185L382.73 282.201ZM383.032 282.169L383.016 282.058L383.159 282.042L383.175 282.153L383.032 282.169ZM383.318 282.138L383.302 282.026L383.445 282.01L383.461 282.122L383.318 282.138ZM383.604 282.106L383.588 281.994L383.732 281.978L383.747 282.09L383.604 282.106ZM383.891 282.09L383.875 281.978L384.018 281.963L384.034 282.074L383.891 282.09ZM384.193 282.058L384.177 281.947L384.32 281.931L384.336 282.042L384.193 282.058ZM384.479 282.026L384.463 281.915L384.606 281.899L384.622 282.01L384.479 282.026ZM384.765 281.994L384.749 281.883L384.893 281.867L384.908 281.978L384.765 281.994ZM385.067 281.963L385.052 281.851L385.195 281.835L385.211 281.947L385.067 281.963ZM385.354 281.947L385.338 281.835L385.481 281.819L385.497 281.931L385.354 281.947ZM385.64 281.915L385.624 281.804L385.767 281.788L385.783 281.899L385.64 281.915ZM385.942 281.883L385.926 281.772L386.069 281.756L386.085 281.867L385.942 281.883ZM387.501 281.788C387.469 281.772 387.421 281.756 387.389 281.756L387.405 281.645C387.469 281.645 387.517 281.66 387.564 281.692L387.501 281.788ZM386.228 281.851L386.213 281.74L386.356 281.724L386.372 281.835L386.228 281.851ZM386.515 281.819L386.499 281.708L386.642 281.692L386.658 281.804L386.515 281.819ZM386.817 281.788L386.801 281.676L386.944 281.66L386.96 281.772L386.817 281.788ZM387.103 281.772L387.087 281.66L387.23 281.645L387.246 281.756L387.103 281.772Z" fill="#58595B"/>
<path d="M388.52 290.581H388.393V290.486H388.424V290.454L388.536 290.47L388.52 290.581Z" fill="#58595B"/>
<path d="M378.467 292.156L378.436 292.045L378.579 291.997L378.611 292.109L378.467 292.156ZM378.738 292.077L378.706 291.965L378.849 291.918L378.881 292.029L378.738 292.077ZM379.008 291.997L378.976 291.886L379.119 291.854L379.151 291.965L379.008 291.997ZM379.294 291.918L379.263 291.806L379.406 291.775L379.438 291.886L379.294 291.918ZM379.565 291.838L379.533 291.727L379.676 291.695L379.708 291.806L379.565 291.838ZM379.851 291.775L379.819 291.663L379.962 291.631L379.994 291.743L379.851 291.775ZM380.121 291.695L380.09 291.584L380.233 291.552L380.265 291.663L380.121 291.695ZM380.408 291.631L380.376 291.52L380.519 291.488L380.551 291.6L380.408 291.631ZM380.694 291.568L380.662 291.456L380.805 291.425L380.821 291.536L380.694 291.568ZM380.964 291.504L380.948 291.393L381.092 291.361L381.107 291.472L380.964 291.504ZM381.251 291.441L381.235 291.329L381.378 291.297L381.394 291.409L381.251 291.441ZM381.537 291.393L381.521 291.282L381.664 291.25L381.68 291.361L381.537 291.393ZM381.823 291.329L381.807 291.218L381.95 291.186L381.966 291.297L381.823 291.329ZM382.093 291.282L382.078 291.17L382.221 291.138L382.237 291.25L382.093 291.282ZM382.38 291.234L382.364 291.122L382.507 291.091L382.523 291.202L382.38 291.234ZM382.666 291.186L382.65 291.075L382.793 291.059L382.809 291.17L382.666 291.186ZM382.952 291.138L382.936 291.027L383.08 291.011L383.095 291.122L382.952 291.138ZM383.239 291.091L383.223 290.979L383.366 290.963L383.382 291.075L383.239 291.091ZM383.525 291.043L383.509 290.932L383.652 290.916L383.668 291.027L383.525 291.043ZM383.811 291.011L383.795 290.9L383.938 290.884L383.954 290.995L383.811 291.011ZM384.097 290.963L384.081 290.852L384.225 290.836L384.241 290.948L384.097 290.963ZM384.384 290.932L384.368 290.82L384.511 290.804L384.527 290.916L384.384 290.932ZM384.67 290.9L384.654 290.789L384.797 290.773L384.813 290.884L384.67 290.9ZM384.956 290.868L384.94 290.757L385.083 290.741L385.099 290.852L384.956 290.868ZM385.242 290.836L385.227 290.725L385.37 290.709L385.386 290.82L385.242 290.836ZM385.529 290.804L385.513 290.693L385.656 290.677L385.672 290.789L385.529 290.804ZM385.815 290.773L385.799 290.661L385.942 290.645L385.958 290.757L385.815 290.773ZM386.101 290.741L386.085 290.629L386.228 290.614L386.244 290.725L386.101 290.741ZM386.388 290.725L386.372 290.614L386.515 290.598L386.531 290.709L386.388 290.725ZM386.674 290.693L386.658 290.582L386.801 290.566L386.817 290.677L386.674 290.693ZM386.96 290.677L386.944 290.566L387.087 290.55V290.661L386.96 290.677ZM388.248 290.598H388.105V290.486H388.248V290.598ZM387.246 290.661V290.55L387.389 290.534V290.645L387.246 290.661ZM387.962 290.614L387.819 290.629V290.518L387.962 290.502V290.614ZM387.533 290.629V290.518L387.676 290.502V290.614L387.533 290.629Z" fill="#58595B"/>
<path d="M378.23 292.236L378.15 292.173L378.198 292.077L378.246 292.109L378.294 292.093L378.325 292.204L378.23 292.236Z" fill="#58595B"/>
<path d="M378.023 292.109L377.896 292.029L377.959 291.934L378.086 292.013L378.023 292.109ZM377.784 291.949L377.657 291.87L377.721 291.775L377.848 291.854L377.784 291.949ZM377.53 291.806L377.403 291.727L377.466 291.631L377.593 291.711L377.53 291.806ZM377.291 291.663L377.164 291.584L377.228 291.488L377.355 291.568L377.291 291.663ZM377.037 291.504L376.91 291.425L376.973 291.329L377.1 291.409L377.037 291.504ZM376.782 291.361L376.655 291.282L376.719 291.186L376.846 291.266L376.782 291.361ZM376.544 291.202L376.417 291.122L376.48 291.027L376.607 291.107L376.544 291.202ZM376.289 291.059L376.162 290.979L376.226 290.884L376.353 290.963L376.289 291.059ZM376.051 290.916L375.924 290.836L375.987 290.741L376.114 290.82L376.051 290.916ZM375.796 290.757L375.669 290.677L375.733 290.582L375.86 290.661L375.796 290.757ZM375.558 290.614L375.431 290.534L375.494 290.439L375.621 290.518L375.558 290.614ZM375.303 290.47L375.176 290.391L375.24 290.295L375.367 290.375L375.303 290.47ZM375.065 290.311L374.937 290.232L375.001 290.136L375.128 290.216L375.065 290.311ZM374.81 290.168L374.683 290.089L374.747 289.993L374.874 290.073L374.81 290.168ZM374.572 290.025L374.444 289.946L374.508 289.85L374.635 289.93L374.572 290.025ZM374.317 289.866L374.19 289.787L374.254 289.691L374.381 289.771L374.317 289.866ZM374.079 289.723L373.951 289.643L374.015 289.548L374.142 289.628L374.079 289.723ZM373.824 289.564L373.697 289.484L373.761 289.389L373.888 289.468L373.824 289.564ZM373.586 289.421L373.458 289.341L373.522 289.246L373.649 289.325L373.586 289.421ZM373.331 289.278L373.204 289.198L373.268 289.103L373.395 289.182L373.331 289.278ZM373.093 289.087C373.061 289.055 373.045 289.007 373.045 288.96C373.045 288.944 373.045 288.944 373.045 288.928L373.156 288.912C373.156 288.928 373.156 288.928 373.156 288.944C373.156 288.975 373.172 289.007 373.188 289.023L373.093 289.087ZM373.156 288.801L373.061 288.753C373.077 288.721 373.093 288.705 373.109 288.673L373.156 288.626L373.252 288.689L373.204 288.737C373.172 288.769 373.172 288.785 373.156 288.801ZM373.315 288.578L373.22 288.514L373.299 288.403L373.395 288.467L373.315 288.578ZM373.474 288.339L373.379 288.276L373.458 288.164L373.554 288.228L373.474 288.339ZM373.649 288.101L373.554 288.037L373.633 287.926L373.729 287.989L373.649 288.101ZM373.824 287.878L373.729 287.814L373.808 287.703L373.904 287.767L373.824 287.878ZM373.999 287.64L373.904 287.576L373.983 287.465L374.079 287.528L373.999 287.64ZM374.158 287.401L374.063 287.337L374.142 287.226L374.238 287.29L374.158 287.401ZM374.333 287.178L374.238 287.115L374.317 287.003L374.413 287.067L374.333 287.178ZM374.508 286.94L374.413 286.876L374.492 286.765L374.588 286.828L374.508 286.94ZM374.667 286.701L374.572 286.638L374.651 286.526L374.747 286.59L374.667 286.701ZM374.842 286.479L374.747 286.415L374.826 286.304L374.922 286.367L374.842 286.479ZM375.017 286.24L374.922 286.176L375.001 286.065L375.097 286.129L375.017 286.24ZM375.176 286.001L375.081 285.938L375.16 285.826L375.256 285.89L375.176 286.001ZM375.351 285.779L375.256 285.715L375.335 285.604L375.431 285.667L375.351 285.779ZM375.526 285.54L375.431 285.477L375.51 285.365L375.605 285.429L375.526 285.54ZM375.685 285.318L375.59 285.254L375.669 285.143L375.764 285.206L375.685 285.318ZM375.86 285.079L375.764 285.015L375.844 284.904L375.939 284.968L375.86 285.079ZM376.035 284.84L375.939 284.777L376.019 284.665L376.114 284.729L376.035 284.84ZM376.194 284.618L376.098 284.554L376.178 284.443L376.273 284.506L376.194 284.618ZM376.369 284.379L376.273 284.316L376.353 284.204L376.448 284.268L376.369 284.379ZM376.544 284.141L376.448 284.077L376.528 283.966L376.623 284.029L376.544 284.141ZM376.703 283.918L376.607 283.854L376.687 283.743L376.782 283.807L376.703 283.918ZM376.878 283.679L376.782 283.616L376.862 283.504L376.957 283.568L376.878 283.679ZM377.053 283.441L376.957 283.377L377.037 283.266L377.132 283.33L377.053 283.441ZM377.212 283.218L377.116 283.155L377.196 283.043L377.291 283.107L377.212 283.218ZM377.387 282.98L377.291 282.916L377.371 282.805L377.466 282.868L377.387 282.98Z" fill="#58595B"/>
<path d="M374.589 288.896C374.287 288.96 373.985 288.753 373.937 288.451C373.874 288.148 374.08 287.846 374.383 287.799C374.685 287.735 374.987 287.942 375.035 288.244C375.082 288.546 374.892 288.832 374.589 288.896ZM374.414 287.958C374.208 287.989 374.065 288.196 374.112 288.403C374.144 288.61 374.351 288.753 374.558 288.705C374.764 288.673 374.907 288.467 374.86 288.26C374.828 288.069 374.621 287.926 374.414 287.958ZM376.323 286.669C376.021 286.733 375.719 286.526 375.671 286.224C375.607 285.922 375.814 285.62 376.116 285.572C376.418 285.508 376.721 285.715 376.768 286.017C376.832 286.32 376.625 286.606 376.323 286.669ZM376.148 285.731C375.941 285.763 375.798 285.97 375.846 286.176C375.878 286.383 376.084 286.526 376.291 286.479C376.498 286.447 376.641 286.24 376.593 286.033C376.561 285.827 376.371 285.699 376.148 285.731Z" fill="#E6E7E8"/>
<path d="M374.525 288.276C374.573 288.324 374.573 288.403 374.509 288.451C374.493 288.467 374.477 288.483 374.446 288.483C374.398 288.483 374.366 288.483 374.334 288.451C374.287 288.387 373.301 287.274 373.126 286.336C373.126 286.304 373.11 286.272 373.11 286.256C373.094 286.161 373.094 286.05 373.094 285.954C373.11 285.843 373.126 285.747 373.173 285.652C373.364 285.27 373.809 285.079 374.525 285.063C374.43 285.159 374.35 285.238 374.255 285.318C373.794 285.366 373.507 285.509 373.396 285.747C373.38 285.763 373.38 285.795 373.364 285.811C373.332 285.89 373.316 285.986 373.332 286.081C373.332 286.097 373.332 286.113 373.332 286.129C373.412 286.861 374.175 287.878 374.525 288.276Z" fill="#231F20"/>
<path d="M376.211 286.05C376.195 286.113 376.131 286.161 376.068 286.145C375.527 286.002 374.239 285.779 373.475 286.05C373.427 286.066 373.396 286.082 373.348 286.097C373.253 286.145 373.173 286.193 373.109 286.241C373.078 286.272 373.062 286.288 373.03 286.32C372.998 286.368 372.966 286.416 372.95 286.463C372.855 286.543 372.759 286.622 372.664 286.702C372.664 286.495 372.728 286.32 372.839 286.177C372.903 286.082 372.998 286.002 373.093 285.954C373.173 285.907 373.268 285.859 373.364 285.827C373.507 285.779 373.666 285.748 373.825 285.716C374.795 285.589 376.02 285.891 376.099 285.907C376.195 285.922 376.227 285.986 376.211 286.05Z" fill="#231F20"/>
<path d="M378.007 284.347C377.705 284.362 377.435 284.14 377.419 283.822C377.403 283.519 377.625 283.249 377.944 283.233C378.246 283.217 378.516 283.44 378.532 283.758C378.548 284.06 378.309 284.315 378.007 284.347ZM377.944 283.392C377.737 283.408 377.562 283.583 377.578 283.806C377.594 284.012 377.769 284.187 377.991 284.172C378.198 284.156 378.373 283.981 378.357 283.758C378.341 283.551 378.15 283.376 377.944 283.392Z" fill="#E6E7E8"/>
<path d="M378.071 283.838C378.039 283.901 377.959 283.917 377.912 283.885C377.578 283.695 376.767 283.313 376.146 283.297C375.94 283.297 375.749 283.329 375.622 283.424C375.431 283.567 375.335 283.822 375.351 284.219C375.272 284.299 375.208 284.378 375.128 284.458C375.065 283.869 375.176 283.456 375.494 283.233C375.717 283.074 376.035 283.027 376.353 283.074C377.132 283.154 377.991 283.647 378.039 283.679C378.087 283.71 378.103 283.79 378.071 283.838Z" fill="#231F20"/>
<path d="M391.842 86.7725C391.842 86.7725 397.186 87.0746 400.653 83.5439C400.653 83.5439 397.965 87.9494 391.73 88.6173L391.842 86.7725Z" fill="#EAB896"/>
<path d="M338.356 104.044L336.241 100.593C335.907 100.053 335.811 99.3846 335.97 98.7643L336.702 96.0925C336.845 95.5836 336.543 95.0587 336.05 94.9156C335.636 94.7884 335.191 94.9633 334.953 95.3291L333.633 97.4125C333.283 97.9691 332.519 98.0805 332.01 97.667L326.921 93.4206C326.523 93.0866 325.935 93.1343 325.585 93.516C325.251 93.8977 325.267 94.4703 325.633 94.8361L328.289 97.4443L325.283 94.5021C324.854 94.0727 324.138 94.1204 323.756 94.5816C323.406 95.011 323.438 95.6313 323.852 96.013L328.384 100.243L324.79 96.84C324.376 96.4424 323.708 96.4742 323.311 96.8877C322.929 97.3171 322.961 97.9692 323.374 98.3508L328.289 102.804L324.583 99.4164C324.17 99.0347 323.533 99.0665 323.136 99.4641C322.754 99.8617 322.754 100.482 323.136 100.88C325.919 103.885 329.386 106.748 333.235 109.547L338.356 104.044Z" fill="#F7C19B"/>
<path d="M418.863 163.365L426.433 213.622C427.021 217.582 428.548 221.335 430.886 224.58L461.199 266.614L448.905 274.741L414.505 236.571C409.925 231.641 406.616 225.677 404.867 219.188L396.629 188.732L385.067 218.345C383.238 223.037 382.633 228.11 383.317 233.104L389.472 278.081L375.127 280.132L364.264 232.882C362.213 224.993 362.022 216.723 363.708 208.739L374.713 156.67L398.696 152.344L418.863 163.365Z" fill="#333333"/>
<path d="M405.153 93.34L402.767 88.9346C399.666 93.3877 395.96 94.1988 391.586 90.7476L380.088 109.419L384.159 117.816L385.32 148.145L389.217 162.459C391.841 166.164 395.96 166.594 400.922 165.162L406.441 161.234L413.629 130.826L413.47 118.055C413.47 118.055 410.799 109.149 410.369 108.703C409.94 108.274 405.153 93.34 405.153 93.34Z" fill="#F1F2F2"/>
<path d="M421.535 125.8C420.087 140.241 419.992 155.525 420.803 171.365C420.803 171.906 420.358 172.351 419.817 172.335C416.461 172.256 404.231 171.826 400.939 165.163C400.637 164.542 400.955 163.668 401.066 163.032C401.273 161.982 401.416 160.916 401.543 159.851C403.054 147.159 399.762 134.579 399.858 121.888C399.937 111.741 401.655 101.579 402.545 91.4795C402.561 91.3523 402.8 88.9189 402.8 88.9189C414.744 91.4477 423.03 102.358 422.266 114.54L421.535 125.8ZM337.371 99.8927L355.629 115.765C356.456 116.481 357.617 116.608 358.587 116.131C362.34 114.238 365.537 111.391 368.368 108.322C370.467 106.048 372.248 103.503 374.459 101.34C376.542 99.3042 378.817 97.4594 381.25 95.8372C382.793 94.8193 384.383 93.881 386.037 93.054C386.912 92.6087 387.802 92.2111 388.709 91.8294C389.027 91.7021 391.365 90.9069 391.587 90.7638C391.094 93.388 390.586 96.0121 390.093 98.6363C389.154 103.582 388.788 108.338 389.313 113.379C389.727 117.403 390.395 121.427 390.474 125.482C390.57 130.222 389.568 134.786 389.043 139.478C388.073 148.193 389.011 157.067 389.345 165.799C389.393 167.039 388.311 168.041 387.071 167.914C382.141 167.357 377.958 165.465 374.538 162.189C374.173 161.839 373.982 161.33 374.029 160.837C374.618 155.032 375.302 149.243 376.065 143.47C376.908 137.172 378.817 118.373 377.735 118.15C376.765 117.944 374.411 120.138 373.552 120.727C369.879 123.24 365.823 125.594 362.42 128.424C362.07 128.663 361.688 129.045 361.29 129.204C357.776 131.621 353.036 131.208 350.014 128.202L330.484 108.894L337.371 99.8927Z" fill="#1E88E5"/>
<path d="M291.695 297.023H4.23046C1.89257 297.023 0 295.13 0 292.792V4.23046C0 1.89257 1.89257 0 4.23046 0H311.13C313.467 0 315.36 1.89257 315.36 4.23046C315.36 6.56834 313.467 8.46092 311.13 8.46092H8.44501V288.578H287.671C290.55 231.467 299.424 179.715 314.056 134.691C329.451 87.3129 351.685 45.9625 380.121 11.8008C381.616 10.0036 384.272 9.76504 386.069 11.26C387.866 12.755 388.105 15.411 386.61 17.2081C331.741 83.1301 301.221 175.914 295.909 292.999C295.814 295.242 293.953 297.023 291.695 297.023Z" fill="#834E34"/>
<path d="M348.838 83.5601L348.091 80.1566C347.884 79.5523 347.947 78.8843 348.266 78.3118L349.601 75.8785C349.856 75.4172 349.697 74.8447 349.236 74.5743C348.854 74.3517 348.393 74.4153 348.075 74.7175L346.309 76.4351C345.832 76.8963 345.069 76.8327 344.687 76.3079L340.727 70.9959C340.425 70.5824 339.836 70.487 339.407 70.7892C338.994 71.0755 338.882 71.648 339.137 72.0774L341.109 75.2423L338.882 71.6798C338.564 71.1709 337.864 71.0277 337.371 71.3935C336.926 71.7275 336.815 72.3478 337.133 72.7931L340.552 77.9619L337.864 73.8109C337.546 73.3338 336.894 73.1907 336.417 73.5247C335.94 73.8427 335.813 74.4948 336.147 74.956L339.884 80.4429L337.069 76.292C336.751 75.8307 336.131 75.7035 335.654 76.0057C335.192 76.3079 335.049 76.8963 335.32 77.3734C337.324 80.9359 340.011 84.5461 343.113 88.1722L348.838 83.5601Z" fill="#F7C19B"/>
<path d="M349.314 80.8564L375.539 108.991L403.944 102.295L409.653 119.742L379.245 123.67C375.269 123.877 371.436 122.223 368.844 119.217L339.898 86.9477L349.314 80.8564Z" fill="#1E88E5"/>
</svg>
