<svg xmlns="http://www.w3.org/2000/svg" xmlns:xlink="http://www.w3.org/1999/xlink" width="694" height="609.236" viewBox="0 0 694 609.236">
  <defs>
    <filter id="Path_1196" x="350.285" y="9.986" width="343.715" height="352.004" filterUnits="userSpaceOnUse">
      <feOffset dy="3" input="SourceAlpha"/>
      <feGaussianBlur stdDeviation="3" result="blur"/>
      <feFlood flood-opacity="0.161"/>
      <feComposite operator="in" in2="blur"/>
      <feComposite in="SourceGraphic"/>
    </filter>
    <filter id="Path_1199" x="4.53" y="205.781" width="344.582" height="352.876" filterUnits="userSpaceOnUse">
      <feOffset dy="3" input="SourceAlpha"/>
      <feGaussianBlur stdDeviation="3" result="blur-2"/>
      <feFlood flood-opacity="0.161"/>
      <feComposite operator="in" in2="blur-2"/>
      <feComposite in="SourceGraphic"/>
    </filter>
  </defs>
  <g id="Book_A_Demo-_Hero_Image" data-name="Book A Demo- Hero Image" transform="translate(-6227 13968)">
    <path id="Path_1268" data-name="Path 1268" d="M319,0c46.864,0,91.367,13.647,131.7,38.314C561.054,105.8,638,256.161,638,430.8c0,237.922-638,237.922-638,0S142.821,0,319,0Z" transform="translate(6227 -13968)" fill="#f9f9fb"/>
    <g id="Group_1059" data-name="Group 1059" transform="translate(6227 -13952.014)">
      <g transform="matrix(1, 0, 0, 1, 0, -15.99)" filter="url(#Path_1196)">
        <path id="Path_1196-2" data-name="Path 1196" d="M713.1,410.978c-14.458,8.891-40.217,20.032-66.541,8.583l-17.016-7.4,34.1-39.2c-56.383-63.747-56.286-160.992.224-224.621s150.923-72.8,218.079-21.182S967,274.275,923.294,347.744,788.586,448.589,713.1,410.978ZM647.764,260.516a140.449,140.449,0,0,0,43.088,102.1l9.406,9.063L678.8,396.342c11.177-2.325,20.911-8.525,25.847-12.126l6.773-4.942,7.284,4.1A134.068,134.068,0,0,0,784.383,400.6C859.714,400.6,921,337.761,921,260.515S859.714,120.427,784.383,120.427,647.764,183.271,647.764,260.516Z" transform="translate(-262.13 -77.8)" fill="#ededf2"/>
      </g>
      <path id="Path_1197" data-name="Path 1197" d="M638.315,263.882c0-84.87,67.1-153.671,149.863-153.671s149.863,68.8,149.863,153.671-67.1,153.671-149.863,153.671a146.278,146.278,0,0,1-72.056-18.9c-10.359,7.558-35.632,22.633-60.6,11.774l30.052-34.544a155.092,155.092,0,0,1-47.263-112Z" transform="translate(-265.928 -97.154)" fill="#ffe08b"/>
      <path id="Path_1198" data-name="Path 1198" d="M952.373,264.3c0-80.292-60.056-146.19-136.618-153.067,4.365-.392,8.781-.6,13.245-.6,82.767,0,149.863,68.8,149.863,153.671S911.767,417.971,829,417.971c-4.458,0-8.866-.215-13.225-.606C892.327,410.478,952.373,344.585,952.373,264.3Z" transform="translate(-305.789 -97.24)" fill="none" opacity="0.1"/>
      <g transform="matrix(1, 0, 0, 1, 0, -15.99)" filter="url(#Path_1199)">
        <path id="Path_1199-2" data-name="Path 1199" d="M338.863,674.93c-77.175.037-143.838-55.337-159.82-132.758s23.08-155.743,93.651-187.775,153.376-9.025,198.522,55.158,40.3,152.014-11.611,210.57l34.1,39.2-17.016,7.4c-26.323,11.449-52.083.309-66.541-8.583a160.149,160.149,0,0,1-71.285,16.791Zm0-307.342c-75.331,0-136.618,62.844-136.618,140.089s61.287,140.089,136.618,140.089a134.081,134.081,0,0,0,65.689-17.233l7.272-4.1,6.773,4.942c4.936,3.6,14.671,9.8,25.847,12.126L422.988,618.84l9.406-9.063a140.448,140.448,0,0,0,43.088-102.1C475.481,430.432,414.195,367.588,338.863,367.588Z" transform="translate(-161.96 -128.27)" fill="#ededf2"/>
      </g>
      <path id="Path_1200" data-name="Path 1200" d="M492.642,511.273c0-84.87-67.1-153.671-149.863-153.671S192.915,426.4,192.915,511.273s67.1,153.671,149.863,153.671a146.279,146.279,0,0,0,72.056-18.9c10.359,7.558,35.631,22.633,60.6,11.774l-30.052-34.543A155.092,155.092,0,0,0,492.642,511.273Z" transform="translate(-165.872 -147.855)" fill="#fb0" opacity="0.704"/>
      <path id="Path_1201" data-name="Path 1201" d="M219.406,510.3c0-80.292,60.056-146.19,136.618-153.067-4.365-.392-8.781-.6-13.245-.6-82.767,0-149.863,68.8-149.863,153.671s67.1,153.671,149.863,153.671c4.458,0,8.866-.215,13.224-.606C279.451,656.475,219.406,590.581,219.406,510.3Z" transform="translate(-165.872 -147.655)" opacity="0.1"/>
      <path id="Path_1202" data-name="Path 1202" d="M855.052,237.488c-9.805-16.989-29.2-17.781-29.2-17.781s-18.9-2.479-31.03,23.4c-11.3,24.117-26.9,47.4-2.511,53.048l4.406-14.061L799.44,297.2a93.087,93.087,0,0,0,10.436.183c26.12-.865,51,.253,50.2-9.358C859.007,275.245,864.486,253.834,855.052,237.488Z" transform="translate(-297.62 -119.581)" fill="#2f2e41"/>
      <path id="Path_1203" data-name="Path 1203" d="M793.1,426.918a40.524,40.524,0,0,1-1.251,5.521c-.614,1.769-1.561,3.405-2.122,5.193-1.788,5.7.691,12.05,4.65,16.448a26.054,26.054,0,0,0,12.762,7.77,50.827,50.827,0,0,0,10.967,1.182c10.193.354,20.649.672,30.307-2.687a52.038,52.038,0,0,0,8.805-4.1,5.133,5.133,0,0,0,3.109-5.629c-.022-4.431-.9-8.839-.69-13.265a53.922,53.922,0,0,0,.342-7.345,13.439,13.439,0,0,0-10.1-11.672,26.759,26.759,0,0,0-8.371,0,208.18,208.18,0,0,1-21.787,1c-7.432-.049-14.819-1.212-22.214-1.333-2.187-.036-2.143.655-2.839,2.826A53.927,53.927,0,0,0,793.1,426.918Z" transform="translate(-299.81 -160.232)" fill="#2f2e41"/>
      <path id="Path_1204" data-name="Path 1204" d="M818.883,289.251a13.529,13.529,0,0,1-1.867,5.481c-1.293,1.813-3.4,2.849-4.792,4.584-2.094,2.612-2.214,6.287-2.223,9.668-.008,3.115.054,6.437,1.748,9.022a15.507,15.507,0,0,0,4.407,3.984c6.352,4.39,13.216,8.858,20.875,9,3.173.06,6.576-.78,8.664-3.231a13.438,13.438,0,0,0,2.1-3.837,52.041,52.041,0,0,0,3.518-15.513,18.657,18.657,0,0,0-.67-7.452c-.93-2.66-2.812-4.849-4.055-7.371a16.775,16.775,0,0,1-1.54-9.709,1.073,1.073,0,0,0-.054-.7.987.987,0,0,0-.824-.342l-15.186-1.121a32.271,32.271,0,0,1-4.216-.495c-.819-.171-2.981-1.363-3.761-1.046C819.558,280.759,819.179,287.661,818.883,289.251Z" transform="translate(-304.496 -131.975)" fill="#a0616a"/>
      <path id="Path_1205" data-name="Path 1205" d="M818.883,289.863a13.53,13.53,0,0,1-1.867,5.481c-1.293,1.813-3.4,2.849-4.792,4.584-2.094,2.612-2.214,6.287-2.223,9.668-.008,3.115.054,6.437,1.748,9.022a15.5,15.5,0,0,0,4.407,3.984c6.352,4.39,13.217,8.858,20.875,9,3.173.06,6.576-.78,8.664-3.231a13.434,13.434,0,0,0,2.1-3.837,52.045,52.045,0,0,0,3.518-15.513,18.66,18.66,0,0,0-.67-7.452c-.93-2.66-2.812-4.849-4.055-7.371a16.776,16.776,0,0,1-1.54-9.71,1.074,1.074,0,0,0-.054-.7.987.987,0,0,0-.824-.342l-15.186-1.121a32.266,32.266,0,0,1-4.216-.495c-.819-.171-2.981-1.363-3.761-1.046C819.558,281.37,819.179,288.273,818.883,289.863Z" transform="translate(-304.496 -132.101)" opacity="0.1"/>
      <ellipse id="Ellipse_320" data-name="Ellipse 320" cx="22.28" cy="22.846" rx="22.28" ry="22.846" transform="translate(506.629 113.672)" fill="#a0616a"/>
      <path id="Path_1206" data-name="Path 1206" d="M823.153,325.925a13.732,13.732,0,0,0,3.913,3.206,12.03,12.03,0,0,0,4.889.955c4.016.116,8.37-.639,11.164-3.6,3.6-3.817,3.483-9.972,6.306-14.425a3.186,3.186,0,0,1,.91-1.02,2.889,2.889,0,0,1,1.547-.365c3.565-.034,6.671,2.337,9.474,4.6a12.651,12.651,0,0,1,3.335,3.483,12.018,12.018,0,0,1,1.125,3.531A158.9,158.9,0,0,1,868.1,343.46c.247,3.917.494,7.838.476,11.764-.061,12.932-2.992,25.649-5.907,38.231-.376,1.621-.89,3.433-2.328,4.21a5.622,5.622,0,0,1-2.031.508,242.51,242.51,0,0,1-25.122,2.145q-4.92.078-9.837-.244a5.181,5.181,0,0,1-1.657-.3,4.706,4.706,0,0,1-1.807-1.573c-4.547-5.875-4.815-14-4.786-21.5q.107-27.506,1.917-54.969c.1-1.511.121-3.346-.941-4.535a56.471,56.471,0,0,0,7.073,8.722Z" transform="translate(-305.642 -138.237)" fill="#fff"/>
      <path id="Path_1207" data-name="Path 1207" d="M809.436,296.151c-.753,1.4-6.3,4.865-7.371,6.023-5.984,6.468-16.906,6.225-22.379,13.153a21.863,21.863,0,0,0-3.662,8.545c-1.041,4.306-1.6,9,.147,13.063,1.677,3.907,5.208,6.608,7.606,10.1,2.632,3.832,3.816,8.485,4.95,13.025.837,3.353,1.682,6.788,1.356,10.233-.371,3.916-2.219,7.5-3.31,11.275s-1.28,8.265,1.244,11.23c1.854,2.178,4.761,3.042,7.54,3.527a84.543,84.543,0,0,0,10.747.959c3.177.144,6.679.172,9.121-1.916a9.518,9.518,0,0,0,2.873-6.892,45.575,45.575,0,0,0-.74-7.669c-.339-2.644-.469-5.312-.578-7.977q-.733-17.935-.2-35.894a31.32,31.32,0,0,0-.354-7.448c-.681-3.2-2.369-6.065-3.778-9.008a34.815,34.815,0,0,1-3.686-18.007C809.388,296.062,812.114,291.181,809.436,296.151Z" transform="translate(-296.644 -134.843)" fill="#fff"/>
      <path id="Path_1208" data-name="Path 1208" d="M857.52,296.063c1.146,1.208,5.041,1.606,6.5,2.384a22.4,22.4,0,0,0,4.272,1.517,54.824,54.824,0,0,1,15.008,7.063,9.175,9.175,0,0,1,2.51,2.223,10.356,10.356,0,0,1,1.388,4.02,46.729,46.729,0,0,1,1.271,10.992A46.619,46.619,0,0,1,886,335.732l-4.272,14c-3.188,10.453-6.4,21.009-7.294,31.922a76.967,76.967,0,0,0,.657,18.131,2.2,2.2,0,0,1-.215,1.756,1.668,1.668,0,0,1-1.046.494c-2.062.331-4.057-.747-5.925-1.7a64.478,64.478,0,0,0-18.087-6.069,43.589,43.589,0,0,0,5.618-11.875,73.431,73.431,0,0,0,1.7-8.167l1.987-11.785a118.642,118.642,0,0,0,1.7-13.032,16.718,16.718,0,0,0-.277-4.909,24.139,24.139,0,0,0-1.815-4.427,38.678,38.678,0,0,1-3.523-22.594c.564-3.342,1.66-6.689,1.2-10.048-.439-3.23.017-5.74-.791-8.937C852.3,285.368,855.364,293.79,857.52,296.063Z" transform="translate(-313.441 -134.268)" fill="#fff"/>
      <path id="Path_1209" data-name="Path 1209" d="M779.419,332.284c-1.493,3.177-3.989,5.883-4.839,9.3a20.819,20.819,0,0,0-.422,4.861,23.652,23.652,0,0,0,.7,7.309c.474,1.507,1.246,2.9,1.8,4.374a16.224,16.224,0,0,1,1.013,6.48c-.15,3.06-1.164,6.031-1.243,9.094-.125,4.817,2.048,9.345,4.168,13.645a9.886,9.886,0,0,1,6.027-5.777,9.572,9.572,0,0,1,8.192,1,3.042,3.042,0,0,0,.641-2.18q.235-8.382.453-16.765c.23-8.643.448-17.4-1.491-25.816a24.64,24.64,0,0,0-4.735-10.53c-1.315-1.552-5.779-5.639-7.937-3.9-.971.782-.744,2.91-.9,3.987A17.237,17.237,0,0,1,779.419,332.284Z" transform="translate(-296.435 -140.756)" fill="#fff"/>
      <path id="Path_1210" data-name="Path 1210" d="M892.712,321.076a23.952,23.952,0,0,1,.762,7.032q.043,7.246-.187,14.49a27.663,27.663,0,0,1-.918,7.336c-.482,1.555-1.226,3.013-1.724,4.562-1.492,4.644-.677,9.68-.549,14.567a16.955,16.955,0,0,1-.391,4.712c-.787,3.03-2.9,5.478-4.381,8.224-1.4,2.607-2.25,5.53-3.925,7.963s-4.576,4.36-7.387,3.613c-2.13-.566-3.644-2.5-4.691-4.484a22.481,22.481,0,0,1-2.217-14.266c1.051-5.932,4.449-11.194,5.675-17.091,1.683-8.1-.875-16.453-.8-24.732a12.242,12.242,0,0,1,.508-3.834,16.064,16.064,0,0,1,3.3-4.918,61.96,61.96,0,0,0,4.434-5.966c.913-1.4,2.153-4.988,3.772-5.286C887.606,312.332,891.815,318.213,892.712,321.076Z" transform="translate(-317.249 -138.703)" fill="#fff"/>
      <path id="Path_1211" data-name="Path 1211" d="M750.818,424.514a21.469,21.469,0,0,0-6.117-.667,15.154,15.154,0,0,0-11.152,5.946,15.954,15.954,0,0,0-3.023,12.511,26.73,26.73,0,0,0,2.424,6.792c1.622,3.376,3.568,6.744,6.571,8.908a25.318,25.318,0,0,0,5.8,2.831l15.818,6.11c2.327.9,4.654,1.8,7,2.631a134.034,134.034,0,0,0,36.585,7.458,38.649,38.649,0,0,0,11.359-.59,3.673,3.673,0,0,0,2.326-1.289,4.163,4.163,0,0,0,.52-1.76l.973-6.987a6,6,0,0,0-.083-2.946,5.563,5.563,0,0,0-2.629-2.541c-10.4-6.125-22.542-9.5-31.3-17.909-2.061-1.979-3.785-5.116-6.289-6.46-2.839-1.524-6.183-2.394-9.117-3.8C764.078,429.681,757.771,426.153,750.818,424.514Z" transform="translate(-286.586 -161.429)" fill="#2f2e41"/>
      <path id="Path_1212" data-name="Path 1212" d="M775.085,436.124c5.591,1.8,29.2,14.242,33.242,18.588-.542.2-18.943-10.374-19.5-10.544A109.352,109.352,0,0,1,774,438.808c-.959-.455-6.229-2.592-5.991-3.833C768.279,433.576,774.092,435.8,775.085,436.124Z" transform="translate(-295.061 -163.619)" opacity="0.1"/>
      <path id="Path_1213" data-name="Path 1213" d="M860.456,491.482a1.291,1.291,0,0,0,.886-.267,1.43,1.43,0,0,0,.277-1.046l-.026-9.519a27.951,27.951,0,0,0-8.586-2.124l-13.675-1.875c.314.043-2.138,6.04-1.762,6.84.663,1.411,5.728,2.662,7.157,3.328C849.7,489.135,854.859,491.681,860.456,491.482Z" transform="translate(-310.68 -172.254)" fill="#a0616a"/>
      <path id="Path_1214" data-name="Path 1214" d="M809.318,479.877c-2.582.422-5.464.794-7.136,2.856-2.12,2.614-1.218,6.51-.206,9.748a3.173,3.173,0,0,0,1.254,2.1,3.022,3.022,0,0,0,2.341.539c2.355.153,4.861.273,6.918-.912a30.374,30.374,0,0,0,2.688-2.048,17.031,17.031,0,0,1,4.941-2.316,48.9,48.9,0,0,1,9.918-2.1,15.077,15.077,0,0,0,3.907-.706A4.382,4.382,0,0,0,836.7,484.3c.476-1.73-.5-3.494-1.444-5.011a19.9,19.9,0,0,0-4.159-5.271c-2.548-2.03-3.809-.472-6.375.827a53.14,53.14,0,0,1-15.4,5.032Z" transform="translate(-302.45 -171.513)" fill="#a0616a"/>
      <path id="Path_1215" data-name="Path 1215" d="M794.017,483.043l-16.4-4.969a21.231,21.231,0,0,0-6.1-1.212,7.232,7.232,0,0,0-5.6,2.324c-1.271,1.53-1.635,3.621-1.952,5.6l-.678,4.243a21.843,21.843,0,0,0-.38,6.516,7.228,7.228,0,0,0,3.257,5.368c2.269,1.269,5.049.649,7.581.118a80.569,80.569,0,0,1,15.537-1.708c1.963-.024,4.021,0,5.755-.941a7.393,7.393,0,0,0,3.506-5.871C798.868,488.891,797.689,484.156,794.017,483.043Z" transform="translate(-293.897 -172.295)" fill="#2f2e41"/>
      <path id="Path_1216" data-name="Path 1216" d="M873.4,478.317c2.125-.382,4-1.621,6.038-2.352,2.866-1.029,5.973-1.029,9.01-1.018a5.665,5.665,0,0,1,3.23.663c1.338.913,1.681,2.741,1.908,4.372l1.373,9.843a15.833,15.833,0,0,1,.112,5.576,5.21,5.21,0,0,1-3.38,4.053c-2.144.572-4.246-.833-6.27-1.755-5.059-2.306-10.941-1.716-16.216-3.44a3.64,3.64,0,0,1-2.427-1.78,4.146,4.146,0,0,1-.189-1.7c.09-3.164-.56-7.484.369-10.508C867.789,477.553,871.024,478.317,873.4,478.317Z" transform="translate(-317.177 -171.899)" fill="#2f2e41"/>
      <path id="Path_1217" data-name="Path 1217" d="M900.358,419.48a27.784,27.784,0,0,1,10.029-.7,12.413,12.413,0,0,1,7.4,2.971c2.383,2.316,3.148,5.9,3.212,9.264a29.418,29.418,0,0,1-6.135,18.484,16.547,16.547,0,0,1-3.508,3.462,22.845,22.845,0,0,1-4.563,2.255L871.37,469.541c-9.319,3.769-18.672,7.549-28.392,10.034a2.163,2.163,0,0,1-1.716.09,2.235,2.235,0,0,1-1.261-1.2,75.855,75.855,0,0,1-7.764-14.563,1,1,0,0,1-.181-.886.972.972,0,0,1,.6-.661L857.716,447.6a25.327,25.327,0,0,0,5.1-3.6,12.974,12.974,0,0,0,2.618-3.738c.519-1.112.568-3.737,1.231-4.56.65-.8,2.871-.869,3.9-1.186a34.826,34.826,0,0,0,4.243-1.645c5.6-2.571,10.6-6.307,15.969-9.317A40.41,40.41,0,0,1,900.358,419.48Z" transform="translate(-309.443 -160.357)" fill="#2f2e41"/>
      <path id="Path_1218" data-name="Path 1218" d="M890.186,432.847c-4.3,3.315-9.878,6.363-14.145,9.765-1.456,1.161-25.729,15.155-26.072,17.013,3.98.688,29.335-17.5,32.963-19.315a58.522,58.522,0,0,0,10.03-6.915c.812-.647,4.254-2.594,1.922-3.317C893.57,429.67,891.155,432.184,890.186,432.847Z" transform="translate(-313.475 -162.7)" opacity="0.1"/>
      <path id="Path_1219" data-name="Path 1219" d="M850.893,297.693H813.106a5.863,5.863,0,0,0-5.788,5.936V305.8h-.411v4.861h.411v3.4h-.411v2.917h.411v35.866a5.863,5.863,0,0,0,5.788,5.936h37.787a5.863,5.863,0,0,0,5.788-5.935V303.628a5.863,5.863,0,0,0-5.788-5.935Z" transform="translate(-303.801 -135.577)" fill="#d0cde1"/>
      <path id="Path_1220" data-name="Path 1220" d="M698.54,144.247l-19.165-10.294-26.467,4.211-5.475,24.8,13.631-.538,3.808-9.111v8.961l6.29-.248,3.65-14.506,2.282,15.442,22.36-.468Z" transform="translate(-145.442 -27.978)" fill="#2f2e41"/>
      <path id="Path_1221" data-name="Path 1221" d="M786.321,399.364a10.088,10.088,0,0,0,3.577,3.649,6.841,6.841,0,0,0,6.15-.169,10.968,10.968,0,0,0,4.438-4.563c2.083-3.772,2.514-8.285,2.254-12.611s-1.161-8.586-1.559-12.9c-.29-3.137-.313-6.292-.337-9.443a3.205,3.205,0,0,1,.387-1.91,3.624,3.624,0,0,1,2.055-1.052c4.2-1.281,6.994-5.321,8.995-9.323,1.336-2.672,2.5-5.593,2.24-8.584s-2.354-6-5.267-6.309c-2.4-.252-4.619,1.313-6.352,3.037a28.194,28.194,0,0,0-7.974,16.343c-.38,3.041-.271,6.165-1.078,9.117-1.722,6.3-7.112,10.169-9.8,15.841C781.092,386.738,782.726,393.834,786.321,399.364Z" transform="translate(-298.322 -143.453)" fill="#a0616a"/>
      <path id="Path_1222" data-name="Path 1222" d="M882.438,370.435a11.753,11.753,0,0,1-6.515,6.419,8.789,8.789,0,0,1-5.664.356,6.338,6.338,0,0,1-4.149-3.806,10.483,10.483,0,0,1-.467-2.858c-.27-4.251-.165-8.632,1.34-12.6.581-1.531,1.364-2.984,1.822-4.558a23.412,23.412,0,0,0,.686-5.563l.5-11.6a7.737,7.737,0,0,0-.168-2.515c-.494-1.678-2.024-2.769-3.427-3.77-3.39-2.417-6.739-5.238-8.382-9.122a6.541,6.541,0,0,1-.579-3.779c.463-2.3,2.73-3.794,4.97-4.3a10.893,10.893,0,0,1,8.577,1.676,11.427,11.427,0,0,1,4.752,7.511c.222,1.309.219,2.646.348,3.968.275,2.8,1.143,5.507,1.686,8.27,1.338,6.8.645,13.839,1.968,20.643C880.838,360.5,885.009,364.211,882.438,370.435Z" transform="translate(-315.135 -138.608)" fill="#a0616a"/>
      <ellipse id="Ellipse_321" data-name="Ellipse 321" cx="4.74" cy="4.861" rx="4.74" ry="4.861" transform="translate(523.963 178.488)" fill="#6c63ff"/>
      <ellipse id="Ellipse_322" data-name="Ellipse 322" cx="13.984" cy="14.339" rx="13.984" ry="14.339" transform="translate(0 329.37)" fill="#2f2e41"/>
      <path id="Path_1223" data-name="Path 1223" d="M77.273,484.7l-7.043-7.02-14.143,4.5,1.358,16.792,29.081-1.385-8.934-12.447Z" transform="translate(-12.601 -98.423)" fill="#fbbebe"/>
      <ellipse id="Ellipse_323" data-name="Ellipse 323" cx="22.608" cy="23.182" rx="22.608" ry="23.182" transform="translate(26.66 339.769)" fill="#fbbebe"/>
      <path id="Path_1224" data-name="Path 1224" d="M398.977,617.061s27.774,48.943,34.384,56.29A121.54,121.54,0,0,0,443.39,683.6s-3.108,10.569-8.057,10.192a22.825,22.825,0,0,1-8.164-2.063s-2.209-5.872-6.062-8.446-35.332-34.33-34.6-44.48S398.977,617.061,398.977,617.061Z" transform="translate(-209.359 -201.03)" fill="#2f2e41"/>
      <path id="Path_1225" data-name="Path 1225" d="M275.023,696.809s29.613,23.569,69.859,1.423l3.468-2.617s-5.853,13.5-6.4,17.162c-.63,4.244-15.868,29.107-18.355,30.3s-3.035,2.29-3.035,2.29l10.553,11.91,3.9-2.944s15.214-22.1,19.664-26.146,25.651-45.74,25.651-45.74,8.106-15.711-12.124-16.893-29.538,4.472-29.538,4.472l-35.9,5.848Z" transform="translate(-184.317 -210.934)" fill="#2f2e41"/>
      <path id="Path_1226" data-name="Path 1226" d="M454.137,697.841l14.978,10.627s19.109,6.139,7.338,10.225-42.79,5.563-43.494-.073,1.224-14.509,2.771-14.024S448.019,707.94,454.137,697.841Z" transform="translate(-219.763 -217.585)" fill="#2f2e41"/>
      <path id="Path_1227" data-name="Path 1227" d="M346.815,770.731l2.772,15.611S357.47,801.8,348.005,797s-28.965-23.017-26.086-26.837,9.235-7.962,9.88-6.718S337.222,773.029,346.815,770.731Z" transform="translate(-194.788 -230.985)" fill="#2f2e41"/>
      <path id="Path_1228" data-name="Path 1228" d="M291.4,662.211s-20.13,24.1-32.352,18.245-62.222-73.66-56.513-86.192,7.624-9.865,7.624-9.865l25.817,2.448-7.428-12.213a4.936,4.936,0,0,1,6.773,1.057c3.3,3.674,16.574,12.85,21.2,25.809s18.193,12.313,18.193,12.313Z" transform="translate(-167.931 -192.15)" fill="#fff"/>
      <path id="Path_1229" data-name="Path 1229" d="M244.918,515.1l-34.895,37.982-31.259-56.592,29.717-36.817Z" transform="translate(-40.16 -94.733)" fill="#3f3d56"/>
      <path id="Path_1230" data-name="Path 1230" d="M243.282,515.5l-31.517,33.377-28.56-51.434L209.4,463.631Z" transform="translate(-41.157 -95.544)" fill="#fff"/>
      <path id="Path_1231" data-name="Path 1231" d="M202.782,575.336l1.71,1.451-1.1,2.2L154.6,593.876l-.461-1.714,2.22-2.354Z" transform="translate(-34.628 -118.437)" fill="#b3b3b3"/>
      <path id="Path_1232" data-name="Path 1232" d="M196.076,562.246l-50.528,16.2-30.8-59.679,49.636-12.785Z" transform="translate(-25.779 -104.223)" fill="#d0cde1"/>
      <path id="Path_1233" data-name="Path 1233" d="M207.134,555.642l-2.168,1.635-24.059-42.836,2.487-1.191Z" transform="translate(-40.641 -105.713)" fill="#3f3d56"/>
      <path id="Path_1234" data-name="Path 1234" d="M195.1,558.607l-21.374,6.535L149.457,521.09,170.6,516.1Z" transform="translate(-33.576 -106.297)" fill="#3f3d56"/>
      <path id="Path_1235" data-name="Path 1235" d="M287.905,621.122l4.425-1.284s24.68-2.862,25.04,5.09-28.352,4.262-28.352,4.262l-3.829-5.335Z" transform="translate(-186.601 -201.496)" fill="#fbbebe"/>
      <path id="Path_1236" data-name="Path 1236" d="M315.012,661.793l6.16-2.592s18.593-8.548,13.259-14.117-21.784,4.1-21.784,4.1l-3.149,3.062Z" transform="translate(-192.062 -206.419)" fill="#fbbebe"/>
      <path id="Path_1237" data-name="Path 1237" d="M285.73,643.374s10.029,10.25,7.747,12.657-39.7,34.074-48.982,23.942-54.474-61-36.887-65.366,22.234,5.837,22.234,5.837l23.217,40.731Z" transform="translate(-168.269 -200.304)" fill="#fff"/>
      <path id="Path_1238" data-name="Path 1238" d="M112.41,518.781l16.475,5.728-.269,12.2-17.424-1.928Z" transform="translate(-24.98 -106.847)" fill="#fff"/>
      <path id="Path_1239" data-name="Path 1239" d="M120.9,560.389l-17.75,10.654L82.865,539.06l19.576,26.346Z" transform="translate(-18.617 -111.002)" opacity="0.2"/>
      <ellipse id="Ellipse_324" data-name="Ellipse 324" cx="26.914" cy="27.598" rx="26.914" ry="27.598" transform="translate(12.43 328.633)" fill="#2f2e41"/>
      <path id="Path_1240" data-name="Path 1240" d="M232.84,522.516l-18.845-28.268,7.989-10.14,19.582,29.083Z" transform="translate(-48.074 -99.74)" fill="#6c63ff"/>
      <path id="Path_1241" data-name="Path 1241" d="M229.3,535.235l-28.69-42.768,1.415-1.753,28.556,42.869Z" transform="translate(-45.068 -101.094)" fill="#e6e6e6"/>
      <path id="Path_1242" data-name="Path 1242" d="M224.535,540.468,195.845,497.7l1.415-1.753,28.556,42.87Z" transform="translate(-43.997 -102.167)" fill="#e6e6e6"/>
      <path id="Path_1243" data-name="Path 1243" d="M220.473,544.319l-28.69-42.768L193.2,499.8l28.556,42.87Z" transform="translate(-43.084 -102.956)" fill="#e6e6e6"/>
      <path id="Path_1244" data-name="Path 1244" d="M66.117,425.544h8.326a16.1,16.1,0,0,1,15.895,16.3H66.117Z" transform="translate(-14.854 -87.738)" fill="#2f2e41"/>
      <path id="Path_1245" data-name="Path 1245" d="M369.623,505.6l-1.509-.115c-.059.8-.1,1.614-.15,2.422l-6.775-.233,7.107,13.655,7.981-13.137-6.8-.233C369.526,507.168,369.566,506.38,369.623,505.6Z" transform="translate(-203.674 -178.162)" fill="#3f3d56"/>
      <path id="Path_1246" data-name="Path 1246" d="M423.317,363.757l1.2.942c1.8-2.424,3.69-4.844,5.6-7.193l-1.162-1C427.034,358.878,425.135,361.315,423.317,363.757Z" transform="translate(-217.63 -147.632)" fill="#3f3d56"/>
      <path id="Path_1247" data-name="Path 1247" d="M438.272,346l1.118,1.047c2.008-2.255,4.093-4.495,6.2-6.658l-1.072-1.1C442.4,341.47,440.295,343.727,438.272,346Z" transform="translate(-220.99 -144.103)" fill="#3f3d56"/>
      <path id="Path_1248" data-name="Path 1248" d="M454.736,329.642l1.024,1.144c2.2-2.068,4.464-4.111,6.74-6.071l-.973-1.188C459.233,325.5,456.949,327.559,454.736,329.642Z" transform="translate(-224.688 -140.872)" fill="#3f3d56"/>
      <path id="Path_1249" data-name="Path 1249" d="M409.991,382.786l1.279.829c1.591-2.581,3.262-5.163,4.966-7.674l-1.242-.887C413.277,377.584,411.594,380.185,409.991,382.786Z" transform="translate(-214.637 -151.432)" fill="#3f3d56"/>
      <path id="Path_1250" data-name="Path 1250" d="M472.579,314.815l.922,1.231c2.365-1.862,4.8-3.692,7.232-5.438l-.868-1.272C477.413,311.1,474.962,312.938,472.579,314.815Z" transform="translate(-228.697 -137.963)" fill="#3f3d56"/>
      <path id="Path_1251" data-name="Path 1251" d="M398.406,402.94l1.346.709c1.364-2.719,2.806-5.444,4.286-8.1l-1.314-.771C401.232,397.454,399.78,400.2,398.406,402.94Z" transform="translate(-212.034 -155.475)" fill="#3f3d56"/>
      <path id="Path_1252" data-name="Path 1252" d="M378.553,459.9l-1.466-.387c-.748,2.978-1.441,6.015-2.059,9.027l1.481.32C377.124,465.868,377.811,462.853,378.553,459.9Z" transform="translate(-206.783 -168.741)" fill="#3f3d56"/>
      <path id="Path_1253" data-name="Path 1253" d="M491.665,301.63l.812,1.31c2.509-1.637,5.089-3.239,7.668-4.761l-.755-1.345C496.791,298.368,494.193,299.982,491.665,301.63Z" transform="translate(-232.984 -135.401)" fill="#3f3d56"/>
      <path id="Path_1254" data-name="Path 1254" d="M374.008,482.578l-1.494-.252c-.486,3.03-.913,6.118-1.269,9.178l1.5.183C373.1,488.651,373.525,485.587,374.008,482.578Z" transform="translate(-205.933 -173.417)" fill="#3f3d56"/>
      <path id="Path_1255" data-name="Path 1255" d="M388.661,424.069l1.4.584c1.122-2.833,2.323-5.68,3.569-8.461l-1.376-.648C391,418.347,389.791,421.215,388.661,424.069Z" transform="translate(-209.845 -159.73)" fill="#3f3d56"/>
      <path id="Path_1256" data-name="Path 1256" d="M380.841,446.011l1.448.453c.873-2.929,1.822-5.876,2.82-8.759l-1.427-.519C382.676,440.091,381.72,443.06,380.841,446.011Z" transform="translate(-208.089 -164.166)" fill="#3f3d56"/>
      <path id="Path_1257" data-name="Path 1257" d="M623.717,263.521c2.968-.105,5.989-.147,8.978-.119l.013-1.552c-3.01-.029-6.055.013-9.043.119Z" transform="translate(-262.637 -128.23)" fill="#3f3d56"/>
      <path id="Path_1258" data-name="Path 1258" d="M511.845,290.2l.7,1.378c2.644-1.4,5.35-2.765,8.044-4.045l-.636-1.408C517.234,287.413,514.508,288.784,511.845,290.2Z" transform="translate(-237.518 -133.206)" fill="#3f3d56"/>
      <path id="Path_1259" data-name="Path 1259" d="M669.93,265.992c2.953.429,5.933.93,8.858,1.492l.278-1.526c-2.946-.565-5.949-1.071-8.924-1.5Z" transform="translate(-273.03 -128.765)" fill="#3f3d56"/>
      <path id="Path_1260" data-name="Path 1260" d="M692.685,270.255c2.9.694,5.825,1.466,8.694,2.293l.409-1.495c-2.891-.833-5.838-1.61-8.759-2.31Z" transform="translate(-278.142 -129.644)" fill="#3f3d56"/>
      <path id="Path_1261" data-name="Path 1261" d="M714.969,276.53c2.826.956,5.673,1.991,8.46,3.078l.538-1.451c-2.808-1.094-5.675-2.138-8.523-3.1Z" transform="translate(-283.148 -130.938)" fill="#3f3d56"/>
      <path id="Path_1262" data-name="Path 1262" d="M646.886,263.759c2.981.16,5.993.391,8.953.684l.146-1.545c-2.982-.3-6.017-.528-9.02-.689Z" transform="translate(-267.854 -128.305)" fill="#3f3d56"/>
      <path id="Path_1263" data-name="Path 1263" d="M600.423,263.59l.185,1.541c2.95-.372,5.954-.682,8.927-.922l-.118-1.548C606.42,262.9,603.395,263.214,600.423,263.59Z" transform="translate(-257.416 -128.398)" fill="#3f3d56"/>
      <path id="Path_1264" data-name="Path 1264" d="M554.878,272.94l.448,1.483c2.845-.9,5.748-1.753,8.629-2.525l-.383-1.5C560.669,271.174,557.744,272.03,554.878,272.94Z" transform="translate(-247.185 -129.983)" fill="#3f3d56"/>
      <path id="Path_1265" data-name="Path 1265" d="M532.961,280.612l.575,1.436c2.752-1.158,5.564-2.267,8.356-3.3l-.511-1.46C538.566,278.329,535.734,279.446,532.961,280.612Z" transform="translate(-242.261 -131.396)" fill="#3f3d56"/>
      <path id="Path_1266" data-name="Path 1266" d="M577.434,267.249l.317,1.518c2.908-.639,5.873-1.221,8.814-1.728l-.251-1.531C583.351,266.02,580.363,266.605,577.434,267.249Z" transform="translate(-252.252 -128.981)" fill="#3f3d56"/>
      <path id="Path_1267" data-name="Path 1267" d="M750.648,289.549l-8.459-12.819-2.975,6.278c-.72-.33-1.436-.666-2.155-.986l-.6,1.425c.7.312,1.4.638,2.095.958l-2.96,6.249Z" transform="translate(-287.781 -131.281)" fill="#3f3d56"/>
    </g>
  </g>
</svg>
