<svg xmlns="http://www.w3.org/2000/svg" width="572" height="534" viewBox="0 0 572 534">
  <g id="Features_Hero_Image" data-name="Features Hero Image" transform="translate(-6265 13383)">
    <path id="Path_1270" data-name="Path 1270" d="M267.5,0C415.236,0,535,119.54,535,267S415.236,534,267.5,534,0,414.46,0,267,119.764,0,267.5,0Z" transform="translate(6302 -13383)" fill="#fff"/>
    <g id="Group_1058" data-name="Group 1058" transform="translate(6265 -13282.771)">
      <path id="Path_1150" data-name="Path 1150" d="M334.24,202.407H296.374a13.742,13.742,0,0,0-13.73,13.73v41.052c-.484-.029-.968-.072-1.445-.13a48.415,48.415,0,1,1,52.824-56.1C334.1,201.438,334.174,201.922,334.24,202.407Z" transform="translate(-213.184 -160.492)" fill="#f2f2f2"/>
      <path id="Path_1195" data-name="Path 1195" d="M0,41.914H37.866A13.742,13.742,0,0,1,51.6,55.644V96.7c.484-.029.968-.072,1.445-.13A48.415,48.415,0,1,0,.217,40.469C.137,40.946.065,41.43,0,41.914Z" transform="translate(560.334 239.138) rotate(90)" fill="#f2f2f2"/>
      <path id="Path_1151" data-name="Path 1151" d="M734.82,216.5H311.1a13.276,13.276,0,0,0-13.261,13.261V453.3A13.276,13.276,0,0,0,311.1,466.56H734.82A13.276,13.276,0,0,0,748.081,453.3V229.756A13.275,13.275,0,0,0,734.82,216.5Zm12,236.8a12.009,12.009,0,0,1-12,12H311.1a12.009,12.009,0,0,1-12-12V229.756a12.009,12.009,0,0,1,12-12H734.82a12.009,12.009,0,0,1,12,12Z" transform="translate(-229.212 -175.032)" fill="#636363"/>
      <path id="Path_1152" data-name="Path 1152" d="M733.513,273.128H351.47a.632.632,0,1,1,0-1.263H733.513a.632.632,0,1,1,0,1.263Z" transform="translate(-248.744 -195.437)" fill="#636363"/>
      <path id="Path_1153" data-name="Path 1153" d="M522.47,447.514a.631.631,0,0,1-.632-.631V239.126a.632.632,0,1,1,1.263,0V446.882a.631.631,0,0,1-.631.631Z" transform="translate(-311.761 -183.14)" fill="#636363"/>
      <path id="Path_1154" data-name="Path 1154" d="M673.469,447.514a.631.631,0,0,1-.631-.631V239.126a.631.631,0,1,1,1.263,0V446.882a.631.631,0,0,1-.631.631Z" transform="translate(-367.408 -183.14)" fill="#636363"/>
      <path id="Path_1155" data-name="Path 1155" d="M824.47,447.514a.631.631,0,0,1-.632-.631V239.126a.631.631,0,1,1,1.263,0V446.882A.631.631,0,0,1,824.47,447.514Z" transform="translate(-423.055 -183.14)" fill="#636363"/>
      <path id="Path_1156" data-name="Path 1156" d="M410.63,357.876H387.556a2.845,2.845,0,0,1-2.842-2.842V327.8a2.845,2.845,0,0,1,2.842-2.842H410.63a2.845,2.845,0,0,1,2.842,2.842v27.229A2.845,2.845,0,0,1,410.63,357.876Z" transform="translate(-261.228 -215.005)" fill="#6c63ff"/>
      <path id="Path_1157" data-name="Path 1157" d="M462.63,480.876H439.556a2.845,2.845,0,0,1-2.842-2.842V450.8a2.845,2.845,0,0,1,2.842-2.842H462.63a2.845,2.845,0,0,1,2.842,2.842v27.229A2.845,2.845,0,0,1,462.63,480.876Z" transform="translate(-280.391 -260.334)" fill="#6c63ff"/>
      <path id="Path_1158" data-name="Path 1158" d="M580.63,383.876H557.556a2.845,2.845,0,0,1-2.842-2.842V353.8a2.845,2.845,0,0,1,2.842-2.842H580.63a2.845,2.845,0,0,1,2.842,2.842v27.229A2.845,2.845,0,0,1,580.63,383.876Z" transform="translate(-323.877 -224.587)" fill="#fb0"/>
      <path id="Path_1159" data-name="Path 1159" d="M733.63,336.876H710.556a2.845,2.845,0,0,1-2.842-2.842V306.8a2.845,2.845,0,0,1,2.842-2.842H733.63a2.845,2.845,0,0,1,2.842,2.842v27.229a2.845,2.845,0,0,1-2.842,2.842Z" transform="translate(-380.261 -207.266)" fill="#6c63ff"/>
      <path id="Path_1160" data-name="Path 1160" d="M874.63,336.876H851.556a2.845,2.845,0,0,1-2.842-2.842V306.8a2.845,2.845,0,0,1,2.842-2.842H874.63a2.845,2.845,0,0,1,2.842,2.842v27.229A2.845,2.845,0,0,1,874.63,336.876Z" transform="translate(-432.223 -207.266)" fill="#fb0"/>
      <path id="Path_1161" data-name="Path 1161" d="M939.63,348.876H916.556a2.845,2.845,0,0,1-2.841-2.842V318.8a2.845,2.845,0,0,1,2.842-2.842H939.63a2.845,2.845,0,0,1,2.842,2.842v27.229A2.845,2.845,0,0,1,939.63,348.876Z" transform="translate(-456.177 -211.688)" fill="#e6e6e6"/>
      <path id="Path_1162" data-name="Path 1162" d="M910.63,425.876H887.556a2.845,2.845,0,0,1-2.842-2.842V395.8a2.845,2.845,0,0,1,2.842-2.842H910.63a2.845,2.845,0,0,1,2.842,2.842v27.229A2.845,2.845,0,0,1,910.63,425.876Z" transform="translate(-445.49 -240.065)" fill="#e6e6e6"/>
      <path id="Path_1163" data-name="Path 1163" d="M786.63,409.876H763.556a2.845,2.845,0,0,1-2.841-2.842V379.8a2.845,2.845,0,0,1,2.841-2.842H786.63a2.845,2.845,0,0,1,2.842,2.842v27.229A2.845,2.845,0,0,1,786.63,409.876Z" transform="translate(-399.793 -234.168)" fill="#ff6584"/>
      <path id="Path_1164" data-name="Path 1164" d="M715.63,425.876H692.556a2.845,2.845,0,0,1-2.841-2.842V395.8a2.845,2.845,0,0,1,2.841-2.842H715.63a2.845,2.845,0,0,1,2.842,2.842v27.229A2.845,2.845,0,0,1,715.63,425.876Z" transform="translate(-373.627 -240.065)" fill="#e6e6e6"/>
      <path id="Path_1165" data-name="Path 1165" d="M562.63,493.876H539.556a2.845,2.845,0,0,1-2.842-2.842V463.8a2.845,2.845,0,0,1,2.842-2.842H562.63a2.845,2.845,0,0,1,2.842,2.842v27.229A2.845,2.845,0,0,1,562.63,493.876Z" transform="translate(-317.243 -265.124)" fill="#e6e6e6"/>
      <path id="Path_1166" data-name="Path 1166" d="M377.63,436.876H354.556a2.845,2.845,0,0,1-2.842-2.842V406.8a2.845,2.845,0,0,1,2.842-2.842H377.63a2.845,2.845,0,0,1,2.842,2.842v27.229A2.845,2.845,0,0,1,377.63,436.876Z" transform="translate(-249.066 -244.119)" fill="#ff6584"/>
      <path id="Path_1167" data-name="Path 1167" d="M480.63,357.876H457.556a2.845,2.845,0,0,1-2.842-2.842V327.8a2.845,2.845,0,0,1,2.842-2.842H480.63a2.845,2.845,0,0,1,2.842,2.842v27.229A2.845,2.845,0,0,1,480.63,357.876Z" transform="translate(-287.024 -215.005)" fill="#e6e6e6"/>
      <path id="Path_1168" data-name="Path 1168" d="M443.358,254.547H407.364a2.526,2.526,0,0,1,0-5.052h35.994a2.526,2.526,0,0,1,0,5.052Z" transform="translate(-268.644 -187.193)" fill="#ccc"/>
      <path id="Path_1169" data-name="Path 1169" d="M604.358,254.547H568.364a2.526,2.526,0,1,1,0-5.052h35.994a2.526,2.526,0,0,1,0,5.052Z" transform="translate(-327.976 -187.193)" fill="#ccc"/>
      <path id="Path_1170" data-name="Path 1170" d="M755.358,254.547H719.364a2.526,2.526,0,1,1,0-5.052h35.994a2.526,2.526,0,1,1,0,5.052Z" transform="translate(-383.623 -187.193)" fill="#ccc"/>
      <path id="Path_1171" data-name="Path 1171" d="M896.358,254.547H860.364a2.526,2.526,0,1,1,0-5.052h35.994a2.526,2.526,0,1,1,0,5.052Z" transform="translate(-435.585 -187.193)" fill="#ccc"/>
      <path id="Path_1172" data-name="Path 1172" d="M325.518,535.635a6.35,6.35,0,0,1-5.494-8.039l-16.187-15.068,8.558-2.171,15.917,12.91a6.384,6.384,0,0,1-2.795,12.368Z" transform="translate(-231.423 -283.327)" fill="#ffb8b8"/>
      <path id="Path_1173" data-name="Path 1173" d="M184.4,548.826h7.742l3.683-29.861H184.4Z" transform="translate(-67.957 -185.151)" fill="#ffb8b8"/>
      <path id="Path_1174" data-name="Path 1174" d="M0,0H24.331V9.4H9.4A9.4,9.4,0,0,1,0,0H0Z" transform="translate(139.117 370.864) rotate(179.997)" fill="#2f2e41"/>
      <path id="Path_1175" data-name="Path 1175" d="M100.345,540.561l7.482,1.992,11.241-27.909-11.041-2.939Z" transform="translate(-36.98 -182.475)" fill="#ffb8b8"/>
      <path id="Path_1176" data-name="Path 1176" d="M0,0H24.331V9.4H9.4A9.4,9.4,0,0,1,0,0H0Z" transform="matrix(-0.966, -0.257, 0.257, -0.966, 83.426, 370.866)" fill="#2f2e41"/>
      <path id="Path_1177" data-name="Path 1177" d="M351.613,637.519H339.8a2.987,2.987,0,0,1-2.984-2.711l-7.172-74.471a2.367,2.367,0,0,0-4.623-.451L304.2,629.474a3,3,0,0,1-3.6,2.05l-10.99-2.748a3,3,0,0,1-2.177-3.654c.18-.7,17.941-70.112,18.1-70.825,4.024-29.659,8.839-37.607,11.425-41.876.214-.353.411-.678.588-.985.222-.384,1.587-4.2,2.452-6.671a3.025,3.025,0,0,1,1.538-1.88c10.868-5.558,23.584-1.711,27.222-.4a2.957,2.957,0,0,1,1.476,1.146c10.915,16.463,5.558,112.081,4.374,131.083a3,3,0,0,1-2.992,2.806Z" transform="translate(-225.343 -279.497)" fill="#2f2e41"/>
      <circle id="Ellipse_316" data-name="Ellipse 316" cx="15.51" cy="15.51" r="15.51" transform="translate(80.275 138.371)" fill="#ffb8b8"/>
      <path id="Path_1178" data-name="Path 1178" d="M327.419,480.668l-.112-.108c-.209-.2-20.874-20.447-18.2-39.167,1.144-8.007,7.622-13.123,18.734-14.8a17.135,17.135,0,0,1,18.944,12.075l10.988,37.563Z" transform="translate(-233.277 -252.391)" fill="#ccc"/>
      <path id="Path_1179" data-name="Path 1179" d="M311.482,502.2l-14.725-14.632a8.3,8.3,0,0,1-2.2-7.825l7.129-29a6.539,6.539,0,1,1,12.622,3.406l-7.5,25.509L318.942,492.7Z" transform="translate(-227.917 -259.526)" fill="#ccc"/>
      <path id="Path_1180" data-name="Path 1180" d="M429.609,450.747a6.35,6.35,0,0,1-9.4,2.544L400.553,463.48l.869-8.655,17.427-10.785a6.384,6.384,0,0,1,10.761,6.707Z" transform="translate(-267.065 -258.006)" fill="#ffb8b8"/>
      <path id="Path_1181" data-name="Path 1181" d="M396.687,453.5l-19.163,8.281a8.088,8.088,0,0,1-7.879-.845l-24.368-17.46a6.539,6.539,0,1,1,7.852-10.453l20.895,16.445,16.608-6.425Z" transform="translate(-245.688 -254.317)" fill="#ccc"/>
      <path id="Path_1182" data-name="Path 1182" d="M323.142,388.274c1.913-2.4,5.488-2.526,8.116-4.108,3.443-2.071,4.866-6.7,3.757-10.562a13.251,13.251,0,0,0-8.132-8.31A22.442,22.442,0,0,0,315,364.532c-5.892,1.036-11.692,3.786-15.286,8.568s-4.508,11.787-1.251,16.805c1.5,2.306,3.807,4.21,4.4,6.894.785,3.523-1.687,6.921-4.335,9.375-3.016,2.8-6.477,5.136-9.12,8.287s-4.4,7.455-3.2,11.387c1.01,3.294,3.95,5.721,7.174,6.936a30.409,30.409,0,0,0,10.18,1.458c3.345.065,6.9-.016,9.716-1.82a11.3,11.3,0,0,0,4.746-9.173,21.725,21.725,0,0,0-2.68-10.29,39.56,39.56,0,0,1-2.7-5.8,8.126,8.126,0,0,1,.272-6.228,7.766,7.766,0,0,1,5.433-3.6c.114-.022.235-.043.362-.06a4.672,4.672,0,0,0,4-5.448A4.562,4.562,0,0,1,323.142,388.274Z" transform="translate(-224.786 -229.423)" fill="#2f2e41"/>
      <path id="Path_1183" data-name="Path 1183" d="M476.562,549.873H468.82l-3.683-29.861h11.426Z" transform="translate(-171.414 -185.536)" fill="#a0616a"/>
      <path id="Path_1184" data-name="Path 1184" d="M456.726,563.8h14.931v9.4H447.325A9.4,9.4,0,0,1,456.726,563.8Z" transform="translate(-164.85 -201.672)" fill="#2f2e41"/>
      <path id="Path_1185" data-name="Path 1185" d="M558.879,537.561l-7.042,3.216-15.758-25.631,10.393-4.747Z" transform="translate(-197.558 -181.994)" fill="#a0616a"/>
      <path id="Path_1186" data-name="Path 1186" d="M9.4,0H24.331V9.4H0A9.4,9.4,0,0,1,9.4,0Z" transform="translate(339.777 362.977) rotate(-24.548)" fill="#2f2e41"/>
      <path id="Path_1187" data-name="Path 1187" d="M719.658,550.627a6.35,6.35,0,0,0,.506-9.724l9.1-20.649L717.7,522.213l-6.87,19.308a6.384,6.384,0,0,0,8.825,9.105Z" transform="translate(-380.883 -286.974)" fill="#a0616a"/>
      <path id="Path_1188" data-name="Path 1188" d="M663.281,649.155h-7.4a2.852,2.852,0,0,1-2.834-2.636l-4.033-107.7a2.842,2.842,0,0,1,3.11-3.034l42.773,4.543a2.842,2.842,0,0,1,2.565,2.774l.9,47.509a2.209,2.209,0,0,0,.148.754l17.546,45.5a2.841,2.841,0,0,1-1.669,3.688l-7.495,2.761a2.843,2.843,0,0,1-3.509-1.367l-21.554-41.911a2.83,2.83,0,0,1-.255-.721l-3.682-17.74a2.21,2.21,0,0,0-4.36.2L666.1,646.636a2.841,2.841,0,0,1-2.823,2.519Z" transform="translate(-358.627 -292.692)" fill="#2f2e41"/>
      <circle id="Ellipse_317" data-name="Ellipse 317" cx="15.51" cy="15.51" r="15.51" transform="translate(292.827 130.891)" fill="#a0616a"/>
      <path id="Path_1189" data-name="Path 1189" d="M676.923,505.229a55.359,55.359,0,0,1-29.6-8.966l-.151-.1.016-.183,5.933-69.094A9.738,9.738,0,0,1,662.34,418c7.689-.353,18.017.092,23.545,4.21a26.96,26.96,0,0,1,11.048,25.709c-2.766,20.977.367,49.274.734,52.431l.026.228-.208.1a48.791,48.791,0,0,1-20.563,4.553Z" transform="translate(-357.95 -249.257)" fill="#6c63ff"/>
      <path id="Path_1190" data-name="Path 1190" d="M720.607,509.78a3.161,3.161,0,0,1-2.324-1.024l-3.393-3.7a3.174,3.174,0,0,1-.7-3.028l7.736-26.183-11.771-24.718a5.563,5.563,0,0,1,9.92-5.029l15.973,25.917a7.547,7.547,0,0,1,.455,7.071l-13.015,28.836a3.165,3.165,0,0,1-2.881,1.859Z" transform="translate(-380.962 -258.568)" fill="#6c63ff"/>
      <path id="Path_1191" data-name="Path 1191" d="M552.378,462.718a6.35,6.35,0,0,0,9.471-2.259l22.378,2.9-5.143-10.538-20.462-1.14a6.384,6.384,0,0,0-6.244,11.036Z" transform="translate(-322.055 -261.521)" fill="#a0616a"/>
      <path id="Path_1192" data-name="Path 1192" d="M609.02,455.884a8.468,8.468,0,0,1-1.164-.08l-35.206-4.883a3.5,3.5,0,0,1-2.684-1.965,3.572,3.572,0,0,1-.2-.524h0a3.514,3.514,0,0,1,.363-2.8l2.914-4.83a3.526,3.526,0,0,1,3-1.7h0l30.687.035,22.919-20.534a6.21,6.21,0,0,1,8.512,9.04L615.3,453.084A8.439,8.439,0,0,1,609.02,455.884Z" transform="translate(-329.371 -248.932)" fill="#6c63ff"/>
      <path id="Path_1193" data-name="Path 1193" d="M667.357,383.807c1.417-3.28,2.617-7.649-.1-9.968-1.577-1.345-3.848-1.348-5.914-1.515-5.82-.471-11.812-3.15-14.657-8.249s-1.256-12.683,4.111-14.984c3.618-1.551,7.766-.494,11.552.579l11.37,3.224c3.378.958,6.926,2.015,9.358,4.548,3.879,4.04,3.589,10.869.508,15.546s-7.721,9.555-13.032,11.33Z" transform="translate(-357.257 -223.608)" fill="#2f2e41"/>
      <path id="Path_1194" data-name="Path 1194" d="M656.129,738.627H189.914a.752.752,0,1,1,0-1.5H656.129a.752.752,0,1,1,0,1.5Z" transform="translate(-189.162 -366.896)" fill="#3f3d56"/>
    </g>
  </g>
</svg>
