<svg xmlns="http://www.w3.org/2000/svg" enable-background="new 0 0 1500 1500" viewBox="0 0 1500 1500" id="task-management"><path d="M23.74,622.98C10.65,622.98,0,633.63,0,646.72v177.02c0,12.42,9.58,22.64,21.74,23.65c0.66,0.06,1.33,0.09,1.99,0.09
			s1.34-0.03,1.99-0.09c12.16-1.01,21.74-11.23,21.74-23.65V646.72C47.47,633.63,36.82,622.98,23.74,622.98z M43.48,823.74
			c0,10.88-8.86,19.75-19.75,19.75s-19.75-8.87-19.75-19.75V646.72c0-10.89,8.86-19.75,19.75-19.75s19.75,8.86,19.75,19.75V823.74z"></path><path d="M43.48 646.72v177.02c0 10.88-8.86 19.75-19.75 19.75s-19.75-8.87-19.75-19.75V646.72c0-10.89 8.86-19.75 19.75-19.75S43.48 635.83 43.48 646.72zM23.73 1037.08c-1.1 0-1.99-.89-1.99-1.99V845.48c0-1.1.89-1.99 1.99-1.99 1.1 0 1.99.89 1.99 1.99v189.61C25.73 1036.19 24.84 1037.08 23.73 1037.08z"></path><path d="M245.63,1033H25.73c-1.36,0-2.69,0.12-3.99,0.36c-11,1.9-19.39,11.52-19.39,23.06v0.27c0,12.92,10.51,23.42,23.43,23.42
			h219.85c4.83,0,9.34-1.47,13.07-3.99c6.24-4.21,10.35-11.35,10.35-19.43v-0.27C269.05,1043.5,258.55,1033,245.63,1033z
			 M265.06,1056.69c0,10.71-8.72,19.43-19.43,19.43H25.78c-10.72,0-19.44-8.72-19.44-19.43v-0.27c0-10.71,8.72-19.43,19.44-19.43
			h219.85c10.71,0,19.43,8.72,19.43,19.43V1056.69z"></path><path d="M265.06 1056.42v.27c0 10.71-8.72 19.43-19.43 19.43H25.78c-10.72 0-19.44-8.72-19.44-19.43v-.27c0-10.71 8.72-19.43 19.44-19.43h219.85C256.35 1036.99 265.06 1045.71 265.06 1056.42zM135.71 1427.07c-1.1 0-1.99-.89-1.99-1.99v-346.96c0-1.1.89-1.99 1.99-1.99 1.1 0 1.99.89 1.99 1.99v346.96C137.7 1426.18 136.81 1427.07 135.71 1427.07z"></path><path d="M164.88 1427.07H95.67c-1.1 0-1.99-.89-1.99-1.99 0-1.1.89-1.99 1.99-1.99h69.21c1.1 0 1.99.89 1.99 1.99C166.87 1426.18 165.98 1427.07 164.88 1427.07zM241.7 478.1h-44.11c-5.45 0-11.03-.59-17.07-1.81-9.33-1.88-17.19-.49-23.37 4.13-3.28 2.45-6.62 4.51-9.96 6.1-13.32 6.41-21.03 18.5-21.69 34.05-.98 23.01 13.54 48.08 35.34 61.01.08.06.16.11.25.15.29.15.6.22.91.22.32 0 .65-.08.94-.24.3-.16.55-.39.72-.66.09-.13.17-.27.21-.42.08-.18.12-.37.13-.57l.07-1.3.83-15.47c.04-.66-.25-1.29-.77-1.69-7.58-5.84-11.16-17.52-10.13-25 .37-2.66 1.46-6.1 4.55-7.35 4.05-1.64 10.62.9 18.5 7.12 1.83 1.45 4.11 2.23 6.42 2.23 2.98 0 5.42-2.42 5.42-5.42v-17.41c0-5.2 2.95-9.82 7.52-11.79 3.4-1.46 7.14-1.32 11.44.43 6.11 2.49 12.82 3.75 19.9 3.75h13.98c.15 0 .3 0 .45-.01 8.09-.23 14.59-6.88 14.59-15.03C256.74 484.85 249.99 478.1 241.7 478.1zM241.7 504.19h-13.98c-6.56 0-12.76-1.17-18.39-3.45-5.28-2.14-10.15-2.28-14.52-.4-6.03 2.59-9.93 8.66-9.93 15.45v17.41c0 .79-.64 1.43-1.43 1.43-1.43 0-2.83-.49-3.95-1.38-9.32-7.35-16.88-9.94-22.47-7.69-3.79 1.53-6.28 5.26-7 10.5-1.17 8.49 2.56 21.07 10.82 28.05l-.67 12.37c-19.09-12.62-31.58-35.08-30.7-55.73.6-14 7.5-24.88 19.44-30.62 3.56-1.72 7.13-3.9 10.62-6.5 3.72-2.78 8.08-4.17 13.21-4.17 2.18 0 4.51.25 6.98.75 6.29 1.27 12.14 1.89 17.85 1.89h44.11c6.09 0 11.05 4.96 11.05 11.05C252.75 499.23 247.79 504.19 241.7 504.19z"></path><path d="M252.75,493.14c0,6.09-4.96,11.05-11.05,11.05h-13.98c-6.56,0-12.76-1.17-18.39-3.45c-5.28-2.14-10.15-2.28-14.52-0.4
			c-6.03,2.59-9.93,8.66-9.93,15.45v17.41c0,0.79-0.64,1.43-1.43,1.43c-1.43,0-2.83-0.49-3.95-1.38
			c-9.32-7.35-16.88-9.94-22.47-7.69c-3.79,1.53-6.28,5.26-7,10.5c-1.17,8.49,2.56,21.07,10.82,28.05l-0.67,12.37
			c-19.09-12.62-31.58-35.08-30.7-55.73c0.6-14,7.5-24.88,19.44-30.62c3.56-1.72,7.13-3.9,10.62-6.5c3.72-2.78,8.08-4.17,13.21-4.17
			c2.18,0,4.51,0.25,6.98,0.75c6.29,1.27,12.14,1.89,17.85,1.89h44.11C247.79,482.09,252.75,487.05,252.75,493.14z"></path><path d="M242.24,506.29l-0.1,1.87l-2.53,47.63c-0.31,5.81-1.37,11.38-3.13,16.53c-3.75,10.89-9.86,18.11-18.17,21.46
			c-2.71,1.09-5.65,1.78-8.86,2.06c-1.15,0.11-2.32,0.16-3.54,0.16h-0.45c-10.21-0.11-22.83-3.85-38.51-11.35
			c-1.22-0.59-2.44-1.2-3.7-1.82c-0.72-0.37-1.45-0.74-2.18-1.12c-0.09-0.04-0.17-0.09-0.25-0.15c-0.8-0.57-1.08-1.65-0.62-2.54
			c0.5-0.98,1.71-1.37,2.68-0.86c0.39,0.2,0.78,0.4,1.16,0.59c18.27,9.26,32.26,13.6,43,13.25c0.22-0.01,0.45-0.02,0.67-0.03
			c3.35-0.17,6.37-0.81,9.11-1.91c7.29-2.93,12.5-9.17,15.89-19.05c1.66-4.8,2.64-9.99,2.93-15.45l2.51-47.4l0.11-2.1
			c0.06-1.06,0.95-1.89,1.98-1.89h0.11C241.46,504.25,242.29,505.19,242.24,506.29z"></path><path d="M209.45,593.97v35.87c0,1.28-0.48,2.47-1.33,3.37c-0.34,0.39-0.77,0.73-1.25,0.99c-5.56,3-11.91,4.26-18.25,4.26
			c-13.57,0-27.09-5.77-32.46-12.62c-0.25-0.3-0.47-0.6-0.67-0.9c-0.3-0.44-0.41-0.99-0.31-1.51l0.31-1.58l7.76-39.02l0.3-1.51
			c0.02-0.1,0.05-0.2,0.08-0.29c0-0.01,0-0.02,0.01-0.02c0.09-0.12,0.16-0.25,0.2-0.39c-0.01-0.01,0-0.01,0-0.01
			c0.43-0.66,1.23-1.03,2.05-0.86c1.08,0.21,1.79,1.27,1.57,2.34l-0.51,2.54l-7.68,38.71c6.81,8.79,30.16,15.72,45.71,7.32
			c0.27-0.15,0.46-0.45,0.47-0.79c0.01-0.02,0.01-0.04,0.01-0.06v-35.87c0-0.96,0.66-1.75,1.56-1.94c0,0,0.01,0,0.02,0
			c0.13-0.03,0.28-0.05,0.42-0.05c0.09,0,0.17,0.01,0.25,0.02c0.01,0,0.01,0,0.01,0C208.69,592.13,209.45,592.95,209.45,593.97z"></path><path d="M220.27 898.21c-.09.19-.21.36-.37.51-.19.19-.39.38-.59.57-.7.66-1.43 1.31-2.19 1.93-18.38 15.2-56.43 22.76-91.94 22.77-24.34 0-47.46-3.55-62.28-10.62-.91-.43-1.79-.88-2.62-1.34-.41-.22-.8-.47-1.18-.73-4.26-2.92-6.59-8.12-5.87-13.35 3.65-26.82 5.99-54.28 8.26-80.82 4.37-51.18 8.5-99.51 21.25-135.24 14.27-39.94 37.42-59.05 72.77-60.02.54-.01 1.09-.02 1.63-.03 1.07-.01 2 .87 2.01 1.97.02 1.1-.87 2-1.96 2.01-.34 0-.68.01-1.01.02-74.49 1.65-82.01 89.71-90.71 191.62-2.27 26.6-4.62 54.11-8.29 81.02-.55 4.07 1.46 8.11 5.01 10.03 16.64 9.07 47.44 13.23 80.43 10.91 30.93-2.19 56.69-9.6 70.54-20.15.75-.56 1.45-1.14 2.12-1.71.05-.05.1-.1.16-.15.59-.51 1.15-1.03 1.68-1.56.39-.39.9-.58 1.4-.58.52 0 1.04.2 1.43.6C220.55 896.52 220.66 897.46 220.27 898.21zM397.33 798.06v48.14c0 1.11-.89 1.99-1.99 1.99-1.1 0-1.99-.89-1.99-1.99v-48.14c0-.86-.57-1.64-1.4-1.89l-115.53-34.56c-3.88-1.16-6.96-4.14-8.25-7.96-15.39-45.75-34.51-95.6-60.04-120.44-.67-.65-1.34-1.28-2.01-1.89-.42-.38-.65-.9-.66-1.42 0-.06 0-.12.01-.17.02-.44.2-.87.52-1.23.74-.82 2-.88 2.81-.14.22.2.44.4.66.61 26.9 24.98 46.68 76.36 62.49 123.4.88 2.6 2.97 4.63 5.61 5.42l115.53 34.56c1.9.57 3.37 2.06 3.96 3.9C397.23 796.82 397.33 797.43 397.33 798.06z"></path><path d="M515.28,866.31h-154c-1.1,0-1.99-0.89-1.99-1.99v-18.3c0-0.53,0.21-1.04,0.59-1.41c0.37-0.37,0.88-0.58,1.41-0.58
			c0,0,0.01,0,0.01,0l135.62,0.72l21.47-135.1c0.15-0.97,0.99-1.68,1.97-1.68h20.29c0.59,0,1.14,0.26,1.52,0.7
			c0.38,0.45,0.54,1.04,0.45,1.61l-25.37,154.37C517.09,865.61,516.26,866.31,515.28,866.31z M363.27,862.32h150.32l24.71-150.38
			h-16.24l-21.47,135.11c-0.15,0.97-0.99,1.68-1.97,1.68c0,0-0.01,0-0.01,0l-135.33-0.71V862.32z"></path><path d="M472.87,847.16l-0.04,0.1c-0.04,0.1-0.08,0.2-0.13,0.29c-0.05,0.1-0.11,0.18-0.17,0.26c-0.06,0.09-0.13,0.16-0.21,0.23
			c-0.06,0.07-0.13,0.12-0.21,0.17c-0.26,0.19-0.56,0.31-0.88,0.36c-0.01,0.01-0.03,0.01-0.04,0.01c-0.08,0.01-0.16,0.01-0.24,0.01
			c-0.11,0-0.22-0.01-0.33-0.03c-0.07-0.01-0.14-0.02-0.2-0.05c-0.07-0.01-0.13-0.03-0.18-0.05c-0.12-0.04-0.22-0.1-0.32-0.16
			c-0.17-0.1-0.33-0.23-0.46-0.38c-0.06-0.06-0.11-0.12-0.15-0.19c-0.05-0.06-0.09-0.12-0.12-0.19c-0.06-0.11-0.11-0.22-0.15-0.34
			c-0.03-0.12-0.06-0.25-0.08-0.37c-0.09-0.76-0.21-1.51-0.37-2.24c-2.58-12.94-13.57-22.64-26.94-23.43l-44.33-2.63l-3.99-0.23
			l-114.84-6.81c-7.17-0.43-13.55-4.42-17.07-10.68c-30.19-53.74-62.88-93.74-99.95-122.3c-11.48-8.84-26.62-10.79-39.49-5.09
			c-11.71,5.18-18.89,15.27-23.3,32.72c-3.61,14.31-0.77,29.41,7.8,41.43c31.66,44.41,121.65,109.25,129.34,114.75
			c0.31,0.22,0.48,0.34,0.52,0.37c0.9,0.64,1.11,1.88,0.47,2.78c-0.39,0.55-1,0.84-1.63,0.84c-0.4,0-0.8-0.12-1.15-0.37
			c-0.13-0.09-1.92-1.37-5.03-3.62c-2.01-1.47-4.58-3.34-7.59-5.59c-1.26-0.93-2.58-1.92-3.99-2.97
			c-29.28-21.93-89.34-69.02-114.2-103.88c-9.25-12.98-12.32-29.27-8.42-44.72c4.74-18.75,12.62-29.67,25.55-35.4
			c14.21-6.29,30.9-4.16,43.54,5.59c37.5,28.88,70.54,69.29,101,123.5c2.85,5.08,8.02,8.31,13.83,8.66l114.6,6.79l3.99,0.24
			l44.57,2.64c13.67,0.81,25.16,9.82,29.45,22.35c0.57,1.64,1.01,3.33,1.32,5.08c0.1,0.58,0.19,1.16,0.26,1.75
			C472.97,846.64,472.94,846.92,472.87,847.16z"></path><path d="M475.86 838.78l-2.08 5.84-.91 2.54-.04.1c-.04.1-.08.2-.13.29-.05.1-.11.18-.17.26-.06.09-.13.16-.21.23-.06.07-.13.12-.21.17-.26.19-.56.31-.88.36-.09.01-.18.02-.28.02-.11 0-.22-.01-.33-.03-.07-.01-.14-.02-.2-.05-.05 0-.09-.02-.14-.03-.01-.01-.03-.01-.04-.02-.12-.04-.22-.1-.32-.16-.17-.1-.33-.23-.46-.38-.06-.06-.11-.12-.15-.19-.05-.06-.09-.12-.12-.19-.06-.11-.11-.22-.15-.34-.03-.12-.06-.25-.08-.37-.03-.3 0-.61.11-.91l.47-1.34 1.81-5.06.75-2.1c1.94-5.45 1.5-11.49-1.24-16.59-2.72-5.11-7.52-8.85-13.13-10.25-15.63-3.92-34.32-7.1-60.4-10.29-.74-.09-1.49-.18-2.23-.27-1.01-.12-1.76-.97-1.76-1.96v-.01c0-.08.01-.15.02-.24.13-1.1 1.13-1.88 2.21-1.75l1.47.18c26.65 3.24 45.71 6.47 61.66 10.47 6.71 1.69 12.43 6.14 15.69 12.24C477.65 825.04 478.18 832.26 475.86 838.78zM204.91 895.3c-7.99 0-14.49-6.5-14.49-14.49 0-7.99 6.5-14.49 14.49-14.49h156.36c-1.1 0-1.99-.9-1.99-1.99v-1.99H204.91c-10.18 0-18.48 8.29-18.48 18.48 0 10.19 8.3 18.48 18.48 18.48h8.23c.75-.56 1.45-1.14 2.12-1.71.05-.05.1-.1.16-.15.55-.49 1.36-.66 2.08-.36l2.76 1.14c-.09.19-.21.36-.37.51-.19.19-.39.38-.59.57h69.31v-1.99c0-1.1.9-1.99 1.99-1.99H204.91zM822.57 862.32H204.91c-10.18 0-18.48 8.29-18.48 18.48 0 10.19 8.3 18.48 18.48 18.48h617.65c10.18 0 18.48-8.29 18.48-18.48C841.05 870.61 832.75 862.32 822.57 862.32zM822.57 895.3H204.91c-7.99 0-14.49-6.5-14.49-14.49 0-7.99 6.5-14.49 14.49-14.49h617.65c7.99 0 14.49 6.5 14.49 14.49C837.06 888.79 830.56 895.3 822.57 895.3zM95.15 1036.99c-.3 0-.61-.07-.89-.21-19.82-9.96-32.15-35.13-35.64-72.79-2.61-28.13.59-53.71.63-53.96.14-1.09 1.14-1.86 2.23-1.73 1.09.14 1.87 1.14 1.73 2.23-.13 1-12.24 100.03 32.85 122.68.98.49 1.38 1.69.89 2.68C96.59 1036.58 95.88 1036.99 95.15 1036.99z"></path><path d="M449.51 1361.96c-.06 1.05-.94 1.88-1.99 1.88h-64.14c-.98 0-1.81-.71-1.96-1.68l-29.62-182.53c-.73-4.52-1.41-9.07-2-13.63-.35-2.58-.67-5.17-.97-7.75-.98-8.3-1.74-16.63-2.27-24.91l-3.29-50.9c-.09-1.31-1.18-2.32-2.47-2.32h-95.15c-1.1 0-1.99-.89-1.99-1.99 0-1.1.9-1.99 1.99-1.99h95.15c3.39 0 6.23 2.66 6.45 6.05l3.3 50.9c.54 8.39 1.32 16.82 2.3 25.21.82 6.94 1.79 13.85 2.89 20.7l29.34 180.86h60.56c7.58-131.05 7.27-253.09-.82-318.82-3.31-36.42-31.38-62.89-88.33-83.35-9.46-3.4-19.45-7.26-30.51-11.8l-36.13-14.83-72.72-29.83-1.13-.46c-.65-.27-1.08-.84-1.2-1.48-.08-.37-.04-.76.11-1.13.12-.29.3-.54.52-.73.55-.49 1.36-.66 2.08-.36l2.76 1.14 2.63 1.08 65.71 26.96 3.99 1.65 34.87 14.3c11.01 4.52 20.93 8.36 30.35 11.74 58.59 21.04 87.49 48.59 90.96 86.68C456.93 1106.81 457.21 1229.97 449.51 1361.96zM488.42 1402.24l-51.95-13.68-1.49-.39c-.16-.04-.34-.06-.51-.06h-47.19c-1.66 0-2.99 1.34-2.99 2.99v35.69c0 1.65 1.34 2.98 2.99 2.98h110.21c3.79 0 6.87-3.07 6.87-6.86C504.36 1413.22 497.8 1404.72 488.42 1402.24zM497.48 1425.79H388.27v-33.69h45.94l53.19 14c7.63 2.01 12.97 8.93 12.97 16.82C500.37 1424.51 499.07 1425.79 497.48 1425.79z"></path><path fill="#f7b402" d="M500.37,1422.92c0,1.59-1.3,2.87-2.88,2.87H388.27v-33.69h45.94l53.19,14
			C495.03,1408.12,500.37,1415.03,500.37,1422.92z"></path><path d="M390.75 1392.1c-1.1 0-1.99-.89-1.99-1.99v-28.26c0-1.1.89-1.99 1.99-1.99 1.1 0 1.99.89 1.99 1.99v28.26C392.74 1391.21 391.85 1392.1 390.75 1392.1zM434.47 1392.1c-1.1 0-1.99-.89-1.99-1.99v-28.26c0-1.1.89-1.99 1.99-1.99s1.99.89 1.99 1.99v28.26C436.47 1391.21 435.58 1392.1 434.47 1392.1z"></path><path fill="#f7b402" d="M393.34,798.06v16.25l-114.6-6.79c-5.81-0.35-10.98-3.58-13.83-8.66c-30.46-54.22-63.5-94.62-101-123.5
			c-12.65-9.74-29.33-11.88-43.54-5.59c-12.94,5.72-20.81,16.65-25.55,35.4c-3.9,15.45-0.83,31.75,8.42,44.72
			c24.85,34.87,84.91,81.95,114.2,103.88v8.56h-12.51c-10.18,0-18.48,8.29-18.48,18.48c0,10.19,8.3,18.48,18.48,18.48h8.23
			c-13.85,10.54-39.61,17.95-70.54,20.15c-32.98,2.32-63.79-1.85-80.43-10.91c-3.55-1.92-5.56-5.96-5.01-10.03
			c3.67-26.92,6.01-54.42,8.29-81.02c8.7-101.91,16.22-189.97,90.71-191.62c5.38,6.84,18.89,12.62,32.46,12.62
			c6.34,0,12.7-1.26,18.25-4.26c0.48-0.26,0.91-0.6,1.25-0.99c25.53,24.84,44.65,74.69,60.04,120.44c1.29,3.82,4.37,6.8,8.25,7.96
			l115.53,34.56C392.77,796.42,393.34,797.2,393.34,798.06z"></path><path d="M221.41 852.79v11.53c0 1.1-.9 1.99-1.99 1.99-1.1 0-1.99-.9-1.99-1.99v-11.53c0-1.11.9-1.99 1.99-1.99C220.51 850.8 221.41 851.68 221.41 852.79zM348.82 1158.25l-60.04 136.94-23.52 53.63-48.82-17.69-5.74-2.08 56.88-248.94h73.2c1.3 0 2.38 1.02 2.47 2.32l3.29 50.9C347.08 1141.62 347.84 1149.95 348.82 1158.25z"></path><path d="M352.84,1158.29c0.05,0.36,0,0.73-0.15,1.09l-2.9,6.62l-57.18,130.39l-3.99,9.11l-20.46,46.65
			c-0.33,0.74-1.06,1.19-1.83,1.19c-0.23,0-0.46-0.04-0.68-0.12l-9.3-3.37l-3.77-1.37l-35.51-12.87l-3.75-1.36l-5.66-2.05
			c-0.95-0.34-1.49-1.34-1.26-2.32l57.06-249.76l0.56-2.43c0.22-0.93,1.05-1.56,1.95-1.56c0.15,0,0.29,0.02,0.44,0.05
			c1.08,0.25,1.75,1.32,1.5,2.39l-0.35,1.55l-56.88,248.94l5.74,2.08l48.82,17.69l23.52-53.63l60.04-136.94l0.21-0.48
			c0.45-1.01,1.63-1.47,2.63-1.03C352.32,1157.03,352.74,1157.62,352.84,1158.29z"></path><path d="M256.93,1347.76l-0.57,2.07l-5.65,20.49c-0.18,0.64-0.49,1.22-0.92,1.72c-0.39,0.47-0.89,0.86-1.46,1.14
			c-0.63,0.31-1.31,0.46-1.98,0.46c-0.58,0-1.17-0.11-1.72-0.34l-0.2-0.08l-34.69-14.25c-0.25-0.1-0.49-0.23-0.71-0.37
			c-0.71-0.45-1.29-1.09-1.65-1.85c-0.25-0.52-0.4-1.07-0.43-1.63c-0.05-0.57,0.02-1.16,0.2-1.73l6.16-19.15l0.59-1.84
			c0.34-1.05,1.47-1.63,2.51-1.29c1.05,0.34,1.63,1.46,1.29,2.51l-0.64,1.96l-6.11,19.01c-0.06,0.17-0.02,0.31,0.02,0.39
			c0.04,0.09,0.12,0.2,0.28,0.27l34.89,14.33c0.18,0.08,0.33,0.04,0.43-0.01c0.08-0.04,0.23-0.14,0.28-0.33l5.72-20.79l0.49-1.78
			c0.3-1.06,1.4-1.69,2.45-1.39C256.61,1345.6,257.22,1346.69,256.93,1347.76z"></path><path fill="#f7b402" d="M294.69,1425.6c-0.62,1.31-2.16,1.92-3.52,1.42L205,1394.38c-7.09-2.36-11.07-5.77-11.83-10.12
			c-1.54-8.76,9.88-20.57,15.88-25.66c0.22,0.14,0.46,0.27,0.71,0.37l34.69,14.25l44.17,30.02
			C295.94,1408.2,298.49,1417.61,294.69,1425.6z"></path><path d="M298.3,1427.31c-1.16,2.42-3.61,3.87-6.16,3.87c-0.8,0-1.61-0.14-2.38-0.43l-86.09-32.61
			c-8.52-2.84-13.39-7.29-14.42-13.19c-2.13-12.22,13.54-26.3,17.73-29.82c0.54-0.45,0.89-0.73,0.99-0.81
			c0.87-0.68,2.12-0.53,2.8,0.33c0.69,0.87,0.54,2.12-0.33,2.8c-0.42,0.33-0.88,0.71-1.39,1.15c-5.99,5.1-17.41,16.9-15.88,25.66
			c0.76,4.35,4.74,7.76,11.83,10.12l86.17,32.64c1.36,0.51,2.9-0.11,3.52-1.42c3.8-7.99,1.25-17.4-6.07-22.37l-44.17-30.02
			l-0.16-0.11c-0.92-0.62-1.15-1.86-0.53-2.77c0.62-0.91,1.86-1.15,2.76-0.53l3.28,2.23l38.82,26.37l2.24,1.53
			c0.61,0.41,1.19,0.85,1.75,1.33C300.21,1407.57,302.62,1418.2,298.3,1427.31z"></path><path d="M290.62 1441.38c-1.1 0-1.99-.89-1.99-1.99v-10.45c0-1.1.89-1.99 1.99-1.99 1.1 0 1.99.89 1.99 1.99v10.45C292.61 1440.49 291.72 1441.38 290.62 1441.38zM290.62 1404.2c-1.1 0-1.99-.89-1.99-1.99v-106.24c0-1.1.89-1.99 1.99-1.99 1.1 0 1.99.89 1.99 1.99v106.24C292.61 1403.31 291.72 1404.2 290.62 1404.2zM290.62 931.22c-1.1 0-1.99-.89-1.99-1.99v-31.93c0-1.1.89-1.99 1.99-1.99 1.1 0 1.99.89 1.99 1.99v31.93C292.61 930.32 291.72 931.22 290.62 931.22zM735.23 1431.19c-1.1 0-1.99-.89-1.99-1.99v-531.9c0-1.1.89-1.99 1.99-1.99 1.1 0 1.99.89 1.99 1.99v531.9C737.23 1430.3 736.34 1431.19 735.23 1431.19zM994.06 177.08h-37.84c-1.96 0-3.57 1.61-3.57 3.58v38.53c0 1.97 1.61 3.58 3.57 3.58h37.84c1.97 0 3.57-1.61 3.57-3.58v-38.53C997.63 178.69 996.03 177.08 994.06 177.08zM993.64 218.78h-37v-37.71h37V218.78z"></path><path fill="#f7b402" d="M956.64,181.07v37.71h37v-37.71H956.64z M990.98,193.31l-17.5,17.8c-0.37,0.39-0.89,0.6-1.42,0.6
			c-0.54,0-1.05-0.21-1.43-0.6l-8.38-8.53c-0.78-0.78-0.77-2.04,0.02-2.81c0.79-0.78,2.04-0.77,2.82,0.02l6.96,7.08l16.08-16.36
			c0.77-0.79,2.03-0.8,2.82-0.02C991.75,191.26,991.76,192.53,990.98,193.31z"></path><path d="M990.98 193.31l-17.5 17.8c-.37.39-.89.6-1.42.6-.54 0-1.05-.21-1.43-.6l-8.38-8.53c-.78-.78-.77-2.04.02-2.81.79-.78 2.04-.77 2.82.02l6.96 7.08 16.08-16.36c.77-.79 2.03-.8 2.82-.02C991.75 191.26 991.76 192.53 990.98 193.31zM1169.83 192.13h-140.07c-1.1 0-1.99-.89-1.99-1.99 0-1.1.89-1.99 1.99-1.99h140.07c1.1 0 1.99.89 1.99 1.99C1171.83 191.24 1170.94 192.13 1169.83 192.13zM1138.74 206.89h-82.63c-1.1 0-1.99-.89-1.99-1.99 0-1.1.89-1.99 1.99-1.99h82.63c1.1 0 1.99.89 1.99 1.99C1140.74 205.99 1139.85 206.89 1138.74 206.89zM994.06 271.52h-37.84c-1.96 0-3.57 1.61-3.57 3.58v38.53c0 1.97 1.61 3.58 3.57 3.58h37.84c1.97 0 3.57-1.61 3.57-3.58V275.1C997.63 273.13 996.03 271.52 994.06 271.52zM993.64 313.22h-37v-37.71h37V313.22z"></path><path fill="#f7b402" d="M956.64,275.51v37.71h37v-37.71H956.64z M990.98,287.76l-17.5,17.8c-0.37,0.38-0.89,0.59-1.42,0.59
			c-0.54,0-1.05-0.21-1.43-0.59l-8.38-8.53c-0.78-0.79-0.77-2.05,0.02-2.82c0.79-0.78,2.04-0.77,2.82,0.02l6.96,7.08l16.08-16.36
			c0.77-0.79,2.03-0.8,2.82-0.02C991.75,285.7,991.76,286.97,990.98,287.76z"></path><path d="M990.98 287.76l-17.5 17.8c-.37.38-.89.59-1.42.59-.54 0-1.05-.21-1.43-.59l-8.38-8.53c-.78-.79-.77-2.05.02-2.82.79-.78 2.04-.77 2.82.02l6.96 7.08 16.08-16.36c.77-.79 2.03-.8 2.82-.02C991.75 285.7 991.76 286.97 990.98 287.76zM1169.83 286.57h-140.07c-1.1 0-1.99-.89-1.99-1.99 0-1.1.89-1.99 1.99-1.99h140.07c1.1 0 1.99.89 1.99 1.99C1171.83 285.68 1170.94 286.57 1169.83 286.57zM1138.74 301.33h-82.63c-1.1 0-1.99-.89-1.99-1.99 0-1.1.89-1.99 1.99-1.99h82.63c1.1 0 1.99.89 1.99 1.99C1140.74 300.43 1139.85 301.33 1138.74 301.33zM994.06 365.97h-37.84c-1.96 0-3.57 1.6-3.57 3.57v38.54c0 1.96 1.61 3.57 3.57 3.57h37.84c1.97 0 3.57-1.61 3.57-3.57v-38.54C997.63 367.56 996.03 365.97 994.06 365.97zM993.64 407.66h-37v-37.7h37V407.66z"></path><path fill="#f7b402" d="M956.64,369.96v37.7h37v-37.7H956.64z M990.98,382.19l-17.5,17.8c-0.37,0.38-0.89,0.59-1.42,0.59
			c-0.54,0-1.05-0.21-1.43-0.59l-8.38-8.53c-0.78-0.79-0.77-2.05,0.02-2.82c0.79-0.78,2.04-0.76,2.82,0.02l6.96,7.08l16.08-16.36
			c0.77-0.78,2.03-0.8,2.82-0.02C991.75,380.14,991.76,381.41,990.98,382.19z"></path><path d="M990.98 382.19l-17.5 17.8c-.37.38-.89.59-1.42.59-.54 0-1.05-.21-1.43-.59l-8.38-8.53c-.78-.79-.77-2.05.02-2.82.79-.78 2.04-.76 2.82.02l6.96 7.08 16.08-16.36c.77-.78 2.03-.8 2.82-.02C991.75 380.14 991.76 381.41 990.98 382.19zM1169.83 381.01h-140.07c-1.1 0-1.99-.89-1.99-1.99 0-1.1.89-1.99 1.99-1.99h140.07c1.1 0 1.99.89 1.99 1.99C1171.83 380.12 1170.94 381.01 1169.83 381.01zM1138.74 395.77h-82.63c-1.1 0-1.99-.89-1.99-1.99 0-1.1.89-1.99 1.99-1.99h82.63c1.1 0 1.99.89 1.99 1.99C1140.74 394.87 1139.85 395.77 1138.74 395.77zM1468.99 58.62H926.22c-17.09 0-31.01 13.91-31.01 31.01v18.93c0 1.11.9 1.99 1.99 1.99h600.8c1.1 0 1.99-.89 1.99-1.99V89.63C1500 72.53 1486.09 58.62 1468.99 58.62zM899.2 106.56V89.63c0-14.89 12.12-27.02 27.02-27.02h542.77c14.9 0 27.02 12.13 27.02 27.02v16.93H899.2z"></path><path fill="#f7b402" d="M1468.99,62.61H926.22c-14.9,0-27.02,12.13-27.02,27.02v16.93h596.81V89.63
					C1496.01,74.73,1483.89,62.61,1468.99,62.61z M950.27,97.7c-7.23,0-13.12-5.88-13.12-13.11c0-7.24,5.88-13.13,13.12-13.13
					c7.24,0,13.13,5.88,13.13,13.13C963.39,91.82,957.51,97.7,950.27,97.7z M986.12,97.7c-7.23,0-13.12-5.88-13.12-13.11
					c0-7.24,5.88-13.13,13.12-13.13c7.24,0,13.13,5.88,13.13,13.13C999.25,91.82,993.36,97.7,986.12,97.7z M1021.97,97.7
					c-7.23,0-13.11-5.88-13.11-13.11c0-7.24,5.88-13.13,13.11-13.13c7.24,0,13.13,5.88,13.13,13.13
					C1035.1,91.82,1029.22,97.7,1021.97,97.7z"></path><path d="M1451.69 498.7H943.53c-26.64 0-48.31-21.75-48.31-48.48V108.56c0-1.1.89-1.99 1.99-1.99 1.1 0 1.99.89 1.99 1.99v341.66c0 24.53 19.88 44.49 44.32 44.49h508.16c24.44 0 44.32-19.96 44.32-44.49V108.56c0-1.1.89-1.99 1.99-1.99 1.1 0 1.99.89 1.99 1.99v341.66C1500 476.95 1478.33 498.7 1451.69 498.7zM804.08 297.26H358.7c-14.2 0-25.75 11.55-25.75 25.75v15.43c0 1.1.9 1.99 1.99 1.99h492.89c1.1 0 1.99-.9 1.99-1.99v-15.43C829.83 308.81 818.28 297.26 804.08 297.26zM336.94 336.45v-13.43c0-12 9.76-21.76 21.76-21.76h445.37c12 0 21.76 9.76 21.76 21.76v13.43H336.94z"></path><path fill="#f7b402" d="M804.08,301.25H358.7c-12,0-21.76,9.76-21.76,21.76v13.43h488.9v-13.43
			C825.84,311.01,816.07,301.25,804.08,301.25z M378.25,330.16c-5.66,0-10.28-4.61-10.28-10.27c0-5.67,4.62-10.28,10.28-10.28
			c5.66,0,10.27,4.61,10.27,10.28C388.52,325.56,383.92,330.16,378.25,330.16z M404.11,330.16c-5.66,0-10.27-4.61-10.27-10.27
			c0-5.67,4.61-10.28,10.27-10.28c5.66,0,10.28,4.61,10.28,10.28C414.39,325.56,409.78,330.16,404.11,330.16z M429.98,330.16
			c-5.67,0-10.28-4.61-10.28-10.27c0-5.67,4.61-10.28,10.28-10.28c5.66,0,10.27,4.61,10.27,10.28
			C440.26,325.56,435.65,330.16,429.98,330.16z M789.33,321.89H686.01c-1.1,0-1.99-0.9-1.99-1.99c0-1.11,0.9-1.99,1.99-1.99h103.31
			c1.11,0,1.99,0.89,1.99,1.99C791.32,320.99,790.43,321.89,789.33,321.89z"></path><path d="M789.83,657.69H372.95c-22.05,0-39.99-17.94-39.99-39.99V338.44c0-1.1,0.89-1.99,1.99-1.99s1.99,0.89,1.99,1.99V617.7
			c0,19.85,16.15,36,36,36h416.89c19.85,0,36-16.15,36-36V338.44c0-1.1,0.89-1.99,1.99-1.99c1.1,0,1.99,0.89,1.99,1.99V617.7
			C829.83,639.75,811.89,657.69,789.83,657.69z"></path><path d="M559.01,395.63H382.32c-6.07,0-11.01,4.94-11.01,11.01v166.23c0,6.07,4.94,11.01,11.01,11.01h176.69
			c6.07,0,11.01-4.94,11.01-11.01V406.64C570.02,400.57,565.08,395.63,559.01,395.63z M566.03,572.87c0,3.87-3.15,7.02-7.02,7.02
			H382.32c-3.87,0-7.02-3.15-7.02-7.02V406.64c0-3.87,3.15-7.02,7.02-7.02h176.69c3.87,0,7.02,3.15,7.02,7.02V572.87z"></path><path d="M458.46,418.79c-0.44-0.38-1.01-0.55-1.59-0.47c-29.09,4.13-51.36,20.45-61.1,44.77c-9.76,24.39-4.98,52.39,12.81,74.91
			c0.35,0.44,0.88,0.72,1.45,0.75c0.04,0.01,0.08,0.01,0.12,0.01c0.53,0,1.04-0.21,1.41-0.59l47.01-47
			c0.37-0.38,0.58-0.89,0.58-1.42v-69.45C459.15,419.71,458.9,419.17,458.46,418.79z M455.16,488.93l-44.81,44.81
			c-15.77-21.05-19.84-46.76-10.87-69.17c8.94-22.33,29.15-37.53,55.68-41.96V488.93z"></path><path fill="#f7b402" d="M455.16,422.62v66.31l-44.81,44.81c-15.77-21.05-19.84-46.76-10.87-69.17
			C408.41,442.24,428.63,427.05,455.16,422.62z"></path><path d="M522.92,531.29c-0.1-0.58-0.44-1.1-0.95-1.4l-57.84-34.54c-0.79-0.47-1.8-0.34-2.43,0.31l-45.05,45.29
			c-0.37,0.37-0.58,0.88-0.58,1.41c0,0.54,0.21,1.04,0.59,1.42c12.09,11.96,28.06,18.46,45.21,18.46c0.79,0,1.59-0.01,2.38-0.04
			c21.29-0.75,42.51-11.42,58.18-29.28C522.84,532.47,523.01,531.88,522.92,531.29z M464.11,558.21
			c-16.26,0.58-31.52-5.06-43.2-15.89l42.52-42.74l54.41,32.48C503.05,548.03,483.6,557.53,464.11,558.21z"></path><path fill="#f7b402" d="M517.84,532.07c-14.79,15.97-34.24,25.46-53.73,26.14c-16.26,0.58-31.52-5.06-43.2-15.89l42.52-42.74
			L517.84,532.07z"></path><path d="M533.38,485.09c-5.88-38.51-29.9-62.85-65.88-66.78c-0.57-0.06-1.13,0.12-1.55,0.5c-0.43,0.38-0.67,0.92-0.67,1.49v65.1
			c0,1.11,0.9,1.99,1.99,1.99h64.13c0.58,0,1.14-0.25,1.52-0.69C533.3,486.25,533.47,485.67,533.38,485.09z M469.27,483.39v-60.85
			c32.58,4.39,53.71,25.88,59.79,60.85H469.27z"></path><path fill="#f7b402" d="M529.06,483.39h-59.79v-60.85C501.85,426.94,522.98,448.43,529.06,483.39z"></path><path d="M644.53,390.98h-39.48c-2.17,0-3.95,1.78-3.95,3.96v36.37c0,2.18,1.78,3.96,3.95,3.96h39.48c2.17,0,3.95-1.78,3.95-3.96
			v-36.37C648.48,392.76,646.71,390.98,644.53,390.98z M644.49,431.28l-39.41,0.03l-0.04-36.34l39.44-0.03V431.28z"></path><path fill="#f7b402" d="M605.05,394.97l0.04,36.34l39.41-0.03v-36.34L605.05,394.97z M639.53,405.19l-18.7,18.69
			c-0.39,0.39-0.9,0.59-1.41,0.59c-0.52,0-1.03-0.2-1.42-0.59l-7.97-7.97c-0.78-0.78-0.78-2.03,0-2.82c0.78-0.78,2.04-0.78,2.82,0
			l6.56,6.56l17.28-17.28c0.78-0.78,2.04-0.78,2.82,0C640.31,403.15,640.31,404.41,639.53,405.19z"></path><path d="M639.53 405.19l-18.7 18.69c-.39.39-.9.59-1.41.59-.52 0-1.03-.2-1.42-.59l-7.97-7.97c-.78-.78-.78-2.03 0-2.82.78-.78 2.04-.78 2.82 0l6.56 6.56 17.28-17.28c.78-.78 2.04-.78 2.82 0C640.31 403.15 640.31 404.41 639.53 405.19zM644.53 469.06h-39.48c-2.17 0-3.95 1.78-3.95 3.96v36.37c0 2.18 1.78 3.95 3.95 3.95h39.48c2.17 0 3.95-1.77 3.95-3.95v-36.37C648.48 470.84 646.71 469.06 644.53 469.06zM644.49 509.36l-39.41.04-.04-36.34 39.44-.03V509.36z"></path><path fill="#f7b402" d="M605.05,473.05l0.04,36.34l39.41-0.04v-36.33L605.05,473.05z M639.53,483.27l-18.7,18.7
			c-0.39,0.39-0.9,0.58-1.41,0.58c-0.52,0-1.03-0.19-1.42-0.58l-7.97-7.97c-0.78-0.78-0.78-2.04,0-2.82c0.78-0.78,2.04-0.78,2.82,0
			l6.56,6.56l17.28-17.29c0.78-0.78,2.04-0.78,2.82,0C640.31,481.23,640.31,482.49,639.53,483.27z"></path><path d="M639.53 483.27l-18.7 18.7c-.39.39-.9.58-1.41.58-.52 0-1.03-.19-1.42-.58l-7.97-7.97c-.78-.78-.78-2.04 0-2.82.78-.78 2.04-.78 2.82 0l6.56 6.56 17.28-17.29c.78-.78 2.04-.78 2.82 0C640.31 481.23 640.31 482.49 639.53 483.27zM644.53 547.14h-39.48c-2.17 0-3.95 1.77-3.95 3.95v36.37c0 2.18 1.78 3.96 3.95 3.96h39.48c2.17 0 3.95-1.78 3.95-3.96v-36.37C648.48 548.91 646.71 547.14 644.53 547.14zM644.49 587.44l-39.41.03-.04-36.33 39.44-.04V587.44z"></path><path fill="#f7b402" d="M605.05,551.13l0.04,36.33l39.41-0.03v-36.34L605.05,551.13z M639.53,561.35l-18.7,18.7
			c-0.37,0.37-0.88,0.58-1.41,0.58c-0.53,0-1.04-0.21-1.42-0.58l-7.97-7.97c-0.78-0.78-0.78-2.04,0-2.82c0.78-0.78,2.04-0.78,2.82,0
			l6.56,6.55l17.28-17.28c0.78-0.78,2.04-0.78,2.82,0C640.31,559.3,640.31,560.57,639.53,561.35z"></path><path d="M639.53 561.35l-18.7 18.7c-.37.37-.88.58-1.41.58-.53 0-1.04-.21-1.42-.58l-7.97-7.97c-.78-.78-.78-2.04 0-2.82.78-.78 2.04-.78 2.82 0l6.56 6.55 17.28-17.28c.78-.78 2.04-.78 2.82 0C640.31 559.3 640.31 560.57 639.53 561.35zM794.99 405.77H671.77c-1.1 0-1.99-.89-1.99-1.99 0-1.1.89-1.99 1.99-1.99h123.22c1.1 0 1.99.89 1.99 1.99C796.99 404.88 796.09 405.77 794.99 405.77zM765.83 419.67h-68.97c-1.1 0-1.99-.89-1.99-1.99 0-1.1.89-1.99 1.99-1.99h68.97c1.1 0 1.99.89 1.99 1.99C767.83 418.78 766.94 419.67 765.83 419.67zM794.99 484.8H671.77c-1.1 0-1.99-.89-1.99-1.99s.89-1.99 1.99-1.99h123.22c1.1 0 1.99.89 1.99 1.99S796.09 484.8 794.99 484.8zM765.83 498.7h-68.97c-1.1 0-1.99-.89-1.99-1.99 0-1.1.89-1.99 1.99-1.99h68.97c1.1 0 1.99.89 1.99 1.99C767.83 497.8 766.94 498.7 765.83 498.7zM794.99 563.82H671.77c-1.1 0-1.99-.89-1.99-1.99 0-1.1.89-1.99 1.99-1.99h123.22c1.1 0 1.99.89 1.99 1.99C796.99 562.93 796.09 563.82 794.99 563.82zM765.83 577.72h-68.97c-1.1 0-1.99-.89-1.99-1.99 0-1.1.89-1.99 1.99-1.99h68.97c1.1 0 1.99.89 1.99 1.99C767.83 576.83 766.94 577.72 765.83 577.72z"></path><g><path d="M378.25,309.61c-5.66,0-10.28,4.61-10.28,10.28c0,5.66,4.62,10.27,10.28,10.27c5.66,0,10.27-4.61,10.27-10.27
			C388.52,314.22,383.92,309.61,378.25,309.61z M378.25,326.17c-3.47,0-6.29-2.82-6.29-6.28c0-3.47,2.82-6.29,6.29-6.29
			c3.46,0,6.28,2.82,6.28,6.29C384.53,323.35,381.71,326.17,378.25,326.17z"></path><path d="M384.53,319.89c0,3.46-2.82,6.28-6.28,6.28c-3.47,0-6.29-2.82-6.29-6.28c0-3.47,2.82-6.29,6.29-6.29
			C381.71,313.6,384.53,316.42,384.53,319.89z"></path></g><g><path d="M404.11,309.61c-5.66,0-10.27,4.61-10.27,10.28c0,5.66,4.61,10.27,10.27,10.27c5.66,0,10.28-4.61,10.28-10.27
			C414.39,314.22,409.78,309.61,404.11,309.61z M404.11,326.17c-3.46,0-6.28-2.82-6.28-6.28c0-3.47,2.82-6.29,6.28-6.29
			c3.47,0,6.29,2.82,6.29,6.29C410.41,323.35,407.58,326.17,404.11,326.17z"></path><path d="M410.41,319.89c0,3.46-2.82,6.28-6.29,6.28c-3.46,0-6.28-2.82-6.28-6.28c0-3.47,2.82-6.29,6.28-6.29
			C407.58,313.6,410.41,316.42,410.41,319.89z"></path></g><g><path d="M429.98,309.61c-5.67,0-10.28,4.61-10.28,10.28c0,5.66,4.61,10.27,10.28,10.27c5.66,0,10.27-4.61,10.27-10.27
			C440.26,314.22,435.65,309.61,429.98,309.61z M429.98,326.17c-3.47,0-6.29-2.82-6.29-6.28c0-3.47,2.82-6.29,6.29-6.29
			c3.46,0,6.28,2.82,6.28,6.29C436.27,323.35,433.44,326.17,429.98,326.17z"></path><path d="M436.27,319.89c0,3.46-2.82,6.28-6.28,6.28c-3.47,0-6.29-2.82-6.29-6.28c0-3.47,2.82-6.29,6.29-6.29
			C433.44,313.6,436.27,316.42,436.27,319.89z"></path></g><g><path d="M791.32,319.89c0,1.1-0.89,1.99-1.99,1.99H686.01c-1.1,0-1.99-0.9-1.99-1.99c0-1.11,0.9-1.99,1.99-1.99h103.31
			C790.43,317.9,791.32,318.78,791.32,319.89z"></path></g><g><path d="M950.27,71.46c-7.23,0-13.12,5.88-13.12,13.13c0,7.23,5.88,13.11,13.12,13.11c7.24,0,13.13-5.88,13.13-13.11
			C963.39,77.35,957.51,71.46,950.27,71.46z M950.27,93.71c-5.04,0-9.13-4.09-9.13-9.13c0-5.04,4.09-9.14,9.13-9.14
			c5.04,0,9.14,4.1,9.14,9.14C959.4,89.63,955.3,93.71,950.27,93.71z"></path><path d="M959.4,84.59c0,5.04-4.1,9.13-9.14,9.13c-5.04,0-9.13-4.09-9.13-9.13c0-5.04,4.09-9.14,9.13-9.14
			C955.3,75.45,959.4,79.55,959.4,84.59z"></path></g><g><path d="M986.12,71.46c-7.23,0-13.12,5.88-13.12,13.13c0,7.23,5.88,13.11,13.12,13.11c7.24,0,13.13-5.88,13.13-13.11
			C999.25,77.35,993.36,71.46,986.12,71.46z M986.12,93.71c-5.04,0-9.13-4.09-9.13-9.13c0-5.04,4.09-9.14,9.13-9.14
			c5.04,0,9.14,4.1,9.14,9.14C995.26,89.63,991.16,93.71,986.12,93.71z"></path><path d="M995.26,84.59c0,5.04-4.1,9.13-9.14,9.13c-5.04,0-9.13-4.09-9.13-9.13c0-5.04,4.09-9.14,9.13-9.14
			C991.16,75.45,995.26,79.55,995.26,84.59z"></path></g><g><path d="M1021.97,71.46c-7.23,0-13.11,5.88-13.11,13.13c0,7.23,5.88,13.11,13.11,13.11c7.24,0,13.13-5.88,13.13-13.11
			C1035.1,77.35,1029.22,71.46,1021.97,71.46z M1021.97,93.71c-5.04,0-9.13-4.09-9.13-9.13c0-5.04,4.09-9.14,9.13-9.14
			c5.04,0,9.14,4.1,9.14,9.14C1031.11,89.63,1027.01,93.71,1021.97,93.71z"></path><path d="M1031.11,84.59c0,5.04-4.1,9.13-9.14,9.13c-5.04,0-9.13-4.09-9.13-9.13c0-5.04,4.09-9.14,9.13-9.14
			C1027.01,75.45,1031.11,79.55,1031.11,84.59z"></path></g></svg>