<svg width="23" height="23" viewBox="0 0 23 23" fill="none" xmlns="http://www.w3.org/2000/svg">
<path d="M22.4139 21.2359H21.7686V9.64372C21.7687 9.59788 21.7598 9.55246 21.7423 9.51008C21.7248 9.4677 21.6991 9.4292 21.6667 9.3968C21.6342 9.3644 21.5957 9.33874 21.5533 9.32129C21.5109 9.30385 21.4655 9.29496 21.4196 9.29515H19.0825C18.9901 9.29543 18.9016 9.33224 18.8362 9.39754C18.7708 9.46283 18.734 9.55133 18.7336 9.64372V21.2359H17.8511V11.4787C17.8508 11.3863 17.8139 11.2977 17.7486 11.2323C17.6832 11.1669 17.5946 11.1301 17.5021 11.1298H15.1643C15.0719 11.1302 14.9834 11.1671 14.9181 11.2324C14.8528 11.2978 14.816 11.3863 14.8157 11.4787V21.2359H13.9329V13.1252C13.9333 13.0793 13.9246 13.0337 13.9072 12.9913C13.8898 12.9488 13.8642 12.9102 13.8317 12.8777C13.7993 12.8453 13.7607 12.8196 13.7182 12.8022C13.6757 12.7849 13.6302 12.7762 13.5843 12.7766H11.2504C11.2044 12.7761 11.1589 12.7848 11.1164 12.8021C11.0738 12.8195 11.0352 12.8451 11.0027 12.8776C10.9702 12.91 10.9445 12.9487 10.9271 12.9912C10.9097 13.0337 10.901 13.0792 10.9014 13.1252V21.2359H10.0157V15.5323C10.0159 15.4864 10.007 15.4409 9.98951 15.3985C9.97202 15.356 9.94629 15.3175 9.91381 15.285C9.88134 15.2526 9.84275 15.2269 9.80029 15.2094C9.75783 15.192 9.71234 15.1831 9.66643 15.1834H7.32929C7.23683 15.1836 7.14825 15.2205 7.08287 15.2859C7.01749 15.3513 6.98064 15.4398 6.98036 15.5323V21.2359H6.09786V17.5348C6.09834 17.4888 6.08964 17.4433 6.07227 17.4007C6.0549 17.3582 6.02922 17.3195 5.99672 17.287C5.96423 17.2545 5.92557 17.2288 5.88302 17.2115C5.84047 17.1941 5.79488 17.1854 5.74893 17.1859H3.41536C3.3694 17.1854 3.32382 17.1941 3.28127 17.2115C3.23872 17.2288 3.20006 17.2545 3.16756 17.287C3.13507 17.3195 3.10938 17.3582 3.09202 17.4007C3.07465 17.4433 3.06595 17.4888 3.06643 17.5348V21.2359H0.714286V19.8966H1.40714C1.50186 19.8966 1.5927 19.859 1.65968 19.792C1.72666 19.725 1.76429 19.6342 1.76429 19.5394C1.76429 19.4447 1.72666 19.3539 1.65968 19.2869C1.5927 19.2199 1.50186 19.1823 1.40714 19.1823H0.714286V18.1919H1.40714C1.50186 18.1919 1.5927 18.1543 1.65968 18.0873C1.72666 18.0204 1.76429 17.9295 1.76429 17.8348C1.76429 17.7401 1.72666 17.6492 1.65968 17.5823C1.5927 17.5153 1.50186 17.4777 1.40714 17.4777H0.714286V16.4873H1.40714C1.50186 16.4873 1.5927 16.4497 1.65968 16.3827C1.72666 16.3157 1.76429 16.2249 1.76429 16.1302C1.76429 16.0354 1.72666 15.9446 1.65968 15.8776C1.5927 15.8106 1.50186 15.773 1.40714 15.773H0.714286V14.7823H1.40714C1.50186 14.7823 1.5927 14.7447 1.65968 14.6777C1.72666 14.6107 1.76429 14.5199 1.76429 14.4252C1.76429 14.3304 1.72666 14.2396 1.65968 14.1726C1.5927 14.1056 1.50186 14.068 1.40714 14.068H0.714286V13.0777H1.40714C1.50186 13.0777 1.5927 13.04 1.65968 12.973C1.72666 12.9061 1.76429 12.8152 1.76429 12.7205C1.76429 12.6258 1.72666 12.5349 1.65968 12.468C1.5927 12.401 1.50186 12.3634 1.40714 12.3634H0.714286V11.373H1.40714C1.50186 11.373 1.5927 11.3354 1.65968 11.2684C1.72666 11.2014 1.76429 11.1106 1.76429 11.0159C1.76429 10.9211 1.72666 10.8303 1.65968 10.7633C1.5927 10.6964 1.50186 10.6587 1.40714 10.6587H0.714286V9.66801H1.40714C1.50186 9.66801 1.5927 9.63038 1.65968 9.5634C1.72666 9.49643 1.76429 9.40559 1.76429 9.31087C1.76429 9.21615 1.72666 9.1253 1.65968 9.05833C1.5927 8.99135 1.50186 8.95372 1.40714 8.95372H0.714286V7.96337H1.40714C1.50186 7.96337 1.5927 7.92574 1.65968 7.85876C1.72666 7.79178 1.76429 7.70094 1.76429 7.60622C1.76429 7.5115 1.72666 7.42066 1.65968 7.35368C1.5927 7.28671 1.50186 7.24908 1.40714 7.24908H0.714286V6.25872H1.40714C1.50186 6.25872 1.5927 6.22109 1.65968 6.15412C1.72666 6.08714 1.76429 5.9963 1.76429 5.90158C1.76429 5.80686 1.72666 5.71602 1.65968 5.64904C1.5927 5.58206 1.50186 5.54444 1.40714 5.54444H0.714286V4.55408H1.40714C1.50186 4.55408 1.5927 4.51645 1.65968 4.44947C1.72666 4.3825 1.76429 4.29166 1.76429 4.19694C1.76429 4.10222 1.72666 4.01138 1.65968 3.9444C1.5927 3.87742 1.50186 3.83979 1.40714 3.83979H0.714286V1.29586C0.714286 1.20114 0.676658 1.1103 0.609681 1.04333C0.542704 0.976348 0.451863 0.938721 0.357143 0.938721C0.262423 0.938721 0.171582 0.976348 0.104605 1.04333C0.0376275 1.1103 0 1.20114 0 1.29586V21.593C0 21.6877 0.0376275 21.7786 0.104605 21.8455C0.171582 21.9125 0.262423 21.9502 0.357143 21.9502H4.225V22.643C4.225 22.7377 4.26263 22.8286 4.32961 22.8955C4.39658 22.9625 4.48742 23.0002 4.58214 23.0002C4.67686 23.0002 4.7677 22.9625 4.83468 22.8955C4.90166 22.8286 4.93929 22.7377 4.93929 22.643V21.9502H8.1425V22.643C8.1425 22.7377 8.18013 22.8286 8.24711 22.8955C8.31408 22.9625 8.40492 23.0002 8.49964 23.0002C8.59436 23.0002 8.68521 22.9625 8.75218 22.8955C8.81916 22.8286 8.85679 22.7377 8.85679 22.643V21.9502H12.06V22.643C12.06 22.7377 12.0976 22.8286 12.1646 22.8955C12.2316 22.9625 12.3224 23.0002 12.4171 23.0002C12.5119 23.0002 12.6027 22.9625 12.6697 22.8955C12.7367 22.8286 12.7743 22.7377 12.7743 22.643V21.9502H15.9775V22.643C15.9775 22.7377 16.0151 22.8286 16.0821 22.8955C16.1491 22.9625 16.2399 23.0002 16.3346 23.0002C16.4294 23.0002 16.5202 22.9625 16.5872 22.8955C16.6542 22.8286 16.6918 22.7377 16.6918 22.643V21.9502H19.895V22.643C19.895 22.7377 19.9326 22.8286 19.9996 22.8955C20.0666 22.9625 20.1574 23.0002 20.2521 23.0002C20.3469 23.0002 20.4377 22.9625 20.5047 22.8955C20.5717 22.8286 20.6093 22.7377 20.6093 22.643V21.9502H22.4139C22.5087 21.9502 22.5995 21.9125 22.6665 21.8455C22.7334 21.7786 22.7711 21.6877 22.7711 21.593C22.7711 21.4983 22.7334 21.4075 22.6665 21.3405C22.5995 21.2735 22.5087 21.2359 22.4139 21.2359Z" fill="#730C7F"/>
<path d="M4.22115 13.9724C4.46492 13.9715 4.70128 13.8885 4.89219 13.7369C5.0831 13.5853 5.21746 13.3739 5.27365 13.1367C10.4136 12.4164 16.3454 9.05887 19.3372 5.18279L19.3722 5.55315C19.384 5.64503 19.4311 5.72872 19.5035 5.78655C19.5758 5.84439 19.6678 5.87185 19.76 5.86314C19.8523 5.85443 19.9375 5.81022 19.9977 5.73986C20.058 5.66949 20.0885 5.57847 20.0829 5.48601L19.9579 4.16279C19.9387 3.95922 19.7269 3.81101 19.539 3.84494L18.2294 4.08244C18.1832 4.09081 18.1392 4.10819 18.0997 4.13358C18.0603 4.15898 18.0263 4.19189 17.9995 4.23044C17.9728 4.269 17.954 4.31243 17.944 4.35828C17.9341 4.40412 17.9333 4.45146 17.9417 4.49761C17.9501 4.54376 17.9674 4.58781 17.9928 4.62725C18.0182 4.66668 18.0511 4.70073 18.0897 4.72744C18.1283 4.75415 18.1717 4.77301 18.2175 4.78294C18.2634 4.79286 18.3107 4.79366 18.3569 4.78529L18.8033 4.70422C15.9376 8.46065 10.1883 11.7235 5.2015 12.4264C5.1146 12.2396 4.97625 12.0815 4.80268 11.9705C4.62911 11.8596 4.42751 11.8004 4.2215 11.7999C3.93341 11.7999 3.65712 11.9144 3.45341 12.1181C3.2497 12.3218 3.13525 12.5981 3.13525 12.8862C3.13525 13.1743 3.2497 13.4506 3.45341 13.6543C3.65712 13.858 3.93341 13.9724 4.2215 13.9724H4.22115Z" fill="#730C7F"/>
<path d="M4.30467 5.82857L4.76182 5.91786C4.8511 5.93572 4.92253 6.00714 4.94753 6.09643C5.04039 6.46429 5.18682 6.81072 5.37967 7.12857C5.42967 7.21072 5.42967 7.31072 5.3761 7.39286L5.11896 7.76786C5.05467 7.86429 5.06896 7.99286 5.14753 8.075L5.79396 8.72143C5.8761 8.80357 6.00467 8.81429 6.1011 8.75L6.48682 8.49286C6.56539 8.43929 6.66539 8.43929 6.74753 8.48572C7.06182 8.675 7.41539 8.82143 7.78325 8.91072C7.87253 8.93572 7.94753 9.00357 7.96182 9.1L8.0511 9.54643C8.0761 9.66429 8.17253 9.74286 8.28682 9.74286H9.2011C9.31896 9.74286 9.41539 9.66429 9.43682 9.54643L9.5261 9.08929C9.54396 9 9.61896 8.92857 9.70825 8.90357C10.0761 8.81072 10.4225 8.66429 10.7368 8.47143C10.819 8.425 10.919 8.425 10.9975 8.47857L11.3797 8.73214C11.4761 8.79643 11.6047 8.78572 11.6868 8.70357L12.3332 8.05714C12.4154 7.97857 12.4261 7.85 12.3618 7.75357L12.1011 7.36429C12.0752 7.32655 12.0611 7.28201 12.0605 7.23626C12.0598 7.19051 12.0727 7.14559 12.0975 7.10714C12.2868 6.78929 12.4297 6.43929 12.5225 6.07143C12.5475 5.97857 12.619 5.90714 12.7082 5.88929L13.1582 5.8C13.2725 5.77857 13.3547 5.68214 13.3547 5.56429V4.65357C13.3547 4.53572 13.2725 4.43571 13.1582 4.41429L12.7011 4.325C12.656 4.31546 12.6146 4.29325 12.5817 4.26098C12.5488 4.22872 12.5258 4.18774 12.5154 4.14286C12.419 3.775 12.2725 3.43214 12.0832 3.11429C12.0598 3.07455 12.048 3.02902 12.0493 2.9829C12.0506 2.93679 12.0648 2.89196 12.0904 2.85357L12.344 2.47143C12.4082 2.375 12.3975 2.24643 12.3154 2.16786L11.669 1.52143C11.6297 1.48186 11.5778 1.45732 11.5224 1.4521C11.4669 1.44688 11.4113 1.4613 11.3654 1.49286L10.9761 1.75C10.8975 1.80357 10.8011 1.80357 10.7154 1.75714C10.3975 1.56786 10.0511 1.42143 9.68325 1.32857C9.63809 1.31873 9.5968 1.29591 9.56444 1.26292C9.53208 1.22992 9.51007 1.18819 9.5011 1.14286L9.41182 0.696429C9.40151 0.641379 9.37234 0.591645 9.32931 0.555791C9.28629 0.519937 9.23211 0.500207 9.1761 0.5H8.26539C8.14753 0.5 8.04753 0.578571 8.0261 0.696429L7.93682 1.15C7.91896 1.23929 7.84753 1.31429 7.75467 1.33571C7.38682 1.43214 7.04039 1.57857 6.72253 1.76786C6.64039 1.81786 6.54039 1.81786 6.46182 1.76429L6.08325 1.51071C6.03666 1.47916 5.98057 1.46476 5.92456 1.46997C5.86854 1.47519 5.81606 1.49968 5.7761 1.53929L5.13325 2.18571C5.0511 2.26429 5.04039 2.39286 5.10467 2.48929L5.36182 2.87857C5.41539 2.95357 5.41539 3.05357 5.36539 3.13571C5.1761 3.45714 5.02967 3.80357 4.94039 4.17143C4.91539 4.26429 4.84753 4.33571 4.7511 4.35L4.30467 4.43929C4.19039 4.46429 4.11182 4.56429 4.11182 4.67857V5.58929C4.11182 5.70714 4.19039 5.80714 4.30467 5.82857ZM8.73325 2.56786C10.1404 2.56786 11.2868 3.71429 11.2868 5.12143C11.2868 5.79915 11.0176 6.44912 10.5384 6.92834C10.0591 7.40756 9.40918 7.67679 8.73146 7.67679C8.05374 7.67679 7.40377 7.40756 6.92455 6.92834C6.44533 6.44912 6.1761 5.79915 6.1761 5.12143C6.1761 3.71429 7.32253 2.56786 8.73325 2.56786Z" fill="#730C7F"/>
<path d="M8.73214 5.55367H9.63786C9.73258 5.55367 9.82342 5.51605 9.8904 5.44907C9.95737 5.38209 9.995 5.29125 9.995 5.19653C9.995 5.10181 9.95737 5.01097 9.8904 4.94399C9.82342 4.87701 9.73258 4.83939 9.63786 4.83939H9.08929V3.74581C9.08929 3.65109 9.05166 3.56025 8.98468 3.49328C8.9177 3.4263 8.82686 3.38867 8.73214 3.38867C8.63742 3.38867 8.54658 3.4263 8.47961 3.49328C8.41263 3.56025 8.375 3.65109 8.375 3.74581V5.19689C8.375 5.29161 8.41263 5.38245 8.47961 5.44942C8.54658 5.5164 8.63742 5.55367 8.73214 5.55367Z" fill="#730C7F"/>
</svg>
