<svg width="451" height="368" viewBox="0 0 451 368" fill="none" xmlns="http://www.w3.org/2000/svg">
<path d="M12.4111 136.672C12.4111 109.26 34.2721 87.0369 61.2372 87.0369H71.421C66.6575 82.8456 63.6381 76.6569 63.6381 69.7487C63.6381 57.1232 73.7074 46.8876 86.1285 46.8876H120.026C116.598 43.8872 114.418 39.4534 114.418 34.4937C114.418 25.4599 121.623 18.1348 130.51 18.1348H215.627C224.513 18.1348 231.718 25.4599 231.718 34.4937C231.718 43.5275 224.513 50.8526 215.627 50.8526H183.759C177.824 54.9676 173.927 61.8949 173.927 69.7487C173.927 76.6569 176.946 82.8429 181.71 87.0369H234.125C261.09 87.0369 282.951 109.258 282.951 136.672C282.951 164.084 261.09 186.308 234.125 186.308H303.564C315.985 186.308 326.054 196.543 326.054 209.169C326.054 221.794 315.985 232.03 303.564 232.03H331.856C362.767 232.03 388.427 254.812 393.52 284.756H403.429C422.704 284.756 438.327 300.641 438.327 320.231V323.826C438.327 343.42 422.701 359.302 403.429 359.302H331.856H97.6204H75.0128C40.4391 359.302 12.4139 330.81 12.4139 295.664C12.4139 260.518 40.4418 232.027 75.0128 232.027H184.604C172.183 232.027 162.113 221.792 162.113 209.166C162.113 196.541 172.183 186.305 184.604 186.305H61.2372C34.2721 186.305 12.4111 164.084 12.4111 136.672Z" fill="#CDF1FC"/>
<path d="M280.282 52.1637C289.941 52.1637 297.772 44.2527 297.772 34.4939C297.772 24.7352 289.941 16.8242 280.282 16.8242C270.622 16.8242 262.792 24.7352 262.792 34.4939C262.792 44.2527 270.622 52.1637 280.282 52.1637Z" fill="#E0F7FC"/>
<path d="M225.368 367.048C349.835 367.048 450.736 363.002 450.736 358.011C450.736 353.02 349.835 348.975 225.368 348.975C100.901 348.975 0 353.02 0 358.011C0 363.002 100.901 367.048 225.368 367.048Z" fill="#9CDAE5"/>
<path d="M361.853 184.994C361.791 185.193 361.464 186.092 360.638 186.67C360.614 186.686 360.581 186.686 360.556 186.667C360.306 186.463 358.921 185.348 358.575 185.324C358.194 185.299 356.542 185.209 356.665 184.752C356.768 184.367 357.812 184.068 358.142 183.983C358.188 183.972 358.207 183.915 358.177 183.877C357.902 183.542 356.826 182.242 356.354 181.819C355.809 181.332 355.586 181.004 355.902 180.846C356.215 180.688 358.439 181.819 361.834 184.926C361.853 184.942 361.862 184.97 361.853 184.994Z" fill="#F5C1CA"/>
<path d="M361.687 184.438C361.799 184.323 361.979 184.312 362.101 184.413C363.241 185.337 365.263 186.871 367.813 188.357C368.642 188.839 369.525 189.319 370.451 189.768C370.5 189.793 371.555 190.409 371.604 190.425C372.441 190.7 373.983 190.545 374.572 188.746C375.378 186.277 376.013 180.674 377.918 179.094C377.992 179.034 378.371 179.663 378.433 179.734C378.605 179.925 378.777 180.124 378.948 180.331C380.125 181.754 380.488 183.683 379.902 185.435C378.755 188.874 376.471 194.692 373.727 196.328C373.727 196.328 373.176 196.875 372.062 196.573C371.996 196.556 371.874 196.581 371.658 196.456C371.658 196.456 369.857 195.423 368.094 194.041C367.451 193.532 366.759 192.976 366.047 192.395C363.707 190.479 361.311 188.436 359.788 186.765C359.676 186.642 359.679 186.454 359.796 186.335L361.687 184.438Z" fill="#DD458E"/>
<path d="M359.803 186.336L360.599 185.533L359.85 186.415C359.741 186.544 359.754 186.732 359.874 186.846C361.52 188.397 364.068 190.25 366.548 191.977C367.3 192.503 368.033 193.002 368.714 193.463C370.578 194.705 372.453 195.594 372.453 195.594C372.677 195.703 372.799 195.667 372.865 195.681C373.998 195.899 374.404 194.784 374.404 194.784C376.555 192.155 378.942 187.492 379.822 183.974C379.966 183.391 380.002 182.799 379.953 182.219C380.261 183.257 380.261 184.38 379.906 185.437C378.759 188.876 376.476 194.694 373.731 196.329C373.731 196.329 373.181 196.877 372.066 196.575C372.001 196.558 371.878 196.583 371.663 196.458C371.663 196.458 369.862 195.425 368.099 194.043C367.455 193.533 366.763 192.978 366.052 192.397C363.711 190.481 361.316 188.438 359.792 186.767C359.683 186.644 359.686 186.456 359.803 186.336Z" fill="#DD458E"/>
<path d="M337.029 149.515C336.667 150.722 336.198 151.867 335.642 152.949L371.688 163.759L364.283 155.159L337.585 147.152C337.449 147.94 337.267 148.73 337.029 149.515ZM341.984 229.527C341.788 229.476 341.591 229.427 341.398 229.367C339.52 228.803 337.787 227.991 336.223 226.979C338.452 231.885 342.624 235.877 348.08 237.736L349.388 238.128L341.984 229.527ZM239.554 204.214C237.527 204.249 235.459 203.977 233.412 203.364C232.292 203.028 231.221 202.601 230.207 202.096L221.168 232.239L228.572 240.839L239.554 204.214Z" fill="#0590E5"/>
<path d="M219.879 178.233C223.081 167.556 234.333 161.495 245.01 164.697C247.057 165.31 248.932 166.223 250.605 167.368L261.59 130.742L297.635 141.552C297.766 140.342 298.006 139.127 298.368 137.92C301.571 127.243 312.823 121.182 323.5 124.384C326.391 125.251 328.944 126.711 331.065 128.586L327.503 124.567C325.001 120.482 321.044 117.266 316.095 115.784C305.418 112.582 294.166 118.642 290.964 129.319C290.602 130.527 290.365 131.742 290.231 132.952L254.186 122.141L243.201 158.77C241.525 157.625 239.65 156.715 237.604 156.099C226.927 152.897 215.675 158.958 212.472 169.635C210.57 175.973 211.936 182.517 215.593 187.457C216.386 188.528 217.288 189.526 218.288 190.428L221.885 194.39C219.084 189.695 218.184 183.882 219.879 178.233ZM303.034 262.875C305.672 254.076 302.02 244.887 294.676 240.134C296.624 244.423 297.09 249.41 295.632 254.277C295.605 254.367 295.573 254.457 295.545 254.547L302.949 263.148C302.974 263.055 303.007 262.968 303.034 262.875Z" fill="#0590E5"/>
<path d="M360.396 199.302C360.592 199.36 360.783 199.428 360.973 199.49L371.689 163.759L335.643 152.948C336.199 151.866 336.668 150.722 337.03 149.514C340.232 138.837 334.172 127.585 323.495 124.383C312.818 121.181 301.566 127.242 298.364 137.919C298.001 139.126 297.764 140.342 297.63 141.552L261.585 130.741L250.6 167.367C248.924 166.222 247.052 165.312 245.006 164.696C234.329 161.494 223.076 167.555 219.874 178.232C216.672 188.909 222.733 200.161 233.41 203.363C235.457 203.976 237.525 204.249 239.553 204.213L228.568 240.839L264.291 251.551C264.319 251.459 264.34 251.369 264.365 251.276C267.567 240.599 278.819 234.538 289.496 237.74C300.173 240.942 306.234 252.194 303.032 262.871C303.004 262.961 302.972 263.051 302.944 263.141L338.668 273.854L349.383 238.122C349.187 238.07 348.991 238.021 348.797 237.961C338.12 234.759 332.06 223.507 335.262 212.83C338.467 202.158 349.719 196.1 360.396 199.302Z" fill="#32A0FF"/>
<path d="M297.629 258.81C297.629 258.81 297.749 257.491 297.291 257.008C296.88 256.572 297.03 256.72 296.844 256.542C296.779 256.482 296.662 256.354 296.662 256.354C296.662 256.354 295.533 255.169 295.662 254.684C295.79 254.196 296.209 254.226 296.708 254.962C297.204 255.698 298.289 255.117 297.768 253.776C297.248 252.436 297.043 250.754 297.564 250.915C298.084 251.076 298.343 252.261 298.343 252.261C298.343 252.261 298.4 252.253 298.316 251.956C298.231 251.656 297.765 251.005 297.964 251.002C298.163 251 299.441 250.888 300.311 252.621C301.18 254.354 300.736 255.542 300.616 256.057C300.499 256.572 300.471 258.48 300.758 259.05C300.758 259.044 298.046 259.823 297.629 258.81Z" fill="#F4BE84"/>
<path d="M297.187 258.657L301.01 258.934L301.021 257.697L297.301 257.79L297.187 258.657Z" fill="white"/>
<path d="M301.095 258.566L297.193 258.318C296.923 260.18 296.446 262.452 295.179 264.714C293.129 268.371 289.009 272.865 280.722 276.203C280.722 276.203 275.664 279.539 281.689 283.594C281.689 283.597 302.09 276.228 301.095 258.566Z" fill="#4484E0"/>
<path d="M279.016 353.298L278.725 356.304C278.725 356.304 281.594 357.558 282.104 356.961C282.613 356.364 282.965 356.522 282.965 356.522L283.207 352.721L279.016 353.298Z" fill="#22313B"/>
<path d="M266.499 352.38L266.679 355.263L270.418 355.07L270.862 351.859L266.499 352.38Z" fill="#22313B"/>
<path d="M286.306 305.336H267.467C267.431 307.789 267.412 312.514 267.718 315.602C268.145 319.929 268.944 330.737 268.306 333.952C267.72 336.909 265.93 349.851 265.595 353.601C265.557 354.018 265.892 354.375 266.32 354.375C267.968 354.38 270.606 354.661 271.056 353.835C271.634 352.772 275.926 336.332 276.563 333.113C277.201 329.897 278.373 327.235 278.373 327.235C278.373 327.235 278.801 331.563 278.711 334.795L278.182 353.854C278.169 354.323 278.572 354.696 279.046 354.653C280.55 354.514 282.379 354.489 283.6 354.127C283.6 354.127 285.564 341.452 286.276 335.541C286.99 329.63 288.099 308.118 286.586 305.641C286.529 305.535 286.431 305.434 286.306 305.336Z" fill="#3F4752"/>
<path d="M265.598 353.601C265.56 354.018 265.895 354.375 266.323 354.375C266.68 354.377 267.14 354.372 267.639 354.358C268.489 348.303 271.484 331.026 272.059 327.32C272.52 324.357 271.271 312.438 270.454 305.336H267.464C267.464 305.339 267.464 305.339 267.464 305.341C267.464 305.412 267.462 305.483 267.462 305.559C267.462 305.568 267.462 305.573 267.462 305.581C267.459 305.734 267.459 305.895 267.456 306.064C267.456 306.077 267.456 306.088 267.456 306.102C267.453 306.268 267.454 306.44 267.451 306.617C267.451 306.633 267.451 306.649 267.451 306.669C267.451 306.756 267.451 306.843 267.448 306.933C267.448 306.936 267.448 306.936 267.448 306.938C267.448 307.028 267.448 307.121 267.445 307.214C267.445 307.233 267.445 307.254 267.445 307.273C267.445 307.355 267.445 307.44 267.445 307.524C267.445 307.535 267.445 307.546 267.445 307.557C267.445 307.655 267.445 307.756 267.445 307.857C267.445 307.868 267.445 307.876 267.445 307.887C267.445 307.974 267.445 308.061 267.445 308.151C267.445 308.176 267.445 308.197 267.445 308.222C267.445 308.421 267.445 308.622 267.448 308.827C267.448 308.849 267.448 308.873 267.448 308.895C267.448 308.988 267.448 309.08 267.451 309.173C267.451 309.184 267.451 309.195 267.451 309.208C267.451 309.312 267.454 309.418 267.454 309.522C267.454 309.541 267.454 309.563 267.454 309.582C267.454 309.672 267.456 309.759 267.456 309.849C267.456 309.871 267.456 309.89 267.456 309.911C267.459 310.018 267.459 310.124 267.462 310.23C267.462 310.244 267.462 310.26 267.462 310.277C267.464 310.369 267.464 310.462 267.467 310.555C267.467 310.579 267.467 310.604 267.467 310.628C267.47 310.841 267.475 311.056 267.481 311.269C267.481 311.293 267.481 311.318 267.483 311.342C267.486 311.438 267.489 311.533 267.492 311.628C267.492 311.642 267.492 311.653 267.492 311.666C267.494 311.773 267.497 311.879 267.5 311.985C267.5 312.007 267.503 312.029 267.503 312.053C267.505 312.141 267.508 312.228 267.511 312.315C267.511 312.34 267.513 312.361 267.513 312.386C267.516 312.489 267.522 312.596 267.524 312.699C267.524 312.716 267.524 312.732 267.527 312.746C267.53 312.835 267.535 312.925 267.538 313.013C267.538 313.037 267.541 313.062 267.541 313.086C267.549 313.293 267.56 313.498 267.571 313.699C267.571 313.721 267.573 313.746 267.573 313.767C267.579 313.857 267.584 313.947 267.59 314.035C267.59 314.045 267.592 314.059 267.592 314.07C267.598 314.168 267.606 314.266 267.612 314.364C267.612 314.383 267.614 314.405 267.614 314.424C267.62 314.506 267.625 314.585 267.631 314.667C267.633 314.686 267.633 314.705 267.636 314.724C267.644 314.819 267.65 314.912 267.658 315.005C267.658 315.018 267.661 315.029 267.661 315.043C267.666 315.122 267.674 315.201 267.68 315.28C267.682 315.302 267.682 315.324 267.685 315.345C267.693 315.435 267.701 315.525 267.71 315.612C267.903 317.572 268.173 320.864 268.353 324.177C268.366 324.406 268.377 324.635 268.388 324.861C268.399 325.088 268.41 325.317 268.421 325.545C268.426 325.66 268.432 325.772 268.437 325.886C268.448 326.112 268.456 326.338 268.465 326.562C268.473 326.785 268.481 327.009 268.489 327.23C268.582 330.099 268.56 332.658 268.301 333.966C268.203 334.468 268.067 335.255 267.911 336.233C267.906 336.263 267.903 336.293 267.898 336.321C267.87 336.49 267.843 336.661 267.816 336.841C267.451 339.185 266.993 342.395 266.584 345.444C266.135 348.829 265.737 352.026 265.598 353.601ZM280.084 315.152C279.477 317.291 278.122 327.856 278.122 327.856C278.278 327.464 278.376 327.235 278.376 327.235C278.376 327.235 278.804 331.563 278.714 334.795L278.185 353.854C278.171 354.323 278.575 354.696 279.049 354.653C280.305 354.538 281.733 354.454 283.167 354.17C282.139 353.96 280.556 353.225 280.147 352.363C279.629 351.271 281.278 331.366 281.278 331.366C280.289 327.562 280.084 315.152 280.084 315.152Z" fill="#2F3740"/>
<path d="M266.068 355.393C266.068 355.393 270.152 353.982 271.15 354.521C271.15 354.521 271.123 355.541 271.613 356.067C272.104 356.592 275.052 359.74 274.532 360.236C274.011 360.732 268.945 361.094 265.939 359.985L266.068 355.393ZM278.682 355.663C278.51 355.644 278.358 355.778 278.352 355.955L278.246 359.811C278.246 359.811 277.775 360.263 280.519 360.342C283.263 360.421 290.58 360.634 291.052 360.184C291.523 359.732 291.076 359.255 288.817 358.257C286.555 357.263 284.086 355.562 283.198 354.606C283.198 354.606 281.369 354.551 281.786 355.96C281.786 355.963 281.361 355.949 278.682 355.663Z" fill="#2D313D"/>
<path d="M286.594 305.643C286.529 305.534 286.431 305.433 286.308 305.338H270.459H267.469C267.469 305.379 267.469 305.42 267.467 305.461C267.467 305.493 267.467 305.526 267.464 305.561C267.464 305.57 267.464 305.575 267.464 305.583C267.464 305.662 267.461 305.741 267.461 305.823C267.461 305.837 267.461 305.85 267.461 305.864C267.461 305.929 267.458 305.995 267.458 306.063C267.458 306.066 267.458 306.071 267.458 306.074C267.456 306.343 267.453 306.63 267.45 306.932C267.45 306.932 267.45 306.932 267.45 306.935C267.45 306.997 267.45 307.063 267.45 307.128C274.506 309.747 283.06 307.913 286.918 306.654C286.829 306.194 286.72 305.85 286.594 305.643Z" fill="#2F3740"/>
<path d="M285.526 298.864C285.384 298.338 285.267 298.008 285.267 298.008L268.963 298.678C268.963 298.678 268.905 299.011 268.815 299.58C268.897 299.692 268.963 299.776 268.963 299.776C276.239 302.747 281.509 302.75 285.526 298.864Z" fill="#330E00"/>
<path d="M265.377 285.001L268.236 295.501L266.783 305.311C266.783 305.311 278.899 310.397 286.998 305.11L286.126 283.012L265.377 285.001Z" fill="#286BCE"/>
<path d="M284.098 275.784C285.829 276.511 288.257 277.969 286.123 283.008L285.379 298.514C285.379 298.514 286.208 300.904 285.684 301.411C281.665 305.31 276.392 305.31 269.107 302.337C269.107 302.337 268.723 301.85 268.674 301.653C268.407 300.599 269.298 297.658 269.298 297.658L265.227 285.003C265.227 285.003 261.215 279.542 263.87 277.56C268.053 274.44 277.253 272.901 284.098 275.784Z" fill="#4484E0"/>
<path d="M261.798 254.607C261.798 254.607 262.174 253.411 262.768 253.19C263.302 252.991 263.111 253.051 263.346 252.983C263.425 252.959 263.58 252.902 263.58 252.902C263.58 252.902 265.041 252.367 265.103 251.888C265.166 251.408 264.773 251.25 264.051 251.67C263.329 252.092 262.558 251.114 263.523 250.176C264.487 249.239 265.294 247.871 264.763 247.781C264.231 247.691 263.558 248.609 263.558 248.609C263.558 248.609 263.509 248.579 263.694 248.356C263.88 248.133 264.545 247.77 264.365 247.68C264.185 247.59 263.062 246.933 261.637 248.059C260.212 249.184 260.179 250.411 260.097 250.907C260.015 251.405 259.337 253.073 258.868 253.444C258.865 253.447 261.046 255.308 261.798 254.607Z" fill="#F4BE84"/>
<path d="M262.237 254.673L258.667 253.283L259.188 252.16L262.507 253.839L262.237 254.673Z" fill="white"/>
<path d="M258.746 252.912L262.379 254.365C261.823 256.16 261.278 258.42 261.452 261.006C261.733 265.189 263.526 271.015 269.579 277.588C269.579 277.588 272.715 282.771 265.532 283.848C265.532 283.85 250.269 268.437 258.746 252.912Z" fill="#4484E0"/>
<path d="M286.996 305.404L286.367 292.427C284.492 294.631 283.451 296.942 282.437 299.654C278.137 297.422 274.373 294.162 271.553 290.222C272.613 293.059 273.676 295.896 274.736 298.732C271.983 295.503 267.645 286.78 264.893 283.551L268.234 295.495L266.781 305.305C266.781 305.308 278.897 310.69 286.996 305.404Z" fill="#286BCE"/>
<path d="M279.347 273.903C279.347 273.903 280.952 273.835 281.244 274.015C281.535 274.195 282.266 276.304 282.413 276.637C282.56 276.969 280.462 278.934 280.462 278.934C280.462 278.934 282.195 281.779 282.121 282.008C282.048 282.237 278.976 294.669 278.976 294.669C278.976 294.669 271.529 283.561 271.376 283.008C271.223 282.455 272.09 279.599 272.09 279.599C272.09 279.599 269.885 277.975 269.752 277.62C269.618 277.266 269.335 275.002 269.752 274.713C270.008 274.536 271.491 274.203 271.491 274.203L279.347 273.903Z" fill="#68A9EA"/>
<path d="M271.489 274.735C271.489 274.735 273.773 280.627 275.781 285.813C277.362 289.892 279.109 285.625 279.109 285.625L279.602 273.928C279.493 273.92 279.264 273.89 279.155 273.885L271.489 274.735Z" fill="#F8E8D8"/>
<path d="M279.032 277.664C279.49 277.555 279.512 276.124 279.512 276.124L279.602 273.96C279.596 273.949 279.594 273.939 279.588 273.928C279.474 273.919 279.261 273.892 279.158 273.887L272.091 274.669C272.116 274.753 271.832 275.342 271.884 275.508C272.293 276.713 273.612 278.446 273.876 278.489C274.187 278.539 274.977 277.634 275.084 277.337C275.247 277.484 275.525 277.923 275.686 278.067C275.773 280.174 275.697 282.945 275.661 285.504C276.885 288.662 278.027 291.608 278.52 292.881C278.61 293.001 278.7 293.113 278.79 293.219L279.054 286.959C278.258 283.945 277.46 280.931 276.664 277.92C276.918 277.574 277.245 277.315 277.498 276.969C277.918 277.38 278.444 277.664 279.032 277.664Z" fill="url(#paint0_linear_646_225)"/>
<path d="M277.397 275.079C276.711 275.474 275.296 275.682 274.525 275.701C273.38 275.731 273.841 275.063 273.46 274.962L271.489 269.997L276.463 269.422L276.479 269.705L277.397 275.079Z" fill="#D38753"/>
<path d="M279.112 285.627L276.722 277.564L277.766 276.389L275.992 275.305L274.635 276.556L275.899 277.673C275.899 277.673 275.599 281.409 275.782 285.813C277.363 289.895 278.777 293.539 278.777 293.539L279.112 285.627Z" fill="#DE3D73"/>
<path d="M272.519 272.79C272.519 272.79 275.217 275.374 275.909 275.262C276.602 275.15 276.961 272.545 276.961 272.545C276.961 272.545 279.299 273.586 279.602 273.932C279.902 274.275 279.294 277.317 278.967 277.48C278.286 277.823 276.228 275.529 275.855 275.823C275.481 276.115 274.421 278.077 274.073 278.036C273.724 277.998 270.944 275.256 271.102 274.248C271.26 273.237 272.519 272.79 272.519 272.79Z" fill="#F8E8D8"/>
<path d="M271.471 268.203C271.471 268.203 269.438 268.007 269.495 266.146C269.55 264.339 271.853 264.745 272.319 266.625C272.327 266.664 272.381 266.666 272.389 266.625C272.498 266.089 272.864 264.451 273.37 264.034C273.37 264.034 272.575 261.344 274.455 260.532C276.338 259.72 280.818 259.657 280.908 262.587C280.998 265.516 280.66 266.418 280.592 267.778C280.521 269.138 278.393 273.16 277.494 273.446C276.594 273.733 272.196 271.005 271.517 270.318C270.839 269.631 271.471 268.203 271.471 268.203Z" fill="#F4BE84"/>
<path d="M284.023 259.077C284.023 259.077 283.216 259.249 282.728 258.952C282.728 258.952 283.731 256.521 283.063 255.502C283.063 255.502 281.586 257.265 277.193 256.426C272.798 255.586 268.808 256.982 267.699 260.729C266.59 264.476 269.361 269.599 271.28 269.929C271.032 269.198 271.471 268.204 271.471 268.204C271.471 268.204 269.438 268.008 269.495 266.146C269.549 264.34 271.852 264.746 272.318 266.626C272.326 266.664 272.381 266.667 272.389 266.626C272.498 266.089 272.863 264.451 273.37 264.034C273.37 264.034 272.574 261.345 274.455 260.533C276.338 259.72 280.818 259.658 280.908 262.587C280.916 262.887 280.921 263.162 280.921 263.421C280.919 263.421 284.29 262.296 284.023 259.077Z" fill="#221E52"/>
<path d="M180.387 155.609L183.51 155.656C187.682 155.718 191.113 152.38 191.175 148.2C191.203 146.437 189.796 144.984 188.033 144.957L176.182 144.78C174.421 144.755 172.971 146.164 172.944 147.927C172.882 152.107 176.214 155.549 180.387 155.609Z" fill="#161111"/>
<path d="M165.349 139.026L199.029 139.527C200.574 139.549 201.809 140.822 201.787 142.369L201.732 146.108C201.708 147.656 200.438 148.891 198.89 148.866L165.21 148.365C163.665 148.343 162.431 147.07 162.452 145.522L162.507 141.784C162.531 140.238 163.804 139.004 165.349 139.026Z" fill="#B5B5B5"/>
<path d="M167.033 138.372L197.367 138.824C199.838 138.862 201.811 140.895 201.773 143.364L201.768 143.756C201.73 146.225 199.699 148.198 197.228 148.163L166.894 147.711C164.425 147.672 162.452 145.642 162.488 143.171L162.493 142.778C162.531 140.309 164.562 138.336 167.033 138.372Z" fill="#CDCDCB"/>
<path d="M162.485 143.252L162.493 142.699C162.528 140.274 164.521 138.336 166.943 138.372L178.729 138.549C178.934 138.9 179.165 139.263 179.43 139.633C179.43 139.633 176.086 142.756 178.04 147.877L166.804 147.711C164.384 147.672 162.449 145.678 162.485 143.252Z" fill="#B5B5B5"/>
<path d="M138.801 73.9069C139.185 48.0945 159.157 27.4626 183.408 27.825C207.659 28.1875 227.005 49.4053 226.62 75.2177C226.397 90.2413 219.535 103.507 209.057 111.901C205.438 114.8 203.272 119.308 203.198 124.123L203.089 131.393L161.179 130.767L161.28 123.932C161.354 119.051 159.264 114.43 155.655 111.426C145.207 102.739 138.574 89.1213 138.801 73.9069Z" fill="#FFA500"/>
<path opacity="0.85" d="M187.106 106.464L177.928 106.437L177.56 131.015L175.824 130.987L176.192 106.431L168.006 106.404L167.783 106.243C167.619 106.129 163.801 103.379 163.779 99.8039C163.768 97.9072 164.796 96.1904 166.84 94.7024C168.968 93.1491 171.031 92.6368 172.963 93.1818C176.307 94.1192 177.915 97.8854 177.983 98.0462L177.955 104.695L187.12 104.725L187.188 96.719L187.368 96.4874C187.483 96.3402 190.213 92.8739 193.742 92.9284C193.745 92.9284 193.748 92.9284 193.748 92.9284C195.696 92.9583 197.451 94.032 198.963 96.1195C200.639 98.4277 201.187 100.556 200.596 102.453C199.71 105.287 196.593 106.404 196.459 106.45L188.84 106.475L188.627 131.178L186.891 131.162L187.106 106.464ZM176.312 98.5639C176.007 97.9235 174.713 95.4764 172.497 94.8578C171.102 94.4653 169.54 94.8877 167.862 96.1113C166.3 97.2477 165.513 98.4849 165.518 99.7875C165.529 102.068 167.862 104.093 168.581 104.665L176.222 104.687L176.312 98.5639ZM198.942 101.921C199.356 100.583 198.89 98.9754 197.56 97.1414C196.386 95.5254 195.097 94.6915 193.726 94.667C193.723 94.667 193.72 94.667 193.715 94.667C191.486 94.6343 189.51 96.6672 188.919 97.3431L188.856 104.731L196.012 104.755C196.519 104.543 198.408 103.652 198.942 101.921Z" fill="#923509"/>
<path opacity="0.58" d="M138.831 72.8298C138.834 72.7317 138.839 72.6309 138.842 72.5327C138.853 72.2439 138.869 71.9523 138.886 71.6634C138.891 71.5899 138.894 71.5135 138.899 71.44C138.921 71.0884 138.948 70.7369 138.978 70.3881C138.987 70.3036 138.995 70.2218 139 70.1374C139.025 69.8594 139.052 69.5787 139.082 69.3035C139.093 69.2081 139.101 69.11 139.112 69.0146C139.153 68.6685 139.194 68.3224 139.24 67.9763C139.245 67.9382 139.251 67.9028 139.256 67.8646C139.297 67.5539 139.344 67.246 139.393 66.9381C139.409 66.8372 139.425 66.7364 139.442 66.6329C139.488 66.3549 139.534 66.0769 139.583 65.799C139.597 65.7308 139.608 65.66 139.619 65.5919C139.681 65.2594 139.747 64.9269 139.812 64.5972C139.831 64.5018 139.853 64.4064 139.872 64.311C139.927 64.0603 139.981 63.8069 140.038 63.5562C140.06 63.4581 140.085 63.3573 140.107 63.2591C140.183 62.9349 140.262 62.6133 140.344 62.2944C140.363 62.2209 140.382 62.15 140.401 62.0792C140.469 61.8203 140.537 61.5641 140.611 61.3052C140.641 61.1962 140.671 61.0845 140.703 60.9755C140.777 60.7193 140.851 60.4659 140.93 60.2125C140.951 60.1389 140.973 60.0653 140.995 59.9944C141.09 59.6892 141.188 59.384 141.289 59.0788C141.327 58.9671 141.366 58.8553 141.404 58.7436C141.477 58.5283 141.551 58.313 141.627 58.0978C141.665 57.9888 141.703 57.877 141.744 57.768C141.851 57.4764 141.96 57.1848 142.071 56.8932C142.112 56.7897 142.153 56.6861 142.194 56.5799C142.276 56.3755 142.357 56.1711 142.439 55.9667C142.488 55.8441 142.54 55.7187 142.592 55.5961C142.682 55.3808 142.774 55.1682 142.867 54.953C142.927 54.814 142.99 54.675 143.052 54.536C143.153 54.3126 143.254 54.0918 143.358 53.8711C143.418 53.7403 143.48 53.6122 143.543 53.4814C143.625 53.3097 143.706 53.1408 143.791 52.9691C143.854 52.8437 143.914 52.7156 143.979 52.5903C144.11 52.3341 144.241 52.0779 144.374 51.8218C144.445 51.6883 144.516 51.5575 144.587 51.4239C144.668 51.274 144.75 51.1242 144.832 50.9743C144.908 50.8326 144.987 50.6936 145.066 50.5519C145.153 50.3965 145.243 50.2412 145.336 50.0859C145.464 49.8651 145.592 49.6444 145.726 49.4291C145.808 49.2929 145.889 49.1539 145.974 49.0204C146.064 48.8732 146.156 48.726 146.249 48.5789C146.325 48.459 146.402 48.3391 146.478 48.2192C146.639 47.9685 146.802 47.7205 146.968 47.4752C147.047 47.358 147.124 47.2408 147.205 47.1237C147.312 46.9683 147.418 46.8157 147.527 46.6631C147.598 46.5623 147.669 46.4615 147.74 46.3634C147.851 46.208 147.963 46.0527 148.075 45.8974C148.132 45.8211 148.189 45.7448 148.246 45.6685C148.465 45.3741 148.685 45.0826 148.911 44.7937C148.971 44.7174 149.031 44.6411 149.091 44.562C149.217 44.4013 149.345 44.2432 149.473 44.0851C149.53 44.0143 149.587 43.9462 149.642 43.878C149.928 43.5292 150.219 43.1831 150.514 42.8452C150.517 42.8425 150.519 42.837 150.525 42.8343C150.669 42.6681 150.814 42.5046 150.961 42.3411C151.013 42.2838 151.064 42.2266 151.116 42.1694C151.585 41.6516 152.067 41.1447 152.558 40.6488C152.593 40.6133 152.631 40.5752 152.667 40.5398C152.83 40.3763 152.996 40.2127 153.163 40.052C153.184 40.0302 153.209 40.0084 153.231 39.9866C153.757 39.4797 154.291 38.9864 154.839 38.5068C154.869 38.4796 154.896 38.455 154.926 38.4305C155.476 37.9482 156.04 37.4822 156.613 37.0271C156.632 37.0134 156.648 36.9998 156.667 36.9862C157.46 36.3621 158.272 35.7653 159.106 35.1985C159.117 35.1931 159.125 35.1849 159.133 35.1794C159.755 34.757 160.387 34.3483 161.03 33.9586C161.038 33.9531 161.049 33.9477 161.057 33.9422C161.924 33.4163 162.81 32.9203 163.714 32.457C153.239 45.0171 139.507 72.9334 151.925 98.2116C168.432 131.81 196.146 121.937 204.496 117.974C203.684 119.887 203.234 121.977 203.201 124.128L203.092 131.398L161.183 130.771L161.284 123.937C161.294 123.174 161.254 122.419 161.161 121.675C161.087 121.078 160.984 120.49 160.847 119.912C160.812 119.767 160.777 119.623 160.738 119.481C160.662 119.195 160.578 118.912 160.488 118.631C160.352 118.209 160.196 117.794 160.027 117.388C159.518 116.167 158.861 115.017 158.071 113.971C157.896 113.739 157.714 113.51 157.526 113.287C157.338 113.064 157.141 112.848 156.94 112.636C156.839 112.529 156.738 112.426 156.634 112.322C156.324 112.014 155.999 111.717 155.659 111.437C154.354 110.349 153.105 109.188 151.925 107.954C151.778 107.801 151.631 107.643 151.487 107.488C151.195 107.175 150.909 106.858 150.626 106.537C150.342 106.215 150.064 105.891 149.789 105.561C149.377 105.065 148.977 104.561 148.584 104.049C148.192 103.537 147.813 103.013 147.44 102.482C147.192 102.128 146.949 101.771 146.712 101.408C145.521 99.6014 144.45 97.6993 143.505 95.7181C143.221 95.1241 142.952 94.5218 142.69 93.9114C142.518 93.5053 142.349 93.0966 142.186 92.6851C142.025 92.2736 141.867 91.8594 141.714 91.4424C141.336 90.3987 140.992 89.3359 140.684 88.2567C139.39 83.7248 138.725 78.9068 138.798 73.9144C138.807 73.5465 138.818 73.1868 138.831 72.8298Z" fill="#EB860D"/>
<path d="M162.32 139.92L202.033 140.512C204.551 140.55 206.622 138.536 206.657 136.012C206.696 133.492 204.684 131.415 202.166 131.377L162.453 130.786C159.935 130.748 157.867 132.761 157.829 135.285C157.793 137.808 159.804 139.885 162.32 139.92Z" fill="#B5B5B5"/>
<path d="M161.442 139.365L202.923 139.983C204.954 140.013 206.621 138.392 206.651 136.364L206.679 134.579C206.709 132.552 205.09 130.881 203.06 130.851L161.578 130.233C159.55 130.203 157.88 131.822 157.85 133.852L157.823 135.639C157.795 137.667 159.414 139.335 161.442 139.365Z" fill="#C6C6C6"/>
<path opacity="0.65" d="M183.053 71.3963C189.694 80.8143 201.524 83.8855 209.476 78.2554C217.425 72.6253 218.485 60.4249 211.841 51.0069C205.2 41.5888 193.37 38.5176 185.421 44.1477C177.469 49.7778 176.409 61.9755 183.053 71.3963Z" fill="#FDCE14"/>
<path d="M197.018 51.2949C198.443 53.3143 200.669 54.1945 201.994 53.257C203.318 52.3196 203.234 49.9242 201.809 47.9021C200.383 45.8801 198.157 45.0026 196.832 45.9401C195.511 46.8775 195.593 49.2729 197.018 51.2949ZM207.174 58.4402C207.539 58.958 208.144 59.1597 208.526 58.8899C208.908 58.6201 208.918 57.9824 208.553 57.4619C208.188 56.9441 207.583 56.7425 207.202 57.0122C206.82 57.282 206.809 57.9225 207.174 58.4402Z" fill="#FFFBD6"/>
<path d="M162.462 130.245L178.777 130.487C177.524 132.013 176.191 135.06 179.429 139.633L162.326 139.377C159.808 139.338 157.799 137.265 157.837 134.741C157.876 132.22 159.947 130.207 162.462 130.245Z" fill="#B5B5B5"/>
<path d="M181.376 -0.000683567L181.105 18.0703L186.002 18.1437L186.273 0.0727322L181.376 -0.000683567Z" fill="#FFA500"/>
<path d="M109.621 89.8836L109.548 94.791L127.583 95.0614L127.657 90.154L109.621 89.8836Z" fill="#FFA500"/>
<path d="M119.334 24.6777L115.818 28.0978L128.381 41.0639L131.894 37.6466L119.334 24.6777Z" fill="#FFA500"/>
<path d="M232.992 92.098L232.853 97.0039L250.88 97.5179L251.02 92.6119L232.992 92.098Z" fill="#FFA500"/>
<path d="M251.084 27.2012L254.447 30.7684L241.334 43.1786L237.971 39.6141L251.084 27.2012Z" fill="#FFA500"/>
<path d="M350.971 357.846L348.652 357.448C348.529 357.571 348.477 357.675 348.475 357.68C350.02 354.552 359.863 299.678 366.101 263.557L366.305 262.377H420.178L435.63 358.225L432.82 358.677L417.756 265.219H368.7C361.384 307.541 352.715 356.102 350.971 357.846Z" fill="#96B0D6"/>
<path d="M388.304 263.527L385.507 264.047L403.096 358.7L405.893 358.18L388.304 263.527Z" fill="#96B0D6"/>
<path d="M395.852 263.585L379.285 358.236L382.088 358.727L398.655 264.075L395.852 263.585Z" fill="#96B0D6"/>
<path d="M422.577 284.779H363.583V287.624H422.577V284.779Z" fill="#96B0D6"/>
<path d="M388.722 311.102H358.882V313.947H388.722V311.102Z" fill="#96B0D6"/>
<path d="M384.102 337.521H353.976V340.367H384.102V337.521Z" fill="#96B0D6"/>
<path d="M426.819 311.102H395.949V313.947H426.819V311.102Z" fill="#96B0D6"/>
<path d="M431.078 337.521H400.856V340.367H431.078V337.521Z" fill="#96B0D6"/>
<path d="M124.51 269.328C124.51 269.328 125.276 267.704 126.456 266.259C127.639 264.818 130.892 263.578 127.293 262.482C123.665 261.379 123.251 263.542 123.003 264.444C122.63 265.804 123.54 264.979 122.654 266.06C121.769 267.142 121.42 268.952 121.42 268.952L124.51 269.328Z" fill="#FBDDB8"/>
<path d="M106.955 272.309C109.541 272.472 114.735 272.958 116.738 274.293C116.738 274.293 119.174 269.219 121.264 266.771C121.264 266.771 125.387 267.69 126.167 268.614C126.167 268.614 121.965 278.413 118.891 278.991C115.817 279.571 110.195 279.751 108.083 278.402C106.799 277.582 105.26 276.32 104.761 274.947C104.298 273.672 105.538 272.219 106.955 272.309Z" fill="#4579D0"/>
<path d="M107.535 277.755C109.647 279.104 115.269 278.924 118.343 278.343C121.161 277.812 124.927 269.53 125.532 268.162C125.81 268.312 126.039 268.465 126.167 268.617C126.167 268.617 121.964 278.417 118.891 278.994C115.817 279.575 110.195 279.755 108.083 278.406C107.638 278.122 107.26 277.733 106.946 277.28C107.132 277.458 107.325 277.621 107.535 277.755Z" fill="#3368B5"/>
<path d="M54.73 262.322C54.73 262.322 56.3596 260.42 57.1444 259.886C57.9293 259.351 58.586 259.038 58.368 258.327C58.1473 257.616 57.4905 258.607 57.3161 258.351C57.139 258.095 58.5915 257.182 57.7658 256.359C56.9401 255.539 55.8228 254.694 55.3704 255.149C54.918 255.604 54.0323 256.258 54.1931 257.487C54.3539 258.716 53.3184 260.191 52.9477 260.741C52.5744 261.292 54.73 262.322 54.73 262.322Z" fill="#FFDDB5"/>
<path d="M35.6897 274.96C35.6897 274.96 42.0529 270.922 46.672 267.616L53.2232 258.857L56.5342 261.07C56.5342 261.07 51.6589 268.556 48.9992 272.399C46.2986 276.298 35.2646 281.225 35.6897 274.96Z" fill="#4484E0"/>
<path d="M125.879 238.622L159.178 219.824L143.609 192.245L148.25 188.82L140.96 187.555L140.843 187.348C140.761 187.397 140.682 187.446 140.601 187.493C130.894 192.973 118.582 189.547 113.101 179.841C107.621 170.134 111.047 157.822 120.753 152.344C120.838 152.298 120.92 152.257 121.004 152.21L105.82 125.316L110.319 121.06L102.67 119.732L70.186 138.073C70.2896 138.247 70.3986 138.416 70.4994 138.596C75.9796 148.303 72.5541 160.615 62.8472 166.095C55.0616 170.491 45.5999 169.153 39.3321 163.441L42.714 159.233L35.0646 157.906L35.5033 158.699C35.4543 158.612 35.3998 158.53 35.3507 158.443C35.2499 158.266 35.1599 158.086 35.0646 157.906L2.58105 176.246L9.62006 188.716L9.60916 188.904L9.70454 188.869L21.0792 209.016C19.9292 209.411 18.7956 209.912 17.7001 210.531C7.99316 216.011 4.56767 228.323 10.0479 238.03C15.5281 247.737 27.8403 251.163 37.5472 245.682C38.6454 245.064 39.6564 244.352 40.5911 243.57L59.092 276.34L66.7414 277.667L65.2045 272.89L92.3903 257.542C92.8046 259.529 93.524 261.483 94.5759 263.344C100.056 273.051 112.368 276.476 122.075 270.996C131.782 265.516 135.208 253.204 129.727 243.497C128.667 241.63 127.365 240 125.879 238.622Z" fill="#C61067"/>
<path d="M42.9913 159.762C42.8905 159.585 42.8006 159.405 42.7052 159.225L10.2217 177.565L28.7226 210.335C27.5726 210.73 26.4389 211.231 25.3434 211.85C15.6365 217.33 12.211 229.642 17.6912 239.349C23.1715 249.056 35.4836 252.482 45.1905 247.001C46.2887 246.383 47.3025 245.672 48.2345 244.889L66.7354 277.659L100.034 258.858C100.448 260.845 101.167 262.799 102.219 264.66C107.699 274.367 120.012 277.793 129.718 272.312C139.425 266.832 142.851 254.52 137.371 244.813C136.321 242.952 135.016 241.325 133.531 239.946L166.829 221.145L148.492 188.667C148.41 188.716 148.331 188.766 148.249 188.812C138.542 194.292 126.23 190.867 120.75 181.16C115.27 171.453 118.695 159.141 128.402 153.66C128.487 153.614 128.568 153.573 128.653 153.527L110.316 121.049L77.8293 139.389C77.9329 139.563 78.0419 139.732 78.1427 139.912C83.623 149.619 80.1975 161.931 70.4906 167.409C60.7837 172.894 48.4716 169.469 42.9913 159.762Z" fill="#ED1E79"/>
<path d="M27.0125 349.076C27.0125 349.076 26.0014 355.802 27.1106 356.39C28.2197 356.982 40.0549 356.151 40.0549 356.151C40.0549 356.151 41.2213 354.491 39.548 353.889C37.8748 353.284 32.3483 351.458 31.8169 349.196L27.0125 349.076Z" fill="#252933"/>
<path d="M37.0115 349.326C37.0115 349.326 36.0004 356.052 37.1096 356.64C38.2187 357.232 50.0539 356.401 50.0539 356.401C50.0539 356.401 51.2203 354.741 49.5471 354.139C47.8738 353.534 42.3473 351.708 41.8159 349.446L37.0115 349.326Z" fill="#2D313D"/>
<path d="M40.0661 260.775C40.0661 260.775 41.1616 264.479 41.1071 266.727C41.0499 268.975 37.6353 270.578 37.6353 270.578L37.5862 272.545L30.9424 272.379C30.9424 272.379 31.0705 271.313 30.9805 270.861C30.8879 270.409 36.0602 260.939 40.0661 260.775Z" fill="#FFDDB5"/>
<path d="M32.2782 349.763L26.6562 349.621C26.6562 349.621 27.5828 335.017 30.0163 327.766C30.0163 327.766 28.2668 319.002 27.8444 313.366C27.8444 313.366 26.2284 310.513 26.9724 303.218L42.7263 303.049C42.7263 303.049 46.1981 321.7 46.675 325.087C47.1519 328.474 42.7808 345.803 42.6691 350.3L36.4858 350.144C36.4858 350.144 37.4696 333.292 39.8459 328.289C39.8459 328.289 37.148 323.722 35.532 320.868C35.532 320.868 36.4313 329.891 35.8263 331.565C35.224 333.241 32.7088 343.866 32.2782 349.763Z" fill="#3F4752"/>
<path d="M41.9546 284.909C42.7558 281.487 41.4042 276.772 40.6439 274.548C39.7664 273.824 38.9516 273.706 38.9516 273.706C38.9516 273.706 38.957 273.704 38.9597 273.701L37.867 272.554L29.9968 272.357C29.9968 272.357 26.0345 273.385 25.345 278.429C24.6555 283.476 27.8194 291.992 27.1708 295.349C26.525 298.709 25.0888 304.023 26.8465 304.767C28.6042 305.511 40.4231 305.244 42.7286 303.051C42.8866 302.901 43.0093 302.729 43.1074 302.538C40.7747 294.229 40.8755 289.52 41.9546 284.909Z" fill="#4484E0"/>
<path d="M41.9544 284.911C42.3741 283.118 42.2024 280.97 41.8345 279.014C41.532 279.202 41.314 279.346 41.314 279.346C41.314 279.346 38.9895 280.42 38.8478 281.736C38.3191 286.674 38.5535 288.693 38.4826 291.538C38.4118 294.383 40.4175 294.432 40.2894 299.553C40.2212 302.316 37.0601 304.006 34.166 304.979C35.6866 304.886 37.2018 304.739 38.578 304.537C40.1041 304.265 41.4203 303.897 42.2351 303.417C42.246 303.412 42.2569 303.404 42.2678 303.398C42.3141 303.371 42.3577 303.341 42.4014 303.314C42.4177 303.303 42.4313 303.295 42.4477 303.284C42.4858 303.256 42.5213 303.229 42.5567 303.202C42.5703 303.191 42.5839 303.18 42.5976 303.169C42.6439 303.131 42.6875 303.096 42.7256 303.057C42.8047 302.984 42.8728 302.902 42.9355 302.818C42.9382 302.815 42.9409 302.809 42.9436 302.807C43.0036 302.725 43.0581 302.638 43.1044 302.545C40.7744 294.231 40.8753 289.522 41.9544 284.911Z" fill="#2D4F9F"/>
<path d="M35.8278 331.571C36.4328 329.897 35.5335 320.874 35.5335 320.874C35.6943 321.158 35.8687 321.463 36.0458 321.774C36.411 317.326 33.2062 312.658 33.2062 312.658C35.2147 322.272 33.9366 328.429 32.6994 332.898C31.4622 337.367 30.3857 349.717 30.3857 349.717L32.277 349.764C32.7076 343.866 35.2228 333.241 35.8278 331.571Z" fill="#2F3740"/>
<path d="M42.3276 256.765C42.0687 256.953 41.7308 257.084 41.3765 257.179C40.371 257.446 39.3082 257.384 38.3162 257.081L33.0295 255.457C32.4218 255.272 31.7759 255.239 31.16 255.392C28.7183 256.005 27.8081 258.52 27.8081 258.52L26.6281 260.741C25.9823 264.101 28.4349 267.254 29.544 267.845C30.6532 268.437 30.0509 270.107 30.5987 270.685C31.1464 271.26 35.9317 271.099 37.0845 270.004C38.2372 268.908 37.8284 262.709 37.8284 262.709C38.9539 262.736 39.458 265 39.458 265C40.0603 263.333 39.0057 261.845 39.0002 261.837C41.1558 259.973 42.1586 257.531 42.4121 256.833C42.4366 256.779 42.3739 256.732 42.3276 256.765Z" fill="#221E52"/>
<path d="M60.4364 270.023C60.4364 270.023 61.7036 269.487 61.8698 268.811C62.0169 268.203 61.9761 268.418 62.0224 268.154C62.0387 268.064 62.0823 267.887 62.0823 267.887C62.0823 267.887 62.4802 266.222 62.998 266.105C63.5158 265.985 63.7447 266.402 63.3741 267.241C63.0034 268.08 64.1834 268.83 65.0882 267.669C65.9929 266.508 67.3963 265.481 67.5653 266.058C67.7343 266.636 66.8104 267.47 66.8104 267.47C66.8104 267.47 66.8513 267.519 67.0721 267.293C67.2928 267.067 67.6062 266.298 67.7288 266.486C67.8514 266.674 68.7208 267.843 67.6661 269.53C66.6115 271.217 65.268 271.381 64.7284 271.52C64.1889 271.661 62.4393 272.58 62.096 273.136C62.1014 273.13 59.766 270.923 60.4364 270.023Z" fill="#FFDDB5"/>
<path d="M59.5859 270.421L60.8531 269.598L63.4011 272.721L62.232 273.647L59.5859 270.421Z" fill="#DEEBF4"/>
<path d="M35.2656 275.178C35.2656 275.178 37.4239 272.823 41.5879 273.703C45.8037 274.594 49.4935 275.442 49.4935 275.442L60.4976 269.607L63.1301 273.066C63.1301 273.066 53.4122 280.737 49.9459 280.644C48.4225 281.08 39.4977 282.105 35.2656 275.178Z" fill="#4484E0"/>
<path d="M62.5779 272.348C59.4794 274.719 50.5764 279.068 45.4069 278.335C45.4069 278.335 42.7935 278.051 40.7578 279.834C44.7256 281.474 48.9386 280.932 49.9388 280.646C50.3421 280.657 50.8299 280.561 51.3776 280.387L51.3749 280.384C55.5307 279.057 63.1229 273.067 63.1229 273.067L62.5779 272.348Z" fill="#2D4F9F"/>
<path d="M101.516 350.582L101.72 353.493C101.72 353.493 104.808 354.517 105.331 353.983C105.854 353.449 106.377 352.133 106.377 352.133V350.244L101.516 350.582Z" fill="#FBDDB8"/>
<path d="M101.509 353.047C101.31 353.031 101.141 353.191 101.141 353.393V357.827C101.141 357.827 100.618 358.361 103.76 358.361C106.902 358.361 115.279 358.361 115.802 357.827C116.325 357.293 115.802 356.759 113.183 355.69C110.565 354.622 107.687 352.753 106.638 351.682C106.638 351.682 104.542 351.682 105.068 353.284C105.068 353.287 104.583 353.287 101.509 353.047Z" fill="#19262D"/>
<path d="M80.9865 345.855L79.9863 348.589C79.9863 348.589 82.3763 350.832 83.0684 350.567C83.7634 350.303 84.7744 349.327 84.7744 349.327L85.7827 347.7L80.9865 345.855Z" fill="#FBDDB8"/>
<path d="M79.9733 348.094C79.7989 347.996 79.5808 348.07 79.4991 348.252L77.6896 352.286C77.6896 352.286 76.9947 352.55 79.8534 353.883C82.7093 355.218 90.326 358.777 91.0209 358.513C91.7158 358.248 91.4569 357.54 89.5112 355.458C87.5655 353.373 85.7097 350.449 85.1946 349.035C85.1946 349.035 83.2897 348.146 83.1126 349.825C83.1126 349.822 82.6711 349.615 79.9733 348.094Z" fill="#19262D"/>
<path d="M100.643 324.081C100.643 324.081 94.0889 340.527 86.0335 349.334L79.8965 346.789C79.8965 346.789 89.6879 326.819 91.9879 322.909C91.9879 322.909 92.8599 310.97 94.089 306.76C94.0917 306.76 102.308 320.225 100.643 324.081Z" fill="#0F192F"/>
<path d="M94.0928 307.836L109.356 308.13C109.356 308.13 111.547 324.083 110.01 329.367C108.476 334.651 106.942 351.683 106.942 351.683H100.805C100.805 351.683 100.996 334.85 101.189 325.258C101.189 325.258 95.2428 312.534 94.0928 307.836Z" fill="#142C4F"/>
<path d="M97.9258 272.598L98.4054 269.971L104.21 269.617L104.859 272.879C104.861 272.879 102.229 277.169 97.9258 272.598Z" fill="#EFCEAB"/>
<path d="M97.7116 272.204C97.7116 272.204 102.459 274.384 104.756 271.898C104.756 271.898 115.33 281.292 109.68 308.726C109.68 308.726 93.5395 308.442 93.1634 308.511C92.7873 308.579 94.4388 306.54 95.1091 303.684C97.2484 294.585 103.726 294.517 97.6626 272.645C97.619 272.487 97.5999 272.414 97.7116 272.204Z" fill="#F5F8FE"/>
<path d="M97.5697 272.141C97.5697 272.141 97.5234 272.146 97.4362 272.157C97.1937 272.192 96.9539 272.236 96.7168 272.288C95.3379 272.765 91.6889 274.405 91.1275 278.599C90.4354 283.785 94.5585 294.032 93.7382 298.615C93.245 301.37 92.3866 306.763 91.5036 310.794C96.1936 311.312 98.2701 309.295 99.213 309.014C100.513 306.485 100.976 301.305 102.224 296.768C102.464 296.149 102.464 293.942 102.644 293.279C105.783 281.747 97.5697 272.141 97.5697 272.141Z" fill="#4579D0"/>
<path d="M95.5816 301.899C94.08 298.493 96.1838 283.769 96.1838 283.769L91.2377 278C91.1941 278.196 91.1587 278.395 91.1314 278.605C90.4393 283.791 94.5624 294.037 93.7421 298.621C93.2489 301.376 92.3905 306.769 91.5075 310.8C92.9001 310.952 94.0582 310.884 95.0284 310.702C94.2953 307.957 95.5816 301.899 95.5816 301.899Z" fill="#3368B5"/>
<path d="M97.2363 272.19L101.452 275.683L102.122 273.155L98.746 272.182L97.2363 272.19Z" fill="#9CD6E2"/>
<path d="M104.756 271.895L102.287 273.05L104.623 275.791C104.62 275.794 105.753 272.987 104.756 271.895Z" fill="#9CD6E2"/>
<path d="M111.476 280.421C111.476 280.421 111.258 278.489 110.961 275.884C110.874 275.127 110.135 273.333 108.977 272.843C107.402 272.175 106.538 272.162 104.756 271.895C104.756 271.895 109.541 291.322 109.203 306.122C109.315 307.466 109.132 308.425 109.059 309.103C109.059 309.103 109.547 308.507 111.732 309.632C113.236 310.409 111.541 301.29 111.103 299.476C112.302 292.415 112.176 287.766 111.476 280.421Z" fill="#4579D0"/>
<path d="M106.771 261.819C106.771 261.819 106.551 264.782 106.551 266.272C106.551 267.763 106.967 270.995 103.986 271.491C101.005 271.987 99.3044 270.521 98.2062 269.888C98.2062 269.888 94.6254 266.771 95.1214 265.776C95.6173 264.782 96.116 261.803 99.0946 261.803C102.079 261.8 106.771 261.819 106.771 261.819Z" fill="#FBDDB8"/>
<path d="M106.3 258.572C107.295 258.572 107.79 258.076 107.79 258.076C106.796 258.572 101.828 256.089 98.8493 255.593C95.868 255.097 94.3774 259.566 94.3774 259.566L93.3827 260.561C92.3881 261.556 92.3881 263.044 93.3827 265.033C94.3774 267.02 98.3506 270.001 98.3506 270.001C98.8466 270.001 97.356 268.51 96.86 268.014C96.364 267.518 95.3693 266.028 96.364 266.028C97.3587 266.028 98.3506 268.014 98.3506 268.014C98.8466 266.524 97.8547 263.046 97.8547 263.046C97.8547 263.046 100.836 263.542 104.809 262.55C108.782 261.556 109.281 259.073 109.281 259.073C107.79 259.07 106.3 258.572 106.3 258.572Z" fill="#221E52"/>
<path d="M117.716 278.705C117.716 278.705 118.705 277.898 118.678 277.255C118.654 276.674 118.673 276.879 118.645 276.631C118.637 276.546 118.629 276.377 118.629 276.377C118.629 276.377 118.553 274.794 118.983 274.551C119.414 274.312 119.725 274.625 119.613 275.467C119.501 276.309 120.744 276.672 121.251 275.404C121.758 274.137 122.739 272.859 123.038 273.331C123.338 273.799 122.733 274.783 122.733 274.783C122.733 274.783 122.782 274.816 122.921 274.557C123.06 274.298 123.139 273.532 123.297 273.668C123.455 273.805 124.532 274.62 124.03 276.394C123.529 278.168 122.373 278.661 121.929 278.925C121.488 279.19 120.166 280.46 120.003 281.043C120.003 281.043 117.351 279.68 117.716 278.705Z" fill="#FFDDB5"/>
<path d="M95.73 276.102C93.122 274.625 90.1625 277.468 91.5387 280.13C92.8577 282.678 95.313 285.798 99.9239 288.81C106.437 293.061 108.895 290.853 111.269 289.878C114.04 288.739 121.21 279.765 121.21 279.765L118.395 277.579C118.395 277.579 110.522 286.417 107.939 285.932C106.947 285.744 103.927 283.468 100.875 280.522C99.4552 279.154 97.9073 277.339 95.73 276.102Z" fill="#4579D0"/>
<path d="M385.137 78.7097C385.189 76.3307 384.824 73.9271 384.02 71.6108L389.211 67.008L385.81 61.5251L379.412 64.1221C377.692 62.3426 375.692 60.9228 373.526 59.8954L373.94 53.0009L367.658 51.5293L364.955 57.9252C362.581 57.9034 360.183 58.2958 357.878 59.1297L353.24 53.8947L347.759 57.2957L350.419 63.8551C348.719 65.5446 347.364 67.4958 346.372 69.5996L339.235 69.1691L337.764 75.4532L344.427 78.271C344.424 80.5437 344.8 82.8356 345.579 85.0456L340.129 89.8773L343.53 95.3602L350.307 92.6106C351.937 94.262 353.815 95.5946 355.839 96.5811L355.401 103.887L361.682 105.359L364.516 98.6522C366.792 98.6849 369.089 98.3361 371.307 97.5839L376.101 102.993L381.581 99.5924L378.894 92.9703C380.624 91.308 382.017 89.3813 383.042 87.2939L390.102 87.719L391.574 81.4349L385.137 78.7097ZM370.157 86.9478C365.375 89.9154 359.093 88.4439 356.126 83.6586C353.158 78.8732 354.63 72.5891 359.412 69.6214C364.195 66.6538 370.476 68.1253 373.444 72.9107C376.409 77.696 374.94 83.9801 370.157 86.9478Z" fill="#A9CEEA"/>
<path d="M382.687 79.9831C382.739 77.6041 382.374 75.2006 381.57 72.8842L386.761 68.2815L383.36 62.7985L376.962 65.3955C375.242 63.616 373.242 62.1962 371.075 61.1689L371.49 54.2743L365.208 52.8027L362.505 59.1986C360.131 59.1768 357.733 59.5692 355.428 60.4031L350.789 55.1681L345.309 58.5691L347.969 65.1285C346.269 66.8181 344.914 68.7693 343.922 70.8731L336.785 70.4425L335.313 76.7266L341.976 79.5444C341.974 81.8172 342.35 84.109 343.129 86.3191L337.679 91.1507L341.08 96.6337L347.857 93.884C349.487 95.5354 351.364 96.868 353.389 97.8545L352.951 105.161L359.232 106.632L362.066 99.9256C364.342 99.9583 366.639 99.6095 368.857 98.8574L373.651 104.267L379.131 100.866L376.444 94.2437C378.174 92.5814 379.567 90.6547 380.591 88.5673L387.652 88.9924L389.124 82.7083L382.687 79.9831ZM367.707 88.2212C362.924 91.1889 356.643 89.7173 353.675 84.932C350.708 80.1466 352.179 73.8625 356.962 70.8948C361.745 67.9272 368.026 69.3987 370.994 74.1841C373.961 78.9694 372.49 85.2535 367.707 88.2212Z" fill="#C9E2F4"/>
<path d="M336.782 70.4386L338.905 70.5667L339.232 69.166L336.782 70.4386Z" fill="#A9CEEA"/>
<path d="M365.208 52.8L367.658 51.5273L366.947 53.206L365.208 52.8Z" fill="#A9CEEA"/>
<path d="M350.786 55.1652L353.236 53.8926L350.931 55.326L350.786 55.1652Z" fill="#A9CEEA"/>
<path d="M359.232 106.63L361.68 105.357L359.941 104.951L359.232 106.63Z" fill="#A9CEEA"/>
<path d="M387.654 88.9906L390.104 87.7179L387.981 87.5898L387.654 88.9906Z" fill="#A9CEEA"/>
<path d="M373.65 104.263L376.1 102.991L375.959 102.83L373.65 104.263Z" fill="#A9CEEA"/>
<path d="M211.084 257.847L211.572 258.916L218.115 257.054L217.063 255.084L211.084 257.847Z" fill="#EA1768"/>
<path d="M209.544 255.139L209.947 255.633L213.28 252.229L212.073 251.166L209.544 255.139Z" fill="#EA1768"/>
<path d="M216.561 263.247L216.95 261.759L212.386 261.217L212.391 261.795L216.561 263.247Z" fill="#EA1768"/>
<path d="M195.024 273.788C194.871 273.39 194.694 272.251 194.631 271.614C194.569 270.976 195.362 269.946 196.405 270.368C197.449 270.788 198.943 271.859 198.471 272.516C198.002 273.172 197.005 274.224 196.825 274.453C196.645 274.682 195.176 274.186 195.024 273.788Z" fill="#F49C76"/>
<path d="M193.976 267.253L197.36 274.295C197.36 274.295 197.638 275.107 199.407 273.567C199.6 273.398 199.657 273.12 199.548 272.888C199.355 272.482 198.864 272.172 198.799 271.725C198.679 270.891 198.614 270.684 197.644 269.267C197.289 268.749 197.262 267.833 196.682 266.858C196.641 266.85 196.597 266.841 193.976 267.253Z" fill="#012B6A"/>
<path d="M195.063 262.298C195.063 262.298 194.616 265.274 196.853 267.154C196.853 267.154 203.712 264.636 209.887 267.478C209.887 267.478 205.178 262.35 204.154 253.842C204.154 253.839 203.614 258.524 195.063 262.298Z" fill="#EA1768"/>
<path d="M209.162 259.859C210.696 263.767 211.124 267.192 210.121 267.506C209.118 267.819 207.061 264.906 205.527 260.998C203.992 257.09 203.565 253.665 204.567 253.352C205.573 253.035 207.631 255.951 209.162 259.859Z" fill="#EA1768"/>
<path d="M208.967 259.932C210.466 263.755 210.913 267.091 209.964 267.385C209.016 267.679 207.029 264.821 205.53 260.997C204.032 257.174 203.585 253.839 204.533 253.544C205.481 253.25 207.468 256.111 208.967 259.932Z" fill="#F785B4"/>
<path d="M208.506 260.081C209.861 263.534 210.417 266.501 209.749 266.708C209.079 266.916 207.438 264.283 206.081 260.83C204.726 257.378 204.171 254.41 204.838 254.203C205.509 253.996 207.152 256.628 208.506 260.081Z" fill="white"/>
<path d="M204.762 255.535C204.691 255.557 204.642 255.625 204.609 255.734C204.77 256.966 205.288 258.813 206.081 260.83C206.931 262.994 207.893 264.836 208.656 265.858C208.719 265.885 208.773 265.891 208.822 265.877C209.327 265.722 208.825 263.283 207.702 260.427C206.582 257.568 205.266 255.38 204.762 255.535Z" fill="#E7E7E7"/>
<path d="M205.358 258.812C205.563 259.453 205.805 260.131 206.078 260.829C206.334 261.483 206.601 262.104 206.868 262.685L207.8 262.311C207.953 260.679 206.519 258.758 206.519 258.758L205.358 258.812Z" fill="#EA1768"/>
<path d="M195.063 262.299L192.196 263.612C192.057 263.779 191.858 264.062 191.741 264.457C191.474 265.356 191.839 266.128 191.954 266.365C192.401 267.302 193.213 267.711 193.469 267.828C194.597 267.605 195.728 267.381 196.856 267.158C196.39 266.632 195.856 265.896 195.428 264.553C195.131 263.621 195.063 262.89 195.063 262.299Z" fill="#012B6A"/>
<path d="M193.682 267.706C193.682 267.706 194.687 269.847 195.235 269.158C195.785 268.469 196.854 267.152 196.854 267.152L193.682 267.706Z" fill="#191740"/>
<path d="M196.352 262.098C196.352 262.098 199.401 261.529 202.235 257.256C202.235 257.256 201.202 261.087 196.352 262.098Z" fill="#F785B4"/>
<path d="M198.704 269.476C198.57 269.19 198.273 269.094 198.023 269.122C197.799 269.146 196.965 270.879 196.687 271.386C196.439 271.795 196.998 272.365 197.401 271.73C197.805 271.095 198.791 269.659 198.704 269.476Z" fill="#FEB48C"/>
<path d="M198.045 269.005C197.911 268.719 197.614 268.624 197.363 268.651C197.14 268.675 196.306 270.409 196.028 270.916C195.78 271.324 196.339 271.894 196.742 271.259C197.145 270.624 198.129 269.19 198.045 269.005ZM199.219 270.158C199.263 269.883 198.75 269.676 198.538 269.804C198.355 269.913 197.325 271.709 197.064 272.112C196.93 272.33 197.358 272.918 197.761 272.284C198.167 271.651 199.189 270.349 199.219 270.158Z" fill="#FEB48C"/>
<path d="M199.555 271.013C199.591 270.708 199.239 270.514 199.005 270.637C198.836 270.724 197.934 272.032 197.727 272.436C197.566 272.648 197.789 273.128 198.255 272.602C198.719 272.076 199.533 271.179 199.555 271.013Z" fill="#FEB48C"/>
<path d="M194.631 271.703C194.631 271.703 194.604 271.175 194.571 270.779C194.555 270.589 194.647 270.496 194.98 269.916C195.312 269.332 195.571 268.973 195.571 268.973C195.571 268.973 197.084 269.523 197.34 269.624C197.596 269.728 197.253 270.491 196.438 270.322L195.988 270.281C195.988 270.281 196.154 271.036 195.86 271.662C195.566 272.289 194.696 272.289 194.631 271.703Z" fill="#F49C76"/>
<path d="M196.64 270.349C196.643 270.327 196.626 270.305 196.602 270.303L195.904 270.234L195.912 270.289C196.117 271.48 195.596 271.905 195.591 271.91C195.572 271.924 195.569 271.951 195.583 271.968C195.588 271.973 195.591 271.976 195.599 271.978C195.613 271.984 195.629 271.984 195.643 271.973C195.664 271.954 196.193 271.529 196.005 270.327L196.596 270.384C196.616 270.387 196.637 270.371 196.64 270.349Z" fill="#BA6549"/>
<path d="M194.521 272.822L194.131 273.934L196.826 275.967L197.303 274.629C196.616 273.621 194.521 272.822 194.521 272.822Z" fill="white"/>
<path d="M186.71 272.556C188.2 274.663 190.075 280.724 190.075 280.724C190.075 280.724 190.672 279.326 190.844 280.478L194.277 273.088C194.277 273.088 196.842 274.2 197.3 275.072C197.3 275.072 193.697 287.629 191.642 288.569C189.585 289.512 186.296 285.127 186.296 285.127L184.998 273.417C184.876 272.439 186.598 272.398 186.71 272.556Z" fill="#4484E0"/>
<path d="M187.939 277.347C188.037 275.927 186.532 273.311 185.243 272.812C185.072 272.954 184.966 273.15 185.001 273.415L186.298 285.125C186.298 285.125 187.865 287.209 189.511 288.193C188.789 285.454 187.723 280.492 187.939 277.347Z" fill="#346ED8"/>
<path d="M179.7 351.557L179.408 354.503C179.408 354.503 182.289 355.732 182.801 355.146C183.313 354.563 183.665 354.715 183.665 354.715L183.91 350.99L179.7 351.557Z" fill="#22313B"/>
<path d="M167.137 350.654L167.314 353.48L171.069 353.292L171.513 350.145L167.137 350.654Z" fill="#22313B"/>
<path d="M168.139 302.971C168.139 302.971 167.929 310.364 168.36 314.604C168.79 318.845 169.592 329.44 168.951 332.593C168.363 335.49 166.564 348.175 166.231 351.851C166.193 352.26 166.531 352.609 166.959 352.612C168.613 352.617 171.262 352.892 171.712 352.083C172.292 351.042 176.601 334.926 177.241 331.773C177.881 328.62 179.059 326.009 179.059 326.009C179.059 326.009 179.489 330.249 179.399 333.419L178.868 352.102C178.854 352.56 179.26 352.928 179.734 352.884C181.244 352.748 183.081 352.724 184.307 352.369C184.307 352.369 186.28 339.948 186.994 334.152C187.711 328.358 188.823 307.271 187.308 304.843C185.787 302.415 168.139 302.971 168.139 302.971Z" fill="#3F4752"/>
<path d="M166.229 351.852C166.19 352.26 166.528 352.609 166.956 352.612C167.316 352.612 167.776 352.609 168.278 352.595C169.131 346.66 172.137 329.726 172.717 326.094C173.218 322.949 171.709 309.517 170.913 302.922C169.24 302.936 168.139 302.971 168.139 302.971C168.139 302.971 167.929 310.364 168.36 314.604C168.79 318.845 169.591 329.44 168.951 332.593C168.362 335.493 166.564 348.178 166.229 351.852ZM180.77 314.166C180.159 316.261 178.8 326.617 178.8 326.617C178.955 326.233 179.056 326.009 179.056 326.009C179.056 326.009 179.486 330.249 179.396 333.419L178.865 352.102C178.851 352.56 179.257 352.928 179.732 352.884C180.991 352.77 182.424 352.688 183.866 352.41C182.835 352.203 181.244 351.481 180.835 350.639C180.315 349.568 181.972 330.056 181.972 330.056C180.974 326.328 180.77 314.166 180.77 314.166Z" fill="#2F3740"/>
<path d="M166.701 353.613C166.701 353.613 170.802 352.228 171.802 352.757C171.802 352.757 171.775 353.757 172.268 354.272C172.761 354.787 175.718 357.872 175.198 358.36C174.677 358.845 169.589 359.202 166.575 358.115L166.701 353.613ZM179.364 353.877C179.193 353.858 179.037 353.992 179.034 354.163L178.928 357.943C178.928 357.943 178.457 358.384 181.212 358.463C183.967 358.542 191.311 358.75 191.783 358.308C192.254 357.867 191.807 357.398 189.54 356.42C187.27 355.444 184.79 353.776 183.899 352.839C183.899 352.839 182.062 352.787 182.482 354.166C182.479 354.169 182.051 354.155 179.364 353.877Z" fill="#2D313D"/>
<path d="M174.464 268.539L175.132 265.852L180.944 265.884L181.358 269.307C181.358 269.307 178.426 273.569 174.464 268.539Z" fill="#BA6549"/>
<path d="M184.049 258.357C184.049 258.357 184.005 261.21 183.902 262.734C183.795 264.257 183.599 267.745 180.52 268.042C177.438 268.339 175.805 266.72 174.729 265.996C174.729 265.996 171.292 262.556 171.87 261.575C172.448 260.594 173.167 257.586 176.211 257.796C179.255 258.008 184.049 258.357 184.049 258.357Z" fill="#FEB48C"/>
<path d="M183.302 254.769L177.353 251.896C175.96 251.226 174.284 251.501 173.213 252.616C172.142 253.73 171.546 255.178 171.546 255.178L170.461 256.123C169.376 257.069 169.27 258.592 170.145 260.69C171.02 262.792 174.87 266.119 174.87 266.119C175.377 266.154 173.96 264.525 173.489 263.982C173.017 263.44 172.107 261.846 173.121 261.917C174.137 261.988 175.009 264.089 175.009 264.089C175.622 262.601 174.854 258.976 174.854 258.976C174.854 258.976 177.865 259.696 181.996 258.96C186.128 258.227 186.812 255.723 186.812 255.723C186.114 255.673 185.425 255.521 184.882 255.366C184.337 255.216 183.811 255.014 183.302 254.769Z" fill="#221E52"/>
<path d="M173.322 268.079C173.322 268.079 172.298 271.21 172.84 271.573C173.382 271.935 175.911 273.26 175.911 273.26C175.911 273.26 174.587 275.006 174.587 275.911C174.587 276.816 184.283 288.567 184.283 288.567C184.283 288.567 186.994 275.848 186.392 275.246C185.79 274.644 184.771 273.559 184.771 273.559C184.771 273.559 185.618 271.03 184.771 270.428C183.923 269.826 181.454 269.224 181.454 269.224L180.31 270.188L174.527 267.117L173.322 268.079Z" fill="#F5F5F5"/>
<path d="M187.176 298.802C187.176 298.08 187.539 285.79 187.539 285.79C187.539 285.79 188.863 276.873 187.419 273.742C186.841 272.488 185.953 271.605 185.097 270.992C185.312 271.949 184.773 273.562 184.773 273.562C184.773 273.562 185.792 274.647 186.394 275.249C186.996 275.851 184.285 288.569 184.285 288.569L182.9 303.042L183.745 307.31C183.745 307.31 186.517 307.934 188.623 305.176C188.62 305.173 187.176 299.524 187.176 298.802Z" fill="#4484E0"/>
<path d="M184.481 303.499C184.481 303.499 185.189 288.953 185.762 286.421C186.051 285.148 185.827 283.557 185.536 282.287C184.942 285.486 184.285 288.566 184.285 288.566L182.9 303.039L183.745 307.306C183.745 307.306 185.288 307.653 186.944 306.682C186.201 306.058 185.176 305.001 184.481 303.499Z" fill="#286BCE"/>
<path d="M181.453 269.224L180.309 270.188L174.526 267.117L174.324 267.278L178.426 271.935L180.189 270.654L182.222 271.649L183.301 269.766C182.382 269.453 181.453 269.224 181.453 269.224Z" fill="#9BD4DF"/>
<path d="M181.56 272.733L181.985 271.534L180.187 270.656L178.642 271.779L180.097 273.368L181.045 280.54L183.828 288.018C184.114 288.367 184.28 288.569 184.28 288.569C184.28 288.569 184.356 288.212 184.479 287.626L181.56 272.733Z" fill="#DE3D73"/>
<path d="M183.829 288.015C180.181 277.711 173.218 268.41 173.218 268.41C172.973 269.222 172.406 271.285 172.839 271.574C173.381 271.936 175.91 273.261 175.91 273.261C175.91 273.261 174.586 275.008 174.586 275.912C174.586 276.695 181.919 285.687 183.829 288.015ZM186.391 275.247C185.789 274.645 184.77 273.561 184.77 273.561C184.77 273.561 185.617 271.032 184.77 270.429C184.443 270.198 183.873 269.966 183.298 269.767C183.336 272.719 184.647 286.802 184.647 286.802C185.366 283.289 186.854 275.708 186.391 275.247Z" fill="#68A9EA"/>
<path d="M184.283 288.566C184.283 288.566 174.587 276.812 174.587 275.91C174.587 275.005 175.911 273.259 175.911 273.259C175.911 273.259 173.382 271.934 172.84 271.572C172.298 271.209 173.322 268.078 173.322 268.078C173.322 268.078 169.346 269.735 166.635 271.934L167.42 287.715L168.551 294.591L167.044 306.132C167.044 306.132 176.753 308.195 182.173 306.93C182.173 306.93 185.245 290.936 184.702 289.672C184.64 289.519 184.495 289.13 184.283 288.566Z" fill="#4484E0"/>
<path d="M174.998 307.181L172.537 301.813C172.537 301.813 169.164 293.019 169.164 291.572C169.164 290.125 171.319 279.012 171.319 279.012L167.365 286.612L167.42 287.718L168.551 294.594L166.635 306.753C166.635 306.753 170.226 306.827 174.998 307.181Z" fill="#286BCE"/>
<path d="M174.575 303.978C174.575 303.978 174.695 302.112 172.163 302.433C171.58 302.507 171.209 301.978 170.945 301.09L168.547 301.951C169.746 304.398 170.743 306.221 171.089 306.556C172.051 307.488 172.621 307.96 173.131 307.05C173.64 306.14 174.673 307.276 174.956 306.442C175.24 305.611 176.594 306.72 176.526 305.736C176.458 304.75 174.575 303.978 174.575 303.978Z" fill="#FBC0A4"/>
<path d="M168.073 302.301L168.779 303.784C168.779 303.784 171.019 303.432 172.412 302.067L171.752 300.68L168.073 302.301Z" fill="#F8E8D8"/>
<path d="M166.634 271.934C166.634 271.934 159.647 287.837 160.129 290.969C160.612 294.1 168.321 303.499 168.321 303.499L172.537 301.812L165.849 289.704C165.852 289.704 177.717 276.452 166.634 271.934Z" fill="#4484E0"/>
<path d="M163.743 295.187C161.846 291.211 163.111 289.181 163.111 289.181C162.748 287.061 165.727 274.051 165.729 274.043C163.857 278.471 159.756 288.546 160.129 290.971C160.511 293.459 165.457 299.902 167.471 302.444C166.484 300.61 164.936 297.686 163.743 295.187Z" fill="#286BCE"/>
<path d="M378.591 230.471C378.591 230.471 379.806 252.678 380.615 257.436C380.615 257.436 380.13 258.695 377.266 259.501C374.405 260.308 372.729 261.112 373.863 262.423C373.863 262.423 384.665 262.674 385.529 262.071C386.393 261.466 386.068 260.51 384.826 258.245C384.826 258.245 386.608 232.716 385.581 230.473H378.591V230.471ZM387.477 230.471C387.477 230.471 387.638 236.992 389.745 241.472C391.851 245.955 395.849 254.967 395.849 256.428C395.849 257.888 395.849 260.052 395.849 260.052C395.849 260.052 398.225 261.562 399.468 258.995C399.468 258.995 398.928 255.117 398.441 252.097C397.955 249.075 396.064 239.81 395.361 236.94C394.658 234.071 394.497 230.471 394.497 230.471H387.477Z" fill="#E8B795"/>
<path d="M377.025 259.57C374.314 260.352 372.763 261.148 373.864 262.42C373.864 262.42 384.667 262.671 385.531 262.069C386.335 261.507 386.108 260.641 385.078 258.703C385.075 258.706 379.644 261.049 377.025 259.57ZM395.848 260.055C395.848 260.055 394.226 261.401 395.079 262.837C395.93 264.273 399.859 263.243 400.347 262.475C400.832 261.706 399.47 258.997 399.47 258.997L395.848 260.055Z" fill="#2D313D"/>
<path d="M388.196 162.767C388.196 162.767 390.128 161.767 391.602 165.667C393.074 169.569 393.15 175.649 392.619 177.72C392.619 177.72 396.895 182.323 393.401 185.331C393.401 185.331 388.586 190.394 388.27 191.7C388.144 191.394 386.079 187.675 382.732 187.468C379.383 187.26 371.134 178.595 375.532 177.246C375.532 177.246 375.205 178.646 376.707 178.311C378.208 177.973 377.263 172.806 377.276 170.978C377.293 169.149 378.394 164.645 381.596 162.732C384.795 160.819 388.482 160.955 388.196 162.767Z" fill="#1C1715"/>
<path d="M382.729 174.798C382.729 174.798 382.036 177.374 381.581 177.717C381.581 177.717 381.126 178.905 382.467 182.262C383.81 185.62 387.209 183.745 387.754 182.829C388.299 181.914 389.498 180.159 388.402 178.415C388.402 178.415 386.901 177.324 387.686 174.959C387.688 174.959 382.968 174.008 382.729 174.798Z" fill="#EBA97A"/>
<path d="M388.274 175.019C388.274 175.019 385.998 176.785 384.137 176.104C382.276 175.423 380.627 173.624 380.117 171.823C379.608 170.022 380.436 166.408 381.687 165.122C382.938 163.836 387.59 162.991 388.895 164.667C390.203 166.34 390.71 173.096 388.274 175.019Z" fill="#FDC596"/>
<path d="M392.469 206.891C392.469 206.891 397.418 209.556 397.69 210.899L392.234 209.155L392.469 206.891Z" fill="#BF027C"/>
<path d="M378.083 208.342C378.083 208.342 376.017 222.848 378.023 232.091C378.023 232.091 392.553 233.198 395.281 231.726C395.281 231.726 396.194 215.809 395.066 208.424L378.083 208.342Z" fill="#314452"/>
<path opacity="0.15" d="M395.281 231.727C395.281 231.727 395.256 230.354 395.412 228.972C394.188 229.585 391.474 231.196 387.332 230.553C381.707 229.68 380.415 218.431 381.077 213.142C381.325 211.166 382.018 209.384 382.789 207.926L378.083 208.343C378.083 208.343 376.017 222.849 378.023 232.092C378.023 232.092 392.553 233.199 395.281 231.727Z" fill="#231F20"/>
<path d="M387.64 177.551C387.64 177.551 383.571 179.334 381.601 177.301C381.601 177.301 373.071 185.847 377.911 208.261C377.911 208.261 394.18 209.1 394.502 209.157C394.823 209.215 393.333 204.296 391.43 202.933C389.542 201.579 378.622 195.289 387.681 177.911C387.743 177.794 387.735 177.726 387.64 177.551Z" fill="#F6F6F6"/>
<path d="M389.169 208.84C376.292 205.919 380.274 192.751 379.832 190.113C379.467 187.919 383.102 180.659 384.337 178.275C383.345 178.283 382.328 178.054 381.601 177.305C381.601 177.305 373.071 185.851 377.911 208.265C377.911 208.265 384.375 208.597 389.237 208.859C389.212 208.851 389.193 208.845 389.169 208.84Z" fill="#DCE2EA"/>
<path d="M375.049 184.138C375.049 184.138 375.306 182.508 375.856 180.364C376.014 179.748 376.426 179.015 376.995 178.663C378.23 177.9 380.214 177.522 381.74 177.301C381.74 177.301 377.497 193.466 377.785 205.781C377.993 206.866 378.082 207.803 377.911 208.261C377.911 208.261 376.9 208.659 375.167 209.82C373.575 210.885 375.782 201.759 376.159 200.249C375.131 194.376 374.447 190.251 375.049 184.138ZM387.762 177.502C387.762 177.502 388.83 177.614 390.296 178.056C390.885 178.235 394.867 179.691 394.597 186.021C394.302 192.856 393.684 198.619 394.668 200.969C395.651 203.318 397.894 207.22 398.017 211.43C392.943 207.34 386.806 202.944 383.446 195.883C378.769 186.062 387.762 177.502 387.762 177.502Z" fill="#F1599A"/>
<path d="M391.417 178.584C392.777 179.429 394.791 181.459 394.594 186.021C394.3 192.855 393.682 198.619 394.665 200.968C395.649 203.317 397.892 207.22 398.015 211.43C398.015 211.43 395.818 204.405 392.24 200.728C392.237 200.726 395.11 185.942 391.417 178.584Z" fill="#DD458E"/>
<path d="M388.179 177.498L384.571 180.479L383.996 178.356L386.89 177.542L388.179 177.498Z" fill="#9CD6E2"/>
<path d="M381.741 177.303L383.858 178.273L381.858 180.576C381.858 180.573 380.885 178.218 381.741 177.303Z" fill="#9CD6E2"/>
<path d="M390.858 180.799C390.858 180.799 392.725 181.521 393.785 180.082C394.845 178.643 393.066 177.777 393.066 177.777C393.066 177.777 394.224 179.235 392.537 179.417C390.85 179.6 390.839 176.769 391.433 175.204C393.145 170.691 392.153 167.724 391.36 166.108C390.567 164.492 389.158 163.306 389.158 163.306L388.193 162.77L387.525 164.407C387.525 164.407 388.741 166.263 389.354 167.975C389.97 169.686 390.231 171.885 388.79 174.719C387.351 177.551 386.991 180.336 390.858 180.799Z" fill="#442B19"/>
<path d="M387.526 164.405L388.194 162.767C388.194 162.767 390.126 161.767 391.6 165.667C392.107 167.008 392.371 168.615 392.478 170.234C391.816 172.66 389.943 175.455 388.924 177.829C387.638 180.827 391.576 180.026 391.576 180.026C391.576 180.026 390.262 182.247 388.289 180.535C386.117 178.652 388.011 175.548 388.84 173.921C389.668 172.294 389.529 169.215 388.733 167.465C387.94 165.716 387.526 164.405 387.526 164.405Z" fill="#513826"/>
<path d="M387.526 164.406C387.526 164.406 383.117 163.237 380.901 168.575C378.685 173.914 381.866 176.374 381.307 178.02C380.748 179.666 379.247 179.904 377.958 178.208C377.958 178.208 379.544 179.23 379.778 178.078C380.015 176.925 377.38 175.233 377.62 170.829C377.704 169.281 377.955 167.951 378.244 166.875C378.923 165.283 379.996 163.684 381.593 162.732C384.795 160.822 388.482 160.956 388.193 162.768L387.526 164.406Z" fill="#442B19"/>
<path d="M369.422 181.665C369.283 181.853 368.612 182.693 367.525 183.009C367.492 183.017 367.457 183.006 367.44 182.976C367.247 182.668 366.176 180.984 365.816 180.834C365.421 180.671 363.696 179.981 363.993 179.537C364.241 179.167 365.459 179.224 365.841 179.251C365.895 179.254 365.933 179.202 365.914 179.15C365.743 178.692 365.961 177.294 366.25 176.341C366.487 175.556 367.045 175.043 367.438 174.989C367.83 174.934 366.811 178.482 369.498 181.292C369.52 181.317 369.441 181.644 369.422 181.665Z" fill="#FBDDB8"/>
<path d="M389.422 181.273C391.842 180.175 394.232 182.922 392.804 185.162C391.436 187.309 389.021 189.868 384.707 192.163C378.617 195.4 376.622 193.256 374.602 192.207C372.245 190.98 366.626 182.483 366.626 182.483L369.288 180.777C369.288 180.777 375.54 189.209 377.859 188.985C378.75 188.898 381.598 187.127 384.527 184.77C385.887 183.674 387.4 182.192 389.422 181.273Z" fill="#F1599A"/>
<defs>
<linearGradient id="paint0_linear_646_225" x1="276.692" y1="277.328" x2="282.585" y2="293.425" gradientUnits="userSpaceOnUse">
<stop stop-color="#CFD4D8"/>
<stop offset="1" stop-color="#CFD4D8"/>
</linearGradient>
</defs>
</svg>
