<svg width="65" height="65" viewBox="0 0 65 65" fill="none" xmlns="http://www.w3.org/2000/svg">
<rect width="65" height="65" rx="32.5" fill="#BCA2FF" fill-opacity="0.62"/>
<path d="M45.5043 20.1081C45.5043 19.8055 45.2052 19.6543 44.906 19.503C39.2223 17.9903 33.0899 19.9568 29.3507 24.4948L27.4063 26.7638L23.3679 25.7049C21.7226 25.0999 20.0773 25.8562 19.3295 27.3689L16.1885 32.9657C16.1885 32.9657 16.1885 33.117 16.0389 33.117C15.8893 33.5708 16.1885 33.8733 16.6372 34.0246L21.7226 35.0835C21.2739 36.4449 20.8252 37.8063 20.6756 39.1677C20.6756 39.4702 20.6756 39.6215 20.8252 39.7727L25.3123 44.1595C25.4619 44.3107 25.6114 44.3107 25.9106 44.3107C27.2567 44.1595 28.7524 43.8569 30.0985 43.4031L31.1455 48.3949C31.1455 48.6975 31.5942 49 31.8934 49C32.043 49 32.1925 49 32.1925 48.8487L37.7266 45.6721C39.0728 44.9158 39.6711 43.2519 39.3719 41.7392L38.3249 37.3525L40.4189 35.386C45.0556 31.9069 47 25.8562 45.5043 20.1081ZM17.9833 32.8145L20.526 28.1252C20.9747 27.2176 21.8722 26.9151 22.7696 27.2176L26.2097 28.1252L24.714 29.9404C23.8166 31.1505 22.9192 32.3607 22.3209 33.7221L17.9833 32.8145ZM37.1284 44.7645L32.4917 47.4873L31.5942 43.1006C32.9404 42.4955 34.1369 41.5879 35.3335 40.6803L37.2779 38.8651L38.1753 42.3443C38.1753 43.2519 37.8762 44.3107 37.1284 44.7645ZM39.5215 34.6297L34.2865 39.4702C32.043 41.4367 29.2011 42.6468 26.2097 42.9493L22.3209 39.0164C22.7696 35.9911 23.9661 33.117 25.9106 30.848L28.3037 28.1252L28.4533 27.9739L30.5472 25.5537C33.8378 21.6207 39.2223 19.8055 44.1582 20.8644C45.2052 26.0075 43.5599 31.3018 39.5215 34.6297ZM37.7266 24.4948C36.0814 24.4948 34.8848 25.8562 34.8848 27.3689C34.8848 28.8815 36.2309 30.2429 37.7266 30.2429C39.3719 30.2429 40.5685 28.8815 40.5685 27.3689C40.5685 25.8562 39.3719 24.4948 37.7266 24.4948ZM37.7266 28.8815C36.9788 28.8815 36.3805 28.2765 36.3805 27.5201C36.3805 26.7638 36.9788 26.1587 37.7266 26.1587C38.4745 26.1587 39.0728 26.7638 39.0728 27.5201C39.0728 28.2765 38.4745 28.8815 37.7266 28.8815Z" fill="#2E0B88"/>
</svg>
