<svg width="574" height="414" viewBox="0 0 574 414" fill="none" xmlns="http://www.w3.org/2000/svg">
<path d="M96.5868 344.389C96.5868 344.389 98.4119 294.765 89.9902 290.62C81.5686 286.475 86.1784 323.205 82.2722 323.862C78.3661 324.519 74.3561 266.345 69.1936 267.023C64.0314 267.702 70.3634 306.444 68.1878 306.384C66.0121 306.323 55.8171 245.15 44.3211 251.552C32.825 257.954 66.7045 320.855 62.5074 324.112C58.3103 327.369 52.5277 298.208 43.381 305.448C34.2342 312.688 66.9013 341.563 63.0586 345.989C59.216 350.414 42.8502 326.595 42.5793 341.234C42.3084 355.873 66.7894 356.865 73.6207 371.901C80.4519 386.938 77.239 415.595 88.3005 409.718C99.3619 403.84 96.5868 344.389 96.5868 344.389Z" fill="#8DD3AD"/>
<path d="M27.2441 293.852C27.9976 293.776 28.7586 293.836 29.491 294.029C43.2877 297.623 46.5131 334.734 51.6839 337.069C56.6597 339.316 51.7778 308.793 63.016 316.158C74.2542 323.523 61.206 356.172 70.6146 354.373C80.0233 352.575 69.8921 336.112 87.0209 342.142C99.2072 346.432 93.6351 380.036 89.6981 398.013C88.2561 404.598 82.376 409.331 75.517 409.411C65.2694 409.53 51.7701 409.684 51.1597 409.678C38.9122 409.555 -2.3144 375.886 1.1216 359.863C4.83502 342.546 22.1839 372.81 28.2608 369.51C34.3377 366.209 -1.44363 325.8 11.712 322.39C24.8676 318.98 29.8697 346.293 37.1286 343.939C44.3874 341.586 11.7593 295.393 27.2441 293.852Z" fill="#38A06C"/>
<path d="M63.4339 398.999C63.4693 398.999 63.5055 398.993 63.5409 398.982C63.5841 398.969 63.6243 398.947 63.6591 398.918C63.6939 398.889 63.7226 398.854 63.7435 398.814C63.7644 398.774 63.7771 398.73 63.7809 398.685C63.7847 398.64 63.7795 398.594 63.7656 398.551L36.0394 314.089C35.9804 313.909 35.7838 313.81 35.6007 313.868C35.5575 313.881 35.5173 313.903 35.4825 313.932C35.4477 313.961 35.4191 313.996 35.3981 314.036C35.3772 314.077 35.3644 314.12 35.3606 314.165C35.3568 314.21 35.3619 314.256 35.3758 314.299L63.102 398.762C63.1255 398.831 63.1702 398.891 63.2297 398.934C63.2893 398.976 63.3607 398.999 63.4339 398.999Z" fill="#78CEA2"/>
<path d="M53.2105 367.526L62.2179 332.868C62.2289 332.825 62.2312 332.779 62.2245 332.734C62.2178 332.689 62.2023 332.647 62.1789 332.608C62.1556 332.569 62.1247 332.535 62.0882 332.509C62.0517 332.482 62.0103 332.463 61.9663 332.452C61.7794 332.405 61.5898 332.516 61.5423 332.699L52.8126 366.288L25.7729 343.474C25.7024 343.415 25.6116 343.386 25.5197 343.393C25.4279 343.4 25.3424 343.442 25.2814 343.511C25.2516 343.545 25.2289 343.584 25.2146 343.627C25.2003 343.67 25.1947 343.715 25.1982 343.76C25.2017 343.805 25.2141 343.849 25.2348 343.889C25.2554 343.929 25.2839 343.965 25.3185 343.994L53.2105 367.526ZM60.0598 389.561L60.2145 389.395L85.6923 362.108C85.7232 362.075 85.7472 362.037 85.7629 361.994C85.7785 361.952 85.7856 361.907 85.7836 361.862C85.7816 361.817 85.7706 361.773 85.7513 361.732C85.7319 361.691 85.7046 361.655 85.6709 361.625C85.6023 361.563 85.5124 361.531 85.4204 361.535C85.3284 361.539 85.2416 361.579 85.1784 361.646L59.8553 388.767L21.209 375.602C21.1221 375.572 21.027 375.577 20.944 375.617C20.861 375.656 20.7969 375.727 20.7654 375.813C20.7024 375.992 20.7987 376.187 20.9805 376.249L60.0598 389.561Z" fill="#78CEA2"/>
<path d="M475.27 410.104C475.27 410.104 474.795 313.035 516.389 283.799C557.982 254.562 577.542 297.283 566.588 331.857C557.047 361.97 518.185 398.192 508.317 407.037C506.861 408.341 504.993 409.092 503.04 409.158L475.27 410.104Z" fill="#8DD3AD"/>
<path d="M492.053 397.664C493.365 392.948 494.819 388.273 496.413 383.644L487.576 345.541C487.4 344.783 487.705 343.941 488.257 343.66C488.81 343.379 489.4 343.767 489.575 344.525L497.762 379.826C501.023 370.83 504.968 361.527 509.94 351.048L503.406 308.578C503.286 307.796 503.648 306.996 504.215 306.792C504.782 306.586 505.338 307.056 505.458 307.838L511.58 347.626C511.869 347.029 512.161 346.427 512.457 345.822C515.677 339.229 520.7 330.339 526.021 321.331L521.93 296.135C521.804 295.355 522.16 294.55 522.725 294.338C523.29 294.125 523.851 294.584 523.978 295.364L527.726 318.455C531.855 311.524 536.066 304.66 539.673 298.854L538.38 283.43C538.313 282.633 538.725 281.88 539.301 281.75C539.876 281.619 540.397 282.16 540.464 282.958L541.545 295.85C546.189 288.413 549.455 283.323 549.548 283.178C549.944 282.563 550.607 282.488 551.031 283.012C551.454 283.536 551.477 284.459 551.081 285.075C550.987 285.221 547.66 290.407 542.95 297.951L553.768 298.719C554.345 298.76 554.767 299.447 554.711 300.254C554.662 300.955 554.269 301.516 553.789 301.625C553.716 301.641 553.641 301.647 553.565 301.642L541.198 300.764C537.66 306.458 533.545 313.166 529.502 319.946L550.63 316.753C551.208 316.665 551.706 317.245 551.742 318.049C551.777 318.826 551.367 319.527 550.817 319.651C550.798 319.655 550.779 319.659 550.76 319.662L527.592 323.164C522.321 332.089 517.354 340.881 514.174 347.392C513.775 348.208 513.386 349.013 512.999 349.814L543.12 349.681C543.699 349.679 544.148 350.332 544.123 351.14C544.1 351.869 543.7 352.475 543.197 352.589C543.142 352.601 543.086 352.608 543.029 352.608L511.596 352.746C506.549 363.394 502.576 372.808 499.311 381.923L528.863 376.768C529.44 376.667 529.945 377.236 529.991 378.038C530.035 378.821 529.624 379.538 529.067 379.664C529.054 379.667 529.04 379.67 529.027 379.672L498.215 385.047C496.678 389.526 495.274 394.05 494.004 398.613C493.857 399.141 493.521 399.499 493.149 399.583C492.979 399.622 492.8 399.601 492.643 399.523C492.104 399.26 491.84 398.428 492.053 397.664Z" fill="white"/>
<path d="M569.573 330.346C551.214 323.409 525.904 342.924 512.342 374.483C505.699 389.945 506.708 401.135 509.6 408.624H541.194C553.19 391.071 585.706 336.443 569.573 330.346Z" fill="#388C60"/>
<path d="M524.505 401.619L543.877 389.173C544.11 389.024 544.208 388.737 544.096 388.534C543.985 388.33 543.705 388.287 543.473 388.436L524.715 400.487C525.091 398.483 525.496 396.486 525.931 394.494C525.941 394.465 525.947 394.436 525.951 394.407C526.984 389.701 528.256 384.786 529.819 380.178L550.143 371.951C550.394 371.849 550.551 371.579 550.492 371.348C550.433 371.117 550.179 371.013 549.931 371.113L530.19 379.105C530.739 377.55 531.323 376.037 531.942 374.584L531.944 374.579C532.684 372.845 533.475 371.196 534.323 369.671C535.841 366.938 537.341 364.425 538.803 362.12L557.83 354.457C558.082 354.355 558.239 354.086 558.18 353.854C558.122 353.623 557.871 353.518 557.62 353.619L539.603 360.875C544.521 353.301 548.96 348.102 552.142 344.819C556.787 340.026 559.828 338.168 559.858 338.15C560.094 338.007 560.202 337.723 560.099 337.514C559.995 337.306 559.719 337.252 559.483 337.394C559.356 337.47 556.314 339.323 551.571 344.208C548.816 347.045 545.133 351.295 541.017 357.244C540.763 353.792 540.04 344.019 539.972 343.446C539.943 343.204 539.712 343.068 539.456 343.142C539.199 343.216 539.014 343.472 539.043 343.713C539.117 344.34 540.047 356.965 540.16 358.498C539.481 359.504 538.816 360.519 538.164 361.543C538.143 361.57 538.125 361.599 538.109 361.629C536.611 363.986 535.074 366.557 533.518 369.357C532.796 370.656 532.115 372.043 531.471 373.494L523.629 361.942C523.499 361.751 523.213 361.73 522.99 361.895C522.767 362.06 522.691 362.349 522.821 362.54L530.998 374.585C528.549 380.384 526.672 387.103 525.235 393.49L513.667 382.235C513.502 382.075 513.208 382.102 513.009 382.297C512.811 382.491 512.784 382.78 512.949 382.941L524.979 394.645C523.856 399.797 523.018 404.68 522.397 408.624H523.316C523.648 406.522 524.04 404.154 524.505 401.619Z" fill="#78CEA2"/>
<path d="M146.919 413.819C201.157 413.819 245.125 412 245.125 409.757C245.125 407.514 201.157 405.695 146.919 405.695C92.6805 405.695 48.7119 407.514 48.7119 409.757C48.7119 412 92.6805 413.819 146.919 413.819Z" fill="#5CBEC6"/>
<path d="M159.065 57.9883C159.065 57.9883 147.162 76.5943 157.494 86.9264C165.044 94.4771 179.203 102.928 192.89 106.944C198.059 100.038 199.1 91.1909 199.269 86.6443C184.225 79.8727 159.065 57.9883 159.065 57.9883Z" fill="#B1D5DE"/>
<path d="M257.445 62.138C251.839 57.2833 216.995 88.616 206.297 88.616C204.437 88.616 202.022 87.8815 199.269 86.6421C199.1 91.1885 198.059 100.036 192.89 106.942C197.932 108.422 202.91 109.305 207.469 109.312C224.18 109.339 263.05 66.9926 257.445 62.138Z" fill="#F27C79"/>
<path d="M167.35 388.555C169.152 390.572 175.102 400.883 178.237 401.203C179.929 401.376 183.473 401.176 184.461 400.955C182.772 399.356 174.315 386.614 177.702 368.607L164.055 369.384C164.055 369.384 165.149 384.713 164.653 385.585C165.922 385.557 166.238 387.309 167.35 388.555Z" fill="#FF867A"/>
<path d="M191.752 405.416C190.807 404.296 188.961 402.975 185.466 401.63C185.121 401.497 184.786 401.262 184.461 400.954C183.473 401.175 179.929 401.375 178.238 401.202C175.102 400.882 169.153 390.571 167.35 388.554C166.238 387.309 165.922 385.556 164.654 385.584C163.538 387.547 161.737 391.075 161.806 393.294C161.904 396.5 162.264 405.108 162.433 408.523H166.44L166.707 400.187C166.707 400.187 169.823 399.866 171.04 401.63C171.496 402.291 171.826 403.426 172.06 404.586C172.545 406.991 174.603 408.523 177.212 408.523H189.81C191.435 408.523 192.692 406.53 191.752 405.416Z" fill="#4B5266"/>
<path d="M93.4007 387.002C91.0458 389.019 81.3107 400.881 78.087 401.202C76.3482 401.375 74.9453 401.175 74.0176 400.954C76.1446 399.355 86.1378 383.377 88.7582 370.797L102.306 370.4C102.306 370.4 97.7809 384.712 98.0376 385.584C96.7768 385.556 94.8543 385.756 93.4007 387.002Z" fill="#FF867A"/>
<path d="M65.5032 405.417C66.7558 404.297 68.9632 402.975 72.8269 401.631C73.209 401.498 73.6078 401.262 74.0172 400.954C74.9449 401.175 76.3477 401.376 78.0866 401.203C81.3102 400.882 91.0452 389.02 93.4003 387.002C94.8541 385.757 96.7766 385.557 98.037 385.584C98.6148 387.547 99.4491 391.075 98.7722 393.295C97.7947 396.501 96.2781 403.745 95.2585 408.523H91.251L91.9814 400.187C91.9814 400.187 88.9533 399.867 87.2536 401.63C86.6161 402.291 85.9753 403.426 85.4231 404.586C84.2785 406.991 81.8013 408.523 79.192 408.523H66.5941C64.969 408.523 64.2584 406.53 65.5032 405.417Z" fill="#4B5266"/>
<path d="M144.042 25.726C144.042 25.726 145.403 20.8306 150.527 20.0551C154.049 19.5223 158.856 23.1096 159.185 25.7138C159.514 28.318 158.931 29.0154 159.638 30.5381C160.345 32.0607 160.856 31.9049 162.202 33.7421C163.548 35.5794 163.139 39.717 162.289 40.452C160.928 41.6292 163.526 42.9967 164.131 43.9601C165.882 46.7496 165.711 51.1061 165.047 52.4205C164.384 53.7337 165.326 57.3138 161.927 57.9864C158.528 58.659 154.718 59.955 152.469 61.1513C150.22 62.3477 139.119 61.3956 135.942 61.1277C132.765 60.8597 129.094 54.7731 133.178 49.5413C135.004 47.2011 135.358 45.8387 135.007 44.6714C132.261 35.5436 133.312 33.2988 134.434 31.0749C137.45 25.0984 144.042 25.726 144.042 25.726Z" fill="#FFD45C"/>
<path d="M126.198 144.018C131.088 126.323 176.801 110.809 183.591 136.08C185.674 143.836 193.875 149.828 196.563 176.285C201.334 223.242 183.204 382.046 179.194 384.938C175.185 387.83 160.268 390.735 159.268 385.835C157.988 379.56 159.716 215.806 160.732 195.264C159.533 201.712 105.453 381.006 102.307 384.938C99.1605 388.871 88.1624 384.938 83.0474 381.598C81.5635 380.63 114.698 217.03 114.698 217.03C114.698 217.03 121.255 161.902 126.198 144.018Z" fill="#CE9D84"/>
<path d="M183.59 136.08C183.438 135.516 183.261 134.979 183.071 134.455C179.603 135.685 173.221 137.738 165.32 139.32C153.244 141.738 132.978 143.291 132.978 143.291C132.978 143.291 140.274 146.794 156.651 147.783C168.098 148.474 180.671 145.676 187.205 143.928C185.616 140.979 184.274 138.624 183.59 136.08Z" fill="#AF8471"/>
<path d="M127.234 139.03C125.549 98.9926 116.519 87.531 120.303 73.8316C123.164 63.4729 132.168 56.7004 145.544 55.4111C160.045 54.0134 163.619 62.3265 170.233 69.4654C183.331 83.6041 177.307 94.1247 180.994 119.903C181.936 126.486 182.197 128.361 183.59 136.079C184.562 141.467 171.145 142.941 157.154 143.798C142.623 144.689 127.475 144.755 127.234 139.03Z" fill="#E7F2F2"/>
<path d="M141.101 42.5L139.985 53.5036L139.179 56.6223C139.047 58.9576 145.571 65.2977 149.4 62.5184C150.521 61.7048 150.213 58.4802 149.312 56.0062L146.167 43.6284L141.101 42.5Z" fill="#FF867A"/>
<path d="M147.967 50.7142L146.602 45.3403L142.352 44.2734C142.352 44.2732 143.284 50.376 147.967 50.7142Z" fill="#C66C67"/>
<path d="M143.051 33.8328L140.611 37.9292C139.308 42.1072 142.34 46.6835 146.632 47.5374C151.985 48.6025 154.762 47.7968 155.252 42.7604C155.539 39.8072 153.447 34.2124 152.608 32.046C151.627 29.5129 149.543 28.1821 147.43 28.2848C145.423 28.3828 147.609 31.0996 143.051 33.8328Z" fill="#FF867A"/>
<path d="M149.63 46.6634C147.732 46.5213 147.542 46.2141 145.991 45.9887C144.45 45.7649 142.624 45.3321 142.599 45.3263C143.678 46.4231 145.071 47.2272 146.632 47.5377C150.779 48.3628 153.379 48.0635 154.568 45.546C153.378 45.7701 150.946 46.7618 149.63 46.6634ZM150.291 38.5941C150.904 38.3894 151.421 38.064 151.871 37.5999C152.212 37.2484 152.691 37.84 152.353 38.1874C151.868 38.6887 151.269 39.0655 150.606 39.2858C150.147 39.4396 149.828 38.749 150.291 38.5941Z" fill="#C66C67"/>
<path d="M147.577 35.2731C147.658 35.2485 147.905 35.156 148.077 35.4298C148.207 35.6361 148.3 35.911 148.292 36.1657C148.284 36.4631 147.998 36.669 147.717 36.5955C147.327 36.494 147.034 35.4375 147.577 35.2731ZM152.556 34.7732C152.637 34.7486 152.884 34.6561 153.056 34.9299C153.186 35.1362 153.278 35.4111 153.271 35.6658C153.262 35.9632 152.977 36.1691 152.695 36.0956C152.306 35.9941 152.013 34.9376 152.556 34.7732Z" fill="#402823"/>
<path d="M147.818 40.9481C148.743 40.7808 151.038 40.4018 153.521 40.2681C153.564 40.2656 153.607 40.2723 153.648 40.2877C153.688 40.303 153.725 40.3267 153.756 40.3572C153.786 40.3877 153.81 40.4243 153.826 40.4646C153.841 40.5049 153.848 40.548 153.846 40.5912C153.817 41.1298 153.691 42.1778 153.157 42.7504C152.111 43.8702 149.581 44.6397 147.61 41.4147C147.584 41.3718 147.568 41.3231 147.565 41.273C147.562 41.2228 147.571 41.1726 147.591 41.1267C147.612 41.0808 147.643 41.0405 147.683 41.0094C147.722 40.9783 147.769 40.9573 147.818 40.9481Z" fill="white"/>
<path d="M141.094 37.5274C140.833 37.1178 140.638 36.6744 140.47 36.2193C140.15 35.3544 139.474 34.1434 138.424 35.2492C136.898 36.8579 138.855 41.3725 141.123 40.9325C142.806 40.6056 141.749 38.5591 141.094 37.5274Z" fill="#FF867A"/>
<path d="M147.196 33.0257C146.507 33.2538 145.789 33.6091 145.222 34.0786C144.952 34.3018 145.292 34.69 145.561 34.4671C146.047 34.0645 146.697 33.7364 147.289 33.5407C147.614 33.4333 147.525 32.9169 147.196 33.0257ZM153.092 32.984C152.678 32.8095 152.249 32.6722 151.819 32.5375C151.491 32.4348 151.305 32.9239 151.635 33.0273C152.065 33.1619 152.494 33.2993 152.908 33.4738C153.223 33.6064 153.407 33.1165 153.092 32.984Z" fill="#FFD45C"/>
<path d="M160.733 196.128C160.607 196.128 160.482 196.101 160.368 196.048C160.253 195.995 160.152 195.917 160.07 195.821C159.989 195.724 159.93 195.611 159.897 195.489C159.864 195.368 159.858 195.24 159.88 195.116C160.027 194.265 163.573 174.173 171.057 164.176C171.125 164.085 171.21 164.008 171.308 163.95C171.405 163.892 171.514 163.854 171.626 163.838C171.738 163.822 171.853 163.828 171.963 163.856C172.073 163.884 172.176 163.934 172.267 164.002C172.358 164.07 172.435 164.155 172.493 164.253C172.551 164.351 172.589 164.459 172.605 164.571C172.621 164.683 172.615 164.798 172.587 164.908C172.559 165.018 172.509 165.122 172.441 165.212C165.205 174.88 161.619 195.207 161.584 195.411C161.549 195.611 161.445 195.793 161.289 195.925C161.133 196.056 160.936 196.128 160.733 196.128ZM126.005 178.824C125.825 178.824 125.65 178.768 125.503 178.663C125.356 178.559 125.246 178.411 125.187 178.241C125.128 178.071 125.124 177.887 125.175 177.714C125.226 177.541 125.33 177.389 125.471 177.278C132.934 171.434 134.093 162.757 134.104 162.67C134.133 162.443 134.25 162.236 134.431 162.095C134.612 161.954 134.841 161.891 135.069 161.919C135.297 161.947 135.504 162.065 135.644 162.245C135.785 162.426 135.849 162.656 135.82 162.884C135.772 163.268 134.556 172.361 126.538 178.64C126.386 178.759 126.198 178.824 126.005 178.824Z" fill="#AF8471"/>
<path d="M85.3291 378.383C85.2616 378.383 85.1951 378.367 85.1349 378.337C85.0746 378.306 85.0223 378.262 84.982 378.208C84.9418 378.154 84.9147 378.092 84.903 378.025C84.8913 377.959 84.8953 377.891 84.9147 377.826C84.9235 377.797 85.7945 374.889 86.3692 372.59C86.8022 370.858 91.7881 346.206 94.7674 331.476C95.8152 326.296 96.6501 322.168 97.0215 320.348C98.2856 314.153 108.681 265.788 111.346 258.536C113.313 253.181 116.548 233.207 118.689 219.99C119.382 215.709 119.981 212.011 120.376 209.807C121.965 200.955 126.754 178.1 126.802 177.87C126.827 177.759 126.894 177.662 126.99 177.6C127.085 177.539 127.201 177.517 127.313 177.54C127.424 177.564 127.522 177.63 127.585 177.725C127.647 177.82 127.67 177.936 127.648 178.047C127.6 178.277 122.814 201.12 121.228 209.96C120.834 212.157 120.235 215.851 119.542 220.129C117.396 233.378 114.153 253.401 112.157 258.834C109.509 266.044 99.1316 314.333 97.869 320.521C97.4975 322.341 96.6628 326.468 95.6152 331.648C92.4418 347.338 87.6459 371.049 87.2084 372.8C86.6286 375.118 85.7519 378.045 85.7434 378.074C85.7166 378.163 85.6619 378.241 85.5872 378.297C85.5126 378.352 85.4221 378.382 85.3291 378.383ZM162.54 383.784C162.477 383.784 162.416 383.77 162.359 383.744C162.302 383.718 162.251 383.68 162.211 383.632C162.17 383.584 162.14 383.529 162.123 383.468C162.106 383.408 162.103 383.345 162.112 383.283C162.143 383.092 162.863 378.571 163.296 376.962C163.544 376.04 163.114 362.876 162.146 341.748L162.12 341.183C161.973 337.957 163.124 315.57 163.623 307.997C163.914 303.592 164.047 284.174 164.019 250.282L164.017 247.882C164.017 242.397 164.451 188.281 164.455 187.735C164.456 187.621 164.502 187.512 164.583 187.432C164.664 187.351 164.773 187.306 164.887 187.306H164.891C164.948 187.307 165.004 187.318 165.056 187.341C165.108 187.363 165.156 187.395 165.195 187.435C165.235 187.476 165.267 187.524 165.288 187.576C165.309 187.629 165.32 187.685 165.32 187.742C165.315 188.288 164.882 242.4 164.882 247.882L164.883 250.281C164.911 284.193 164.778 303.63 164.486 308.054C164.001 315.404 162.841 338.009 162.983 341.143L163.009 341.708C163.717 357.162 164.486 375.862 164.13 377.186C163.709 378.752 162.973 383.372 162.966 383.419C162.95 383.52 162.898 383.613 162.82 383.68C162.742 383.747 162.643 383.784 162.54 383.784Z" fill="#AF8471"/>
<path d="M235.315 86.2669C231.944 80.6978 194.153 104.446 177.865 101.948C176.02 101.666 173.894 100.847 171.575 99.6538C170.836 103.585 167.932 115.929 159.98 120.634C162.74 121.723 165.624 122.642 168.632 123.346C204.716 131.783 238.347 91.2771 235.315 86.2669Z" fill="#FF867A"/>
<path d="M229.289 85.2162C229.289 85.2162 232.944 81.6345 233.984 80.176C235.024 78.7175 236.942 74.865 237.368 78.1539C237.794 81.4429 234.795 83.1031 236.971 84.2842C239.146 85.4652 245.473 83.9626 247.966 83.5735C253.059 82.7786 250.593 86.2655 246.66 90.0803C242.726 93.8948 231.504 97.5506 228.06 94.3263C223.074 89.6581 229.289 85.2162 229.289 85.2162Z" fill="#FF867A"/>
<path d="M253.779 59.5505C253.779 59.5505 257.346 56.0551 258.361 54.6315C259.376 53.2079 261.248 49.4481 261.663 52.6581C262.079 55.868 259.153 57.4881 261.276 58.6408C263.399 59.7935 269.574 58.3269 272.006 57.9473C276.977 57.1715 274.57 60.5747 270.732 64.2973C266.893 68.02 255.941 71.5877 252.58 68.441C247.714 63.8855 253.779 59.5505 253.779 59.5505Z" fill="#F27C79"/>
<path d="M185.925 104.426C177.223 104.426 174.025 101.67 173.893 101.553C173.735 101.414 173.64 101.217 173.627 101.007C173.614 100.797 173.685 100.59 173.824 100.432C173.963 100.275 174.16 100.179 174.37 100.166C174.58 100.153 174.787 100.224 174.945 100.363C174.996 100.406 177.946 102.839 185.925 102.839C186.03 102.837 186.135 102.856 186.233 102.895C186.331 102.934 186.42 102.993 186.495 103.066C186.57 103.14 186.63 103.228 186.671 103.326C186.711 103.423 186.732 103.527 186.732 103.633C186.732 103.738 186.711 103.842 186.671 103.94C186.63 104.037 186.57 104.125 186.495 104.199C186.42 104.273 186.331 104.331 186.233 104.37C186.135 104.409 186.03 104.428 185.925 104.426Z" fill="#C66C67"/>
<path d="M171.575 99.6536C156.288 91.787 132.563 67.4753 125.04 70.6988C114.589 75.1769 130.638 111.44 161.158 123.492C169.109 118.787 170.836 103.585 171.575 99.6536Z" fill="#E7F2F2"/>
<path d="M162.77 124.284C162.759 124.284 162.748 124.284 162.737 124.283C162.44 124.271 155.357 123.9 144.719 116.823C134.102 109.761 124.832 92.9278 124.442 92.2146C124.346 92.0302 124.326 91.8154 124.387 91.6164C124.447 91.4174 124.584 91.2501 124.766 91.1504C124.949 91.0507 125.163 91.0266 125.363 91.0833C125.563 91.14 125.733 91.2729 125.836 91.4535C125.93 91.6246 135.31 108.658 145.598 115.501C155.871 122.334 162.734 122.694 162.803 122.697C163.01 122.706 163.206 122.795 163.349 122.947C163.491 123.098 163.568 123.299 163.564 123.507C163.56 123.714 163.474 123.912 163.326 124.057C163.177 124.203 162.978 124.284 162.77 124.284ZM166.493 97.4649C166.407 97.4649 166.319 97.4507 166.233 97.421C161.703 95.8533 141.19 78.9604 140.319 78.2421C140.161 78.1066 140.063 77.9147 140.045 77.7077C140.028 77.5007 140.092 77.2949 140.224 77.1346C140.356 76.9743 140.546 76.8722 140.753 76.8502C140.959 76.8282 141.166 76.888 141.329 77.0169C148.631 83.0393 163.342 94.7402 166.752 95.9202C166.93 95.9813 167.08 96.1036 167.176 96.2652C167.273 96.4267 167.308 96.6171 167.277 96.8025C167.246 96.9879 167.15 97.1562 167.006 97.2775C166.863 97.3988 166.681 97.4652 166.493 97.4649Z" fill="#B1D5DE"/>
<path d="M311.92 73.3664C311.92 73.3664 309.555 71.4217 310.238 71.054C310.921 70.6861 323.324 63.2232 324.008 63.8015C324.691 64.3795 325.537 67.1125 325.587 67.2701C325.637 67.4275 311.92 73.3664 311.92 73.3664Z" fill="white"/>
<path d="M425.115 54.6983C410.374 67.724 396.111 106.864 380.136 107.867C364.715 108.835 326.406 65.3089 326.406 65.3089L310.702 73.0069C310.702 73.0069 333.244 141.397 377.76 140.388C420.484 139.42 442.501 76.1232 440.807 65.2331C439.113 54.343 432.008 48.6068 425.115 54.6983Z" fill="#383E47"/>
<path d="M467.361 412.935C522.434 412.935 567.079 411.642 567.079 410.048C567.079 408.453 522.434 407.16 467.361 407.16C412.289 407.16 367.644 408.453 367.644 410.048C367.644 411.642 412.289 412.935 467.361 412.935Z" fill="#5CBEC6"/>
<path d="M511.843 399.764C509.88 396.011 509.8 389.962 509.721 389.674C509.375 388.432 506.459 388 505.669 390.94C504.111 396.734 498.359 389.746 499.097 391.84C501.295 398.074 501.87 408.664 504.146 408.871C508.993 409.31 527.596 412.329 527.331 409.767C527.172 408.229 513.148 402.257 511.843 399.764ZM419.135 405.286C421.766 404.054 422.045 401.676 423.121 399.401C423.194 399.247 423.55 396.008 423.547 395.751C423.533 394.637 427.813 376.789 429.37 379.07C432.44 383.567 434.833 391.271 434.709 393.183C434.341 398.875 436.709 407.848 434.609 408.522C430.136 409.959 409.144 412.025 408.689 409.826C408.417 408.506 414.583 407.416 419.135 405.286Z" fill="#3F434C"/>
<path d="M483.042 159.059C482.399 157.912 409.852 165.745 406.553 168.445C406.553 168.445 413.007 388.823 417.542 392.094C422.077 395.365 432.839 397.009 435.225 391.882C441.679 378.016 443.252 227.047 442.103 203.815C443.459 211.108 486.88 387.434 490.438 391.882C493.996 396.33 506.047 394.847 510.198 391.882C512.632 390.143 499.211 307.471 494.127 246.501C489.896 195.77 486.39 165.029 483.042 159.059Z" fill="#434A59"/>
<path d="M490.011 185.368C490.025 169.196 488.19 137.467 490.982 125.058C499.638 86.5895 507.087 77.0234 501.734 64.7681C496.869 53.6303 481.15 42.5143 466.023 41.0563C449.622 39.4755 431.6 46.1708 425.061 55.0239C412.978 71.3847 403.295 127.662 404.801 174.647C405.764 204.667 490.008 188.924 490.011 185.368Z" fill="#434A59"/>
<path d="M457.742 43.4691C457.742 43.4691 467.517 39.7901 472.773 43.4691C478.028 47.148 458.27 81.4142 454.065 93.1865C449.859 104.959 436.615 132.288 435.774 129.345C434.933 126.401 445.444 47.9889 457.742 43.4691Z" fill="white"/>
<path d="M488.314 186.493C482.361 188.405 450.121 193.568 444.446 193.726C438.77 193.884 443.184 174.018 440.346 172.441C437.508 170.864 435.727 192.668 435.727 192.668C423.382 191.294 410.265 185.242 410.265 185.242C410.265 185.242 423.791 196.196 437.456 197.668C449.392 198.953 481.857 200.078 489.88 200.342C489.348 195.295 488.827 190.674 488.314 186.493Z" fill="#383E47"/>
<path d="M440.093 174.726C439.848 174.725 439.612 174.635 439.429 174.471C439.246 174.308 439.131 174.083 439.103 173.839C438.994 172.858 436.441 149.751 438.142 144.082C438.18 143.956 438.242 143.839 438.324 143.738C438.407 143.636 438.509 143.552 438.624 143.49C438.74 143.428 438.866 143.389 438.996 143.376C439.127 143.363 439.258 143.376 439.384 143.413C439.509 143.451 439.626 143.513 439.727 143.596C439.829 143.678 439.913 143.78 439.975 143.896C440.037 144.011 440.076 144.137 440.089 144.268C440.103 144.398 440.09 144.53 440.052 144.655C438.467 149.938 441.059 173.382 441.085 173.618C441.101 173.757 441.087 173.898 441.044 174.032C441.001 174.166 440.931 174.289 440.837 174.394C440.744 174.498 440.629 174.582 440.501 174.639C440.372 174.696 440.233 174.726 440.093 174.726ZM505.987 389.223C506.057 389.223 506.126 389.208 506.19 389.18C506.253 389.152 506.31 389.11 506.357 389.059C506.404 389.007 506.439 388.946 506.461 388.88C506.483 388.814 506.491 388.744 506.484 388.674C506.452 388.359 503.307 357.039 501.432 347.043C500.624 342.732 499.957 335.777 499.25 328.413C498.303 318.538 497.229 307.345 495.544 299.519C493.427 289.691 490.788 264.928 489.042 248.542C488.379 242.32 487.856 237.405 487.562 235.23C486.524 227.551 483.807 197.92 483.78 197.622C483.774 197.556 483.756 197.493 483.726 197.435C483.695 197.377 483.654 197.325 483.603 197.283C483.553 197.241 483.495 197.21 483.432 197.19C483.369 197.171 483.304 197.164 483.238 197.171C483.173 197.177 483.11 197.195 483.052 197.226C482.994 197.256 482.943 197.298 482.901 197.348C482.859 197.398 482.827 197.456 482.808 197.519C482.788 197.581 482.781 197.647 482.787 197.712C482.815 198.011 485.533 227.664 486.574 235.363C486.866 237.525 487.389 242.434 488.051 248.648C489.799 265.055 492.441 289.849 494.569 299.729C496.242 307.498 497.313 318.66 498.258 328.508C498.966 335.895 499.636 342.872 500.452 347.226C502.318 357.181 505.46 388.459 505.491 388.774C505.504 388.896 505.561 389.01 505.653 389.093C505.744 389.176 505.863 389.222 505.987 389.223ZM441.66 203.421C441.737 203.421 441.813 203.404 441.883 203.369C441.952 203.335 442.012 203.284 442.058 203.223C442.105 203.161 442.136 203.089 442.15 203.013C442.164 202.937 442.161 202.859 442.139 202.785C441.047 198.984 436.047 194.148 435.834 193.944C435.738 193.857 435.612 193.811 435.482 193.815C435.352 193.82 435.23 193.874 435.14 193.968C435.05 194.061 435 194.186 435.001 194.316C435.001 194.446 435.052 194.57 435.143 194.663C435.194 194.711 440.163 199.517 441.181 203.06C441.211 203.164 441.274 203.256 441.36 203.321C441.446 203.386 441.552 203.421 441.66 203.421ZM431.989 389.887C432.058 389.888 432.125 389.874 432.188 389.847C432.25 389.819 432.307 389.78 432.354 389.73C432.4 389.68 432.436 389.621 432.459 389.557C432.482 389.493 432.492 389.424 432.487 389.356C432.477 389.197 431.451 373.309 432.486 363.585C432.715 361.425 432.995 359.126 433.291 356.692C434.323 348.222 435.606 337.68 435.477 326.317C435.421 321.36 435.643 311.743 435.9 300.608C436.392 279.284 437.005 252.745 435.984 244.276C434.462 231.653 436.876 205.752 436.901 205.492C436.907 205.427 436.9 205.361 436.881 205.299C436.862 205.236 436.83 205.178 436.788 205.127C436.747 205.077 436.695 205.035 436.638 205.005C436.58 204.974 436.516 204.955 436.451 204.949C436.179 204.921 435.934 205.124 435.908 205.398C435.883 205.66 433.459 231.666 434.994 244.396C436.006 252.794 435.395 279.293 434.903 300.585C434.646 311.729 434.424 321.354 434.48 326.328C434.608 337.625 433.382 347.691 432.301 356.572C432.005 359.01 431.724 361.312 431.494 363.479C430.45 373.289 431.482 389.262 431.492 389.422C431.501 389.548 431.557 389.666 431.649 389.753C431.741 389.839 431.863 389.887 431.989 389.887Z" fill="#383E47"/>
<path d="M299.684 62.8413C299.607 60.8126 299.35 58.8446 298.787 57.037C297.132 51.7183 320.757 51.5353 323.133 51.4524C337.015 50.9676 350.929 51.213 364.811 51.5812C368.122 51.6688 372.552 52.5125 374.743 51.8951C377.701 51.0617 382.999 47.3735 387.489 47.2875C395.366 47.1368 401.002 54.3083 400.873 61.1729C400.692 70.8027 395.145 75.4533 391.239 76.2515C380.092 74.3116 329.873 64.9438 322.607 64.2108C318.937 63.8406 309.2 63.3096 299.684 62.8413Z" fill="#CE9D84"/>
<path d="M372.495 71.1152C374.143 72.4894 375.789 73.8671 377.431 75.2481C381.035 77.0635 387.482 73.6692 389.423 69.8625C391.342 66.0998 390.685 60.8392 385.671 58.4807C379.889 57.9227 374.107 57.3523 368.327 56.7695C368.235 61.1112 368.36 68.4962 372.495 71.1152Z" fill="#AF8471"/>
<path d="M336.912 45.7605C327.255 44.6693 316.574 44.3223 307.339 40.6712C301.279 38.2751 294.307 34.1082 287.676 34.382C284.733 34.5036 281.495 38.7268 281.03 39.9144C278.885 45.3946 278.317 50.4408 279.511 53.848C280.932 57.9035 283.481 63.9871 288.674 64.2625C297.665 64.7392 306.668 65.2047 315.65 65.8937C320.804 66.2889 326.128 66.5625 331.169 67.7663C346.291 71.3773 378.713 75.6705 378.713 75.6705C378.713 75.6705 373.413 65.288 375.76 58.5279C378.133 51.6944 387.488 47.2868 387.488 47.2868C387.457 47.1176 353.36 47.6189 336.912 45.7605Z" fill="#F2C3A7"/>
<path d="M312.857 69.5227C312.857 69.5227 306.311 67.4188 305.095 66.2589C303.879 65.099 302.935 61.0517 303.378 58.559C303.821 56.0662 304.375 54.4152 305.427 55.0191C306.48 55.6231 305.704 60.7747 306.48 60.5531C307.255 60.3316 306.708 54.1272 308.062 54.0718C309.416 54.0164 309.416 54.6431 309.416 54.6431C309.416 54.6431 310.357 53.8295 311.576 54.6431C312.795 55.4567 313.016 59.7776 313.681 60.4977C314.346 61.2179 314.807 55.2232 316.155 55.7001C317.503 56.177 317.393 63.1569 318.556 64.3755C319.719 65.5942 320.273 65.4834 320.661 66.9791C321.049 68.4747 316.132 70.0721 312.857 69.5227Z" fill="#FF867A"/>
<path d="M323.556 51.4377C323.556 51.4377 325.413 46.547 329.241 44.9922C329.241 44.9922 331.436 45.148 334.288 45.4488C337.329 45.7697 339.772 46.0462 339.772 46.0462C339.772 46.0462 333.25 49.0877 331.664 53.1871C330.078 57.2863 323.556 51.4377 323.556 51.4377ZM321.933 62.4895L316.732 80.783L322.206 77.5735L325.105 82.881L327.819 63.9642L321.933 62.4895Z" fill="#CE4949"/>
<path d="M327.305 63.6034L332.349 89.1443L334.91 86.2433L338.442 87.7391L333.269 62.4883L327.305 63.6034Z" fill="#CE4949"/>
<path d="M339.772 57.1922L338.334 58.371L339.451 59.8578L337.773 60.6577L338.498 62.3695L336.676 62.7424L336.971 64.578L335.113 64.5057L334.962 66.3587L333.175 65.8455L332.585 67.6085L330.974 66.6805L329.977 68.2496L328.635 66.9624L327.293 68.2496L326.295 66.6805L324.684 67.6085L324.093 65.8453L322.307 66.3585L322.156 64.5053L320.298 64.5776L320.593 62.7421L318.771 62.3692L319.496 60.6577L317.818 59.858L318.935 58.371L317.497 57.1922L318.935 56.0133L317.818 54.5265L319.497 53.7264L318.771 52.0146L320.593 51.642L320.298 49.8061L322.156 49.8786L322.307 48.0256L324.094 48.5388L324.684 46.7758L326.295 47.7036L327.293 46.1348L328.635 47.4219L329.976 46.1348L330.974 47.7036L332.585 46.7758L333.176 48.539L334.963 48.0258L335.113 49.8788L336.971 49.8065L336.677 51.6422L338.498 52.0151L337.773 53.7267L339.451 54.5263L338.334 56.0131L339.772 57.1922Z" fill="#FF5F4A"/>
<path d="M328.635 64.1723C332.489 64.1723 335.614 61.0478 335.614 57.1936C335.614 53.3393 332.489 50.2148 328.635 50.2148C324.781 50.2148 321.656 53.3393 321.656 57.1936C321.656 61.0478 324.781 64.1723 328.635 64.1723Z" fill="#CE4949"/>
<path d="M476.011 11.0811C475.212 8.5496 472.719 6.48697 471.696 5.25772C470.672 4.02847 467.767 -0.788556 463.049 0.111258C458.858 0.910417 455.185 7.45118 459.825 10.7766C459.306 14.5135 457.479 18.754 457.995 19.1357C458.79 19.7239 467.223 26.5144 469.381 25.3464C471.54 24.1784 471.761 20.217 473.576 18.224C474.981 16.6813 476.888 13.8577 476.011 11.0811Z" fill="#A37069"/>
<path d="M472.185 42.1121C472.394 44.4053 461.099 52.0447 458.348 48.2858C457.541 47.186 457.228 45.6814 458.333 42.7788L460.416 31.5976L461.372 26.4534L462.246 21.7634L469.164 19.4375C469.163 19.4373 471.817 38.0944 472.185 42.1121Z" fill="#FF867A"/>
<path d="M468.158 24.6172C468.158 24.6172 467.482 29.0449 464.33 30.4435C462.92 31.0681 461.552 31.4302 460.416 31.5986L461.372 26.4544C464.006 25.9716 467.508 25.234 468.158 24.6172Z" fill="#C66C67"/>
<path d="M467.562 13.1749L468.527 22.7162C468.595 25.8835 465.541 27.8104 462.877 28.1587C460.366 28.4868 458.189 28.6289 455.543 26.9203C453.927 25.8761 452.674 23.8466 453.405 20.5112C454.353 16.1842 456.456 12.4685 457.692 10.5435C460.511 6.15429 466.477 7.00232 467.562 13.1749Z" fill="#FF867A"/>
<path d="M461.511 16.8674C461.511 16.8674 458.833 17.0815 455.417 16.2402C455.417 16.2402 454.675 18.2416 455.849 19.1227C457.023 20.0036 459.903 19.1622 461.511 16.8674Z" fill="white"/>
<path d="M468.122 16.8578C468.598 16.5014 469.013 16.078 469.403 15.6297C470.145 14.7776 471.444 13.6833 472.167 15.4052C473.219 17.9096 469.643 22.0754 467.236 20.5886C465.449 19.4845 466.923 17.7556 468.122 16.8578Z" fill="#FF867A"/>
<path d="M468.158 13.7578C468.053 14.2926 467.027 16.4257 466.893 16.766C466.512 17.7313 465.902 18.3411 466.893 18.5951C467.503 18.7514 468.372 17.1618 468.896 16.094L468.158 13.7578Z" fill="#A37069"/>
<path d="M458.692 40.8572C459.092 40.8966 458.151 45.9219 459.412 46.0795C460.673 46.2372 471.883 39.4276 471.934 39.8531C471.986 40.279 473.772 44.5519 473.22 45.3403C472.669 46.1286 464.221 53.0957 463.038 53.0169C461.856 52.938 459.412 49.31 459.412 49.31C459.412 49.31 454.819 51.519 454.475 50.573C454.131 49.627 458.205 40.8092 458.692 40.8572Z" fill="white"/>
<path d="M458.674 15.6595C458.137 15.3933 457.674 14.9993 457.326 14.512C457.054 14.1359 456.524 14.6261 456.793 14.9981C457.181 15.5346 457.692 15.9697 458.284 16.2663C458.695 16.4731 459.088 15.8678 458.674 15.6595Z" fill="#C66C67"/>
<path d="M462.221 12.6607C462.148 12.6267 461.929 12.5063 461.73 12.7402C461.581 12.9163 461.456 13.1618 461.429 13.402C461.397 13.6824 461.637 13.9145 461.911 13.8837C462.291 13.8409 462.709 12.8888 462.221 12.6607ZM457.614 11.5164C457.542 11.4824 457.323 11.3619 457.124 11.5959C456.974 11.772 456.85 12.0174 456.822 12.2577C456.79 12.538 457.03 12.7702 457.304 12.7393C457.684 12.6965 458.102 11.7443 457.614 11.5164Z" fill="#402823"/>
<path d="M462.236 10.8229C462.606 10.7318 463.154 10.9139 463.436 11.1513C463.727 11.3965 464.033 11.7912 464.097 12.1857C464.114 12.2265 464.119 12.2716 464.109 12.315L464.11 12.3175C464.112 12.3525 464.102 12.3872 464.081 12.4156C464.06 12.444 464.03 12.4643 463.996 12.4731C463.904 12.5316 463.775 12.535 463.676 12.4253C463.273 11.9813 462.708 11.5852 462.179 11.321C461.923 11.1936 462.011 10.8133 462.236 10.8229ZM457.083 9.92877C457.105 9.92286 457.128 9.92072 457.15 9.92246C457.321 9.9371 457.544 9.92111 457.761 9.93034C457.776 9.92905 457.791 9.92912 457.806 9.93057C457.812 9.93124 457.817 9.93304 457.823 9.93372C458.138 9.95511 458.427 10.0432 458.502 10.3771C458.511 10.4159 458.506 10.4567 458.488 10.4924C458.474 10.6397 458.348 10.784 458.169 10.7309C457.772 10.6124 457.374 10.4971 456.965 10.4188C456.667 10.3616 456.799 9.91526 457.083 9.92877Z" fill="#725252"/>
<path d="M458.347 26.3061C455.7 25.727 454.214 24.7713 453.382 23.9141C453.741 25.314 454.575 26.2953 455.542 26.9204C458.188 28.6291 460.366 28.487 462.876 28.1589C464.952 27.8876 467.257 26.654 468.145 24.6261C467.898 24.7977 463.868 27.5135 458.347 26.3061Z" fill="#C66C67"/>
<path d="M356.669 74.3362C354.861 71.4987 353.957 65.1894 355.923 63.567C357.889 61.9446 357.435 68.6767 357.435 68.6767C357.435 68.6767 357.4 62.2508 361.322 61.6791C366.379 60.9421 365.407 67.9764 366.193 68.1786C366.98 68.3808 365.931 63.8395 367.301 63.7167C368.67 63.594 369.973 69.849 373.773 70.8C377.572 71.7509 379.745 77.0631 375.991 78.9802C372.236 80.8972 358.476 77.1734 356.669 74.3362Z" fill="#FF867A"/>
<path d="M371.006 82.9621C371.006 82.9621 368.641 81.0174 369.324 80.6497C370.007 80.2818 382.41 72.8189 383.094 73.3972C383.777 73.9752 384.623 76.7082 384.673 76.8658C384.723 77.0234 371.006 82.9621 371.006 82.9621Z" fill="white"/>
<path d="M483.613 63.9717C468.872 76.9974 454.61 116.138 438.635 117.141C423.213 118.109 384.904 74.5824 384.904 74.5824L369.2 82.2803C369.2 82.2803 391.742 150.67 436.258 149.662C478.982 148.694 500.999 85.3966 499.305 74.5065C497.611 63.6164 490.506 57.8802 483.613 63.9717Z" fill="#434A59"/>
<path d="M436.496 150.193C429.591 150.193 423.516 148.623 418.919 146.893C410.486 143.721 405.217 139.455 404.997 139.275C404.792 139.107 404.662 138.866 404.636 138.603C404.609 138.34 404.689 138.077 404.856 137.872C404.939 137.771 405.041 137.687 405.156 137.625C405.271 137.563 405.398 137.524 405.528 137.511C405.658 137.498 405.79 137.51 405.915 137.548C406.041 137.586 406.157 137.648 406.259 137.731C406.311 137.773 411.54 141.998 419.685 145.05C427.154 147.85 438.69 150.21 451.233 145.557C475.397 136.593 484.951 113.106 485.045 112.87C485.093 112.748 485.164 112.637 485.256 112.543C485.347 112.449 485.455 112.374 485.576 112.322C485.696 112.27 485.825 112.242 485.956 112.24C486.087 112.238 486.217 112.262 486.339 112.31C486.46 112.358 486.571 112.43 486.665 112.521C486.759 112.612 486.835 112.721 486.887 112.841C486.939 112.961 486.966 113.09 486.969 113.221C486.971 113.352 486.947 113.482 486.899 113.604C486.8 113.854 484.409 119.821 478.901 127.008C473.816 133.644 465.007 142.574 451.927 147.426C446.527 149.429 441.309 150.193 436.496 150.193ZM437.629 118.12C436.477 118.12 435.298 117.986 434.085 117.721C428.63 116.528 410.516 101.642 409.747 101.009C409.646 100.926 409.563 100.823 409.501 100.708C409.44 100.592 409.402 100.466 409.389 100.335C409.376 100.205 409.39 100.073 409.428 99.9481C409.466 99.8229 409.529 99.7064 409.612 99.6053C409.695 99.5043 409.798 99.4206 409.913 99.3591C410.029 99.2976 410.155 99.2594 410.286 99.2468C410.416 99.2342 410.548 99.2475 410.673 99.2857C410.798 99.324 410.915 99.3865 411.016 99.4698C416.147 103.697 430.371 114.867 434.511 115.773C440.016 116.976 444.591 115.144 449.345 109.828C454.68 103.863 459.895 95.8482 459.947 95.7681C460.092 95.5486 460.317 95.3952 460.575 95.3414C460.832 95.2876 461.101 95.3377 461.321 95.4807C461.542 95.6238 461.697 95.8482 461.753 96.1052C461.809 96.3622 461.761 96.6309 461.62 96.8528C461.567 96.9343 456.271 105.076 450.832 111.157C446.633 115.852 442.367 118.12 437.629 118.12Z" fill="#383E47"/>
</svg>
