<svg width="525" height="476" viewBox="0 0 525 476" fill="none" xmlns="http://www.w3.org/2000/svg">
<path fill-rule="evenodd" clip-rule="evenodd" d="M255.801 0C319.706 0 312.41 112.878 358.566 147.258C419.62 192.803 524.693 170.234 524.693 248.393C524.693 385.605 388.431 435.29 239.918 435.29C91.4046 435.29 -35.2864 359.201 8.93497 222.363C53.1563 85.558 107.322 0 255.801 0Z" fill="#EAEFF8"/>
<path fill-rule="evenodd" clip-rule="evenodd" d="M262.352 475.88C396.102 475.88 505.213 472.113 505.213 467.464C505.213 462.814 396.102 459.047 262.352 459.047C128.601 459.047 19.4902 462.814 19.4902 467.464C19.4902 472.113 128.601 475.88 262.352 475.88Z" fill="#D2DFEE"/>
<path fill-rule="evenodd" clip-rule="evenodd" d="M357.886 342.436C346.11 342.436 336.573 344.2 336.573 346.372C336.573 348.544 346.11 350.309 357.886 350.309C369.663 350.309 379.2 348.544 379.2 346.372C379.2 344.2 369.663 342.436 357.886 342.436Z" fill="white"/>
<path fill-rule="evenodd" clip-rule="evenodd" d="M336.54 461.219V346.406C336.54 348.578 346.077 350.343 357.853 350.343C369.63 350.343 379.166 348.578 379.166 346.406V461.219C379.166 463.391 369.63 465.156 357.853 465.156C346.111 465.156 336.54 463.391 336.54 461.219Z" fill="#FC9774"/>
<path fill-rule="evenodd" clip-rule="evenodd" d="M336.54 461.219V346.406C336.54 347.424 338.678 348.375 342.174 349.087V458.572V463.9C338.678 463.187 336.54 462.237 336.54 461.219Z" fill="#F57A44"/>
<path fill-rule="evenodd" clip-rule="evenodd" d="M407.979 461.22V306.156C407.979 303.984 417.516 310.093 429.293 310.093C441.069 310.093 450.606 308.329 450.606 306.156V344.473V461.22C450.606 463.392 441.069 465.157 429.293 465.157C417.516 465.157 407.979 463.392 407.979 461.22Z" fill="#FC9774"/>
<path fill-rule="evenodd" clip-rule="evenodd" d="M407.979 461.22V345.287V306.156C407.979 307.174 410.118 308.125 413.613 308.837V345.287V458.572V463.901C410.118 463.188 407.979 462.238 407.979 461.22Z" fill="#F57A44"/>
<path fill-rule="evenodd" clip-rule="evenodd" d="M429.327 302.219C417.55 302.219 408.014 303.984 408.014 306.156C408.014 308.328 417.55 310.092 429.327 310.092C441.103 310.092 450.64 308.328 450.64 306.156C450.64 303.95 441.103 302.219 429.327 302.219Z" fill="white"/>
<path fill-rule="evenodd" clip-rule="evenodd" d="M265.1 461.22V384.52C265.1 382.348 274.636 388.457 286.413 388.457C298.189 388.457 307.726 386.692 307.726 384.52V422.836V461.22C307.726 463.392 298.189 465.157 286.413 465.157C274.636 465.157 265.1 463.392 265.1 461.22Z" fill="#FC9774"/>
<path fill-rule="evenodd" clip-rule="evenodd" d="M265.1 461.22V423.65V384.52C265.1 385.538 267.238 386.488 270.733 387.201V423.65V458.573V463.901C267.238 463.188 265.1 462.238 265.1 461.22Z" fill="#F57A44"/>
<path fill-rule="evenodd" clip-rule="evenodd" d="M286.447 380.582C274.67 380.582 265.134 382.347 265.134 384.519C265.134 386.691 274.67 388.456 286.447 388.456C298.223 388.456 307.76 386.691 307.76 384.519C307.76 382.347 298.223 380.582 286.447 380.582Z" fill="white"/>
<path fill-rule="evenodd" clip-rule="evenodd" d="M193.66 462.61V418.592C193.66 416.42 203.197 422.529 214.973 422.529C226.75 422.529 236.286 420.764 236.286 418.592V456.908V462.576C236.286 464.748 226.75 466.513 214.973 466.513C203.231 466.547 193.66 464.782 193.66 462.61Z" fill="#FC9774"/>
<path fill-rule="evenodd" clip-rule="evenodd" d="M193.66 462.611V457.758V418.627C193.66 419.645 195.798 420.595 199.294 421.308V457.758V459.964V465.292C195.798 464.579 193.66 463.663 193.66 462.611Z" fill="#F57A44"/>
<path fill-rule="evenodd" clip-rule="evenodd" d="M215.007 414.656C203.231 414.656 193.694 416.421 193.694 418.593C193.694 420.765 203.231 422.53 215.007 422.53C226.784 422.53 236.321 420.765 236.321 418.593C236.321 416.421 226.784 414.656 215.007 414.656Z" fill="white"/>
<path fill-rule="evenodd" clip-rule="evenodd" d="M109.12 462.611V434.51C109.12 432.338 118.657 438.447 130.433 438.447C142.21 438.447 151.746 436.682 151.746 434.51V456.943V462.611C151.746 464.783 142.21 466.548 130.433 466.548C118.657 466.548 109.12 464.783 109.12 462.611Z" fill="#FC9774"/>
<path fill-rule="evenodd" clip-rule="evenodd" d="M109.12 462.611V457.757V434.51C109.12 435.528 111.258 436.478 114.754 437.191V457.757V459.963V465.292C111.258 464.579 109.12 463.663 109.12 462.611Z" fill="#F57A44"/>
<path fill-rule="evenodd" clip-rule="evenodd" d="M130.433 430.572C118.657 430.572 109.12 432.337 109.12 434.509C109.12 436.681 118.657 438.446 130.433 438.446C142.21 438.446 151.746 436.681 151.746 434.509C151.78 432.337 142.21 430.572 130.433 430.572Z" fill="white"/>
<path fill-rule="evenodd" clip-rule="evenodd" d="M111.835 438.31C96.461 435.222 86.4832 420.255 89.5716 404.847C92.66 389.473 107.627 379.495 123.035 382.584C207.812 399.587 293.438 361.101 379.912 267.16L378.046 266.04C360.635 254.739 360.296 247.374 378.181 237.77L408.726 220.936L438.829 204.307C457.325 194.872 463.875 198.266 463.264 218.561L462.586 253.415L461.907 287.794C460.821 308.531 454.61 312.501 437.37 301.811L429.462 297.059C429.021 297.67 428.512 298.247 428.003 298.824C325.068 413.433 219.69 459.929 111.835 438.31Z" fill="#4F8ECC"/>
<path d="M441.68 213.504C408.522 231.627 391.927 240.688 391.927 240.688M355.681 306.664C301.38 361.949 244.194 391.408 184.056 395.039" stroke="#99C5F2" stroke-width="0.865" stroke-miterlimit="2.613" stroke-linecap="round" stroke-linejoin="round"/>
<path d="M388.329 243.303C380.659 247.477 376.858 249.581 376.858 249.581M453.694 288.101C453.966 279.379 454.102 275.001 454.102 275.001" stroke="#99C5F2" stroke-width="0.866" stroke-miterlimit="2.613" stroke-linecap="round" stroke-linejoin="round"/>
<path fill-rule="evenodd" clip-rule="evenodd" d="M139.597 325.739C130.467 330.354 126.768 341.52 131.384 350.649C135.999 359.778 147.165 363.478 156.294 358.862C165.424 354.247 169.123 343.081 164.507 333.952C159.892 324.788 148.726 321.123 139.597 325.739Z" fill="#F57A44"/>
<path fill-rule="evenodd" clip-rule="evenodd" d="M156.703 161.715C156.703 161.715 156.16 162.495 155.99 162.733C155.752 163.004 154.972 163.853 154.972 163.853C154.972 163.853 152.121 166.534 151.917 166.296C151.714 166.093 151.51 165.38 151.612 165.142C151.714 164.905 152.155 164.599 152.291 164.396C152.392 164.158 152.359 163.785 152.053 163.615C151.782 163.445 150.797 164.362 150.797 164.362C150.797 164.362 150.017 165.075 149.779 165.787C149.033 168.231 149.508 168.265 149.406 168.57C149.27 168.943 145.096 172.168 145.096 172.168C145.096 172.168 132.471 181.263 131.792 181.772C131.894 182.451 132.403 182.926 132.776 183.469C133.726 185.37 134.371 185.336 135.389 187.134C137.29 185.539 150.085 173.898 151.374 172.711C151.374 172.711 153.58 171.794 154.938 171.149C156.295 170.539 157.313 169.351 157.653 169.113C157.721 169.079 158.841 168.231 159.961 166.839C160.911 165.618 159.452 166.364 159.452 166.364C159.452 166.364 157.246 168.299 157.144 168.095C157.042 167.925 158.298 166.975 159.384 165.651C159.655 165.312 159.927 164.973 160.164 164.667C160.809 163.853 160.47 163.242 159.655 163.989C159.35 164.26 158.909 164.701 158.603 165.075C158.298 165.482 157.856 165.753 157.551 166.025C156.94 166.602 156.499 167.043 156.465 167.009C156.465 166.975 156.261 166.975 156.533 166.636C156.872 166.194 157.823 165.38 158.264 164.701C158.501 164.328 159.078 163.513 159.078 163.513C159.078 163.513 159.723 162.156 159.655 162.122C159.282 161.783 158.569 162.597 158.298 163.14C157.924 163.412 157.347 164.26 157.347 164.26C157.347 164.26 155.786 165.719 155.549 165.516C155.447 165.414 156.329 164.43 157.008 163.31C157.619 162.292 158.094 161.138 157.89 161.002C157.517 160.629 156.703 161.715 156.703 161.715Z" fill="#FFB27D"/>
<path fill-rule="evenodd" clip-rule="evenodd" d="M109.562 182.689C109.562 182.689 106.135 193.448 109.291 194.093C112.447 194.737 135.321 191.004 135.932 190.461C136.543 189.918 149.915 174.748 149.915 174.748L145.706 169.793L132.199 180.042C132.199 180.042 116.316 182.113 113.737 181.536C111.157 180.925 109.562 182.689 109.562 182.689Z" fill="#4F8ECC"/>
<path fill-rule="evenodd" clip-rule="evenodd" d="M125.513 291.494C125.513 291.494 127.447 299.707 128.397 301.234C129.755 303.474 138.443 292.851 135.592 293.224C134.948 293.326 132.809 293.462 132.606 293.428C131.588 293.258 130.128 289.627 130.128 289.627L125.513 291.494Z" fill="#FFB27D"/>
<path fill-rule="evenodd" clip-rule="evenodd" d="M140.785 291.529L132.946 293.328C132.946 293.328 131.215 295.737 127.006 297.231C127.006 297.231 126.938 300.081 128.364 302.457C128.364 302.457 132.64 300.862 137.968 297.875C137.968 297.875 141.362 296.212 144.111 293.09C146.792 289.968 140.785 291.529 140.785 291.529Z" fill="#284191"/>
<path fill-rule="evenodd" clip-rule="evenodd" d="M58.5195 174.374C59.4019 175.324 61.1327 177.191 61.3024 177.021C61.54 176.783 61.8115 175.969 61.6757 175.697C61.5739 175.426 61.0988 175.019 60.963 174.747C60.8612 174.476 60.9291 174 61.2685 173.865C61.6078 173.695 62.626 174.849 62.626 174.849C62.626 174.849 63.4744 175.799 63.6781 176.648C64.3568 179.566 63.8478 179.566 63.9496 179.94C64.0514 180.381 68.5312 184.589 68.5312 184.589C68.5312 184.589 82.1404 196.569 82.8531 197.214C82.7174 197.995 82.1065 198.504 81.6653 199.115C80.5114 201.253 79.7987 201.151 78.543 203.153C76.5406 201.117 62.8636 186.116 61.506 184.589C61.506 184.589 59.0964 183.266 57.6031 182.417C57.0262 182.078 56.4832 181.637 56.042 181.195C56.7208 180.381 57.3656 179.193 57.8407 177.835C58.3158 176.58 58.5195 175.392 58.5195 174.374Z" fill="#FFB27D"/>
<path fill-rule="evenodd" clip-rule="evenodd" d="M87.7742 223.244L87.0615 228.64L104.811 260.78L124.631 293.157L131.758 289.525C121.373 265.972 124.427 256.605 110.106 229.591L87.7742 223.244Z" fill="#3B5BB3"/>
<path fill-rule="evenodd" clip-rule="evenodd" d="M52.6477 271.607C52.6477 271.607 44.6043 274.085 43.1111 275.103C40.973 276.596 52.1047 284.572 51.5617 281.789C51.4259 281.144 51.1544 279.04 51.1883 278.836C51.3241 277.818 54.8197 276.121 54.8197 276.121L52.6477 271.607Z" fill="#FFB27D"/>
<path fill-rule="evenodd" clip-rule="evenodd" d="M53.5985 286.912L51.3247 279.208C51.3247 279.208 48.5757 277.681 46.8449 273.574C46.8449 273.574 44.1977 273.642 41.9238 275.203C41.9238 275.203 43.7904 279.378 47.1164 284.468C47.1164 284.468 48.983 287.76 52.275 290.272C55.533 292.783 53.5985 286.912 53.5985 286.912Z" fill="#284191"/>
<path fill-rule="evenodd" clip-rule="evenodd" d="M87.8417 225.893L78.1354 258.202L50.2383 270.793L53.7339 277.207C53.7339 277.207 83.4298 270.827 88.249 265.736C91.2355 262.58 108.544 230.712 108.544 230.712L87.8417 225.893Z" fill="#4567C6"/>
<path fill-rule="evenodd" clip-rule="evenodd" d="M109.494 230.337C109.019 224.907 120.762 191.139 115.332 180.448C112.888 180.041 109.902 179.566 108.646 179.43C108.34 179.396 108.273 179.566 108.171 179.566C106.576 182.926 103.25 195.483 98.9736 207.09C96.1228 214.828 93.5435 223.109 91.0999 227.079C89.5388 229.557 109.936 235.292 109.494 230.337Z" fill="#DFEDFA"/>
<path fill-rule="evenodd" clip-rule="evenodd" d="M115.637 176.749L115.298 180.448C115.298 180.448 114.483 183.469 113.024 183.265C111.259 183.027 109.63 179.701 109.63 179.701L111.463 169.588L115.637 176.749Z" fill="#F7A695"/>
<path fill-rule="evenodd" clip-rule="evenodd" d="M115.637 176.749L115.298 180.448C115.298 180.448 114.483 183.469 113.024 183.265C111.259 183.027 109.63 179.701 109.63 179.701L111.463 169.588L115.637 176.749Z" fill="#FFB27D"/>
<path fill-rule="evenodd" clip-rule="evenodd" d="M116.282 174.476C111.09 176.003 107.832 176.003 106.474 174.408C105.049 173.967 104.167 172.643 103.861 170.335C102.571 166.806 104.167 161.409 106.135 164.26C108.171 159.882 115.061 162.903 119.167 160.629C121.475 162.36 120.321 166.195 118.522 167.417C118.319 171.93 117.945 174.306 116.282 174.476Z" fill="#284191"/>
<path fill-rule="evenodd" clip-rule="evenodd" d="M116.417 178.82C116.417 178.82 108.51 179.533 107.661 174.137C106.813 168.741 105.116 165.279 110.614 164.091C116.112 162.903 117.503 164.804 118.216 166.535C118.929 168.299 118.623 178.311 116.417 178.82Z" fill="#FFB27D"/>
<path fill-rule="evenodd" clip-rule="evenodd" d="M104.946 164.702C105.523 164.329 105.727 163.854 105.557 163.345C104.743 162.836 103.928 162.768 103.147 163.141C103.623 163.209 104.2 163.718 104.946 164.702Z" fill="#284191"/>
<path fill-rule="evenodd" clip-rule="evenodd" d="M105.965 163.785C105.558 164.193 105.184 164.26 104.879 164.023C104.743 163.174 104.879 162.462 105.354 161.885C105.252 162.292 105.456 162.937 105.965 163.785ZM108.646 165.618C107.696 165.177 106.983 165.279 106.44 165.856C106.406 167.281 106.949 170.234 108.069 170.912C108.273 170.81 108.409 167.756 108.646 165.618Z" fill="#284191"/>
<path fill-rule="evenodd" clip-rule="evenodd" d="M109.088 164.26C107.425 164.939 106.848 165.617 107.357 166.296C109.766 166.805 112.142 166.669 114.416 165.923C113.058 165.957 111.26 165.414 109.088 164.26Z" fill="#284191"/>
<path fill-rule="evenodd" clip-rule="evenodd" d="M118.42 167.247C116.689 165.279 113.261 164.871 108.408 166.331C105.455 165.414 104.845 163.955 106.27 161.783C108.272 158.695 112.005 161.444 116.926 158.729C116.587 161.036 123.578 163.48 118.42 167.247Z" fill="#284191"/>
<path fill-rule="evenodd" clip-rule="evenodd" d="M106.881 168.129C108.171 167.925 107.899 170.504 107.73 171.794C107.356 174.305 104.879 168.434 106.881 168.129Z" fill="#FFB27D"/>
<path fill-rule="evenodd" clip-rule="evenodd" d="M113.159 169.081C112.888 169.013 112.616 169.284 112.582 169.624C112.548 169.963 112.718 170.303 112.99 170.37C113.261 170.438 113.533 170.167 113.567 169.827C113.634 169.488 113.431 169.149 113.159 169.081Z" fill="#BBDBFA"/>
<path fill-rule="evenodd" clip-rule="evenodd" d="M112.99 170.37C112.719 170.302 112.549 169.996 112.583 169.623C112.617 169.284 112.889 169.046 113.16 169.08C113.262 169.114 113.364 169.182 113.432 169.284H113.398C113.296 169.25 113.228 169.352 113.194 169.453C113.194 169.555 113.228 169.657 113.33 169.691C113.432 169.725 113.499 169.623 113.533 169.521V169.487C113.567 169.589 113.567 169.691 113.567 169.827C113.533 170.166 113.262 170.404 112.99 170.37ZM114.076 168.741L114.11 168.775C114.11 168.707 114.043 168.639 114.009 168.571C114.043 168.605 114.042 168.605 114.076 168.639C114.11 168.673 114.11 168.707 114.11 168.741C114.11 168.707 114.11 168.673 114.11 168.639C114.144 168.673 114.144 168.741 114.144 168.775C114.144 168.639 114.144 168.639 114.11 168.537C114.144 168.571 114.178 168.707 114.212 168.775C114.212 168.741 114.246 168.707 114.246 168.673C114.28 168.707 114.28 168.741 114.246 168.775L114.28 168.741C114.28 168.775 114.246 168.775 114.246 168.809C114.314 168.775 114.45 168.605 114.416 168.503C114.416 168.537 114.382 168.605 114.348 168.639C114.348 168.571 114.382 168.503 114.382 168.435C114.348 168.469 114.348 168.537 114.348 168.605C114.348 168.639 114.314 168.707 114.28 168.741C114.314 168.639 114.348 168.571 114.314 168.435V168.469C114.314 168.537 114.314 168.571 114.28 168.639C114.28 168.537 114.28 168.435 114.212 168.367C114.212 168.401 114.246 168.435 114.246 168.469C114.212 168.435 114.212 168.333 114.11 168.333C114.144 168.367 114.178 168.401 114.212 168.469C114.246 168.503 114.28 168.571 114.246 168.639C114.212 168.469 114.11 168.367 114.009 168.333C114.043 168.367 114.144 168.435 114.144 168.469C114.144 168.435 114.144 168.503 114.144 168.469C114.178 168.503 114.178 168.537 114.212 168.571C114.212 168.605 114.212 168.605 114.246 168.639V168.673C114.246 168.673 114.246 168.673 114.246 168.707C114.212 168.571 114.178 168.503 114.11 168.435C114.076 168.401 113.941 168.3 113.873 168.3L113.941 168.333C114.076 168.401 114.178 168.503 114.212 168.673C114.178 168.605 114.144 168.571 114.11 168.537C114.076 168.503 114.009 168.435 113.975 168.401C113.907 168.367 113.737 168.266 113.635 168.3C113.669 168.3 113.839 168.367 113.873 168.367C113.941 168.401 114.009 168.435 114.076 168.503C114.042 168.503 114.009 168.469 114.009 168.469C113.839 168.367 113.567 168.266 113.398 168.266C113.499 168.3 113.669 168.367 113.737 168.401L113.669 168.367C113.703 168.367 113.703 168.401 113.737 168.401C113.771 168.401 113.771 168.435 113.805 168.435C113.907 168.503 114.009 168.605 114.076 168.707C114.042 168.673 114.009 168.673 114.009 168.639C113.975 168.605 113.941 168.605 113.941 168.571C113.873 168.537 113.839 168.469 113.771 168.435C113.635 168.367 113.499 168.3 113.364 168.266C113.398 168.266 113.398 168.3 113.432 168.3C113.296 168.3 113.126 168.164 112.821 168.13C112.889 168.164 112.99 168.164 113.058 168.198L113.126 168.232C113.092 168.232 112.956 168.198 112.889 168.164C112.617 168.096 112.481 168.062 112.176 168.028C112.006 168.028 111.837 167.994 111.633 168.062C111.497 168.096 111.395 168.164 111.294 168.232C111.26 168.266 111.226 168.266 111.192 168.3C111.26 168.266 111.429 168.13 111.599 168.096C111.327 168.232 111.124 168.333 110.954 168.537C110.988 168.503 111.09 168.435 111.124 168.401C111.192 168.367 111.26 168.333 111.327 168.3C111.429 168.232 111.633 168.13 111.769 168.13C111.735 168.164 111.633 168.198 111.599 168.198C111.294 168.367 110.954 168.537 110.683 168.741C110.649 168.775 110.581 168.843 110.547 168.843C110.581 168.843 110.683 168.741 110.75 168.741C110.954 168.605 111.158 168.503 111.395 168.435C111.327 168.469 110.886 168.639 110.717 168.741L111.124 168.571C111.226 168.537 111.429 168.469 111.565 168.435C111.429 168.469 110.818 168.673 110.717 168.775C110.784 168.775 110.852 168.707 110.92 168.707C110.988 168.673 111.09 168.639 111.158 168.639C111.327 168.605 111.497 168.537 111.667 168.537C111.904 168.503 112.108 168.537 112.346 168.571C112.413 168.571 112.481 168.605 112.549 168.605C112.515 168.571 112.413 168.571 112.38 168.571C112.244 168.537 112.142 168.537 112.006 168.503C111.938 168.503 111.837 168.503 111.803 168.503C111.972 168.469 112.074 168.503 112.21 168.503C112.278 168.503 112.447 168.537 112.515 168.571C112.617 168.605 112.787 168.673 112.787 168.673C112.753 168.639 112.753 168.639 112.719 168.639L112.923 168.707L112.651 168.605C112.719 168.605 112.787 168.639 112.821 168.673C112.889 168.707 113.024 168.741 113.058 168.775C113.126 168.809 113.262 168.843 113.33 168.843C113.296 168.843 113.228 168.809 113.194 168.775L113.058 168.707C113.024 168.707 113.024 168.673 112.99 168.673C112.923 168.639 112.855 168.605 112.787 168.571C112.651 168.503 112.312 168.367 112.176 168.401C112.346 168.367 112.685 168.503 112.821 168.537L113.092 168.673C113.126 168.673 113.126 168.707 113.16 168.707C113.228 168.741 113.296 168.775 113.364 168.809C113.398 168.843 113.466 168.876 113.499 168.876C113.432 168.809 113.262 168.741 113.194 168.639C113.262 168.673 113.33 168.707 113.364 168.775C113.398 168.775 113.398 168.809 113.432 168.809C113.398 168.707 113.296 168.639 113.228 168.571L113.16 168.503C113.228 168.503 113.296 168.571 113.364 168.639C113.398 168.673 113.466 168.741 113.499 168.809L113.432 168.707C113.432 168.741 113.533 168.843 113.533 168.843C113.533 168.775 113.499 168.741 113.466 168.673L113.499 168.707C113.432 168.605 113.296 168.503 113.194 168.435C113.296 168.435 113.466 168.605 113.533 168.707C113.567 168.741 113.567 168.809 113.601 168.843L113.567 168.741L113.601 168.809C113.567 168.707 113.533 168.639 113.466 168.571C113.499 168.571 113.499 168.605 113.533 168.639C113.567 168.673 113.567 168.673 113.601 168.707C113.635 168.775 113.669 168.809 113.669 168.876C113.669 168.843 113.669 168.809 113.669 168.775C113.703 168.775 113.669 168.775 113.703 168.775C113.737 168.809 113.737 168.843 113.771 168.876V168.809L113.805 168.876C113.805 168.809 113.771 168.775 113.771 168.741C113.805 168.775 113.805 168.809 113.839 168.876C113.839 168.843 113.839 168.809 113.839 168.809L113.873 168.876C113.873 168.91 113.907 168.91 113.907 168.944C113.907 168.876 113.873 168.843 113.839 168.809C113.907 168.843 113.907 168.91 113.941 168.978C113.941 168.91 113.907 168.809 113.839 168.775C113.907 168.775 113.941 168.944 113.941 168.978V168.91L113.975 168.978V168.876C114.009 168.91 114.009 168.944 114.009 168.978C114.009 168.978 114.009 168.91 114.009 168.876C114.009 168.876 114.009 168.876 114.042 168.876C114.076 168.91 114.076 168.944 114.11 168.978L114.076 168.91C114.042 168.707 114.042 168.673 114.076 168.741Z" fill="#125AA3"/>
<path fill-rule="evenodd" clip-rule="evenodd" d="M117.572 169.216C117.809 169.284 117.979 169.589 117.945 169.929C117.911 170.268 117.64 170.506 117.402 170.472C117.165 170.404 116.995 170.099 117.029 169.759C117.063 169.42 117.3 169.182 117.572 169.216Z" fill="#BBDBFA"/>
<path fill-rule="evenodd" clip-rule="evenodd" d="M117.402 170.504C117.639 170.572 117.911 170.301 117.945 169.961C117.979 169.622 117.843 169.282 117.571 169.214C117.47 169.181 117.368 169.214 117.266 169.282H117.3C117.368 169.282 117.436 169.418 117.402 169.52C117.402 169.622 117.3 169.724 117.232 169.69C117.164 169.69 117.096 169.554 117.096 169.452V169.418C117.028 169.52 116.995 169.622 116.995 169.724C116.961 170.097 117.13 170.436 117.402 170.504Z" fill="#125AA3"/>
<path fill-rule="evenodd" clip-rule="evenodd" d="M116.52 168.943C116.486 168.977 116.486 168.977 116.52 168.943C116.52 168.909 116.554 168.841 116.588 168.807C116.554 168.841 116.554 168.841 116.52 168.875C116.52 168.909 116.486 168.977 116.486 169.011C116.486 168.875 116.486 168.875 116.554 168.773C116.52 168.807 116.486 168.909 116.452 168.977C116.452 168.943 116.452 168.909 116.452 168.875C116.418 168.909 116.418 168.943 116.418 168.977L116.384 168.943C116.384 168.977 116.384 168.977 116.384 169.011C116.35 168.977 116.282 168.773 116.282 168.706C116.282 168.74 116.316 168.807 116.316 168.841C116.316 168.773 116.316 168.706 116.316 168.638C116.316 168.672 116.316 168.74 116.316 168.807C116.316 168.841 116.316 168.909 116.35 168.943C116.35 168.841 116.316 168.74 116.35 168.638V168.672C116.35 168.74 116.35 168.773 116.35 168.841C116.384 168.74 116.384 168.672 116.418 168.57C116.418 168.604 116.384 168.638 116.384 168.672C116.418 168.638 116.452 168.536 116.486 168.536C116.452 168.57 116.452 168.604 116.418 168.638C116.384 168.672 116.35 168.74 116.384 168.807C116.418 168.638 116.52 168.536 116.588 168.502C116.554 168.502 116.486 168.604 116.486 168.638C116.486 168.604 116.486 168.672 116.486 168.638C116.452 168.638 116.452 168.706 116.418 168.706C116.418 168.74 116.418 168.74 116.384 168.773V168.807C116.384 168.807 116.384 168.807 116.384 168.841C116.418 168.74 116.452 168.672 116.52 168.604C116.554 168.57 116.656 168.502 116.689 168.502L116.656 168.536C116.554 168.604 116.452 168.672 116.418 168.841C116.452 168.807 116.452 168.74 116.486 168.706C116.52 168.672 116.554 168.638 116.588 168.604C116.622 168.57 116.791 168.502 116.859 168.536C116.825 168.536 116.689 168.57 116.689 168.604C116.656 168.638 116.588 168.672 116.52 168.74C116.554 168.74 116.554 168.706 116.588 168.706C116.723 168.638 116.927 168.536 117.063 168.57C116.995 168.604 116.859 168.638 116.791 168.672H116.825L116.791 168.706C116.791 168.706 116.757 168.706 116.757 168.74C116.689 168.773 116.588 168.875 116.554 168.977C116.588 168.943 116.588 168.943 116.622 168.909C116.656 168.875 116.656 168.875 116.689 168.841C116.723 168.807 116.791 168.773 116.825 168.74C116.927 168.672 117.029 168.638 117.131 168.604C117.131 168.604 117.097 168.604 117.097 168.638C117.199 168.638 117.334 168.536 117.572 168.536C117.538 168.57 117.436 168.57 117.402 168.57L117.334 168.604C117.368 168.604 117.47 168.57 117.504 168.57C117.708 168.536 117.809 168.502 118.013 168.536C118.149 168.536 118.251 168.57 118.386 168.638C118.454 168.706 118.556 168.773 118.624 168.841C118.658 168.875 118.658 168.909 118.692 168.909C118.658 168.875 118.522 168.706 118.42 168.672C118.59 168.841 118.726 168.977 118.828 169.181C118.794 169.147 118.76 169.079 118.726 169.045C118.692 169.011 118.658 168.943 118.59 168.909C118.522 168.841 118.386 168.706 118.285 168.672C118.319 168.706 118.352 168.74 118.386 168.773C118.59 168.977 118.794 169.181 118.963 169.418C118.997 169.452 119.031 169.52 119.031 169.52C118.997 169.52 118.929 169.418 118.895 169.384C118.76 169.249 118.624 169.113 118.454 169.011C118.488 169.079 118.794 169.249 118.895 169.384L118.624 169.181C118.556 169.113 118.42 169.045 118.319 169.011C118.42 169.045 118.794 169.316 118.862 169.418C118.828 169.384 118.76 169.35 118.726 169.316C118.658 169.283 118.624 169.249 118.556 169.215C118.454 169.147 118.319 169.079 118.217 169.045C118.047 169.011 117.911 169.011 117.742 169.011C117.708 169.011 117.64 169.011 117.606 169.011C117.64 168.977 117.708 168.977 117.742 168.977C117.843 168.977 117.911 168.977 118.013 168.977C118.047 168.977 118.115 169.011 118.149 168.977C118.047 168.943 117.945 168.943 117.877 168.909C117.809 168.909 117.708 168.909 117.64 168.943C117.572 168.977 117.436 169.011 117.436 169.011C117.47 169.011 117.47 168.977 117.47 168.977L117.3 169.011L117.504 168.909C117.47 168.909 117.402 168.943 117.368 168.943C117.334 168.943 117.233 168.977 117.165 169.011C117.097 169.045 117.029 169.045 116.961 169.045C116.995 169.045 117.029 169.011 117.063 169.011L117.165 168.977C117.199 168.977 117.199 168.977 117.233 168.943C117.266 168.909 117.334 168.875 117.402 168.875C117.504 168.841 117.776 168.74 117.843 168.773C117.708 168.706 117.47 168.807 117.368 168.841L117.165 168.943C117.131 168.943 117.131 168.977 117.097 168.977C117.029 169.011 116.995 169.045 116.927 169.045C116.893 169.045 116.859 169.079 116.825 169.079C116.893 169.011 116.995 168.977 117.063 168.875C117.029 168.909 116.961 168.943 116.927 168.977L116.893 169.011C116.927 168.943 116.995 168.875 117.063 168.807L117.131 168.773C117.097 168.773 117.029 168.841 116.961 168.875C116.927 168.909 116.893 168.977 116.859 169.045L116.927 168.943C116.927 168.977 116.859 169.045 116.825 169.079C116.825 169.011 116.859 168.977 116.893 168.943L116.859 168.977C116.927 168.875 117.029 168.807 117.131 168.74C117.063 168.74 116.927 168.875 116.859 168.977C116.825 169.011 116.825 169.079 116.791 169.113L116.825 169.011L116.791 169.079C116.825 168.977 116.859 168.909 116.927 168.841C116.893 168.841 116.893 168.875 116.859 168.875C116.859 168.909 116.825 168.909 116.825 168.943C116.791 169.011 116.757 169.045 116.757 169.113C116.757 169.079 116.757 169.045 116.791 169.011C116.757 169.045 116.757 169.079 116.723 169.113V169.045L116.689 169.113C116.689 169.045 116.723 169.011 116.723 168.977C116.69 169.011 116.689 169.045 116.656 169.079C116.656 169.045 116.656 169.011 116.656 169.011L116.622 169.079C116.622 169.113 116.588 169.113 116.588 169.147C116.588 169.079 116.622 169.045 116.656 169.011C116.622 169.045 116.588 169.113 116.554 169.147C116.554 169.079 116.622 168.977 116.656 168.943C116.622 168.943 116.588 169.113 116.554 169.147V169.079L116.52 169.147V169.045C116.486 169.079 116.486 169.113 116.486 169.147C116.486 169.147 116.486 169.079 116.52 169.045C116.486 169.079 116.486 169.113 116.486 169.147L116.52 169.079C116.554 168.909 116.554 168.909 116.52 168.943Z" fill="#125AA3"/>
<path d="M115.705 170.232C115.909 170.436 116.52 172.88 116.486 173.117C116.35 173.864 115.603 173.558 115.434 173.66" stroke="#FC9774" stroke-width="0.072" stroke-miterlimit="2.613" stroke-linecap="round" stroke-linejoin="round"/>
<path fill-rule="evenodd" clip-rule="evenodd" d="M112.48 174.68C114.72 176.411 116.044 176.614 116.519 175.257C114.822 175.324 113.465 175.121 112.48 174.68Z" fill="white"/>
<path fill-rule="evenodd" clip-rule="evenodd" d="M102.367 178.955C99.8896 178.684 97.8533 179.193 93.3735 182.586C89.0634 185.844 79.4928 193.039 79.4928 193.039L65.2388 179.871L61.6074 188.118C61.6074 188.118 77.219 204.443 80.2055 204.443C83.1921 204.476 93.3735 196.976 94.188 196.433C94.3577 196.297 89.6743 208.142 89.0294 210.042C88.3846 211.943 80.0698 226.163 80.0698 226.163C80.0698 226.163 88.5204 231.593 91.7445 228.064C101.587 217.305 108.646 179.396 108.646 179.396C108.646 179.396 104.132 179.159 102.367 178.955Z" fill="#4F8ECC"/>
<path fill-rule="evenodd" clip-rule="evenodd" d="M112.108 183.979C112.684 183.809 113.295 183.775 113.974 183.843C112.277 207.125 105.286 219.173 92.9664 219.987C89.912 218.053 88.3848 217.103 88.3848 217.103C90.8622 214.829 92.118 213.675 92.118 213.675C102.401 213.369 109.053 203.46 112.108 183.979Z" fill="#61A0E0"/>
<path fill-rule="evenodd" clip-rule="evenodd" d="M115.366 179.736C113.329 179.329 111.87 178.786 111.021 178.107C112.617 178.752 114.381 178.854 115.433 178.888L115.366 179.736Z" fill="#F37960"/>
<path fill-rule="evenodd" clip-rule="evenodd" d="M113.872 184.997C114.89 183.674 114.517 183.063 113.431 183.3C112.277 183.198 111.666 183.47 111.53 183.775C111.87 184.624 111.802 184.59 111.971 184.794C112.718 184.59 113.838 184.794 113.872 184.997Z" fill="#4F8ECC"/>
<path fill-rule="evenodd" clip-rule="evenodd" d="M109.765 178.887C111.869 181.805 112.888 183.265 112.888 183.265C111.7 184.283 111.055 184.826 111.021 184.928C109.392 181.262 108.611 179.43 108.611 179.43C109.392 179.056 109.765 178.887 109.765 178.887ZM115.297 180.448C113.838 182.552 113.397 183.265 113.397 183.265C113.804 184.588 114.55 185.199 114.584 185.301C115.908 182.348 116.112 181.127 116.112 181.127C115.84 180.516 115.297 180.448 115.297 180.448Z" fill="#99C5F2"/>
<path fill-rule="evenodd" clip-rule="evenodd" d="M109.528 232.884C111.361 233.495 112.107 233.495 113.465 233.528C113.465 233.528 116.655 212.69 121.271 192.531C123.103 184.556 123.409 181.162 120.049 180.653C119.065 180.483 116.282 180.619 115.331 180.449C115.637 205.699 109.732 223.109 109.155 228.506C108.849 231.221 108.917 232.68 109.528 232.884Z" fill="#4F8ECC"/>
<path fill-rule="evenodd" clip-rule="evenodd" d="M59.8089 169.623L58.9265 170.811L59.8089 171.49C60.7931 172.236 60.9967 173.628 60.284 174.612L54.3788 182.553C53.6322 183.538 52.2407 183.741 51.2565 183.029L50.442 182.418L49.5596 183.606L50.3741 184.216C52.0371 185.438 54.3449 185.099 55.5666 183.436L61.4719 175.494C62.6936 173.831 62.3542 171.524 60.6913 170.302L59.8089 169.623Z" fill="#F57A44"/>
<path fill-rule="evenodd" clip-rule="evenodd" d="M49.7289 180.55C49.5253 180.381 49.1859 180.448 49.0502 180.652L47.5229 182.722C47.3532 182.926 47.4211 183.265 47.6247 183.401L48.9483 184.385C49.152 184.555 49.4914 184.487 49.6271 184.283L51.1543 182.213C51.324 182.01 51.2561 181.67 51.0525 181.534L49.7289 180.55ZM59.1976 167.79C58.9601 167.62 58.6546 167.688 58.5189 167.891L56.9917 169.962C56.822 170.165 56.8899 170.505 57.0935 170.64L58.4171 171.625C58.6207 171.794 58.9601 171.726 59.0958 171.523L60.6231 169.453C60.7927 169.249 60.7249 168.909 60.5212 168.774L59.1976 167.79Z" fill="#FC9774"/>
<path fill-rule="evenodd" clip-rule="evenodd" d="M43.9597 141.216C42.6361 140.232 40.7695 140.504 39.7853 141.827L17.2164 172.304C16.2322 173.627 16.5037 175.494 17.8273 176.478L39.3441 192.429C39.9889 192.904 40.9392 192.768 41.4143 192.124L65.7819 159.272C66.257 158.627 66.1213 157.676 65.4765 157.201L43.9597 141.216Z" fill="#FC9774"/>
<path fill-rule="evenodd" clip-rule="evenodd" d="M64.5604 158.389L40.1928 191.275C39.7177 191.919 38.7674 192.055 38.1226 191.58L30.9616 186.252C28.3145 184.283 27.7714 180.584 29.7059 177.937L37.9529 166.839L36.7311 165.923C35.7469 165.176 35.5433 163.785 36.256 162.801C37.0026 161.816 38.3941 161.613 39.3783 162.325L40.6001 163.242L48.7452 152.246C50.7136 149.599 54.4468 149.056 57.0601 150.99L64.221 156.318C64.8998 156.794 65.0355 157.744 64.5604 158.389Z" fill="#F57A44"/>
<path fill-rule="evenodd" clip-rule="evenodd" d="M58.2817 151.907C55.6345 149.939 51.9014 150.516 49.9669 153.163L30.9276 178.854C28.9592 181.501 29.5361 185.234 32.1833 187.169L39.3442 192.497C39.9891 192.972 40.9393 192.836 41.4145 192.192L65.782 159.306C66.2572 158.661 66.1214 157.711 65.4766 157.235L58.2817 151.907Z" fill="#FBBFA8"/>
<path fill-rule="evenodd" clip-rule="evenodd" d="M40.566 163.208C39.5818 162.462 38.1903 162.699 37.4437 163.683C36.6971 164.668 36.9007 166.059 37.9188 166.806L40.7696 168.91L43.4168 165.312L40.566 163.208Z" fill="#FC9774"/>
<path fill-rule="evenodd" clip-rule="evenodd" d="M40.3965 163.718C39.616 163.141 38.5299 163.31 37.953 164.091C37.376 164.872 37.5457 165.958 38.3263 166.535L40.5323 168.164L42.6025 165.381L40.3965 163.718Z" fill="#FFE2DC"/>
<path d="M41.0642 164.077L38.7812 167.158L39.2721 167.522L41.5551 164.44L41.0642 164.077Z" fill="#FC9774"/>
<path fill-rule="evenodd" clip-rule="evenodd" d="M59.7411 175.29C59.5375 177.428 60.4199 177.394 58.6551 179.668C56.517 182.451 55.8383 182.417 55.1934 178.616C54.9898 177.462 56.551 172.167 59.7411 174.509C59.9787 174.747 59.7411 175.222 59.7411 175.29Z" fill="#FFB27D"/>
<path fill-rule="evenodd" clip-rule="evenodd" d="M183.615 317.254L185.142 327.266L175.707 323.567L166.272 319.867L172.008 315.286C163.082 305.545 149.269 302.695 137.527 307.276C134.947 307.989 132.47 308.939 130.06 310.127C119.811 315.286 111.734 324.924 109.867 336.429C109.731 337.379 109.596 338.296 109.562 339.246C108.713 327.198 113.363 314.946 123.205 306.496C139.563 292.445 164.1 294.142 178.354 310.161L182.054 307.208L183.615 317.254ZM109.426 355.774L110.885 345.762L118.827 352.041L126.768 358.319L119.947 361.034C125.648 372.947 138.036 379.7 150.593 378.716C153.24 378.784 155.921 378.614 158.568 378.139C169.87 376.171 180.424 369.315 185.515 358.862C185.922 358.014 186.296 357.131 186.635 356.249C183.954 367.992 175.911 378.377 164.032 383.603C144.314 392.257 121.338 383.501 112.345 364.021L107.933 365.786L109.426 355.774Z" fill="#F57A44"/>
<path fill-rule="evenodd" clip-rule="evenodd" d="M254.647 204.512H197.224C197.631 202.781 199.193 201.457 201.059 201.457C201.161 201.457 201.229 201.457 201.331 201.457C202.247 199.251 204.419 197.69 206.964 197.69C208.084 197.69 209.136 197.996 210.019 198.505C211.105 194.907 214.465 192.26 218.436 192.26C219.25 192.26 220.031 192.362 220.777 192.565C222.712 188.323 226.954 185.371 231.909 185.371C237.78 185.371 242.701 189.511 243.889 195.043C243.991 195.043 244.093 195.043 244.195 195.043C247.962 195.043 251.084 197.86 251.525 201.491C253.052 201.831 254.274 202.984 254.647 204.512ZM237.339 65.8066C236.389 64.2115 234.963 62.9218 233.165 62.1073C231.705 61.4625 230.076 61.157 228.481 61.3267C227.701 61.4285 226.92 61.6322 226.173 61.9376C224.918 62.5146 224.307 63.363 222.814 62.8879C221.049 62.3109 220.065 59.9353 218.469 58.8153C217.112 57.865 215.483 57.2881 213.82 57.0845C210.562 56.6772 207.338 57.6953 205.03 60.0031C201.365 47.989 195.629 34.4138 181.171 33.769C174.01 33.4296 167.155 36.3483 161.589 40.6923C158.603 43.0341 155.921 45.7491 153.478 48.6678C152.358 49.9914 151.306 51.315 150.254 52.6725C148.489 54.9124 147.132 56.5754 144.043 55.9306C137.018 54.5052 132.47 60.3086 129.246 65.8066H237.339ZM278.235 113.388C273.857 102.629 265.813 111.453 265.813 111.453C265.813 111.453 265.066 94.7897 250.914 96.4866C237.135 98.1496 240.665 113.965 240.665 113.965C237.373 114.168 235.54 115.356 234.522 116.714C233.979 117.46 233.877 118.411 234.115 119.191H290.961C292.047 117.902 292.251 115.831 290.995 114.236C286.889 109.044 278.235 113.388 278.235 113.388ZM247.894 254.876L298.088 256.03L344.821 254.299L325.409 249.785C326.596 241.742 322.286 237.33 317.162 237.058C314.65 236.957 310.747 238.348 309.933 242.59C309.695 230.746 302.025 226.605 295.475 226.605C289.027 226.639 283.699 230.712 281.459 246.595C277.658 231.017 260.383 233.054 262.114 250.396L247.894 254.876Z" fill="white"/>
<path d="M160.978 284.504C170.922 285.658 178.66 289.255 184.124 295.296M194.509 363.173C190.809 373.116 183.784 380.209 180.051 382.076M99.2784 322.311C96.2918 333.782 96.5294 342.267 100.059 347.765M92.6265 332.051C92.1514 334.563 92.0156 336.226 92.2532 337.074" stroke="#61A0E0" stroke-width="0.283" stroke-miterlimit="2.613" stroke-linecap="round" stroke-linejoin="round"/>
<path fill-rule="evenodd" clip-rule="evenodd" d="M114.72 116.476C110.342 105.717 102.298 114.541 102.298 114.541C102.298 114.541 101.552 97.8775 87.3995 99.5745C73.6207 101.237 77.1502 117.053 77.1502 117.053C73.8582 117.256 72.0256 118.444 71.0074 119.802C70.4644 120.548 70.3626 121.498 70.6002 122.279H127.447C128.533 120.989 128.736 118.919 127.48 117.324C123.374 112.132 114.72 116.476 114.72 116.476Z" fill="white"/>
</svg>
