<svg width="65" height="65" viewBox="0 0 65 65" fill="none" xmlns="http://www.w3.org/2000/svg">
<rect width="65" height="65" rx="32.5" fill="#FD9999" fill-opacity="0.72"/>
<path d="M36.5821 46.5476C35.6306 46.5476 34.8293 47.3489 34.8293 48.3004C34.8293 49.2518 35.6306 50.0531 36.5821 50.0531C37.5335 50.0531 38.3348 49.2518 38.3348 48.3004C38.3348 47.3489 37.5836 46.5476 36.5821 46.5476ZM36.5821 49.0515C36.1814 49.0515 35.8309 48.701 35.8309 48.3004C35.8309 47.8997 36.1814 47.5492 36.5821 47.5492C36.9827 47.5492 37.3332 47.8997 37.3332 48.3004C37.3332 48.701 37.0328 49.0515 36.5821 49.0515ZM28.7198 46.5476C27.7683 46.5476 26.9671 47.3489 26.9671 48.3004C26.9671 49.2518 27.7683 50.0531 28.7198 50.0531C29.6713 50.0531 30.4725 49.2518 30.4725 48.3004C30.4725 47.3489 29.6713 46.5476 28.7198 46.5476ZM28.7198 49.0515C28.3192 49.0515 27.9686 48.701 27.9686 48.3004C27.9686 47.8997 28.3192 47.5492 28.7198 47.5492C29.1204 47.5492 29.471 47.8997 29.471 48.3004C29.471 48.701 29.1204 49.0515 28.7198 49.0515ZM46.5977 18.0032H32.7761C31.9749 18.0032 31.3239 18.6542 31.3239 19.4554V26.8169H20.0062L19.4053 25.0642C19.3552 24.8639 19.1549 24.7136 18.9546 24.7136H16.5008C16.2003 24.7136 16 24.9139 16 25.2144C16 25.5149 16.2003 25.7152 16.5008 25.7152H18.554C19.9562 29.9217 22.7105 37.9843 24.0626 42.0907C24.1126 42.291 24.3129 42.4412 24.5133 42.4412H40.388C40.6384 42.4412 40.8888 42.5414 41.0891 42.7417C41.2894 42.942 41.3895 43.1423 41.3895 43.4428C41.3895 43.9937 40.9388 44.3943 40.388 44.3943H24.8638C24.5633 44.3943 24.363 44.5946 24.363 44.8951C24.363 45.1955 24.5633 45.3958 24.8638 45.3958H40.4881C41.5899 45.3958 42.4913 44.4944 42.4913 43.4428C42.4913 42.8919 42.291 42.3912 41.8903 42.0406C41.5398 41.6901 41.039 41.4397 40.4881 41.4397H24.964L24.6635 40.4882H39.2362C39.4866 40.4882 39.6869 40.338 39.737 40.0876L42.1908 29.7715H46.6477C47.449 29.7715 48.1 29.1205 48.1 28.3192V19.4554C48.0499 18.6542 47.3989 18.0032 46.5977 18.0032ZM38.7855 39.4866H24.2629L20.3568 27.8685H31.3239V28.3693C31.3239 29.1706 31.9749 29.8216 32.7761 29.8216H33.5774V33.0266C33.5774 33.2269 33.6775 33.3771 33.8778 33.4773C34.0281 33.5774 34.2284 33.5274 34.3786 33.4272L39.136 29.8216H41.0891L38.7855 39.4866ZM47.0484 28.3192C47.0484 28.5696 46.848 28.7699 46.5977 28.7699H38.9858C38.8856 28.7699 38.7855 28.82 38.6853 28.8701L34.5789 31.9749V29.2707C34.5789 28.9703 34.3786 28.7699 34.0782 28.7699H32.7761C32.5257 28.7699 32.3254 28.5696 32.3254 28.3192V19.4554C32.3254 19.205 32.5257 19.0047 32.7761 19.0047H46.5977C46.848 19.0047 47.0484 19.205 47.0484 19.4554V28.3192Z" fill="#9F1212"/>
<path d="M45.1453 23.4116H34.2283C33.9279 23.4116 33.7275 23.6119 33.7275 23.9124C33.7275 24.2128 33.9279 24.4132 34.2283 24.4132H45.1453C45.4458 24.4132 45.6461 24.2128 45.6461 23.9124C45.6461 23.6119 45.3957 23.4116 45.1453 23.4116ZM45.1453 26.3662H34.2283C33.9279 26.3662 33.7275 26.5665 33.7275 26.867C33.7275 27.1675 33.9279 27.3678 34.2283 27.3678H45.1453C45.4458 27.3678 45.6461 27.1675 45.6461 26.867C45.6461 26.5665 45.3957 26.3662 45.1453 26.3662ZM45.1453 20.4069H34.2283C33.9279 20.4069 33.7275 20.6072 33.7275 20.9077C33.7275 21.2082 33.9279 21.4085 34.2283 21.4085H45.1453C45.4458 21.4085 45.6461 21.2082 45.6461 20.9077C45.6461 20.6072 45.3957 20.4069 45.1453 20.4069Z" fill="#9F1212"/>
</svg>
