<svg width="65" height="65" viewBox="0 0 65 65" fill="none" xmlns="http://www.w3.org/2000/svg">
<rect width="65" height="65" rx="32.5" fill="#F99807" fill-opacity="0.36"/>
<path d="M20.6001 45.311C20.6615 45.3585 20.734 45.4148 20.8019 45.4721L20.0165 45.6861C19.7264 45.7684 19.4803 45.9614 19.3314 46.2236C19.1825 46.4858 19.1427 46.796 19.2206 47.0873L20.0997 50.5524C20.1189 50.628 20.1527 50.699 20.1994 50.7615C20.246 50.824 20.3045 50.8766 20.3715 50.9165C20.4386 50.9564 20.5128 50.9827 20.5899 50.9939C20.6671 51.0051 20.7457 51.0009 20.8213 50.9818C20.8969 50.9626 20.9679 50.9287 21.0304 50.882C21.0929 50.8354 21.1455 50.7769 21.1854 50.7099C21.2253 50.6429 21.2516 50.5687 21.2628 50.4915C21.274 50.4143 21.2698 50.3357 21.2507 50.2601L20.3803 46.8177L27.997 44.7427L28.8601 48.1455C28.8793 48.2211 28.9131 48.2921 28.9598 48.3546C29.0064 48.4171 29.0649 48.4698 29.132 48.5096C29.199 48.5495 29.2732 48.5758 29.3503 48.587C29.4275 48.5982 29.5061 48.5941 29.5817 48.5749C29.6573 48.5557 29.7283 48.5218 29.7908 48.4751C29.8533 48.4285 29.906 48.37 29.9458 48.303C29.9857 48.236 30.012 48.1618 30.0232 48.0846C30.0344 48.0074 30.0302 47.9288 30.0111 47.8533L29.15 44.4595C29.1146 44.3034 29.0485 44.1559 28.9555 44.0257C28.8624 43.8955 28.7444 43.7851 28.6081 43.7011C28.4827 43.6239 28.3429 43.5731 28.1972 43.5517C28.0516 43.5302 27.903 43.5387 27.7607 43.5764L27.2186 43.7241L27.2493 41.469C27.2496 41.4435 27.2484 41.4181 27.2455 41.3927C27.2194 40.9845 27.0476 40.5993 26.7614 40.307C26.7388 40.2829 26.7142 40.2607 26.688 40.2406L21.2704 36.1C20.5641 35.4399 19.294 35.0981 18.3599 35.6619C18.0862 35.8224 17.851 36.041 17.671 36.3023C17.4911 36.5636 17.3706 36.8612 17.3182 37.1742C17.274 37.4513 17.2912 37.7348 17.3686 38.0046C17.446 38.2743 17.5817 38.5238 17.7661 38.7354C17.7888 38.7612 17.8137 38.785 17.8403 38.8067L21.1129 41.4475C21.2356 41.5455 21.392 41.5909 21.5481 41.5738C21.7041 41.5567 21.847 41.4786 21.9456 41.3564C22.0442 41.2342 22.0903 41.078 22.074 40.9219C22.0577 40.7658 21.9803 40.6225 21.8586 40.5233L18.6321 37.9198C18.5711 37.8409 18.5271 37.7501 18.5029 37.6533C18.4787 37.5565 18.4748 37.4558 18.4915 37.3574C18.5174 37.2159 18.5739 37.0819 18.6571 36.9646C18.7404 36.8473 18.8483 36.7498 18.9733 36.6787C19.363 36.4442 20.0631 36.5845 20.4722 36.9796C20.4887 36.9954 20.506 37.0103 20.5241 37.0243L25.9258 41.1527C26.0101 41.2465 26.0581 41.3673 26.0612 41.4933L26.0265 44.0488L22.056 45.1305C21.8676 44.8304 21.6195 44.5723 21.3272 44.3722L21.2588 44.3189C21.2498 44.3119 21.2405 44.305 21.2309 44.2986L15.6955 40.4705C15.6742 40.4546 15.651 40.4412 15.6265 40.4308C15.45 40.2022 15.3218 39.94 15.2497 39.6604C15.1776 39.3807 15.1631 39.0893 15.207 38.8038C15.2088 38.7922 15.2102 38.7809 15.2111 38.7693L16.0339 29.77C16.0854 29.557 16.2093 29.3687 16.3845 29.2372C16.5597 29.1057 16.7752 29.0392 16.9941 29.0492C17.0961 29.053 17.1961 29.0783 17.2876 29.1235C17.3791 29.1687 17.46 29.2328 17.5249 29.3116C17.5769 29.378 17.614 29.4548 17.6336 29.5368C17.6532 29.6188 17.6549 29.7041 17.6386 29.7868C17.6336 29.8131 17.6307 29.8398 17.6299 29.8665L17.4261 34.864C17.5288 34.7853 17.6357 34.7122 17.7464 34.6452C18.0232 34.4807 18.3239 34.3604 18.6378 34.2887L18.8147 29.9512C18.8536 29.7107 18.8422 29.4649 18.7813 29.2291C18.7204 28.9933 18.6114 28.7726 18.4611 28.581C18.2933 28.3715 18.0835 28.1994 17.8451 28.076C17.6068 27.9527 17.3452 27.8806 17.0773 27.8646C16.5615 27.8305 16.0511 27.9866 15.6425 28.3033C15.234 28.62 14.9557 29.0755 14.8603 29.5835C14.8574 29.6001 14.8554 29.6166 14.8536 29.6334L14.0302 38.6452C13.8708 39.7547 14.3608 41.0933 15.0525 41.4696L20.5421 45.2657L20.6001 45.311ZM51.1425 29.6334C51.1408 29.6166 51.1388 29.6001 51.1359 29.5835C51.0394 29.076 50.7609 28.6213 50.3527 28.3047C49.9445 27.9882 49.4347 27.8317 48.9192 27.8646C48.6512 27.8806 48.3895 27.9526 48.1511 28.076C47.9127 28.1994 47.7029 28.3714 47.5351 28.581C47.3848 28.7726 47.2757 28.9933 47.2148 29.2291C47.154 29.4649 47.1426 29.7107 47.1814 29.9512L47.3583 34.2887C47.6723 34.3604 47.9732 34.4808 48.25 34.6455C48.3606 34.7125 48.4675 34.7854 48.5701 34.8641L48.3663 29.8665C48.3654 29.8398 48.3625 29.8131 48.3576 29.7868C48.3413 29.7041 48.343 29.6188 48.3626 29.5368C48.3822 29.4548 48.4192 29.378 48.4712 29.3116C48.5362 29.2328 48.6171 29.1687 48.7087 29.1235C48.8002 29.0782 48.9003 29.0529 49.0024 29.0492C49.2212 29.0392 49.4366 29.1057 49.6118 29.2372C49.7869 29.3687 49.9109 29.5571 49.9623 29.77L50.7851 38.7693C50.7859 38.7809 50.7874 38.7922 50.7891 38.8038C50.8737 39.3735 50.7308 39.9536 50.3914 40.4189C50.3596 40.4334 50.3293 40.4507 50.3006 40.4705L44.7652 44.2986C44.7557 44.305 44.7464 44.3119 44.7374 44.3189L44.669 44.3722C44.3766 44.5723 44.1285 44.8305 43.9402 45.1305L39.9697 44.0488L39.9349 41.4934C39.938 41.3673 39.986 41.2465 40.0703 41.1527L45.472 37.0243C45.4901 37.0103 45.5075 36.9954 45.5239 36.9796C45.933 36.5845 46.6332 36.4439 47.0228 36.679C47.1478 36.75 47.2558 36.8475 47.339 36.9647C47.4223 37.0819 47.4788 37.216 47.5046 37.3574C47.5213 37.4558 47.5174 37.5565 47.4932 37.6533C47.469 37.7501 47.425 37.8409 47.364 37.9198L44.1376 40.5233C44.0152 40.6222 43.9372 40.7657 43.9206 40.9222C43.904 41.0786 43.9501 41.2353 44.0489 41.3577C44.1477 41.4802 44.291 41.5584 44.4475 41.5753C44.6039 41.5921 44.7606 41.5462 44.8832 41.4475L48.1558 38.8067C48.1825 38.785 48.2073 38.7612 48.23 38.7354C48.4145 38.5238 48.5502 38.2743 48.6276 38.0046C48.705 37.7348 48.7222 37.4513 48.6779 37.1742C48.6256 36.8613 48.5051 36.5637 48.3251 36.3024C48.1452 36.0412 47.91 35.8226 47.6363 35.6623C46.7013 35.0981 45.432 35.4402 44.7258 36.1L39.3081 40.2406C39.2819 40.2607 39.2574 40.2829 39.2348 40.307C38.9486 40.5993 38.7768 40.9845 38.7506 41.3927C38.7478 41.4181 38.7465 41.4435 38.7469 41.469L38.7775 43.724L38.2293 43.5747C38.0878 43.538 37.9404 43.5303 37.7958 43.552C37.6512 43.5737 37.5125 43.6244 37.388 43.7011C37.2534 43.7836 37.1366 43.8919 37.0441 44.0199C36.9516 44.1478 36.8855 44.2928 36.8493 44.4464L35.9851 47.8533C35.9659 47.9288 35.9618 48.0074 35.973 48.0846C35.9842 48.1618 36.0105 48.236 36.0503 48.303C36.1309 48.4383 36.2618 48.5361 36.4145 48.5749C36.5671 48.6136 36.7289 48.5902 36.8642 48.5096C36.9995 48.4291 37.0973 48.2981 37.1361 48.1455L38.0009 44.7433L45.6185 46.8185L44.7455 50.2601C44.7263 50.3357 44.7222 50.4143 44.7334 50.4915C44.7446 50.5687 44.7709 50.6429 44.8108 50.7099C44.8913 50.8452 45.0223 50.943 45.1749 50.9817C45.3275 51.0205 45.4893 50.997 45.6246 50.9165C45.76 50.836 45.8578 50.705 45.8965 50.5524L46.7787 47.0737C46.8536 46.7849 46.8125 46.4784 46.6645 46.2194C46.5164 45.9605 46.2729 45.7697 45.9861 45.6878L45.1943 45.4721C45.2621 45.4148 45.3347 45.3585 45.3961 45.311L50.9437 41.4696C51.6354 41.0932 52.1254 39.7547 51.9659 38.6452L51.1425 29.6334ZM33.1386 13.0186C33.0455 12.9935 32.9474 12.9938 32.8544 13.0195C30.6812 13.0459 28.5546 13.6531 26.6952 14.7783C24.8358 15.9035 23.3112 17.5057 22.2796 19.4187C22.5986 19.5177 22.9053 19.6525 23.1939 19.8206C23.2962 19.7614 23.4013 19.7079 23.5077 19.657C23.9674 18.873 24.5222 18.1489 25.1593 17.5008C25.8955 18.1876 26.7174 18.7763 27.6046 19.2524C27.5524 19.4412 27.5004 19.6304 27.4531 19.8254C27.8413 20.0523 28.191 20.3394 28.489 20.6761C28.5545 20.3648 28.6286 20.0639 28.7065 19.7682C29.8847 20.2471 31.1344 20.5267 32.4043 20.5957V24.5738H29.0977C29.0713 24.6294 29.04 24.6835 29.0107 24.7383C28.9873 24.782 28.9663 24.8264 28.9411 24.8695C28.885 24.9648 28.8241 25.0585 28.7583 25.1504C28.6781 25.2618 28.5945 25.3675 28.509 25.4693C28.4597 25.528 28.4089 25.5831 28.3585 25.6394C28.3198 25.6827 28.2818 25.7278 28.2427 25.77H32.4043V29.7426C31.1321 29.7989 29.8783 30.0685 28.6955 30.5403C28.3144 29.0466 28.0979 27.5156 28.05 25.9747C27.8433 26.1843 27.6355 26.3789 27.4398 26.5603C27.2905 26.6986 27.1418 26.836 27 26.9766C26.9747 27.0018 26.946 27.03 26.9178 27.0578C27.0147 28.4065 27.24 29.7429 27.5907 31.0488C26.6955 31.523 25.8656 32.1113 25.1217 32.799C24.2953 31.9508 23.6109 30.975 23.0948 29.9091C22.6723 29.8807 22.2739 29.7014 21.9725 29.4038C21.8335 29.2655 21.6304 29.0725 21.4002 28.8565C22.1807 31.2921 23.7074 33.4206 25.7643 34.9407C27.8212 36.4607 30.3041 37.2954 32.8616 37.3265C32.9509 37.3495 33.0445 37.3495 33.1339 37.3267C35.5095 37.2983 37.8251 36.5764 39.7959 35.2496C41.7667 33.9229 43.3069 32.0491 44.227 29.8587C43.9493 29.8986 43.6692 29.9197 43.3887 29.9219C43.2261 29.9219 43.0666 29.9098 42.9071 29.8975C42.3823 30.9856 41.6823 31.98 40.8349 32.8411C40.0993 32.1552 39.2783 31.5672 38.3921 31.0917C38.6615 30.1061 38.8568 29.1018 38.9764 28.0871C38.5559 27.6656 38.1976 27.1863 37.9122 26.6638C37.8307 27.9848 37.6229 29.2949 37.2915 30.5763C36.1128 30.097 34.8625 29.8171 33.5918 29.748V25.77H37.5197C37.478 25.653 37.4465 25.5316 37.4118 25.4117C37.3898 25.3354 37.3628 25.2613 37.3437 25.1839C37.3145 25.0656 37.2954 24.9435 37.2731 24.8226C37.2577 24.7394 37.2369 24.6582 37.2248 24.5738H33.5918V20.5998C34.864 20.5405 36.1175 20.2699 37.3008 19.7989C37.4268 20.2811 37.537 20.7848 37.6291 21.3066C37.8567 20.7595 38.1611 20.2477 38.5331 19.7866C38.492 19.6187 38.4463 19.4567 38.4016 19.2934C39.2991 18.82 40.131 18.2315 40.8763 17.5429C40.9791 17.6487 41.0815 17.7549 41.1799 17.8648C41.5918 17.7083 42.0192 17.5964 42.4549 17.5309C41.3298 16.1394 39.9115 15.0135 38.3011 14.2335C36.6907 13.4535 34.9279 13.0386 33.1386 13.0186ZM32.4043 30.9332V36.0565C31.0455 35.6792 29.8369 34.0328 29.0375 31.686C30.1094 31.2473 31.2477 30.9928 32.4043 30.9332ZM29.869 35.6878C28.4501 35.2632 27.132 34.5557 25.9941 33.6079C26.5912 33.0676 27.2486 32.5979 27.9532 32.208C28.3705 33.4767 29.0201 34.6567 29.869 35.6878ZM39.9555 33.6451C38.8278 34.5746 37.5256 35.2692 36.1255 35.6881C36.9663 34.6686 37.6115 33.5024 38.0284 32.2484C38.7216 32.6394 39.3681 33.108 39.9555 33.6451ZM36.9474 31.7175C36.1478 34.0471 34.9444 35.6814 33.5918 36.0569V30.9389C34.7462 31.008 35.8806 31.2712 36.9474 31.7175ZM26.0403 16.6983C27.1686 15.7706 28.471 15.0777 29.8709 14.6603C29.0311 15.679 28.3867 16.844 27.9701 18.0968C27.2758 17.7054 26.6284 17.2362 26.0403 16.6983ZM29.0491 18.6264C29.8487 16.2972 31.0521 14.6671 32.4043 14.2912V19.4049C31.2501 19.3358 30.1158 19.0726 29.0491 18.6264ZM33.5918 19.4106V14.2847C34.9506 14.6618 36.1586 16.3113 36.9583 18.658C35.8865 19.0965 34.7483 19.351 33.5918 19.4106ZM36.1234 14.6586C37.5438 15.0813 38.8638 15.7874 40.0038 16.7343C39.4055 17.2758 38.7467 17.7466 38.0405 18.1371C37.623 16.8686 36.9729 15.689 36.1234 14.6586Z" fill="#955E0C"/>
<path d="M39.2921 20.7514C39.2845 20.76 39.2755 20.7669 39.2683 20.7762C39.2568 20.7908 39.249 20.8069 39.2391 20.8222C38.3994 21.9641 38.0463 23.3922 38.257 24.7939C38.4678 26.1956 39.2253 27.4566 40.3638 28.3011C41.5022 29.1456 42.9288 29.5046 44.3314 29.2996C45.7339 29.0946 46.9981 28.3423 47.8473 27.2073C48.6964 26.0724 49.0613 24.6473 48.8621 23.2439C48.6629 21.8405 47.9158 20.5732 46.7844 19.7194C45.6529 18.8656 44.2293 18.4948 42.8251 18.6882C41.421 18.8816 40.1506 19.6235 39.2921 20.7514ZM39.5295 23.6875C39.5302 23.1147 39.6593 22.5493 39.9074 22.0331L42.0632 23.7258C42.1302 23.8569 42.2248 23.9719 42.3406 24.0628C42.4564 24.1537 42.5906 24.2184 42.7338 24.2524L43.4188 24.7903H42.5406C42.3831 24.7903 42.2321 24.8529 42.1207 24.9643C42.0094 25.0756 41.9468 25.2266 41.9468 25.3841C41.9468 25.5416 42.0094 25.6926 42.1207 25.8039C42.2321 25.9153 42.3831 25.9778 42.5406 25.9778H42.7951V26.2321C42.7951 26.3896 42.8577 26.5406 42.969 26.652C43.0804 26.7633 43.2314 26.8259 43.3889 26.8259C43.5464 26.8259 43.6974 26.7633 43.8087 26.652C43.9201 26.5406 43.9826 26.3896 43.9826 26.2321V25.9607C44.1944 25.9254 44.3895 25.8238 44.5398 25.6705L45.8235 26.6786C45.258 27.1399 44.5733 27.4314 43.8487 27.519C43.1242 27.6066 42.3897 27.4868 41.7305 27.1736C41.0714 26.8603 40.5147 26.3665 40.125 25.7494C39.7354 25.1323 39.5289 24.4173 39.5295 23.6875ZM43.3889 19.8281C44.0846 19.8273 44.7675 20.0147 45.3653 20.3705C45.9631 20.7264 46.4534 21.2374 46.7843 21.8493C47.1152 22.4612 47.2743 23.1513 47.2448 23.8464C47.2153 24.5414 46.9982 25.2155 46.6166 25.7972C46.6052 25.7867 46.5956 25.7748 46.5832 25.765L44.8309 24.3891V24.1116C44.8306 23.8418 44.7233 23.583 44.5325 23.3922C44.3416 23.2014 44.0829 23.0941 43.813 23.0938H43.1813L43.1343 23.0569V22.5847H43.386L43.3889 22.585L43.3918 22.5847H44.2372C44.3947 22.5847 44.5457 22.5221 44.657 22.4108C44.7684 22.2994 44.8309 22.1484 44.8309 21.9909C44.8309 21.8334 44.7684 21.6824 44.657 21.5711C44.5457 21.4597 44.3947 21.3972 44.2372 21.3972H43.9826V21.1429C43.9826 20.9854 43.9201 20.8344 43.8087 20.7231C43.6974 20.6117 43.5464 20.5491 43.3889 20.5491C43.2314 20.5491 43.0804 20.6117 42.969 20.7231C42.8577 20.8344 42.7951 20.9854 42.7951 21.1429V21.4143C42.6034 21.4471 42.4251 21.5343 42.2815 21.6655C42.1379 21.7967 42.035 21.9663 41.9849 22.1543L40.579 21.0503C40.9386 20.6649 41.3736 20.3575 41.8569 20.1472C42.3403 19.937 42.8618 19.8284 43.3889 19.8281ZM23.2286 28.7344C23.3856 28.7345 23.5361 28.6724 23.6473 28.5616C23.9311 28.2795 24.4112 27.8206 24.8919 27.361C25.3824 26.8923 25.8736 26.4229 26.1629 26.1347C26.3142 25.9842 26.4734 25.837 26.6328 25.6894C27.0602 25.3183 27.4494 24.9053 27.7945 24.4567C28.0592 24.1042 28.2158 23.6826 28.2453 23.2428C28.2749 22.8031 28.1761 22.3643 27.961 21.9796C27.6893 21.4946 27.2901 21.0931 26.8066 20.8188C26.3231 20.5444 25.7738 20.4077 25.2181 20.4233C24.4625 20.4625 23.7456 20.77 23.1965 21.2905C22.6519 20.7689 21.9376 20.461 21.1844 20.4233C20.6288 20.408 20.0796 20.5449 19.5962 20.8192C19.1128 21.0935 18.7136 21.4948 18.4418 21.9796C18.2267 22.3643 18.1279 22.8032 18.1575 23.243C18.187 23.6827 18.3436 24.1045 18.6082 24.4569C18.9535 24.9054 19.3426 25.3183 19.7699 25.6894C19.9294 25.8369 20.0886 25.9842 20.2399 26.1347C20.5342 26.4275 21.0467 26.9041 21.5422 27.3648C22.0284 27.8168 22.5308 28.2841 22.81 28.5616C22.9211 28.6724 23.0717 28.7345 23.2286 28.7344ZM21.0772 25.2928C20.916 25.1325 20.7469 24.9756 20.5773 24.8182C20.2086 24.5001 19.8719 24.1467 19.5719 23.7632C19.438 23.5903 19.3587 23.3814 19.3441 23.1632C19.3295 22.9451 19.3802 22.7275 19.4899 22.5383C19.6521 22.257 19.8852 22.0232 20.1661 21.8602C20.4469 21.6972 20.7655 21.6107 21.0902 21.6094C21.1085 21.6094 21.127 21.6097 21.1453 21.6102C21.4562 21.6313 21.7578 21.7251 22.0257 21.8843C22.2935 22.0434 22.5202 22.2634 22.6874 22.5264C22.7407 22.612 22.815 22.6826 22.9033 22.7316C22.9915 22.7805 23.0907 22.8062 23.1916 22.8061C23.2925 22.8061 23.3917 22.7804 23.4799 22.7314C23.5681 22.6824 23.6424 22.6117 23.6957 22.5261C23.8674 22.2631 24.0978 22.0435 24.3688 21.8846C24.6397 21.7256 24.9438 21.6317 25.2572 21.6102C25.5909 21.6028 25.9206 21.6849 26.2118 21.8482C26.503 22.0114 26.7451 22.2497 26.9129 22.5383C27.0225 22.7274 27.0733 22.9449 27.0587 23.1631C27.044 23.3812 26.9647 23.59 26.8309 23.7629C26.5309 24.1466 26.1942 24.5 25.8254 24.8182C25.6558 24.9756 25.4868 25.1324 25.3256 25.2928C25.0398 25.5772 24.5553 26.0402 24.0714 26.5026C23.7743 26.7864 23.4777 27.0702 23.226 27.3132C22.9642 27.0656 22.6543 26.7774 22.3508 26.495C21.8625 26.041 21.3575 25.5717 21.0772 25.2928Z" fill="#955E0C"/>
</svg>
