<svg width="531" height="323" viewBox="0 0 531 323" fill="none" xmlns="http://www.w3.org/2000/svg">
<path d="M198.252 3.3554H197.481V0.660156H200.177V1.43022H198.252V3.3554Z" fill="#30A9FA"/>
<path d="M229.167 1.43022H224.354V0.660156H229.167V1.43022ZM219.503 1.43022H214.69V0.660156H219.503V1.43022ZM209.838 1.43022H205.025V0.660156H209.838V1.43022Z" fill="#30A9FA"/>
<path d="M236.676 3.3554H235.906V1.43022H233.98V0.660156H236.676V3.3554Z" fill="#30A9FA"/>
<path d="M236.682 32.3096H235.912V27.4967H236.682V32.3096ZM236.682 22.6453H235.912V17.8323H236.682V22.6453ZM236.682 12.9809H235.912V8.16797H236.682V12.9809Z" fill="#30A9FA"/>
<path d="M236.676 39.8573H233.98V39.0873H235.906V37.1621H236.676V39.8573Z" fill="#30A9FA"/>
<path d="M229.167 39.858H224.354V39.0879H229.167V39.858ZM219.503 39.858H214.69V39.0879H219.503V39.858ZM209.838 39.858H205.025V39.0879H209.838V39.858Z" fill="#30A9FA"/>
<path d="M200.177 39.8573H197.481V37.1621H198.252V39.0873H200.177V39.8573Z" fill="#30A9FA"/>
<path d="M198.252 32.3096H197.481V27.4967H198.252V32.3096ZM198.252 22.6453H197.481V17.8323H198.252V22.6453ZM198.252 12.9809H197.481V8.16797H198.252V12.9809Z" fill="#30A9FA"/>
<path d="M261.744 249.547H226.668V226.291H185.893V84.059H273.642V28.152H236.717V25.8418H275.952V86.3692H188.203V223.98H228.978V247.237H259.434V105.852H294.087V108.162H261.744V249.547Z" fill="#30A9FA"/>
<path d="M254.392 61.4961H215.966V99.9225H254.392V61.4961Z" fill="#CDE7F9"/>
<path d="M294.856 109.779C296.345 109.779 297.552 108.572 297.552 107.084C297.552 105.595 296.345 104.389 294.856 104.389C293.368 104.389 292.161 105.595 292.161 107.084C292.161 108.572 293.368 109.779 294.856 109.779Z" fill="#FDD047"/>
<path d="M389.577 258.403H333.362V108.24H304.1V105.929H335.672V256.093H387.267V86.6777H389.577V258.403Z" fill="#30A9FA"/>
<path d="M244.919 133.807H160.481V166.304H244.919V133.807Z" fill="#CDE7F9"/>
<path d="M400.743 110.01H362.316V148.436H400.743V110.01Z" fill="#CDE7F9"/>
<path d="M360.195 163.223H275.757V202.843H360.195V163.223Z" fill="#CDE7F9"/>
<path d="M450.798 47.7109H331.745V91.8359H450.798V47.7109Z" fill="#CDE7F9"/>
<path d="M304.868 109.779C306.357 109.779 307.563 108.572 307.563 107.084C307.563 105.595 306.357 104.389 304.868 104.389C303.38 104.389 302.173 105.595 302.173 107.084C302.173 108.572 303.38 109.779 304.868 109.779Z" fill="#13E0CF"/>
<path d="M386.269 125.221H378.452C377.682 125.221 377.066 125.837 377.066 126.607V133.268H370.906C370.136 133.268 369.52 133.884 369.52 134.654V140.045C369.52 140.815 370.136 141.431 370.906 141.431H386.23V125.221H386.269Z" fill="#FFCA00"/>
<path d="M385.037 118.906V141.353H391.775C392.545 141.353 393.161 140.737 393.161 139.967V118.906C393.161 118.136 392.545 117.52 391.775 117.52H386.385C385.653 117.558 385.037 118.174 385.037 118.906Z" fill="#F77E00"/>
<path d="M237.184 69.6588C235.182 68.5037 232.602 69.1967 231.408 71.1989L222.707 86.2922C221.552 88.2944 222.245 90.8742 224.247 92.0678C226.249 93.2229 228.829 92.5298 230.022 90.5276L238.724 75.4343C239.879 73.3936 239.186 70.8139 237.184 69.6588Z" fill="#FABC04"/>
<path d="M232.946 69.5435C234.948 68.3884 237.528 69.0815 238.721 71.0837L247.423 86.177C248.578 88.1792 247.885 90.7589 245.883 91.9525C243.881 93.1076 241.301 92.4146 240.108 90.4124L231.406 75.319C230.251 73.2784 230.944 70.6986 232.946 69.5435Z" fill="#3C8BD9"/>
<path d="M226.366 92.6454C228.726 92.6454 230.64 90.7319 230.64 88.3715C230.64 86.0111 228.726 84.0977 226.366 84.0977C224.005 84.0977 222.092 86.0111 222.092 88.3715C222.092 90.7319 224.005 92.6454 226.366 92.6454Z" fill="#34A852"/>
<path d="M401.902 149.438H362.243V147.127H399.591V110.164H401.902V149.438Z" fill="#30A9FA"/>
<path d="M206.262 200.725H167.836V239.151H206.262V200.725Z" fill="#CDE7F9"/>
<path d="M255.585 100.924H215.927V98.6137H253.275V61.6504H255.585V100.924Z" fill="#30A9FA"/>
<path d="M186.937 208.847L177.658 213.737C177.35 213.891 177.35 214.314 177.658 214.468L186.937 219.281C187.053 219.358 187.207 219.358 187.322 219.281L196.601 214.468C196.91 214.314 196.91 213.891 196.601 213.737L187.322 208.847C187.207 208.77 187.053 208.77 186.937 208.847Z" fill="#0069FF"/>
<path d="M178.081 216.78L175.078 218.359C174.77 218.513 174.77 218.937 175.078 219.091L186.937 225.29C187.052 225.367 187.206 225.367 187.322 225.29L199.181 219.091C199.489 218.937 199.489 218.513 199.181 218.359L196.178 216.78C196.062 216.703 195.908 216.703 195.793 216.78L187.36 221.247C187.245 221.324 187.091 221.324 186.975 221.247L178.427 216.78C178.312 216.703 178.196 216.703 178.081 216.78Z" fill="#0069FF"/>
<path d="M175.657 221.476L172.654 223.054C172.346 223.208 172.346 223.632 172.654 223.786L186.939 231.371C187.054 231.448 187.208 231.448 187.324 231.371L201.762 223.786C202.071 223.632 202.071 223.208 201.762 223.054L198.759 221.476C198.644 221.399 198.49 221.399 198.374 221.476L187.362 227.328C187.247 227.405 187.093 227.405 186.977 227.328L176.042 221.476C175.927 221.437 175.773 221.437 175.657 221.476Z" fill="#0069FF"/>
<path d="M207.456 240.307H167.798V237.997H205.146V200.648H207.456V240.307Z" fill="#30A9FA"/>
<path d="M210.573 142.469H172.224V145.241H210.573V142.469Z" fill="white"/>
<path d="M233.252 148.629H172.224V151.401H233.252V148.629Z" fill="white"/>
<path d="M233.252 154.752H172.224V157.524H233.252V154.752Z" fill="white"/>
<path d="M325.695 175.582H287.346V178.354H325.695V175.582Z" fill="white"/>
<path d="M348.374 181.74H287.346V184.512H348.374V181.74Z" fill="white"/>
<path d="M348.374 187.865H287.346V190.637H348.374V187.865Z" fill="white"/>
<path d="M360.165 82.1732C366.863 82.1732 372.293 76.743 372.293 70.0446C372.293 63.3462 366.863 57.916 360.165 57.916C353.466 57.916 348.036 63.3462 348.036 70.0446C348.036 76.743 353.466 82.1732 360.165 82.1732Z" fill="#0879F9"/>
<path d="M356.82 77.2451L351.121 71.8546C350.659 71.4311 350.659 70.6995 351.083 70.2375C351.506 69.7754 352.238 69.7755 352.7 70.199L356.743 74.0493L366.83 63.7304C367.254 63.2684 367.986 63.2684 368.448 63.6919C368.91 64.1154 368.91 64.847 368.486 65.3091L356.82 77.2451Z" fill="white"/>
<path d="M412.989 63.1523H376.411V65.7706H412.989V63.1523Z" fill="white"/>
<path d="M434.628 69.0039H376.411V71.6221H434.628V69.0039Z" fill="white"/>
<path d="M434.628 74.8574H376.411V77.4757H434.628V74.8574Z" fill="white"/>
<path d="M410.363 291.478L407.784 306.455L406.436 314.195L385.144 314.503L395.154 308.227L395.27 304.992L395.886 290.477L410.363 291.478Z" fill="#FFB1DF"/>
<path d="M409.475 317.661L407.165 309.498C407.165 309.498 397.077 317.006 388.645 311.924L375.785 318.123C374.322 318.893 374.861 321.088 376.517 321.088H406.896C408.667 321.088 409.976 319.355 409.475 317.661Z" fill="#0F0A46"/>
<path d="M465.422 291.478L465.384 305.57L465.345 314.195L444.053 314.503L454.064 308.227L453.794 306.686L450.945 290.477L465.422 291.478Z" fill="#FFB1DF"/>
<path d="M468.389 317.661L466.078 309.498C466.078 309.498 455.99 317.006 447.558 311.924L434.698 318.123C433.235 318.893 433.774 321.088 435.43 321.088H465.809C467.58 321.088 468.889 319.355 468.389 317.661Z" fill="#0F0A46"/>
<path d="M490.22 142.469L472.085 141.814L471.815 129.455L471.7 123.756L471.738 123.602C471.738 123.602 465.231 125.643 464.962 117.942C464.923 116.826 464.692 113.437 464.692 113.437C464.692 113.437 463.345 113.245 462.729 111.859C462.729 111.859 464.769 108.663 464.885 104.659C464.923 103.388 465.077 101.27 466.348 99.8457L487.833 106.892L490.22 142.469Z" fill="#FFB1DF"/>
<path d="M477.475 114.017L476.435 113.516C478.091 110.243 477.667 109.127 477.436 108.819C476.974 108.241 475.819 108.511 475.819 108.511L475.55 107.394C475.627 107.394 477.398 106.971 478.322 108.126C479.208 109.165 478.938 111.129 477.475 114.017Z" fill="#D35EAF"/>
<path d="M466.002 118.096C465.963 118.096 465.925 118.096 465.925 118.096L465.963 116.941C465.963 116.941 467.349 116.979 468.274 116.094L469.082 116.941C467.927 118.019 466.387 118.096 466.002 118.096Z" fill="#D35EAF"/>
<path d="M513.821 158.41L525.603 184.13C527.143 187.519 526.258 191.523 523.447 193.91L494.762 218.399L487.446 208.272L509.932 187.403L498.381 163.685L513.821 158.41Z" fill="#FFB1DF"/>
<path d="M452.216 166.534L445.439 172.04L434.812 180.703C432.232 182.782 428.536 182.667 426.11 180.395L399.119 155.945C394.268 152.711 393.459 148.63 393.459 148.63C393.036 147.821 393.883 147.012 393.883 147.012C393.883 145.78 395.115 145.395 395.115 145.395C395.539 144.163 396.732 144.163 396.732 144.163C397.156 142.931 398.349 142.931 398.349 142.931C398.349 142.931 397.117 140.89 395.115 138.08C393.074 135.23 395.115 133.613 395.115 133.613L401.199 141.314L408.091 151.44L430.808 163.992L439.933 156.253L444.207 152.634L452.216 166.534Z" fill="#FFB1DF"/>
<path d="M478.902 119.059C478.902 119.059 477.632 125.758 471.818 129.416L471.702 123.718C474.012 123.294 476.669 121.715 478.902 119.059Z" fill="#D35EAF"/>
<path d="M466.428 109.702C466.938 109.702 467.352 109.288 467.352 108.778C467.352 108.267 466.938 107.854 466.428 107.854C465.918 107.854 465.504 108.267 465.504 108.778C465.504 109.288 465.918 109.702 466.428 109.702Z" fill="#D35EAF"/>
<path d="M466.967 106.777C467.775 106.777 468.43 106.536 468.43 106.238C468.43 105.941 467.775 105.699 466.967 105.699C466.159 105.699 465.504 105.941 465.504 106.238C465.504 106.536 466.159 106.777 466.967 106.777Z" fill="#D35EAF"/>
<path d="M506.542 111.475C505.195 107.663 499.804 104.66 494.568 104.737C495.299 96.5745 493.066 87.9112 479.936 89.0278C479.936 89.0278 474.238 87.1026 467.307 91.5305C462.225 94.8033 462.571 102.427 467.962 103.39C468.77 103.582 469.618 103.659 470.349 103.505L470.696 106.008C470.888 107.471 472.621 108.126 473.776 107.163C475.2 105.969 477.164 105.353 479.513 107.278C480.36 107.972 480.206 109.743 479.705 111.475C479.397 112.091 479.089 112.823 478.82 113.67C478.666 113.94 478.858 125.183 487.984 127.878C504.001 132.537 508.737 117.674 506.542 111.475Z" fill="#46105B"/>
<path d="M452.217 166.534L445.441 172.04L439.819 156.369L444.093 152.75L452.217 166.534Z" fill="#D35EAF"/>
<path d="M451.799 215.588L459.5 175.852L457.883 163.685L450.567 169.345L441.249 154.329C441.249 154.329 460.308 135.269 466.777 133.652C473.245 132.035 495.962 133.652 495.962 133.652C495.962 133.652 502.046 134.884 506.089 142.162L516.215 161.221L505.28 164.879L502.778 207.964L451.799 215.588Z" fill="#E7364D"/>
<path d="M410.365 291.477L407.786 306.455C403.627 305.954 399.007 305.415 395.311 304.992L395.888 290.438L410.365 291.477Z" fill="#D35EAF"/>
<path d="M465.426 291.478L465.387 305.57C461.96 305.839 457.686 306.301 453.798 306.686L450.948 290.477L465.426 291.478Z" fill="#D35EAF"/>
<path d="M437.935 217.475L450.025 302.028H472.357L470.74 222.981L437.935 217.475Z" fill="#0F0A46"/>
<path d="M455.527 198.414L424.108 202.149C414.828 203.343 407.32 210.312 405.434 219.475L392.65 302.027H416.561L432.809 229.987L464.382 228.408C464.382 228.408 493.452 223.865 498.881 215.587C504.31 207.308 503.271 203.843 503.271 203.843L455.527 198.414Z" fill="#0F0A46"/>
<path d="M511.242 153.019L506.429 143.971C501.539 134.768 494.647 134.191 494.57 134.191L471.66 133.69L471.699 132.535L494.647 133.036C494.993 133.074 502.27 133.652 507.468 143.432L512.281 152.48L511.242 153.019Z" fill="white"/>
<path d="M463.312 158.088L451.826 167.701L452.568 168.587L464.053 158.974L463.312 158.088Z" fill="white"/>
<path d="M509.053 314.463H465.044V321.162H509.053V314.463Z" fill="#CDE7F9"/>
<path d="M491.187 231.912H483.217V315.426H491.187V231.912Z" fill="#CDE7F9"/>
<path d="M530.997 159.641C530.997 160.18 530.959 160.68 530.959 161.181C530.959 161.296 530.959 161.45 530.959 161.566C529.688 202.495 528.071 209.888 520.062 221.516C506.586 241.076 458.88 234.414 444.133 231.835C443.556 231.719 443.055 231.642 442.593 231.565C440.745 231.219 439.744 230.988 439.744 230.988C439.783 228.023 440.052 227.83 440.399 225.79C441.323 220.63 445.982 216.972 451.218 217.28C459.227 217.743 471.471 218.705 478.787 215.856C486.911 212.699 490.068 189.134 490.954 171.962C491.416 163.183 497.037 159.179 506.856 157.562L527.84 156.291C529.573 156.368 531.036 157.831 530.997 159.641Z" fill="#FF9B2C"/>
<path d="M531 161.567H530.923L530.268 161.721L530.114 160.989L530.153 161.759C529.652 161.798 510.785 163.646 503.123 164.647C499.696 165.109 498.965 169.498 498.811 172.04C498.079 185.747 496.924 201.187 492.766 211.005C489.146 219.553 480.791 224.289 468.586 224.674C460.076 224.943 452.607 223.095 451.413 222.749C447.062 223.442 444.983 228.832 444.136 231.835C443.558 231.72 443.058 231.643 442.596 231.566C443.52 228.255 445.946 221.94 451.375 221.208L451.529 221.17L451.683 221.208C451.76 221.208 459.73 223.403 468.586 223.095C480.291 222.71 487.953 218.398 491.38 210.351C495.461 200.763 496.578 185.477 497.309 171.886C497.463 168.844 498.426 163.646 502.931 163.03C506.973 162.491 514.097 161.721 519.372 161.182C522.298 160.874 524.955 160.604 526.918 160.412C527.881 160.296 528.689 160.219 529.228 160.181C529.536 160.142 529.767 160.142 529.999 160.104C530.576 160.104 530.846 160.219 530.923 160.72L531 161.066V161.567Z" fill="white"/>
<path d="M103.458 26.9944C103.458 26.9944 116.203 48.9799 95.9112 53.4848L75.0423 54.0623C75.0423 54.0623 57.6773 49.4419 63.4143 38.4684L71.5 25.3003C71.5 25.3003 72.1161 9.01332 84.5142 7.74271C84.5142 7.74271 108.117 6.89563 107.732 16.791C107.655 16.791 107.193 23.1826 103.458 26.9944Z" fill="#46105B"/>
<path d="M80.4725 36.5453L78.1623 64.5758L96.1819 64.7298L95.0653 48.5583L94.7573 44.0149V43.9764C107.348 44.4 99.3007 17.8711 99.3007 17.8711C95.3349 26.7654 87.2106 26.0723 87.2106 26.0723C80.6266 25.2638 78.7399 29.1911 78.7399 29.1911C71.1162 32.1944 80.4725 36.5453 80.4725 36.5453Z" fill="#FFB1DF"/>
<path d="M97.6418 36.8515C96.7948 37.7756 94.8311 39.2003 92.1744 37.4291C91.9433 37.2751 92.0203 36.89 92.3284 36.8515L97.4108 36.3125C97.6804 36.3125 97.8729 36.659 97.6418 36.8515Z" fill="white"/>
<path d="M94.0247 35.812L93.5241 34.3104L94.5252 34.0024L93.3701 29.5745L94.8717 29.1895L96.3734 35.042L94.0247 35.812Z" fill="#D35EAF"/>
<path d="M98.019 29.1705C98.372 29.0926 98.595 28.7433 98.5171 28.3902C98.4392 28.0372 98.0898 27.8142 97.7368 27.8921C97.3838 27.97 97.1608 28.3194 97.2387 28.6724C97.3166 29.0254 97.666 29.2484 98.019 29.1705Z" fill="#D35EAF"/>
<path d="M89.7006 31.2154C90.0536 31.1375 90.2766 30.7882 90.1987 30.4352C90.1208 30.0821 89.7715 29.8591 89.4185 29.9371C89.0655 30.015 88.8425 30.3643 88.9204 30.7173C88.9983 31.0703 89.3476 31.2933 89.7006 31.2154Z" fill="#D35EAF"/>
<path d="M97.8116 27.0006C98.9338 26.602 99.7338 25.9701 99.5985 25.5894C99.4632 25.2087 98.4439 25.2232 97.3218 25.6219C96.1997 26.0206 95.3997 26.6524 95.535 27.0331C95.6702 27.4138 96.6895 27.3993 97.8116 27.0006Z" fill="#D35EAF"/>
<path d="M88.8633 28.7607C90.0484 28.6441 90.9771 28.2236 90.9375 27.8215C90.8979 27.4194 89.9052 27.188 88.72 27.3045C87.5349 27.4211 86.6063 27.8416 86.6458 28.2437C86.6854 28.6458 87.6782 28.8772 88.8633 28.7607Z" fill="#D35EAF"/>
<path d="M98.066 32.116C96.4489 32.116 94.8702 31.1534 94.1772 29.5748C93.2531 27.4571 94.2542 24.9544 96.4104 24.0688C98.5281 23.1447 101.031 24.1458 101.916 26.302C102.84 28.4197 101.839 30.9224 99.6832 31.808C99.1441 32.0005 98.6051 32.116 98.066 32.116ZM95.6018 28.9587C96.1794 30.3063 97.758 30.9609 99.1056 30.3833C100.453 29.8058 101.108 28.2272 100.53 26.8795C99.9527 25.5319 98.3741 24.8773 97.0264 25.4549C95.6403 26.0325 95.0243 27.6111 95.6018 28.9587Z" fill="#46105B"/>
<path d="M89.7135 34.3107C89.1744 34.3107 88.6354 34.1952 88.1348 34.0027C87.0952 33.5792 86.2867 32.7706 85.8246 31.731C84.9006 29.6133 85.9016 27.1106 88.0578 26.225C90.1755 25.3009 92.6782 26.302 93.5638 28.4582C94.4494 30.6144 93.4868 33.0786 91.3306 33.9642C90.8301 34.1952 90.2525 34.3107 89.7135 34.3107ZM87.2493 31.1535C87.8268 32.5011 89.4054 33.1556 90.7531 32.5781C91.4076 32.3086 91.9082 31.7695 92.1777 31.115C92.4472 30.4604 92.4472 29.7288 92.1392 29.0743C91.5616 27.7267 89.983 27.0721 88.6354 27.6497C87.3263 28.2272 86.6717 29.8058 87.2493 31.1535Z" fill="#46105B"/>
<path d="M94.274 26.858L92.291 27.3398L92.6547 28.8364L94.6376 28.3546L94.274 26.858Z" fill="#46105B"/>
<path d="M78.8532 29.8817L77.3516 29.6122C77.5056 28.8421 77.8906 28.2646 78.5067 27.8795C79.6233 27.1865 81.0864 27.4945 81.5099 27.61L86.7079 27.8025L86.6694 29.3427L81.2789 29.1502L81.2019 29.1117C80.8939 29.0347 79.8928 28.8421 79.3537 29.1887C79.1612 29.2657 78.9302 29.4197 78.8532 29.8817Z" fill="#46105B"/>
<path d="M83.4736 39.625C83.4736 39.625 84.3977 44.9385 95.0632 48.5578L94.7551 44.0144C91.4438 43.7834 87.093 42.7823 83.4736 39.625Z" fill="#D35EAF"/>
<path d="M44.7012 291.476L41.6594 304.528L39.4262 314.193L18.1338 314.501L28.1447 308.225L28.4912 305.414L30.2239 290.475L44.7012 291.476Z" fill="#FFB1DF"/>
<path d="M42.9306 317.659L40.6204 309.496C40.6204 309.496 30.5325 317.004 22.1002 311.922L9.24006 318.121C7.77693 318.891 8.31598 321.086 9.97163 321.086H40.3508C42.122 321.086 43.4311 319.353 42.9306 317.659Z" fill="#0F0A46"/>
<path d="M122.941 314.501L101.688 314.193L99.9934 304.605L97.7217 291.476L112.199 290.475L112.738 302.834L112.931 308.225L122.941 314.501Z" fill="#FFB1DF"/>
<path d="M98.6077 317.659L100.918 309.496C100.918 309.496 111.006 317.004 119.438 311.922L132.298 318.121C133.761 318.891 133.222 321.086 131.567 321.086H101.187C99.4163 321.086 98.1072 319.353 98.6077 317.659Z" fill="#0F0A46"/>
<path d="M44.7012 291.476L41.6594 304.528L28.4912 305.414L30.2239 290.475L44.7012 291.476Z" fill="#D35EAF"/>
<path d="M112.738 302.834L99.9934 304.605L97.7217 291.476L112.199 290.475L112.738 302.834Z" fill="#D35EAF"/>
<path d="M190.853 0.994664L162.556 26.0137L187.906 54.6864L216.204 29.6674L190.853 0.994664Z" fill="#CDE7F9"/>
<path d="M181.929 47.8648C181.929 47.8648 180.273 49.6359 178.464 51.5226C176.731 53.3323 174.806 55.2189 173.959 55.8735L165.95 51.8691C165.95 51.5226 168.414 46.7867 169.454 44.7845C169.762 44.2069 169.955 43.8604 169.955 43.8604L173.959 30.0762C173.959 30.0762 176.616 32.7329 174.844 39.4325L181.929 47.8648Z" fill="#FFB1DF"/>
<path d="M178.425 51.5233C176.692 53.3329 174.767 55.2196 173.92 55.8741L165.911 51.8698C165.911 51.5233 168.375 46.7873 169.415 44.7852L178.425 51.5233Z" fill="#D35EAF"/>
<path d="M61.6451 137.924C61.6451 137.924 56.6012 145.702 54.6375 158.523L26.6455 302.411H48.0149L85.3633 166.686L91.9858 300.447H113.355L112.97 150.746C112.97 150.746 111.045 137.924 106.348 134.035L61.6451 137.924Z" fill="#0F0A46"/>
<path d="M33.7281 104.157C35.8457 94.4158 47.0502 77.6668 51.1316 67.81C53.7883 61.3414 62.9137 51.369 77.8145 51.1765C77.8145 51.1765 89.6735 69.1576 96.2961 53.7947L132.451 69.3116L169.029 45.4395L178.27 57.3755L142.346 87.4852C139.497 89.8724 135.685 90.7965 132.066 89.9494L112.391 85.9066C112.391 91.2971 111.543 95.4939 110.465 97.4576C109.041 99.9988 106.423 104.157 106.423 104.157C106.423 104.157 109.926 133.92 111.852 141.275C111.852 141.275 75.8893 145.587 56.1756 143.277L59.7949 119.366C59.7564 119.366 30.9558 116.94 33.7281 104.157Z" fill="#0879F9"/>
<path d="M108.812 117.056L105.771 104.042L105.925 103.811C106.002 103.696 113.471 93.6077 111.623 87.0236C110.314 82.2492 108.697 78.3218 106.502 73.5089L107.542 73.0469C109.736 77.8983 111.354 81.9027 112.701 86.7541C114.549 93.4152 108.119 102.772 106.964 104.35L109.89 116.825L108.812 117.056Z" fill="white"/>
<path d="M84.5537 104.195L51.5947 97.4955L62.9917 76.4727L63.9928 77.0117L53.3274 96.687L84.7847 103.04L84.5537 104.195Z" fill="white"/>
<path d="M41.8511 86.9834L40.8115 86.4444C40.8885 86.2518 49.7828 68.9253 53.2481 63.3423C60.9103 50.9442 77.6593 50.5977 77.8518 50.5977H78.1599L78.3524 50.8672C82.0487 56.2577 85.7835 59.1454 89.0948 59.1839H89.1333C92.2521 59.1839 94.0618 56.6812 94.1003 56.6812L95.0244 57.3358C94.9473 57.4513 92.8682 60.339 89.1333 60.339H89.0948C85.3985 60.3005 81.5097 57.4513 77.5823 51.7913C75.3106 51.9068 61.0258 53.0234 54.2492 63.9969C50.8224 69.5028 41.9281 86.8294 41.8511 86.9834Z" fill="white"/>
<path d="M83.5117 113.629L87.8241 113.86L88.5942 113.899C93.7536 117.402 100.53 116.132 100.53 116.132C101.493 116.132 116.856 114.746 116.856 114.746C116.856 112.397 112.351 111.665 112.351 111.665L101.57 111.28L100.8 108.2C105.035 108.97 105.805 105.89 105.805 105.89L102.224 103.118C99.7602 102.386 89.9803 103.156 89.7878 103.233L86.3995 103.156L84.0893 103.118L83.5117 113.629Z" fill="#FFB1DF"/>
<path d="M123.983 108.123H101.767C100.727 108.123 99.8799 108.97 99.8799 110.01C99.8799 111.049 100.727 111.896 101.767 111.896H123.983V108.123Z" fill="#82C5F8"/>
<path d="M186.205 76.705L173.807 110.203C173.422 111.204 172.46 111.897 171.381 111.897H122.713C120.903 111.897 119.671 110.087 120.287 108.393L132.686 74.8953C133.071 73.8942 134.033 73.2012 135.111 73.2012H183.78C185.589 73.2012 186.821 75.0108 186.205 76.705Z" fill="#C1E1FB"/>
<path d="M155.989 92.6345C156.719 91.0506 156.214 89.2619 154.862 88.6394C153.509 88.0169 151.822 88.7962 151.093 90.3801C150.364 91.964 150.869 93.7527 152.221 94.3752C153.573 94.9978 155.26 94.2184 155.989 92.6345Z" fill="white"/>
<path d="M120.825 108.278L119.747 107.893L131.722 75.7039C132.376 73.8942 134.147 72.6621 136.073 72.6621H139.692V73.8172H136.073C134.609 73.8172 133.3 74.7413 132.8 76.0889L120.825 108.278Z" fill="white"/>
<path d="M70.3458 120.752C67.8431 120.752 55.7145 120.482 42.2383 115.9L42.6233 114.822C57.4856 119.905 70.6538 119.635 70.8078 119.635L70.8463 120.79C70.8078 120.752 70.6538 120.752 70.3458 120.752Z" fill="white"/>
<path d="M83.5117 113.629L87.8626 113.899L86.438 103.195L84.1663 103.156L83.5117 113.629Z" fill="#D35EAF"/>
<path d="M194.249 14.327L203.798 24.877C204.183 25.3005 204.145 25.955 203.721 26.3401L186.394 42.011C185.971 42.396 185.316 42.3575 184.931 41.934L175.382 31.384C174.997 30.9605 175.036 30.3059 175.459 29.9209L192.786 14.25C193.056 13.9805 193.479 13.942 193.826 14.0575C193.98 14.096 194.134 14.2115 194.249 14.327Z" fill="#3EB0E4"/>
<path d="M194.249 14.3262L196.366 16.6749C196.982 21.9884 195.558 33.5009 185.662 33.8859C183.66 33.9629 177.153 32.3458 179.117 29.9971C179.309 29.766 179.617 29.689 179.887 29.8045C182.313 30.8826 195.134 35.5801 193.864 14.0566C193.979 14.0951 194.133 14.2107 194.249 14.3262Z" fill="white"/>
<path d="M86.9857 158.706L77.3623 193.637L78.4759 193.944L88.0993 159.013L86.9857 158.706Z" fill="white"/>
<path d="M137.998 297.443C137.998 297.443 137.998 295.48 129.143 282.928C129.143 282.928 119.055 271.107 124.214 266.448C124.214 266.448 134.302 258.593 141.695 297.443H137.998Z" fill="#2C9EF3"/>
<path d="M145.353 300.37C145.353 300.37 145.353 251.432 164.797 253.626C164.797 253.626 171.92 255.359 164.797 267.911C164.797 267.911 152.514 286.123 151.282 299.638L145.353 300.37Z" fill="#2C9EF3"/>
<path d="M145.852 298.906L144.543 299.599L141.694 301.101C142.541 294.748 141.617 285.045 139.23 279.462C135.764 271.376 123.636 252.625 132.838 248.428C143.311 243.654 146.391 257.592 146.969 271.992C147.469 285.238 145.852 298.906 145.852 298.906Z" fill="#2C9EF3"/>
<path d="M147.661 303.219L146.506 303.103C148.97 277.537 161.946 257.939 162.1 257.746L163.062 258.401C162.947 258.593 150.125 277.96 147.661 303.219Z" fill="white"/>
<path d="M143.232 306.877L142.077 306.723C147.506 268.989 135.147 255.321 135.031 255.205L135.878 254.396C135.994 254.55 139.19 257.977 141.692 266.217C144.003 273.725 146.12 286.893 143.232 306.877Z" fill="white"/>
<path d="M139.19 301.18C137.573 285.509 126.985 272.572 126.869 272.456L127.755 271.725C127.87 271.84 138.69 285.047 140.345 301.064L139.19 301.18Z" fill="white"/>
<path d="M145.85 298.907L144.541 299.6C144.156 292.592 145.812 279.693 146.967 272.031C147.467 285.238 145.85 298.907 145.85 298.907Z" fill="#0C61E7"/>
<path d="M132.453 294.824H156.556V312.574C156.556 317.31 152.706 321.122 148.009 321.122H141.039C136.303 321.122 132.492 317.272 132.492 312.574V294.824H132.453Z" fill="#E8344C"/>
<path d="M528.075 320.971H0.693359V322.126H528.075V320.971Z" fill="#0F0A46"/>
</svg>
