<svg width="131" height="143" viewBox="0 0 131 143" fill="none" xmlns="http://www.w3.org/2000/svg">
<g filter="url(#filter0_dddd_646_2825)">
<rect x="26" y="2" width="79" height="79" rx="39.5" fill="#71147E"/>
</g>
<path d="M64.1671 61.1001C63.3865 61.1001 62.6769 61.0291 61.8963 60.8872C59.4836 60.3905 57.2128 59.2551 55.7226 58.3326C55.2259 57.9778 54.5872 57.623 54.0196 57.623C53.5228 57.623 52.8842 57.552 52.4584 57.6939C52.2455 57.7649 51.9617 57.9068 51.6778 57.9778C50.6843 58.4036 48.6265 59.3261 47.7039 57.3391L45.2203 52.088C44.4397 50.3849 45.9299 49.5333 46.6395 49.1076L46.7814 49.0366C47.4201 48.6818 48.1297 48.3979 48.8393 48.1851C49.1232 48.1141 49.478 47.9722 49.7618 47.9012L50.8263 47.4754C51.394 47.2625 51.8907 47.0497 52.4584 46.8368C54.3034 46.1272 56.2194 46.34 57.5676 46.6948C58.3482 46.9077 59.0578 47.1206 59.7675 47.4045C60.1932 47.5464 60.69 47.7593 61.1157 47.9012C61.7544 48.1141 62.3221 48.327 62.9607 48.5399C64.5219 49.1076 65.9411 49.6043 67.5023 49.8172C67.7862 49.8881 68.07 49.8881 68.3539 49.8881H69.915C70.5537 49.8172 71.2633 49.7462 71.9019 49.6752C72.6116 49.6043 73.2502 49.4624 73.9598 49.4624C74.1018 49.4624 74.2437 49.4624 74.3856 49.3914C75.2372 49.3204 76.0177 49.3914 76.6564 49.5333C77.2241 49.6752 77.7208 50.101 77.9337 50.6687C78.1466 51.3074 78.0756 51.946 77.7208 52.5137C77.1531 53.2943 76.3016 53.5072 75.592 53.7201C75.45 53.791 75.3081 53.791 75.1662 53.862C73.3921 54.4297 71.4052 54.7845 68.8506 54.9264C67.9281 54.9974 67.2185 54.9974 66.5088 54.9974H65.5863C65.1606 54.9974 64.7348 54.7135 64.6638 54.2168C64.6638 53.791 64.9477 53.3653 65.4444 53.3653H66.6508C67.2894 53.3653 67.9281 53.3653 68.7087 53.2943C71.1214 53.0814 72.9664 52.7976 74.5985 52.3008C74.7404 52.2299 74.8823 52.2299 75.0243 52.1589C75.521 52.017 76.0177 51.8751 76.2306 51.5912C76.3016 51.5203 76.3016 51.3783 76.2306 51.3074C76.2306 51.2364 76.1597 51.1654 76.0887 51.1654C75.592 51.0235 74.9533 51.0235 74.3146 51.0945H73.9598C73.2502 51.1654 72.5406 51.2364 71.9019 51.3074C71.1923 51.3783 70.5537 51.4493 69.8441 51.5203C69.2764 51.5912 68.6377 51.5912 67.999 51.5203C67.6442 51.5203 67.3604 51.4493 67.0056 51.4493C65.3025 51.2364 63.7413 50.6687 62.1802 50.101C61.6125 49.8881 60.9738 49.6752 60.4061 49.4624C59.9094 49.3204 59.4836 49.1785 58.9869 48.9656C58.2773 48.6818 57.6386 48.4689 56.929 48.327C55.8646 48.0431 54.3034 47.8302 52.8842 48.3979C52.3165 48.6108 51.8197 48.8237 51.252 49.0366L50.1876 49.4624C49.9038 49.6043 49.549 49.6752 49.1941 49.8172C48.5555 50.0301 47.9168 50.2429 47.4201 50.5268L47.2782 50.5978C46.3557 51.1654 46.4266 51.2364 46.4976 51.4493L48.9813 56.7005C49.1232 57.0553 49.2651 57.1972 50.7553 56.5586C51.1101 56.4166 51.394 56.2747 51.7488 56.2037C52.4584 55.9909 53.168 55.9909 53.8776 56.0618C54.8711 56.1328 55.7226 56.6295 56.3613 57.0553C57.7096 57.9068 59.7675 58.9713 61.9673 59.397C64.0961 59.8228 66.154 59.5389 68.7796 58.6164C68.8506 58.6164 75.0243 56.3457 78.0756 54.2878C78.2176 54.2168 80.8431 52.5137 84.6041 51.2364H84.5332C84.0364 51.2364 83.8235 50.9526 83.6816 50.8106L83.5397 50.5978C83.1139 50.4558 82.6172 50.4558 82.1205 50.3849C81.9076 50.4558 81.4818 50.4558 81.198 50.172C80.9851 50.0301 80.9141 49.8172 80.8431 49.6752C80.7722 49.6043 80.7012 49.6043 80.4174 49.6043C80.2754 49.6043 80.2045 49.6752 80.0626 49.6752C79.8497 49.7462 79.5658 49.8172 79.3529 49.8881C78.9272 50.0301 78.4304 49.8172 78.2885 49.3204C78.1466 48.8947 78.4304 48.3979 78.8562 48.327C79.1401 48.256 79.4239 48.185 79.6368 48.1141C79.8497 48.0431 79.9916 48.0431 80.2045 47.9722C81.2689 47.8302 81.9076 48.256 82.1914 48.6818C82.8301 48.6818 83.4687 48.7527 84.0364 48.9656C84.1783 49.0366 84.6751 49.1785 84.9589 49.6043C85.2428 49.6752 85.5976 49.7462 85.9524 49.8172C86.4491 50.0301 86.733 50.3139 86.8749 50.7397C87.0168 51.1654 86.9459 51.5203 86.662 51.946C86.5201 52.088 86.3782 52.3718 86.0234 52.4428C81.9785 53.5782 78.9272 55.5651 78.9272 55.5651C75.7339 57.6939 69.5602 59.9647 69.2764 60.0357C67.6442 60.7453 65.8702 61.1001 64.1671 61.1001Z" fill="white"/>
<path d="M80.6314 29.025C80.4895 28.5282 79.9928 28.1734 79.4251 28.2444L78.7154 28.3863L75.5222 29.025L73.7481 29.4507C72.2579 29.7346 70.6258 30.0894 69.1356 30.4442C67.2906 30.87 66.0842 32.4311 66.2262 34.2762C66.2971 35.9792 67.4325 37.3275 69.0646 37.7533C69.2066 37.8242 69.3485 37.8242 69.4904 37.8242C70.6258 37.9662 71.6902 37.6114 72.6837 36.7598C74.3868 35.2696 76.1608 33.7085 77.8639 32.2183L80.3476 30.0184L80.4185 29.9475C80.6314 29.7346 80.7024 29.3798 80.6314 29.025ZM68.0002 34.1342C67.9292 33.2117 68.5679 32.4311 69.4904 32.2183C71.0516 31.8634 72.6127 31.5086 74.1029 31.2248L75.877 30.87C76.1608 30.799 76.3737 30.7281 76.6575 30.7281L76.5156 30.87C74.8125 32.3602 73.0385 33.9213 71.3354 35.4115C70.7677 35.9083 70.271 36.1212 69.6323 36.0502C68.7808 35.8373 68.0712 35.1277 68.0002 34.1342Z" fill="white"/>
<path d="M81.6225 31.1541L81.4806 31.296L80.1323 32.5024C80.2032 32.9991 80.2742 33.5668 80.2742 34.1345C80.2742 39.8824 75.5907 44.5659 69.8428 44.5659C64.0949 44.5659 59.4114 39.8824 59.4114 34.1345C59.4114 28.3866 64.0949 23.7031 69.8428 23.7031C72.7523 23.7031 75.4488 24.9094 77.3648 26.8964C77.6486 26.8254 78.0034 26.7544 78.2873 26.6835L79.1388 26.5416H79.3517C77.1519 23.774 73.7457 22 69.9138 22C63.2434 22 57.7793 27.4641 57.7793 34.1345C57.7793 40.8049 63.2434 46.269 69.9138 46.269C76.5842 46.269 82.0483 40.8049 82.0483 34.1345C81.9773 33.0701 81.8354 32.1475 81.6225 31.1541Z" fill="white"/>
<defs>
<filter id="filter0_dddd_646_2825" x="0.518518" y="0.592593" width="129.963" height="142.096" filterUnits="userSpaceOnUse" color-interpolation-filters="sRGB">
<feFlood flood-opacity="0" result="BackgroundImageFix"/>
<feColorMatrix in="SourceAlpha" type="matrix" values="0 0 0 0 0 0 0 0 0 0 0 0 0 0 0 0 0 0 127 0" result="hardAlpha"/>
<feOffset dy="1.74074"/>
<feGaussianBlur stdDeviation="1.57407"/>
<feColorMatrix type="matrix" values="0 0 0 0 0.443137 0 0 0 0 0.0784314 0 0 0 0 0.494118 0 0 0 0.0192593 0"/>
<feBlend mode="normal" in2="BackgroundImageFix" result="effect1_dropShadow_646_2825"/>
<feColorMatrix in="SourceAlpha" type="matrix" values="0 0 0 0 0 0 0 0 0 0 0 0 0 0 0 0 0 0 127 0" result="hardAlpha"/>
<feOffset dy="7.65926"/>
<feGaussianBlur stdDeviation="3.25926"/>
<feColorMatrix type="matrix" values="0 0 0 0 0.443137 0 0 0 0 0.0784314 0 0 0 0 0.494118 0 0 0 0.0314074 0"/>
<feBlend mode="normal" in2="effect1_dropShadow_646_2825" result="effect2_dropShadow_646_2825"/>
<feColorMatrix in="SourceAlpha" type="matrix" values="0 0 0 0 0 0 0 0 0 0 0 0 0 0 0 0 0 0 127 0" result="hardAlpha"/>
<feOffset dy="18.8"/>
<feGaussianBlur stdDeviation="6.5"/>
<feColorMatrix type="matrix" values="0 0 0 0 0.443137 0 0 0 0 0.0784314 0 0 0 0 0.494118 0 0 0 0.04 0"/>
<feBlend mode="normal" in2="effect2_dropShadow_646_2825" result="effect3_dropShadow_646_2825"/>
<feColorMatrix in="SourceAlpha" type="matrix" values="0 0 0 0 0 0 0 0 0 0 0 0 0 0 0 0 0 0 127 0" result="hardAlpha"/>
<feOffset dy="36.2074"/>
<feGaussianBlur stdDeviation="12.7407"/>
<feColorMatrix type="matrix" values="0 0 0 0 0.443137 0 0 0 0 0.0784314 0 0 0 0 0.494118 0 0 0 0.0485926 0"/>
<feBlend mode="normal" in2="effect3_dropShadow_646_2825" result="effect4_dropShadow_646_2825"/>
<feBlend mode="normal" in="SourceGraphic" in2="effect4_dropShadow_646_2825" result="shape"/>
</filter>
</defs>
</svg>
