<svg width="23" height="22" viewBox="0 0 23 22" fill="none" xmlns="http://www.w3.org/2000/svg">
<path d="M22 1L15 3.8L8 1L1 3.8V20.6L8 17.8L15 20.6L22 17.8V1Z" stroke="#730C7F" stroke-width="1.5" stroke-miterlimit="10" stroke-linecap="round" stroke-linejoin="round"/>
<path d="M5.1998 16.4C5.973 16.4 6.5998 15.7732 6.5998 15C6.5998 14.2268 5.973 13.6 5.1998 13.6C4.42661 13.6 3.7998 14.2268 3.7998 15C3.7998 15.7732 4.42661 16.4 5.1998 16.4Z" stroke="#730C7F" stroke-width="1.5" stroke-miterlimit="10" stroke-linecap="round" stroke-linejoin="round"/>
<path d="M17.7999 7.99995C18.5731 7.99995 19.1999 7.37315 19.1999 6.59995C19.1999 5.82675 18.5731 5.19995 17.7999 5.19995C17.0267 5.19995 16.3999 5.82675 16.3999 6.59995C16.3999 7.37315 17.0267 7.99995 17.7999 7.99995Z" stroke="#730C7F" stroke-width="1.5" stroke-miterlimit="10" stroke-linecap="round" stroke-linejoin="round"/>
<path d="M6.6001 15H15.7001C16.2571 15 16.7912 14.7787 17.185 14.3849C17.5788 13.9911 17.8001 13.4569 17.8001 12.9C17.8001 12.343 17.5788 11.8089 17.185 11.4151C16.7912 11.0212 16.2571 10.8 15.7001 10.8H11.5001C10.9431 10.8 10.409 10.5787 10.0152 10.1849C9.62135 9.79107 9.4001 9.25693 9.4001 8.69998C9.4001 8.14302 9.62135 7.60888 10.0152 7.21505C10.409 6.82122 10.9431 6.59998 11.5001 6.59998H16.4001" stroke="#730C7F" stroke-width="1.5" stroke-miterlimit="10" stroke-linecap="round" stroke-linejoin="round"/>
</svg>
