<svg width="367" height="380" viewBox="0 0 367 380" fill="none" xmlns="http://www.w3.org/2000/svg">
<path d="M310.208 37.7954C310.208 58.6699 293.287 75.595 272.413 75.595C251.538 75.595 234.613 58.6699 234.613 37.7954C234.613 16.9209 251.538 0 272.413 0C293.287 0 310.208 16.9209 310.208 37.7954Z" fill="#FFD7D7"/>
<path d="M185.475 331.118C185.475 357.59 206.933 379.049 233.406 379.049C259.883 379.049 281.342 357.59 281.342 331.118C281.342 304.64 259.883 283.182 233.406 283.182C206.933 283.182 185.475 304.64 185.475 331.118Z" fill="#FFF8D9"/>
<path d="M216.588 208.547V339.354C216.588 350.468 207.574 359.481 196.453 359.481H21.1348C10.0134 359.481 1 350.468 1 339.354V208.547C1 197.433 10.0134 188.412 21.1348 188.412H168.282L184.844 172.203C186.289 170.789 188.723 171.812 188.723 173.834V188.412H196.453C207.574 188.412 216.588 197.433 216.588 208.547Z" fill="white" stroke="#141831" stroke-miterlimit="10" stroke-linecap="round" stroke-linejoin="round"/>
<path d="M119.757 211.571C119.757 224.275 109.462 234.57 96.7623 234.57C84.0623 234.57 73.7676 224.275 73.7676 211.571C73.7676 198.871 84.0623 188.576 96.7623 188.576C109.462 188.576 119.757 198.871 119.757 211.571Z" fill="#141831"/>
<path d="M123.506 185.946C123.506 195.547 115.726 203.327 106.128 203.327C96.53 203.327 88.75 195.547 88.75 185.946C88.75 176.348 96.53 168.568 106.128 168.568C115.726 168.568 123.506 176.348 123.506 185.946Z" fill="#141831"/>
<path d="M152.257 181.184C152.257 193.059 142.634 202.682 130.763 202.682C118.892 202.682 109.269 193.059 109.269 181.184C109.269 169.312 118.892 159.689 130.763 159.689C142.634 159.689 152.257 169.312 152.257 181.184Z" fill="#141831"/>
<path d="M244.986 321.033C237.02 329.013 225.196 333.113 212.805 330.154L168.046 320.923L167.534 323.903L161.463 359.431H19.7305L31.1952 304.915C32.267 276.675 60.1543 249.265 101.657 244.901C114.636 243.532 128.936 244.417 144.162 248.241C147.854 249.168 151.609 250.274 155.412 251.553C165.943 255.108 202.606 275.133 202.606 275.133L196.306 239.75C195.587 235.746 197.98 231.832 201.873 230.657L228.059 222.698C232.429 221.37 237.014 223.936 238.168 228.354L254.3 290.172C256.7 302.156 252.62 313.378 244.986 321.033Z" fill="#FF8E2D"/>
<path d="M244.986 321.031C237.02 329.011 225.196 333.112 212.805 330.152L168.046 320.921L167.534 323.901C167.734 318.909 169.608 309.262 169.608 309.262C169.608 309.262 175.175 312.644 177.138 313.681C179.683 315.029 182.449 315.949 185.208 316.737C204.556 322.276 225.051 323.721 244.986 321.031ZM137.399 351.118C100.671 351.118 68.4992 331.617 50.6666 302.402H31.3694C31.2906 303.238 31.2271 304.075 31.1952 304.913L19.7305 359.429H161.463L163.461 347.743C155.143 349.942 146.409 351.118 137.399 351.118Z" fill="#F27619"/>
<path d="M219.47 206.81C218.785 200.396 217.429 194.54 214.789 195.044C211.3 195.711 212.355 205.142 212.355 205.142C211.428 198.141 209.841 191.747 207.206 192.281C203.724 192.987 205.143 205.268 205.143 205.268C200.832 196.751 197.794 199.358 198.252 202.578C198.636 205.364 199.584 208.608 204.272 216.184C204.272 216.184 195.493 209.408 193.52 213.609C191.416 218.089 205.151 229.596 205.151 229.596L226.849 223.151C226.849 223.151 226.969 196.473 221.714 197.478C218.488 198.094 219.47 206.81 219.47 206.81Z" fill="#FFAAAA" stroke="#141831" stroke-miterlimit="10" stroke-linecap="round" stroke-linejoin="round"/>
<path d="M204.272 216.184C204.272 216.184 208.12 217.53 209.285 222.099M161.46 359.429L168.047 320.922L212.811 330.148C237.092 335.949 259.202 314.644 254.307 290.169L238.17 228.352C237.02 223.932 232.434 221.365 228.064 222.695L201.878 230.652C197.982 231.831 195.588 235.741 196.307 239.745L202.611 275.131C202.611 275.131 165.943 255.105 155.414 251.553C85.8792 228.091 32.6952 265.701 31.2 304.911L19.7334 359.429H161.46Z" stroke="#141831" stroke-miterlimit="10" stroke-linecap="round" stroke-linejoin="round"/>
<path d="M197.061 243.981L239.248 232.483L238.169 228.349C237.022 223.935 232.433 221.366 228.066 222.694L201.876 230.65C197.985 231.831 195.59 235.742 196.307 239.747L197.061 243.981Z" fill="white" stroke="#141831" stroke-miterlimit="10" stroke-linecap="round" stroke-linejoin="round"/>
<path d="M32.1514 297.218C32.396 313.578 32.4681 343.118 32.4776 359.429H79.2657C80.1137 341.301 82.0131 303.805 82.6624 285.701" fill="#FF8E2D"/>
<path d="M32.1514 297.218C32.396 313.578 32.4681 343.118 32.4776 359.429H79.2657C80.1137 341.301 82.0131 303.805 82.6624 285.701" stroke="#141831" stroke-miterlimit="10" stroke-linecap="round" stroke-linejoin="round"/>
<path d="M168.048 320.925L171.164 301.65" stroke="#141831" stroke-miterlimit="10" stroke-linecap="round" stroke-linejoin="round"/>
<path d="M202.614 275.127L209.992 280.181" stroke="#141831" stroke-miterlimit="10" stroke-linecap="round" stroke-linejoin="round"/>
<path d="M148.001 215.341C150.087 218.068 153.982 218.596 156.708 216.51C159.435 214.424 159.954 210.518 157.868 207.792C155.782 205.066 151.885 204.557 149.159 206.643" fill="#FFAAAA"/>
<path d="M148.001 215.341C150.087 218.068 153.982 218.596 156.708 216.51C159.435 214.424 159.954 210.518 157.868 207.792C155.782 205.066 151.885 204.557 149.159 206.643" stroke="#141831" stroke-miterlimit="10" stroke-linecap="round" stroke-linejoin="round"/>
<path d="M99.3426 190.519C97.6228 193.055 96.3437 195.754 95.4886 198.533C91.6961 210.83 96.1388 224.668 107.348 232.27C121.084 241.587 139.783 238.001 149.099 224.265C153.558 217.691 155.057 209.967 153.894 202.681C152.654 194.767 148.256 187.371 141.094 182.514C140.733 182.269 140.358 182.027 139.994 181.804C138.386 180.812 136.716 179.986 135.013 179.334C122.258 174.409 107.344 178.722 99.3426 190.519Z" fill="#FFAAAA"/>
<path d="M99.3358 190.518C97.6213 193.046 96.3449 195.759 95.4917 198.533C91.6977 210.836 96.1376 224.667 107.35 232.272C117.269 238.999 129.784 238.992 139.473 233.307C130.962 236.072 121.314 235.009 113.334 229.597C102.122 221.992 97.6821 208.161 101.476 195.858C102.329 193.084 103.609 190.387 105.33 187.849C107.928 184.019 111.257 180.98 115.01 178.791C108.83 180.757 103.256 184.738 99.3358 190.518Z" fill="#F99191"/>
<path d="M99.3426 190.519C97.6228 193.055 96.3437 195.754 95.4886 198.533C91.6961 210.83 96.1388 224.668 107.348 232.27C121.084 241.586 139.783 238.001 149.099 224.265C153.558 217.691 155.057 209.967 153.894 202.681C152.654 194.767 148.256 187.371 141.094 182.514C140.733 182.269 140.358 182.027 139.994 181.804C138.386 180.812 136.716 179.986 135.013 179.334C122.258 174.409 107.344 178.722 99.3426 190.519Z" stroke="#141831" stroke-miterlimit="10" stroke-linecap="round" stroke-linejoin="round"/>
<path d="M99.3423 190.519C97.6225 193.055 96.3434 195.754 95.4883 198.533C109.002 206.877 126.786 203.248 135.92 190.124C135.997 190.028 136.071 189.919 136.139 189.818C137.859 187.283 139.138 184.584 139.993 181.804C138.386 180.812 136.716 179.986 135.013 179.334C122.257 174.409 107.343 178.722 99.3423 190.519Z" fill="#141831"/>
<path d="M135.013 179.334C134.284 182.958 134.617 186.714 135.921 190.124C137.293 193.739 139.749 196.986 143.192 199.321C146.475 201.548 150.197 202.638 153.894 202.682C152.655 194.767 148.256 187.371 141.094 182.514C140.733 182.269 140.358 182.027 139.994 181.805C138.387 180.813 136.716 179.986 135.013 179.334Z" fill="#141831"/>
<path d="M97.2654 208.963C94.7522 211.302 90.8237 211.17 88.4853 208.657C86.1469 206.144 86.289 202.206 88.8021 199.868C91.3148 197.53 95.2425 197.68 97.5808 200.193" fill="#F99191"/>
<path d="M97.2654 208.963C94.7522 211.302 90.8237 211.17 88.4853 208.657C86.1469 206.144 86.289 202.206 88.8021 199.868C91.3148 197.53 95.2425 197.68 97.5808 200.193" stroke="#141831" stroke-miterlimit="10" stroke-linecap="round" stroke-linejoin="round"/>
<path d="M140.682 208.804C140.682 208.804 137.137 206.667 134.118 208.678M120.079 210.216C119.91 215.488 122.992 220.168 126.975 220.685C130.947 221.201 134.3 217.356 134.469 212.085C134.637 206.813 131.556 202.133 127.584 201.617C123.601 201.1 120.247 204.944 120.079 210.216ZM154.055 213.508C152.872 218.647 148.697 222.386 144.714 221.868C140.742 221.353 138.482 216.779 139.665 211.639C140.849 206.499 145.024 202.761 148.996 203.277C152.978 203.794 155.239 208.367 154.055 213.508Z" stroke="#141831" stroke-miterlimit="10" stroke-linecap="round" stroke-linejoin="round"/>
<path d="M120.55 207.228L97.0361 199.426" stroke="#141831" stroke-miterlimit="10" stroke-linecap="round" stroke-linejoin="round"/>
<path d="M131.256 211.057C131.256 211.154 131.248 211.243 131.24 211.34C131.054 212.77 129.73 213.779 128.292 213.594L127.921 213.545L125.667 213.254C124.23 213.068 123.212 211.752 123.398 210.322C123.519 209.394 124.101 208.651 124.892 208.279C125.328 208.069 125.829 207.988 126.338 208.053L128.195 208.295L128.971 208.392C129.383 208.449 129.762 208.594 130.085 208.82C130.328 208.974 130.538 209.168 130.715 209.394C131.071 209.854 131.273 210.444 131.256 211.057ZM150.802 212.802C150.794 212.899 150.794 212.988 150.777 213.085C150.608 214.385 149.518 215.338 148.249 215.362C148.112 215.362 147.975 215.354 147.838 215.338L145.205 214.999C143.767 214.813 142.749 213.497 142.935 212.067C143.072 211.057 143.759 210.258 144.647 209.935C145.027 209.798 145.447 209.741 145.883 209.798L147.006 209.943L148.508 210.137C148.944 210.193 149.348 210.355 149.679 210.589C149.897 210.743 150.091 210.936 150.252 211.138C150.616 211.599 150.818 212.188 150.802 212.802Z" fill="white" stroke="#141831" stroke-miterlimit="10" stroke-linecap="round" stroke-linejoin="round"/>
<path d="M131.205 226.395C131.44 226.847 131.686 227.22 131.94 227.522C133.263 229.1 134.778 228.863 136.071 228.081C136.268 227.968 136.458 227.837 136.644 227.693C137.366 227.153 138.018 226.375 138.484 225.742C138.809 225.301 138.498 224.682 137.95 224.667C135.529 224.601 133.273 224.053 131.189 223.003C130.654 222.733 130.052 223.216 130.214 223.792C130.514 224.858 130.846 225.712 131.205 226.395Z" fill="#141831"/>
<path d="M131.205 226.394C131.44 226.847 131.686 227.22 131.94 227.521C133.263 229.1 134.778 228.863 136.071 228.081C135.837 227.629 135.591 227.256 135.337 226.954C134.011 225.369 132.502 225.604 131.205 226.394Z" fill="#FE4B5F"/>
<path d="M144.163 248.244C139.62 256.366 130.779 262.023 121.449 262.023C115.281 262.023 109.632 259.457 105.937 254.986C103.586 252.14 102.127 248.646 101.66 244.902C104.011 244.657 106.404 244.485 108.834 244.384C117.625 244.039 126.955 244.707 136.701 246.591C139.16 247.065 141.647 247.611 144.163 248.244Z" fill="white" stroke="#141831" stroke-miterlimit="10" stroke-linecap="round" stroke-linejoin="round"/>
<path d="M136.702 246.591C133.172 251.493 127.386 254.835 121.449 254.835C114.663 254.835 109.732 250.458 108.834 244.384C117.625 244.039 126.955 244.707 136.702 246.591Z" fill="#FFAAAA" stroke="#141831" stroke-miterlimit="10" stroke-linecap="round" stroke-linejoin="round"/>
<path d="M131.256 211.059C131.256 211.156 131.248 211.245 131.24 211.342C131.054 212.771 129.729 213.781 128.292 213.595L127.92 213.547C127.533 212.828 127.314 212.012 127.314 211.148C127.314 210.09 127.637 209.113 128.195 208.297L128.97 208.394C129.382 208.45 129.762 208.596 130.085 208.822C130.327 208.975 130.537 209.169 130.715 209.395C131.07 209.856 131.272 210.445 131.256 211.059ZM150.801 212.804C150.793 212.9 150.793 212.989 150.777 213.086C150.607 214.387 149.517 215.34 148.249 215.364C147.288 214.443 146.69 213.143 146.69 211.705C146.69 211.083 146.803 210.494 147.005 209.945L148.507 210.138C148.944 210.195 149.347 210.356 149.678 210.591C149.896 210.744 150.09 210.938 150.252 211.14C150.615 211.6 150.817 212.19 150.801 212.804Z" fill="#141831"/>
<path d="M286.378 209.102L288.689 209.732" stroke="#141831" stroke-miterlimit="10" stroke-linecap="round" stroke-linejoin="round"/>
<path d="M357.297 63.2385V196.736C357.297 199.248 356.369 201.55 354.826 203.302L354.818 203.31C353.001 205.394 350.319 206.719 347.315 206.719H241.746C236.23 206.719 231.763 202.252 231.763 196.736V97.9596H223.428C221.531 97.9596 220.392 95.8516 221.433 94.2606L231.763 78.5113V63.2385C231.763 57.7222 236.23 53.2559 241.746 53.2559H347.315C352.831 53.2559 357.297 57.7222 357.297 63.2385Z" fill="white" stroke="#141831" stroke-miterlimit="10" stroke-linecap="round" stroke-linejoin="round"/>
<path d="M294.93 126.783L291.102 158.371L279.294 171.091L260.314 191.541C252.819 199.634 239.549 197.8 234.518 187.971L213.349 148.428C212.751 147.298 212.719 146.005 213.179 144.883L210.409 141.894C209.537 141.143 209.577 139.77 210.506 139.076L222.403 130.127C223.429 129.36 224.907 129.868 225.238 131.112L226.158 134.609C227.047 134.399 227.984 134.496 228.808 134.884C229.51 135.199 230.14 135.716 230.584 136.427L247.941 163.968L262.98 144.608C269.828 135.789 279.641 129.755 290.609 127.623L294.93 126.783Z" fill="#FE4B5F"/>
<path d="M279.294 171.092L260.314 191.542C252.819 199.635 239.549 197.801 234.518 187.972L213.349 148.43C212.751 147.299 212.719 146.007 213.179 144.884L210.409 141.896C209.537 141.144 209.577 139.771 210.506 139.077L222.403 130.128C223.429 129.361 224.907 129.87 225.238 131.113L226.158 134.61C227.047 134.4 227.984 134.497 228.808 134.885C228.444 135.531 228 136.137 227.491 136.678C225.472 138.835 222.791 140.393 221.256 142.913C218.793 146.968 220.02 152.225 221.846 156.603C225.076 164.365 230.116 171.545 237.086 176.245C244.056 180.946 253.078 182.916 261.106 180.421C267.01 178.587 271.953 174.565 277.509 171.843C278.075 171.569 278.672 171.31 279.294 171.092Z" fill="#E21B39"/>
<path d="M291.101 158.368L260.314 191.543C252.816 199.634 239.551 197.801 234.522 187.974L213.35 148.429C212.749 147.3 212.717 146.003 213.184 144.887L210.413 141.892C209.539 141.141 209.58 139.767 210.504 139.073L222.4 130.128C223.429 129.362 224.909 129.871 225.241 131.109L226.156 134.614C227.808 134.223 229.618 134.884 230.588 136.424L247.944 163.971L262.977 144.608C269.825 135.786 279.643 129.752 290.606 127.625L294.928 126.787" stroke="#141831" stroke-miterlimit="10" stroke-linecap="round" stroke-linejoin="round"/>
<path d="M226.155 134.613L220.122 139.077" stroke="#141831" stroke-miterlimit="10" stroke-linecap="round" stroke-linejoin="round"/>
<path d="M354.826 203.301L354.818 203.309C353.001 205.393 350.319 206.718 347.315 206.718H267.074C266.081 205.296 265.475 203.414 265.314 200.951C265.063 197.042 265.015 194.256 265.104 190.88C265.112 190.597 265.128 190.306 265.136 190.015C265.136 189.886 265.144 189.749 265.144 189.62C265.176 188.723 265.217 187.786 265.265 186.769C265.281 186.486 265.298 186.203 265.306 185.912C265.314 185.856 265.314 185.799 265.314 185.735C265.524 181.341 265.855 175.526 266.242 166.48C266.267 165.947 266.291 165.406 266.307 164.849C266.331 164.3 266.356 163.734 266.38 163.153C266.38 163.096 266.388 163.04 266.388 162.983C266.396 162.749 266.404 162.515 266.412 162.272C266.412 162.175 266.42 162.079 266.428 161.974C266.436 161.634 266.452 161.295 266.469 160.948C266.477 160.6 266.493 160.245 266.509 159.89C266.574 158.113 266.638 156.239 266.711 154.244C267.575 129.247 298.605 118.796 331.566 131.485C331.864 131.598 332.163 131.727 332.462 131.864C333.003 132.106 333.528 132.389 334.045 132.696C334.271 132.833 334.497 132.971 334.724 133.124C334.958 133.278 335.184 133.431 335.41 133.601C335.459 133.625 335.507 133.665 335.547 133.706C335.709 133.819 335.871 133.94 336.024 134.069C336.129 134.142 336.226 134.222 336.331 134.319C336.525 134.473 336.71 134.634 336.896 134.796C347.129 143.89 351.636 165.632 353.582 184.652C353.631 185.089 353.671 185.517 353.712 185.945C353.752 186.381 353.792 186.809 353.833 187.229C353.873 187.657 353.914 188.085 353.946 188.505C354.067 189.822 354.164 191.122 354.253 192.39C354.374 193.981 354.471 195.532 354.552 197.034C354.552 197.147 354.56 197.26 354.568 197.373C354.624 198.415 354.681 199.433 354.721 200.418C354.762 201.403 354.802 202.364 354.826 203.301Z" fill="#FE4B5F"/>
<path d="M354.818 203.309C353.001 205.393 350.319 206.718 347.315 206.718H267.074C266.081 205.296 265.475 203.414 265.314 200.951C265.063 197.042 265.015 194.256 265.104 190.88C265.112 190.597 265.128 190.306 265.136 190.015C265.136 189.886 265.144 189.749 265.144 189.62C265.176 188.731 265.217 187.786 265.265 186.769C265.281 186.486 265.298 186.203 265.306 185.912C265.314 185.856 265.314 185.799 265.314 185.735C265.532 181.373 265.863 175.558 266.242 166.48C266.267 165.947 266.291 165.406 266.307 164.849C266.331 164.3 266.356 163.734 266.38 163.153C266.38 163.096 266.388 163.04 266.388 162.983C266.404 162.652 266.412 162.313 266.428 161.974C266.436 161.634 266.452 161.295 266.469 160.948C266.477 160.6 266.493 160.245 266.509 159.89C266.574 158.113 266.638 156.239 266.711 154.244C267.575 129.247 298.605 118.796 331.566 131.485C331.864 131.598 332.163 131.727 332.462 131.864C333.003 132.106 333.528 132.389 334.045 132.696C334.271 132.833 334.497 132.971 334.724 133.124C334.958 133.278 335.184 133.431 335.41 133.601C335.459 133.625 335.507 133.665 335.547 133.706C335.709 133.819 335.871 133.94 336.024 134.069C336.129 134.142 336.226 134.222 336.331 134.319C336.525 134.473 336.71 134.634 336.896 134.796C347.153 143.858 351.652 165.552 353.582 184.652C353.631 185.089 353.671 185.517 353.712 185.945C353.752 186.381 353.792 186.809 353.833 187.229C353.873 187.657 353.914 188.085 353.946 188.505C354.067 189.822 354.164 191.122 354.253 192.39C354.366 193.981 354.463 195.532 354.552 197.034C354.552 197.147 354.56 197.26 354.568 197.373C354.673 199.457 354.762 201.444 354.818 203.309Z" stroke="#141831" stroke-miterlimit="10" stroke-linecap="round" stroke-linejoin="round"/>
<path d="M352.557 203.398L308.41 211.353C307.15 211.579 305.906 211.208 304.994 210.424L301.287 212.137C300.301 212.734 299.009 212.274 298.629 211.184L293.792 197.106C293.38 195.895 294.317 194.643 295.593 194.708L299.211 194.917C299.284 194.045 299.631 193.213 300.205 192.559C300.212 192.551 300.212 192.551 300.212 192.559C300.73 191.945 301.448 191.477 302.296 191.259L333.851 183.231L311.746 150.747L341.815 140.449L356.894 167.425L363.896 179.952C369.283 189.579 363.452 201.637 352.557 203.398Z" fill="#FE4B5F"/>
<path d="M352.557 203.399L308.41 211.354C307.15 211.58 305.906 211.209 304.994 210.425L301.287 212.138C300.301 212.735 299.009 212.275 298.629 211.185L293.792 197.107C293.38 195.896 294.317 194.644 295.593 194.708L299.211 194.918C299.284 194.046 299.631 193.214 300.205 192.56C300.212 192.552 300.212 192.552 300.212 192.56C302.611 194.038 303.766 197.01 305.906 198.9C308.111 200.838 311.181 201.42 314.096 201.759C323.513 202.842 333.141 202.115 342.283 199.635C348.115 198.052 354.269 195.29 356.789 189.806C359.058 184.887 357.782 179.177 357.088 173.806C356.821 171.739 356.7 169.542 356.894 167.426L363.896 179.953C369.283 189.58 363.452 201.638 352.557 203.399Z" fill="#E21B39"/>
<path d="M341.815 140.447L363.894 179.955C369.282 189.581 363.453 201.637 352.555 203.394L308.411 211.356C307.152 211.581 305.908 211.212 304.99 210.424L301.287 212.138C300.304 212.738 299.009 212.275 298.633 211.183L293.788 197.109C293.375 195.895 294.316 194.643 295.596 194.708L299.212 194.918C299.349 193.226 300.535 191.707 302.3 191.259L333.853 183.231L311.745 150.745" stroke="#141831" stroke-miterlimit="10" stroke-linecap="round" stroke-linejoin="round"/>
<path d="M299.212 194.918L301.599 202.032" stroke="#141831" stroke-miterlimit="10" stroke-linecap="round" stroke-linejoin="round"/>
<path d="M333.854 183.232L337.66 188.011" stroke="#141831" stroke-miterlimit="10" stroke-linecap="round" stroke-linejoin="round"/>
<path d="M210.418 135.215C210.418 135.215 203.971 135.753 200.417 134.054C196.539 132.201 192.331 127.877 194.024 126.484C195.716 125.091 200.116 131.278 205.632 129.132" fill="#FFAAAA"/>
<path d="M210.418 135.215C210.418 135.215 203.971 135.753 200.417 134.054C196.539 132.201 192.331 127.877 194.024 126.484C195.716 125.091 200.116 131.278 205.632 129.132" stroke="#141831" stroke-miterlimit="10" stroke-linecap="round" stroke-linejoin="round"/>
<path d="M211.025 135.777C211.025 135.777 204.64 134.732 201.606 132.221C198.294 129.481 195.263 124.265 197.243 123.325C199.223 122.384 201.989 129.455 207.86 128.713" fill="#FFAAAA"/>
<path d="M211.025 135.777C211.025 135.777 204.64 134.732 201.606 132.221C198.294 129.481 195.263 124.265 197.243 123.325C199.223 122.384 201.989 129.455 207.86 128.713" stroke="#141831" stroke-miterlimit="10" stroke-linecap="round" stroke-linejoin="round"/>
<path d="M205.28 127.314L211.123 126.791C211.123 126.791 204.532 119.762 208.352 119.054C213.246 118.147 219.098 128.942 219.098 128.942L220.618 131.469L212.258 137.878C212.258 137.878 207.2 135.624 204.433 132.822C201.412 129.764 198.918 124.27 200.982 123.533C203.047 122.796 205.09 130.108 211.006 129.957C208.67 129.988 206.837 128.944 205.28 127.314Z" fill="#FFAAAA"/>
<path d="M205.28 127.314L211.123 126.791C211.123 126.791 204.532 119.762 208.352 119.054C213.246 118.147 219.098 128.942 219.098 128.942L220.618 131.469L212.258 137.878C212.258 137.878 207.2 135.624 204.433 132.822C201.412 129.764 198.918 124.27 200.982 123.533C203.047 122.796 205.09 130.108 211.006 129.957C208.67 129.988 206.837 128.944 205.28 127.314Z" stroke="#141831" stroke-miterlimit="10" stroke-linecap="round" stroke-linejoin="round"/>
<path d="M211.124 126.791L213.025 128.44" stroke="#141831" stroke-miterlimit="10" stroke-linecap="round" stroke-linejoin="round"/>
<path d="M294.27 198.509C294.27 198.509 284.403 192.616 282.031 195.692C280.118 198.171 286.378 201.056 286.378 201.056C286.378 201.056 281.382 201.827 278.005 201.663C275.298 201.532 274.823 205.193 280.673 205.259C279.359 205.486 278.078 205.632 277.072 205.583C274.86 205.477 274.444 207.826 277.494 208.794C275.745 209.093 275.718 211.246 278.813 212.06C276.924 213.023 277.421 216.308 287.536 214.402C290.934 213.762 293.851 213.224 298.27 210.053L294.27 198.509Z" fill="#FFAAAA" stroke="#141831" stroke-miterlimit="10" stroke-linecap="round" stroke-linejoin="round"/>
<path d="M280.673 205.258C280.673 205.258 281.56 205.286 282.933 205.139L280.673 205.258ZM277.439 208.835C277.439 208.835 279.711 208.906 282.608 208.219L277.439 208.835ZM278.757 212.1C278.757 212.1 281.028 212.17 283.925 211.483L278.757 212.1Z" fill="white"/>
<path d="M280.673 205.258C280.673 205.258 281.56 205.286 282.933 205.139M277.439 208.835C277.439 208.835 279.711 208.906 282.608 208.219M278.757 212.1C278.757 212.1 281.028 212.17 283.925 211.483" stroke="#141831" stroke-miterlimit="10" stroke-linecap="round" stroke-linejoin="round"/>
<path d="M324.325 112.334C324.223 112.582 324.117 112.821 324.006 113.057C320.001 121.678 309.872 125.69 300.999 122.029C291.884 118.269 287.54 107.824 291.301 98.7093C292.871 94.9032 295.6 91.9331 298.92 90.0351C300.187 89.3032 301.54 88.7307 302.952 88.3338C306.676 87.2781 310.77 87.4158 314.624 89.0056C314.688 89.0324 314.759 89.0615 314.822 89.094C323.804 92.9243 328.061 103.278 324.325 112.334Z" fill="#FFAAAA"/>
<path d="M324.321 112.335C324.224 112.578 324.119 112.82 324.006 113.054C320 121.68 309.872 125.686 300.996 122.027C298.54 121.018 296.432 119.515 294.736 117.682C295.915 118.571 297.224 119.322 298.653 119.911C307.521 123.57 317.65 119.556 321.655 110.938C321.769 110.696 321.874 110.462 321.979 110.211C324.717 103.564 323.15 96.2147 318.578 91.2637C324.91 96.0368 327.495 104.655 324.321 112.335Z" fill="#F99191"/>
<path d="M324.325 112.334C324.223 112.582 324.117 112.821 324.006 113.057C320.001 121.678 309.872 125.69 300.999 122.029C291.884 118.269 287.54 107.824 291.301 98.7093C292.871 94.9032 295.6 91.9331 298.92 90.0351C300.187 89.3032 301.54 88.7307 302.952 88.3338C306.676 87.2781 310.77 87.4158 314.624 89.0056C314.688 89.0324 314.759 89.0615 314.822 89.094C323.804 92.9243 328.061 103.278 324.325 112.334Z" stroke="#141831" stroke-miterlimit="10" stroke-linecap="round" stroke-linejoin="round"/>
<path d="M324.325 112.334C324.223 112.582 324.117 112.821 324.006 113.057C321.941 112.798 319.881 112.259 317.866 111.428C309.258 107.876 303.803 99.9094 303.031 91.2346C302.945 90.275 302.917 89.3052 302.953 88.3338C306.677 87.2781 310.771 87.4158 314.624 89.0056C314.689 89.0323 314.76 89.0615 314.822 89.094C323.804 92.9243 328.061 103.278 324.325 112.334Z" fill="#141831"/>
<path d="M314.821 89.0933C311.321 91.1105 307.159 91.9236 303.031 91.2338C301.712 91.0207 300.396 90.6502 299.112 90.1203C299.047 90.0936 298.982 90.0668 298.92 90.0344C300.187 89.3025 301.54 88.7299 302.952 88.333C306.676 87.2774 310.77 87.4151 314.623 89.0049C314.688 89.0316 314.759 89.0608 314.821 89.0933ZM338.713 98.0597C336.744 102.832 331.277 105.105 326.505 103.136C321.732 101.167 319.459 95.7004 321.428 90.9283C323.397 86.156 328.864 83.8825 333.636 85.8514C338.408 87.8203 340.682 93.2873 338.713 98.0597Z" fill="#141831"/>
<path d="M290.587 110.232C291.601 111.186 292.893 111.774 294.56 111.872" stroke="#141831" stroke-miterlimit="10" stroke-linecap="round" stroke-linejoin="round"/>
<path d="M304.365 105.853C303.872 107.049 302.505 107.622 301.308 107.129L298.486 105.964C297.29 105.471 296.719 104.098 297.213 102.902C297.458 102.307 297.923 101.864 298.479 101.638C299.03 101.404 299.672 101.386 300.273 101.634L303.095 102.798C304.291 103.292 304.856 104.662 304.365 105.853Z" fill="white" stroke="#141831" stroke-miterlimit="10" stroke-linecap="round" stroke-linejoin="round"/>
<path d="M301.448 104.518C301.093 105.378 300.481 106.043 299.735 106.48L298.486 105.964C297.29 105.471 296.719 104.098 297.213 102.902C297.458 102.307 297.923 101.864 298.479 101.638C299.03 101.404 299.672 101.386 300.273 101.634L301.687 102.217C301.827 102.964 301.762 103.758 301.448 104.518Z" fill="#141831"/>
<path d="M319.569 116.886C319.904 118.853 321.776 120.181 323.743 119.847C325.715 119.511 327.038 117.64 326.704 115.673C326.369 113.701 324.503 112.377 322.53 112.712" fill="#F99191"/>
<path d="M319.569 116.886C319.904 118.853 321.776 120.181 323.743 119.847C325.715 119.511 327.038 117.64 326.704 115.673C326.369 113.701 324.503 112.377 322.53 112.712" stroke="#141831" stroke-miterlimit="10" stroke-linecap="round" stroke-linejoin="round"/>
<path d="M321.315 118.474C321.315 119.692 320.332 120.674 319.121 120.674C317.909 120.674 316.92 119.692 316.92 118.474C316.92 117.262 317.909 116.279 319.121 116.279C320.332 116.279 321.315 117.262 321.315 118.474Z" fill="#FE4B5F"/>
<path d="M153.23 134.934C145.458 142.39 135.96 148.287 125.069 151.923C94.0698 162.297 61.0639 151.327 42.0068 126.961C49.9188 112.241 63.6837 101.139 80.1911 96.7758C82.4341 96.18 84.7297 95.7071 87.069 95.374C89.9342 94.9622 92.8607 94.752 95.8397 94.752C100.028 94.752 104.12 95.1725 108.071 95.9785C110.384 96.4517 112.645 97.0475 114.853 97.7748C132.657 103.601 146.842 117.393 153.23 134.934Z" fill="#5F64FF"/>
<path d="M150.765 129.125C143.251 117.374 131.821 108.361 118.309 103.938C116.102 103.214 113.845 102.616 111.528 102.144C107.577 101.335 103.484 100.914 99.297 100.914C96.3234 100.914 93.392 101.125 90.528 101.538C88.1862 101.875 85.895 102.346 83.6542 102.936C67.624 107.173 54.1884 117.761 46.1775 131.846C44.7286 130.288 43.3303 128.653 42.0078 126.96C49.9175 112.244 63.6818 101.142 80.1921 96.7783C82.4329 96.18 84.7325 95.7085 87.0658 95.3714C89.9298 94.9586 92.8612 94.748 95.8432 94.748C100.03 94.748 104.124 95.1692 108.074 95.9781C110.382 96.4496 112.648 97.0477 114.855 97.7722C130.641 102.944 143.58 114.367 150.765 129.125Z" fill="#2330D8"/>
<path d="M93.4971 107.695V117.784C93.4971 120.06 95.3422 121.905 97.6182 121.905C99.8942 121.905 101.739 120.06 101.739 117.784V107.695H93.4971Z" fill="white" stroke="#141831" stroke-miterlimit="10" stroke-linecap="round" stroke-linejoin="round"/>
<path d="M29.9375 104.482C43.1063 143.85 85.7028 165.093 125.071 151.924C138.446 147.45 149.732 139.576 158.285 129.583L178.32 132.201L168.342 114.495C177.052 97.2124 179.138 76.5947 172.513 56.7897C159.344 17.4213 116.748 -3.82124 77.3793 9.34762C38.0108 22.5165 16.7687 65.1131 29.9375 104.482Z" stroke="#141831" stroke-miterlimit="10" stroke-linecap="round" stroke-linejoin="round"/>
<path d="M178.324 132.2L158.286 129.58C156.691 131.438 155.009 133.225 153.23 134.934C145.458 142.39 135.96 148.287 125.07 151.923C94.0699 162.297 61.0641 151.327 42.007 126.961C36.8638 120.389 32.7369 112.845 29.9419 104.478C16.7728 65.1105 38.0115 22.519 77.3787 9.3501C116.746 -3.81901 159.346 17.4197 172.515 56.7867C179.139 76.5974 177.054 97.2139 168.344 114.492L178.324 132.2Z" stroke="#141831" stroke-miterlimit="10" stroke-linecap="round" stroke-linejoin="round"/>
<path d="M86.66 86.169C95.7489 80.5518 98.5633 68.6301 92.9462 59.5412C87.329 50.4522 75.4073 47.6378 66.3183 53.255C57.2294 58.8722 54.415 70.7938 60.0321 79.8828C65.6493 88.9718 77.571 91.7862 86.66 86.169Z" fill="#141831"/>
<path d="M124.725 85.1779C132.221 80.545 134.542 70.7123 129.909 63.216C125.276 55.7197 115.444 53.3984 107.947 58.0313C100.451 62.6642 98.1297 72.4969 102.763 79.9932C107.396 87.4896 117.228 89.8109 124.725 85.1779Z" fill="#141831"/>
<path d="M120.487 61.4434C122.157 59.7819 124.858 59.7819 126.528 61.4434C128.189 63.1138 128.181 65.814 126.519 67.4755C124.858 69.137 122.157 69.1459 120.487 67.4839" fill="#FFAAAA"/>
<path d="M120.487 61.4434C122.157 59.7819 124.858 59.7819 126.528 61.4434C128.189 63.1138 128.181 65.814 126.519 67.4755C124.858 69.137 122.157 69.1459 120.487 67.4839" stroke="#141831" stroke-miterlimit="10" stroke-linecap="round" stroke-linejoin="round"/>
<path d="M123.576 61.5184C123.576 75.4252 112.32 86.6806 98.4286 86.6806C84.5376 86.6806 73.2969 75.4252 73.2969 61.5184C73.2969 59.9499 73.4339 58.4112 73.7234 56.9193C75.8711 45.2362 86.1065 36.4023 98.4286 36.4023C98.7486 36.4023 99.0836 36.4023 99.4034 36.4172C103.379 36.5697 107.126 37.651 110.416 39.433C116.295 42.6168 120.758 48.0847 122.616 54.6346C123.24 56.8122 123.576 59.1274 123.576 61.5184Z" fill="#FFAAAA"/>
<path d="M118.372 76.8417C113.781 82.8248 106.557 86.6804 98.4287 86.6804C84.5391 86.6804 73.2998 75.4234 73.2998 61.5162C73.2998 59.9473 73.4328 58.4139 73.7253 56.9159C74.8865 50.5871 78.4231 45.1004 83.3779 41.4043C81.0113 44.48 79.3538 48.114 78.627 52.0761C78.3344 53.5654 78.2015 55.1077 78.2015 56.6766C78.2015 70.5838 89.4408 81.8408 103.33 81.8408C108.968 81.8408 114.18 79.9793 118.372 76.8417Z" fill="#F99191"/>
<path d="M123.576 61.5184C123.576 75.4252 112.32 86.6806 98.4286 86.6806C84.5376 86.6806 73.2969 75.4252 73.2969 61.5184C73.2969 59.9499 73.4339 58.4112 73.7234 56.9193C75.8711 45.2362 86.1065 36.4023 98.4286 36.4023C98.7486 36.4023 99.0836 36.4023 99.4034 36.4172C103.379 36.5697 107.126 37.651 110.416 39.433C116.295 42.6168 120.758 48.0847 122.616 54.6346C123.24 56.8122 123.576 59.1274 123.576 61.5184Z" stroke="#141831" stroke-miterlimit="10" stroke-linecap="round" stroke-linejoin="round"/>
<path d="M122.615 54.6353C116.599 54.4063 111.115 52.0606 106.896 48.3442C103.362 45.2065 100.727 41.0945 99.4023 36.418C103.378 36.5704 107.125 37.6518 110.415 39.4337C116.294 42.6176 120.757 48.0854 122.615 54.6353Z" fill="#141831"/>
<path d="M110.415 39.433C109.836 42.6622 108.618 45.678 106.896 48.3435C102.449 55.3195 94.62 59.9499 85.7097 59.9499C81.3686 59.9499 77.2715 58.8529 73.7227 56.9193C75.8703 45.2362 86.1057 36.4023 98.4278 36.4023C98.7478 36.4023 99.0829 36.4023 99.4027 36.4172C103.378 36.5697 107.125 37.651 110.415 39.433Z" fill="#141831"/>
<path d="M119.735 66.5686C119.735 68.3779 118.267 69.8456 116.457 69.8456H114.537C114.471 69.8456 114.405 69.8456 114.339 69.8348C112.617 69.7357 111.26 68.3122 111.26 66.5686C111.26 65.6634 111.624 64.8471 112.22 64.2512C112.816 63.6552 113.632 63.291 114.537 63.291H116.457C117.936 63.291 119.183 64.2733 119.602 65.6192C119.69 65.9177 119.735 66.2372 119.735 66.5686Z" fill="white" stroke="#141831" stroke-miterlimit="10" stroke-linecap="round" stroke-linejoin="round"/>
<path d="M119.735 66.568C119.735 68.3774 118.267 69.8451 116.458 69.8451H114.538C114.471 69.8451 114.405 69.8451 114.339 69.8343C114.35 67.4506 116.292 65.5195 118.676 65.5195C118.996 65.5195 119.305 65.5529 119.602 65.6187C119.691 65.9172 119.735 66.2367 119.735 66.568Z" fill="#141831"/>
<path d="M102.397 66.4358C102.397 68.2451 100.929 69.7128 99.1194 69.7128H97.1993C97.133 69.7128 97.0668 69.7128 97.0006 69.702C95.2793 69.6029 93.9219 68.1794 93.9219 66.4358C93.9219 65.5306 94.286 64.7143 94.8819 64.1184C95.4778 63.5224 96.2944 63.1582 97.1993 63.1582H99.1194C100.598 63.1582 101.845 64.1404 102.264 65.4864C102.352 65.7849 102.397 66.1044 102.397 66.4358Z" fill="white" stroke="#141831" stroke-miterlimit="10" stroke-linecap="round" stroke-linejoin="round"/>
<path d="M102.396 66.4352C102.396 68.2445 100.928 69.7123 99.1187 69.7123H97.1987C97.1324 69.7123 97.0661 69.7123 97 69.7015C97.011 67.3178 98.9532 65.3867 101.337 65.3867C101.657 65.3867 101.966 65.4201 102.264 65.4859C102.352 65.7844 102.396 66.1039 102.396 66.4352ZM103.558 78.9056C103.581 78.9346 103.604 78.9633 103.633 78.9923C104.227 79.6091 104.976 79.9204 105.87 79.9204C105.87 79.9204 105.87 79.9204 105.875 79.9204C106.844 79.9204 107.657 79.5688 108.325 79.0441C110.17 77.6086 110.954 74.8933 111 74.7379C111.029 74.6166 110.983 74.49 110.879 74.4207C110.775 74.3515 110.643 74.3574 110.545 74.4323C110.378 74.5589 106.463 77.5452 102.664 73.9653C102.584 73.8904 102.463 73.8673 102.359 73.9076C102.249 73.9537 102.18 74.0517 102.18 74.1671C102.174 74.2997 102.094 77.286 103.558 78.9056Z" fill="#141831"/>
<path d="M104.488 78.0508C104.505 78.0721 104.522 78.0931 104.543 78.1144C104.979 78.5668 105.529 78.7952 106.184 78.7952C106.184 78.7952 106.184 78.7952 106.188 78.7952C106.899 78.7952 107.495 78.5373 107.986 78.1524C107.969 78.1314 107.952 78.1101 107.931 78.089C107.495 77.6366 106.945 77.4082 106.29 77.4082C106.29 77.4082 106.29 77.4082 106.286 77.4082C105.575 77.4082 104.979 77.6661 104.488 78.0508Z" fill="#FE4B5F"/>
<path d="M75.6506 63.1856C73.9804 61.5241 71.2802 61.5241 69.6101 63.1856C67.9484 64.856 67.9571 67.5562 69.6187 69.2177C71.2802 70.8792 73.9804 70.8881 75.6506 69.2261" fill="#F99191"/>
<path d="M75.6506 63.1856C73.9804 61.5241 71.2802 61.5241 69.6101 63.1856C67.9484 64.856 67.9571 67.5562 69.6187 69.2177C71.2802 70.8792 73.9804 70.8881 75.6506 69.2261" stroke="#141831" stroke-miterlimit="10" stroke-linecap="round" stroke-linejoin="round"/>
<path d="M153.23 134.934C145.458 142.39 135.96 148.287 125.069 151.923C94.0698 162.297 61.0639 151.327 42.0068 126.961C52.3108 107.79 72.5507 94.752 95.8397 94.752C122.231 94.752 144.705 111.496 153.23 134.934Z" stroke="#141831" stroke-miterlimit="10" stroke-linecap="round" stroke-linejoin="round"/>
<path d="M114.853 97.7748C113.136 105.879 105.969 111.715 97.6187 111.715C88.9006 111.715 81.5057 105.336 80.1914 96.7758C82.4344 96.18 84.73 95.7071 87.0693 95.374C89.9345 94.9622 92.861 94.752 95.84 94.752C100.028 94.752 104.12 95.1725 108.072 95.9785C110.385 96.4517 112.645 97.0475 114.853 97.7748Z" fill="white" stroke="#141831" stroke-miterlimit="10" stroke-linecap="round" stroke-linejoin="round"/>
<path d="M108.071 95.9785C107.177 100.947 102.84 104.705 97.6177 104.705C92.1854 104.705 87.708 100.631 87.0684 95.374C89.9335 94.9622 92.86 94.752 95.839 94.752C100.027 94.752 104.119 95.1725 108.071 95.9785Z" fill="#FFAAAA" stroke="#141831" stroke-miterlimit="10" stroke-linecap="round" stroke-linejoin="round"/>
<path d="M148.045 56.8042L145.859 64.194C145.671 64.8266 146.267 65.4116 146.896 65.2134L154.478 62.8251C158.84 65.6821 164.123 67.2456 169.788 66.9644C182.669 66.3251 193.21 55.9388 194.023 43.0676C194.999 27.6249 182.271 14.895 166.829 15.8666C154.011 16.6731 143.642 27.1295 142.934 39.9535C142.584 46.2905 144.541 52.1621 148.045 56.8042Z" fill="#FF8F9F"/>
<path d="M158.182 43.8503C159.853 43.8503 161.208 42.4956 161.208 40.8246C161.208 39.1535 159.853 37.7988 158.182 37.7988C156.511 37.7988 155.156 39.1535 155.156 40.8246C155.156 42.4956 156.511 43.8503 158.182 43.8503Z" fill="white"/>
<path d="M168.486 43.8503C170.157 43.8503 171.511 42.4956 171.511 40.8246C171.511 39.1535 170.157 37.7988 168.486 37.7988C166.815 37.7988 165.46 39.1535 165.46 40.8246C165.46 42.4956 166.815 43.8503 168.486 43.8503Z" fill="white"/>
<path d="M178.787 43.8503C180.459 43.8503 181.813 42.4956 181.813 40.8246C181.813 39.1535 180.459 37.7988 178.787 37.7988C177.116 37.7988 175.762 39.1535 175.762 40.8246C175.762 42.4956 177.116 43.8503 178.787 43.8503Z" fill="white"/>
</svg>
