<svg width="65" height="65" viewBox="0 0 65 65" fill="none" xmlns="http://www.w3.org/2000/svg">
<rect width="65" height="65" rx="32.5" fill="#F11170" fill-opacity="0.36"/>
<path d="M38.2344 48.1094H36.5938V44.7813H27.4063V48.1094H25.7656C25.5313 48.1094 25.2969 48.2969 25.2969 48.5781C25.2969 48.8125 25.4844 49.0469 25.7656 49.0469H38.1875C38.4219 49.0469 38.6563 48.8594 38.6563 48.5781C38.6563 48.2969 38.4688 48.1094 38.2344 48.1094ZM25.0156 30.2031C25.25 30.2969 25.5312 30.1563 25.625 29.9219L28.7188 21.9063C28.8125 21.6719 28.6719 21.3906 28.4375 21.2969C28.2031 21.2031 27.9219 21.3438 27.8281 21.5781L24.7344 29.6406C24.6406 29.875 24.7813 30.1094 25.0156 30.2031ZM29.1406 23.9688L32.7031 25.75L29.1406 27.5313C28.9062 27.625 28.8125 27.9063 28.9531 28.1406C29.0469 28.375 29.3281 28.4688 29.5625 28.3281L33.9219 26.125C34.0625 26.0313 34.1563 25.8906 34.1563 25.7031C34.1563 25.5156 34.0625 25.375 33.9219 25.2813L29.5625 23.0781C29.3281 22.9844 29.0469 23.0781 28.9531 23.2656C28.8125 23.5938 28.9062 23.875 29.1406 23.9688ZM24.4531 28.1406C24.5469 27.9063 24.4531 27.625 24.2656 27.5313L20.75 25.75L24.2656 23.9688C24.5 23.875 24.5938 23.5938 24.4531 23.3594C24.3594 23.125 24.0781 23.0313 23.8438 23.1719L19.4844 25.375C19.3438 25.4688 19.25 25.6094 19.25 25.7969C19.25 25.9844 19.3438 26.125 19.4844 26.2188L23.8438 28.4219C24.0781 28.4688 24.3594 28.375 24.4531 28.1406ZM20.1406 33.2031C19.9062 33.2031 19.6719 33.3906 19.6719 33.6719C19.6719 33.9063 19.8594 34.1406 20.1406 34.1406H26.0469C26.2812 34.1406 26.5156 33.9531 26.5156 33.6719C26.5156 33.4375 26.3281 33.2031 26.0469 33.2031H20.1406ZM29.2344 36.1563H20.1406C19.9062 36.1563 19.6719 36.3438 19.6719 36.625C19.6719 36.8594 19.8594 37.0938 20.1406 37.0938H29.2344C29.4688 37.0938 29.7031 36.9063 29.7031 36.625C29.7031 36.3906 29.4688 36.1563 29.2344 36.1563ZM44.4688 31.5625L43.3438 31.0469C43.25 30.8125 43.2031 30.5781 43.0625 30.3906L43.4844 29.2188C43.5313 29.0781 43.4844 28.8906 43.3906 28.75L42.875 28.2344C42.7344 28.0938 42.5469 28.0469 42.4063 28.1406L41.2344 28.5625C41.0469 28.4688 40.8125 28.375 40.5781 28.2813L40.0625 27.1563C39.9688 27.0156 39.8281 26.875 39.6406 26.875H38.9375C38.75 26.875 38.6094 26.9688 38.5156 27.1563L38 28.2813C37.7656 28.375 37.5313 28.4688 37.3438 28.5625L36.1719 28.1406C35.9844 28.0938 35.7969 28.1406 35.7031 28.2344L35.1875 28.75C35.0469 28.8906 35 29.0781 35.0938 29.2188L35.5156 30.3906C35.375 30.625 35.3281 30.8594 35.2344 31.0938L34.1094 31.6094C33.9688 31.7031 33.8281 31.8438 33.8281 32.0313V32.7813C33.8281 32.9688 33.9219 33.1094 34.1094 33.2031L35.2344 33.7188C35.3281 33.9531 35.375 34.1875 35.5156 34.4219L35.0938 35.5938C35.0469 35.7813 35.0938 35.9688 35.1875 36.0625L35.7031 36.5781C35.8438 36.7188 36.0313 36.7188 36.1719 36.6719L37.3438 36.25C37.5781 36.3906 37.8125 36.4375 38.0469 36.5313L38.5625 37.6563C38.6563 37.7969 38.7969 37.9375 38.9844 37.9375H39.6875C39.875 37.9375 40.0156 37.8438 40.1094 37.6563L40.625 36.5313C40.8594 36.4375 41.0938 36.3906 41.3281 36.25L42.5 36.6719C42.6875 36.7188 42.875 36.6719 42.9688 36.5781L43.4844 36.0625C43.625 35.9219 43.625 35.7344 43.5781 35.5938L43.1563 34.4219L43.4375 33.7188L44.5625 33.2031C44.7031 33.1094 44.8438 32.9688 44.8438 32.7813V32.0313C44.75 31.7969 44.6094 31.6094 44.4688 31.5625ZM39.2656 34.0469C38.3281 34.0469 37.5313 33.25 37.5313 32.3125C37.5313 31.375 38.3281 30.5781 39.2656 30.5781C40.2031 30.5781 41 31.3281 41 32.3125C41 33.2969 40.2031 34.0469 39.2656 34.0469ZM35.8438 25.4688C36.0781 25.4688 36.3125 25.2813 36.3125 25V23.3125H42.6406V25C42.6406 25.2344 42.8281 25.4688 43.1094 25.4688C43.3438 25.4688 43.5781 25.2813 43.5781 25V22.8906C43.5781 22.6563 43.3906 22.4219 43.1094 22.4219H35.8438C35.6094 22.4219 35.375 22.6094 35.375 22.8906V25.0469C35.375 25.2813 35.6094 25.4688 35.8438 25.4688Z" fill="#99164E"/>
<path d="M45.1719 19H18.8281C17.7969 19 17 19.7969 17 20.8281V42.0625C17 43.0469 17.7969 43.8438 18.8281 43.8438H45.1719C46.1562 43.8438 47 43.0469 47 42.0156V20.8281C47 19.7969 46.2031 19 45.1719 19ZM46.1094 39.1562H17.8906V20.8281C17.8906 20.3125 18.3125 19.9375 18.7813 19.9375H45.125C45.6406 19.9375 46.0156 20.3594 46.0156 20.8281V39.1562H46.1094Z" fill="#99164E"/>
</svg>
