<svg width="65" height="65" viewBox="0 0 65 65" fill="none" xmlns="http://www.w3.org/2000/svg">
<rect width="65" height="65" rx="32.5" fill="#83F5CC" fill-opacity="0.69"/>
<path d="M46.3095 19.9048H40.7857C40.4039 19.9048 40.0952 20.2141 40.0952 20.5952V24.0476H38.0238C37.642 24.0476 37.3333 24.357 37.3333 24.7381V35.0952H30.4286V26.119C30.4286 24.4515 29.2403 23.0575 27.6667 22.7364V19.2143C27.6667 18.8331 27.3573 18.5238 26.9762 18.5238H24.9048V13.6905C24.9048 13.3093 24.5954 13 24.2143 13C23.8331 13 23.5238 13.3093 23.5238 13.6905V18.5238H21.4524C21.0712 18.5238 20.7619 18.8331 20.7619 19.2143V22.7364C19.1883 23.0575 18 24.4515 18 26.119V49.5952C18 49.9771 18.3093 50.2857 18.6905 50.2857H46.3095C46.6914 50.2857 47 49.9771 47 49.5952V20.5952C47 20.2141 46.6914 19.9048 46.3095 19.9048ZM41.4762 21.2857H45.619V24.0476H41.4762V21.2857ZM22.1429 19.9048H26.2857V22.6667H22.1429V19.9048ZM19.381 26.119C19.381 24.977 20.3103 24.0476 21.4524 24.0476H26.9762C28.1182 24.0476 29.0476 24.977 29.0476 26.119V48.9048H19.381V26.119ZM30.4286 36.4762H37.3333V48.9048H30.4286V36.4762ZM45.619 48.9048H38.7143V25.4286H45.619V48.9048Z" fill="#0F7450"/>
<path d="M35.2617 37.8571H32.4998C32.1187 37.8571 31.8093 38.1658 31.8093 38.5476C31.8093 38.9294 32.1187 39.2381 32.4998 39.2381H35.2617C35.6436 39.2381 35.9522 38.9294 35.9522 38.5476C35.9522 38.1658 35.6436 37.8571 35.2617 37.8571ZM35.2617 40.619H32.4998C32.1187 40.619 31.8093 40.9277 31.8093 41.3095C31.8093 41.6913 32.1187 42 32.4998 42H35.2617C35.6436 42 35.9522 41.6913 35.9522 41.3095C35.9522 40.9277 35.6436 40.619 35.2617 40.619ZM35.2617 43.3809H32.4998C32.1187 43.3809 31.8093 43.6896 31.8093 44.0714C31.8093 44.4532 32.1187 44.7619 32.4998 44.7619H35.2617C35.6436 44.7619 35.9522 44.4532 35.9522 44.0714C35.9522 43.6896 35.6436 43.3809 35.2617 43.3809ZM35.2617 46.1428H32.4998C32.1187 46.1428 31.8093 46.4515 31.8093 46.8333C31.8093 47.2152 32.1187 47.5238 32.4998 47.5238H35.2617C35.6436 47.5238 35.9522 47.2152 35.9522 46.8333C35.9522 46.4515 35.6436 46.1428 35.2617 46.1428ZM21.4522 26.8095C21.0711 26.8095 20.7617 27.1188 20.7617 27.5V30.2619C20.7617 30.643 21.0711 30.9524 21.4522 30.9524C21.8333 30.9524 22.1427 30.643 22.1427 30.2619V27.5C22.1427 27.1188 21.8333 26.8095 21.4522 26.8095ZM24.2141 26.8095C23.833 26.8095 23.5236 27.1188 23.5236 27.5V30.2619C23.5236 30.643 23.833 30.9524 24.2141 30.9524C24.5952 30.9524 24.9046 30.643 24.9046 30.2619V27.5C24.9046 27.1188 24.5952 26.8095 24.2141 26.8095ZM26.976 26.8095C26.5949 26.8095 26.2855 27.1188 26.2855 27.5V30.2619C26.2855 30.643 26.5949 30.9524 26.976 30.9524C27.3571 30.9524 27.6665 30.643 27.6665 30.2619V27.5C27.6665 27.1188 27.3571 26.8095 26.976 26.8095ZM24.2141 32.3333C23.833 32.3333 23.5236 32.642 23.5236 33.0238V35.7857C23.5236 36.1675 23.833 36.4762 24.2141 36.4762C24.5952 36.4762 24.9046 36.1675 24.9046 35.7857V33.0238C24.9046 32.642 24.5952 32.3333 24.2141 32.3333ZM21.4522 32.3333C21.0711 32.3333 20.7617 32.642 20.7617 33.0238V35.7857C20.7617 36.1675 21.0711 36.4762 21.4522 36.4762C21.8333 36.4762 22.1427 36.1675 22.1427 35.7857V33.0238C22.1427 32.642 21.8333 32.3333 21.4522 32.3333ZM26.976 32.3333C26.5949 32.3333 26.2855 32.642 26.2855 33.0238V35.7857C26.2855 36.1675 26.5949 36.4762 26.976 36.4762C27.3571 36.4762 27.6665 36.1675 27.6665 35.7857V33.0238C27.6665 32.642 27.3571 32.3333 26.976 32.3333ZM21.4522 37.8571C21.0711 37.8571 20.7617 38.1658 20.7617 38.5476V41.3095C20.7617 41.6913 21.0711 42 21.4522 42C21.8333 42 22.1427 41.6913 22.1427 41.3095V38.5476C22.1427 38.1658 21.8333 37.8571 21.4522 37.8571ZM24.2141 37.8571C23.833 37.8571 23.5236 38.1658 23.5236 38.5476V41.3095C23.5236 41.6913 23.833 42 24.2141 42C24.5952 42 24.9046 41.6913 24.9046 41.3095V38.5476C24.9046 38.1658 24.5952 37.8571 24.2141 37.8571ZM26.976 37.8571C26.5949 37.8571 26.2855 38.1658 26.2855 38.5476V41.3095C26.2855 41.6913 26.5949 42 26.976 42C27.3571 42 27.6665 41.6913 27.6665 41.3095V38.5476C27.6665 38.1658 27.3571 37.8571 26.976 37.8571ZM21.4522 43.3809C21.0711 43.3809 20.7617 43.6896 20.7617 44.0714V46.8333C20.7617 47.2152 21.0711 47.5238 21.4522 47.5238C21.8333 47.5238 22.1427 47.2152 22.1427 46.8333V44.0714C22.1427 43.6896 21.8333 43.3809 21.4522 43.3809ZM24.2141 43.3809C23.833 43.3809 23.5236 43.6896 23.5236 44.0714V46.8333C23.5236 47.2152 23.833 47.5238 24.2141 47.5238C24.5952 47.5238 24.9046 47.2152 24.9046 46.8333V44.0714C24.9046 43.6896 24.5952 43.3809 24.2141 43.3809ZM26.976 43.3809C26.5949 43.3809 26.2855 43.6896 26.2855 44.0714V46.8333C26.2855 47.2152 26.5949 47.5238 26.976 47.5238C27.3571 47.5238 27.6665 47.2152 27.6665 46.8333V44.0714C27.6665 43.6896 27.3571 43.3809 26.976 43.3809ZM40.0951 27.5V30.2619C40.0951 30.643 40.4037 30.9524 40.7855 30.9524C41.1674 30.9524 41.476 30.643 41.476 30.2619V27.5C41.476 27.1188 41.1674 26.8095 40.7855 26.8095C40.4037 26.8095 40.0951 27.1188 40.0951 27.5ZM43.5474 30.9524C43.9293 30.9524 44.2379 30.643 44.2379 30.2619V27.5C44.2379 27.1188 43.9293 26.8095 43.5474 26.8095C43.1656 26.8095 42.857 27.1188 42.857 27.5V30.2619C42.857 30.643 43.1656 30.9524 43.5474 30.9524ZM40.7855 32.3333C40.4037 32.3333 40.0951 32.642 40.0951 33.0238V35.7857C40.0951 36.1675 40.4037 36.4762 40.7855 36.4762C41.1674 36.4762 41.476 36.1675 41.476 35.7857V33.0238C41.476 32.642 41.1674 32.3333 40.7855 32.3333ZM43.5474 36.4762C43.9293 36.4762 44.2379 36.1675 44.2379 35.7857V33.0238C44.2379 32.642 43.9293 32.3333 43.5474 32.3333C43.1656 32.3333 42.857 32.642 42.857 33.0238V35.7857C42.857 36.1675 43.1656 36.4762 43.5474 36.4762ZM40.7855 37.8571C40.4037 37.8571 40.0951 38.1658 40.0951 38.5476V41.3095C40.0951 41.6913 40.4037 42 40.7855 42C41.1674 42 41.476 41.6913 41.476 41.3095V38.5476C41.476 38.1658 41.1674 37.8571 40.7855 37.8571ZM43.5474 42C43.9293 42 44.2379 41.6913 44.2379 41.3095V38.5476C44.2379 38.1658 43.9293 37.8571 43.5474 37.8571C43.1656 37.8571 42.857 38.1658 42.857 38.5476V41.3095C42.857 41.6913 43.1656 42 43.5474 42ZM40.7855 43.3809C40.4037 43.3809 40.0951 43.6896 40.0951 44.0714V46.8333C40.0951 47.2152 40.4037 47.5238 40.7855 47.5238C41.1674 47.5238 41.476 47.2152 41.476 46.8333V44.0714C41.476 43.6896 41.1674 43.3809 40.7855 43.3809ZM43.5474 47.5238C43.9293 47.5238 44.2379 47.2152 44.2379 46.8333V44.0714C44.2379 43.6896 43.9293 43.3809 43.5474 43.3809C43.1656 43.3809 42.857 43.6896 42.857 44.0714V46.8333C42.857 47.2152 43.1656 47.5238 43.5474 47.5238Z" fill="#0F7450"/>
</svg>
