<svg width="549" height="424" viewBox="0 0 549 424" fill="none" xmlns="http://www.w3.org/2000/svg">
<path opacity="0.81" d="M225.964 246.293H185.234V383.359H225.964V246.293Z" fill="#28617D"/>
<path opacity="0.81" d="M366.749 383.358L321.37 380.382V202.773H366.749V383.358Z" fill="#28617D"/>
<path opacity="0.81" d="M225.964 0.986328H185.234V224.904H225.964V0.986328Z" fill="#28617D"/>
<path opacity="0.81" d="M363.029 0.986328H321.37V180.455H363.029V0.986328Z" fill="#28617D"/>
<path opacity="0.81" d="M363.029 0.986328H185.234V23.1177H363.029V0.986328Z" fill="#28617D"/>
<path opacity="0.81" d="M363.029 46.3652H185.234V68.4966H363.029V46.3652Z" fill="#28617D"/>
<path opacity="0.81" d="M363.029 91.7441H185.234V113.876H363.029V91.7441Z" fill="#28617D"/>
<path opacity="0.81" d="M363.029 137.123H185.234V159.254H363.029V137.123Z" fill="#28617D"/>
<path opacity="0.81" d="M336.248 180.641H158.453V202.772H336.248V180.641Z" fill="#E55465"/>
<path opacity="0.81" d="M389.996 225.09H212.201V247.221H389.996V225.09Z" fill="#E55465"/>
<path opacity="0.81" d="M366.563 273.072H185.234V295.204H366.563V273.072Z" fill="#28617D"/>
<path opacity="0.81" d="M366.563 318.451H185.234V340.583H366.563V318.451Z" fill="#28617D"/>
<path opacity="0.81" d="M366.563 361.039H185.234V383.17H366.563V361.039Z" fill="#28617D"/>
<path d="M127.581 355.087C127.209 353.972 119.398 353.6 119.212 353.972C118.654 355.459 116.608 361.039 117.166 361.969C117.724 362.898 125.163 364.014 125.721 362.526C126.093 361.225 127.953 356.017 127.581 355.087Z" fill="#F5AF86"/>
<path d="M86.6661 290.18C86.6661 292.04 87.038 294.086 87.5959 295.946C88.7118 300.223 91.1295 303.571 94.4771 305.617C98.3827 308.034 103.404 308.778 108.983 308.034C119.398 306.36 129.069 308.406 131.859 311.01C132.231 311.382 132.603 311.754 132.603 312.126C132.603 312.312 132.603 312.312 132.603 312.498C130.929 324.4 118.282 345.602 116.98 356.574C117.166 356.946 117.91 357.318 119.026 357.69C119.398 357.876 119.956 357.876 120.514 358.062C124.234 358.806 129.255 359.55 129.255 359.55C137.438 337.233 150.642 325.144 153.618 308.592C153.99 306.546 154.176 304.501 153.99 302.641C153.804 300.967 153.618 299.479 153.246 297.991C147.667 279.022 116.98 273.628 116.98 273.628C114.935 266.747 100.614 268.235 92.4314 276.604C88.7118 279.766 86.4801 284.415 86.6661 290.18Z" fill="#050608"/>
<path d="M87.5957 295.948C90.1994 305.433 97.2666 308.036 108.983 308.036C121.63 307.85 132.974 309.524 132.602 312.5C130.929 324.402 118.282 345.604 116.98 356.577C117.166 356.948 117.91 357.32 119.026 357.692C122.746 349.509 126.651 341.326 130.557 332.957C133.532 326.634 138.182 319.195 138.926 312.314C140.413 298.365 123.118 300.411 115.864 301.527C111.587 302.085 108.797 302.829 105.45 299.481C103.59 297.622 100.986 288.509 98.5684 287.207C96.1507 285.533 91.3153 295.39 87.5957 295.948ZM125.907 361.97C125.907 361.97 135.764 364.574 136.88 372.199L114.377 366.991C114.377 366.991 112.703 361.598 117.166 360.668C117.166 360.668 123.117 362.9 125.907 361.97Z" fill="#050608"/>
<path d="M114.562 366.247L129.999 369.78C130.37 368.292 130.928 366.805 132.044 365.503C132.23 365.317 132.23 365.503 132.23 365.689C131.3 366.991 130.556 368.292 130.184 369.78L136.88 371.268C137.066 371.268 137.066 371.454 136.88 371.454L130.184 369.966C130.184 370.152 130.184 370.338 129.999 370.524C129.999 370.71 129.813 370.71 129.813 370.524C129.813 370.338 129.813 370.152 129.999 369.966L114.562 366.433C114.376 366.433 114.376 366.247 114.562 366.247Z" fill="#1A7E64"/>
<path d="M14.6921 357.133C13.9482 356.203 6.50906 357.877 6.50906 358.435C6.32308 359.923 5.95113 365.874 6.69504 366.618C7.43895 367.362 14.8781 366.432 15.064 364.944C15.064 363.642 15.25 358.063 14.6921 357.133Z" fill="#F5AF86"/>
<path d="M13.205 365.316C21.2021 369.222 59.5135 354.902 74.7637 346.719C74.7637 346.719 74.9497 346.719 74.9497 346.533C76.0656 345.975 77.1814 345.231 78.2973 344.301C78.8552 343.929 79.2272 343.557 79.7851 343.185C89.456 334.63 93.1755 318.636 94.4774 305.618C95.5932 294.087 95.0353 284.788 95.0353 284.788C94.8493 281.626 93.9194 278.651 92.2456 276.233C87.9681 269.91 79.5991 266.934 71.2301 270.654C68.6264 271.77 66.2087 273.815 64.163 276.791C54.1202 291.855 69.7423 316.776 64.163 322.542C56.1659 331.097 11.9032 352.67 12.833 355.46C9.29946 360.109 13.205 365.316 13.205 365.316Z" fill="#050608"/>
<path d="M64.1622 276.977C54.1193 292.041 69.7415 316.962 64.3481 322.728C56.3511 331.283 12.4603 352.298 13.0182 355.646C12.8322 356.204 12.0883 356.762 11.9023 357.506C20.2714 357.692 32.3599 353.228 40.171 348.393C44.4485 345.789 48.54 342.627 52.6315 339.838C56.723 336.862 61.1865 334.072 65.092 330.539C71.6013 324.587 71.0433 317.706 69.3695 310.081C66.9518 299.109 64.3481 285.718 72.5312 275.861C73.0891 276.233 74.019 275.489 73.833 274.559C73.2751 272.886 72.3452 271.584 71.2293 270.84C68.4396 271.956 66.0219 273.815 64.1622 276.977Z" fill="#050608"/>
<path d="M9.85683 366.804C9.85683 366.804 12.2745 376.289 5.95129 380.753L0 358.435C0 358.435 4.46347 354.53 7.25314 357.877C7.25314 358.063 7.6251 364.944 9.85683 366.804Z" fill="#050608"/>
<path d="M0.744415 358.251L4.83593 373.501C6.32375 373.129 7.99756 372.943 9.48538 373.315C9.67136 373.315 9.48538 373.501 9.48538 373.501C7.99756 373.129 6.50973 373.315 5.02191 373.687L6.88169 380.382C6.88169 380.568 6.69571 380.568 6.69571 380.382L4.83593 373.687C4.64995 373.687 4.46398 373.687 4.278 373.873C4.09202 373.873 4.09202 373.687 4.278 373.687C4.46398 373.687 4.64995 373.501 4.83593 373.501L0.744415 358.251C0.744415 358.065 0.372459 358.251 0.744415 358.251Z" fill="#1A7E64"/>
<path d="M105.449 222.299C107.122 221.741 109.168 221.183 111.4 220.812C112.33 220.626 113.074 220.44 114.004 220.44C120.699 219.51 149.339 225.833 149.525 225.833C153.059 222.485 156.221 200.726 156.221 200.168C156.221 200.168 161.242 201.656 162.358 200.726C162.358 200.726 162.544 201.656 162.73 202.958C163.66 209.095 165.52 225.461 163.288 231.226C159.754 240.711 149.154 243.129 140.97 243.687C139.297 243.873 128.51 243.873 127.766 243.501C122.745 241.641 117.723 239.781 116.421 237.178C114.748 234.016 98.7535 224.531 105.449 222.299Z" fill="#F5AF86"/>
<path d="M159.941 203.702C161.243 203.516 161.057 202.586 161.615 201.656C162.359 200.54 166.264 198.867 166.45 197.379C166.636 195.333 163.661 198.495 163.289 197.193C163.103 196.821 168.124 192.915 165.148 193.101C164.404 193.101 161.801 195.147 162.173 193.845C163.103 192.915 165.706 190.87 164.776 189.94C164.218 189.382 162.731 190.498 161.987 191.056C158.825 194.217 159.755 192.171 161.987 190.126C163.103 189.196 162.731 188.08 161.243 188.638C157.895 189.754 156.035 194.031 155.663 197.193C155.292 198.495 157.151 203.888 159.941 203.702Z" fill="#F5AF86"/>
<path d="M156.407 196.077C156.407 195.519 156.221 194.961 156.221 194.403C156.221 193.845 156.035 193.101 155.663 192.543C155.105 191.8 154.548 192.543 154.362 193.101C154.176 194.403 155.291 197.193 155.663 198.309C155.663 198.681 156.407 196.635 156.407 196.077Z" fill="#F5AF86"/>
<path d="M140.785 243.686C148.968 243.314 159.569 240.711 163.103 231.226C165.52 225.46 163.475 209.094 162.545 202.957C162.359 202.957 162.173 203.143 161.987 203.329C161.615 203.329 161.243 203.701 161.243 204.259C160.685 208.35 161.243 212.628 161.057 216.719C160.871 220.811 160.127 224.902 158.825 228.808C157.151 234.015 154.548 236.433 149.526 238.479C146.551 239.781 143.203 240.153 140.413 242.012C140.041 242.384 140.227 243.314 140.785 243.686Z" fill="url(#paint0_linear_646_1402)"/>
<path d="M98.7543 211.141C98.7543 211.141 95.9646 228.251 110.471 239.409L119.398 250.568C119.398 250.568 132.788 232.714 131.672 223.043C131.858 223.043 119.026 213.558 98.7543 211.141Z" fill="#2FBA99"/>
<path d="M122.373 246.29L119.397 250.568L98.7539 211.326C98.7539 211.326 102.845 211.698 107.681 212.814C114.19 220.253 121.257 230.296 122.373 246.29Z" fill="#1A7E64"/>
<path d="M116.236 247.22C116.236 247.22 129.255 227.693 128.139 218.766L134.09 222.299C134.09 222.299 132.416 240.711 119.956 252.614L116.236 247.22Z" fill="#1A7E64"/>
<path d="M127.953 276.048C127.953 276.048 106.751 289.996 60.2567 287.393C60.2567 287.393 47.2382 212.444 86.8515 209.468C111.215 207.608 116.05 229.182 127.953 276.048Z" fill="#2FBA99"/>
<path d="M60.2561 287.391C60.2561 287.391 55.2347 253.171 61 238.293L67.8812 242.57C67.8812 242.57 66.0214 254.101 65.2775 262.656C63.7897 278.278 65.2775 287.577 65.2775 287.577L60.2561 287.391Z" fill="#1A7E64"/>
<path d="M75.5072 213.001C75.5072 213.001 79.7847 232.157 67.8822 242.758L67.3242 246.291C67.3242 246.291 72.3456 244.99 76.2512 236.435C81.4585 224.904 78.2969 211.513 78.2969 211.513L75.5072 213.001ZM92.2453 209.468C92.2453 209.468 95.4069 208.91 97.2667 210.398C97.2667 210.398 97.6386 213.559 93.1752 216.349C91.6873 213.001 88.8977 212.071 88.8977 212.071C88.8977 212.071 90.5715 211.699 92.2453 209.468Z" fill="#1A7E64"/>
<path d="M88.8966 212.071C88.8966 212.071 87.5948 215.046 87.4088 217.092C87.4088 217.092 81.4575 215.046 78.2959 211.699C78.2959 211.699 79.4118 210.769 80.8996 210.769C80.8996 210.583 84.2472 212.443 88.8966 212.071Z" fill="#1A7E64"/>
<path d="M29.9423 264.329C31.9881 276.046 69.3696 281.067 79.4124 279.952L78.2966 274.372C78.2966 274.372 53.1895 263.771 50.0279 261.168C44.8205 256.704 73.4612 242.942 70.4855 229.366C64.9062 203.329 25.8508 240.896 29.9423 264.329Z" fill="#F5AF86"/>
<path d="M37.9396 259.123C38.4976 267.864 59.885 266.562 60.443 266.562C54.4917 262.657 52.6319 264.33 50.0282 261.169C46.8666 257.449 60.071 247.964 60.071 247.964L58.3972 233.83C58.3972 233.83 37.3817 248.708 37.9396 259.123Z" fill="url(#paint1_linear_646_1402)"/>
<path d="M75.5066 213C75.5066 213 80.714 229.552 67.8815 242.756L61.3723 251.311C61.3723 251.311 46.494 237.549 46.1221 227.878C46.1221 227.878 55.6069 218.207 75.5066 213Z" fill="#2FBA99"/>
<path d="M61.5579 253.544L64.9055 248.336C64.9055 248.336 48.7254 238.479 48.7254 223.787L43.332 228.251C43.518 228.437 49.6553 245.733 61.5579 253.544Z" fill="#1A7E64"/>
<path d="M76.4364 278.279C76.9944 279.767 78.1103 279.395 79.4121 279.953C80.8999 280.697 85.3634 286.091 87.2232 285.533C89.8269 284.789 84.0615 281.813 85.5494 281.255C86.1073 281.069 91.3147 286.648 91.6866 284.417C91.8726 283.487 87.9671 279.209 89.4549 279.581C90.9427 280.697 94.4763 284.603 95.4062 283.301C95.9641 282.743 93.9184 279.767 92.9885 279.023C89.8269 276.42 91.3147 275.862 94.2903 278.093C95.9641 279.395 97.08 278.837 96.1501 276.978C93.9184 273.258 87.5951 272.328 83.5036 272.328C81.8298 272.328 75.3206 275.118 76.4364 278.279Z" fill="#F5AF86"/>
<path d="M80.1555 273.815C79.4116 274.559 80.5274 275.675 81.2714 275.303C82.3872 275.117 83.5031 274.745 84.433 274.001C84.9909 273.443 85.3629 272.885 85.9208 272.513C86.6647 271.769 87.7806 271.769 88.7105 271.583C89.2684 271.397 90.0123 270.653 89.4544 270.095C87.2226 267.306 81.8293 272.141 80.1555 273.815Z" fill="#F5AF86"/>
<path d="M91.1293 200.541L92.2451 209.282C92.2451 209.282 94.6629 212.815 92.8031 213.373C88.3396 214.861 81.2724 210.583 81.2724 210.583L79.5986 197.379L91.1293 200.541Z" fill="#F5AF86"/>
<path d="M80.7152 206.12L80.1572 201.656C80.1572 201.656 85.3646 205.004 90.758 204.632C90.758 204.632 85.9225 209.095 80.7152 206.12Z" fill="#E69E75"/>
<path d="M93.9197 181.384C93.9197 181.384 97.0813 190.125 97.0813 197.936C97.0813 203.515 86.2946 209.467 79.2274 200.912C71.9743 192.357 75.6938 180.826 75.6938 180.826L93.9197 181.384Z" fill="#F5AF86"/>
<path d="M91.6875 171.714C90.1997 172.086 89.0838 172.83 87.782 173.388C85.5503 174.503 83.5045 174.875 81.0868 175.247C78.1111 175.619 75.1355 176.177 73.0897 178.781C69.9281 182.686 69.7421 191.055 72.5318 195.705C72.7178 196.635 73.0897 197.379 74.2056 197.937C76.0654 198.681 77.9252 197.751 78.6691 196.077C79.7849 193.473 78.4831 190.126 78.2971 187.522C78.2971 186.964 78.2971 186.22 78.1111 185.476C85.1783 185.848 94.6632 186.034 98.7547 180.455C103.032 174.503 97.2669 170.598 91.6875 171.714Z" fill="#050608"/>
<path d="M421.054 398.05C421.426 396.934 429.237 396.562 429.423 396.934C429.981 398.422 432.027 404.002 431.469 404.931C430.911 405.861 423.472 406.977 422.914 405.489C422.542 404.374 420.682 398.98 421.054 398.05Z" fill="#F5AF86"/>
<path d="M461.969 333.331C461.969 335.19 461.597 337.236 461.039 339.096C459.923 343.374 457.506 346.721 454.158 348.767C450.253 351.185 445.231 351.929 439.652 351.185C429.237 349.511 419.566 351.557 416.777 354.16C416.405 354.532 416.033 354.904 416.033 355.276C416.033 355.462 416.033 355.462 416.033 355.648C417.706 367.551 430.353 388.752 431.655 399.725C431.469 400.097 430.725 400.469 429.609 400.841C429.237 401.027 428.679 401.027 428.121 401.213C424.402 401.957 419.38 402.701 419.38 402.701C411.197 380.383 397.993 368.295 395.017 351.743C394.645 349.697 394.459 347.651 394.645 345.791C394.831 344.117 395.017 342.63 395.389 341.142C400.968 322.172 431.655 316.779 431.655 316.779C433.701 309.897 448.021 311.385 456.204 319.754C459.924 322.73 462.155 327.565 461.969 333.331Z" fill="#050608"/>
<path d="M450.067 330.168C447.649 331.655 445.231 340.582 443.185 342.442C439.838 345.79 437.048 345.046 432.771 344.488C425.518 343.372 408.222 341.512 409.709 355.275C410.453 362.342 415.103 369.781 418.078 375.918C421.798 384.101 425.704 392.284 429.609 400.653C430.725 400.281 431.655 399.909 431.655 399.537C430.353 388.565 417.706 367.363 416.033 355.461C415.661 352.485 427.005 350.811 439.652 350.997C451.368 351.183 458.436 348.393 461.039 338.909C457.32 338.351 452.484 328.494 450.067 330.168ZM422.728 404.931C422.728 404.931 412.871 407.534 411.755 415.16L434.258 409.952C434.258 409.952 435.932 404.559 431.469 403.629C431.469 403.629 425.518 406.047 422.728 404.931Z" fill="#050608"/>
<path d="M434.073 409.21L418.637 412.743C418.265 411.255 417.707 409.768 416.591 408.466C416.405 408.28 416.405 408.466 416.405 408.652C417.335 409.954 418.079 411.255 418.451 412.743L411.756 414.231C411.57 414.231 411.57 414.417 411.756 414.417L418.451 412.929C418.451 413.115 418.451 413.301 418.637 413.487C418.637 413.673 418.823 413.673 418.823 413.487C418.823 413.301 418.823 413.115 418.637 412.929L434.073 409.396C434.259 409.582 434.259 409.21 434.073 409.21Z" fill="#1A7E64"/>
<path d="M533.943 400.282C534.687 399.352 542.126 401.026 542.126 401.584C542.312 403.071 542.684 409.023 541.94 409.767C541.196 410.51 533.757 409.581 533.571 408.093C533.571 406.605 533.385 401.026 533.943 400.282Z" fill="#F5AF86"/>
<path d="M535.431 408.277C527.434 412.183 489.122 397.863 473.872 389.68C473.872 389.68 473.686 389.68 473.686 389.494C472.57 388.936 471.454 388.192 470.338 387.262C469.781 386.89 469.409 386.518 468.851 386.146C459.18 377.591 455.46 361.597 454.158 348.579C453.042 337.048 453.6 327.749 453.6 327.749C453.786 324.587 454.716 321.612 456.39 319.194C460.668 312.871 469.037 309.895 477.406 313.615C480.009 314.731 482.427 316.776 484.473 319.752C494.516 334.816 478.893 359.737 484.473 365.503C492.47 374.058 536.733 395.631 535.803 398.421C539.336 403.07 535.431 408.277 535.431 408.277Z" fill="#050608"/>
<path d="M477.406 313.801C476.29 314.731 475.36 316.033 474.802 317.52C474.43 318.45 475.546 319.008 476.104 318.822C484.473 328.679 481.869 342.255 479.265 353.042C477.592 360.853 477.034 367.548 483.543 373.5C487.448 377.033 491.912 379.823 496.003 382.799C500.095 385.774 504.186 388.75 508.464 391.354C516.275 396.189 528.364 400.653 536.733 400.467C536.547 399.909 535.803 399.165 535.617 398.607C536.175 395.259 492.47 374.244 484.287 365.689C478.893 359.737 494.33 335.002 484.473 319.938C482.613 316.962 480.195 314.917 477.406 313.801Z" fill="#050608"/>
<path d="M538.778 409.767C538.778 409.767 536.36 419.252 542.684 423.715L548.635 401.398C548.635 401.398 544.172 397.493 541.382 400.84C541.382 401.026 541.01 407.907 538.778 409.767Z" fill="#050608"/>
<path d="M543.799 416.463C542.312 416.091 540.638 415.905 539.15 416.277C538.964 416.277 539.15 416.463 539.15 416.463C540.638 416.091 542.126 416.277 543.614 416.649L541.754 423.344C541.754 423.53 541.94 423.53 541.94 423.344L543.799 416.649C543.985 416.649 544.171 416.649 544.357 416.835C544.543 416.835 544.543 416.649 544.357 416.649C544.171 416.649 543.985 416.463 543.799 416.463Z" fill="#1A7E64"/>
<path d="M443.185 265.26C441.511 264.702 439.466 264.144 437.234 263.772C436.304 263.586 435.56 263.4 434.63 263.4C427.935 262.471 399.294 268.794 399.108 268.794C395.575 265.446 392.413 243.687 392.413 243.129C392.413 243.129 387.392 244.617 386.276 243.687C386.276 243.687 386.09 244.617 385.904 245.919C384.974 252.056 383.114 268.422 385.346 274.187C388.88 283.672 399.48 286.09 407.663 286.648C409.337 286.834 420.124 286.834 420.868 286.462C425.889 284.602 430.911 282.742 432.213 280.139C433.886 276.977 449.88 267.678 443.185 265.26Z" fill="#F5AF86"/>
<path d="M393.157 240.154C392.785 236.992 390.926 232.715 387.578 231.599C385.904 231.041 385.532 232.157 386.834 233.087C389.066 235.132 389.996 237.178 386.834 234.017C386.276 233.459 384.602 232.343 384.044 232.901C383.115 233.831 385.532 235.876 386.648 236.806C387.02 237.922 384.23 236.062 383.673 236.062C380.511 236.062 385.532 239.782 385.532 240.154C385.16 241.456 382.185 238.294 382.371 240.34C382.557 241.828 386.462 243.501 387.206 244.617C387.764 245.547 387.764 246.477 388.88 246.663C391.484 247.035 393.343 241.456 393.157 240.154Z" fill="#F5AF86"/>
<path d="M392.971 241.455C393.529 240.339 394.645 237.55 394.273 236.248C394.087 235.504 393.529 234.76 392.971 235.69C392.6 236.248 392.414 236.992 392.414 237.55C392.414 238.108 392.228 238.665 392.228 239.223C392.228 239.781 392.971 241.641 392.971 241.455Z" fill="#F5AF86"/>
<path d="M408.035 285.161C405.246 283.301 401.898 282.929 398.922 281.627C394.087 279.396 391.297 276.978 389.624 271.956C388.322 268.051 387.578 263.959 387.392 259.868C387.206 255.776 387.764 251.499 387.206 247.407C387.206 246.849 386.834 246.663 386.462 246.477C386.276 246.291 386.09 246.291 385.904 246.105C384.974 252.243 383.114 268.609 385.346 274.374C388.88 283.859 399.48 286.277 407.663 286.835C408.407 286.277 408.593 285.533 408.035 285.161Z" fill="url(#paint2_linear_646_1402)"/>
<path d="M449.881 254.289C449.881 254.289 452.67 271.399 438.164 282.558L429.237 293.716C429.237 293.716 415.847 275.862 416.963 266.192C416.777 266.006 429.609 256.521 449.881 254.289Z" fill="#E48035"/>
<path d="M426.262 289.253L429.237 293.53L449.881 254.289C449.881 254.289 445.789 254.661 440.954 255.777C434.445 263.216 427.378 273.445 426.262 289.253Z" fill="#E48035"/>
<path d="M432.399 290.183C432.399 290.183 419.38 270.655 420.496 261.729L414.545 265.262C414.545 265.262 416.219 283.674 428.679 295.577L432.399 290.183Z" fill="#E48035"/>
<path d="M420.683 319.009C420.683 319.009 441.884 332.957 488.379 330.354C488.379 330.354 501.397 255.405 461.784 252.429C437.421 250.755 432.585 272.143 420.683 319.009Z" fill="#E48035"/>
<path d="M488.378 330.54C488.378 330.54 493.399 296.32 487.634 281.441L480.753 285.719C480.753 285.719 482.613 297.25 483.357 305.805C484.844 321.427 483.357 330.726 483.357 330.726L488.378 330.54Z" fill="#E48035"/>
<path d="M473.128 255.962C473.128 255.962 468.851 275.118 480.753 285.719L481.311 289.252C481.311 289.252 476.29 287.951 472.384 279.396C467.177 267.865 470.338 254.475 470.338 254.475L473.128 255.962Z" fill="#E48035"/>
<path d="M456.389 252.614C456.389 252.614 453.228 252.056 451.368 253.544C451.368 253.544 450.996 256.706 455.459 259.495C456.947 256.148 459.737 255.218 459.737 255.218C459.737 255.218 458.063 254.846 456.389 252.614ZM459.737 255.032C459.737 255.032 461.039 258.008 461.225 260.053C461.225 260.053 467.176 258.008 470.338 254.66C470.338 254.66 469.222 253.73 467.734 253.73C467.734 253.73 464.386 255.59 459.737 255.032Z" fill="#F68D3D"/>
<path d="M518.693 307.292C516.647 319.009 479.265 324.03 469.223 322.914L470.339 317.335C470.339 317.335 495.446 306.734 498.607 304.131C503.815 299.667 475.174 285.905 478.15 272.328C483.729 246.292 522.784 283.859 518.693 307.292Z" fill="#F5AF86"/>
<path d="M510.696 302.086C510.138 310.827 488.75 309.525 488.192 309.525C494.144 305.62 496.003 307.293 498.607 304.132C501.769 300.412 488.564 290.927 488.564 290.927L490.238 276.793C490.238 276.793 511.254 291.671 510.696 302.086Z" fill="url(#paint3_linear_646_1402)"/>
<path d="M473.128 255.963C473.128 255.963 467.921 272.515 480.753 285.719L487.262 294.274C487.262 294.274 502.141 280.512 502.513 270.841C502.513 270.841 493.028 261.356 473.128 255.963Z" fill="#E48035"/>
<path d="M487.076 296.506L483.729 291.299C483.729 291.299 499.909 281.442 499.909 266.75L505.302 271.213C505.116 271.399 498.979 288.695 487.076 296.506Z" fill="#E48035"/>
<path d="M465.131 315.291C461.039 315.291 454.716 316.221 452.484 319.94C451.369 321.8 452.67 322.172 454.344 321.056C457.506 318.639 458.808 319.197 455.646 321.986C454.716 322.73 452.67 325.706 453.228 326.264C454.344 327.566 457.692 323.474 459.18 322.544C460.853 322.172 456.762 326.45 456.948 327.38C457.32 329.611 462.527 324.032 463.085 324.218C464.573 324.776 458.808 327.566 461.411 328.495C463.271 329.053 467.735 323.66 469.222 322.916C470.524 322.358 471.826 322.544 472.198 321.242C473.314 318.081 466.805 315.291 465.131 315.291Z" fill="#F5AF86"/>
<path d="M468.479 316.964C469.223 317.707 468.107 318.823 467.363 318.451C466.247 318.265 465.131 317.893 464.201 317.15C463.644 316.592 463.272 316.034 462.714 315.662C461.97 314.918 460.854 314.918 459.924 314.732C459.366 314.546 458.622 313.802 459.18 313.244C461.412 310.268 466.805 315.104 468.479 316.964Z" fill="#F5AF86"/>
<path d="M457.506 243.501L456.39 252.242C456.39 252.242 453.972 255.776 455.832 256.334C460.296 257.822 467.363 253.544 467.363 253.544L469.036 240.34L457.506 243.501Z" fill="#F5AF86"/>
<path d="M467.921 249.083L468.479 244.619C468.479 244.619 463.271 247.967 457.878 247.595C457.878 247.781 462.713 252.058 467.921 249.083Z" fill="#E69E75"/>
<path d="M454.716 224.533C454.716 224.533 451.555 233.274 451.555 241.085C451.555 246.664 462.341 252.615 469.409 244.06C476.662 235.505 472.942 223.975 472.942 223.975L454.716 224.533Z" fill="#F5AF86"/>
<path d="M449.695 223.23C453.786 228.81 463.271 228.624 470.338 228.252C470.338 228.996 470.338 229.739 470.152 230.297C469.966 232.901 468.665 236.249 469.78 238.852C470.524 240.526 472.384 241.456 474.244 240.712C475.36 240.154 475.732 239.41 475.918 238.48C478.707 233.831 478.521 225.462 475.36 221.556C473.314 219.139 470.524 218.581 467.363 218.023C464.945 217.651 462.899 217.465 460.668 216.163C459.366 215.419 458.25 214.675 456.762 214.489C451.369 213.745 445.603 217.651 449.695 223.23Z" fill="#050608"/>
<defs>
<linearGradient id="paint0_linear_646_1402" x1="138.268" y1="224.766" x2="165.05" y2="221.545" gradientUnits="userSpaceOnUse">
<stop stop-color="#E69E75"/>
<stop offset="1" stop-color="#E69E75" stop-opacity="0"/>
</linearGradient>
<linearGradient id="paint1_linear_646_1402" x1="53.9357" y1="242.719" x2="50.1628" y2="259.381" gradientUnits="userSpaceOnUse">
<stop stop-color="#E69E75"/>
<stop offset="1" stop-color="#E69E75" stop-opacity="0"/>
</linearGradient>
<linearGradient id="paint2_linear_646_1402" x1="410.792" y1="267.9" x2="384.013" y2="264.679" gradientUnits="userSpaceOnUse">
<stop stop-color="#E69E75"/>
<stop offset="1" stop-color="#E69E75" stop-opacity="0"/>
</linearGradient>
<linearGradient id="paint3_linear_646_1402" x1="495.126" y1="285.853" x2="498.901" y2="302.514" gradientUnits="userSpaceOnUse">
<stop stop-color="#E69E75"/>
<stop offset="1" stop-color="#E69E75" stop-opacity="0"/>
</linearGradient>
</defs>
</svg>
