<svg width="65" height="65" viewBox="0 0 65 65" fill="none" xmlns="http://www.w3.org/2000/svg">
<rect opacity="0.5" width="65" height="65" rx="32.5" fill="#E23A9A"/>
<path d="M33.3083 15C29.6249 15 26.5791 18.4 26.5791 22.5792C26.5791 24.0667 26.9333 26.4042 27.5708 28.8125C27.9249 28.4583 28.3499 28.1042 28.7749 27.8917C27.9958 26.6875 27.5708 25.1292 27.5708 23.3583C27.5708 21.5167 28.0666 20.3833 28.4916 19.25H38.0541C38.4791 20.3125 38.9749 21.5167 38.9749 23.3583C38.9749 25.0583 38.4791 26.6167 37.6999 27.8917C38.1249 28.175 38.5499 28.4583 38.9041 28.8833C39.5416 26.475 39.8958 24.0667 39.8958 22.5792C40.0374 18.4 36.9916 15 33.3083 15Z" fill="#772956"/>
<path d="M37.5583 23.4292C37.5583 22.5083 37.3458 21.5875 37.0625 20.8083H29.5542C29.2708 21.5875 29.0583 22.5083 29.0583 23.4292C29.0583 26.6167 30.9708 29.2375 33.3083 29.2375C35.6458 29.1667 37.5583 26.6167 37.5583 23.4292ZM40.4625 31.5042L40.1792 33.0625H42.0917C41.5958 32.425 41.1 31.9292 40.4625 31.5042ZM24.5958 33.0625H26.5083L26.225 31.5042C25.5167 31.8583 25.0208 32.425 24.5958 33.0625ZM32.175 30.5125L32.4583 32.3542C32.9542 32.5667 33.5917 32.5667 34.0875 32.3542L34.3708 30.5125C33.6625 30.725 32.9542 30.6542 32.175 30.5125ZM38.975 31.2917C38.2667 30.3 37.9125 29.5917 36.85 29.025C36.5667 29.3083 36.2833 29.5208 36 29.7333L35.5042 32.9917H38.6917L38.975 31.2917ZM29.7667 29.0958C28.7042 29.5917 28.35 30.3708 27.6417 31.2917L27.9958 32.9917H31.1833L30.6875 29.7333C30.2625 29.5917 29.9792 29.3792 29.7667 29.0958ZM19 48.2917C19 48.7167 19.3542 49 19.7083 49H46.9083C47.3333 49 47.6167 48.6458 47.6167 48.2917C47.6167 47.9375 47.2625 47.5833 46.9083 47.5833H19.7083C19.3542 47.5833 19 47.8667 19 48.2917ZM21.6208 36.25L22.9667 46.0958H43.5792L44.9958 36.25C45.1375 35.3292 44.4292 34.4792 43.4375 34.4792H23.1792C22.2583 34.4792 21.55 35.3292 21.6208 36.25ZM33.3083 38.8708C34.725 38.8708 35.8583 40.0042 35.8583 41.4208C35.8583 42.8375 34.725 43.9708 33.3083 43.9708C31.8917 43.9708 30.7583 42.8375 30.7583 41.4208C30.7583 40.0042 31.8917 38.8708 33.3083 38.8708Z" fill="#772956"/>
</svg>
