<svg width="65" height="65" viewBox="0 0 65 65" fill="none" xmlns="http://www.w3.org/2000/svg">
<rect opacity="0.5" width="65" height="65" rx="32.5" fill="#8D9FDB"/>
<path d="M27 43H39V40H27V43ZM27 37H39V34H27V37ZM24 49C23.175 49 22.4688 48.7063 21.8813 48.1188C21.2938 47.5312 21 46.825 21 46V22C21 21.175 21.2938 20.4688 21.8813 19.8813C22.4688 19.2938 23.175 19 24 19H36L45 28V46C45 46.825 44.7063 47.5312 44.1188 48.1188C43.5312 48.7063 42.825 49 42 49H24ZM34.5 29.5V22H24V46H42V29.5H34.5Z" fill="#475585"/>
</svg>
