<svg width="65" height="65" viewBox="0 0 65 65" fill="none" xmlns="http://www.w3.org/2000/svg">
<rect width="65" height="65" rx="32.5" fill="#3AB8FF" fill-opacity="0.54"/>
<path d="M22.3999 33.4667V41.6667C27.9332 44.8 35.4666 44.8 41.0666 41.6667V33.4667L31.7332 38.0667L22.3999 33.4667Z" fill="#074669"/>
<path d="M48 45.6667L46.2 38.9333C46.5333 38.6 46.7333 38.1333 46.7333 37.6C46.7333 36.8667 46.3333 36.2667 45.8 35.8667V29.5333L47.4667 28.6667L31.7333 21L16 28.7333L31.7333 36.4667L43.5333 30.6667V35.8667C42.9333 36.2 42.6 36.8667 42.6 37.6C42.6 38.1333 42.8 38.6 43.1333 38.9333L41.3333 45.6667H48Z" fill="#074669"/>
</svg>
