<svg width="485" height="308" viewBox="0 0 485 308" fill="none" xmlns="http://www.w3.org/2000/svg">
<path d="M342.55 139.792L342.545 139.777C343.541 139.364 344.702 139.486 345.794 139.49C346.781 139.56 347.761 139.28 348.562 138.699C350.024 138.689 351.3 139.811 351.927 141.132C352.469 142.498 352.746 143.954 352.743 145.424C354.99 183.176 355.172 221.023 353.287 258.795L353.413 259.494C351.126 259.903 348.814 260.158 346.493 260.257C344.299 260.349 342.017 260.344 339.754 260.437C337.856 260.489 335.965 260.682 334.097 261.014L334.072 260.883C334.765 225.692 335.461 190.503 336.16 155.315C336.219 152.353 336.282 149.343 337.161 146.517C338.04 143.69 339.856 141.015 342.55 139.792Z" fill="url(#paint0_linear_646_2366)"/>
<path d="M348.89 146.804C351.249 180.23 350.855 213.794 347.713 247.155" stroke="white" stroke-width="3" stroke-linecap="round" stroke-linejoin="round"/>
<path d="M139.306 122.287C141.865 125.011 141.981 129.148 141.952 132.882C141.666 165.872 141.383 198.858 141.103 231.841L141.084 232.434C136.199 232.283 131.333 231.747 126.533 230.832L126.655 230.234C126.742 204.349 126.831 178.462 126.921 152.577C126.956 142.822 127.018 132.884 130.024 123.603L130.146 123.428C131.364 124.21 133.03 124.176 134.526 124.079C135.9 123.986 137.376 123.855 138.41 122.947C138.64 122.743 138.841 122.507 139.007 122.248L139.306 122.287Z" fill="#171717"/>
<path d="M139.881 129.962L137.857 220.442" stroke="white" stroke-width="3" stroke-linecap="round" stroke-linejoin="round"/>
<path d="M160.973 233.726C162.46 234.206 163.864 234.914 165.134 235.823C167.736 237.783 169.679 240.49 170.704 243.583C172.355 248.099 172.695 253.401 172.826 258.281C172.957 263.452 172.99 268.988 170.638 273.499C170.334 274.092 169.987 274.662 169.598 275.203C165.014 281.637 156.007 282.846 148.112 282.574C133.743 282.074 119.652 278.581 105.809 274.703C92.3292 270.925 78.7042 266.643 67.2788 258.558C54.4305 249.468 45.0542 235.877 40.0233 220.965C34.9925 206.053 34.1705 189.895 36.5225 174.335C38.3971 161.944 42.3301 149.698 49.3953 139.35C56.4605 129.002 66.8608 120.66 78.9711 117.451C81.5738 116.761 84.4194 116.208 86.2464 114.227C87.3191 113.061 87.9022 111.527 88.9071 110.303C89.6778 109.385 90.6323 108.64 91.7089 108.115C103.022 112.465 114.894 115.191 126.971 116.211L127.558 116.104C127.753 117.469 128.008 118.82 128.324 120.159C128.489 121.203 128.934 122.183 129.611 122.995C129.774 123.158 129.953 123.304 130.145 123.432L130.024 123.607C127.015 132.886 126.955 142.826 126.921 152.581C126.834 178.467 126.745 204.353 126.654 230.238L126.532 230.836C131.333 231.751 136.198 232.288 141.083 232.438C143.074 232.511 145.059 232.53 147.045 232.511C151.703 232.463 156.656 232.294 160.973 233.726Z" fill="url(#paint1_linear_646_2366)"/>
<path d="M98.0808 156.968C84.4755 168.172 78.4682 187.792 83.4684 204.692C88.4687 221.592 104.186 234.786 121.697 236.782" stroke="white" stroke-width="3" stroke-linecap="round" stroke-linejoin="round"/>
<path d="M334.61 76.4941C336.065 76.9673 337.478 77.5603 338.834 78.2665C341.06 79.32 343.373 80.175 345.749 80.8205C349.719 81.9435 353.837 82.4511 357.961 82.3258C361.841 82.1508 365.536 80.2188 369.134 78.9562C371.231 78.1582 373.451 77.7326 375.694 77.6981C377.007 77.6976 378.307 77.9618 379.516 78.4754C382.376 79.7232 384.376 82.491 385.27 85.4821C386.163 88.4732 386.081 91.6683 385.678 94.7616C384.901 100.768 382.788 106.896 378.273 110.936C376.373 112.585 374.2 113.893 371.854 114.801C369.729 115.632 367.54 116.289 365.308 116.762C361.015 117.702 356.651 118.285 352.261 118.506C349.721 118.637 347.177 118.661 344.637 118.593C343.627 118.564 342.603 118.516 341.574 118.429C339.544 118.277 337.536 117.906 335.587 117.322C333.174 116.639 330.988 115.323 329.255 113.51C326.128 110.106 325.317 105.222 324.86 100.623C324.195 93.9028 324.04 86.8387 326.861 80.7001C327.643 79.0044 328.75 77.3158 330.464 76.5778C331.794 76.0669 333.261 76.0374 334.61 76.4941ZM371.465 91.0939C371.465 87.3791 366.663 84.3657 360.734 84.3657C354.806 84.3657 350.003 87.3742 350.003 91.0939C350.003 94.8136 354.805 97.8189 360.734 97.8189C366.663 97.8189 371.465 94.8081 371.465 91.0939Z" fill="#171717"/>
<path d="M335.324 18.2486C340.341 21.1116 344.749 24.9271 348.303 29.4798C347.025 27.6632 346.139 25.5999 345.704 23.4222C345.269 21.244 345.292 18.9991 345.773 16.8307C346.102 15.374 347.299 13.6455 348.678 14.2133C349.194 14.4933 349.61 14.9282 349.867 15.4566C353.106 20.6762 356.342 25.8947 359.578 31.1116C360.758 29.7714 360.986 27.8727 361.712 26.2459C362.437 24.6191 364.247 23.1044 365.864 23.8522C366.883 24.3281 367.359 25.5173 367.514 26.6343C367.67 27.7513 367.597 28.9115 367.961 29.9749C368.845 32.5458 371.845 33.6459 374.521 34.1366C377.198 34.6272 380.173 34.9669 381.999 36.981C383.291 38.3989 383.727 40.3725 384.121 42.2493C386.053 51.543 387.989 60.8368 389.928 70.1305C388.029 68.7373 386.129 67.3467 384.228 65.9595C384.325 67.6006 385.641 68.868 386.461 70.2957C387.282 71.7234 387.326 74.0105 385.772 74.5542C384.883 74.8698 383.926 74.4235 383.092 73.9864C381.077 72.9372 379.063 71.888 377.051 70.8394L376.915 70.8203C377.638 66.1526 378.015 61.4379 378.042 56.7145C378.066 53.6846 377.891 50.4649 376.172 47.9694C374.021 44.8618 370.025 43.677 366.296 43.0939C358.226 41.8314 349.94 42.3899 341.896 40.9819C340.827 40.7926 339.759 40.5645 338.691 40.2828C331.738 38.4618 325.11 34.6403 322.062 28.2452C321.911 28.0199 321.819 27.7617 321.791 27.4925C321.765 27.2234 321.804 26.9515 321.906 26.701C322.227 26.1819 322.965 26.1573 323.577 26.2087C327.591 26.5555 331.524 27.5461 335.225 29.1412C333.363 26.7251 332.134 23.8828 331.647 20.872C331.467 19.731 331.53 18.3011 332.55 17.7541C333.416 17.2968 334.469 17.7628 335.324 18.2486Z" fill="#171717"/>
<path d="M342.81 130.007C342.383 129.982 341.977 129.816 341.654 129.536C341.081 128.989 341.081 128.089 341.12 127.298C341.261 124.413 341.405 121.529 341.551 118.645L341.572 118.426C342.601 118.513 343.625 118.562 344.634 118.59C347.174 118.658 349.718 118.634 352.258 118.502L352.287 118.983C352.282 121.668 352.279 124.354 352.277 127.038C352.272 127.85 352.238 128.753 351.666 129.33C351.148 129.76 350.488 129.98 349.816 129.947C349.67 129.957 349.529 129.962 349.388 129.962C347.49 129.986 345.586 130.016 343.688 130.039C343.395 130.051 343.101 130.04 342.81 130.007Z" fill="url(#paint2_linear_646_2366)"/>
<path d="M349.39 129.963C349.531 129.963 349.671 129.959 349.817 129.949L349.837 130.294C349.696 132.304 349.557 134.314 349.419 136.325C349.427 136.987 349.272 137.64 348.967 138.228C348.857 138.405 348.72 138.564 348.56 138.699C347.759 139.28 346.779 139.56 345.792 139.49C344.698 139.486 343.539 139.364 342.543 139.777C342.456 139.811 342.374 139.855 342.286 139.898C342.132 136.592 342.309 133.278 342.811 130.007C343.102 130.04 343.396 130.052 343.689 130.041C345.591 130.017 347.492 129.988 349.39 129.963Z" fill="url(#paint3_linear_646_2366)"/>
<path d="M264.296 86.0239C267.086 89.6221 267.414 94.5261 267.228 99.0761C266.33 121.121 256.002 142.2 240.877 158.263C230.204 169.606 216.808 178.831 201.638 182.357C186.467 185.884 169.449 183.11 157.557 173.053L156.752 173.126C154.998 153.703 152.863 134.32 150.347 114.974C150.07 112.828 149.785 110.683 149.492 108.541L149.555 108.531C152.716 117.83 157.417 126.812 164.579 133.523C171.741 140.234 181.627 144.458 191.382 143.332C202.065 142.103 211.281 134.679 217.037 125.599C222.793 116.518 225.571 105.894 227.749 95.3668C228.555 91.4874 229.414 87.3454 232.197 84.5289C234.081 82.6143 236.548 81.6007 239.198 81.057C241.435 80.6418 243.703 80.4241 245.977 80.4066C250.522 80.2901 255.523 80.5083 259.529 82.3441C261.396 83.1613 263.033 84.4249 264.296 86.0239Z" fill="url(#paint4_linear_646_2366)"/>
<path d="M264.013 85.893C266.802 89.4912 267.131 94.3952 266.945 98.9452C266.047 120.99 255.719 142.069 240.593 158.132C229.921 169.475 216.525 178.7 201.355 182.226C186.184 185.753 169.166 182.979 157.274 172.923L156.468 172.995C154.715 153.573 152.58 134.189 150.063 114.844C149.787 112.697 149.502 110.552 149.209 108.41L149.272 108.4C152.433 117.699 157.134 126.682 164.296 133.392C171.458 140.103 181.344 144.327 191.099 143.201C201.782 141.972 210.998 134.548 216.754 125.468C222.51 116.387 225.287 105.763 227.466 95.236C228.272 91.3566 229.131 87.2146 231.913 84.398C233.797 82.4835 236.264 81.4699 238.915 80.9261C241.151 80.511 243.42 80.2932 245.694 80.2757C250.238 80.1592 255.24 80.3775 259.246 82.2133C261.112 83.0305 262.75 84.2941 264.013 85.893Z" fill="url(#paint5_linear_646_2366)"/>
<path d="M164.127 29.7516C166.54 32.3882 165.039 36.9771 162.073 38.9726C159.107 40.9681 155.314 41.106 151.734 41.1721L150.943 41.1869C141.266 41.3713 131.587 41.5572 121.906 41.7454C118.808 41.8034 115.389 41.9926 113.18 44.1632C110.699 46.6012 110.733 50.5392 110.869 54.0154C111.204 62.5034 111.153 70.993 110.718 79.4838L110.616 79.4788C107.858 79.4499 107.217 83.4895 104.532 84.1285C102.735 84.5557 100.856 83.1187 100.38 81.3387C99.9045 79.5587 100.594 77.619 101.74 76.1722C102.886 74.7253 104.44 73.6668 105.969 72.6325C103.935 72.2441 102.104 73.7637 100.274 74.7253C98.4434 75.687 95.5492 75.74 94.9322 73.7637C94.4612 72.2441 95.7483 70.8098 96.7821 69.5976C99.0085 66.9588 100.415 63.7265 100.83 60.2984C101.573 54.0734 99.043 47.3096 101.889 41.7252C104.142 37.3064 109.218 35.01 114.13 34.3591C119.041 33.7081 124.03 34.3689 128.983 34.195C133.936 34.021 139.185 32.8209 142.594 29.2276C144.381 27.3486 145.774 24.7656 148.283 24.1147C149.198 23.8718 150.168 23.9292 151.048 24.2788C151.929 24.6278 152.675 25.2508 153.175 26.0555C153.675 26.8601 153.903 27.8043 153.827 28.7484C153.75 29.6931 153.373 30.588 152.75 31.3013C152.327 31.641 151.914 31.9905 151.502 32.3406C151.983 32.0814 152.407 31.728 152.75 31.3013C154.141 30.0815 155.742 29.1237 157.475 28.4743C159.742 27.7266 162.514 27.9941 164.127 29.7516Z" fill="#171717"/>
<path d="M156.756 173.126C158.576 193.293 159.983 213.493 160.976 233.725C156.659 232.293 151.706 232.463 147.049 232.507C145.063 232.526 143.077 232.507 141.087 232.434L141.107 231.842C141.388 198.857 141.671 165.87 141.956 132.882C141.985 129.148 141.869 125.011 139.31 122.287L139.014 122.248C139.732 121.141 139.849 119.65 139.902 118.291C139.927 117.64 139.951 117.024 139.975 116.426H140.009C143.388 116.454 146.752 115.981 149.992 115.023L150.352 114.975C152.866 134.315 155.001 153.699 156.756 173.126Z" fill="url(#paint6_linear_646_2366)"/>
<path d="M139.973 116.426C140.109 112.969 140.206 110.259 140.264 106.486L140.366 105.826C143.377 106.321 146.363 106.928 149.325 107.647L149.38 107.642C149.418 107.943 149.457 108.239 149.496 108.54C149.788 110.686 150.073 112.831 150.351 114.974L149.991 115.023C146.751 115.98 143.387 116.454 140.008 116.426H139.973Z" fill="url(#paint7_linear_646_2366)"/>
<path d="M140.366 105.826L140.265 106.486C140.207 110.26 140.109 112.968 139.973 116.426C139.949 117.023 139.925 117.64 139.9 118.29C139.846 119.65 139.731 121.14 139.012 122.248C138.846 122.507 138.645 122.742 138.415 122.947C137.38 123.855 135.904 123.986 134.531 124.078C133.035 124.175 131.37 124.209 130.151 123.427C129.959 123.299 129.78 123.153 129.617 122.99C128.939 122.178 128.495 121.198 128.33 120.154C128.015 118.814 127.759 117.462 127.564 116.1C127.009 112.287 126.92 108.421 127.297 104.587L127.307 104.393C129.992 104.543 132.668 104.781 135.333 105.106C137.017 105.311 138.695 105.551 140.366 105.826Z" fill="#171717"/>
<path d="M127.56 116.1L126.973 116.207C114.896 115.187 103.024 112.461 91.7109 108.111C93.4876 107.292 95.3688 106.722 97.3009 106.415C101.03 105.692 104.786 105.148 108.566 104.784C114.793 104.179 121.058 104.048 127.304 104.395L127.295 104.589C126.917 108.423 127.006 112.288 127.56 116.1Z" fill="url(#paint8_linear_646_2366)"/>
<path d="M126.587 80.1788L126.397 80.5617C122.945 81.7367 120.76 85.3054 121.678 88.8358L121.605 89.1613C121.073 89.042 120.561 88.8473 120.085 88.5831C119.028 87.9398 118.144 87.0509 117.506 85.9913C116.869 84.9318 116.497 83.7338 116.424 82.4992C116.312 80.0147 117.018 77.5619 118.434 75.5166C119.274 74.2393 120.76 72.9768 122.173 73.5643C123.469 74.1037 123.717 75.7786 124.203 77.0997C124.675 78.3392 125.505 79.4102 126.587 80.1788Z" fill="#171717"/>
<path d="M129.844 73.6614C130.616 74.8511 132.621 74.448 133.413 73.2785C134.205 72.1089 134.151 70.5735 134.063 69.1605C133.753 64.116 133.443 59.0725 133.133 54.0302C133.051 52.7436 132.983 51.4045 133.508 50.2279C134.231 48.6208 135.954 47.6498 137.693 47.3731C139.431 47.0963 141.204 47.3922 142.944 47.6887" stroke="#171717" stroke-width="3" stroke-linecap="round" stroke-linejoin="round"/>
<path d="M127.514 48.3975C127.143 47.7357 126.593 47.1914 125.926 46.8282C125.259 46.465 124.504 46.297 123.746 46.3435C122.989 46.39 122.26 46.6498 121.643 47.0924C121.026 47.5344 120.547 48.1421 120.26 48.8445" stroke="#171717" stroke-width="3" stroke-linecap="round" stroke-linejoin="round"/>
<path d="M125.556 58.1963L125.09 54.54" stroke="#171717" stroke-width="3" stroke-linecap="round" stroke-linejoin="round"/>
<path d="M140.803 59.5756V54.7783" stroke="#171717" stroke-width="3" stroke-linecap="round" stroke-linejoin="round"/>
<path d="M132.195 81.4063C131.226 81.6092 130.226 81.6048 129.259 81.3931C128.292 81.1815 127.381 80.7674 126.587 80.1782C125.505 79.4102 124.676 78.3386 124.203 77.0997C123.717 75.7786 123.469 74.1037 122.173 73.5643C120.76 72.9768 119.274 74.2393 118.434 75.5166C117.018 77.5619 116.312 80.0147 116.424 82.4992C116.497 83.7338 116.869 84.9318 117.506 85.9913C118.144 87.0509 119.028 87.9398 120.085 88.5831C120.561 88.8473 121.073 89.042 121.605 89.1613C122.535 89.4009 123.512 89.3987 124.442 89.1547C125.372 88.9113 126.223 88.4332 126.917 87.7675" stroke="#171717" stroke-width="3" stroke-linecap="round" stroke-linejoin="round"/>
<path d="M121.679 88.8356C120.761 85.3052 122.946 81.7365 126.398 80.5615" stroke="#171717" stroke-width="3" stroke-linecap="round" stroke-linejoin="round"/>
<path d="M135.429 104.337C135.313 101.564 135.196 98.7523 135.803 96.0479C136.41 93.3435 137.833 90.702 140.183 89.2256C142.888 87.5359 146.651 87.4204 148.569 84.8697C149.627 83.4666 149.856 81.6265 150.03 79.8733C151.304 67.2094 151.612 54.4668 150.953 41.7559" stroke="#171717" stroke-width="3" stroke-linecap="round" stroke-linejoin="round"/>
<path d="M152.75 31.3003C153.373 30.587 153.75 29.6921 153.827 28.7474C153.903 27.8033 153.675 26.8591 153.175 26.0545C152.675 25.2498 151.929 24.6268 151.048 24.2778C150.168 23.9282 149.198 23.8708 148.283 24.1137C145.772 24.7646 144.379 27.3476 142.594 29.2266C139.185 32.8199 133.936 34.0195 128.983 34.194C124.03 34.3685 119.044 33.7088 114.13 34.3581C109.215 35.0074 104.142 37.3054 101.889 41.7242C99.044 47.3086 101.573 54.0724 100.83 60.2974C100.415 63.7256 99.0085 66.9579 96.7821 69.5966C95.7483 70.8105 94.4612 72.2431 94.9322 73.7627C95.5492 75.739 98.438 75.6904 100.274 74.7244C102.109 73.7583 103.935 72.2431 105.969 72.6315C104.438 73.6659 102.881 74.7194 101.74 76.1712C100.599 77.623 99.9094 79.5506 100.38 81.3377C100.851 83.1248 102.735 84.5569 104.532 84.1275C107.217 83.4864 107.858 79.4467 110.616 79.4779" stroke="#171717" stroke-width="3" stroke-linecap="round" stroke-linejoin="round"/>
<path d="M152.746 31.3008C152.323 31.6405 151.91 31.99 151.498 32.3401C151.979 32.0808 152.404 31.7269 152.746 31.3008Z" stroke="#171717" stroke-width="3" stroke-linecap="round" stroke-linejoin="round"/>
<path d="M108.451 103.651C109.553 95.6339 110.309 87.5781 110.719 79.4839C111.151 71.0009 111.202 62.5112 110.87 54.0156C110.733 50.5393 110.699 46.6014 113.181 44.1633C115.39 41.9928 118.808 41.8035 121.907 41.7456C131.589 41.5563 141.268 41.3698 150.944 41.1871L151.735 41.1723C155.314 41.1045 159.111 40.9683 162.074 38.9728C165.036 36.9773 166.541 32.3884 164.128 29.7518C162.515 27.9942 159.743 27.7278 157.475 28.4745C155.743 29.1233 154.141 30.0811 152.75 31.3009" stroke="#171717" stroke-width="3" stroke-linecap="round" stroke-linejoin="round"/>
<path d="M106.321 157.442C101.975 159.815 98.1484 163.034 95.066 166.909C91.983 170.785 89.7069 175.238 88.3711 180.006C87.0359 184.774 86.6677 189.761 87.2891 194.674C87.9105 199.587 89.5089 204.326 91.9896 208.611C97.2486 217.692 106.256 224.222 116.084 227.903C119.482 229.163 122.979 230.142 126.538 230.831C131.338 231.747 136.204 232.283 141.088 232.433C143.079 232.506 145.065 232.526 147.051 232.506C151.707 232.462 156.66 232.293 160.977 233.725C162.464 234.206 163.868 234.913 165.138 235.823C167.74 237.783 169.683 240.489 170.708 243.582C172.359 248.098 172.699 253.4 172.83 258.28C172.961 263.452 172.994 268.987 170.642 273.498C170.338 274.091 169.991 274.661 169.602 275.203C165.018 281.637 156.011 282.845 148.116 282.574C133.747 282.074 119.656 278.58 105.813 274.703C92.3331 270.924 78.7081 266.642 67.2827 258.557C54.4345 249.467 45.0582 235.876 40.0273 220.964C34.9964 206.052 34.1743 189.894 36.5264 174.335C38.401 161.943 42.334 149.697 49.3992 139.349C56.4645 129.002 66.8648 120.66 78.9751 117.45C81.5778 116.76 84.4233 116.207 86.2504 114.226C87.323 113.06 87.9062 111.526 88.911 110.302C89.6812 109.385 90.6358 108.64 91.7128 108.114C93.489 107.294 95.3691 106.723 97.3006 106.415C101.03 105.692 104.785 105.148 108.566 104.784C114.793 104.179 121.057 104.048 127.304 104.395C129.989 104.545 132.665 104.783 135.33 105.109C137.015 105.313 138.693 105.553 140.363 105.828C143.374 106.322 146.36 106.93 149.322 107.649" stroke="#171717" stroke-width="3" stroke-linecap="round" stroke-linejoin="round"/>
<path d="M149.365 107.545C149.37 107.579 149.375 107.608 149.38 107.642C149.419 107.943 149.458 108.239 149.497 108.54C149.788 110.686 150.073 112.831 150.351 114.974C152.867 134.315 155.002 153.699 156.756 173.126C158.576 193.292 159.983 213.492 160.976 233.725C160.98 233.794 160.98 233.862 160.985 233.929" stroke="#171717" stroke-width="3" stroke-linecap="round" stroke-linejoin="round"/>
<path d="M149.559 108.531C152.72 117.83 157.42 126.812 164.582 133.523C171.744 140.234 181.63 144.458 191.386 143.332C202.068 142.103 211.285 134.679 217.041 125.599C222.797 116.518 225.574 105.894 227.752 95.3668C228.559 91.4874 229.418 87.3454 232.2 84.5289C234.084 82.6143 236.551 81.6007 239.202 81.057C241.438 80.6418 243.706 80.4241 245.98 80.4066C250.525 80.2901 255.526 80.5083 259.533 82.3441C261.398 83.1619 263.034 84.4255 264.296 86.0244C267.086 89.6227 267.414 94.5266 267.229 99.0767C266.33 121.121 256.002 142.2 240.877 158.263C230.204 169.606 216.808 178.831 201.638 182.358C186.468 185.884 169.449 183.11 157.558 173.054" stroke="#171717" stroke-width="3" stroke-linecap="round" stroke-linejoin="round"/>
<path d="M239.086 80.5179C232.313 75.5165 220.781 64.4018 222.941 61.3861C224.188 59.6461 230.31 62.9046 233.474 64.9395C236.638 66.9738 239.25 69.7598 241.078 73.0479C238.085 60.2226 231.319 33.9299 236.527 33.9299C241.82 33.2161 244.923 55.3876 247.541 66.5866C246.327 55.9805 243.9 34.6651 247.55 34.6651C252.828 33.9272 251.682 56.3656 253.426 69.2089C254.567 60.4666 255.55 35.5469 259.024 34.7384C262.499 33.9299 264.123 66.3732 259.534 82.3438" stroke="#171717" stroke-width="3" stroke-linecap="round" stroke-linejoin="round"/>
<path d="M302.25 229.151C291.819 243.898 278.945 256.756 264.186 267.169C264.077 267.251 263.962 267.329 263.851 267.407C259.626 270.364 254.528 273.243 249.574 271.801C245.874 270.723 243.266 267.484 241.125 264.279C240.508 263.35 239.906 262.405 239.333 261.439C236.429 256.544 234.269 251.145 234.541 245.521C234.769 241.808 235.925 238.212 237.901 235.061C240.252 231.34 243.215 228.042 246.665 225.307C247.806 224.369 248.976 223.49 250.161 222.66C257.994 217.173 266.889 212.968 273.381 205.942C280.393 198.352 283.904 188.219 286.594 178.24C289.284 168.261 291.391 157.982 296.286 148.877C301.18 139.773 309.508 131.811 319.749 130.416C323.856 129.858 328.227 130.339 331.98 128.581C335.732 126.822 338.613 120.151 335.583 117.32" stroke="#171717" stroke-width="3" stroke-linecap="round" stroke-linejoin="round"/>
<path d="M371.851 114.8C369.943 116.97 371.259 121.419 373.512 123.239C375.765 125.06 378.746 125.594 381.562 126.269C406.919 132.324 426.162 153.67 437.665 177.065C445.114 192.217 450.067 209.112 448.285 225.903C445.74 249.871 429.386 270.955 408.706 283.332C388.205 295.597 363.917 300.18 340.026 300.846C339.808 300.856 339.594 300.861 339.376 300.866C334.272 300.997 328.606 300.745 324.95 297.18C323.476 295.704 322.42 293.863 321.89 291.844C320.929 288.494 321.007 284.648 321.196 281.098C321.424 276.767 321.798 272.101 323.687 268.328C324.36 266.945 325.274 265.694 326.387 264.632C328.543 262.603 331.204 261.559 334.093 261.015C335.962 260.683 337.852 260.49 339.75 260.437C342.013 260.345 344.295 260.35 346.489 260.257C348.81 260.16 351.122 259.905 353.409 259.495C360.617 258.252 367.5 255.565 373.644 251.595C379.787 247.625 385.065 242.454 389.16 236.393C393.255 230.333 396.083 223.506 397.473 216.325C398.863 209.144 398.788 201.755 397.251 194.603" stroke="#171717" stroke-width="3" stroke-linecap="round" stroke-linejoin="round"/>
<path d="M289.929 282.264C281.222 283.24 273.259 284.546 273.565 286.935C274.126 291.306 294.255 288.727 305.069 286.406C296.887 288.222 288.703 290.038 280.518 291.853C279.416 292.012 278.366 292.428 277.455 293.068C276.606 293.779 276.139 295.087 276.722 296.029C277.269 296.918 278.451 297.127 279.489 297.233C293.28 298.655 308.57 296.46 321.664 291.906" stroke="#171717" stroke-width="3" stroke-linecap="round" stroke-linejoin="round"/>
<path d="M289.926 282.263C294.707 282.254 299.475 281.752 304.153 280.763C300.099 281.248 294.889 281.7 289.926 282.263Z" stroke="#171717" stroke-width="3" stroke-linecap="round" stroke-linejoin="round"/>
<path d="M304.382 272.197C292.554 272.275 273.631 276 274.558 280.588C274.558 283.101 284.759 282.279 289.929 282.263" stroke="#171717" stroke-width="3" stroke-linecap="round" stroke-linejoin="round"/>
<path d="M304.383 272.197C305.29 272.262 306.199 272.278 307.107 272.246C306.257 272.202 305.344 272.187 304.383 272.197Z" stroke="#171717" stroke-width="3" stroke-linecap="round" stroke-linejoin="round"/>
<path d="M323.688 268.327C316.098 267.666 308.946 266.399 301.361 265.739C300.725 265.684 300.084 265.629 299.443 265.622C298.555 265.593 297.668 265.722 296.826 266.005C295.394 266.53 294.145 267.894 294.282 269.419C294.282 271.34 300.863 271.953 304.382 272.196" stroke="#171717" stroke-width="3" stroke-linecap="round" stroke-linejoin="round"/>
<path d="M313.734 157.354C308.661 181.07 304.845 205.038 302.301 229.156C301.039 241.111 300.088 253.132 299.451 265.219" stroke="#171717" stroke-width="3" stroke-linecap="round" stroke-linejoin="round"/>
<path d="M359.053 80.2175C356.829 79.7706 354.603 79.322 352.377 78.8724C353.125 69.5453 354.751 60.3095 357.233 51.2871C361.976 51.8549 366.72 52.4211 371.465 52.9861" stroke="#171717" stroke-width="3" stroke-linecap="round" stroke-linejoin="round"/>
<path d="M353.129 51.296C349.692 50.4011 346.092 50.3262 342.621 51.0772" stroke="#171717" stroke-width="3" stroke-linecap="round" stroke-linejoin="round"/>
<path d="M360.733 97.8191C366.66 97.8191 371.465 94.8083 371.465 91.0941C371.465 87.3804 366.66 84.3691 360.733 84.3691C354.806 84.3691 350.002 87.3804 350.002 91.0941C350.002 94.8083 354.806 97.8191 360.733 97.8191Z" stroke="#171717" stroke-width="3" stroke-linecap="round" stroke-linejoin="round"/>
<path d="M375.695 77.6975C373.452 77.7319 371.232 78.1575 369.135 78.9556C365.537 80.2181 361.842 82.1501 357.962 82.3252C353.838 82.4504 349.719 81.9428 345.75 80.8198C343.374 80.1743 341.06 79.3194 338.835 78.2658C337.478 77.5596 336.065 76.9672 334.611 76.4935C333.261 76.0367 331.794 76.0657 330.464 76.5761C328.75 77.314 327.643 79.0037 326.861 80.6984C324.04 86.8364 324.195 93.901 324.86 100.622C325.317 105.22 326.128 110.105 329.255 113.509C330.988 115.321 333.174 116.637 335.587 117.32C337.536 117.904 339.544 118.276 341.574 118.427C342.603 118.515 343.628 118.564 344.637 118.592C347.177 118.659 349.721 118.635 352.261 118.504C356.651 118.284 361.015 117.7 365.308 116.761C367.54 116.287 369.729 115.631 371.854 114.799C374.2 113.891 376.373 112.584 378.273 110.934C382.788 106.894 384.901 100.766 385.678 94.7599C386.081 91.6665 386.17 88.4692 385.27 85.4803C384.369 82.4915 382.376 79.7214 379.516 78.4737C378.307 77.9606 377.008 77.6964 375.695 77.6975Z" stroke="#171717" stroke-width="3" stroke-linecap="round" stroke-linejoin="round"/>
<path d="M375.699 77.3523C376.175 75.1527 376.583 72.9822 376.913 70.8215C377.636 66.1538 378.013 61.4391 378.04 56.7157C378.064 53.6858 377.889 50.4661 376.17 47.9706C374.019 44.863 370.023 43.6782 366.294 43.0951C358.224 41.8326 349.938 42.3911 341.894 40.9831C340.825 40.7938 339.757 40.5657 338.689 40.284C331.736 38.463 325.108 34.6416 322.06 28.2464C321.909 28.0211 321.817 27.7629 321.789 27.4938C321.763 27.2246 321.802 26.9528 321.904 26.7022C322.225 26.1831 322.963 26.1585 323.575 26.2099C327.589 26.5573 331.522 27.5474 335.223 29.1424C333.361 26.7263 332.132 23.884 331.645 20.8733C331.466 19.7322 331.528 18.3023 332.548 17.7553C333.417 17.2942 334.471 17.7602 335.326 18.2476C340.342 21.1107 344.75 24.9261 348.305 29.4789C347.026 27.6622 346.141 25.5994 345.705 23.4212C345.27 21.243 345.293 18.9981 345.775 16.8297C346.103 15.3731 347.3 13.6445 348.679 14.2123C349.195 14.4924 349.612 14.9272 349.869 15.4557C353.107 20.6752 356.344 25.8937 359.58 31.1106C360.76 29.7704 360.988 27.8717 361.713 26.2449C362.438 24.6181 364.248 23.1034 365.865 23.8512C366.885 24.3271 367.36 25.5163 367.516 26.6333C367.671 27.7503 367.598 28.9105 367.962 29.9739C368.846 32.5449 371.846 33.6449 374.522 34.1356C377.199 34.6262 380.175 34.9659 382 36.98C383.292 38.3979 383.729 40.3715 384.122 42.2483C386.055 51.5421 387.99 60.8358 389.93 70.1295C388.03 68.7363 386.131 67.3458 384.229 65.9586C384.326 67.5996 385.642 68.867 386.463 70.2947C387.283 71.7224 387.327 74.0095 385.773 74.5532C384.885 74.8688 383.928 74.4225 383.093 73.9854C381.078 72.9362 379.064 71.8871 377.052 70.8384" stroke="#171717" stroke-width="3" stroke-linecap="round" stroke-linejoin="round"/>
<path d="M338.66 40.3955C336.538 52.3286 335.186 64.3858 334.612 76.4929C334.612 76.5268 334.607 76.5557 334.607 76.5902" stroke="#171717" stroke-width="3" stroke-linecap="round" stroke-linejoin="round"/>
<path d="M355.631 89.5678C356.923 90.6312 358.243 91.7192 359.817 92.282C361.39 92.8449 363.298 92.7875 364.57 91.7044C365.239 91.0589 365.776 90.2904 366.153 89.4414" stroke="#171717" stroke-width="3" stroke-linecap="round" stroke-linejoin="round"/>
<path d="M171.094 243.422C178.198 239.21 185.413 234.958 193.381 232.788C201.054 230.7 209.638 230.749 216.587 234.546C216.854 234.692 217.121 234.847 217.383 235.002C218.398 235.609 219.427 236.37 219.82 237.488C220.515 239.458 218.85 241.606 216.873 242.271C214.897 242.937 212.741 242.567 210.668 242.329C204.345 241.599 197.94 242.148 191.833 243.941" stroke="#171717" stroke-width="3" stroke-linecap="round" stroke-linejoin="round"/>
<path d="M202.006 242.276C194.937 246.136 189.686 252.64 187.405 260.364C186.987 261.821 186.706 263.491 187.531 264.763C188.323 265.982 189.964 266.438 191.401 266.191C192.828 265.859 194.151 265.183 195.256 264.222C197.548 262.442 199.563 260.332 201.235 257.96C202.59 256.042 203.872 253.823 206.067 252.982C207.757 252.336 209.641 252.654 211.447 252.764C215.68 253.006 219.898 252.074 223.635 250.069C224.839 249.433 225.98 248.685 227.043 247.835" stroke="#171717" stroke-width="3" stroke-linecap="round" stroke-linejoin="round"/>
<path d="M216.688 234.347C223.544 232.543 230.77 232.714 237.533 234.839" stroke="#171717" stroke-width="3" stroke-linecap="round" stroke-linejoin="round"/>
<path d="M223.777 250.335C224.884 250.301 226.03 249.788 227.065 250.18C227.595 250.351 228.064 250.671 228.417 251.103C228.769 251.534 228.989 252.059 229.05 252.612C229.094 254.312 227.239 255.361 225.642 255.934C219.176 258.251 212.337 259.355 205.471 259.192" stroke="#171717" stroke-width="3" stroke-linecap="round" stroke-linejoin="round"/>
<path d="M225.824 256.203C226.77 256.324 227.741 255.965 228.582 256.421C229.012 256.63 229.377 256.952 229.639 257.352C229.9 257.753 230.049 258.217 230.067 258.694C230.001 259.327 229.746 259.924 229.334 260.408C228.534 261.449 227.54 262.325 226.406 262.987C225.118 263.745 223.756 264.372 222.342 264.856C216.021 267.141 209.333 268.239 202.613 268.095C202.803 268.09 202.996 268.09 203.186 268.085" stroke="#171717" stroke-width="3" stroke-linecap="round" stroke-linejoin="round"/>
<path d="M205.611 273.824C209.467 273.416 220.193 272.013 223.717 270.401C225.159 269.741 226.636 268.915 227.427 267.541C227.82 266.835 227.967 266.018 227.845 265.22C227.8 264.833 227.666 264.462 227.454 264.136C227.242 263.81 226.956 263.538 226.621 263.341" stroke="#171717" stroke-width="3" stroke-linecap="round" stroke-linejoin="round"/>
<path d="M227.852 265.22C231.871 264.871 235.757 263.604 239.209 261.515" stroke="#171717" stroke-width="3" stroke-linecap="round" stroke-linejoin="round"/>
<path d="M170.947 273.654C172.667 274.047 180.635 273.664 182.392 273.465" stroke="#171717" stroke-width="3" stroke-linecap="round" stroke-linejoin="round"/>
<path d="M183.286 273.042C184.484 271.206 186.192 269.758 188.201 268.879C188.982 268.544 189.963 268.325 190.623 268.864C191.236 269.364 191.265 270.277 191.221 271.069C191.182 271.714 191.124 272.36 191.031 273.001C190.923 273.871 190.725 274.727 190.439 275.555C190.328 275.877 190.2 276.193 190.056 276.502C189.684 277.36 189.138 278.13 188.453 278.765C187.767 279.401 186.958 279.887 186.074 280.192C185.374 280.403 184.634 280.443 183.914 280.311C183.194 280.178 182.517 279.876 181.937 279.43C180.719 278.44 181.539 277.012 181.986 275.696C182.303 274.759 182.741 273.867 183.286 273.042Z" stroke="#171717" stroke-width="3" stroke-linecap="round" stroke-linejoin="round"/>
<path d="M190.439 275.558C190.23 276.844 189.589 279.039 190.298 280.078C190.548 280.386 190.902 280.592 191.293 280.656C193.143 281.084 195.581 280.055 196.741 278.554C196.949 278.284 197.139 278.002 197.31 277.709C198.042 276.328 198.549 274.84 198.81 273.3C198.824 273.232 198.839 273.164 198.849 273.091C198.955 272.465 198.911 271.823 198.72 271.218C198.529 270.612 198.197 270.061 197.751 269.609C195.528 267.618 192.182 270.872 191.158 272.746C191.114 272.829 191.07 272.916 191.031 273.004C190.728 273.753 190.539 274.543 190.473 275.349C190.463 275.417 190.454 275.485 190.439 275.558Z" stroke="#171717" stroke-width="3" stroke-linecap="round" stroke-linejoin="round"/>
<path d="M197.437 277.388C197.393 277.498 197.35 277.602 197.311 277.709C196.996 278.41 196.822 279.168 196.801 279.938C196.791 280.382 196.915 280.818 197.156 281.191C197.398 281.563 197.746 281.854 198.156 282.026C198.933 282.273 199.773 281.904 200.467 281.472C202.683 280.076 204.368 277.977 205.25 275.51C205.455 274.97 205.574 274.401 205.604 273.825C205.642 273.31 205.534 272.795 205.294 272.339C204.966 271.832 204.489 271.438 203.927 271.213C203.366 270.989 202.749 270.944 202.162 271.086C200.987 271.406 199.971 272.146 199.307 273.165" stroke="#171717" stroke-width="3" stroke-linecap="round" stroke-linejoin="round"/>
<path d="M127.295 104.588C126.918 108.422 127.007 112.288 127.562 116.101C127.756 117.465 128.011 118.817 128.328 120.155C128.492 121.2 128.937 122.18 129.615 122.991C129.778 123.155 129.957 123.301 130.149 123.429C131.368 124.21 133.033 124.176 134.529 124.08C135.903 123.987 137.379 123.856 138.413 122.948C138.643 122.743 138.844 122.508 139.01 122.249C139.729 121.142 139.846 119.651 139.899 118.291C139.923 117.641 139.947 117.024 139.971 116.427C140.108 112.969 140.205 110.26 140.263 106.487" stroke="#171717" stroke-width="3" stroke-linecap="round" stroke-linejoin="round"/>
<path d="M130.028 123.603C127.02 132.882 126.96 142.821 126.925 152.576C126.838 178.462 126.75 204.349 126.658 230.234" stroke="#171717" stroke-width="3" stroke-linecap="round" stroke-linejoin="round"/>
<path d="M139.307 122.287C141.866 125.011 141.982 129.148 141.953 132.882C141.666 165.872 141.383 198.858 141.104 231.842" stroke="#171717" stroke-width="3" stroke-linecap="round" stroke-linejoin="round"/>
<path d="M341.551 118.645C341.406 121.529 341.262 124.413 341.12 127.298C341.081 128.089 341.081 128.987 341.654 129.536C341.977 129.816 342.383 129.982 342.81 130.007C343.102 130.04 343.395 130.051 343.689 130.041C345.587 130.017 347.49 129.986 349.389 129.963C349.53 129.963 349.671 129.958 349.817 129.949C350.489 129.981 351.148 129.761 351.666 129.332C352.239 128.754 352.273 127.851 352.278 127.04C352.278 124.355 352.282 121.67 352.288 118.985" stroke="#171717" stroke-width="3" stroke-linecap="round" stroke-linejoin="round"/>
<path d="M342.815 129.959C342.811 129.975 342.81 129.991 342.811 130.008C342.309 133.279 342.132 136.593 342.286 139.899C342.374 139.855 342.456 139.811 342.543 139.777C343.539 139.365 344.7 139.486 345.792 139.491C346.779 139.561 347.759 139.281 348.56 138.7C348.72 138.565 348.857 138.406 348.967 138.229C349.272 137.641 349.427 136.987 349.419 136.325C349.56 134.315 349.699 132.305 349.837 130.294" stroke="#171717" stroke-width="3" stroke-linecap="round" stroke-linejoin="round"/>
<path d="M342.56 139.787C342.555 139.787 342.555 139.792 342.55 139.792C339.856 141.016 338.045 143.691 337.161 146.517C336.277 149.343 336.219 152.354 336.16 155.316C335.467 190.507 334.771 225.696 334.072 260.884" stroke="#171717" stroke-width="3" stroke-linecap="round" stroke-linejoin="round"/>
<path d="M348.551 138.699H348.561C350.022 138.689 351.299 139.811 351.925 141.132C352.467 142.498 352.745 143.954 352.741 145.424C354.989 183.176 355.17 221.023 353.285 258.795" stroke="#171717" stroke-width="3" stroke-linecap="round" stroke-linejoin="round"/>
<path d="M364.574 163.157C366.847 163.512 369.128 163.833 371.416 164.123C373.659 164.415 375.908 164.67 378.156 164.896C382.249 165.308 386.347 165.624 390.451 165.843" stroke="#171717" stroke-width="3" stroke-linecap="round" stroke-linejoin="round"/>
<path d="M364.136 163.195C363.717 169.927 364.034 176.684 365.083 183.347C365.461 185.764 366.01 188.314 367.705 190.082C369.166 191.606 371.312 192.33 373.425 192.475C375.54 192.537 377.655 192.338 379.723 191.883C382.757 191.344 386.161 190.562 387.74 187.911C388.55 186.551 388.72 184.92 388.871 183.347C389.429 177.602 389.986 171.856 390.541 166.109" stroke="#171717" stroke-width="3" stroke-linecap="round" stroke-linejoin="round"/>
<path d="M378.177 164.634C378.386 162.783 378.575 160.807 377.73 159.147C376.885 157.486 374.588 156.432 373.093 157.544C372.053 158.321 371.816 159.758 371.685 161.05C371.578 162.074 371.487 163.099 371.411 164.123C370.989 169.696 370.988 175.292 371.407 180.864" stroke="#171717" stroke-width="3" stroke-linecap="round" stroke-linejoin="round"/>
<path d="M246.843 225.523C246.75 241.125 253.038 255.697 263.954 266.841" stroke="#171717" stroke-width="3" stroke-linecap="round" stroke-linejoin="round"/>
<path d="M339.762 260.641C337.663 273.967 337.753 287.548 340.029 300.846C340.03 300.87 340.033 300.895 340.039 300.919" stroke="#171717" stroke-width="3" stroke-linecap="round" stroke-linejoin="round"/>
<path d="M91.2109 107.924C91.375 107.987 91.5457 108.055 91.7109 108.114C103.024 112.464 114.895 115.19 126.973 116.209" stroke="#171717" stroke-width="3" stroke-linecap="round" stroke-linejoin="round"/>
<path d="M140.008 116.426C143.387 116.453 146.751 115.98 149.991 115.022" stroke="#171717" stroke-width="3" stroke-linecap="round" stroke-linejoin="round"/>
<path d="M350.174 60.4595C349.92 59.989 349.547 59.5924 349.093 59.3107C348.639 59.0285 348.119 58.8709 347.584 58.8523C347.05 58.8343 346.52 58.9563 346.047 59.2068C345.574 59.4573 345.176 59.8271 344.891 60.2795" stroke="#171717" stroke-width="3" stroke-linecap="round" stroke-linejoin="round"/>
<path d="M359.527 61.6579C359.864 61.0994 360.342 60.6405 360.914 60.3276C361.486 60.0147 362.13 59.8588 362.782 59.8763C363.434 59.8933 364.069 60.0831 364.623 60.4261C365.177 60.7691 365.631 61.2526 365.937 61.8281" stroke="#171717" stroke-width="3" stroke-linecap="round" stroke-linejoin="round"/>
<path d="M447.185 124.134C442.702 135.302 442.376 147.708 446.266 159.096C450.156 170.484 458.004 180.098 468.383 186.19C473.396 189.132 479.307 191.583 481.839 196.814C484.166 201.621 482.874 207.384 480.839 212.321C479.387 215.843 477.481 219.335 474.423 221.606C471.364 223.878 466.918 224.628 463.734 222.536C460.551 220.445 459.749 215.141 462.755 212.8C463.316 212.334 463.995 212.032 464.716 211.928C465.437 211.823 466.173 211.919 466.843 212.205C468.141 212.858 468.829 214.654 468.047 215.88" stroke="#171717" stroke-width="3" stroke-linecap="round" stroke-linejoin="round"/>
<path d="M418.209 289.022C422.989 288.751 427.619 287.254 431.652 284.675C435.685 282.095 438.985 278.52 441.235 274.294" stroke="#171717" stroke-width="3" stroke-linecap="round" stroke-linejoin="round"/>
<path d="M182.01 294.551C194.211 300.716 209.873 299.292 220.763 291.027" stroke="#171717" stroke-width="3" stroke-linecap="round" stroke-linejoin="round"/>
<path d="M195.594 305.999L205.929 304.249" stroke="#171717" stroke-width="3" stroke-linecap="round" stroke-linejoin="round"/>
<path d="M189.439 225.274C192.24 223.589 195.439 222.68 198.707 222.64C201.976 222.601 205.197 223.432 208.038 225.048" stroke="#171717" stroke-width="3" stroke-linecap="round" stroke-linejoin="round"/>
<path d="M50.5906 266.961C38.221 264.977 27.9846 253.698 27.2051 241.196" stroke="#171717" stroke-width="3" stroke-linecap="round" stroke-linejoin="round"/>
<path d="M11.014 191.822C8.27699 189.741 6.00115 187.115 4.33008 184.109" stroke="#171717" stroke-width="3" stroke-linecap="round" stroke-linejoin="round"/>
<path d="M1.71289 193.837L8.91266 185.612" stroke="#171717" stroke-width="3" stroke-linecap="round" stroke-linejoin="round"/>
<path d="M13.3198 155.935C15.2475 151.685 22.648 152.555 24.2015 156.956C25.755 161.356 21.7657 166.423 17.1134 166.789C12.461 167.156 8.08164 163.661 6.42474 159.298C4.76784 154.935 5.4341 149.974 7.15992 145.636C9.5642 139.64 13.8345 134.577 19.3391 131.195C28.6241 125.527 41.6528 124.274 46.7531 114.666C48.6261 111.138 48.9494 106.589 46.764 103.245C44.5787 99.9001 39.5812 98.4407 36.3298 100.761C33.8388 102.539 32.9477 106.067 33.8503 108.989C34.7527 111.91 37.1962 114.2 40.0062 115.412C46.0414 118.014 53.82 115.493 57.1824 109.846C60.668 103.989 59.3552 96.629 59.1681 89.8165C58.981 83.004 61.1127 74.8284 67.6189 72.7979" stroke="#171717" stroke-width="3" stroke-linecap="round" stroke-linejoin="round"/>
<path d="M91.7219 43.2362C91.625 40.855 92.3137 38.5084 93.6813 36.5572C95.0493 34.6054 97.0208 33.158 99.292 32.4365" stroke="#171717" stroke-width="3" stroke-linecap="round" stroke-linejoin="round"/>
<path d="M152.939 12.3958C154.084 8.93537 156.201 5.87811 159.038 3.58887" stroke="#171717" stroke-width="3" stroke-linecap="round" stroke-linejoin="round"/>
<path d="M159.696 10.7297L149.377 2.03223" stroke="#171717" stroke-width="3" stroke-linecap="round" stroke-linejoin="round"/>
<path d="M175.49 25.1799L181.133 21.0488" stroke="#171717" stroke-width="3" stroke-linecap="round" stroke-linejoin="round"/>
<path d="M180.68 26.2703L176.566 19.5869" stroke="#171717" stroke-width="3" stroke-linecap="round" stroke-linejoin="round"/>
<path d="M273.659 47.8477C274.253 44.8747 274.012 41.795 272.965 38.9494C271.917 36.1039 270.103 33.604 267.723 31.7256" stroke="#171717" stroke-width="3" stroke-linecap="round" stroke-linejoin="round"/>
<path d="M280.597 40.5713L277.508 34.918" stroke="#171717" stroke-width="3" stroke-linecap="round" stroke-linejoin="round"/>
<path d="M381.703 12.9033L380.16 5.19043" stroke="#171717" stroke-width="3" stroke-linecap="round" stroke-linejoin="round"/>
<path d="M376.562 10.3302L383.246 8.27344" stroke="#171717" stroke-width="3" stroke-linecap="round" stroke-linejoin="round"/>
<path d="M397.102 30.3551L410.987 17.5068" stroke="#171717" stroke-width="3" stroke-linecap="round" stroke-linejoin="round"/>
<path d="M408.462 29.3419L399.201 16.4932" stroke="#171717" stroke-width="3" stroke-linecap="round" stroke-linejoin="round"/>
<path d="M438.159 85.9858L431.451 77.2637" stroke="#171717" stroke-width="3" stroke-linecap="round" stroke-linejoin="round"/>
<path d="M430.033 85.3959C433.675 83.5481 436.708 80.6932 438.774 77.1699" stroke="#171717" stroke-width="3" stroke-linecap="round" stroke-linejoin="round"/>
<path d="M327.485 156.468L323.598 151.442" stroke="#171717" stroke-width="3" stroke-linecap="round" stroke-linejoin="round"/>
<path d="M356.307 127.076C360.439 125.993 364.478 124.579 368.384 122.849" stroke="#171717" stroke-width="3" stroke-linecap="round" stroke-linejoin="round"/>
<path d="M338.687 127.44L337.088 126.526" stroke="#171717" stroke-width="3" stroke-linecap="round" stroke-linejoin="round"/>
<path d="M367.682 145.692L373.053 140.55" stroke="#171717" stroke-width="3" stroke-linecap="round" stroke-linejoin="round"/>
<path d="M398.161 148.576L395.098 143.916" stroke="#171717" stroke-width="3" stroke-linecap="round" stroke-linejoin="round"/>
<path d="M415.795 175.513L420.992 169.521" stroke="#171717" stroke-width="3" stroke-linecap="round" stroke-linejoin="round"/>
<path d="M409.064 196.682L405.658 189.815" stroke="#171717" stroke-width="3" stroke-linecap="round" stroke-linejoin="round"/>
<path d="M369.51 217.681L373.812 211.712" stroke="#171717" stroke-width="3" stroke-linecap="round" stroke-linejoin="round"/>
<path d="M379.572 231.416L377.746 226.16" stroke="#171717" stroke-width="3" stroke-linecap="round" stroke-linejoin="round"/>
<path d="M313.844 250.658L318.682 244.978L318.354 245.349" stroke="#171717" stroke-width="3" stroke-linecap="round" stroke-linejoin="round"/>
<path d="M319.719 219.303L315.605 213.134" stroke="#171717" stroke-width="3" stroke-linecap="round" stroke-linejoin="round"/>
<path d="M323.48 194.031L327.813 189.452" stroke="#171717" stroke-width="3" stroke-linecap="round" stroke-linejoin="round"/>
<path d="M294.132 195.073C292.878 194.097 291.974 192.742 291.555 191.21" stroke="#171717" stroke-width="3" stroke-linecap="round" stroke-linejoin="round"/>
<path d="M289.982 220.877L294.323 214.021" stroke="#171717" stroke-width="3" stroke-linecap="round" stroke-linejoin="round"/>
<path d="M272.576 244.693L270.211 238.785" stroke="#171717" stroke-width="3" stroke-linecap="round" stroke-linejoin="round"/>
<path d="M260.111 226.202C261.741 225.293 263.493 224.622 265.313 224.208" stroke="#171717" stroke-width="3" stroke-linecap="round" stroke-linejoin="round"/>
<path d="M420.703 221.269L427.869 216.423" stroke="#171717" stroke-width="3" stroke-linecap="round" stroke-linejoin="round"/>
<path d="M402.904 242.728L403.409 233.786" stroke="#171717" stroke-width="3" stroke-linecap="round" stroke-linejoin="round"/>
<path d="M428.088 244.089L428.41 238.261" stroke="#171717" stroke-width="3" stroke-linecap="round" stroke-linejoin="round"/>
<path d="M397.639 262.979L404.837 263.654" stroke="#171717" stroke-width="3" stroke-linecap="round" stroke-linejoin="round"/>
<path d="M368.83 271.85L370.194 265.679" stroke="#171717" stroke-width="3" stroke-linecap="round" stroke-linejoin="round"/>
<path d="M352.402 285.511L357.888 285.832" stroke="#171717" stroke-width="3" stroke-linecap="round" stroke-linejoin="round"/>
<path d="M467.053 173.313L468.595 166.115" stroke="#171717" stroke-width="3" stroke-linecap="round" stroke-linejoin="round"/>
<path d="M470.65 170.745C468.48 170.928 466.31 170.385 464.48 169.202" stroke="#171717" stroke-width="3" stroke-linecap="round" stroke-linejoin="round"/>
<path d="M219.051 184.745C226.161 182.479 232.397 178.072 236.906 172.126" stroke="#171717" stroke-width="3" stroke-linecap="round" stroke-linejoin="round"/>
<path d="M101.273 137.495L94.8314 134.067C94.8314 134.067 93.7324 138.18 93.7324 138.866C93.7324 139.551 101.273 137.495 101.273 137.495Z" stroke="#171717" stroke-width="3" stroke-linecap="round" stroke-linejoin="round"/>
<path d="M73.1656 179.54L66.5391 183.812L76.365 187.966L73.1656 179.54Z" stroke="#171717" stroke-width="3" stroke-linecap="round" stroke-linejoin="round"/>
<path d="M62.4253 142.354L54.8848 145.949L62.4253 151.433V142.354Z" stroke="#171717" stroke-width="3" stroke-linecap="round" stroke-linejoin="round"/>
<path d="M116.4 184.109L109.094 186.623L113.842 193.141L116.4 184.109Z" stroke="#171717" stroke-width="3" stroke-linecap="round" stroke-linejoin="round"/>
<path d="M198.897 157.146L191.236 166.817H201.207L198.897 157.146Z" stroke="#171717" stroke-width="3" stroke-linecap="round" stroke-linejoin="round"/>
<path d="M240.434 123.603L249.345 124.127L245.689 132.097L240.434 123.603Z" stroke="#171717" stroke-width="3" stroke-linecap="round" stroke-linejoin="round"/>
<path d="M223.066 134.067L223.981 139.006L216.34 137.495L223.066 134.067Z" stroke="#171717" stroke-width="3" stroke-linecap="round" stroke-linejoin="round"/>
<path d="M157.485 241.194L160.983 248.319H146.061L157.485 241.194Z" stroke="#171717" stroke-width="3" stroke-linecap="round" stroke-linejoin="round"/>
<path d="M104.073 259.209L98.5332 246.183L92.1348 256.182L104.073 259.209Z" stroke="#171717" stroke-width="3" stroke-linecap="round" stroke-linejoin="round"/>
<path d="M69.7395 220.877L63.5703 230.237L60.8281 220.877H69.7395Z" stroke="#171717" stroke-width="3" stroke-linecap="round" stroke-linejoin="round"/>
<path d="M153.52 204.446L148.115 209.473L155.172 213.133L153.52 204.446Z" stroke="#171717" stroke-width="3" stroke-linecap="round" stroke-linejoin="round"/>
<g opacity="0.1">
<path d="M150.945 39.2295C142.747 37.607 133.929 38.02 125.6 38.3088C118.784 38.5451 113.292 41.4651 112.777 48.8601C112.503 52.7921 112.898 56.8345 112.972 60.7735C113.058 65.3279 112.985 69.8818 112.753 74.4346C112.36 83.294 111.504 92.1266 110.186 100.896C109.7 103.986 114.297 105.403 114.983 102.218C118.284 86.8945 119.845 71.1936 118.614 55.5211C118.383 52.5837 117.082 47.7732 119.125 45.2203C120.913 42.9841 124.538 43.0361 127.118 42.9584C135.066 42.7188 143.149 43.1614 150.945 41.4049C152.004 41.1664 152.039 39.4455 150.945 39.2295H150.945Z" fill="#171717"/>
</g>
<g opacity="0.1">
<path d="M105.813 102.833C100.941 104.599 96.3501 107.241 91.7979 109.713C89.4627 110.981 87.1165 111.905 84.8634 113.342C82.5446 114.821 80.228 116.304 77.9136 117.791C69.7002 123.064 61.4075 128.575 55.1256 136.162C43.3468 150.389 37.3204 169.372 36.6481 187.676C36.001 205.304 40.3891 223.653 50.6997 238.146C61.757 253.69 78.2691 263.788 95.889 270.393C118.105 278.621 141.848 281.909 165.465 280.027C168.13 279.818 170.414 277.902 170.414 275.078C170.414 272.554 168.145 269.928 165.465 270.129C145.989 271.628 126.404 269.463 107.726 263.746C91.3455 258.701 75.1862 250.914 63.5463 238.011C52.7718 226.066 47.3597 209.984 46.7437 194.066C46.1081 177.637 49.9334 160.383 58.8989 146.486C64.4237 137.925 72.2619 131.797 80.5655 126.095C85.0384 123.024 89.8554 120.234 93.8295 116.546C98.0858 112.596 103.245 109.699 107.51 105.75C108.746 104.605 107.465 102.237 105.814 102.836L105.813 102.833Z" fill="#171717"/>
</g>
<g opacity="0.1">
<path d="M338.084 118.429C340.335 124.09 332.631 126.361 328.538 126.511C323.052 126.709 317.707 127.95 313.026 130.932C303.284 137.139 297.948 148.013 294.701 158.717C291.196 170.271 289.89 182.866 283.61 193.395C278.599 201.796 270.379 207.463 262.527 212.971C258.005 216.143 253.467 219.335 249.305 222.973C245.332 226.445 239.988 231.178 239.027 236.587C238.34 240.458 242.332 242.604 245.327 240.252C247.3 238.704 248.632 236.527 250.282 234.639C251.953 232.749 253.75 230.974 255.659 229.326C259.446 226.021 263.599 223.177 267.711 220.301C276.15 214.393 284.647 208.284 290.412 199.569C297.644 188.629 299.421 175.387 302.741 162.986C305.592 152.335 310.335 141.383 320.653 136.071C326.143 133.243 333.299 134.026 338.334 130.231C342.509 127.085 344.689 120.971 341.128 116.658C339.999 115.29 337.421 116.759 338.085 118.429H338.084Z" fill="#171717"/>
</g>
<g opacity="0.1">
<path d="M317.871 155.403C314.304 157.461 313.952 163.11 313.057 166.744C311.949 171.243 311.084 175.807 310.267 180.369C308.661 189.363 307.434 198.441 306.303 207.507C305.175 216.549 304.245 225.614 303.513 234.7C303.141 239.332 302.82 243.966 302.551 248.603C302.427 250.743 302.315 252.885 302.212 255.027C302.095 257.488 301.629 260.182 302.496 262.521C303.563 265.401 308.283 266.933 309.854 263.482C311.711 259.406 311.096 254.113 311.334 249.671C311.574 245.211 311.861 240.755 312.195 236.301C312.879 227.216 313.761 218.15 314.842 209.1C315.9 200.257 317.244 191.465 318.605 182.665C319.316 178.062 320.086 173.465 320.706 168.85C321.199 165.185 323.236 159.43 320.85 156.183C320.549 155.694 320.071 155.341 319.516 155.195C318.961 155.05 318.371 155.123 317.869 155.401L317.871 155.403Z" fill="#171717"/>
</g>
<g opacity="0.1">
<path d="M326.289 270.933C327.977 270.692 329.575 269.852 331.187 269.307C333.273 268.621 335.395 268.05 337.544 267.597C342.199 266.57 347.02 266.66 351.759 266.434C360.507 266.081 369.08 263.868 376.905 259.941C384.558 256.049 391.26 250.519 396.535 243.745C401.81 236.971 405.53 229.119 407.428 220.745C408.529 215.855 409.022 210.846 408.897 205.834C408.751 200.83 408.538 194.77 405.323 190.731C403.54 188.489 399.142 189.676 398.681 192.485C398.006 196.6 399.501 200.796 399.697 204.946C400.327 217.132 396.552 229.14 389.063 238.775C384.171 244.838 377.977 249.722 370.939 253.063C363.301 256.742 355.388 257.629 347.035 258.048C341.993 258.302 336.664 258.687 332.116 261.079C328.956 262.74 324.833 265.959 324.991 269.944C324.995 270.101 325.034 270.255 325.105 270.394C325.177 270.534 325.278 270.656 325.403 270.751C325.527 270.846 325.672 270.911 325.825 270.943C325.979 270.975 326.137 270.972 326.289 270.933Z" fill="#171717"/>
</g>
<defs>
<linearGradient id="paint0_linear_646_2366" x1="331.288" y1="201.71" x2="354.601" y2="201.658" gradientUnits="userSpaceOnUse">
<stop offset="0.142184" stop-color="#C31275"/>
<stop offset="1" stop-color="#7D0447"/>
</linearGradient>
<linearGradient id="paint1_linear_646_2366" x1="16.5758" y1="198.006" x2="173.023" y2="196.367" gradientUnits="userSpaceOnUse">
<stop offset="0.142184" stop-color="#C31275"/>
<stop offset="1" stop-color="#7D0447"/>
</linearGradient>
<linearGradient id="paint2_linear_646_2366" x1="339.587" y1="124.411" x2="352.299" y2="124.248" gradientUnits="userSpaceOnUse">
<stop offset="0.142184" stop-color="#C31275"/>
<stop offset="1" stop-color="#7D0447"/>
</linearGradient>
<linearGradient id="paint3_linear_646_2366" x1="341.2" y1="135.074" x2="349.845" y2="134.987" gradientUnits="userSpaceOnUse">
<stop offset="0.142184" stop-color="#C31275"/>
<stop offset="1" stop-color="#7D0447"/>
</linearGradient>
<linearGradient id="paint4_linear_646_2366" x1="208.381" y1="80.3803" x2="208.148" y2="183.253" gradientUnits="userSpaceOnUse">
<stop stop-color="#72DEFF"/>
<stop offset="1" stop-color="#1A9AEF"/>
</linearGradient>
<linearGradient id="paint5_linear_646_2366" x1="133.214" y1="133.535" x2="267.099" y2="131.51" gradientUnits="userSpaceOnUse">
<stop offset="0.142184" stop-color="#C31275"/>
<stop offset="1" stop-color="#7D0447"/>
</linearGradient>
<linearGradient id="paint6_linear_646_2366" x1="136.031" y1="176.149" x2="161.002" y2="176.088" gradientUnits="userSpaceOnUse">
<stop offset="0.142184" stop-color="#C31275"/>
<stop offset="1" stop-color="#7D0447"/>
</linearGradient>
<linearGradient id="paint7_linear_646_2366" x1="138.563" y1="111.287" x2="150.361" y2="111.134" gradientUnits="userSpaceOnUse">
<stop offset="0.142184" stop-color="#C31275"/>
<stop offset="1" stop-color="#7D0447"/>
</linearGradient>
<linearGradient id="paint8_linear_646_2366" x1="86.8425" y1="110.388" x2="127.54" y2="108.773" gradientUnits="userSpaceOnUse">
<stop offset="0.142184" stop-color="#C31275"/>
<stop offset="1" stop-color="#7D0447"/>
</linearGradient>
</defs>
</svg>
