<svg width="375" height="428" viewBox="0 0 375 428" fill="none" xmlns="http://www.w3.org/2000/svg">
<path d="M188.571 292.994C246.841 292.994 294.077 245.394 294.077 186.677C294.077 127.959 246.841 80.3594 188.571 80.3594C130.302 80.3594 83.0654 127.959 83.0654 186.677C83.0654 245.394 130.302 292.994 188.571 292.994Z" fill="#E25651"/>
<path d="M188.572 346.096C101.278 346.096 30.2695 274.58 30.2695 186.678C30.2695 98.7754 101.278 27.2598 188.572 27.2598C275.866 27.2598 346.874 98.7754 346.874 186.678C346.874 274.58 275.866 346.096 188.572 346.096ZM188.572 36.0543C106.219 36.0543 39.2235 103.629 39.2235 186.678C39.2235 269.726 106.219 337.301 188.572 337.301C270.925 337.301 337.92 269.726 337.92 186.678C337.92 103.629 270.925 36.0543 188.572 36.0543Z" fill="#E25651"/>
<path d="M188.572 271.798C235.223 271.798 273.04 233.688 273.04 186.677C273.04 139.666 235.223 101.557 188.572 101.557C141.921 101.557 104.104 139.666 104.104 186.677C104.104 233.688 141.921 271.798 188.572 271.798Z" fill="white"/>
<path d="M188.571 249.197C222.835 249.197 250.611 221.206 250.611 186.678C250.611 152.151 222.835 124.16 188.571 124.16C154.308 124.16 126.531 152.151 126.531 186.678C126.531 221.206 154.308 249.197 188.571 249.197Z" fill="#E25651"/>
<path d="M188.572 227.303C210.833 227.303 228.879 209.114 228.879 186.677C228.879 164.24 210.833 146.051 188.572 146.051C166.311 146.051 148.265 164.24 148.265 186.677C148.265 209.114 166.311 227.303 188.572 227.303Z" fill="white"/>
<path d="M188.572 204.339C198.254 204.339 206.103 196.431 206.103 186.677C206.103 176.923 198.254 169.016 188.572 169.016C178.89 169.016 171.041 176.923 171.041 186.677C171.041 196.431 178.89 204.339 188.572 204.339Z" fill="#E25651"/>
<path d="M41.3388 186.547C64.12 186.547 82.5879 168.079 82.5879 145.298C82.5879 122.517 64.12 104.049 41.3388 104.049C18.5577 104.049 0.0898438 122.517 0.0898438 145.298C0.0898438 168.079 18.5577 186.547 41.3388 186.547Z" fill="#E25651"/>
<path d="M244.498 65.9584C262.55 65.9584 277.184 51.3243 277.184 33.2722C277.184 15.2201 262.55 0.585938 244.498 0.585938C226.446 0.585938 211.812 15.2201 211.812 33.2722C211.812 51.3243 226.446 65.9584 244.498 65.9584Z" fill="#E25651"/>
<path d="M342.223 199.123C360.275 199.123 374.91 184.488 374.91 166.436C374.91 148.384 360.275 133.75 342.223 133.75C324.171 133.75 309.537 148.384 309.537 166.436C309.537 184.488 324.171 199.123 342.223 199.123Z" fill="#E25651"/>
<path d="M18.3311 145.08C18.3311 128.534 27.6762 119.044 41.3389 119.044C55.0017 119.044 64.3468 128.607 64.3468 145.08C64.3468 161.626 55.0017 171.565 41.3389 171.565C27.6762 171.565 18.3311 161.626 18.3311 145.08ZM52.5966 145.08C52.5966 134.924 48.2355 128.925 41.3244 128.925C34.4134 128.925 30.0523 134.924 30.0523 145.08C30.0523 155.237 34.4134 161.67 41.3244 161.67C48.2355 161.67 52.5966 155.237 52.5966 145.08ZM230.038 15.9434H237.877V30.1132H238.065L248.395 15.9434H257.001L246.512 29.78L258.928 50.6001H250.337L241.919 35.9521L237.877 41.3129V50.6001H230.038V15.9434ZM329.285 150.137H341.021C347.932 150.137 353.597 152.542 353.597 160.279C353.597 167.769 347.932 171 341.021 171H336.645V182.736H329.271V150.137H329.285ZM340.412 165.147C344.295 165.147 346.367 163.495 346.367 160.279C346.367 157.062 344.281 155.976 340.412 155.976H336.645V165.132H340.412V165.147ZM339.673 169.059L344.773 164.35L355.176 182.736H346.932L339.673 169.059Z" fill="white"/>
<path d="M124.49 191.459L119.911 182.36C119.419 181.375 119.013 180.346 118.665 179.288C117.637 176.086 114.102 168.291 104.322 170.479C102.829 170.812 102.293 172.696 103.423 173.71C105.452 175.536 108.726 178.897 108.465 180.998L104.133 180.259C103.322 180.114 102.554 180.694 102.467 181.52C102.395 182.157 102.757 182.766 103.351 183.012L108.219 184.968C109.407 185.446 110.421 186.286 111.102 187.387L116.086 195.385" fill="#FDBAB3"/>
<path d="M126.141 234.693C131.879 235.939 137.906 233.476 140.789 228.362C142.615 225.102 143.107 221.074 141.63 217.148C135.689 201.457 120.317 180.434 120.317 180.434L109.277 187.895C109.277 187.895 126.605 217.148 124.214 216.974C113.855 211.787 102.989 206.904 96.1644 205.166L95.0488 209.28L96.4252 228.231L126.141 234.693Z" fill="#585A5E"/>
<path d="M185.617 427.999C281.351 427.999 358.958 420.526 358.958 411.308C358.958 402.09 281.351 394.617 185.617 394.617C89.883 394.617 12.2754 402.09 12.2754 411.308C12.2754 420.526 89.883 427.999 185.617 427.999Z" fill="#EDEDED"/>
<path d="M152.366 333.736C151.12 333.736 149.99 332.895 149.671 331.635L143.412 306.874C141.34 298.688 133.995 292.965 125.548 292.965H81.9371C81.372 292.965 81.0098 293.269 80.8504 293.457C80.6911 293.646 80.4303 294.037 80.5027 294.588L84.8638 330.621C85.0521 332.142 83.9655 333.533 82.4297 333.721C80.9084 333.91 79.5175 332.823 79.3291 331.287L74.9681 295.254C74.7218 293.255 75.3593 291.255 76.6777 289.748C78.0107 288.242 79.9232 287.387 81.9371 287.387H125.548C136.545 287.387 146.122 294.834 148.816 305.512L155.075 330.273C155.452 331.765 154.554 333.287 153.062 333.663C152.83 333.707 152.598 333.736 152.366 333.736Z" fill="#585A5E"/>
<path d="M139.355 342.662H63.0146C60.5225 342.662 58.4941 340.634 58.4941 338.142V333.621H143.861V338.142C143.861 340.648 141.847 342.662 139.355 342.662Z" fill="#585A5E"/>
<path d="M105.133 362.83H97.2363V401.819H105.133V362.83Z" fill="#3F98D7"/>
<path d="M107.104 338.141H95.252V373.406H107.104V338.141Z" fill="#585A5E"/>
<path d="M140.283 412.004C138.993 412.004 137.964 410.961 137.964 409.686V403.224H64.4059V409.686C64.4059 410.976 63.3627 412.004 62.0877 412.004C60.7982 412.004 59.7695 410.961 59.7695 409.686V400.906C59.7695 399.617 60.8127 398.588 62.0877 398.588H140.283C141.572 398.588 142.601 399.631 142.601 400.906V409.686C142.601 410.961 141.572 412.004 140.283 412.004Z" fill="#585A5E"/>
<path d="M66.1755 414.462C68.6142 412.024 68.6141 408.07 66.1754 405.631C63.7367 403.192 59.7828 403.193 57.3442 405.631C54.9056 408.07 54.9057 412.024 57.3444 414.462C59.7831 416.901 63.7369 416.901 66.1755 414.462Z" fill="#414143"/>
<path d="M65.7424 410.703C66.0988 408.508 64.6077 406.439 62.4119 406.082C60.2161 405.726 58.1472 407.217 57.7908 409.413C57.4344 411.609 58.9255 413.678 61.1213 414.034C63.3171 414.39 65.386 412.899 65.7424 410.703Z" fill="#EDEDED"/>
<path d="M144.876 414.46C147.314 412.022 147.314 408.068 144.876 405.629C142.437 403.191 138.483 403.191 136.044 405.629C133.606 408.068 133.606 412.022 136.045 414.46C138.483 416.899 142.437 416.899 144.876 414.46Z" fill="#414143"/>
<path d="M144.443 410.698C144.799 408.502 143.308 406.433 141.112 406.077C138.916 405.72 136.847 407.211 136.491 409.407C136.135 411.603 137.626 413.672 139.822 414.028C142.017 414.384 144.086 412.893 144.443 410.698Z" fill="#EDEDED"/>
<path d="M111.972 330.173L97.8019 221.538C97.1934 216.858 93.1945 213.352 88.4713 213.352H20.8096L31.1254 304.992L36.2109 330.173L74.5188 331.694L111.972 330.173Z" fill="#3F98D7"/>
<path d="M159.625 337.59H108.799V325.811H159.625C162.885 325.811 165.522 328.447 165.522 331.707C165.522 334.953 162.885 337.59 159.625 337.59Z" fill="#3F98D7"/>
<path d="M15.6659 219.189L29.6184 331.128C30.082 334.822 33.2116 337.59 36.9351 337.59H115.246C118.115 337.59 120.433 335.272 120.433 332.403V331.084C120.433 328.216 118.1 325.883 115.231 325.898L43.2087 326.028C41.8612 326.028 40.7166 325.028 40.5283 323.695L25.9528 217.856C25.6051 215.292 23.4028 213.379 20.8093 213.379C17.6943 213.35 15.2892 216.089 15.6659 219.189Z" fill="#2A84B5"/>
<path d="M42.9766 236.17C58.0592 234.649 73.4316 234.388 88.6156 235.431C73.562 236.953 58.1461 237.199 42.9766 236.17ZM45.2078 248.529C60.2904 247.008 75.6628 246.747 90.8468 247.79C75.7932 249.326 60.3774 249.558 45.2078 248.529Z" fill="#2A84B5"/>
<path d="M162.823 382.458L162.086 394.504L173.828 395.222L174.565 383.176L162.823 382.458Z" fill="#FDBAB3"/>
<path d="M199.888 403.238C199.888 403.238 201.424 411.496 184.458 409.873C182.792 409.714 181.154 409.395 179.546 408.946C177.242 408.294 173.461 407.483 170.78 407.251L170.665 410.018L160.537 409.453C159.465 409.352 158.654 408.424 158.697 407.338L159.204 401.137C159.204 401.137 176.214 401.644 176.503 401.774C176.793 401.905 191.238 405.034 191.238 405.034L199.888 403.238Z" fill="#2A2A2C"/>
<path d="M191.6 408.7L191.05 408.729C189.326 408.816 187.254 408.744 184.791 408.512C183.139 408.352 181.487 408.034 179.879 407.585C177.575 406.933 173.779 405.947 171.099 405.716C171.099 405.716 169.085 405.672 166.709 405.556C166.535 405.542 166.376 405.542 166.187 405.527C165.782 405.513 165.376 405.484 164.956 405.455C164.782 405.44 164.608 405.44 164.434 405.426C164.115 405.411 163.811 405.382 163.492 405.353C163.319 405.339 163.145 405.324 162.971 405.295C160.798 405.107 159.044 404.817 159.059 404.397C158.9 402.774 158.856 401.137 158.928 399.529C159.015 397.587 159.262 395.675 159.711 393.748C160.001 392.473 161.189 391.604 162.507 391.763L171.736 392.835C172.446 392.922 173.142 392.676 173.634 392.183C173.692 392.125 173.736 392.067 173.794 392.009L173.823 391.98L173.953 391.821L173.968 391.806L173.982 391.792L174.315 391.401L174.33 391.386L174.663 390.995L174.678 390.966C175.098 390.459 175.866 390.459 176.3 390.952C178.097 393.009 180.009 394.878 182.052 396.544C184.675 398.689 187.804 400.152 191.122 400.731C191.31 400.76 191.499 400.789 191.702 400.818C192.426 400.92 193.151 400.992 193.889 401.021C199.989 401.21 199.888 403.238 199.888 403.238C199.888 403.238 201.192 408.092 191.6 408.7Z" fill="#414143"/>
<path d="M173.345 392.978C173.316 393.283 173.548 393.543 173.852 393.572C174.157 393.601 174.417 393.369 174.446 393.065C174.475 392.761 174.244 392.5 173.939 392.471C173.635 392.442 173.36 392.674 173.345 392.978Z" fill="#C6C7CD"/>
<path d="M173.867 393.283C173.939 393.283 174.012 393.268 174.07 393.211L176.286 391.023C176.388 390.921 176.402 390.747 176.286 390.646C176.185 390.545 176.011 390.53 175.91 390.646L173.693 392.834C173.591 392.935 173.577 393.109 173.693 393.211C173.736 393.254 173.809 393.283 173.867 393.283Z" fill="#2A2A2C"/>
<path d="M174.664 394.023C174.635 394.327 174.866 394.588 175.171 394.617C175.475 394.646 175.736 394.414 175.765 394.11C175.794 393.806 175.562 393.545 175.258 393.516C174.953 393.487 174.693 393.719 174.664 394.023Z" fill="#C6C7CD"/>
<path d="M175.185 394.342C175.258 394.342 175.33 394.328 175.388 394.27L177.445 392.212C177.547 392.111 177.561 391.937 177.445 391.835C177.344 391.734 177.17 391.72 177.069 391.835L175.011 393.893C174.91 393.994 174.895 394.168 175.011 394.27C175.069 394.313 175.127 394.328 175.185 394.342Z" fill="#2A2A2C"/>
<path d="M175.982 395.152C175.953 395.456 176.185 395.717 176.489 395.746C176.793 395.775 177.054 395.543 177.083 395.239C177.112 394.935 176.88 394.674 176.576 394.645C176.272 394.616 176.011 394.848 175.982 395.152Z" fill="#C6C7CD"/>
<path d="M176.518 395.456C176.591 395.456 176.663 395.441 176.721 395.383L178.691 393.384C178.793 393.283 178.807 393.109 178.691 393.007C178.59 392.906 178.416 392.891 178.315 393.007L176.344 395.007C176.243 395.108 176.228 395.282 176.344 395.383C176.388 395.427 176.446 395.456 176.518 395.456Z" fill="#2A2A2C"/>
<path d="M177.213 396.296C177.199 396.601 177.445 396.847 177.75 396.862C178.054 396.876 178.3 396.63 178.315 396.325C178.329 396.021 178.083 395.775 177.779 395.76C177.489 395.746 177.228 395.992 177.213 396.296Z" fill="#C6C7CD"/>
<path d="M177.765 396.572C177.837 396.572 177.91 396.543 177.967 396.485L179.808 394.5C179.909 394.398 179.909 394.225 179.793 394.123C179.692 394.022 179.518 394.022 179.416 394.138L177.576 396.123C177.475 396.224 177.475 396.398 177.591 396.499C177.634 396.557 177.692 396.572 177.765 396.572Z" fill="#2A2A2C"/>
<path d="M178.589 397.282C178.575 397.586 178.821 397.833 179.126 397.847C179.43 397.862 179.676 397.615 179.691 397.311C179.705 397.007 179.459 396.761 179.155 396.746C178.85 396.746 178.604 396.978 178.589 397.282Z" fill="#C6C7CD"/>
<path d="M179.126 397.572C179.198 397.572 179.271 397.543 179.329 397.485L181.111 395.572C181.212 395.471 181.212 395.297 181.096 395.195C180.995 395.094 180.821 395.094 180.72 395.21L178.938 397.122C178.836 397.224 178.836 397.398 178.952 397.499C179.01 397.543 179.068 397.572 179.126 397.572Z" fill="#2A2A2C"/>
<path d="M179.966 398.339C179.952 398.643 180.198 398.889 180.502 398.904C180.807 398.918 181.053 398.672 181.068 398.368C181.082 398.064 180.836 397.817 180.531 397.803C180.227 397.803 179.966 398.035 179.966 398.339Z" fill="#C6C7CD"/>
<path d="M180.503 398.629C180.575 398.629 180.648 398.6 180.706 398.542L182.415 396.76C182.517 396.658 182.517 396.484 182.401 396.383C182.3 396.282 182.126 396.282 182.024 396.397L180.315 398.18C180.213 398.281 180.213 398.455 180.329 398.556C180.373 398.6 180.43 398.629 180.503 398.629Z" fill="#2A2A2C"/>
<path d="M182.806 399.688C182.82 400.63 182.415 401.514 181.705 402.122C180.966 402.76 179.98 403.021 179.024 402.818L170.085 401.021C169.36 400.876 168.607 401.036 167.998 401.485C167.404 401.92 167.013 402.601 166.926 403.325L166.694 405.542C166.521 405.527 166.361 405.527 166.173 405.513L166.405 403.281C166.506 402.412 166.97 401.586 167.68 401.065C168.39 400.543 169.302 400.34 170.172 400.514L179.111 402.311C179.908 402.47 180.734 402.253 181.357 401.717C181.951 401.21 182.284 400.456 182.27 399.674C182.255 398.877 181.893 398.153 181.284 397.66L173.968 391.749L174.301 391.357L181.618 397.254C182.357 397.863 182.791 398.747 182.806 399.688Z" fill="#2A2A2C"/>
<path d="M152.549 388.403L151.812 400.449L163.555 401.168L164.292 389.122L152.549 388.403Z" fill="#FDBAB3"/>
<path d="M189.616 409.163C189.616 409.163 191.151 417.422 174.185 415.799C172.519 415.64 170.882 415.321 169.274 414.872C166.97 414.22 163.188 413.408 160.508 413.177L160.392 415.944L150.265 415.379C149.192 415.278 148.381 414.35 148.425 413.264L148.932 407.062C148.932 407.062 165.941 407.57 166.231 407.7C166.521 407.83 180.966 410.96 180.966 410.96L189.616 409.163Z" fill="#2A2A2C"/>
<path d="M181.328 414.626L180.777 414.655C179.053 414.742 176.981 414.669 174.518 414.438C172.866 414.278 171.215 413.959 169.607 413.51C167.303 412.858 163.507 411.873 160.826 411.641C160.826 411.641 158.813 411.598 156.436 411.482C156.263 411.467 156.103 411.467 155.915 411.453C155.509 411.438 155.103 411.409 154.683 411.381C154.509 411.366 154.336 411.366 154.162 411.352C153.843 411.337 153.539 411.308 153.22 411.279C153.046 411.265 152.872 411.25 152.698 411.221C150.525 411.033 148.772 410.743 148.786 410.323C148.627 408.7 148.584 407.063 148.656 405.455C148.743 403.513 148.989 401.601 149.438 399.674C149.728 398.399 150.916 397.529 152.235 397.689L161.464 398.761C162.174 398.848 162.869 398.602 163.362 398.109C163.42 398.051 163.463 397.993 163.521 397.935L163.55 397.906L163.681 397.747L163.695 397.732L163.71 397.718L164.043 397.327L164.057 397.312L164.391 396.921L164.405 396.892C164.825 396.385 165.593 396.385 166.028 396.877C167.824 398.935 169.737 400.804 171.78 402.47C174.402 404.614 177.532 406.078 180.85 406.657C181.038 406.686 181.226 406.715 181.429 406.744C182.154 406.846 182.878 406.918 183.617 406.947C189.717 407.135 189.615 409.164 189.615 409.164C189.615 409.164 190.919 414.032 181.328 414.626Z" fill="#414143"/>
<path d="M163.073 398.904C163.044 399.208 163.276 399.469 163.58 399.498C163.884 399.527 164.145 399.295 164.174 398.991C164.203 398.687 163.971 398.426 163.667 398.397C163.363 398.383 163.102 398.614 163.073 398.904Z" fill="#C6C7CD"/>
<path d="M163.609 399.224C163.681 399.224 163.754 399.21 163.812 399.152L166.029 396.964C166.13 396.863 166.144 396.689 166.029 396.587C165.927 396.486 165.753 396.472 165.652 396.587L163.435 398.775C163.334 398.877 163.319 399.051 163.435 399.152C163.479 399.195 163.537 399.224 163.609 399.224Z" fill="#2A2A2C"/>
<path d="M164.406 399.963C164.377 400.267 164.609 400.528 164.913 400.557C165.217 400.586 165.478 400.354 165.507 400.05C165.536 399.745 165.304 399.485 165 399.456C164.696 399.427 164.42 399.658 164.406 399.963Z" fill="#C6C7CD"/>
<path d="M164.927 400.268C165 400.268 165.072 400.253 165.13 400.195L167.188 398.138C167.289 398.037 167.303 397.863 167.188 397.761C167.086 397.66 166.912 397.645 166.811 397.761L164.753 399.819C164.652 399.92 164.638 400.094 164.753 400.195C164.811 400.239 164.869 400.268 164.927 400.268Z" fill="#2A2A2C"/>
<path d="M165.724 401.078C165.695 401.382 165.927 401.643 166.231 401.672C166.535 401.701 166.796 401.469 166.825 401.165C166.854 400.861 166.622 400.6 166.318 400.571C166.014 400.556 165.753 400.788 165.724 401.078Z" fill="#C6C7CD"/>
<path d="M166.246 401.397C166.318 401.397 166.391 401.383 166.449 401.325L168.419 399.325C168.52 399.224 168.535 399.05 168.419 398.949C168.318 398.847 168.144 398.833 168.042 398.949L166.072 400.948C165.97 401.05 165.956 401.223 166.072 401.325C166.13 401.368 166.188 401.397 166.246 401.397Z" fill="#2A2A2C"/>
<path d="M166.956 402.224C166.941 402.528 167.188 402.774 167.492 402.789C167.796 402.803 168.042 402.557 168.057 402.253C168.071 401.948 167.825 401.702 167.521 401.688C167.216 401.688 166.97 401.919 166.956 402.224Z" fill="#C6C7CD"/>
<path d="M167.491 402.513C167.564 402.513 167.636 402.484 167.694 402.426L169.534 400.441C169.636 400.34 169.636 400.166 169.52 400.065C169.418 399.963 169.244 399.963 169.143 400.079L167.303 402.064C167.201 402.165 167.201 402.339 167.317 402.441C167.375 402.484 167.433 402.513 167.491 402.513Z" fill="#2A2A2C"/>
<path d="M168.333 403.222C168.318 403.526 168.564 403.773 168.869 403.787C169.173 403.802 169.419 403.555 169.434 403.251C169.448 402.947 169.202 402.701 168.898 402.686C168.593 402.672 168.333 402.918 168.333 403.222Z" fill="#C6C7CD"/>
<path d="M168.868 403.497C168.941 403.497 169.013 403.468 169.071 403.41L170.853 401.498C170.955 401.397 170.955 401.223 170.839 401.121C170.737 401.02 170.563 401.02 170.462 401.136L168.68 403.048C168.578 403.15 168.578 403.323 168.694 403.425C168.738 403.483 168.81 403.497 168.868 403.497Z" fill="#2A2A2C"/>
<path d="M169.694 404.28C169.679 404.584 169.926 404.831 170.23 404.845C170.534 404.86 170.781 404.613 170.795 404.309C170.81 404.005 170.563 403.759 170.259 403.744C169.955 403.744 169.708 403.976 169.694 404.28Z" fill="#C6C7CD"/>
<path d="M170.23 404.57C170.302 404.57 170.374 404.541 170.432 404.483L172.142 402.701C172.243 402.6 172.243 402.426 172.128 402.324C172.026 402.223 171.852 402.223 171.751 402.339L170.041 404.121C169.94 404.222 169.94 404.396 170.056 404.498C170.114 404.541 170.172 404.57 170.23 404.57Z" fill="#2A2A2C"/>
<path d="M172.533 405.628C172.548 406.57 172.142 407.453 171.432 408.062C170.693 408.699 169.708 408.96 168.752 408.757L159.812 406.961C159.088 406.816 158.334 406.975 157.726 407.424C157.132 407.859 156.741 408.54 156.654 409.264L156.422 411.481C156.248 411.467 156.089 411.467 155.9 411.452L156.132 409.221C156.234 408.352 156.697 407.526 157.407 407.004C158.117 406.483 159.03 406.28 159.899 406.454L168.839 408.25C169.636 408.41 170.461 408.192 171.084 407.656C171.678 407.149 172.012 406.396 171.997 405.613C171.983 404.816 171.62 404.092 171.012 403.599L163.695 397.688L164.028 397.297L171.345 403.194C172.099 403.802 172.533 404.686 172.533 405.628Z" fill="#2A2A2C"/>
<path d="M159.089 387.677H177.243L178.59 309.236C178.75 299.616 171.071 291.705 161.45 291.589L104.365 291.328L111.61 301.876L140.63 310.859L153.409 327.173C153.409 327.173 156.524 339.025 156.524 339.329C156.524 339.633 161.653 366.22 161.653 366.22L159.089 387.677Z" fill="#353535"/>
<path d="M58.7985 282.635L56.9729 292.864C53.9738 309.67 66.7962 325.13 83.8637 325.304L142.557 325.898C144.252 325.912 145.643 327.245 145.745 328.926L149.685 394.124H166.594L169.259 315.553C169.535 307.251 163.638 300.007 155.437 298.616L107.089 291.328C104.38 290.864 102.409 288.488 102.453 285.735L99.1782 282.635C81.4442 286.561 72.2149 287.126 58.7985 282.635Z" fill="#414143"/>
<path d="M90.4707 189.531H77.6338V212.452H90.4707V189.531Z" fill="#FDBAB3"/>
<path d="M99.758 186.01C100.511 196.297 94.3827 201.629 87.689 201.629C80.9952 201.629 75.5186 194.79 75.5186 186.01C75.5186 177.245 80.9373 170.131 87.631 170.131C94.3392 170.131 99.1205 177.259 99.758 186.01Z" fill="#FDBAB3"/>
<path d="M93.4988 169.291C88.0945 164.945 83.4727 168.871 83.4727 168.871C75.5329 166.669 74.2579 175.42 74.2579 175.42C65.1591 175.174 77.6338 197.283 77.6338 197.283L78.4741 194.328C78.9088 192.806 78.8363 191.183 78.1988 189.735C76.9818 186.953 76.6775 183.548 79.5752 183.084C82.0818 182.679 83.4292 186.46 83.9363 188.271C84.0812 188.793 84.6173 189.112 85.1389 188.981C85.6315 188.851 85.9647 188.373 85.8778 187.866L84.7622 180.534C88.3408 181.607 95.4113 180.303 96.9471 179.738C96.9471 179.738 103.496 177.724 102.395 170.798C102.395 170.798 101.54 172.551 97.9757 172.667C97.9757 172.667 100.917 171.986 100.555 167.799C100.54 167.813 96.6573 171.841 93.4988 169.291Z" fill="#414143"/>
<path d="M101.236 246.094C101.236 246.514 101.236 292.342 101.236 292.342C87.0803 299.108 74.142 294.08 74.1709 294.182L74.8519 216.262L77.6482 202.947L87.6888 209.641L93.9913 204.367L98.0337 207.931L98.874 226.115C98.874 226.129 101.236 245.674 101.236 246.094Z" fill="#E5E5E5"/>
<path d="M54.9587 298.355C54.553 300.079 54.9297 301.846 56.6538 302.31C56.6538 302.31 92.0639 305.28 88.2389 265.248L86.3989 224.68C86.3989 217.19 84.0372 209.395 78.5461 204.309L77.6333 202.947L70.8237 205.802C63.3331 209.438 58.7692 217.204 59.2183 225.506L59.3052 241.052C59.9427 253.86 55.8425 294.544 54.9587 298.355ZM90.4702 203.425L93.9909 204.367C99.4531 205.961 103.814 210.307 103.814 215.871V225.419C103.814 231.2 104.191 236.981 104.944 242.718L109.639 288.329C109.899 290.342 108.972 291.139 106.639 292.516L97.4971 297.905C96.0193 298.268 94.8168 296.703 95.5267 295.355C98.1636 290.444 99.2647 279.867 98.7287 274.318L95.5846 242.037C95.3094 239.169 95.1355 236.3 95.0631 233.417L90.4702 203.425Z" fill="#585A5E"/>
<path d="M90.4699 203.425L91.7738 211.974L84.1528 212.669L77.6475 202.947L87.688 209.655L90.4699 203.425Z" fill="#C6C7CD"/>
<path d="M87.6881 209.656L86.0944 211.598L86.6884 214.003L86.0944 218.9C84.4427 232.577 76.5754 244.719 64.7817 251.833L62.6373 253.122C56.1465 257.034 50.7857 262.583 47.0911 269.219L42.5127 277.448L45.9175 283.693L52.8575 280.853L58.4067 270.871C60.9132 266.365 64.2601 262.395 68.2879 259.193L72.4751 255.846C83.0952 247.385 89.2818 234.548 89.3108 220.972L89.3253 214.206L89.5716 211.438L87.6881 209.656Z" fill="#FABC3F"/>
<path d="M99.7289 189.705L86.4573 189.633L85.6315 186.199L83.4727 186.822L85.3127 196.573C85.9067 199.688 88.8479 201.774 91.9919 201.296C97.1644 200.514 100.294 194.907 99.7289 189.705Z" fill="#414143"/>
<path d="M105.365 333.736C104.119 333.736 102.989 332.895 102.67 331.635L96.4112 306.874C94.3393 298.688 86.9936 292.965 78.5467 292.965H34.9361C34.371 292.965 34.0088 293.269 33.8494 293.457C33.6901 293.646 33.4293 294.037 33.5017 294.588L37.8628 330.621C38.0511 332.142 36.9645 333.533 35.4287 333.721C33.9074 333.91 32.5165 332.823 32.3281 331.287L27.9671 295.254C27.7208 293.255 28.3583 291.255 29.6767 289.748C31.0097 288.242 32.9222 287.387 34.9361 287.387H78.5467C89.5436 287.387 99.1205 294.834 101.815 305.512L108.074 330.273C108.451 331.765 107.553 333.287 106.061 333.663C105.814 333.707 105.582 333.736 105.365 333.736Z" fill="#585A5E"/>
<path d="M243.557 281.924H140.572V289.501H243.557V281.924Z" fill="#754B34"/>
<path d="M237.515 288.125H207.712V411.307H237.515V288.125Z" fill="#754B34"/>
<path d="M245.049 275.361H134.168V282.939H245.049V275.361Z" fill="#97623D"/>
<path d="M245.194 409.076H200.033V416.291H245.194V409.076Z" fill="#754B34"/>
<path d="M230.981 275.362H201.265V271.493C201.265 268.813 203.438 266.654 206.104 266.654H231.271C232.357 266.654 232.908 265.93 233.096 265.626C233.284 265.321 233.661 264.495 233.154 263.539L205.959 211.844L213.667 207.787L240.862 259.482C242.673 262.916 242.528 266.973 240.456 270.276C238.442 273.507 234.806 275.362 230.981 275.362Z" fill="#414143"/>
<path d="M209.841 254.527L205.104 253.962L214.13 178.201L218.868 178.766C221.186 179.042 222.838 181.142 222.562 183.461L214.536 250.832C214.26 253.136 212.159 254.802 209.841 254.527Z" fill="#414143"/>
<path d="M203.365 261.192L198.164 260.569L208.929 170.131L214.13 170.754C216.188 171 217.666 172.869 217.419 174.927L207.538 257.903C207.292 259.975 205.423 261.438 203.365 261.192Z" fill="#585A5E"/>
<path d="M195.353 273.375H151.105C150.815 273.375 150.583 273.144 150.583 272.854V269.42C150.583 269.13 150.815 268.898 151.105 268.898H195.353C195.643 268.898 195.874 269.13 195.874 269.42V272.854C195.874 273.144 195.643 273.375 195.353 273.375Z" fill="#414143"/>
<path d="M155.074 275.36H152.886C152.64 275.36 152.423 275.157 152.423 274.896V272.506H155.523V274.896C155.538 275.157 155.321 275.36 155.074 275.36ZM193.57 275.36H191.383C191.136 275.36 190.919 275.157 190.919 274.896V272.506H194.02V274.896C194.034 275.157 193.831 275.36 193.57 275.36Z" fill="#414143"/>
<path d="M128.98 276.347L138.094 280.447C139.079 280.896 140.035 281.432 140.948 282.026C143.715 283.837 151.235 287.59 157.335 279.853C158.262 278.665 157.523 276.912 156.016 276.839C153.336 276.709 148.772 276.173 147.656 274.405L151.423 272.29C152.133 271.899 152.351 270.986 151.916 270.305C151.568 269.769 150.916 269.537 150.322 269.725L145.396 271.247C144.193 271.623 142.904 271.594 141.701 271.189L132.95 268.189" fill="#FDBAB3"/>
<path d="M137.08 281.345C137.08 281.345 88.7313 262.191 87.5433 260.858C84.8049 257.772 78.2996 251.252 72.3737 245.413C71.1857 244.254 70.0266 243.11 68.9254 242.023C64.376 237.561 60.8408 234.156 60.8408 234.156L70.1135 220.855L79.8209 220.754L98.4242 247.471C99.0472 248.615 143.904 269.754 143.904 269.754L137.08 281.345Z" fill="#585A5E"/>
</svg>
