<svg width="34" height="34" viewBox="0 0 34 34" fill="none" xmlns="http://www.w3.org/2000/svg">
<path d="M14.818 23.9008H16.9975V25.8623H14.818V23.9008ZM24.3252 8.83871L23.2042 8.04846C23.2132 7.85852 23.2132 7.66826 23.2042 7.47832L24.3252 6.68807C24.7889 6.36123 24.9243 5.73348 24.6365 5.24464L23.022 2.50235C22.7412 2.02535 22.1474 1.83465 21.6412 2.05863L20.3649 2.62353C20.1922 2.51375 20.0142 2.41258 19.8315 2.32037L19.6947 0.978871C19.638 0.422684 19.1695 -0.00012207 18.6102 -0.00012207H15.3812C14.822 -0.00012207 14.3534 0.422684 14.2967 0.978871L14.1599 2.32023C13.9772 2.41247 13.7992 2.51367 13.6265 2.62346L12.3502 2.05855C11.8439 1.83444 11.2501 2.02528 10.9693 2.50228L9.35484 5.24457C9.06708 5.73341 9.20242 6.36115 9.66613 6.68799L10.7871 7.47825C10.7781 7.66819 10.7781 7.85845 10.7871 8.04838L9.66613 8.83871C9.20242 9.16555 9.06708 9.79351 9.35484 10.2823L10.9693 13.0249C11.2501 13.5018 11.8439 13.6932 12.3501 13.4692L13.6265 12.9056C13.7992 13.0153 13.9771 13.1189 14.1599 13.2111L14.2967 14.5575C14.3534 15.1137 14.8219 15.5462 15.3812 15.5462H18.6102C19.1695 15.5462 19.638 15.1137 19.6948 14.5574L19.8316 13.2063C20.0142 13.1141 20.1923 13.0129 20.3649 12.9031L21.6414 13.468C22.1475 13.6919 22.7412 13.5012 23.0221 13.0242L24.6366 10.2819C24.9243 9.79329 24.7889 9.16555 24.3252 8.83871ZM16.9975 10.1495C15.6735 10.1495 14.6001 9.07612 14.6001 7.75213C14.6001 6.42813 15.6735 5.35477 16.9975 5.35477C18.3215 5.35477 19.3948 6.42813 19.3948 7.75213C19.3948 9.07612 18.3215 10.1495 16.9975 10.1495Z" fill="#730C7F"/>
<path d="M33.8831 18.3454L31.3532 13.422C31.284 13.2875 31.1875 13.1688 31.0699 13.0736C30.9522 12.9785 30.816 12.9089 30.6699 12.8693L26.4823 11.5225L25.815 13.5973L26.6464 13.8647L15.9607 16.9531L8.45028 14.0581L9.23422 13.8331L8.63306 11.7383L4.77855 12.8445C4.56334 12.8939 4.36823 13.0075 4.21909 13.1703L0.277622 17.4723C-0.214636 18.0096 -0.0264795 18.9052 0.638387 19.203L3.92095 20.6721V28.7286C3.92095 29.1796 4.20485 29.5841 4.62606 29.7459L15.5168 33.9279C15.7401 34.0059 15.9843 34.0238 16.2136 33.9575L30.6766 29.7755C31.143 29.6407 31.4543 29.2139 31.4543 28.7286V20.4825C32.544 20.1154 33.2602 19.8756 33.2602 19.8756C33.8766 19.667 34.1818 18.9267 33.8831 18.3454ZM29.2749 27.9091L16.9975 31.4611V27.4605H14.8181V31.3243L6.10044 27.9798V21.6485L11.6805 24.1488C11.8243 24.2131 12.3473 24.4464 12.9976 23.8077L15.9607 19.8536L19.3316 23.8598C19.4334 23.9814 19.5607 24.0791 19.7044 24.1462C19.8482 24.2133 20.0049 24.2481 20.1635 24.2481C20.2373 24.2481 25.4246 22.5009 29.2749 21.2155V27.9091Z" fill="#730C7F"/>
</svg>
