<svg width="131" height="142" viewBox="0 0 131 142" fill="none" xmlns="http://www.w3.org/2000/svg">
<g filter="url(#filter0_dddd_646_2839)">
<rect x="26" y="2" width="79" height="79" rx="39.5" fill="#F99807"/>
</g>
<path d="M45.8079 53.7658C46.8424 53.7658 47.6802 54.6036 47.6802 55.6381C47.6802 56.6726 46.8424 57.5105 45.8079 57.5105C44.7734 57.5105 43.9355 56.6726 43.9355 55.6381C43.9355 54.6036 44.7734 53.7658 45.8079 53.7658ZM84.659 25.6807C85.4341 25.6807 86.0632 26.3098 86.0632 27.0849C86.0632 27.8601 85.4341 28.4892 84.659 28.4892C83.8838 28.4892 83.2547 27.8601 83.2547 27.0849C83.2547 26.3098 83.8838 25.6807 84.659 25.6807Z" fill="white"/>
<path d="M85.1284 56.5743C85.6451 56.5743 86.0645 56.9937 86.0645 57.5104C86.0645 58.0272 85.6451 58.4466 85.1284 58.4466C84.6116 58.4466 84.1922 58.0272 84.1922 57.5104C84.1922 56.9937 84.6116 56.5743 85.1284 56.5743ZM81.3837 47.2126C81.9004 47.2126 82.3199 47.632 82.3199 48.1487C82.3199 48.6655 81.9004 49.0849 81.3837 49.0849C80.8669 49.0849 80.4475 48.6655 80.4475 48.1487C80.4475 47.632 80.8669 47.2126 81.3837 47.2126ZM52.3624 61.2551C52.8792 61.2551 53.2986 61.6745 53.2986 62.1913C53.2986 62.7081 52.8792 63.1275 52.3624 63.1275C51.8456 63.1275 51.4262 62.7081 51.4262 62.1913C51.4262 61.6745 51.8456 61.2551 52.3624 61.2551ZM46.7454 28.4892C47.2622 28.4892 47.6816 28.9086 47.6816 29.4253C47.6816 29.9421 47.2622 30.3615 46.7454 30.3615C46.2286 30.3615 45.8092 29.9421 45.8092 29.4253C45.8092 28.9086 46.2286 28.4892 46.7454 28.4892ZM45.8092 21.936C46.326 21.936 46.7454 22.3554 46.7454 22.8722C46.7454 23.3889 46.326 23.8083 45.8092 23.8083C45.2925 23.8083 44.873 23.3889 44.873 22.8722C44.873 22.3554 45.2925 21.936 45.8092 21.936ZM65.4688 62.1911C59.9676 62.1911 54.7956 60.0487 50.9056 56.1588C47.7319 52.9858 45.7184 48.9671 45.0829 44.537C45.0095 44.0252 45.3649 43.5508 45.8767 43.4774C46.388 43.4039 46.8629 43.7594 46.9363 44.2712C47.5138 48.2975 49.3442 51.9503 52.2295 54.8348C59.5297 62.135 71.4078 62.1349 78.708 54.8349C79.0737 54.4694 79.6663 54.4694 80.032 54.8349C80.3976 55.2005 80.3976 55.7932 80.032 56.1589C76.142 60.0487 70.97 62.1911 65.4688 62.1911ZM84.9269 39.7233C84.4687 39.7233 84.0683 39.3867 84.0014 38.92C83.4236 34.8935 81.5932 31.2407 78.7081 28.3563C71.4079 21.0561 59.5297 21.0562 52.2296 28.3563C51.864 28.7219 51.2713 28.722 50.9055 28.3562C50.54 27.9907 50.54 27.3979 50.9055 27.0323C54.7956 23.1423 59.9676 21 65.4688 21C70.97 21 76.142 23.1423 80.0319 27.0323C83.2054 30.205 85.2189 34.2237 85.8546 38.654C85.9281 39.1658 85.5728 39.6403 85.0609 39.7137C85.0159 39.7202 84.9711 39.7233 84.9269 39.7233Z" fill="white"/>
<path d="M79.3693 60.4052C78.8523 60.4052 78.4331 59.9861 78.4331 59.469V56.433H75.398C74.8811 56.433 74.4619 56.0138 74.4619 55.4969C74.4619 54.9799 74.8811 54.5607 75.398 54.5607H79.3693C79.8862 54.5607 80.3054 54.9799 80.3054 55.4969V59.469C80.3054 59.986 79.8863 60.4052 79.3693 60.4052ZM55.5381 28.6306H51.5669C51.0498 28.6306 50.6307 28.2115 50.6307 27.6945V23.7223C50.6307 23.2053 51.0498 22.7861 51.5669 22.7861C52.0839 22.7861 52.5031 23.2053 52.5031 23.7223V26.7583H55.5381C56.0552 26.7583 56.4743 27.1774 56.4743 27.6945C56.4743 28.2115 56.0552 28.6306 55.5381 28.6306ZM45.8085 58.4467C44.2599 58.4467 43 57.1868 43 55.6382C43 54.0896 44.2599 52.8297 45.8085 52.8297C47.3571 52.8297 48.617 54.0896 48.617 55.6382C48.617 57.1868 47.3571 58.4467 45.8085 58.4467ZM45.8085 54.702C45.2923 54.702 44.8723 55.122 44.8723 55.6382C44.8723 56.1544 45.2923 56.5744 45.8085 56.5744C46.3247 56.5744 46.7447 56.1544 46.7447 55.6382C46.7447 55.122 46.3247 54.702 45.8085 54.702ZM84.6596 29.4255C83.3691 29.4255 82.3191 28.3755 82.3191 27.085C82.3191 25.7945 83.3691 24.7446 84.6596 24.7446C85.9501 24.7446 87 25.7945 87 27.085C87 28.3755 85.9501 29.4255 84.6596 29.4255ZM84.6596 26.6169C84.4015 26.6169 84.1915 26.8269 84.1915 27.085C84.1915 27.3431 84.4015 27.5531 84.6596 27.5531C84.9177 27.5531 85.1277 27.3431 85.1277 27.085C85.1277 26.8269 84.9177 26.6169 84.6596 26.6169ZM65.4681 55.6382C57.725 55.6382 51.4255 49.3387 51.4255 41.5957C51.4255 33.8526 57.725 27.5531 65.4681 27.5531C73.2111 27.5531 79.5106 33.8526 79.5106 41.5957C79.5106 49.3387 73.2111 55.6382 65.4681 55.6382ZM65.4681 29.4255C58.7574 29.4255 53.2979 34.885 53.2979 41.5957C53.2979 48.3064 58.7574 53.7659 65.4681 53.7659C72.1788 53.7659 77.6383 48.3064 77.6383 41.5957C77.6383 34.885 72.1788 29.4255 65.4681 29.4255Z" fill="white"/>
<path d="M68.2771 49.0852C66.7285 49.0852 65.4686 47.8253 65.4686 46.2767C65.4686 44.728 66.7285 43.4681 68.2771 43.4681C69.8257 43.4681 71.0856 44.728 71.0856 46.2767C71.0856 47.8253 69.8257 49.0852 68.2771 49.0852ZM68.2771 45.3405C67.7609 45.3405 67.3409 45.7605 67.3409 46.2767C67.3409 46.7929 67.7609 47.2128 68.2771 47.2128C68.7933 47.2128 69.2133 46.7929 69.2133 46.2767C69.2133 45.7605 68.7933 45.3405 68.2771 45.3405ZM62.6601 39.7235C61.1115 39.7235 59.8516 38.4636 59.8516 36.915C59.8516 35.3663 61.1115 34.1064 62.6601 34.1064C64.2087 34.1064 65.4686 35.3663 65.4686 36.915C65.4686 38.4636 64.2087 39.7235 62.6601 39.7235ZM62.6601 35.9788C62.1439 35.9788 61.7239 36.3988 61.7239 36.915C61.7239 37.4312 62.1439 37.8511 62.6601 37.8511C63.1763 37.8511 63.5962 37.4312 63.5962 36.915C63.5962 36.3988 63.1763 35.9788 62.6601 35.9788ZM61.7231 49.0854C61.5604 49.0854 61.4006 49.0428 61.2595 48.9619C60.8106 48.7054 60.6546 48.1335 60.9111 47.6847L68.4005 34.5783C68.657 34.1293 69.2292 33.9735 69.6778 34.2299C70.1268 34.4864 70.2827 35.0583 70.0262 35.5072L62.5369 48.6136C62.4549 48.757 62.3364 48.8762 62.1935 48.9591C62.0506 49.0419 61.8883 49.0855 61.7231 49.0854Z" fill="white"/>
<defs>
<filter id="filter0_dddd_646_2839" x="0.518518" y="0.555556" width="129.963" height="141.363" filterUnits="userSpaceOnUse" color-interpolation-filters="sRGB">
<feFlood flood-opacity="0" result="BackgroundImageFix"/>
<feColorMatrix in="SourceAlpha" type="matrix" values="0 0 0 0 0 0 0 0 0 0 0 0 0 0 0 0 0 0 127 0" result="hardAlpha"/>
<feOffset dy="1.7037"/>
<feGaussianBlur stdDeviation="1.57407"/>
<feColorMatrix type="matrix" values="0 0 0 0 0.976471 0 0 0 0 0.596078 0 0 0 0 0.027451 0 0 0 0.0240741 0"/>
<feBlend mode="normal" in2="BackgroundImageFix" result="effect1_dropShadow_646_2839"/>
<feColorMatrix in="SourceAlpha" type="matrix" values="0 0 0 0 0 0 0 0 0 0 0 0 0 0 0 0 0 0 127 0" result="hardAlpha"/>
<feOffset dy="7.4963"/>
<feGaussianBlur stdDeviation="3.25926"/>
<feColorMatrix type="matrix" values="0 0 0 0 0.976471 0 0 0 0 0.596078 0 0 0 0 0.027451 0 0 0 0.0392593 0"/>
<feBlend mode="normal" in2="effect1_dropShadow_646_2839" result="effect2_dropShadow_646_2839"/>
<feColorMatrix in="SourceAlpha" type="matrix" values="0 0 0 0 0 0 0 0 0 0 0 0 0 0 0 0 0 0 127 0" result="hardAlpha"/>
<feOffset dy="18.4"/>
<feGaussianBlur stdDeviation="6.5"/>
<feColorMatrix type="matrix" values="0 0 0 0 0.976471 0 0 0 0 0.596078 0 0 0 0 0.027451 0 0 0 0.05 0"/>
<feBlend mode="normal" in2="effect2_dropShadow_646_2839" result="effect3_dropShadow_646_2839"/>
<feColorMatrix in="SourceAlpha" type="matrix" values="0 0 0 0 0 0 0 0 0 0 0 0 0 0 0 0 0 0 127 0" result="hardAlpha"/>
<feOffset dy="35.437"/>
<feGaussianBlur stdDeviation="12.7407"/>
<feColorMatrix type="matrix" values="0 0 0 0 0.976471 0 0 0 0 0.596078 0 0 0 0 0.027451 0 0 0 0.0607407 0"/>
<feBlend mode="normal" in2="effect3_dropShadow_646_2839" result="effect4_dropShadow_646_2839"/>
<feBlend mode="normal" in="SourceGraphic" in2="effect4_dropShadow_646_2839" result="shape"/>
</filter>
</defs>
</svg>
