<svg width="65" height="65" viewBox="0 0 65 65" fill="none" xmlns="http://www.w3.org/2000/svg">
<rect width="65" height="65" rx="32.5" fill="#B3A5D7" fill-opacity="0.62"/>
<path d="M39.6972 23H26.2644C25.0362 23 24 23.9936 24 25.2548V34.2739C24 35.4968 24.9979 36.5287 26.2644 36.5287H39.7356C40.9638 36.5287 42 35.535 42 34.2739V25.2548C41.9616 23.9936 40.9638 23 39.6972 23ZM38.3539 29.7643L34.209 32.4395C34.0938 32.5159 33.9403 32.5541 33.7868 32.5541C33.5565 32.5541 33.3646 32.4777 33.2111 32.2866L30.8699 29.5732L28.5672 32.0191C28.2985 32.3248 27.7996 32.3248 27.4925 32.0573C27.1855 31.7898 27.1855 31.293 27.4542 30.9873L30.3326 27.9299C30.4861 27.7771 30.678 27.7006 30.9083 27.7006C31.1386 27.7006 31.3305 27.8153 31.4456 27.9682L33.9019 30.7962L37.5096 28.465C37.855 28.2357 38.3156 28.3503 38.5458 28.6943C38.8145 29.0764 38.6994 29.5732 38.3539 29.7643ZM38.7761 39.4713H36.6269V38.0191H29.3348V39.4713H27.1855C26.7633 39.4713 26.4179 39.8153 26.4179 40.2357C26.4179 40.656 26.7633 41 27.1855 41H30.064H35.8593H38.7377C39.1599 41 39.5053 40.656 39.5053 40.2357C39.5053 39.8153 39.1599 39.4713 38.7761 39.4713Z" fill="#42297D"/>
</svg>
