<svg width="65" height="65" viewBox="0 0 65 65" fill="none" xmlns="http://www.w3.org/2000/svg">
<rect opacity="0.5" width="65" height="65" rx="32.5" fill="#66CEDD"/>
<path d="M48.4826 40.2749H47.0221V37.3546C47.0221 37.2203 46.9676 37.0916 46.8706 36.9967C46.7735 36.9018 46.6419 36.8484 46.5047 36.8484H43.1583V34.1013C44.0508 33.9824 44.869 33.5512 45.4613 32.8876C46.0537 32.2239 46.3801 31.3727 46.3801 30.4917C46.3801 29.6106 46.0537 28.7595 45.4613 28.0958C44.869 27.4321 44.0508 27.0009 43.1583 26.8821V19.6329C43.1583 19.4987 43.1038 19.3699 43.0067 19.275C42.9097 19.1801 42.7781 19.1268 42.6409 19.1268H38.92V16.5061C38.92 16.3725 38.866 16.2442 38.7696 16.1494C38.6733 16.0546 38.5426 16.0009 38.406 16H27.594C27.4574 16.0009 27.3267 16.0546 27.2304 16.1494C27.134 16.2442 27.08 16.3725 27.08 16.5061V19.1434H23.3591C23.2219 19.1434 23.0903 19.1967 22.9933 19.2917C22.8962 19.3866 22.8417 19.5153 22.8417 19.6496V26.8821C21.9492 27.0009 21.131 27.4321 20.5386 28.0958C19.9463 28.7595 19.6198 29.6106 19.6198 30.4917C19.6198 31.3727 19.9463 32.2239 20.5386 32.8876C21.131 33.5512 21.9492 33.9824 22.8417 34.1013V36.8451H19.4953C19.3581 36.8451 19.2265 36.8984 19.1294 36.9934C19.0324 37.0883 18.9779 37.217 18.9779 37.3512V40.2749H17.5174C17.3808 40.2749 17.2497 40.3278 17.1528 40.422C17.0558 40.5162 17.0009 40.644 17 40.7777V44.4939C17 44.6281 17.0545 44.7568 17.1516 44.8518C17.2486 44.9467 17.3802 45 17.5174 45H21.3132C21.3811 45 21.4484 44.9869 21.5112 44.9615C21.574 44.936 21.631 44.8988 21.6791 44.8518C21.7271 44.8048 21.7652 44.749 21.7912 44.6875C21.8173 44.6261 21.8306 44.5603 21.8306 44.4939V40.7777C21.8297 40.644 21.7748 40.5162 21.6779 40.422C21.5809 40.3278 21.4498 40.2749 21.3132 40.2749H20.0094V37.8541H26.7089V40.2716H25.4051C25.2685 40.2716 25.1374 40.3244 25.0404 40.4186C24.9435 40.5128 24.8886 40.6407 24.8877 40.7744V44.4939C24.8877 44.6281 24.9422 44.7568 25.0392 44.8518C25.1363 44.9467 25.2679 45 25.4051 45H29.2009C29.3381 45 29.4697 44.9467 29.5667 44.8518C29.6638 44.7568 29.7183 44.6281 29.7183 44.4939V40.7777C29.7174 40.644 29.6625 40.5162 29.5655 40.422C29.4686 40.3278 29.3375 40.2749 29.2009 40.2749H27.7404V37.3546C27.7404 37.2873 27.7267 37.2206 27.7001 37.1586C27.6734 37.0965 27.6344 37.0402 27.5853 36.9931C27.5361 36.946 27.4779 36.9089 27.4139 36.8841C27.35 36.8592 27.2816 36.8471 27.2128 36.8484H23.8766V34.1013C24.7691 33.9824 25.5873 33.5512 26.1796 32.8876C26.772 32.2239 27.0984 31.3727 27.0984 30.4917C27.0984 29.6106 26.772 28.7595 26.1796 28.0958C25.5873 27.4321 24.7691 27.0009 23.8766 26.8821V20.1357H27.08V22.7763C27.08 22.91 27.134 23.0382 27.2304 23.133C27.3267 23.2279 27.4574 23.2816 27.594 23.2825H38.406C38.5426 23.2816 38.6733 23.2279 38.7696 23.133C38.866 23.0382 38.92 22.91 38.92 22.7763V20.1357H42.1234V26.8821C41.2309 27.0009 40.4127 27.4321 39.8204 28.0958C39.228 28.7595 38.9016 29.6106 38.9016 30.4917C38.9016 31.3727 39.228 32.2239 39.8204 32.8876C40.4127 33.5512 41.2309 33.9824 42.1234 34.1013V36.8451H38.7872C38.65 36.8451 38.5184 36.8984 38.4213 36.9934C38.3243 37.0883 38.2698 37.217 38.2698 37.3512V40.2749H36.7991C36.6625 40.2749 36.5314 40.3278 36.4345 40.422C36.3375 40.5162 36.2826 40.644 36.2817 40.7777V44.4939C36.2817 44.6281 36.3362 44.7568 36.4333 44.8518C36.5303 44.9467 36.6619 45 36.7991 45H40.5949C40.7321 45 40.8637 44.9467 40.9608 44.8518C41.0578 44.7568 41.1123 44.6281 41.1123 44.4939V40.7777C41.1114 40.644 41.0565 40.5162 40.9596 40.422C40.8626 40.3278 40.7315 40.2749 40.5949 40.2749H39.2911V37.8541H45.9906V40.2716H44.6868C44.5502 40.2716 44.4191 40.3244 44.3221 40.4186C44.2252 40.5128 44.1703 40.6407 44.1694 40.7744V44.4939C44.1694 44.6281 44.2239 44.7568 44.3209 44.8518C44.418 44.9467 44.5496 45 44.6868 45H48.4826C48.6198 45 48.7514 44.9467 48.8484 44.8518C48.9455 44.7568 49 44.6281 49 44.4939V40.7777C48.9991 40.644 48.9442 40.5162 48.8472 40.422C48.7503 40.3278 48.6192 40.2749 48.4826 40.2749ZM20.7991 41.2739V43.9777H18.0213V41.2838L20.7991 41.2739ZM28.6868 41.2739V43.9777H25.9191V41.2838L28.6868 41.2739ZM26.0553 30.4917C26.0553 31.0133 25.8972 31.5232 25.6009 31.9569C25.3047 32.3906 24.8836 32.7286 24.3909 32.9282C23.8983 33.1278 23.3562 33.18 22.8332 33.0783C22.3101 32.9765 21.8297 32.7253 21.4527 32.3565C21.0756 31.9877 20.8188 31.5178 20.7148 31.0062C20.6108 30.4946 20.6641 29.9643 20.8682 29.4824C21.0723 29.0005 21.4179 28.5887 21.8612 28.2989C22.3046 28.0091 22.8259 27.8544 23.3591 27.8544C24.0739 27.8553 24.7592 28.1334 25.2646 28.6278C25.7701 29.1222 26.0544 29.7925 26.0553 30.4917ZM37.8885 22.2702H28.1115V16.9956H37.8885V22.2702ZM40.0809 41.2838V43.9877H37.3132V41.2838H40.0809ZM39.9447 30.4917C39.9447 29.9701 40.1028 29.4602 40.3991 29.0265C40.6953 28.5928 41.1164 28.2548 41.6091 28.0552C42.1017 27.8555 42.6438 27.8033 43.1668 27.9051C43.6899 28.0068 44.1703 28.258 44.5473 28.6268C44.9244 28.9957 45.1812 29.4656 45.2852 29.9772C45.3892 30.4888 45.3359 31.019 45.1318 31.5009C44.9277 31.9828 44.5821 32.3947 44.1388 32.6845C43.6954 32.9743 43.1741 33.1289 42.6409 33.1289C41.9261 33.1281 41.2408 32.8499 40.7354 32.3555C40.2299 31.8611 39.9456 31.1909 39.9447 30.4917ZM47.9787 43.9877H45.2008V41.2838H47.9787V43.9877Z" fill="#2A747E"/>
</svg>
