<svg width="131" height="143" viewBox="0 0 131 143" fill="none" xmlns="http://www.w3.org/2000/svg">
<g filter="url(#filter0_dddd_646_2854)">
<rect x="26" y="2" width="79" height="79" rx="39.5" fill="#F11170"/>
</g>
<path d="M74.4906 37.9543L69.739 35.0929C69.7363 35.0913 69.7333 35.0904 69.7301 35.0903C69.727 35.0902 69.7239 35.0908 69.7212 35.0922L64.8687 37.7796C64.8656 37.7811 64.8622 37.7817 64.8588 37.7814C64.8554 37.7811 64.8521 37.7799 64.8494 37.7778C64.8467 37.7758 64.8446 37.773 64.8433 37.7698C64.842 37.7666 64.8417 37.7632 64.8423 37.7598L66.0956 32.3561C66.0976 32.3495 66.0956 32.3429 66.0904 32.339L62.035 28.5552C62.0325 28.5528 62.0307 28.5497 62.0298 28.5463C62.029 28.543 62.0291 28.5394 62.0302 28.5361C62.0313 28.5328 62.0334 28.5298 62.0361 28.5276C62.0388 28.5254 62.0421 28.524 62.0455 28.5236L67.5718 28.0469C67.5784 28.0463 67.5837 28.0423 67.587 28.0364L69.9321 23.0098C69.9337 23.0068 69.9361 23.0043 69.9391 23.0026C69.942 23.0008 69.9454 22.9999 69.9488 23C69.9522 23.0001 69.9556 23.0011 69.9584 23.0029C69.9613 23.0048 69.9636 23.0074 69.9651 23.0105L72.1263 28.1188C72.1289 28.1247 72.1349 28.1287 72.1408 28.1293L77.646 28.8064C77.6496 28.8069 77.6529 28.8083 77.6557 28.8106C77.6584 28.8129 77.6604 28.8159 77.6615 28.8194C77.6625 28.8228 77.6626 28.8264 77.6616 28.8299C77.6606 28.8333 77.6586 28.8364 77.6559 28.8387L73.4653 32.4728C73.463 32.4749 73.4612 32.4776 73.4601 32.4806C73.4591 32.4836 73.4588 32.4868 73.4594 32.49L74.5169 37.9345C74.5176 37.938 74.5173 37.9415 74.516 37.9448C74.5148 37.9481 74.5126 37.951 74.5097 37.953C74.5069 37.9551 74.5035 37.9563 74.5 37.9566C74.4965 37.9568 74.4936 37.956 74.4906 37.9543Z" fill="white"/>
<path d="M83.4032 35.4695L84.2867 40.0187C84.2867 40.0318 84.2735 40.045 84.2603 40.0384L80.2979 37.6452H80.2781L76.23 39.8934C76.2168 39.9 76.2036 39.8868 76.2036 39.8736L77.2519 35.364C77.2519 35.3574 77.2519 35.3508 77.2453 35.3442L74.9377 33.1883L74.8982 32.9773L76.0585 31.9751L78.4848 31.7642C78.4914 31.7576 78.498 31.7576 78.498 31.751L80.4561 27.5512C80.4627 27.5446 80.4759 27.5446 80.4825 27.5578L82.289 31.8235C82.289 31.8235 82.2956 31.8301 82.3022 31.8301L86.8975 32.3971C86.9107 32.3971 86.9173 32.4169 86.9107 32.4235L83.4098 35.4563C83.4032 35.4629 83.4032 35.4695 83.4032 35.4695ZM62.2988 35.4563C62.2922 35.4629 62.2922 35.4695 62.2922 35.4695L63.1757 40.0187C63.1823 40.0318 63.1625 40.045 63.1559 40.0384L59.1869 37.6452H59.1737L55.119 39.8934C55.1163 39.895 55.113 39.8956 55.1099 39.8952C55.1068 39.8947 55.1038 39.8933 55.1016 39.891C55.0993 39.8888 55.0979 39.8859 55.0975 39.8827C55.097 39.8796 55.0977 39.8764 55.0992 39.8736L56.1409 35.364C56.1475 35.3574 56.1409 35.3508 56.1409 35.3442L52.7521 32.1861C52.7389 32.1795 52.7455 32.1597 52.7587 32.1597L57.3738 31.7642C57.3804 31.7576 57.387 31.7576 57.387 31.751L59.3452 27.5512C59.3517 27.5446 59.3715 27.5446 59.3781 27.5578L61.178 31.8235C61.1846 31.8235 61.1846 31.8301 61.1912 31.8301L63.9801 32.1729L64.646 32.7927L64.4614 33.5838L62.2988 35.4563ZM70.8289 49.4981H65.238V50.8418H71.2107C71.7867 50.8417 72.3467 50.6522 72.8044 50.3026C73.2621 49.9529 73.5922 49.4625 73.7437 48.9067L80.9328 45.8634C82.9015 45.0366 85.1589 46.0243 85.8776 48.0266L68.6901 57.1309C67.9788 57.5077 67.1993 57.7387 66.3975 57.8101C65.5957 57.8815 64.7877 57.7921 64.0209 57.5469L55.8911 54.9335H53.7813V43.4444H57.5354C58.2336 43.4444 58.9232 43.5934 59.5594 43.8809L64.1614 45.9643C64.4493 46.0923 64.7608 46.1585 65.0758 46.1588H70.8283C71.2711 46.1588 71.6958 46.3347 72.0089 46.6478C72.322 46.9609 72.498 47.3856 72.498 47.8285C72.498 48.2713 72.322 48.696 72.0089 49.0091C71.6958 49.3222 71.2718 49.4981 70.8289 49.4981ZM51.7664 41.7249H45V57.332H51.7658C52.135 57.332 52.4383 57.03 52.4383 56.6602V42.3961C52.4383 42.0203 52.135 41.7243 51.7658 41.7243L51.7664 41.7249ZM49.0514 54.8392C48.9252 54.8392 48.8003 54.8143 48.6837 54.766C48.5671 54.7177 48.4612 54.6469 48.3719 54.5576C48.2827 54.4683 48.212 54.3623 48.1638 54.2457C48.1155 54.1291 48.0907 54.0041 48.0908 53.8779C48.0903 53.6872 48.1464 53.5006 48.2521 53.3418C48.3577 53.183 48.5081 53.0591 48.6842 52.9859C48.8603 52.9126 49.0542 52.8933 49.2413 52.9304C49.4284 52.9675 49.6003 53.0593 49.7352 53.1942C49.87 53.329 49.9618 53.5009 49.9989 53.688C50.036 53.8751 50.0167 54.069 49.9435 54.2451C49.8702 54.4212 49.7464 54.5716 49.5876 54.6773C49.4288 54.7829 49.2422 54.8397 49.0514 54.8392Z" fill="white"/>
<defs>
<filter id="filter0_dddd_646_2854" x="0.518518" y="0.592593" width="129.963" height="142.096" filterUnits="userSpaceOnUse" color-interpolation-filters="sRGB">
<feFlood flood-opacity="0" result="BackgroundImageFix"/>
<feColorMatrix in="SourceAlpha" type="matrix" values="0 0 0 0 0 0 0 0 0 0 0 0 0 0 0 0 0 0 127 0" result="hardAlpha"/>
<feOffset dy="1.74074"/>
<feGaussianBlur stdDeviation="1.57407"/>
<feColorMatrix type="matrix" values="0 0 0 0 0.945098 0 0 0 0 0.0666667 0 0 0 0 0.439216 0 0 0 0.0216667 0"/>
<feBlend mode="normal" in2="BackgroundImageFix" result="effect1_dropShadow_646_2854"/>
<feColorMatrix in="SourceAlpha" type="matrix" values="0 0 0 0 0 0 0 0 0 0 0 0 0 0 0 0 0 0 127 0" result="hardAlpha"/>
<feOffset dy="7.65926"/>
<feGaussianBlur stdDeviation="3.25926"/>
<feColorMatrix type="matrix" values="0 0 0 0 0.945098 0 0 0 0 0.0666667 0 0 0 0 0.439216 0 0 0 0.0353333 0"/>
<feBlend mode="normal" in2="effect1_dropShadow_646_2854" result="effect2_dropShadow_646_2854"/>
<feColorMatrix in="SourceAlpha" type="matrix" values="0 0 0 0 0 0 0 0 0 0 0 0 0 0 0 0 0 0 127 0" result="hardAlpha"/>
<feOffset dy="18.8"/>
<feGaussianBlur stdDeviation="6.5"/>
<feColorMatrix type="matrix" values="0 0 0 0 0.945098 0 0 0 0 0.0666667 0 0 0 0 0.439216 0 0 0 0.045 0"/>
<feBlend mode="normal" in2="effect2_dropShadow_646_2854" result="effect3_dropShadow_646_2854"/>
<feColorMatrix in="SourceAlpha" type="matrix" values="0 0 0 0 0 0 0 0 0 0 0 0 0 0 0 0 0 0 127 0" result="hardAlpha"/>
<feOffset dy="36.2074"/>
<feGaussianBlur stdDeviation="12.7407"/>
<feColorMatrix type="matrix" values="0 0 0 0 0.945098 0 0 0 0 0.0666667 0 0 0 0 0.439216 0 0 0 0.0546667 0"/>
<feBlend mode="normal" in2="effect3_dropShadow_646_2854" result="effect4_dropShadow_646_2854"/>
<feBlend mode="normal" in="SourceGraphic" in2="effect4_dropShadow_646_2854" result="shape"/>
</filter>
</defs>
</svg>
