<svg width="365" height="418" viewBox="0 0 365 418" fill="none" xmlns="http://www.w3.org/2000/svg">
<path d="M286.828 157.609C292.566 158.174 298.41 158.739 304.058 157.586C309.705 156.433 315.238 153.283 317.856 148.146C320.66 142.631 319.666 136.058 319.037 129.909C317.647 116.326 318.335 102.323 313.991 89.3832C313.467 87.8149 312.861 86.2425 312.747 84.588C312.633 82.9336 313.103 81.1421 314.379 80.089C315.55 79.1273 317.141 78.9498 318.677 78.8857C318.836 78.8768 318.996 78.8674 319.151 78.8631C322.497 78.7534 325.846 78.6427 329.197 78.5302C329.225 78.5264 329.252 78.5245 329.279 78.5255C332.199 78.4256 335.492 78.4666 337.543 80.5506C339.238 82.2733 339.553 84.8833 339.767 87.2875C341.736 109.303 342.776 131.483 340.775 153.494C340.419 157.402 339.945 161.375 338.354 164.966C336.39 169.393 332.83 172.943 328.873 175.737C321.302 181.042 312.263 183.85 303.018 183.769L303.013 184.252C303.139 199.486 305.007 214.654 308.583 229.463C309.267 232.284 309.823 235.748 307.641 237.657C306.26 238.87 304.264 238.956 302.436 239.117C296.27 239.661 290.318 241.65 285.065 244.924C285.06 242.103 285.06 239.281 285.065 236.46C285.06 234.441 285.062 232.423 285.07 230.407C285.12 206.171 285.408 181.94 285.936 157.714L286.127 157.14L286.828 157.609Z" fill="#171717"/>
<path d="M321.689 174.591C327.633 172.78 332.064 167.553 334.361 161.781C336.659 156.01 337.118 149.686 337.361 143.477C338.115 124.295 337.049 105.082 335.317 85.9629" stroke="white" stroke-width="3" stroke-linecap="round" stroke-linejoin="round"/>
<path d="M225.546 107.806C224.105 115.737 223.964 124.337 227.847 131.404C230.778 136.737 235.774 140.702 241.212 143.433C246.631 146.149 252.525 147.754 258.373 149.34C261.217 153.57 261.331 159.021 261.071 164.112C260.647 172.367 259.49 180.563 258.336 188.749C256.586 201.143 254.838 213.536 253.09 225.93C252.858 227.557 252.629 229.184 252.402 230.811L251.827 234.873C251.807 235.47 251.592 236.045 251.215 236.509C250.359 237.352 248.932 236.76 247.906 236.135C245.651 234.811 243.48 233.349 241.407 231.755C238.759 229.645 236.498 227.179 235.267 224.052C233.745 220.173 234.059 215.838 234.514 211.695C236.096 197.31 239.09 183.116 242.096 168.954C229.913 168.918 218.9 160.494 212.779 149.946C206.63 139.363 204.624 126.917 203.544 114.719C202.546 103.506 202.272 91.9376 205.924 81.2857C206.539 79.4805 207.373 77.5845 209.018 76.6181C210.691 75.6333 212.786 75.8476 214.711 76.0939L216.421 76.3124C219.466 76.7043 222.512 77.0952 225.56 77.4842C226.197 77.5515 226.828 77.6669 227.447 77.8303C228.041 77.9796 228.595 78.2584 229.069 78.6465C230.56 79.918 230.601 82.1786 230.41 84.1297C229.619 92.1538 226.99 99.8755 225.546 107.806Z" fill="#171717"/>
<path d="M246.468 149.388C233.066 147.539 222.577 135.424 219.854 122.172C217.132 108.919 221.053 95.0182 227.71 83.2402" stroke="white" stroke-width="3" stroke-linecap="round" stroke-linejoin="round"/>
<path d="M36.5705 257.801C40.0805 257.24 43.6583 258.042 47.0953 258.958C56.0433 261.342 64.7898 264.529 73.897 266.192C83.0043 267.856 92.7129 267.911 101.186 264.187C109.587 260.495 116.483 252.522 117.03 243.384C118.821 243.355 120.605 243.141 122.352 242.745C134.581 240.188 146.387 235.972 158.144 231.729L158.29 232.134C166.417 241.25 174.754 256.351 177.944 268.139C181.135 279.926 182.297 292.169 182.876 304.366C183.677 321.259 183.373 338.351 179.612 354.843C178.455 359.943 176.932 365.039 174.139 369.461C172.497 372.093 170.353 374.376 167.828 376.179C166.08 377.413 164.121 378.315 162.048 378.841C157.536 379.953 152.362 378.805 149.13 375.55C148.722 375.143 148.349 374.701 148.014 374.232C144.932 369.942 145.252 364.167 145.817 358.916C147.635 341.928 150.62 325.027 151.072 307.947C151.524 290.868 149.895 273.411 141.888 258.319H141.884C141.009 264.085 140.011 269.842 138.169 275.367C136.031 281.794 132.686 287.952 127.635 292.463C121.254 298.165 112.712 300.795 104.302 302.381C88.8681 305.217 73.0498 305.261 57.6003 302.509C49.8193 301.151 41.9794 299.058 35.4525 294.614C33.0144 292.961 30.8311 290.961 28.9718 288.677C25.8164 284.785 23.7301 280.099 23.5521 275.126C23.4433 270.567 25.045 266.133 28.0421 262.696C30.2245 260.117 33.2423 258.385 36.5705 257.801Z" fill="#171717"/>
<path d="M174.231 353.269C184.697 318.636 181.151 279.983 164.558 247.832" stroke="white" stroke-width="3" stroke-linecap="round" stroke-linejoin="round"/>
<path d="M293.1 387.986C293.843 391.619 294.568 395.507 293.164 398.944C291.906 402.02 289.139 404.195 286.382 406.059C281.773 409.179 276.867 411.837 271.736 413.994C266.979 415.995 261.469 417.545 256.771 415.407C254.524 414.381 252.573 412.358 252.332 409.897C252.154 408.092 252.911 406.31 253.933 404.806C255.806 402.043 258.536 399.997 261.217 398.005C264.995 395.197 268.775 392.389 272.557 389.582L272.666 389.249C275.242 390.05 278.309 390.05 281.044 389.878C284.85 389.642 288.989 389.212 292.458 387.781L293.1 387.986Z" fill="#171717"/>
<path d="M275.355 107.323C270.573 106.065 265.792 104.806 261.011 103.544C259.593 103.17 258.174 102.796 256.754 102.423C255.694 102.214 254.682 101.807 253.773 101.224C252.907 100.586 252.273 99.5102 252.474 98.4529C252.829 96.5748 255.414 96.06 257.196 96.7575C258.978 97.455 260.414 98.8862 262.237 99.465C261.417 98.5075 260.569 97.5002 260.254 96.2743C259.94 95.0484 260.332 93.5395 261.471 92.9875C262.561 92.4591 263.896 92.9786 264.794 93.7853C265.692 94.5921 266.326 95.6635 267.174 96.5248C269.225 98.5942 272.269 99.2234 275.095 99.9209C278.263 100.704 281.376 101.69 284.417 102.874C285.711 103.376 287.054 103.968 287.863 105.098C289.34 107.171 288.405 110.008 287.812 112.487C286.477 118.221 287.343 124.248 290.237 129.375C290.762 130.296 291.321 131.541 290.588 132.301C289.846 133.067 288.501 132.493 287.826 131.663C287.151 130.834 286.691 129.758 285.734 129.275C285.862 130.492 286.705 131.495 287.22 132.602C287.735 133.71 287.794 135.283 286.742 135.907C285.935 136.39 284.836 136.021 284.198 135.324C283.618 134.578 283.216 133.709 283.021 132.785L282.766 132.748C283.481 127.721 283.888 122.655 283.983 117.579C284.019 115.528 283.978 113.363 282.925 111.603C281.4 109.046 278.236 108.084 275.355 107.323Z" fill="#171717"/>
<path d="M271.513 150.43C269.799 151.938 268.084 153.447 266.367 154.956C266.417 152.312 266.466 149.67 266.513 147.029L266.818 147.034C268.364 147.672 269.904 148.761 271.449 149.4C271.615 149.445 271.758 149.55 271.85 149.696C271.969 149.96 271.732 150.238 271.513 150.43Z" fill="#171717"/>
<path d="M263.048 174.356C262.597 169.962 261.207 160.768 264.543 157.108C265.856 155.672 267.615 156.064 268.955 157.359C270.801 159.136 270.038 162.099 270.081 164.542C270.364 181.215 273.605 197.705 279.653 213.245C279.116 215.652 278.579 218.059 278.044 220.465C275.628 220.557 273.386 219.005 272.009 217.019C270.633 215.033 269.981 212.644 269.384 210.301C266.39 198.491 264.273 186.477 263.048 174.356Z" fill="#171717"/>
<path d="M221.078 376.374C216.563 327.445 223.179 277.939 241.094 232.189C241.109 232.152 241.128 232.118 241.153 232.086C241.294 231.904 241.555 231.87 241.738 232.009C243.711 233.505 245.771 234.883 247.907 236.137C248.932 236.762 250.359 237.354 251.215 236.511C251.592 236.047 251.807 235.472 251.828 234.874C252.127 232.757 254.267 231.429 256.321 232.022C264.715 234.449 273.361 235.9 282.089 236.347C283.743 236.431 285.063 237.783 285.062 239.439C285.061 241.831 287.721 243.326 289.907 242.355C291.997 241.426 294.168 240.681 296.395 240.128C296.494 240.104 296.595 240.164 296.621 240.263C296.626 240.283 296.628 240.304 296.627 240.325C293.4 283.894 299.009 327.582 300.376 371.252C300.504 375.345 300.522 379.717 298.304 383.153C296.879 385.26 294.838 386.876 292.46 387.78C288.991 389.212 284.853 389.64 281.047 389.877C278.312 390.05 275.244 390.05 272.669 389.248C270.713 388.642 269.042 387.57 268.015 385.763C266.889 383.771 266.894 381.364 266.932 379.075C267.551 338.206 268.174 297.335 268.8 256.463C268.8 256.423 268.781 256.385 268.749 256.363C268.694 256.324 268.619 256.338 268.581 256.392C257.094 272.607 255.589 289.327 254.448 309.387C253.276 329.873 254.603 350.538 251.603 370.835C251.198 373.579 250.673 376.418 249.078 378.692C248.066 380.101 246.738 381.252 245.2 382.052C242.287 383.634 238.701 384.286 235.354 384.796C232.383 385.248 228.946 385.502 226.206 384.582C224.667 384.114 223.341 383.118 222.464 381.77C221.466 380.181 221.252 378.237 221.078 376.374Z" fill="url(#paint0_linear_646_2518)"/>
<path d="M246.116 382.16C247.501 386.644 248.842 391.727 246.572 395.843C244.912 398.857 241.662 400.62 238.471 401.914C228.874 405.786 218.389 406.912 208.189 405.164C207.159 404.981 206.083 404.753 205.276 404.08C204.196 403.182 203.831 401.664 203.886 400.261C204.014 396.988 206.079 394.039 208.681 392.056C211.284 390.073 214.406 388.901 217.474 387.758C220.528 386.618 223.131 385.934 226.187 384.795L226.209 384.581C228.949 385.501 232.386 385.246 235.357 384.795C238.701 384.285 242.29 383.633 245.203 382.051L246.116 382.16Z" fill="#171717"/>
<path d="M187.553 391.768C188.212 393.528 187.234 395.492 185.98 396.887C182.429 400.834 176.732 402.266 171.44 401.865C166.148 401.463 161.13 399.467 156.207 397.493C154.046 396.627 151.822 395.725 150.158 394.098C147.775 391.782 146.867 388.272 146.995 384.95C147.123 381.732 148.112 378.614 149.123 375.551C152.355 378.805 157.529 379.954 162.041 378.842C164.115 378.315 166.074 377.413 167.821 376.18L167.88 376.261C172.238 381.401 177.606 385.589 183.651 388.564C185.201 389.325 186.942 390.153 187.553 391.768Z" fill="url(#paint1_linear_646_2518)"/>
<path d="M121.224 165.472C119.884 165.308 118.712 164.186 118.183 162.906C117.585 161.444 117.623 159.811 117.672 158.226C117.673 158.213 117.672 158.2 117.67 158.187C117.652 158.077 117.727 157.974 117.837 157.955C119.27 157.71 120.643 157.19 121.88 156.424C122.778 155.851 123.589 155.153 124.287 154.351C124.431 154.186 124.673 154.143 124.861 154.255C124.903 154.281 124.941 154.314 124.973 154.352C126.484 156.192 127.59 158.332 128.216 160.63C128.421 161.391 128.549 162.266 128.088 162.904C127.95 163.09 127.774 163.245 127.573 163.36C126.972 163.706 126.16 163.761 125.463 163.975C124.196 164.358 123.129 165.366 121.812 165.482C121.616 165.502 121.419 165.498 121.224 165.472Z" fill="url(#paint2_linear_646_2518)"/>
<path d="M123.442 210.373C125.963 203.135 127.061 195.461 126.672 187.79C126.284 180.119 124.418 172.601 121.179 165.667C121.372 165.694 121.568 165.699 121.762 165.681C123.068 165.561 124.123 164.543 125.379 164.157C126.07 163.941 126.872 163.886 127.469 163.535C135.771 178.409 138.593 195.819 135.426 212.629C134.617 216.822 133.403 221.02 131.009 224.527C127.14 230.209 120.633 233.479 116.406 238.887C115.363 234.021 116.316 228.919 117.924 224.214C119.531 219.509 121.78 215.06 123.442 210.373Z" fill="url(#paint3_linear_646_2518)"/>
<path d="M106.205 150.898C102.777 149.217 100.103 146.315 98.7067 142.762C97.5355 139.69 97.4441 136.13 98.7613 133.149C98.9615 132.69 99.1965 132.246 99.4635 131.822C100.142 130.699 101.078 129.754 102.195 129.065C104.415 127.725 107.095 127.674 110.017 127.611C113.982 127.517 117.793 123.832 121.704 124.652C121.777 124.666 121.845 124.68 121.918 124.699C123.609 125.123 124.94 126.5 125.686 128.072C126.198 129.215 126.526 130.432 126.656 131.678C126.72 132.166 126.77 132.658 126.807 133.145C127.095 136.002 126.909 138.887 126.255 141.683C125.967 142.792 125.556 143.865 125.03 144.883C122.464 149.787 116.757 152.818 111.242 152.33C109.489 152.168 107.781 151.682 106.205 150.898ZM114.601 138.432C116.461 136.905 117.897 134.366 116.994 132.137C115.44 128.299 105.061 128.66 102.823 131.666C101.504 133.439 101.598 136.051 102.841 137.874C103.494 138.768 104.351 139.493 105.34 139.99C106.329 140.487 107.422 140.741 108.529 140.732C110.758 140.691 112.904 139.879 114.601 138.432Z" fill="#171717"/>
<path d="M107.534 137.179C106.741 136.862 106.085 136.273 105.685 135.518C105.284 134.762 105.165 133.889 105.347 133.054C105.492 132.457 105.889 131.841 106.495 131.759C107.037 131.686 107.525 132.051 108.009 132.302C108.213 132.411 108.429 132.498 108.651 132.562L108.633 133.054C108.357 133.319 108.137 133.637 107.985 133.989C107.833 134.341 107.753 134.719 107.75 135.102C107.747 135.485 107.82 135.865 107.965 136.219C108.111 136.574 108.326 136.895 108.597 137.165L108.587 137.37C108.228 137.366 107.872 137.301 107.534 137.179Z" fill="#171717"/>
<path d="M114.468 96.2746C114.966 95.5126 115.625 94.8684 116.398 94.3875C117.538 93.74 119.177 93.7678 119.978 94.8067C120.625 95.6502 120.52 96.8897 119.991 97.8104C119.403 98.6991 118.624 99.4465 117.712 99.9984C116.673 100.718 115.603 101.388 114.503 102.008C112.08 103.377 109.527 104.502 106.882 105.368C103.463 106.489 99.6293 107.337 97.4013 110.168C95.2862 112.852 95.2452 116.727 96.4302 119.931C97.6151 123.135 99.8351 125.838 102.018 128.468L102.192 129.065C101.075 129.754 100.139 130.7 99.4603 131.823C99.1932 132.247 98.9587 132.69 98.7581 133.15L98.5165 133.044C95.1299 129.061 91.6656 124.936 90.0931 119.952C88.5206 114.969 89.3 108.857 93.352 105.558C95.736 103.616 98.8494 102.905 101.762 101.911C104.674 100.917 107.687 99.381 108.978 96.5892C109.474 95.5136 109.725 94.2373 110.65 93.4899C111.068 93.1461 111.587 92.9507 112.127 92.9347C112.668 92.9187 113.198 93.0825 113.634 93.4009C114.071 93.7188 114.39 94.1733 114.541 94.6927C114.691 95.2117 114.664 95.766 114.465 96.2685C114.23 96.5982 114.005 96.9382 113.786 97.2759C114.097 97.0074 114.332 96.6622 114.468 96.2746Z" fill="#171717"/>
<path d="M28.0421 262.696C25.045 266.133 23.4433 270.567 23.552 275.126C23.7301 280.099 25.8178 284.785 28.9717 288.677L28.4113 289.138C25.1071 294.685 21.8006 300.233 18.4926 305.784C17.417 307.585 16.25 309.476 14.3813 310.415C11.2 312.019 7.2021 310.164 5.03243 307.343C2.51672 304.061 1.74624 299.704 2.06979 295.579C2.39333 291.454 3.71811 287.483 5.03243 283.563C6.31813 279.72 7.6057 275.876 8.89422 272.031C9.94726 268.886 11.1369 265.545 13.7714 263.526C17.6949 260.527 23.2332 261.521 28.0421 262.696Z" fill="url(#paint4_linear_646_2518)"/>
<path d="M109.892 127.228C110.945 126.426 111.995 125.622 113.042 124.817C110.793 120.931 108.794 116.906 107.057 112.766C106.744 112.156 106.592 111.477 106.615 110.792C106.77 109.511 108.091 108.695 109.346 108.38C110.601 108.066 111.949 108.051 113.097 107.455" stroke="#171717" stroke-width="3" stroke-linecap="round" stroke-linejoin="round"/>
<path d="M104.381 116.865C103.924 116.702 103.439 116.632 102.954 116.657C102.469 116.683 101.995 116.805 101.558 117.015C101.12 117.225 100.729 117.52 100.406 117.882C100.083 118.245 99.8355 118.667 99.6768 119.126" stroke="#171717" stroke-width="3" stroke-linecap="round" stroke-linejoin="round"/>
<path d="M110.607 114.408C111.323 112.43 114.081 111.546 115.813 112.74" stroke="#171717" stroke-width="3" stroke-linecap="round" stroke-linejoin="round"/>
<path d="M115.257 102.393C118.814 109.331 121.003 116.889 121.702 124.654C121.706 124.666 121.707 124.679 121.706 124.691" stroke="#171717" stroke-width="3" stroke-linecap="round" stroke-linejoin="round"/>
<path d="M102.193 129.066C101.076 129.755 100.14 130.7 99.4616 131.824C99.1945 132.247 98.9595 132.691 98.7594 133.15C97.4407 136.131 97.5349 139.691 98.7048 142.763C100.101 146.316 102.775 149.218 106.203 150.899C107.778 151.682 109.483 152.167 111.235 152.33C116.75 152.818 122.457 149.787 125.023 144.883C125.549 143.865 125.96 142.791 126.248 141.683C126.901 138.887 127.088 136.002 126.8 133.145C126.763 132.658 126.713 132.166 126.649 131.678C126.519 130.432 126.191 129.215 125.678 128.072C124.935 126.5 123.606 125.123 121.911 124.699C121.838 124.681 121.77 124.667 121.697 124.652C117.788 123.832 113.973 127.515 110.01 127.611C107.093 127.676 104.413 127.726 102.193 129.066Z" stroke="#171717" stroke-width="3" stroke-linecap="round" stroke-linejoin="round"/>
<path d="M112.895 131.332C112.378 131.919 111.704 132.347 110.952 132.565C110.201 132.783 109.403 132.783 108.651 132.563C108.429 132.5 108.213 132.412 108.009 132.303C107.525 132.053 107.037 131.688 106.495 131.761C105.889 131.843 105.492 132.458 105.347 133.055C105.165 133.891 105.284 134.763 105.685 135.519C106.085 136.274 106.741 136.863 107.534 137.18C107.872 137.302 108.229 137.367 108.587 137.371C109.259 137.386 109.923 137.213 110.502 136.873C111.082 136.532 111.555 136.037 111.869 135.443" stroke="#171717" stroke-width="3" stroke-linecap="round" stroke-linejoin="round"/>
<path d="M108.597 137.166C108.326 136.896 108.111 136.575 107.965 136.22C107.82 135.866 107.747 135.486 107.75 135.103C107.753 134.72 107.833 134.341 107.985 133.99C108.137 133.638 108.357 133.32 108.633 133.055" stroke="#171717" stroke-width="3" stroke-linecap="round" stroke-linejoin="round"/>
<path d="M102.822 131.669C101.503 133.442 101.597 136.053 102.84 137.877C103.494 138.77 104.35 139.495 105.339 139.992C106.328 140.489 107.421 140.744 108.528 140.735C110.757 140.693 112.904 139.88 114.6 138.433C116.46 136.906 117.897 134.367 116.993 132.138C115.437 128.3 105.06 128.66 102.822 131.669Z" stroke="#171717" stroke-width="3" stroke-linecap="round" stroke-linejoin="round"/>
<path d="M114.468 96.2744C114.667 95.7719 114.693 95.2176 114.543 94.6981C114.393 94.1791 114.074 93.7247 113.637 93.4063C113.2 93.0884 112.67 92.9245 112.13 92.9405C111.59 92.9565 111.07 93.152 110.653 93.4958C109.728 94.2432 109.476 95.5209 108.98 96.5951C107.69 99.3845 104.672 100.921 101.764 101.917C98.8561 102.913 95.7361 103.622 93.3545 105.563C89.3043 108.863 88.5188 114.971 90.0955 119.958C91.6723 124.945 95.1347 129.065 98.5189 133.05" stroke="#171717" stroke-width="3" stroke-linecap="round" stroke-linejoin="round"/>
<path d="M114.468 96.2754C114.233 96.6051 114.008 96.9451 113.789 97.2828C114.1 97.0124 114.334 96.6649 114.468 96.2754Z" stroke="#171717" stroke-width="3" stroke-linecap="round" stroke-linejoin="round"/>
<path d="M102.019 128.468C99.836 125.838 97.6117 123.14 96.431 119.931C95.2503 116.721 95.2871 112.852 97.4021 110.167C99.6311 107.337 103.464 106.489 106.883 105.367C109.528 104.501 112.081 103.376 114.504 102.008C115.603 101.388 116.673 100.718 117.713 99.9981C118.625 99.4457 119.403 98.6987 119.992 97.81C120.521 96.8893 120.626 95.6498 119.978 94.8063C119.181 93.7674 117.54 93.7396 116.399 94.3872C115.626 94.868 114.967 95.5118 114.468 96.2743" stroke="#171717" stroke-width="3" stroke-linecap="round" stroke-linejoin="round"/>
<path d="M127.186 131.605C131.594 109.566 135.998 87.5256 140.399 65.4832C140.832 63.3046 141.311 61.0347 142.687 59.2888C144.552 56.928 147.615 56.0572 150.701 55.9249C151.579 55.8914 152.459 55.9084 153.335 55.9753C156.125 56.1848 158.96 56.709 161.727 56.5875C162.796 56.5508 163.858 56.3902 164.89 56.1085C163.036 71.2967 161.179 86.481 159.32 101.663C157.278 118.381 155.232 135.151 155.336 151.988C155.482 176.195 160.077 200.158 165.606 223.733" stroke="#171717" stroke-width="3" stroke-linecap="round" stroke-linejoin="round"/>
<path d="M105.88 151.522C103.913 151.765 101.921 151.714 99.9681 151.372C92.4061 150.091 85.51 144.736 82.025 137.775C77.64 129.028 78.1505 118.358 81.8837 109.314C85.6169 100.271 92.2917 92.7003 99.7925 86.4193C101.857 84.6918 104.227 82.1025 103.001 79.7049C102.523 78.7753 101.597 78.1781 100.713 77.6266C100.622 77.5673 100.525 77.508 100.435 77.4533C97.7231 75.7532 95.0128 74.0545 92.3034 72.3572C91.7699 72.0247 91.2231 71.6875 90.6579 71.3818C89.2173 70.5982 87.6815 70.0189 86.0897 70.229C83.8334 70.5252 82.106 72.312 80.6154 74.03C69.7035 86.6288 61.1341 101.67 58.3447 118.107C55.5553 134.544 59.0695 152.429 69.8128 165.179C78.1957 175.12 90.0961 181.228 101.879 186.848C102.632 187.208 103.379 187.563 104.126 187.919" stroke="#171717" stroke-width="3" stroke-linecap="round" stroke-linejoin="round"/>
<path d="M100.693 77.0349C102.881 77.1136 105.025 76.3996 106.728 75.0244C107.462 74.4273 108.141 73.6252 108.159 72.6772C108.187 71.2917 106.728 70.2476 105.343 70.2066C103.957 70.1656 102.662 70.8311 101.441 71.4782C105.077 66.4042 107.735 60.6963 109.276 54.6474C109.404 54.1369 109.509 53.5397 109.171 53.1338C108.969 52.9416 108.704 52.8281 108.425 52.813C108.147 52.798 107.871 52.8827 107.649 53.0518C107.213 53.4069 106.872 53.8642 106.655 54.3827C104.377 58.7861 102.099 63.1876 99.8226 67.5877C102.01 62.1647 106.655 51.4633 104.606 50.7621C101.827 49.5611 100.885 55.4796 99.938 58.3443C98.9909 61.2091 98.2699 64.2015 96.6107 66.7221C98.129 61.7568 99.0949 56.64 99.4915 51.4633C99.5645 50.5426 99.3973 49.321 98.4841 49.1618C97.571 49.0026 97.0025 50.1187 96.752 51.0168C94.8682 57.7947 92.9844 64.5741 91.1006 71.3548" stroke="#171717" stroke-width="3" stroke-linecap="round" stroke-linejoin="round"/>
<path d="M150.677 55.3925C148.52 54.0969 146.664 52.3548 145.235 50.2827C144.793 49.6445 144.419 48.7149 144.966 48.1587C145.385 47.7348 146.092 47.8351 146.666 48.0037C148.747 48.6141 150.68 49.6459 152.345 51.0348C152.345 43.9093 152.018 29.61 154.962 29.9311C157.906 30.2521 156.375 42.6161 155.513 48.9838C156.311 44.4485 157.109 39.9161 157.906 35.387C158.184 33.8008 158.914 31.8134 160.522 31.8271C162.344 31.8426 160.784 44.0784 159.374 50.0411C160.74 47.302 160.764 44.125 161.156 41.0893C161.549 38.0535 163.05 32.8684 165.076 33.1123C168.701 33.5484 164.744 48.7756 161.698 55.9939" stroke="#171717" stroke-width="3" stroke-linecap="round" stroke-linejoin="round"/>
<path d="M99.8828 151.87C103.201 154.048 106.579 156.255 110.376 157.408C112.721 158.146 115.204 158.344 117.637 157.986C119.142 157.756 120.586 157.225 121.88 156.423C122.885 155.782 123.781 154.983 124.533 154.058C125.502 152.859 126.256 151.499 126.758 150.042C127.687 147.371 127.794 144.331 126.607 141.76" stroke="#171717" stroke-width="3" stroke-linecap="round" stroke-linejoin="round"/>
<path d="M117.672 158.206C117.623 159.797 117.582 161.437 118.183 162.905C118.712 164.186 119.884 165.307 121.223 165.472C121.418 165.498 121.616 165.503 121.812 165.485C123.13 165.367 124.195 164.359 125.462 163.978C126.16 163.764 126.97 163.709 127.573 163.363C127.774 163.248 127.949 163.092 128.088 162.907C128.548 162.269 128.421 161.394 128.216 160.633C127.582 158.31 126.46 156.15 124.925 154.297" stroke="#171717" stroke-width="3" stroke-linecap="round" stroke-linejoin="round"/>
<path d="M101.741 187.137C103.729 202.393 105.716 217.651 107.703 232.913C108.095 235.935 108.615 239.217 110.848 241.3C112.517 242.85 114.718 243.369 117.029 243.383C118.82 243.355 120.604 243.141 122.351 242.745C134.58 240.188 146.386 235.971 158.143 231.728C158.416 231.628 158.685 231.532 158.959 231.432C160.641 230.825 162.368 230.192 163.727 229.021C165.085 227.849 165.997 225.994 165.559 224.257" stroke="#171717" stroke-width="3" stroke-linecap="round" stroke-linejoin="round"/>
<path d="M117.044 243.121L117.03 243.381C116.483 252.52 109.587 260.492 101.186 264.184C92.7124 267.908 83.0038 267.853 73.8966 266.19C64.7893 264.526 56.0424 261.339 47.0948 258.956C43.6569 258.04 40.08 257.238 36.5701 257.798C33.2423 258.382 30.2245 260.115 28.0421 262.694C25.045 266.131 23.4433 270.565 23.5521 275.123C23.7301 280.096 25.8178 284.782 28.9718 288.675C30.8287 290.959 33.0092 292.96 35.4445 294.614C41.9714 299.058 49.8113 301.151 57.5923 302.509C73.0418 305.261 88.8601 305.217 104.294 302.381C112.704 300.795 121.246 298.165 127.627 292.462C132.678 287.95 136.023 281.792 138.161 275.367C140.003 269.843 141.001 264.086 141.876 258.319C142.022 257.384 142.159 256.45 142.3 255.516" stroke="#171717" stroke-width="3" stroke-linecap="round" stroke-linejoin="round"/>
<path d="M141.881 258.32C149.887 273.412 151.517 290.869 151.064 307.948C150.612 325.027 147.626 341.929 145.809 358.917C145.244 364.168 144.925 369.943 148.006 374.232C148.341 374.702 148.714 375.143 149.123 375.551C152.354 378.805 157.528 379.954 162.04 378.842C164.113 378.316 166.073 377.414 167.82 376.18C170.345 374.377 172.489 372.094 174.131 369.461C176.925 365.04 178.447 359.944 179.605 354.843C183.365 338.352 183.671 321.26 182.869 304.367C182.29 292.17 181.126 279.925 177.937 268.139C174.747 256.354 166.409 241.251 158.282 232.135" stroke="#171717" stroke-width="3" stroke-linecap="round" stroke-linejoin="round"/>
<path d="M28.2102 262.736L28.0416 262.695C23.2328 261.518 17.6944 260.525 13.7719 263.524C11.1374 265.544 9.94776 268.885 8.89472 272.03C7.60479 275.872 6.31768 279.716 5.03293 283.562C3.72058 287.482 2.3958 291.452 2.07038 295.577C1.74495 299.702 2.51731 304.059 5.03293 307.342C7.2026 310.163 11.2024 312.018 14.3817 310.414C16.2505 309.475 17.4175 307.583 18.4931 305.783C21.7983 300.231 25.1043 294.682 28.4118 289.136" stroke="#171717" stroke-width="3" stroke-linecap="round" stroke-linejoin="round"/>
<path d="M149.219 375.268C149.187 375.362 149.155 375.456 149.125 375.55C148.114 378.611 147.125 381.731 146.997 384.949C146.869 388.271 147.776 391.781 150.16 394.097C151.824 395.724 154.048 396.627 156.209 397.493C161.132 399.466 166.154 401.458 171.442 401.864C176.729 402.27 182.431 400.834 185.982 396.886C187.236 395.492 188.216 393.527 187.555 391.768C186.943 390.154 185.203 389.324 183.653 388.565C177.607 385.589 172.238 381.4 167.88 376.259" stroke="#171717" stroke-width="3" stroke-linecap="round" stroke-linejoin="round"/>
<path d="M264.312 107.99C266.738 109.033 269.296 109.74 271.914 110.091C270.501 115.187 269.092 120.283 267.684 125.379C268.382 125.384 269.075 125.384 269.772 125.389" stroke="#171717" stroke-width="3" stroke-linecap="round" stroke-linejoin="round"/>
<path d="M267.338 114.124C267.308 113.772 267.174 113.438 266.953 113.162C266.732 112.887 266.434 112.684 266.097 112.579C265.76 112.474 265.399 112.471 265.061 112.572C264.723 112.672 264.422 112.871 264.197 113.144C264.339 113.043 264.48 112.938 264.625 112.834" stroke="#171717" stroke-width="3" stroke-linecap="round" stroke-linejoin="round"/>
<path d="M274.973 114.808C275.064 114.739 275.155 114.676 275.242 114.607" stroke="#171717" stroke-width="3" stroke-linecap="round" stroke-linejoin="round"/>
<path d="M278.711 116.08C278.59 115.718 278.387 115.387 278.117 115.116C277.848 114.845 277.52 114.64 277.157 114.517C276.796 114.394 276.41 114.356 276.031 114.406C275.652 114.457 275.29 114.595 274.973 114.809C274.914 114.85 274.854 114.891 274.8 114.936" stroke="#171717" stroke-width="3" stroke-linecap="round" stroke-linejoin="round"/>
<path d="M269.042 130.801C270.282 131.837 272.228 131.631 273.536 130.682C273.778 130.506 274.003 130.31 274.211 130.095C275.097 129.112 275.75 127.942 276.121 126.672C277.293 127.383 278.185 128.473 278.65 129.762C278.874 130.405 278.941 131.092 278.843 131.766C278.745 132.439 278.487 133.079 278.09 133.632C277.813 133.991 277.467 134.291 277.074 134.516C276.684 134.746 276.25 134.89 275.8 134.938C275.351 134.987 274.896 134.94 274.466 134.799" stroke="#171717" stroke-width="3" stroke-linecap="round" stroke-linejoin="round"/>
<path d="M276.992 134.231C276.964 133.359 276.692 132.511 276.206 131.786C275.72 131.061 275.04 130.487 274.243 130.129" stroke="#171717" stroke-width="3" stroke-linecap="round" stroke-linejoin="round"/>
<path d="M267.211 144.892C268.843 142.736 268.022 139.546 266.386 137.399C264.749 135.252 262.448 133.694 260.739 131.601C257.866 128.087 256.933 123.305 257.233 118.78C257.534 114.254 259.422 108.519 260.839 104.207" stroke="#171717" stroke-width="3" stroke-linecap="round" stroke-linejoin="round"/>
<path d="M279.745 147.544C282.367 137.764 283.79 127.702 283.984 117.579C284.02 115.528 283.979 113.363 282.926 111.603C281.4 109.046 278.236 108.084 275.355 107.323C270.573 106.065 265.792 104.806 261.011 103.544C259.593 103.17 258.174 102.796 256.754 102.423C255.694 102.214 254.682 101.807 253.773 101.224C252.907 100.586 252.273 99.5102 252.474 98.4529C252.829 96.5748 255.414 96.06 257.196 96.7575C258.978 97.455 260.414 98.8862 262.237 99.465C261.417 98.5075 260.569 97.5002 260.254 96.2743C259.94 95.0484 260.332 93.5395 261.471 92.9875C262.561 92.4591 263.896 92.9786 264.794 93.7853C265.692 94.5921 266.326 95.6635 267.174 96.5248C269.225 98.5942 272.269 99.2234 275.095 99.9209C278.263 100.704 281.376 101.69 284.417 102.874C285.711 103.376 287.054 103.968 287.863 105.098C289.34 107.171 288.405 110.008 287.812 112.487C286.477 118.221 287.343 124.248 290.237 129.375C290.762 130.296 291.321 131.541 290.588 132.301C289.846 133.067 288.501 132.493 287.826 131.663C287.151 130.834 286.691 129.758 285.734 129.275C285.862 130.492 286.705 131.495 287.22 132.602C287.735 133.71 287.794 135.283 286.742 135.907C285.935 136.39 284.836 136.021 284.198 135.324C283.618 134.578 283.216 133.709 283.021 132.785" stroke="#171717" stroke-width="3" stroke-linecap="round" stroke-linejoin="round"/>
<path d="M258.45 149.358L258.4 149.345C258.392 149.34 258.382 149.339 258.373 149.34C252.524 147.754 246.631 146.149 241.211 143.433C235.773 140.701 230.778 136.737 227.847 131.404C223.963 124.339 224.105 115.738 225.545 107.806C226.986 99.875 229.62 92.1538 230.409 84.1317C230.6 82.181 230.559 79.92 229.068 78.6484C228.594 78.2604 228.04 77.9815 227.446 77.8323C226.827 77.6688 226.196 77.5535 225.559 77.4861C222.513 77.0985 219.467 76.7081 216.42 76.3144L214.71 76.0959C212.782 75.8496 210.69 75.6353 209.017 76.62C207.372 77.5864 206.538 79.4825 205.923 81.2876C202.271 91.9396 202.545 103.508 203.543 114.721C204.623 126.914 206.629 139.362 212.778 149.948C218.9 160.498 229.912 168.92 242.095 168.956H242.232" stroke="#171717" stroke-width="3" stroke-linecap="round" stroke-linejoin="round"/>
<path d="M286.829 157.609C292.568 158.174 298.411 158.739 304.059 157.586C309.706 156.433 315.24 153.283 317.858 148.146C320.661 142.631 319.667 136.058 319.038 129.909C317.648 116.326 318.337 102.323 313.993 89.3832C313.468 87.8149 312.862 86.2425 312.748 84.588C312.634 82.9336 313.104 81.1421 314.38 80.089C315.551 79.1273 317.142 78.9498 318.678 78.8857C318.838 78.8768 318.997 78.8674 319.152 78.8631C322.498 78.7534 325.847 78.6427 329.199 78.5302C329.225 78.5264 329.253 78.5245 329.28 78.5255C332.2 78.4256 335.493 78.4666 337.544 80.5506C339.24 82.2733 339.554 84.8833 339.769 87.2875C341.738 109.303 342.777 131.483 340.776 153.494C340.42 157.402 339.947 161.375 338.356 164.966C336.391 169.393 332.831 172.943 328.875 175.737C321.303 181.042 312.264 183.85 303.019 183.769C302.172 183.76 301.328 183.726 300.489 183.668" stroke="#171717" stroke-width="3" stroke-linecap="round" stroke-linejoin="round"/>
<path d="M242.195 168.475C242.164 168.635 242.127 168.794 242.095 168.954C239.091 183.116 236.097 197.31 234.513 211.695C234.057 215.84 233.742 220.173 235.266 224.052C236.497 227.179 238.758 229.645 241.406 231.756C243.479 233.349 245.65 234.812 247.905 236.135C248.93 236.76 250.357 237.352 251.214 236.509C251.591 236.045 251.806 235.47 251.826 234.873L252.401 230.811C252.629 229.184 252.858 227.557 253.089 225.93C254.839 213.536 256.588 201.143 258.335 188.749C259.489 180.563 260.646 172.367 261.07 164.113C261.33 159.021 261.216 153.57 258.372 149.34" stroke="#171717" stroke-width="3" stroke-linecap="round" stroke-linejoin="round"/>
<path d="M285.935 157.715C285.411 181.941 285.122 206.172 285.069 230.407C285.064 232.427 285.063 234.444 285.064 236.46C285.059 239.282 285.059 242.103 285.064 244.925C290.318 241.651 296.269 239.661 302.435 239.118C304.263 238.958 306.259 238.872 307.64 237.658C309.824 235.748 309.268 232.284 308.582 229.464C305.006 214.655 303.138 199.486 303.012 184.252" stroke="#171717" stroke-width="3" stroke-linecap="round" stroke-linejoin="round"/>
<path d="M258.436 149.217C257.155 148.146 258.386 145.397 259.881 144.649C261.376 143.9 263.158 144.216 264.799 144.549C265.592 144.708 266.39 144.868 267.183 145.027C271.372 145.866 275.559 146.708 279.745 147.552C279.941 147.593 280.137 147.63 280.333 147.671C281.892 147.981 283.551 148.35 284.663 149.49C286.427 151.29 286.564 154.654 286.126 157.138" stroke="#171717" stroke-width="3" stroke-linecap="round" stroke-linejoin="round"/>
<path d="M241.116 232.133C223.184 277.901 216.561 327.425 221.078 376.374C221.252 378.238 221.466 380.18 222.464 381.766C223.341 383.115 224.667 384.111 226.206 384.579C228.946 385.499 232.383 385.244 235.354 384.793C238.698 384.282 242.287 383.631 245.2 382.049C246.736 381.248 248.063 380.097 249.074 378.689C250.67 376.415 251.193 373.575 251.599 370.831C254.599 350.533 253.272 329.868 254.444 309.384C255.588 289.283 257.097 272.536 268.647 256.291C268.861 255.985 269.084 255.676 269.306 255.37" stroke="#171717" stroke-width="3" stroke-linecap="round" stroke-linejoin="round"/>
<path d="M268.796 256.396C268.172 297.287 267.549 338.179 266.927 379.073C266.891 381.361 266.887 383.768 268.011 385.76C269.036 387.57 270.709 388.641 272.664 389.245C275.24 390.046 278.307 390.046 281.042 389.874C284.848 389.639 288.987 389.209 292.456 387.777C294.834 386.874 296.874 385.258 298.299 383.151C300.519 379.713 300.501 375.343 300.372 371.25C299.006 327.569 293.393 283.871 296.625 240.291" stroke="#171717" stroke-width="3" stroke-linecap="round" stroke-linejoin="round"/>
<path d="M253.668 226.012C263.895 228.639 274.384 230.113 284.939 230.406" stroke="#171717" stroke-width="3" stroke-linecap="round" stroke-linejoin="round"/>
<path d="M252.364 230.803C252.376 230.808 252.388 230.811 252.401 230.812C262.954 234.279 273.959 236.182 285.064 236.459C285.098 236.463 285.131 236.465 285.164 236.464" stroke="#171717" stroke-width="3" stroke-linecap="round" stroke-linejoin="round"/>
<path d="M266.518 146.783C266.518 146.865 266.514 146.947 266.514 147.029C266.464 149.668 266.415 152.31 266.368 154.956C268.082 153.449 269.797 151.94 271.514 150.429C271.733 150.238 271.97 149.958 271.851 149.696C271.759 149.55 271.616 149.445 271.45 149.399C269.905 148.761 268.365 147.672 266.819 147.034" stroke="#171717" stroke-width="3" stroke-linecap="round" stroke-linejoin="round"/>
<path d="M263.048 174.356C264.273 186.477 266.39 198.491 269.384 210.301C269.981 212.644 270.637 215.028 272.009 217.019C273.382 219.011 275.628 220.557 278.044 220.465C278.582 218.059 279.118 215.652 279.653 213.245C273.605 197.705 270.364 181.215 270.081 164.542C270.04 162.099 270.801 159.136 268.955 157.359C267.615 156.064 265.856 155.672 264.543 157.108C261.207 160.768 262.597 169.962 263.048 174.356Z" stroke="#171717" stroke-width="3" stroke-linecap="round" stroke-linejoin="round"/>
<path d="M226.183 384.794C223.129 385.933 220.526 386.617 217.47 387.756C214.402 388.9 211.285 390.072 208.677 392.055C206.07 394.038 204.01 396.987 203.882 400.259C203.828 401.663 204.192 403.179 205.272 404.079C206.079 404.753 207.156 404.981 208.185 405.162C218.386 406.91 228.871 405.785 238.467 401.913C241.658 400.619 244.908 398.854 246.568 395.841C248.838 391.726 247.497 386.643 246.112 382.158" stroke="#171717" stroke-width="3" stroke-linecap="round" stroke-linejoin="round"/>
<path d="M272.557 389.58C268.778 392.388 264.998 395.196 261.216 398.003C258.536 399.995 255.806 402.042 253.933 404.804C252.912 406.308 252.155 408.091 252.331 409.895C252.573 412.357 254.524 414.381 256.771 415.405C261.471 417.543 266.981 415.993 271.735 413.993C276.866 411.835 281.772 409.177 286.382 406.057C289.14 404.193 291.907 402.019 293.164 398.942C294.567 395.504 293.843 391.617 293.1 387.984" stroke="#171717" stroke-width="3" stroke-linecap="round" stroke-linejoin="round"/>
<path d="M220.198 66.9528C221.096 62.055 222.625 52.2983 220.258 52.2983C217.445 51.6809 216.016 67.9861 216.447 76.101" stroke="#171717" stroke-width="3" stroke-linecap="round" stroke-linejoin="round"/>
<path d="M220.157 67.168C220.043 67.7331 219.938 68.2983 219.838 68.8634C219.947 68.303 220.052 67.7373 220.157 67.168Z" stroke="#171717" stroke-width="3" stroke-linecap="round" stroke-linejoin="round"/>
<path d="M220.157 67.1674C220.171 67.0944 220.184 67.0214 220.198 66.9531" stroke="#171717" stroke-width="3" stroke-linecap="round" stroke-linejoin="round"/>
<path d="M227.504 77.6419C228.292 76.7805 229.332 76.197 230.266 75.4995C231.201 74.802 232.089 73.9086 232.331 72.768C232.572 71.6274 231.925 70.2381 230.772 70.06C229.099 69.8006 228.037 71.9518 226.396 72.362C228.222 67.4378 229.485 62.3228 230.161 57.1151C230.28 56.2311 230.166 55.032 229.286 54.8634C228.434 54.6996 227.878 55.7206 227.618 56.5499C226.159 61.1671 224.702 65.7848 223.247 70.402C224.263 65.1556 225.279 59.8819 225.494 54.5399C225.521 53.8518 225.211 52.876 224.541 53.0446C224.186 53.1313 224.008 53.5189 223.885 53.8608C222.316 58.1215 221.083 62.4994 220.197 66.9532" stroke="#171717" stroke-width="3" stroke-linecap="round" stroke-linejoin="round"/>
<path d="M329.182 78.1695C328.82 71.9078 327.998 65.6809 326.72 59.5402C326.415 58.0802 326.037 56.5365 324.943 55.5249C324.259 54.8867 323.012 54.6042 322.486 55.3789C322.257 55.8239 322.194 56.3363 322.308 56.8237C322.878 61.6463 323.446 66.4688 324.013 71.2913C323.375 66.92 322.7 62.4441 320.553 58.5832C320.237 57.9093 319.742 57.3352 319.122 56.9241C318.807 56.7267 318.433 56.6434 318.064 56.6881C317.695 56.7333 317.352 56.9033 317.094 57.1704C316.623 57.7671 316.806 58.6242 317.012 59.3537C318.197 63.5517 319.382 67.7484 320.567 71.9431C319.295 68.1322 318.014 64.2944 316.123 60.7439C315.883 60.2174 315.529 59.7512 315.087 59.3782C314.861 59.195 314.585 59.0862 314.296 59.0659C314.006 59.0452 313.718 59.1144 313.469 59.2642C312.853 59.7107 312.904 60.6361 313.04 61.3835C313.756 65.3781 314.948 69.2724 316.591 72.9834C315.725 72.4046 314.804 71.8032 313.765 71.7665C312.726 71.7298 311.586 72.52 311.65 73.5533C311.705 74.4514 312.562 75.0575 313.328 75.527C315.11 76.6074 316.89 77.6906 318.67 78.7766" stroke="#171717" stroke-width="3" stroke-linecap="round" stroke-linejoin="round"/>
<path d="M121.196 165.415L121.223 165.47C124.492 172.329 126.377 179.764 126.768 187.352C127.16 194.939 126.052 202.529 123.507 209.688C121.83 214.324 119.56 218.727 117.937 223.376C116.315 228.026 115.353 233.078 116.406 237.889C120.672 232.538 127.24 229.306 131.146 223.686C133.562 220.217 134.788 216.065 135.604 211.917C138.801 195.291 135.953 178.071 127.573 163.36C127.559 163.337 127.545 163.31 127.532 163.287" stroke="#171717" stroke-width="3" stroke-linecap="round" stroke-linejoin="round"/>
<path d="M361.89 165.393C353.708 180.033 346.606 195.812 345.692 212.558C345.486 216.331 345.649 220.311 347.561 223.57C349.472 226.83 353.621 229.046 357.132 227.65C360.644 226.254 361.717 220.505 358.421 218.658C355.897 217.245 352.522 218.857 351.084 221.369C349.646 223.88 349.664 226.948 349.886 229.833C350.387 236.346 351.727 242.803 351.699 249.335C351.671 255.867 350.077 262.726 345.564 267.449C343.448 269.662 340.235 271.379 337.381 270.268C334.527 269.156 333.941 264.121 336.9 263.331" stroke="#171717" stroke-width="3" stroke-linecap="round" stroke-linejoin="round"/>
<path d="M332.333 182.73C335.013 182.05 337.436 180.604 339.306 178.568C341.176 176.531 342.411 173.994 342.86 171.266" stroke="#171717" stroke-width="3" stroke-linecap="round" stroke-linejoin="round"/>
<path d="M210.648 316.043C209.54 312.027 209.327 307.816 210.022 303.708C210.718 299.601 212.306 295.695 214.674 292.268" stroke="#171717" stroke-width="3" stroke-linecap="round" stroke-linejoin="round"/>
<path d="M209.525 164.655C206.353 162.84 203.695 160.249 201.799 157.125C199.903 154.001 198.832 150.446 198.686 146.795" stroke="#171717" stroke-width="3" stroke-linecap="round" stroke-linejoin="round"/>
<path d="M212.662 41.2472C217.169 37.5851 221.077 33.2429 224.245 28.377" stroke="#171717" stroke-width="3" stroke-linecap="round" stroke-linejoin="round"/>
<path d="M193.309 33.5211L195.997 2" stroke="#171717" stroke-width="3" stroke-linecap="round" stroke-linejoin="round"/>
<path d="M177.914 30.9515L173.412 22.5859" stroke="#171717" stroke-width="3" stroke-linecap="round" stroke-linejoin="round"/>
<path d="M289.932 266.798L290.485 260.676" stroke="#171717" stroke-width="3" stroke-linecap="round" stroke-linejoin="round"/>
<path d="M276.69 285.776V279.662" stroke="#171717" stroke-width="3" stroke-linecap="round" stroke-linejoin="round"/>
<path d="M288.276 313.125L287.962 307.332" stroke="#171717" stroke-width="3" stroke-linecap="round" stroke-linejoin="round"/>
<path d="M276.591 354.613L277.276 350.438" stroke="#171717" stroke-width="3" stroke-linecap="round" stroke-linejoin="round"/>
<path d="M292.134 341.439L291.812 335.004" stroke="#171717" stroke-width="3" stroke-linecap="round" stroke-linejoin="round"/>
<path d="M252.236 268.723C252.744 266.434 253.855 264.324 255.454 262.609" stroke="#171717" stroke-width="3" stroke-linecap="round" stroke-linejoin="round"/>
<path d="M243.512 248.448C243.85 246.53 244.901 244.813 246.456 243.641" stroke="#171717" stroke-width="3" stroke-linecap="round" stroke-linejoin="round"/>
<path d="M233.255 306.047L234.864 300.254" stroke="#171717" stroke-width="3" stroke-linecap="round" stroke-linejoin="round"/>
<path d="M244.515 336.935C245.291 335.1 245.404 333.052 244.836 331.143" stroke="#171717" stroke-width="3" stroke-linecap="round" stroke-linejoin="round"/>
<path d="M224.866 353.029C224.647 352.343 224.566 351.62 224.627 350.902C224.688 350.184 224.891 349.485 225.223 348.846" stroke="#171717" stroke-width="3" stroke-linecap="round" stroke-linejoin="round"/>
<path d="M240.663 373.293L241.305 368.145" stroke="#171717" stroke-width="3" stroke-linecap="round" stroke-linejoin="round"/>
<path d="M271.553 234.62L272.195 230.758" stroke="#171717" stroke-width="3" stroke-linecap="round" stroke-linejoin="round"/>
<path d="M264.465 233.975L265.43 229.793" stroke="#171717" stroke-width="3" stroke-linecap="round" stroke-linejoin="round"/>
<path d="M95.3751 90.1012C91.7737 86.6718 87.5649 83.9431 82.9641 82.0546C82.0335 81.6731 81.0191 81.27 80.5039 80.4062" stroke="#171717" stroke-width="3" stroke-linecap="round" stroke-linejoin="round"/>
<path d="M140.614 66.8125C146.922 65.6869 153.332 65.2418 159.735 65.4839" stroke="#171717" stroke-width="3" stroke-linecap="round" stroke-linejoin="round"/>
<path d="M75.5987 66.7729L73.2393 62.6973" stroke="#171717" stroke-width="3" stroke-linecap="round" stroke-linejoin="round"/>
<path d="M71.9785 66.3784L76.2095 62.875" stroke="#171717" stroke-width="3" stroke-linecap="round" stroke-linejoin="round"/>
<path d="M83.3289 48.112C83.3035 46.3191 82.8561 44.5573 82.0234 42.9688" stroke="#171717" stroke-width="3" stroke-linecap="round" stroke-linejoin="round"/>
<path d="M79.8877 46.1804L84.8878 43.6113L84.5313 44.2071" stroke="#171717" stroke-width="3" stroke-linecap="round" stroke-linejoin="round"/>
<path d="M45.9724 79.2246C41.7611 83.1806 38.1664 87.9918 36.5939 93.5528C35.0214 99.1137 35.7052 105.493 39.2736 110.039C40.8983 112.108 43.5013 113.838 46.0364 113.135C48.9827 112.318 50.1709 108.795 50.4596 105.752C50.6414 103.833 50.639 101.832 49.8826 100.058C49.1263 98.2853 47.4629 96.7887 45.5358 96.7284C42.6201 96.6375 40.5819 99.636 39.7761 102.44C38.4697 107.053 38.8629 111.983 40.8842 116.333C41.8779 118.449 43.2795 120.51 43.2964 122.849C43.3237 126.656 39.4761 129.577 35.6845 129.924C31.8929 130.271 28.2091 128.742 24.709 127.244" stroke="#171717" stroke-width="3" stroke-linecap="round" stroke-linejoin="round"/>
<path d="M47.648 136.07C46.6331 146.869 51.8432 158.035 60.771 164.194" stroke="#171717" stroke-width="3" stroke-linecap="round" stroke-linejoin="round"/>
<path d="M67.6364 197.029C74.4006 205.25 79.6267 214.624 83.0647 224.699C84.7379 229.611 85.9666 235.03 84.2373 239.922C83.3548 242.417 81.7545 244.595 79.638 246.183C77.5211 247.771 74.9827 248.698 72.3407 248.847C69.6986 248.996 67.0717 248.361 64.7899 247.022C62.5077 245.683 60.6724 243.699 59.5148 241.319C57.826 237.847 58.1783 232.855 61.6058 231.077C64.4438 229.604 68.2962 231.305 69.5244 234.256C70.7526 237.208 69.5484 240.839 67.0754 242.866C64.6025 244.894 61.1231 245.428 57.9993 244.747C54.0904 243.895 50.7872 241.371 47.1543 239.694C43.5214 238.017 38.8609 237.328 35.7969 239.9" stroke="#171717" stroke-width="3" stroke-linecap="round" stroke-linejoin="round"/>
<path d="M106.856 312.497C110.571 313.066 114.366 312.781 117.954 311.663C121.542 310.545 124.827 308.623 127.56 306.045" stroke="#171717" stroke-width="3" stroke-linecap="round" stroke-linejoin="round"/>
<path d="M296.478 100.449L302.752 95.623" stroke="#171717" stroke-width="3" stroke-linecap="round" stroke-linejoin="round"/>
<path d="M301.305 101.414L296.961 95.1406" stroke="#171717" stroke-width="3" stroke-linecap="round" stroke-linejoin="round"/>
<path d="M279.103 88.3826V84.0391" stroke="#171717" stroke-width="3" stroke-linecap="round" stroke-linejoin="round"/>
<path d="M274.764 87.0026L282.487 86.5703" stroke="#171717" stroke-width="3" stroke-linecap="round" stroke-linejoin="round"/>
<path d="M289.905 377.799L290.542 372.221" stroke="#171717" stroke-width="3" stroke-linecap="round" stroke-linejoin="round"/>
<path d="M16.8212 261.963C11.6756 272.283 6.86484 283.359 7.56043 294.87C7.73892 297.829 8.31395 300.838 9.85772 303.368C11.4015 305.897 14.0567 307.883 17.0162 308.035" stroke="#171717" stroke-width="3" stroke-linecap="round" stroke-linejoin="round"/>
<path d="M25.0877 294.043L20.1064 289.592" stroke="#171717" stroke-width="3" stroke-linecap="round" stroke-linejoin="round"/>
<path d="M22.1633 298.671L18.3486 294.979" stroke="#171717" stroke-width="3" stroke-linecap="round" stroke-linejoin="round"/>
<path d="M147.433 389.125C151.32 390.988 155.272 392.72 159.31 394.228C163.925 395.952 168.776 397.4 173.69 397.097C178.605 396.794 183.636 394.446 186.021 390.137" stroke="#171717" stroke-width="3" stroke-linecap="round" stroke-linejoin="round"/>
<path d="M176.537 385.021C175.144 386.078 173.823 387.226 172.584 388.459L172.846 388.334" stroke="#171717" stroke-width="3" stroke-linecap="round" stroke-linejoin="round"/>
<path d="M171.88 380.852C170.562 381.532 169.412 382.497 168.514 383.677" stroke="#171717" stroke-width="3" stroke-linecap="round" stroke-linejoin="round"/>
<path d="M154.95 90.3745C154.286 89.2669 153.331 88.3631 152.188 87.7617" stroke="#171717" stroke-width="3" stroke-linecap="round" stroke-linejoin="round"/>
<path d="M138.66 109.457L140.805 107.312" stroke="#171717" stroke-width="3" stroke-linecap="round" stroke-linejoin="round"/>
<path d="M150.458 124.903L148.527 122.758" stroke="#171717" stroke-width="3" stroke-linecap="round" stroke-linejoin="round"/>
<path d="M136.039 146.311L138.625 143.318" stroke="#171717" stroke-width="3" stroke-linecap="round" stroke-linejoin="round"/>
<path d="M149.959 169.17L147.429 166.975" stroke="#171717" stroke-width="3" stroke-linecap="round" stroke-linejoin="round"/>
<path d="M144.496 199.57L146.273 196.17" stroke="#171717" stroke-width="3" stroke-linecap="round" stroke-linejoin="round"/>
<path d="M153.246 219.71L150.243 217.779" stroke="#171717" stroke-width="3" stroke-linecap="round" stroke-linejoin="round"/>
<path d="M115.709 200.62C114.721 200.579 113.761 200.284 112.921 199.762" stroke="#171717" stroke-width="3" stroke-linecap="round" stroke-linejoin="round"/>
<path d="M109.47 180.231C110.135 179.192 110.592 178.032 110.814 176.818" stroke="#171717" stroke-width="3" stroke-linecap="round" stroke-linejoin="round"/>
<path d="M96.1894 162.439L93.6152 161.152" stroke="#171717" stroke-width="3" stroke-linecap="round" stroke-linejoin="round"/>
<path d="M76.1387 160.03L77.9052 156.408" stroke="#171717" stroke-width="3" stroke-linecap="round" stroke-linejoin="round"/>
<path d="M73.8845 137.541C72.5978 137.318 71.3997 136.738 70.4268 135.867" stroke="#171717" stroke-width="3" stroke-linecap="round" stroke-linejoin="round"/>
<path d="M64.4766 120.641L66.6142 118.061" stroke="#171717" stroke-width="3" stroke-linecap="round" stroke-linejoin="round"/>
<path d="M78.386 101.736L76.4551 99.1621" stroke="#171717" stroke-width="3" stroke-linecap="round" stroke-linejoin="round"/>
<path d="M64.9784 216.923L62.083 212.74" stroke="#171717" stroke-width="3" stroke-linecap="round" stroke-linejoin="round"/>
<path d="M60.418 217.781C62.5853 216.609 64.3994 214.879 65.6728 212.77" stroke="#171717" stroke-width="3" stroke-linecap="round" stroke-linejoin="round"/>
<path d="M30.2309 109.78C28.8708 109.912 27.507 109.571 26.3691 108.814" stroke="#171717" stroke-width="3" stroke-linecap="round" stroke-linejoin="round"/>
<path d="M27.335 112.033L28.6221 107.207" stroke="#171717" stroke-width="3" stroke-linecap="round" stroke-linejoin="round"/>
<path d="M363.434 244.069L360.623 241.094" stroke="#171717" stroke-width="3" stroke-linecap="round" stroke-linejoin="round"/>
<path d="M360.344 245.558L363.239 241.375" stroke="#171717" stroke-width="3" stroke-linecap="round" stroke-linejoin="round"/>
<g opacity="0.1">
<path d="M85.9397 71.7091C83.1286 73.0866 81.1294 75.5624 79.0878 77.8875C76.9959 80.2705 75.0141 82.7613 73.136 85.3157C69.2996 90.621 66.1862 96.4127 63.8762 102.538C59.444 114.095 57.7505 126.898 59.8948 139.121C61.9537 150.781 67.3951 161.577 75.5416 170.168C79.5484 174.358 84.2377 177.837 89.4092 180.457C94.202 182.867 100.582 184.834 102.789 190.243C104.258 193.844 104.445 198.078 104.934 201.893C105.489 206.217 106.037 210.541 106.62 214.861L108.358 227.756C108.953 232.169 109.28 236.734 110.383 241.049C111.256 244.466 116.489 243.727 116.497 240.222C116.506 236.523 115.885 232.812 115.465 229.139C115.009 225.136 114.552 221.134 114.095 217.132C113.264 209.844 112.431 202.552 111.52 195.274C110.663 188.424 108.543 182.855 102.7 178.803C98.0798 175.601 92.5871 173.934 87.9092 170.791C68.7637 157.927 62.2227 131.86 68.0563 110.402C69.8761 103.766 72.5477 97.3928 76.0045 91.4423C77.7673 88.3218 79.6949 85.2974 81.7798 82.3817C83.852 79.5433 86.5806 77.0364 88.0844 73.8514C88.2469 73.5519 88.3085 73.2076 88.2596 72.87C88.2106 72.5323 88.0538 72.2196 87.8126 71.9785C87.5715 71.7373 87.2588 71.5805 86.9211 71.532C86.5835 71.483 86.2392 71.5447 85.9397 71.7072V71.7091Z" fill="#171717"/>
</g>
<g opacity="0.1">
<path d="M146.892 56.2003C144.087 56.8893 143.383 61.2785 142.646 63.6253C141.563 67.0811 140.475 70.5412 139.488 74.0262C137.517 80.9864 135.8 88.0534 134.265 95.1214C132.726 102.205 131.339 109.32 129.989 116.441C129.342 119.852 128.725 123.268 128.137 126.69C127.686 129.323 125.896 134.118 128.287 136.166C128.493 136.373 128.752 136.522 129.035 136.596C129.318 136.67 129.616 136.668 129.897 136.589C132.903 135.323 132.734 131.38 133.222 128.557C133.84 124.989 134.491 121.425 135.172 117.867C136.538 110.756 138.124 103.691 139.817 96.6487C141.509 89.6061 143.283 82.5833 145.055 75.5577C145.903 72.1909 146.714 68.8147 147.588 65.454C148.244 62.9297 150.135 58.7345 148.073 56.5092C147.921 56.358 147.732 56.2497 147.525 56.1946C147.317 56.14 147.099 56.1409 146.892 56.197V56.2003Z" fill="#171717"/>
</g>
<g opacity="0.1">
<path d="M241.972 233.973C239.341 237.926 238.116 243.194 236.65 247.68C235.111 252.39 233.679 257.131 232.391 261.915C229.853 271.34 227.734 280.864 226.033 290.487C222.57 309.86 220.774 329.494 220.664 349.174C220.671 360.253 221.281 371.322 222.492 382.334C222.912 386.318 229.175 386.406 228.805 382.334C225.307 343.74 228.072 304.568 237.76 267.021C239.141 261.663 240.636 256.334 242.244 251.034C243.798 245.906 246.228 240.619 246.828 235.288C247.14 232.513 243.261 232.038 241.974 233.973H241.972Z" fill="#171717"/>
</g>
<g opacity="0.1">
<path d="M270.069 256.118C269.285 258.019 269.239 260.248 269.053 262.282C268.854 264.471 268.814 266.67 268.739 268.865C268.589 273.255 268.565 277.637 268.557 282.029C268.541 290.648 268.502 299.266 268.526 307.888L268.676 360.546L268.717 375.121L268.737 382.173C268.745 384.76 268.443 387.376 269.795 389.689C270.045 390.102 270.398 390.443 270.819 390.68C271.24 390.918 271.714 391.042 272.197 391.042C272.68 391.042 273.154 390.918 273.575 390.68C273.996 390.443 274.348 390.102 274.599 389.689C275.736 387.729 275.638 385.781 275.635 383.584L275.63 377.002L275.621 363.837L275.603 337.978C275.59 320.425 275.548 302.873 275.477 285.32C275.451 280.462 275.484 275.601 275.301 270.745C275.213 268.395 275.166 266.039 275.002 263.693C274.831 261.25 274.803 258.391 273.857 256.118C273.089 254.272 270.835 254.258 270.068 256.118H270.069Z" fill="#171717"/>
</g>
<defs>
<linearGradient id="paint0_linear_646_2518" x1="208.745" y1="312.802" x2="300.516" y2="312.184" gradientUnits="userSpaceOnUse">
<stop offset="0.142184" stop-color="#C31275"/>
<stop offset="1" stop-color="#7D0447"/>
</linearGradient>
<linearGradient id="paint1_linear_646_2518" x1="141.445" y1="389.14" x2="187.794" y2="388.188" gradientUnits="userSpaceOnUse">
<stop offset="0.142184" stop-color="#C31275"/>
<stop offset="1" stop-color="#7D0447"/>
</linearGradient>
<linearGradient id="paint2_linear_646_2518" x1="116.175" y1="159.95" x2="128.413" y2="159.797" gradientUnits="userSpaceOnUse">
<stop offset="0.142184" stop-color="#C31275"/>
<stop offset="1" stop-color="#7D0447"/>
</linearGradient>
<linearGradient id="paint3_linear_646_2518" x1="113.156" y1="202.353" x2="136.716" y2="202.267" gradientUnits="userSpaceOnUse">
<stop offset="0.142184" stop-color="#C31275"/>
<stop offset="1" stop-color="#7D0447"/>
</linearGradient>
<linearGradient id="paint4_linear_646_2518" x1="-1.66283" y1="287.026" x2="29.0027" y2="286.804" gradientUnits="userSpaceOnUse">
<stop offset="0.142184" stop-color="#C31275"/>
<stop offset="1" stop-color="#7D0447"/>
</linearGradient>
</defs>
</svg>
