<svg width="65" height="65" viewBox="0 0 65 65" fill="none" xmlns="http://www.w3.org/2000/svg">
<rect width="65" height="65" rx="32.5" fill="#FEB5B5"/>
<path fill-rule="evenodd" clip-rule="evenodd" d="M42 27.9767V38.0233C42 39.0781 41.5814 40.0895 40.8354 40.8354C40.0895 41.5814 39.0781 42 38.0233 42H27.9767C26.9219 42 25.9105 41.5814 25.1646 40.8354C24.4186 40.0895 24 39.0781 24 38.0233V27.9767C24 26.9219 24.4186 25.9105 25.1646 25.1646C25.9105 24.4186 26.9219 24 27.9767 24H38.0233C39.0781 24 40.0895 24.4186 40.8354 25.1646C41.5814 25.9105 42 26.9219 42 27.9767ZM27.533 28.8391L28.3702 29.6763C28.6155 29.9216 29.0124 29.9216 29.2577 29.6763L30.9321 28.0019C31.1774 27.7574 31.1774 27.3589 30.9321 27.1144C30.6876 26.8691 30.2891 26.8691 30.0447 27.1144L28.814 28.3443L28.4205 27.9516C28.176 27.7063 27.7775 27.7063 27.533 27.9516C27.2877 28.1961 27.2877 28.5946 27.533 28.8391ZM33 29.0233H38.0233C38.3699 29.0233 38.6512 28.742 38.6512 28.3953C38.6512 28.0487 38.3699 27.7674 38.0233 27.7674H33C32.6534 27.7674 32.3721 28.0487 32.3721 28.3953C32.3721 28.742 32.6534 29.0233 33 29.0233ZM33 38.2326H38.0233C38.3699 38.2326 38.6512 37.9513 38.6512 37.6047C38.6512 37.258 38.3699 36.9767 38.0233 36.9767H33C32.6534 36.9767 32.3721 37.258 32.3721 37.6047C32.3721 37.9513 32.6534 38.2326 33 38.2326ZM33 33.6279H38.0233C38.3699 33.6279 38.6512 33.3466 38.6512 33C38.6512 32.6534 38.3699 32.3721 38.0233 32.3721H33C32.6534 32.3721 32.3721 32.6534 32.3721 33C32.3721 33.3466 32.6534 33.6279 33 33.6279ZM27.533 38.0484L28.3702 38.8856C28.6155 39.1309 29.0124 39.1309 29.2577 38.8856L30.9321 37.2112C31.1774 36.9667 31.1774 36.5682 30.9321 36.3237C30.6876 36.0784 30.2891 36.0784 30.0447 36.3237L28.814 37.5536L28.4205 37.1609C28.176 36.9156 27.7775 36.9156 27.533 37.1609C27.2877 37.4054 27.2877 37.8039 27.533 38.0484ZM27.9257 33L27.533 33.3935C27.2877 33.638 27.2877 34.0365 27.533 34.2809C27.7775 34.5262 28.176 34.5262 28.4205 34.2809L28.814 33.8883L29.2074 34.2809C29.4519 34.5262 29.8504 34.5262 30.0949 34.2809C30.3402 34.0365 30.3402 33.638 30.0949 33.3935L29.7022 33L30.0949 32.6065C30.3402 32.362 30.3402 31.9635 30.0949 31.7191C29.8504 31.4738 29.4519 31.4738 29.2074 31.7191L28.814 32.1117L28.4205 31.7191C28.176 31.4738 27.7775 31.4738 27.533 31.7191C27.2877 31.9635 27.2877 32.362 27.533 32.6065L27.9257 33Z" fill="#C03B3B"/>
</svg>
