<svg width="65" height="65" viewBox="0 0 65 65" fill="none" xmlns="http://www.w3.org/2000/svg">
<rect opacity="0.5" width="65" height="65" rx="32.5" fill="#F99807"/>
<path d="M32.9923 24.214H29.7223C29.2319 24.214 28.9049 24.6044 28.9049 25.1902C28.9049 24.6044 28.5779 24.214 28.0874 24.214H24.8175C24.327 24.214 24 24.6044 24 25.1902V40.8098C24 41.3956 24.327 41.786 24.8175 41.786H28.0874C28.5779 41.786 28.9049 41.3956 28.9049 40.8098C28.9049 41.3956 29.2319 41.786 29.7223 41.786H32.9923C33.4827 41.786 33.8097 41.3956 33.8097 40.8098V25.1902C33.8097 24.6044 33.4827 24.214 32.9923 24.214ZM27.2699 36.9049H25.635V29.0951H27.2699V36.9049ZM32.1748 39.8336H30.5398V36.9049H32.1748V39.8336ZM32.1748 29.0951H30.5398V26.1664H32.1748V29.0951ZM41.9845 39.736L38.5511 24.7021C38.4694 24.214 37.9789 23.9211 37.5701 24.0187L34.382 24.9949C33.9732 25.0926 33.728 25.6783 33.8097 26.1664L37.1614 41.2979C37.2431 41.786 37.7336 42.0789 38.1424 41.9813L41.3305 41.0051C41.821 40.8098 42.0663 40.3217 41.9845 39.736ZM37.9789 37.0025L36.2622 29.4856L37.8154 28.9975L39.5321 36.5144L37.9789 37.0025Z" fill="#9F6A1D"/>
</svg>
