<svg width="428" height="424" viewBox="0 0 428 424" fill="none" xmlns="http://www.w3.org/2000/svg">
<mask id="mask0_646_2860" style="mask-type:luminance" maskUnits="userSpaceOnUse" x="0" y="0" width="428" height="424">
<path d="M428 0H0V423.643H428V0Z" fill="white"/>
</mask>
<g mask="url(#mask0_646_2860)">
<path fill-rule="evenodd" clip-rule="evenodd" d="M191.194 317.75C191.194 317.75 197.155 296.753 199.55 280.776L198.89 280.678C196.285 275.121 189.727 278.841 189.485 278.979L189.26 278.912C189.133 279.345 189.006 279.783 188.881 280.226C189 280.139 189.147 280.088 189.306 280.088C192.403 280.086 195.49 280.45 198.503 281.17C198.893 281.264 199.134 281.655 199.04 282.045C198.947 282.436 198.555 282.676 198.165 282.583C195.263 281.889 192.29 281.539 189.307 281.54C189.005 281.54 188.746 281.356 188.636 281.094C184.21 296.977 180.93 317.606 180.93 317.606L180.935 317.713C184.351 317.537 187.774 317.582 191.184 317.846L191.194 317.75Z" fill="#171717"/>
<path fill-rule="evenodd" clip-rule="evenodd" d="M311.581 340.825C311.593 340.846 311.599 340.87 311.6 340.894C311.605 340.987 311.534 341.066 311.441 341.07L264.739 343.494C264.651 343.498 264.576 343.431 264.572 343.343C264.571 343.32 264.574 343.297 264.583 343.276C268.24 334.149 277.481 327.537 287.299 327.026C297.116 326.516 306.994 332.128 311.581 340.825ZM101.885 412.037C121.953 421.017 144.6 422.951 166.505 421.084H166.507C183.508 419.636 200.82 415.745 214.916 406.261C215.171 406.089 215.518 406.154 215.692 406.408C215.747 406.489 215.823 406.554 215.912 406.596C252.858 424.083 298.887 424.494 335.335 405.999C360.812 393.074 382.453 370.952 390.542 343.552C398.632 316.152 391.248 283.681 369.205 265.501C354.827 253.645 336.038 248.672 317.654 245.632C297.055 242.232 278.163 240.844 257.307 241.504C257.224 241.507 257.143 241.478 257.081 241.425C257.006 241.361 256.964 241.265 256.965 241.167C257.004 236.063 256.233 234.754 253.366 232.789C250.47 230.804 246.745 230.626 243.24 230.514L235.282 230.255C235.235 230.254 235.192 230.228 235.169 230.188C235.133 230.124 235.053 230.101 234.989 230.136C229.429 233.105 223.213 234.632 216.909 234.576C209.393 234.576 202.5 232.536 197.117 229.128C197.08 229.105 197.031 229.115 197.008 229.152C196.993 229.175 196.968 229.188 196.941 229.188C194.133 229.205 191.366 229.863 188.85 231.112C182.024 234.342 174.678 243.461 167.217 244.627C150.043 247.311 134.328 253.719 118.725 260.851C98.6977 270.005 80.313 283.729 68.3857 302.241C56.4583 320.753 51.577 344.352 58.0856 365.392C64.5787 386.397 81.8173 403.057 101.885 412.037ZM199.551 280.776C197.167 296.683 191.245 317.573 191.195 317.749C191.194 317.754 191.195 317.753 191.194 317.758C191.19 317.808 191.227 317.852 191.277 317.856C192.969 317.983 194.74 318.155 196.595 318.382C210.1 320.028 209.372 330.179 208.302 345.083C208.275 345.459 208.247 345.838 208.22 346.221C208.226 346.337 208.136 346.436 208.02 346.442L202.42 346.733L163.066 348.778C162.381 348.814 161.864 348.162 162.141 347.534C162.166 347.477 162.192 347.421 162.218 347.365C162.712 346.302 163.726 338.28 164.085 337.165C164.188 336.845 164.302 336.54 164.426 336.249C164.852 335.249 164.918 326.687 164.807 325.606C164.414 321.803 169.764 318.374 180.837 317.72C180.89 317.716 180.933 317.67 180.93 317.617C180.93 317.61 180.929 317.612 180.93 317.605C180.965 317.389 184.545 294.938 189.26 278.913C191.978 269.667 195.07 262.56 198.072 263.087C201.132 263.624 200.968 271.32 199.551 280.776ZM356.95 262.682C356.605 262.476 356.16 262.59 355.955 262.934C355.749 263.279 355.863 263.725 356.207 263.93C377.489 276.586 387.731 303.625 384.613 328.316C381.495 353.003 366.847 375.159 348.312 391.933C348.014 392.202 347.992 392.661 348.261 392.958C348.53 393.256 348.989 393.279 349.286 393.009C367.988 376.086 382.88 353.634 386.054 328.498C389.228 303.364 378.832 275.695 356.95 262.682Z" fill="url(#paint0_linear_646_2860)"/>
<path d="M235.155 133.633C228.539 135.879 197.987 146.24 190.91 148.492C182.964 151.02 185.73 159.089 185.73 159.089L189.48 176.849C189.48 176.849 179.472 187.38 172.605 181.72V180.999C179.472 178.108 175.977 162.701 175.977 162.701C175.977 162.701 173.815 150.298 177.543 141.39C181.271 132.481 208.003 125.615 216.912 121.767C225.82 117.919 229.433 101.898 229.433 101.898L234.247 113.698L248.094 100.215L242.558 118.753C242.558 118.753 265.313 103.945 257.248 110.807C249.235 117.627 240.337 155.256 240.214 155.778C237.579 143.958 235.155 133.633 235.155 133.633Z" fill="#171717"/>
<path d="M242.343 196.744C245.966 200.658 248.094 205.447 248.094 210.615C248.094 218.628 242.972 225.725 235.108 230.075C229.519 233.085 223.26 234.633 216.912 234.577C209.365 234.577 202.447 232.52 197.054 229.087C190.136 224.692 185.73 218.048 185.73 210.615C185.73 204.572 188.642 199.046 193.452 194.835C199.167 189.821 207.559 186.658 216.912 186.658C227.407 186.658 236.689 190.639 242.343 196.744ZM225.58 201.589C225.58 196.933 220.704 193.157 214.687 193.157C208.67 193.157 203.793 196.933 203.793 201.589C203.793 206.245 208.669 210.017 214.687 210.017C220.704 210.017 225.58 206.24 225.58 201.589Z" fill="#171717"/>
<path d="M198.071 263.088C201.13 263.625 200.967 271.319 199.55 280.776L198.889 280.68C196.285 275.122 189.725 278.843 189.485 278.981L189.26 278.914C191.978 269.668 195.069 262.562 198.071 263.088Z" fill="#171717"/>
<path d="M146.444 148.4C148.201 149.006 149.645 150.285 150.46 151.956C151.274 153.626 151.392 155.551 150.788 157.308L138.099 194.134C137.492 195.89 136.213 197.335 134.543 198.148C132.872 198.962 130.947 199.079 129.19 198.473L92.3699 185.783C90.6133 185.178 89.1691 183.901 88.3542 182.231C87.5394 180.561 87.4213 178.637 88.0255 176.88L100.715 140.054C101.016 139.185 101.484 138.382 102.094 137.693C102.704 137.004 103.444 136.442 104.271 136.04C105.098 135.636 105.997 135.401 106.915 135.345C107.834 135.289 108.754 135.415 109.624 135.715L146.444 148.4Z" fill="url(#paint1_linear_646_2860)"/>
<path d="M47.2203 257.751L59.6439 258.477C59.4231 262.886 58.2151 267.188 56.1081 271.066C54.001 274.946 51.0495 278.301 47.4716 280.886C43.8936 283.471 39.7806 285.219 35.4362 286C31.0919 286.781 26.6276 286.577 22.373 285.401L24.7624 272.916C27.2459 273.761 29.8915 274.02 32.4916 273.672C35.092 273.323 37.5762 272.378 39.7497 270.908C41.9231 269.439 43.7266 267.487 45.0193 265.204C46.312 262.921 47.0586 260.37 47.2 257.75L47.2203 257.751Z" fill="url(#paint2_linear_646_2860)"/>
<path d="M24.7615 272.917L22.3721 285.402C16.5178 283.777 11.3096 280.38 7.46179 275.678C3.61405 270.975 1.3151 265.198 0.880224 259.138C0.445349 253.078 1.8959 247.031 5.03284 241.828C8.16983 236.624 12.8397 232.519 18.402 230.074L23.8106 241.136C20.6117 242.446 17.8887 244.7 16.0055 247.599C14.1223 250.497 13.1687 253.901 13.2721 257.356C13.3755 260.811 14.5311 264.153 16.5842 266.933C18.6374 269.714 21.49 271.801 24.7615 272.917Z" fill="#171717"/>
<path d="M196.988 229.189C194.165 229.2 191.382 229.858 188.854 231.114C184.29 233.273 180.744 238.482 182.212 243.312C158.967 243.737 138.756 251.704 118.729 260.852C98.7011 270.001 80.317 283.729 68.3896 302.242C56.4622 320.754 51.5809 344.353 58.0895 365.394C64.5826 386.398 81.8213 403.053 101.889 412.038C121.957 421.024 144.604 422.952 166.509 421.085C183.697 419.621 201.201 415.662 215.38 405.949C216.055 405.494 216.72 405.018 217.375 404.532C237.162 389.883 246.425 366.964 255.265 343.99" stroke="#171717" stroke-width="3" stroke-linecap="round" stroke-linejoin="round"/>
<path d="M256.968 241.325C257.024 236.09 256.261 234.775 253.37 232.79C250.479 230.805 246.749 230.626 243.245 230.515L235.211 230.254" stroke="#171717" stroke-width="3" stroke-linecap="round" stroke-linejoin="round"/>
<path d="M257.182 241.51C278.09 240.84 297.017 242.226 317.658 245.634C336.042 248.673 354.831 253.647 369.21 265.502C391.252 283.682 398.636 316.153 390.547 343.554C382.457 370.954 360.813 393.074 335.336 405.999C298.843 424.517 252.746 424.082 215.777 406.532" stroke="#171717" stroke-width="3" stroke-linecap="round" stroke-linejoin="round"/>
<path d="M202.422 346.732L208.229 346.43L255.263 343.989L264.581 343.503L311.609 341.063L314.874 340.894L317.044 290.811" stroke="#171717" stroke-width="3" stroke-linecap="round" stroke-linejoin="round"/>
<path d="M169.143 342.393C166.451 342.877 162.931 344.388 161.672 348.85" stroke="#171717" stroke-width="3" stroke-linecap="round" stroke-linejoin="round"/>
<path d="M169.143 342.393C170.269 342.436 171.398 342.378 172.514 342.219C171.387 342.131 170.254 342.19 169.143 342.393Z" stroke="#171717" stroke-width="3" stroke-linecap="round" stroke-linejoin="round"/>
<path d="M171.267 330.557C168.959 331.181 165.48 332.828 164.088 337.162C162.752 341.312 166.253 342.269 169.143 342.391" stroke="#171717" stroke-width="3" stroke-linecap="round" stroke-linejoin="round"/>
<path d="M171.266 330.558C172.013 330.507 172.754 330.38 173.476 330.18C172.728 330.229 171.988 330.355 171.266 330.558Z" stroke="#171717" stroke-width="3" stroke-linecap="round" stroke-linejoin="round"/>
<path d="M208.22 346.22C209.325 330.696 210.441 320.068 196.595 318.381C194.706 318.15 192.905 317.976 191.186 317.848C187.776 317.583 184.353 317.539 180.937 317.715C169.798 318.354 164.415 321.793 164.809 325.607C165.28 330.186 168.856 330.729 171.267 330.56" stroke="#171717" stroke-width="3" stroke-linecap="round" stroke-linejoin="round"/>
<path d="M136.692 301.162L134.041 350.283L161.672 348.85L202.422 346.732" stroke="#171717" stroke-width="3" stroke-linecap="round" stroke-linejoin="round"/>
<path d="M264.57 343.308C268.219 334.164 277.47 327.538 287.299 327.026C297.129 326.515 307.019 332.143 311.599 340.857" stroke="#171717" stroke-width="3" stroke-linecap="round" stroke-linejoin="round"/>
<path d="M242.343 196.744C245.966 200.658 248.094 205.447 248.094 210.615C248.094 218.628 242.972 225.725 235.108 230.075C229.519 233.085 223.26 234.633 216.912 234.577C209.365 234.577 202.447 232.52 197.054 229.087C190.136 224.692 185.73 218.048 185.73 210.615C185.73 204.572 188.642 199.046 193.452 194.835C199.167 189.821 207.559 186.658 216.912 186.658C227.407 186.658 236.689 190.639 242.343 196.744Z" stroke="#171717" stroke-width="3" stroke-linecap="round" stroke-linejoin="round"/>
<path d="M225.58 201.589C225.58 206.24 220.704 210.016 214.687 210.016C208.669 210.016 203.793 206.24 203.793 201.589C203.793 196.938 208.669 193.156 214.687 193.156C220.704 193.156 225.58 196.933 225.58 201.589Z" stroke="#171717" stroke-width="3" stroke-linecap="round" stroke-linejoin="round"/>
<path d="M193.218 194.559L189.483 176.849L185.732 159.089C185.732 159.089 182.964 151.02 190.913 148.492C197.989 146.241 228.541 135.879 235.157 133.633L236.421 133.203" stroke="#171717" stroke-width="3" stroke-linecap="round" stroke-linejoin="round"/>
<path d="M240.215 155.778C237.579 143.959 235.154 133.633 235.154 133.633" stroke="#171717" stroke-width="3" stroke-linecap="round" stroke-linejoin="round"/>
<path d="M243.116 196.579C243.116 196.579 246.528 195.203 246.774 189.667C246.907 186.633 243.408 170.11 240.215 155.783" stroke="#171717" stroke-width="3" stroke-linecap="round" stroke-linejoin="round"/>
<path d="M232.083 144.699C232.083 144.699 216.073 148.312 214.686 149.514C213.299 150.717 211.979 151.801 213.059 154.211C214.138 156.62 223.655 179.37 223.655 179.37C223.655 179.37 225.221 181.417 222.934 182.864C220.647 184.312 218.6 184.911 217.515 184.911" stroke="#171717" stroke-width="3" stroke-linecap="round" stroke-linejoin="round"/>
<path d="M203.794 163.884L202.346 159.57" stroke="#171717" stroke-width="3" stroke-linecap="round" stroke-linejoin="round"/>
<path d="M226.426 158.484L225.582 154.631" stroke="#171717" stroke-width="3" stroke-linecap="round" stroke-linejoin="round"/>
<path d="M208.607 199.031C208.607 199.031 209.089 203.389 216.912 202.311" stroke="#171717" stroke-width="3" stroke-linecap="round" stroke-linejoin="round"/>
<path d="M189.482 176.85C189.482 176.85 179.474 187.38 172.607 181.721" stroke="#171717" stroke-width="3" stroke-linecap="round" stroke-linejoin="round"/>
<path d="M240.214 155.783V155.778C240.337 155.256 249.235 117.626 257.248 110.807C265.313 103.945 242.558 118.753 242.558 118.753L248.094 100.215L234.247 113.698L229.433 101.898C229.433 101.898 225.82 117.914 216.912 121.767C208.004 125.62 181.277 132.481 177.543 141.39C173.809 150.298 175.977 162.701 175.977 162.701C175.977 162.701 179.472 178.108 172.605 180.999" stroke="#171717" stroke-width="3" stroke-linecap="round" stroke-linejoin="round"/>
<path d="M129.19 198.473L92.3699 185.783C90.6133 185.178 89.1691 183.901 88.3542 182.231C87.5394 180.561 87.4213 178.637 88.0255 176.88L100.715 140.054C101.016 139.185 101.484 138.382 102.094 137.693C102.704 137.004 103.444 136.442 104.271 136.04C105.098 135.636 105.997 135.401 106.915 135.345C107.834 135.289 108.754 135.415 109.624 135.715L146.445 148.4C148.202 149.006 149.646 150.286 150.46 151.956C151.275 153.626 151.393 155.552 150.788 157.309L138.099 194.134C137.493 195.891 136.214 197.335 134.543 198.149C132.872 198.962 130.947 199.079 129.19 198.473Z" stroke="#171717" stroke-width="3" stroke-linecap="round" stroke-linejoin="round"/>
<path d="M192.715 96.2407L167.829 66.287C167.241 65.5792 166.798 64.7629 166.525 63.8841C166.253 63.0054 166.156 62.0816 166.241 61.1656C166.325 60.2495 166.59 59.3587 167.018 58.5448C167.447 57.7309 168.032 57.0095 168.74 56.4217L198.699 31.5285C200.128 30.3428 201.97 29.7729 203.819 29.9438C205.668 30.1147 207.374 31.0124 208.562 32.4402L233.448 62.3992C234.037 63.1061 234.48 63.9224 234.753 64.8011C235.025 65.6799 235.122 66.6042 235.038 67.5202C234.953 68.4362 234.689 69.3271 234.26 70.141C233.83 70.9549 233.245 71.6763 232.537 72.264L202.583 97.1573C201.153 98.343 199.31 98.9128 197.459 98.741C195.609 98.5691 193.903 97.67 192.715 96.2407Z" stroke="#171717" stroke-width="3" stroke-linecap="round" stroke-linejoin="round"/>
<path d="M339.901 135.644L319.5 168.828C319.018 169.612 318.387 170.292 317.642 170.832C316.897 171.372 316.053 171.759 315.158 171.972C314.264 172.186 313.335 172.221 312.427 172.075C311.519 171.93 310.648 171.607 309.865 171.125L276.683 150.73C275.101 149.757 273.97 148.195 273.539 146.388C273.108 144.581 273.412 142.678 274.385 141.095L294.781 107.913C295.262 107.129 295.894 106.448 296.638 105.908C297.383 105.368 298.227 104.98 299.122 104.767C300.017 104.554 300.945 104.519 301.854 104.664C302.762 104.81 303.632 105.133 304.416 105.616L337.598 126.011C339.181 126.984 340.312 128.545 340.744 130.351C341.176 132.157 340.873 134.061 339.901 135.644Z" fill="#171717" stroke="#171717" stroke-width="3" stroke-linecap="round" stroke-linejoin="round"/>
<path d="M180.93 317.607C180.93 317.607 184.522 295.017 189.26 278.914C191.977 269.666 195.07 262.561 198.072 263.088C201.132 263.625 200.968 271.319 199.551 280.776C197.156 296.754 191.195 317.751 191.195 317.751" stroke="#171717" stroke-width="3" stroke-linecap="round" stroke-linejoin="round"/>
<path d="M189.48 278.986L189.486 278.981C189.728 278.843 196.286 275.123 198.89 280.68" stroke="#171717" stroke-width="3" stroke-linecap="round" stroke-linejoin="round"/>
<path d="M18.4016 230.074C22.8826 228.107 27.783 227.289 32.6597 227.692C37.5366 228.095 42.2359 229.708 46.3334 232.383C50.4304 235.058 53.7963 238.713 56.1265 243.016C58.4568 247.319 59.6774 252.135 59.6789 257.029C59.6789 257.513 59.6687 257.997 59.643 258.477C59.3845 263.713 57.732 268.785 54.8566 273.169C51.9816 277.553 47.9878 281.089 43.2885 283.413C38.5887 285.736 33.3539 286.762 28.1249 286.386C22.896 286.008 17.8626 284.242 13.5449 281.268C9.22728 278.295 5.78208 274.222 3.56548 269.471C1.34884 264.72 0.441132 259.464 0.936285 254.244C1.43139 249.025 3.31135 244.033 6.38176 239.784C9.45223 235.534 13.6018 232.182 18.4016 230.074Z" stroke="#171717" stroke-width="3" stroke-linecap="round" stroke-linejoin="round"/>
<path d="M23.81 241.137C26.3886 240.082 29.1869 239.678 31.9584 239.96C34.7298 240.243 37.3893 241.202 39.7026 242.755C42.0155 244.308 43.911 246.406 45.2221 248.864C46.5327 251.322 47.2188 254.065 47.2193 256.851C47.2193 257.153 47.2091 257.455 47.1989 257.752C47.0377 260.787 46.0645 263.723 44.3816 266.254C42.6981 268.785 40.3664 270.817 37.6294 272.139C34.8925 273.462 31.851 274.025 28.822 273.771C25.7931 273.516 22.8881 272.453 20.4101 270.693C17.9322 268.933 15.9722 266.54 14.7346 263.763C13.4972 260.987 13.0276 257.93 13.3749 254.91C13.7223 251.89 14.8738 249.02 16.7093 246.597C18.5449 244.174 20.9971 242.288 23.81 241.137Z" stroke="#171717" stroke-width="3" stroke-linecap="round" stroke-linejoin="round"/>
<path d="M23.809 241.136L18.4004 230.074" stroke="#171717" stroke-width="3" stroke-linecap="round" stroke-linejoin="round"/>
<path d="M24.7624 272.916L22.373 285.401" stroke="#171717" stroke-width="3" stroke-linecap="round" stroke-linejoin="round"/>
<path d="M47.2188 257.75L59.6424 258.477" stroke="#171717" stroke-width="3" stroke-linecap="round" stroke-linejoin="round"/>
<path d="M54.3138 390.449C46.3043 378.938 42.2882 365.12 42.8793 351.109" stroke="#171717" stroke-width="3" stroke-linecap="round" stroke-linejoin="round"/>
<path d="M372.232 394.309C388.652 383.967 400.78 368.038 406.38 349.459L407.503 348.949" stroke="#171717" stroke-width="3" stroke-linecap="round" stroke-linejoin="round"/>
<path d="M189.332 242.881L190.047 235.656" stroke="#171717" stroke-width="3" stroke-linecap="round" stroke-linejoin="round"/>
<path d="M198.516 243.606L199.189 237.1" stroke="#171717" stroke-width="3" stroke-linecap="round" stroke-linejoin="round"/>
<path d="M207.162 245.53L207.884 239.27" stroke="#171717" stroke-width="3" stroke-linecap="round" stroke-linejoin="round"/>
<path d="M214.602 246.009L215.553 239.266" stroke="#171717" stroke-width="3" stroke-linecap="round" stroke-linejoin="round"/>
<path d="M224.785 245.296L225.73 239.033" stroke="#171717" stroke-width="3" stroke-linecap="round" stroke-linejoin="round"/>
<path d="M235.125 244.088L235.803 236.379" stroke="#171717" stroke-width="3" stroke-linecap="round" stroke-linejoin="round"/>
<path d="M245.447 243.363V236.381" stroke="#171717" stroke-width="3" stroke-linecap="round" stroke-linejoin="round"/>
<path d="M373.55 312.832L374.386 313.415L370.018 306.637" stroke="#171717" stroke-width="3" stroke-linecap="round" stroke-linejoin="round"/>
<path d="M343.289 332.047L349.458 325.211" stroke="#171717" stroke-width="3" stroke-linecap="round" stroke-linejoin="round"/>
<path d="M346.732 288.913L353.797 281.152" stroke="#171717" stroke-width="3" stroke-linecap="round" stroke-linejoin="round"/>
<path d="M332.828 303.374L329.197 298.332" stroke="#171717" stroke-width="3" stroke-linecap="round" stroke-linejoin="round"/>
<path d="M321.823 272.487C319.44 270.791 317.395 268.663 315.795 266.215" stroke="#171717" stroke-width="3" stroke-linecap="round" stroke-linejoin="round"/>
<path d="M295.135 296.564C296.181 293.852 297.798 291.397 299.874 289.363" stroke="#171717" stroke-width="3" stroke-linecap="round" stroke-linejoin="round"/>
<path d="M280.723 266.96L275.666 260.82" stroke="#171717" stroke-width="3" stroke-linecap="round" stroke-linejoin="round"/>
<path d="M256.885 290.078C257.862 287.738 259.341 285.642 261.219 283.938" stroke="#171717" stroke-width="3" stroke-linecap="round" stroke-linejoin="round"/>
<path d="M248.589 314.986L241.783 309.854" stroke="#171717" stroke-width="3" stroke-linecap="round" stroke-linejoin="round"/>
<path d="M287.547 319.363L284.309 315.381" stroke="#171717" stroke-width="3" stroke-linecap="round" stroke-linejoin="round"/>
<path d="M221.188 337.083L226.588 330.926" stroke="#171717" stroke-width="3" stroke-linecap="round" stroke-linejoin="round"/>
<path d="M211.705 301.254L217.264 292.447" stroke="#171717" stroke-width="3" stroke-linecap="round" stroke-linejoin="round"/>
<path d="M227.492 271.102L220.326 265.25" stroke="#171717" stroke-width="3" stroke-linecap="round" stroke-linejoin="round"/>
<path d="M163.699 281.408C164.426 279.221 165.664 277.24 167.311 275.629" stroke="#171717" stroke-width="3" stroke-linecap="round" stroke-linejoin="round"/>
<path d="M154.956 310.753L149.252 305.969" stroke="#171717" stroke-width="3" stroke-linecap="round" stroke-linejoin="round"/>
<path d="M129.754 278.523L134.085 271.658" stroke="#171717" stroke-width="3" stroke-linecap="round" stroke-linejoin="round"/>
<path d="M114.578 311.387L109.521 307.414" stroke="#171717" stroke-width="3" stroke-linecap="round" stroke-linejoin="round"/>
<path d="M72.623 329.054L76.614 321.479" stroke="#171717" stroke-width="3" stroke-linecap="round" stroke-linejoin="round"/>
<path d="M104.522 357.919L97.9375 351.506" stroke="#171717" stroke-width="3" stroke-linecap="round" stroke-linejoin="round"/>
<path d="M104.371 391.504L109.803 383.568" stroke="#171717" stroke-width="3" stroke-linecap="round" stroke-linejoin="round"/>
<path d="M154.72 372.385L148.928 365.535" stroke="#171717" stroke-width="3" stroke-linecap="round" stroke-linejoin="round"/>
<path d="M152.418 407.033L156.772 401.631" stroke="#171717" stroke-width="3" stroke-linecap="round" stroke-linejoin="round"/>
<path d="M198.358 371.357L192.582 364.131" stroke="#171717" stroke-width="3" stroke-linecap="round" stroke-linejoin="round"/>
<path d="M203.471 390.162L210.725 382.246" stroke="#171717" stroke-width="3" stroke-linecap="round" stroke-linejoin="round"/>
<path d="M269.12 360.544L264.424 354.764" stroke="#171717" stroke-width="3" stroke-linecap="round" stroke-linejoin="round"/>
<path d="M247.896 407.876L253.686 403.193" stroke="#171717" stroke-width="3" stroke-linecap="round" stroke-linejoin="round"/>
<path d="M279.524 392.727L274.766 385.182" stroke="#171717" stroke-width="3" stroke-linecap="round" stroke-linejoin="round"/>
<path d="M304.199 371.345L310.639 365.895L309.976 366.649" stroke="#171717" stroke-width="3" stroke-linecap="round" stroke-linejoin="round"/>
<path d="M332.044 391.908C330.545 389.75 329.421 387.352 328.721 384.818" stroke="#171717" stroke-width="3" stroke-linecap="round" stroke-linejoin="round"/>
<path d="M352.238 374.597C354.011 372.547 356.237 370.939 358.74 369.9" stroke="#171717" stroke-width="3" stroke-linecap="round" stroke-linejoin="round"/>
<path d="M368.652 348.724L363.752 341.396" stroke="#171717" stroke-width="3" stroke-linecap="round" stroke-linejoin="round"/>
<path d="M126.881 90.9263L124.745 97.4029C124.681 97.5985 124.558 97.7699 124.394 97.8934C124.229 98.0169 124.031 98.0871 123.825 98.0943C123.619 98.1021 123.416 98.0459 123.243 97.9345C123.07 97.8227 122.936 97.661 122.857 97.4702L120.266 91.1592C120.191 90.9752 120.063 90.8178 119.897 90.7065C119.732 90.5956 119.538 90.5356 119.339 90.5346L112.52 90.5051C112.314 90.5041 112.114 90.4402 111.945 90.3221C111.777 90.2034 111.649 90.0364 111.579 89.8427C111.508 89.6496 111.499 89.4394 111.551 89.2404C111.604 89.0414 111.716 88.8633 111.873 88.7301L117.074 84.3184C117.226 84.1896 117.336 84.0187 117.391 83.8275C117.446 83.6363 117.442 83.4329 117.382 83.2431L115.3 76.7481C115.238 76.5525 115.237 76.3419 115.298 76.1458C115.358 75.9492 115.478 75.7763 115.64 75.6495C115.802 75.5231 115.999 75.4491 116.204 75.4379C116.41 75.4268 116.613 75.4781 116.788 75.5861L122.591 79.1689C122.76 79.2735 122.957 79.3253 123.156 79.3185C123.355 79.3112 123.547 79.2454 123.708 79.1292L129.243 75.1445C129.41 75.0244 129.61 74.9581 129.816 74.9552C130.022 74.9518 130.224 75.0119 130.394 75.1266C130.565 75.2418 130.696 75.4065 130.771 75.5982C130.845 75.7899 130.859 76 130.81 76.2L129.195 82.8263C129.148 83.0199 129.159 83.2228 129.228 83.4097C129.296 83.5965 129.418 83.7592 129.578 83.8769L135.082 87.908C135.248 88.03 135.372 88.1995 135.439 88.3941C135.505 88.5888 135.511 88.7994 135.455 88.9969C135.398 89.1949 135.282 89.3707 135.122 89.5004C134.963 89.6307 134.768 89.7086 134.562 89.7241L127.761 90.2364C127.563 90.2514 127.373 90.325 127.217 90.4479C127.06 90.5709 126.943 90.7375 126.881 90.9263Z" fill="#171717"/>
<path d="M388.85 184.836H379.263C378.494 184.836 377.871 185.459 377.871 186.227V195.815C377.871 196.583 378.494 197.206 379.263 197.206H388.85C389.618 197.206 390.241 196.583 390.241 195.815V186.227C390.241 185.459 389.618 184.836 388.85 184.836Z" stroke="#171717" stroke-width="3" stroke-miterlimit="10"/>
<path d="M414.401 149.925L405.619 146.08C404.915 145.772 404.094 146.093 403.786 146.797L399.941 155.579C399.633 156.283 399.954 157.104 400.658 157.412L409.441 161.257C410.145 161.565 410.965 161.244 411.274 160.54L415.118 151.757C415.426 151.053 415.105 150.233 414.401 149.925Z" stroke="#171717" stroke-width="3" stroke-miterlimit="10"/>
<path d="M425.477 178.727H415.89C415.121 178.727 414.498 179.349 414.498 180.118V189.705C414.498 190.474 415.121 191.097 415.89 191.097H425.477C426.246 191.097 426.868 190.474 426.868 189.705V180.118C426.868 179.349 426.246 178.727 425.477 178.727Z" stroke="#171717" stroke-width="3" stroke-miterlimit="10"/>
<path d="M390.24 191.097L414.498 185.703" stroke="#171717" stroke-width="3" stroke-miterlimit="10"/>
<path d="M410.75 160.439L420.683 178.726" stroke="#171717" stroke-width="3" stroke-miterlimit="10"/>
<path d="M278.959 47.4258C277.807 51.3112 276.178 55.0388 274.107 58.5223C277.211 58.9009 280.135 60.1849 282.513 62.2145C282.971 62.6067 283.616 63.0473 284.113 62.705C284.294 62.5549 284.432 62.3588 284.513 62.138L289.327 51.8254" stroke="#171717" stroke-width="3" stroke-linecap="round" stroke-linejoin="round"/>
<path d="M288.604 51.7169C293.974 48.6667 299.72 45.2001 301.983 39.4546C302.666 37.7208 302.987 35.8655 302.926 34.0024C302.864 32.1398 302.422 30.3097 301.625 28.6243C300.829 26.9394 299.696 25.4354 298.296 24.2054C296.896 22.9752 295.258 22.0452 293.485 21.4725C291.711 20.8998 289.839 20.6966 287.984 20.8755C286.128 21.0544 284.33 21.6116 282.698 22.5126C281.067 23.4137 279.637 24.6396 278.498 26.1145C277.359 27.5895 276.534 29.2823 276.074 31.0882C274.648 36.6866 276.871 42.5261 279.384 47.7279" stroke="#171717" stroke-width="3" stroke-linecap="round" stroke-linejoin="round"/>
<path d="M279.148 47.2051C282.278 48.2063 285.263 49.6123 288.029 51.3873" stroke="#171717" stroke-width="3" stroke-linecap="round" stroke-linejoin="round"/>
<path d="M278.553 52.3301L285.054 54.7359" stroke="#171717" stroke-width="3" stroke-linecap="round" stroke-linejoin="round"/>
<path d="M286.613 49.0551L294.839 37.9446C293.683 38.4897 292.424 39.0494 291.17 38.7962C289.917 38.543 288.864 37.0581 289.531 35.9673C289.17 36.42 288.667 36.738 288.103 36.8702C287.538 37.0024 286.946 36.9404 286.421 36.6945C285.897 36.4485 285.471 36.0331 285.212 35.515C284.952 34.997 284.875 34.4068 284.992 33.8398L283.104 43.281" stroke="#171717" stroke-width="3" stroke-linecap="round" stroke-linejoin="round"/>
<path d="M272.085 23.5874L269.223 20.6523" stroke="#171717" stroke-width="3" stroke-linecap="round" stroke-linejoin="round"/>
<path d="M283.937 12.8713L281.027 1.07227" stroke="#171717" stroke-width="3" stroke-linecap="round" stroke-linejoin="round"/>
<path d="M301.746 19.334L304.317 15.8398" stroke="#171717" stroke-width="3" stroke-linecap="round" stroke-linejoin="round"/>
<path d="M308.154 31.3811L317.528 28.4277" stroke="#171717" stroke-width="3" stroke-linecap="round" stroke-linejoin="round"/>
<path d="M303.857 44.7168L306.892 47.1018" stroke="#171717" stroke-width="3" stroke-linecap="round" stroke-linejoin="round"/>
<path d="M55.1873 138.367C58.2816 160.027 30.2413 175.506 30.2413 175.506C30.2413 175.506 19.1055 142.209 50.6483 138.367" stroke="#171717" stroke-width="3" stroke-linecap="round" stroke-linejoin="round"/>
<path d="M45.7969 158.409C46.9724 157.233 45.5717 153.926 42.6682 151.023C39.7651 148.12 36.4588 146.719 35.2833 147.895C34.1077 149.07 35.5084 152.377 38.4114 155.28C41.315 158.184 44.6213 159.584 45.7969 158.409Z" fill="#171717"/>
<path d="M40.0844 136.924L38.8672 133.316" stroke="#171717" stroke-width="3" stroke-linecap="round" stroke-linejoin="round"/>
<path d="M29.4763 142.449C27.6235 141.111 25.9527 139.538 24.5059 137.77" stroke="#171717" stroke-width="3" stroke-linecap="round" stroke-linejoin="round"/>
<path d="M22.7507 153.379C22.149 153.669 21.494 153.832 20.8265 153.858C20.159 153.884 19.4934 153.772 18.8711 153.529" stroke="#171717" stroke-width="3" stroke-linecap="round" stroke-linejoin="round"/>
<path d="M80.351 218.261L75.0039 210.59" stroke="#171717" stroke-width="3" stroke-linecap="round" stroke-linejoin="round"/>
<path d="M73.5566 217.161L80.6123 211.766L80.4545 211.1" stroke="#171717" stroke-width="3" stroke-linecap="round" stroke-linejoin="round"/>
<path d="M128.943 206.92C130.695 207.67 132.649 207.804 134.487 207.3C136.324 206.795 137.936 205.682 139.058 204.143" stroke="#171717" stroke-width="3" stroke-linecap="round" stroke-linejoin="round"/>
<path d="M170.806 192.385C169.288 192.407 167.812 191.88 166.651 190.9C165.49 189.921 164.722 188.555 164.488 187.055" stroke="#171717" stroke-width="3" stroke-linecap="round" stroke-linejoin="round"/>
<path d="M192.208 104.355C190.734 104.83 189.139 104.765 187.709 104.171C186.278 103.578 185.106 102.496 184.4 101.117" stroke="#171717" stroke-width="3" stroke-linecap="round" stroke-linejoin="round"/>
<path d="M241.716 56.3907L236.342 47.9828L236.992 47.332" stroke="#171717" stroke-width="3" stroke-linecap="round" stroke-linejoin="round"/>
<path d="M341.938 86.154L350.582 78.5938" stroke="#171717" stroke-width="3" stroke-linecap="round" stroke-linejoin="round"/>
<path d="M349.097 86.2859L342.869 78.0469" stroke="#171717" stroke-width="3" stroke-linecap="round" stroke-linejoin="round"/>
<path d="M357.645 138.731C359.12 136.376 359.994 133.695 360.191 130.922C360.388 128.15 359.901 125.372 358.773 122.832" stroke="#171717" stroke-width="3" stroke-linecap="round" stroke-linejoin="round"/>
<path d="M332.909 224.292L329.828 213.148" stroke="#171717" stroke-width="3" stroke-linecap="round" stroke-linejoin="round"/>
<path d="M325.877 221.821C329.082 219.597 332.612 217.884 336.342 216.742" stroke="#171717" stroke-width="3" stroke-linecap="round" stroke-linejoin="round"/>
<g opacity="0.1">
<path d="M195.704 227.81C188.048 229.346 181.973 236.452 180.583 244.022L185.401 240.354C181.696 240.619 177.98 241.591 174.343 242.335C170.818 243.056 167.302 243.812 163.801 244.645C156.814 246.306 149.874 248.175 143.037 250.375C130.069 254.548 117.365 259.896 105.753 267.062C84.1169 280.415 65.9433 300.311 59.2677 325.302C55.8843 337.967 55.5541 351.64 59.1994 364.288C62.5275 375.838 69.132 386.278 77.5976 394.752C96.8382 414.017 123.957 421.806 150.534 423.213C179.648 424.754 215.667 420.021 232.004 392.581C234.504 388.383 228.339 383.268 225.053 387.218C217.806 395.8 208.519 402.423 198.044 406.479C185.645 411.2 172.398 412.483 159.222 412.435C135.534 412.348 110.21 407.742 91.3386 392.439C83.0009 385.678 75.8841 377.187 71.7116 367.22C67.4113 356.948 66.4565 345.351 68.3186 334.418C72.2321 311.438 86.9347 292.565 105.828 279.558C117.084 271.811 129.511 266.009 142.419 261.6C149.639 259.134 156.989 257.065 164.395 255.244C168.032 254.35 171.68 253.498 175.337 252.689C179.091 251.852 183.084 251.363 186.732 250.167C188.798 249.489 190.446 247.612 190.4 245.349C190.303 240.635 193.293 236.644 197.637 234.812C201.857 233.031 200.412 226.864 195.706 227.809L195.704 227.81Z" fill="#171717"/>
</g>
<g opacity="0.1">
<path d="M268.609 344.847C273.018 343.602 276.591 340.283 280.523 338.002C282.469 336.873 284.535 335.903 286.407 334.655C288.11 333.52 290.439 331.967 290.913 329.881C291.041 329.374 291.005 328.84 290.807 328.355C290.61 327.871 290.263 327.463 289.818 327.19C287.869 326.069 285.391 326.783 283.339 327.38C280.896 328.091 278.556 329.647 276.437 331.011C272.46 333.571 267.595 336.44 265.533 340.846C264.569 342.904 266.166 345.537 268.609 344.847Z" fill="#171717"/>
</g>
<g opacity="0.1">
<path d="M233.157 131.006C229.674 131.429 226.366 133.292 222.995 134.278C219.453 135.314 215.815 136.069 212.223 136.911C205.084 138.586 196.94 140.165 191.332 145.232C185.511 150.492 185.148 158.805 186.479 166.005C187.188 169.841 188.576 173.497 189.592 177.254C190.146 179.091 190.511 180.979 190.683 182.89C190.809 184.961 190.418 186.881 190.213 188.932C189.739 193.659 197.475 195.848 199.39 191.418C202.737 183.664 199.535 175.257 197.255 167.665C195.779 162.748 194.069 155.609 198.649 151.76C201.059 149.733 204.41 148.69 207.354 147.741C210.642 146.68 213.991 145.825 217.317 144.898C220.703 143.949 224.012 142.742 227.215 141.292C230.217 139.94 233.859 138.079 235.489 135.072C236.363 133.459 235.309 130.746 233.157 131.008V131.006Z" fill="#171717"/>
</g>
<path d="M123.77 164.28C123.684 163.984 123.526 163.715 123.312 163.494C123.097 163.273 122.832 163.109 122.539 163.014C122.246 162.92 121.934 162.899 121.631 162.953C121.328 163.007 121.043 163.135 120.8 163.324C120.691 163.077 120.529 162.855 120.326 162.675C120.124 162.495 119.885 162.361 119.626 162.281C119.367 162.201 119.094 162.177 118.825 162.212C118.556 162.246 118.298 162.338 118.068 162.48V157.716C118.068 157.214 117.868 156.732 117.513 156.377C117.158 156.022 116.677 155.822 116.174 155.822C115.672 155.822 115.191 156.022 114.836 156.377C114.481 156.732 114.281 157.214 114.281 157.716V166.298H113.281C112.779 166.298 112.297 166.498 111.942 166.853C111.587 167.208 111.388 167.689 111.388 168.191V171.808C111.385 172.69 111.611 173.558 112.042 174.328C112.473 175.098 113.095 175.743 113.848 176.202C113.971 176.283 114.071 176.394 114.139 176.525C114.207 176.655 114.24 176.801 114.236 176.948V178.56C114.237 178.678 114.284 178.792 114.368 178.875C114.451 178.959 114.565 179.006 114.683 179.006H123.453C123.571 179.006 123.685 178.959 123.768 178.875C123.852 178.792 123.899 178.678 123.899 178.56V176.948C123.896 176.801 123.929 176.655 123.997 176.525C124.065 176.394 124.165 176.283 124.288 176.202C125.041 175.743 125.663 175.098 126.094 174.328C126.525 173.558 126.751 172.69 126.748 171.808V165.811C126.803 164.333 124.937 163.356 123.77 164.28ZM111.957 160.019C112.041 160.103 112.154 160.15 112.273 160.151C112.391 160.151 112.505 160.105 112.589 160.021C112.673 159.938 112.72 159.825 112.721 159.706C112.721 159.588 112.675 159.474 112.591 159.39C112.169 158.967 111.932 158.394 111.932 157.796C111.932 157.198 112.169 156.625 112.591 156.202C112.633 156.161 112.665 156.111 112.688 156.057C112.71 156.003 112.721 155.945 112.721 155.886C112.721 155.827 112.709 155.769 112.686 155.715C112.664 155.661 112.63 155.612 112.589 155.571C112.547 155.53 112.498 155.497 112.444 155.475C112.389 155.452 112.331 155.441 112.273 155.441C112.214 155.442 112.156 155.453 112.102 155.476C112.048 155.499 111.999 155.532 111.957 155.573C111.369 156.164 111.039 156.963 111.039 157.796C111.039 158.629 111.369 159.429 111.957 160.019Z" fill="white"/>
<path d="M109.893 157.795C109.891 157.232 110.001 156.674 110.216 156.153C110.431 155.633 110.748 155.16 111.147 154.762C111.23 154.678 111.276 154.565 111.276 154.447C111.275 154.329 111.228 154.216 111.145 154.133C111.061 154.049 110.948 154.002 110.83 154.002C110.713 154.002 110.599 154.048 110.515 154.131C109.545 155.104 109 156.421 109 157.795C109 159.169 109.545 160.487 110.515 161.46C110.599 161.544 110.713 161.591 110.831 161.591C110.949 161.591 111.063 161.544 111.147 161.46C111.23 161.376 111.278 161.263 111.278 161.144C111.278 161.026 111.23 160.912 111.147 160.829C110.748 160.431 110.431 159.958 110.216 159.438C110.001 158.917 109.891 158.359 109.893 157.795ZM119.76 160.021C119.802 160.062 119.851 160.095 119.906 160.117C119.96 160.139 120.018 160.15 120.077 160.15C120.135 160.15 120.193 160.138 120.247 160.116C120.301 160.093 120.351 160.06 120.392 160.018C120.98 159.428 121.31 158.629 121.31 157.795C121.31 156.962 120.98 156.163 120.392 155.573C120.308 155.489 120.195 155.441 120.077 155.441C119.958 155.44 119.845 155.487 119.76 155.57C119.676 155.654 119.629 155.767 119.628 155.885C119.628 156.004 119.674 156.118 119.758 156.202C120.18 156.625 120.417 157.198 120.417 157.795C120.417 158.393 120.18 158.966 119.758 159.389C119.717 159.431 119.684 159.48 119.662 159.535C119.639 159.589 119.628 159.647 119.628 159.706C119.629 159.764 119.64 159.822 119.663 159.876C119.686 159.93 119.719 159.979 119.76 160.021Z" fill="white"/>
<path d="M122.455 157.796C122.457 158.359 122.348 158.917 122.132 159.438C121.917 159.958 121.601 160.431 121.202 160.829C121.16 160.87 121.127 160.919 121.105 160.974C121.082 161.028 121.07 161.086 121.07 161.145C121.07 161.203 121.082 161.262 121.104 161.316C121.127 161.37 121.16 161.419 121.201 161.461C121.243 161.502 121.292 161.535 121.346 161.558C121.4 161.58 121.459 161.592 121.517 161.592C121.576 161.592 121.634 161.58 121.688 161.557C121.743 161.535 121.792 161.502 121.833 161.46C122.804 160.487 123.349 159.17 123.349 157.795C123.349 156.421 122.804 155.104 121.833 154.131C121.749 154.047 121.636 154 121.517 154C121.399 154 121.285 154.047 121.202 154.131C121.118 154.215 121.071 154.328 121.071 154.446C121.071 154.565 121.118 154.678 121.202 154.762C121.601 155.16 121.917 155.633 122.132 156.153C122.348 156.674 122.457 157.232 122.455 157.796Z" fill="white"/>
<path d="M217.188 63.6648L213.071 60.8997C212.603 60.5853 211.973 60.9208 211.973 61.4848V62.501H207.295C206.672 59.2906 204.181 56.7538 200.999 56.0627V51.5269H202.015C202.579 51.5269 202.915 50.8973 202.6 50.4291L199.835 46.3118C199.556 45.8961 198.944 45.8961 198.665 46.3118L195.9 50.4291C195.585 50.8973 195.921 51.5269 196.485 51.5269H197.501V56.064C194.32 56.7568 191.829 59.2924 191.205 62.501H186.527V61.4848C186.527 60.9208 185.897 60.5853 185.429 60.8997L181.312 63.6648C180.896 63.9441 180.896 64.5558 181.312 64.835L185.429 67.6001C185.897 67.9146 186.527 67.579 186.527 67.015V65.999H191.289C192.022 69.0323 194.44 71.4099 197.501 72.0774V76.9731H196.485C195.921 76.9731 195.585 77.6027 195.9 78.0709L198.665 82.1882C198.944 82.604 199.556 82.604 199.835 82.1882L202.6 78.0709C202.915 77.6027 202.579 76.9731 202.015 76.9731H200.999V72.0787C204.062 71.4128 206.479 69.034 207.212 65.999H211.973V67.015C211.973 67.579 212.603 67.9146 213.071 67.6001L217.188 64.835C217.604 64.5558 217.604 63.9441 217.188 63.6648ZM199.253 68.7732C196.657 68.7732 194.548 66.6635 194.548 64.0735C194.548 61.4727 196.657 59.3684 199.253 59.3684C201.848 59.3684 203.952 61.4727 203.952 64.0735C203.952 66.6635 201.848 68.7732 199.253 68.7732Z" fill="black"/>
<path d="M314.931 140.535C313.731 140.535 312.557 140.891 311.559 141.558C310.561 142.225 309.783 143.173 309.323 144.282C308.864 145.391 308.744 146.612 308.978 147.789C309.212 148.966 309.79 150.048 310.639 150.897C311.488 151.746 312.57 152.324 313.747 152.558C314.924 152.792 316.145 152.672 317.254 152.213C318.363 151.753 319.311 150.975 319.978 149.977C320.645 148.979 321.001 147.805 321.001 146.605C320.999 144.996 320.359 143.453 319.221 142.315C318.083 141.177 316.54 140.537 314.931 140.535ZM318.695 145.804L313.974 149.176C313.901 149.229 313.817 149.266 313.729 149.286C313.641 149.306 313.55 149.307 313.461 149.291C313.372 149.275 313.287 149.241 313.212 149.192C313.136 149.142 313.071 149.078 313.021 149.002L311.672 146.979C311.623 146.906 311.589 146.823 311.572 146.736C311.555 146.649 311.555 146.56 311.572 146.473C311.589 146.386 311.624 146.303 311.673 146.23C311.722 146.156 311.785 146.093 311.859 146.044C311.933 145.995 312.015 145.96 312.102 145.943C312.189 145.926 312.279 145.926 312.366 145.943C312.452 145.961 312.535 145.995 312.609 146.044C312.682 146.094 312.745 146.157 312.795 146.231L313.757 147.675L317.911 144.707C317.983 144.652 318.065 144.611 318.153 144.588C318.241 144.565 318.332 144.56 318.422 144.573C318.512 144.586 318.598 144.617 318.676 144.665C318.753 144.712 318.82 144.774 318.873 144.848C318.926 144.922 318.963 145.006 318.983 145.094C319.002 145.183 319.004 145.275 318.987 145.364C318.971 145.453 318.936 145.538 318.886 145.614C318.836 145.689 318.771 145.754 318.695 145.804Z" fill="white"/>
<path d="M306.163 127.721C303.658 127.721 301.257 128.715 299.486 130.486C297.715 132.257 296.721 134.658 296.721 137.163C296.721 139.667 297.715 142.068 299.486 143.839C301.257 145.61 303.658 146.604 306.163 146.604C306.614 146.604 307.064 146.572 307.511 146.51C307.538 144.559 308.331 142.698 309.719 141.327C311.107 139.957 312.979 139.187 314.93 139.186C315.078 139.186 315.233 139.193 315.382 139.199C315.532 138.531 315.606 137.848 315.604 137.163C315.602 134.659 314.606 132.259 312.836 130.489C311.066 128.719 308.666 127.723 306.163 127.721ZM308.665 139.665C308.537 139.79 308.365 139.86 308.186 139.86C308.007 139.86 307.835 139.79 307.707 139.665L305.684 137.641C305.56 137.513 305.489 137.341 305.488 137.163V133.116C305.488 132.937 305.559 132.766 305.686 132.639C305.812 132.513 305.984 132.442 306.163 132.442C306.341 132.442 306.513 132.513 306.639 132.639C306.766 132.766 306.837 132.937 306.837 133.116V136.886L308.665 138.707C308.791 138.834 308.862 139.006 308.862 139.186C308.862 139.365 308.791 139.537 308.665 139.665Z" fill="white"/>
<path d="M306.163 123C302.407 123 298.804 124.492 296.148 127.148C293.492 129.804 292 133.407 292 137.163C292 140.919 293.492 144.521 296.148 147.177C298.804 149.833 302.407 151.326 306.163 151.326C307.11 151.328 308.054 151.233 308.982 151.042C308.28 150.103 307.813 149.009 307.62 147.852C307.137 147.92 306.65 147.954 306.163 147.953C304.029 147.953 301.942 147.321 300.168 146.135C298.393 144.949 297.01 143.264 296.193 141.292C295.377 139.32 295.163 137.151 295.579 135.058C295.996 132.964 297.024 131.042 298.533 129.533C300.042 128.024 301.964 126.996 304.058 126.579C306.151 126.163 308.32 126.377 310.292 127.193C312.264 128.01 313.949 129.393 315.135 131.168C316.321 132.942 316.953 135.029 316.953 137.163C316.954 137.915 316.875 138.666 316.717 139.402C317.854 139.685 318.908 140.232 319.793 141C320.149 139.752 320.328 138.461 320.326 137.163C320.321 133.408 318.828 129.808 316.173 127.153C313.518 124.498 309.918 123.004 306.163 123Z" fill="white"/>
</g>
<defs>
<linearGradient id="paint0_linear_646_2860" x1="9.21052" y1="328.327" x2="393.928" y2="319.345" gradientUnits="userSpaceOnUse">
<stop offset="0.142184" stop-color="#C31275"/>
<stop offset="1" stop-color="#7D0447"/>
</linearGradient>
<linearGradient id="paint1_linear_646_2860" x1="79.0178" y1="168.056" x2="151.233" y2="167.097" gradientUnits="userSpaceOnUse">
<stop offset="0.142184" stop-color="#C31275"/>
<stop offset="1" stop-color="#7D0447"/>
</linearGradient>
<linearGradient id="paint2_linear_646_2860" x1="17.3116" y1="272.543" x2="59.6763" y2="271.812" gradientUnits="userSpaceOnUse">
<stop offset="0.142184" stop-color="#C31275"/>
<stop offset="1" stop-color="#7D0447"/>
</linearGradient>
</defs>
</svg>
