<svg width="538" height="258" viewBox="0 0 538 258" fill="none" xmlns="http://www.w3.org/2000/svg">
<path d="M37.5256 149.103L19.9102 257.402H141.646L124.031 149.103C146.536 134.764 161.446 109.6 161.446 80.9695C161.446 38.3797 128.399 3.48265 86.57 0.539767C84.6701 0.350139 82.7246 0.302734 80.7772 0.302734C36.2438 0.300911 0.112305 36.4342 0.112305 80.9677C0.112305 109.598 15.02 134.764 37.5256 149.103Z" fill="#6A6A6D"/>
<path d="M124.04 149.078L126.319 163.133L141.656 257.378H31.5508L49.1662 149.078C26.6606 134.74 11.7529 109.576 11.7529 80.9453C11.7529 38.3556 44.7501 3.50592 86.5813 0.515625C128.411 3.45851 161.457 38.3574 161.457 80.9453C161.457 101.03 154.098 119.451 141.942 133.553C136.765 139.582 130.736 144.804 124.04 149.078Z" fill="#353434"/>
<path d="M442.397 217.859H131.082V257.4H442.397V217.859Z" fill="#FFD800"/>
<path d="M432.432 217.859H427.489V230.933H432.432V217.859Z" fill="#353434"/>
<path d="M417.127 217.859H412.184V230.933H417.127V217.859Z" fill="#353434"/>
<path d="M401.82 217.859H396.877V230.933H401.82V217.859Z" fill="#353434"/>
<path d="M386.513 217.859H381.57V230.933H386.513V217.859Z" fill="#353434"/>
<path d="M371.208 217.859H366.265V244.991H371.208V217.859Z" fill="#353434"/>
<path d="M355.901 217.859H350.958V230.933H355.901V217.859Z" fill="#353434"/>
<path d="M340.594 217.859H335.651V230.933H340.594V217.859Z" fill="#353434"/>
<path d="M325.289 217.859H320.346V230.933H325.289V217.859Z" fill="#353434"/>
<path d="M309.981 217.859H305.038V230.933H309.981V217.859Z" fill="#353434"/>
<path d="M294.675 217.859H289.731V244.991H294.675V217.859Z" fill="#353434"/>
<path d="M279.37 217.859H274.427V230.933H279.37V217.859Z" fill="#353434"/>
<path d="M264.063 217.859H259.12V230.933H264.063V217.859Z" fill="#353434"/>
<path d="M248.756 217.859H243.812V230.933H248.756V217.859Z" fill="#353434"/>
<path d="M233.45 217.859H228.507V230.933H233.45V217.859Z" fill="#353434"/>
<path d="M218.143 217.859H213.2V244.991H218.143V217.859Z" fill="#353434"/>
<path d="M202.836 217.859H197.893V230.933H202.836V217.859Z" fill="#353434"/>
<path d="M187.531 217.859H182.588V230.933H187.531V217.859Z" fill="#353434"/>
<path d="M172.224 217.859H167.281V230.933H172.224V217.859Z" fill="#353434"/>
<path d="M156.917 217.859H151.974V230.933H156.917V217.859Z" fill="#353434"/>
<path d="M451.047 198.727H441.588V257.402H451.047V198.727Z" fill="#353434"/>
<path d="M530.087 230.523H517.196V240.233H530.087V230.523Z" fill="#F4C99A"/>
<path d="M486.673 240.649L486.621 250.941L495.627 250.987L495.679 240.694L486.673 240.649Z" fill="#F4C99A"/>
<path d="M496.452 256.525L472.588 256.403C472.229 256.401 472.021 256.119 471.908 255.712C471.48 254.171 472.625 252.633 474.209 252.417C477.128 252.022 481.523 250.08 485.72 247.126C485.82 247.057 485.939 247.018 486.061 247.018L495.863 247.068C496.169 247.07 496.427 247.303 496.456 247.609L497.212 255.698C497.253 256.144 496.901 256.527 496.452 256.525ZM522.218 229.017V242.241C522.218 242.241 485.848 241.906 483.504 234.206C481.161 226.506 503.468 183.23 503.468 183.23L530.086 184.653C530.086 184.653 522.719 210.433 500.622 227.175L522.218 229.017Z" fill="#353434"/>
<path d="M485.387 243.747C485.387 243.747 457.094 195.7 461.95 186.828C466.806 177.955 496.437 181.806 496.437 181.806L509.935 183.575L499.323 202.062L480.7 198.882L498.444 244.416L485.387 243.747Z" fill="#353434"/>
<path d="M447.537 145.714L447.557 152.143L444.833 152.614C444.833 152.614 436.152 157.134 434.746 148.958C434.199 145.774 437.941 143.606 440.404 145.698C440.439 145.727 440.473 145.756 440.508 145.787C440.592 145.86 440.716 145.761 440.659 145.665L439.323 143.34C439.095 142.944 439.223 142.439 439.611 142.199C439.968 141.978 440.431 142.053 440.701 142.372L442.525 144.534C442.933 145.018 443.513 145.322 444.144 145.384L447.537 145.714Z" fill="#F4C99A"/>
<path d="M445.133 145.481L445.806 153.392L474.999 149.401C483.52 145.153 494.622 137.577 494.622 137.577L489.71 124.904L472.54 139.327L445.133 145.481Z" fill="#E63A48"/>
<path d="M494.447 184.496C494.447 184.496 490.279 159.177 487.445 141.879L486.018 133.16C485.285 128.686 488.308 124.466 492.781 123.73C495.056 123.354 500.935 122.395 506.614 121.467C513.804 120.293 520.574 125.187 521.717 132.38C524.498 149.88 529.195 179.194 530.033 182.742C531.716 189.877 494.447 184.496 494.447 184.496Z" fill="#E63A48"/>
<path d="M497.809 122.963C497.649 122.25 497.534 121.738 497.534 121.738C497.534 121.738 493.922 121.704 493.555 121.594C492.826 121.373 491.455 119.249 491.001 116.553C490.547 113.856 490.388 111.081 490.332 109.934C490.275 108.787 490.047 104.161 494.084 101.944C498.121 99.7267 503.961 101.184 505.956 105.224C507.951 109.265 507.712 112.603 507.068 113.983C506.425 115.366 506.058 117.705 506.073 118.593C506.078 118.941 506.25 120.044 506.456 121.257C506.84 123.53 505.409 125.715 503.17 126.271C500.772 126.867 498.353 125.374 497.809 122.963Z" fill="#F4C99A"/>
<path d="M504.305 110.525C504.032 111.046 503.74 112.21 503.74 112.21C502.972 111.509 501.452 106.448 501.924 105.004C501.747 105.966 494.1 105.438 492.1 105.139C491.684 105.077 491.168 105.303 490.975 105.755C490.767 106.244 490.38 108.541 490.305 109.134C490.121 108.309 490.058 107.496 489.944 106.665C489.839 105.875 486.987 103.162 487.895 101.527C489.215 99.149 498.62 99.2128 499.765 99.3149C501.023 99.428 505.042 100.471 505.53 102.189C507.007 102.754 508.074 103.501 508.214 106.183C508.282 107.476 508.295 108.784 508.317 110.08C508.338 111.369 508.023 112.496 507.733 113.743C507.485 114.81 507.146 115.849 506.863 116.905C506.814 117.091 506.424 118.631 506.07 118.553C506.01 118.54 505.47 117.282 505.337 116.959C505.128 116.447 505.089 115.909 505.025 115.371C505.002 115.171 504.931 114.941 505.004 114.742C505.118 114.432 505.478 114.436 505.742 114.336C506.577 114.015 506.922 113.112 506.962 112.279C507.006 111.378 506.829 110.215 505.813 109.932C505.286 109.785 504.653 109.98 504.349 110.448C504.334 110.472 504.32 110.498 504.305 110.525Z" fill="#353434"/>
<path d="M457.947 157.163L456.885 163.503L454.121 163.508C454.121 163.508 444.804 166.504 444.793 158.208C444.788 154.977 448.843 153.469 450.918 155.945C450.947 155.98 450.976 156.015 451.005 156.051C451.076 156.139 451.215 156.06 451.175 155.956L450.247 153.438C450.09 153.01 450.299 152.534 450.723 152.362C451.111 152.206 451.556 152.357 451.769 152.718L453.204 155.156C453.525 155.701 454.046 156.098 454.657 156.264L457.947 157.163Z" fill="#F4C99A"/>
<path d="M455.617 156.526L454.949 164.438L484.398 165.413C493.511 162.658 505.312 154.079 505.312 154.079L502.601 140.762L483.669 155.07L455.617 156.526Z" fill="#E63A48"/>
<path d="M523.558 228.43L536.197 227.174C536.197 227.174 539.545 248.77 537.118 253.29C534.691 257.81 523.809 257.726 522.637 257.726C521.465 257.726 523.39 252.369 528.495 250.695C533.601 249.021 523.306 242.24 523.306 242.24L523.558 228.43Z" fill="#353434"/>
</svg>
