<svg width="65" height="65" viewBox="0 0 65 65" fill="none" xmlns="http://www.w3.org/2000/svg">
<rect opacity="0.5" width="65" height="65" rx="32.5" fill="#242729" fill-opacity="0.72"/>
<path d="M40 42H29C28.45 42 27.9792 41.8042 27.5875 41.4125C27.1958 41.0208 27 40.55 27 40V26C27 25.45 27.1958 24.9792 27.5875 24.5875C27.9792 24.1958 28.45 24 29 24H36L42 30V40C42 40.55 41.8042 41.0208 41.4125 41.4125C41.0208 41.8042 40.55 42 40 42ZM35 31V26H29V40H40V31H35ZM25 46C24.45 46 23.9792 45.8042 23.5875 45.4125C23.1958 45.0208 23 44.55 23 44V30H25V44H36V46H25Z" fill="#4F4F4F"/>
</svg>
