<svg width="32" height="32" viewBox="0 0 32 32" fill="none" xmlns="http://www.w3.org/2000/svg">
<path d="M16 6.5C17.7949 6.5 19.25 5.04493 19.25 3.25C19.25 1.45507 17.7949 0 16 0C14.2051 0 12.75 1.45507 12.75 3.25C12.75 5.04493 14.2051 6.5 16 6.5Z" fill="#730C7F"/>
<path d="M13.55 17.45C13.55 16.75 13.55 12.15 13.55 11.45C13.55 10 14.85 8.80005 16.35 9.00005C17.05 9.10005 17.6 9.45005 18 10C20.55 10 20.35 10 20.8 10C20.35 8.55005 19.3 7.40005 17.9 6.80005C17.35 7.10005 16.7 7.25005 16 7.25005C15.35 7.25005 14.7 7.10005 14.15 6.80005C12.3 7.65005 11 9.50005 11 11.6C11 11.65 11 17.35 11 17.4C11.4 17.5 11.55 17.45 13.55 17.45ZM21 20.4V16.1C21 15.4 20.45 14.85 19.75 14.85C19.05 14.85 18.5 15.4 18.5 16.1V20.5C18.5 21.95 17.2 23.1501 15.7 22.9501C15 22.85 14.45 22.5 14.05 21.95C11.25 21.95 11.75 21.95 11.25 21.95C11.7 23.4 12.8 24.6 14.15 25.15C14.7 24.85 15.35 24.7001 16.05 24.7001C16.7 24.7001 17.35 24.85 17.9 25.15C19.7 24.35 21 22.5 21 20.4Z" fill="#730C7F"/>
<path d="M16 32C17.7949 32 19.25 30.5449 19.25 28.75C19.25 26.9551 17.7949 25.5 16 25.5C14.2051 25.5 12.75 26.9551 12.75 28.75C12.75 30.5449 14.2051 32 16 32Z" fill="#730C7F"/>
<path d="M25.1501 14.15C24.3501 12.3 22.5001 11 20.4001 11C19.7501 11 16.7501 11 14.6001 11C14.5001 11.35 14.5501 11.5 14.5501 13.5C15.1501 13.5 13.7001 13.5 20.5501 13.5C22.0001 13.5 23.2001 14.8 23.0001 16.3C22.9001 17 22.5501 17.55 22.0001 17.95C22.0001 20.6 22.0001 20.25 22.0001 20.75C23.4001 20.35 24.6001 19.3 25.2001 17.85C24.9001 17.3 24.7501 16.65 24.7501 15.95C24.7001 15.35 24.8501 14.7 25.1501 14.15Z" fill="#730C7F"/>
<path d="M28.75 19.25C30.5449 19.25 32 17.7949 32 16C32 14.2051 30.5449 12.75 28.75 12.75C26.9551 12.75 25.5 14.2051 25.5 16C25.5 17.7949 26.9551 19.25 28.75 19.25Z" fill="#730C7F"/>
<path d="M6.8498 17.85C7.6498 19.7 9.4998 20.95 11.5998 20.95C11.9998 20.95 12.2498 20.95 12.4498 20.95C12.5498 20.95 12.6498 20.95 12.6998 20.95C12.7498 20.95 12.7998 20.95 12.7998 20.95C13.3498 20.95 14.5998 20.95 17.3998 20.95C17.4998 20.55 17.4498 20.45 17.4498 18.45C15.1998 18.45 13.6998 18.45 11.4498 18.45C9.9998 18.45 8.7998 17.15 8.9998 15.65C9.0998 14.95 9.4498 14.4 9.9998 14C9.9998 11.4 9.9998 11.7 9.9998 11.2C8.5998 11.65 7.3998 12.7 6.7998 14.1C7.0998 14.65 7.2498 15.3 7.2498 16C7.2998 16.65 7.1498 17.3 6.8498 17.85Z" fill="#730C7F"/>
<path d="M3.25 19.25C5.04493 19.25 6.5 17.7949 6.5 16C6.5 14.2051 5.04493 12.75 3.25 12.75C1.45507 12.75 0 14.2051 0 16C0 17.7949 1.45507 19.25 3.25 19.25Z" fill="#730C7F"/>
</svg>
