<svg width="39" height="38" viewBox="0 0 39 38" fill="none" xmlns="http://www.w3.org/2000/svg">
<path d="M18.9895 31.2448C18.0621 31.2448 17.1227 31.2211 16.1953 31.2567C15.7553 31.2686 15.6721 31.1259 15.684 30.7336C15.7196 30.1034 15.6721 29.4613 15.7077 28.8311C15.7196 28.51 15.6007 28.3792 15.3272 28.2841C14.4117 27.9512 13.5793 27.4755 12.8302 26.8572C12.5805 26.6551 12.4141 26.6908 12.1644 26.8334C11.5936 27.1902 10.9991 27.4993 10.4283 27.8441C10.1905 27.9868 10.0597 28.0344 9.89325 27.7371C8.91822 26.0011 7.9313 24.277 6.9206 22.5528C6.75414 22.2675 6.82548 22.1604 7.08707 22.0178C7.69349 21.6967 8.27613 21.3281 8.89444 21.0071C9.15603 20.8644 9.2036 20.6979 9.15603 20.4363C8.96578 19.497 8.97767 18.5457 9.14414 17.6064C9.2036 17.3091 9.15603 17.1307 8.87066 16.988C8.27613 16.6789 7.70538 16.3222 7.12274 16.0011C6.84926 15.8584 6.75414 15.7395 6.94439 15.4185C7.94319 13.7181 8.91822 12.0059 9.89325 10.2937C10.0597 9.99639 10.1905 9.98449 10.464 10.1629C11.0466 10.5315 11.6649 10.8406 12.2476 11.2092C12.4735 11.3519 12.6043 11.3281 12.8064 11.1736C13.5793 10.5552 14.4236 10.0558 15.3629 9.7229C15.6483 9.62778 15.7315 9.46131 15.7196 9.15215C15.6959 8.49817 15.7315 7.84419 15.7077 7.19021C15.6959 6.88105 15.7553 6.73837 16.112 6.75026C18.074 6.77404 20.0359 6.76215 21.9979 6.75026C22.3308 6.75026 22.3902 6.86916 22.3784 7.15454C22.3665 7.80852 22.4021 8.4625 22.3665 9.11648C22.3427 9.48509 22.5092 9.62778 22.8064 9.74668C23.6744 10.0796 24.4949 10.5315 25.2083 11.126C25.5056 11.3638 25.6958 11.3281 25.9693 11.1617C26.5282 10.8168 27.0989 10.5077 27.6459 10.1629C27.8718 10.0202 28.0145 9.96071 28.181 10.2699C29.156 12.0059 30.1429 13.73 31.1536 15.4542C31.3201 15.7395 31.2606 15.8584 30.9871 15.9892C30.3807 16.3103 29.7981 16.6789 29.1798 16.9999C28.9182 17.1307 28.8706 17.2972 28.9182 17.5707C29.1084 18.51 29.0965 19.4613 28.9182 20.4006C28.8587 20.6979 28.9063 20.8763 29.1917 21.0189C29.7862 21.3281 30.3569 21.6848 30.9396 22.0059C31.2131 22.1486 31.3082 22.2675 31.1298 22.5885C30.131 24.2889 29.156 26.0011 28.181 27.7133C28.0145 28.0106 27.8837 28.0344 27.6102 27.8441C27.0276 27.4755 26.4093 27.1664 25.8266 26.7978C25.6007 26.6551 25.4699 26.6789 25.2678 26.8334C24.4949 27.4518 23.6506 27.9512 22.7113 28.296C22.4378 28.3911 22.3308 28.5457 22.3427 28.8548C22.3665 29.5088 22.3189 30.1628 22.3665 30.8168C22.3902 31.2092 22.2476 31.2686 21.9027 31.2567C20.9277 31.2211 19.9527 31.2448 18.9895 31.2448ZM19.0252 13.409C15.9931 13.409 13.4366 15.9655 13.4485 18.9976C13.4485 22.0296 16.005 24.5861 19.0371 24.5742C22.0692 24.5742 24.6257 22.0178 24.6138 18.9857C24.6138 15.9536 22.0573 13.409 19.0252 13.409Z" fill="#730C7F"/>
<path d="M34.1379 7.3567C34.3043 6.73839 34.4589 6.22709 34.5659 5.7158C34.6135 5.47799 34.6492 5.35908 34.9227 5.43042C35.4696 5.57311 36.0285 5.69202 36.5873 5.82281C36.7657 5.87037 36.7895 5.98928 36.7419 6.13197C36.3376 7.74909 35.9334 9.3781 35.541 11.0071C35.4815 11.2449 35.3032 11.1736 35.1605 11.1736C33.6147 11.1736 32.0689 11.1736 30.5231 11.1855C30.2972 11.1855 30.1545 11.1617 30.1664 10.8763C30.1902 10.2818 29.9643 9.54456 30.2378 9.14028C30.5112 8.736 31.296 9.05705 31.8549 8.9976C32.0214 8.98571 32.1997 8.9976 32.4375 8.9976C32.3067 8.64088 32.0689 8.42685 31.8787 8.20093C28.0856 3.89654 23.3056 1.87514 17.5743 2.27942C10.7729 2.75504 4.63735 7.93933 2.86566 14.5267C2.14033 17.2378 2.04521 19.9369 2.73486 22.6599C2.82999 23.0166 2.90133 23.2901 2.35436 23.3139C2.03332 23.3257 1.68849 23.4446 1.39123 23.5636C0.891822 23.7776 0.630229 23.7062 0.499433 23.1117C0.0357 20.9714 -0.154549 18.8073 0.142715 16.6313C0.689682 12.6361 2.3068 9.1165 5.05352 6.14386C8.08562 2.88584 11.7836 0.816879 16.2069 0.210459C23.044 -0.728897 28.7514 1.49464 33.4126 6.51247C33.6504 6.76217 33.8525 7.02376 34.1379 7.3567Z" fill="#730C7F"/>
<path d="M3.91211 30.6503C3.75753 31.2449 3.56728 31.7205 3.50783 32.2199C3.44838 32.648 3.24624 32.6242 2.96086 32.5409C2.54469 32.4339 2.12852 32.2556 1.71235 32.2199C1.24862 32.1842 1.26051 31.9583 1.33185 31.6372C1.61723 30.5076 1.89071 29.3899 2.18798 28.2603C2.30688 27.7847 2.30688 27.1188 2.61604 26.9048C2.97275 26.667 3.60296 26.8216 4.11425 26.8216C5.22007 26.8216 6.33779 26.8335 7.44361 26.8097C7.77655 26.7978 7.89545 26.8929 7.87167 27.2377C7.836 27.8085 8.05003 28.5576 7.76466 28.9024C7.46739 29.2591 6.69451 28.9738 6.12376 29.0094C5.96918 29.0213 5.8146 29.0094 5.60057 29.0094C5.70759 29.3662 5.9454 29.5683 6.14754 29.7942C9.96441 34.0867 14.7444 36.12 20.4757 35.7276C27.2771 35.252 33.4364 30.0558 35.1962 23.4922C35.9215 20.7812 36.0286 18.082 35.327 15.359C35.22 14.9429 35.2438 14.7288 35.7551 14.6813C36.1831 14.6456 36.5993 14.4791 37.0036 14.3484C37.3009 14.2532 37.396 14.3365 37.4792 14.6456C37.9073 16.4054 38.1451 18.1771 38.0262 19.9845C37.7527 24.384 36.1831 28.2722 33.2462 31.5659C30.2141 34.9666 26.4448 37.1307 21.9144 37.7609C14.8871 38.7359 9.07262 36.4173 4.37584 31.1616C4.23316 31.0189 4.10236 30.8763 3.91211 30.6503Z" fill="#730C7F"/>
<path d="M19.025 13.409C22.0571 13.409 24.6135 15.9536 24.6135 18.9857C24.6135 22.0178 22.069 24.5742 19.0369 24.5742C16.0048 24.5742 13.4483 22.0297 13.4483 18.9976C13.4364 15.9655 15.981 13.409 19.025 13.409ZM19.0012 22.3269C20.8918 22.3269 22.3543 20.8882 22.3543 19.0095C22.3543 17.1426 20.9156 15.6801 19.0844 15.6682C17.1819 15.6563 15.7075 17.0832 15.6956 18.95C15.6837 20.8525 17.1344 22.315 19.0012 22.3269Z" fill="#F7F7F7"/>
<path d="M19.0008 22.3269C17.134 22.3269 15.6952 20.8525 15.7071 18.95C15.719 17.0832 17.1934 15.6563 19.0959 15.6682C20.9271 15.6801 22.3658 17.1427 22.3658 19.0095C22.3539 20.8882 20.8914 22.3269 19.0008 22.3269Z" fill="#730C7F"/>
</svg>
