<svg width="26" height="32" viewBox="0 0 26 32" fill="none" xmlns="http://www.w3.org/2000/svg">
<path d="M22.5185 3.48456C14.9366 -4.04454 2.2296 1.41075 2.2296 12.361C2.2296 13.1139 2.53341 12.361 0.208635 16.9577C0.0579295 17.2595 -0.0131916 17.5949 0.00201315 17.932C0.0172179 18.269 0.118245 18.5966 0.295518 18.8837C0.472792 19.1708 0.720439 19.4078 1.01499 19.5724C1.30954 19.7369 1.64123 19.8235 1.97863 19.824C2.33527 19.824 2.2296 19.256 2.2296 23.7867C2.24661 24.8323 2.66956 25.8304 3.40906 26.5699C4.14855 27.3094 5.14662 27.7324 6.19228 27.7494H7.51318V30.3912C7.51318 30.7415 7.65234 31.0775 7.90006 31.3252C8.14777 31.5729 8.48375 31.712 8.83407 31.712C9.18439 31.712 9.52037 31.5729 9.76808 31.3252C10.0158 31.0775 10.155 30.7415 10.155 30.3912V26.4285C10.1332 26.0853 9.98699 25.7618 9.74385 25.5187C9.5007 25.2756 9.17724 25.1294 8.83407 25.1076H6.19228C5.84196 25.1076 5.50599 24.9684 5.25827 24.7207C5.01055 24.473 4.87139 24.137 4.87139 23.7867V18.5031C4.84959 18.1599 4.70342 17.8365 4.46027 17.5933C4.21712 17.3502 3.89367 17.204 3.5505 17.1822H3.04856C4.87139 13.4441 4.87139 13.6422 4.87139 13.2195C4.87139 -1.31029 23.3639 0.0106054 23.3639 11.8986C23.3758 15.2519 22.099 18.4816 19.7975 20.9203C19.2295 21.4883 19.4012 21.5148 19.4012 30.3912C19.4012 30.7415 19.5404 31.0775 19.7881 31.3252C20.0358 31.5729 20.3718 31.712 20.7221 31.712C21.0724 31.712 21.4084 31.5729 21.6561 31.3252C21.9038 31.0775 22.043 30.7415 22.043 30.3912V22.3865C26.6265 17.1822 27.8021 8.79455 22.5185 3.48456Z" fill="#730C7F"/>
<path d="M19.1899 11.9779C19.4669 11.065 19.4669 10.0905 19.1899 9.1776C19.3408 9.09087 19.4731 8.97526 19.5794 8.83738C19.6856 8.6995 19.7636 8.54204 19.809 8.37401C19.8544 8.20597 19.8662 8.03063 19.8439 7.85802C19.8215 7.6854 19.7653 7.51889 19.6786 7.36797C19.5919 7.21706 19.4762 7.08471 19.3384 6.97848C19.2005 6.87224 19.043 6.79421 18.875 6.74882C18.707 6.70344 18.5316 6.6916 18.359 6.71398C18.1864 6.73635 18.0199 6.79251 17.869 6.87924C17.1998 6.20208 16.36 5.71832 15.4385 5.4791C15.4385 5.12877 15.2994 4.7928 15.0516 4.54508C14.8039 4.29737 14.4679 4.1582 14.1176 4.1582C13.7673 4.1582 13.4313 4.29737 13.1836 4.54508C12.9359 4.7928 12.7967 5.12877 12.7967 5.4791C11.8705 5.71612 11.0259 6.20003 10.3531 6.87924C10.2022 6.79251 10.0356 6.73635 9.86303 6.71398C9.69042 6.6916 9.51508 6.70344 9.34705 6.74882C9.17901 6.79421 9.02155 6.87224 8.88367 6.97848C8.74579 7.08471 8.63018 7.21706 8.54345 7.36797C8.45672 7.51889 8.40056 7.6854 8.37819 7.85802C8.35581 8.03063 8.36765 8.20597 8.41303 8.37401C8.45842 8.54204 8.53645 8.6995 8.64269 8.83738C8.74892 8.97526 8.88127 9.09087 9.03218 9.1776C8.75513 10.0905 8.75513 11.065 9.03218 11.9779C8.88127 12.0646 8.74892 12.1802 8.64269 12.3181C8.53645 12.456 8.45842 12.6134 8.41303 12.7815C8.36765 12.9495 8.35581 13.1249 8.37819 13.2975C8.40056 13.4701 8.45672 13.6366 8.54345 13.7875C8.63018 13.9384 8.74579 14.0708 8.88367 14.177C9.02155 14.2832 9.17901 14.3613 9.34705 14.4067C9.51508 14.452 9.69042 14.4639 9.86303 14.4415C10.0356 14.4191 10.2022 14.363 10.3531 14.2762C11.0259 14.9555 11.8705 15.4394 12.7967 15.6764C12.7967 16.0267 12.9359 16.3627 13.1836 16.6104C13.4313 16.8581 13.7673 16.9973 14.1176 16.9973C14.4679 16.9973 14.8039 16.8581 15.0516 16.6104C15.2994 16.3627 15.4385 16.0267 15.4385 15.6764C16.3647 15.4394 17.2093 14.9555 17.8822 14.2762C18.1869 14.4497 18.5481 14.4949 18.8863 14.402C19.2244 14.3091 19.5118 14.0857 19.6852 13.7809C19.8586 13.4761 19.9038 13.1149 19.8109 12.7768C19.718 12.4387 19.4946 12.1513 19.1899 11.9779ZM14.1176 13.2195C13.5951 13.2195 13.0844 13.0646 12.6499 12.7743C12.2155 12.484 11.8769 12.0714 11.6769 11.5887C11.477 11.106 11.4247 10.5748 11.5266 10.0624C11.6285 9.5499 11.8801 9.07918 12.2496 8.70972C12.6191 8.34026 13.0898 8.08865 13.6022 7.98672C14.1147 7.88479 14.6459 7.9371 15.1286 8.13705C15.6113 8.337 16.0239 8.67561 16.3142 9.11005C16.6045 9.54449 16.7594 10.0552 16.7594 10.5777C16.7594 11.2784 16.4811 11.9503 15.9856 12.4458C15.4902 12.9412 14.8183 13.2195 14.1176 13.2195Z" fill="#730C7F"/>
</svg>
