<svg width="47" height="47" viewBox="0 0 47 47" fill="none" xmlns="http://www.w3.org/2000/svg">
<path d="M41.9643 5.03571H23.0317L21.7358 1.14814C21.6245 0.813762 21.4107 0.522919 21.1247 0.316843C20.8388 0.110767 20.4953 -8.48192e-05 20.1429 4.86944e-08H5.03571C2.25936 4.86944e-08 0 2.25936 0 5.03571V41.9643C0 44.7406 2.25936 47 5.03571 47H41.9643C44.7406 47 47 44.7406 47 41.9643V10.0714C47 7.29507 44.7406 5.03571 41.9643 5.03571ZM3.35714 5.03571C3.35714 4.11082 4.11082 3.35714 5.03571 3.35714H18.9326L20.2285 7.24471C20.3398 7.5791 20.5536 7.86994 20.8395 8.07601C21.1255 8.28209 21.469 8.39294 21.8214 8.39286H41.9643C42.8892 8.39286 43.6429 9.14654 43.6429 10.0714V13.4286H3.35714V5.03571ZM43.6429 41.9643C43.6429 42.8909 42.8892 43.6429 41.9643 43.6429H5.03571C4.11082 43.6429 3.35714 42.8909 3.35714 41.9643V16.7857H43.6429V41.9643Z" fill="#2B6FAD" fill-opacity="0.25"/>
</svg>
