<svg width="1920" height="925" viewBox="0 0 1920 925" fill="none" xmlns="http://www.w3.org/2000/svg">
<path d="M1318.37 -577.163C1281.31 -553.342 1236.85 -543.993 1198.19 -523.831C1084.65 -466.694 991.445 -383.495 900.979 -295.844C818.321 -215.378 729.21 -143.653 619.13 -101.812C539.246 -70.8763 458.835 -73.2192 377.039 -95.941C295.085 -119.618 216.908 -156.68 131.832 -169.043C57.1245 -179.203 -16.018 -173.921 -73.2815 -121.227C-135.592 -62.7879 -143.478 10.1623 -116.523 88.1196C-99.6704 135.37 -84.6063 183.899 -64.9924 229.709C-32.1969 306.696 -43.6587 382.203 -68.9071 459.02C-89.4043 522.289 -98.5594 587.599 -101.398 654.804C-106.642 803.863 17.7774 920.585 167.416 924.185C302.95 927.184 410.333 869.108 511.125 795.443C617.123 716.988 710.214 621.049 819.111 548.001C911.914 486.458 1015.2 439.857 1135.82 443.372C1300.85 449.321 1443.6 519.818 1590.12 576.929C1699.09 618.69 1809.05 654.398 1927.24 655.37C2015.44 656.42 2098.88 628.819 2162.18 564.326C2215.24 510.369 2221 442.678 2207.15 371.376C2186.75 272.701 2118.58 205.517 2053.98 135.777C2005.2 83.0347 1952.2 34.9209 1915.78 -27.7255C1879.69 -88.462 1863.06 -152.433 1865.1 -224.413C1866.79 -286.52 1869.45 -348.788 1859.13 -410.864C1841.52 -516.871 1764.4 -577.662 1668.96 -592.228C1619.7 -599.746 1569.12 -603.12 1519.21 -608.566C1452.7 -599.48 1385.53 -588.321 1318.37 -577.163Z" fill="url(#paint0_linear_646_1704)"/>
<defs>
<linearGradient id="paint0_linear_646_1704" x1="2183.86" y1="618.828" x2="-1050.38" y2="269.691" gradientUnits="userSpaceOnUse">
<stop stop-color="#730C7F"/>
<stop offset="1" stop-color="#F20972"/>
</linearGradient>
</defs>
</svg>
