<svg width="50" height="32" viewBox="0 0 50 32" fill="none" xmlns="http://www.w3.org/2000/svg">
<path d="M1.78845 0C1.43548 0.00101398 1.0907 0.1059 0.797542 0.301601C0.504381 0.497301 0.275947 0.775095 0.141009 1.09979C0.00607049 1.42448 -0.0293373 1.78149 0.0392449 2.12617C0.107827 2.47086 0.277332 2.78774 0.526412 3.03671L13.5517 16.0033L0.526412 28.9698C5.0283e-08 29.4872 0 30.0448 0 30.2195C0 31.2004 0.809865 32 1.78845 32C1.96392 32 2.54432 32 3.05049 31.4759L16.8114 17.777H35.7083V26.6655C35.7083 27.6464 36.5181 28.4458 37.4967 28.4458C37.6789 28.4458 38.2391 28.4458 38.7588 27.9217L49.476 17.2597C49.6421 17.0949 49.7739 16.899 49.8638 16.6834C49.9537 16.4678 50 16.2367 50 16.0033C50 15.7698 49.9537 15.5388 49.8638 15.3232C49.7739 15.1076 49.6421 14.9116 49.476 14.7469L38.7588 4.07807C38.396 3.78977 37.9582 3.61036 37.4967 3.56077C37.0247 3.56254 36.5726 3.74992 36.2388 4.08217C35.9051 4.41441 35.7168 4.86443 35.715 5.33429V14.223H16.8114L3.04374 0.524059C2.53758 1.96722e-05 1.96392 0 1.78845 0ZM39.2852 9.62743L45.6898 16.0033L39.2852 22.3724V9.62743Z" fill="#2B6FAD" fill-opacity="0.25"/>
</svg>
