<svg width="38" height="46" viewBox="0 0 38 46" fill="none" xmlns="http://www.w3.org/2000/svg">
<path d="M3.8 46H31.16C33.022 46 34.5648 44.643 34.8916 42.8643C36.6548 42.5347 38 40.9783 38 39.1V3.83333C38 1.71733 36.2976 0 34.2 0H6.84C4.978 0 3.4352 1.357 3.1084 3.13567C1.3452 3.46533 0 5.02167 0 6.9V42.1667C0 44.2827 1.7024 46 3.8 46ZM6.84 1.53333H25.84V12.2667C25.84 12.558 26.0072 12.8263 26.2732 12.9567C26.5392 13.087 26.8508 13.0487 27.0788 12.8647L30.4076 10.1813L33.7364 12.8647C33.8732 12.972 34.0404 13.0333 34.2076 13.0333C34.3216 13.0333 34.4356 13.0103 34.5344 12.9567C34.8004 12.8263 34.9676 12.558 34.9676 12.2667V4.6H33.4476V10.672L30.8788 8.602C30.5976 8.37967 30.21 8.37967 29.9288 8.602L27.36 10.672V1.53333H33.44V3.06667H34.96V1.67133C35.8416 1.98567 36.48 2.829 36.48 3.83333V39.1C36.48 40.365 35.454 41.4 34.2 41.4H13.68V34.5C13.68 33.235 12.654 32.2 11.4 32.2H4.56V3.83333C4.56 2.56833 5.586 1.53333 6.84 1.53333ZM12.16 40.319L5.6316 33.7333H11.4C11.818 33.7333 12.16 34.0783 12.16 34.5V40.319ZM1.52 6.9C1.52 5.90333 2.1584 5.06 3.04 4.738V32.9667C3.04 33.1737 3.1236 33.3653 3.2604 33.511L12.3804 42.711C12.5248 42.8567 12.7148 42.9333 12.92 42.9333H33.3032C32.9916 43.8227 32.1556 44.4667 31.16 44.4667H3.8C2.546 44.4667 1.52 43.4317 1.52 42.1667V6.9Z" fill="#2B6FAD" fill-opacity="0.25"/>
</svg>
