<svg width="28" height="27" viewBox="0 0 28 27" fill="none" xmlns="http://www.w3.org/2000/svg">
<path d="M1.55556 27V21.6398L22.08 0.708594C22.3213 0.462231 22.5865 0.282549 22.8757 0.169545C23.1649 0.0565156 23.454 0 23.7432 0C24.0483 0 24.344 0.0565156 24.6301 0.169545C24.9163 0.282549 25.1671 0.462231 25.3825 0.708594L27.306 2.67249C27.5473 2.89241 27.7233 3.14846 27.8339 3.44064C27.9446 3.73283 28 4.03469 28 4.34622C28 4.64147 27.9446 4.93671 27.8339 5.23194C27.7233 5.52719 27.5473 5.798 27.306 6.04437L6.8055 27H1.55556ZM3.88886 24.6177H5.81235L21.6642 8.4573L20.7099 7.44329L19.7167 6.46894L3.88886 22.6538V24.6177ZM20.7099 7.44329L19.7167 6.46894L21.6642 8.4573L20.7099 7.44329ZM16.5428 27C18.3616 27 20.0477 26.5459 21.6013 25.6378C23.1548 24.7296 23.9316 23.4631 23.9316 21.8382C23.9316 20.9057 23.6579 20.0902 23.1105 19.3917C22.563 18.6933 21.7947 18.1028 20.8055 17.6203L19.0646 19.3978C19.8603 19.7032 20.4815 20.0631 20.9283 20.4775C21.375 20.8919 21.5984 21.3455 21.5984 21.8382C21.5984 22.5896 21.0928 23.2407 20.0817 23.7915C19.0706 24.3423 17.8909 24.6177 16.5428 24.6177C16.2117 24.6177 15.9345 24.7317 15.7112 24.9597C15.4878 25.1878 15.3761 25.4708 15.3761 25.8088C15.3761 26.1468 15.4878 26.4298 15.7112 26.6579C15.9345 26.886 16.2117 27 16.5428 27ZM2.47995 15.7816L4.21494 13.9949C3.60667 13.7322 3.141 13.4603 2.81794 13.1793C2.49485 12.8983 2.3333 12.6082 2.3333 12.3089C2.3333 11.9098 2.59406 11.5157 3.11559 11.1268C3.63709 10.7379 4.67462 10.2024 6.22819 9.52023C8.39003 8.57544 9.83689 7.72075 10.5688 6.95617C11.3007 6.19157 11.6667 5.32873 11.6667 4.36766C11.6667 3.06448 11.1287 2.01075 10.0528 1.20647C8.97684 0.402156 7.57036 0 5.83335 0C4.76639 0 3.7852 0.196507 2.88976 0.589517C1.99431 0.9825 1.32522 1.46304 0.882508 2.03112C0.667114 2.29379 0.577864 2.58343 0.614757 2.90005C0.65165 3.21666 0.798728 3.47679 1.05599 3.68043C1.31326 3.89013 1.59445 3.97615 1.89957 3.93848C2.20469 3.90081 2.46494 3.77203 2.68031 3.55214C3.07319 3.151 3.52491 2.85575 4.03547 2.66638C4.54601 2.47701 5.1453 2.38232 5.83335 2.38232C6.97609 2.38232 7.84512 2.57933 8.44043 2.97335C9.03572 3.36736 9.33336 3.83213 9.33336 4.36766C9.33336 4.82989 9.0766 5.24884 8.56308 5.62452C8.04954 6.00021 6.96114 6.57189 5.29789 7.33954C3.2936 8.23546 1.90955 9.03772 1.14575 9.74631C0.381916 10.4549 0 11.3091 0 12.3089C0 13.0541 0.217882 13.7092 0.653646 14.2743C1.08941 14.8393 1.69818 15.3417 2.47995 15.7816Z" fill="#730C7F"/>
</svg>
