<svg width="26" height="26" viewBox="0 0 26 26" fill="none" xmlns="http://www.w3.org/2000/svg">
<path d="M16.9238 9.93172C18.4324 11.6368 19.3484 13.877 19.3484 16.3258C19.3484 21.6587 15.0071 26 9.67422 26C4.33828 26 0 21.6587 0 16.3258C0 10.9898 4.33828 6.65156 9.67422 6.65156C12.123 6.65156 14.3632 7.56759 16.0683 9.07616L14.3571 10.7903C13.0904 9.71708 11.4579 9.07011 9.67422 9.07011C5.67453 9.07011 2.41856 12.3261 2.41856 16.3258C2.41856 20.3255 5.67453 23.5814 9.67422 23.5814C13.6739 23.5814 16.9299 20.3255 16.9299 16.3258C16.9299 14.5421 16.2829 12.9096 15.2097 11.6429L16.9238 9.93172ZM9.67422 10.2794C6.33964 10.2794 3.62783 12.9912 3.62783 16.3258C3.62783 19.6604 6.33964 22.3722 9.67422 22.3722C13.0088 22.3722 15.7206 19.6604 15.7206 16.3258C15.7206 14.8746 15.2067 13.5444 14.3541 12.5014L12.6279 14.2277C13.0511 14.8202 13.3021 15.5428 13.3021 16.3258C13.3021 18.3271 11.6756 19.9536 9.67422 19.9536C7.67287 19.9536 6.04639 18.3271 6.04639 16.3258C6.04639 14.3244 7.67287 12.6979 9.67422 12.6979C10.4572 12.6979 11.1798 12.9489 11.7723 13.3721L13.4986 11.6459C12.4204 10.7613 11.0688 10.2784 9.67422 10.2794ZM10.9016 14.2458C10.5305 14.0244 10.1064 13.9074 9.67422 13.9072C8.34099 13.9072 7.25566 14.9926 7.25566 16.3258C7.25566 17.659 8.34099 18.7443 9.67422 18.7443C11.0074 18.7443 12.0928 17.659 12.0928 16.3258C12.0928 15.8783 11.9688 15.4611 11.7542 15.0984L10.1005 16.7521C9.98259 16.87 9.8284 16.9304 9.67422 16.9304C9.52004 16.9304 9.36585 16.87 9.24795 16.7521C9.00912 16.5162 9.00912 16.1353 9.24795 15.8995L10.9016 14.2458ZM25.9692 3.8279C25.8967 3.61023 25.7062 3.45302 25.4795 3.41976L22.94 3.05698L22.5802 0.520522C22.547 0.293783 22.3898 0.103321 22.1721 0.0307647C22.0653 -0.00468874 21.9506 -0.00960629 21.8411 0.0165658C21.7316 0.0427379 21.6316 0.0989602 21.5523 0.178901L17.7129 4.01836C17.6462 4.0847 17.5958 4.16571 17.5659 4.25494C17.536 4.34416 17.5273 4.43913 17.5406 4.5323L17.9245 7.21992L16.9269 8.21757C17.0599 8.3385 17.1899 8.46245 17.3199 8.58943C17.335 8.60152 17.3531 8.61361 17.3713 8.62873C17.3864 8.64687 17.3985 8.66501 17.4106 8.68012C17.5375 8.81012 17.6615 8.94012 17.7824 9.07314L18.7801 8.07548L21.4677 8.45943C21.4979 8.46245 21.5251 8.46548 21.5523 8.46548C21.7126 8.46548 21.8668 8.40199 21.9816 8.28711L25.8211 4.44765C25.901 4.36838 25.9573 4.26837 25.9834 4.15887C26.0096 4.04938 26.0047 3.93475 25.9692 3.8279Z" fill="#730C7F"/>
</svg>
