<svg width="42" height="42" viewBox="0 0 42 42" fill="none" xmlns="http://www.w3.org/2000/svg">
<path d="M0.772739 35.35C1.12149 35.4375 1.47023 35.35 1.6446 35.175L4.60894 32.2L8.79389 33.25L9.84013 37.45L6.87579 40.425C6.61423 40.6875 6.52705 41.0375 6.61423 41.3C6.70142 41.65 6.96298 41.825 7.31173 41.9125C7.74766 42 8.18359 42 8.61952 42C10.8864 42 13.066 41.125 14.7226 39.4625C16.7279 37.45 17.5997 34.475 17.0766 31.675L19.8666 28.875L28.3237 37.3625C29.893 38.9375 30.8521 38.675 38.0886 40.25C39.4835 40.425 40.3554 39.2875 40.181 38.15C38.6989 30.7125 38.786 30.975 38.5245 30.275C38.2629 29.575 37.827 28.875 37.3039 28.35L28.8468 19.8625L31.6368 17.0625C32.2471 17.15 32.7702 17.2375 33.3805 17.2375C35.6473 17.2375 37.827 16.3625 39.4835 14.7C41.4016 12.775 42.2735 9.975 41.9248 7.2625C41.8376 6.9125 41.6632 6.65 41.3144 6.5625C40.9657 6.475 40.617 6.5625 40.4426 6.7375L37.4782 9.7125L33.2061 8.75L32.1599 4.55L35.1242 1.575C35.3858 1.3125 35.473 0.9625 35.3858 0.7C35.2986 0.35 35.037 0.175 34.6883 0.0874999C34.2523 -8.47504e-08 33.8164 0 33.3805 0C31.1136 0 28.934 0.875 27.2774 2.5375C25.2721 4.55 24.4003 7.525 24.9234 10.325L22.1334 13.125L22.0462 13.0375L11.7582 2.7125C10.5376 1.4875 8.35796 1.4 7.05017 2.7125L2.77803 7C1.47023 8.3125 1.47023 10.4125 2.77803 11.725L13.1532 22.1375L10.3633 24.9375C7.74766 24.4125 4.69613 25.1125 2.51647 27.3C0.598367 29.225 -0.273498 32.025 0.0752476 34.7375C0.249621 35 0.423993 35.2625 0.772739 35.35ZM38.4373 38.5C38.3501 38.5 35.3858 37.8875 35.1242 37.8C35.5601 36.575 36.5192 35.6125 37.7398 35.175C37.7398 35.2625 38.3501 38.2375 38.4373 38.5ZM37.3911 33.425C35.473 34.0375 33.9908 35.525 33.3805 37.45L31.288 37.0125C30.9393 36.925 30.5905 36.8375 30.329 36.6625L36.6064 30.3625C36.9551 30.975 37.0423 31.5875 37.3911 33.425ZM26.4927 11.2C26.7543 10.9375 26.7543 10.675 26.7543 10.325C26.144 7.9625 26.8415 5.425 28.498 3.675C29.5443 2.625 30.9393 1.925 32.4214 1.75L30.5905 3.675C30.329 3.9375 30.2418 4.2 30.329 4.55L31.6368 9.8C31.7239 10.15 31.9855 10.325 32.2471 10.4125L37.3911 11.725C37.6526 11.8125 38.0014 11.725 38.2629 11.4625L40.0938 9.625C39.9195 11.1125 39.222 12.5125 38.1757 13.5625C36.8679 14.875 35.1242 15.575 33.2933 15.575C32.683 15.575 32.0727 15.4875 31.5496 15.3125C31.288 15.225 30.9393 15.3125 30.6777 15.575L27.539 18.725L23.354 14.525L26.4927 11.2ZM3.99864 10.5C3.30115 9.8 3.38833 8.8375 3.99864 8.3125L8.27078 4.025C8.88108 3.4125 9.84013 3.4125 10.4504 4.025L13.5892 7.175L7.13735 13.65C6.43986 12.95 5.48081 11.9 3.99864 10.5ZM8.44515 14.875L14.8969 8.4L35.473 29.05L29.0212 35.525L8.44515 14.875ZM3.82427 28.525C5.568 26.775 8.18359 26.1625 10.4504 26.775C10.712 26.8625 11.0607 26.775 11.3223 26.5125L14.461 23.3625L18.646 27.5625L15.5073 30.7125C15.2457 30.975 15.2457 31.2375 15.2457 31.5875C15.856 33.95 15.2457 36.4875 13.502 38.2375C12.4557 39.2875 11.0607 39.9875 9.57857 40.1625L11.4095 38.325C11.671 38.0625 11.7582 37.8 11.671 37.45L10.3633 32.2C10.2761 31.85 10.0145 31.5875 9.75295 31.5875L4.52176 30.275H4.34738C4.08583 30.275 3.91145 30.3625 3.73708 30.5375L1.90616 32.375C2.08054 30.975 2.77803 29.575 3.82427 28.525Z" fill="#2B6FAD" fill-opacity="0.25"/>
</svg>
