<svg width="34" height="38" viewBox="0 0 34 38" fill="none" xmlns="http://www.w3.org/2000/svg">
<path d="M32.7189 6.1957L34 5.76177L16.997 0L0 5.76177L5.79754 7.72657V16.99C5.79754 17.5083 6.19309 17.8398 7.20852 18.0809L7.71627 18.8403C7.16131 19.7745 6.74213 20.793 6.48236 21.8779L3.37696 22.4866V26.3318L6.48236 26.9405C6.73622 28.0314 7.16131 29.056 7.71627 29.9841L5.93922 32.6601L8.60772 35.3843L11.229 33.5702C12.1382 34.1367 13.1419 34.5646 14.2045 34.8298L14.8008 38H18.5675L19.1637 34.8298C20.2323 34.5707 21.2301 34.1367 22.1452 33.5702L24.7665 35.3843L27.4291 32.6601L25.652 29.9841C26.207 29.056 26.6321 28.0314 26.8859 26.9405L29.9972 26.3318V22.4866L26.8859 21.8779C26.6262 20.793 26.207 19.7745 25.652 18.8403L26.1598 18.0688C27.5649 17.7072 27.5708 17.2733 27.5708 16.99V7.94353L31.5381 6.59953V13.4281L30.4518 14.531L31.2843 15.3868L32.1285 14.531L32.9668 15.3868L33.7993 14.531L32.7189 13.4281V6.1957ZM16.6842 29.1404C14.1278 29.1404 12.0556 27.0249 12.0556 24.4152C12.0556 21.8056 14.1278 19.684 16.6842 19.684C19.2405 19.684 21.3186 21.8056 21.3186 24.4152C21.3186 27.0249 19.2405 29.1404 16.6842 29.1404ZM26.39 16.767C24.424 17.7253 8.94424 17.7253 6.9783 16.767V8.13037L16.997 11.5236L26.39 8.3413V16.767Z" fill="#730C7F"/>
</svg>
