<svg width="42" height="42" viewBox="0 0 42 42" fill="none" xmlns="http://www.w3.org/2000/svg">
<path d="M35.847 6.153L32.8755 9.1245C35.9205 12.159 37.8 16.359 37.8 21C37.8 30.282 30.282 37.8 21 37.8C11.718 37.8 4.2 30.282 4.2 21C4.2 12.432 10.6155 5.376 18.9 4.347V8.589C12.9465 9.5865 8.4 14.763 8.4 21C8.4 27.9615 14.0385 33.6 21 33.6C27.9615 33.6 33.6 27.9615 33.6 21C33.6 17.5245 32.193 14.3745 29.9145 12.0855L26.943 15.057C28.5165 16.6346 29.4001 18.7718 29.4 21C29.4 25.641 25.641 29.4 21 29.4C16.359 29.4 12.6 25.641 12.6 21C12.6 17.094 15.288 13.8285 18.9 12.894V17.3775C17.6505 18.102 16.8 19.446 16.8 21C16.8 23.3205 18.6795 25.2 21 25.2C23.3205 25.2 25.2 23.3205 25.2 21C25.2 19.446 24.3495 18.1125 23.1 17.3775V0H21C9.3975 0 0 9.3975 0 21C0 32.592 9.3975 42 21 42C32.592 42 42 32.592 42 21C42 15.204 39.648 9.954 35.847 6.153Z" fill="#2B6FAD" fill-opacity="0.25"/>
</svg>
