<svg width="1920" height="1458" viewBox="0 0 1920 1458" fill="none" xmlns="http://www.w3.org/2000/svg">
<path d="M844.887 2.89669C457.807 -24.3446 58.8296 149.864 -270.62 559.161C-381.455 697.563 -478.532 851.121 -523.498 1041.85C-556.251 1181.13 -524.543 1304.58 -429.768 1385.8C-318.596 1480.88 -189.931 1521.87 -57.3805 1547.76C4.58764 1559.55 64.197 1583.48 126.442 1592.2C372.645 1629.9 616.752 1621.04 862.091 1542.71C1032.13 1488.51 1136.63 1545.87 1230.32 1722.85C1305.65 1865.7 1382.24 2008.67 1490.78 2118.97C1636.42 2265.08 1801.08 2340.25 1996.55 2297.62C2185.63 2255.95 2332.3 2069.77 2365.86 1837.81C2399.15 1608.92 2357.41 1401.08 2279.56 1202.34C2115.65 784.028 1873.12 454.464 1537.68 232.455C1345.22 102.209 1136.24 29.2195 844.887 2.89669Z" fill="url(#paint0_linear_646_2282)"/>
<defs>
<linearGradient id="paint0_linear_646_2282" x1="-920.101" y1="916.935" x2="2420.53" y2="1278.82" gradientUnits="userSpaceOnUse">
<stop offset="0.142184" stop-color="#C31275"/>
<stop offset="1" stop-color="#7D0447"/>
</linearGradient>
</defs>
</svg>
