<svg xmlns="http://www.w3.org/2000/svg" xmlns:xlink="http://www.w3.org/1999/xlink" width="40.463" height="40.468" viewBox="0 0 40.463 40.468">
  <defs>
    <filter id="settings" x="0" y="0" width="40.463" height="40.468" filterUnits="userSpaceOnUse">
      <feOffset dy="3" input="SourceAlpha"/>
      <feGaussianBlur stdDeviation="3" result="blur"/>
      <feFlood flood-opacity="0.161"/>
      <feComposite operator="in" in2="blur"/>
      <feComposite in="SourceGraphic"/>
    </filter>
  </defs>
  <g id="Settings-2" data-name="Settings" transform="translate(9 6)">
    <g transform="matrix(1, 0, 0, 1, -9, -6)" filter="url(#settings)">
      <path id="settings-3" data-name="settings" d="M6.354,15.731a2.891,2.891,0,0,0-1.854-2.7,11.457,11.457,0,0,1,1.386-3.34,2.929,2.929,0,0,0,1.176.252A2.884,2.884,0,0,0,9.7,5.886,11.423,11.423,0,0,1,13.035,4.5a2.888,2.888,0,0,0,5.393,0,11.458,11.458,0,0,1,3.34,1.386,2.884,2.884,0,0,0,2.638,4.06,2.834,2.834,0,0,0,1.176-.252,11.711,11.711,0,0,1,1.381,3.346,2.89,2.89,0,0,0-.006,5.393,11.457,11.457,0,0,1-1.386,3.34,2.885,2.885,0,0,0-3.808,3.808,11.524,11.524,0,0,1-3.34,1.386,2.883,2.883,0,0,0-5.382,0A11.458,11.458,0,0,1,9.7,25.582a2.888,2.888,0,0,0-3.808-3.808,11.524,11.524,0,0,1-1.386-3.34A2.9,2.9,0,0,0,6.354,15.731Zm9.324,4.674A4.68,4.68,0,1,0,11,15.725,4.678,4.678,0,0,0,15.679,20.405Z" transform="translate(4.5 1.5)" fill="#a8a8a8"/>
    </g>
  </g>
</svg>
