<svg xmlns="http://www.w3.org/2000/svg" xmlns:xlink="http://www.w3.org/1999/xlink" width="117.352" height="67.058" viewBox="0 0 117.352 67.058">
  <defs>
    <clipPath id="clip-path">
      <rect id="Rectangle_590" data-name="Rectangle 590" width="117.352" height="67.058" transform="translate(0.303 -0.478)"/>
    </clipPath>
    <linearGradient id="linear-gradient" x1="0.5" x2="0.5" y2="1" gradientUnits="objectBoundingBox">
      <stop offset="0" stop-color="#fb0"/>
      <stop offset="1" stop-color="#ff6ba4"/>
    </linearGradient>
    <linearGradient id="linear-gradient-2" x1="0.5" x2="0.5" y2="1" gradientUnits="objectBoundingBox">
      <stop offset="0" stop-color="#ff6ba4"/>
      <stop offset="1" stop-color="#fb0"/>
    </linearGradient>
  </defs>
  <g id="Slikk-Logo-Whitebackground" transform="translate(-0.303 0.478)" clip-path="url(#clip-path)">
    <g id="logo" transform="translate(4.977 15.488)">
      <g id="Icon" transform="translate(0 0)">
        <g id="Group_20" data-name="Group 20" transform="translate(0.369 10.082)">
          <path id="Path_95" data-name="Path 95" d="M3.663.005A1.179,1.179,0,0,1,5.039,1.263L3,24.252a1.778,1.778,0,0,1-1.621,1.5A1.18,1.18,0,0,1,.005,24.5L2.042,1.507A1.777,1.777,0,0,1,3.663.005Z" transform="matrix(0.848, 0.53, -0.53, 0.848, 13.652, 0.169)" fill="url(#linear-gradient)"/>
          <path id="Path_96" data-name="Path 96" d="M1.369.006A1.788,1.788,0,0,1,2.985,1.52L5.137,25.209a1.171,1.171,0,0,1-1.364,1.262,1.788,1.788,0,0,1-1.616-1.514L.005,1.268A1.171,1.171,0,0,1,1.369.006Z" transform="matrix(-0.829, 0.559, -0.559, -0.829, 33.138, 21.95)" fill="url(#linear-gradient-2)"/>
        </g>
        <path id="Path_94" data-name="Path 94" d="M3.881,0A3.881,3.881,0,1,1,0,3.881,3.881,3.881,0,0,1,3.881,0Z" transform="translate(12.936 24.767)" fill="#fb0"/>
        <path id="Path_1743" data-name="Path 1743" d="M3.881,0A3.881,3.881,0,1,1,0,3.881,3.881,3.881,0,0,1,3.881,0Z" transform="translate(0 13.824)" fill="#00d65c"/>
        <path id="Path_1742" data-name="Path 1742" d="M3.881,0A3.881,3.881,0,1,1,0,3.881,3.881,3.881,0,0,1,3.881,0Z" transform="translate(26.217 13.824)" fill="#00c4ff"/>
        <circle id="Ellipse_62" data-name="Ellipse 62" cx="3.592" cy="3.592" r="3.592" transform="translate(12.89)" fill="#ff6ba4"/>
      </g>
      <g id="Group_997" data-name="Group 997" transform="translate(45.621 2.395)">
        <g id="Team_Leap_Logo" data-name="Team Leap Logo" transform="translate(0 0)">
          <g id="TL">
            <g id="TL-2" data-name="TL">
              <g id="Brand-name">
                <g id="Group_4" data-name="Group 4">
                  <g id="Group_5" data-name="Group 5">
                    <g id="logo-2" data-name="logo">
                      <text id="Slikk" transform="translate(0 25)" fill="#2900ff" font-size="25" font-family="Urbane Rounded" font-weight="300"><tspan x="0" y="0">Slikk</tspan></text>
                    </g>
                  </g>
                </g>
              </g>
            </g>
          </g>
        </g>
      </g>
    </g>
  </g>
</svg>
