<svg id="crm" xmlns="http://www.w3.org/2000/svg" width="544.44" height="441.573" viewBox="0 0 544.44 441.573">
  <path id="Path_2664" data-name="Path 2664" d="M792.239,250.013c-2.828,31.162-10.886,64.02-23.522,95.724-15.626,39.206-36.976,73.738-61.742,99.864l-1.374-1.2c24.646-26,45.9-60.38,61.46-99.424,14.064-35.283,22.428-72,24.2-106.167l1.756.294Q792.739,244.518,792.239,250.013Z" transform="translate(-357.599 -169.579)" fill="#1d2121"/>
  <path id="Path_2665" data-name="Path 2665" d="M794.935,506.228c-34.785,55.34-76.987,94.881-118.832,111.338l-.846-1.552c41.555-16.343,83.51-55.682,118.136-110.769Z" transform="translate(-349.031 -244.813)" fill="#1d2121"/>
  <path id="Path_2666" data-name="Path 2666" d="M791.063,304.076c-2.828,31.162-10.886,64.02-23.522,95.724-15.626,39.206-36.976,73.738-61.742,99.864l-1.374-1.2c24.646-26,45.9-60.38,61.46-99.424,14.064-35.283,22.429-72,24.2-106.167l1.756.294Q791.562,298.582,791.063,304.076Z" transform="translate(-357.267 -184.845)" fill="#1d2121"/>
  <path id="Path_2667" data-name="Path 2667" d="M270.575,403.221H247.752A3.23,3.23,0,0,1,245.215,402a3.163,3.163,0,0,1-.619-2.688,62.067,62.067,0,0,0-.4-29.09,3.236,3.236,0,0,1,1.256-3.4c11.736-8.441,20.978-8.2,27.47.729a3.243,3.243,0,0,1,.568,1.37,101.573,101.573,0,0,1,.285,31.522,3.223,3.223,0,0,1-3.2,2.778Z" transform="translate(-227.284 -203.988)" fill="#e6e6e6"/>
  <path id="Path_2668" data-name="Path 2668" d="M267.4,386.828h-7.851a1.637,1.637,0,0,1,0-3.274H267.4a1.637,1.637,0,0,1,0,3.274Z" transform="translate(-231.182 -210.451)" fill="#fff"/>
  <path id="Path_2669" data-name="Path 2669" d="M267.4,394.828h-7.851a1.637,1.637,0,0,1,0-3.274H267.4a1.637,1.637,0,0,1,0,3.274Z" transform="translate(-231.182 -212.71)" fill="#1d2121"/>
  <path id="Path_2670" data-name="Path 2670" d="M267.4,402.828h-7.851a1.637,1.637,0,0,1,0-3.274H267.4a1.637,1.637,0,0,1,0,3.274Z" transform="translate(-231.182 -214.969)" fill="#fff"/>
  <path id="Path_2671" data-name="Path 2671" d="M848.575,545.221H825.752A3.229,3.229,0,0,1,823.215,544a3.163,3.163,0,0,1-.619-2.688,62.07,62.07,0,0,0-.4-29.09,3.236,3.236,0,0,1,1.255-3.4c11.736-8.441,20.978-8.2,27.47.729a3.244,3.244,0,0,1,.568,1.37,101.574,101.574,0,0,1,.284,31.522A3.223,3.223,0,0,1,848.575,545.221Z" transform="translate(-390.497 -244.086)" fill="#1d2121"/>
  <path id="Path_2672" data-name="Path 2672" d="M845.4,528.828h-7.851a1.637,1.637,0,1,1,0-3.274H845.4a1.637,1.637,0,1,1,0,3.274Z" transform="translate(-394.395 -250.548)" fill="#fff"/>
  <path id="Path_2673" data-name="Path 2673" d="M845.4,536.828h-7.851a1.637,1.637,0,1,1,0-3.274H845.4a1.637,1.637,0,1,1,0,3.274Z" transform="translate(-394.395 -252.807)" fill="#fff"/>
  <path id="Path_2674" data-name="Path 2674" d="M845.4,544.828h-7.851a1.637,1.637,0,1,1,0-3.274H845.4a1.637,1.637,0,1,1,0,3.274Z" transform="translate(-394.395 -255.066)" fill="#fff"/>
  <path id="Path_2675" data-name="Path 2675" d="M765.105,756.137a.851.851,0,0,1-.854.854H221.519a.854.854,0,1,1,0-1.708H764.251a.852.852,0,0,1,.854.854Z" transform="translate(-220.665 -315.418)" fill="#ccc"/>
  <path id="Path_2676" data-name="Path 2676" d="M407.777,673.163l-1.423-19.8a64.044,64.044,0,0,0-30.068-6.743c14.662,11.333,13.488,33.985,23.642,49.487a38.523,38.523,0,0,0,28.725,17.023l12.2,7.02a64.551,64.551,0,0,0-15.03-51.917,62.352,62.352,0,0,0-11.746-10.33C411.412,665.563,407.777,673.163,407.777,673.163Z" transform="translate(-264.609 -284.73)" fill="#f2f2f2"/>
  <path id="Path_2677" data-name="Path 2677" d="M766.53,677.163l1.423-19.8a64.045,64.045,0,0,1,30.068-6.743c-14.662,11.333-13.488,33.985-23.642,49.487a38.523,38.523,0,0,1-28.725,17.023l-12.2,7.02a64.551,64.551,0,0,1,15.03-51.917,62.351,62.351,0,0,1,11.746-10.33C762.894,669.563,766.53,677.163,766.53,677.163Z" transform="translate(-365.258 -285.86)" fill="#f2f2f2"/>
  <circle id="Ellipse_593" data-name="Ellipse 593" cx="13.635" cy="13.635" r="13.635" transform="translate(252.127 140.613)" fill="#fb0"/>
  <path id="Path_2678" data-name="Path 2678" d="M595.676,349.241a1.1,1.1,0,0,0-1.522,0,45.161,45.161,0,0,0-7.737,7.9l-1.654-3.2c-.636-1.231-2.495-.144-1.859,1.087l2.419,4.681a1.089,1.089,0,0,0,1.859,0,43.6,43.6,0,0,1,8.495-8.948,1.083,1.083,0,0,0,0-1.522Z" transform="translate(-322.916 -200.675)" fill="#fff"/>
  <path id="Path_2679" data-name="Path 2679" d="M497.894,393.433l-20.561-32.29,23.809-12.751,6.249,24.636,44.03,23.793A9.52,9.52,0,1,1,546,409.773Z" transform="translate(-293.142 -200.522)" fill="#a0616a"/>
  <path id="Path_2680" data-name="Path 2680" d="M455.949,308.787c-6.46,9.485,16.5,43.964,16.5,43.964,1.118-2.411,11.81,24.662,13.6,23.063,5.089-4.545,13.056-17.206,17.485-17.77,2.533-.323-5.874-18.284-5.874-18.284s-3.842-10.606-9.055-24.154a24.33,24.33,0,0,0-17.672-15.454S462.41,299.3,455.949,308.787Z" transform="translate(-286.78 -186.894)" fill="#3f3d56"/>
  <path id="Path_2681" data-name="Path 2681" d="M236.174,585.67h9.765l4.645-37.664H236.172Z" transform="translate(-66.689 -154.743)" fill="#a0616a"/>
  <path id="Path_2682" data-name="Path 2682" d="M453.368,736.668h2.748l10.731-4.364,5.751,4.363h0a12.256,12.256,0,0,1,12.255,12.254v.4H453.369Z" transform="translate(-286.375 -308.929)" fill="#2f2e41"/>
  <path id="Path_2683" data-name="Path 2683" d="M299.39,585.67h9.765l4.646-37.664H299.389Z" transform="translate(-84.54 -154.743)" fill="#a0616a"/>
  <path id="Path_2684" data-name="Path 2684" d="M516.585,736.668h2.749l10.731-4.364,5.751,4.363h0a12.256,12.256,0,0,1,12.255,12.254v.4H516.586Z" transform="translate(-304.226 -308.929)" fill="#2f2e41"/>
  <path id="Path_2685" data-name="Path 2685" d="M496.785,455.889l-63.515,1.588c-12.063,6.552-12.246,20.733-8.294,37.569,0,0-1.334,10.007,1.334,12.676s4,2.669,2.669,7.339,5.715,12.3,4.859,13.154-2.858,5.526-2.858,5.526l6.671,38.027s4.67,66.047,6,67.382,2.669,0,1.334,3.336-2.669,2-1.334,3.336a49.16,49.16,0,0,1,3.336,4h16.13s1.216-6.671,1.216-7.339,1.334-4.67,1.334-5.337-1.179-1.846-1.179-1.846a21.946,21.946,0,0,1-.822-4.158c0-1.334-4-52.7-4-52.7l8.006-66.714,19.347,65.38s0,57.374,1.334,58.709,1.334.667.667,3.336-3.336,2-1.334,4,2.669-1.334,2,2l-.667,3.336,20.014.286s2.669-5.623,1.334-7.625-1.254-1.455.374-4.73,2.295-3.943,1.628-4.61-.667-4.216-.667-4.216l-3.336-63.833s-.667-67.382-.667-69.383a6.654,6.654,0,0,1,.554-3v-2.717l-2.556-9.626Z" transform="translate(-277.708 -230.876)" fill="#2f2e41"/>
  <circle id="Ellipse_594" data-name="Ellipse 594" cx="19.734" cy="19.734" r="19.734" transform="translate(161.188 53.474)" fill="#a0616a"/>
  <path id="Path_2686" data-name="Path 2686" d="M466.739,286.253c4.252,2.528,6.795,7.172,8.255,11.9a112.744,112.744,0,0,1,4.845,26.937l1.542,27.371,19.1,58.281c-16.551,14.005-78.766,3.183-78.766,3.183s-1.91-.637,0-2.546,3.769-.218,1.859-2.128-.593.218.043-1.692,0-.637-.637-1.273,4.928-6.366,4.928-6.366l-5.093-33.454-6.366-67.479c7.639-9.549,23-15.178,23-15.178l3.97-7.145,19.848,1.588Z" transform="translate(-275.949 -180.267)" fill="#3f3d56"/>
  <path id="Path_2687" data-name="Path 2687" d="M480.178,223.609a9.145,9.145,0,0,1,3.249,4.564,64.23,64.23,0,0,0,.042-8.955c-.233-2.1-1.708-2.567-3.417-3.113-1.543-.493-3.288-1.051-3.757-3.085-6.2-6.035-17-5.73-24.393-3.625-4.067,1.158-6.407,2.647-6.616,3.518l-.043.179-.165.083c-3.135,1.567-3.745,6.517-3.7,10.393.076,7.3,2.6,15.6,4.018,16.27.075.036.094.022.127-.005h0c2.139-1.709,4.748.13,5.895,1.13a20.525,20.525,0,0,1,18.378-17.409,32.208,32.208,0,0,0,4.429-.743,9.325,9.325,0,0,1,2.263-.3,6.44,6.44,0,0,1,3.694,1.1Z" transform="translate(-282.987 -160.884)" fill="#2f2e41"/>
  <path id="Path_2688" data-name="Path 2688" d="M660.168,447.939l37.962-38.55,10-30.831-16.095-6.51c-7.973,8.042-16.181,32.663-16.181,32.663l-25.91,34.775c-.207.077-.413.158-.616.254a7.669,7.669,0,1,0,10.839,8.2Z" transform="translate(-340.468 -207.202)" fill="#ffb8b8"/>
  <path id="Path_2689" data-name="Path 2689" d="M704.453,362.423l20.354,5.888.076-.015c7.482-1.453,13.4-13.886,17.047-24.061a14.063,14.063,0,0,0-7.617-17.623h0a14.094,14.094,0,0,0-14.708,2.243l-10.148,8.739Z" transform="translate(-357.275 -194.05)" fill="#fb0"/>
  <path id="Path_2690" data-name="Path 2690" d="M453.165,582.281H442.218l-5.207-42.221h16.155Z" transform="translate(-123.401 -152.499)" fill="#ffb8b8"/>
  <path id="Path_2691" data-name="Path 2691" d="M670.188,734.327h-3.081l-12.029-4.892-6.447,4.891h0a13.739,13.739,0,0,0-13.738,13.737v.447h35.3Z" transform="translate(-337.633 -308.119)" fill="#2f2e41"/>
  <path id="Path_2692" data-name="Path 2692" d="M520.848,582.281H509.9l-5.207-42.221H520.85Z" transform="translate(-142.513 -152.499)" fill="#ffb8b8"/>
  <path id="Path_2693" data-name="Path 2693" d="M737.872,734.327H734.79l-12.029-4.892-6.447,4.891h0a13.739,13.739,0,0,0-13.738,13.737v.447h35.3Z" transform="translate(-356.745 -308.119)" fill="#2f2e41"/>
  <path id="Path_2694" data-name="Path 2694" d="M735.419,486.046s1.278,15.338-1.917,30.037-3.2,56.1-3.2,56.1l-7.03,80.669-21.09-1.917-5.752-134.849-20.451,45.376,1.917,6.391-2.554,1.6s1.915,12.462.637,12.462-4.474,1.917-4.474,1.917l2.556,65.827-21.729-.639-7.669-92.668,8.308-53.045.639-10.225,2.876.118,1.464-4.272,2.69-7.35Z" transform="translate(-340.393 -238.129)" fill="#2f2e41"/>
  <path id="Path_2695" data-name="Path 2695" d="M741.05,434.446l.114-.16c6.083-8.517-3.066-28.982-4.446-31.949l5.812-1.886-1.309-11.125-.62-4.96,4.442-4.442.013-.111,2.556-22.368,3.717-14.857a32.617,32.617,0,0,0-9.258-31.61l-8.592-8.1-10.441-15.45H706.2l-5.773,10.905a24.542,24.542,0,0,0-18.989,25.057l1.308,28.6L677.624,387.6l0,6.445-5.765,6.407,1.259,6.294-4.387,1.88-1.937,9.04c-.8,1.058-6.093,8.113-6.093,10.042,0,.29.214.569.672.88,3.606,2.442,23.538,7.42,32.359,3.89,9.4-3.757,46.75,1.879,47.126,1.937Z" transform="translate(-344.919 -183.307)" fill="#fb0"/>
  <circle id="Ellipse_595" data-name="Ellipse 595" cx="22.3" cy="22.3" r="22.3" transform="translate(345.225 54.535)" fill="#ffb8b8"/>
  <path id="Path_2696" data-name="Path 2696" d="M718.723,260.78a60.647,60.647,0,0,0,10.3-.987c3.363-.775,10.784-6.513,12.807-9.9h0c1.5-2.519,2.4-6.414,2.9-9.239a27.112,27.112,0,0,0-5.3-21.393,8.566,8.566,0,0,0-3.535-2.862c-.125-.045-.254-.085-.384-.118a10.568,10.568,0,0,1-5.339-3.116,8.719,8.719,0,0,0-.9-.877,13.018,13.018,0,0,0-5.5-2.586c-3.25-.78-7.9.2-13.817,2.909-2.973,1.362-6.273.982-8.817.5a.828.828,0,0,0-.772.287,5.845,5.845,0,0,1-3.93,1.685c-.9.063-1.819,1.339-2.924,3-.251.377-.543.818-.755,1.086l-.042-.5-.5.577a7.092,7.092,0,0,0,3.5,11.468,13.832,13.832,0,0,0,2.792.371c.57.036,1.161.074,1.727.158a10.693,10.693,0,0,1,8.122,6.731,2.8,2.8,0,0,0,4.254,1.248,4.62,4.62,0,0,1,4.189-.875,3.067,3.067,0,0,1,1.395,1.5,4,4,0,0,0,1.562,1.73c2.322,1.122,2.615,6.351,1.9,10.735-.685,4.226-2.174,7.308-3.622,7.5-1.115.144-1.24.227-1.316.427l-.068.179.13.162a4.567,4.567,0,0,0,1.937.208Z" transform="translate(-353.335 -161.285)" fill="#2f2e41"/>
  <path id="Path_2697" data-name="Path 2697" d="M668.739,374.912,658.02,361.254c-10.918,3.007-30.292,20.275-30.292,20.275l-39.786,17.266a7.665,7.665,0,1,0,4.657,12.42l52.119-14.54Z" transform="translate(-321.852 -204.154)" fill="#ffb8b8"/>
  <path id="Path_2698" data-name="Path 2698" d="M693.455,366.066l16.913-18.854.939-13.359a14.1,14.1,0,0,0-6.995-13.131h0a14.062,14.062,0,0,0-18.681,4.429c-5.976,9.007-12.405,21.184-9.1,28.05l.034.07Z" transform="translate(-349.137 -192.186)" fill="#fb0"/>
  <path id="Path_2699" data-name="Path 2699" d="M464.677,447.1l-43.958-22.513c-3.127-1.6-4.162-5.849-2.309-9.468l28.661-55.963c1.854-3.619,5.906-5.261,9.032-3.66l43.958,22.513c3.127,1.6,4.162,5.849,2.309,9.468L473.709,443.44C471.856,447.06,467.8,448.7,464.677,447.1Z" transform="translate(-276.244 -202.355)" fill="#e6e6e6"/>
  <path id="Path_2700" data-name="Path 2700" d="M459.837,439.588l-29.865-15.3c-2.928-1.5-3.9-5.478-2.163-8.867l23.811-46.493c1.736-3.39,5.531-4.927,8.459-3.428l36.071,18.474c2.928,1.5,3.9,5.477,2.162,8.867L485.377,418.1C477.644,433.2,472.881,446.268,459.837,439.588Z" transform="translate(-278.914 -205.192)" fill="#fff"/>
  <path id="Path_2701" data-name="Path 2701" d="M482.673,427.073,456.22,413.525a1.654,1.654,0,0,1,1.492-2.914l26.453,13.548a1.654,1.654,0,0,1-1.492,2.914Z" transform="translate(-286.984 -218.066)" fill="#fb0"/>
  <path id="Path_2702" data-name="Path 2702" d="M458.148,424.639l-6.037-3.092a1.655,1.655,0,0,1,1.492-2.914l6.037,3.092a1.655,1.655,0,0,1-1.492,2.914Z" transform="translate(-285.824 -220.331)" fill="#fb0"/>
  <path id="Path_2703" data-name="Path 2703" d="M464.731,438.137,448,429.57a1.655,1.655,0,0,1,1.492-2.914l16.729,8.568a1.655,1.655,0,0,1-1.492,2.914Z" transform="translate(-284.663 -222.597)" fill="#fb0"/>
  <path id="Path_2704" data-name="Path 2704" d="M497.26,398.591l-26.453-13.548a1.654,1.654,0,0,1,1.492-2.914l26.453,13.548a1.654,1.654,0,0,1-1.492,2.914Z" transform="translate(-291.103 -210.023)" fill="#fb0"/>
  <path id="Path_2705" data-name="Path 2705" d="M472.735,396.157l-6.037-3.092a1.655,1.655,0,0,1,1.492-2.914l6.037,3.092a1.655,1.655,0,0,1-1.492,2.914Z" transform="translate(-289.943 -212.289)" fill="#fb0"/>
  <path id="Path_2706" data-name="Path 2706" d="M479.318,409.655l-16.729-8.568a1.655,1.655,0,0,1,1.492-2.914l16.729,8.568a1.655,1.655,0,0,1-1.492,2.914Z" transform="translate(-288.783 -214.554)" fill="#fb0"/>
  <path id="Path_2707" data-name="Path 2707" d="M428.578,398.971,418.647,362l26.537-5.024-1.427,25.376,34.868,35.9a9.52,9.52,0,1,1-9.053,10.731Z" transform="translate(-276.57 -202.946)" fill="#a0616a"/>
  <path id="Path_2708" data-name="Path 2708" d="M413.512,304.429c-9.008,7.111,2.554,46.888,2.554,46.888,1.79-1.964,3.87,27.069,6.058,26.08,6.218-2.81,17.616-12.5,22.01-11.709,2.513.452-.12-19.2-.12-19.2s-.484-11.27-1.394-25.758A24.33,24.33,0,0,0,430.4,300.683S422.52,297.317,413.512,304.429Z" transform="translate(-274.151 -186.825)" fill="#3f3d56"/>
  <path id="Path_2709" data-name="Path 2709" d="M613.43,510.036l-23.987-11.327a3.754,3.754,0,0,1-2.06-2.543,3.677,3.677,0,0,1,.683-3.132A72.177,72.177,0,0,0,602,462.711a3.729,3.729,0,0,1,3.654-3.007c12.234.042,21.377,4.509,27.175,13.276a3.776,3.776,0,0,1,.494,3.14A118.069,118.069,0,0,1,618.173,508.7a3.746,3.746,0,0,1-4.743,1.331Z" transform="translate(-324.188 -231.954)" fill="#e6e6e6"/>
  <path id="Path_2710" data-name="Path 2710" d="M625.906,502.869l-18.341-8.661a1.9,1.9,0,0,1,1.625-3.441l18.341,8.661a1.9,1.9,0,0,1-1.625,3.441Z" transform="translate(-329.608 -240.674)" fill="#1d2121"/>
  <path id="Path_2711" data-name="Path 2711" d="M629.876,494.461,611.535,485.8a1.9,1.9,0,1,1,1.625-3.441L631.5,491.02a1.9,1.9,0,1,1-1.625,3.441Z" transform="translate(-330.729 -238.299)" fill="#1d2121"/>
  <path id="Path_2712" data-name="Path 2712" d="M518.207,209.087l-1.708.187c-7.612-29.914-22.367-50.638-42.671-59.932-25.811-11.814-57.728-3.881-89.871,22.34-32.306,26.354-60.906,67.983-80.53,117.219l-1.657-.758c19.71-49.451,48.456-91.281,80.944-117.782,32.65-26.635,65.218-34.627,91.7-22.5C495.306,157.418,510.447,178.591,518.207,209.087Z" transform="translate(-243.567 -142.337)" fill="#1d2121"/>
  <path id="Path_2713" data-name="Path 2713" d="M322.241,289.31c-4.465,9.406-8.712,19.15-12.622,28.962-22.505,56.464-33.91,114.129-32.978,166.764l-1.759-.188c-.933-52.83,10.5-110.694,33.08-167.334,3.922-9.84,8.181-19.611,12.659-29.044Z" transform="translate(-235.96 -183.601)" fill="#1d2121"/>
  <path id="Path_2714" data-name="Path 2714" d="M321.065,343.374c-4.465,9.406-8.712,19.15-12.622,28.962C285.937,428.8,274.533,486.465,275.465,539.1l-1.759-.188c-.933-52.83,10.5-110.694,33.08-167.335,3.922-9.84,8.181-19.611,12.659-29.044Z" transform="translate(-235.627 -198.868)" fill="#1d2121"/>
  <ellipse id="Ellipse_596" data-name="Ellipse 596" cx="6.356" cy="7.316" rx="6.356" ry="7.316" transform="translate(22.46 155.805) rotate(-56.364)" fill="#1d2121"/>
  <ellipse id="Ellipse_597" data-name="Ellipse 597" cx="6.356" cy="7.316" rx="6.356" ry="7.316" transform="translate(436.49 261.347) rotate(-56.364)" fill="#ccc"/>
</svg>
