<svg xmlns="http://www.w3.org/2000/svg" xmlns:xlink="http://www.w3.org/1999/xlink" width="647.416" height="309.225" viewBox="0 0 647.416 309.225">
  <defs>
    <linearGradient id="linear-gradient" y1="0.5" x2="1" y2="0.5" gradientUnits="objectBoundingBox">
      <stop offset="0" stop-color="gray" stop-opacity="0.251"/>
      <stop offset="0.54" stop-color="gray" stop-opacity="0.122"/>
      <stop offset="1" stop-color="gray" stop-opacity="0.102"/>
    </linearGradient>
    <linearGradient id="linear-gradient-2" x1="-8.171" y1="1" x2="-8.171" y2="0" xlink:href="#linear-gradient"/>
  </defs>
  <g id="design" transform="translate(-23234.041 11174.435)">
    <g id="undraw_design_tools_-42-tf" transform="translate(23234.041 -11174.435)">
      <path id="Path_2736" data-name="Path 2736" d="M660.444,445.029a46.512,46.512,0,0,1-12.792,15.35c-.756.606-1.53,1.19-2.314,1.763q-1.585,1.112-3.248,2.186c-8.615,5.467-18.7,9.2-28.553,11.93q-4.027,1.112-8.081,2.091-3.42.829-6.846,1.546c-.868.189-1.735.367-2.6.556s-1.863.373-2.781.556l-1.318.25c-25.483,4.7-51.3,5.595-77.306,4.416l-1.235-.061-1.974-.1q-7.92-.412-15.856-1.051l-2-.161-.884-.072q-4.449-.373-8.9-.818-5.862-.556-11.74-1.229l-.506-.056-.412-.05h0c-13.987-1.574-28.008-3.465-42.046-5.406l-1.986-.278L423.5,475.9l-3-.417h0l-.89-.122q-7.108-1-14.215-1.969l-.768-.106c-8.9-1.218-17.847-2.391-26.768-3.459l-1.162-.139h0q-5.478-.651-10.951-1.24l-2.781-.295-3.7-.373c-10.25-1.018-20.494-1.83-30.717-2.336q-7.375-.367-14.783-.556-6.118-.139-12.236-.161-8.3-.039-16.629.095H283.64c-7.825.128-15.667.35-23.514.617l-1.413.044h-.467c-16.685.59-33.37,1.374-50.01,1.935l-4.066.133h-.59q-8.676.278-17.336.428h-3.437l-2.581.033q-4.021.039-8.025.044h-3.276c-9.8-.028-19.56-.245-29.26-.751l-1.079-.061A370.327,370.327,0,0,1,82.8,460.3q-2.842-.6-5.673-1.246a260.5,260.5,0,0,1-37.151-11.3c-5.7-2.225-11.424-4.794-15.756-9.143-10.99-11.123-6.863-32.908,7.436-39.243,11.184-4.955,24.287-.923,36.317-3.159a18.552,18.552,0,0,0,2.186-.556,30.37,30.37,0,0,0,4.449-1.835c.489-.245.979-.506,1.474-.779a37.542,37.542,0,0,0,3.292-2.013,50.545,50.545,0,0,0,5.005-3.8q1.057-.9,2.058-1.869a39.357,39.357,0,0,0,6.073-7.269,25.689,25.689,0,0,0,1.668-3.137,16.558,16.558,0,0,0,.69-1.735,16.16,16.16,0,0,0,.662-2.569c.7-4.127-.434-8.153-4.383-11.557a11.66,11.66,0,0,0-1.112-.84,17,17,0,0,0-2.414-1.4c-.339-.161-.69-.317-1.046-.467-5.083-2.141-11.64-2.964-17.169-4.449h0a30.313,30.313,0,0,1-4.916-1.707c-1.007-.467-2.008-.957-2.992-1.468h0l-.261-.145h0a66.956,66.956,0,0,1-21.69-17.8,57.974,57.974,0,0,1-4.038-5.862c-.373-.612-.734-1.24-1.079-1.869-9.772-17.63-10.778-40.221-.612-57.557a54.461,54.461,0,0,1,4.116-6.04q.734-.951,1.518-1.869c9.677-11.418,23.581-19.154,37.619-24.883,18.843-7.686,38.57-12.541,58.675-15.739q6.118-.973,12.236-1.746c17.074-2.18,34.348-3.337,51.5-4.216q24.065-1.218,48.341-1.574,8.226-.111,16.468-.095,18.57,0,37.14.717,6.118.234,12.236.556,15.689.812,31.317,2.225,7.508.679,14.983,1.5c37.952,4.149,75.354,11.184,111.466,22.124q6.146,1.858,12.236,3.893a472.528,472.528,0,0,1,44.71,17.28q2.069.929,4.127,1.869,13.676,6.273,26.963,13.52a299.849,299.849,0,0,1,33.7,21.134q6.3,4.616,12.236,9.633a175.98,175.98,0,0,1,19.527,19.265q.8.929,1.585,1.869,4.071,4.889,7.731,10.128c11.9,17.107,19.888,36.673,25.784,56.662C665.232,409.19,668.692,428.772,660.444,445.029Z" transform="translate(-17.965 -188.589)" fill="#fb0" opacity="0.1"/>
      <path id="Path_2737" data-name="Path 2737" d="M666.085,385.335H618.572V324.9h21.134q-.784-.94-1.585-1.869H618.595V303.763q-5.929-5.005-12.236-9.633v28.92H496.824V259.47H545.66q-2.063-.94-4.127-1.869h-44.71v-17.28q-6.118-2.019-12.236-3.893v21.134H328.263l-.373-.356,45.221-42.924q-7.475-.823-14.983-1.5l-31.317,29.721V210.584q-6.118-.323-12.236-.556v34.532l-37.14-35.249q-8.237,0-16.468.095l50.366,47.8-.373.356H161.115V215.255Q155,216.028,148.879,217v40.6h-96.3q-.784.918-1.518,1.869h97.812v63.558H47.53c.345.628.706,1.257,1.079,1.869H148.868v60.438H99.553q-1,.968-2.058,1.869h51.372v61.845q6.118.873,12.236,1.824V387.2H314.565v77.49q6.118,0,12.236.161V387.2H484.577v94.864l.506.056q5.873.656,11.741,1.229V387.2h109.5V480.95c.934-.172,1.869-.356,2.781-.556s1.735-.35,2.6-.556q3.426-.729,6.846-1.546V387.2h47.9Zm-351.521,0H161.115V324.9h153.45Zm0-62.29H161.115V259.47H312.39l2.158,1.7Zm170.012,62.29H326.811V324.9H484.577Zm0-62.29H326.811V259.47H484.577Zm121.749,62.29h-109.5V324.9h109.5Z" transform="translate(-31.087 -188.56)" fill="#fb0" opacity="0.1"/>
      <path id="Path_2738" data-name="Path 2738" d="M315.1,679.24a.791.791,0,0,1-.061.184h0a.49.49,0,0,1,.067-.184Z" transform="translate(-149.819 -397.134)" fill="#eaecf0"/>
      <path id="Path_2739" data-name="Path 2739" d="M313.863,654.943h-3.437l-2.581.033-.284-2.931-.261-2.781-1.212-12.686-.039-.389v-.172l-.339-3.57L310.9,630.5l.634,5.178.044.384v.044l1.285,10.511.395,3.226.228,1.874.195,1.607v.056Z" transform="translate(-145.678 -375.501)" fill="#eaecf0"/>
      <path id="Path_2740" data-name="Path 2740" d="M335.612,507.2l.061.184h-.412l-.061-.184Z" transform="translate(-148.778 -225.099)" fill="#3a3768"/>
      <path id="Path_2741" data-name="Path 2741" d="M439.4,679.55Z" transform="translate(-205.015 -397.271)" fill="#3a3768"/>
      <path id="Path_2742" data-name="Path 2742" d="M418.343,542.467v.239s-4.85,13.253-6.429,24.566q-.161,1.112-.267,2.225c-.078.784-.139,1.552-.172,2.3-.044.873-.056,1.719-.033,2.525v.556c0,.373.039.756.061,1.151s.056.79.089,1.2.067.773.106,1.168c1.2,12.235,5.74,30.149,5.74,30.149s.15.484.345,1.307h-1.257c-7.825.128-15.667.35-23.514.617l-1.413.044h-.467c-16.685.59-33.37,1.374-50.01,1.935l-4.065.133h-.59q-8.676.278-17.336.428H317.6a9.369,9.369,0,0,1,1.346-1.518,9.788,9.788,0,0,1,1.363-1.057,30.668,30.668,0,0,1,8.537-3.665,6.81,6.81,0,0,1,1.952-.239l3.893.078h.6l5.973.117,51.233,1.018h.128l.362-.072a9.6,9.6,0,0,0,1.73-.612,6.073,6.073,0,0,0,3.648-4.716c0-.172.044-.356.056-.556a6.554,6.554,0,0,0,0-.812,2.758,2.758,0,0,0-.044-.6c-.044-.206-.056-.412-.095-.623-1.235-6.9-3.337-28.147-3.337-28.147v.067s0-.907.05-2.43v-.7c0-.339.039-.706.061-1.112,0-.239.033-.484.05-.74.028-.373.061-.756.095-1.157a.329.329,0,0,1,0-.072q.034-.378.067-.768v-.083c.829-8.2,3.437-21.19,11.679-26,3.865-2.264,6.424-2.72,8.109-2.275,2.458.645,3.076,3.2,3.209,4.866v.323A8.1,8.1,0,0,1,418.343,542.467Z" transform="translate(-150.955 -333.64)" fill="#3a3768"/>
      <path id="Path_2743" data-name="Path 2743" d="M315.1,679.24a.791.791,0,0,1-.061.184h0a.49.49,0,0,1,.067-.184Z" transform="translate(-149.819 -397.134)" opacity="0.1"/>
      <path id="Path_2744" data-name="Path 2744" d="M335.612,507.2l.061.184h-.412l-.061-.184Z" transform="translate(-148.778 -225.099)" opacity="0.1"/>
      <path id="Path_2745" data-name="Path 2745" d="M439.4,679.55Z" transform="translate(-205.015 -397.271)" opacity="0.1"/>
      <path id="Path_2746" data-name="Path 2746" d="M418.312,542.3v.172a151.37,151.37,0,0,0-5.906,21.407h0q-.2,1.112-.367,2.152c-.056.356-.106.712-.156,1.068q-.161,1.112-.267,2.225c-.078.784-.139,1.552-.172,2.3-.044.873-.056,1.719-.033,2.525v.556c0,.373.039.756.061,1.151s.056.8.089,1.2.067.773.106,1.168.078.773.122,1.162c.178,1.574.4,3.226.656,4.905,1.741,11.329,4.961,24.021,4.961,24.021s.161.512.356,1.368H416.5c-7.825.128-15.667.35-23.514.617l-1.413.045h-.467c-16.685.59-33.37,1.374-50.01,1.935l-4.066.133h-.59q-8.676.278-17.335.428H317.53a9.562,9.562,0,0,1,1.39-1.574,9.216,9.216,0,0,1,1.368-1.068,31,31,0,0,1,8.537-3.665,7.005,7.005,0,0,1,1.952-.234l3.893.078h.6l5.99.117,51.272,1.012h.089a1.409,1.409,0,0,0,.4-.083,8.983,8.983,0,0,0,1.741-.628,6.068,6.068,0,0,0,3.6-4.622c0-.172.044-.356.056-.556a6.554,6.554,0,0,0,0-.812,2.759,2.759,0,0,0-.044-.6c-.044-.206-.056-.451-.095-.684-1.235-6.9-3.337-28.147-3.337-28.147s0-.906.05-2.43v-.7c0-.339.039-.706.061-1.112,0-.239.033-.484.05-.74.028-.373.061-.756.095-1.157a.333.333,0,0,1,0-.072q.033-.378.067-.768v-.083c.1-1.023.234-2.125.4-3.276,1.157-8.053,4.049-18.57,11.257-22.8,3.765-2.225,6.285-2.692,7.975-2.308,2.6.6,3.22,3.276,3.337,4.966v.323A8.12,8.12,0,0,1,418.312,542.3Z" transform="translate(-150.924 -333.47)" opacity="0.1"/>
      <path id="Path_2747" data-name="Path 2747" d="M315.1,679.24a.791.791,0,0,1-.061.184h0a.49.49,0,0,1,.067-.184Z" transform="translate(-149.819 -397.134)" fill="#3a3768"/>
      <path id="Path_2748" data-name="Path 2748" d="M335.612,507.2l.061.184h-.412l-.061-.184Z" transform="translate(-148.778 -225.099)" fill="#3a3768"/>
      <path id="Path_2749" data-name="Path 2749" d="M439.4,679.55Z" transform="translate(-205.015 -397.271)" fill="#3a3768"/>
      <path id="Path_2750" data-name="Path 2750" d="M415.405,541.466s-7.258,19.833-6.908,31.7,6.018,34.17,6.018,34.17.245.784.506,2.036c-7.825.128-15.667.35-23.514.617l-1.413.044h-.467c-16.685.59-33.37,1.374-50.01,1.935l-4.066.133h-.59q-8.676.278-17.335.428H314.19a10.011,10.011,0,0,1,3.053-3.209l.15-.106a30.958,30.958,0,0,1,8.532-3.587,7,7,0,0,1,1.952-.234l5.139.1h.6l6.19.122,49.915,1a8.388,8.388,0,0,0,2.063-.673,5.935,5.935,0,0,0,.634-.339h0a6.674,6.674,0,0,0,1.668-1.363,6.3,6.3,0,0,0,1.285-5.562c-1.24-6.9-3.337-28.147-3.337-28.147s-.356-25.85,12.035-33.108c5.005-2.931,7.82-2.831,9.394-1.668a1.04,1.04,0,0,1,.133.1C415.767,537.6,415.405,541.466,415.405,541.466Z" transform="translate(-149.442 -333.112)" fill="#3a3768"/>
      <path id="Path_2751" data-name="Path 2751" d="M131.425,632.577l-.2,2.074-1.212,12.73q-2.842-.6-5.673-1.246l1.418-11.574.478-3.932Z" transform="translate(-65.179 -375.559)" fill="#eaecf0"/>
      <path id="Path_2752" data-name="Path 2752" d="M55.12,403.254,85.408,338.79l122,9.516,11.246,54.949Z" transform="translate(-24.468 -150.352)" fill="#efc6cd"/>
      <path id="Path_2753" data-name="Path 2753" d="M55.12,460.323V454.7H218.659v8.22Z" transform="translate(-24.468 -201.798)" fill="#d48a9b"/>
      <path id="Path_2754" data-name="Path 2754" d="M155.03,584.625l73.168,1.49a1.012,1.012,0,0,0,.984-1.329L217.776,554.02l-49.281-.94-14.577,29.844a1.212,1.212,0,0,0,1.112,1.7Z" transform="translate(-78.261 -341.139)" fill="#dfe6f5"/>
      <path id="Path_2755" data-name="Path 2755" d="M155.03,584.625l73.168,1.49a1.012,1.012,0,0,0,.984-1.329L217.776,554.02l-49.281-.94-14.577,29.844a1.212,1.212,0,0,0,1.112,1.7Z" transform="translate(-78.261 -341.139)" opacity="0.15"/>
      <path id="Path_2756" data-name="Path 2756" d="M154.94,582.346l73.925,1.557-10.05-30.439a2.508,2.508,0,0,0-2.33-1.724l-47.507-.9Z" transform="translate(-78.76 -340.144)" fill="#dfe6f5"/>
      <path id="Path_2757" data-name="Path 2757" d="M165.753,578.443l8.86-19.493a2.364,2.364,0,0,1,2.147-1.379h22.018a2.353,2.353,0,0,1,2.353,2.353v21.062a2.358,2.358,0,0,1-2.469,2.352l-30.884-1.574a2.353,2.353,0,0,1-2.024-3.32Z" transform="translate(-83.466 -343.132)" fill="#4c4c56"/>
      <path id="Path_2758" data-name="Path 2758" d="M244,580.452l.378-11.123a1.707,1.707,0,0,1,1.7-1.668h6.507a1.7,1.7,0,0,1,1.668,1.413l1.913,11.062a1.707,1.707,0,0,1-1.668,2l-8.8.078a1.7,1.7,0,0,1-1.7-1.757Z" transform="translate(-118.288 -347.61)" fill="#d1d9ec"/>
      <path id="Path_2759" data-name="Path 2759" d="M86.89,458.935l24.532-2.047a1.668,1.668,0,0,1,1.746.984l23.2,52.507-12.947,29.065c.406-.912.706,6.185-2.225.033L84.326,462.567C83.831,461.538,85.739,459.08,86.89,458.935Z" transform="translate(-47.383 -298.439)" fill="#4c4c56"/>
      <path id="Path_2760" data-name="Path 2760" d="M86.89,458.935l24.532-2.047a1.668,1.668,0,0,1,1.746.984l23.2,52.507-12.947,29.065c.406-.912.706,6.185-2.225.033L84.326,462.567C83.831,461.538,85.739,459.08,86.89,458.935Z" transform="translate(-47.383 -298.439)" opacity="0.15"/>
      <path id="Path_2761" data-name="Path 2761" d="M87.815,457.941l25.778-3.292a1.669,1.669,0,0,1,1.746.984l23.2,52.507L124.5,539.646,86.5,460.327a1.668,1.668,0,0,1,1.318-2.386Z" transform="translate(-48.308 -297.444)" fill="#4c4c56"/>
      <path id="Path_2762" data-name="Path 2762" d="M99.433,464.887l18.637-2.9a1.669,1.669,0,0,1,1.808,1.023L139.4,510.759a1.513,1.513,0,0,1-.033,1.224l-8.937,18.676a1.507,1.507,0,0,1-2.731,0l-29.527-63.4a1.669,1.669,0,0,1,1.262-2.369Z" transform="translate(-53.491 -300.697)" fill="#fb0"/>
      <path id="Path_2763" data-name="Path 2763" d="M439.4,679.55Z" transform="translate(-205.015 -397.271)" fill="#fff"/>
      <path id="Path_2764" data-name="Path 2764" d="M337.732,541.643s-.384.634-.945,1.668l-.05.095c-.5.89-1.112,2.058-1.735,3.337l-1.413.045h-.467c-16.685.59-33.37,1.374-50.01,1.935l-4.066.133h-.59q-8.676.278-17.335.428h-3.437l-2.581.033q-4.021.039-8.025.044H243.9c-9.8-.028-19.56-.245-29.26-.751l-1.079-.061c1.908-4.149,5.317-10.951,8.087-13.125,2.141-1.668,17.519-3.521,31.662-4.878l1.491-.145h.033l3.949-.367c5.411-.495,10.322-.9,13.826-1.168l.323-.028-1.824-6.118-2.642-8.9.751-7.475.061-.6h-.083a4.911,4.911,0,0,1-2.225-.278l-26.412-.912h-.478l-10.144-.362h0c-5.439-.195-9.3-.339-9.455-.367a2.4,2.4,0,0,1-.467-.128,2.1,2.1,0,0,1-.645-.389,2.58,2.58,0,0,1-.556-.667h-.356l-1.435.095-.729.05c-.028-.078-.05-.156-.078-.228-.067-.217-.133-.423-.195-.634h-.384l-5.005-.106h-.089s-12.914.984-19.66-1.474h0c-2.475-.9-4.121-2.264-3.993-4.3a4.655,4.655,0,0,1,.289-1.357c-2.169-4.054,8.426-11.451,16.5-9.41a14.294,14.294,0,0,0,6.707.278,8.631,8.631,0,0,0,3.337-1.518c.1-.072.189-.145.273-.217-.133-.083-.273-.156-.4-.222a6.215,6.215,0,0,0-1.763-.612l2.191-.64h.033s7.786-.712,12.853-1h.033c1.507-.078,2.781-.128,3.537-.106,3.337.095,9.838-2.291,10.117-3.025s3.248,0,3.248,0l2.6-1.012c2.6-1.007,4.082-2.38,4.082-3.393s2.319-2.108,2.319-2.108a21.93,21.93,0,0,1,5.25-5.311c1.863-1.44,3.8-2.725,5.233-3.621a105.51,105.51,0,0,1,2.225-10.7c.984-3.287,4.038-5.723,5.133-6.513l.4-.267a28.833,28.833,0,0,0-1.224-4.071,3.136,3.136,0,0,0-.133-.334c-.111-.261-.228-.517-.345-.756l-.172-.334c-.284.056-.556.106-.857.145a19.459,19.459,0,0,1-2.781.206,19.082,19.082,0,0,1-18.437-13.9v-.033a18.831,18.831,0,0,1-.667-5.005,18.308,18.308,0,0,1,.634-4.805h0c.083-.334.184-.662.289-.99a.888.888,0,0,1,.039-.111c.05-.15.1-.306.156-.456a19.565,19.565,0,0,1-2.486.217h-.556a11.768,11.768,0,0,1-4.655-.773h0a6.318,6.318,0,0,1-1.029-.556.133.133,0,0,1-.044-.033,5.216,5.216,0,0,1-1.146-.907,5.9,5.9,0,0,0,2.264-3.938c.15-1.2-.05-2.542.667-3.52a5.048,5.048,0,0,1,1.3-1.112c2.959-2.019,5.306-4.789,7.981-7.174s5.912-4.449,9.51-4.561c4.827-.15,9.077,3.209,13.859,3.843a37.538,37.538,0,0,1,4.41.495,15.183,15.183,0,0,1,4.477,2.269,11.24,11.24,0,0,1,3.192,2.714,9.572,9.572,0,0,1,1.3,3.109,34.379,34.379,0,0,1,1.112,7.124c.128,2.519,0,5.055.267,7.558a12.964,12.964,0,0,0,2.136,6.079h.072a8.342,8.342,0,0,0,.69.845c-.473.15-.945.284-1.429.4a22.559,22.559,0,0,1-2.442.484,7.117,7.117,0,0,1-1.14.095,3.4,3.4,0,0,1-.79-.072l.489.328,1.357.912h0l.512.339,1.029.684c.234-.684.556-.868.929-.823.756-.712,1.885.829,1.885.829.662,1.268,2.442,2.531,4.015,3.465a31.738,31.738,0,0,0,2.853,1.491c20.784,12.386,19.466,30.917,20.689,32.385s1.3,6.785,1.3,6.785,3.064,18.07,4.449,19.632.089,2.108,1.3,3.854.929,6.418.929,6.418.834,11.006,3.8,13.392c2.664,2.141,6.223,20.155,6.93,23.837Z" transform="translate(-92.935 -269.858)" fill="url(#linear-gradient)"/>
      <path id="Path_2765" data-name="Path 2765" d="M217.138,556.44s-2.886,4.544-11.062,2.453-18.993,5.817-15.906,9.722,22.992-1.112,22.992-1.112l7.636-1.546-.5-6.357Z" transform="translate(-94.157 -342.63)" fill="#d38884"/>
      <path id="Path_2766" data-name="Path 2766" d="M217.138,556.44s-2.886,4.544-11.062,2.453-18.993,5.817-15.906,9.722,22.992-1.112,22.992-1.112l7.636-1.546-.5-6.357Z" transform="translate(-94.157 -342.63)" opacity="0.1"/>
      <path id="Path_2767" data-name="Path 2767" d="M239.3,555.854l-3.543-.184-2.18.634s6.908,1,5.005,10.361l7.447-.451Z" transform="translate(-113.664 -342.288)" fill="#a36468"/>
      <path id="Path_2768" data-name="Path 2768" d="M239.3,555.854l-3.543-.184-2.18.634s6.908,1,5.005,10.361l7.447-.451Z" transform="translate(-113.664 -342.288)" opacity="0.1"/>
      <path id="Path_2769" data-name="Path 2769" d="M287.938,518.36s-9.722,5.562-12.452,10.183c0,0-2.269,1.112-2.269,2.091s-1.457,2.358-4,3.337l-2.547,1s-2.909-.729-3.181,0-6.629,3.087-9.905,3-16.084,1.112-16.084,1.112a11.385,11.385,0,0,1,6.451,12.63l30.266-1.268,11.446-2.547,6.729-6.724Z" transform="translate(-115.404 -325.729)" fill="#444053"/>
      <path id="Path_2770" data-name="Path 2770" d="M287.938,518.36s-9.722,5.562-12.452,10.183c0,0-2.269,1.112-2.269,2.091s-1.457,2.358-4,3.337l-2.547,1s-2.909-.729-3.181,0-6.629,3.087-9.905,3-16.084,1.112-16.084,1.112a11.385,11.385,0,0,1,6.451,12.63l30.266-1.268,11.446-2.547,6.729-6.724Z" transform="translate(-115.404 -325.729)" opacity="0.1"/>
      <path id="Path_2771" data-name="Path 2771" d="M222.088,578.927l-4.282-.083-5.005-.106s-23.637,1.819-23.175-5.74,18.642-10.211,21.173-8.042c1.919,1.641,6.357,2.964,8.381,3.5.645.172,1.04.267,1.04.267Z" transform="translate(-94.152 -346.086)" fill="#d38884"/>
      <path id="Path_2772" data-name="Path 2772" d="M244.05,582.32l-4.282-.083c-1.707-5.867.273-9.1,1.4-10.367.645.172,1.04.267,1.04.267Z" transform="translate(-116.114 -349.478)" opacity="0.1"/>
      <path id="Path_2773" data-name="Path 2773" d="M247.195,582.1l-4.449.312-2.113.145c-2.909-8.543,1.791-11.907,1.791-11.907h1.39l2.275.273Z" transform="translate(-116.372 -348.937)" fill="#a36468"/>
      <path id="Path_2774" data-name="Path 2774" d="M341.467,471.739,336.2,481.75s-.806-10.139-3.153-14.916a4.231,4.231,0,0,0-2.119-2.353c-2.225-.7,10.567-14.722,10.567-14.722a50.906,50.906,0,0,1,5.873,3.71c3.3,2.225,7.269,4.939,9.939,6.674C362.368,463.375,341.467,471.739,341.467,471.739Z" transform="translate(-156.753 -295.281)" fill="#d38884"/>
      <path id="Path_2775" data-name="Path 2775" d="M331.792,489.62s-4.238,2.72-5.417,6.718a112.2,112.2,0,0,0-2.275,11.179s1.913,17.174,2.909,17.992,4.783,17.992,4.783,17.992l3.671-2.453-4.816-21.629S333.849,491.628,331.792,489.62Z" transform="translate(-153.84 -312.973)" fill="#444053"/>
      <path id="Path_2776" data-name="Path 2776" d="M331.792,489.62s-4.238,2.72-5.417,6.718a112.2,112.2,0,0,0-2.275,11.179s1.913,17.174,2.909,17.992,4.783,17.992,4.783,17.992l3.671-2.453-4.816-21.629S333.849,491.628,331.792,489.62Z" transform="translate(-153.84 -312.973)" opacity="0.1"/>
      <path id="Path_2777" data-name="Path 2777" d="M336.224,359.81H315.04l3.431-33.42h17.753Z" transform="translate(-139.83 -144.848)" fill="#a36468"/>
      <path id="Path_2778" data-name="Path 2778" d="M282.662,679.24h.256l-.478.184Z" transform="translate(-135.35 -397.134)" fill="#67647e"/>
      <path id="Path_2779" data-name="Path 2779" d="M302.256,645.27l-4.143,1.591-.556.206L282.64,652.8l-5.69,2.186-7.742,2.975H266.05c-9.8-.028-19.56-.245-29.26-.751,1.88-4.121,5.167-10.717,7.847-12.847,2.091-1.668,17.052-3.47,30.861-4.827,1.724-.167,3.426-.328,5.083-.478l.395-.039c5.484-.5,10.445-.907,13.9-1.185l.556-.044,4.349-.334.456-.456.556,2.38.462,1.9Z" transform="translate(-115.089 -378.386)" fill="#67647e"/>
      <path id="Path_2780" data-name="Path 2780" d="M282.662,679.24h.256l-.478.184Z" transform="translate(-135.35 -397.134)" opacity="0.1"/>
      <path id="Path_2781" data-name="Path 2781" d="M302.256,645.27l-4.143,1.591-.556.206L282.64,652.8l-5.69,2.186-7.742,2.975H266.05c-9.8-.028-19.56-.245-29.26-.751,1.88-4.121,5.167-10.717,7.847-12.847,2.091-1.668,17.052-3.47,30.861-4.827,1.724-.167,3.426-.328,5.083-.478l.395-.039c5.484-.5,10.445-.907,13.9-1.185l.556-.044,4.349-.334.456-.456.556,2.38.462,1.9Z" transform="translate(-115.089 -378.386)" opacity="0.1"/>
      <path id="Path_2782" data-name="Path 2782" d="M282.662,679.24h.256l-.478.184Z" transform="translate(-135.35 -397.134)" fill="#67647e"/>
      <path id="Path_2783" data-name="Path 2783" d="M315.1,679.24a.791.791,0,0,1-.061.184h0a.49.49,0,0,1,.067-.184Z" transform="translate(-149.819 -397.134)" fill="#67647e"/>
      <path id="Path_2784" data-name="Path 2784" d="M335.673,507.384h-.412l-.061-.184h.412Z" transform="translate(-148.778 -225.099)" fill="#67647e"/>
      <path id="Path_2785" data-name="Path 2785" d="M329.149,641.362l-.345,11.446v.679l-.172,5.667-4.066.133h-.59q-8.676.278-17.336.428H303.2l-2.581.033q-4.021.039-8.025.044h-3.2c2.892-1.791,6.635-3.765,10.662-5.74,1.808-.89,3.682-1.774,5.562-2.647,5.005-2.325,10.072-4.522,14.2-6.273l.528-.222c1.6-.678,3.053-1.285,4.294-1.8,2.681-1.112,4.383-1.78,4.5-1.824Z" transform="translate(-138.439 -380.29)" fill="#67647e"/>
      <path id="Path_2786" data-name="Path 2786" d="M293.536,554.964a20.888,20.888,0,0,0,3.832,6.073c.272.267.745.512.99.217a.7.7,0,0,0,.106-.412,5.305,5.305,0,0,0-1-2.836c-.556-.857-1.212-1.635-1.707-2.525s-1.062-2.6-2.175-2.836C292.151,552.345,293.219,554.308,293.536,554.964Z" transform="translate(-139.972 -340.932)" opacity="0.1"/>
      <path id="Path_2787" data-name="Path 2787" d="M347.34,453.44c-.078.278-.161.556-.25.823A18.737,18.737,0,0,1,333.042,466.8a4.231,4.231,0,0,0-2.119-2.353c-2.225-.7,10.567-14.722,10.567-14.722A59.255,59.255,0,0,1,347.34,453.44Z" transform="translate(-156.753 -295.268)" opacity="0.1"/>
      <path id="Path_2788" data-name="Path 2788" d="M331.971,431.85A18.681,18.681,0,1,1,326.5,418.6,18.72,18.72,0,0,1,331.971,431.85Z" transform="translate(-140.716 -279.023)" fill="#d38884"/>
      <path id="Path_2789" data-name="Path 2789" d="M338.436,496.79s-3.893,4.727-3.27,7.82h4.722l3.454-3.893Z" transform="translate(-158.722 -316.155)" fill="#67647e"/>
      <path id="Path_2790" data-name="Path 2790" d="M354.149,460.9,339.3,481.317s3.815,5.456,5.634,5.728S357.125,462.9,357.125,462.9Z" transform="translate(-160.587 -300.225)" opacity="0.1"/>
      <path id="Path_2791" data-name="Path 2791" d="M354.485,460.24,339.63,480.684s3.815,5.45,5.634,5.723,12.191-24.143,12.191-24.143Z" transform="translate(-160.733 -299.933)" fill="#a36468"/>
      <path id="Path_2792" data-name="Path 2792" d="M334.779,507.26s-.729,11.446-1.457,13.72,0,23.17,0,23.17l6.819-2.814-1.185-32.079Z" transform="translate(-157.789 -320.802)" fill="#67647e"/>
      <path id="Path_2793" data-name="Path 2793" d="M335.612,507.2l.061.184h-.412l-.061-.184Z" transform="translate(-148.778 -225.099)" opacity="0.1"/>
      <path id="Path_2794" data-name="Path 2794" d="M439.4,679.55Z" transform="translate(-205.015 -397.271)" opacity="0.1"/>
      <path id="Path_2795" data-name="Path 2795" d="M400.644,572.24s-.128.211-.339.556-.439.773-.734,1.318a.417.417,0,0,0-.039.067c-.412.762-.9,1.7-1.4,2.714-16.685.59-33.37,1.374-50.01,1.935l-4.066.133h-.59l-1.746-5.9v-.061l-.184-.623-1.112-3.7-1.112-3.765-1.151-4.016-.423-1.457-.111-.367-1.813-6.173-2.458-8.381.8-8h0l.056-.606.717-7.163.1-2.125h0l.056-1.112V525.2h0l.122-2.581.367-7.675.189-3.927h0l.033-.6h0l.378-7.881,1.073-3.22.556-1.6L339.038,494l.267-.918h0c.389-1.4,1.174-4.154,1.908-6.807h0l.067-.228h0l.05-.172.523-1.885.651-2.419c.245-.929.406-1.591.445-1.819a35.658,35.658,0,0,1,2.492-4.449h0c2.781-4.6,6.963-11.368,7.441-13.637a.25.25,0,0,0,0-.056A2.778,2.778,0,0,1,353,461.2c.228-.678.556-.862.9-.818a1.113,1.113,0,0,1,.439.172,3.5,3.5,0,0,1,.868.834c.651,1.251,2.392,2.5,3.932,3.432l.3.172.178.106c1.279.729,2.314,1.2,2.314,1.2,20.355,12.269,19.087,30.628,20.266,32.079s1.274,6.729,1.274,6.729,3,17.9,4.36,19.466.095,2.091,1.274,3.821.907,6.3.907,6.3.818,10.9,3.726,13.264S400.644,572.24,400.644,572.24Z" transform="translate(-157.95 -299.994)" opacity="0.1"/>
      <path id="Path_2796" data-name="Path 2796" d="M401.629,571.9l-.245.423h0c-.195.345-.506.89-.879,1.574l-.039.078c-.423.784-.923,1.735-1.418,2.781h-.467c-16.685.59-33.37,1.374-50.01,1.935l-4.066.133-1.741-5.918v-.061l-.184-.623-1.151-3.893-1.112-3.782-1.112-3.776-.439-1.513h0l-1.9-6.5L334.35,544.2l.7-6.958.095-.929.767-7.9h0l.295-6.162.362-7.447.095-1.952.106-2.258.044-.951.362-7.441,1.073-3.215.462-1.385,1.079-3.254.228-.69s1.04-3.654,2.047-7.275c.039-.133.078-.267.111-.4.089-.311.172-.623.261-.929h0c.089-.311.172-.617.25-.923.284-1.012.556-1.958.745-2.736.273-1.018.456-1.757.495-2a32.752,32.752,0,0,1,2.542-4.527c2.631-4.349,6.468-10.567,7.28-13.148a4.184,4.184,0,0,0,.111-.406h0a2.119,2.119,0,0,1,.484-1.112c.745-.717,1.852.823,1.852.823.651,1.251,2.391,2.508,3.932,3.432a29.494,29.494,0,0,0,2.781,1.474c20.355,12.269,19.087,30.628,20.266,32.085s1.274,6.724,1.274,6.724,3,17.9,4.36,19.466.095,2.091,1.274,3.815.907,6.362.907,6.362.818,10.906,3.726,13.27S401.629,571.9,401.629,571.9Z" transform="translate(-158.39 -299.834)" fill="#444053"/>
      <path id="Path_2797" data-name="Path 2797" d="M363.238,465.127c-2,2.9-5.25,8.009-6.118,11.679,0,0-3.181,3.276-4.366,3.092s1.112,2.453,1.112,2.453l-12.5,17.319,1.774-5.322s3.726-13.086,3.893-14.266,9.216-14.688,9.933-18.086c.556-2.72,2.336-.272,2.336-.272C359.951,462.947,361.692,464.209,363.238,465.127Z" transform="translate(-161.505 -300.142)" opacity="0.1"/>
      <path id="Path_2798" data-name="Path 2798" d="M363.238,464.453c-2,2.9-5.25,8.009-6.118,11.652,0,0-3.181,3.27-4.366,3.092s1.112,2.453,1.112,2.453l-12.5,17.319,1.774-5.322s3.726-13.086,3.893-14.271,9.216-14.683,9.933-18.081c.556-2.725,2.336-.273,2.336-.273C359.951,462.272,361.692,463.524,363.238,464.453Z" transform="translate(-161.505 -299.829)" fill="#444053"/>
      <path id="Path_2799" data-name="Path 2799" d="M377.449,513.537c.095,3.971-5.723,9.393-6,9.711s-18.086,15.016-18.086,15.016l-12.792,9.811a10.869,10.869,0,0,1-5.005,2.314l.873-8.776.862-17.8c2-2.225,3.932-4.56,3.977-5.306.089-1.541,3.337-3.181,3.337-3.181s2.275-1.908,1.908-3,1.207-6.312,1.207-6.312c.818-14.816,16.084-16.268,16.084-16.268a104.647,104.647,0,0,1,12.541,6C381.537,498.832,377.36,509.572,377.449,513.537Z" transform="translate(-158.931 -313.03)" opacity="0.1"/>
      <path id="Path_2800" data-name="Path 2800" d="M249.093,582.1l-4.449.311c-1.88-3.2.706-11.763.706-11.763h.361l2.275.272Z" transform="translate(-118.27 -348.937)" opacity="0.1"/>
      <path id="Path_2801" data-name="Path 2801" d="M323.495,488.13s-15.267,1.457-16.084,16.268c0,0-1.546,5.183-1.185,6.273s-1.908,3-1.908,3-3.27,1.635-3.337,3.181-8.342,9.978-8.342,9.978-3.448,3.926-11.446,4.338-11.724,2.859-11.724,2.859-3.893-2.725-6.73-1.908-16.629,1.908-16.629,1.908-3.665,12.146.907,12.908c.556.089,45.549,1.635,45.549,1.635s3.076,1.452,7.708-2.091,12.792-9.816,12.792-9.816,17.8-14.722,18.086-15.016,6.118-5.745,6-9.711,4.093-14.694-1.112-17.8A104.837,104.837,0,0,0,323.495,488.13Z" transform="translate(-118.608 -312.311)" fill="#444053"/>
      <path id="Path_2802" data-name="Path 2802" d="M332.685,431.8a18.681,18.681,0,0,1-.918,5.8,7.823,7.823,0,0,1-.69-.951q-1.3-2-2.608-4a10.823,10.823,0,0,0-2.653-3.126,3.7,3.7,0,0,0-3.893-.412,3.9,3.9,0,0,0-1.668,3.12,35.424,35.424,0,0,0,.095,3.682,2.03,2.03,0,0,1-.339,1.329,2.18,2.18,0,0,1-1.435.556l-1.669.228a1.2,1.2,0,0,1-1.535-.762c-1.385-2.508-2.341-5.623-4.939-6.83-1.6-.745-3.715-.7-4.744-2.13a4.641,4.641,0,0,1-.4-3.5,27.614,27.614,0,0,1,.973-3.96c.295-.912.951-2.731-.506-2.914-.99-.128-2.358.923-2.859,1.668a14.849,14.849,0,0,0-.979,2.592,6.19,6.19,0,0,1-3.42,3.176,9.8,9.8,0,0,1-2.358.639,18.72,18.72,0,0,1,36.54,5.751Z" transform="translate(-141.431 -278.976)" opacity="0.1"/>
      <path id="Path_2803" data-name="Path 2803" d="M295.344,411.391a15.206,15.206,0,0,0-.979,2.586,6.2,6.2,0,0,1-3.415,3.176,13.141,13.141,0,0,1-4.688.834c-2.592.078-5.484-.317-7.152-2.3a5.856,5.856,0,0,0,2.225-3.893c.145-1.19-.05-2.519.656-3.493a5.006,5.006,0,0,1,1.268-1.073c2.9-2,5.195-4.75,7.82-7.108s5.79-4.41,9.316-4.522c4.722-.145,8.9,3.181,13.57,3.81a37.131,37.131,0,0,1,4.316.489,14.716,14.716,0,0,1,4.388,2.225,11.229,11.229,0,0,1,3.131,2.692,9.682,9.682,0,0,1,1.274,3.081,34.405,34.405,0,0,1,1.112,7.058c.128,2.492,0,5.005.267,7.486a11.861,11.861,0,0,0,2.753,6.841,24.478,24.478,0,0,1-3.787.873,3.943,3.943,0,0,1-2.408-.189,4.244,4.244,0,0,1-1.468-1.585l-2.608-4a10.823,10.823,0,0,0-2.653-3.126,3.7,3.7,0,0,0-3.893-.412,3.914,3.914,0,0,0-1.668,3.12,35.423,35.423,0,0,0,.095,3.682,2.03,2.03,0,0,1-.339,1.329,2.186,2.186,0,0,1-1.44.556l-1.668.228a1.2,1.2,0,0,1-1.535-.762c-1.385-2.514-2.341-5.623-4.939-6.83-1.6-.745-3.715-.7-4.744-2.13a4.64,4.64,0,0,1-.4-3.5,27.612,27.612,0,0,1,.973-3.96c.295-.912.951-2.731-.506-2.92A3.839,3.839,0,0,0,295.344,411.391Z" transform="translate(-133.872 -271.239)" fill="#444053"/>
      <path id="Path_2804" data-name="Path 2804" d="M378.106,502.612a8.146,8.146,0,0,1,4.2.217A15.381,15.381,0,0,0,370.17,503.9C370.454,504.547,377.016,502.762,378.106,502.612Z" transform="translate(-174.288 -318.484)" opacity="0.1"/>
      <path id="Path_2805" data-name="Path 2805" d="M379.955,509.928c3.42.228,6.952.706,10.194-.406-2.714-.934-5.7-.345-8.559-.628-2.28-.228-4.6-1.018-6.824-.439-.929.239-4.349,1.813-4.116,2.964A18.481,18.481,0,0,1,379.955,509.928Z" transform="translate(-174.496 -321.24)" opacity="0.1"/>
      <path id="Path_2806" data-name="Path 2806" d="M371.1,524.244a5.139,5.139,0,0,1,2.125.222,32.5,32.5,0,0,0,7.831.862c2.013,0,4.182-.306,5.651-1.668Z" transform="translate(-174.701 -328.081)" opacity="0.1"/>
      <path id="Path_2807" data-name="Path 2807" d="M351.29,554.566a15.673,15.673,0,0,0,7.647,1.39,33.753,33.753,0,0,0,7.7-1.479,5.146,5.146,0,0,0,2.975-1.707Z" transform="translate(-165.908 -341.001)" opacity="0.1"/>
      <path id="Path_2808" data-name="Path 2808" d="M394.18,559.805a40.856,40.856,0,0,0,16.974,5.256q-4.522-1.813-9.11-3.431a65.98,65.98,0,0,0-9.594-2.57A4.877,4.877,0,0,1,394.18,559.805Z" transform="translate(-184.177 -343.793)" opacity="0.1"/>
      <path id="Path_2809" data-name="Path 2809" d="M406.866,553.29a14.341,14.341,0,0,0,3.165.172,1.8,1.8,0,0,0,1.546-.556,27.133,27.133,0,0,1-7.069-1.04c-.662-.156-1.852-.523-2.408-.128A15.285,15.285,0,0,0,406.866,553.29Z" transform="translate(-188.46 -340.465)" opacity="0.1"/>
      <path id="Path_2810" data-name="Path 2810" d="M433.487,636.548a22.985,22.985,0,0,0,7.436,8.854c-2.063-5.261-4.16-10.567-7.464-15.166-.834-1.157-2.08-2.814-3.6-3.026-.434,1.285.662,3.559,1.19,4.766A45.872,45.872,0,0,0,433.487,636.548Z" transform="translate(-200.737 -374.041)" opacity="0.1"/>
      <path id="Path_2811" data-name="Path 2811" d="M327.076,571.4a3.778,3.778,0,0,0,.35,2.6,1.88,1.88,0,0,0,1.057.729c-.267-.067-.556-2.681-.623-3.037-.122-.729,0-2.091-.517-2.631C327.21,569.828,327.16,570.617,327.076,571.4Z" transform="translate(-155.132 -348.231)" opacity="0.1"/>
      <path id="Path_2812" data-name="Path 2812" d="M331.957,570.266a5.929,5.929,0,0,0,2.781,3.765c-.973-1.2-1.29-2.781-2.136-4.1-.273-.423-.59-1.029-1.112-1.112Q331.688,569.554,331.957,570.266Z" transform="translate(-157.12 -348.125)" opacity="0.1"/>
      <path id="Path_2813" data-name="Path 2813" d="M322.584,541.981a6.947,6.947,0,0,1-5.506.7c-.417-.122-1.39-.556-1.157-1.168s1.363-.189,1.824-.134l2.419.306C320.61,541.737,322.223,542.193,322.584,541.981Z" transform="translate(-150.195 -335.858)" opacity="0.1"/>
      <path id="Path_2814" data-name="Path 2814" d="M313.21,549.655c1.14-.145,2.163.645,3.231,1.073a9.844,9.844,0,0,0,3.671.489,2.05,2.05,0,0,0,1.713-.556C318.927,550,316.219,549.271,313.21,549.655Z" transform="translate(-149.007 -339.571)" opacity="0.1"/>
      <path id="Path_2815" data-name="Path 2815" d="M319.97,317.58h.184l1.363,4.9-1.546,1.646Z" transform="translate(-142.019 -140.938)" fill="#a36468"/>
      <g id="Group_1391" data-name="Group 1391" transform="translate(145.316 137.306)" opacity="0.1">
        <path id="Path_2816" data-name="Path 2816" d="M283.55,419.76a11.477,11.477,0,0,0-.25,2.419,5.344,5.344,0,0,0,.15-.779C283.517,420.867,283.511,420.305,283.55,419.76Z" transform="translate(-281.047 -419.272)"/>
        <path id="Path_2817" data-name="Path 2817" d="M298.343,420a.979.979,0,0,1,.912,1.112c.261-.923.406-2.058-.729-2.225a3.819,3.819,0,0,0-2.859,1.7,15.56,15.56,0,0,0-.979,2.592,6.179,6.179,0,0,1-3.415,3.176,13.141,13.141,0,0,1-4.688.834c-2.358.072-4.967-.256-6.674-1.813a5.657,5.657,0,0,1-.662.6c1.668,1.985,4.561,2.38,7.158,2.3a13.137,13.137,0,0,0,4.683-.834,6.207,6.207,0,0,0,3.42-3.176,15.181,15.181,0,0,1,.973-2.586A3.793,3.793,0,0,1,298.343,420Z" transform="translate(-279.25 -418.882)"/>
        <path id="Path_2818" data-name="Path 2818" d="M354.652,448.016a3.943,3.943,0,0,1-2.408-.189,4.294,4.294,0,0,1-1.468-1.585q-1.3-2-2.608-4a10.733,10.733,0,0,0-2.647-3.126,3.694,3.694,0,0,0-3.893-.412,3.986,3.986,0,0,0-1.7,3.12v.15a3.515,3.515,0,0,1,1.518-2.18,3.708,3.708,0,0,1,3.893.412,10.912,10.912,0,0,1,2.653,3.126q1.3,2,2.608,4a4.2,4.2,0,0,0,1.468,1.585,3.927,3.927,0,0,0,2.4.189,24.662,24.662,0,0,0,3.793-.873,8.136,8.136,0,0,1-.678-.84A23.875,23.875,0,0,1,354.652,448.016Z" transform="translate(-306.182 -427.507)"/>
        <path id="Path_2819" data-name="Path 2819" d="M327.5,444.172a2.225,2.225,0,0,1-1.435.556l-1.668.228a1.2,1.2,0,0,1-1.535-.762c-1.385-2.514-2.341-5.623-4.939-6.83-1.6-.745-3.71-.7-4.738-2.13a4.093,4.093,0,0,1-.495-2.914c-.028.172-.067.339-.095.506a4.641,4.641,0,0,0,.406,3.5c1.029,1.435,3.142,1.385,4.738,2.13,2.6,1.207,3.559,4.316,4.944,6.83a1.591,1.591,0,0,0,.64.762,1.63,1.63,0,0,0,.9.039l1.668-.228a2.18,2.18,0,0,0,1.435-.556,2,2,0,0,0,.339-1.329h0A1.674,1.674,0,0,1,327.5,444.172Z" transform="translate(-293.983 -424.847)"/>
      </g>
      <path id="Path_2820" data-name="Path 2820" d="M750.555,647.034l-3.565-.5V593.91l.729.222,2.225.684v5.067l.028,2.286.05,4.705v6.418l.267,23.7v.634l.095,8.342v.128Z" transform="translate(-341.536 -359.261)" fill="#eaecf0"/>
      <path id="Path_2821" data-name="Path 2821" d="M755.065,648.027l-1.985-.278V646.67l-.095-8.342v-.634l-.267-23.7v-6.418l-.05-4.705-.028-2.286V595.52h2.141v6.8l.045,5.083v5.378h0l.206,24.871v.64l.067,8.27v.133Z" transform="translate(-344.044 -359.975)" fill="#d3dae1"/>
      <path id="Path_2822" data-name="Path 2822" d="M757,695.27Z" transform="translate(-345.979 -404.248)" fill="#d3dae1"/>
      <path id="Path_2823" data-name="Path 2823" d="M1143.373,582.18v45.427q-1.585,1.112-3.248,2.186l-.044-37.819v-4.016Z" transform="translate(-516.005 -354.054)" fill="#eaecf0"/>
      <path id="Path_2824" data-name="Path 2824" d="M1148.314,581v44.326c-.756.606-1.529,1.19-2.314,1.763V581.656Z" transform="translate(-518.633 -353.531)" fill="#d3dae1"/>
      <path id="Path_2825" data-name="Path 2825" d="M1053.976,661.829c-1.368.278-2.742.556-4.116.8l-.05-41.106v-1.78l3.965-1.668v3.771Z" transform="translate(-475.94 -369.984)" fill="#eaecf0"/>
      <path id="Path_2826" data-name="Path 2826" d="M1059.776,615.73v44.493c-.868.189-1.735.367-2.6.556l-.184-39.971v-3.771l.261-.122h0Z" transform="translate(-479.126 -368.945)" fill="#d3dae1"/>
      <path id="Path_2827" data-name="Path 2827" d="M634.821,635.561l-3.7-.373-.473-46.35V586.63h3.632v2.519Z" transform="translate(-289.9 -356.029)" fill="#eaecf0"/>
      <path id="Path_2828" data-name="Path 2828" d="M640.437,635.856l-2.781-.295-.556-46.412V586.63h2.809v2.764Z" transform="translate(-292.762 -356.029)" fill="#d3dae1"/>
      <path id="Path_2829" data-name="Path 2829" d="M1039.45,444.886l2.542-1.2V449.3l-2.475.829Z" transform="translate(-461.353 -196.911)" opacity="0.1"/>
      <path id="Path_2830" data-name="Path 2830" d="M1127.712,408.95v8.587l-2.308.773-3.3,1.1-.006-4.015,3.3-5.779Z" transform="translate(-498.036 -181.492)" opacity="0.1"/>
      <path id="Path_2831" data-name="Path 2831" d="M1090.815,379.27v23.776L1039.3,420.214l-.334-25.428Z" transform="translate(-461.14 -168.319)" fill="#d48a9b"/>
      <path id="Path_2832" data-name="Path 2832" d="M611.46,366.021l67.7-12.881,221.913,14.532-51.845,15.517Z" transform="translate(-271.394 -156.721)" fill="#efc6cd"/>
      <path id="Path_2833" data-name="Path 2833" d="M619.09,414.6l.022,2.759-2.8-.245-3.643-.311-.017-2.2Z" transform="translate(-271.922 -183.999)" opacity="0.1"/>
      <path id="Path_2834" data-name="Path 2834" d="M734.174,426.04l-2.141-.189-3-.256V421.88l2.97.9h2.147Z" transform="translate(-323.576 -187.231)" opacity="0.1"/>
      <path id="Path_2835" data-name="Path 2835" d="M611.46,376.3v22.124l238.1,20.472-.334-25.428Z" transform="translate(-271.394 -167)" fill="#d48a9b"/>
      <path id="Path_2836" data-name="Path 2836" d="M926.08,414.595h-31.1V403.31l31.1,2.191Z" transform="translate(-397.231 -178.989)" fill="#d48a9b"/>
      <path id="Path_2837" data-name="Path 2837" d="M926.08,414.595h-31.1V403.31l31.1,2.191Z" transform="translate(-397.231 -178.989)" opacity="0.1"/>
      <path id="Path_2838" data-name="Path 2838" d="M819.87,398.86V416.69l119.38,9.082V406.785l-46.562-2.642-4.627,4.127-18.987-1.318L862.3,402Z" transform="translate(-363.894 -177.013)" opacity="0.1"/>
      <path id="Path_2839" data-name="Path 2839" d="M818.68,397.67v17.836l119.38,9.077V405.6L891.5,402.954l-4.622,4.132-18.993-1.324-6.768-4.955Z" transform="translate(-363.366 -176.485)" fill="#fff"/>
      <path id="Path_2840" data-name="Path 2840" d="M683.989,389.06l28.236,1.985-.328,8.971H693.46l-12.33-4.844Z" transform="translate(-302.316 -172.664)" fill="#d48a9b"/>
      <path id="Path_2841" data-name="Path 2841" d="M683.989,389.06l28.236,1.985-.328,8.971H693.46l-12.33-4.844Z" transform="translate(-302.316 -172.664)" opacity="0.1"/>
      <path id="Path_2842" data-name="Path 2842" d="M618.59,384.61v16.017L726.9,409.215V392.207l-41.773-2.48-4.46,3.3-16.841-.99-6.935-4.294Z" transform="translate(-274.558 -170.689)" opacity="0.1"/>
      <path id="Path_2843" data-name="Path 2843" d="M617.4,383.42v16.017l108.312,8.587V391.017l-41.773-2.475-4.455,3.3-16.846-.99-6.935-4.294Z" transform="translate(-274.03 -170.161)" fill="#fff"/>
      <path id="Path_2844" data-name="Path 2844" d="M1016.356,383.53l15.183,1-25.155,7.53-12.814-.923Z" transform="translate(-440.989 -170.209)" opacity="0.1"/>
      <path id="Path_2845" data-name="Path 2845" d="M1016.356,382.35l15.183.99-25.155,7.53-12.814-.923Z" transform="translate(-440.989 -169.686)" fill="#fff"/>
      <path id="Path_2846" data-name="Path 2846" d="M1049.24,557.389c.6-.261,1.24.222,1.88.345.361.072.74,0,1.112.072.745.1,1.479.6,2.191.345Z" transform="translate(-475.687 -343.017)" fill="#d3dae1"/>
      <path id="Path_2847" data-name="Path 2847" d="M1047.83,558.2c.6-.256,1.235.228,1.874.35.367.067.745,0,1.112.067.74.1,1.479.6,2.191.35Z" transform="translate(-475.061 -343.379)" fill="#d3dae1"/>
      <path id="Path_2848" data-name="Path 2848" d="M1044.59,559.841c.6-.256,1.235.222,1.874.345.367.072.74,0,1.112.072.745.1,1.485.6,2.191.345Z" transform="translate(-473.623 -344.106)" fill="#d3dae1"/>
      <path id="Path_2849" data-name="Path 2849" d="M841.908,368.55l33.854,2.219-7.213,10.361-37.218-3.977Z" transform="translate(-368.981 -163.561)" opacity="0.1"/>
      <path id="Path_2850" data-name="Path 2850" d="M840.714,367.36l33.853,2.214-7.213,10.367-37.224-3.977Z" transform="translate(-368.448 -163.033)" fill="#3a3768"/>
      <path id="Path_2851" data-name="Path 2851" d="M844.477,368.73,874,370.538l-6.29,8.443-32.463-3.242Z" transform="translate(-370.721 -163.641)" fill="#d5e1f4"/>
      <path id="Path_2852" data-name="Path 2852" d="M757,695.27Z" transform="translate(-345.979 -404.248)" fill="#3a3768"/>
      <path id="Path_2853" data-name="Path 2853" d="M757,695.27Z" transform="translate(-345.979 -404.248)" opacity="0.1"/>
      <path id="Path_2854" data-name="Path 2854" d="M756.54,695.27Z" transform="translate(-345.775 -404.248)" fill="#3a3768"/>
      <path id="Path_2855" data-name="Path 2855" d="M757.787,631.012a2.707,2.707,0,0,1-.028.473,3.188,3.188,0,0,1-.045.417,9.4,9.4,0,0,1-.806,2.831h0c-13.987-1.574-28.008-3.465-42.046-5.406l-1.985-.278-3.565-.495-3-.417h0a72.327,72.327,0,0,1-9.811-.918,50.749,50.749,0,0,1-6.062-1.279c-8.9-1.218-17.847-2.391-26.768-3.459l-1.162-.139c.211-.946.389-1.518.389-1.518s1.913-7.519,3.5-15.923c.35-1.824.684-3.682.973-5.523.234-1.474.445-2.931.623-4.332.1-.773.184-1.529.256-2.269.039-.367.072-.734.1-1.112s.061-.79.089-1.173.039-.723.056-1.073v-.523c0-.751,0-1.535-.028-2.341a68.956,68.956,0,0,0-1.891-11.907c-.156-.667-.317-1.335-.484-1.985-.05-.211-.106-.417-.161-.623-1.8-6.958-3.893-12.642-3.893-12.642a.611.611,0,0,1,0-.095.321.321,0,0,0,0-.067,1.39,1.39,0,0,0,0-.139v-.99a8.516,8.516,0,0,1,.3-1.724,6.256,6.256,0,0,1,.211-.59,3.665,3.665,0,0,1,2.5-2.314h0c1.574-.406,3.954,0,7.547,2.13a13,13,0,0,1,1.668,1.146,7.061,7.061,0,0,1,.779.673c4.116,3.832,6.307,10.156,7.475,15.928.045.206.083.411.122.617.139.712.256,1.407.361,2.091.189,1.2.339,2.358.451,3.432,0,.289.061.556.089.851s.056.556.072.823c.072.868.122,1.669.156,2.347.095,1.8.078,2.909.078,2.909v.056a1.522,1.522,0,0,1-.028.239.1.1,0,0,0,0,.044c0,.067,0,.15,0,.245v.256q-.034.35-.083.818c-.05.478-.106,1.04-.172,1.668-.045.467-.1.973-.156,1.507-.122,1.112-.256,2.4-.4,3.76-.033.256-.061.512-.089.767-.128,1.162-.261,2.375-.4,3.6h0c-.15,1.39-.317,2.781-.478,4.154-.039.3-.078.6-.111.9-.411,3.337-.823,6.368-1.157,8.253a7.816,7.816,0,0,0-.111.845,2.567,2.567,0,0,0,0,.289,5.708,5.708,0,0,0,0,.756c.273,4.75,5.406,5.562,5.406,5.562l23.309-.462,3.459-.067,2.013-.039,18.17-.362h0l1.668-.033,9.038-.178a6.461,6.461,0,0,1,1.819.217,28.875,28.875,0,0,1,7.9,3.454,9.279,9.279,0,0,1,2.041,1.78.59.59,0,0,1,.078.089,9.622,9.622,0,0,1,2.186,5.206v.384A5.006,5.006,0,0,1,757.787,631.012Z" transform="translate(-303.83 -341.253)" fill="#3a3768"/>
      <path id="Path_2856" data-name="Path 2856" d="M756.54,695.27Z" transform="translate(-345.775 -404.248)" opacity="0.1"/>
      <path id="Path_2857" data-name="Path 2857" d="M757.788,630.975a2.7,2.7,0,0,1-.028.473,3.2,3.2,0,0,1-.044.417,9.733,9.733,0,0,1-.834,2.831c-13.987-1.574-28.008-3.465-42.046-5.406l-1.985-.278-3.565-.495-3-.417h0a72.345,72.345,0,0,1-9.811-.918,50.762,50.762,0,0,1-6.062-1.279c-8.9-1.218-17.847-2.391-26.768-3.459l-1.162-.139h0c.211-.979.4-1.574.4-1.574s1.563-6.118,3.048-13.531h0c.106-.512.206-1.023.306-1.541l.15-.784c.345-1.819.679-3.687.973-5.523.234-1.474.445-2.931.623-4.332.1-.773.184-1.529.256-2.269.039-.367.072-.734.1-1.112s.061-.79.089-1.174.039-.723.056-1.073v-.523c0-.751,0-1.535-.028-2.341a68.415,68.415,0,0,0-1.874-11.907q-.234-1.012-.484-1.985c-.056-.211-.106-.417-.161-.623-1.8-6.98-3.893-12.7-3.893-12.7a.173.173,0,0,0,0-.039.313.313,0,0,0,0-.067,1.321,1.321,0,0,0,0-.139v-.99a8.542,8.542,0,0,1,.284-1.724c.061-.195.128-.395.206-.59a3.676,3.676,0,0,1,2.636-2.4c1.574-.367,3.926.089,7.441,2.147a13.475,13.475,0,0,1,1.735,1.212h0c.261.217.512.434.756.667,4.082,3.854,6.257,10.167,7.414,15.923.044.206.083.417.122.623.139.706.256,1.407.362,2.086.189,1.2.334,2.353.445,3.42.028.295.061.584.083.862s.056.556.072.823c.072.868.122,1.668.156,2.347.095,1.8.078,2.909.078,2.909v.295a.105.105,0,0,0,0,.044v.5q-.033.35-.083.818c-.05.478-.106,1.04-.172,1.669-.056.462-.106.968-.161,1.507-.122,1.112-.256,2.4-.4,3.76-.033.256-.061.512-.089.767-.128,1.162-.267,2.386-.4,3.609h0c-.161,1.39-.323,2.781-.489,4.149-.039.3-.072.6-.111.9-.406,3.337-.812,6.323-1.146,8.2a7.736,7.736,0,0,0-.111.907,2.6,2.6,0,0,0,0,.289,5.707,5.707,0,0,0,0,.756c.317,4.694,5.406,5.478,5.406,5.478l23.309-.456,3.454-.072,2.019-.039,18.2-.356,1.7-.033,9-.178a6.086,6.086,0,0,1,1.819.217,28.55,28.55,0,0,1,7.959,3.42,9.167,9.167,0,0,1,2.069,1.813.6.6,0,0,1,.078.089,9.527,9.527,0,0,1,2.158,5.228q0,.192,0,.384A6.457,6.457,0,0,0,757.788,630.975Z" transform="translate(-303.832 -341.215)" opacity="0.1"/>
      <path id="Path_2858" data-name="Path 2858" d="M756.54,695.27Z" transform="translate(-345.775 -404.248)" fill="#3a3768"/>
      <path id="Path_2859" data-name="Path 2859" d="M758.858,634.266l-.918-.106h0c-13.987-1.574-28.008-3.465-42.046-5.406l-1.985-.278-3.565-.5-3-.417h0a72.347,72.347,0,0,1-9.811-.918,50.747,50.747,0,0,1-6.062-1.279c-8.9-1.218-17.847-2.391-26.768-3.459a22.745,22.745,0,0,1,.556-2.314s5.284-20.806,5.612-31.868a57.413,57.413,0,0,0-1.73-13.515h0c-.156-.673-.311-1.34-.478-2l-.15-.623c-1.885-7.314-4.127-13.431-4.127-13.431a9.039,9.039,0,0,1,.128-2.264,6.08,6.08,0,0,1,.134-.6,4.538,4.538,0,0,1,1.435-2.4h0a.732.732,0,0,1,.106-.078c1.463-1.112,4.088-1.19,8.76,1.546a13.7,13.7,0,0,1,2.608,2c.222.211.445.434.656.662,3.754,4.065,5.745,10.294,6.791,15.867l.117.617c.122.7.228,1.379.328,2.041v.056h0c.128.879.234,1.719.323,2.519h0a66.34,66.34,0,0,1,.4,7.1s-.217,2.2-.556,5.361c-.128,1.24-.278,2.631-.439,4.1v.223l-.083.779c-.284,2.564-.6,5.3-.912,7.836-.033.311-.072.617-.111.918-.356,2.853-.712,5.389-1.007,7.041-1.157,6.44,5.284,7.43,5.284,7.43l21.991-.434,3.448-.067,2.019-.044h1.118l17.441-.345h1.668l10.011-.2a6.247,6.247,0,0,1,1.819.223,28.687,28.687,0,0,1,7.964,3.415,9.455,9.455,0,0,1,1.874,1.591.9.9,0,0,1,.095.111A9.633,9.633,0,0,1,758.858,634.266Z" transform="translate(-304.862 -340.703)" fill="#3a3768"/>
      <path id="Path_2860" data-name="Path 2860" d="M955.824,347.05l6.8,14.571h-1.14l-7.975-14.4Z" transform="translate(-423.209 -154.018)" fill="#4c4c56"/>
      <path id="Path_2861" data-name="Path 2861" d="M955.824,347.05l6.8,14.571h-1.14l-7.975-14.4Z" transform="translate(-423.209 -154.018)" opacity="0.1"/>
      <path id="Path_2862" data-name="Path 2862" d="M957.67,373.25h6.8v1.524l-6.8.172Z" transform="translate(-425.055 -165.647)" fill="#4c4c56"/>
      <path id="Path_2863" data-name="Path 2863" d="M957.67,373.25h6.8v1.524l-6.8.172Z" transform="translate(-425.055 -165.647)" opacity="0.1"/>
      <path id="Path_2864" data-name="Path 2864" d="M880.5,419.656v50.883a3.776,3.776,0,0,0,3.776,3.776h84.814a3.754,3.754,0,0,0,3.754-3.826l-.962-50.928a3.754,3.754,0,0,0-3.754-3.682H884.276A3.776,3.776,0,0,0,880.5,419.656Z" transform="translate(-400.793 -280.244)" fill="#4c4c56"/>
      <path id="Path_2865" data-name="Path 2865" d="M880.5,419.656v50.883a3.776,3.776,0,0,0,3.776,3.776h84.814a3.754,3.754,0,0,0,3.754-3.826l-.962-50.928a3.754,3.754,0,0,0-3.754-3.682H884.276A3.776,3.776,0,0,0,880.5,419.656Z" transform="translate(-400.793 -280.244)" opacity="0.1"/>
      <path id="Path_2866" data-name="Path 2866" d="M875,419.656v50.883a3.776,3.776,0,0,0,3.776,3.776h84.814a3.749,3.749,0,0,0,3.749-3.826l-.962-50.928a3.754,3.754,0,0,0-3.749-3.682H878.8a3.776,3.776,0,0,0-3.8,3.776Z" transform="translate(-398.352 -280.244)" fill="#4c4c56"/>
      <path id="Path_2867" data-name="Path 2867" d="M881,425.376v44.8a3.776,3.776,0,0,0,3.776,3.776h78.535a3.754,3.754,0,0,0,3.754-3.754V425.349a3.754,3.754,0,0,0-3.754-3.749H884.776A3.776,3.776,0,0,0,881,425.376Z" transform="translate(-401.015 -282.783)" fill="none"/>
      <path id="Path_2868" data-name="Path 2868" d="M924.14,345.769l7.458,14.366H948.45L940.024,343.7Z" transform="translate(-410.174 -152.531)" fill="#4c4c56"/>
      <path id="Path_2869" data-name="Path 2869" d="M912.466,373.25l-1.246,1.524h25.834V373.25Z" transform="translate(-404.439 -165.647)" fill="#4c4c56"/>
      <path id="Path_2870" data-name="Path 2870" d="M714.687,420.759c-1.852-5.206-1.841-10.984-4.088-16.029a19.516,19.516,0,0,1-.94-2.225,6.516,6.516,0,0,1-.256-1.452l-.139.033-.139.039-.139.056h0l-.128.078a4.863,4.863,0,0,0,.128.489,18.72,18.72,0,0,0,.951,2.225c2.291,5.072,2.275,10.873,4.16,16.129a1.514,1.514,0,0,0,.35.617.83.83,0,0,0,.284.172C714.715,420.831,714.7,420.8,714.687,420.759Zm0,0c-1.852-5.206-1.841-10.984-4.088-16.029a19.516,19.516,0,0,1-.94-2.225,6.516,6.516,0,0,1-.256-1.452l-.139.033-.139.039-.139.056h0l-.128.078a4.863,4.863,0,0,0,.128.489,18.72,18.72,0,0,0,.951,2.225c2.291,5.072,2.275,10.873,4.16,16.129a1.514,1.514,0,0,0,.35.617.83.83,0,0,0,.284.172C714.715,420.831,714.7,420.8,714.687,420.759Zm0,0c-1.852-5.206-1.841-10.984-4.088-16.029a19.516,19.516,0,0,1-.94-2.225,6.516,6.516,0,0,1-.256-1.452l-.139.033-.139.039-.139.056h0l-.128.078a4.863,4.863,0,0,0,.128.489,18.72,18.72,0,0,0,.951,2.225c2.291,5.072,2.275,10.873,4.16,16.129a1.514,1.514,0,0,0,.35.617.83.83,0,0,0,.284.172C714.715,420.831,714.7,420.8,714.687,420.759Zm0,0c-1.852-5.206-1.841-10.984-4.088-16.029a19.516,19.516,0,0,1-.94-2.225,6.516,6.516,0,0,1-.256-1.452l-.139.033-.139.039-.139.056h0l-.128.078a4.863,4.863,0,0,0,.128.489,18.72,18.72,0,0,0,.951,2.225c2.291,5.072,2.275,10.873,4.16,16.129a1.514,1.514,0,0,0,.35.617.83.83,0,0,0,.284.172C714.715,420.831,714.7,420.8,714.687,420.759Zm0,0c-1.852-5.206-1.841-10.984-4.088-16.029a19.516,19.516,0,0,1-.94-2.225,6.516,6.516,0,0,1-.256-1.452l-.139.033-.139.039-.139.056h0l-.128.078a4.863,4.863,0,0,0,.128.489,18.72,18.72,0,0,0,.951,2.225c2.291,5.072,2.275,10.873,4.16,16.129a1.514,1.514,0,0,0,.35.617.83.83,0,0,0,.284.172C714.715,420.831,714.7,420.8,714.687,420.759Zm0,0c-1.852-5.206-1.841-10.984-4.088-16.029a19.516,19.516,0,0,1-.94-2.225,6.516,6.516,0,0,1-.256-1.452l-.139.033-.139.039-.139.056h0l-.128.078a4.863,4.863,0,0,0,.128.489,18.72,18.72,0,0,0,.951,2.225c2.291,5.072,2.275,10.873,4.16,16.129a1.514,1.514,0,0,0,.35.617.83.83,0,0,0,.284.172C714.715,420.831,714.7,420.8,714.687,420.759Zm0,0c-1.852-5.206-1.841-10.984-4.088-16.029a19.516,19.516,0,0,1-.94-2.225,6.516,6.516,0,0,1-.256-1.452l-.139.033-.139.039-.139.056h0l-.128.078a4.863,4.863,0,0,0,.128.489,18.72,18.72,0,0,0,.951,2.225c2.291,5.072,2.275,10.873,4.16,16.129a1.514,1.514,0,0,0,.35.617.83.83,0,0,0,.284.172C714.715,420.831,714.7,420.8,714.687,420.759Zm96.633,51.834h0l-.428-.078.556-.122h0a.85.85,0,0,0,.161-.039h0c.617-.133,1.229-.284,1.83-.445h0l.628-.178h0l.089-.028c5.183-1.529-.862-2.937-8.548-3.982h-.022c-8.3-1.112-18.476-1.841-18.476-1.841l-3.187.423H783.9c-3.893.512-10.039,1.357-11.018,1.668-1.19.395-11.29.879-14.811,1.034a1.535,1.535,0,0,0-.523-.556l-10.383-.478V469.4h0l-.078-.033a14.244,14.244,0,0,0-1.407-5.562l-.078-.156c-2.681-5.083-3.22-6.357-3.22-6.357h0a1.044,1.044,0,0,0-.072-.272c-.9-3.126-4.221-8.559-9.85-16.357l-.195-.273-.706-3.459-.122-.606h-3.543a46.327,46.327,0,0,1,2.458-8.793c.072-.178.145-.356.222-.528l.044-.1c.078-.184.167-.367.25-.556h.617a16.924,16.924,0,0,0,16.262-15.739.109.109,0,0,0,0-.045q.033-.517.033-1.034a16.557,16.557,0,0,0-2.225-8.342c-.044-.078-.089-.156-.139-.234l-.089-.15-.2-.311c1.268-.3,2.781.278,3.893-.434a2.848,2.848,0,0,0,.951-1.146,5.955,5.955,0,0,0,.556-1.668h0a.569.569,0,0,0,0-.095.073.073,0,0,0,0-.033,6.582,6.582,0,0,0,.083-1.146,6.175,6.175,0,0,0-.389-2.314,6.374,6.374,0,0,0-3.582-3.593,24.263,24.263,0,0,0-2.6-.706c-3.559-.951-6.568-3.3-10.011-4.605a18.159,18.159,0,0,0-7.5-1.157,10.734,10.734,0,0,0-4.449,1.112,19.05,19.05,0,0,0-2.97,2.152c-2.475,1.952-5.284,3.621-7.436,5.951a13.32,13.32,0,0,0-1.079,1.335c-.189.272-.362.556-.556.834a1.49,1.49,0,0,0-1.34-.556h0a2.183,2.183,0,0,0-.273,0,5.4,5.4,0,0,0-.69.072c-.556.095-4.7,1.19-4.7,1.757a19.571,19.571,0,0,0-4.761,2.925c-3.337,3.053-4.082,7.892-4.5,12.352a114.475,114.475,0,0,0-.556,15.572c.078,1.891.228,3.782.139,5.673a42.192,42.192,0,0,1-.984,6.607q-.717,3.393-1.552,6.763c-.267,1.112-.7,2.353-1.785,2.7l.406.056a1.956,1.956,0,0,1-.406.195,12.145,12.145,0,0,0,1.413.139h.328a3.838,3.838,0,0,0,.8-.095,2.97,2.97,0,0,0,1.007-.467c.044-.111.083-.222.122-.339a1.88,1.88,0,0,0,.667-1.034,7.362,7.362,0,0,1-.111,1.88,1.188,1.188,0,0,1-.056.272,7.675,7.675,0,0,1-1.913,3.626l.556-.423a8.184,8.184,0,0,1-.556.673q1.2-.9,2.4-1.841h0a1.153,1.153,0,0,0,.139-.106h0l1.368-1.079v1.079h0v.25c-.111,3.838-.273,13.264.6,15.517.05.133.106.267.15.395,1,2.564,1.424,3.671,1.3,5.005-.089.929.606,3.587.99,5.7a7.074,7.074,0,0,1,.178,2.575,3.672,3.672,0,0,0,.1,1.535c.05.245.111.506.178.779a1.2,1.2,0,0,0,.072.295c.506,2.024,1.224,4.527.473,5.523a4.408,4.408,0,0,0-.556,1.112c-.617,1.669-.717,3.949-1.429,4.872a4.565,4.565,0,0,0-.489,3.226.1.1,0,0,1,0,.028s-.039.217-.117.556c-.095.467-.245,1.185-.434,1.98v.056a28.282,28.282,0,0,1-.962,3.3h0c-.284.756-.556,1.3-.873,1.407-1.112.406-1.668,5.628-1.668,5.628s-2.547,4.132-2.063,5.15a6.815,6.815,0,0,0,.361.684l-.245.378c-1.363,2.186-3.337,6.157-1.424,8.292a9.453,9.453,0,0,0,2.28,1.741c-.1.223-.206.462-.317.723-2.1,4.927-5.339,16.373,7.113,21.2a39.493,39.493,0,0,0,3.776,1.24,50.759,50.759,0,0,0,6.062,1.279,74.3,74.3,0,0,0,8.9.8c1.324.044,2.631.056,3.893.044s2.408-.039,3.554-.089q1.018-.039,1.985-.1a103.854,103.854,0,0,0,11.418-1.251l17.8-3.187s7.475.267,10.228,1.846l.083.05s.451-.261,1.207-.773h0c.328-.222.717-.489,1.146-.806a37.572,37.572,0,0,0,10.606-11.8l.061-.106.606-.078h.139l.434-.061.9-.128h.161c2.252-.328,4.383-.69,4.383-.69s.083,2.486.184,5.367c.033.879.061,1.8.095,2.686.106,3.048.2,5.818.2,5.912s2.291,6.118,4.855,12.191l2,.161q7.931.634,15.856,1.051l1.974.1,1.235.061c-.89-5.389-1.591-10.528-1.591-10.528l-3.3-15.389s-.345-3.187-2.82-17.352c-2-11.479-13.793-10.461-18.209-9.655-.451.083-.818.161-1.112.222v-.862s-8.47.712-16.129,1.057l-1.863.078c-1.774.067-3.459.106-4.939.106a36.145,36.145,0,0,1-3.893-.156c-5.912-.678-12.653,1.352-12.653,1.352s-8.615,1.4-9.766.884a2.965,2.965,0,0,0-.973-.2h-.556a.89.89,0,0,0,.556-.99c-.345-1.424-.484-3.393.484-4.75.423-.6,1.112-1.546,1.73-2.408l1.5-2.063v-.161l.039-.606.362-5.406.868-5.005.056-.317.078-.445.056-.323.167.056h0c2.464.856,5.256,1.457,7.23.767h.039a3.314,3.314,0,0,0,.456-.195h.089v.373l.033.651,9.282-.506h.139s.362-1.791.751-4.26c.028-.2.061-.406.095-.617s.083-.556.122-.812a3.363,3.363,0,0,1,.056-.395h.556c4.3-.156,10.311-.523,12.758-1.413h0a2.779,2.779,0,0,0,.84-.45c1.04-.9,4.772-2.191,8.437-3.3h0l1.463-.434c1.062-.311,2.086-.6,2.992-.856,2.1-.556,3.6-.968,3.6-.968s14.46,1.34,25.261-1.78h0l.178-.05C818.678,474.6,816.153,473.51,811.32,472.593Zm-102.606-72.3a3.02,3.02,0,0,0,.061.495h0a1.4,1.4,0,0,0,.033.211.383.383,0,0,0,.044.217,4.865,4.865,0,0,0,.128.489,18.733,18.733,0,0,0,.951,2.225c2.291,5.072,2.275,10.873,4.16,16.129a1.512,1.512,0,0,0,.35.617.828.828,0,0,0,.284.172l.133.045h.156l-.061.106a.564.564,0,0,1-.045.078l-.039.061c-.745,1.257-1.541,2.492-2.341,3.582a5.229,5.229,0,0,0-1.93.79l-.311.206-.133.1c-.195-.957-.462-1.9-.706-2.848a65.725,65.725,0,0,1-2.147-15.428v-1.051c0-1.346.033-2.686.117-4.032a3.336,3.336,0,0,1,.473-1.769h0a1.218,1.218,0,0,1,.823-.4Zm5.973,20.472c-1.852-5.206-1.841-10.984-4.088-16.029a19.515,19.515,0,0,1-.94-2.225,6.517,6.517,0,0,1-.256-1.452l-.139.033-.139.039-.139.056h0l-.128.078a4.867,4.867,0,0,0,.128.489,18.722,18.722,0,0,0,.951,2.225c2.291,5.072,2.275,10.873,4.16,16.129a1.514,1.514,0,0,0,.35.617.83.83,0,0,0,.284.172c-.017-.067-.033-.1-.044-.139Zm0,0c-1.852-5.206-1.841-10.984-4.088-16.029a19.515,19.515,0,0,1-.94-2.225,6.517,6.517,0,0,1-.256-1.452l-.139.033-.139.039-.139.056h0l-.128.078a4.867,4.867,0,0,0,.128.489,18.722,18.722,0,0,0,.951,2.225c2.291,5.072,2.275,10.873,4.16,16.129a1.514,1.514,0,0,0,.35.617.83.83,0,0,0,.284.172c-.017-.067-.033-.1-.044-.139Zm0,0c-1.852-5.206-1.841-10.984-4.088-16.029a19.515,19.515,0,0,1-.94-2.225,6.517,6.517,0,0,1-.256-1.452l-.139.033-.139.039-.139.056h0l-.128.078a4.867,4.867,0,0,0,.128.489,18.722,18.722,0,0,0,.951,2.225c2.291,5.072,2.275,10.873,4.16,16.129a1.514,1.514,0,0,0,.35.617.83.83,0,0,0,.284.172c-.017-.067-.033-.1-.044-.139Zm0,0c-1.852-5.206-1.841-10.984-4.088-16.029a19.515,19.515,0,0,1-.94-2.225,6.517,6.517,0,0,1-.256-1.452l-.139.033-.139.039-.139.056h0l-.128.078a4.867,4.867,0,0,0,.128.489,18.722,18.722,0,0,0,.951,2.225c2.291,5.072,2.275,10.873,4.16,16.129a1.514,1.514,0,0,0,.35.617.83.83,0,0,0,.284.172c-.017-.067-.033-.1-.044-.139Zm0,0c-1.852-5.206-1.841-10.984-4.088-16.029a19.515,19.515,0,0,1-.94-2.225,6.517,6.517,0,0,1-.256-1.452l-.139.033-.139.039-.139.056h0l-.128.078a4.867,4.867,0,0,0,.128.489,18.722,18.722,0,0,0,.951,2.225c2.291,5.072,2.275,10.873,4.16,16.129a1.514,1.514,0,0,0,.35.617.83.83,0,0,0,.284.172c-.017-.067-.033-.1-.044-.139Zm0,0c-1.852-5.206-1.841-10.984-4.088-16.029a19.515,19.515,0,0,1-.94-2.225,6.517,6.517,0,0,1-.256-1.452l-.139.033-.139.039-.139.056h0l-.128.078a4.867,4.867,0,0,0,.128.489,18.722,18.722,0,0,0,.951,2.225c2.291,5.072,2.275,10.873,4.16,16.129a1.514,1.514,0,0,0,.35.617.83.83,0,0,0,.284.172c-.017-.067-.033-.1-.044-.139Z" transform="translate(-315.59 -265.901)" fill="url(#linear-gradient-2)"/>
      <path id="Path_2871" data-name="Path 2871" d="M750.491,447.507a12.973,12.973,0,0,0-2.136,3.3c-.083.183-.167.361-.245.556-2.458,5.562-3.292,13.431-3.292,13.431s-1.524-.684-3.682-1.752c-4.021-1.991-10.228-5.306-12.736-7.948-1.112-1.2-1.513-2.252-.59-2.992a6.851,6.851,0,0,0,.612-.556,17.693,17.693,0,0,0,1.941-2.3c.8-1.112,1.591-2.353,2.336-3.626.439-.745.856-1.5,1.246-2.225l.156-.289c1.668-3.165,2.886-5.867,2.886-5.867s.556.178,1.457.5C742.6,439.22,754.039,443.73,750.491,447.507Z" transform="translate(-332.796 -289.724)" fill="#efb7b9"/>
      <path id="Path_2872" data-name="Path 2872" d="M879.942,653.367s.678,5.039,1.541,10.356l-1.974-.1q-7.92-.412-15.856-1.051c-3-6.958-6.118-15.217-6.118-15.344s-.095-2.848-.2-5.884c-.033-1.068-.072-2.169-.106-3.2h0c-.056-1.568-.106-2.981-.133-3.86,0-.6-.033-.957-.033-.957s-2.859.5-5.428.851l-1.14.15c-.59.072-1.112.128-1.585.161a4.08,4.08,0,0,1-1.229,0c-.879-.339.945-8.9.945-8.9l4.538-10.984,1.268-3.059.556-.139c.273-.067.64-.145,1.079-.228,4.332-.8,15.906-1.807,17.869,9.616,2.43,14.11,2.781,17.28,2.781,17.28Z" transform="translate(-386.12 -366.728)" fill="#efb7b9"/>
      <path id="Path_2873" data-name="Path 2873" d="M912.674,728h-.017Z" transform="translate(-414.463 -418.775)" fill="#efb7b9"/>
      <path id="Path_2874" data-name="Path 2874" d="M879.942,653.367s.678,5.039,1.541,10.356l-1.974-.1q-7.92-.412-15.856-1.051c-3-6.958-6.118-15.217-6.118-15.344s-.095-2.848-.2-5.884c-.033-1.068-.072-2.169-.106-3.2h0c-.056-1.568-.106-2.981-.133-3.86,0-.6-.033-.957-.033-.957s-2.859.5-5.428.851l-1.14.15c-.59.072-1.112.128-1.585.161a4.08,4.08,0,0,1-1.229,0c-.879-.339.945-8.9.945-8.9l4.538-10.984,1.268-3.059.556-.139c.273-.067.64-.145,1.079-.228,4.332-.8,15.906-1.807,17.869,9.616,2.43,14.11,2.781,17.28,2.781,17.28Z" transform="translate(-386.12 -366.728)" opacity="0.05"/>
      <path id="Path_2875" data-name="Path 2875" d="M912.674,728h-.017Z" transform="translate(-414.463 -418.775)" opacity="0.05"/>
      <path id="Path_2876" data-name="Path 2876" d="M878.323,666.077q-7.92-.412-15.856-1.051l-2-.161-.884-.072c-2.492-6.012-4.705-11.891-4.705-12s-.094-2.848-.2-5.884c-.128-3.793-.272-8.02-.272-8.02l-.373.061-.156.028h-.2l-.9.15-.489.078c-.884.145-1.952.306-3,.456l-.234.033-.612.078-.556.067h0c-.428.056-.834.1-1.2.133l-.451.039a3.894,3.894,0,0,1-1.229,0c-.879-.339.945-8.9.945-8.9l5.806-14.043.2-.056c.306-.078.951-.228,1.824-.378.328-.056.69-.111,1.079-.161,5.039-.645,14.627-.462,16.4,9.844,2.43,14.11,2.781,17.28,2.781,17.28l3.242,15.339S877.711,662.112,878.323,666.077Z" transform="translate(-384.934 -369.183)" fill="#efb7b9"/>
      <path id="Path_2877" data-name="Path 2877" d="M855.856,663.2c-.128-3.793-.272-8.025-.272-8.025s-5.562.973-8.153,1.162l.523-1.769s9.521-2.631,9.722-1.146C857.819,654.467,856.6,660,855.856,663.2Z" transform="translate(-386.115 -385.475)" opacity="0.1"/>
      <path id="Path_2878" data-name="Path 2878" d="M854.884,611.48V615.5s-.473,7.23-4.188,18.292c-.078.239-.161.473-.25.706a25.225,25.225,0,0,1-1.379,3.1c-1.046.145-2.058.267-2.809.323a4.068,4.068,0,0,1-1.229,0c-.879-.339.94-8.9.94-8.9l5.806-14.037.206-.056,1.263-3.065A14.656,14.656,0,0,1,854.884,611.48Z" transform="translate(-384.943 -367.059)" opacity="0.1"/>
      <path id="Path_2879" data-name="Path 2879" d="M785.9,610.34V615s-.473,7.23-4.188,18.3c-.094.289-.2.556-.306.851s-.245.645-.384.957c-.306.74-.651,1.457-1.012,2.147h0a37.145,37.145,0,0,1-10.155,11.624c-.412.317-.8.6-1.112.829h-.028c-.556.378-.957.651-1.212.812s-.278.172-.278.172c-2.636-1.618-10.128-1.891-10.128-1.891l-17.486,3.176a101.355,101.355,0,0,1-11.551,1.313l-1.986.094c-1.146.044-2.336.072-3.554.078-.984,0-1.985,0-3-.039h0a72.355,72.355,0,0,1-9.811-.918,49,49,0,0,1-5.295-1.173,37.265,37.265,0,0,1-3.665-1.224c-12.236-4.805-9.049-16.2-6.985-21.134.111-.261.217-.5.317-.723.456-1.007.8-1.6.8-1.6l.812-1.963h0l1.329-3.22.295-.706.083-.206.984-2.386,13.9-1.8,10.217-1.324,3.109-.4,2.108-.273,4.021-.523,1.513-.195a18.826,18.826,0,0,1,2.82-.222,3.941,3.941,0,0,1,1.5.222c1.112.506,9.588-.879,9.588-.879s6.613-2.024,12.419-1.351a69.1,69.1,0,0,0,8.626.056h0l.712-.033.923-.039h.2C777.555,611.052,785.9,610.34,785.9,610.34Z" transform="translate(-317.035 -366.553)" fill="#444053"/>
      <path id="Path_2880" data-name="Path 2880" d="M765.339,634.976s-6.674,15.189-6.952,15.456-.267,5.005,0,4.727,9.521-20.789,9.521-20.789Z" transform="translate(-346.504 -377.218)" opacity="0.1"/>
      <path id="Path_2881" data-name="Path 2881" d="M811.469,612.307s-3.376,2.18-4.388,3.938-10.261,19.238-12.552,21.8a56,56,0,0,0-5.133,7.3c-.267.462-.267,3.365,1.351.6s1.218-3.237,4.388-6.674,6.674-11.207,8.031-12.758,3.242-6.212,5.606-8.982l4.527-5.289Z" transform="translate(-360.298 -367.396)" opacity="0.1"/>
      <path id="Path_2882" data-name="Path 2882" d="M826.632,665.914s-2.364-1.618-4.588,1.146S826.632,665.914,826.632,665.914Z" transform="translate(-374.65 -391.01)" opacity="0.1"/>
      <path id="Path_2883" data-name="Path 2883" d="M833.434,667.79s-1.958,3.415-2.9,3.687S833.434,667.79,833.434,667.79Z" transform="translate(-378.548 -392.052)" opacity="0.1"/>
      <path id="Path_2884" data-name="Path 2884" d="M828.333,669.32s-1.552,2.7-2.9,2.43Z" transform="translate(-376.351 -392.731)" opacity="0.1"/>
      <path id="Path_2885" data-name="Path 2885" d="M808.63,535.58s14.31-.606,15.728-1.079,13.971-2.091,13.971-2.091,37.2,2.631,26.6,5.806-24.977,1.819-24.977,1.819-14.043,3.648-16.2,5.562-18.092,1.958-18.092,1.958Z" transform="translate(-367.576 -331.964)" fill="#efb7b9"/>
      <path id="Path_2886" data-name="Path 2886" d="M808.63,535.58s14.31-.606,15.728-1.079,13.971-2.091,13.971-2.091,37.2,2.631,26.6,5.806-24.977,1.819-24.977,1.819-14.043,3.648-16.2,5.562-18.092,1.958-18.092,1.958Z" transform="translate(-367.576 -331.964)" opacity="0.05"/>
      <path id="Path_2887" data-name="Path 2887" d="M712.7,479.244s-13.1,4.449-6.752,15.795,14.516,16.685,14.516,16.685l21.062,14.583s8.843,5.061,12.892,2.97l6.613-.556,1.112-17.352s-5.562,4.321-11.613-1.668-13.5-10.061-14.11-13.3S720.322,476.474,712.7,479.244Z" transform="translate(-322.548 -308.23)" fill="#a36468"/>
      <path id="Path_2888" data-name="Path 2888" d="M793.87,541.37s6.819,2.43,6.552,2.564-6.552,2.5-6.552,2.5l.473,9.249,9.249-.506s3.376-16.841.473-18.531l-10.194-.473Z" transform="translate(-362.343 -333.633)" fill="#67647e"/>
      <path id="Path_2889" data-name="Path 2889" d="M793.87,541.37s6.819,2.43,6.552,2.564-6.552,2.5-6.552,2.5l.473,9.249,9.249-.506s3.376-16.841.473-18.531l-10.194-.473Z" transform="translate(-362.343 -333.633)" opacity="0.1"/>
      <path id="Path_2890" data-name="Path 2890" d="M755.8,447.52a12.967,12.967,0,0,0-2.136,3.3c-.083.184-.167.361-.245.556-4.967,0-8.537-3.86-11.585-7.313-.556-.64-1.963.328-2.425-.389-.05-.083-.1-.167-.156-.25l.156-.289c1.669-3.165,2.886-5.867,2.886-5.867s.556.178,1.457.495C747.9,439.233,759.344,443.744,755.8,447.52Z" transform="translate(-338.101 -289.738)" opacity="0.1"/>
      <path id="Path_2891" data-name="Path 2891" d="M768.272,418.175a16.74,16.74,0,0,1-16.585,16.735h-.161a16.713,16.713,0,0,1-12.558-5.673,17.054,17.054,0,0,1-1.535-2.03,16.746,16.746,0,1,1,30.839-9.032Z" transform="translate(-336.117 -273.824)" fill="#efb7b9"/>
      <path id="Path_2892" data-name="Path 2892" d="M733.7,618.22s-1.274,1.557-2.681,3.009a10.452,10.452,0,0,1-2.925,2.391c-1.669.612-9.316,6.413-9.316,6.413s-6.073,4.121-7.625,5.334-7.158.473-7.158.473-5.395-1.179-8.737-3.337a21.713,21.713,0,0,1,1.112-2.314l3.509-8.509,13.9-1.8Z" transform="translate(-318.576 -370.05)" opacity="0.1"/>
      <path id="Path_2893" data-name="Path 2893" d="M731.264,616.28s-1.268,1.557-2.675,3.009a10.859,10.859,0,0,1-2.925,2.391c-1.668.606-9.316,6.413-9.316,6.413s-6.079,4.121-7.63,5.334-7.152.473-7.152.473-7.7-1.668-10.4-4.727c-1.891-2.13.067-6.079,1.4-8.253a16.68,16.68,0,0,1,1.029-1.535Z" transform="translate(-316.411 -369.189)" fill="#67647e"/>
      <path id="Path_2894" data-name="Path 2894" d="M766.126,503.24c-4.594-.406-19.716-18.909-19.716-18.909l.345-.473,3.17-4.388h7.414l.818,4.049c5.639,7.909,8.96,13.409,9.861,16.557C768.667,502.367,768.05,503.413,766.126,503.24Z" transform="translate(-341.278 -308.468)" fill="#67647e"/>
      <path id="Path_2895" data-name="Path 2895" d="M766.126,506.742c-4.594-.406-19.716-18.909-19.716-18.909l.345-.473a85.388,85.388,0,0,1,7.625,7.964c11.068,13.025,13.259,9.388,13.637,8.253C768.667,505.869,768.05,506.915,766.126,506.742Z" transform="translate(-341.278 -311.969)" opacity="0.1"/>
      <path id="Path_2896" data-name="Path 2896" d="M733.008,616.28s-1.268,1.557-2.675,3.009a7.584,7.584,0,0,1-2.319.5c-1.757-.067-5.806,2.7-5.806,2.7s-7.152-.406-8.5.334-6.552.879-6.552.879c-9.516,2.714-12.147-1.407-12.842-2.781a16.688,16.688,0,0,1,1.029-1.535Z" transform="translate(-318.154 -369.189)" opacity="0.1"/>
      <path id="Path_2897" data-name="Path 2897" d="M749.4,513.268a5.878,5.878,0,0,1-.083.773c-.033.25-.067.506-.106.745a12.229,12.229,0,0,1-1.218,3.943c-1.212,2.024-4.927,9.922-4.927,9.922l-.25,1.457-.128.762-.134.751-.906,5.322-.406,6.146s-2.225,3.1-3.17,4.449-.812,3.309-.473,4.727-3.1,1.618-3.1,1.618-4.861,2.364-6.618,2.3-5.806,2.692-5.806,2.692-7.152-.406-8.5.339-6.552.879-6.552.879c-10.189,2.9-12.486-2.03-12.958-3.042s2.024-5.128,2.024-5.128.556-5.2,1.618-5.606,2.364-7.286,2.364-7.286-.406-2.1.473-3.242.812-4.388,1.958-5.94-1.212-6.752-.806-8.1-1.285-6.819-1.151-8.237-.334-2.564-1.418-5.4c-.923-2.419-.662-13.17-.556-16.251,0-.523.028-.823.028-.823s.946-3.042,3.443-9.115a12.374,12.374,0,0,1,8.1-6.908,10.162,10.162,0,0,1,1.018-.25,7.143,7.143,0,0,1,1.435.362c1.969.662,5.906,2.536,11.524,7.786a86.374,86.374,0,0,1,7.024,7.408c12.664,14.883,13.7,7.936,13.7,7.936s.556,1.268,3.165,6.329A16.1,16.1,0,0,1,749.4,513.268Z" transform="translate(-318.014 -306.377)" fill="#a36468"/>
      <path id="Path_2898" data-name="Path 2898" d="M740.821,469.913l-12.7-10.133s-4.577.556-6.468,8.242l13.075,11.451Z" transform="translate(-330.289 -299.728)" opacity="0.1"/>
      <path id="Path_2899" data-name="Path 2899" d="M740.617,469.509l-2.225,3.109-2.258,3.187-1.7,2.5-10.439-8.793-1.8-1.557-1.007-.856c1.018-4.155,2.825-6.229,4.266-7.23a5.3,5.3,0,0,1,2.225-1Z" transform="translate(-330.085 -299.324)" fill="#67647e"/>
      <path id="Path_2900" data-name="Path 2900" d="M865.912,545.5c-10.6,3.17-24.977,1.824-24.977,1.824s-14.043,3.643-16.2,5.562c-1.391,1.218-8.493,1.668-13.348,1.852-2.7.1-4.716.106-4.716.106l2.964-11.974,1.713-.078c3.843-.178,12.9-.634,14.015-1.007,1.418-.473,13.971-2.091,13.971-2.091S876.507,542.321,865.912,545.5Z" transform="translate(-368.024 -335.196)" fill="#efb7b9"/>
      <path id="Path_2901" data-name="Path 2901" d="M754.172,520.48a12.236,12.236,0,0,1-1.218,3.943c-1.213,2.024-4.928,9.922-4.928,9.922l-.512,3a36.6,36.6,0,0,1-5.005-2.3l-21.078-14.6s-8.17-5.334-14.516-16.685,6.752-15.795,6.752-15.795c7.625-2.781,23.086,13.9,23.693,17.146s8.036,7.291,14.11,13.3A12.351,12.351,0,0,0,754.172,520.48Z" transform="translate(-322.979 -312.098)" opacity="0.1"/>
      <path id="Path_2902" data-name="Path 2902" d="M754.361,517.694c-.05.528-.111,1.034-.189,1.518a12.236,12.236,0,0,1-1.218,3.943c-1.212,2.024-4.928,9.922-4.928,9.922l-.25,1.457a36.07,36.07,0,0,1-5.283-2.4l-21.062-14.6s-8.17-5.334-14.516-16.685,6.752-15.8,6.752-15.8c7.625-2.781,23.086,13.9,23.693,17.146s8.036,7.291,14.11,13.3a12.175,12.175,0,0,0,2.892,2.2Z" transform="translate(-322.979 -310.802)" opacity="0.1"/>
      <path id="Path_2903" data-name="Path 2903" d="M763.082,518.648,762,535.994l-6.618.556a3.23,3.23,0,0,1-.45.195c-4.216,1.546-12.441-3.165-12.441-3.165l-21.062-14.6s-8.17-5.333-14.516-16.685,6.752-15.795,6.752-15.795c7.625-2.781,23.086,13.9,23.693,17.146s8.036,7.291,14.11,13.3a12.117,12.117,0,0,0,3.037,2.225A8.292,8.292,0,0,0,763.082,518.648Z" transform="translate(-322.979 -311.45)" fill="#a36468"/>
      <path id="Path_2904" data-name="Path 2904" d="M802.446,544.55,801.367,561.9l-6.618.556a3.235,3.235,0,0,1-.451.195l-.428-8.431s6.279-2.364,6.552-2.5-6.552-2.564-6.552-2.564v-4.032A8.292,8.292,0,0,0,802.446,544.55Z" transform="translate(-362.343 -337.353)" opacity="0.1"/>
      <path id="Path_2905" data-name="Path 2905" d="M811.336,557.179c-2.7.1-4.716.106-4.716.106l2.992-11.946,1.713-.078C812.426,547.156,811.954,552.729,811.336,557.179Z" transform="translate(-368.002 -337.668)" opacity="0.1"/>
      <path id="Path_2906" data-name="Path 2906" d="M794.84,548.65s6.818,2.43,6.552,2.564-6.552,2.5-6.552,2.5l.473,9.249,9.249-.506s3.376-16.841.473-18.531l-10.194-.473Z" transform="translate(-362.774 -336.864)" fill="#67647e"/>
      <path id="Path_2907" data-name="Path 2907" d="M718.8,572.71a13.967,13.967,0,0,1-4.188,2.731Z" transform="translate(-327.164 -349.851)" opacity="0.1"/>
      <path id="Path_2908" data-name="Path 2908" d="M712.31,582.922s5.6-.206,6.273-1.351S712.31,582.922,712.31,582.922Z" transform="translate(-326.144 -353.65)" opacity="0.1"/>
      <path id="Path_2909" data-name="Path 2909" d="M707.33,597.224c.339,0,7.086-.945,7.358-1.824Z" transform="translate(-323.933 -359.922)" opacity="0.1"/>
      <path id="Path_2910" data-name="Path 2910" d="M703.57,605.753c2.43-.072,6.546-2.7,6.546-2.7Z" transform="translate(-322.264 -363.317)" opacity="0.1"/>
      <path id="Path_2911" data-name="Path 2911" d="M731.85,607.575s14.649,0,15.322-2.7S731.85,607.575,731.85,607.575Z" transform="translate(-334.816 -363.793)" opacity="0.1"/>
      <path id="Path_2912" data-name="Path 2912" d="M751.63,540.9c.272,0,11.546,0,12.625-1.552S751.63,540.9,751.63,540.9Z" transform="translate(-343.595 -334.849)" opacity="0.1"/>
      <path id="Path_2913" data-name="Path 2913" d="M717.269,461.961a10.771,10.771,0,0,1,.145,1.669,10.338,10.338,0,0,1-.167,1.852,16.035,16.035,0,0,1-1.046,3.376l-.117.272c-.167.389-.345.767-.528,1.146a31.5,31.5,0,0,1-2.914,4.805,52.548,52.548,0,0,1-8.743,9.093q-.851.717-1.719,1.418c0-.523.028-.823.028-.823s.945-3.042,3.443-9.115a12.374,12.374,0,0,1,8.1-6.907l-1.007-.857c1.018-4.155,2.825-6.229,4.266-7.23C717.1,461.072,717.2,461.505,717.269,461.961Z" transform="translate(-321.647 -300.119)" opacity="0.1"/>
      <path id="Path_2914" data-name="Path 2914" d="M765.881,409.625a1.959,1.959,0,0,0-.489.195c-1.057.584-1.363,1.969-2.225,2.842-1,1.029-2.553,1.185-3.971,1.363s-3,.528-3.754,1.746a8.944,8.944,0,0,0-.706,3.092.984.984,0,0,1-.217.512,1,1,0,0,1-.679.223c-2.781.195-4.805-.762-7.408-1.435a3.958,3.958,0,0,0-3.582.556,4.073,4.073,0,0,0-1.057,3.148v.1a21.486,21.486,0,0,1,.1,3.337,5.506,5.506,0,0,1-2.909,4.077,5.144,5.144,0,0,1-2.1.6,1.7,1.7,0,0,1-.834-.122c.5-.845.968-1.668,1.4-2.508a16.745,16.745,0,1,1,28.41-17.732Z" transform="translate(-336.173 -273.966)" opacity="0.1"/>
      <path id="Path_2915" data-name="Path 2915" d="M751.136,400.056a2.826,2.826,0,0,1-.929,1.14c-1.268.823-3.087-.083-4.41.651-1.062.584-1.363,1.969-2.225,2.842-.99,1.029-2.547,1.185-3.971,1.363s-3,.528-3.754,1.746a9.04,9.04,0,0,0-.706,3.092.941.941,0,0,1-.217.512,1.018,1.018,0,0,1-.678.222c-2.781.195-4.805-.767-7.408-1.435a3.949,3.949,0,0,0-3.576.556A3.876,3.876,0,0,0,722.2,413.9a24.369,24.369,0,0,1,.106,3.426A5.561,5.561,0,0,1,717.3,422a1.368,1.368,0,0,1-1.029-.261,1.474,1.474,0,0,1-.339-.612c-1.852-5.206-1.835-10.984-4.082-16.034a18.115,18.115,0,0,1-.94-2.225c-.045-.156-.089-.317-.122-.478a7.32,7.32,0,0,1-.133-.973,1.39,1.39,0,0,0-.634.261,1.17,1.17,0,0,0-.178.189,3.3,3.3,0,0,0-.467,1.763,66.74,66.74,0,0,0,2,20.672,21.611,21.611,0,0,1,.962,5.189,13.866,13.866,0,0,1-1.335,5.5c-3.487,8.042-10.495,13.932-17.463,19.254a7.747,7.747,0,0,0,2.069-5.745,2.269,2.269,0,0,1-1.763,1.58,6.8,6.8,0,0,1-2.486-.039c1.068-.35,1.485-1.607,1.752-2.7q.818-3.337,1.518-6.735a42.412,42.412,0,0,0,.979-6.574c.083-1.88-.061-3.765-.139-5.651a114.376,114.376,0,0,1,.556-15.489c.412-4.449,1.157-9.26,4.422-12.3a19.21,19.21,0,0,1,4.672-2.914c0-.556,4.077-1.669,4.616-1.746a4.378,4.378,0,0,1,.679-.078,1.4,1.4,0,0,1,1.452.762c.2-.362.423-.717.656-1.057a12.322,12.322,0,0,1,1.057-1.329c2.119-2.336,4.866-3.982,7.319-5.962a18.821,18.821,0,0,1,2.914-2.147,10.489,10.489,0,0,1,4.366-1.112,17.713,17.713,0,0,1,7.369,1.157c3.381,1.3,6.335,3.637,9.833,4.583a23.408,23.408,0,0,1,2.553.706,6.184,6.184,0,0,1,3.226,8.576Z" transform="translate(-316.845 -266.533)" fill="#444053"/>
      <g id="Group_1392" data-name="Group 1392" transform="translate(374.493 129.09)" opacity="0.1">
        <path id="Path_2916" data-name="Path 2916" d="M694.8,499.031a7.686,7.686,0,0,0,.506-3.281,2.28,2.28,0,0,1-1.769,1.58,3.612,3.612,0,0,1-.645.095,2.793,2.793,0,0,1-1.568,2.024,6.8,6.8,0,0,0,2.486.044A2.779,2.779,0,0,0,694.8,499.031Z" transform="translate(-691.32 -444.783)"/>
        <path id="Path_2917" data-name="Path 2917" d="M765.6,404.11a6.219,6.219,0,0,1-.667,2.525,2.864,2.864,0,0,1-.934,1.112c-1.262.823-3.087-.078-4.41.651-1.057.584-1.363,1.974-2.225,2.842-1,1.029-2.553,1.19-3.971,1.363s-3,.556-3.754,1.746a8.941,8.941,0,0,0-.706,3.092.779.779,0,0,1-.9.74c-2.781.195-4.805-.768-7.408-1.44a3.958,3.958,0,0,0-3.582.556,4.086,4.086,0,0,0-1.057,3.153,23.463,23.463,0,0,1,.1,3.42,5.528,5.528,0,0,1-5.005,4.683,1.385,1.385,0,0,1-1.029-.261,1.494,1.494,0,0,1-.339-.617c-1.852-5.206-1.841-10.984-4.088-16.029a19.461,19.461,0,0,1-.934-2.225,6.538,6.538,0,0,1-.261-1.452,1.224,1.224,0,0,0-.812.451,3.416,3.416,0,0,0-.467,1.763,67.135,67.135,0,0,0,.556,13.348,67.313,67.313,0,0,1-.273-11.2,3.3,3.3,0,0,1,.467-1.763,1.167,1.167,0,0,1,.812-.451,6.578,6.578,0,0,0,.256,1.452,19.022,19.022,0,0,0,.94,2.225c2.225,5.05,2.225,10.823,4.082,16.029a1.535,1.535,0,0,0,.345.617,1.346,1.346,0,0,0,1.023.306,5.562,5.562,0,0,0,5.005-4.677,24.359,24.359,0,0,0-.106-3.426,4.175,4.175,0,0,1,1.062-3.153,3.869,3.869,0,0,1,3.576-.556c2.6.667,4.616,1.63,7.408,1.435a1.018,1.018,0,0,0,.678-.222.963.963,0,0,0,.217-.517,8.882,8.882,0,0,1,.706-3.087c.756-1.218,2.336-1.574,3.754-1.752s2.981-.328,3.977-1.357c.84-.873,1.14-2.258,2.225-2.848,1.318-.729,3.142.178,4.41-.645a2.826,2.826,0,0,0,.929-1.14,6.307,6.307,0,0,0,.4-4.688Z" transform="translate(-705.397 -404.11)"/>
        <path id="Path_2918" data-name="Path 2918" d="M713.816,461.414a13.9,13.9,0,0,1-1.329,5.5c-3.12,7.191-9.06,12.664-15.261,17.541a7.786,7.786,0,0,1-1.935,3.893c6.963-5.317,13.982-11.207,17.463-19.249a13.865,13.865,0,0,0,1.335-5.5,12.185,12.185,0,0,0-.284-2.419C713.81,461.236,713.816,461.325,713.816,461.414Z" transform="translate(-693.082 -429.44)"/>
      </g>
      <path id="Path_2919" data-name="Path 2919" d="M727.879,404c-.5,2.3-1.19,5.295-1.707,6.835a8.347,8.347,0,0,1-.133-.973,1.374,1.374,0,0,0-.628.261c0-1.618.195-4.027.362-5.829a1.4,1.4,0,0,1,1.457.762A9.663,9.663,0,0,1,727.879,404Z" transform="translate(-331.958 -274.971)" opacity="0.1"/>
      <path id="Path_2920" data-name="Path 2920" d="M727.395,404c-.5,2.3-1.19,5.295-1.707,6.835a7.3,7.3,0,0,1-.134-.973,1.39,1.39,0,0,0-.634.261c0-1.618.195-4.027.367-5.829a1.4,1.4,0,0,1,1.452.762C726.939,404.7,727.189,404.345,727.395,404Z" transform="translate(-331.74 -274.971)" fill="#67647e"/>
      <g id="Group_1393" data-name="Group 1393" transform="translate(504.74 0)" opacity="0.7">
        <path id="Path_2921" data-name="Path 2921" d="M933,179.57h92.139v89.62H933Z" transform="translate(-928.834 -175.36)" fill="#2e001e"/>
        <path id="Path_2922" data-name="Path 2922" d="M925.51,172v98.018h100.515V172Zm4.188,4.193h92.139V265.83H929.676Z" transform="translate(-925.51 -172)" fill="#ff2bc2"/>
        <path id="Path_2923" data-name="Path 2923" d="M1013.615,231.772a5.722,5.722,0,0,0-2.43-.423c-5.272,0-8.793,4.066-8.793,10.806,0,7.708,3.6,10.806,8.292,10.806a7.819,7.819,0,0,0,2.892-.462V231.772Zm-18.776,10.723c0-9.761,6.279-17.386,16.585-17.386a17.417,17.417,0,0,1,2.175.089v-10.89a.423.423,0,0,1,.423-.423h6.741c.334,0,.417.128.417.339V252.5a29.488,29.488,0,0,0,.211,4.1c0,.295,0,.339-.25.462a24.989,24.989,0,0,1-10.723,2.43c-9.088,0-15.573-5.612-15.573-17Zm-14.282-6.785L992.3,258.434c.211.334.083.667-.25.667h-7.286a.817.817,0,0,1-.879-.556q-4.021-8.292-8.209-17.213h-.083c-2.514,5.612-5.278,11.729-7.959,17.241a.807.807,0,0,1-.756.462h-6.952c-.417,0-.456-.339-.25-.59l11.474-22.068-11.1-21.879a.373.373,0,0,1,.295-.628h7.2c.417,0,.628.083.751.462,2.642,5.562,5.322,11.056,7.836,16.685h.083c2.425-5.528,5.105-11.123,7.664-16.585.206-.339.334-.556.751-.556h6.746c.334,0,.456.25.25.628l-11.056,21.234Z" transform="translate(-940.619 -190.583)" fill="#ff2bc2"/>
      </g>
      <g id="Group_1394" data-name="Group 1394" transform="translate(105.562 6.146)" opacity="0.7">
        <path id="a" d="M229.2,244.46l31.49,61.628L207.77,244.46Z" transform="translate(-207.77 -210.306)" fill="#ea6c00"/>
        <path id="b" d="M334.43,244.46l-31.49,61.628,52.924-61.628Z" transform="translate(-250.01 -210.306)" fill="#ea6c00"/>
        <path id="c" d="M246.31,244.46h62.974L277.8,306.088Z" transform="translate(-224.876 -210.306)" fill="#fdad00"/>
        <path id="d" d="M277.791,183.05,247.958,186.2l-1.669,31Z" transform="translate(-224.867 -183.05)" fill="#fdd231"/>
        <path id="e" d="M302.93,183.05l29.827,3.153,1.669,31Z" transform="translate(-250.006 -183.05)" fill="#fdd231"/>
        <path id="f" d="M379.672,219.72l-23.092-31,1.668,31Z" transform="translate(-273.818 -185.567)" fill="#fdad00"/>
        <path id="g" d="M207.77,219.72l23.092-31-1.668,31Z" transform="translate(-207.77 -185.567)" fill="#fdad00"/>
        <path id="h" d="M277.8,183.05,246.31,217.2h62.974Z" transform="translate(-224.876 -183.05)" fill="#feeeb7"/>
      </g>
    </g>
    <g id="undraw_design_components_9vy6" transform="translate(23713.451 -11029.954)">
      <path id="Path_2715" data-name="Path 2715" d="M128.924,205.259a18.825,18.825,0,0,0-7.1,1.377l-.273.113A18.9,18.9,0,0,0,110,224.183v20.649a.823.823,0,0,0,.823.823h.016a257.7,257.7,0,0,0,45.822,4.338h.654a200.167,200.167,0,0,0,41.408-4.336l.019,0a.823.823,0,0,0,.823-.823v-38.75a.823.823,0,0,0-.823-.823Z" transform="translate(-110 -205.259)" fill="#fb0"/>
      <path id="Path_40" data-name="Path 40" d="M850.4,385.452a.543.543,0,1,0,0,1.087h13.625a.543.543,0,1,0,.018-1.087H850.4Z" transform="translate(-782.236 -368.983)" fill="#3f3d56"/>
      <path id="Path_2716" data-name="Path 2716" d="M1030.941,383.485a.107.107,0,0,0,0,.151l.459.459h-1.132a.107.107,0,1,0,0,.214h1.132l-.459.459a.107.107,0,0,0,.151.151l.641-.642a.107.107,0,0,0,0-.151l-.641-.642A.107.107,0,0,0,1030.941,383.485Z" transform="translate(-946.065 -367.168)" fill="#fff"/>
      <path id="Path_2717" data-name="Path 2717" d="M813.734,383.485a.107.107,0,0,1,0,.151l-.459.459h1.132a.107.107,0,1,1,0,.214h-1.132l.459.459a.107.107,0,1,1-.151.151l-.642-.642a.107.107,0,0,1,0-.151l.642-.642A.107.107,0,0,1,813.734,383.485Z" transform="translate(-748.669 -367.168)" fill="#fff"/>
      <g id="Group_1389" data-name="Group 1389" transform="translate(68.127 4.021)" opacity="0.4">
        <circle id="Ellipse_598" data-name="Ellipse 598" cx="0.584" cy="0.584" r="0.584" fill="#fff"/>
        <circle id="Ellipse_599" data-name="Ellipse 599" cx="0.584" cy="0.584" r="0.584" transform="translate(2.433)" fill="#fff"/>
        <circle id="Ellipse_600" data-name="Ellipse 600" cx="0.584" cy="0.584" r="0.584" transform="translate(4.867)" fill="#fff"/>
        <circle id="Ellipse_601" data-name="Ellipse 601" cx="0.584" cy="0.584" r="0.584" transform="translate(7.3)" fill="#fff"/>
        <circle id="Ellipse_602" data-name="Ellipse 602" cx="0.584" cy="0.584" r="0.584" transform="translate(9.733)" fill="#fff"/>
        <circle id="Ellipse_603" data-name="Ellipse 603" cx="0.584" cy="0.584" r="0.584" transform="translate(12.166)" fill="#fff"/>
        <circle id="Ellipse_604" data-name="Ellipse 604" cx="0.584" cy="0.584" r="0.584" transform="translate(14.6)" fill="#fff"/>
        <circle id="Ellipse_605" data-name="Ellipse 605" cx="0.584" cy="0.584" r="0.584" transform="translate(0 1.849)" fill="#fff"/>
        <circle id="Ellipse_606" data-name="Ellipse 606" cx="0.584" cy="0.584" r="0.584" transform="translate(2.433 1.849)" fill="#fff"/>
        <circle id="Ellipse_607" data-name="Ellipse 607" cx="0.584" cy="0.584" r="0.584" transform="translate(4.867 1.849)" fill="#fff"/>
        <circle id="Ellipse_608" data-name="Ellipse 608" cx="0.584" cy="0.584" r="0.584" transform="translate(7.3 1.849)" fill="#fff"/>
        <circle id="Ellipse_609" data-name="Ellipse 609" cx="0.584" cy="0.584" r="0.584" transform="translate(9.733 1.849)" fill="#fff"/>
        <circle id="Ellipse_610" data-name="Ellipse 610" cx="0.584" cy="0.584" r="0.584" transform="translate(12.166 1.849)" fill="#fff"/>
        <circle id="Ellipse_611" data-name="Ellipse 611" cx="0.584" cy="0.584" r="0.584" transform="translate(14.6 1.849)" fill="#fff"/>
        <circle id="Ellipse_612" data-name="Ellipse 612" cx="0.584" cy="0.584" r="0.584" transform="translate(0 3.699)" fill="#fff"/>
        <circle id="Ellipse_613" data-name="Ellipse 613" cx="0.584" cy="0.584" r="0.584" transform="translate(2.433 3.699)" fill="#fff"/>
        <circle id="Ellipse_614" data-name="Ellipse 614" cx="0.584" cy="0.584" r="0.584" transform="translate(4.867 3.699)" fill="#fff"/>
        <circle id="Ellipse_615" data-name="Ellipse 615" cx="0.584" cy="0.584" r="0.584" transform="translate(7.3 3.699)" fill="#fff"/>
        <circle id="Ellipse_616" data-name="Ellipse 616" cx="0.584" cy="0.584" r="0.584" transform="translate(9.733 3.699)" fill="#fff"/>
        <circle id="Ellipse_617" data-name="Ellipse 617" cx="0.584" cy="0.584" r="0.584" transform="translate(12.166 3.699)" fill="#fff"/>
        <circle id="Ellipse_618" data-name="Ellipse 618" cx="0.584" cy="0.584" r="0.584" transform="translate(14.6 3.699)" fill="#fff"/>
        <circle id="Ellipse_619" data-name="Ellipse 619" cx="0.584" cy="0.584" r="0.584" transform="translate(0 5.548)" fill="#fff"/>
        <circle id="Ellipse_620" data-name="Ellipse 620" cx="0.584" cy="0.584" r="0.584" transform="translate(2.433 5.548)" fill="#fff"/>
        <circle id="Ellipse_621" data-name="Ellipse 621" cx="0.584" cy="0.584" r="0.584" transform="translate(0 7.397)" fill="#fff"/>
        <circle id="Ellipse_622" data-name="Ellipse 622" cx="0.584" cy="0.584" r="0.584" transform="translate(2.433 7.397)" fill="#fff"/>
        <circle id="Ellipse_623" data-name="Ellipse 623" cx="0.584" cy="0.584" r="0.584" transform="translate(4.867 7.397)" fill="#fff"/>
        <circle id="Ellipse_624" data-name="Ellipse 624" cx="0.584" cy="0.584" r="0.584" transform="translate(4.867 5.548)" fill="#fff"/>
        <circle id="Ellipse_625" data-name="Ellipse 625" cx="0.584" cy="0.584" r="0.584" transform="translate(7.3 5.548)" fill="#fff"/>
        <circle id="Ellipse_626" data-name="Ellipse 626" cx="0.584" cy="0.584" r="0.584" transform="translate(9.733 5.548)" fill="#fff"/>
        <circle id="Ellipse_627" data-name="Ellipse 627" cx="0.584" cy="0.584" r="0.584" transform="translate(12.166 5.548)" fill="#fff"/>
        <circle id="Ellipse_628" data-name="Ellipse 628" cx="0.584" cy="0.584" r="0.584" transform="translate(14.6 5.548)" fill="#fff"/>
      </g>
      <path id="Path_2718" data-name="Path 2718" d="M738.108,516.621a3.224,3.224,0,1,1,3.224-3.224A3.224,3.224,0,0,1,738.108,516.621Zm0-6.264a3.041,3.041,0,1,0,3.041,3.041A3.041,3.041,0,0,0,738.108,510.357Z" transform="translate(-677.775 -482.307)" fill="#3f3d56"/>
      <path id="Path_2719" data-name="Path 2719" d="M756.034,529.778h-.927v-.927a.309.309,0,0,0-.618,0v.927h-.927a.309.309,0,0,0,0,.618h.927v.927a.309.309,0,0,0,.618,0V530.4h.927a.309.309,0,1,0,0-.618Z" transform="translate(-694.465 -498.997)" fill="#fff"/>
      <g id="Group_1390" data-name="Group 1390" transform="translate(4.478 22.313)" opacity="0.4">
        <circle id="Ellipse_629" data-name="Ellipse 629" cx="0.459" cy="0.459" r="0.459" transform="translate(0 11.479)" fill="#fff"/>
        <circle id="Ellipse_630" data-name="Ellipse 630" cx="0.459" cy="0.459" r="0.459" transform="translate(0 9.566)" fill="#fff"/>
        <circle id="Ellipse_631" data-name="Ellipse 631" cx="0.459" cy="0.459" r="0.459" transform="translate(0 7.652)" fill="#fff"/>
        <circle id="Ellipse_632" data-name="Ellipse 632" cx="0.459" cy="0.459" r="0.459" transform="translate(0 5.739)" fill="#fff"/>
        <circle id="Ellipse_633" data-name="Ellipse 633" cx="0.459" cy="0.459" r="0.459" transform="translate(0 3.826)" fill="#fff"/>
        <circle id="Ellipse_634" data-name="Ellipse 634" cx="0.459" cy="0.459" r="0.459" transform="translate(0 1.913)" fill="#fff"/>
        <circle id="Ellipse_635" data-name="Ellipse 635" cx="0.459" cy="0.459" r="0.459" fill="#fff"/>
        <circle id="Ellipse_636" data-name="Ellipse 636" cx="0.459" cy="0.459" r="0.459" transform="translate(1.454 11.479)" fill="#fff"/>
        <circle id="Ellipse_637" data-name="Ellipse 637" cx="0.459" cy="0.459" r="0.459" transform="translate(1.454 9.566)" fill="#fff"/>
        <circle id="Ellipse_638" data-name="Ellipse 638" cx="0.459" cy="0.459" r="0.459" transform="translate(1.454 7.652)" fill="#fff"/>
        <circle id="Ellipse_639" data-name="Ellipse 639" cx="0.459" cy="0.459" r="0.459" transform="translate(1.454 5.739)" fill="#fff"/>
        <circle id="Ellipse_640" data-name="Ellipse 640" cx="0.459" cy="0.459" r="0.459" transform="translate(1.454 3.826)" fill="#fff"/>
        <circle id="Ellipse_641" data-name="Ellipse 641" cx="0.459" cy="0.459" r="0.459" transform="translate(1.454 1.913)" fill="#fff"/>
        <circle id="Ellipse_642" data-name="Ellipse 642" cx="0.459" cy="0.459" r="0.459" transform="translate(1.454)" fill="#fff"/>
        <circle id="Ellipse_643" data-name="Ellipse 643" cx="0.459" cy="0.459" r="0.459" transform="translate(2.908 11.479)" fill="#fff"/>
        <circle id="Ellipse_644" data-name="Ellipse 644" cx="0.459" cy="0.459" r="0.459" transform="translate(2.908 9.566)" fill="#fff"/>
        <circle id="Ellipse_645" data-name="Ellipse 645" cx="0.459" cy="0.459" r="0.459" transform="translate(2.908 7.652)" fill="#fff"/>
        <circle id="Ellipse_646" data-name="Ellipse 646" cx="0.459" cy="0.459" r="0.459" transform="translate(2.908 5.739)" fill="#fff"/>
        <circle id="Ellipse_647" data-name="Ellipse 647" cx="0.459" cy="0.459" r="0.459" transform="translate(2.908 3.826)" fill="#fff"/>
        <circle id="Ellipse_648" data-name="Ellipse 648" cx="0.459" cy="0.459" r="0.459" transform="translate(2.908 1.913)" fill="#fff"/>
        <circle id="Ellipse_649" data-name="Ellipse 649" cx="0.459" cy="0.459" r="0.459" transform="translate(2.908)" fill="#fff"/>
        <circle id="Ellipse_650" data-name="Ellipse 650" cx="0.459" cy="0.459" r="0.459" transform="translate(4.362 11.479)" fill="#fff"/>
        <circle id="Ellipse_651" data-name="Ellipse 651" cx="0.459" cy="0.459" r="0.459" transform="translate(4.362 9.566)" fill="#fff"/>
        <circle id="Ellipse_652" data-name="Ellipse 652" cx="0.459" cy="0.459" r="0.459" transform="translate(5.816 11.479)" fill="#fff"/>
        <circle id="Ellipse_653" data-name="Ellipse 653" cx="0.459" cy="0.459" r="0.459" transform="translate(5.816 9.566)" fill="#fff"/>
        <circle id="Ellipse_654" data-name="Ellipse 654" cx="0.459" cy="0.459" r="0.459" transform="translate(5.816 7.652)" fill="#fff"/>
        <circle id="Ellipse_655" data-name="Ellipse 655" cx="0.459" cy="0.459" r="0.459" transform="translate(4.362 7.652)" fill="#fff"/>
        <circle id="Ellipse_656" data-name="Ellipse 656" cx="0.459" cy="0.459" r="0.459" transform="translate(4.362 5.739)" fill="#fff"/>
        <circle id="Ellipse_657" data-name="Ellipse 657" cx="0.459" cy="0.459" r="0.459" transform="translate(4.362 3.826)" fill="#fff"/>
        <circle id="Ellipse_658" data-name="Ellipse 658" cx="0.459" cy="0.459" r="0.459" transform="translate(4.362 1.913)" fill="#fff"/>
        <circle id="Ellipse_659" data-name="Ellipse 659" cx="0.459" cy="0.459" r="0.459" transform="translate(4.362)" fill="#fff"/>
      </g>
      <path id="Path_2720" data-name="Path 2720" d="M298.55,238.262h-30.5a.566.566,0,0,0-.565.565v26.082a.566.566,0,0,0,.565.565h30.5a.566.566,0,0,0,.565-.565V238.827A.566.566,0,0,0,298.55,238.262Zm.339,26.647a.34.34,0,0,1-.339.34h-30.5a.339.339,0,0,1-.339-.34V238.827a.339.339,0,0,1,.339-.34h30.5a.34.34,0,0,1,.339.34Z" transform="translate(-253.091 -235.246)" fill="#3f3d56"/>
      <path id="Path_2721" data-name="Path 2721" d="M304.954,462.392c0,.04,0,.08,0,.12a2.3,2.3,0,0,1-4.6,0c0-.039,0-.079,0-.12a2.3,2.3,0,1,1,4.6,0Z" transform="translate(-282.956 -436.801)" fill="#fff"/>
      <path id="Path_2722" data-name="Path 2722" d="M397.928,468.479H379.85a.384.384,0,1,0,0,.767h18.078a.384.384,0,1,0,0-.767Z" transform="translate(-354.839 -444.423)" fill="#3f3d56"/>
      <path id="Path_2723" data-name="Path 2723" d="M387.634,493.66h-7.779a.383.383,0,0,0,0,.766h7.779a.383.383,0,1,0,0-.766Z" transform="translate(-354.845 -467.302)" fill="#fff"/>
      <path id="Path_2724" data-name="Path 2724" d="M375.692,290.228h-30.5a.782.782,0,0,1-.781-.781V276.061a.782.782,0,0,1,.781-.781h30.5a.782.782,0,0,1,.781.781v13.385A.782.782,0,0,1,375.692,290.228Zm-30.5-14.674a.508.508,0,0,0-.507.507v13.385a.508.508,0,0,0,.507.507h30.5a.508.508,0,0,0,.507-.507V276.061a.508.508,0,0,0-.507-.507Z" transform="translate(-322.986 -268.88)" fill="#fff"/>
      <path id="Path_2725" data-name="Path 2725" d="M417.112,328.7a.383.383,0,1,0,0,.767H435.19a.383.383,0,1,0,0-.767Z" transform="translate(-388.696 -317.418)" fill="#fff"/>
      <path id="Path_2726" data-name="Path 2726" d="M417.112,353.012a.383.383,0,1,0,0,.767H435.19a.383.383,0,1,0,0-.767Z" transform="translate(-388.696 -339.508)" fill="#fff"/>
      <path id="Path_2727" data-name="Path 2727" d="M417.112,377.029a.383.383,0,1,0,0,.767h7.779a.383.383,0,0,0,0-.767Z" transform="translate(-388.696 -361.331)" fill="#fff"/>
      <path id="Path_2728" data-name="Path 2728" d="M704.995,454.234l-3.063-4.324.992.207a.137.137,0,0,0,.056-.269l-1.478-.308-.2,1.5a.137.137,0,0,0,.272.036l.134-1,3.064,4.324a.137.137,0,0,0,.224-.158Z" transform="translate(-647.26 -427.215)" fill="#fff"/>
      <path id="Path_2729" data-name="Path 2729" d="M339.175,576.862H317.4a.4.4,0,0,1-.4-.4v-5.4a.4.4,0,0,1,.4-.4h21.775a.4.4,0,0,1,.4.4v5.4A.4.4,0,0,1,339.175,576.862ZM317.4,570.816a.242.242,0,0,0-.242.242v5.4a.242.242,0,0,0,.242.242h21.775a.242.242,0,0,0,.242-.242v-5.4a.242.242,0,0,0-.242-.242Z" transform="translate(-298.079 -537.26)" fill="#3f3d56"/>
      <circle id="Ellipse_660" data-name="Ellipse 660" cx="1.643" cy="1.643" r="1.643" transform="translate(21.062 34.648)" fill="#fff"/>
      <path id="Path_2730" data-name="Path 2730" d="M397.216,590.368a.274.274,0,1,0,0,.547h12.906a.274.274,0,1,0,0-.547Z" transform="translate(-370.718 -555.172)" fill="#fff"/>
      <path id="Path_2731" data-name="Path 2731" d="M397.216,608.341a.274.274,0,1,0,0,.548h5.553a.274.274,0,1,0,0-.548Z" transform="translate(-370.718 -571.502)" fill="#fff"/>
      <path id="Path_2732" data-name="Path 2732" d="M870.016,428.016h9.678a.4.4,0,0,1,.4.4V438.5a.4.4,0,0,1-.4.4h-9.678a.4.4,0,0,1-.4-.4V428.419A.4.4,0,0,1,870.016,428.016Zm9.678,10.724a.242.242,0,0,0,.242-.242V428.419a.242.242,0,0,0-.242-.242h-9.678a.242.242,0,0,0-.242.242V438.5a.242.242,0,0,0,.242.242Z" transform="translate(-800.189 -407.657)" fill="#3f3d56"/>
      <path id="Path_2733" data-name="Path 2733" d="M899.42,518.937a.274.274,0,0,0,0-.547h-5.553a.274.274,0,0,0,0,.547Z" transform="translate(-821.978 -489.771)" fill="#fff"/>
      <path id="Path_2734" data-name="Path 2734" d="M899.42,501.288a.274.274,0,0,0,0-.548h-5.553a.274.274,0,0,0,0,.548Z" transform="translate(-821.978 -473.736)" fill="#fff"/>
      <path id="Path_2735" data-name="Path 2735" d="M909.838,450.758a1.723,1.723,0,1,1-1.723,1.723A1.723,1.723,0,0,1,909.838,450.758Z" transform="translate(-835.173 -428.321)" fill="#fff"/>
    </g>
  </g>
</svg>
