<svg xmlns="http://www.w3.org/2000/svg" width="441.583" height="444.869" viewBox="0 0 441.583 444.869">
  <g id="Group_1019" data-name="Group 1019" transform="translate(0)">
    <path id="Path_953" data-name="Path 953" d="M60.29,417.534l8.157,3.937,19.07-29.59-12.039-5.811Z" transform="translate(-19.272 -123.408)" fill="#ffb6b6"/>
    <path id="Path_954" data-name="Path 954" d="M328.839,562.879l25.084,12.108.153-.317a10.842,10.842,0,0,0-5.05-14.477h0l-2.9-5.688-10.227-.65-2.19-1.057Z" transform="translate(-292.216 -260.381)" fill="#2f2e41"/>
    <path id="Path_955" data-name="Path 955" d="M149.535,432.114h9.057l4.309-34.937H149.533Z" transform="translate(-47.798 -126.957)" fill="#ffb6b6"/>
    <path id="Path_956" data-name="Path 956" d="M424.076,578.339h27.854v-.352a10.842,10.842,0,0,0-10.841-10.841h0L436,563.285l-9.493,3.86h-2.431Z" transform="translate(-322.659 -263.733)" fill="#2f2e41"/>
    <path id="Path_957" data-name="Path 957" d="M408.636,331.314l10.379,71.576.882,16.088-5.443,50.2,2.21,4.865-6.173,3.807H397.928l-.667-53.032-9.42-44.415-1.457,50.341-2.016,3.89c-7.512,17.044-17.631,22.624-24.785,35.364l-12.563-6.8.263-5.075c-2.524-1.278,3.789-5.012,4.4-7.775l1.1-4.947,7.328-15.18.28-5.346-2.006-36.359.944-48.961,16.478-12.6Z" transform="translate(-297.923 -188.19)" fill="#2f2e41"/>
    <circle id="Ellipse_280" data-name="Ellipse 280" cx="16.321" cy="16.321" r="16.321" transform="translate(78.607 9.009)" fill="#ffb6b6"/>
    <path id="Path_958" data-name="Path 958" d="M399.843,300.457a91.934,91.934,0,0,1-37.877-8.217l-.191-.1.059-.207c.578-2.023,1.125-5.417.135-5.911a.678.678,0,0,1-.422-.5c-.057-.407.35-.778.914-1.293,1.094-1,2.592-2.367,1.713-4.563-1.549-3.872,2.807-23.716,3.088-24.988l-1.86-31.631a26.312,26.312,0,0,1,19.457-26.89l.041-.011.043,0c.6.034,1.245-2.02,1.731-3.524.718-2.222,1.192-3.587,2-3.529,6.258.4,10.429.668,13.208.84,5.269.327,6.192,6.736,6.306,7.759a31.526,31.526,0,0,1,14.29,34.113L419.851,243.1l-2.321,5.426.765,10.7c3.6,2.993,2.568,9.116,2.363,10.151,3.43,3.548,1.324,7.724.813,8.609a8.363,8.363,0,0,1,1.508,7.8l3.159,10.267-.238.083A78.853,78.853,0,0,1,399.843,300.457Z" transform="translate(-302.669 -144.125)" fill="#3f3d56"/>
    <path id="Path_959" data-name="Path 959" d="M529.855,194.158a6.354,6.354,0,0,0-9.736-.376l-51.607.281-14.662,7.084-1.9,8.118,23.692-.99,45.223-5.165a6.388,6.388,0,0,0,8.992-8.951Z" transform="translate(-331.568 -144.954)" fill="#ffb6b6"/>
    <path id="Path_960" data-name="Path 960" d="M462.976,211.2l-20.088,9.5-18.624-7.8-.019-.151a13.877,13.877,0,0,1,7.043-13.893,38,38,0,0,1,12.517-4.334c12.319-1.833,14.817-2.536,14.841-2.543l.271-.079Z" transform="translate(-322.677 -145.022)" fill="#3f3d56"/>
    <path id="Path_961" data-name="Path 961" d="M391.122,158.583a1.838,1.838,0,0,1-.593-.1,3.885,3.885,0,0,1-1.791-1.592c-2.893-4.16-4.289-9.707-4.151-16.487.059-2.868.383-6.535,2.392-9.458,1.689-2.458,5.106-4.409,8.29-3.429a3.442,3.442,0,0,1,1.717-3.178,9.02,9.02,0,0,1,3.939-1,35.2,35.2,0,0,1,9.852,0,12.02,12.02,0,0,1,8.237,5.192l.032.082.318,1.543a1.465,1.465,0,0,0,1.951,1.076,1.329,1.329,0,0,1,1.784,1.435l-.089.614.924-.173a1.33,1.33,0,0,1,1.491,1.768l-.261.706a1.4,1.4,0,0,1,1.017.448,1.286,1.286,0,0,1,.174,1.515,12.047,12.047,0,0,1-4.255,4.281,10.057,10.057,0,0,1-3.11,1.223,59.725,59.725,0,0,1-21.667.651,12.214,12.214,0,0,1,.484,4.386,4.61,4.61,0,0,1-2.767,3.888,6.678,6.678,0,0,1-1.011.244,5.923,5.923,0,0,0-.965.235,2.825,2.825,0,0,0-.827,4.828l.715-.745-.233.947a1.359,1.359,0,0,1-.693.863A1.9,1.9,0,0,1,391.122,158.583Z" transform="translate(-310.033 -122.995)" fill="#2f2e41"/>
    <ellipse id="Ellipse_281" data-name="Ellipse 281" cx="93.208" cy="91.785" rx="93.208" ry="91.785" transform="translate(97.174 50.931)" fill="#e6e6e6"/>
    <path id="Path_962" data-name="Path 962" d="M595.784,297.031a74.8,74.8,0,0,1-7.078,31.844c-.143.307-.292.615-.441.922a76.9,76.9,0,0,1-33.161,34.246c-.3.159-.6.318-.907.471a77.824,77.824,0,0,1-35.645,8.568,79.06,79.06,0,0,1-12.834-1.045c-.338-.056-.676-.113-1.009-.174a77.436,77.436,0,0,1-41.754-22.052c-.236-.241-.471-.486-.712-.732a75.358,75.358,0,0,1-20.127-41.093c-.046-.338-.1-.676-.138-1.014a75.248,75.248,0,0,1,8.363-45.631c.159-.3.328-.6.492-.9a76.823,76.823,0,0,1,23.7-25.9c.282-.195.563-.384.845-.574a77.52,77.52,0,0,1,31.435-12.112c.338-.046.676-.1,1.014-.143a78.787,78.787,0,0,1,10.724-.727,77.916,77.916,0,0,1,32.72,7.144c.312.143.62.287.927.435a77.267,77.267,0,0,1,25.11,19.123c.225.256.451.517.666.778A75.17,75.17,0,0,1,594.5,283.148v.005c.067.333.123.666.179,1A75.16,75.16,0,0,1,595.784,297.031Z" transform="translate(-328.173 -154.316)" fill="#fff"/>
    <path id="Path_963" data-name="Path 963" d="M566.047,313.039a9.455,9.455,0,0,1,2,4.571l37.21-7.018a46.343,46.343,0,0,0-10.166-21.448Z" transform="translate(-368.04 -176.104)" fill="#6c63ff"/>
    <path id="Path_964" data-name="Path 964" d="M580,302.691c-.046-.338-.108-.671-.169-1v-.005a47.391,47.391,0,0,0-10.376-21.914c-.22-.261-.445-.522-.671-.773a48.824,48.824,0,0,0-15.292-11.677h-.005c-.307-.149-.609-.3-.922-.44a49.281,49.281,0,0,0-27.327-4.031c-.338.041-.676.092-1.014.149a48.674,48.674,0,0,0-18.913,7.262c-.287.184-.574.374-.855.568a48.436,48.436,0,0,0-15.169,16.583q-.246.446-.492.906a47.175,47.175,0,0,0-4.947,28.556q.061.515.154,1.014a47.389,47.389,0,0,0,12.542,25.1c.23.246.466.492.712.732a48.748,48.748,0,0,0,25.632,13.582c.338.067.676.123,1.014.179a49.335,49.335,0,0,0,30.375-4.66c.3-.154.6-.312.9-.476h.005a48.472,48.472,0,0,0,20.511-21.1q.231-.461.445-.922A47.118,47.118,0,0,0,580,302.691Zm-4.794,27.2q-.215.469-.446.922A47.5,47.5,0,0,1,554.7,351.446c-.3.159-.6.318-.906.471a48.194,48.194,0,0,1-29.714,4.553c-.338-.051-.681-.107-1.014-.174a47.712,47.712,0,0,1-25.054-13.269c-.246-.241-.481-.486-.717-.732a46.453,46.453,0,0,1-12.276-24.531c-.056-.333-.108-.671-.154-1.009a46.2,46.2,0,0,1,4.835-27.942c.154-.3.318-.6.487-.906a47.439,47.439,0,0,1,14.872-16.245c.282-.195.563-.384.85-.563a47.684,47.684,0,0,1,18.462-7.088c.333-.056.671-.108,1.014-.148a48.2,48.2,0,0,1,26.743,3.948c.312.138.62.287.922.435A47.722,47.722,0,0,1,568,279.645c.225.256.451.517.666.778a46.344,46.344,0,0,1,10.166,21.448c.061.333.118.666.169,1.009a46.158,46.158,0,0,1-3.79,27.015Z" transform="translate(-341.616 -167.55)" fill="#ccc"/>
    <path id="Path_965" data-name="Path 965" d="M530.6,295.49l-.835.594-22.55-31.558-.6-.835-16.475-23.056c.282-.195.563-.384.845-.574l16.486,23.061.594.84Z" transform="translate(-343.777 -160.415)" fill="#ccc"/>
    <path id="Path_966" data-name="Path 966" d="M515.2,312.011l-.5.9-34.215-18.8-.9-.5-25.008-13.74c.159-.3.328-.6.492-.9l25.007,13.735.9.5Z" transform="translate(-332.41 -172.855)" fill="#ccc"/>
    <path id="Path_967" data-name="Path 967" d="M510.838,336.593l-38.958,4.568-1.014.123-28.439,3.334c-.046-.338-.1-.676-.138-1.014l28.423-3.334,1.014-.118,38.994-4.573Z" transform="translate(-328.481 -190.947)" fill="#ccc"/>
    <path id="Path_968" data-name="Path 968" d="M522.873,341.773l-28.48,26.39-.753.7-20.854,19.323c-.236-.241-.471-.487-.712-.732l20.854-19.323.748-.7,28.5-26.411Z" transform="translate(-338.002 -192.687)" fill="#ccc"/>
    <path id="Path_969" data-name="Path 969" d="M590.137,231.916l-12.153,25.525h-.005l-.44.927-16.614,34.9-.922-.44,16.614-34.892.44-.932,12.153-25.52C589.522,231.624,589.829,231.767,590.137,231.916Z" transform="translate(-366.108 -157.672)" fill="#ccc"/>
    <path id="Path_970" data-name="Path 970" d="M617.075,261.006,595.11,279.079l-.794.656L564.29,304.44l-.65-.789,30.011-24.7.789-.65,21.97-18.078C616.634,260.484,616.859,260.746,617.075,261.006Z" transform="translate(-367.27 -166.861)" fill="#ccc"/>
    <path id="Path_971" data-name="Path 971" d="M634.875,313.367l-28.121,5.3-1,.189-38.481,7.257-.19-1,38.5-7.262,1-.184v-.005l28.111-5.3C634.762,312.7,634.819,313.029,634.875,313.367Z" transform="translate(-368.37 -183.527)" fill="#ccc"/>
    <path id="Path_972" data-name="Path 972" d="M628.574,366.345c-.143.307-.292.615-.44.922l-26.016-11.789-.932-.425L566.048,339.13l.425-.932,35.158,15.932.932.425Z" transform="translate(-368.04 -191.785)" fill="#ccc"/>
    <path id="Path_973" data-name="Path 973" d="M593.046,403.113c-.3.159-.6.318-.906.471l-13.367-24.925-.487-.906-18.268-34.067.9-.481,18.273,34.077.481.9h.005Z" transform="translate(-366.113 -193.385)" fill="#ccc"/>
    <path id="Path_974" data-name="Path 974" d="M546.85,345.041l-6.437,37.8-.174,1.014L535.5,411.639c-.338-.056-.676-.113-1.009-.174l4.732-27.793.174-1.009,6.437-37.8Z" transform="translate(-357.954 -193.916)" fill="#ccc"/>
    <path id="Path_975" data-name="Path 975" d="M548.131,289.149l-1.014.143-5.423-38.174-.143-1.014-3.964-27.911c.338-.046.676-.1,1.014-.143l3.964,27.906.143,1.014Z" transform="translate(-358.942 -154.657)" fill="#ccc"/>
    <ellipse id="Ellipse_282" data-name="Ellipse 282" cx="9.731" cy="9.582" rx="9.731" ry="9.582" transform="translate(180.651 133.134)" fill="#3f3d56"/>
    <path id="Path_976" data-name="Path 976" d="M557.938,590.286l-7.283,6.1-26.99-25.191,10.75-9Z" transform="translate(-167.39 -179.705)" fill="#a0616a"/>
    <path id="Path_977" data-name="Path 977" d="M846.9,733.1l-22.4,18.754-.237-.283a11.371,11.371,0,0,1,1.418-16.017h0l1.492-6.529,10.232-3.288,1.955-1.637Z" transform="translate(-449.731 -315.138)" fill="#2f2e41"/>
    <path id="Path_978" data-name="Path 978" d="M471.807,620.451h-9.5l-4.52-36.641H471.81Z" transform="translate(-146.332 -186.615)" fill="#a0616a"/>
    <path id="Path_979" data-name="Path 979" d="M740.17,767.808H710.958v-.37a11.371,11.371,0,0,1,11.369-11.37h0l5.336-4.048,9.956,4.049h2.55Z" transform="translate(-414.361 -324.063)" fill="#2f2e41"/>
    <path id="Path_980" data-name="Path 980" d="M759.786,502.339c2.295,2.868,1.147,12.621,1.147,12.621L761.5,575.7c9.753,8.031,17.221,41.378,17.221,41.378l9.312,17.133c-1.147,3.442-8.591,16.9-10.885,16.328-1.065-.266-14.318-12.489-23.132-30.616-10.182-20.939-16.026-48.166-16.026-48.166s1.147,78.02,1.147,81.462-15.489,1.721-18.931,1.721-21.16-140.551-21.16-140.551v-8.031l2.868-4.016S757.492,499.471,759.786,502.339Z" transform="translate(-410.552 -243.845)" fill="#2f2e41"/>
    <path id="Path_981" data-name="Path 981" d="M603.8,305.754,596.84,309l7.753-1.623s5.7.232,5.7-2.087l9.276-5.1s7.885,4.174,10.2,1.855-1.855-6.957-1.855-6.957,2.794-1.541,2.557-2.162-3.948.307-3.948.307-8.812-5.1-8.348,3.71l-9.276,6.15S604.26,302.972,603.8,305.754Z" transform="translate(-377.883 -176.942)" fill="#3f3d56"/>
    <path id="Path_982" data-name="Path 982" d="M762.267,475.52c-12.175,6.04-26.662,7.867-40.307,6.263-11.764-1.385-14.21-14.529-25.129-19.192,3.451-9.914,3.492-23.074,2.909-26.767-1-6.306-1.183-50.261,2.471-54.838,4.792-6.005,12.108-9.213,11.776-16.889l1.025,1.052c-1.295-3.408,1.213-7.308,4.515-8.849s7.116-1.346,10.755-1.119l9.19.575a8.261,8.261,0,0,0,1.236,7.449c5.43-1.5,11.157,2.484,13.583,7.562s2.367,10.946,2.257,16.576c-.125,6.514,4.7,52.259-1.138,55.154,3.012.759,7.27,16.824,4.7,15.083C761.3,458.414,761.011,466.193,762.267,475.52Z" transform="translate(-409.845 -197.164)" fill="#6c63ff"/>
    <path id="Path_983" data-name="Path 983" d="M615.866,301.021a9.359,9.359,0,0,1,11.943,7.958L679.465,354.4l-9.328,6.2-51.271-41.127a9.41,9.41,0,0,1-3-18.447Z" transform="translate(-381.786 -179.78)" fill="#a0616a"/>
    <path id="Path_984" data-name="Path 984" d="M684.277,349.408c-1.131.065-27.827-19.415-28.51-18.511l-1.794,9.73h0l-4.935,6.526h0l10.667,11.308,3.048,2.5,1.959,2.072c-.685.917,3.864,5.83,4.111,6.951a3.921,3.921,0,0,0,1.949,2.607l17.359,9.418a10.887,10.887,0,0,0,13.027-17.447l-2.56-2.59L694.676,358l-7.34-7.433A3.9,3.9,0,0,0,684.277,349.408Z" transform="translate(-394.568 -189.441)" fill="#6c63ff"/>
    <circle id="Ellipse_283" data-name="Ellipse 283" cx="18.83" cy="18.83" r="18.83" transform="translate(299.677 115.212)" fill="#a0616a"/>
    <path id="Path_985" data-name="Path 985" d="M754.747,303.4c-1.047-4.155-4.953-7.78-9.217-7.36.527-3.2-1.6-6.425-4.476-7.933s-6.3-1.573-9.5-1.048a56.536,56.536,0,0,0-5.517,1.289c-1.541.415-8.765-2.059-10.3-1.607-1.309.386-4.458,5.075-5.452,6.011a3.19,3.19,0,0,0-.856,3.7c.655,1.177,2.154,1.561,3.5,1.671s2.786.091,3.9.848c1.432.973,1.838,2.913,1.78,4.643s-.455,3.476-.132,5.177,1.7,3.4,3.427,3.284a3.967,3.967,0,0,1,5.14-.122,6.537,6.537,0,0,1,2.234,4.981,20.255,20.255,0,0,1-.869,5.551c-.311,1.244-.545,2.751.376,3.643a3.73,3.73,0,0,0,1.885.787c2.719.578,12.921-.206,15.64.372l-.21-.415c1.97-3.806,4.583-7.252,6.519-11.075S755.794,307.552,754.747,303.4Z" transform="translate(-413.777 -175.317)" fill="#2f2e41"/>
    <path id="Path_986" data-name="Path 986" d="M805.226,502.868a9.359,9.359,0,0,1-6.4-12.846l-22.2-65.1,11.174-.732,24,61.188a9.41,9.41,0,0,1-6.577,17.493Z" transform="translate(-435.352 -219.271)" fill="#a0616a"/>
    <path id="Path_987" data-name="Path 987" d="M765.312,420.5c1.013.506,14.474,30.689,15.516,30.245l6.4-7.546h0l7.528-3.2h0l-3.625-15.117-1.4-3.685-.668-2.772c1.051-.454-.451-6.98-.106-8.075a3.921,3.921,0,0,0-.393-3.232l-10.368-16.808a10.887,10.887,0,1,0-19.982,8.649l.932,3.52,1.424,5.4,2.667,10.1A3.9,3.9,0,0,0,765.312,420.5Z" transform="translate(-429.178 -206.343)" fill="#6c63ff"/>
    <path id="Path_988" data-name="Path 988" d="M883.238,752.333l-5.245-8.43-1.048,4.817c-.184.844-.367,1.7-.537,2.551-1.49-1.272-3.075-2.449-4.626-3.579q-7.144-5.184-14.281-10.382l1.49,8.641c.918,5.32,1.878,10.75,4.15,15.614.252.551.524,1.1.817,1.626H886.1a7.143,7.143,0,0,0,.367-1.524.549.549,0,0,0,.007-.1C886.817,758.266,884.993,755.157,883.238,752.333Z" transform="translate(-461.203 -319.361)" fill="#f0f0f0"/>
    <path id="Path_989" data-name="Path 989" d="M834.348,775.808l-187.607.209a.81.81,0,0,1,0-1.62l187.607-.209a.81.81,0,1,1,0,1.62Z" transform="translate(-393.575 -331.149)" fill="#cacaca"/>
    <path id="Path_990" data-name="Path 990" d="M512.317,561.861l-5.246-8.43-1.048,4.817c-.184.844-.367,1.7-.537,2.551-1.49-1.272-3.075-2.449-4.626-3.579q-7.144-5.184-14.281-10.382l1.49,8.64c.919,5.32,1.878,10.75,4.15,15.614.252.551.524,1.1.817,1.626h22.139a7.136,7.136,0,0,0,.367-1.524.526.526,0,0,0,.007-.1C515.9,567.794,514.072,564.685,512.317,561.861Z" transform="translate(-342.638 -258.477)" fill="#f0f0f0"/>
    <path id="Path_991" data-name="Path 991" d="M463.426,585.335l-187.606.209a.81.81,0,0,1,0-1.62l187.606-.209a.81.81,0,1,1,0,1.62Z" transform="translate(-275.01 -270.264)" fill="#cacaca"/>
    <path id="Path_992" data-name="Path 992" d="M414.643,319.348A6.354,6.354,0,0,1,411,310.31l-17.157-48.672,1.718-16.193,7-4.531,7.066,22.636,10.4,44.312a6.388,6.388,0,0,1-5.39,11.486Z" transform="translate(-312.996 -160.688)" fill="#ffb6b6"/>
    <path id="Path_993" data-name="Path 993" d="M105.247,96.594l16.227-6.281,9.421,31.406-21.747,6.891Z" transform="translate(-33.642 -28.869)" fill="#3f3d56"/>
  </g>
</svg>
