<svg id="Group_1018" data-name="Group 1018" xmlns="http://www.w3.org/2000/svg" width="482.381" height="417.875" viewBox="0 0 482.381 417.875">
  <path id="Path_918" data-name="Path 918" d="M686.968,284.46a47.615,47.615,0,1,1-13.886-33.817A47.739,47.739,0,0,1,686.968,284.46Z" transform="translate(-355.389 -155.295)" fill="#f2f2f2"/>
  <path id="Path_919" data-name="Path 919" d="M844.783,324.156l6.712-12.817c-6.019-7.269-25.768-16.084-25.768-16.084L799,270.926a6.388,6.388,0,1,0-7.845,7.787l28.876,34.632Z" transform="translate(-433.751 -167.162)" fill="#9e616a"/>
  <path id="Path_920" data-name="Path 920" d="M878.568,347.525l9.478,3.018a32.528,32.528,0,0,0,21.107-.47h0a11.746,11.746,0,0,0,7.586-9.807h0a11.718,11.718,0,0,0-9.755-12.681c-8.888-1.461-20.341-2.181-24.427,2.681l-.041.049Z" transform="translate(-470.788 -191.416)" fill="#3f3d56"/>
  <circle id="Ellipse_271" data-name="Ellipse 271" cx="47.739" cy="47.739" r="47.739" transform="translate(291.868 99.869)" fill="#fff"/>
  <path id="Path_921" data-name="Path 921" d="M728.653,308.348a44.858,44.858,0,0,1-3.2,10.214c-8.421,17.815,15.561,12.008,24.131,12.008,9.37,0,18.336,4.927,16.967-16.967-.585-9.352-7.6-16.967-16.967-16.967C741.58,296.638,730.327,300.195,728.653,308.348Z" transform="translate(-408.53 -179.414)" fill="#2f2e41"/>
  <circle id="Ellipse_272" data-name="Ellipse 272" cx="13.787" cy="13.787" r="13.787" transform="translate(325.864 123.578)" fill="#ffb6b6"/>
  <path id="Path_922" data-name="Path 922" d="M743.9,305.265a15.793,15.793,0,0,1,24.011,13.783c-7.026,1.764-14.406,3.114-21.9.422l-1.769-4.33-1.043,4.333c-2.281.933-4.569,1.722-6.856-.009a16.125,16.125,0,0,1,7.556-14.2Z" transform="translate(-413.614 -181.954)" fill="#2f2e41"/>
  <path id="Path_923" data-name="Path 923" d="M781.745,386.97a47.722,47.722,0,0,1-66.789,4.827l4.095-11.425a12.287,12.287,0,0,1,10.437-7.167l2.6-.16,6.211-5.357s16.736-.6,16.488-.884l10.138,6.1-.008-.042,3.985.244a12.281,12.281,0,0,1,10.437,7.167Z" transform="translate(-405.02 -207.619)" fill="#6c63ff"/>
  <path id="Path_924" data-name="Path 924" d="M739.927,714.586l-1.186-16.5a53.37,53.37,0,0,0-25.056-5.619c12.219,9.444,11.24,28.321,19.7,41.239a32.1,32.1,0,0,0,23.937,14.186l10.169,5.85a53.793,53.793,0,0,0-12.525-43.264,51.955,51.955,0,0,0-9.788-8.609C742.956,708.253,739.927,714.586,739.927,714.586Z" transform="translate(-404.508 -338.525)" fill="#f2f2f2"/>
  <path id="Path_925" data-name="Path 925" d="M222.927,225.586l-1.186-16.5a53.37,53.37,0,0,0-25.056-5.619c12.219,9.444,11.24,28.321,19.7,41.239a32.1,32.1,0,0,0,23.937,14.186l10.169,5.85a53.793,53.793,0,0,0-12.525-43.264,51.963,51.963,0,0,0-9.788-8.609C225.956,219.253,222.927,225.586,222.927,225.586Z" transform="translate(-196.684 -141.956)" fill="#f2f2f2"/>
  <path id="Path_926" data-name="Path 926" d="M627.4,664.432h-7.932l-3.774-30.594H627.4Z" transform="translate(-247.497 -254.79)" fill="#9e616a"/>
  <path id="Path_927" data-name="Path 927" d="M818.142,789.179H792.567v-.324a9.955,9.955,0,0,1,9.954-9.954h0l4.672-3.544,8.717,3.545h2.233Z" transform="translate(-436.217 -371.849)" fill="#2f2e41"/>
  <path id="Path_928" data-name="Path 928" d="M744.3,664.432h-7.932l-3.774-30.594H744.3Z" transform="translate(-294.488 -254.79)" fill="#9e616a"/>
  <path id="Path_929" data-name="Path 929" d="M935.04,789.179H909.465v-.323a9.955,9.955,0,0,1,9.954-9.955h0l4.672-3.544,8.717,3.545h2.233Z" transform="translate(-483.208 -371.849)" fill="#2f2e41"/>
  <path id="Path_930" data-name="Path 930" d="M876.976,510.682l6.672,63.379s8.881,63.46,7.213,72.216.417,10.007.417,10.007L876.059,655.2s.417-5.421-2.085-7.922-1.251-10.007-1.251-10.007L843.2,534.032l-17.93,54.205s-2.919,59.626-3.336,60.46-1.668,12.092-1.668,12.092H804.841s2.085-6.672-.834-8.756-5.421-.417-2.919-4.17,3.336-8.339,2.5-10.424-.834-10.424-.834-10.424,1.251-112.58,8.339-116.333S876.976,510.682,876.976,510.682Z" transform="translate(-439.231 -264.785)" fill="#2f2e41"/>
  <circle id="Ellipse_273" data-name="Ellipse 273" cx="16.409" cy="16.409" r="16.409" transform="translate(389.742 84.754)" fill="#9e616a"/>
  <path id="Path_931" data-name="Path 931" d="M888.491,435.7c-31.778,6.563-73.89-4.72-73.89-4.72l11.234-48.7-3.994-50.962a13.868,13.868,0,0,1,8.584-14.144l7.625-2.856,6.3-9.023,18,.591,7.2,9.473,5.679,3.013,12.312,6.53.054.027v.027l-3.864,37.479-2.33,22.6s7.078,25.416,5.625,28.786-.19,1.74.163,3.539,1.431,1.913,1.593,5.457S888.491,435.7,888.491,435.7Z" transform="translate(-445.075 -182.896)" fill="#3f3d56"/>
  <path id="Path_932" data-name="Path 932" d="M837.028,798.644H591.556a.55.55,0,1,1,0-1.1H837.025a.55.55,0,1,1,0,1.1Z" transform="translate(-355.194 -380.769)" fill="#ccc"/>
  <path id="Path_933" data-name="Path 933" d="M858.7,267.142a50.532,50.532,0,0,0,8.579-.823c2.8-.646,8.987-5.427,10.672-8.252h0a24.835,24.835,0,0,0,2.414-7.7,22.592,22.592,0,0,0-4.413-17.828,7.138,7.138,0,0,0-2.945-2.385c-.1-.038-.211-.071-.32-.1a8.807,8.807,0,0,1-4.449-2.6,7.25,7.25,0,0,0-.747-.73,10.846,10.846,0,0,0-4.583-2.155c-2.708-.65-6.582.165-11.514,2.424-2.478,1.135-5.228.819-7.347.416a.69.69,0,0,0-.644.239,4.87,4.87,0,0,1-3.275,1.4c-.752.053-1.516,1.116-2.436,2.5-.209.314-.453.681-.629.905l-.036-.421-.414.481a5.91,5.91,0,0,0,2.916,9.557,11.524,11.524,0,0,0,2.327.309c.475.03.967.062,1.439.131a8.911,8.911,0,0,1,6.768,5.609,2.33,2.33,0,0,0,3.545,1.04,3.85,3.85,0,0,1,3.491-.729,2.555,2.555,0,0,1,1.162,1.252,3.331,3.331,0,0,0,1.3,1.441c1.935.935,2.179,5.293,1.587,8.946-.57,3.521-1.812,6.09-3.018,6.247-.929.12-1.034.189-1.1.356l-.056.149.108.135a3.806,3.806,0,0,0,1.614.174Z" transform="translate(-453.347 -150.358)" fill="#2f2e41"/>
  <path id="Path_934" data-name="Path 934" d="M732.079,363.29a48.336,48.336,0,1,1,48.337-48.336,48.336,48.336,0,0,1-48.337,48.336Zm0-95.477a47.14,47.14,0,1,0,47.141,47.141,47.14,47.14,0,0,0-47.141-47.141Z" transform="translate(-392.472 -167.346)" fill="#3f3d56"/>
  <circle id="Ellipse_274" data-name="Ellipse 274" cx="47.739" cy="47.739" r="47.739" transform="translate(125.021 0.598)" fill="#fff"/>
  <circle id="Ellipse_275" data-name="Ellipse 275" cx="15.567" cy="15.567" r="15.567" transform="translate(159.402 22.073)" fill="#ffb8b8"/>
  <path id="bf427902-b9bf-4946-b5d7-5c1c7e04535e" d="M490.751,138.343s4.053-7.748-4.864-8.453c0,0-7.6-6.9-15.35-1.261A7.781,7.781,0,0,0,464,133.413s-3.324-1.261-4.054,2.113c0,0-2.432,7.044,0,13.383s3.24,7.044,3.24,7.044-1.707-7.867,8.022-8.571,18.653-6.8,19.464.949,1.7,4.248,1.7,4.248S500.072,141.513,490.751,138.343Z" transform="translate(-302.075 -110.988)" fill="#2f2e41"/>
  <path id="Path_935" data-name="Path 935" d="M500.709,220.97A47.722,47.722,0,0,1,433.92,225.8l4.095-11.425a12.287,12.287,0,0,1,10.437-7.167l2.6-.16,6.211-5.357s16.736-.6,16.488-.884l10.138,6.1-.008-.042,3.985.244a12.281,12.281,0,0,1,10.437,7.167Z" transform="translate(-292.048 -140.89)" fill="#6c63ff"/>
  <path id="Path_936" data-name="Path 936" d="M453.079,197.29a48.336,48.336,0,1,1,48.337-48.336A48.336,48.336,0,0,1,453.079,197.29Zm0-95.477a47.14,47.14,0,1,0,47.141,47.141A47.14,47.14,0,0,0,453.079,101.813Z" transform="translate(-280.32 -100.617)" fill="#3f3d56"/>
  <circle id="Ellipse_276" data-name="Ellipse 276" cx="47.739" cy="47.739" r="47.739" transform="translate(13.596 75.948)" fill="#fff"/>
  <path id="Path_937" data-name="Path 937" d="M261.689,271.492c1.974-6.291,6.463-12.061,12.671-14.188s15.3,1.113,19.966,5.765c8.537,8.509,10.621,37.738,4.755,46.975-1.167-.062-5.192-.107-6.373-.152l-1.67-5.567v5.513q-2.822-.087-5.688-.12a24.754,24.754,0,0,1-24.439-24.143C260.758,279.448,260.911,273.971,261.689,271.492Z" transform="translate(-222.481 -163.335)" fill="#2f2e41"/>
  <circle id="Ellipse_277" data-name="Ellipse 277" cx="13.605" cy="13.605" r="13.605" transform="translate(47.021 101.797)" fill="#9e616a"/>
  <path id="Path_938" data-name="Path 938" d="M278.429,268.338l15.665-7.844h0a19.689,19.689,0,0,1,11.532,16.313l.39,4.677-6.56-1.67-.719-5.98-1.114,5.514-3.027-.77.029-9.285-3.029,9.278-10.812-2.484Z" transform="translate(-229.544 -164.885)" fill="#2f2e41"/>
  <path id="Path_939" data-name="Path 939" d="M313.589,346.716a47.722,47.722,0,0,1-66.789,4.827l4.095-11.425a12.286,12.286,0,0,1,10.436-7.167l2.605-.16,6.211-5.357s16.736-.6,16.488-.884l10.138,6.1-.008-.042,3.985.244a12.281,12.281,0,0,1,10.436,7.167Z" transform="translate(-216.83 -191.438)" fill="#6c63ff"/>
  <path id="Path_940" data-name="Path 940" d="M266.756,323.29a48.336,48.336,0,1,1,48.336-48.336A48.336,48.336,0,0,1,266.756,323.29Zm0-95.477a47.14,47.14,0,1,0,47.14,47.14A47.14,47.14,0,0,0,266.756,227.813Z" transform="translate(-205.421 -151.267)" fill="#3f3d56"/>
  <path id="Path_941" data-name="Path 941" d="M786,380.433,778.772,367.9c-9.362,1.189-27.385,13.143-27.385,13.143l-34.861,9.538a6.388,6.388,0,1,0,2.373,10.8l44.712-5.832Z" transform="translate(-402.302 -208.06)" fill="#9e616a"/>
  <path id="Path_942" data-name="Path 942" d="M825.553,366.718l16.181-13.553,2.354-10.909A11.746,11.746,0,0,0,839.87,330.6h0a11.718,11.718,0,0,0-15.934,1.444c-5.995,6.723-12.738,16.008-10.821,22.063l.019.061Z" transform="translate(-444.344 -192.072)" fill="#3f3d56"/>
  <path id="Path_943" data-name="Path 943" d="M374.432,437.954h-60.8a6.153,6.153,0,0,1-6.146-6.146V394.363a6.153,6.153,0,0,1,6.146-6.146h60.8a6.153,6.153,0,0,1,6.146,6.146v37.446A6.153,6.153,0,0,1,374.432,437.954Z" transform="translate(-241.225 -216.227)" fill="#e6e6e6"/>
  <path id="Path_944" data-name="Path 944" d="M353.411,436.374H321.043a5.762,5.762,0,0,1-5.756-5.756V402.039a5.762,5.762,0,0,1,5.756-5.756h52.25a5.762,5.762,0,0,1,5.756,5.756v8.7A25.667,25.667,0,0,1,353.411,436.374Z" transform="translate(-244.36 -219.469)" fill="#fff"/>
  <path id="Path_945" data-name="Path 945" d="M374.537,420.617H332.711a1.364,1.364,0,1,1,0-2.728h41.826a1.364,1.364,0,0,1,0,2.728Z" transform="translate(-250.816 -228.154)" fill="#6c63ff"/>
  <path id="Path_946" data-name="Path 946" d="M339.253,429.631h-6.542a1.364,1.364,0,1,1,0-2.728h6.543a1.364,1.364,0,1,1,0,2.728Z" transform="translate(-250.816 -231.778)" fill="#6c63ff"/>
  <path id="Path_947" data-name="Path 947" d="M350.841,438.644h-18.13a1.364,1.364,0,1,1,0-2.728h18.13a1.364,1.364,0,1,1,0,2.728Z" transform="translate(-250.816 -235.401)" fill="#6c63ff"/>
  <circle id="Ellipse_278" data-name="Ellipse 278" cx="12.861" cy="12.861" r="12.861" transform="translate(51.281 158.383)" fill="#3f3d56"/>
  <path id="Path_948" data-name="Path 948" d="M638.432,153.954h-60.8a6.153,6.153,0,0,1-6.146-6.146V110.363a6.153,6.153,0,0,1,6.146-6.146h60.8a6.153,6.153,0,0,1,6.146,6.146v37.446a6.153,6.153,0,0,1-6.146,6.146Z" transform="translate(-347.348 -102.064)" fill="#e6e6e6"/>
  <path id="Path_949" data-name="Path 949" d="M617.411,152.374H585.043a5.762,5.762,0,0,1-5.756-5.756V118.039a5.762,5.762,0,0,1,5.756-5.756h52.251a5.762,5.762,0,0,1,5.756,5.756v8.7A25.667,25.667,0,0,1,617.411,152.374Z" transform="translate(-350.483 -105.307)" fill="#fff"/>
  <path id="Path_950" data-name="Path 950" d="M638.537,136.617H596.711a1.364,1.364,0,0,1,0-2.728h41.826a1.364,1.364,0,1,1,0,2.728Z" transform="translate(-356.939 -113.992)" fill="#6c63ff"/>
  <path id="Path_951" data-name="Path 951" d="M603.253,145.631h-6.542a1.364,1.364,0,0,1,0-2.728h6.543a1.364,1.364,0,0,1,0,2.728Z" transform="translate(-356.939 -117.615)" fill="#6c63ff"/>
  <path id="Path_952" data-name="Path 952" d="M614.841,154.644h-18.13a1.364,1.364,0,0,1,0-2.728h18.13a1.364,1.364,0,1,1,0,2.728Z" transform="translate(-356.939 -121.238)" fill="#6c63ff"/>
  <circle id="Ellipse_279" data-name="Ellipse 279" cx="12.861" cy="12.861" r="12.861" transform="translate(209.158 33.397)" fill="#3f3d56"/>
</svg>
