<svg xmlns="http://www.w3.org/2000/svg" xmlns:xlink="http://www.w3.org/1999/xlink" width="322" height="189.203" viewBox="0 0 322 189.203">
  <defs>
    <filter id="Base" x="2.774" y="1.933" width="319.226" height="187.271" filterUnits="userSpaceOnUse">
      <feOffset dx="9" dy="9" input="SourceAlpha"/>
      <feGaussianBlur stdDeviation="2.5" result="blur"/>
      <feFlood flood-color="#26334d" flood-opacity="0.412"/>
      <feComposite operator="in" in2="blur"/>
      <feComposite in="SourceGraphic"/>
    </filter>
    <filter id="Rectangle_481" x="249" y="10" width="49" height="25" filterUnits="userSpaceOnUse">
      <feOffset dy="3" input="SourceAlpha"/>
      <feGaussianBlur stdDeviation="3" result="blur-2"/>
      <feFlood flood-opacity="0.161"/>
      <feComposite operator="in" in2="blur-2"/>
      <feComposite in="SourceGraphic"/>
    </filter>
    <filter id="Rectangle_481-2" x="248" y="23" width="53" height="33" filterUnits="userSpaceOnUse">
      <feOffset dy="3" input="SourceAlpha"/>
      <feGaussianBlur stdDeviation="3" result="blur-3"/>
      <feFlood flood-opacity="0.161"/>
      <feComposite operator="in" in2="blur-3"/>
      <feComposite in="SourceGraphic"/>
    </filter>
    <filter id="Rectangle_481-3" x="0" y="0" width="50" height="177" filterUnits="userSpaceOnUse">
      <feOffset dy="3" input="SourceAlpha"/>
      <feGaussianBlur stdDeviation="3" result="blur-4"/>
      <feFlood flood-opacity="0.161"/>
      <feComposite operator="in" in2="blur-4"/>
      <feComposite in="SourceGraphic"/>
    </filter>
    <filter id="Rectangle_481-4" x="48" y="10" width="49" height="25" filterUnits="userSpaceOnUse">
      <feOffset dy="3" input="SourceAlpha"/>
      <feGaussianBlur stdDeviation="3" result="blur-5"/>
      <feFlood flood-opacity="0.161"/>
      <feComposite operator="in" in2="blur-5"/>
      <feComposite in="SourceGraphic"/>
    </filter>
    <filter id="Rectangle_481-5" x="83" y="10" width="48" height="25" filterUnits="userSpaceOnUse">
      <feOffset dy="3" input="SourceAlpha"/>
      <feGaussianBlur stdDeviation="3" result="blur-6"/>
      <feFlood flood-opacity="0.161"/>
      <feComposite operator="in" in2="blur-6"/>
      <feComposite in="SourceGraphic"/>
    </filter>
    <filter id="Rectangle_481-6" x="117" y="10" width="49" height="25" filterUnits="userSpaceOnUse">
      <feOffset dy="3" input="SourceAlpha"/>
      <feGaussianBlur stdDeviation="3" result="blur-7"/>
      <feFlood flood-opacity="0.161"/>
      <feComposite operator="in" in2="blur-7"/>
      <feComposite in="SourceGraphic"/>
    </filter>
    <filter id="Rectangle_538" x="133" y="91" width="77" height="40" filterUnits="userSpaceOnUse">
      <feOffset dy="3" input="SourceAlpha"/>
      <feGaussianBlur stdDeviation="3" result="blur-8"/>
      <feFlood flood-opacity="0.161"/>
      <feComposite operator="in" in2="blur-8"/>
      <feComposite in="SourceGraphic"/>
    </filter>
    <filter id="Rectangle_481-7" x="73" y="51" width="78" height="40" filterUnits="userSpaceOnUse">
      <feOffset dy="3" input="SourceAlpha"/>
      <feGaussianBlur stdDeviation="3" result="blur-9"/>
      <feFlood flood-opacity="0.161"/>
      <feComposite operator="in" in2="blur-9"/>
      <feComposite in="SourceGraphic"/>
    </filter>
    <filter id="Rectangle_539" x="73" y="130" width="78" height="38" filterUnits="userSpaceOnUse">
      <feOffset dy="3" input="SourceAlpha"/>
      <feGaussianBlur stdDeviation="3" result="blur-10"/>
      <feFlood flood-opacity="0.161"/>
      <feComposite operator="in" in2="blur-10"/>
      <feComposite in="SourceGraphic"/>
    </filter>
  </defs>
  <g id="Group_850" data-name="Group 850" transform="translate(3.274 2.433)">
    <g transform="matrix(1, 0, 0, 1, -3.27, -2.43)" filter="url(#Base)">
      <path id="Base-2" data-name="Base" d="M26.552,0H275.174a26.552,26.552,0,0,1,26.552,26.552V143.219a26.552,26.552,0,0,1-26.552,26.552H26.552A26.552,26.552,0,0,1,0,143.219V26.552A26.552,26.552,0,0,1,26.552,0Z" transform="translate(3.27 2.43)" fill="#fff" stroke="#ededf2" stroke-width="1"/>
    </g>
    <g id="Group_792" data-name="Group 792" transform="translate(255.048 13.93)">
      <g transform="matrix(1, 0, 0, 1, -258.32, -16.36)" filter="url(#Rectangle_481)">
        <rect id="Rectangle_481-8" data-name="Rectangle 481" width="31" height="7" rx="3.5" transform="translate(258 16)" fill="#2900ff"/>
      </g>
    </g>
    <g transform="matrix(1, 0, 0, 1, -3.27, -2.43)" filter="url(#Rectangle_481-2)">
      <rect id="Rectangle_481-9" data-name="Rectangle 481" width="35" height="15" rx="7.5" transform="translate(257 29)" fill="#fceeff"/>
    </g>
    <g transform="matrix(1, 0, 0, 1, -3.27, -2.43)" filter="url(#Rectangle_481-3)">
      <rect id="Rectangle_481-10" data-name="Rectangle 481" width="32" height="159" rx="16" transform="translate(9 6)" fill="#6b52f9"/>
    </g>
    <g id="Group_805" data-name="Group 805" transform="translate(54.096 13.93)">
      <g transform="matrix(1, 0, 0, 1, -57.37, -16.36)" filter="url(#Rectangle_481-4)">
        <rect id="Rectangle_481-11" data-name="Rectangle 481" width="31" height="7" rx="3.5" transform="translate(57 16)" fill="#6b52f9"/>
      </g>
    </g>
    <g id="Group_806" data-name="Group 806" transform="translate(89.1 13.93)">
      <g transform="matrix(1, 0, 0, 1, -92.37, -16.36)" filter="url(#Rectangle_481-5)">
        <rect id="Rectangle_481-12" data-name="Rectangle 481" width="30" height="7" rx="3.5" transform="translate(92 16)" fill="#6b52f9"/>
      </g>
    </g>
    <g id="Group_848" data-name="Group 848" transform="translate(122.808 13.93)">
      <g transform="matrix(1, 0, 0, 1, -126.08, -16.36)" filter="url(#Rectangle_481-6)">
        <rect id="Rectangle_481-13" data-name="Rectangle 481" width="31" height="7" rx="3.5" transform="translate(126 16)" fill="#6b52f9"/>
      </g>
    </g>
    <g id="Group_849" data-name="Group 849" transform="translate(42.788 45.656)">
      <line id="Line_77" data-name="Line 77" x2="243.754" transform="translate(0)" fill="none" stroke="#fceeff" stroke-linecap="round" stroke-width="2"/>
      <line id="Line_77-2" data-name="Line 77" x2="243.754" transform="translate(0 9.862)" fill="none" stroke="#fceeff" stroke-linecap="round" stroke-width="2"/>
      <line id="Line_77-3" data-name="Line 77" x2="243.754" transform="translate(0 19.724)" fill="none" stroke="#fceeff" stroke-linecap="round" stroke-width="2"/>
      <line id="Line_77-4" data-name="Line 77" x2="243.754" transform="translate(0 29.586)" fill="none" stroke="#fceeff" stroke-linecap="round" stroke-width="2"/>
      <line id="Line_77-5" data-name="Line 77" x2="243.754" transform="translate(0 39.447)" fill="none" stroke="#fceeff" stroke-linecap="round" stroke-width="2"/>
      <line id="Line_77-6" data-name="Line 77" x2="243.754" transform="translate(0 49.309)" fill="none" stroke="#fceeff" stroke-linecap="round" stroke-width="2"/>
      <line id="Line_77-7" data-name="Line 77" x2="243.754" transform="translate(0 59.171)" fill="none" stroke="#fceeff" stroke-linecap="round" stroke-width="2"/>
      <line id="Line_77-8" data-name="Line 77" x2="243.754" transform="translate(0 69.033)" fill="none" stroke="#fceeff" stroke-linecap="round" stroke-width="2"/>
      <line id="Line_77-9" data-name="Line 77" x2="243.754" transform="translate(0 78.895)" fill="none" stroke="#fceeff" stroke-linecap="round" stroke-width="2"/>
      <line id="Line_77-10" data-name="Line 77" x2="243.754" transform="translate(0 88.757)" fill="none" stroke="#fceeff" stroke-linecap="round" stroke-width="2"/>
      <line id="Line_77-11" data-name="Line 77" x2="243.754" transform="translate(0 98.619)" fill="none" stroke="#fceeff" stroke-linecap="round" stroke-width="2"/>
      <line id="Line_77-12" data-name="Line 77" x2="243.754" transform="translate(0 108.48)" fill="none" stroke="#fceeff" stroke-linecap="round" stroke-width="2"/>
      <line id="Line_77-13" data-name="Line 77" x2="243.754" transform="translate(0 118.342)" fill="none" stroke="#fceeff" stroke-linecap="round" stroke-width="2"/>
      <line id="Line_79" data-name="Line 79" y2="118.01" transform="translate(11.205 0.183)" fill="none" stroke="#fceeff" stroke-linecap="round" stroke-width="2"/>
    </g>
    <g transform="matrix(1, 0, 0, 1, -3.27, -2.43)" filter="url(#Rectangle_538)">
      <rect id="Rectangle_538-2" data-name="Rectangle 538" width="59" height="22" rx="4" transform="translate(142 97)" fill="#cea2e6"/>
    </g>
    <g transform="matrix(1, 0, 0, 1, -3.27, -2.43)" filter="url(#Rectangle_481-7)">
      <rect id="Rectangle_481-14" data-name="Rectangle 481" width="60" height="22" rx="4" transform="translate(82 57)" fill="#50af79"/>
    </g>
    <g transform="matrix(1, 0, 0, 1, -3.27, -2.43)" filter="url(#Rectangle_539)">
      <rect id="Rectangle_539-2" data-name="Rectangle 539" width="60" height="20" rx="4" transform="translate(82 136)" fill="#5433ff"/>
    </g>
  </g>
</svg>
