<svg xmlns="http://www.w3.org/2000/svg" width="438.13" height="396.576" viewBox="0 0 438.13 396.576">
  <g id="Group_1021" data-name="Group 1021" transform="translate(0)">
    <path id="Path_1041" data-name="Path 1041" d="M738.461,251a5.76,5.76,0,0,0,6.369,4.9,5.521,5.521,0,0,0,.893-.195l12.006,16.115,10.32-3.215-18.833-20.3a5.744,5.744,0,0,0-6.017-3.6,5.5,5.5,0,0,0-4.759,6.147Q738.45,250.93,738.461,251Z" transform="translate(-431.698 -176.397)" fill="#a0616a"/>
    <path id="Path_1042" data-name="Path 1042" d="M828.075,328.983s-44.829-20.922-56.169-34.285l-20.32-25.23,10.306-8.431,19.1,22c-.174,4.623,22.4,9.362,34.537,16.1Z" transform="translate(-436.537 -182.401)" fill="#e6e6e6"/>
    <path id="Path_1043" data-name="Path 1043" d="M628.236,590.4h-8.793l-4.183-33.917h12.978Z" transform="translate(-225.676 -204.118)" fill="#a0616a"/>
    <path id="Path_1044" data-name="Path 1044" d="M874.614,752.92h-27.04v-.342A10.525,10.525,0,0,1,858.1,742.053h0l4.939-3.747,9.216,3.748h2.36Z" transform="translate(-471.745 -357.462)" fill="#2f2e41"/>
    <path id="Path_1045" data-name="Path 1045" d="M590.862,578.666l-8.563,2-11.78-32.079,12.638-2.948Z" transform="translate(-209.265 -200.138)" fill="#a0616a"/>
    <path id="Path_1046" data-name="Path 1046" d="M844.991,741.923l-26.333,6.143-.078-.333a10.525,10.525,0,0,1,7.858-12.641h0l3.959-4.771,9.826,1.556,2.3-.536Z" transform="translate(-461.008 -354.533)" fill="#2f2e41"/>
    <path id="Path_1047" data-name="Path 1047" d="M567.628,362.152H322.875a20.215,20.215,0,0,1-4.583-.581,20.459,20.459,0,0,1-15.679-19.953V258.427a20.548,20.548,0,0,1,20.534-20.516h244.48a20.268,20.268,0,0,1,9.462,2.316,19.664,19.664,0,0,1,3.281,2.141,20.307,20.307,0,0,1,7.79,16.058v83.191A20.557,20.557,0,0,1,567.628,362.152Z" transform="translate(-271.855 -173.918)" fill="#f2f2f2"/>
    <path id="Path_1048" data-name="Path 1048" d="M695.235,384.776q16.669-40.513,35.121-80.226v44.887A218.07,218.07,0,0,1,701.4,384.776Z" transform="translate(-415.867 -198.361)" fill="#6c63ff"/>
    <path id="Path_1049" data-name="Path 1049" d="M697.063,246.061q-32.984,59.174-69.023,116.547h-4.183q36.64-58.274,70.224-118.494A17.882,17.882,0,0,1,697.063,246.061Z" transform="translate(-389.686 -176.194)" fill="#6c63ff"/>
    <path id="Path_1050" data-name="Path 1050" d="M442.682,315.048a741.5,741.5,0,0,1-47.488,73.479H370.258q24.5-29.846,49.034-59.692c4.693-5.729,9.785-11.731,16.824-14.059Z" transform="translate(-296.666 -202.112)" fill="#6c63ff"/>
    <path id="Path_1051" data-name="Path 1051" d="M406.612,303.975c-2.6,2.71-5.093,5.529-7.439,8.457-5.165,6.22-10.258,12.495-15.369,18.752-3.183,3.892-6.366,7.784-9.512,11.676a23.227,23.227,0,0,1-2.837-2.146,25.446,25.446,0,1,1,32.524-39.145A23.46,23.46,0,0,1,406.612,303.975Z" transform="translate(-293.735 -195.113)" fill="#fff"/>
    <path id="Path_1052" data-name="Path 1052" d="M534.712,313.942l-47.8-17.478-23.735-8.676c-7.73-2.819-15.441-6.038-23.426-8.075a36.932,36.932,0,0,0-21.207.273,48.757,48.757,0,0,0-16.533,10.258q-3.165,2.919-6.129,6.02c-2.6,2.71-5.093,5.529-7.439,8.457-5.165,6.22-10.258,12.495-15.369,18.752-3.183,3.892-6.366,7.784-9.512,11.677Q347.8,354.437,332.21,373.816a18.228,18.228,0,0,1-4.147-.527Q344.323,353.1,360.728,333c1.255-1.564,2.546-3.147,3.819-4.711q7.993-9.794,16.005-19.57c4.129-5.038,8.221-10.112,12.7-14.859.4-.436.8-.855,1.219-1.291,9.076-9.385,20.407-17.678,33.975-17.9,7.984-.127,15.7,2.4,23.117,5.074,7.984,2.892,15.951,5.838,23.935,8.767l48.125,17.606,12.04,4.4C537.786,311.287,536.877,314.742,534.712,313.942Z" transform="translate(-281.189 -187.401)" fill="#6c63ff"/>
    <path id="Path_1053" data-name="Path 1053" d="M255.3,251.947V202a5.886,5.886,0,0,1,5.882-5.876H325.9v-1.266h-64.72A7.154,7.154,0,0,0,254.036,202v49.944Z" transform="translate(-254.036 -158.128)" fill="#3f3d56"/>
    <path id="Path_1054" data-name="Path 1054" d="M259.8,442.671a5.862,5.862,0,0,1-4.492-5.717V387.017h-1.266v49.937a7.123,7.123,0,0,0,5.459,6.947,7.042,7.042,0,0,0,1.6.2H325.9v-1.266H261.1A5.773,5.773,0,0,1,259.8,442.671Z" transform="translate(-254.037 -228.61)" fill="#3f3d56"/>
    <path id="Path_1055" data-name="Path 1055" d="M680.138,387.016v49.938a5.889,5.889,0,0,1-5.882,5.882h-64.72V444.1h64.72a7.157,7.157,0,0,0,7.149-7.149V387.016Z" transform="translate(-384.433 -228.61)" fill="#3f3d56"/>
    <path id="Path_1056" data-name="Path 1056" d="M679.967,196.792a5.609,5.609,0,0,1,.938.613,5.815,5.815,0,0,1,2.234,4.6v49.944h1.266V202a7.07,7.07,0,0,0-2.712-5.591,6.841,6.841,0,0,0-1.143-.745,7.056,7.056,0,0,0-3.294-.806h-64.72v1.266h64.72a5.806,5.806,0,0,1,2.711.664Z" transform="translate(-385.534 -158.128)" fill="#3f3d56"/>
    <path id="Path_1057" data-name="Path 1057" d="M866.579,486.821l-54.71,2.742-3.8,18.363v16.356l-2.332,60.9L822,632.667h13.038l-1.324-6.015h0a6.277,6.277,0,0,0,.216-6.98L832.884,618l-1.7-7.178-3.8-26.595,16.271-59.945,2.092,109.334h14.164l2.077-2.373a7.959,7.959,0,0,0,.628-9.667h0v-2.651l-1.673-9.371,15.61-116.325Z" transform="translate(-456.399 -265.218)" fill="#2f2e41"/>
    <path id="Path_1058" data-name="Path 1058" d="M840.973,306.8l-17.846.914-2.027,8.459-12.96,9.918a19.786,19.786,0,0,0-7.389,19.529l7.184,36.546-.467,22.874L808.5,414.4l-.078,1.418-1.587,1.3a6.143,6.143,0,0,0-1.6,7.507h0s-7.82,16.908,3.5,17.768,18.315-10.907,29.127-6.332,20.464,5.11,23.428,0,11.982-3.919,13.066-8.384-4.406-9.518-5.143-16.173-2.637-37.682-2.637-37.682l5.312-30.461a20.179,20.179,0,0,0-11.046-21.609l-17.008-8.281Z" transform="translate(-454.433 -199.185)" fill="#e6e6e6"/>
    <path id="Path_1059" data-name="Path 1059" d="M717.351,447.906a6.554,6.554,0,0,1,8.538-3.264,6.294,6.294,0,0,1,.91.5l18.338-13.655,10.2,6.867L728.2,454.347a6.535,6.535,0,0,1-7.733,1.967,6.255,6.255,0,0,1-3.185-8.252Q717.314,447.983,717.351,447.906Z" transform="translate(-423.756 -244.922)" fill="#a0616a"/>
    <path id="Path_1060" data-name="Path 1060" d="M784.538,343.683s-23.772,43.285-32.977,56.016l-6.988,5.458L745.206,423l15.615-8.617s31.512-23.869,30.608-33.807S784.538,343.683,784.538,343.683Z" transform="translate(-433.964 -212.715)" fill="#e6e6e6"/>
    <circle id="Ellipse_298" data-name="Ellipse 298" cx="16.863" cy="16.863" r="16.863" transform="translate(359.239 72.454)" fill="#a0616a"/>
    <path id="Path_1061" data-name="Path 1061" d="M842.3,280.417c-4.839-.159-5.279-1.437-10.118-1.6-1.541-.051-3.359-.262-4.1-1.612a3.557,3.557,0,0,1,.181-3.166,28.91,28.91,0,0,0,1.491-2.932,5.122,5.122,0,0,0-5.075-6.753c-1.473.064-2.856.756-4.324.883-2.014.174-6.467-6.476-5.54-8.272.9-1.748,2.719-3.068,3-5.015.187-1.273-.339-2.539-.411-3.824-.106-1.905,4.723,2.391,3.839.7-2.17-4.148,18.276-9.29,21.642-4.094,1.258,1.942,3.5,1.809,5.5,2.975,1.31.764,4.617,3.4,5.369,5.045a12.8,12.8,0,0,1,.958,5.295c.03,8.431-1.254,16.185-8.054,21.169" transform="translate(-459.681 -175.618)" fill="#2f2e41"/>
    <path id="Path_1062" data-name="Path 1062" d="M703.3,729.592a30.822,30.822,0,0,1-24.859-9.273c-4.173-4.4-7.037-10.063-9.806-15.54-.806-1.594-1.64-3.242-2.487-4.821a9.836,9.836,0,0,1,1.021-10.975,9.671,9.671,0,0,1,10.323-3.3l.4.117,3.637,14.193c.543-2.117,1.707-6.887,2.443-11.56l.062-.391.362.161a49.465,49.465,0,0,1,10.629,6.405,50.991,50.991,0,0,1,19.067,38.4l.01.441Z" transform="translate(-404.753 -338.017)" fill="#f2f2f2"/>
    <path id="Path_1063" data-name="Path 1063" d="M842.091,761.97l-176.505.195a.754.754,0,1,1,0-1.508l176.505-.195a.754.754,0,1,1,0,1.508Z" transform="translate(-404.716 -365.589)" fill="#cacaca"/>
    <path id="Path_1064" data-name="Path 1064" d="M403.892,540.236a16.567,16.567,0,1,1,16.567-16.567A16.567,16.567,0,0,1,403.892,540.236Z" transform="translate(-302.927 -272.657)" fill="#e6e6e6"/>
    <path id="Path_1065" data-name="Path 1065" d="M415.293,526.9h-4.9V522a1.634,1.634,0,0,0-3.268,0v4.9h-4.9a1.634,1.634,0,1,0,0,3.268h4.9v4.9a1.634,1.634,0,1,0,3.268,0v-4.9h4.9a1.634,1.634,0,1,0,0-3.268Z" transform="translate(-307.79 -277.52)" fill="#fff"/>
    <path id="Path_1066" data-name="Path 1066" d="M480.439,540.236a16.567,16.567,0,1,1,16.567-16.567A16.567,16.567,0,0,1,480.439,540.236Z" transform="translate(-331.004 -272.657)" fill="#e6e6e6"/>
    <path id="Path_1067" data-name="Path 1067" d="M491.84,530.685H478.766a1.634,1.634,0,1,0,0,3.268H491.84a1.634,1.634,0,1,0,0-3.268Z" transform="translate(-335.868 -281.307)" fill="#fff"/>
    <path id="Path_1068" data-name="Path 1068" d="M556.987,540.236a16.567,16.567,0,1,1,16.567-16.567A16.567,16.567,0,0,1,556.987,540.236Z" transform="translate(-359.082 -272.657)" fill="#e6e6e6"/>
    <path id="Path_1069" data-name="Path 1069" d="M571.171,527.7l-4.7-6.855a1.393,1.393,0,0,0-2.3,1.574l3.037,4.434h-11.9a1.634,1.634,0,1,0,0,3.269h12.049l-3.187,4.652a1.393,1.393,0,0,0,2.3,1.575l4.7-6.855a1.838,1.838,0,0,0,0-1.792Z" transform="translate(-363.945 -277.476)" fill="#fff"/>
    <circle id="Ellipse_299" data-name="Ellipse 299" cx="17.59" cy="17.59" r="17.59" transform="translate(131.845 0)" fill="#6c63ff"/>
    <path id="Path_1070" data-name="Path 1070" d="M482.334,168.48a1.956,1.956,0,0,1-1.565-.783l-4.8-6.4a1.957,1.957,0,1,1,3.131-2.348l3.14,4.186,8.064-12.1a1.957,1.957,0,1,1,3.256,2.171l-9.6,14.4a1.957,1.957,0,0,1-1.574.871Z" transform="translate(-335.298 -141.735)" fill="#fff"/>
  </g>
</svg>
