<svg xmlns="http://www.w3.org/2000/svg" xmlns:xlink="http://www.w3.org/1999/xlink" width="719" height="711" viewBox="0 0 719 711">
  <defs>
    <filter id="Base" x="473" y="210" width="246" height="145" filterUnits="userSpaceOnUse">
      <feOffset dy="2" input="SourceAlpha"/>
      <feGaussianBlur stdDeviation="2.5" result="blur"/>
      <feFlood flood-color="#26334d" flood-opacity="0.161"/>
      <feComposite operator="in" in2="blur"/>
      <feComposite in="SourceGraphic"/>
    </filter>
    <filter id="Rectangle_481" x="673" y="228" width="42" height="23" filterUnits="userSpaceOnUse">
      <feOffset dy="3" input="SourceAlpha"/>
      <feGaussianBlur stdDeviation="3" result="blur-2"/>
      <feFlood flood-opacity="0.161"/>
      <feComposite operator="in" in2="blur-2"/>
      <feComposite in="SourceGraphic"/>
    </filter>
    <filter id="Rectangle_481-2" x="511" y="239" width="46" height="28" filterUnits="userSpaceOnUse">
      <feOffset dy="3" input="SourceAlpha"/>
      <feGaussianBlur stdDeviation="3" result="blur-3"/>
      <feFlood flood-opacity="0.161"/>
      <feComposite operator="in" in2="blur-3"/>
      <feComposite in="SourceGraphic"/>
    </filter>
    <filter id="Rectangle_481-3" x="550" y="239" width="46" height="28" filterUnits="userSpaceOnUse">
      <feOffset dy="3" input="SourceAlpha"/>
      <feGaussianBlur stdDeviation="3" result="blur-4"/>
      <feFlood flood-opacity="0.161"/>
      <feComposite operator="in" in2="blur-4"/>
      <feComposite in="SourceGraphic"/>
    </filter>
    <filter id="Rectangle_481-4" x="590" y="239" width="46" height="28" filterUnits="userSpaceOnUse">
      <feOffset dy="3" input="SourceAlpha"/>
      <feGaussianBlur stdDeviation="3" result="blur-5"/>
      <feFlood flood-opacity="0.161"/>
      <feComposite operator="in" in2="blur-5"/>
      <feComposite in="SourceGraphic"/>
    </filter>
    <filter id="Rectangle_481-5" x="630" y="239" width="45" height="28" filterUnits="userSpaceOnUse">
      <feOffset dy="3" input="SourceAlpha"/>
      <feGaussianBlur stdDeviation="3" result="blur-6"/>
      <feFlood flood-opacity="0.161"/>
      <feComposite operator="in" in2="blur-6"/>
      <feComposite in="SourceGraphic"/>
    </filter>
    <filter id="Rectangle_481-6" x="476" y="214" width="42" height="140" filterUnits="userSpaceOnUse">
      <feOffset dy="3" input="SourceAlpha"/>
      <feGaussianBlur stdDeviation="3" result="blur-7"/>
      <feFlood flood-opacity="0.161"/>
      <feComposite operator="in" in2="blur-7"/>
      <feComposite in="SourceGraphic"/>
    </filter>
    <filter id="Rectangle_481-7" x="511" y="254" width="46" height="36" filterUnits="userSpaceOnUse">
      <feOffset dy="3" input="SourceAlpha"/>
      <feGaussianBlur stdDeviation="3" result="blur-8"/>
      <feFlood flood-opacity="0.161"/>
      <feComposite operator="in" in2="blur-8"/>
      <feComposite in="SourceGraphic"/>
    </filter>
    <filter id="Rectangle_525" x="550" y="254" width="46" height="36" filterUnits="userSpaceOnUse">
      <feOffset dy="3" input="SourceAlpha"/>
      <feGaussianBlur stdDeviation="3" result="blur-9"/>
      <feFlood flood-opacity="0.161"/>
      <feComposite operator="in" in2="blur-9"/>
      <feComposite in="SourceGraphic"/>
    </filter>
    <filter id="Rectangle_528" x="590" y="254" width="46" height="36" filterUnits="userSpaceOnUse">
      <feOffset dy="3" input="SourceAlpha"/>
      <feGaussianBlur stdDeviation="3" result="blur-10"/>
      <feFlood flood-opacity="0.161"/>
      <feComposite operator="in" in2="blur-10"/>
      <feComposite in="SourceGraphic"/>
    </filter>
    <filter id="Rectangle_530" x="630" y="254" width="45" height="36" filterUnits="userSpaceOnUse">
      <feOffset dy="3" input="SourceAlpha"/>
      <feGaussianBlur stdDeviation="3" result="blur-11"/>
      <feFlood flood-opacity="0.161"/>
      <feComposite operator="in" in2="blur-11"/>
      <feComposite in="SourceGraphic"/>
    </filter>
    <filter id="Rectangle_521" x="511" y="275" width="46" height="36" filterUnits="userSpaceOnUse">
      <feOffset dy="3" input="SourceAlpha"/>
      <feGaussianBlur stdDeviation="3" result="blur-12"/>
      <feFlood flood-opacity="0.161"/>
      <feComposite operator="in" in2="blur-12"/>
      <feComposite in="SourceGraphic"/>
    </filter>
    <filter id="Rectangle_524" x="550" y="275" width="46" height="36" filterUnits="userSpaceOnUse">
      <feOffset dy="3" input="SourceAlpha"/>
      <feGaussianBlur stdDeviation="3" result="blur-13"/>
      <feFlood flood-opacity="0.161"/>
      <feComposite operator="in" in2="blur-13"/>
      <feComposite in="SourceGraphic"/>
    </filter>
    <filter id="Rectangle_527" x="590" y="275" width="46" height="36" filterUnits="userSpaceOnUse">
      <feOffset dy="3" input="SourceAlpha"/>
      <feGaussianBlur stdDeviation="3" result="blur-14"/>
      <feFlood flood-opacity="0.161"/>
      <feComposite operator="in" in2="blur-14"/>
      <feComposite in="SourceGraphic"/>
    </filter>
    <filter id="Rectangle_522" x="511" y="298" width="46" height="35" filterUnits="userSpaceOnUse">
      <feOffset dy="3" input="SourceAlpha"/>
      <feGaussianBlur stdDeviation="3" result="blur-15"/>
      <feFlood flood-opacity="0.161"/>
      <feComposite operator="in" in2="blur-15"/>
      <feComposite in="SourceGraphic"/>
    </filter>
    <filter id="Rectangle_481-8" x="511" y="227" width="42" height="22" filterUnits="userSpaceOnUse">
      <feOffset dy="3" input="SourceAlpha"/>
      <feGaussianBlur stdDeviation="3" result="blur-16"/>
      <feFlood flood-opacity="0.161"/>
      <feComposite operator="in" in2="blur-16"/>
      <feComposite in="SourceGraphic"/>
    </filter>
    <filter id="Rectangle_481-9" x="511" y="239" width="19" height="28" filterUnits="userSpaceOnUse">
      <feOffset dy="3" input="SourceAlpha"/>
      <feGaussianBlur stdDeviation="3" result="blur-17"/>
      <feFlood flood-opacity="0.161"/>
      <feComposite operator="in" in2="blur-17"/>
      <feComposite in="SourceGraphic"/>
    </filter>
    <filter id="Rectangle_481-10" x="550" y="239" width="19" height="28" filterUnits="userSpaceOnUse">
      <feOffset dy="3" input="SourceAlpha"/>
      <feGaussianBlur stdDeviation="3" result="blur-18"/>
      <feFlood flood-opacity="0.161"/>
      <feComposite operator="in" in2="blur-18"/>
      <feComposite in="SourceGraphic"/>
    </filter>
    <filter id="Rectangle_481-11" x="590" y="239" width="20" height="28" filterUnits="userSpaceOnUse">
      <feOffset dy="3" input="SourceAlpha"/>
      <feGaussianBlur stdDeviation="3" result="blur-19"/>
      <feFlood flood-opacity="0.161"/>
      <feComposite operator="in" in2="blur-19"/>
      <feComposite in="SourceGraphic"/>
    </filter>
    <filter id="Rectangle_481-12" x="630" y="239" width="19" height="28" filterUnits="userSpaceOnUse">
      <feOffset dy="3" input="SourceAlpha"/>
      <feGaussianBlur stdDeviation="3" result="blur-20"/>
      <feFlood flood-opacity="0.161"/>
      <feComposite operator="in" in2="blur-20"/>
      <feComposite in="SourceGraphic"/>
    </filter>
    <filter id="Rectangle_481-13" x="537" y="227" width="42" height="22" filterUnits="userSpaceOnUse">
      <feOffset dy="3" input="SourceAlpha"/>
      <feGaussianBlur stdDeviation="3" result="blur-21"/>
      <feFlood flood-opacity="0.161"/>
      <feComposite operator="in" in2="blur-21"/>
      <feComposite in="SourceGraphic"/>
    </filter>
    <filter id="Rectangle_481-14" x="563" y="227" width="42" height="22" filterUnits="userSpaceOnUse">
      <feOffset dy="3" input="SourceAlpha"/>
      <feGaussianBlur stdDeviation="3" result="blur-22"/>
      <feFlood flood-opacity="0.161"/>
      <feComposite operator="in" in2="blur-22"/>
      <feComposite in="SourceGraphic"/>
    </filter>
    <filter id="Rectangle_481-15" x="512" y="312" width="29" height="21" filterUnits="userSpaceOnUse">
      <feOffset dy="3" input="SourceAlpha"/>
      <feGaussianBlur stdDeviation="3" result="blur-23"/>
      <feFlood flood-opacity="0.161"/>
      <feComposite operator="in" in2="blur-23"/>
      <feComposite in="SourceGraphic"/>
    </filter>
    <filter id="Rectangle_531" x="512" y="291" width="29" height="19" filterUnits="userSpaceOnUse">
      <feOffset dy="3" input="SourceAlpha"/>
      <feGaussianBlur stdDeviation="3" result="blur-24"/>
      <feFlood flood-opacity="0.161"/>
      <feComposite operator="in" in2="blur-24"/>
      <feComposite in="SourceGraphic"/>
    </filter>
    <filter id="Rectangle_532" x="512" y="269" width="29" height="21" filterUnits="userSpaceOnUse">
      <feOffset dy="3" input="SourceAlpha"/>
      <feGaussianBlur stdDeviation="3" result="blur-25"/>
      <feFlood flood-opacity="0.161"/>
      <feComposite operator="in" in2="blur-25"/>
      <feComposite in="SourceGraphic"/>
    </filter>
    <filter id="Rectangle_533" x="551" y="269" width="29" height="21" filterUnits="userSpaceOnUse">
      <feOffset dy="3" input="SourceAlpha"/>
      <feGaussianBlur stdDeviation="3" result="blur-26"/>
      <feFlood flood-opacity="0.161"/>
      <feComposite operator="in" in2="blur-26"/>
      <feComposite in="SourceGraphic"/>
    </filter>
    <filter id="Rectangle_534" x="551" y="291" width="29" height="19" filterUnits="userSpaceOnUse">
      <feOffset dy="3" input="SourceAlpha"/>
      <feGaussianBlur stdDeviation="3" result="blur-27"/>
      <feFlood flood-opacity="0.161"/>
      <feComposite operator="in" in2="blur-27"/>
      <feComposite in="SourceGraphic"/>
    </filter>
    <filter id="Rectangle_535" x="590" y="291" width="29" height="19" filterUnits="userSpaceOnUse">
      <feOffset dy="3" input="SourceAlpha"/>
      <feGaussianBlur stdDeviation="3" result="blur-28"/>
      <feFlood flood-opacity="0.161"/>
      <feComposite operator="in" in2="blur-28"/>
      <feComposite in="SourceGraphic"/>
    </filter>
    <filter id="Rectangle_536" x="590" y="269" width="29" height="21" filterUnits="userSpaceOnUse">
      <feOffset dy="3" input="SourceAlpha"/>
      <feGaussianBlur stdDeviation="3" result="blur-29"/>
      <feFlood flood-opacity="0.161"/>
      <feComposite operator="in" in2="blur-29"/>
      <feComposite in="SourceGraphic"/>
    </filter>
    <filter id="Rectangle_537" x="630" y="269" width="28" height="21" filterUnits="userSpaceOnUse">
      <feOffset dy="3" input="SourceAlpha"/>
      <feGaussianBlur stdDeviation="3" result="blur-30"/>
      <feFlood flood-opacity="0.161"/>
      <feComposite operator="in" in2="blur-30"/>
      <feComposite in="SourceGraphic"/>
    </filter>
    <filter id="Base-2" x="2.774" y="448.933" width="319.226" height="187.271" filterUnits="userSpaceOnUse">
      <feOffset dx="9" dy="9" input="SourceAlpha"/>
      <feGaussianBlur stdDeviation="2.5" result="blur-31"/>
      <feFlood flood-color="#26334d" flood-opacity="0.412"/>
      <feComposite operator="in" in2="blur-31"/>
      <feComposite in="SourceGraphic"/>
    </filter>
    <filter id="Rectangle_481-16" x="249" y="457" width="49" height="25" filterUnits="userSpaceOnUse">
      <feOffset dy="3" input="SourceAlpha"/>
      <feGaussianBlur stdDeviation="3" result="blur-32"/>
      <feFlood flood-opacity="0.161"/>
      <feComposite operator="in" in2="blur-32"/>
      <feComposite in="SourceGraphic"/>
    </filter>
    <filter id="Rectangle_481-17" x="248" y="470" width="53" height="33" filterUnits="userSpaceOnUse">
      <feOffset dy="3" input="SourceAlpha"/>
      <feGaussianBlur stdDeviation="3" result="blur-33"/>
      <feFlood flood-opacity="0.161"/>
      <feComposite operator="in" in2="blur-33"/>
      <feComposite in="SourceGraphic"/>
    </filter>
    <filter id="Rectangle_481-18" x="0" y="447" width="50" height="177" filterUnits="userSpaceOnUse">
      <feOffset dy="3" input="SourceAlpha"/>
      <feGaussianBlur stdDeviation="3" result="blur-34"/>
      <feFlood flood-opacity="0.161"/>
      <feComposite operator="in" in2="blur-34"/>
      <feComposite in="SourceGraphic"/>
    </filter>
    <filter id="Rectangle_481-19" x="48" y="457" width="49" height="25" filterUnits="userSpaceOnUse">
      <feOffset dy="3" input="SourceAlpha"/>
      <feGaussianBlur stdDeviation="3" result="blur-35"/>
      <feFlood flood-opacity="0.161"/>
      <feComposite operator="in" in2="blur-35"/>
      <feComposite in="SourceGraphic"/>
    </filter>
    <filter id="Rectangle_481-20" x="83" y="457" width="48" height="25" filterUnits="userSpaceOnUse">
      <feOffset dy="3" input="SourceAlpha"/>
      <feGaussianBlur stdDeviation="3" result="blur-36"/>
      <feFlood flood-opacity="0.161"/>
      <feComposite operator="in" in2="blur-36"/>
      <feComposite in="SourceGraphic"/>
    </filter>
    <filter id="Rectangle_481-21" x="117" y="457" width="49" height="25" filterUnits="userSpaceOnUse">
      <feOffset dy="3" input="SourceAlpha"/>
      <feGaussianBlur stdDeviation="3" result="blur-37"/>
      <feFlood flood-opacity="0.161"/>
      <feComposite operator="in" in2="blur-37"/>
      <feComposite in="SourceGraphic"/>
    </filter>
    <filter id="Rectangle_538" x="133" y="538" width="77" height="40" filterUnits="userSpaceOnUse">
      <feOffset dy="3" input="SourceAlpha"/>
      <feGaussianBlur stdDeviation="3" result="blur-38"/>
      <feFlood flood-opacity="0.161"/>
      <feComposite operator="in" in2="blur-38"/>
      <feComposite in="SourceGraphic"/>
    </filter>
    <filter id="Rectangle_481-22" x="73" y="498" width="78" height="40" filterUnits="userSpaceOnUse">
      <feOffset dy="3" input="SourceAlpha"/>
      <feGaussianBlur stdDeviation="3" result="blur-39"/>
      <feFlood flood-opacity="0.161"/>
      <feComposite operator="in" in2="blur-39"/>
      <feComposite in="SourceGraphic"/>
    </filter>
    <filter id="Rectangle_539" x="73" y="577" width="78" height="38" filterUnits="userSpaceOnUse">
      <feOffset dy="3" input="SourceAlpha"/>
      <feGaussianBlur stdDeviation="3" result="blur-40"/>
      <feFlood flood-opacity="0.161"/>
      <feComposite operator="in" in2="blur-40"/>
      <feComposite in="SourceGraphic"/>
    </filter>
    <filter id="Goals_Logo" x="278.942" y="0.416" width="47.232" height="47.231" filterUnits="userSpaceOnUse">
      <feOffset dy="3" input="SourceAlpha"/>
      <feGaussianBlur stdDeviation="3" result="blur-41"/>
      <feFlood flood-opacity="0.161"/>
      <feComposite operator="in" in2="blur-41"/>
      <feComposite in="SourceGraphic"/>
    </filter>
    <filter id="My_Tasks_Logo" x="63.986" y="206.067" width="34.491" height="31.915" filterUnits="userSpaceOnUse">
      <feOffset dy="3" input="SourceAlpha"/>
      <feGaussianBlur stdDeviation="3" result="blur-42"/>
      <feFlood flood-opacity="0.161"/>
      <feComposite operator="in" in2="blur-42"/>
      <feComposite in="SourceGraphic"/>
    </filter>
    <filter id="Union_5" x="363.39" y="618.66" width="64.081" height="79.438" filterUnits="userSpaceOnUse">
      <feOffset dx="1" dy="3" input="SourceAlpha"/>
      <feGaussianBlur stdDeviation="3" result="blur-43"/>
      <feFlood flood-opacity="0.161"/>
      <feComposite operator="in" in2="blur-43"/>
      <feComposite in="SourceGraphic"/>
    </filter>
    <filter id="Path_163" x="387.105" y="613.54" width="48.719" height="46.159" filterUnits="userSpaceOnUse">
      <feOffset dy="3" input="SourceAlpha"/>
      <feGaussianBlur stdDeviation="3" result="blur-44"/>
      <feFlood flood-opacity="0.161"/>
      <feComposite operator="in" in2="blur-44"/>
      <feComposite in="SourceGraphic"/>
    </filter>
  </defs>
  <g id="Hero_Section_Graphic" data-name="Hero Section Graphic" transform="translate(5800 9767)">
    <circle id="Ellipse_177" data-name="Ellipse 177" cx="238.5" cy="238.5" r="238.5" transform="translate(-5659 -9684)" fill="#f6f5fe"/>
    <ellipse id="Ellipse_183" data-name="Ellipse 183" cx="95" cy="94.5" rx="95" ry="94.5" transform="translate(-5616 -9532)" fill="#6b52f9"/>
    <ellipse id="Ellipse_185" data-name="Ellipse 185" cx="47.5" cy="48" rx="47.5" ry="48" transform="translate(-5381 -9335)" fill="#6b52f9"/>
    <ellipse id="Ellipse_184" data-name="Ellipse 184" cx="44" cy="43.5" rx="44" ry="43.5" transform="translate(-5363 -9716)" fill="#400781"/>
    <ellipse id="Ellipse_189" data-name="Ellipse 189" cx="56" cy="55" rx="56" ry="55" transform="translate(-5774 -9602)" fill="#400781"/>
    <g id="Ellipse_178" data-name="Ellipse 178" transform="translate(-5742 -9761)" fill="none" stroke="#fceeff" stroke-width="5" stroke-dasharray="10">
      <circle cx="326.5" cy="326.5" r="326.5" stroke="none"/>
      <circle cx="326.5" cy="326.5" r="324" fill="none"/>
    </g>
    <g id="Group_847" data-name="Group 847" transform="translate(-5319.354 -9550.928)">
      <g transform="matrix(1, 0, 0, 1, -480.65, -216.07)" filter="url(#Base)">
        <rect id="Base-3" data-name="Base" width="230" height="129" rx="33" transform="translate(481 216)" fill="#fff" stroke="#ededf2" stroke-width="1"/>
      </g>
      <line id="Line_77" data-name="Line 77" x2="220.777" transform="translate(5.015 24.885)" fill="none" stroke="#fceeff" stroke-linecap="round" stroke-width="2"/>
      <g id="Group_792" data-name="Group 792" transform="translate(201.826 17.808)">
        <g transform="matrix(1, 0, 0, 1, -682.47, -233.88)" filter="url(#Rectangle_481)">
          <rect id="Rectangle_481-23" data-name="Rectangle 481" width="24" height="5" rx="2.5" transform="translate(682 234)" fill="#2900ff"/>
        </g>
      </g>
      <g id="Group_820" data-name="Group 820" transform="translate(39.178 28.492)">
        <g transform="matrix(1, 0, 0, 1, -519.82, -244.56)" filter="url(#Rectangle_481-2)">
          <rect id="Rectangle_481-24" data-name="Rectangle 481" width="28" height="10" rx="4" transform="translate(520 245)" fill="#fceeff"/>
        </g>
      </g>
      <g id="Group_840" data-name="Group 840" transform="translate(78.356 28.492)">
        <g transform="matrix(1, 0, 0, 1, -559, -244.56)" filter="url(#Rectangle_481-3)">
          <rect id="Rectangle_481-25" data-name="Rectangle 481" width="28" height="10" rx="4" transform="translate(559 245)" fill="#fceeff"/>
        </g>
      </g>
      <g id="Group_841" data-name="Group 841" transform="translate(118.721 28.492)">
        <g transform="matrix(1, 0, 0, 1, -599.37, -244.56)" filter="url(#Rectangle_481-4)">
          <rect id="Rectangle_481-26" data-name="Rectangle 481" width="28" height="10" rx="4" transform="translate(599 245)" fill="#fceeff"/>
        </g>
      </g>
      <g id="Group_845" data-name="Group 845" transform="translate(157.899 28.492)">
        <g transform="matrix(1, 0, 0, 1, -638.55, -244.56)" filter="url(#Rectangle_481-5)">
          <rect id="Rectangle_481-27" data-name="Rectangle 481" width="27" height="10" rx="4" transform="translate(639 245)" fill="#fceeff"/>
        </g>
      </g>
      <g transform="matrix(1, 0, 0, 1, -480.65, -216.07)" filter="url(#Rectangle_481-6)">
        <rect id="Rectangle_481-28" data-name="Rectangle 481" width="24" height="122" rx="12" transform="translate(485 220)" fill="#5433ff"/>
      </g>
      <g transform="matrix(1, 0, 0, 1, -480.65, -216.07)" filter="url(#Rectangle_481-7)">
        <rect id="Rectangle_481-29" data-name="Rectangle 481" width="28" height="18" rx="4" transform="translate(520 260)" fill="#6b52f9"/>
      </g>
      <g transform="matrix(1, 0, 0, 1, -480.65, -216.07)" filter="url(#Rectangle_525)">
        <rect id="Rectangle_525-2" data-name="Rectangle 525" width="28" height="18" rx="4" transform="translate(559 260)" fill="#6b52f9"/>
      </g>
      <g transform="matrix(1, 0, 0, 1, -480.65, -216.07)" filter="url(#Rectangle_528)">
        <rect id="Rectangle_528-2" data-name="Rectangle 528" width="28" height="18" rx="4" transform="translate(599 260)" fill="#6b52f9"/>
      </g>
      <g transform="matrix(1, 0, 0, 1, -480.65, -216.07)" filter="url(#Rectangle_530)">
        <rect id="Rectangle_530-2" data-name="Rectangle 530" width="27" height="18" rx="4" transform="translate(639 260)" fill="#6b52f9"/>
      </g>
      <g transform="matrix(1, 0, 0, 1, -480.65, -216.07)" filter="url(#Rectangle_521)">
        <rect id="Rectangle_521-2" data-name="Rectangle 521" width="28" height="18" rx="4" transform="translate(520 281)" fill="#6b52f9"/>
      </g>
      <g transform="matrix(1, 0, 0, 1, -480.65, -216.07)" filter="url(#Rectangle_524)">
        <rect id="Rectangle_524-2" data-name="Rectangle 524" width="28" height="18" rx="4" transform="translate(559 281)" fill="#6b52f9"/>
      </g>
      <g transform="matrix(1, 0, 0, 1, -480.65, -216.07)" filter="url(#Rectangle_527)">
        <rect id="Rectangle_527-2" data-name="Rectangle 527" width="28" height="18" rx="4" transform="translate(599 281)" fill="#6b52f9"/>
      </g>
      <g transform="matrix(1, 0, 0, 1, -480.65, -216.07)" filter="url(#Rectangle_522)">
        <rect id="Rectangle_522-2" data-name="Rectangle 522" width="28" height="17" rx="4" transform="translate(520 304)" fill="#6b52f9"/>
      </g>
      <g id="Group_805" data-name="Group 805" transform="translate(39.178 16.621)">
        <g transform="matrix(1, 0, 0, 1, -519.82, -232.69)" filter="url(#Rectangle_481-8)">
          <rect id="Rectangle_481-30" data-name="Rectangle 481" width="24" height="4" rx="2" transform="translate(520 233)" fill="#6b52f9"/>
        </g>
      </g>
      <g id="Group_842" data-name="Group 842" transform="translate(39.178 28.492)">
        <g transform="matrix(1, 0, 0, 1, -519.82, -244.56)" filter="url(#Rectangle_481-9)">
          <rect id="Rectangle_481-31" data-name="Rectangle 481" width="1" height="10" rx="0.5" transform="translate(520 245)" fill="#6b52f9"/>
        </g>
      </g>
      <g id="Group_843" data-name="Group 843" transform="translate(78.356 28.492)">
        <g transform="matrix(1, 0, 0, 1, -559, -244.56)" filter="url(#Rectangle_481-10)">
          <rect id="Rectangle_481-32" data-name="Rectangle 481" width="1" height="10" rx="0.5" transform="translate(559 245)" fill="#6b52f9"/>
        </g>
      </g>
      <g id="Group_844" data-name="Group 844" transform="translate(118.721 28.492)">
        <g transform="matrix(1, 0, 0, 1, -599.37, -244.56)" filter="url(#Rectangle_481-11)">
          <rect id="Rectangle_481-33" data-name="Rectangle 481" width="2" height="10" rx="1" transform="translate(599 245)" fill="#6b52f9"/>
        </g>
      </g>
      <g id="Group_846" data-name="Group 846" transform="translate(157.899 28.492)">
        <g transform="matrix(1, 0, 0, 1, -638.55, -244.56)" filter="url(#Rectangle_481-12)">
          <rect id="Rectangle_481-34" data-name="Rectangle 481" width="1" height="10" rx="0.5" transform="translate(639 245)" fill="#6b52f9"/>
        </g>
      </g>
      <g id="Group_806" data-name="Group 806" transform="translate(65.296 16.621)">
        <g transform="matrix(1, 0, 0, 1, -545.94, -232.69)" filter="url(#Rectangle_481-13)">
          <rect id="Rectangle_481-35" data-name="Rectangle 481" width="24" height="4" rx="2" transform="translate(546 233)" fill="#6b52f9"/>
        </g>
      </g>
      <g id="Group_848" data-name="Group 848" transform="translate(91.415 16.621)">
        <g transform="matrix(1, 0, 0, 1, -572.06, -232.69)" filter="url(#Rectangle_481-14)">
          <rect id="Rectangle_481-36" data-name="Rectangle 481" width="24" height="4" rx="2" transform="translate(572 233)" fill="#6b52f9"/>
        </g>
      </g>
      <g transform="matrix(1, 0, 0, 1, -480.65, -216.07)" filter="url(#Rectangle_481-15)">
        <rect id="Rectangle_481-37" data-name="Rectangle 481" width="11" height="3" rx="1.5" transform="translate(521 318)" fill="#fff"/>
      </g>
      <g transform="matrix(1, 0, 0, 1, -480.65, -216.07)" filter="url(#Rectangle_531)">
        <rect id="Rectangle_531-2" data-name="Rectangle 531" width="11" height="1" rx="0.5" transform="translate(521 297)" fill="#fff"/>
      </g>
      <g transform="matrix(1, 0, 0, 1, -480.65, -216.07)" filter="url(#Rectangle_532)">
        <rect id="Rectangle_532-2" data-name="Rectangle 532" width="11" height="3" rx="1.5" transform="translate(521 275)" fill="#fff"/>
      </g>
      <g transform="matrix(1, 0, 0, 1, -480.65, -216.07)" filter="url(#Rectangle_533)">
        <rect id="Rectangle_533-2" data-name="Rectangle 533" width="11" height="3" rx="1.5" transform="translate(560 275)" fill="#fff"/>
      </g>
      <g transform="matrix(1, 0, 0, 1, -480.65, -216.07)" filter="url(#Rectangle_534)">
        <rect id="Rectangle_534-2" data-name="Rectangle 534" width="11" height="1" rx="0.5" transform="translate(560 297)" fill="#fff"/>
      </g>
      <g transform="matrix(1, 0, 0, 1, -480.65, -216.07)" filter="url(#Rectangle_535)">
        <rect id="Rectangle_535-2" data-name="Rectangle 535" width="11" height="1" rx="0.5" transform="translate(599 297)" fill="#fff"/>
      </g>
      <g transform="matrix(1, 0, 0, 1, -480.65, -216.07)" filter="url(#Rectangle_536)">
        <rect id="Rectangle_536-2" data-name="Rectangle 536" width="11" height="3" rx="1.5" transform="translate(599 275)" fill="#fff"/>
      </g>
      <g transform="matrix(1, 0, 0, 1, -480.65, -216.07)" filter="url(#Rectangle_537)">
        <rect id="Rectangle_537-2" data-name="Rectangle 537" width="10" height="3" rx="1.5" transform="translate(639 275)" fill="#fff"/>
      </g>
    </g>
    <g id="Group_850" data-name="Group 850" transform="translate(-5796.726 -9317.567)">
      <g transform="matrix(1, 0, 0, 1, -3.27, -449.43)" filter="url(#Base-2)">
        <path id="Base-4" data-name="Base" d="M26.552,0H275.174a26.552,26.552,0,0,1,26.552,26.552V143.219a26.552,26.552,0,0,1-26.552,26.552H26.552A26.552,26.552,0,0,1,0,143.219V26.552A26.552,26.552,0,0,1,26.552,0Z" transform="translate(3.27 449.43)" fill="#fff" stroke="#ededf2" stroke-width="1"/>
      </g>
      <g id="Group_792-2" data-name="Group 792" transform="translate(255.048 13.93)">
        <g transform="matrix(1, 0, 0, 1, -258.32, -463.36)" filter="url(#Rectangle_481-16)">
          <rect id="Rectangle_481-38" data-name="Rectangle 481" width="31" height="7" rx="3.5" transform="translate(258 463)" fill="#2900ff"/>
        </g>
      </g>
      <g transform="matrix(1, 0, 0, 1, -3.27, -449.43)" filter="url(#Rectangle_481-17)">
        <rect id="Rectangle_481-39" data-name="Rectangle 481" width="35" height="15" rx="7.5" transform="translate(257 476)" fill="#fceeff"/>
      </g>
      <g transform="matrix(1, 0, 0, 1, -3.27, -449.43)" filter="url(#Rectangle_481-18)">
        <rect id="Rectangle_481-40" data-name="Rectangle 481" width="32" height="159" rx="16" transform="translate(9 453)" fill="#6b52f9"/>
      </g>
      <g id="Group_805-2" data-name="Group 805" transform="translate(54.096 13.93)">
        <g transform="matrix(1, 0, 0, 1, -57.37, -463.36)" filter="url(#Rectangle_481-19)">
          <rect id="Rectangle_481-41" data-name="Rectangle 481" width="31" height="7" rx="3.5" transform="translate(57 463)" fill="#6b52f9"/>
        </g>
      </g>
      <g id="Group_806-2" data-name="Group 806" transform="translate(89.1 13.93)">
        <g transform="matrix(1, 0, 0, 1, -92.37, -463.36)" filter="url(#Rectangle_481-20)">
          <rect id="Rectangle_481-42" data-name="Rectangle 481" width="30" height="7" rx="3.5" transform="translate(92 463)" fill="#6b52f9"/>
        </g>
      </g>
      <g id="Group_848-2" data-name="Group 848" transform="translate(122.808 13.93)">
        <g transform="matrix(1, 0, 0, 1, -126.08, -463.36)" filter="url(#Rectangle_481-21)">
          <rect id="Rectangle_481-43" data-name="Rectangle 481" width="31" height="7" rx="3.5" transform="translate(126 463)" fill="#6b52f9"/>
        </g>
      </g>
      <g id="Group_849" data-name="Group 849" transform="translate(42.788 45.656)">
        <line id="Line_77-2" data-name="Line 77" x2="243.754" transform="translate(0)" fill="none" stroke="#fceeff" stroke-linecap="round" stroke-width="2"/>
        <line id="Line_77-3" data-name="Line 77" x2="243.754" transform="translate(0 9.862)" fill="none" stroke="#fceeff" stroke-linecap="round" stroke-width="2"/>
        <line id="Line_77-4" data-name="Line 77" x2="243.754" transform="translate(0 19.724)" fill="none" stroke="#fceeff" stroke-linecap="round" stroke-width="2"/>
        <line id="Line_77-5" data-name="Line 77" x2="243.754" transform="translate(0 29.586)" fill="none" stroke="#fceeff" stroke-linecap="round" stroke-width="2"/>
        <line id="Line_77-6" data-name="Line 77" x2="243.754" transform="translate(0 39.447)" fill="none" stroke="#fceeff" stroke-linecap="round" stroke-width="2"/>
        <line id="Line_77-7" data-name="Line 77" x2="243.754" transform="translate(0 49.309)" fill="none" stroke="#fceeff" stroke-linecap="round" stroke-width="2"/>
        <line id="Line_77-8" data-name="Line 77" x2="243.754" transform="translate(0 59.171)" fill="none" stroke="#fceeff" stroke-linecap="round" stroke-width="2"/>
        <line id="Line_77-9" data-name="Line 77" x2="243.754" transform="translate(0 69.033)" fill="none" stroke="#fceeff" stroke-linecap="round" stroke-width="2"/>
        <line id="Line_77-10" data-name="Line 77" x2="243.754" transform="translate(0 78.895)" fill="none" stroke="#fceeff" stroke-linecap="round" stroke-width="2"/>
        <line id="Line_77-11" data-name="Line 77" x2="243.754" transform="translate(0 88.757)" fill="none" stroke="#fceeff" stroke-linecap="round" stroke-width="2"/>
        <line id="Line_77-12" data-name="Line 77" x2="243.754" transform="translate(0 98.619)" fill="none" stroke="#fceeff" stroke-linecap="round" stroke-width="2"/>
        <line id="Line_77-13" data-name="Line 77" x2="243.754" transform="translate(0 108.48)" fill="none" stroke="#fceeff" stroke-linecap="round" stroke-width="2"/>
        <line id="Line_77-14" data-name="Line 77" x2="243.754" transform="translate(0 118.342)" fill="none" stroke="#fceeff" stroke-linecap="round" stroke-width="2"/>
        <line id="Line_79" data-name="Line 79" y2="118.01" transform="translate(11.205 0.183)" fill="none" stroke="#fceeff" stroke-linecap="round" stroke-width="2"/>
      </g>
      <g transform="matrix(1, 0, 0, 1, -3.27, -449.43)" filter="url(#Rectangle_538)">
        <rect id="Rectangle_538-2" data-name="Rectangle 538" width="59" height="22" rx="4" transform="translate(142 544)" fill="#cea2e6"/>
      </g>
      <g transform="matrix(1, 0, 0, 1, -3.27, -449.43)" filter="url(#Rectangle_481-22)">
        <rect id="Rectangle_481-44" data-name="Rectangle 481" width="60" height="22" rx="4" transform="translate(82 504)" fill="#50af79"/>
      </g>
      <g transform="matrix(1, 0, 0, 1, -3.27, -449.43)" filter="url(#Rectangle_539)">
        <rect id="Rectangle_539-2" data-name="Rectangle 539" width="60" height="20" rx="4" transform="translate(82 583)" fill="#5433ff"/>
      </g>
    </g>
    <g id="Group_901" data-name="Group 901" transform="translate(-5365.289 -9696.675)">
      <path id="Path_285" data-name="Path 285" d="M918.576,649.693a12.379,12.379,0,0,1-4.442-10.672,10.008,10.008,0,0,1,7.44-8.5c3.925-.846,8.4,1.5,9.592,5.331.656-7.393,1.412-15.1,5.343-21.391a22.654,22.654,0,0,1,16.4-10.509,20.325,20.325,0,0,1,17.881,7.3,18.447,18.447,0,0,1,2.268,18.992c-2.15,4.459-6.11,7.778-10.259,10.478a66.213,66.213,0,0,1-45.286,9.907" transform="translate(-874.529 -500.027)" fill="#50af79"/>
      <path id="Path_286" data-name="Path 286" d="M998.918,610.275a109.257,109.257,0,0,0-32.1,43.409c-.306.75.912,1.077,1.215.335a108.041,108.041,0,0,1,31.781-42.853c.629-.512-.267-1.4-.891-.891Z" transform="translate(-909.261 -504.167)" fill="#fff"/>
      <circle id="Ellipse_182" data-name="Ellipse 182" cx="8.95" cy="8.95" r="8.95" transform="translate(33.886 5.696)" fill="#ffb8b8"/>
      <path id="Path_317" data-name="Path 317" d="M729.265,536.438l-4.256-1.357,3.207-17.062,6.282,2Z" transform="translate(-713.102 -389.936)" fill="#ffb8b8"/>
      <path id="Path_318" data-name="Path 318" d="M5.222,0H14.04V5.424H0v-.2A5.222,5.222,0,0,1,5.222,0Z" transform="translate(4.087 141.312) rotate(17.679)" fill="#2f2e41"/>
      <path id="Path_319" data-name="Path 319" d="M815.539,538.475h-4.468l-2.126-17.231h6.593Z" transform="translate(-768.409 -392.061)" fill="#ffb8b8"/>
      <path id="Path_320" data-name="Path 320" d="M795.142,568.02h8.818v5.424H789.92v-.2A5.222,5.222,0,0,1,795.142,568.02Z" transform="translate(-755.873 -422.883)" fill="#2f2e41"/>
      <path id="Path_321" data-name="Path 321" d="M866.852,564.337l-1.508-.225c-4.573-.681-4.847-.722-5.573-1.041-.371-.163-.4-2.624-.174-16.459.163-10.155.367-22.794-.028-29.579a1.194,1.194,0,0,0-2.286-.4c-3.4,7.858-9.111,25.441-12.888,37.077-1.314,4.047-2.352,7.244-3.008,9.161a1.543,1.543,0,0,1-1.826.988c-3.109-.777-2.9-1.108-7.328-2.253a1.531,1.531,0,0,1-1.119-1.8c.8-3.777,15.456-65.01,16.578-70.831a1.535,1.535,0,0,1,1.809-1.218c3.3.665,5.307,1.37,8.568,2.052,3.518.736,7.157,1.5,10.705,2.207h0a1.523,1.523,0,0,1,.893.548,9.5,9.5,0,0,0,3.559,2.391c.929.444-1.177.4-.367,1.045,3.278,2.595-1.436,55.285-4.284,67.185A1.54,1.54,0,0,1,866.852,564.337Z" transform="translate(-819.853 -423.515)" fill="#2f2e41"/>
      <path id="Path_322" data-name="Path 322" d="M927.906,513.887a3.239,3.239,0,0,1,3.034-3.933l7.234-8.165,4.492,5.427-8.319,6.077a3.257,3.257,0,0,1-6.441.594Z" transform="translate(-883.604 -432.784)" fill="#ffb8b8"/>
      <path id="Path_323" data-name="Path 323" d="M908.132,321.951c-.522-2.217,2.119-6.987,1.6-9.2-.354-1.5-3.884-.481-4.708-1.785a4.736,4.736,0,0,0-3.746-2.378c-1.773-.02-3.517,1.3-5.2.727-1.7-.575-2.241-2.9-1.49-4.528a8.137,8.137,0,0,1,3.966-3.478c2.721-1.384,5.889-2.4,8.8-1.479a14.467,14.467,0,0,1,4.657,2.927,16.229,16.229,0,0,1,3.526,3.58,9.617,9.617,0,0,1,.151,9.437,14.186,14.186,0,0,1-7.339,6.316" transform="translate(-861.482 -299.474)" fill="#2f2e41"/>
      <path id="Path_324" data-name="Path 324" d="M870.159,423.624c.966-1.614,2.433-9.174,4.241-21.864,1.231-8.663,2.3-17.465,2.836-21.962a2.162,2.162,0,0,1,1.214-1.706q.518-.25,1.03-.473a23.609,23.609,0,0,1,25.186,3.539l.04.038.01.054c.019.1,1.868,10.061-1.918,16.791-3.734,6.64-3.778,24.226-3.778,24.4v.226l-.217-.062c-5.809-1.66-28.25,1.244-28.476,1.274l-.349.046Z" transform="translate(-845.484 -349.553)" fill="#ccc"/>
      <path id="Path_325" data-name="Path 325" d="M940.4,436.229l11.411-15.215-5.884-12.61.427-14.955,4.824-.891.051.026a12.144,12.144,0,0,1,5.16,6.011c1.072,2.679,3.295,11.795,4.97,18.97a11.085,11.085,0,0,1-2.975,10.423l-14,14Z" transform="translate(-891.887 -360.809)" fill="#ccc"/>
      <path id="Path_326" data-name="Path 326" d="M798.773,429.535a3.239,3.239,0,0,1,4.95-.413l10.907-.168-.976,6.977-10.1-2.041a3.257,3.257,0,0,1-4.783-4.354Z" transform="translate(-798.166 -384.269)" fill="#ffb8b8"/>
      <path id="Path_327" data-name="Path 327" d="M816,400.922l1.56-6.827,18.93-1.84,5.189-12.481.152-.369,2.04-1.759.043-.027a23.934,23.934,0,0,1,13.276-1.888l.155.024-.01.156a12.3,12.3,0,0,1-1.207,4.6c-1.958,4.062-14.006,21.327-14.128,21.5l-.054.077Z" transform="translate(-809.915 -349.553)" fill="#ccc"/>
      <path id="Path_328" data-name="Path 328" d="M910.012,740.977a.341.341,0,0,1,.341.341Z" transform="translate(-813.178 -590.389)" fill="#3f3d56"/>
    </g>
    <g id="Group_900" data-name="Group 900" transform="translate(-5605.081 -9662.634)">
      <path id="Path_298" data-name="Path 298" d="M254.363,339.874a3.837,3.837,0,0,1-2.575-.983,3.892,3.892,0,0,1-1.3-2.8l-15.136-11.008a3.907,3.907,0,0,1-.465-5.923L246.156,307.9a3.32,3.32,0,0,1,5.668,2.348,7.553,7.553,0,0,1-1.924,4.645l-7.651,7.651,12.009,9.572c.037,0,.074,0,.112,0a3.884,3.884,0,0,1,.445,7.742A4.06,4.06,0,0,1,254.363,339.874Z" transform="translate(-221.931 -279.541)" fill="#ffb8b8"/>
      <path id="Path_299" data-name="Path 299" d="M227.565,402.6l4.061-1.516L227.711,384.7l-5.994,2.238Z" transform="translate(-177.147 -277.245)" fill="#ffb8b8"/>
      <path id="Path_300" data-name="Path 300" d="M0,0H13.624V5.264H5.078A5.078,5.078,0,0,1,0,.186V0Z" transform="translate(63.719 124.684) rotate(159.528)" fill="#2f2e41"/>
      <path id="Path_301" data-name="Path 301" d="M131.74,407.06h4.335l2.062-16.721h-6.4Z" transform="translate(-117.859 -280.964)" fill="#ffb8b8"/>
      <path id="Path_302" data-name="Path 302" d="M0,0H13.624V5.264H5.078A5.078,5.078,0,0,1,0,.186V0Z" transform="translate(26.575 130.121) rotate(179.997)" fill="#2f2e41"/>
      <path id="Path_303" data-name="Path 303" d="M241.488,439.444q-.073,0-.146-.007l-4.6-.438a1.535,1.535,0,0,1-1.389-1.485c-.265-9.951-.933-60.176,11.992-71.686a1.5,1.5,0,0,1,.8-.361h0c2.341-.321,10.239-1.108,13.582,2.255a1.566,1.566,0,0,1,.423.773l14.635,67.666a1.535,1.535,0,0,1-1.31,1.848l-5.611.7a1.533,1.533,0,0,1-1.717-1.363c-.558-5.439-3.913-33.068-15.156-42.861a1.21,1.21,0,0,0-1.131-.254,1.166,1.166,0,0,0-.806.794c-2.081,6.81-8.812,30.022-8.038,42.792a1.532,1.532,0,0,1-1.53,1.627Z" transform="translate(-222.928 -317.91)" fill="#2f2e41"/>
      <circle id="Ellipse_181" data-name="Ellipse 181" cx="8.377" cy="8.377" r="8.377" transform="translate(19.026 3.477)" fill="#ffb8b8"/>
      <path id="Path_304" data-name="Path 304" d="M255.34,298.642s7.779-9.194,14.144-1.768h0a25.278,25.278,0,0,1,6.074,17.2l-.24,8.081-14.674-2.3Z" transform="translate(-236.162 -271.011)" fill="#6c63ff"/>
      <path id="Path_305" data-name="Path 305" d="M288.913,316.476q-.092,0-.183,0a4.336,4.336,0,0,1-3.234-1.658l-9.521-12.14a3.32,3.32,0,0,1,3.011-5.345l1.341.162a3.806,3.806,0,0,1,2.207,1.243l7.511,9.577,10.944-10.773c0-.037,0-.074.009-.111a3.884,3.884,0,1,1,3.493,4.332l-12.4,13.333A4.335,4.335,0,0,1,288.913,316.476Z" transform="translate(-249.292 -271.031)" fill="#ffb8b8"/>
      <path id="Path_306" data-name="Path 306" d="M227.875,239.947l3.6-4.24A7.1,7.1,0,0,0,233.5,232a4.512,4.512,0,0,0-2.109-3.966,9.16,9.16,0,0,0-4.465-1.334,12.839,12.839,0,0,0-8.351,1.924,7.71,7.71,0,0,0-3.369,7.539c.459,2.248,2.148,4.4,1.491,6.6-.719,2.406-3.665,3.144-6.071,3.861-4.039,1.2-7.895,3.575-10.011,7.219s-2.107,8.669.714,11.8a10.614,10.614,0,0,0,7.307,3.206,21.389,21.389,0,0,0,8.02-1.365,18.818,18.818,0,0,0,6.607-3.523,8.85,8.85,0,0,0,3.165-6.585c-.056-2.394-1.338-4.575-1.865-6.912a11.343,11.343,0,0,1,3.546-10.822" transform="translate(-199.113 -226.644)" fill="#2f2e41"/>
      <path id="Path_329" data-name="Path 329" d="M318.01,605.977a.341.341,0,0,1,.341.341Z" transform="translate(-218.771 -476.594)" fill="#3f3d56"/>
    </g>
    <g id="Group_899" data-name="Group 899" transform="translate(-5639.599 -9654.358)">
      <path id="Path_248" data-name="Path 248" d="M575.049,361.506H414.931a20.5,20.5,0,0,1-20.48-20.48V152.98a20.5,20.5,0,0,1,20.48-20.48H563.895l31.634,25.215V341.026A20.5,20.5,0,0,1,575.049,361.506Z" transform="translate(-303.451 -132.5)" fill="#e6e6e6"/>
      <path id="Path_249" data-name="Path 249" d="M418.535,142a14.6,14.6,0,0,0-14.584,14.584V344.63a14.6,14.6,0,0,0,14.584,14.584H578.653a14.6,14.6,0,0,0,14.584-14.584V164.16L565.437,142Z" transform="translate(-307.055 -136.104)" fill="#fff"/>
      <path id="Path_250" data-name="Path 250" d="M588.621,225.934h-72.9a3.41,3.41,0,1,1,0-6.821h72.9a3.41,3.41,0,1,1,0,6.821Z" transform="translate(-348.165 -165.36)" fill="#ccc"/>
      <path id="Path_251" data-name="Path 251" d="M602.689,244.481H515.721a3.411,3.411,0,1,1,0-6.821h86.968a3.411,3.411,0,1,1,0,6.821Z" transform="translate(-348.165 -172.397)" fill="#ccc"/>
      <path id="Path_252" data-name="Path 252" d="M588.621,309.052h-72.9a3.411,3.411,0,1,1,0-6.821h72.9a3.411,3.411,0,1,1,0,6.821Z" transform="translate(-348.165 -196.894)" fill="#ccc"/>
      <path id="Path_253" data-name="Path 253" d="M602.689,327.6H515.721a3.411,3.411,0,1,1,0-6.821h86.968a3.411,3.411,0,1,1,0,6.821Z" transform="translate(-348.165 -203.931)" fill="#ccc"/>
      <path id="Path_254" data-name="Path 254" d="M588.621,392.17h-72.9a3.411,3.411,0,1,1,0-6.821h72.9a3.411,3.411,0,1,1,0,6.821Z" transform="translate(-348.165 -228.428)" fill="#ccc"/>
      <path id="Path_255" data-name="Path 255" d="M602.689,410.717H515.721a3.411,3.411,0,1,1,0-6.821h86.968a3.411,3.411,0,1,1,0,6.821Z" transform="translate(-348.165 -235.465)" fill="#ccc"/>
      <circle id="Ellipse_44" data-name="Ellipse 44" cx="12.054" cy="12.054" r="12.054" transform="translate(125.145 50.865)" fill="#6c63ff"/>
      <path id="Path_395" data-name="Path 395" d="M464.466,235.688a1.25,1.25,0,0,1-.752-.25l-.013-.01-2.833-2.167a1.259,1.259,0,1,1,1.532-2l1.835,1.407,4.336-5.657a1.258,1.258,0,0,1,1.764-.233h0l-.027.037.028-.037a1.26,1.26,0,0,1,.233,1.765l-5.1,6.651a1.259,1.259,0,0,1-1,.491Z" transform="translate(-328.461 -168.17)" fill="#fff"/>
      <circle id="Ellipse_44-2" data-name="Ellipse 44" cx="12.054" cy="12.054" r="12.054" transform="translate(126.386 102.449)" fill="#ccc"/>
      <circle id="Ellipse_44-3" data-name="Ellipse 44" cx="12.054" cy="12.054" r="12.054" transform="translate(125.145 154.033)" fill="#ccc"/>
      <path id="Path_256" data-name="Path 256" d="M698.141,158.817H673.36A6.821,6.821,0,0,1,666.539,152v-18.3a.426.426,0,0,1,.691-.334l31.175,24.7a.426.426,0,0,1-.265.761Z" transform="translate(-406.678 -132.791)" fill="#e6e6e6"/>
      <path id="Path_257" data-name="Path 257" d="M371.537,498.365,276.8,518.333a10.562,10.562,0,0,1-12.5-8.147l-16.256-77.123a10.562,10.562,0,0,1,8.148-12.5L350.929,400.6a10.562,10.562,0,0,1,12.5,8.148l16.256,77.123A10.562,10.562,0,0,1,371.537,498.365Z" transform="translate(-247.821 -234.126)" fill="#fff"/>
      <path id="Path_258" data-name="Path 258" d="M371.537,498.365,276.8,518.333a10.562,10.562,0,0,1-12.5-8.147l-16.256-77.123a10.562,10.562,0,0,1,8.148-12.5L350.929,400.6a10.562,10.562,0,0,1,12.5,8.148l16.256,77.123A10.562,10.562,0,0,1,371.537,498.365ZM256.451,421.778a9.32,9.32,0,0,0-7.189,11.029l16.256,77.123a9.32,9.32,0,0,0,11.029,7.189l94.734-19.968a9.32,9.32,0,0,0,7.189-11.029L362.214,409a9.32,9.32,0,0,0-11.029-7.189Z" transform="translate(-247.821 -234.126)" fill="#3f3d56"/>
      <path id="Path_411" data-name="Path 411" d="M373.99,439.657l-47.811,10.078a1.7,1.7,0,0,1-2-1.156,1.633,1.633,0,0,1,1.24-2.02L374.083,436.3c1.9,1.071,1.3,3.063-.094,3.357Z" transform="translate(-276.767 -247.758)" fill="#ccc"/>
      <path id="Path_412" data-name="Path 412" d="M376.837,453.17l-47.811,10.078a1.7,1.7,0,0,1-2-1.156,1.633,1.633,0,0,1,1.24-2.02l48.669-10.258c1.9,1.071,1.3,3.063-.094,3.357Z" transform="translate(-277.848 -252.885)" fill="#ccc"/>
      <path id="Path_413" data-name="Path 413" d="M302.761,469.918l-14.591,3.076a1.838,1.838,0,0,1-2.176-1.418l-3.629-17.219a1.838,1.838,0,0,1,1.418-2.176l14.591-3.076a1.839,1.839,0,0,1,2.176,1.418l3.629,17.219a1.838,1.838,0,0,1-1.418,2.176Z" transform="translate(-260.911 -252.601)" fill="#fbd901"/>
      <path id="Path_414" data-name="Path 414" d="M367.067,480.885,294.1,496.266a1.7,1.7,0,0,1-2-1.156,1.633,1.633,0,0,1,1.24-2.019l73.827-15.561c1.9,1.071,1.3,3.063-.094,3.357Z" transform="translate(-264.597 -263.4)" fill="#ccc"/>
      <path id="Path_415" data-name="Path 415" d="M369.916,494.4l-72.968,15.381a1.7,1.7,0,0,1-2-1.156,1.632,1.632,0,0,1,1.24-2.02l73.827-15.561c1.9,1.071,1.3,3.063-.094,3.357Z" transform="translate(-265.678 -268.528)" fill="#ccc"/>
      <path id="Path_416" data-name="Path 416" d="M372.763,507.91l-72.968,15.381a1.7,1.7,0,0,1-2-1.156,1.633,1.633,0,0,1,1.24-2.02l73.827-15.561c1.9,1.071,1.3,3.063-.094,3.357Z" transform="translate(-266.758 -273.653)" fill="#ccc"/>
      <path id="Path_417" data-name="Path 417" d="M375.612,521.426l-72.968,15.381a1.7,1.7,0,0,1-2-1.156,1.633,1.633,0,0,1,1.24-2.02l73.827-15.561c1.9,1.071,1.3,3.063-.094,3.357Z" transform="translate(-267.839 -278.781)" fill="#ccc"/>
      <path id="Path_418" data-name="Path 418" d="M378.459,534.936l-72.968,15.38a1.7,1.7,0,0,1-2-1.156,1.632,1.632,0,0,1,1.24-2.019l73.827-15.561c1.9,1.071,1.3,3.063-.094,3.357Z" transform="translate(-268.919 -283.906)" fill="#ccc"/>
      <path id="Path_259" data-name="Path 259" d="M417.8,473.084a6.535,6.535,0,0,0-.424.937L387.5,481.434l-5.2-5.376-9.138,6.782,8.275,10.411a4.965,4.965,0,0,0,5.765,1.507l32.414-13.245a6.515,6.515,0,1,0-1.822-8.429Z" transform="translate(-295.375 -260.449)" fill="#a0616a"/>
      <path id="Path_260" data-name="Path 260" d="M275.45,539.175a6.667,6.667,0,0,0,3.958-9.426l20.557-57.138-14.276-2.53-15.718,56.96a6.7,6.7,0,0,0,5.479,12.133Z" transform="translate(-254.994 -260.574)" fill="#a0616a"/>
      <path id="Path_261" data-name="Path 261" d="M306.29,473.331l-14.1-5.41a2.989,2.989,0,0,1-1.533-4.259l7.395-13.111a8.3,8.3,0,1,1,15.484,5.995l-3.262,14.645a2.989,2.989,0,0,1-3.989,2.14Z" transform="translate(-263.928 -251.152)" fill="#6c63ff"/>
      <path id="Path_262" data-name="Path 262" d="M119.524,603.825h7.609l3.619-29.348H119.523Z" transform="translate(-45.347 -217.95)" fill="#a0616a"/>
      <path id="Path_263" data-name="Path 263" d="M364.216,750.263H379.2a9.549,9.549,0,0,1,9.549,9.549v.31H364.217Z" transform="translate(-291.98 -366.872)" fill="#2f2e41"/>
      <path id="Path_264" data-name="Path 264" d="M50.524,603.825h7.609l3.619-29.348H50.523Z" transform="translate(-19.169 -217.95)" fill="#a0616a"/>
      <path id="Path_265" data-name="Path 265" d="M295.216,750.263H310.2a9.549,9.549,0,0,1,9.549,9.549v.31H295.217Z" transform="translate(-265.802 -366.872)" fill="#2f2e41"/>
      <path id="Path_266" data-name="Path 266" d="M303.6,672.629h-9.628a2.793,2.793,0,0,1-2.79-2.925l4.574-98.263.288-.008,46.5-1.212,9.1,98.319a2.793,2.793,0,0,1-2.557,3.048l-10.815.865a2.794,2.794,0,0,1-2.958-2.223l-13.834-69.99a.9.9,0,0,0-.912-.744h0a.9.9,0,0,0-.91.752l-13.308,70.129A2.8,2.8,0,0,1,303.6,672.629Z" transform="translate(-264.272 -298.566)" fill="#2f2e41"/>
      <circle id="Ellipse_179" data-name="Ellipse 179" cx="15.243" cy="15.243" r="15.243" transform="translate(41.726 154.751)" fill="#a0616a"/>
      <path id="Path_267" data-name="Path 267" d="M318.028,533.092c-7.265,0-14.727-1.91-20.913-7.556a2.825,2.825,0,0,1-.912-2.389c.662-5.949,3.874-36.666,2.065-57.185a24.836,24.836,0,0,1,8.041-20.669,24.575,24.575,0,0,1,21.077-6.1h0q.285.051.57.106a24.69,24.69,0,0,1,19.723,26.271c-1.4,18.407-2.655,43.306-.684,57.387a2.788,2.788,0,0,1-1.5,2.878C341.012,528.1,329.778,533.092,318.028,533.092Z" transform="translate(-266.171 -248.702)" fill="#6c63ff"/>
      <path id="Path_268" data-name="Path 268" d="M361.3,475.421a2.986,2.986,0,0,1-1.31-2.117l-1.857-14.888a8.3,8.3,0,1,1,15.983-4.5l6.117,13.753a2.989,2.989,0,0,1-1.93,4.095l-14.545,4.048A2.986,2.986,0,0,1,361.3,475.421Z" transform="translate(-289.555 -252.145)" fill="#6c63ff"/>
      <path id="Path_269" data-name="Path 269" d="M322.012,409.232a10.921,10.921,0,0,1-4.218-.763c-.59-.228-1.2-.415-1.793-.642-5.2-2.011-8.633-7.554-8.756-13.132a18.911,18.911,0,0,1,7.056-14.561,27.3,27.3,0,0,1,15.41-5.824c5.993-.456,12.741,1.063,16.09,6.054a5.257,5.257,0,0,1,.987,4.544,2.909,2.909,0,0,1-.819,1.259c-1.5,1.331-2.987.33-4.511.242a4.987,4.987,0,0,0-4.654,3.562,10.733,10.733,0,0,0,.167,6.2,15.49,15.49,0,0,1,.781,3.771,3.791,3.791,0,0,1-1.571,3.338c-1.309.791-3.029.333-4.339-.457a30.137,30.137,0,0,0-3.858-2.47c-1.415-.582-3.317-.453-4.14.837a4.579,4.579,0,0,0-.523,1.511c-.738,3.364-.569,3.166-1.307,6.531Z" transform="translate(-270.364 -224.211)" fill="#2f2e41"/>
      <path id="Path_270" data-name="Path 270" d="M367.024,766.741H249.108a.621.621,0,0,1,0-1.241H367.024a.621.621,0,1,1,0,1.241Z" transform="translate(-248.074 -372.653)" fill="#ccc"/>
      <path id="Path_271" data-name="Path 271" d="M841.037,507.033,756.6,554.4a10.562,10.562,0,0,1-14.363-4.04l-38.559-68.742a10.562,10.562,0,0,1,4.04-14.363l84.439-47.363a10.562,10.562,0,0,1,14.363,4.04l38.558,68.742a10.562,10.562,0,0,1-4.04,14.363Z" transform="translate(-420.256 -241.021)" fill="#fff"/>
      <path id="Path_272" data-name="Path 272" d="M841.037,507.033,756.6,554.4a10.562,10.562,0,0,1-14.363-4.04l-38.559-68.742a10.562,10.562,0,0,1,4.04-14.363l84.439-47.363a10.562,10.562,0,0,1,14.363,4.04l38.558,68.742a10.562,10.562,0,0,1-4.04,14.363Zm-132.714-38.7a9.32,9.32,0,0,0-3.565,12.673l38.559,68.742a9.32,9.32,0,0,0,12.673,3.565l84.439-47.363A9.32,9.32,0,0,0,844,493.278l-38.559-68.742a9.32,9.32,0,0,0-12.673-3.565Z" transform="translate(-420.256 -241.021)" fill="#3f3d56"/>
      <path id="Path_411-2" data-name="Path 411" d="M822.674,460.673l-42.615,23.9a1.7,1.7,0,0,1-2.258-.5,1.633,1.633,0,0,1,.58-2.3l43.38-24.333c2.133.454,2.156,2.535.913,3.232Z" transform="translate(-448.793 -255.779)" fill="#ccc"/>
      <path id="Path_412-2" data-name="Path 412" d="M829.43,472.718l-42.615,23.9a1.7,1.7,0,0,1-2.258-.5,1.633,1.633,0,0,1,.58-2.3l43.38-24.333c2.133.454,2.156,2.534.913,3.232Z" transform="translate(-451.356 -260.349)" fill="#ccc"/>
      <path id="Path_413-2" data-name="Path 413" d="M762.468,516.909l-13.006,7.3a1.838,1.838,0,0,1-2.5-.7l-8.609-15.348a1.838,1.838,0,0,1,.7-2.5l13.006-7.3a1.839,1.839,0,0,1,2.5.7l8.609,15.348a1.838,1.838,0,0,1-.7,2.5Z" transform="translate(-433.834 -271.214)" fill="#fbd901"/>
      <path id="Path_414-2" data-name="Path 414" d="M829.355,497.491l-65.039,36.481a1.7,1.7,0,0,1-2.258-.5,1.633,1.633,0,0,1,.58-2.3l65.8-36.91c2.133.454,2.156,2.535.913,3.232Z" transform="translate(-442.82 -269.747)" fill="#ccc"/>
      <path id="Path_415-2" data-name="Path 415" d="M836.113,509.538,771.075,546.02a1.7,1.7,0,0,1-2.258-.5,1.633,1.633,0,0,1,.58-2.3l65.8-36.91c2.133.454,2.156,2.534.913,3.232Z" transform="translate(-445.384 -274.318)" fill="#ccc"/>
      <path id="Path_416-2" data-name="Path 416" d="M842.867,521.579,777.829,558.06a1.7,1.7,0,0,1-2.258-.5,1.633,1.633,0,0,1,.58-2.3l65.8-36.911c2.133.454,2.156,2.534.913,3.232Z" transform="translate(-447.947 -278.886)" fill="#ccc"/>
      <path id="Path_417-2" data-name="Path 417" d="M849.624,533.626l-65.039,36.482a1.7,1.7,0,0,1-2.258-.5,1.633,1.633,0,0,1,.58-2.3l65.8-36.911c2.133.454,2.156,2.534.913,3.231Z" transform="translate(-450.51 -283.456)" fill="#ccc"/>
      <path id="Path_418-2" data-name="Path 418" d="M856.378,545.668,791.34,582.149a1.7,1.7,0,0,1-2.258-.5,1.633,1.633,0,0,1,.58-2.3l65.8-36.911C857.6,542.89,857.621,544.971,856.378,545.668Z" transform="translate(-453.073 -288.025)" fill="#ccc"/>
      <path id="Path_273" data-name="Path 273" d="M870.726,575.109a5.867,5.867,0,0,0-3.9-8.108l-1.769-20.775-8.506,6.71,2.984,18.7a5.9,5.9,0,0,0,11.189,3.473Z" transform="translate(-478.767 -289.463)" fill="#ffb8b8"/>
      <path id="Path_274" data-name="Path 274" d="M855.149,531.511l-7.065.843a2.626,2.626,0,0,1-2.934-2.494l-1.03-23.833-13.391-36.583a7.539,7.539,0,0,1,.4-7.179,9.841,9.841,0,0,1,1.122-1.448,7.515,7.515,0,0,1,6.555-2.328,7.836,7.836,0,0,1,5.885,4.09l8.733,18.3a51.985,51.985,0,0,1,5.023,24.559l-.985,23.576a2.624,2.624,0,0,1-2.278,2.492Z" transform="translate(-468.695 -256.149)" fill="#6c63ff"/>
      <path id="Path_275" data-name="Path 275" d="M650.438,594.22l-6.55,2.875-14.206-23.9,9.667-4.243Z" transform="translate(-238.895 -215.855)" fill="#ffb8b8"/>
      <path id="Path_276" data-name="Path 276" d="M904.68,746.024l-21.119,9.27-.117-.267a8.977,8.977,0,0,1,4.612-11.829h0l12.9-5.662Z" transform="translate(-488.681 -362.044)" fill="#2f2e41"/>
      <path id="Path_277" data-name="Path 277" d="M514.984,605.611h-7.153l-3.4-27.591h10.557Z" transform="translate(-191.375 -219.294)" fill="#ffb8b8"/>
      <path id="Path_278" data-name="Path 278" d="M758.1,760.483H735.031v-.292a8.977,8.977,0,0,1,8.977-8.977H758.1Z" transform="translate(-432.663 -367.233)" fill="#2f2e41"/>
      <path id="Path_279" data-name="Path 279" d="M830,654.384,790.155,565.46a.875.875,0,0,0-1.648.117l-24.279,85.889a2.61,2.61,0,0,1-2.795,1.924l-13.26-1.326a2.641,2.641,0,0,1-2.357-2.825c4.218-52.456,10.866-101.965,30.783-134.375l.106-.173,30.127,5.907,40.221,128.078a2.637,2.637,0,0,1-1.707,3.267l-12.129,3.9a2.616,2.616,0,0,1-3.214-1.46Z" transform="translate(-436.752 -277.499)" fill="#2f2e41"/>
      <circle id="Ellipse_180" data-name="Ellipse 180" cx="14.33" cy="14.33" r="14.33" transform="translate(340.185 163.154)" fill="#ffb8b8"/>
      <path id="Path_280" data-name="Path 280" d="M791.394,492.4l-.183-.038-.043-.181a62.334,62.334,0,0,1-.137-26.441,20.771,20.771,0,0,1,20.8-16.8h0a20.8,20.8,0,0,1,20.367,20c.614,16.156-5.988,30.162-6.055,30.3l-.1.205Z" transform="translate(-453.398 -252.549)" fill="#6c63ff"/>
      <path id="Path_281" data-name="Path 281" d="M726.382,548.273a5.867,5.867,0,0,0,4.705-7.668l16.506-12.739-10.248-3.516-14.1,12.636a5.9,5.9,0,0,0,3.14,11.287Z" transform="translate(-426.801 -281.163)" fill="#ffb8b8"/>
      <path id="Path_282" data-name="Path 282" d="M739.877,511.784a2.616,2.616,0,0,1-3.352-.591l-4.534-5.482a2.625,2.625,0,0,1,.507-3.817l19.477-13.774,23.5-31.071a7.539,7.539,0,0,1,6.251-3.553,9.834,9.834,0,0,1,1.824.159h0a7.513,7.513,0,0,1,5.507,4.25,7.836,7.836,0,0,1-.25,7.162l-17.4,28.18-.038.062Z" transform="translate(-431.281 -254.282)" fill="#6c63ff"/>
      <path id="Path_283" data-name="Path 283" d="M811.126,402.167c-1.056-1.737-3.387-2.228-5.411-2.03s-3.991.909-6.025.894c-5.646-.044-10-6.925-7.63-12.047,1.947-4.2,6.808-6.046,11.206-7.494,9.221-3.036,19.813-5.952,28.181-1.03a17.51,17.51,0,0,1,8.428,15.6c-.188,3.874-1.672,7.853-.417,11.522,1.447,4.233,6.037,6.5,10.374,7.6,7.6,1.926,15.619,1.616,23.269,3.343s15.49,6.315,17.552,13.882c1.355,4.97-.059,10.321-2.4,14.91a38.616,38.616,0,0,1-53.872,15.8c-9.249-5.4-15.926-14.528-19.907-24.471a81.944,81.944,0,0,1-4.736-18,40.034,40.034,0,0,1,1.48-17.2A1.58,1.58,0,0,0,811.126,402.167Z" transform="translate(-454.048 -225.571)" fill="#2f2e41"/>
    </g>
    <g id="Group_910" data-name="Group 910" transform="translate(-5189.947 -9662.524)">
      <path id="Polygon_7" data-name="Polygon 7" d="M42.75,0,57,25,42.75,50H14.25L0,25,14.25,0Z" transform="translate(-0.053 -0.476)" fill="#fff"/>
      <path id="Profile_Logo" data-name="Profile Logo" d="M14.213,15.99a7.995,7.995,0,1,0-8-7.995A8,8,0,0,0,14.213,15.99Zm7.107,1.777H18.261a9.665,9.665,0,0,1-8.095,0H7.107A7.106,7.106,0,0,0,0,24.873v.888a2.666,2.666,0,0,0,2.665,2.665h23.1a2.666,2.666,0,0,0,2.665-2.665v-.888A7.106,7.106,0,0,0,21.32,17.767Z" transform="translate(14.052 9.046)" fill="#5433ff"/>
    </g>
    <g id="Group_911" data-name="Group 911" transform="translate(-5197.071 -9313.484)">
      <path id="Polygon_8" data-name="Polygon 8" d="M81,0l27,46.5L81,93H27L0,46.5,27,0Z" transform="translate(0.071 0.484)" fill="#fae1ff"/>
      <path id="Project_Logo" data-name="Project Logo" d="M32.975,27.479H21.983a2.748,2.748,0,0,0-2.748,2.748V41.218a2.748,2.748,0,0,0,2.748,2.748H32.975a2.748,2.748,0,0,0,2.748-2.748V30.227A2.748,2.748,0,0,0,32.975,27.479ZM16.487,2.748A2.748,2.748,0,0,0,13.74,0H2.748A2.748,2.748,0,0,0,0,2.748V13.739a2.748,2.748,0,0,0,2.748,2.748h8.22L17.25,27.482a5.478,5.478,0,0,1,4.733-2.751h.024l-5.52-9.66v-4.08H35.723V5.5H16.487ZM52.21,0H41.219a2.748,2.748,0,0,0-2.748,2.748V13.739a2.748,2.748,0,0,0,2.748,2.748H52.21a2.748,2.748,0,0,0,2.748-2.748V2.748A2.748,2.748,0,0,0,52.21,0Z" transform="translate(26.731 30.322)" fill="#5433ff"/>
      <rect id="Rectangle_624" data-name="Rectangle 624" width="17" height="18" rx="4" transform="translate(65.071 29.484)" fill="#7e69f9"/>
    </g>
    <g id="Group_912" data-name="Group 912" transform="translate(-5521.18 -9767)">
      <path id="Polygon_9" data-name="Polygon 9" d="M35.25,0,47,21.5,35.25,43H11.75L0,21.5,11.75,0Z" transform="translate(0.18)" fill="#fff"/>
      <g transform="matrix(1, 0, 0, 1, -278.82, 0)" filter="url(#Goals_Logo)">
        <path id="Goals_Logo-2" data-name="Goals Logo" d="M31.8,14.717H28.921a11.9,11.9,0,0,0-9.908-9.908V1.928H15.36V4.809a11.9,11.9,0,0,0-9.908,9.908H2.571v3.654H5.452a11.9,11.9,0,0,0,9.908,9.908v2.881h3.654V28.278a11.9,11.9,0,0,0,9.908-9.908H31.8V14.717Zm-6.6,0H22.355a5.5,5.5,0,0,0-3.342-3.342V8.527A8.248,8.248,0,0,1,25.2,14.717Zm-8.016,3.654a1.827,1.827,0,1,1,1.827-1.827A1.827,1.827,0,0,1,17.186,18.371ZM15.359,8.527v2.848a5.5,5.5,0,0,0-3.342,3.342H9.17A8.248,8.248,0,0,1,15.359,8.527ZM9.17,18.371h2.848a5.5,5.5,0,0,0,3.342,3.342V24.56A8.248,8.248,0,0,1,9.17,18.371Zm9.843,6.189V21.712a5.5,5.5,0,0,0,3.342-3.342H25.2A8.248,8.248,0,0,1,19.013,24.56Z" transform="translate(285.37 4.49)" fill="#5433ff"/>
      </g>
    </g>
    <g id="Group_908" data-name="Group 908" transform="translate(-5736.064 -9563.362)">
      <path id="Polygon_11" data-name="Polygon 11" d="M27,0l9,15.5L27,31H9L0,15.5,9,0Z" transform="translate(0.064 0.362)" fill="#f9f9fb"/>
      <g transform="matrix(1, 0, 0, 1, -63.94, -203.64)" filter="url(#My_Tasks_Logo)">
        <path id="My_Tasks_Logo-2" data-name="My Tasks Logo" d="M4.5,2.362a.387.387,0,0,0-.548,0L1.9,4.4l-.731-.712a.387.387,0,0,0-.548,0l-.506.506a.386.386,0,0,0,0,.548L1.647,6.269a.412.412,0,0,0,.567,0l.5-.5L5.041,3.441a.389.389,0,0,0,0-.548Zm0,5.127a.387.387,0,0,0-.548,0L1.9,9.541l-.731-.712a.387.387,0,0,0-.548,0l-.506.505a.386.386,0,0,0,0,.548l1.529,1.53a.411.411,0,0,0,.567,0l.506-.505L5.041,8.581a.386.386,0,0,0,0-.544ZM2.061,13.071a1.546,1.546,0,1,0,0,3.092,1.546,1.546,0,1,0,0-3.092Zm13.914.515H6.7a.515.515,0,0,0-.515.515v1.031a.515.515,0,0,0,.515.515h9.276a.515.515,0,0,0,.515-.515V14.1A.515.515,0,0,0,15.976,13.586Zm0-10.307H6.7a.515.515,0,0,0-.515.515V4.826a.515.515,0,0,0,.515.515h9.276a.515.515,0,0,0,.515-.515V3.795A.515.515,0,0,0,15.976,3.28Zm0,5.153H6.7a.515.515,0,0,0-.515.515V9.979a.515.515,0,0,0,.515.515h9.276a.515.515,0,0,0,.515-.515V8.948A.515.515,0,0,0,15.976,8.433Z" transform="translate(72.99 209.82)" fill="#5433ff"/>
      </g>
    </g>
    <g id="Group_909" data-name="Group 909" transform="translate(-5473.69 -9172.208)">
      <path id="Polygon_10" data-name="Polygon 10" d="M102.75,0,137,58l-34.25,58H34.25L0,58,34.25,0Z" transform="translate(-0.31 0.208)" fill="#fae1ff"/>
      <g id="Groups_Logo" data-name="Groups Logo" transform="translate(45.08 24.748)">
        <g transform="matrix(1, 0, 0, 1, -371.39, -619.54)" filter="url(#Union_5)">
          <path id="Union_5-2" data-name="Union 5" d="M33.081,61.438H6a6,6,0,0,1-6-6V13A13,13,0,0,1,13,0H33.081a13,13,0,0,1,13,13V55.437a6,6,0,0,1-6,6Z" transform="translate(371.39 624.66)" fill="#5433ff"/>
        </g>
        <g transform="matrix(1, 0, 0, 1, -371.39, -619.54)" filter="url(#Path_163)">
          <path id="Path_163-2" data-name="Path 163" d="M15.36,0c8.483,0,15.36,6.3,15.36,14.08s-6.877,14.08-15.36,14.08S0,21.856,0,14.08,6.877,0,15.36,0Z" transform="translate(396.11 619.54)" fill="#7e69f9"/>
        </g>
        <path id="Icon_awesome-plus" data-name="Icon awesome-plus" d="M13.8,8.087H9.021V3.311A1.061,1.061,0,0,0,7.959,2.25H6.9A1.061,1.061,0,0,0,5.837,3.311V8.087H1.061A1.061,1.061,0,0,0,0,9.148v1.061a1.061,1.061,0,0,0,1.061,1.061H5.837v4.776A1.061,1.061,0,0,0,6.9,17.108H7.959a1.061,1.061,0,0,0,1.061-1.061V11.271H13.8a1.061,1.061,0,0,0,1.061-1.061V9.148A1.061,1.061,0,0,0,13.8,8.087Z" transform="translate(32.648 4.4)" fill="#fff"/>
        <line id="Line_14" data-name="Line 14" x2="28.16" transform="translate(8.076 39.679)" fill="none" stroke="#fff" stroke-width="1"/>
        <line id="Line_16" data-name="Line 16" x2="25.6" transform="translate(8.076 44.799)" fill="none" stroke="#fff" stroke-width="1"/>
        <line id="Line_18" data-name="Line 18" x2="17.92" transform="translate(8.076 34.559)" fill="none" stroke="#fff" stroke-width="1"/>
        <line id="Line_17" data-name="Line 17" x2="28.16" transform="translate(8.076 49.919)" fill="none" stroke="#fff" stroke-width="1"/>
        <line id="Line_15" data-name="Line 15" transform="translate(28.555 31.999)" fill="none" stroke="#707070" stroke-width="1"/>
      </g>
    </g>
    <circle id="Ellipse_186" data-name="Ellipse 186" cx="2" cy="2" r="2" transform="translate(-5727 -9545)" fill="#7e69f9"/>
    <circle id="Ellipse_188" data-name="Ellipse 188" cx="1.5" cy="1.5" r="1.5" transform="translate(-5163 -9660)" fill="#7e69f9"/>
    <circle id="Ellipse_187" data-name="Ellipse 187" cx="2.5" cy="2.5" r="2.5" transform="translate(-5500 -9748)" fill="#7e69f9"/>
  </g>
</svg>
