<svg xmlns="http://www.w3.org/2000/svg" xmlns:xlink="http://www.w3.org/1999/xlink" width="789" height="435" viewBox="0 0 789 435">
  <defs>
    <filter id="Rectangle_908" x="0" y="0" width="762" height="435" filterUnits="userSpaceOnUse">
      <feOffset dy="3" input="SourceAlpha"/>
      <feGaussianBlur stdDeviation="3" result="blur"/>
      <feFlood flood-opacity="0.161"/>
      <feComposite operator="in" in2="blur"/>
      <feComposite in="SourceGraphic"/>
    </filter>
    <filter id="Rectangle_1087" x="89" y="43" width="700" height="348" filterUnits="userSpaceOnUse">
      <feOffset dy="3" input="SourceAlpha"/>
      <feGaussianBlur stdDeviation="3" result="blur-2"/>
      <feFlood flood-opacity="0.161"/>
      <feComposite operator="in" in2="blur-2"/>
      <feComposite in="SourceGraphic"/>
    </filter>
    <filter id="Rectangle_481" x="680.145" y="65.977" width="75.774" height="30.162" filterUnits="userSpaceOnUse">
      <feOffset dy="3" input="SourceAlpha"/>
      <feGaussianBlur stdDeviation="3" result="blur-3"/>
      <feFlood flood-opacity="0.161"/>
      <feComposite operator="in" in2="blur-3"/>
      <feComposite in="SourceGraphic"/>
    </filter>
    <filter id="Rectangle_481-2" x="159.772" y="65.977" width="75.774" height="31.684" filterUnits="userSpaceOnUse">
      <feOffset dy="3" input="SourceAlpha"/>
      <feGaussianBlur stdDeviation="3" result="blur-4"/>
      <feFlood flood-opacity="0.161"/>
      <feComposite operator="in" in2="blur-4"/>
      <feComposite in="SourceGraphic"/>
    </filter>
    <filter id="Rectangle_481-3" x="233.512" y="65.977" width="75.774" height="31.684" filterUnits="userSpaceOnUse">
      <feOffset dy="3" input="SourceAlpha"/>
      <feGaussianBlur stdDeviation="3" result="blur-5"/>
      <feFlood flood-opacity="0.161"/>
      <feComposite operator="in" in2="blur-5"/>
      <feComposite in="SourceGraphic"/>
    </filter>
    <filter id="Rectangle_481-4" x="307.25" y="65.977" width="75.774" height="31.684" filterUnits="userSpaceOnUse">
      <feOffset dy="3" input="SourceAlpha"/>
      <feGaussianBlur stdDeviation="3" result="blur-6"/>
      <feFlood flood-opacity="0.161"/>
      <feComposite operator="in" in2="blur-6"/>
      <feComposite in="SourceGraphic"/>
    </filter>
    <filter id="Path_1610" x="390.228" y="199.162" width="130.243" height="93.834" filterUnits="userSpaceOnUse">
      <feOffset dy="3" input="SourceAlpha"/>
      <feGaussianBlur stdDeviation="3" result="blur-7"/>
      <feFlood flood-opacity="0.161"/>
      <feComposite operator="in" in2="blur-7"/>
      <feComposite in="SourceGraphic"/>
    </filter>
    <filter id="Path_1611" x="205.385" y="141.994" width="111.716" height="78.783" filterUnits="userSpaceOnUse">
      <feOffset dy="3" input="SourceAlpha"/>
      <feGaussianBlur stdDeviation="3" result="blur-8"/>
      <feFlood flood-opacity="0.161"/>
      <feComposite operator="in" in2="blur-8"/>
      <feComposite in="SourceGraphic"/>
    </filter>
    <filter id="Rectangle_539" x="205.385" y="290.992" width="132.028" height="59.051" filterUnits="userSpaceOnUse">
      <feOffset dy="3" input="SourceAlpha"/>
      <feGaussianBlur stdDeviation="3" result="blur-9"/>
      <feFlood flood-opacity="0.161"/>
      <feComposite operator="in" in2="blur-9"/>
      <feComposite in="SourceGraphic"/>
    </filter>
    <filter id="Rectangle_481-5" x="208.772" y="146.977" width="52.603" height="26.195" filterUnits="userSpaceOnUse">
      <feOffset dy="3" input="SourceAlpha"/>
      <feGaussianBlur stdDeviation="3" result="blur-10"/>
      <feFlood flood-opacity="0.161"/>
      <feComposite operator="in" in2="blur-10"/>
      <feComposite in="SourceGraphic"/>
    </filter>
    <filter id="Rectangle_481-6" x="208.772" y="296.977" width="52.603" height="26.195" filterUnits="userSpaceOnUse">
      <feOffset dy="3" input="SourceAlpha"/>
      <feGaussianBlur stdDeviation="3" result="blur-11"/>
      <feFlood flood-opacity="0.161"/>
      <feComposite operator="in" in2="blur-11"/>
      <feComposite in="SourceGraphic"/>
    </filter>
    <filter id="Rectangle_481-7" x="394.773" y="202.777" width="52.603" height="26.195" filterUnits="userSpaceOnUse">
      <feOffset dy="3" input="SourceAlpha"/>
      <feGaussianBlur stdDeviation="3" result="blur-12"/>
      <feFlood flood-opacity="0.161"/>
      <feComposite operator="in" in2="blur-12"/>
      <feComposite in="SourceGraphic"/>
    </filter>
  </defs>
  <g id="Homepage-Non_Profit_image" data-name="Homepage-Non Profit image" transform="translate(8457 -21724)">
    <g transform="matrix(1, 0, 0, 1, -8457, 21724)" filter="url(#Rectangle_908)">
      <rect id="Rectangle_908-2" data-name="Rectangle 908" width="744" height="417" rx="10" transform="translate(9 6)" fill="#6b52f9"/>
    </g>
    <g transform="matrix(1, 0, 0, 1, -8457, 21724)" filter="url(#Rectangle_1087)">
      <rect id="Rectangle_1087-2" data-name="Rectangle 1087" width="682" height="330" rx="10" transform="translate(98 49)" fill="#f9f9fb"/>
    </g>
    <g id="Group_1237" data-name="Group 1237" transform="translate(-8309.24 21795.977)">
      <g id="Group_792" data-name="Group 792" transform="translate(541.385 0)">
        <g transform="matrix(1, 0, 0, 1, -689.14, -71.98)" filter="url(#Rectangle_481)">
          <rect id="Rectangle_481-8" data-name="Rectangle 481" width="57.774" height="12.163" rx="4" transform="translate(689.14 71.98)" fill="#2900ff"/>
        </g>
      </g>
      <g id="Group_805" data-name="Group 805" transform="translate(21.013 0)">
        <g transform="matrix(1, 0, 0, 1, -168.77, -71.98)" filter="url(#Rectangle_481-2)">
          <rect id="Rectangle_481-9" data-name="Rectangle 481" width="57.774" height="13.683" rx="4" transform="translate(168.77 71.98)" fill="#6b52f9"/>
        </g>
      </g>
      <g id="Group_806" data-name="Group 806" transform="translate(94.752 0)">
        <g transform="matrix(1, 0, 0, 1, -242.51, -71.98)" filter="url(#Rectangle_481-3)">
          <rect id="Rectangle_481-10" data-name="Rectangle 481" width="57.774" height="13.683" rx="4" transform="translate(242.51 71.98)" fill="#6b52f9"/>
        </g>
      </g>
      <g id="Group_848" data-name="Group 848" transform="translate(168.491 0)">
        <g transform="matrix(1, 0, 0, 1, -316.25, -71.98)" filter="url(#Rectangle_481-4)">
          <rect id="Rectangle_481-11" data-name="Rectangle 481" width="57.774" height="13.683" rx="4" transform="translate(316.25 71.98)" fill="#6b52f9"/>
        </g>
      </g>
      <g id="Group_849" data-name="Group 849" transform="translate(0 60.426)">
        <line id="Line_77" data-name="Line 77" x2="599.355" fill="none" stroke="#fceeff" stroke-linecap="round" stroke-width="2"/>
        <line id="Line_77-2" data-name="Line 77" x2="599.355" transform="translate(0 18.635)" fill="none" stroke="#fceeff" stroke-linecap="round" stroke-width="2"/>
        <line id="Line_77-3" data-name="Line 77" x2="599.355" transform="translate(0 37.27)" fill="none" stroke="#fceeff" stroke-linecap="round" stroke-width="2"/>
        <line id="Line_77-4" data-name="Line 77" x2="599.355" transform="translate(0 55.905)" fill="none" stroke="#fceeff" stroke-linecap="round" stroke-width="2"/>
        <line id="Line_77-5" data-name="Line 77" x2="599.355" transform="translate(0 74.54)" fill="none" stroke="#fceeff" stroke-linecap="round" stroke-width="2"/>
        <line id="Line_77-6" data-name="Line 77" x2="599.355" transform="translate(0 93.174)" fill="none" stroke="#fceeff" stroke-linecap="round" stroke-width="2"/>
        <path id="Path_1745" data-name="Path 1745" d="M0,0H599.355" transform="translate(0 111.809)" fill="none" stroke="#7e69f9" stroke-linecap="round" stroke-width="2"/>
        <line id="Line_77-7" data-name="Line 77" x2="599.355" transform="translate(0 130.444)" fill="none" stroke="#fceeff" stroke-linecap="round" stroke-width="2"/>
        <line id="Line_77-8" data-name="Line 77" x2="599.355" transform="translate(0 149.079)" fill="none" stroke="#fceeff" stroke-linecap="round" stroke-width="2"/>
        <line id="Line_77-9" data-name="Line 77" x2="599.355" transform="translate(0 167.714)" fill="none" stroke="#fceeff" stroke-linecap="round" stroke-width="2"/>
        <line id="Line_77-10" data-name="Line 77" x2="599.355" transform="translate(0 186.349)" fill="none" stroke="#fceeff" stroke-linecap="round" stroke-width="2"/>
        <line id="Line_77-11" data-name="Line 77" x2="599.355" transform="translate(0 204.984)" fill="none" stroke="#fceeff" stroke-linecap="round" stroke-width="2"/>
        <line id="Line_77-12" data-name="Line 77" x2="599.355" transform="translate(0 223.619)" fill="none" stroke="#fceeff" stroke-linecap="round" stroke-width="2"/>
        <line id="Line_79" data-name="Line 79" y2="222.99" transform="translate(21.173 0.345)" fill="none" stroke="#fceeff" stroke-linecap="round" stroke-width="2"/>
      </g>
      <g transform="matrix(1, 0, 0, 1, -147.76, -71.98)" filter="url(#Path_1610)">
        <path id="Path_1610-2" data-name="Path 1610" d="M3.141,0H109.1c1.735,0,3.141,2.6,3.141,5.816v64.2c0,3.212-1.406,5.816-3.141,5.816H3.141C1.406,75.834,0,73.23,0,70.018V5.816C0,2.6,1.406,0,3.141,0Z" transform="translate(399.23 205.16)" fill="#fb0"/>
      </g>
      <g transform="matrix(1, 0, 0, 1, -147.76, -71.98)" filter="url(#Path_1611)">
        <path id="Path_1611-2" data-name="Path 1611" d="M2.587,0H91.129c1.429,0,2.587,2.087,2.587,4.661v51.46c0,2.574-1.158,4.661-2.587,4.661H2.587C1.158,60.783,0,58.7,0,56.122V4.661C0,2.087,1.158,0,2.587,0Z" transform="translate(214.38 147.99)" fill="#ff6ba4"/>
      </g>
      <g transform="matrix(1, 0, 0, 1, -147.76, -71.98)" filter="url(#Rectangle_539)">
        <rect id="Rectangle_539-2" data-name="Rectangle 539" width="114.028" height="41.05" rx="4" transform="translate(214.38 296.99)" fill="#5433ff"/>
      </g>
      <g id="Group_1309" data-name="Group 1309" transform="translate(70.013 81)">
        <g transform="matrix(1, 0, 0, 1, -217.77, -152.98)" filter="url(#Rectangle_481-5)">
          <rect id="Rectangle_481-12" data-name="Rectangle 481" width="34.602" height="8.195" rx="4" transform="translate(217.77 152.98)" fill="#f9f9fb"/>
        </g>
      </g>
      <g id="Group_1310" data-name="Group 1310" transform="translate(70.013 231)">
        <g transform="matrix(1, 0, 0, 1, -217.77, -302.98)" filter="url(#Rectangle_481-6)">
          <rect id="Rectangle_481-13" data-name="Rectangle 481" width="34.602" height="8.195" rx="4" transform="translate(217.77 302.98)" fill="#f9f9fb"/>
        </g>
      </g>
      <g id="Group_1311" data-name="Group 1311" transform="translate(256.013 136.801)">
        <g transform="matrix(1, 0, 0, 1, -403.77, -208.78)" filter="url(#Rectangle_481-7)">
          <rect id="Rectangle_481-14" data-name="Rectangle 481" width="34.602" height="8.195" rx="4" transform="translate(403.77 208.78)" fill="#f9f9fb"/>
        </g>
      </g>
    </g>
  </g>
</svg>
