<svg xmlns="http://www.w3.org/2000/svg" xmlns:xlink="http://www.w3.org/1999/xlink" width="789" height="435" viewBox="0 0 789 435">
  <defs>
    <filter id="Rectangle_908" x="0" y="0" width="762" height="435" filterUnits="userSpaceOnUse">
      <feOffset dy="3" input="SourceAlpha"/>
      <feGaussianBlur stdDeviation="3" result="blur"/>
      <feFlood flood-opacity="0.161"/>
      <feComposite operator="in" in2="blur"/>
      <feComposite in="SourceGraphic"/>
    </filter>
    <filter id="Rectangle_1087" x="89" y="43" width="700" height="348" filterUnits="userSpaceOnUse">
      <feOffset dy="3" input="SourceAlpha"/>
      <feGaussianBlur stdDeviation="3" result="blur-2"/>
      <feFlood flood-opacity="0.161"/>
      <feComposite operator="in" in2="blur-2"/>
      <feComposite in="SourceGraphic"/>
    </filter>
    <filter id="Rectangle_919" x="118.121" y="72.813" width="265.827" height="295.066" filterUnits="userSpaceOnUse">
      <feOffset dy="3" input="SourceAlpha"/>
      <feGaussianBlur stdDeviation="3" result="blur-3"/>
      <feFlood flood-opacity="0.161"/>
      <feComposite operator="in" in2="blur-3"/>
      <feComposite in="SourceGraphic"/>
    </filter>
    <filter id="Rectangle_919-2" x="384.104" y="72.813" width="251.53" height="115.189" filterUnits="userSpaceOnUse">
      <feOffset dy="3" input="SourceAlpha"/>
      <feGaussianBlur stdDeviation="3" result="blur-4"/>
      <feFlood flood-opacity="0.161"/>
      <feComposite operator="in" in2="blur-4"/>
      <feComposite in="SourceGraphic"/>
    </filter>
    <filter id="Rectangle_919-3" x="384.104" y="181.813" width="251.53" height="115.189" filterUnits="userSpaceOnUse">
      <feOffset dy="3" input="SourceAlpha"/>
      <feGaussianBlur stdDeviation="3" result="blur-5"/>
      <feFlood flood-opacity="0.161"/>
      <feComposite operator="in" in2="blur-5"/>
      <feComposite in="SourceGraphic"/>
    </filter>
    <filter id="Rectangle_919-4" x="384.104" y="72.813" width="22.819" height="115.189" filterUnits="userSpaceOnUse">
      <feOffset dy="3" input="SourceAlpha"/>
      <feGaussianBlur stdDeviation="3" result="blur-6"/>
      <feFlood flood-opacity="0.161"/>
      <feComposite operator="in" in2="blur-6"/>
      <feComposite in="SourceGraphic"/>
    </filter>
    <filter id="Rectangle_919-5" x="384.104" y="181.813" width="22.819" height="115.189" filterUnits="userSpaceOnUse">
      <feOffset dy="3" input="SourceAlpha"/>
      <feGaussianBlur stdDeviation="3" result="blur-7"/>
      <feFlood flood-opacity="0.161"/>
      <feComposite operator="in" in2="blur-7"/>
      <feComposite in="SourceGraphic"/>
    </filter>
    <filter id="Rectangle_919-6" x="641.85" y="72.813" width="120.15" height="31.621" filterUnits="userSpaceOnUse">
      <feOffset dy="3" input="SourceAlpha"/>
      <feGaussianBlur stdDeviation="3" result="blur-8"/>
      <feFlood flood-opacity="0.161"/>
      <feComposite operator="in" in2="blur-8"/>
      <feComposite in="SourceGraphic"/>
    </filter>
    <filter id="Rectangle_1128" x="174.121" y="146.129" width="55.472" height="28.018" filterUnits="userSpaceOnUse">
      <feOffset dy="3" input="SourceAlpha"/>
      <feGaussianBlur stdDeviation="3" result="blur-9"/>
      <feFlood flood-opacity="0.161"/>
      <feComposite operator="in" in2="blur-9"/>
      <feComposite in="SourceGraphic"/>
    </filter>
    <filter id="Rectangle_1145" x="293.121" y="171.795" width="55.472" height="28.018" filterUnits="userSpaceOnUse">
      <feOffset dy="3" input="SourceAlpha"/>
      <feGaussianBlur stdDeviation="3" result="blur-10"/>
      <feFlood flood-opacity="0.161"/>
      <feComposite operator="in" in2="blur-10"/>
      <feComposite in="SourceGraphic"/>
    </filter>
    <filter id="Rectangle_1146" x="157.052" y="266.082" width="55.472" height="28.018" filterUnits="userSpaceOnUse">
      <feOffset dy="3" input="SourceAlpha"/>
      <feGaussianBlur stdDeviation="3" result="blur-11"/>
      <feFlood flood-opacity="0.161"/>
      <feComposite operator="in" in2="blur-11"/>
      <feComposite in="SourceGraphic"/>
    </filter>
    <filter id="Rectangle_919-7" x="399.85" y="88.434" width="32.963" height="31.621" filterUnits="userSpaceOnUse">
      <feOffset dy="3" input="SourceAlpha"/>
      <feGaussianBlur stdDeviation="3" result="blur-12"/>
      <feFlood flood-opacity="0.161"/>
      <feComposite operator="in" in2="blur-12"/>
      <feComposite in="SourceGraphic"/>
    </filter>
    <filter id="Rectangle_919-8" x="399.85" y="197.434" width="32.963" height="31.621" filterUnits="userSpaceOnUse">
      <feOffset dy="3" input="SourceAlpha"/>
      <feGaussianBlur stdDeviation="3" result="blur-13"/>
      <feFlood flood-opacity="0.161"/>
      <feComposite operator="in" in2="blur-13"/>
      <feComposite in="SourceGraphic"/>
    </filter>
    <filter id="Rectangle_1109" x="419.85" y="88.434" width="55.472" height="28.018" filterUnits="userSpaceOnUse">
      <feOffset dy="3" input="SourceAlpha"/>
      <feGaussianBlur stdDeviation="3" result="blur-14"/>
      <feFlood flood-opacity="0.161"/>
      <feComposite operator="in" in2="blur-14"/>
      <feComposite in="SourceGraphic"/>
    </filter>
    <filter id="Rectangle_1141" x="419.85" y="197.434" width="55.472" height="28.018" filterUnits="userSpaceOnUse">
      <feOffset dy="3" input="SourceAlpha"/>
      <feGaussianBlur stdDeviation="3" result="blur-15"/>
      <feFlood flood-opacity="0.161"/>
      <feComposite operator="in" in2="blur-15"/>
      <feComposite in="SourceGraphic"/>
    </filter>
    <filter id="Rectangle_1111" x="399.85" y="112.434" width="183.472" height="24.018" filterUnits="userSpaceOnUse">
      <feOffset dy="3" input="SourceAlpha"/>
      <feGaussianBlur stdDeviation="3" result="blur-16"/>
      <feFlood flood-opacity="0.161"/>
      <feComposite operator="in" in2="blur-16"/>
      <feComposite in="SourceGraphic"/>
    </filter>
    <filter id="Rectangle_1142" x="399.85" y="221.434" width="183.472" height="24.018" filterUnits="userSpaceOnUse">
      <feOffset dy="3" input="SourceAlpha"/>
      <feGaussianBlur stdDeviation="3" result="blur-17"/>
      <feFlood flood-opacity="0.161"/>
      <feComposite operator="in" in2="blur-17"/>
      <feComposite in="SourceGraphic"/>
    </filter>
    <filter id="Rectangle_1112" x="399.85" y="122.758" width="196.472" height="24.018" filterUnits="userSpaceOnUse">
      <feOffset dy="3" input="SourceAlpha"/>
      <feGaussianBlur stdDeviation="3" result="blur-18"/>
      <feFlood flood-opacity="0.161"/>
      <feComposite operator="in" in2="blur-18"/>
      <feComposite in="SourceGraphic"/>
    </filter>
    <filter id="Rectangle_1143" x="399.85" y="231.758" width="196.472" height="24.018" filterUnits="userSpaceOnUse">
      <feOffset dy="3" input="SourceAlpha"/>
      <feGaussianBlur stdDeviation="3" result="blur-19"/>
      <feFlood flood-opacity="0.161"/>
      <feComposite operator="in" in2="blur-19"/>
      <feComposite in="SourceGraphic"/>
    </filter>
    <filter id="Rectangle_1113" x="399.85" y="133.086" width="158.472" height="24.018" filterUnits="userSpaceOnUse">
      <feOffset dy="3" input="SourceAlpha"/>
      <feGaussianBlur stdDeviation="3" result="blur-20"/>
      <feFlood flood-opacity="0.161"/>
      <feComposite operator="in" in2="blur-20"/>
      <feComposite in="SourceGraphic"/>
    </filter>
    <filter id="Rectangle_1144" x="399.85" y="242.086" width="158.472" height="24.018" filterUnits="userSpaceOnUse">
      <feOffset dy="3" input="SourceAlpha"/>
      <feGaussianBlur stdDeviation="3" result="blur-21"/>
      <feFlood flood-opacity="0.161"/>
      <feComposite operator="in" in2="blur-21"/>
      <feComposite in="SourceGraphic"/>
    </filter>
    <filter id="Icon_awesome-images" x="195.523" y="185.258" width="111.022" height="90.352" filterUnits="userSpaceOnUse">
      <feOffset dy="3" input="SourceAlpha"/>
      <feGaussianBlur stdDeviation="3" result="blur-22"/>
      <feFlood flood-opacity="0.161"/>
      <feComposite operator="in" in2="blur-22"/>
      <feComposite in="SourceGraphic"/>
    </filter>
  </defs>
  <g id="Homepage-Design_image" data-name="Homepage-Design image" transform="translate(8081 -21762)">
    <g transform="matrix(1, 0, 0, 1, -8081, 21762)" filter="url(#Rectangle_908)">
      <rect id="Rectangle_908-2" data-name="Rectangle 908" width="744" height="417" rx="10" transform="translate(9 6)" fill="#6b52f9"/>
    </g>
    <g transform="matrix(1, 0, 0, 1, -8081, 21762)" filter="url(#Rectangle_1087)">
      <rect id="Rectangle_1087-2" data-name="Rectangle 1087" width="682" height="330" rx="10" transform="translate(98 49)" fill="#f9f9fb"/>
    </g>
    <g id="Group_1306" data-name="Group 1306" transform="translate(-7953.879 21840.813)">
      <g transform="matrix(1, 0, 0, 1, -127.12, -78.81)" filter="url(#Rectangle_919)">
        <rect id="Rectangle_919-9" data-name="Rectangle 919" width="247.827" height="277.066" rx="1" transform="translate(127.12 78.81)" fill="#ededf2"/>
      </g>
    </g>
    <g id="Group_1316" data-name="Group 1316" transform="translate(-7687.896 21840.813)">
      <g transform="matrix(1, 0, 0, 1, -393.1, -78.81)" filter="url(#Rectangle_919-2)">
        <rect id="Rectangle_919-10" data-name="Rectangle 919" width="233.53" height="97.189" rx="1" transform="translate(393.1 78.81)" fill="#ededf2"/>
      </g>
    </g>
    <g id="Group_1318" data-name="Group 1318" transform="translate(-7687.896 21949.813)">
      <g transform="matrix(1, 0, 0, 1, -393.1, -187.81)" filter="url(#Rectangle_919-3)">
        <rect id="Rectangle_919-11" data-name="Rectangle 919" width="233.53" height="97.189" rx="1" transform="translate(393.1 187.81)" fill="#ededf2"/>
      </g>
    </g>
    <g id="Group_1317" data-name="Group 1317" transform="translate(-7687.896 21840.813)">
      <g transform="matrix(1, 0, 0, 1, -393.1, -78.81)" filter="url(#Rectangle_919-4)">
        <rect id="Rectangle_919-12" data-name="Rectangle 919" width="4.819" height="97.189" rx="1" transform="translate(393.1 78.81)" fill="#ff6ba4"/>
      </g>
    </g>
    <g id="Group_1319" data-name="Group 1319" transform="translate(-7687.896 21949.813)">
      <g transform="matrix(1, 0, 0, 1, -393.1, -187.81)" filter="url(#Rectangle_919-5)">
        <rect id="Rectangle_919-13" data-name="Rectangle 919" width="4.819" height="97.189" rx="1" transform="translate(393.1 187.81)" fill="#ff6ba4"/>
      </g>
    </g>
    <g id="Group_1315" data-name="Group 1315" transform="translate(-7430.15 21840.813)">
      <g transform="matrix(1, 0, 0, 1, -650.85, -78.81)" filter="url(#Rectangle_919-6)">
        <rect id="Rectangle_919-14" data-name="Rectangle 919" width="102.15" height="13.621" rx="1" transform="translate(650.85 78.81)" fill="#ff6ba4"/>
      </g>
    </g>
    <g transform="matrix(1, 0, 0, 1, -8081, 21762)" filter="url(#Rectangle_1128)">
      <rect id="Rectangle_1128-2" data-name="Rectangle 1128" width="37.472" height="10.017" rx="5" transform="translate(183.12 152.13)" fill="#6b52f9"/>
    </g>
    <g transform="matrix(1, 0, 0, 1, -8081, 21762)" filter="url(#Rectangle_1145)">
      <rect id="Rectangle_1145-2" data-name="Rectangle 1145" width="37.472" height="10.017" rx="5" transform="translate(302.12 177.79)" fill="#6b52f9"/>
    </g>
    <g transform="matrix(1, 0, 0, 1, -8081, 21762)" filter="url(#Rectangle_1146)">
      <rect id="Rectangle_1146-2" data-name="Rectangle 1146" width="37.472" height="10.017" rx="5" transform="translate(166.05 272.08)" fill="#6b52f9"/>
    </g>
    <g id="Group_1307" data-name="Group 1307" transform="translate(-7672.15 21856.434)">
      <g transform="matrix(1, 0, 0, 1, -408.85, -94.43)" filter="url(#Rectangle_919-7)">
        <rect id="Rectangle_919-15" data-name="Rectangle 919" width="14.963" height="13.621" rx="1" transform="translate(408.85 94.43)" fill="#6b52f9"/>
      </g>
    </g>
    <g id="Group_1320" data-name="Group 1320" transform="translate(-7672.15 21965.434)">
      <g transform="matrix(1, 0, 0, 1, -408.85, -203.43)" filter="url(#Rectangle_919-8)">
        <rect id="Rectangle_919-16" data-name="Rectangle 919" width="14.963" height="13.621" rx="1" transform="translate(408.85 203.43)" fill="#6b52f9"/>
      </g>
    </g>
    <g transform="matrix(1, 0, 0, 1, -8081, 21762)" filter="url(#Rectangle_1109)">
      <rect id="Rectangle_1109-2" data-name="Rectangle 1109" width="37.472" height="10.017" rx="5" transform="translate(428.85 94.43)" fill="#fb0"/>
    </g>
    <g transform="matrix(1, 0, 0, 1, -8081, 21762)" filter="url(#Rectangle_1141)">
      <rect id="Rectangle_1141-2" data-name="Rectangle 1141" width="37.472" height="10.017" rx="5" transform="translate(428.85 203.43)" fill="#fb0"/>
    </g>
    <g transform="matrix(1, 0, 0, 1, -8081, 21762)" filter="url(#Rectangle_1111)">
      <rect id="Rectangle_1111-2" data-name="Rectangle 1111" width="165.472" height="6.017" rx="3.009" transform="translate(408.85 118.43)" fill="#6b52f9"/>
    </g>
    <g transform="matrix(1, 0, 0, 1, -8081, 21762)" filter="url(#Rectangle_1142)">
      <rect id="Rectangle_1142-2" data-name="Rectangle 1142" width="165.472" height="6.017" rx="3.009" transform="translate(408.85 227.43)" fill="#6b52f9"/>
    </g>
    <g transform="matrix(1, 0, 0, 1, -8081, 21762)" filter="url(#Rectangle_1112)">
      <rect id="Rectangle_1112-2" data-name="Rectangle 1112" width="178.472" height="6.017" rx="3.009" transform="translate(408.85 128.76)" fill="#6b52f9"/>
    </g>
    <g transform="matrix(1, 0, 0, 1, -8081, 21762)" filter="url(#Rectangle_1143)">
      <rect id="Rectangle_1143-2" data-name="Rectangle 1143" width="178.472" height="6.017" rx="3.009" transform="translate(408.85 237.76)" fill="#6b52f9"/>
    </g>
    <g transform="matrix(1, 0, 0, 1, -8081, 21762)" filter="url(#Rectangle_1113)">
      <rect id="Rectangle_1113-2" data-name="Rectangle 1113" width="140.472" height="6.017" rx="3.009" transform="translate(408.85 139.09)" fill="#6b52f9"/>
    </g>
    <g transform="matrix(1, 0, 0, 1, -8081, 21762)" filter="url(#Rectangle_1144)">
      <rect id="Rectangle_1144-2" data-name="Rectangle 1144" width="140.472" height="6.017" rx="3.009" transform="translate(408.85 248.09)" fill="#6b52f9"/>
    </g>
    <g transform="matrix(1, 0, 0, 1, -8081, 21762)" filter="url(#Icon_awesome-images)">
      <path id="Icon_awesome-images-2" data-name="Icon awesome-images" d="M77.518,64.265v2.584A7.752,7.752,0,0,1,69.767,74.6H7.752A7.752,7.752,0,0,1,0,66.849V25.506a7.752,7.752,0,0,1,7.752-7.752h2.584V51.345a12.934,12.934,0,0,0,12.92,12.92Zm15.5-12.92V10A7.752,7.752,0,0,0,85.27,2.25H23.256A7.752,7.752,0,0,0,15.5,10V51.345A7.752,7.752,0,0,0,23.256,59.1H85.27A7.752,7.752,0,0,0,93.022,51.345ZM41.343,17.754A7.752,7.752,0,1,1,33.591,10,7.752,7.752,0,0,1,41.343,17.754Zm-15.5,23.256L34.8,32.044a1.938,1.938,0,0,1,2.741,0l6.381,6.382L65.812,16.54a1.938,1.938,0,0,1,2.741,0L82.686,30.673V48.761H25.839Z" transform="translate(204.52 189.01)" fill="#6b52f9"/>
    </g>
    <path id="Path_1746" data-name="Path 1746" d="M-7879.143,22039.09c3.263-.357,26.384,0,26.384,0l12.805-14.584" fill="none" stroke="#6b52f9" stroke-width="1"/>
    <path id="Path_1747" data-name="Path 1747" d="M-7863.422,21919.137h19.428l10.038,35.109" fill="none" stroke="#6b52f9" stroke-width="1"/>
    <path id="Path_1748" data-name="Path 1748" d="M-7776.673,21944.8l-13.133,10.574" fill="none" stroke="#6b52f9" stroke-width="1"/>
  </g>
</svg>
