<svg xmlns="http://www.w3.org/2000/svg" xmlns:xlink="http://www.w3.org/1999/xlink" width="789" height="435" viewBox="0 0 789 435">
  <defs>
    <filter id="Rectangle_908" x="0" y="0" width="762" height="435" filterUnits="userSpaceOnUse">
      <feOffset dy="3" input="SourceAlpha"/>
      <feGaussianBlur stdDeviation="3" result="blur"/>
      <feFlood flood-opacity="0.161"/>
      <feComposite operator="in" in2="blur"/>
      <feComposite in="SourceGraphic"/>
    </filter>
    <filter id="Rectangle_1087" x="89" y="43" width="700" height="348" filterUnits="userSpaceOnUse">
      <feOffset dy="3" input="SourceAlpha"/>
      <feGaussianBlur stdDeviation="3" result="blur-2"/>
      <feFlood flood-opacity="0.161"/>
      <feComposite operator="in" in2="blur-2"/>
      <feComposite in="SourceGraphic"/>
    </filter>
    <filter id="Rectangle_919" x="549.528" y="200.926" width="212.472" height="147.52" filterUnits="userSpaceOnUse">
      <feOffset dy="3" input="SourceAlpha"/>
      <feGaussianBlur stdDeviation="3" result="blur-3"/>
      <feFlood flood-opacity="0.161"/>
      <feComposite operator="in" in2="blur-3"/>
      <feComposite in="SourceGraphic"/>
    </filter>
    <filter id="Rectangle_919-2" x="112" y="63" width="95.848" height="42.344" filterUnits="userSpaceOnUse">
      <feOffset dy="3" input="SourceAlpha"/>
      <feGaussianBlur stdDeviation="3" result="blur-4"/>
      <feFlood flood-opacity="0.161"/>
      <feComposite operator="in" in2="blur-4"/>
      <feComposite in="SourceGraphic"/>
    </filter>
    <filter id="Rectangle_919-3" x="549.528" y="97.5" width="212.472" height="42.344" filterUnits="userSpaceOnUse">
      <feOffset dy="3" input="SourceAlpha"/>
      <feGaussianBlur stdDeviation="3" result="blur-5"/>
      <feFlood flood-opacity="0.161"/>
      <feComposite operator="in" in2="blur-5"/>
      <feComposite in="SourceGraphic"/>
    </filter>
    <filter id="Rectangle_919-4" x="549.528" y="131.654" width="212.472" height="42.344" filterUnits="userSpaceOnUse">
      <feOffset dy="3" input="SourceAlpha"/>
      <feGaussianBlur stdDeviation="3" result="blur-6"/>
      <feFlood flood-opacity="0.161"/>
      <feComposite operator="in" in2="blur-6"/>
      <feComposite in="SourceGraphic"/>
    </filter>
    <filter id="Rectangle_919-5" x="549.528" y="165.809" width="212.472" height="42.344" filterUnits="userSpaceOnUse">
      <feOffset dy="3" input="SourceAlpha"/>
      <feGaussianBlur stdDeviation="3" result="blur-7"/>
      <feFlood flood-opacity="0.161"/>
      <feComposite operator="in" in2="blur-7"/>
      <feComposite in="SourceGraphic"/>
    </filter>
    <filter id="Rectangle_1082" x="569.712" y="228.992" width="96.861" height="28.018" filterUnits="userSpaceOnUse">
      <feOffset dy="3" input="SourceAlpha"/>
      <feGaussianBlur stdDeviation="3" result="blur-8"/>
      <feFlood flood-opacity="0.161"/>
      <feComposite operator="in" in2="blur-8"/>
      <feComposite in="SourceGraphic"/>
    </filter>
    <filter id="Rectangle_1091" x="569.917" y="260.676" width="77.681" height="28.018" filterUnits="userSpaceOnUse">
      <feOffset dy="3" input="SourceAlpha"/>
      <feGaussianBlur stdDeviation="3" result="blur-9"/>
      <feFlood flood-opacity="0.161"/>
      <feComposite operator="in" in2="blur-9"/>
      <feComposite in="SourceGraphic"/>
    </filter>
    <filter id="Rectangle_1092" x="569.447" y="292.992" width="114.719" height="28.018" filterUnits="userSpaceOnUse">
      <feOffset dy="3" input="SourceAlpha"/>
      <feGaussianBlur stdDeviation="3" result="blur-10"/>
      <feFlood flood-opacity="0.161"/>
      <feComposite operator="in" in2="blur-10"/>
      <feComposite in="SourceGraphic"/>
    </filter>
  </defs>
  <g id="Homepage-CRM_image" data-name="Homepage-CRM image" transform="translate(12818 -21432)">
    <g transform="matrix(1, 0, 0, 1, -12818, 21432)" filter="url(#Rectangle_908)">
      <rect id="Rectangle_908-2" data-name="Rectangle 908" width="744" height="417" rx="10" transform="translate(9 6)" fill="#6b52f9"/>
    </g>
    <g transform="matrix(1, 0, 0, 1, -12818, 21432)" filter="url(#Rectangle_1087)">
      <rect id="Rectangle_1087-2" data-name="Rectangle 1087" width="682" height="330" rx="10" transform="translate(98 49)" fill="#f9f9fb"/>
    </g>
    <g id="Group_1295" data-name="Group 1295" transform="translate(-12259.472 21638.926)">
      <g transform="matrix(1, 0, 0, 1, -558.53, -206.93)" filter="url(#Rectangle_919)">
        <rect id="Rectangle_919-6" data-name="Rectangle 919" width="194.472" height="129.52" rx="1" transform="translate(558.53 206.93)" fill="#f9f9fb"/>
      </g>
    </g>
    <g id="Group_1242" data-name="Group 1242" transform="translate(-12697 21501)">
      <g transform="matrix(1, 0, 0, 1, -121, -69)" filter="url(#Rectangle_919-2)">
        <rect id="Rectangle_919-7" data-name="Rectangle 919" width="77.848" height="24.344" rx="1" transform="translate(121 69)" fill="#6b52f9"/>
      </g>
    </g>
    <g id="Group_1298" data-name="Group 1298" transform="translate(-12259.472 21535.5)">
      <g transform="matrix(1, 0, 0, 1, -558.53, -103.5)" filter="url(#Rectangle_919-3)">
        <rect id="Rectangle_919-8" data-name="Rectangle 919" width="194.472" height="24.344" rx="1" transform="translate(558.53 103.5)" fill="#ff6ba4"/>
      </g>
    </g>
    <g id="Group_1299" data-name="Group 1299" transform="translate(-12259.472 21569.654)">
      <g transform="matrix(1, 0, 0, 1, -558.53, -137.65)" filter="url(#Rectangle_919-4)">
        <rect id="Rectangle_919-9" data-name="Rectangle 919" width="194.472" height="24.344" rx="1" transform="translate(558.53 137.65)" fill="#f6fcff"/>
      </g>
    </g>
    <g id="Group_1300" data-name="Group 1300" transform="translate(-12259.472 21603.809)">
      <g transform="matrix(1, 0, 0, 1, -558.53, -171.81)" filter="url(#Rectangle_919-5)">
        <rect id="Rectangle_919-10" data-name="Rectangle 919" width="194.472" height="24.344" rx="1" transform="translate(558.53 171.81)" fill="#f6fcff"/>
      </g>
    </g>
    <g transform="matrix(1, 0, 0, 1, -12818, 21432)" filter="url(#Rectangle_1082)">
      <rect id="Rectangle_1082-2" data-name="Rectangle 1082" width="78.861" height="10.017" rx="5" transform="translate(578.71 234.99)" fill="#fb0"/>
    </g>
    <g transform="matrix(1, 0, 0, 1, -12818, 21432)" filter="url(#Rectangle_1091)">
      <rect id="Rectangle_1091-2" data-name="Rectangle 1091" width="59.681" height="10.017" rx="5" transform="translate(578.92 266.68)" fill="#fb0"/>
    </g>
    <g transform="matrix(1, 0, 0, 1, -12818, 21432)" filter="url(#Rectangle_1092)">
      <rect id="Rectangle_1092-2" data-name="Rectangle 1092" width="96.719" height="10.017" rx="5" transform="translate(578.45 298.99)" fill="#fb0"/>
    </g>
    <g id="Group_1264" data-name="Group 1264" transform="translate(-12697 21539)">
      <rect id="Rectangle_994" data-name="Rectangle 994" width="18" height="18" rx="5" transform="translate(0 0.001)" fill="#ededf2"/>
      <rect id="Rectangle_995" data-name="Rectangle 995" width="376" height="18" rx="4" transform="translate(34 0.001)" fill="#fb0"/>
    </g>
    <g id="Group_1264-2" data-name="Group 1264" transform="translate(-12697 21577)">
      <rect id="Rectangle_994-2" data-name="Rectangle 994" width="18" height="18" rx="5" transform="translate(0 0.001)" fill="#ededf2"/>
      <rect id="Rectangle_995-2" data-name="Rectangle 995" width="376" height="18" rx="4" transform="translate(34 0.001)" fill="#fb0"/>
    </g>
    <g id="Group_1264-3" data-name="Group 1264" transform="translate(-12697 21615)">
      <rect id="Rectangle_994-3" data-name="Rectangle 994" width="18" height="18" rx="5" transform="translate(0 0.001)" fill="#ededf2"/>
      <rect id="Rectangle_995-3" data-name="Rectangle 995" width="376" height="18" rx="4" transform="translate(34 0.001)" fill="#ededf2"/>
    </g>
    <g id="Group_1264-4" data-name="Group 1264" transform="translate(-12697 21653)">
      <rect id="Rectangle_994-4" data-name="Rectangle 994" width="18" height="18" rx="5" transform="translate(0 0.001)" fill="#ededf2"/>
      <rect id="Rectangle_995-4" data-name="Rectangle 995" width="376" height="18" rx="4" transform="translate(34 0.001)" fill="#ededf2"/>
    </g>
    <g id="Group_1264-5" data-name="Group 1264" transform="translate(-12697 21691)">
      <rect id="Rectangle_994-5" data-name="Rectangle 994" width="18" height="18" rx="5" transform="translate(0 0.001)" fill="#fb0"/>
      <rect id="Rectangle_995-5" data-name="Rectangle 995" width="376" height="18" rx="4" transform="translate(34 0.001)" fill="#ededf2"/>
    </g>
    <g id="Group_1264-6" data-name="Group 1264" transform="translate(-12697 21729)">
      <rect id="Rectangle_994-6" data-name="Rectangle 994" width="18" height="18" rx="5" transform="translate(0 0.001)" fill="#fb0"/>
      <rect id="Rectangle_995-6" data-name="Rectangle 995" width="376" height="18" rx="4" transform="translate(34 0.001)" fill="#ededf2"/>
    </g>
  </g>
</svg>
