<svg id="marketing" xmlns="http://www.w3.org/2000/svg" width="497.754" height="315.284" viewBox="0 0 497.754 315.284">
  <path id="Path_2924" data-name="Path 2924" d="M871.491,414.5H679.329a3.741,3.741,0,0,1-3.737-3.737V211.737A3.741,3.741,0,0,1,679.329,208H871.491a3.741,3.741,0,0,1,3.737,3.737V410.761A3.741,3.741,0,0,1,871.491,414.5ZM679.329,209.3a2.437,2.437,0,0,0-2.434,2.434V410.761a2.437,2.437,0,0,0,2.434,2.434H871.491a2.437,2.437,0,0,0,2.434-2.434V211.737a2.437,2.437,0,0,0-2.434-2.434Z" transform="translate(-377.474 -208)" fill="#3f3d56"/>
  <path id="Path_2925" data-name="Path 2925" d="M833.615,315.451a41.183,41.183,0,1,1-36.22-21.574c.327,0,.652,0,.977.012l-.435-17.592c-.181,0-.361-.007-.542-.007A58.747,58.747,0,1,0,847.781,304.8Z" transform="translate(-399.458 -231.805)" fill="rgba(255,107,164,0.7)"/>
  <path id="Path_2926" data-name="Path 2926" d="M865.335,315.454,879.5,304.808A58.729,58.729,0,0,0,829.656,276.3l.435,17.592A41.171,41.171,0,0,1,865.335,315.454Z" transform="translate(-431.178 -231.809)" fill="#e6e6e6"/>
  <rect id="Rectangle_1510" data-name="Rectangle 1510" width="1.023" height="29.321" transform="matrix(0.71, -0.704, 0.704, 0.71, 427.123, 154.411)" fill="#3f3d56"/>
  <rect id="Rectangle_1511" data-name="Rectangle 1511" width="29.321" height="1.024" transform="translate(426.752 51.754) rotate(-60.713)" fill="#3f3d56"/>
  <path id="Path_2927" data-name="Path 2927" d="M912.18,484.335H881.727a2.044,2.044,0,0,1-2.042-2.041v-4.289a2.044,2.044,0,0,1,2.042-2.041H912.18a2.044,2.044,0,0,1,2.042,2.041v4.289A2.044,2.044,0,0,1,912.18,484.335Z" transform="translate(-448.617 -301.409)" fill="#fb0"/>
  <path id="Path_2928" data-name="Path 2928" d="M900.329,244.655H869.874a2.044,2.044,0,0,1-2.041-2.041v-4.289a2.044,2.044,0,0,1,2.041-2.041h30.454a2.044,2.044,0,0,1,2.041,2.041v4.289A2.044,2.044,0,0,1,900.329,244.655Z" transform="translate(-444.486 -217.859)" fill="#e6e6e6"/>
  <path id="Path_2929" data-name="Path 2929" d="M510.324,303.372H293.163a3.564,3.564,0,0,1-3.56-3.56V212.56a3.564,3.564,0,0,1,3.56-3.56H510.324a3.564,3.564,0,0,1,3.56,3.56v87.252A3.564,3.564,0,0,1,510.324,303.372ZM293.163,210.3a2.259,2.259,0,0,0-2.257,2.257v87.252a2.259,2.259,0,0,0,2.257,2.257H510.324a2.259,2.259,0,0,0,2.257-2.257V212.56a2.259,2.259,0,0,0-2.257-2.257Z" transform="translate(-242.923 -208.349)" fill="#3f3d56"/>
  <path id="Path_2930" data-name="Path 2930" d="M412.013,304.2h-21.04a2.27,2.27,0,0,1-2.236-1.9,88.383,88.383,0,0,1,0-26.9,2.27,2.27,0,0,1,2.236-1.9h21.04a2.242,2.242,0,0,1,1.771.858,2.28,2.28,0,0,1,.426,1.955,54,54,0,0,0,0,25.079,2.28,2.28,0,0,1-.426,1.955A2.242,2.242,0,0,1,412.013,304.2Z" transform="translate(-277.121 -230.831)" fill="#e6e6e6"/>
  <path id="Path_2931" data-name="Path 2931" d="M520.158,304.2H499.118a2.27,2.27,0,0,1-2.236-1.9,88.377,88.377,0,0,1,0-26.9,2.27,2.27,0,0,1,2.236-1.9h21.041a2.241,2.241,0,0,1,1.771.858,2.279,2.279,0,0,1,.426,1.955,54,54,0,0,0,0,25.079,2.279,2.279,0,0,1-.426,1.955A2.241,2.241,0,0,1,520.158,304.2Z" transform="translate(-314.818 -230.831)" fill="#e6e6e6"/>
  <path id="Path_2932" data-name="Path 2932" d="M357.074,272.947h-21.04a2.27,2.27,0,0,1-2.236-1.9,88.383,88.383,0,0,1,0-26.9,2.27,2.27,0,0,1,2.236-1.9h21.04a2.242,2.242,0,0,1,1.771.858,2.28,2.28,0,0,1,.426,1.955,53.993,53.993,0,0,0,0,25.079,2.28,2.28,0,0,1-.426,1.955,2.242,2.242,0,0,1-1.771.858Z" transform="translate(-257.97 -219.936)" fill="rgba(255,107,164,0.8)"/>
  <path id="Path_2933" data-name="Path 2933" d="M466.844,272.947H445.8a2.241,2.241,0,0,1-1.771-.858,2.278,2.278,0,0,1-.426-1.955,54,54,0,0,0,0-25.079,2.279,2.279,0,0,1,.426-1.955,2.241,2.241,0,0,1,1.771-.858h21.04a2.27,2.27,0,0,1,2.236,1.9,88.381,88.381,0,0,1,0,26.9A2.27,2.27,0,0,1,466.844,272.947Z" transform="translate(-296.584 -219.936)" fill="#fb0"/>
  <path id="Path_2934" data-name="Path 2934" d="M573.254,272.947H552.214a2.241,2.241,0,0,1-1.771-.858,2.279,2.279,0,0,1-.426-1.955,54,54,0,0,0,0-25.079,2.279,2.279,0,0,1,.426-1.955,2.241,2.241,0,0,1,1.771-.858h21.041a2.271,2.271,0,0,1,2.236,1.9,88.393,88.393,0,0,1,0,26.9,2.271,2.271,0,0,1-2.236,1.9Z" transform="translate(-333.677 -219.936)" fill="#ff6584"/>
  <path id="Path_2935" data-name="Path 2935" d="M387.692,487.03a7,7,0,0,1-5.108-9.436L353.7,415.585l14.651-4.118,23.807,62.323a7.036,7.036,0,0,1-4.469,13.24Z" transform="translate(-265.267 -278.926)" fill="#a0616a"/>
  <path id="Path_2936" data-name="Path 2936" d="M102.078,454.88h7.986l3.8-30.8H102.077Z" transform="translate(-35.583 -147.827)" fill="#a0616a"/>
  <path id="Path_2937" data-name="Path 2937" d="M0,0H25.1V9.7H9.7A9.7,9.7,0,0,1,0,0H0Z" transform="translate(89.882 314.468) rotate(179.997)" fill="#2f2e41"/>
  <path id="Path_2938" data-name="Path 2938" d="M38.354,443l7.341,3.144,15.622-26.819L50.482,414.68Z" transform="translate(-13.37 -144.552)" fill="#a0616a"/>
  <path id="Path_2939" data-name="Path 2939" d="M0,0H25.1V9.7H9.7A9.7,9.7,0,0,1,0,0Z" transform="matrix(-0.919, -0.394, 0.394, -0.919, 43.563, 314.469)" fill="#2f2e41"/>
  <circle id="Ellipse_661" data-name="Ellipse 661" cx="15.999" cy="15.999" r="15.999" transform="translate(70.241 75.569)" fill="#a0616a"/>
  <path id="Path_2940" data-name="Path 2940" d="M306.944,604.165l-8.792-1.675a2.914,2.914,0,0,1-2.368-3.178l5.83-56.842a2.28,2.28,0,0,0-4.364-1.13L271.8,600.727a2.932,2.932,0,0,1-3.885,1.523l-7.15-3.178a2.92,2.92,0,0,1-1.59-3.606l17.407-52.222a2.276,2.276,0,0,0,.1-.452l5.65-47.714a2.931,2.931,0,0,1,1.808-2.372l17.841-7.248a2.932,2.932,0,0,1,3.148.615L327.649,508a2.92,2.92,0,0,1,.83,2.671l-18.112,91.183a2.942,2.942,0,0,1-2.877,2.36,2.912,2.912,0,0,1-.546-.052Z" transform="translate(-232.262 -304.644)" fill="#2f2e41"/>
  <path id="Path_2941" data-name="Path 2941" d="M306.327,458.642c-3.117-3.609-5.391-5.247-6.947-4.989s-2.434,2.406-3.377,4.689c-1.287,3.116-2.746,6.649-6.341,6.925a3.027,3.027,0,0,1-2.972-1.218c-2.828-4.206,3.955-18.125,4.575-19.376l-.318-65.832a2.924,2.924,0,0,1,1.533-2.6c18.641-10.052,43.812,7.43,48.668,11.038h0a2.924,2.924,0,0,1,1.179,2.507c-.586,11.026-3.509,66.653-3.509,79.061,0,3.435-1.185,5.618-3.522,6.487a7.024,7.024,0,0,1-2.459.4C325.708,475.741,314.03,467.56,306.327,458.642Z" transform="translate(-241.668 -265.575)" fill="#ccc"/>
  <path id="Path_2942" data-name="Path 2942" d="M355.754,434.016a2.9,2.9,0,0,1-1.318-2.323l-1.263-29.487a7.652,7.652,0,0,1,14.795-3.056l9.45,24.764a2.935,2.935,0,0,1-1.694,3.784l-17.315,6.608A2.9,2.9,0,0,1,355.754,434.016Z" transform="translate(-265.08 -272.916)" fill="#ccc"/>
  <path id="Path_2943" data-name="Path 2943" d="M287.355,483.758a7,7,0,0,1-1.124-10.671l-3.055-68.336,15.114,1.78-1.754,66.692a7.036,7.036,0,0,1-9.18,10.535Z" transform="translate(-240.682 -276.585)" fill="#a0616a"/>
  <path id="Path_2944" data-name="Path 2944" d="M273.183,413.488a2.9,2.9,0,0,1-.4-2.641l9.333-28a7.652,7.652,0,0,1,14.912,2.42v26.506a2.935,2.935,0,0,1-2.931,2.931H275.561A2.9,2.9,0,0,1,273.183,413.488Z" transform="translate(-237.005 -267.125)" fill="#ccc"/>
  <path id="Path_2945" data-name="Path 2945" d="M327.576,346.005a3.161,3.161,0,0,1-4.137-.206,28.093,28.093,0,0,1-7.788-11.477c-1.678-5.086-1.249-11.043,1.964-15.328,2.717-3.622,7.017-5.668,11.253-7.268a18.415,18.415,0,0,1,5.185-1.347A7.124,7.124,0,0,1,339.1,311.8a4.474,4.474,0,0,1,1.482,4.818,16.837,16.837,0,0,1,7.688-3.977,9.294,9.294,0,0,1,5.5.228c2.456,1.01,4.052,3.478,4.787,6.03a10.9,10.9,0,0,1,.142,6,7.261,7.261,0,0,1-3.717,4.581c-2.247,1.059-4.914.659-7.264-.147s-4.578-2-7.008-2.51-5.237-.214-6.957,1.579a10.278,10.278,0,0,0-2.121,4.733l-2.253,8.816a11,11,0,0,1-1.4,3.631,2.172,2.172,0,0,1-.4.425Z" transform="translate(-251.667 -243.675)" fill="#2f2e41"/>
  <path id="Path_2946" data-name="Path 2946" d="M421.074,543.947h-21.04a2.27,2.27,0,0,1-2.236-1.9,88.381,88.381,0,0,1,0-26.9,2.27,2.27,0,0,1,2.236-1.9h21.04a2.241,2.241,0,0,1,1.771.858,2.279,2.279,0,0,1,.426,1.955,54,54,0,0,0,0,25.079,2.279,2.279,0,0,1-.426,1.955A2.241,2.241,0,0,1,421.074,543.947Z" transform="translate(-280.279 -314.403)" fill="rgba(255,107,164,0.8)"/>
  <path id="Path_2947" data-name="Path 2947" d="M323.472,691.3H218.594a.651.651,0,0,1,0-1.3H323.472a.651.651,0,1,1,0,1.3Z" transform="translate(-217.943 -376.019)" fill="#3f3d56"/>
</svg>
