<svg xmlns="http://www.w3.org/2000/svg" width="646.668" height="364.669" viewBox="0 0 646.668 364.669">
  <g id="projectmanagement" transform="translate(-18402.26 11236)">
    <g id="undraw_scrum_board_re_wk7v" transform="translate(18402.26 -11236)">
      <path id="Path_2142" data-name="Path 2142" d="M321.859,197.023h-33a11.977,11.977,0,0,0-11.966,11.966v35.78c-.422-.025-.844-.063-1.26-.113a42.2,42.2,0,1,1,46.039-48.892C321.74,196.18,321.8,196.6,321.859,197.023Z" transform="translate(-207.185 -160.493)" fill="#f2f2f2"/>
      <path id="Path_2143" data-name="Path 2143" d="M733.669,216.5h-422.6a13.241,13.241,0,0,0-13.226,13.226V452.675A13.241,13.241,0,0,0,311.064,465.9h422.6a13.241,13.241,0,0,0,13.226-13.226V229.721A13.241,13.241,0,0,0,733.669,216.5Zm11.966,236.18a11.977,11.977,0,0,1-11.966,11.966h-422.6A11.977,11.977,0,0,1,299.1,452.675V229.721a11.977,11.977,0,0,1,11.966-11.966h422.6a11.977,11.977,0,0,1,11.966,11.966Z" transform="translate(-229.392 -181.224)" fill="#3f3d56"/>
      <path id="Path_2144" data-name="Path 2144" d="M732.5,273.124H351.468a.63.63,0,1,1,0-1.26H732.5a.63.63,0,1,1,0,1.26Z" transform="translate(-249.012 -201.721)" fill="#3f3d56"/>
      <path id="Path_2145" data-name="Path 2145" d="M522.468,446.963a.63.63,0,0,1-.63-.63V239.125a.63.63,0,1,1,1.26,0V446.334a.63.63,0,0,1-.63.63Z" transform="translate(-312.314 -189.368)" fill="#3f3d56"/>
      <path id="Path_2146" data-name="Path 2146" d="M673.468,446.963a.63.63,0,0,1-.63-.63V239.125a.63.63,0,1,1,1.26,0V446.334a.63.63,0,0,1-.63.63Z" transform="translate(-368.212 -189.368)" fill="#3f3d56"/>
      <path id="Path_2147" data-name="Path 2147" d="M824.468,446.963a.63.63,0,0,1-.63-.63V239.125a.63.63,0,1,1,1.26,0V446.334a.63.63,0,0,1-.63.63Z" transform="translate(-424.111 -189.368)" fill="#3f3d56"/>
      <path id="Path_2148" data-name="Path 2148" d="M410.561,357.789H387.548a2.837,2.837,0,0,1-2.834-2.834V327.8a2.837,2.837,0,0,1,2.834-2.834h23.013A2.837,2.837,0,0,1,413.4,327.8v27.157a2.837,2.837,0,0,1-2.834,2.834Z" transform="translate(-261.553 -221.378)" fill="#fb0"/>
      <path id="Path_2149" data-name="Path 2149" d="M462.561,480.789H439.548a2.837,2.837,0,0,1-2.834-2.834V450.8a2.837,2.837,0,0,1,2.834-2.834h23.013A2.837,2.837,0,0,1,465.4,450.8v27.157A2.837,2.837,0,0,1,462.561,480.789Z" transform="translate(-280.802 -266.911)" fill="#fb0"/>
      <path id="Path_2150" data-name="Path 2150" d="M580.561,383.789H557.548a2.837,2.837,0,0,1-2.834-2.834V353.8a2.837,2.837,0,0,1,2.834-2.834h23.013A2.837,2.837,0,0,1,583.4,353.8v27.157A2.837,2.837,0,0,1,580.561,383.789Z" transform="translate(-324.484 -231.002)" fill="#fb0"/>
      <path id="Path_2151" data-name="Path 2151" d="M733.561,336.789H710.548a2.837,2.837,0,0,1-2.834-2.834V306.8a2.837,2.837,0,0,1,2.834-2.834h23.013A2.837,2.837,0,0,1,736.4,306.8v27.157A2.837,2.837,0,0,1,733.561,336.789Z" transform="translate(-381.123 -213.604)" fill="#fb0"/>
      <path id="Path_2152" data-name="Path 2152" d="M874.561,336.789H851.548a2.837,2.837,0,0,1-2.834-2.834V306.8a2.837,2.837,0,0,1,2.834-2.834h23.013A2.837,2.837,0,0,1,877.4,306.8v27.157a2.837,2.837,0,0,1-2.834,2.834Z" transform="translate(-433.319 -213.604)" fill="#fb0"/>
      <path id="Path_2153" data-name="Path 2153" d="M939.561,348.789H916.548a2.837,2.837,0,0,1-2.834-2.834V318.8a2.837,2.837,0,0,1,2.834-2.834h23.013A2.837,2.837,0,0,1,942.4,318.8v27.157A2.837,2.837,0,0,1,939.561,348.789Z" transform="translate(-457.382 -218.046)" fill="#e6e6e6"/>
      <path id="Path_2154" data-name="Path 2154" d="M910.561,425.789H887.548a2.837,2.837,0,0,1-2.834-2.834V395.8a2.837,2.837,0,0,1,2.834-2.834h23.013A2.837,2.837,0,0,1,913.4,395.8v27.157A2.837,2.837,0,0,1,910.561,425.789Z" transform="translate(-446.646 -246.55)" fill="#e6e6e6"/>
      <path id="Path_2155" data-name="Path 2155" d="M786.561,409.789H763.548a2.837,2.837,0,0,1-2.834-2.834V379.8a2.837,2.837,0,0,1,2.834-2.834h23.013A2.837,2.837,0,0,1,789.4,379.8v27.157A2.837,2.837,0,0,1,786.561,409.789Z" transform="translate(-400.743 -240.627)" fill="#ff6584"/>
      <path id="Path_2156" data-name="Path 2156" d="M715.561,425.789H692.548a2.837,2.837,0,0,1-2.834-2.834V395.8a2.837,2.837,0,0,1,2.834-2.834h23.013A2.837,2.837,0,0,1,718.4,395.8v27.157A2.837,2.837,0,0,1,715.561,425.789Z" transform="translate(-374.46 -246.55)" fill="#e6e6e6"/>
      <path id="Path_2157" data-name="Path 2157" d="M562.561,493.789H539.548a2.837,2.837,0,0,1-2.834-2.834V463.8a2.837,2.837,0,0,1,2.834-2.834h23.013A2.837,2.837,0,0,1,565.4,463.8v27.157a2.837,2.837,0,0,1-2.834,2.834Z" transform="translate(-317.821 -271.723)" fill="#e6e6e6"/>
      <path id="Path_2158" data-name="Path 2158" d="M377.561,436.789H354.548a2.837,2.837,0,0,1-2.834-2.834V406.8a2.837,2.837,0,0,1,2.834-2.834h23.013A2.837,2.837,0,0,1,380.4,406.8v27.157A2.837,2.837,0,0,1,377.561,436.789Z" transform="translate(-249.336 -250.622)" fill="#ff6584"/>
      <path id="Path_2159" data-name="Path 2159" d="M480.561,357.789H457.548a2.837,2.837,0,0,1-2.834-2.834V327.8a2.837,2.837,0,0,1,2.834-2.834h23.013A2.837,2.837,0,0,1,483.4,327.8v27.157a2.837,2.837,0,0,1-2.834,2.834Z" transform="translate(-287.466 -221.378)" fill="#e6e6e6"/>
      <path id="Path_2160" data-name="Path 2160" d="M443.257,254.534h-35.9a2.519,2.519,0,1,1,0-5.038h35.9a2.519,2.519,0,0,1,0,5.038Z" transform="translate(-269.002 -193.44)" fill="#ccc"/>
      <path id="Path_2161" data-name="Path 2161" d="M604.257,254.534h-35.9a2.519,2.519,0,0,1,0-5.038h35.9a2.519,2.519,0,1,1,0,5.038Z" transform="translate(-328.602 -193.44)" fill="#ccc"/>
      <path id="Path_2162" data-name="Path 2162" d="M755.257,254.534h-35.9a2.519,2.519,0,1,1,0-5.038h35.9a2.519,2.519,0,1,1,0,5.038Z" transform="translate(-384.501 -193.44)" fill="#ccc"/>
      <path id="Path_2163" data-name="Path 2163" d="M896.257,254.534h-35.9a2.519,2.519,0,1,1,0-5.038h35.9a2.519,2.519,0,1,1,0,5.038Z" transform="translate(-436.697 -193.44)" fill="#ccc"/>
      <path id="Path_2164" data-name="Path 2164" d="M325.461,535.568a6.333,6.333,0,0,1-5.479-8.018l-16.144-15.028,8.536-2.165,15.875,12.876a6.368,6.368,0,0,1-2.787,12.335Z" transform="translate(-231.614 -290.008)" fill="#ffb8b8"/>
      <path id="Path_2165" data-name="Path 2165" d="M184.4,548.748h7.721l3.673-29.783H184.4Z" transform="translate(-68.263 -192.113)" fill="#ffb8b8"/>
      <path id="Path_2166" data-name="Path 2166" d="M0,0H24.267V9.376H9.376A9.376,9.376,0,0,1,0,0H0Z" transform="translate(138.751 363.805) rotate(179.997)" fill="#2f2e41"/>
      <path id="Path_2167" data-name="Path 2167" d="M100.345,540.485l7.462,1.986,11.211-27.835L108.006,511.7Z" transform="translate(-37.146 -189.425)" fill="#ffb8b8"/>
      <path id="Path_2168" data-name="Path 2168" d="M0,0H24.267V9.376H9.376A9.376,9.376,0,0,1,0,0H0Z" transform="matrix(-0.966, -0.257, 0.257, -0.966, 83.207, 363.806)" fill="#2f2e41"/>
      <path id="Path_2169" data-name="Path 2169" d="M351.444,637.156H339.662a2.979,2.979,0,0,1-2.977-2.7l-7.152-74.275a2.36,2.36,0,0,0-4.611-.45l-20.767,69.4a2.987,2.987,0,0,1-3.59,2.044L289.6,628.436a2.99,2.99,0,0,1-2.171-3.645c.179-.7,17.893-69.927,18.048-70.639,4.014-29.581,8.816-37.508,11.4-41.766.214-.352.41-.677.586-.983.221-.383,1.582-4.185,2.446-6.654a3.017,3.017,0,0,1,1.534-1.875c10.84-5.543,23.522-1.706,27.151-.4a2.949,2.949,0,0,1,1.473,1.143c10.886,16.42,5.544,111.786,4.362,130.737a2.992,2.992,0,0,1-2.984,2.8Z" transform="translate(-225.506 -286.16)" fill="#2f2e41"/>
      <circle id="Ellipse_507" data-name="Ellipse 507" cx="15.469" cy="15.469" r="15.469" transform="translate(80.064 131.924)" fill="#ffb8b8"/>
      <path id="Path_2170" data-name="Path 2170" d="M327.369,480.526l-.111-.108c-.208-.2-20.819-20.393-18.152-39.064,1.141-7.986,7.6-13.088,18.685-14.757a17.09,17.09,0,0,1,18.894,12.043L357.645,476.1Z" transform="translate(-233.476 -258.932)" fill="#ccc"/>
      <path id="Path_2171" data-name="Path 2171" d="M311.437,502.054l-14.686-14.593a8.274,8.274,0,0,1-2.192-7.8l7.11-28.92a6.521,6.521,0,1,1,12.589,3.4l-7.485,25.442,12.1,13Z" transform="translate(-228.092 -266.099)" fill="#ccc"/>
      <path id="Path_2172" data-name="Path 2172" d="M429.533,450.723a6.333,6.333,0,0,1-9.374,2.537l-19.606,10.162.867-8.632L418.8,444.034a6.368,6.368,0,0,1,10.732,6.69Z" transform="translate(-267.416 -264.572)" fill="#ffb8b8"/>
      <path id="Path_2173" data-name="Path 2173" d="M396.545,453.442,377.432,461.7a8.067,8.067,0,0,1-7.858-.843l-24.3-17.414a6.522,6.522,0,1,1,7.832-10.426l20.84,16.4,16.564-6.408Z" transform="translate(-245.943 -260.866)" fill="#ccc"/>
      <path id="Path_2174" data-name="Path 2174" d="M323.043,388.21c1.908-2.391,5.474-2.52,8.095-4.1,3.434-2.066,4.853-6.683,3.747-10.534a13.216,13.216,0,0,0-8.111-8.289,22.383,22.383,0,0,0-11.85-.759c-5.876,1.033-11.662,3.776-15.246,8.546s-4.5,11.756-1.248,16.761c1.493,2.3,3.8,4.2,4.393,6.876.782,3.514-1.682,6.9-4.323,9.35-3.008,2.788-6.46,5.122-9.1,8.265s-4.393,7.436-3.191,11.357c1.008,3.285,3.94,5.706,7.156,6.918a30.33,30.33,0,0,0,10.153,1.454c3.336.065,6.88-.016,9.69-1.815a11.268,11.268,0,0,0,4.734-9.149,21.667,21.667,0,0,0-2.673-10.263,39.46,39.46,0,0,1-2.694-5.782,8.105,8.105,0,0,1,.271-6.212,7.745,7.745,0,0,1,5.419-3.586c.114-.022.235-.042.361-.06a4.66,4.66,0,0,0,3.989-5.434A4.551,4.551,0,0,1,323.043,388.21Z" transform="translate(-224.946 -235.86)" fill="#2f2e41"/>
      <path id="Path_2175" data-name="Path 2175" d="M476.532,549.795H468.81l-3.673-29.783h11.4Z" transform="translate(-172.188 -192.5)" fill="#a0616a"/>
      <path id="Path_2176" data-name="Path 2176" d="M456.7,563.8h14.891v9.376H447.325A9.376,9.376,0,0,1,456.7,563.8Z" transform="translate(-165.594 -208.709)" fill="#2f2e41"/>
      <path id="Path_2177" data-name="Path 2177" d="M558.818,537.49,551.8,540.7l-15.716-25.563,10.366-4.735Z" transform="translate(-198.449 -188.942)" fill="#a0616a"/>
      <path id="Path_2178" data-name="Path 2178" d="M9.376,0H24.267V9.376H0A9.376,9.376,0,0,1,9.376,0Z" transform="translate(338.882 355.938) rotate(-24.548)" fill="#2f2e41"/>
      <path id="Path_2179" data-name="Path 2179" d="M719.631,550.547a6.333,6.333,0,0,0,.5-9.7l9.077-20.595-11.531,1.954-6.852,19.258a6.368,6.368,0,0,0,8.8,9.081Z" transform="translate(-381.748 -293.672)" fill="#a0616a"/>
      <path id="Path_2180" data-name="Path 2180" d="M663.244,648.856h-7.376a2.845,2.845,0,0,1-2.827-2.629l-4.023-107.42a2.834,2.834,0,0,1,3.1-3.026l42.66,4.53a2.835,2.835,0,0,1,2.558,2.767l.894,47.384a2.2,2.2,0,0,0,.147.752l17.5,45.38a2.833,2.833,0,0,1-1.665,3.679l-7.475,2.754a2.835,2.835,0,0,1-3.5-1.363l-21.5-41.8a2.815,2.815,0,0,1-.255-.72l-3.672-17.694a2.2,2.2,0,0,0-4.348.2l-7.408,64.7a2.834,2.834,0,0,1-2.816,2.512Z" transform="translate(-359.392 -299.415)" fill="#2f2e41"/>
      <circle id="Ellipse_508" data-name="Ellipse 508" cx="15.469" cy="15.469" r="15.469" transform="translate(292.056 124.463)" fill="#a0616a"/>
      <path id="Path_2181" data-name="Path 2181" d="M676.845,505a55.212,55.212,0,0,1-29.521-8.942l-.151-.1.016-.182,5.917-68.912A9.712,9.712,0,0,1,662.3,418c7.669-.352,17.969.092,23.483,4.2A26.89,26.89,0,0,1,696.8,447.842c-2.759,20.922.366,49.144.732,52.293l.026.227-.208.1A48.663,48.663,0,0,1,676.845,505Z" transform="translate(-358.712 -255.784)" fill="#fb0"/>
      <path id="Path_2182" data-name="Path 2182" d="M720.578,509.6a3.154,3.154,0,0,1-2.318-1.022l-3.384-3.692a3.166,3.166,0,0,1-.7-3.02l7.716-26.114L710.154,451.1a5.548,5.548,0,0,1,9.894-5.015l15.931,25.849a7.527,7.527,0,0,1,.453,7.053l-12.98,28.76a3.141,3.141,0,0,1-2.372,1.814A3.181,3.181,0,0,1,720.578,509.6Z" transform="translate(-381.827 -265.136)" fill="#fb0"/>
      <path id="Path_2183" data-name="Path 2183" d="M552.371,462.687a6.333,6.333,0,0,0,9.446-2.253l22.319,2.895-5.129-10.511L558.6,451.68a6.368,6.368,0,0,0-6.228,11.007Z" transform="translate(-322.654 -268.103)" fill="#a0616a"/>
      <path id="Path_2184" data-name="Path 2184" d="M608.916,455.781a8.455,8.455,0,0,1-1.162-.08l-35.113-4.87a3.49,3.49,0,0,1-2.677-1.96,3.561,3.561,0,0,1-.2-.522h0a3.5,3.5,0,0,1,.362-2.791l2.906-4.817a3.517,3.517,0,0,1,3-1.692h0l30.606.035L629.5,418.6a6.194,6.194,0,0,1,8.49,9.016l-22.809,25.368a8.417,8.417,0,0,1-6.262,2.793Z" transform="translate(-330.004 -255.457)" fill="#fb0"/>
      <path id="Path_2185" data-name="Path 2185" d="M667.3,383.713c1.414-3.272,2.61-7.629-.1-9.942-1.573-1.342-3.838-1.344-5.9-1.511-5.805-.47-11.781-3.141-14.618-8.228s-1.253-12.649,4.1-14.944c3.608-1.547,7.745-.493,11.522.578l11.34,3.216c3.37.956,6.907,2.009,9.333,4.536,3.869,4.029,3.579,10.84.507,15.5s-7.7,9.53-13,11.3Z" transform="translate(-358.015 -230.02)" fill="#2f2e41"/>
      <path id="Path_2186" data-name="Path 2186" d="M834.79,738.623H190.2c-.574,0-1.04-.336-1.04-.75s.465-.75,1.04-.75H834.79c.574,0,1.04.336,1.04.75S835.365,738.623,834.79,738.623Z" transform="translate(-189.162 -373.954)" fill="#3f3d56"/>
    </g>
    <g id="undraw_project_complete_lwss" transform="translate(18762.287 -11104.39)">
      <path id="Path_2031" data-name="Path 2031" d="M232.76,161.548c-2.061-.416-4.3,2.634-5.241,3.908a18.982,18.982,0,0,0-3.225,9.036c-3.187,26.5-4.781,39.751,1.814,45.914,6.267,5.857,17.723,4.286,19.956-.977.87-2.05.143-4.2-1.008-8.3-2.126-7.593-3.38-15.507-5.241-23.2-4.251-17.569-3.894-25.738-7.055-26.376Z" transform="translate(-85.578 -150.241)" fill="#2f2e41"/>
      <path id="Path_2032" data-name="Path 2032" d="M72.615,416.253l10.03,22.936c2.56,5.855,14.676,96.048,9.288,97.185l-23.339.938-9.683.616-9.953.174-24.672.992L38.145,421.626Z" transform="translate(130.807 -306.035)" fill="#2f2e41"/>
      <path id="Path_2033" data-name="Path 2033" d="M101.949,243.032l-19.956.977-1.613,8.059-4.806,4.75a8.673,8.673,0,0,0-2.275,7.228l2.243,17.084s-4.233,12.211,6.451,20.026l10.684,21,37.09-4.64s3.427-.488,1.008-3.419-5.443-17.34-5.443-17.34.4-6.35-1.008-8.059-.429-6.106-.429-6.106l-5.739-25.7c-1.118-5.009-4.869-8.487-9.152-8.487H102.64l-.69-5.373Z" transform="translate(76.78 -200.098)" fill="#fb0"/>
      <path id="Path_2034" data-name="Path 2034" d="M104.926,469.472l174.285-56.434c3.724-1.206,6.318-4.835,6.772-9.473s-1.37-8.9-4.758-11.127L210.4,345.9a7.875,7.875,0,0,0-5.892-1.2L87.434,368.079a9.155,9.155,0,0,0-6.1,4.7,13,13,0,0,0-1.426,8.583l13.613,79.591a11.264,11.264,0,0,0,4.186,7.237,8,8,0,0,0,4.814,1.669A7.784,7.784,0,0,0,104.926,469.472Z" transform="translate(-79.714 -262.183)" fill="#fff"/>
      <path id="Path_2035" data-name="Path 2035" d="M104.926,469.472l174.285-56.434c3.724-1.206,6.318-4.835,6.772-9.473s-1.37-8.9-4.758-11.127L210.4,345.9a7.875,7.875,0,0,0-5.892-1.2L87.434,368.079a9.155,9.155,0,0,0-6.1,4.7,13,13,0,0,0-1.426,8.583l13.613,79.591a11.264,11.264,0,0,0,4.186,7.237,8,8,0,0,0,4.814,1.669A7.784,7.784,0,0,0,104.926,469.472ZM87.591,369.229l117.07-23.383a7.054,7.054,0,0,1,5.277,1.076l70.828,46.54a10.5,10.5,0,0,1,4.261,9.966c-.406,4.153-2.73,7.4-6.065,8.484L104.678,468.346a6.974,6.974,0,0,1-6.464-1.15,10.087,10.087,0,0,1-3.749-6.482L80.852,381.124a11.642,11.642,0,0,1,1.277-7.687,8.2,8.2,0,0,1,5.462-4.207l-.078-.575Z" transform="translate(-79.714 -262.183)" fill="#ccc"/>
      <path id="Path_2036" data-name="Path 2036" d="M169.423,406.568l15.543,47.517c1.507,4.607,5.737,6.964,9.6,5.352l114.242-47.623c6.308-2.63,7.013-13.1,1.14-16.93l-36.765-24a6.491,6.491,0,0,0-5.23-.9l-93.019,24.1c-4.629,1.2-7.258,7.151-5.514,12.483Z" transform="translate(-136.227 -277.611)" fill="#f2f2f2"/>
      <ellipse id="Ellipse_490" data-name="Ellipse 490" cx="6.451" cy="3.908" rx="6.451" ry="3.908" transform="translate(56.673 129.024)" fill="#ff6884"/>
      <ellipse id="Ellipse_491" data-name="Ellipse 491" cx="6.451" cy="3.908" rx="6.451" ry="3.908" transform="translate(62.721 140.991)" fill="#3f3d56"/>
      <ellipse id="Ellipse_492" data-name="Ellipse 492" cx="17.537" cy="10.624" rx="17.537" ry="10.624" transform="translate(86.305 118.156)" fill="#fb0"/>
      <path id="Path_2037" data-name="Path 2037" d="M263.268,451.821a.624.624,0,0,1-.57-.488.782.782,0,0,1,.368-.935l12.8-5.5a.585.585,0,0,1,.772.446.782.782,0,0,1-.368.935l-12.8,5.5A.51.51,0,0,1,263.268,451.821Z" transform="translate(-128.987 -323.53)" fill="#3f3d56"/>
      <path id="Path_2038" data-name="Path 2038" d="M272.07,444.905a.624.624,0,0,1-.57-.488.782.782,0,0,1,.368-.935l12.8-5.5a.585.585,0,0,1,.772.446.782.782,0,0,1-.368.935l-12.8,5.5A.51.51,0,0,1,272.07,444.905Z" transform="translate(-140.612 -319.3)" fill="#3f3d56"/>
      <path id="Path_2039" data-name="Path 2039" d="M280.873,437.989a.624.624,0,0,1-.57-.488.782.782,0,0,1,.368-.935l12.8-5.5a.585.585,0,0,1,.772.446.782.782,0,0,1-.368.935l-12.8,5.5A.51.51,0,0,1,280.873,437.989Z" transform="translate(-152.236 -315.071)" fill="#3f3d56"/>
      <path id="Path_2040" data-name="Path 2040" d="M289.675,431.073a.624.624,0,0,1-.57-.488.782.782,0,0,1,.368-.935l12.8-5.5a.585.585,0,0,1,.772.446.782.782,0,0,1-.368.935l-12.8,5.5a.51.51,0,0,1-.2.042Z" transform="translate(-163.861 -310.841)" fill="#3f3d56"/>
      <path id="Path_2041" data-name="Path 2041" d="M298.478,424.156a.624.624,0,0,1-.57-.488.782.782,0,0,1,.368-.935l12.8-5.5a.585.585,0,0,1,.772.446.782.782,0,0,1-.368.935l-12.8,5.5a.51.51,0,0,1-.2.042Z" transform="translate(-175.485 -306.611)" fill="#3f3d56"/>
      <path id="Path_2042" data-name="Path 2042" d="M307.28,417.24a.624.624,0,0,1-.57-.488.782.782,0,0,1,.368-.935l12.8-5.5a.585.585,0,0,1,.772.446.782.782,0,0,1-.368.935l-12.8,5.5a.51.51,0,0,1-.2.042Z" transform="translate(-187.11 -302.382)" fill="#3f3d56"/>
      <path id="Path_2043" data-name="Path 2043" d="M316.083,410.324a.624.624,0,0,1-.57-.488.782.782,0,0,1,.368-.935l12.8-5.5a.585.585,0,0,1,.772.446.782.782,0,0,1-.368.935l-12.8,5.5a.51.51,0,0,1-.2.042Z" transform="translate(-198.735 -298.152)" fill="#3f3d56"/>
      <ellipse id="Ellipse_493" data-name="Ellipse 493" cx="16.529" cy="20.026" rx="16.529" ry="20.026" transform="translate(143.957 10.819)" fill="#a0616a"/>
      <path id="Path_2044" data-name="Path 2044" d="M147.955,133.549c4.654-.919,7.153-1.413,9.676-.733,5.054,1.362,7.985,6.836,10.079,10.746,5.007,9.35,2.743,13.279,7.66,26.376,3.527,9.4,5.305,9.007,5.644,13.921.711,10.314-6.53,20.632-14.312,24.667-.52.269-8.607,4.369-10.885.977-1.67-2.487,1.28-6.768,4.838-18.317,6.255-20.307,3.3-27.095,2.419-28.819-.556-1.089-2.143-3.8-3.024-3.419-.8.342-.107,2.819-.806,4.885-1.874,5.533-13.261,6.761-22.174,2.442-2.628-1.274-4.241-2.055-5.443-4.152-4.077-7.114.79-22.023,8.466-26.376,1.746-.99,3.785-1.393,7.862-2.2Z" transform="translate(9.104 -132.5)" fill="#2f2e41"/>
      <path id="b-353" d="M121.628,421.676c-4.02,2.471-6.227,6.986-4.929,10.086s5.609,3.609,9.63,1.137a12.11,12.11,0,0,0,4.095-4.13l16.924-10.728-4.325-9.515L126.8,420.111A9.751,9.751,0,0,0,121.628,421.676Z" transform="translate(47.249 -301.308)" fill="#a0616a"/>
      <path id="c-354" d="M368.771,391.16c-4.235,1.871-6.871,6.036-5.887,9.3s5.213,4.394,9.449,2.521a11.322,11.322,0,0,0,4.472-3.508l17.861-8.2L391.31,381.2l-17.251,9.157A9.473,9.473,0,0,0,368.771,391.16Z" transform="translate(-279.048 -284.596)" fill="#a0616a"/>
      <path id="Path_2045" data-name="Path 2045" d="M12.3,262.745s3.427-8.548,11.288-1.954,26.608,33.947,26.608,33.947S59.869,305,54.426,308.66,9.877,333.571,9.877,333.571L0,325.267l35.075-21.736L14.927,285.214Z" transform="translate(175.806 -209.432)" fill="#fb0"/>
      <path id="Path_2046" data-name="Path 2046" d="M287.262,280.053s-2.4-4.152-6.642,0-16.456,28.058-16.456,28.058l-30.118,14.926,4.435,10.99,36.083-15.63,15.723-25.888Z" transform="translate(-133.428 -221.61)" fill="#fb0"/>
      <path id="Path_2047" data-name="Path 2047" d="M238.636,259.235c4.571,2.828,2.468,7.17,2.621,8.059,1.486,8.658-3.945,17.626-6.047,17.1-1.233-.311-1.881-4.032-1.613-6.838.348-3.638-2.539-9.4-2.217-11.967.789-6.309-3.971-6.427-3.024-8.792.555-1.386,7.556.757,10.281,2.442Z" transform="translate(-82.887 -208.242)" fill="#2f2e41"/>
      <path id="Path_2048" data-name="Path 2048" d="M344.679,473.538a.365.365,0,0,1-.057,0,.569.569,0,0,1-.421-.647l1.084-11.091a.621.621,0,0,1,.18-.389.425.425,0,0,1,.355-.121l17.219,2.509a.569.569,0,0,1,.42.648.509.509,0,0,1-.535.509l-16.741-2.439-1.028,10.512A.525.525,0,0,1,344.679,473.538Z" transform="translate(-241.921 -333.573)" fill="#fff"/>
      <g id="Group_1381" data-name="Group 1381" transform="translate(182.451 128.925)">
        <ellipse id="Ellipse_494" data-name="Ellipse 494" cx="8.977" cy="10.876" rx="8.977" ry="10.876" transform="translate(0)" fill="#fb0"/>
        <path id="Path_2049" data-name="Path 2049" d="M121.919,485.212l-2.885,6.148a.445.445,0,0,1-.83,0,19.984,19.984,0,0,0-4.68-6.856.68.68,0,0,1-.173-.8c.116-.247.453-.4.658-.209a21.177,21.177,0,0,1,5.025,7.274h-.83l2.885-6.148c.306-.652,1.137-.065.83.588h0Z" transform="translate(-108.864 -476.032)" fill="#fff"/>
      </g>
    </g>
  </g>
</svg>
