<svg id="remotework" xmlns="http://www.w3.org/2000/svg" width="528.639" height="466.72" viewBox="0 0 528.639 466.72">
  <path id="Path_2097" data-name="Path 2097" d="M495.732,72.519l2.079-3.213a48.164,48.164,0,0,0-2.133-4.992L494.334,65.4l1.064-1.645c-1.014-2-1.812-3.255-1.812-3.255a46.157,46.157,0,0,0-5.562,13.525l2.667,4.122-2.953-2.385a19.492,19.492,0,0,0-.162,2.443c0,8.238,2.69,14.916,6.009,14.916s6.009-6.678,6.009-14.916a25.653,25.653,0,0,0-1.375-7.7Z" transform="translate(-290.613 -60.501)" fill="#e6e6e6"/>
  <path id="Path_2098" data-name="Path 2098" d="M514.43,85.779l3.742-.8a48.173,48.173,0,0,0,2.022-5.038l-1.718-.183,1.916-.41c.695-2.129,1.02-3.583,1.02-3.583a46.157,46.157,0,0,0-13.5,5.631l-1.029,4.8-.4-3.775a19.492,19.492,0,0,0-1.842,1.613c-5.825,5.825-8.645,12.449-6.3,14.8s8.971-.473,14.8-6.3a25.652,25.652,0,0,0,4.471-6.415Z" transform="translate(-294.598 -66.619)" fill="#e6e6e6"/>
  <path id="Path_2099" data-name="Path 2099" d="M509.168,130.278c-8.676.555-18.13-.032-28.187,0V107.253a101.6,101.6,0,0,0,28.187,0Z" transform="translate(-287.97 -79.242)" fill="#e6e6e6"/>
  <path id="Path_2100" data-name="Path 2100" d="M628.07,170.408l1.356-2.1a31.421,31.421,0,0,0-1.391-3.256l-.877.708.694-1.073c-.661-1.3-1.182-2.122-1.182-2.122a30.1,30.1,0,0,0-3.627,8.82l1.74,2.688-1.926-1.555a12.7,12.7,0,0,0-.106,1.593c0,5.372,1.755,9.727,3.919,9.727s3.919-4.355,3.919-9.727a16.729,16.729,0,0,0-.9-5.02Z" transform="translate(-344.801 -101.418)" fill="#e6e6e6"/>
  <path id="Path_2101" data-name="Path 2101" d="M640.264,179.055l2.44-.523a31.412,31.412,0,0,0,1.319-3.285l-1.12-.119,1.249-.268c.453-1.388.665-2.337.665-2.337a30.1,30.1,0,0,0-8.8,3.672l-.671,3.131-.262-2.462a12.7,12.7,0,0,0-1.2,1.052c-3.8,3.8-5.638,8.119-4.107,9.649s5.851-.308,9.649-4.107a16.729,16.729,0,0,0,2.915-4.183Z" transform="translate(-347.4 -105.408)" fill="#e6e6e6"/>
  <path id="Path_2102" data-name="Path 2102" d="M636.832,208.075c-5.658.362-11.823-.021-18.382,0V193.059a66.254,66.254,0,0,0,18.382,0Z" transform="translate(-343.077 -113.64)" fill="#e6e6e6"/>
  <path id="Path_2103" data-name="Path 2103" d="M632.44,283.527c-5,.32-10.44-.019-16.231,0V270.268a58.5,58.5,0,0,0,16.231,0Z" transform="translate(-342.178 -144.59)" fill="#e6e6e6"/>
  <rect id="Rectangle_1409" data-name="Rectangle 1409" width="218.41" height="6.101" transform="translate(100.359 49.417)" fill="#e6e6e6"/>
  <rect id="Rectangle_1410" data-name="Rectangle 1410" width="218.41" height="6.101" transform="translate(100.359 92.733)" fill="#e6e6e6"/>
  <rect id="Rectangle_1411" data-name="Rectangle 1411" width="218.41" height="6.101" transform="translate(100.359 136.049)" fill="#e6e6e6"/>
  <circle id="Ellipse_499" data-name="Ellipse 499" cx="12.202" cy="12.202" r="12.202" transform="translate(269.963 106.155)" fill="#e6e6e6"/>
  <circle id="Ellipse_500" data-name="Ellipse 500" cx="9.761" cy="9.761" r="9.761" transform="translate(272.403 108.595)" fill="#fff"/>
  <circle id="Ellipse_501" data-name="Ellipse 501" cx="2.44" cy="2.44" r="2.44" transform="translate(279.724 115.916)" fill="#e6e6e6"/>
  <rect id="Rectangle_1412" data-name="Rectangle 1412" width="1.22" height="9.761" transform="translate(290.706 117.746) rotate(90)" fill="#e6e6e6"/>
  <rect id="Rectangle_1413" data-name="Rectangle 1413" width="1.22" height="9.761" transform="translate(282.774 119.577) rotate(180)" fill="#e6e6e6"/>
  <rect id="Rectangle_1414" data-name="Rectangle 1414" width="8.073" height="31.957" transform="translate(203.539 62.971)" fill="#e6e6e6"/>
  <rect id="Rectangle_1415" data-name="Rectangle 1415" width="8.073" height="3.7" transform="translate(203.539 68.017)" fill="#ccc"/>
  <rect id="Rectangle_1416" data-name="Rectangle 1416" width="8.073" height="3.7" transform="translate(203.539 84.163)" fill="#ccc"/>
  <rect id="Rectangle_1417" data-name="Rectangle 1417" width="8.073" height="31.957" transform="translate(191.093 62.971)" fill="#e6e6e6"/>
  <rect id="Rectangle_1418" data-name="Rectangle 1418" width="8.073" height="3.7" transform="translate(191.093 68.017)" fill="#ccc"/>
  <rect id="Rectangle_1419" data-name="Rectangle 1419" width="8.073" height="3.7" transform="translate(191.093 84.163)" fill="#ccc"/>
  <rect id="Rectangle_1420" data-name="Rectangle 1420" width="8.073" height="31.957" transform="matrix(0.896, -0.444, 0.444, 0.896, 211.333, 66.421)" fill="#e6e6e6"/>
  <rect id="Rectangle_1421" data-name="Rectangle 1421" width="8.073" height="3.7" transform="matrix(0.896, -0.444, 0.444, 0.896, 213.572, 70.943)" fill="#ccc"/>
  <rect id="Rectangle_1422" data-name="Rectangle 1422" width="8.073" height="3.7" transform="matrix(0.896, -0.444, 0.444, 0.896, 220.736, 85.413)" fill="#ccc"/>
  <rect id="Rectangle_1423" data-name="Rectangle 1423" width="8.073" height="31.957" transform="translate(131.549 106.287)" fill="#e6e6e6"/>
  <rect id="Rectangle_1424" data-name="Rectangle 1424" width="8.073" height="3.7" transform="translate(131.549 111.333)" fill="#ccc"/>
  <rect id="Rectangle_1425" data-name="Rectangle 1425" width="8.073" height="3.7" transform="translate(131.549 127.479)" fill="#ccc"/>
  <rect id="Rectangle_1426" data-name="Rectangle 1426" width="8.073" height="31.957" transform="translate(119.103 106.287)" fill="#e6e6e6"/>
  <rect id="Rectangle_1427" data-name="Rectangle 1427" width="8.073" height="3.7" transform="translate(119.103 111.333)" fill="#ccc"/>
  <rect id="Rectangle_1428" data-name="Rectangle 1428" width="8.073" height="3.7" transform="translate(119.103 127.479)" fill="#ccc"/>
  <rect id="Rectangle_1429" data-name="Rectangle 1429" width="8.073" height="31.957" transform="matrix(0.896, -0.444, 0.444, 0.896, 139.343, 109.737)" fill="#e6e6e6"/>
  <rect id="Rectangle_1430" data-name="Rectangle 1430" width="8.073" height="3.7" transform="matrix(0.896, -0.444, 0.444, 0.896, 141.582, 114.259)" fill="#ccc"/>
  <rect id="Rectangle_1431" data-name="Rectangle 1431" width="8.073" height="3.7" transform="matrix(0.896, -0.444, 0.444, 0.896, 148.746, 128.729)" fill="#ccc"/>
  <rect id="Rectangle_1432" data-name="Rectangle 1432" width="8.073" height="31.957" transform="translate(207.2 106.287)" fill="#e6e6e6"/>
  <rect id="Rectangle_1433" data-name="Rectangle 1433" width="8.073" height="3.7" transform="translate(207.2 111.333)" fill="#ccc"/>
  <rect id="Rectangle_1434" data-name="Rectangle 1434" width="8.073" height="3.7" transform="translate(207.2 127.479)" fill="#ccc"/>
  <rect id="Rectangle_1435" data-name="Rectangle 1435" width="8.073" height="31.957" transform="translate(194.753 106.287)" fill="#e6e6e6"/>
  <rect id="Rectangle_1436" data-name="Rectangle 1436" width="8.073" height="3.7" transform="translate(194.753 111.333)" fill="#ccc"/>
  <rect id="Rectangle_1437" data-name="Rectangle 1437" width="8.073" height="3.7" transform="translate(194.753 127.479)" fill="#ccc"/>
  <rect id="Rectangle_1438" data-name="Rectangle 1438" width="8.073" height="31.957" transform="matrix(0.896, -0.444, 0.444, 0.896, 214.994, 109.737)" fill="#e6e6e6"/>
  <rect id="Rectangle_1439" data-name="Rectangle 1439" width="8.073" height="3.7" transform="matrix(0.896, -0.444, 0.444, 0.896, 217.233, 114.259)" fill="#ccc"/>
  <rect id="Rectangle_1440" data-name="Rectangle 1440" width="8.073" height="3.7" transform="matrix(0.896, -0.444, 0.444, 0.896, 224.397, 128.729)" fill="#ccc"/>
  <rect id="Rectangle_1441" data-name="Rectangle 1441" width="32.087" height="32.087" transform="translate(269.6 19.559)" fill="#e6e6e6"/>
  <rect id="Rectangle_1442" data-name="Rectangle 1442" width="19.252" height="19.252" transform="translate(276.018 25.976)" fill="#ccc"/>
  <path id="Path_2104" data-name="Path 2104" d="M464.537,54.143l4.082,7.07,4.082,7.07H456.373l4.082-7.07Z" transform="translate(-182.947 -21.704)" fill="#e6e6e6"/>
  <path id="Path_2105" data-name="Path 2105" d="M476.376,56.4l4.082,7.07,4.082,7.07H468.212l4.082-7.07Z" transform="translate(-187.693 -22.608)" fill="#e6e6e6"/>
  <circle id="Ellipse_502" data-name="Ellipse 502" cx="2.364" cy="2.364" r="2.364" transform="translate(289.19 26.99)" fill="#e6e6e6"/>
  <rect id="Rectangle_1443" data-name="Rectangle 1443" width="32.087" height="32.087" transform="translate(107.318 19.559)" fill="#e6e6e6"/>
  <rect id="Rectangle_1444" data-name="Rectangle 1444" width="19.252" height="19.252" transform="translate(113.735 25.976)" fill="#ccc"/>
  <path id="Path_2106" data-name="Path 2106" d="M193.673,54.143l4.082,7.07,4.082,7.07H185.509l4.082-7.07Z" transform="translate(-74.365 -21.704)" fill="#e6e6e6"/>
  <path id="Path_2107" data-name="Path 2107" d="M205.512,56.4l4.082,7.07,4.082,7.07H197.348l4.082-7.07Z" transform="translate(-79.111 -22.608)" fill="#e6e6e6"/>
  <circle id="Ellipse_503" data-name="Ellipse 503" cx="2.364" cy="2.364" r="2.364" transform="translate(126.907 26.99)" fill="#e6e6e6"/>
  <path id="Path_2108" data-name="Path 2108" d="M224.868,450.3l2.079-3.213a48.168,48.168,0,0,0-2.133-4.992l-1.344,1.086,1.064-1.645c-1.014-2-1.812-3.255-1.812-3.255a46.158,46.158,0,0,0-5.562,13.525l2.667,4.122-2.953-2.385a19.486,19.486,0,0,0-.162,2.443c0,8.238,2.69,14.916,6.009,14.916s6.009-6.678,6.009-14.916a25.654,25.654,0,0,0-1.375-7.7Z" transform="translate(-182.031 -211.944)" fill="#fb0"/>
  <path id="Path_2109" data-name="Path 2109" d="M243.566,463.564l3.741-.8a48.158,48.158,0,0,0,2.022-5.038l-1.718-.183,1.916-.41c.695-2.129,1.02-3.583,1.02-3.583a46.158,46.158,0,0,0-13.5,5.631l-1.029,4.8-.4-3.775a19.5,19.5,0,0,0-1.842,1.613c-5.825,5.825-8.645,12.449-6.3,14.8s8.971-.473,14.8-6.3a25.654,25.654,0,0,0,4.471-6.415Z" transform="translate(-186.016 -218.062)" fill="#fb0"/>
  <path id="Path_2110" data-name="Path 2110" d="M238.3,508.063c-8.676.555-18.13-.032-28.187,0V485.038a101.6,101.6,0,0,0,28.187,0Z" transform="translate(-179.388 -230.686)" fill="#3f3d56"/>
  <rect id="Rectangle_1445" data-name="Rectangle 1445" width="117.136" height="151.911" transform="translate(300.162 284.605)" fill="#e6e6e6"/>
  <rect id="Rectangle_1446" data-name="Rectangle 1446" width="6.101" height="143.98" transform="translate(55.518 292.536)" fill="#e6e6e6"/>
  <rect id="Rectangle_1447" data-name="Rectangle 1447" width="417.298" height="12.202" transform="translate(0 274.233)" fill="#e6e6e6"/>
  <rect id="Rectangle_1448" data-name="Rectangle 1448" width="12.202" height="12.202" transform="translate(52.467 286.435)" fill="#e6e6e6"/>
  <path id="Path_2111" data-name="Path 2111" d="M572.467,489.8l-.687,2.746H554.7l-1.029-2.746H510.162V517.86H616.317V489.8Z" transform="translate(-204.509 -196.345)" fill="#3f3d56"/>
  <path id="Path_2112" data-name="Path 2112" d="M572.467,548.857l-.687,2.745H554.7l-1.029-2.745H510.162v28.064H616.317V548.857Z" transform="translate(-204.509 -220.021)" fill="#3f3d56"/>
  <path id="Path_2113" data-name="Path 2113" d="M572.467,607.918l-.687,2.745H554.7l-1.029-2.745H510.162v28.064H616.317V607.918Z" transform="translate(-204.509 -243.697)" fill="#3f3d56"/>
  <path id="Path_2114" data-name="Path 2114" d="M572.467,666.979l-.687,2.745H554.7l-1.029-2.745H510.162v28.064H616.317V666.979Z" transform="translate(-204.509 -267.373)" fill="#3f3d56"/>
  <path id="Path_2115" data-name="Path 2115" d="M353.7,444.052h-36l1.22-15.862h33.555Z" transform="translate(-127.359 -171.649)" fill="#e6e6e6"/>
  <rect id="Rectangle_1449" data-name="Rectangle 1449" width="40.266" height="3.661" transform="translate(188.516 270.573)" fill="#e6e6e6"/>
  <path id="Path_2116" data-name="Path 2116" d="M527.14,318.128H389.565a3.661,3.661,0,0,0-3.661,3.661v83.887H530.8V321.788a3.66,3.66,0,0,0-3.661-3.661Z" transform="translate(-249.856 -163.776)" fill="#3f3d56"/>
  <path id="Path_2117" data-name="Path 2117" d="M385.905,464.252v13.727a3.661,3.661,0,0,0,3.661,3.661H527.14a3.66,3.66,0,0,0,3.661-3.661V464.252Z" transform="translate(-249.856 -222.353)" fill="#e6e6e6"/>
  <rect id="Rectangle_1450" data-name="Rectangle 1450" width="130.558" height="73.21" transform="translate(143.37 161.978)" fill="#fff"/>
  <circle id="Ellipse_504" data-name="Ellipse 504" cx="3.661" cy="3.661" r="3.661" transform="translate(204.989 246.779)" fill="#3f3d56"/>
  <path id="Path_2118" data-name="Path 2118" d="M994.88,763.883c-13.333.853-27.861-.05-43.316,0V728.5c13.619,2.12,28.141,1.9,43.316,0Z" transform="translate(-476.613 -328.282)" fill="#3f3d56"/>
  <path id="Path_2119" data-name="Path 2119" d="M828.983,625.456h-3.661l1.22-71.507h1.22Z" transform="translate(-330.848 -222.062)" fill="#3f3d56"/>
  <path id="Path_2120" data-name="Path 2120" d="M856.477,626.262h-3.661l1.22-71.507h1.22Z" transform="translate(-341.87 -222.386)" fill="#3f3d56"/>
  <path id="Path_2121" data-name="Path 2121" d="M804.544,626.262h-3.661l1.22-71.507h1.22Z" transform="translate(-321.051 -222.386)" fill="#3f3d56"/>
  <path id="Path_2122" data-name="Path 2122" d="M979.839,515.218l5.909-9.132a136.9,136.9,0,0,0-6.062-14.191l-3.821,3.086,3.025-4.676c-2.883-5.676-5.152-9.252-5.152-9.252s-11.851,18.675-15.81,38.448l7.583,11.719-8.394-6.78a55.377,55.377,0,0,0-.461,6.946c0,23.417,7.648,42.4,17.082,42.4s17.082-18.983,17.082-42.4a72.923,72.923,0,0,0-3.908-21.881Z" transform="translate(-478.654 -229.088)" fill="#e6e6e6"/>
  <path id="Path_2123" data-name="Path 2123" d="M1007.332,517.255l5.909-9.132a136.9,136.9,0,0,0-6.062-14.191l-3.821,3.086,3.026-4.676c-2.883-5.676-5.152-9.252-5.152-9.252s-11.851,18.675-15.81,38.448L993,533.257l-8.394-6.78a55.388,55.388,0,0,0-.461,6.946c0,23.417,7.648,42.4,17.082,42.4s17.082-18.984,17.082-42.4a72.924,72.924,0,0,0-3.908-21.881Z" transform="translate(-489.675 -229.905)" fill="#fb0"/>
  <path id="Path_2124" data-name="Path 2124" d="M955.4,517.255l5.909-9.132a136.894,136.894,0,0,0-6.062-14.191l-3.821,3.086,3.026-4.676c-2.883-5.676-5.152-9.252-5.152-9.252s-11.851,18.675-15.81,38.448l7.583,11.719-8.394-6.78a55.365,55.365,0,0,0-.461,6.946c0,23.417,7.648,42.4,17.082,42.4s17.082-18.984,17.082-42.4a72.926,72.926,0,0,0-3.908-21.881Z" transform="translate(-468.857 -229.905)" fill="#fb0"/>
  <rect id="Rectangle_1451" data-name="Rectangle 1451" width="35.202" height="2.021" transform="translate(185.708 182.643)" fill="#3f3d56"/>
  <rect id="Rectangle_1452" data-name="Rectangle 1452" width="54.36" height="2.021" transform="translate(185.708 190.014)" fill="#fb0"/>
  <rect id="Rectangle_1453" data-name="Rectangle 1453" width="44.302" height="2.021" transform="translate(185.708 196.959)" fill="#fb0"/>
  <rect id="Rectangle_1454" data-name="Rectangle 1454" width="25.863" height="2.021" transform="translate(185.708 203.877)" fill="#3f3d56"/>
  <rect id="Rectangle_1455" data-name="Rectangle 1455" width="39.034" height="2.021" transform="translate(185.708 210.796)" fill="#3f3d56"/>
  <rect id="Rectangle_1456" data-name="Rectangle 1456" width="4.311" height="4.311" transform="translate(169.664 181.925)" fill="#3f3d56"/>
  <rect id="Rectangle_1457" data-name="Rectangle 1457" width="4.311" height="4.311" transform="translate(169.664 188.869)" fill="#fb0"/>
  <rect id="Rectangle_1458" data-name="Rectangle 1458" width="4.311" height="4.311" transform="translate(169.664 195.814)" fill="#fb0"/>
  <rect id="Rectangle_1459" data-name="Rectangle 1459" width="4.311" height="4.311" transform="translate(169.664 202.759)" fill="#3f3d56"/>
  <rect id="Rectangle_1460" data-name="Rectangle 1460" width="4.311" height="4.311" transform="translate(169.664 209.703)" fill="#3f3d56"/>
  <path id="Path_2125" data-name="Path 2125" d="M592.949,344.226H574.476a64.608,64.608,0,0,1,0-22.026h18.473a39.631,39.631,0,0,0,0,22.026Z" transform="translate(-325.07 -165.409)" fill="#fb0"/>
  <path id="Path_2126" data-name="Path 2126" d="M363.4,398.589l-7.6-1.853a19.565,19.565,0,0,1-19.2-23.44h0a25.574,25.574,0,0,1,25.541-25.606h0a25.574,25.574,0,0,1,25.606,25.541h0A20.322,20.322,0,0,1,363.4,398.589Z" transform="translate(-229.934 -175.627)" fill="#2f2e41"/>
  <circle id="Ellipse_505" data-name="Ellipse 505" cx="18.791" cy="18.791" r="18.791" transform="translate(122.975 188.054)" fill="#ffb8b8"/>
  <path id="Path_2127" data-name="Path 2127" d="M368.809,422.108s-5.719,19.608-8.987,21.242,26.144,4.085,26.144,4.085-.817-18.791.817-20.425S368.809,422.108,368.809,422.108Z" transform="translate(-239.299 -205.459)" fill="#ffb8b8"/>
  <path id="Path_2128" data-name="Path 2128" d="M395.1,623.662s36.765-3.268,41.667,8.987-3.268,84.967-3.268,84.967H417.98V657.976s-66.187-18.814-66.187-25.35S395.1,623.662,395.1,623.662Z" transform="translate(-236.181 -286.098)" fill="#2f2e41"/>
  <path id="Path_2129" data-name="Path 2129" d="M474.729,775.29l8.17,3.268s9.8-.817,5.719,6.536a16.179,16.179,0,0,1-11.438,8.17s-15.523,5.719-16.34,0,4.085-17.157,4.085-17.157Z" transform="translate(-279.858 -347.04)" fill="#2f2e41"/>
  <path id="Path_2130" data-name="Path 2130" d="M373.257,619.923s36.765-3.268,41.667,8.987-3.268,84.967-3.268,84.967H396.133V654.237s-46.983-10.883-46.983-17.419c0-3.07-3.2-18.675,2.44-21.963C357.958,611.145,373.257,619.923,373.257,619.923Z" transform="translate(-234.759 -282.359)" fill="#2f2e41"/>
  <path id="Path_2131" data-name="Path 2131" d="M440.638,775.29l8.17,3.268s9.8-.817,5.719,6.536a16.179,16.179,0,0,1-11.438,8.17s-15.523,5.719-16.34,0,4.085-17.157,4.085-17.157Z" transform="translate(-266.192 -347.04)" fill="#2f2e41"/>
  <path id="Path_2132" data-name="Path 2132" d="M353.14,453.471l24.552,2.669a18.083,18.083,0,0,1,15.738,14.239l9.546,45.184s3.268,44.935-3.268,47.386-15.523-9.8-27.778-8.17-28.186,5.31-28.186,5.31-2.53-80.431-2.859-87.01C340.226,459.928,353.14,453.471,353.14,453.471Z" transform="translate(-231.799 -218.032)" fill="#575a89"/>
  <path id="Path_2133" data-name="Path 2133" d="M455.18,627.823l10.079,5.936s18.083-2.595,17.519,3.761-20.3,5.128-20.3,5.128l-12.147-7.485Z" transform="translate(-275.681 -287.924)" fill="#ffb8b8"/>
  <circle id="Ellipse_506" data-name="Ellipse 506" cx="12.138" cy="12.138" r="12.138" transform="translate(93.154 167.286)" fill="#2f2e41"/>
  <path id="Path_2134" data-name="Path 2134" d="M343.543,340.355a12.133,12.133,0,0,0-14.527-11.884,12.132,12.132,0,1,1,7.567,22.865A12.128,12.128,0,0,0,343.543,340.355Z" transform="translate(-227.051 -167.456)" fill="#2f2e41"/>
  <path id="Path_2135" data-name="Path 2135" d="M359.078,358.559l16.364-3.013,12.585,7.888a19.09,19.09,0,0,1,8.794,18.63l-12.6-3.195-2.822-7.077-3.361,5.51-17.575,22.617-9.868-6.284-8.8-13.786Z" transform="translate(-232.173 -178.776)" fill="#2f2e41"/>
  <path id="Path_2136" data-name="Path 2136" d="M393.136,462.338l8.17-4.085s17.157,2.451,20.425,13.889S439.7,562.828,439.7,562.828l-13.889,6.536-19.608-48.2Z" transform="translate(-252.755 -219.948)" fill="#575a89"/>
  <path id="Path_2137" data-name="Path 2137" d="M245.917,458.23l8.177,31.739,14.5,35.646-.5,1.234L250.8,490.564Z" transform="translate(-98.581 -183.691)" opacity="0.2"/>
  <path id="Path_2138" data-name="Path 2138" d="M142.155,694.2l-2.884-.993,27.934-82.973,4.038,1.391Z" transform="translate(-55.83 -244.624)" fill="#3f3d56"/>
  <path id="Path_2139" data-name="Path 2139" d="M302.828,694.2l2.884-.993-27.935-82.973-4.038,1.391Z" transform="translate(-109.735 -244.624)" fill="#3f3d56"/>
  <path id="Path_2140" data-name="Path 2140" d="M223.588,714.08l3.05.011.948-96.994-4.271-.015Z" transform="translate(-89.521 -247.371)" fill="#3f3d56"/>
  <path id="Path_2141" data-name="Path 2141" d="M290.859,578.231l8.367,33.818a26.857,26.857,0,0,0,19.557,19.6h0a142.749,142.749,0,0,0,71.025-.458L402.3,627.9a17.632,17.632,0,0,0,13.234-15.638,15.389,15.389,0,0,0-1.392-7.712q-.073-.156-.147-.308a20.409,20.409,0,0,0-17.733-11.466l-13.234-.427L334.832,571s-16.576-8.42-30.2-9.362A13.365,13.365,0,0,0,290.859,578.231Z" transform="translate(-211.595 -261.378)" fill="#fb0"/>
  <rect id="Rectangle_1461" data-name="Rectangle 1461" width="47.587" height="64.669" transform="translate(325.48 210.479)" fill="#e6e6e6"/>
  <rect id="Rectangle_1462" data-name="Rectangle 1462" width="36.605" height="49.745" transform="translate(330.971 217.941)" fill="#fff"/>
  <rect id="Rectangle_1463" data-name="Rectangle 1463" width="17.735" height="2.021" transform="translate(345.378 230.959)" fill="#3f3d56"/>
  <rect id="Rectangle_1464" data-name="Rectangle 1464" width="4.311" height="4.311" transform="translate(335.434 229.84)" fill="#3f3d56"/>
  <rect id="Rectangle_1465" data-name="Rectangle 1465" width="17.735" height="2.021" transform="translate(345.378 239.5)" fill="#3f3d56"/>
  <rect id="Rectangle_1466" data-name="Rectangle 1466" width="4.311" height="4.311" transform="translate(335.434 238.382)" fill="#3f3d56"/>
  <rect id="Rectangle_1467" data-name="Rectangle 1467" width="17.735" height="2.021" transform="translate(345.378 248.041)" fill="#3f3d56"/>
  <rect id="Rectangle_1468" data-name="Rectangle 1468" width="4.311" height="4.311" transform="translate(335.434 246.923)" fill="#3f3d56"/>
  <rect id="Rectangle_1469" data-name="Rectangle 1469" width="3.661" height="3.661" rx="1.83" transform="translate(347.443 212.31)" fill="#3f3d56"/>
</svg>
