<svg id="Sales" xmlns="http://www.w3.org/2000/svg" width="553.995" height="320" viewBox="0 0 553.995 320">
  <path id="Path_3100" data-name="Path 3100" d="M710.506,102.781c-3.951,2.22-10.327-6.561-11.772-2.266s2.055,21.628,3.861,25.784c.9,2.066,2.166,3.956,3.047,6.029a9.066,9.066,0,0,1,.575,6.571c-1.355,3.679-5.825,5.175-8.042,8.409-2.582,3.766-1.539,8.838-.332,13.242a44.417,44.417,0,0,0,4.151,11.013c2,3.388,5.022,6.338,8.794,7.459,4.8,1.427,9.937-.269,14.567-2.184A52.764,52.764,0,0,0,738,169.932a23.275,23.275,0,0,0,8.269-11.564c1.66-5.81.273-12.169-2.6-17.484s-7.127-9.744-11.49-13.924a228.28,228.28,0,0,0-23.391-19.588" transform="translate(-305.021 -43.488)" fill="#2f2e41"/>
  <path id="Path_3101" data-name="Path 3101" d="M290.893,243.607s16-9.377,20.3-.682S355.3,355.35,355.3,355.35l-25.643,4.993Z" transform="translate(-127.378 -104.755)" fill="rgba(255,107,164,0.6)"/>
  <g id="Group_1395" data-name="Group 1395" transform="translate(271.246 127.014)">
    <path id="b-690" d="M493.844,306.405c-7.562-2.3-12.505-8.063-11.042-12.875s8.779-6.849,16.343-4.548a19.779,19.779,0,0,1,8.107,4.641l31.917,10.143-5.079,14.876-30.925-11.579A19.781,19.781,0,0,1,493.844,306.405Z" transform="translate(-482.546 -253.141)" fill="#ffb6b6"/>
    <path id="Path_3102" data-name="Path 3102" d="M623.989,225.958s19.488,8.314,16.287,20.219-38.739,51.731-38.739,51.731-.908,10.876-11.943,8.387-62.679-20.758-62.679-20.758l6.745-20.236,51.714,16.3,22.031-48.51,16.582-7.134Z" transform="translate(-501.975 -225.958)" fill="#2f2e41"/>
  </g>
  <path id="Path_3103" data-name="Path 3103" d="M214.505,120.215l.754,1.073c-2.811,1.623-3.225,5.717-1.907,8.687s3.869,5.173,6.076,7.559,4.219,5.342,4.014,8.588c-.23,3.65-3.205,6.655-3.62,10.29-.6,5.292,4.329,9.936,4.084,15.258-.185,4.064-3.31,7.329-6.411,9.966-2.426,2.067-5.068,4.144-6.705,6.81a11.157,11.157,0,0,0-1.1,2.357c-1.223,3.784-.07,7.909,1.483,11.568s3.52,7.235,4,11.179-1.009,8.5-4.638,10.115a42.485,42.485,0,0,0,20.271-7.24c.539-.369,1.063-.749,1.583-1.138,8.488-6.391,14.449-15.622,20.186-24.62.474-.739.944-1.483,1.418-2.222q1.91-3,3.829-6c3.645-5.722,7.334-11.528,9.322-18.009,1.827-5.976,2.137-12.292,2.886-18.5.364-3.041.844-6.071.934-9.132A36.85,36.85,0,0,0,237,99.055a38.3,38.3,0,0,0-4.6-.065,67.6,67.6,0,0,0-17.834,3.655,36.228,36.228,0,0,0-18.443,20.306A27.692,27.692,0,0,1,214.505,120.215Z" transform="translate(-85.877 -43.329)" fill="#2f2e41"/>
  <rect id="Rectangle_1548" data-name="Rectangle 1548" width="33.727" height="46.655" transform="translate(363.64 186.031)" fill="#2f2e41"/>
  <path id="Path_3104" data-name="Path 3104" d="M254.246,225.192,225.578,213.95l-.726,11.242-25.131,3.935-11.8,53.4,10.68,33.165,79.82,2.248L275.606,306.7s12.929-14.615,5.059-38.224l-.874-6.008a51.268,51.268,0,0,0-25.545-37.274Z" transform="translate(-82.286 -93.686)" fill="rgba(255,107,164,0.6)"/>
  <path id="Path_3105" data-name="Path 3105" d="M723.2,232.385l-39.91-3.935-39.91,45.531s-11.242,26.981,12.929,35.975v22.416l60.708,1.755Z" transform="translate(-280.585 -100.035)" fill="#e6e6e6"/>
  <path id="Path_3106" data-name="Path 3106" d="M729.416,336.121,747.4,221.45l33.165,9.556V344.6Z" transform="translate(-319.401 -96.97)" fill="#2f2e41"/>
  <circle id="Ellipse_671" data-name="Ellipse 671" cx="28.668" cy="28.668" r="28.668" transform="translate(386.687 59.556)" fill="#ffb6b6"/>
  <circle id="Ellipse_672" data-name="Ellipse 672" cx="25.463" cy="25.463" r="25.463" transform="translate(130.541 68.833)" fill="#a0616a"/>
  <path id="Path_3107" data-name="Path 3107" d="M755.375,168.83a53.6,53.6,0,0,0-9.57,32.982c-7.586-3.675-12.707-11.439-14.449-19.687s-.413-16.907,2.387-24.858l.084-.238a28.455,28.455,0,0,0-9.969-32.691,68.465,68.465,0,0,1-17.546-18.478c-2.6-4.063-4.816-9.159-2.871-13.575,1.792-4.069,6.421-5.971,10.681-7.243,9.728-2.906,20.063-4.559,30.048-2.72s19.6,7.58,24.315,16.57,3.483,21.257-4.176,27.921a5.688,5.688,0,0,1-.895,11.036c1.638-.058,2.6,2.1,2.02,3.63s-2.09,2.482-3.527,3.27c-2.046,1.123-4.315,2.3-4.324,5.236a5.647,5.647,0,0,0,1.1,3.281c1.664,2.321,4.351,3.367,6.937,4.348a15.736,15.736,0,0,0-10.812,12.118" transform="translate(-307.703 -35.708)" fill="#2f2e41"/>
  <path id="Path_3108" data-name="Path 3108" d="M192.018,136.806c.09,3.061.569,6.091.934,9.132.749,6.206,1.058,12.522,2.886,18.5,1.987,6.481,5.677,12.287,9.322,18.009q1.917,3,3.829,6c.474.739.944,1.483,1.418,2.222,5.737,9,11.7,18.229,20.186,24.62.519.389,1.043.769,1.583,1.138a42.484,42.484,0,0,0,20.271,7.24c-3.63-1.618-5.118-6.171-4.638-10.115s2.456-7.519,4-11.179,2.706-7.784,1.483-11.568a11.156,11.156,0,0,0-1.1-2.357c-1.638-2.666-4.279-4.743-6.705-6.81-3.1-2.636-6.226-5.9-6.411-9.966-.245-5.322-3.645-3.54-4.244-8.832-.414-3.635-5.262-9.831-5.492-13.481-.2-3.245,1.787-11.094,3.994-13.481s.18-9.511,1.5-12.482,15.7-.484,12.891-2.107l.754-1.073a27.692,27.692,0,0,1,18.388,2.736,25.949,25.949,0,0,1,3.47,2.207c2.651-4.843-.494-10.989-4.773-14.479-4.189-3.425-9.352-5.4-14.474-7.145-.884-.3-1.772-.6-2.666-.889a67.6,67.6,0,0,0-17.834-3.655,38.3,38.3,0,0,0-4.6.065,36.85,36.85,0,0,0-33.971,37.75Z" transform="translate(-84.075 -43.329)" fill="#2f2e41"/>
  <path id="Path_3109" data-name="Path 3109" d="M679.631,223.133s-49.466,46.655-35.413,89.938l1.686,11.8-17.988-2.811S640.283,231,652.649,226.506s18.55-9.556,22.485-9.556S679.631,223.133,679.631,223.133Z" transform="translate(-274.956 -94.999)" fill="#2f2e41"/>
  <path id="Path_3110" data-name="Path 3110" d="M537.919,486.156h-.065L16.02,484.1a16.067,16.067,0,0,1-14.164-23.53L39.9,388.053a16.021,16.021,0,0,1,14.227-8.6h448.3a16.142,16.142,0,0,1,14.507,9.162l35.492,74.574a16.066,16.066,0,0,1-14.5,22.97Z" transform="translate(0 -166.156)" fill="#fff"/>
  <path id="Path_3111" data-name="Path 3111" d="M537.919,486.156h-.065L16.02,484.1a16.067,16.067,0,0,1-14.164-23.53L39.9,388.053a16.021,16.021,0,0,1,14.227-8.6h448.3a16.142,16.142,0,0,1,14.507,9.162l35.492,74.574a16.066,16.066,0,0,1-14.5,22.97ZM54.127,381.136a14.341,14.341,0,0,0-12.734,7.7L3.349,461.356a14.38,14.38,0,0,0,12.677,21.06L537.86,484.47h.058A14.38,14.38,0,0,0,550.9,463.91l-35.492-74.574a14.448,14.448,0,0,0-12.984-8.2Z" transform="translate(0 -166.156)" fill="#3f3d56"/>
  <path id="Path_3112" data-name="Path 3112" d="M250.575,438.069l84.879-30.916-42.44-17.069-84.6,22.128Z" transform="translate(-91.263 -170.812)" fill="#f2f2f2"/>
  <path id="Path_3113" data-name="Path 3113" d="M505.972,392.45,496.416,422.8l111.861,6.745-9.556-34.289Z" transform="translate(-217.374 -171.849)" fill="#f2f2f2"/>
  <path id="c-691" d="M244.614,398.451c7.865.78,13.838,5.47,13.34,10.475s-7.275,8.429-15.143,7.648a19.78,19.78,0,0,1-8.857-2.971l-33.282-3.725,2.081-15.581,32.589,5.327A19.78,19.78,0,0,1,244.614,398.451Z" transform="translate(-87.872 -172.657)" fill="#a0616a"/>
  <path id="Path_3114" data-name="Path 3114" d="M157.085,244.042l-5.9-3.092s-9.275.281-15.458,6.464-56.211,77.01-56.211,77.01-12.367,19.112,18.55,21.922,65.205,2.811,65.205,2.811l2.811-23.047-46.655-5.059,32.671-43.283Z" transform="translate(-33.748 -105.509)" fill="rgba(255,107,164,0.6)"/>
  <g id="Group_1396" data-name="Group 1396" transform="translate(355.464 129.396)">
    <path id="d-692" d="M647.141,409.635c-7.893.411-14.5-3.328-14.763-8.351s5.926-9.427,13.821-9.837a19.779,19.779,0,0,1,9.2,1.606l33.464-1.32.285,15.717-33.02-.368a19.78,19.78,0,0,1-8.989,2.553Z" transform="translate(-632.37 -300.787)" fill="#ffb6b6"/>
    <path id="Path_3115" data-name="Path 3115" d="M748.841,231.744s20.349-5.9,25.408,5.34,33.727,94.435,33.727,94.435,6.183,8.994-3.935,14.053-91.625-7.307-91.625-7.307l2.645-17.707,57.5-5.34-32.041-67.454Z" transform="translate(-667.421 -230.195)" fill="#2f2e41"/>
  </g>
  <g id="Group_1401" data-name="Group 1401" transform="translate(207.58)">
    <g id="Group_1398" data-name="Group 1398">
      <g id="Group_1397" data-name="Group 1397" transform="translate(25.577 31.398)">
        <path id="Path_3116" data-name="Path 3116" d="M504.039,201.939a66.167,66.167,0,0,1-17.853,2.721q-.548.017-1.1.017a66.639,66.639,0,0,1-16.234-2l.135-1.332,3.024-29.168.191-1.866-2.8-8.415h34.413l-.551,8.224-.2,3,.3.95,7.589,24.182.337,1.079A65.312,65.312,0,0,1,504.039,201.939Z" transform="translate(-438.463 -102.292)" fill="rgba(255,107,164,0.7)"/>
        <path id="Path_3117" data-name="Path 3117" d="M445.18,209.779a66.591,66.591,0,0,1-22.417-10.332c-2.749-1.49-5.419-3.1-7.976-4.812l1.265-.635,31.776-15.891.512,1.169,13.682,31.366.489,1.113q-.548.017-1.1.017A66.638,66.638,0,0,1,445.18,209.779Z" transform="translate(-414.786 -109.39)" fill="#2f2e41"/>
        <path id="Path_3118" data-name="Path 3118" d="M585.487,191.3c-.14.191-.287.377-.433.562a67.039,67.039,0,0,1-7.847,8.37l-.022-1.5-.079-5.526a13.065,13.065,0,0,1,5.076-2.091,7.766,7.766,0,0,1,2.08-.062A5.914,5.914,0,0,1,585.487,191.3Z" transform="translate(-485.864 -115.04)" fill="#2f2e41"/>
        <path id="Path_3119" data-name="Path 3119" d="M556.609,193.894a66.781,66.781,0,0,1-18.522,11.844,65.308,65.308,0,0,1-7.246,2.608l-.028-1.164-.652-26.706-.1-3.946,31.518,8.246,1.675.438,1.2.309A67.036,67.036,0,0,1,556.609,193.894Z" transform="translate(-465.266 -108.698)" fill="#2f2e41"/>
        <circle id="Ellipse_673" data-name="Ellipse 673" cx="25.245" cy="25.245" r="25.245" transform="translate(23.225)" fill="#a0616a"/>
      </g>
      <path id="Path_3120" data-name="Path 3120" d="M441.489,0A66.968,66.968,0,0,0,374.6,66.892q0,.607.017,1.214c.348-.41.719-.815,1.107-1.214,18.55-19.112,29.505-65.767,65.767-65.767a65.739,65.739,0,0,1,51.771,106.29c-.135.169-.264.337-.4.5a66.19,66.19,0,0,1-25.509,19.444,62.538,62.538,0,0,1-6.937,2.524,65.294,65.294,0,0,1-18.314,2.771c-.2.006-.4.006-.607.006a65.52,65.52,0,0,1-16.1-2.2,99.38,99.38,0,0,1-22.552-9,66.587,66.587,0,0,0,38.651,12.327q.548,0,1.1-.017a66.168,66.168,0,0,0,17.853-2.721,65.313,65.313,0,0,0,7.246-2.608,67.493,67.493,0,0,0,26.369-20.214c.146-.186.292-.371.433-.562A66.858,66.858,0,0,0,441.489,0ZM396.127,116.009a66.69,66.69,0,0,1-21.512-47.9c-13.227,15.312-.084,34.963,20.247,48.539,2.558,1.709,5.228,3.322,7.976,4.812A66.519,66.519,0,0,1,396.127,116.009Zm64.283,13.873a65.294,65.294,0,0,1-18.314,2.771l.489,1.113a66.168,66.168,0,0,0,17.853-2.721Z" transform="translate(-369.285)" fill="#e6e6e6"/>
    </g>
    <path id="Path_3121" data-name="Path 3121" d="M454.531,86.848c-4.543-4.285-7.71-9.966-4.541-22.075a3.116,3.116,0,0,0-1.007-2.573,1.891,1.891,0,0,0-2.488-.445c.516-1.52,7.59-6.95,8.106-8.47-.6.8-5.2,2.514-5.571,1.583a4.312,4.312,0,0,1,.278-2.925l1.931-5.65c.486-1.421,2.4.277,3.362-.878,1.721-2.068-.243-4.248,2.384-4.828,8.6-1.9,17.714-3.593,26.067-.808A51.049,51.049,0,0,1,493.3,45.022l6.006,3.668c3.446,2.1,7.188,4.6,8.132,8.526l-6.307-2.254a40.8,40.8,0,0,1,3.465,9.261c.643,3.242-1.1,15.448-2.779,18.292-1.479,2.5-2.526-4.211-3.013-1.349a17,17,0,0,0-6.461-14.889,6.313,6.313,0,0,1-2.379-2.466c-.457-1.209,0-2.663-.622-3.8-.775-1.408-2.8-1.542-4.308-.989s-2.828,1.591-4.391,1.963c-4.144.987-7.914-2.932-12.164-3.226-4.048-.281-7.67,2.888-9.353,6.581s-6.34,2.893-6.776,6.928,5.922,12.02,3.373,15.177" transform="translate(-403.094 -16.775)" fill="#2f2e41"/>
    <path id="Path_3122" data-name="Path 3122" d="M431.368,172.371a.682.682,0,0,0-.957-.12.694.694,0,0,0-.064.057l-1.04,1.041a1.726,1.726,0,0,0-.453,1.78,17.793,17.793,0,0,0,10.84,10.84,1.726,1.726,0,0,0,1.781-.453l1.04-1.04a.682.682,0,0,0,0-.965.674.674,0,0,0-.064-.056l-2.321-1.8a.682.682,0,0,0-.583-.123l-2.2.55a1.755,1.755,0,0,1-1.667-.462l-2.471-2.472a1.755,1.755,0,0,1-.463-1.667l.551-2.2a.682.682,0,0,0-.123-.583l-1.8-2.321Zm-1.781-.822a1.755,1.755,0,0,1,2.628.164l1.8,2.32a1.755,1.755,0,0,1,.317,1.5l-.55,2.2a.682.682,0,0,0,.179.647l2.472,2.472a.682.682,0,0,0,.648.179l2.2-.55a1.755,1.755,0,0,1,1.5.317l2.32,1.8a1.755,1.755,0,0,1,.164,2.626l-1.04,1.04a2.793,2.793,0,0,1-2.894.706,18.863,18.863,0,0,1-11.5-11.5,2.8,2.8,0,0,1,.707-2.894l1.04-1.04Z" transform="translate(-394.861 -74.894)" fill="#ccc"/>
    <g id="Group_1399" data-name="Group 1399" transform="translate(69.69 96.093)">
      <path id="Path_3123" data-name="Path 3123" d="M493.766,182.582a.5.5,0,0,1,.5.5v1.006a4.024,4.024,0,0,0,8.047,0v-1.006a.5.5,0,1,1,1.006,0v1.006a5.03,5.03,0,0,1-4.527,5v2.037h3.018a.5.5,0,1,1,0,1.006h-7.042a.5.5,0,1,1,0-1.006h3.018V189.1a5.03,5.03,0,0,1-4.527-5v-1.006A.5.5,0,0,1,493.766,182.582Z" transform="translate(-493.263 -176.043)" fill="#ccc"/>
      <path id="Path_3124" data-name="Path 3124" d="M501.872,179a2.012,2.012,0,1,1-4.024,0v-5.03a2.012,2.012,0,1,1,4.024,0Zm-2.012-8.047a3.018,3.018,0,0,0-3.018,3.018V179a3.018,3.018,0,0,0,6.036,0v-5.03A3.018,3.018,0,0,0,499.86,170.95Z" transform="translate(-494.83 -170.95)" fill="#ccc"/>
    </g>
    <g id="Group_1400" data-name="Group 1400" transform="translate(102.168 96.131)">
      <path id="Path_3125" data-name="Path 3125" d="M563.524,179.062a5.035,5.035,0,0,1-.268,1.623l-.819-.819a4.049,4.049,0,0,0,.081-.8v-1.006a.5.5,0,1,1,1.006,0Zm-5.03,4.024a4,4,0,0,0,2.225-.671l.722.723a5,5,0,0,1-2.444.928V186.1h3.018a.5.5,0,1,1,0,1.006h-7.042a.5.5,0,0,1,0-1.006h3.018v-2.037a5.029,5.029,0,0,1-4.527-5v-1.006a.5.5,0,1,1,1.006,0v1.006A4.024,4.024,0,0,0,558.495,183.086Zm3.018-9.053v4.908l-1.006-1.006v-3.9a2.012,2.012,0,0,0-4.021-.119l-.85-.85a3.019,3.019,0,0,1,5.877.969Z" transform="translate(-552.103 -171.017)" fill="#ccc"/>
      <path id="Path_3126" data-name="Path 3126" d="M558.928,182.189l-.752-.752a2.012,2.012,0,0,1-2.754-1.87v-.883l-1.006-1.006v1.889a3.018,3.018,0,0,0,4.513,2.622Zm-7.886-9.308,12.071,12.071.712-.712-12.071-12.071Z" transform="translate(-551.042 -171.522)" fill="#ccc"/>
    </g>
  </g>
</svg>
