<svg xmlns="http://www.w3.org/2000/svg" xmlns:xlink="http://www.w3.org/1999/xlink" width="363.75" height="336.605" viewBox="0 0 363.75 336.605">
  <defs>
    <clipPath id="clip-path">
      <path id="Path_2719" data-name="Path 2719" d="M5.449,20H224V356.605H5.449Zm0,0"/>
    </clipPath>
    <clipPath id="clip-path-2">
      <path id="Path_2721" data-name="Path 2721" d="M5.449,20H224V274H5.449Zm0,0"/>
    </clipPath>
    <clipPath id="clip-path-3">
      <path id="Path_2726" data-name="Path 2726" d="M145,23H369.2V354H145Zm0,0"/>
    </clipPath>
    <clipPath id="clip-path-4">
      <path id="Path_2728" data-name="Path 2728" d="M145,23H369.2V272H145Zm0,0"/>
    </clipPath>
  </defs>
  <g id="Slikk-AI-Favicon" transform="translate(-5.449 -20)">
    <g id="Group_482" data-name="Group 482" clip-path="url(#clip-path)">
      <path id="Path_2718" data-name="Path 2718" d="M91.969,35.3l116.918,117.02q1.764,1.764,3.34,3.688t2.965,4q1.383,2.074,2.559,4.27t2.125,4.5q.955,2.3,1.676,4.688t1.207,4.832q.486,2.443.73,4.922t.246,4.973q0,2.5-.246,4.973a49.735,49.735,0,0,1-.73,4.926q-.486,2.443-1.207,4.828t-1.676,4.688q-.955,2.3-2.125,4.5t-2.559,4.27q-1.383,2.074-2.965,4t-3.34,3.688L91.969,341.09C60.035,373.051,5.422,350.4,5.449,305.18V71.137C5.422,26,60.035,3.344,91.969,35.3Zm0,0" fill="#72147e"/>
    </g>
    <g id="Group_483" data-name="Group 483" clip-path="url(#clip-path-2)">
      <path id="Path_2720" data-name="Path 2720" d="M91.969,35.3c-31.75-31.777-85.742-9.57-86.5,35.078,0,0,183.98,174.23,154.727,202.629l48.793-48.836q1.758-1.764,3.34-3.691c1.055-1.285,2.039-2.617,2.965-4s1.773-2.8,2.555-4.27,1.492-2.965,2.129-4.5,1.191-3.1,1.676-4.687.883-3.2,1.207-4.828.566-3.273.73-4.926.242-3.312.242-4.973-.082-3.32-.242-4.973-.406-3.3-.73-4.926-.727-3.238-1.207-4.828-1.043-3.152-1.676-4.687-1.344-3.035-2.129-4.5-1.633-2.891-2.555-4.27-1.91-2.715-2.965-4-2.168-2.516-3.34-3.691Zm0,0" fill="#f21170"/>
    </g>
    <g id="Group_485" data-name="Group 485" clip-path="url(#clip-path-3)">
      <path id="Path_2725" data-name="Path 2725" d="M354.336,152.609,237.418,35.59C206.031,4.152,122.367,40.609,151,69.266l84.078,84.176a50.974,50.974,0,0,1,6.3,7.684,49.145,49.145,0,0,1,2.559,4.27q1.178,2.2,2.129,4.5t1.676,4.688q.727,2.385,1.211,4.828t.73,4.926q.246,2.479.246,4.969t-.246,4.973q-.246,2.479-.73,4.926t-1.211,4.828q-.721,2.385-1.676,4.684t-2.129,4.5a49.738,49.738,0,0,1-2.559,4.27q-1.383,2.068-2.965,4t-3.34,3.688l-84.027,84.121c-25.617,25.617,55.289,63.4,86.367,32.3l116.918-117.02q1.77-1.764,3.363-3.691t2.984-4.008q1.389-2.074,2.574-4.281t2.141-4.512q.961-2.309,1.688-4.7c.488-1.6.891-3.211,1.219-4.848s.57-3.281.734-4.941.246-3.324.246-4.992-.082-3.332-.246-4.988-.41-3.309-.734-4.945-.73-3.25-1.219-4.844a49.908,49.908,0,0,0-1.687-4.7q-.961-2.309-2.141-4.516t-2.574-4.281q-1.395-2.074-2.984-4T354.336,152.609Zm0,0" fill="#72147e"/>
    </g>
    <g id="Group_486" data-name="Group 486" clip-path="url(#clip-path-4)">
      <path id="Path_2727" data-name="Path 2727" d="M354.336,152.609,237.418,35.59C206.031,4.152,122.367,40.609,151,69.266l84.078,84.176a50.521,50.521,0,0,1,14.5,30.164c28.973,34.043,53.059,67.094,58.07,87.688l46.77-46.809q1.764-1.764,3.352-3.7t2.969-4q1.389-2.08,2.566-4.281t2.129-4.512q.955-2.309,1.68-4.7t1.207-4.84q.486-2.449.73-4.937t.238-4.984q0-2.5-.25-4.984t-.738-4.934q-.492-2.449-1.219-4.84t-1.691-4.7a49.437,49.437,0,0,0-2.141-4.5q-1.178-2.2-2.57-4.277t-2.98-4Q356.107,154.369,354.336,152.609Zm0,0" fill="#fa9905"/>
    </g>
  </g>
</svg>
