<svg xmlns="http://www.w3.org/2000/svg" width="455.53" height="453.436" viewBox="0 0 455.53 453.436">
  <g id="Startup" transform="translate(-21264.67 11285.006)">
    <g id="startup-2" data-name="startup" transform="translate(21264.67 -11193.534)">
      <path id="Path_2961" data-name="Path 2961" d="M755.836,661.741C749.531,656.413,745.7,648,746.706,639.8s7.225-15.726,15.295-17.466,17.268,3.076,19.719,10.959c1.349-15.2,2.9-31.032,10.983-43.974,7.316-11.719,19.988-20.1,33.721-21.6s28.193,4.166,36.758,15.005,10.662,26.6,4.663,39.043c-4.419,9.168-12.56,15.99-21.09,21.541a136.117,136.117,0,0,1-93.1,20.366" transform="translate(-416.028 -304.126)" fill="#f2f2f2"/>
      <path id="Path_2962" data-name="Path 2962" d="M865.353,574.076a224.6,224.6,0,0,0-65.994,89.236c-.629,1.543,1.875,2.214,2.5.689a222.1,222.1,0,0,1,65.327-88.093C868.478,574.855,866.635,573.032,865.353,574.076Z" transform="translate(-431.781 -306.003)" fill="#fff"/>
      <path id="Path_2963" data-name="Path 2963" d="M416.817,671.554H381.058A4.563,4.563,0,0,1,376.5,667V592.673a4.563,4.563,0,0,1,4.558-4.557h35.759a4.563,4.563,0,0,1,4.558,4.558V667a4.563,4.563,0,0,1-4.558,4.558Z" transform="translate(-305.446 -310.292)" fill="rgba(255,107,164,0.7)"/>
      <path id="Path_2964" data-name="Path 2964" d="M537.518,642.073H501.759a5.265,5.265,0,0,1-5.259-5.259V492.374a5.265,5.265,0,0,1,5.259-5.259h35.759a5.265,5.265,0,0,1,5.259,5.259v144.44A5.265,5.265,0,0,1,537.518,642.073ZM501.759,488.518a3.861,3.861,0,0,0-3.856,3.856v144.44a3.861,3.861,0,0,0,3.856,3.856h35.759a3.861,3.861,0,0,0,3.857-3.856V492.374a3.861,3.861,0,0,0-3.856-3.856Z" transform="translate(-341.306 -280.11)" fill="#3f3d56"/>
      <path id="Path_2965" data-name="Path 2965" d="M658.518,602.926H622.759a5.265,5.265,0,0,1-5.259-5.259V361.374a5.265,5.265,0,0,1,5.259-5.259h35.759a5.265,5.265,0,0,1,5.259,5.259V597.667A5.265,5.265,0,0,1,658.518,602.926ZM622.759,357.518a3.861,3.861,0,0,0-3.856,3.856V597.667a3.861,3.861,0,0,0,3.856,3.856h35.759a3.861,3.861,0,0,0,3.856-3.856V361.374a3.861,3.861,0,0,0-3.856-3.856Z" transform="translate(-377.465 -240.962)" fill="#3f3d56"/>
      <path id="Path_2966" data-name="Path 2966" d="M780.946,561.784H745.187a4.563,4.563,0,0,1-4.557-4.558V224.173a4.563,4.563,0,0,1,4.557-4.558h35.759a4.563,4.563,0,0,1,4.558,4.558V557.227A4.563,4.563,0,0,1,780.946,561.784Z" transform="translate(-414.26 -200.171)" fill="rgba(255,107,164,0.7)"/>
      <path id="Path_2967" data-name="Path 2967" d="M471.3,401.118a7.051,7.051,0,0,0-7.35-7.929l-12.464-22.864-2.8,9.816,8.539,20.955a7.089,7.089,0,0,0,14.079.022Z" transform="translate(-327.016 -245.208)" fill="#a0616a"/>
      <path id="Path_2968" data-name="Path 2968" d="M68.816,339.7l6.942,5.069L98.613,320.4,88.366,312.92Z" transform="translate(-20.565 -93.511)" fill="#a0616a"/>
      <path id="Path_2969" data-name="Path 2969" d="M0,0H27.016V10.438H10.438A10.438,10.438,0,0,1,0,0H0Z" transform="matrix(-0.808, -0.59, 0.59, -0.808, 63.876, 267.477)" fill="#2f2e41"/>
      <path id="Path_2970" data-name="Path 2970" d="M121.2,375.245h8.6l4.089-33.157H121.2Z" transform="translate(-36.218 -102.228)" fill="#a0616a"/>
      <path id="Path_2971" data-name="Path 2971" d="M0,0H27.016V10.438H10.438A10.438,10.438,0,0,1,0,0Z" transform="translate(110.155 281) rotate(179.997)" fill="#2f2e41"/>
      <path id="Path_2972" data-name="Path 2972" d="M420.034,392.864s4.207,40.668-6.31,68.714l-7.713,53.289H392.689l1.4-63.1-4.908-56.093S399,370.426,420.034,392.864Z" transform="translate(-309.236 -249.167)" fill="#2f2e41"/>
      <path id="Path_2973" data-name="Path 2973" d="M87.343,206.848l14.023,48.38L74.021,298.7,87.694,310.27l31.2-48.731-9.115-59.6Z" transform="translate(-22.12 -60.347)" fill="#2f2e41"/>
      <circle id="Ellipse_664" data-name="Ellipse 664" cx="17.221" cy="17.221" r="17.221" transform="translate(83.764 3.57)" fill="#a0616a"/>
      <path id="Path_2974" data-name="Path 2974" d="M386.838,254.647s10.517-7.012,22.437,8.414l3.155,97.111s-9.115-12.621-28.047-.7-23.138-1.4-23.138-1.4S347.923,257.8,386.838,254.647Z" transform="translate(-300.229 -210.165)" fill="#ccc"/>
      <path id="Path_2975" data-name="Path 2975" d="M423.96,266.968h0a12.275,12.275,0,0,1,11.6,11.612l2.225,42.272L452.5,360.818l-8.414,7.012-27.345-47.679-5.6-39.19a12.275,12.275,0,0,1,12.814-13.992Z" transform="translate(-315.762 -214.316)" fill="#ccc"/>
      <path id="Path_2976" data-name="Path 2976" d="M398.068,225.594c2.815,3,8.044,1.389,8.411-2.708a4.947,4.947,0,0,0-.006-.956c-.189-1.815-1.238-3.462-.987-5.379a2.821,2.821,0,0,1,.516-1.32c2.243-3,7.51,1.344,9.627-1.376,1.3-1.668-.228-4.293.768-6.157,1.315-2.46,5.21-1.246,7.652-2.594,2.718-1.5,2.555-5.668.766-8.2a12.906,12.906,0,0,0-9.784-4.981,26.244,26.244,0,0,0-11.055,2.158c-4.007,1.561-7.98,3.72-10.446,7.243-3,4.285-3.287,10.045-1.788,15.055C392.655,219.422,395.769,223.145,398.068,225.594Z" transform="translate(-309.736 -191.884)" fill="#2f2e41"/>
      <path id="Path_2977" data-name="Path 2977" d="M729.857,706.98H276a.835.835,0,0,1,0-1.67h453.86a.835.835,0,1,1,0,1.67Z" transform="translate(-275.162 -345.314)" fill="#3f3d56"/>
    </g>
    <path id="Path_3088" data-name="Path 3088" d="M579.837,416.212a3.029,3.029,0,0,1-.566-2.6,71.749,71.749,0,0,0,0-33.323,3.03,3.03,0,0,1,.566-2.6,2.979,2.979,0,0,1,2.353-1.14h27.957a3.016,3.016,0,0,1,2.971,2.528,117.44,117.44,0,0,1,0,35.742,3.016,3.016,0,0,1-2.971,2.528H582.189A2.979,2.979,0,0,1,579.837,416.212Z" transform="translate(20929.293 -11562.963)" fill="#e6e6e6"/>
    <path id="Path_3089" data-name="Path 3089" d="M518.156,275.594a3.028,3.028,0,0,1-.566-2.6,71.751,71.751,0,0,0,0-33.323,3.028,3.028,0,0,1,.566-2.6,2.978,2.978,0,0,1,2.353-1.14h27.957a3.017,3.017,0,0,1,2.971,2.528,117.44,117.44,0,0,1,0,35.742,3.017,3.017,0,0,1-2.971,2.528H520.508A2.978,2.978,0,0,1,518.156,275.594Z" transform="translate(20947.723 -11520.942)" fill="#e6e6e6"/>
    <path id="Path_3090" data-name="Path 3090" d="M615.963,323.224a117.432,117.432,0,0,1,0-35.742,3.016,3.016,0,0,1,2.971-2.528H646.89a2.978,2.978,0,0,1,2.353,1.14,3.028,3.028,0,0,1,.566,2.6,71.748,71.748,0,0,0,0,33.323,3.028,3.028,0,0,1-.566,2.6,2.978,2.978,0,0,1-2.353,1.14H618.933a3.016,3.016,0,0,1-2.971-2.528Z" transform="translate(20918.709 -11535.591)" fill="#fb0"/>
    <path id="Path_3091" data-name="Path 3091" d="M449.04,321.444a117.447,117.447,0,0,1,0-35.742,3.017,3.017,0,0,1,2.971-2.528h27.957a2.978,2.978,0,0,1,2.353,1.14,3.028,3.028,0,0,1,.566,2.6,71.749,71.749,0,0,0,0,33.323,3.027,3.027,0,0,1-.566,2.6,2.977,2.977,0,0,1-2.353,1.14H452.01A3.017,3.017,0,0,1,449.04,321.444Z" transform="translate(20968.592 -11535.059)" fill="#ff6584"/>
    <path id="Path_3092" data-name="Path 3092" d="M459.2,438.246a3.079,3.079,0,0,1-.575-2.641,72.922,72.922,0,0,0,0-33.87,3.08,3.08,0,0,1,.576-2.641,3.028,3.028,0,0,1,2.391-1.159h28.416a3.066,3.066,0,0,1,3.02,2.57,119.364,119.364,0,0,1,0,36.329,3.066,3.066,0,0,1-3.02,2.57H461.593A3.028,3.028,0,0,1,459.2,438.246Z" transform="translate(20965.346 -11569.354)" fill="#fb0"/>
    <path id="Path_3093" data-name="Path 3093" d="M474.313,305.707H459.642a2.106,2.106,0,0,1-2.1-2.1v-.822a2.106,2.106,0,0,1,2.1-2.1h14.671a2.106,2.106,0,0,1,2.1,2.1v.822a2.106,2.106,0,0,1-2.1,2.1Z" transform="translate(20965.645 -11540.289)" fill="#fff"/>
    <path id="Path_3094" data-name="Path 3094" d="M607.992,393.836H593.322a2.106,2.106,0,0,1-2.1-2.1v-.822a2.106,2.106,0,0,1,2.1-2.1h14.671a2.106,2.106,0,0,1,2.1,2.1v.822a2.106,2.106,0,0,1-2.1,2.1Z" transform="translate(20925.695 -11566.625)" fill="#fff"/>
    <path id="Path_3095" data-name="Path 3095" d="M607.992,408.65H593.322a2.106,2.106,0,0,1-2.1-2.1v-.822a2.106,2.106,0,0,1,2.1-2.1h14.671a2.106,2.106,0,0,1,2.1,2.1v.822a2.106,2.106,0,0,1-2.1,2.1Z" transform="translate(20925.695 -11571.052)" fill="#fff"/>
    <path id="Path_3096" data-name="Path 3096" d="M607.992,423.463H593.322a2.106,2.106,0,0,1-2.1-2.1v-.822a2.106,2.106,0,0,1,2.1-2.1h14.671a2.106,2.106,0,0,1,2.1,2.1v.822a2.106,2.106,0,0,1-2.1,2.1Z" transform="translate(20925.695 -11575.479)" fill="#fff"/>
    <path id="Path_3097" data-name="Path 3097" d="M474.313,318.052H459.642a2.106,2.106,0,0,1-2.1-2.1v-.822a2.106,2.106,0,0,1,2.1-2.1h14.671a2.106,2.106,0,0,1,2.1,2.1v.822a2.106,2.106,0,0,1-2.1,2.1Z" transform="translate(20965.645 -11543.979)" fill="#fff"/>
    <path id="Path_3098" data-name="Path 3098" d="M546.49,255.688H531.819a2.106,2.106,0,0,1-2.1-2.1v-.822a2.106,2.106,0,0,1,2.1-2.1H546.49a2.106,2.106,0,0,1,2.1,2.1v.822a2.106,2.106,0,0,1-2.1,2.1Z" transform="translate(20944.074 -11525.342)" fill="#fff"/>
    <path id="Path_3099" data-name="Path 3099" d="M641.964,308.721H627.293a2.106,2.106,0,0,1-2.1-2.1V305.8a2.106,2.106,0,0,1,2.1-2.1h14.671a2.106,2.106,0,0,1,2.1,2.1v.822A2.106,2.106,0,0,1,641.964,308.721Z" transform="translate(20915.543 -11541.189)" fill="#fff"/>
  </g>
</svg>
