<svg xmlns="http://www.w3.org/2000/svg" width="494" height="503" viewBox="0 0 494 503">
  <g id="Use_Cases-Hero_Image" data-name="Use Cases-Hero Image" transform="translate(-15274 12067)">
    <ellipse id="Ellipse_418" data-name="Ellipse 418" cx="247" cy="251.5" rx="247" ry="251.5" transform="translate(15274 -12067)" fill="#fff"/>
    <g id="Group_1239" data-name="Group 1239" transform="translate(15274 -12005.923)">
      <path id="Path_1618" data-name="Path 1618" d="M968.025,657.739c.535-15.956-6.766-31.809-20.969-37.246,3.384,16.306.511,34.65-7.949,50.755-3.3,6.273-7.572,12.995-6.4,19.393.731,3.981,3.56,7.065,6.956,9.022s7.353,2.928,11.261,3.881l.692.68C960.339,689.661,967.491,673.694,968.025,657.739Z" transform="translate(-503.198 -343.952)" fill="#f2f2f2"/>
      <path id="Path_1619" data-name="Path 1619" d="M954.638,620.527a55.992,55.992,0,0,1,9.965,35.825,28.859,28.859,0,0,1-1.64,8.515,18.809,18.809,0,0,1-4.971,7.173c-2.031,1.893-4.3,3.623-5.9,5.915a10.187,10.187,0,0,0-1.683,7.793c.6,3.188,2.346,5.809,4.155,8.3,2.009,2.764,4.144,5.6,4.614,9.225.057.44.755.228.7-.21-.817-6.312-6.288-9.982-8.277-15.688a9.789,9.789,0,0,1,.682-8.5c1.481-2.418,3.816-4.2,5.887-6.1a20.185,20.185,0,0,0,5.1-6.868,27.074,27.074,0,0,0,1.956-8.466,58.11,58.11,0,0,0-1.511-18.7A54.325,54.325,0,0,0,955.184,620c-.246-.344-.79.181-.546.522Z" transform="translate(-510.976 -343.688)" fill="#fff"/>
      <path id="Path_1620" data-name="Path 1620" d="M976.393,669.312a11.3,11.3,0,0,0,8.69-9.81c.035-.454-.669-.431-.7.023a10.459,10.459,0,0,1-8.1,9.111.342.342,0,1,0,.114.675Z" transform="translate(-522.285 -360.931)" fill="#fff"/>
      <path id="Path_1621" data-name="Path 1621" d="M960.52,702.813a15.19,15.19,0,0,1-6.42-10.66c-.059-.439-.757-.228-.7.21a15.794,15.794,0,0,0,6.706,11.076c.351.239.763-.388.413-.626Z" transform="translate(-512.366 -375.301)" fill="#fff"/>
      <path id="Path_1622" data-name="Path 1622" d="M965.61,642.143a5.136,5.136,0,0,1-4.988-.344c-.347-.244-.759.384-.413.626a5.749,5.749,0,0,0,5.515.392.427.427,0,0,0,.292-.443.306.306,0,0,0-.406-.232Z" transform="translate(-515.299 -353.28)" fill="#fff"/>
      <path id="Path_1623" data-name="Path 1623" d="M868.928,668.61c.212.159.423.318.634.484a57.041,57.041,0,0,1,7.83,7.206c.188.2.374.407.555.614a61.847,61.847,0,0,1,12.531,22.42,65.005,65.005,0,0,1,2.313,10.32c.687,4.877,1.031,10.274,3.271,14.292a10.162,10.162,0,0,0,.769,1.21l25.865.439c.063-.029.126-.052.19-.081l1.025.065c-.012-.186-.029-.378-.042-.563-.007-.108-.019-.216-.026-.323-.006-.072-.013-.144-.015-.21,0-.024,0-.048-.007-.066,0-.066-.01-.126-.013-.186-.092-1.073-.19-2.146-.3-3.219,0-.006,0-.006,0-.012a95.781,95.781,0,0,0-5.173-23.654c-.084-.223-.166-.452-.261-.675a57.846,57.846,0,0,0-4.659-9.51,49.746,49.746,0,0,0-3.291-4.718,41.068,41.068,0,0,0-11.068-9.727,37.436,37.436,0,0,0-29.332-4.334C869.455,668.458,869.195,668.531,868.928,668.61Z" transform="translate(-475.287 -364.408)" fill="#f2f2f2"/>
      <path id="Path_1624" data-name="Path 1624" d="M868.745,669.832a52.225,52.225,0,0,1,30.606,19.507,22.681,22.681,0,0,1,3.733,7.071,15.308,15.308,0,0,1-.026,8.138c-.642,2.584-1.591,5.194-1.609,7.8a8.088,8.088,0,0,0,3.256,6.582c2.467,1.912,5.608,2.719,8.721,3.4,3.457.752,7.067,1.477,9.69,3.779.318.279.806-.3.489-.575-4.563-4.006-11.63-3.3-16.86-6.164-2.441-1.336-4.385-3.478-4.572-6.48-.163-2.625.813-5.317,1.485-7.931a16.589,16.589,0,0,0,.325-8,21.178,21.178,0,0,0-3.425-7.228A49.527,49.527,0,0,0,887.842,677.3a54.69,54.69,0,0,0-18.934-8.176c-.426-.1-.588.609-.164.7Z" transform="translate(-475.098 -365.297)" fill="#fff"/>
      <path id="Path_1625" data-name="Path 1625" d="M919.116,689.487c3.474-3.514,4.195-8.77,1.706-12.277-.245-.346-.853.1-.608.444,2.331,3.286,1.636,8.136-1.611,11.421C918.262,689.421,918.776,689.831,919.116,689.487Z" transform="translate(-497.044 -368.793)" fill="#fff"/>
      <path id="Path_1626" data-name="Path 1626" d="M921,727.008a16.129,16.129,0,0,1-12.16-3.706c-.319-.278-.808.3-.489.575a16.788,16.788,0,0,0,12.665,3.829C921.474,727.663,921.456,726.966,921,727.008Z" transform="translate(-492.548 -389.049)" fill="#fff"/>
      <path id="Path_1627" data-name="Path 1627" d="M888.581,678.368a6.336,6.336,0,0,1-4.615,2.785c-.456.037-.436.735.016.7a7.1,7.1,0,0,0,5.111-3.07.355.355,0,0,0-.011-.493A.369.369,0,0,0,888.581,678.368Z" transform="translate(-481.742 -369.293)" fill="#fff"/>
      <path id="Path_1628" data-name="Path 1628" d="M806.558,634.392c.054-.061-.358-.113-1.122-.157V608.584H768.408v2.065H751.739a7.381,7.381,0,0,0-7.372,7.372V628.63A7.377,7.377,0,0,0,751.739,636l17.084.022,7.5.011h.516l7.507.011,20.966.028h1.807C807.383,635.778,806.306,634.689,806.558,634.392Z" transform="translate(-420.61 -338.724)" fill="#3f3d56"/>
      <path id="Path_1629" data-name="Path 1629" d="M837.736,563.166c-1.224,1.786-2.217,1.72-3.085.565a9.237,9.237,0,0,1-1.094-2.145c-2.639-6.766-4.365-22.288-9.341-16.861-.982,1.072-1.98,2.135-2.982,3.187-1.862,1.958-3.806,4.083-5.732,5.96,0,.005.044-.2.037-.2-.95.93-.234-7.11-.61-9.372-.08-.489-.21-.707-.418-.512-.016-.22-.026-.439-.025-.661a9.227,9.227,0,0,1,.053-1.046c.031-.319.074-.642.135-.968l16.269-87a10.9,10.9,0,0,1,9.416-8.81,11.258,11.258,0,0,1,3.272.115l2.961.554a10.753,10.753,0,0,1,3.328,1.216h.006a10.9,10.9,0,0,1,5.359,11.476Z" transform="translate(-451.389 -267.022)" fill="#3f3d56"/>
      <path id="Path_1630" data-name="Path 1630" d="M435.032,588.339l-7.638-3.653,10.492-31.926,11.273,5.392Z" transform="translate(-187.612 -242.64)" fill="#a0616a"/>
      <path id="Path_1631" data-name="Path 1631" d="M684.273,711.009c-.555.348-1.111.69-1.672,1.032-1.116.685-2.244,1.358-3.372,2.02-.567.331-1.139.662-1.706.988v.017l-.034.006-.011.006-.864.213-1.24-3.276L674.8,710.5l-.808-2.138-1.481-3.911-7.8-20.59,12.124-2.99.454,1.857h.006l.224.92,4.236,17.179.864,3.512.028.107.522,2.1.449,1.818.5,2.031Z" transform="translate(-385.646 -370.457)" fill="#a0616a"/>
      <path id="Path_1632" data-name="Path 1632" d="M749.54,576.891c-.769,1.234-1.554,2.463-2.345,3.68q-2.2,3.4-4.528,6.7c0,.006-.006.006-.011.011a15.835,15.835,0,0,1-2.973,2.171c-.045.034-.1.056-.14.084a10.962,10.962,0,0,1-2.5,1l-.948.236c-1.133.269-2.255.5-3.372.7-1.986.354-3.95.606-5.9.763-.157.017-.314.028-.471.039-8.029.589-15.844-.359-24-1.913-4.028-.763-8.141-1.678-12.4-2.626-1.391-.314-2.788-.623-4.2-.931-.107-.022-.219-.051-.331-.073-2.02-.443-4.073-.881-6.177-1.313-2.648-.544-5.38-1.072-8.219-1.571l.2,4a30.106,30.106,0,0,0,1.9,8.993c1.212,3.546,2.171,6.351.146,12.191l-.976,2.828a9.657,9.657,0,0,1-.993,8.545l-.2.3,8.141,20.6.527,1.335h-4.169l-5.128.006h-8.69l-12.539-25.157-.6-1.2v-.062l1.3-48.345c.017-.426.05-.858.107-1.285a14.7,14.7,0,0,1,5.594-9.9,14.155,14.155,0,0,1,10.542-2.884l4.292.555,8.769,1.133,6.177.8.123.017,18.217,2.356,1.307-5.33.241-.09,7.669-2.811,26.526-9.723.067-.022,1.745-.64.207.337c.062.1.123.2.18.3a51.992,51.992,0,0,1,4.191,9.728,152.73,152.73,0,0,1,4.4,16.814q.076.37.135.673l.017.062c.017.1.028.157.034.174A15.693,15.693,0,0,1,749.54,576.891Z" transform="translate(-378.588 -308.646)" fill="#2f2e41"/>
      <path id="Path_1633" data-name="Path 1633" d="M731.782,553.15c-.084-.359-.191-.724-.3-1.077a76.8,76.8,0,0,0-3.108-7.866c-1.324-2.917-2.912-6.042-4.8-9.425q-1.372-2.457-2.951-5.111-.791-1.33-1.644-2.71a1.394,1.394,0,0,0-.073-.123l-.163-.269-26.245,3.512-9.773,1.307-.583,4.87-.14,1.206c-.006,0-.006,0,0,.006l-.393,3.288v.006l-.522,4.342-.045-.006-14.5-1.879-14.946-1.936-8.028-1.038a14.146,14.146,0,0,0-10.542,2.884,14.706,14.706,0,0,0-5.594,9.9c-.05.393-.084.8-.1,1.2l-7.574,17.948a115.8,115.8,0,0,0-8.562,33.685l-5.554,17.757.791.073,11.771,1.094,3.108.292,6.845-9.992c.78-1.139,1.521-2.312,2.211-3.512a53.337,53.337,0,0,0,3.024-6.082l14.806-35.233q1.717.295,3.4.561,7.784,1.262,14.946,2.059c15.524,1.734,28.966,1.868,40.934.4q5.041-.614,9.745-1.616,1.725-.362,3.405-.78c.264-.062.522-.123.78-.191a14.317,14.317,0,0,0,10.015-9.358,14.608,14.608,0,0,0,.37-8.174Z" transform="translate(-359.711 -302.722)" fill="#2f2e41"/>
      <path id="Path_1634" data-name="Path 1634" d="M590.136,730.882l-8.264-3.961-1.3-.623-2.07,5.083-14.452,3.181a3.429,3.429,0,0,0-.561,6.525l14.121,5.762,4.483-4.034-1.1,5.414,5.319,2.171,5.829-18.554Z" transform="translate(-340.276 -390.396)" fill="#2f2e41"/>
      <path id="Path_1635" data-name="Path 1635" d="M535.881,592.93l.527,1.335h-.527Z" transform="translate(-235.233 -260.273)" fill="#2f2e41"/>
      <path id="Path_1636" data-name="Path 1636" d="M445.741,530.469c0-3.007-1.01-5.448-2.25-5.453H350.084c-1.246.006-2.25,2.446-2.255,5.453V654.259a1.123,1.123,0,0,1-1.015,1.118q-1.361.131-2.722.243c-.022,0-.045.006-.067.006-.494.045-.987.079-1.481.118h-.006q-.381-.7-.753-1.421a1.129,1.129,0,0,1-.128-.521V523.395c0-.83.034-1.666.09-2.491a31.906,31.906,0,0,1,.421-3.378c.948-5.212,3.091-8.741,5.526-8.752h98.182a2.625,2.625,0,0,1,1.032.219,4.024,4.024,0,0,1,1.274.892,7.89,7.89,0,0,1,1.251,1.711,22.52,22.52,0,0,1,2.362,8.937c0,.034.006.067.006.1.079.909.118,1.835.112,2.76l.079,12.023.051,7.17.151,22.5.056,7.989L452.5,655.1h0a1.122,1.122,0,0,1-1.122,1.122h-4.511a1.122,1.122,0,0,1-1.122-1.122Z" transform="translate(-243.836 -294.911)" fill="#3f3d56"/>
      <path id="Path_1637" data-name="Path 1637" d="M230.527,307l-6.5,28.588-4.152,4.548h-3l12.345-51.978.61,8.83v.006Z" transform="translate(-95.206 -126.489)" fill="#3f3d56"/>
      <path id="Path_1638" data-name="Path 1638" d="M422.737,501.165l-38.117-.241-3.383-.022-2.412-.017-2.811-.017h-.022a1.551,1.551,0,0,0-1.088.449l-4.746,4.746a1.224,1.224,0,0,0-.252.359.551.551,0,0,0-.073.123,1.584,1.584,0,0,0,1.425,2.211h49.377a1.571,1.571,0,0,0,1.414-.9l.387-.842.8-1.711.9-1.93a1.538,1.538,0,0,0,.146-.656A1.563,1.563,0,0,0,422.737,501.165Z" transform="translate(-256.147 -291.441)" fill="#3f3d56"/>
      <path id="Path_1639" data-name="Path 1639" d="M422.435,511.362l-.39.845a1.57,1.57,0,0,1-1.41.9H371.256a1.582,1.582,0,0,1-1.423-2.209.47.47,0,0,1,.072-.123Z" transform="translate(-256.147 -295.788)" opacity="0.17"/>
      <path id="Path_1640" data-name="Path 1640" d="M229.839,296.985v.006l-10.571,43.142h-2.384l12.345-51.978Z" transform="translate(-95.206 -126.489)" opacity="0.17"/>
      <path id="Path_1641" data-name="Path 1641" d="M406.16,344.75,391.2,230.91a1.623,1.623,0,0,0-.617-1.077l-10.3-12.893-.926-.713a1.643,1.643,0,0,0-1.2-.32l-1.548.208a1.624,1.624,0,0,0-1.4,1.818h0l15.507,117.953v.006l.948,7.215,1.128,8.567v.011l1.75,13.33a1.588,1.588,0,0,0,.7,1.133,1.611,1.611,0,0,0,1.307.236l.982-.247a1.648,1.648,0,0,0,.931-.64l.438-.623.2-.292,6.777-18.683A1.613,1.613,0,0,0,406.16,344.75Z" transform="translate(-258.555 -166.349)" fill="#3f3d56"/>
      <path id="Path_1642" data-name="Path 1642" d="M380.279,216.94,399.1,364.586l-.2.289-.436.621a1.643,1.643,0,0,1-.932.64l-.983.247a1.63,1.63,0,0,1-2.008-1.368l-19.33-147.081a1.625,1.625,0,0,1,1.4-1.822l1.552-.2a1.6,1.6,0,0,1,1.2.321Z" transform="translate(-258.557 -166.348)" opacity="0.17"/>
      <path id="Path_1643" data-name="Path 1643" d="M217.951,97.7l9.988,14.257,11.872,90.328-6.436,12.769Z" transform="translate(-95.675 -42.887)" fill="#fb0"/>
      <path id="Path_1644" data-name="Path 1644" d="M595.2,590.681l-6.85.128,19.038-66.135,6.85,2.116Z" transform="translate(-258.265 -230.312)" fill="#3f3d56"/>
      <path id="Path_1645" data-name="Path 1645" d="M827.673,718.986l-6.845-.129L802.045,655.8l-.258-.83,4.393-1.358c.87.017,1.773.028,2.7.039l.668,2.16Z" transform="translate(-445.815 -358.49)" fill="#3f3d56"/>
      <path id="Path_1646" data-name="Path 1646" d="M685.141,722.833l-8.659,3-1.359.469,2.105,5.068L669.2,743.8a3.429,3.429,0,0,0,4.192,5.031l14.089-5.842.347-6.02,3.028,4.621,5.307-2.2-8.913-17.285Z" transform="translate(-387.372 -388.556)" fill="#2f2e41"/>
      <path id="Path_1647" data-name="Path 1647" d="M603.819,385.455a6.15,6.15,0,0,0,9.2,2.085l18.209,12.088.035-11.357-17.3-9.738a6.183,6.183,0,0,0-10.144,6.922Z" transform="translate(-358.607 -236.809)" fill="#a0616a"/>
      <path id="Path_1648" data-name="Path 1648" d="M628.615,394.324l8.5-9.665L671.7,405.195l45.854-4.2a15.506,15.506,0,0,1,16.854,16.87h0a15.522,15.522,0,0,1-16.869,14.011L665.9,427.1Z" transform="translate(-369.799 -240.43)" fill="#e6e6e6"/>
      <path id="Path_1649" data-name="Path 1649" d="M784.153,400.4l-.08-.1L762.4,398.162l-14.643,25.794c-12.587,15.389-3.441,26-2.893,27.579l-4.369,20.146.979,6.742.489,2,49.874,26.06-10.251-34.15L791.6,441.193A43.87,43.87,0,0,0,784.153,400.4Z" transform="translate(-418.91 -246.357)" fill="#e6e6e6"/>
      <path id="Path_1650" data-name="Path 1650" d="M827.281,344.365c.011.275.017.55.017.819a18.834,18.834,0,0,1-24.675,17.875l-3.462-1.128c-.028-.011-.062-.017-.09-.028l-5.706-1.863a3.906,3.906,0,0,1,.011-.724c-8.511-3.636,3.254-15.58,6.177-24.551.454-1.4-15.17-.353-14.43-1.548-.163-.084-.325-.168-.477-.252a23.123,23.123,0,0,1,25.539-9.953c.123.028.252.067.376.1,11.086.275,16.91,8,16.91,18.032A27.514,27.514,0,0,1,827.281,344.365Z" transform="translate(-438.291 -213.02)" fill="#2f2e41"/>
      <path id="Path_1651" data-name="Path 1651" d="M815.936,350.21a18.075,18.075,0,0,1-22.784,11.574q-.774-.252-1.515-.572a18.066,18.066,0,0,1-10.059-22.206,17.884,17.884,0,0,1,1.807-3.894,18.069,18.069,0,0,1,32.551,15.1Z" transform="translate(-436.552 -214.915)" fill="#a0616a"/>
      <path id="Path_1652" data-name="Path 1652" d="M796.883,359.509c-.028-.011-.062-.017-.09-.028l-5.706-1.863a3.9,3.9,0,0,1,.011-.724c.17-1.879,1.489-3.846,3.258-5.97a10.934,10.934,0,0,0-4.807-17.364l-.146-.051a50.587,50.587,0,0,1-6.558-2.716c-.163-.084-.325-.168-.477-.252a7.905,7.905,0,0,1-2.912-2.323A16.689,16.689,0,0,1,800.5,317.526l3.31,1.077a16.627,16.627,0,0,1,9.65,8.214,18.69,18.69,0,0,1,5.616,7.03C826.326,348.4,812.334,364.468,796.883,359.509Z" transform="translate(-436.013 -210.598)" fill="#2f2e41"/>
      <path id="Path_1653" data-name="Path 1653" d="M790.844,546.074a4.881,4.881,0,0,1-3.13,4.555,4.756,4.756,0,0,1-1.364.3c-.124.011-.253.017-.376.017h-9.42v45.7c-.14.185-.286.37-.432.555-.808,1.032-1.627,2.065-2.457,3.08-.18.225-.359.443-.533.662-.275.331-.544.662-.814.987-.1.112-.185.219-.275.331-.46.55-.92,1.1-1.391,1.65v.006c-.006.006-.006.006-.006.011l-.236.269c-.376.443-.752.892-1.139,1.335a4.69,4.69,0,0,1-1.369-1.15,4.539,4.539,0,0,1-.595-.92c-.006-.006-.006-.011-.011-.022a.285.285,0,0,1-.017-.039,4.792,4.792,0,0,1-.471-2.1V550.949H745.692a4.7,4.7,0,0,1-1.818-.354,4.853,4.853,0,0,1-2.929-3.411v-.006a4.8,4.8,0,0,1,.393-3.288c-.006-.006-.006-.006,0-.006a4.461,4.461,0,0,1,.858-1.2v-.006c0-.006,0-.006.006-.011a4.886,4.886,0,0,1,3.49-1.47h40.283A4.873,4.873,0,0,1,790.844,546.074Z" transform="translate(-419.051 -309.147)" fill="#3f3d56"/>
      <path id="Path_1654" data-name="Path 1654" d="M863.654,381.55a15.268,15.268,0,0,0-17.815,12.2h0a15.271,15.271,0,0,0,9.38,17l-4.59,24.547,9.58,1.791L870.36,382.8Z" transform="translate(-465.038 -238.95)" fill="#3f3d56"/>
      <circle id="Ellipse_416" data-name="Ellipse 416" cx="7.855" cy="7.855" r="7.855" transform="translate(376.971 108.842)" fill="#2f2e41"/>
      <path id="Path_1655" data-name="Path 1655" d="M946.6,342.071a35.455,35.455,0,0,1-10.644,1.393c-10.452.181-21.169-.735-30.682-5.069s-17.7-12.571-19.818-22.809c-.911-4.412-.8-9.327-3.585-12.872-3.3-4.208-9.932-4.781-14.552-2.088s-7.317,7.934-8.1,13.224l-1.861,3.025c.044,1.948,2.151,3.243,4.091,3.426s3.89-.352,5.833-.207c4.258.317,7.729,3.959,8.97,8.044s.643,8.5-.419,12.64-2.58,8.17-3.186,12.4-.195,8.813,2.292,12.284c1.866,2.605,4.711,4.332,7.6,5.714a51.292,51.292,0,0,0,72.285-35.635A14.022,14.022,0,0,1,946.6,342.071Z" transform="translate(-470.206 -202.822)" fill="#2f2e41"/>
      <path id="Path_1656" data-name="Path 1656" d="M731.7,648.446h-16a3.655,3.655,0,0,1-3.616-3.142,81.337,81.337,0,0,1,0-21.907,3.655,3.655,0,0,1,3.554-3.141c5.034-2.256,10.454-2.256,16.114,0a3.613,3.613,0,0,1,2.749,1.326,3.7,3.7,0,0,1,.763,3.081,49.18,49.18,0,0,0,0,19.378,3.7,3.7,0,0,1-.763,3.08A3.611,3.611,0,0,1,731.7,648.446Z" transform="translate(-406.116 -343.105)" fill="#ff6ba4"/>
      <path id="Path_1657" data-name="Path 1657" d="M733.448,635.15H719.984a.842.842,0,0,1,0-1.683h13.465a.842.842,0,0,1,0,1.683Z" transform="translate(-409.537 -349.647)" fill="#fff"/>
      <path id="Path_1658" data-name="Path 1658" d="M733.448,647.15H719.984a.842.842,0,1,1,0-1.683h13.465a.842.842,0,0,1,0,1.683Z" transform="translate(-409.537 -354.914)" fill="#fff"/>
      <path id="Path_1659" data-name="Path 1659" d="M733.448,659.15H719.984a.842.842,0,1,1,0-1.683h13.465a.842.842,0,0,1,0,1.683Z" transform="translate(-409.537 -360.182)" fill="#fff"/>
      <path id="Path_1660" data-name="Path 1660" d="M406.892,353.62v0a.527.527,0,0,1,.575-.46l86.558.231a.526.526,0,0,1,.571.461v0a.528.528,0,0,1-.575.46l-86.558-.231a.526.526,0,0,1-.571-.461Z" transform="translate(-272.471 -226.601)" fill="#3f3d56"/>
      <path id="Path_1661" data-name="Path 1661" d="M434.647,439.7l-3.675,4.042a1.163,1.163,0,0,1-1.246.162,3.7,3.7,0,0,1-1.573-1.078,53.8,53.8,0,0,0-8.792-7.994,3.7,3.7,0,0,1-1.223-1.464,1.18,1.18,0,0,1,.028-1.238c.037-2.212,1.282-3.582,3.7-4.073.424-.442,1.383-.274,2.243.4a89.294,89.294,0,0,1,9.94,9.037C434.809,438.293,435.065,439.242,434.647,439.7Z" transform="translate(-277.337 -259.373)" fill="#6c63ff"/>
      <path id="Path_1662" data-name="Path 1662" d="M427.8,432.9l-3.093,3.4c-.107.117-.364.057-.575-.135s-.3-.442-.189-.56l3.093-3.4c.107-.117.364-.057.575.135S427.907,432.787,427.8,432.9Z" transform="translate(-279.936 -261.276)" fill="#fff"/>
      <path id="Path_1663" data-name="Path 1663" d="M433.244,437.855l-3.093,3.4c-.107.117-.364.057-.575-.135s-.3-.442-.189-.56l3.093-3.4c.107-.117.364-.057.575.134S433.351,437.737,433.244,437.855Z" transform="translate(-282.326 -263.449)" fill="#fff"/>
      <path id="Path_1664" data-name="Path 1664" d="M438.689,442.8l-3.093,3.4c-.107.118-.364.057-.575-.134s-.3-.442-.189-.56l3.093-3.4c.107-.117.364-.057.575.135S438.8,442.688,438.689,442.8Z" transform="translate(-284.716 -265.622)" fill="#fff"/>
      <path id="Path_1665" data-name="Path 1665" d="M652.414,770.189a.665.665,0,0,1-.668.668H167.968a.668.668,0,0,1,0-1.335H651.746a.665.665,0,0,1,.668.668Z" transform="translate(-167.3 -409.369)" fill="#ccc"/>
      <path id="Path_1666" data-name="Path 1666" d="M748.657,613.312a6.15,6.15,0,0,0,1.536-9.3l10.986-18.894-11.339.639L741.145,603.6a6.183,6.183,0,0,0,7.512,9.716Z" transform="translate(-418.383 -328.422)" fill="#a0616a"/>
      <path id="Path_1667" data-name="Path 1667" d="M755.942,526.888l-10.152-7.907,18.447-35.749-6.912-45.525a15.506,15.506,0,0,1,15.84-17.825h0a15.523,15.523,0,0,1,14.986,16.008l-1.708,51.836Z" transform="translate(-421.235 -255.888)" fill="#e6e6e6"/>
      <path id="Path_1668" data-name="Path 1668" d="M577.43,368.9H543.15a3.469,3.469,0,0,1-3.465-3.465V320.05a3.469,3.469,0,0,1,3.465-3.465h34.28a3.469,3.469,0,0,1,3.465,3.465v45.39a3.469,3.469,0,0,1-3.465,3.465Z" transform="translate(-330.762 -210.548)" fill="#fb0"/>
      <path id="Path_1669" data-name="Path 1669" d="M577.21,368.276H547.749a3.08,3.08,0,0,1-3.077-3.077V324.808a3.08,3.08,0,0,1,3.077-3.077H577.21a3.08,3.08,0,0,1,3.077,3.077V365.2A3.08,3.08,0,0,1,577.21,368.276Z" transform="translate(-332.952 -212.807)" fill="#fff"/>
      <path id="Path_1670" data-name="Path 1670" d="M578.376,334.209H554.793a.769.769,0,1,1,0-1.538h23.583a.769.769,0,0,1,0,1.538Z" transform="translate(-337.057 -217.609)" fill="#6c63ff"/>
      <path id="Path_1671" data-name="Path 1671" d="M578.376,339.626H554.793a.769.769,0,1,1,0-1.538h23.583a.769.769,0,0,1,0,1.538Z" transform="translate(-337.057 -219.987)" fill="#6c63ff"/>
      <path id="Path_1672" data-name="Path 1672" d="M565.015,345.043H554.793a.769.769,0,1,1,0-1.538h10.223a.769.769,0,0,1,0,1.538Z" transform="translate(-337.057 -222.365)" fill="#6c63ff"/>
      <path id="Path_1673" data-name="Path 1673" d="M578.376,356.389H554.793a.769.769,0,0,1,0-1.538h23.583a.769.769,0,0,1,0,1.538Z" transform="translate(-337.057 -227.345)" fill="#e4e4e4"/>
      <path id="Path_1674" data-name="Path 1674" d="M578.376,361.805H554.793a.769.769,0,1,1,0-1.538h23.583a.769.769,0,0,1,0,1.538Z" transform="translate(-337.057 -229.723)" fill="#e4e4e4"/>
      <path id="Path_1675" data-name="Path 1675" d="M565.015,367.222H554.793a.769.769,0,1,1,0-1.538h10.223a.769.769,0,0,1,0,1.538Z" transform="translate(-337.057 -232.1)" fill="#e4e4e4"/>
      <path id="Path_1676" data-name="Path 1676" d="M578.376,378.568H554.793a.769.769,0,0,1,0-1.538h23.583a.769.769,0,0,1,0,1.538Z" transform="translate(-337.057 -237.081)" fill="#e4e4e4"/>
      <path id="Path_1677" data-name="Path 1677" d="M578.376,383.985H554.793a.769.769,0,1,1,0-1.538h23.583a.769.769,0,0,1,0,1.538Z" transform="translate(-337.057 -239.459)" fill="#e4e4e4"/>
      <path id="Path_1678" data-name="Path 1678" d="M565.015,389.4H554.793a.769.769,0,1,1,0-1.538h10.223a.769.769,0,0,1,0,1.538Z" transform="translate(-337.057 -241.837)" fill="#e4e4e4"/>
      <path id="Path_1679" data-name="Path 1679" d="M231.746,112.915l91.963-78.659h.146v1.155h.281L232.5,113.793Z" transform="translate(-101.73 -15.037)" fill="#2f2e41"/>
      <path id="Path_1680" data-name="Path 1680" d="M477.179,463.055H434.894a2.494,2.494,0,0,0-2.492,2.492v26.326a2.5,2.5,0,0,0,2.492,2.492h42.284a2.5,2.5,0,0,0,2.492-2.492V465.547A2.5,2.5,0,0,0,477.179,463.055Z" transform="translate(-283.67 -274.843)" fill="#fff"/>
      <path id="Path_1681" data-name="Path 1681" d="M477.179,463.055H434.894a2.494,2.494,0,0,0-2.492,2.492v26.326a2.5,2.5,0,0,0,2.492,2.492h42.284a2.5,2.5,0,0,0,2.492-2.492V465.547A2.5,2.5,0,0,0,477.179,463.055Zm.818,18.91a10.243,10.243,0,0,1-10.071,10.2c-4.291.056,2.374.078-2.8.078-11.833,0-24.171-.113-28.775-.186a2.321,2.321,0,0,1-2.273-2.312v-24.2a.82.82,0,0,1,.818-.82h42.283a.82.82,0,0,1,.819.817Z" transform="translate(-283.67 -274.843)" fill="#cacaca"/>
      <path id="Path_1682" data-name="Path 1682" d="M472.09,479.859H439.873a1.385,1.385,0,0,1-1.3-.918L433.6,464.982a1.382,1.382,0,0,1,1.3-1.846l43.207-.077h0a1.382,1.382,0,0,1,1.27,1.926l-.075-.032.075.032-6.015,14.036A1.38,1.38,0,0,1,472.09,479.859Z" transform="translate(-284.158 -274.844)" fill="#cacaca"/>
      <circle id="Ellipse_417" data-name="Ellipse 417" cx="3.442" cy="3.442" r="3.442" transform="translate(168.9 201.572)" fill="#3f3d56"/>
      <path id="Path_1683" data-name="Path 1683" d="M251.092,694.677c-.673,4.96-4.045,9.437-8.382,12.36a22.135,22.135,0,0,1-3.26,1.823,28.354,28.354,0,0,1-3.854,1.414c-5.779,1.689-12.023,1.762-18.1,1.8l-18.424.118c-4.842.028-9.841.028-14.312-1.829a2.052,2.052,0,0,1-.2-.084c-4.393-1.9-8.135-6.065-8.028-10.834a9.772,9.772,0,0,1,1.38-4.763,13.947,13.947,0,0,1,2.042-2.671,33.485,33.485,0,0,1,8.977-6.1c5.218-2.62,11.114-6.02,12.64-11.406a9.67,9.67,0,0,0,.325-1.734c.359-3.7-1.442-7.108-3.737-10.155-.224-.3-.46-.606-.7-.909-.516-.645-1.049-1.279-1.577-1.885-.224-.258-.449-.522-.679-.785-2.121-2.457-4.258-5.083-5.375-8.017a11.6,11.6,0,0,1-.791-3.849c-.123-4.763,5.2-9.56,9.229-7.31q2.962-.286,5.925-.589c2.424-.241,4.836-.482,7.254-.729h.006c.544-.045,1.077-.1,1.61-.157q7.549-.749,15.086-1.509c2.233-.219,4.859-.3,6.312,1.414,1.582,1.874.763,4.836-.8,6.727s-3.737,3.22-5.206,5.173a11.264,11.264,0,0,0-1.8,8.848,15.882,15.882,0,0,0,.707,2.671,17.856,17.856,0,0,0,2.261,4.359c3.3,4.623,8.186,7.81,12.522,11.473s8.4,8.326,9,13.97c.017.163.034.331.039.5A12.848,12.848,0,0,1,251.092,694.677Z" transform="translate(-171.353 -351.091)" fill="#e6e6e6"/>
      <path id="Path_1684" data-name="Path 1684" d="M231.612,580.4a63.787,63.787,0,0,1-11.071-14.653,65.061,65.061,0,0,1-6.483-17.1,62.5,62.5,0,0,1-1.341-18.5,64.764,64.764,0,0,1,13.416-34.679q.711-.912,1.457-1.8c.554-.66,1.5.29.945.945a62.577,62.577,0,0,0,4.023,84.832c.614.6-.332,1.55-.945.945Z" transform="translate(-187.156 -288.187)" fill="#e6e6e6"/>
      <path id="Path_1685" data-name="Path 1685" d="M235.812,498.538a16.187,16.187,0,0,0,1.588-.693l.078.121Z" transform="translate(-197.374 -290.114)" fill="#e6e6e6"/>
      <path id="Path_1686" data-name="Path 1686" d="M244.2,471.817a12.891,12.891,0,0,1-1.173,3.523,16.893,16.893,0,0,1-7.041,7.3c-.168.09-.342.185-.516.269-.208-.325-.421-.651-.623-.976a22.632,22.632,0,0,1-3.131-6.979,10.206,10.206,0,0,1,1.577-8.545c1.868-2.34,5.436-3.389,8.023-1.874a5.645,5.645,0,0,1,1.851,1.79c-.258.32-.516.634-.774.954a.97.97,0,0,1-.073.084c-.224.28-.454.555-.679.836-.937,1.15-1.868,2.306-2.805,3.45a17.746,17.746,0,0,0,4.006.275l.325-.017C243.515,471.889,243.863,471.861,244.2,471.817Z" transform="translate(-195.447 -275.183)" fill="#e6e6e6"/>
      <path id="Path_1687" data-name="Path 1687" d="M208.151,492.306l-.359,4.679-.1,1.268-.309-.151a27.38,27.38,0,0,1-14.29-17.5,26.6,26.6,0,0,1-.7-3.978c1.818-.281,3.641-.567,5.459-.847a17.917,17.917,0,0,0-5.42-4.7,27.082,27.082,0,0,1,4.909-12.988c.471,7.843,8.685,12.831,11.692,20.085a16.316,16.316,0,0,1-.886,14.127Z" transform="translate(-178.317 -272.665)" fill="#e6e6e6"/>
      <path id="Path_1688" data-name="Path 1688" d="M195.576,568.418c-.438.022-.875.034-1.307.028a27.417,27.417,0,0,1-19.883-8.724,26.629,26.629,0,0,1-4.9-7.669l.112-.017c1.818-.28,3.641-.567,5.459-.847a17.85,17.85,0,0,0-7.434-5.667,26.74,26.74,0,0,1-.09-7.658c4.107,6.693,13.706,7.232,19.771,12.214a16.353,16.353,0,0,1,5.582,9.442,15.383,15.383,0,0,1,.286,2.771c.006.225.006.443,0,.662l.135.3Z" transform="translate(-167.301 -307.681)" fill="#e6e6e6"/>
      <path id="Path_1689" data-name="Path 1689" d="M238.687,587.619c-1.161,1.425-2.323,2.861-3.484,4.286a17.783,17.783,0,0,0,4.331.258,27.421,27.421,0,0,1-7.164,12.158c-.32.314-.651.623-.987.914-.067.062-.14.123-.208.185l-.3-.858-.006-.005-1.717-4.752a16.237,16.237,0,0,1-4.348-7.972v-.011a15.662,15.662,0,0,1-.275-5.386c.959-7.793,7.546-14.8,5.908-22.481a27.2,27.2,0,0,1,8.135,11.036c-.937,1.15-1.868,2.306-2.805,3.45a17.742,17.742,0,0,0,4.006.275,26.236,26.236,0,0,1,.763,5.8c.006.281.006.555,0,.836-.589.729-1.184,1.453-1.773,2.182A.971.971,0,0,1,238.687,587.619Z" transform="translate(-192.369 -319.133)" fill="#e6e6e6"/>
      <path id="Path_1690" data-name="Path 1690" d="M586.43,165.879H552.15a3.469,3.469,0,0,1-3.465-3.465V131.049a3.469,3.469,0,0,1,3.465-3.465h34.28a3.469,3.469,0,0,1,3.465,3.465v31.364A3.469,3.469,0,0,1,586.43,165.879Z" transform="translate(-334.713 -127.584)" fill="#fb0"/>
      <path id="Path_1691" data-name="Path 1691" d="M586.21,165.25H556.749a3.08,3.08,0,0,1-3.077-3.077V135.808a3.08,3.08,0,0,1,3.077-3.077H586.21a3.08,3.08,0,0,1,3.077,3.077v26.365A3.08,3.08,0,0,1,586.21,165.25Z" transform="translate(-336.902 -129.843)" fill="#fff"/>
      <path id="Path_1692" data-name="Path 1692" d="M587.376,145.209H563.793a.769.769,0,0,1,0-1.538h23.583a.769.769,0,0,1,0,1.538Z" transform="translate(-341.008 -134.645)" fill="#6c63ff"/>
      <path id="Path_1693" data-name="Path 1693" d="M587.376,150.626H563.793a.769.769,0,1,1,0-1.538h23.583a.769.769,0,1,1,0,1.538Z" transform="translate(-341.007 -137.023)" fill="#6c63ff"/>
      <path id="Path_1694" data-name="Path 1694" d="M574.015,156.043H563.793a.769.769,0,1,1,0-1.538h10.223a.769.769,0,0,1,0,1.538Z" transform="translate(-341.007 -139.401)" fill="#6c63ff"/>
      <path id="Path_1695" data-name="Path 1695" d="M587.376,167.389H563.793a.769.769,0,0,1,0-1.538h23.583a.769.769,0,0,1,0,1.538Z" transform="translate(-341.008 -144.381)" fill="#e4e4e4"/>
      <path id="Path_1696" data-name="Path 1696" d="M587.376,172.805H563.793a.769.769,0,1,1,0-1.538h23.583a.769.769,0,1,1,0,1.538Z" transform="translate(-341.007 -146.759)" fill="#e4e4e4"/>
      <path id="Path_1697" data-name="Path 1697" d="M574.015,178.222H563.793a.769.769,0,1,1,0-1.538h10.223a.769.769,0,0,1,0,1.538Z" transform="translate(-341.007 -149.137)" fill="#e4e4e4"/>
    </g>
  </g>
</svg>
